<?xml version="1.0" encoding="utf-8"?>
<!-- Generator: Adobe Illustrator 16.0.3, SVG Export Plug-In . SVG Version: 6.00 Build 0)  -->
<!DOCTYPE svg PUBLIC "-//W3C//DTD SVG 1.1//EN" "http://www.w3.org/Graphics/SVG/1.1/DTD/svg11.dtd">
<svg version="1.1" xmlns="http://www.w3.org/2000/svg" xmlns:xlink="http://www.w3.org/1999/xlink" x="0px" y="0px" width="22.68px"
	 height="22.68px" viewBox="0 0 22.68 22.68" enable-background="new 0 0 22.68 22.68" xml:space="preserve">
<g id="BCGRND">
</g>
<g id="BAREVNE_POZADI_IKON">
	<rect y="0" fill="#585857" width="22.676" height="22.678"/>
</g>
<g id="IKONY">
	<g>
		<g>
			<rect x="0.002" y="14.018" fill="#FFFFFF" width="22.677" height="0.889"/>
		</g>
		<g>
			<path fill="#FFFFFF" d="M5.35,19.178c0.19,0.112,0.488,0.21,0.796,0.21c0.381,0,0.596-0.181,0.596-0.449
				c0-0.249-0.166-0.396-0.581-0.547c-0.547-0.195-0.894-0.483-0.894-0.957c0-0.542,0.449-0.947,1.167-0.947
				c0.356,0,0.615,0.078,0.786,0.166l-0.142,0.483c-0.122-0.063-0.352-0.156-0.659-0.156c-0.381,0-0.542,0.2-0.542,0.396
				c0,0.254,0.19,0.371,0.63,0.542c0.571,0.215,0.845,0.503,0.845,0.977c0,0.532-0.4,0.991-1.245,0.991
				c-0.352,0-0.713-0.098-0.894-0.21L5.35,19.178z"/>
			<path fill="#FFFFFF" d="M7.922,18.163c0-0.273-0.01-0.503-0.02-0.708h0.512l0.029,0.352h0.016
				c0.111-0.186,0.326-0.405,0.732-0.405c0.313,0,0.557,0.176,0.658,0.439h0.01c0.084-0.132,0.182-0.229,0.289-0.298
				c0.137-0.093,0.287-0.142,0.488-0.142c0.391,0,0.791,0.269,0.791,1.03v1.401h-0.586v-1.313c0-0.396-0.137-0.63-0.426-0.63
				c-0.205,0-0.355,0.146-0.42,0.317c-0.02,0.054-0.029,0.132-0.029,0.2v1.426H9.381v-1.377c0-0.332-0.131-0.566-0.41-0.566
				c-0.225,0-0.375,0.176-0.434,0.337c-0.02,0.063-0.029,0.132-0.029,0.2v1.406H7.922V18.163z"/>
			<path fill="#FFFFFF" d="M12.418,17.455l0.426,1.274c0.049,0.146,0.102,0.327,0.137,0.459h0.014
				c0.035-0.132,0.078-0.313,0.127-0.464l0.371-1.27h0.641l-0.596,1.621c-0.328,0.889-0.547,1.284-0.826,1.528
				c-0.238,0.205-0.482,0.283-0.629,0.303l-0.137-0.503c0.102-0.024,0.225-0.078,0.346-0.166c0.117-0.073,0.25-0.215,0.332-0.376
				c0.025-0.044,0.035-0.078,0.035-0.107c0-0.024-0.006-0.059-0.029-0.117l-0.875-2.183H12.418z"/>
			<path fill="#FFFFFF" d="M14.448,19.276c0.132,0.083,0.391,0.176,0.605,0.176c0.264,0,0.381-0.112,0.381-0.269
				c0-0.161-0.098-0.239-0.391-0.347c-0.464-0.156-0.654-0.41-0.654-0.693c0-0.42,0.347-0.742,0.898-0.742
				c0.264,0,0.493,0.063,0.635,0.142l-0.122,0.42c-0.098-0.059-0.293-0.137-0.503-0.137c-0.215,0-0.332,0.107-0.332,0.254
				c0,0.151,0.112,0.22,0.415,0.332c0.435,0.151,0.63,0.371,0.635,0.723c0,0.435-0.337,0.747-0.967,0.747
				c-0.288,0-0.547-0.068-0.723-0.166L14.448,19.276z"/>
			<path fill="#FFFFFF" d="M16.561,16.366h0.6v3.467h-0.6V16.366z"/>
		</g>
		<g>
			<path fill="#FFFFFF" d="M13.067,4.266c-0.24-0.013-0.507,0-0.827,0.04c-1.826,0.214-2.693,1.32-2.907,2.521h0.04
				c0.427-0.493,1.08-0.84,1.947-0.84c1.494,0,2.654,1.066,2.654,2.827c0,1.653-1.214,3.094-3.055,3.094
				c-2.107,0-3.268-1.601-3.268-3.747c0-1.667,0.601-3.014,1.508-3.867C9.947,3.533,11,3.106,12.24,3.012
				c0.36-0.053,0.627-0.053,0.827-0.039V4.266z M12.307,8.908c0-1.014-0.547-1.721-1.506-1.721c-0.614,0-1.16,0.373-1.414,0.894
				C9.32,8.214,9.279,8.374,9.279,8.6c0.027,1.147,0.561,2.081,1.641,2.081C11.76,10.681,12.307,9.948,12.307,8.908z"/>
			<path fill="#FFFFFF" d="M15.01,10.854c0-0.613,0.428-1.053,1.014-1.053c0.601,0,1.014,0.427,1.014,1.053
				c0,0.601-0.4,1.054-1.027,1.054C15.424,11.908,15.01,11.455,15.01,10.854z"/>
		</g>
	</g>
</g>
</svg>
