<?xml version="1.0" encoding="utf-8"?>
<!-- Generator: Adobe Illustrator 16.0.3, SVG Export Plug-In . SVG Version: 6.00 Build 0)  -->
<!DOCTYPE svg PUBLIC "-//W3C//DTD SVG 1.1//EN" "http://www.w3.org/Graphics/SVG/1.1/DTD/svg11.dtd">
<svg version="1.1" xmlns="http://www.w3.org/2000/svg" xmlns:xlink="http://www.w3.org/1999/xlink" x="0px" y="0px" width="22.68px"
	 height="22.68px" viewBox="0 0 22.68 22.68" enable-background="new 0 0 22.68 22.68" xml:space="preserve">
<g id="BCGRND">
</g>
<g id="BAREVNE_POZADI_IKON">
	<rect x="0.005" fill="#585857" width="22.676" height="22.678"/>
</g>
<g id="IKONY">
	<g>
		<defs>
			<rect id="SVGID_1_" x="0.005" width="22.676" height="22.678"/>
		</defs>
		<clipPath id="SVGID_2_">
			<use xlink:href="#SVGID_1_"  overflow="visible"/>
		</clipPath>
		<g clip-path="url(#SVGID_2_)">
			<g>
				<rect x="0.006" y="11.956" fill="#FFFFFF" width="22.678" height="0.889"/>
			</g>
			<g>
				<path fill="#FFFFFF" d="M5.774,4.354L5.491,5.287H4.872l1.055-3.291h0.766l1.07,3.291h-0.65L6.815,4.354H5.774z M6.717,3.9
					L6.458,3.09C6.395,2.889,6.34,2.664,6.292,2.475h-0.01C6.233,2.664,6.18,2.895,6.126,3.09L5.872,3.9H6.717z"/>
				<path fill="#FFFFFF" d="M9.885,5.213C9.758,5.271,9.508,5.336,9.212,5.336c-0.742,0-1.227-0.479-1.227-1.217
					c0-0.713,0.488-1.264,1.324-1.264c0.219,0,0.443,0.049,0.58,0.107L9.782,3.416C9.684,3.367,9.544,3.324,9.329,3.324
					C8.87,3.324,8.596,3.66,8.6,4.096c0,0.488,0.318,0.766,0.729,0.766c0.205,0,0.355-0.043,0.473-0.092L9.885,5.213z"/>
				<path fill="#FFFFFF" d="M11.094,2.299v0.609h0.57v0.449h-0.57v1.051c0,0.293,0.078,0.439,0.307,0.439
					c0.107,0,0.166-0.006,0.234-0.025l0.01,0.455c-0.088,0.033-0.248,0.063-0.434,0.063c-0.225,0-0.406-0.072-0.518-0.195
					c-0.133-0.137-0.191-0.355-0.191-0.668V3.357h-0.336V2.908h0.336V2.465L11.094,2.299z"/>
				<path fill="#FFFFFF" d="M12.76,2.244c0,0.176-0.131,0.322-0.342,0.322c-0.199,0-0.332-0.146-0.332-0.322
					c0-0.186,0.137-0.326,0.338-0.326C12.63,1.918,12.756,2.059,12.76,2.244z M12.122,5.287V2.908h0.6v2.379H12.122z"/>
				<path fill="#FFFFFF" d="M13.755,2.908l0.385,1.207c0.068,0.209,0.117,0.4,0.162,0.596h0.014
					c0.045-0.195,0.098-0.381,0.162-0.596l0.381-1.207h0.629l-0.908,2.379h-0.59l-0.885-2.379H13.755z"/>
				<path fill="#FFFFFF" d="M16.217,4.266c0.016,0.43,0.348,0.615,0.732,0.615c0.279,0,0.475-0.043,0.66-0.107l0.088,0.41
					c-0.205,0.088-0.488,0.152-0.83,0.152c-0.771,0-1.227-0.475-1.227-1.201c0-0.66,0.4-1.279,1.162-1.279
					c0.771,0,1.025,0.635,1.025,1.156c0,0.113-0.01,0.201-0.02,0.254H16.217z M17.262,3.846c0.006-0.219-0.092-0.58-0.492-0.58
					c-0.371,0-0.527,0.336-0.553,0.58H17.262z"/>
				<path fill="#FFFFFF" d="M6.446,8.107c0,1.104-0.668,1.732-1.572,1.732c-0.932,0-1.518-0.713-1.518-1.674
					c0-1.016,0.639-1.729,1.566-1.729C5.88,6.438,6.446,7.164,6.446,8.107z M3.991,8.15c0,0.674,0.336,1.207,0.912,1.207
					c0.582,0,0.908-0.543,0.908-1.23c0-0.621-0.307-1.207-0.908-1.207C4.307,6.92,3.991,7.473,3.991,8.15z"/>
				<path fill="#FFFFFF" d="M7.301,7.408l0.283,0.449c0.078,0.127,0.146,0.244,0.215,0.367h0.01
					c0.068-0.133,0.137-0.254,0.209-0.377l0.264-0.439h0.654L8.141,8.551l0.811,1.236H8.268L7.979,9.313
					C7.901,9.186,7.833,9.059,7.764,8.928h-0.01C7.686,9.064,7.614,9.182,7.54,9.313L7.266,9.787H6.602l0.826-1.211L6.631,7.408
					H7.301z"/>
				<path fill="#FFFFFF" d="M9.78,7.408l0.424,1.275c0.049,0.146,0.104,0.326,0.137,0.459h0.016
					c0.033-0.133,0.078-0.313,0.127-0.465l0.371-1.27h0.639l-0.596,1.621c-0.326,0.889-0.547,1.285-0.824,1.529
					c-0.24,0.205-0.484,0.283-0.631,0.303l-0.137-0.504c0.104-0.023,0.225-0.078,0.348-0.166c0.117-0.072,0.248-0.215,0.332-0.375
					c0.023-0.045,0.033-0.078,0.033-0.107c0-0.025-0.004-0.059-0.029-0.117L9.116,7.408H9.78z"/>
				<path fill="#FFFFFF" d="M13.938,9.439c0,0.498-0.104,0.855-0.352,1.08c-0.244,0.219-0.592,0.287-0.918,0.287
					c-0.303,0-0.625-0.068-0.83-0.189l0.131-0.455c0.152,0.088,0.406,0.182,0.693,0.182c0.391,0,0.684-0.205,0.684-0.719V9.42h-0.01
					c-0.137,0.211-0.375,0.352-0.693,0.352c-0.59,0-1.01-0.488-1.01-1.162c0-0.781,0.508-1.254,1.078-1.254
					c0.367,0,0.576,0.176,0.689,0.371h0.01l0.023-0.318h0.523c-0.01,0.162-0.02,0.357-0.02,0.684V9.439z M13.337,8.361
					c0-0.059-0.004-0.113-0.02-0.162c-0.063-0.219-0.234-0.385-0.488-0.385c-0.336,0-0.586,0.293-0.586,0.775
					c0,0.406,0.205,0.732,0.582,0.732c0.225,0,0.42-0.146,0.488-0.365c0.02-0.059,0.023-0.143,0.023-0.211V8.361z"/>
				<path fill="#FFFFFF" d="M15.01,8.766c0.016,0.43,0.348,0.615,0.732,0.615c0.279,0,0.475-0.043,0.66-0.107l0.088,0.41
					c-0.205,0.088-0.488,0.152-0.83,0.152c-0.771,0-1.227-0.475-1.227-1.201c0-0.66,0.4-1.279,1.162-1.279
					c0.771,0,1.025,0.635,1.025,1.156c0,0.113-0.01,0.201-0.02,0.254H15.01z M16.055,8.346c0.006-0.219-0.092-0.58-0.492-0.58
					c-0.371,0-0.527,0.336-0.553,0.58H16.055z"/>
				<path fill="#FFFFFF" d="M17.108,8.117c0-0.273-0.01-0.504-0.02-0.709h0.523l0.029,0.357h0.014
					c0.107-0.186,0.367-0.41,0.762-0.41c0.416,0,0.846,0.268,0.846,1.02v1.412h-0.602V8.443c0-0.342-0.127-0.6-0.453-0.6
					c-0.24,0-0.406,0.17-0.469,0.352c-0.02,0.049-0.029,0.121-0.029,0.189v1.402h-0.602V8.117z"/>
			</g>
			<g>
				<path fill="#FFFFFF" d="M17.788,14.482c-1.061,0-1.922,0.859-1.922,1.922s0.861,1.923,1.922,1.923
					c1.063,0,1.924-0.86,1.924-1.923S18.85,14.482,17.788,14.482z M18.835,16.64h-0.799v0.839H17.54V16.64h-0.799v-0.478h0.799
					V15.33h0.496v0.832h0.799V16.64z M9.122,14.482c-1.063,0-1.922,0.859-1.922,1.922s0.859,1.923,1.922,1.923
					s1.924-0.86,1.924-1.923S10.184,14.482,9.122,14.482z M10.169,16.64H9.37v0.839H8.874V16.64H8.075v-0.478h0.799V15.33H9.37
					v0.832h0.799V16.64z M0.454,14.482c-0.154,0-0.303,0.023-0.447,0.058v1.622h0.199V15.33h0.496v0.832h0.799v0.478H0.702v0.839
					H0.206V16.64H0.006v1.63c0.145,0.034,0.293,0.058,0.447,0.058c1.063,0,1.924-0.86,1.924-1.923S1.516,14.482,0.454,14.482z
					 M13.454,16.895c-1.061,0-1.922,0.859-1.922,1.922s0.861,1.923,1.922,1.923c1.063,0,1.924-0.86,1.924-1.923
					S14.516,16.895,13.454,16.895z M14.426,19.068h-1.943v-0.504h1.943V19.068z M4.788,16.895c-1.063,0-1.922,0.859-1.922,1.922
					s0.859,1.923,1.922,1.923s1.924-0.86,1.924-1.923S5.85,16.895,4.788,16.895z M5.76,19.068H3.817v-0.504H5.76V19.068z
					 M22.122,16.895c-1.061,0-1.922,0.859-1.922,1.922s0.861,1.923,1.922,1.923c1.063,0,1.924-0.86,1.924-1.923
					S23.184,16.895,22.122,16.895z M23.094,19.068h-1.943v-0.504h1.943V19.068z"/>
			</g>
		</g>
	</g>
</g>
</svg>
