<?xml version="1.0" encoding="utf-8"?>
<!-- Generator: Adobe Illustrator 16.0.3, SVG Export Plug-In . SVG Version: 6.00 Build 0)  -->
<!DOCTYPE svg PUBLIC "-//W3C//DTD SVG 1.1//EN" "http://www.w3.org/Graphics/SVG/1.1/DTD/svg11.dtd">
<svg version="1.1" xmlns="http://www.w3.org/2000/svg" xmlns:xlink="http://www.w3.org/1999/xlink" x="0px" y="0px" width="22.68px"
	 height="22.68px" viewBox="0 0 22.68 22.68" enable-background="new 0 0 22.68 22.68" xml:space="preserve">
<g id="BCGRND">
</g>
<g id="BAREVNE_BCGRND">
	<rect x="0.001" fill="#585857" width="22.68" height="22.67"/>
</g>
<g id="IKONY">
	<g>
		<g>
			<rect x="0" y="7.765" fill="#FFFFFF" width="22.678" height="0.889"/>
			<g>
				<g>
					<path fill="#FFFFFF" d="M1.785,4.719L1.55,5.563H0.779l1.006-3.291h0.977l1.021,3.291H2.981L2.727,4.719H1.785z M2.62,4.162
						L2.415,3.464C2.356,3.269,2.297,3.024,2.249,2.829h-0.01C2.19,3.024,2.141,3.273,2.087,3.464L1.892,4.162H2.62z"/>
					<path fill="#FFFFFF" d="M4.899,2.272v3.291H4.152V2.272H4.899z"/>
					<path fill="#FFFFFF" d="M6.362,3.962c0-0.352-0.01-0.581-0.02-0.786h0.64l0.024,0.439h0.02C7.148,3.269,7.441,3.122,7.67,3.122
						c0.068,0,0.103,0,0.156,0.01v0.703c-0.054-0.015-0.117-0.024-0.2-0.024c-0.273,0-0.459,0.146-0.508,0.376
						c-0.01,0.049-0.015,0.107-0.015,0.166v1.211H6.362V3.962z"/>
					<path fill="#FFFFFF" d="M8.678,4.606c0.024,0.308,0.327,0.454,0.674,0.454c0.254,0,0.459-0.034,0.659-0.098l0.098,0.503
						C9.865,5.563,9.567,5.617,9.245,5.617c-0.811,0-1.274-0.474-1.274-1.221c0-0.605,0.376-1.274,1.206-1.274
						c0.771,0,1.064,0.601,1.064,1.191c0,0.127-0.015,0.239-0.024,0.293H8.678z M9.552,4.099c0-0.181-0.078-0.483-0.42-0.483
						c-0.313,0-0.439,0.283-0.459,0.483H9.552z"/>
					<path fill="#FFFFFF" d="M12.407,5.505c-0.132,0.059-0.381,0.112-0.664,0.112c-0.771,0-1.265-0.474-1.265-1.226
						c0-0.698,0.479-1.27,1.367-1.27c0.195,0,0.41,0.034,0.566,0.093l-0.117,0.552c-0.088-0.039-0.22-0.073-0.415-0.073
						c-0.391,0-0.645,0.278-0.64,0.669c0,0.439,0.293,0.669,0.654,0.669c0.176,0,0.313-0.029,0.425-0.078L12.407,5.505z"/>
					<path fill="#FFFFFF" d="M13.264,4.606c0.024,0.308,0.327,0.454,0.674,0.454c0.254,0,0.459-0.034,0.659-0.098l0.098,0.503
						c-0.244,0.098-0.542,0.151-0.864,0.151c-0.811,0-1.274-0.474-1.274-1.221c0-0.605,0.376-1.274,1.206-1.274
						c0.771,0,1.064,0.601,1.064,1.191c0,0.127-0.015,0.239-0.024,0.293H13.264z M14.138,4.099c0-0.181-0.078-0.483-0.42-0.483
						c-0.313,0-0.439,0.283-0.459,0.483H14.138z"/>
					<path fill="#FFFFFF" d="M15.201,3.977c0-0.313-0.01-0.581-0.02-0.801h0.645l0.034,0.332h0.01
						c0.176-0.254,0.449-0.386,0.796-0.386c0.522,0,0.991,0.454,0.991,1.216c0,0.869-0.552,1.279-1.084,1.279
						c-0.288,0-0.513-0.117-0.62-0.273h-0.01V6.53h-0.742V3.977z M15.943,4.538c0,0.059,0.005,0.112,0.015,0.156
						c0.049,0.2,0.22,0.352,0.435,0.352c0.322,0,0.513-0.269,0.513-0.674c0-0.381-0.171-0.669-0.503-0.669
						c-0.21,0-0.396,0.156-0.444,0.376c-0.01,0.039-0.015,0.088-0.015,0.132V4.538z"/>
					<path fill="#FFFFFF" d="M18.881,2.526v0.649h0.532v0.547h-0.532v0.864c0,0.288,0.068,0.42,0.293,0.42
						c0.103,0,0.146-0.005,0.22-0.02l0.005,0.562c-0.098,0.039-0.273,0.068-0.483,0.068c-0.239,0-0.439-0.088-0.557-0.21
						c-0.137-0.142-0.205-0.371-0.205-0.708V3.723h-0.317V3.176h0.317V2.727L18.881,2.526z"/>
					<path fill="#FFFFFF" d="M20.353,3.176l0.356,1.172c0.039,0.142,0.088,0.317,0.117,0.444h0.015
						c0.034-0.127,0.073-0.308,0.107-0.444l0.293-1.172h0.796l-0.557,1.572c-0.342,0.947-0.571,1.328-0.84,1.567
						c-0.259,0.225-0.532,0.303-0.718,0.327l-0.156-0.63c0.093-0.015,0.21-0.059,0.322-0.127c0.112-0.059,0.234-0.176,0.308-0.298
						c0.024-0.034,0.039-0.073,0.039-0.107c0-0.024-0.005-0.063-0.034-0.122l-0.874-2.183H20.353z"/>
				</g>
			</g>
		</g>
		<path opacity="0.5" fill="#FFFFFF" d="M14.393,12.435c0,0,0.146-2.148-1.798-2.654C7.919,8.563,7.75,13.103,7.75,13.103
			c-2.503-0.668-5.049,1.376-3.946,4.481c0.22,0.617,0.544,1.035,0.899,1.323c0.689,0.557,2.722,0.871,3.97,0.255
			c-0.333,0.542-1.22,0.846-1.977,0.899v0.831h8.99v-1.792c-2.202-0.232-2.229-1.267-2.229-1.267
			c1.075,1.243,3.138,0.54,3.271,0.495c0.885-0.399,1.986-1.268,1.845-3.122C18.34,12.167,14.393,12.435,14.393,12.435z"/>
		<g>
			<path fill="#FFFFFF" d="M12.769,14.106v1.8l-1.97-3.3l-2.69,4.49h1.04l0.4-0.67h2.5l0.399,0.67h1.211v-2.99H12.769z
				 M10.08,15.537l0.72-1.2l0.72,1.2H10.08z"/>
			<rect x="12.769" y="12.563" fill="#FFFFFF" width="0.889" height="0.793"/>
		</g>
		<rect x="6.696" y="21.781" opacity="0.5" fill="#FFFFFF" width="8.99" height="0.889"/>
	</g>
</g>
</svg>
