<?xml version="1.0" encoding="utf-8"?>
<!-- Generator: Adobe Illustrator 16.0.3, SVG Export Plug-In . SVG Version: 6.00 Build 0)  -->
<!DOCTYPE svg PUBLIC "-//W3C//DTD SVG 1.1//EN" "http://www.w3.org/Graphics/SVG/1.1/DTD/svg11.dtd">
<svg version="1.1" xmlns="http://www.w3.org/2000/svg" xmlns:xlink="http://www.w3.org/1999/xlink" x="0px" y="0px" width="22.68px"
	 height="22.68px" viewBox="0 0 22.68 22.68" enable-background="new 0 0 22.68 22.68" xml:space="preserve">
<g id="BCGRND">
</g>
<g id="BAREVNE_BCGRND">
	<polygon fill="#585857" points="22.68,16.334 22.68,0 0.002,0 0.002,22.677 14.119,22.677 22.68,22.677 	"/>
</g>
<g id="IKONY">
	<g>
		<rect x="0.002" y="7.768" fill="#FFFFFF" width="22.678" height="0.889"/>
		<g>
			<g>
				<path fill="#FFFFFF" d="M3.021,4.723L2.787,5.567H2.016l1.006-3.291h0.977l1.021,3.291H4.218L3.964,4.723H3.021z M3.856,4.166
					L3.651,3.468C3.593,3.272,3.534,3.028,3.485,2.833h-0.01C3.427,3.028,3.378,3.277,3.324,3.468L3.129,4.166H3.856z"/>
				<path fill="#FFFFFF" d="M6.209,2.276v3.291H5.462V2.276H6.209z"/>
				<path fill="#FFFFFF" d="M7.813,4.918c0.137,0.083,0.42,0.181,0.64,0.181c0.225,0,0.317-0.078,0.317-0.2S8.697,4.718,8.419,4.625
					C7.926,4.459,7.735,4.19,7.74,3.912c0-0.449,0.381-0.786,0.972-0.786c0.278,0,0.527,0.063,0.674,0.137L9.254,3.775
					C9.146,3.717,8.941,3.639,8.736,3.639c-0.181,0-0.283,0.073-0.283,0.195c0,0.112,0.093,0.171,0.386,0.273
					c0.454,0.156,0.645,0.386,0.649,0.737c0,0.444-0.352,0.776-1.035,0.776c-0.313,0-0.591-0.073-0.771-0.171L7.813,4.918z"/>
				<path fill="#FFFFFF" d="M12.299,4.347c0,0.874-0.62,1.274-1.26,1.274c-0.698,0-1.235-0.459-1.235-1.23s0.508-1.265,1.274-1.265
					C11.811,3.126,12.299,3.629,12.299,4.347z M10.57,4.371c0,0.41,0.171,0.718,0.488,0.718c0.288,0,0.474-0.288,0.474-0.718
					c0-0.356-0.137-0.718-0.474-0.718C10.702,3.653,10.57,4.02,10.57,4.371z"/>
				<path fill="#FFFFFF" d="M12.761,3.941c0-0.298-0.01-0.552-0.02-0.762h0.645l0.034,0.327h0.015
					c0.098-0.151,0.342-0.381,0.737-0.381c0.488,0,0.854,0.322,0.854,1.025v1.416h-0.742V4.244c0-0.308-0.107-0.518-0.376-0.518
					c-0.205,0-0.327,0.142-0.376,0.278c-0.02,0.049-0.029,0.117-0.029,0.186v1.377h-0.742V3.941z"/>
				<path fill="#FFFFFF" d="M17.94,2.101v2.754c0,0.269,0.01,0.552,0.02,0.713h-0.659l-0.034-0.352h-0.01
					c-0.151,0.269-0.439,0.405-0.747,0.405c-0.566,0-1.021-0.483-1.021-1.226c-0.005-0.806,0.498-1.27,1.069-1.27
					c0.293,0,0.522,0.103,0.63,0.269h0.01V2.101H17.94z M17.198,4.19c0-0.039-0.005-0.093-0.01-0.132
					c-0.044-0.2-0.205-0.366-0.435-0.366c-0.337,0-0.513,0.303-0.513,0.679c0,0.405,0.2,0.659,0.508,0.659
					c0.215,0,0.386-0.146,0.43-0.356c0.015-0.054,0.02-0.107,0.02-0.171V4.19z"/>
				<path fill="#FFFFFF" d="M20.532,4.986c0,0.229,0.01,0.449,0.034,0.581h-0.669l-0.044-0.239h-0.015
					c-0.156,0.19-0.4,0.293-0.684,0.293c-0.483,0-0.771-0.352-0.771-0.732c0-0.62,0.557-0.918,1.401-0.913V3.941
					c0-0.127-0.068-0.308-0.435-0.308c-0.244,0-0.503,0.083-0.659,0.181l-0.137-0.479c0.166-0.093,0.493-0.21,0.928-0.21
					c0.796,0,1.05,0.469,1.05,1.03V4.986z M19.81,4.439c-0.391-0.005-0.693,0.088-0.693,0.376c0,0.19,0.127,0.283,0.293,0.283
					c0.186,0,0.337-0.122,0.386-0.273c0.01-0.039,0.015-0.083,0.015-0.127V4.439z"/>
			</g>
		</g>
		<rect x="4.766" y="21.678" fill="#FFFFFF" width="13.154" height="1"/>
		<path opacity="0.5" fill="#FFFFFF" d="M18.407,16.133H4.26c-0.199,0-0.389,0.095-0.51,0.253c-0.121,0.159-0.16,0.366-0.107,0.559
			l0.906,3.276c0.077,0.277,0.329,0.471,0.617,0.471h12.305c0.278,0,0.522-0.177,0.608-0.44l1.002-3.016
			c0.451-0.199,1.638-0.647,3.599-0.967v-1.3C20.237,15.343,18.852,15.921,18.407,16.133"/>
		<rect x="0.002" y="21.677" opacity="0.5" fill="#FFFFFF" width="4.056" height="1"/>
		<rect x="18.627" y="21.677" opacity="0.5" fill="#FFFFFF" width="4.053" height="1"/>
		<path fill="#FFFFFF" d="M9.325,15.296l0.319-0.2l-0.819-1.35l0.439-1.81l-2.33-0.57l-0.199-0.32c-0.78-1.29-2.28-2.32-4.15-1.32
			c-1.04,0.55-1.96,0.58-2.58,0.5v0.51c0.7,0.08,1.71,0.03,2.82-0.57c1.96-1.05,3.16,0.6,3.489,1.14l0.2,0.33l-0.569,2.31l1.8,0.44
			l0.83,1.36l0.319-0.19l0.65,1.07l0.43-0.26L9.325,15.296z M7.965,13.526c-0.34,0.21-0.76,0.1-0.96-0.22
			c-0.2-0.33-0.1-0.76,0.24-0.96c0.319-0.2,0.75-0.1,0.95,0.24C8.395,12.906,8.285,13.336,7.965,13.526z M10.235,16.796l-0.431,0.26
			l0.26,0.43l0.431-0.26L10.235,16.796z M11.795,19.356l-0.43,0.26l0.26,0.43l0.43-0.26L11.795,19.356z M10.755,17.646l-0.43,0.26
			l0.26,0.43l0.43-0.26L10.755,17.646z M11.274,18.506l-0.43,0.26l0.26,0.42l0.431-0.259L11.274,18.506z"/>
	</g>
</g>
</svg>
