<?xml version="1.0" encoding="utf-8"?>
<!-- Generator: Adobe Illustrator 16.0.3, SVG Export Plug-In . SVG Version: 6.00 Build 0)  -->
<!DOCTYPE svg PUBLIC "-//W3C//DTD SVG 1.1//EN" "http://www.w3.org/Graphics/SVG/1.1/DTD/svg11.dtd">
<svg version="1.1" xmlns="http://www.w3.org/2000/svg" xmlns:xlink="http://www.w3.org/1999/xlink" x="0px" y="0px" width="22.68px"
	 height="22.68px" viewBox="0 0 22.68 22.68" enable-background="new 0 0 22.68 22.68" xml:space="preserve">
<g id="BCGRND">
</g>
<g id="BAREVNE_BCGRND">
	<polygon fill="#585857" points="22.678,16.334 22.678,0 0,0 0,22.677 14.117,22.677 22.678,22.677 	"/>
</g>
<g id="IKONY">
	<g>
		<rect y="7.768" fill="#FFFFFF" width="22.678" height="0.889"/>
		<g>
			<g>
				<path fill="#FFFFFF" d="M2.487,4.724L2.252,5.568H1.481l1.006-3.291h0.977l1.021,3.291H3.683L3.429,4.724H2.487z M3.322,4.167
					L3.116,3.469C3.058,3.273,2.999,3.029,2.95,2.834h-0.01C2.892,3.029,2.843,3.278,2.789,3.469L2.594,4.167H3.322z"/>
				<path fill="#FFFFFF" d="M5.674,2.277v3.291H4.927V2.277H5.674z"/>
				<path fill="#FFFFFF" d="M7.279,4.919C7.415,5.002,7.698,5.1,7.918,5.1c0.225,0,0.317-0.078,0.317-0.2S8.162,4.719,7.884,4.626
					C7.391,4.46,7.2,4.191,7.205,3.913c0-0.449,0.381-0.786,0.972-0.786c0.278,0,0.527,0.063,0.674,0.137L8.719,3.776
					C8.612,3.718,8.406,3.64,8.201,3.64c-0.181,0-0.283,0.073-0.283,0.195c0,0.112,0.093,0.171,0.386,0.273
					c0.454,0.156,0.645,0.386,0.649,0.737c0,0.444-0.352,0.776-1.035,0.776c-0.313,0-0.591-0.073-0.771-0.171L7.279,4.919z"/>
				<path fill="#FFFFFF" d="M9.977,4.611c0.024,0.308,0.327,0.454,0.674,0.454c0.254,0,0.459-0.034,0.659-0.098l0.098,0.503
					c-0.244,0.098-0.542,0.151-0.864,0.151c-0.811,0-1.274-0.474-1.274-1.221c0-0.605,0.376-1.274,1.206-1.274
					c0.771,0,1.064,0.601,1.064,1.191c0,0.127-0.015,0.239-0.024,0.293H9.977z M10.851,4.104c0-0.181-0.078-0.483-0.42-0.483
					c-0.313,0-0.439,0.283-0.459,0.483H10.851z"/>
				<path fill="#FFFFFF" d="M11.987,3.942c0-0.298-0.01-0.552-0.02-0.762h0.645l0.034,0.327h0.015
					c0.098-0.151,0.342-0.381,0.737-0.381c0.488,0,0.854,0.322,0.854,1.025v1.416H13.51V4.245c0-0.308-0.107-0.518-0.376-0.518
					c-0.205,0-0.327,0.142-0.376,0.278c-0.02,0.049-0.029,0.117-0.029,0.186v1.377h-0.742V3.942z"/>
				<path fill="#FFFFFF" d="M14.847,4.919c0.137,0.083,0.42,0.181,0.64,0.181c0.225,0,0.317-0.078,0.317-0.2
					s-0.073-0.181-0.352-0.273c-0.493-0.166-0.684-0.435-0.679-0.713c0-0.449,0.381-0.786,0.972-0.786
					c0.278,0,0.527,0.063,0.674,0.137l-0.132,0.513C16.18,3.718,15.975,3.64,15.77,3.64c-0.181,0-0.283,0.073-0.283,0.195
					c0,0.112,0.093,0.171,0.386,0.273c0.454,0.156,0.645,0.386,0.649,0.737c0,0.444-0.352,0.776-1.035,0.776
					c-0.313,0-0.591-0.073-0.771-0.171L14.847,4.919z"/>
				<path fill="#FFFFFF" d="M19.332,4.348c0,0.874-0.62,1.274-1.26,1.274c-0.698,0-1.235-0.459-1.235-1.23s0.508-1.265,1.274-1.265
					C18.844,3.127,19.332,3.63,19.332,4.348z M17.603,4.372c0,0.41,0.171,0.718,0.488,0.718c0.288,0,0.474-0.288,0.474-0.718
					c0-0.356-0.137-0.718-0.474-0.718C17.735,3.654,17.603,4.021,17.603,4.372z"/>
				<path fill="#FFFFFF" d="M19.794,3.967c0-0.352-0.01-0.581-0.02-0.786h0.64l0.024,0.439h0.02
					c0.122-0.347,0.415-0.493,0.645-0.493c0.068,0,0.103,0,0.156,0.01V3.84c-0.054-0.015-0.117-0.024-0.2-0.024
					c-0.273,0-0.459,0.146-0.508,0.376c-0.01,0.049-0.015,0.107-0.015,0.166v1.211h-0.742V3.967z"/>
			</g>
		</g>
		<path fill="#FFFFFF" d="M16.717,20.291H5.961c-1.333,0-2.418-1.085-2.418-2.418V7.93h1v9.943c0,0.782,0.636,1.418,1.418,1.418
			h10.756c0.782,0,1.418-0.636,1.418-1.418V7.93h1v9.943C19.135,19.206,18.05,20.291,16.717,20.291z"/>
		<circle fill="#FFFFFF" cx="15.84" cy="10.246" r="0.771"/>
		<circle fill="#FFFFFF" cx="6.998" cy="10.246" r="0.771"/>
		<rect x="4.257" y="11.969" fill="#FFFFFF" width="14.378" height="0.5"/>
		<g>
			<g>
				<g>
					<path opacity="0.5" fill="#FFFFFF" d="M16.444,12.816c0.047-0.13-0.021-0.273-0.15-0.32c-0.13-0.044-0.273,0.021-0.32,0.151
						c-0.358,0.998-0.354,2.092,0.015,3.081c0.037,0.102,0.133,0.163,0.234,0.163c0.029,0,0.059-0.005,0.087-0.016
						c0.13-0.048,0.195-0.191,0.147-0.321C16.13,14.676,16.126,13.703,16.444,12.816z"/>
					<path opacity="0.5" fill="#FFFFFF" d="M15.457,12.348h-0.538c-0.476,1.347-0.411,2.827,0.203,4.134
						c0.043,0.091,0.133,0.144,0.227,0.144c0.036,0,0.072-0.008,0.106-0.023c0.125-0.059,0.179-0.208,0.12-0.333
						C14.991,15.027,14.957,13.613,15.457,12.348z"/>
					<path opacity="0.5" fill="#FFFFFF" d="M14.297,12.348h-0.523c-0.476,1.607-0.317,3.352,0.499,4.86
						c0.045,0.084,0.131,0.132,0.22,0.132c0.04,0,0.081-0.01,0.119-0.03c0.121-0.065,0.166-0.218,0.101-0.339
						C13.936,15.534,13.804,13.868,14.297,12.348z"/>
				</g>
			</g>
			<path fill="#FFFFFF" d="M18.918,14.114c0,0.48-0.39,0.87-0.87,0.87c-0.409,0-0.739-0.27-0.84-0.63h0.84v-0.49h-0.84
				c0.101-0.37,0.44-0.63,0.84-0.63C18.528,13.234,18.918,13.625,18.918,14.114z"/>
		</g>
		<g>
			<g>
				<g>
					<path opacity="0.5" fill="#FFFFFF" d="M6.233,12.816c-0.047-0.13,0.021-0.273,0.15-0.32c0.13-0.044,0.273,0.021,0.32,0.151
						c0.358,0.998,0.354,2.092-0.015,3.081c-0.037,0.102-0.133,0.163-0.234,0.163c-0.029,0-0.059-0.005-0.087-0.016
						c-0.13-0.048-0.195-0.191-0.147-0.321C6.548,14.676,6.552,13.703,6.233,12.816z"/>
					<path opacity="0.5" fill="#FFFFFF" d="M7.221,12.348h0.538c0.476,1.347,0.411,2.827-0.203,4.134
						c-0.043,0.091-0.133,0.144-0.227,0.144c-0.036,0-0.072-0.008-0.106-0.023c-0.125-0.059-0.179-0.208-0.12-0.333
						C7.687,15.027,7.721,13.613,7.221,12.348z"/>
					<path opacity="0.5" fill="#FFFFFF" d="M8.381,12.348h0.523c0.476,1.607,0.317,3.352-0.499,4.86
						c-0.045,0.084-0.131,0.132-0.22,0.132c-0.04,0-0.081-0.01-0.119-0.03c-0.121-0.065-0.166-0.218-0.101-0.339
						C8.742,15.534,8.874,13.868,8.381,12.348z"/>
				</g>
			</g>
			<path fill="#FFFFFF" d="M3.76,14.114c0,0.48,0.39,0.87,0.87,0.87c0.409,0,0.739-0.27,0.84-0.63H4.63v-0.49h0.84
				c-0.101-0.37-0.44-0.63-0.84-0.63C4.149,13.234,3.76,13.625,3.76,14.114z"/>
		</g>
		<g>
			<g>
				<rect x="8.956" y="9.54" fill="#FFFFFF" width="1.992" height="0.5"/>
				<rect x="11.544" y="9.54" fill="#FFFFFF" width="0.461" height="0.5"/>
				<rect x="12.599" y="9.54" fill="#FFFFFF" width="0.463" height="0.5"/>
				<rect x="13.655" y="9.54" fill="#FFFFFF" width="0.463" height="0.5"/>
				<rect x="8.956" y="10.452" fill="#FFFFFF" width="1.992" height="0.5"/>
				<rect x="11.544" y="10.452" fill="#FFFFFF" width="0.461" height="0.5"/>
				<rect x="12.599" y="10.452" fill="#FFFFFF" width="0.463" height="0.5"/>
				<rect x="13.655" y="10.452" fill="#FFFFFF" width="0.463" height="0.5"/>
			</g>
		</g>
	</g>
</g>
</svg>
