<?xml version="1.0" encoding="utf-8"?>
<!-- Generator: Adobe Illustrator 16.0.3, SVG Export Plug-In . SVG Version: 6.00 Build 0)  -->
<!DOCTYPE svg PUBLIC "-//W3C//DTD SVG 1.1//EN" "http://www.w3.org/Graphics/SVG/1.1/DTD/svg11.dtd">
<svg version="1.1" xmlns="http://www.w3.org/2000/svg" xmlns:xlink="http://www.w3.org/1999/xlink" x="0px" y="0px" width="22.68px"
	 height="22.68px" viewBox="0 0 22.68 22.68" enable-background="new 0 0 22.68 22.68" xml:space="preserve">
<g id="BCGRND">
</g>
<g id="BAREVNE_POZADI_IKON">
	<rect y="0" fill="#585857" width="22.676" height="22.678"/>
</g>
<g id="IKONY">
	<g>
		<g>
			<g>
				<g>
					<path fill="#FFFFFF" d="M3.462,4.635L3.179,5.567h-0.62l1.055-3.291H4.38l1.069,3.291H4.805L4.507,4.635H3.462z M4.404,4.18
						L4.146,3.37c-0.063-0.2-0.117-0.425-0.166-0.615H3.97c-0.049,0.19-0.098,0.42-0.156,0.615L3.56,4.18H4.404z"/>
					<path fill="#FFFFFF" d="M6.503,2.525c0,0.181-0.132,0.322-0.342,0.322c-0.2,0-0.332-0.142-0.332-0.322
						c0-0.186,0.137-0.327,0.337-0.327C6.371,2.198,6.498,2.34,6.503,2.525z M5.863,5.567V3.189h0.605v2.378H5.863z"/>
					<path fill="#FFFFFF" d="M7.115,3.956c0-0.322-0.006-0.552-0.02-0.767h0.521l0.02,0.454h0.02
						c0.117-0.337,0.396-0.508,0.65-0.508c0.059,0,0.092,0.005,0.141,0.015v0.566c-0.049-0.01-0.102-0.02-0.176-0.02
						c-0.287,0-0.482,0.186-0.537,0.454c-0.01,0.054-0.02,0.117-0.02,0.186v1.23h-0.6V3.956z"/>
					<path fill="#FFFFFF" d="M8.855,3.897c0-0.273-0.005-0.503-0.02-0.708h0.518l0.024,0.352h0.015
						c0.117-0.186,0.332-0.405,0.732-0.405c0.313,0,0.557,0.176,0.659,0.439h0.01c0.083-0.132,0.181-0.229,0.293-0.298
						c0.132-0.093,0.283-0.142,0.479-0.142c0.396,0,0.796,0.269,0.796,1.03v1.401h-0.586V4.254c0-0.396-0.137-0.63-0.425-0.63
						c-0.205,0-0.356,0.146-0.42,0.317c-0.015,0.059-0.029,0.132-0.029,0.2v1.426h-0.586V4.19c0-0.332-0.132-0.566-0.41-0.566
						c-0.225,0-0.376,0.176-0.43,0.342C9.451,4.024,9.441,4.093,9.441,4.161v1.406H8.855V3.897z"/>
					<path fill="#FFFFFF" d="M14.339,5.567L14.3,5.303h-0.015c-0.146,0.186-0.396,0.317-0.703,0.317
						c-0.479,0-0.747-0.347-0.747-0.708c0-0.601,0.532-0.903,1.411-0.898V3.975c0-0.156-0.063-0.415-0.483-0.415
						c-0.234,0-0.479,0.073-0.64,0.176l-0.117-0.391c0.176-0.107,0.483-0.21,0.859-0.21c0.762,0,0.981,0.483,0.981,1.001v0.859
						c0,0.215,0.01,0.425,0.034,0.571H14.339z M14.261,4.405c-0.425-0.01-0.83,0.083-0.83,0.444c0,0.234,0.151,0.342,0.342,0.342
						c0.239,0,0.415-0.156,0.469-0.327c0.015-0.044,0.02-0.093,0.02-0.132V4.405z"/>
					<path fill="#FFFFFF" d="M16.145,2.51v0.679h0.57v0.449h-0.57v1.05c0,0.288,0.078,0.439,0.307,0.439
						c0.104,0,0.182-0.015,0.234-0.029l0.01,0.459c-0.088,0.034-0.244,0.059-0.434,0.059c-0.221,0-0.406-0.073-0.518-0.195
						c-0.127-0.137-0.186-0.352-0.186-0.664V3.638h-0.342V3.189h0.342V2.652L16.145,2.51z"/>
					<path fill="#FFFFFF" d="M17.811,2.525c0,0.181-0.131,0.322-0.342,0.322c-0.199,0-0.332-0.142-0.332-0.322
						c0-0.186,0.137-0.327,0.338-0.327C17.68,2.198,17.807,2.34,17.811,2.525z M17.172,5.567V3.189h0.605v2.378H17.172z"/>
					<path fill="#FFFFFF" d="M20.171,5.494c-0.127,0.059-0.376,0.122-0.674,0.122c-0.742,0-1.226-0.474-1.226-1.211
						c0-0.713,0.488-1.27,1.323-1.27c0.22,0,0.444,0.049,0.581,0.112l-0.107,0.449c-0.098-0.044-0.239-0.093-0.454-0.093
						c-0.459,0-0.732,0.337-0.728,0.771c0,0.488,0.317,0.767,0.728,0.767c0.21,0,0.356-0.044,0.474-0.093L20.171,5.494z"/>
				</g>
			</g>
			<g>
				<rect y="7.768" fill="#FFFFFF" width="22.678" height="0.889"/>
			</g>
			<g>
				<path opacity="0.5" fill="#FFFFFF" d="M1.497,8.213C0.903,8.996,0.396,9.848,0,10.761v4.585
					c0.074-2.726,1.115-5.211,2.786-7.134H1.497z M21.181,8.213h-1.289c1.671,1.923,2.712,4.408,2.786,7.134v-4.585
					C22.282,9.848,21.774,8.996,21.181,8.213z M17.942,8.213H16.33c2.395,1.611,3.974,4.346,3.974,7.442
					c0,2.767-1.304,5.347-3.412,7.021h1.488c1.824-1.835,2.924-4.349,2.924-7.021C21.304,12.695,19.999,10.039,17.942,8.213z
					 M2.374,15.655c0-3.097,1.579-5.832,3.974-7.442H4.735c-2.057,1.826-3.361,4.482-3.361,7.442c0,2.673,1.1,5.187,2.924,7.021
					h1.487C3.678,21.002,2.374,18.422,2.374,15.655z M16.524,15.655c0-2.86-2.327-5.187-5.187-5.187s-5.186,2.326-5.186,5.187
					c0,2.132,1.347,4.075,3.351,4.837c0.059,0.023,0.118,0.033,0.178,0.033c0.201,0,0.392-0.123,0.468-0.322
					c0.098-0.258-0.032-0.547-0.29-0.645c-1.644-0.625-2.706-2.157-2.706-3.903c0-2.309,1.878-4.187,4.186-4.187
					c2.309,0,4.187,1.878,4.187,4.187c0,1.745-1.062,3.277-2.705,3.901c-0.258,0.099-0.388,0.387-0.29,0.646
					c0.099,0.259,0.39,0.387,0.646,0.29C15.21,19.719,16.524,17.82,16.524,15.655z M18.914,15.655c0-3.702-2.67-6.787-6.185-7.442
					H9.946c-3.514,0.656-6.184,3.74-6.184,7.442c0,3.078,1.914,5.878,4.771,7.021h0.58c0.081-0.056,0.146-0.135,0.185-0.233
					c0.098-0.258-0.032-0.547-0.29-0.645c-2.539-0.965-4.245-3.434-4.245-6.144c0-3.626,2.949-6.576,6.575-6.576
					s6.576,2.95,6.576,6.576c0,2.71-1.705,5.178-4.244,6.142c-0.258,0.099-0.388,0.387-0.29,0.646
					c0.039,0.103,0.114,0.179,0.2,0.234h0.563C16.999,21.534,18.914,18.734,18.914,15.655z"/>
				<g>
					<g opacity="0.5">
						<polygon fill="#FFFFFF" points="14.182,15.655 9.892,13.177 9.892,18.132 						"/>
					</g>
					<g>
						<path fill="#FFFFFF" d="M9.892,18.382c-0.043,0-0.086-0.011-0.125-0.034c-0.077-0.044-0.125-0.127-0.125-0.216v-4.954
							c0-0.089,0.048-0.172,0.125-0.216c0.078-0.045,0.172-0.045,0.25,0l4.29,2.478c0.077,0.044,0.125,0.127,0.125,0.216
							s-0.048,0.172-0.125,0.216l-4.29,2.477C9.978,18.371,9.935,18.382,9.892,18.382z M10.142,13.611v4.088l3.54-2.044
							L10.142,13.611z"/>
					</g>
				</g>
			</g>
		</g>
	</g>
	<path opacity="0.5" fill="#FFFFFF" d="M2.44,22.68C0.972,20.821,0.069,18.496,0,15.964v4.585c0.326,0.754,0.729,1.465,1.193,2.131
		L2.44,22.68z"/>
	<path opacity="0.5" fill="#FFFFFF" d="M21.482,22.68c0.464-0.666,0.867-1.377,1.193-2.131v-4.585
		c-0.069,2.532-0.973,4.857-2.44,6.716L21.482,22.68z"/>
</g>
</svg>
