<?xml version="1.0" encoding="utf-8"?>
<!-- Generator: Adobe Illustrator 16.0.3, SVG Export Plug-In . SVG Version: 6.00 Build 0)  -->
<!DOCTYPE svg PUBLIC "-//W3C//DTD SVG 1.1//EN" "http://www.w3.org/Graphics/SVG/1.1/DTD/svg11.dtd">
<svg version="1.1" xmlns="http://www.w3.org/2000/svg" xmlns:xlink="http://www.w3.org/1999/xlink" x="0px" y="0px" width="22.68px"
	 height="22.68px" viewBox="0 0 22.68 22.68" enable-background="new 0 0 22.68 22.68" xml:space="preserve">
<g id="BCGRND">
</g>
<g id="BAREVNE_POZADI_IKON">
	<polygon fill="#585857" points="22.678,16.335 22.678,0 0,0 0,22.678 14.117,22.678 22.678,22.678 	"/>
</g>
<g id="IKONY">
	<g>
		<g>
			<rect y="7.77" fill="#FFFFFF" width="22.678" height="0.889"/>
			<g>
				<g>
					<path fill="#FFFFFF" d="M7.459,4.638L7.176,5.57h-0.62l1.055-3.291h0.767L9.447,5.57H8.802L8.504,4.638H7.459z M8.402,4.184
						L8.143,3.373c-0.063-0.2-0.117-0.425-0.166-0.615h-0.01c-0.049,0.19-0.098,0.42-0.156,0.615L7.557,4.184H8.402z"/>
					<path fill="#FFFFFF" d="M10.339,4.237h0.01c0.059-0.093,0.127-0.195,0.19-0.278l0.576-0.767h0.723l-0.879,0.972l1.006,1.406
						h-0.737l-0.684-1.05L10.339,4.76V5.57H9.739V2.104h0.601V4.237z"/>
					<path fill="#FFFFFF" d="M13.819,5.497c-0.127,0.059-0.376,0.122-0.674,0.122c-0.742,0-1.226-0.474-1.226-1.211
						c0-0.713,0.488-1.27,1.323-1.27c0.22,0,0.444,0.049,0.581,0.112L13.716,3.7c-0.098-0.044-0.239-0.093-0.454-0.093
						c-0.459,0-0.732,0.337-0.728,0.771c0,0.488,0.317,0.767,0.728,0.767c0.21,0,0.356-0.044,0.474-0.093L13.819,5.497z"/>
					<path fill="#FFFFFF" d="M14.524,4.55c0.015,0.43,0.352,0.615,0.732,0.615c0.278,0,0.479-0.039,0.659-0.107l0.088,0.415
						c-0.205,0.083-0.488,0.146-0.83,0.146c-0.771,0-1.226-0.474-1.226-1.201c0-0.659,0.4-1.279,1.162-1.279
						c0.771,0,1.025,0.635,1.025,1.157c0,0.112-0.01,0.2-0.02,0.254H14.524z M15.569,4.13c0.005-0.22-0.093-0.581-0.493-0.581
						c-0.371,0-0.527,0.337-0.552,0.581H15.569z"/>
				</g>
			</g>
		</g>
		<g>
			<path fill="#FFFFFF" d="M14.041,13.835h-0.376c0.601,0.334,1.243,0.629,1.788,0.727l-0.176,0.984
				c-0.759-0.136-1.628-0.563-2.385-1.005V16.5h4.017v-2.665h-2.792c-0.01,0-0.021,0.002-0.031,0.002
				C14.071,13.837,14.056,13.835,14.041,13.835z"/>
			<path fill="#FFFFFF" d="M7.402,15.546l-0.176-0.984c0.545-0.098,1.189-0.393,1.789-0.727H8.638c-0.015,0-0.03,0.002-0.045,0.002
				c-0.017,0-0.035-0.002-0.052-0.002H5.769V16.5h4.019v-1.959C9.03,14.983,8.161,15.41,7.402,15.546z"/>
			<polygon fill="#FFFFFF" points="9.787,22.665 9.787,17.365 6.077,17.365 6.077,22.678 16.601,22.678 16.601,17.365 
				12.893,17.365 12.893,22.665 			"/>
			<path opacity="0.5" fill="#FFFFFF" d="M15.808,10.614c-0.271-0.176-0.58-0.265-0.918-0.265c-0.353,0-0.735,0.099-1.145,0.293
				c-0.386,0.183-0.797,0.452-1.23,0.808c-0.628,0.514-1.073,1.023-1.092,1.045l-0.084,0.096c0,0,0,0-0.001,0l-0.082-0.096
				c-0.02-0.021-0.466-0.531-1.093-1.045c-0.89-0.73-1.689-1.101-2.374-1.101c-0.339,0-0.646,0.089-0.919,0.265
				c-0.219,0.141-0.397,0.316-0.53,0.51c-0.267,0.389-0.352,0.858-0.217,1.314c0.3,1.014,1.436,1.385,2.418,1.396
				c0.017,0,0.035,0.002,0.052,0.002c0.015,0,0.03-0.002,0.045-0.002h0.378c-0.6,0.334-1.244,0.629-1.789,0.727l0.176,0.984
				c0.759-0.136,1.628-0.563,2.385-1.005v8.124h3.105v-8.124c0.757,0.442,1.626,0.869,2.385,1.005l0.176-0.984
				c-0.545-0.098-1.188-0.393-1.788-0.727h0.376c0.015,0,0.03,0.002,0.045,0.002c0.01,0,0.021-0.002,0.031-0.002
				c0.807-0.006,1.723-0.253,2.193-0.902c0.107-0.145,0.19-0.309,0.244-0.494C16.757,11.755,16.464,11.038,15.808,10.614z
				 M8.593,12.853c-0.975,0-1.431-0.375-1.523-0.693c-0.077-0.26,0.053-0.533,0.336-0.717c0.111-0.071,0.236-0.107,0.384-0.107
				c0.693,0,1.627,0.734,2.232,1.305C9.499,12.78,9.021,12.853,8.593,12.853z M15.609,12.159c-0.094,0.318-0.551,0.693-1.523,0.693
				c-0.429,0-0.906-0.072-1.43-0.213c0.605-0.57,1.54-1.305,2.233-1.305c0.147,0,0.272,0.036,0.383,0.107
				C15.556,11.626,15.686,11.899,15.609,12.159z"/>
		</g>
	</g>
</g>
</svg>
