<?xml version="1.0" encoding="utf-8"?>
<!-- Generator: Adobe Illustrator 16.0.3, SVG Export Plug-In . SVG Version: 6.00 Build 0)  -->
<!DOCTYPE svg PUBLIC "-//W3C//DTD SVG 1.1//EN" "http://www.w3.org/Graphics/SVG/1.1/DTD/svg11.dtd">
<svg version="1.1" xmlns="http://www.w3.org/2000/svg" xmlns:xlink="http://www.w3.org/1999/xlink" x="0px" y="0px" width="22.68px"
	 height="22.68px" viewBox="0 0 22.68 22.68" enable-background="new 0 0 22.68 22.68" xml:space="preserve">
<g id="BCGRND">
</g>
<g id="BAREVNE_POZADI_IKON">
	<g>
		<polygon fill="#585857" points="22.678,16.335 22.678,0 0,0 0,22.678 14.117,22.678 22.678,22.678 		"/>
	</g>
</g>
<g id="IKONY">
	<g>
		<g>
			<g>
				<path fill="#FFFFFF" d="M3.419,3.374L3.136,4.307h-0.62L3.57,1.016h0.767l1.069,3.291H4.762L4.464,3.374H3.419z M4.361,2.92
					L4.103,2.11c-0.063-0.2-0.117-0.425-0.166-0.615h-0.01c-0.049,0.19-0.098,0.42-0.156,0.615L3.517,2.92H4.361z"/>
				<path fill="#FFFFFF" d="M5.918,2.637c0-0.273-0.005-0.503-0.02-0.708h0.518L6.44,2.281h0.015
					c0.117-0.186,0.332-0.405,0.732-0.405c0.313,0,0.557,0.176,0.659,0.439h0.01c0.083-0.132,0.181-0.229,0.293-0.298
					c0.132-0.093,0.283-0.142,0.479-0.142c0.396,0,0.796,0.269,0.796,1.03v1.401H8.838V2.993c0-0.396-0.137-0.63-0.425-0.63
					c-0.205,0-0.356,0.146-0.42,0.317c-0.015,0.059-0.029,0.132-0.029,0.2v1.426H7.378V2.93c0-0.332-0.132-0.566-0.41-0.566
					c-0.225,0-0.376,0.176-0.43,0.342C6.514,2.764,6.504,2.832,6.504,2.901v1.406H5.918V2.637z"/>
				<path fill="#FFFFFF" d="M11.5,4.307l-0.039-0.264h-0.016c-0.146,0.186-0.395,0.317-0.703,0.317
					c-0.479,0-0.746-0.347-0.746-0.708c0-0.601,0.531-0.903,1.41-0.898V2.715c0-0.156-0.063-0.415-0.482-0.415
					c-0.234,0-0.479,0.073-0.641,0.176l-0.117-0.391c0.176-0.107,0.484-0.21,0.859-0.21c0.762,0,0.983,0.483,0.983,1.001v0.859
					c0,0.215,0.01,0.425,0.033,0.571H11.5z M11.422,3.145c-0.426-0.01-0.83,0.083-0.83,0.444c0,0.234,0.151,0.342,0.342,0.342
					c0.238,0,0.414-0.156,0.469-0.327c0.014-0.044,0.02-0.093,0.02-0.132V3.145z"/>
				<path fill="#FFFFFF" d="M12.519,3.96l0.894-1.143c0.122-0.146,0.224-0.264,0.351-0.4v-0.01h-1.157V1.929h1.89v0.366
					l-0.874,1.118c-0.117,0.142-0.229,0.278-0.352,0.405v0.01h1.255v0.479h-2.007V3.96z"/>
				<path fill="#FFFFFF" d="M17.268,3.096c0,0.874-0.615,1.265-1.221,1.265c-0.674,0-1.191-0.464-1.191-1.226
					c0-0.781,0.513-1.26,1.23-1.26C16.794,1.875,17.268,2.373,17.268,3.096z M15.476,3.12c0,0.459,0.225,0.806,0.591,0.806
					c0.342,0,0.581-0.337,0.581-0.815c0-0.371-0.166-0.796-0.576-0.796C15.646,2.315,15.476,2.725,15.476,3.12z"/>
				<path fill="#FFFFFF" d="M17.861,2.637c0-0.273-0.004-0.503-0.02-0.708h0.527l0.029,0.356h0.016
					c0.102-0.186,0.361-0.41,0.756-0.41c0.416,0,0.846,0.269,0.846,1.021v1.411h-0.602V2.964c0-0.342-0.127-0.601-0.453-0.601
					c-0.24,0-0.406,0.171-0.469,0.352c-0.02,0.054-0.026,0.127-0.026,0.195v1.396h-0.605V2.637z"/>
				<path fill="#FFFFFF" d="M6.322,7.374L6.039,8.307H5.42l1.055-3.291H7.24l1.07,3.291H7.666L7.367,7.374H6.322z M7.266,6.92
					L7.006,6.11c-0.063-0.2-0.117-0.425-0.166-0.615H6.83c-0.049,0.19-0.098,0.42-0.156,0.615L6.42,6.92H7.266z"/>
				<path fill="#FFFFFF" d="M8.822,4.84h0.605v3.467H8.822V4.84z"/>
				<path fill="#FFFFFF" d="M10.602,7.286c0.014,0.43,0.352,0.615,0.732,0.615c0.277,0,0.479-0.039,0.658-0.107l0.088,0.415
					c-0.205,0.083-0.488,0.146-0.83,0.146c-0.771,0-1.225-0.474-1.225-1.201c0-0.659,0.401-1.279,1.162-1.279
					c0.771,0,1.025,0.635,1.025,1.157c0,0.112-0.01,0.2-0.019,0.254H10.602z M11.646,6.866c0.004-0.22-0.094-0.581-0.494-0.581
					c-0.371,0-0.527,0.337-0.551,0.581H11.646z"/>
				<path fill="#FFFFFF" d="M13.158,5.929l0.283,0.449c0.078,0.127,0.146,0.244,0.215,0.366h0.014
					c0.068-0.132,0.137-0.254,0.205-0.376l0.264-0.439h0.654l-0.795,1.143l0.81,1.235h-0.68l-0.293-0.474
					c-0.078-0.127-0.146-0.254-0.215-0.386h-0.01c-0.068,0.137-0.137,0.254-0.215,0.386l-0.273,0.474h-0.664l0.826-1.211
					l-0.797-1.167H13.158z"/>
				<path fill="#FFFFFF" d="M16.608,8.307l-0.039-0.264h-0.015c-0.146,0.186-0.395,0.317-0.703,0.317
					c-0.479,0-0.747-0.347-0.747-0.708c0-0.601,0.532-0.903,1.411-0.898V6.715c0-0.156-0.063-0.415-0.483-0.415
					c-0.234,0-0.479,0.073-0.64,0.176l-0.117-0.391c0.176-0.107,0.483-0.21,0.859-0.21c0.762,0,0.981,0.483,0.981,1.001v0.859
					c0,0.215,0.01,0.425,0.034,0.571H16.608z M16.53,7.145c-0.425-0.01-0.83,0.083-0.83,0.444c0,0.234,0.151,0.342,0.342,0.342
					c0.239,0,0.415-0.156,0.469-0.327c0.015-0.044,0.02-0.093,0.02-0.132V7.145z"/>
			</g>
		</g>
		<g>
			<g>
				<path fill="#FFFFFF" d="M6.424,16.778c-0.211,0.078-0.621,0.186-1.061,0.186c-0.557,0-0.977-0.142-1.289-0.439
					c-0.293-0.278-0.463-0.713-0.459-1.211c0-1.04,0.742-1.709,1.832-1.709c0.404,0,0.723,0.083,0.873,0.156l-0.131,0.483
					c-0.182-0.078-0.4-0.142-0.748-0.142c-0.703,0-1.195,0.415-1.195,1.182c0,0.747,0.459,1.191,1.143,1.191
					c0.215,0,0.375-0.029,0.453-0.068v-0.82h-0.58v-0.474h1.162V16.778z"/>
				<path fill="#FFFFFF" d="M9.406,15.718c0,0.874-0.615,1.265-1.221,1.265c-0.674,0-1.191-0.464-1.191-1.226
					c0-0.781,0.512-1.26,1.23-1.26C8.932,14.497,9.406,14.995,9.406,15.718z M7.613,15.742c0,0.459,0.224,0.806,0.592,0.806
					c0.342,0,0.58-0.337,0.58-0.815c0-0.371-0.166-0.796-0.576-0.796C7.785,14.937,7.613,15.347,7.613,15.742z"/>
				<path fill="#FFFFFF" d="M12.262,15.718c0,0.874-0.615,1.265-1.221,1.265c-0.674,0-1.191-0.464-1.191-1.226
					c0-0.781,0.512-1.26,1.23-1.26C11.787,14.497,12.262,14.995,12.262,15.718z M10.469,15.742c0,0.459,0.225,0.806,0.592,0.806
					c0.342,0,0.58-0.337,0.58-0.815c0-0.371-0.166-0.796-0.576-0.796C10.641,14.937,10.469,15.347,10.469,15.742z"/>
				<path fill="#FFFFFF" d="M15.029,14.551c-0.01,0.161-0.019,0.356-0.019,0.684v1.348c0,0.498-0.104,0.854-0.352,1.079
					c-0.25,0.22-0.592,0.288-0.918,0.288c-0.303,0-0.625-0.063-0.83-0.19l0.131-0.454c0.152,0.088,0.406,0.181,0.693,0.181
					c0.391,0,0.684-0.205,0.684-0.718v-0.205h-0.01c-0.137,0.21-0.381,0.352-0.693,0.352c-0.59,0-1.01-0.488-1.01-1.162
					c0-0.781,0.508-1.255,1.078-1.255c0.361,0,0.576,0.176,0.689,0.371h0.01l0.023-0.317H15.029z M14.408,15.503
					c0-0.054-0.004-0.112-0.02-0.161c-0.063-0.22-0.234-0.386-0.488-0.386c-0.336,0-0.586,0.293-0.586,0.776
					c0,0.405,0.205,0.732,0.582,0.732c0.224,0,0.42-0.146,0.488-0.361c0.014-0.063,0.023-0.146,0.023-0.215V15.503z"/>
				<path fill="#FFFFFF" d="M15.754,13.462h0.605v3.467h-0.605V13.462z"/>
				<path fill="#FFFFFF" d="M17.533,15.908c0.016,0.43,0.352,0.615,0.732,0.615c0.279,0,0.479-0.039,0.66-0.107l0.088,0.415
					c-0.205,0.083-0.488,0.146-0.83,0.146c-0.771,0-1.226-0.474-1.226-1.201c0-0.659,0.4-1.279,1.162-1.279
					c0.771,0,1.025,0.635,1.025,1.157c0,0.112-0.01,0.2-0.02,0.254H17.533z M18.578,15.489c0.006-0.22-0.092-0.581-0.492-0.581
					c-0.371,0-0.527,0.337-0.553,0.581H18.578z"/>
				<path fill="#FFFFFF" d="M2.416,19.996l-0.283,0.933H1.514l1.055-3.291h0.766l1.07,3.291H3.76l-0.299-0.933H2.416z M3.359,19.542
					L3.1,18.732c-0.063-0.2-0.117-0.425-0.166-0.615h-0.01c-0.049,0.19-0.098,0.42-0.156,0.615l-0.254,0.811H3.359z"/>
				<path fill="#FFFFFF" d="M4.891,20.377c0.137,0.083,0.396,0.171,0.611,0.171c0.264,0,0.381-0.107,0.381-0.264
					c0-0.161-0.098-0.244-0.391-0.347c-0.465-0.161-0.66-0.415-0.654-0.693c0-0.42,0.346-0.747,0.898-0.747
					c0.264,0,0.492,0.068,0.629,0.142l-0.117,0.425c-0.102-0.059-0.293-0.137-0.502-0.137c-0.215,0-0.332,0.103-0.332,0.249
					c0,0.151,0.111,0.225,0.414,0.332c0.43,0.156,0.631,0.376,0.635,0.728c0,0.43-0.336,0.742-0.967,0.742
					c-0.287,0-0.547-0.068-0.723-0.166L4.891,20.377z"/>
				<path fill="#FFFFFF" d="M7.027,20.377c0.137,0.083,0.396,0.171,0.611,0.171c0.264,0,0.381-0.107,0.381-0.264
					c0-0.161-0.098-0.244-0.391-0.347c-0.465-0.161-0.66-0.415-0.654-0.693c0-0.42,0.346-0.747,0.898-0.747
					c0.264,0,0.492,0.068,0.629,0.142l-0.117,0.425c-0.102-0.059-0.293-0.137-0.502-0.137c-0.215,0-0.332,0.103-0.332,0.249
					c0,0.151,0.111,0.225,0.414,0.332c0.43,0.156,0.631,0.376,0.635,0.728c0,0.43-0.336,0.742-0.967,0.742
					c-0.287,0-0.547-0.068-0.723-0.166L7.027,20.377z"/>
				<path fill="#FFFFFF" d="M9.834,17.887c0,0.181-0.133,0.322-0.342,0.322c-0.201,0-0.332-0.142-0.332-0.322
					c0-0.186,0.137-0.327,0.336-0.327C9.701,17.56,9.828,17.701,9.834,17.887z M9.193,20.929v-2.378h0.605v2.378H9.193z"/>
				<path fill="#FFFFFF" d="M10.514,20.377c0.137,0.083,0.395,0.171,0.609,0.171c0.264,0,0.381-0.107,0.381-0.264
					c0-0.161-0.098-0.244-0.391-0.347c-0.463-0.161-0.658-0.415-0.654-0.693c0-0.42,0.348-0.747,0.898-0.747
					c0.264,0,0.494,0.068,0.631,0.142l-0.117,0.425c-0.103-0.059-0.293-0.137-0.504-0.137c-0.215,0-0.332,0.103-0.332,0.249
					c0,0.151,0.113,0.225,0.416,0.332c0.43,0.156,0.629,0.376,0.635,0.728c0,0.43-0.338,0.742-0.967,0.742
					c-0.289,0-0.547-0.068-0.723-0.166L10.514,20.377z"/>
				<path fill="#FFFFFF" d="M13.367,17.872v0.679h0.572V19h-0.572v1.05c0,0.288,0.078,0.439,0.309,0.439
					c0.102,0,0.18-0.015,0.234-0.029l0.01,0.459c-0.088,0.034-0.244,0.059-0.436,0.059c-0.219,0-0.404-0.073-0.518-0.195
					c-0.127-0.137-0.185-0.352-0.185-0.664V19h-0.342v-0.449h0.342v-0.537L13.367,17.872z"/>
				<path fill="#FFFFFF" d="M15.83,20.929l-0.039-0.264h-0.014c-0.146,0.186-0.396,0.317-0.703,0.317
					c-0.479,0-0.748-0.347-0.748-0.708c0-0.601,0.533-0.903,1.412-0.898v-0.039c0-0.156-0.064-0.415-0.484-0.415
					c-0.234,0-0.479,0.073-0.639,0.176l-0.117-0.391c0.176-0.107,0.482-0.21,0.859-0.21c0.762,0,0.98,0.483,0.98,1.001v0.859
					c0,0.215,0.01,0.425,0.035,0.571H15.83z M15.752,19.767c-0.424-0.01-0.83,0.083-0.83,0.444c0,0.234,0.152,0.342,0.342,0.342
					c0.24,0,0.416-0.156,0.469-0.327c0.016-0.044,0.02-0.093,0.02-0.132V19.767z"/>
				<path fill="#FFFFFF" d="M17.074,19.259c0-0.273-0.004-0.503-0.02-0.708h0.527l0.029,0.356h0.016
					c0.102-0.186,0.361-0.41,0.756-0.41c0.416,0,0.846,0.269,0.846,1.021v1.411h-0.602v-1.343c0-0.342-0.127-0.601-0.453-0.601
					c-0.24,0-0.406,0.171-0.469,0.352c-0.02,0.054-0.026,0.127-0.026,0.195v1.396h-0.605V19.259z"/>
				<path fill="#FFFFFF" d="M20.633,17.872v0.679h0.57V19h-0.57v1.05c0,0.288,0.078,0.439,0.307,0.439
					c0.104,0,0.182-0.015,0.234-0.029l0.01,0.459c-0.088,0.034-0.244,0.059-0.433,0.059c-0.221,0-0.406-0.073-0.518-0.195
					c-0.127-0.137-0.186-0.352-0.186-0.664V19h-0.342v-0.449h0.342v-0.537L20.633,17.872z"/>
			</g>
		</g>
		<g>
			<g>
				<g>
					<rect x="10.895" y="9.712" fill="#FFFFFF" width="0.889" height="3.561"/>
				</g>
				<g>
					<rect x="9.558" y="11.048" fill="#FFFFFF" width="3.561" height="0.889"/>
				</g>
			</g>
			<g>
				<rect y="11.047" fill="#FFFFFF" width="8.348" height="0.889"/>
			</g>
			<g>
				<rect x="14.33" y="11.047" fill="#FFFFFF" width="8.348" height="0.889"/>
			</g>
		</g>
	</g>
</g>
</svg>
