<?xml version="1.0" encoding="utf-8"?>
<!-- Generator: Adobe Illustrator 16.0.3, SVG Export Plug-In . SVG Version: 6.00 Build 0)  -->
<!DOCTYPE svg PUBLIC "-//W3C//DTD SVG 1.1//EN" "http://www.w3.org/Graphics/SVG/1.1/DTD/svg11.dtd">
<svg version="1.1" xmlns="http://www.w3.org/2000/svg" xmlns:xlink="http://www.w3.org/1999/xlink" x="0px" y="0px" width="22.68px"
	 height="22.68px" viewBox="0 0 22.68 22.68" enable-background="new 0 0 22.68 22.68" xml:space="preserve">
<g id="BCGRND">
</g>
<g id="BAREVNE_POZADI_IKON">
	<rect fill="#585857" width="22.677" height="22.677"/>
</g>
<g id="IKONY">
	<g>
		<g>
			<g>
				<rect x="0.002" y="7.769" fill="#FFFFFF" width="22.678" height="0.889"/>
				<g>
					<g>
						<path fill="#FFFFFF" d="M2.359,4.637L2.076,5.569h-0.62l1.055-3.291h0.767l1.069,3.291H3.697L3.399,4.637H2.359z M3.302,4.183
							L3.043,3.372c-0.063-0.2-0.117-0.425-0.166-0.615h-0.01c-0.049,0.19-0.103,0.42-0.156,0.615L2.457,4.183H3.302z"/>
						<path fill="#FFFFFF" d="M4.59,3.899c0-0.273-0.01-0.503-0.02-0.708h0.522l0.029,0.356h0.015
							c0.107-0.186,0.366-0.41,0.762-0.41c0.415,0,0.845,0.269,0.845,1.021v1.411H6.143V4.227c0-0.342-0.127-0.601-0.454-0.601
							c-0.239,0-0.405,0.171-0.469,0.352C5.2,4.026,5.19,4.1,5.19,4.168v1.401H4.59V3.899z"/>
						<path fill="#FFFFFF" d="M7.879,2.581v0.61H8.45v0.449H7.879v1.05c0,0.293,0.078,0.439,0.308,0.439
							c0.107,0,0.166-0.005,0.234-0.024l0.01,0.454C8.343,5.594,8.182,5.623,7.996,5.623c-0.225,0-0.405-0.073-0.518-0.195
							c-0.132-0.137-0.19-0.356-0.19-0.669V3.641H6.951V3.191h0.337V2.747L7.879,2.581z"/>
						<path fill="#FFFFFF" d="M9.375,2.527c0,0.176-0.132,0.322-0.342,0.322c-0.2,0-0.332-0.146-0.332-0.322
							c0-0.186,0.137-0.327,0.337-0.327C9.243,2.2,9.37,2.342,9.375,2.527z M8.735,5.569V3.191h0.601v2.378H8.735z"/>
						<path fill="#FFFFFF" d="M9.884,5.569V3.641H9.562V3.191h0.322V3.079c0-0.64,0.444-1.03,1.147-1.03
							c0.239,0,0.522,0.063,0.659,0.151l-0.137,0.454c-0.107-0.063-0.298-0.127-0.522-0.127c-0.415,0-0.552,0.254-0.552,0.566v0.098
							h1.416v2.378h-0.601V3.641h-0.811v1.929H9.884z"/>
						<path fill="#FFFFFF" d="M12.378,3.899c0-0.273-0.01-0.503-0.02-0.708h0.522l0.029,0.356h0.015
							c0.107-0.186,0.366-0.41,0.762-0.41c0.415,0,0.845,0.269,0.845,1.021v1.411h-0.601V4.227c0-0.342-0.127-0.601-0.454-0.601
							c-0.239,0-0.405,0.171-0.469,0.352c-0.02,0.049-0.029,0.122-0.029,0.19v1.401h-0.601V3.899z"/>
						<path fill="#FFFFFF" d="M17.156,5.223c0,0.498-0.103,0.854-0.352,1.079c-0.244,0.22-0.591,0.288-0.918,0.288
							c-0.303,0-0.625-0.068-0.83-0.19l0.132-0.454c0.151,0.088,0.405,0.181,0.693,0.181c0.391,0,0.684-0.205,0.684-0.718V5.203
							h-0.01c-0.137,0.21-0.376,0.352-0.693,0.352c-0.591,0-1.011-0.488-1.011-1.162c0-0.781,0.508-1.255,1.079-1.255
							c0.366,0,0.576,0.176,0.688,0.371h0.01l0.024-0.317h0.522c-0.01,0.161-0.02,0.356-0.02,0.684V5.223z M16.556,4.144
							c0-0.059-0.005-0.112-0.02-0.161c-0.063-0.22-0.234-0.386-0.488-0.386c-0.337,0-0.586,0.293-0.586,0.776
							c0,0.405,0.205,0.732,0.581,0.732c0.225,0,0.42-0.146,0.488-0.366c0.02-0.059,0.024-0.142,0.024-0.21V4.144z"/>
						<path fill="#FFFFFF" d="M18.058,4.549c0.015,0.43,0.347,0.615,0.732,0.615c0.278,0,0.474-0.044,0.659-0.107l0.088,0.41
							c-0.205,0.088-0.488,0.151-0.83,0.151c-0.771,0-1.226-0.474-1.226-1.201c0-0.659,0.4-1.279,1.162-1.279
							c0.771,0,1.025,0.635,1.025,1.157c0,0.112-0.01,0.2-0.02,0.254H18.058z M19.103,4.129c0.005-0.22-0.093-0.581-0.493-0.581
							c-0.371,0-0.527,0.337-0.552,0.581H19.103z"/>
						<path fill="#FFFFFF" d="M19.985,3.958c0-0.322-0.005-0.557-0.02-0.767h0.518l0.024,0.449h0.015
							c0.117-0.332,0.396-0.503,0.654-0.503c0.059,0,0.093,0.005,0.142,0.015v0.562c-0.054-0.01-0.107-0.015-0.181-0.015
							c-0.283,0-0.483,0.181-0.537,0.454c-0.01,0.054-0.015,0.117-0.015,0.181v1.235h-0.601V3.958z"/>
					</g>
				</g>
			</g>
			<g>
				<g opacity="0.3">
					<path fill="#FFFFFF" d="M19.543,13.363c0.031,0.147,0.162,0.249,0.307,0.249c0.021,0,0.043-0.003,0.064-0.007
						c0.17-0.035,0.277-0.201,0.242-0.37c-0.492-2.358-2.428-3.902-2.51-3.967c-0.137-0.105-0.332-0.085-0.439,0.053
						C17.1,9.457,17.123,9.653,17.26,9.761C17.277,9.775,19.1,11.232,19.543,13.363z"/>
					<path fill="#FFFFFF" d="M20.371,14.49c-0.029-0.169-0.191-0.286-0.361-0.256c-0.17,0.029-0.285,0.19-0.256,0.361
						c0.004,0.024,0.4,2.485-1.115,4.881c-0.094,0.146-0.049,0.339,0.098,0.432c0.051,0.032,0.109,0.049,0.166,0.049
						c0.104,0,0.205-0.052,0.266-0.146C20.811,17.215,20.389,14.601,20.371,14.49z"/>
					<path fill="#FFFFFF" d="M9.994,9.194c0.049,0.002,1.223,0.029,2.053-0.036c0.758-0.054,2.148,0.355,2.617,0.593
						c0.045,0.022,0.094,0.034,0.141,0.034c0.115,0,0.225-0.063,0.279-0.172c0.078-0.154,0.018-0.343-0.137-0.421
						c-0.516-0.261-2.025-0.724-2.949-0.659c-0.797,0.063-1.977,0.036-1.988,0.036c-0.143-0.003-0.316,0.132-0.32,0.305
						C9.684,9.047,9.82,9.19,9.994,9.194z"/>
					<path fill="#FFFFFF" d="M18.535,13.235c-0.498-1.797-2.121-3.056-2.189-3.108c-0.135-0.103-0.332-0.077-0.438,0.059
						c-0.105,0.137-0.08,0.334,0.057,0.438c0.016,0.012,1.527,1.188,1.967,2.778c0.447,1.619,0.082,3.364,0.078,3.382
						c-0.037,0.169,0.07,0.336,0.238,0.372c0.023,0.005,0.045,0.007,0.066,0.007c0.145,0,0.275-0.1,0.307-0.246
						C18.637,16.84,19.025,15.007,18.535,13.235z"/>
					<path fill="#FFFFFF" d="M18.023,17.857c-0.166-0.05-0.34,0.044-0.391,0.209c-0.006,0.025-0.783,2.497-3.623,3.803
						c-0.158,0.072-0.227,0.258-0.154,0.415c0.053,0.114,0.166,0.183,0.285,0.183c0.043,0,0.088-0.01,0.131-0.029
						c3.094-1.421,3.928-4.077,3.961-4.189C18.283,18.082,18.189,17.907,18.023,17.857z"/>
					<path fill="#FFFFFF" d="M8.252,10.602c0.258-0.157,0.521-0.3,0.799-0.415C8.504,10.104,8.27,9.868,8.254,9.85
						C8.143,9.72,7.949,9.703,7.816,9.812c-0.135,0.11-0.152,0.308-0.043,0.44C7.785,10.266,7.938,10.443,8.252,10.602z"/>
					<path fill="#FFFFFF" d="M7.605,22.678c-0.016-0.172,0.111-0.318,0.283-0.333c0.018-0.002,1.75-0.158,3.211-0.619
						c0.115-0.036,0.23-0.084,0.348-0.128c0.803-0.015,1.578-0.188,2.293-0.503c-0.609,0.397-1.525,0.936-2.451,1.229
						c-0.467,0.146-0.951,0.263-1.404,0.354H7.605z"/>
					<path fill="#FFFFFF" d="M6.801,11.888c0.115-0.139,0.211-0.289,0.342-0.42c0.033-0.032,0.068-0.06,0.1-0.091
						c-0.799-0.261-1.303-0.771-1.309-0.778c-0.119-0.124-0.316-0.13-0.441-0.011s-0.131,0.316-0.014,0.441
						C5.506,11.058,5.992,11.563,6.801,11.888z"/>
					<path fill="#FFFFFF" d="M8.238,11.856l0.373,0.372c0.406,0.037,0.725,0.053,0.967,0.053c0.178,0,0.32-0.007,0.447-0.016
						c0.172-0.013,0.301-0.162,0.289-0.335c-0.012-0.172-0.141-0.29-0.334-0.29c-0.266,0.02-0.654,0.029-1.371-0.04
						C8.484,11.686,8.355,11.761,8.238,11.856z"/>
					<path fill="#FFFFFF" d="M14.1,17.717l0.449,0.449c0.342-0.52,0.592-1.049,0.785-1.533c0.613-1.54,0.209-3.254-0.984-4.169
						c-1.256-0.959-2.816-0.801-2.877-0.792c-0.172,0.02-0.295,0.174-0.277,0.346c0.02,0.173,0.178,0.291,0.346,0.277
						c0.01-0.004,1.377-0.138,2.428,0.666c1.135,0.869,1.201,2.393,0.783,3.439C14.578,16.832,14.373,17.282,14.1,17.717z"/>
					<path fill="#FFFFFF" d="M12.01,20.271c0.043,0,0.088-0.01,0.131-0.029c0.752-0.35,1.328-0.798,1.785-1.286l-0.441-0.44
						c-0.412,0.441-0.928,0.843-1.607,1.158c-0.156,0.073-0.225,0.259-0.152,0.416C11.779,20.204,11.891,20.271,12.01,20.271z"/>
					<path fill="#FFFFFF" d="M8.559,20.913c-0.348,0.08-0.707,0.151-1.047,0.198c-1.258,0.175-2.137-0.115-2.146-0.117
						c-0.168-0.053-0.342,0.034-0.396,0.198c-0.055,0.163,0.033,0.34,0.197,0.396c0.031,0.011,0.623,0.205,1.537,0.205
						c0.271,0,0.57-0.018,0.893-0.061c0.652-0.09,1.355-0.261,1.924-0.417C9.188,21.209,8.865,21.076,8.559,20.913z"/>
					<path fill="#FFFFFF" d="M8.113,13.144c-0.309-0.01-0.613-0.037-0.914-0.083c-0.119,0.188-0.223,0.38-0.313,0.579
						c0.605,0.108,1.221,0.153,1.855,0.134L8.113,13.144z"/>
					<path fill="#FFFFFF" d="M5.861,13.394c0.08-0.195,0.193-0.377,0.295-0.564c-1.137-0.379-1.969-1.06-1.979-1.067
						c-0.131-0.11-0.33-0.095-0.439,0.04c-0.111,0.132-0.094,0.329,0.039,0.44C3.816,12.275,4.66,12.974,5.861,13.394z"/>
					<path fill="#FFFFFF" d="M13.43,13.789c-0.621-0.67-1.631-0.996-2.639-0.844c-0.463,0.069-0.891,0.12-1.305,0.158l0.566,0.566
						c0.271-0.032,0.543-0.063,0.83-0.105c0.793-0.12,1.611,0.138,2.088,0.65c0.387,0.418,0.518,0.968,0.375,1.591
						c-0.039,0.168,0.066,0.336,0.236,0.375c0.023,0.005,0.047,0.008,0.068,0.008c0.145,0,0.273-0.099,0.307-0.244
						C14.143,15.123,13.957,14.357,13.43,13.789z"/>
					<path fill="#FFFFFF" d="M10.02,19.877c1.436-0.495,2.385-1.334,2.908-1.917l-0.445-0.445c-0.469,0.523-1.344,1.314-2.668,1.771
						c-0.494,0.171-0.941,0.275-1.377,0.354c0.252,0.185,0.518,0.342,0.797,0.475C9.488,20.048,9.748,19.971,10.02,19.877z"/>
					<path fill="#FFFFFF" d="M6.951,20.411c0.258,0,0.52-0.013,0.783-0.035c-0.205-0.158-0.404-0.325-0.592-0.512
						c-0.027-0.028-0.047-0.063-0.074-0.092c-0.424,0.006-0.846-0.007-1.279-0.048c-1.248-0.119-3.164-1.026-3.184-1.035
						c-0.158-0.078-0.342-0.008-0.416,0.147c-0.074,0.156-0.01,0.343,0.146,0.417c0.082,0.04,2.035,0.964,3.395,1.094
						C6.145,20.387,6.547,20.411,6.951,20.411z"/>
					<path fill="#FFFFFF" d="M5.258,14.812c0.078,0.031,0.148,0.053,0.223,0.08c0.027-0.211,0.063-0.418,0.113-0.626
						c-0.037-0.015-0.068-0.021-0.107-0.037c-0.936-0.364-2.395-1.295-2.41-1.305c-0.145-0.092-0.338-0.05-0.432,0.095
						c-0.094,0.146-0.051,0.34,0.094,0.433C2.801,13.491,4.266,14.425,5.258,14.812z"/>
					<path fill="#FFFFFF" d="M6.457,15.177c0.254,0.05,0.494,0.081,0.719,0.081c0.236,0,0.461-0.026,0.684-0.079
						c0.168-0.039,0.271-0.208,0.232-0.376c-0.039-0.169-0.201-0.276-0.375-0.233c-0.352,0.084-0.719,0.076-1.146-0.01
						C6.523,14.764,6.479,14.968,6.457,15.177z"/>
					<path fill="#FFFFFF" d="M9.92,14.951l-0.557-0.557c-0.043,0.008-0.072,0.013-0.078,0.015c-0.17,0.036-0.277,0.201-0.242,0.371
						c0.035,0.169,0.205,0.272,0.371,0.242C9.418,15.021,9.631,14.979,9.92,14.951z"/>
					<path fill="#FFFFFF" d="M12.338,15.376c-0.145-0.448-0.494-0.794-0.961-0.948c-0.215-0.07-0.451-0.105-0.688-0.12l1.697,1.696
						C12.412,15.791,12.402,15.578,12.338,15.376z"/>
					<path fill="#FFFFFF" d="M8.363,18.986c0.016,0,0.033-0.002,0.049-0.005c1.506-0.244,2.686-0.928,3.527-2.01L11.5,16.53
						c-0.748,0.99-1.816,1.611-3.188,1.834c-0.17,0.027-0.287,0.188-0.258,0.358C8.078,18.877,8.211,18.986,8.363,18.986z"/>
					<path fill="#FFFFFF" d="M6.506,19.084c-0.141-0.2-0.258-0.411-0.371-0.624c-0.75-0.01-2.219-0.219-4.271-1.433
						c-0.146-0.086-0.34-0.038-0.428,0.11s-0.039,0.341,0.109,0.429c2.209,1.308,3.816,1.529,4.654,1.529
						C6.318,19.096,6.418,19.091,6.506,19.084z"/>
					<path fill="#FFFFFF" d="M4.152,16.02c0.549,0.253,0.973,0.418,1.34,0.525c-0.035-0.226-0.059-0.451-0.066-0.679
						c-0.281-0.097-0.607-0.229-1.012-0.415c-1.086-0.499-2.088-1.303-2.098-1.311c-0.133-0.107-0.332-0.089-0.439,0.047
						c-0.109,0.135-0.088,0.331,0.047,0.439C1.967,14.662,2.994,15.487,4.152,16.02z"/>
					<path fill="#FFFFFF" d="M5.82,17.834c-0.084-0.218-0.139-0.442-0.195-0.667c-1.059-0.192-2.34-0.666-3.799-1.687
						c-0.143-0.098-0.336-0.064-0.438,0.077c-0.098,0.142-0.064,0.337,0.078,0.437C3.156,17.175,4.627,17.667,5.82,17.834z"/>
					<path fill="#FFFFFF" d="M8.539,17.066c-0.373,0.087-1,0.23-1.838,0.211c0.072,0.214,0.158,0.422,0.262,0.626
						c0.785-0.014,1.391-0.15,1.775-0.24c0.541-0.125,1.621-0.521,1.826-1.132c0.074-0.216,0.031-0.435-0.117-0.616
						c-0.395-0.474-1.104-0.306-1.924-0.107c-0.412,0.098-0.877,0.209-1.342,0.252c-0.264,0.023-0.494,0.037-0.734,0.023
						c0.016,0.211,0.039,0.422,0.084,0.63c0.225,0.005,0.451-0.008,0.705-0.03c0.512-0.046,1-0.163,1.432-0.267
						c0.566-0.135,1.154-0.275,1.307-0.093C9.959,16.468,9.412,16.865,8.539,17.066z"/>
				</g>
				<path fill="#FFFFFF" d="M15.539,11.468c-1.121-1.121-2.613-1.738-4.197-1.738c-1.586,0-3.078,0.617-4.199,1.738
					c-2.314,2.314-2.314,6.081,0,8.396c1.121,1.121,2.613,1.738,4.199,1.738c1.584,0,3.076-0.617,4.197-1.738
					C17.854,17.549,17.854,13.782,15.539,11.468z M11.342,10.729c1.318,0,2.559,0.514,3.49,1.445
					c1.805,1.804,1.895,4.656,0.318,6.593l-1.816-1.815l-3.119-3.119l-1.977-1.977C9.115,11.14,10.191,10.729,11.342,10.729z
					 M11.342,20.603c-1.32,0-2.559-0.514-3.492-1.445c-1.803-1.805-1.895-4.656-0.316-6.594l5.801,5.803l1.111,1.109
					C13.566,20.192,12.49,20.603,11.342,20.603z"/>
			</g>
		</g>
	</g>
</g>
</svg>
