<?xml version="1.0" encoding="utf-8"?>
<!-- Generator: Adobe Illustrator 16.0.3, SVG Export Plug-In . SVG Version: 6.00 Build 0)  -->
<!DOCTYPE svg PUBLIC "-//W3C//DTD SVG 1.1//EN" "http://www.w3.org/Graphics/SVG/1.1/DTD/svg11.dtd">
<svg version="1.1" xmlns="http://www.w3.org/2000/svg" xmlns:xlink="http://www.w3.org/1999/xlink" x="0px" y="0px" width="22.68px"
	 height="22.68px" viewBox="0 0 22.68 22.68" enable-background="new 0 0 22.68 22.68" xml:space="preserve">
<g id="BCGRND">
</g>
<g id="BAREVNE_POZADI_IKON">
	<rect fill="#585857" width="22.676" height="22.678"/>
</g>
<g id="IKONY">
	<g>
		<g>
			<g>
				<g>
					<rect x="0.002" y="11.956" fill="#FFFFFF" width="22.678" height="0.889"/>
				</g>
				<g>
					<path fill="#FFFFFF" d="M7.897,4.354L7.614,5.287h-0.62l1.055-3.291h0.767l1.069,3.291H9.235L8.938,4.354H7.897z M8.84,3.9
						L8.581,3.09C8.518,2.889,8.464,2.664,8.415,2.475h-0.01C8.356,2.664,8.303,2.895,8.249,3.09L7.995,3.9H8.84z"/>
					<path fill="#FFFFFF" d="M10.348,3.617c0-0.273-0.01-0.504-0.02-0.709h0.522l0.029,0.357h0.015
						c0.107-0.186,0.366-0.41,0.762-0.41c0.415,0,0.845,0.268,0.845,1.02v1.412H11.9V3.943c0-0.342-0.127-0.6-0.454-0.6
						c-0.239,0-0.405,0.17-0.469,0.352c-0.02,0.049-0.029,0.121-0.029,0.189v1.402h-0.601V3.617z"/>
					<path fill="#FFFFFF" d="M13.856,2.299v0.609h0.572v0.449h-0.572v1.051c0,0.293,0.078,0.439,0.309,0.439
						c0.107,0,0.166-0.006,0.234-0.025l0.01,0.455c-0.088,0.033-0.25,0.063-0.436,0.063c-0.225,0-0.404-0.072-0.518-0.195
						c-0.131-0.137-0.189-0.355-0.189-0.668V3.357h-0.338V2.908h0.338V2.465L13.856,2.299z"/>
					<path fill="#FFFFFF" d="M15.573,2.244c0,0.176-0.132,0.322-0.342,0.322c-0.2,0-0.332-0.146-0.332-0.322
						c0-0.186,0.137-0.326,0.337-0.326C15.441,1.918,15.568,2.059,15.573,2.244z M14.934,5.287V2.908h0.601v2.379H14.934z"/>
					<path fill="#FFFFFF" d="M2.919,6.545C3.11,6.506,3.456,6.471,3.798,6.471c0.439,0,0.719,0.059,0.938,0.211
						C4.94,6.803,5.077,7.018,5.077,7.301c0,0.303-0.189,0.576-0.547,0.709v0.014c0.348,0.088,0.664,0.361,0.664,0.811
						c0,0.293-0.127,0.523-0.313,0.684C4.647,9.719,4.263,9.82,3.657,9.82c-0.332,0-0.582-0.023-0.738-0.043V6.545z M3.515,7.844
						h0.309c0.42,0,0.648-0.195,0.648-0.475c0-0.313-0.234-0.453-0.615-0.453c-0.176,0-0.277,0.01-0.342,0.023V7.844z M3.515,9.352
						c0.078,0.016,0.182,0.016,0.318,0.016c0.385,0,0.732-0.143,0.732-0.547c0-0.387-0.338-0.543-0.752-0.543H3.515V9.352z"/>
					<path fill="#FFFFFF" d="M7.62,9.215c0,0.215,0.01,0.426,0.039,0.572H7.117L7.073,9.523H7.059
						C6.917,9.709,6.668,9.84,6.355,9.84c-0.479,0-0.747-0.346-0.747-0.707c0-0.596,0.532-0.904,1.411-0.898V8.195
						c0-0.156-0.063-0.416-0.483-0.416c-0.234,0-0.479,0.074-0.64,0.176L5.779,7.564c0.176-0.107,0.483-0.209,0.859-0.209
						c0.762,0,0.981,0.482,0.981,1.006V9.215z M7.034,8.625c-0.425-0.006-0.83,0.082-0.83,0.443c0,0.234,0.151,0.342,0.342,0.342
						c0.244,0,0.415-0.156,0.474-0.326c0.015-0.045,0.015-0.088,0.015-0.133V8.625z"/>
					<path fill="#FFFFFF" d="M10.056,9.713C9.929,9.771,9.679,9.836,9.382,9.836c-0.742,0-1.227-0.479-1.227-1.217
						c0-0.713,0.488-1.264,1.324-1.264c0.219,0,0.443,0.049,0.58,0.107L9.952,7.916C9.854,7.867,9.714,7.824,9.499,7.824
						c-0.459,0-0.732,0.336-0.729,0.771c0,0.488,0.318,0.766,0.729,0.766c0.205,0,0.355-0.043,0.473-0.092L10.056,9.713z"/>
					<path fill="#FFFFFF" d="M11.313,6.799v0.609h0.57v0.449h-0.57v1.051c0,0.293,0.078,0.439,0.307,0.439
						c0.107,0,0.166-0.006,0.234-0.025l0.01,0.455c-0.088,0.033-0.248,0.063-0.434,0.063c-0.225,0-0.406-0.072-0.518-0.195
						c-0.133-0.137-0.191-0.355-0.191-0.668V7.857h-0.336V7.408h0.336V6.965L11.313,6.799z"/>
					<path fill="#FFFFFF" d="M12.784,8.766c0.016,0.43,0.348,0.615,0.732,0.615c0.279,0,0.475-0.043,0.66-0.107l0.088,0.41
						c-0.205,0.088-0.488,0.152-0.83,0.152c-0.771,0-1.227-0.475-1.227-1.201c0-0.66,0.4-1.279,1.162-1.279
						c0.771,0,1.025,0.635,1.025,1.156c0,0.113-0.01,0.201-0.02,0.254H12.784z M13.829,8.346c0.006-0.219-0.092-0.58-0.492-0.58
						c-0.371,0-0.527,0.336-0.553,0.58H13.829z"/>
					<path fill="#FFFFFF" d="M14.932,8.176c0-0.322-0.005-0.557-0.02-0.768h0.518l0.024,0.449h0.015
						c0.117-0.332,0.396-0.502,0.654-0.502c0.059,0,0.093,0.004,0.142,0.014v0.563c-0.054-0.01-0.107-0.016-0.181-0.016
						c-0.283,0-0.483,0.182-0.537,0.455c-0.01,0.053-0.015,0.117-0.015,0.18v1.236h-0.601V8.176z"/>
					<path fill="#FFFFFF" d="M17.36,6.744c0,0.176-0.132,0.322-0.342,0.322c-0.2,0-0.332-0.146-0.332-0.322
						c0-0.186,0.137-0.326,0.337-0.326C17.229,6.418,17.355,6.559,17.36,6.744z M16.721,9.787V7.408h0.601v2.379H16.721z"/>
					<path fill="#FFFFFF" d="M19.867,9.215c0,0.215,0.01,0.426,0.039,0.572h-0.542L19.32,9.523h-0.015
						c-0.142,0.186-0.391,0.316-0.703,0.316c-0.479,0-0.747-0.346-0.747-0.707c0-0.596,0.532-0.904,1.411-0.898V8.195
						c0-0.156-0.063-0.416-0.483-0.416c-0.234,0-0.479,0.074-0.64,0.176l-0.117-0.391c0.176-0.107,0.483-0.209,0.859-0.209
						c0.762,0,0.981,0.482,0.981,1.006V9.215z M19.281,8.625c-0.425-0.006-0.83,0.082-0.83,0.443c0,0.234,0.151,0.342,0.342,0.342
						c0.244,0,0.415-0.156,0.474-0.326c0.015-0.045,0.015-0.088,0.015-0.133V8.625z"/>
				</g>
			</g>
			<g>
				<g>
					<path fill="none" d="M7.469,15.971c0.107,0.001,0.205,0.002,0.291,0.011c0.4,0.04,0.625,0.175,0.805,0.282
						c0.16,0.097,0.268,0.159,0.473,0.159l0.066-0.002c0.174-0.011,0.299-0.068,0.373-0.17c0.104-0.144,0.119-0.389,0.045-0.672
						c-0.133-0.504-0.908-1.045-1.885-1.314c-0.092-0.025-0.182-0.038-0.268-0.038c-0.619,0-0.963,0.673-1.043,0.852
						C6.398,15.962,6.92,15.967,7.469,15.971z"/>
				</g>
				<g>
					<path fill="none" d="M0.303,18.317c0.025,0,0.1-0.01,0.227-0.101c0.131-0.093,0.137-0.166,0.139-0.189
						c0.01-0.121-0.107-0.263-0.137-0.291c-0.051-0.056-0.139-0.121-0.201-0.121c-0.012,0-0.041,0-0.088,0.049
						c-0.074,0.077-0.121,0.365-0.039,0.559C0.244,18.317,0.285,18.317,0.303,18.317z"/>
				</g>
				<g>
					<path fill="none" d="M18.447,17.049c0.326,0,0.664-0.073,0.828-0.146c0.387-0.169,0.471-0.478,0.424-0.71
						c-0.061-0.29-0.352-0.581-0.863-0.581c-0.125,0-0.258,0.017-0.396,0.051c-0.355,0.089-0.59,0.246-0.695,0.467
						c-0.094,0.198-0.082,0.451,0.033,0.696C17.842,16.966,18.094,17.049,18.447,17.049z"/>
				</g>
				<g opacity="0.5">
					<g>
						<path fill="#FFFFFF" d="M0.879,19.789c0.328,0,0.805-0.129,1.406-0.293c0.789-0.215,1.771-0.481,2.963-0.611
							c0.439-0.048,0.863-0.066,1.273-0.084c1.617-0.07,3.016-0.131,4.58-1.931c0.018-0.023,0.617-0.823,0.008-1.819
							c-0.535-0.872-1.236-1.424-1.75-1.826c-0.135-0.106-0.258-0.203-0.365-0.294c-0.25-0.215-0.475-0.398-0.703-0.53H6.682
							c-0.383,0.163-0.818,0.417-1.332,0.786c-1.979,1.416-3.775,2.156-5.348,2.209v1.893c0.121-0.09,0.242-0.129,0.328-0.129
							c0.293,0,0.508,0.237,0.531,0.264c0.02,0.018,0.289,0.29,0.26,0.64c-0.01,0.142-0.076,0.349-0.328,0.526
							c-0.172,0.122-0.338,0.185-0.49,0.185c-0.111,0-0.213-0.034-0.301-0.095v0.729c0.301,0.222,0.59,0.368,0.822,0.38
							L0.879,19.789z M5.883,14.957c0.018-0.048,0.467-1.187,1.486-1.187c0.127,0,0.258,0.019,0.389,0.055
							c1.162,0.32,2.027,0.964,2.205,1.639c0.111,0.422,0.068,0.796-0.117,1.054c-0.109,0.149-0.32,0.333-0.713,0.358
							c-0.033,0.002-0.064,0.003-0.096,0.003c-0.332,0-0.529-0.119-0.705-0.224c-0.164-0.098-0.32-0.19-0.619-0.221
							c-0.07-0.007-0.156-0.007-0.246-0.008c-0.531-0.005-1.518-0.013-1.6-1.374l-0.002-0.05L5.883,14.957z M5.775,16.749
							c0.127-0.11,0.318-0.097,0.43,0.028c0.109,0.127,0.1,0.32-0.027,0.43c-0.127,0.111-0.318,0.098-0.428-0.029
							C5.639,17.053,5.65,16.86,5.775,16.749z M2.631,18.48c-0.125,0.111-0.316,0.098-0.43-0.027
							c-0.107-0.126-0.096-0.318,0.029-0.43c0.127-0.111,0.318-0.098,0.43,0.027C2.77,18.178,2.758,18.369,2.631,18.48z
							 M4.141,15.354c0.127-0.113,0.322-0.102,0.436,0.029c0.113,0.127,0.102,0.322-0.027,0.436s-0.326,0.101-0.438-0.027
							C3.998,15.662,4.012,15.466,4.141,15.354z M3.834,17.242c0.189-0.168,0.477-0.147,0.643,0.042
							c0.166,0.19,0.148,0.478-0.041,0.644c-0.191,0.166-0.477,0.146-0.645-0.043C3.627,17.695,3.645,17.408,3.834,17.242z
							 M2.945,17.39c0.129-0.114,0.324-0.101,0.438,0.028c0.113,0.128,0.1,0.324-0.029,0.436c-0.129,0.113-0.324,0.101-0.438-0.027
							C2.805,17.697,2.816,17.502,2.945,17.39z M1.99,15.83c0.189-0.166,0.477-0.148,0.643,0.041s0.146,0.477-0.043,0.643
							s-0.477,0.149-0.643-0.041C1.781,16.283,1.799,15.996,1.99,15.83z"/>
					</g>
				</g>
				<g>
					<circle fill="#FFFFFF" cx="4.345" cy="15.586" r="0.309"/>
				</g>
				<g>
					<circle fill="#FFFFFF" cx="3.149" cy="17.622" r="0.309"/>
				</g>
				<g>
					<circle fill="#FFFFFF" cx="5.977" cy="16.978" r="0.305"/>
				</g>
				<g>
					<path fill="#FFFFFF" d="M2.23,18.023c-0.125,0.111-0.137,0.304-0.029,0.43c0.113,0.125,0.305,0.139,0.43,0.027
						c0.127-0.111,0.139-0.303,0.029-0.43C2.549,17.926,2.357,17.912,2.23,18.023z"/>
				</g>
				<g>
					<circle fill="#FFFFFF" cx="4.135" cy="17.585" r="0.456"/>
				</g>
				<g>
					<circle fill="#FFFFFF" cx="2.29" cy="16.172" r="0.455"/>
				</g>
				<g>
					<path fill="#FFFFFF" d="M0.861,17.423c-0.023-0.026-0.238-0.264-0.531-0.264c-0.086,0-0.207,0.039-0.328,0.129v1.391
						c0.088,0.061,0.189,0.095,0.301,0.095c0.152,0,0.318-0.063,0.49-0.185c0.252-0.178,0.318-0.385,0.328-0.526
						C1.15,17.713,0.881,17.44,0.861,17.423z M0.303,18.317c-0.018,0-0.059,0-0.1-0.095c-0.082-0.193-0.035-0.481,0.039-0.559
						c0.047-0.049,0.076-0.049,0.088-0.049c0.063,0,0.15,0.065,0.201,0.121c0.029,0.028,0.146,0.17,0.137,0.291
						c-0.002,0.023-0.008,0.097-0.139,0.189C0.402,18.308,0.328,18.317,0.303,18.317z"/>
				</g>
				<g>
					<path fill="#FFFFFF" d="M9.963,15.464c-0.178-0.675-1.043-1.318-2.205-1.639c-0.131-0.036-0.262-0.055-0.389-0.055
						c-1.02,0-1.469,1.139-1.486,1.187l-0.018,0.046l0.002,0.05c0.082,1.361,1.068,1.369,1.6,1.374
						c0.09,0.001,0.176,0.001,0.246,0.008c0.299,0.03,0.455,0.123,0.619,0.221c0.176,0.104,0.373,0.224,0.705,0.224
						c0.031,0,0.063-0.001,0.096-0.003c0.393-0.025,0.604-0.209,0.713-0.358C10.031,16.26,10.074,15.886,9.963,15.464z
						 M9.037,16.423c-0.205,0-0.313-0.063-0.473-0.159c-0.18-0.107-0.404-0.242-0.805-0.282c-0.086-0.009-0.184-0.01-0.291-0.011
						c-0.549-0.004-1.07-0.009-1.143-0.893c0.08-0.179,0.424-0.852,1.043-0.852c0.086,0,0.176,0.013,0.268,0.038
						c0.977,0.27,1.752,0.811,1.885,1.314c0.074,0.283,0.059,0.528-0.045,0.672c-0.074,0.102-0.199,0.159-0.373,0.17L9.037,16.423z"
						/>
				</g>
				<g>
					<path fill="#FFFFFF" d="M5.711,12.4c-0.199,0.123-0.404,0.255-0.627,0.416c-0.135,0.097-0.266,0.181-0.398,0.271
						c0.014-0.208,0.014-0.46-0.02-0.687H4.434c0.043,0.249,0.035,0.576,0.008,0.853c-0.314,0.207-0.625,0.391-0.928,0.561
						c-0.039-0.329-0.129-0.883-0.324-1.106c-0.043-0.048-0.113-0.052-0.16-0.011c-0.047,0.042-0.053,0.113-0.012,0.161
						c0.16,0.183,0.244,0.747,0.277,1.071c-0.291,0.154-0.578,0.295-0.857,0.414c-0.008-0.346-0.068-0.871-0.354-1.025
						c-0.053-0.025-0.123-0.009-0.154,0.046c-0.029,0.056-0.008,0.125,0.047,0.155c0.17,0.092,0.232,0.539,0.232,0.917
						c-0.434,0.172-0.854,0.3-1.26,0.384c-0.119-0.174-0.311-0.477-0.455-0.857c-0.023-0.06-0.09-0.088-0.148-0.066
						c-0.059,0.022-0.088,0.088-0.064,0.146c0.131,0.348,0.297,0.629,0.424,0.821c-0.24,0.04-0.475,0.067-0.703,0.076v0.456
						c1.572-0.053,3.369-0.793,5.348-2.209c0.514-0.369,0.949-0.623,1.332-0.786H5.711z"/>
				</g>
				<g>
					<path fill="#FFFFFF" d="M13.383,16.326c-0.035-0.053-0.107-0.065-0.158-0.032c-0.428,0.283-1.088,0.008-1.396-0.15
						c0.033-0.357-0.029-0.785-0.291-1.25c0.275-0.212,0.732-0.524,0.99-0.544c0.063-0.004,0.111-0.059,0.105-0.121
						c-0.004-0.061-0.055-0.106-0.113-0.106c-0.002,0-0.006,0-0.008,0.001c-0.33,0.022-0.826,0.368-1.098,0.574
						c-0.381-0.589-0.818-1.031-1.225-1.381c0.227-0.151,0.561-0.413,0.766-0.738c0.035-0.053,0.018-0.123-0.035-0.157
						c-0.053-0.033-0.123-0.019-0.156,0.036c-0.201,0.317-0.549,0.571-0.756,0.704c-0.127-0.105-0.254-0.205-0.367-0.295
						c-0.131-0.102-0.248-0.194-0.35-0.281c-0.076-0.066-0.15-0.123-0.225-0.185H8.291c0.229,0.132,0.453,0.315,0.703,0.53
						c0.107,0.091,0.23,0.188,0.365,0.294c0.514,0.402,1.215,0.954,1.75,1.826c0.609,0.996,0.01,1.796-0.008,1.819
						c-1.564,1.8-2.963,1.86-4.58,1.931c-0.41,0.018-0.834,0.036-1.273,0.084c-1.191,0.13-2.174,0.396-2.963,0.611
						c-0.602,0.164-1.078,0.293-1.406,0.293l-0.055-0.001c-0.232-0.012-0.521-0.158-0.822-0.38v0.413
						c0,0.047,0.012,0.092,0.014,0.139c0.256,0.154,0.508,0.253,0.744,0.274c0.033,0.301-0.088,0.845-0.211,1.249
						c0.053,0.074,0.113,0.142,0.172,0.21c0.061-0.183,0.307-0.966,0.262-1.462c0.375-0.02,0.836-0.137,1.424-0.296
						c0.01-0.003,0.023-0.007,0.033-0.009c0.041,0.377,0.131,1.055,0.25,1.267c0.021,0.036,0.061,0.058,0.1,0.058
						c0.02,0,0.039-0.005,0.057-0.016c0.055-0.03,0.074-0.101,0.043-0.155c-0.09-0.157-0.176-0.748-0.225-1.214
						c0.359-0.097,0.754-0.197,1.189-0.291l0.586,1.36c0.018,0.043,0.061,0.069,0.104,0.069c0.016,0,0.031-0.003,0.045-0.01
						c0.059-0.024,0.084-0.092,0.061-0.149L4.082,19.53c0.377-0.074,0.773-0.144,1.203-0.191c0.252,0.387,0.555,0.932,0.529,1.153
						c-0.008,0.063,0.037,0.119,0.1,0.127c0.004,0,0.008,0.001,0.014,0.001c0.057,0,0.105-0.043,0.113-0.101
						c0.035-0.301-0.281-0.858-0.494-1.198c0.336-0.029,0.672-0.051,0.994-0.065c0.174-0.007,0.348-0.017,0.52-0.025
						c0.277,0.657,0.496,1.372,0.404,1.497c-0.037,0.051-0.025,0.122,0.025,0.159c0.02,0.015,0.043,0.022,0.066,0.022
						c0.035,0,0.07-0.017,0.092-0.047c0.189-0.26-0.137-1.145-0.348-1.648c0.582-0.042,1.158-0.122,1.738-0.324
						c0.098,0.225,0.311,0.554,0.754,0.722c0.014,0.005,0.027,0.008,0.041,0.008c0.045,0,0.088-0.028,0.105-0.074
						c0.023-0.059-0.008-0.124-0.066-0.146c-0.373-0.142-0.541-0.413-0.619-0.597c0.52-0.21,1.041-0.516,1.576-1.002
						c0.271,0.162,0.789,0.512,0.975,0.896c0.02,0.04,0.059,0.064,0.102,0.064c0.018,0,0.033-0.004,0.049-0.012
						c0.057-0.027,0.082-0.096,0.055-0.152c-0.203-0.42-0.715-0.779-1.016-0.965c0.152-0.148,0.305-0.294,0.459-0.472
						c0.018-0.022,0.24-0.323,0.338-0.783c0.238,0.117,0.605,0.267,0.982,0.267c0.201,0,0.402-0.044,0.576-0.16
						C13.402,16.449,13.418,16.378,13.383,16.326z"/>
				</g>
				<g opacity="0.5">
					<g>
						<path fill="#FFFFFF" d="M17.559,20.06c0.529-0.531,1.188-1.192,2.102-1.82c0.846-0.58,1.139-1.649,1.055-2.452
							c-0.07-0.674-0.387-1.19-0.848-1.382c-0.557-0.23-1.068-0.348-1.518-0.348c-0.818,0-1.434,0.38-1.83,1.131l-0.035,0.063
							c-0.363,0.595-0.699,1.027-1.023,1.446c-0.408,0.526-0.795,1.024-1.238,1.831c-0.213,0.387-0.297,1.49,0.367,1.857
							c0.57,0.315,1.123,0.599,1.59,0.599c0.156,0,0.297-0.031,0.426-0.097C16.854,20.766,17.164,20.454,17.559,20.06z
							 M17.561,19.188c-0.141-0.049-0.215-0.205-0.166-0.346c0.051-0.143,0.207-0.217,0.348-0.167s0.217,0.205,0.166,0.347
							C17.859,19.164,17.703,19.238,17.561,19.188z M17.332,15.935c0.115-0.241,0.381-0.561,0.998-0.713
							c0.174-0.044,0.346-0.065,0.506-0.065c0.768,0,1.211,0.474,1.309,0.943c0.107,0.513-0.162,0.992-0.686,1.222
							c-0.25,0.109-0.656,0.184-1.012,0.184c-0.559,0-0.934-0.168-1.082-0.485C17.191,16.651,17.18,16.256,17.332,15.935z
							 M16.832,15.719c0.145,0.051,0.221,0.21,0.17,0.354c-0.051,0.145-0.209,0.221-0.354,0.17c-0.143-0.051-0.221-0.209-0.17-0.354
							C16.529,15.745,16.689,15.668,16.832,15.719z M14.965,19.634c-0.143-0.05-0.219-0.206-0.168-0.348
							c0.049-0.142,0.205-0.217,0.348-0.167c0.141,0.05,0.215,0.205,0.166,0.348C15.26,19.608,15.105,19.684,14.965,19.634z
							 M15.344,18.644c-0.076,0.213-0.309,0.324-0.521,0.25c-0.213-0.075-0.324-0.309-0.25-0.521
							c0.076-0.213,0.309-0.325,0.521-0.25S15.418,18.431,15.344,18.644z M15.566,18.021c-0.145-0.05-0.221-0.208-0.17-0.354
							c0.051-0.145,0.209-0.22,0.354-0.169s0.221,0.209,0.17,0.354S15.711,18.073,15.566,18.021z M16.072,20.429
							c-0.213-0.075-0.324-0.309-0.25-0.521c0.076-0.213,0.309-0.324,0.521-0.25c0.213,0.075,0.324,0.309,0.25,0.521
							S16.285,20.503,16.072,20.429z"/>
					</g>
				</g>
				<g>
					<path fill="#FFFFFF" d="M20.145,16.1c-0.098-0.47-0.541-0.943-1.309-0.943c-0.16,0-0.332,0.021-0.506,0.065
						c-0.617,0.152-0.883,0.472-0.998,0.713c-0.152,0.321-0.141,0.717,0.033,1.085c0.148,0.317,0.523,0.485,1.082,0.485
						c0.355,0,0.762-0.074,1.012-0.184C19.982,17.092,20.252,16.612,20.145,16.1z M18.447,17.049c-0.354,0-0.605-0.083-0.67-0.223
						c-0.115-0.245-0.127-0.498-0.033-0.696c0.105-0.221,0.34-0.378,0.695-0.467c0.139-0.034,0.271-0.051,0.396-0.051
						c0.512,0,0.803,0.291,0.863,0.581c0.047,0.232-0.037,0.541-0.424,0.71C19.111,16.976,18.773,17.049,18.447,17.049z"/>
				</g>
				<g>
					<path fill="#FFFFFF" d="M20.988,17.185c0.123-0.341,0.191-0.705,0.193-1.08c0.092,0.023,0.191,0.044,0.313,0.044
						c0.16,0,0.344-0.033,0.535-0.129c0.057-0.027,0.08-0.096,0.051-0.152c-0.027-0.058-0.096-0.082-0.152-0.051
						c-0.314,0.153-0.588,0.103-0.754,0.046c-0.004-0.041-0.002-0.082-0.006-0.123c-0.023-0.23-0.078-0.443-0.148-0.642
						c0.279-0.083,0.781-0.202,1.125-0.108c0.064,0.021,0.125-0.02,0.141-0.078c0.018-0.061-0.018-0.124-0.078-0.141
						c-0.418-0.122-0.992,0.023-1.287,0.116c-0.098-0.203-0.217-0.383-0.363-0.53c0.293-0.223,0.787-0.684,0.721-1.226
						c-0.006-0.063-0.063-0.104-0.127-0.1c-0.063,0.008-0.107,0.064-0.1,0.127c0.055,0.444-0.414,0.856-0.664,1.042
						c-0.109-0.084-0.221-0.162-0.346-0.215c-0.063-0.026-0.121-0.035-0.182-0.06c0.111-0.218,0.266-0.567,0.283-0.928
						c0.002-0.063-0.047-0.116-0.109-0.119c-0.057-0.017-0.115,0.045-0.119,0.107c-0.016,0.334-0.172,0.675-0.275,0.868
						c-0.283-0.094-0.553-0.16-0.813-0.196c0.021-0.271,0.086-0.675,0.246-0.866c0.041-0.049,0.033-0.12-0.014-0.161
						c-0.049-0.04-0.123-0.033-0.162,0.015c-0.207,0.25-0.273,0.713-0.297,0.986c-0.082-0.007-0.172-0.03-0.25-0.03
						c-0.201,0-0.426,0.025-0.656,0.083c-0.105-0.36-0.193-0.834-0.072-1.017c0.033-0.053,0.02-0.123-0.033-0.158
						c-0.053-0.031-0.123-0.019-0.158,0.033c-0.188,0.286-0.053,0.882,0.043,1.207c-0.213,0.076-0.426,0.191-0.631,0.352
						c-0.141-0.305-0.402-0.79-0.686-0.89c-0.061-0.026-0.125,0.009-0.145,0.069c-0.021,0.06,0.01,0.125,0.068,0.146
						c0.191,0.066,0.43,0.492,0.58,0.831c-0.203,0.194-0.396,0.438-0.564,0.757c-0.002,0.003-0.004,0.005-0.006,0.008
						c-0.18-0.242-0.473-0.598-0.711-0.681c-0.061-0.024-0.125,0.01-0.145,0.069c-0.021,0.06,0.01,0.125,0.068,0.146
						c0.174,0.061,0.457,0.396,0.652,0.669c-0.164,0.253-0.322,0.488-0.479,0.696c-0.16-0.269-0.428-0.627-0.715-0.627h-0.006
						c-0.063,0.002-0.113,0.054-0.111,0.116c0,0.063,0.051,0.112,0.113,0.112h0.006c0.166,0,0.4,0.31,0.563,0.597
						c-0.074,0.1-0.152,0.203-0.225,0.299c-0.123,0.158-0.248,0.322-0.375,0.493c-0.174-0.085-0.441-0.231-0.709-0.455
						c-0.049-0.041-0.121-0.033-0.16,0.014c-0.041,0.049-0.033,0.12,0.014,0.16c0.27,0.225,0.533,0.375,0.719,0.468
						c-0.117,0.164-0.236,0.339-0.359,0.53c-0.139-0.122-0.348-0.28-0.631-0.406c-0.057-0.022-0.125-0.001-0.15,0.057
						s0,0.125,0.057,0.15c0.279,0.125,0.479,0.283,0.602,0.396c-0.094,0.152-0.188,0.309-0.285,0.484
						c-0.014,0.026-0.025,0.063-0.039,0.093c-0.283-0.091-0.803-0.191-1.322,0.07c-0.055,0.028-0.078,0.097-0.049,0.153
						c0.027,0.055,0.096,0.079,0.152,0.05c0.438-0.223,0.891-0.138,1.139-0.06c-0.061,0.205-0.092,0.447-0.09,0.701
						c-0.338,0.043-1.002,0.174-1.578,0.588c-0.051,0.037-0.063,0.108-0.025,0.159c0.021,0.031,0.057,0.048,0.092,0.048
						c0.023,0,0.047-0.008,0.066-0.021c0.521-0.375,1.135-0.501,1.455-0.543c0.021,0.193,0.076,0.382,0.154,0.561l-1.051,0.512
						c-0.057,0.027-0.08,0.096-0.053,0.152c0.02,0.041,0.061,0.064,0.102,0.064c0.018,0,0.033-0.004,0.051-0.012l1.055-0.514
						c0.111,0.177,0.258,0.332,0.455,0.448c-0.27,0.315-0.543,0.923-0.672,1.233c-0.023,0.059,0.004,0.125,0.063,0.149
						c0.014,0.006,0.029,0.009,0.043,0.009c0.045,0,0.088-0.026,0.105-0.07c0.227-0.544,0.496-1.027,0.66-1.207
						c0.277,0.149,0.549,0.285,0.816,0.388c-0.059,0.418-0.188,1.125-0.375,1.38c-0.008,0.011-0.004,0.023-0.008,0.036h0.246
						c0.189-0.345,0.307-0.989,0.357-1.345c0.207,0.063,0.41,0.108,0.607,0.108c0.209,0,0.404-0.046,0.584-0.128
						c0.176,0.258,0.334,0.832,0.404,1.201c0.01,0.055,0.059,0.093,0.111,0.093c0.008,0,0.014-0.001,0.021-0.002
						c0.063-0.012,0.104-0.071,0.092-0.134c-0.033-0.17-0.182-0.887-0.434-1.269c0.271-0.178,0.564-0.465,0.922-0.822l0.055-0.056
						c0.201,0.279,0.563,0.76,0.748,0.873c0.018,0.011,0.039,0.017,0.059,0.017c0.039,0,0.076-0.02,0.098-0.056
						c0.033-0.054,0.016-0.123-0.039-0.156c-0.135-0.082-0.463-0.508-0.701-0.84c0.234-0.232,0.492-0.479,0.783-0.735l1.051,0.799
						c0.02,0.016,0.045,0.023,0.068,0.023c0.035,0,0.068-0.016,0.092-0.045c0.037-0.051,0.027-0.122-0.021-0.16l-1.01-0.769
						c0.258-0.22,0.535-0.44,0.85-0.657c0.361,0.19,0.822,0.474,0.898,0.653c0.018,0.043,0.061,0.069,0.104,0.069
						c0.016,0,0.031-0.003,0.045-0.01c0.059-0.024,0.086-0.091,0.061-0.149c-0.107-0.251-0.596-0.548-0.912-0.72
						c0.342-0.284,0.615-0.647,0.801-1.063c0.617,0.252,1.135,0.547,1.154,0.665c0.008,0.056,0.057,0.097,0.111,0.097
						c0.006,0,0.012-0.001,0.018-0.002c0.063-0.009,0.105-0.067,0.096-0.13C22.242,17.735,21.477,17.382,20.988,17.185z
						 M19.66,18.239c-0.914,0.628-1.572,1.289-2.102,1.82c-0.395,0.395-0.705,0.706-0.953,0.829
						c-0.129,0.065-0.27,0.097-0.426,0.097c-0.467,0-1.02-0.283-1.59-0.599c-0.664-0.367-0.58-1.471-0.367-1.857
						c0.443-0.807,0.83-1.305,1.238-1.831c0.324-0.419,0.66-0.852,1.023-1.446l0.035-0.063c0.396-0.751,1.012-1.131,1.83-1.131
						c0.449,0,0.961,0.117,1.518,0.348c0.461,0.191,0.777,0.708,0.848,1.382C20.799,16.59,20.506,17.659,19.66,18.239z"/>
				</g>
				<g>
					<circle fill="#FFFFFF" cx="16.74" cy="15.98" r="0.277"/>
				</g>
				<g>
					<circle fill="#FFFFFF" cx="15.658" cy="17.76" r="0.277"/>
				</g>
				<g>
					<circle fill="#FFFFFF" cx="17.651" cy="18.932" r="0.272"/>
				</g>
				<g>
					<circle fill="#FFFFFF" cx="15.055" cy="19.376" r="0.273"/>
				</g>
				<g>
					<circle fill="#FFFFFF" cx="16.208" cy="20.043" r="0.409"/>
				</g>
				<g>
					<circle fill="#FFFFFF" cx="14.958" cy="18.508" r="0.408"/>
				</g>
			</g>
		</g>
	</g>
</g>
</svg>
