<?xml version="1.0" encoding="utf-8"?>
<!-- Generator: Adobe Illustrator 16.0.3, SVG Export Plug-In . SVG Version: 6.00 Build 0)  -->
<!DOCTYPE svg PUBLIC "-//W3C//DTD SVG 1.1//EN" "http://www.w3.org/Graphics/SVG/1.1/DTD/svg11.dtd">
<svg version="1.1" xmlns="http://www.w3.org/2000/svg" xmlns:xlink="http://www.w3.org/1999/xlink" x="0px" y="0px" width="22.68px"
	 height="22.68px" viewBox="0 0 22.68 22.68" enable-background="new 0 0 22.68 22.68" xml:space="preserve">
<g id="BCGRND">
</g>
<g id="BAREVNE_POZADI_IKON">
	<rect fill="#585857" width="22.676" height="22.678"/>
</g>
<g id="IKONY">
	<g>
		<g>
			<path fill="none" d="M2.496,15.846c0-0.699,1.268-2.95,1.268-2.95s1.266,2.251,1.266,2.95c0,0.698-0.569,1.266-1.266,1.266
				C3.063,17.111,2.496,16.544,2.496,15.846z M5.663,22.32c-0.7,0-1.268-0.568-1.268-1.267c0-0.7,1.268-2.949,1.268-2.949
				s1.267,2.249,1.267,2.949C6.93,21.752,6.359,22.32,5.663,22.32z M6.294,15.846c0-0.699,1.264-2.95,1.264-2.95
				s1.266,2.251,1.266,2.95c0,0.698-0.563,1.266-1.266,1.266C6.859,17.111,6.294,16.544,6.294,15.846z M9.457,22.32
				c-0.698,0-1.264-0.568-1.264-1.267c0-0.7,1.264-2.949,1.264-2.949s1.267,2.249,1.267,2.949
				C10.724,21.752,10.159,22.32,9.457,22.32z M10.087,15.846c0-0.699,1.263-2.95,1.263-2.95s1.269,2.251,1.269,2.95
				c0,0.698-0.564,1.266-1.269,1.266C10.653,17.111,10.087,16.544,10.087,15.846z M13.246,22.32c-0.696,0-1.261-0.568-1.261-1.267
				c0-0.7,1.261-2.949,1.261-2.949s1.268,2.249,1.268,2.949C14.514,21.752,13.949,22.32,13.246,22.32z M13.88,15.846
				c0-0.699,1.265-2.95,1.265-2.95s1.268,2.251,1.268,2.95c0,0.698-0.567,1.266-1.268,1.266
				C14.446,17.111,13.88,16.544,13.88,15.846z M17.042,22.32c-0.697,0-1.265-0.568-1.265-1.267c0-0.7,1.265-2.949,1.265-2.949
				s1.27,2.249,1.27,2.949C18.312,21.752,17.744,22.32,17.042,22.32z M17.674,15.846c0-0.699,1.267-2.95,1.267-2.95
				s1.268,2.251,1.268,2.95c0,0.698-0.567,1.266-1.268,1.266C18.244,17.111,17.674,16.544,17.674,15.846z"/>
			<path opacity="0.5" fill="#FFFFFF" d="M20.208,15.846c0-0.699-1.268-2.95-1.268-2.95s-1.267,2.251-1.267,2.95
				c0,0.698,0.57,1.266,1.267,1.266C19.641,17.111,20.208,16.544,20.208,15.846z"/>
			<path opacity="0.5" fill="#FFFFFF" d="M8.823,15.846c0-0.699-1.266-2.95-1.266-2.95s-1.264,2.251-1.264,2.95
				c0,0.698,0.565,1.266,1.264,1.266C8.261,17.111,8.823,16.544,8.823,15.846z"/>
			<path opacity="0.5" fill="#FFFFFF" d="M12.618,15.846c0-0.699-1.269-2.95-1.269-2.95s-1.263,2.251-1.263,2.95
				c0,0.698,0.566,1.266,1.263,1.266C12.054,17.111,12.618,16.544,12.618,15.846z"/>
			<path opacity="0.5" fill="#FFFFFF" d="M16.412,15.846c0-0.699-1.268-2.95-1.268-2.95s-1.265,2.251-1.265,2.95
				c0,0.698,0.566,1.266,1.265,1.266C15.845,17.111,16.412,16.544,16.412,15.846z"/>
			<path opacity="0.5" fill="#FFFFFF" d="M22.678,17.1c0-1.273,0-2.643,0-3.623V13c-0.246,0.447-1.206,2.235-1.206,2.846
				C21.472,16.523,22.009,17.068,22.678,17.1z"/>
			<path opacity="0.5" fill="#FFFFFF" d="M5.029,15.846c0-0.699-1.266-2.95-1.266-2.95s-1.268,2.251-1.268,2.95
				c0,0.698,0.567,1.266,1.268,1.266C4.46,17.111,5.029,16.544,5.029,15.846z"/>
			<path opacity="0.5" fill="#FFFFFF" d="M1.232,15.846c0-0.646-1.067-2.594-1.232-2.891v4.149
				C0.684,17.086,1.232,16.532,1.232,15.846z"/>
			<path opacity="0.5" fill="#FFFFFF" d="M20.841,18.104c0,0-1.266,2.249-1.266,2.949c0,0.698,0.568,1.267,1.266,1.267
				c0.27,0,0.504-0.103,0.709-0.245c0.079-0.061,0.158-0.122,0.23-0.19c0.197-0.223,0.327-0.51,0.327-0.831
				C22.107,20.354,20.841,18.104,20.841,18.104z"/>
			<path opacity="0.5" fill="#FFFFFF" d="M8.193,21.054c0,0.698,0.565,1.267,1.264,1.267c0.702,0,1.267-0.568,1.267-1.267
				c0-0.7-1.267-2.949-1.267-2.949S8.193,20.354,8.193,21.054z"/>
			<path opacity="0.5" fill="#FFFFFF" d="M11.985,21.054c0,0.698,0.564,1.267,1.261,1.267c0.703,0,1.268-0.568,1.268-1.267
				c0-0.7-1.268-2.949-1.268-2.949S11.985,20.354,11.985,21.054z"/>
			<path opacity="0.5" fill="#FFFFFF" d="M15.777,21.054c0,0.698,0.567,1.267,1.265,1.267c0.702,0,1.27-0.568,1.27-1.267
				c0-0.7-1.27-2.949-1.27-2.949S15.777,20.354,15.777,21.054z"/>
			<path opacity="0.5" fill="#FFFFFF" d="M4.396,21.054c0,0.698,0.567,1.267,1.268,1.267c0.696,0,1.267-0.568,1.267-1.267
				c0-0.7-1.267-2.949-1.267-2.949S4.396,20.354,4.396,21.054z"/>
			<path opacity="0.5" fill="#FFFFFF" d="M3.132,21.054c0-0.7-1.266-2.949-1.266-2.949S0.6,20.354,0.6,21.054
				c0,0.347,0.141,0.659,0.366,0.888c0.009,0.008,0.018,0.014,0.026,0.021c0.228,0.219,0.534,0.357,0.874,0.357
				C2.565,22.32,3.132,21.752,3.132,21.054z"/>
			<path opacity="0.5" fill="#FFFFFF" d="M20.841,11.902c0.701,0,1.267-0.567,1.267-1.266c0-0.487-0.61-1.717-0.983-2.424h-0.566
				c-0.372,0.707-0.982,1.937-0.982,2.424C19.575,11.335,20.144,11.902,20.841,11.902z"/>
			<path opacity="0.5" fill="#FFFFFF" d="M9.457,11.902c0.702,0,1.267-0.567,1.267-1.266c0-0.487-0.61-1.717-0.983-2.424H9.175
				c-0.372,0.707-0.981,1.937-0.981,2.424C8.193,11.335,8.759,11.902,9.457,11.902z"/>
			<path opacity="0.5" fill="#FFFFFF" d="M13.246,11.902c0.703,0,1.268-0.567,1.268-1.266c0-0.487-0.611-1.717-0.984-2.424h-0.565
				c-0.371,0.707-0.979,1.937-0.979,2.424C11.985,11.335,12.55,11.902,13.246,11.902z"/>
			<path opacity="0.5" fill="#FFFFFF" d="M17.042,11.902c0.702,0,1.27-0.567,1.27-1.266c0-0.487-0.612-1.717-0.986-2.424h-0.566
				c-0.372,0.707-0.981,1.937-0.981,2.424C15.777,11.335,16.345,11.902,17.042,11.902z"/>
			<path opacity="0.5" fill="#FFFFFF" d="M5.663,11.902c0.696,0,1.267-0.567,1.267-1.266c0-0.487-0.61-1.717-0.983-2.424H5.38
				c-0.373,0.707-0.984,1.937-0.984,2.424C4.396,11.335,4.963,11.902,5.663,11.902z"/>
			<path opacity="0.5" fill="#FFFFFF" d="M1.866,11.902c0.699,0,1.266-0.567,1.266-1.266c0-0.487-0.61-1.717-0.982-2.424H1.583
				C1.21,8.92,0.6,10.149,0.6,10.637C0.6,11.335,1.168,11.902,1.866,11.902z"/>
		</g>
		<g>
			<g>
				<rect y="7.769" fill="#FFFFFF" width="22.678" height="0.889"/>
			</g>
			<g>
				<g>
					<path fill="#FFFFFF" d="M2.391,4.635L2.107,5.567H1.488l1.055-3.291h0.766l1.07,3.291H3.734L3.436,4.635H2.391z M3.334,4.181
						L3.074,3.37c-0.063-0.2-0.117-0.425-0.166-0.615h-0.01C2.85,2.945,2.801,3.175,2.742,3.37L2.488,4.181H3.334z"/>
					<path fill="#FFFFFF" d="M6.203,5.24h-0.01C6.053,5.47,5.803,5.621,5.457,5.621c-0.533,0-0.996-0.464-0.996-1.206
						c0-0.869,0.557-1.279,1.064-1.279c0.332,0,0.566,0.142,0.693,0.366l0.01,0.005l0.014-0.317h0.582
						c-0.01,0.215-0.02,0.439-0.02,0.688v2.656H6.203V5.24z M6.203,4.171c0-0.049-0.004-0.103-0.014-0.146
						C6.135,3.8,5.945,3.609,5.676,3.609c-0.385,0-0.605,0.327-0.605,0.776c0,0.435,0.211,0.762,0.592,0.762
						c0.244,0,0.443-0.156,0.512-0.396c0.02-0.059,0.029-0.127,0.029-0.186V4.171z"/>
					<path fill="#FFFFFF" d="M9.439,4.854c0,0.283,0.01,0.518,0.02,0.713H8.932L8.902,5.206h-0.01
						C8.789,5.377,8.555,5.621,8.131,5.621c-0.436,0-0.83-0.259-0.83-1.035V3.189h0.6v1.294c0,0.396,0.127,0.649,0.445,0.649
						c0.238,0,0.395-0.171,0.459-0.322c0.02-0.054,0.033-0.117,0.033-0.186V3.189h0.602V4.854z"/>
					<path fill="#FFFFFF" d="M11.288,5.567l-0.039-0.264h-0.015c-0.146,0.186-0.396,0.317-0.703,0.317
						c-0.479,0-0.747-0.347-0.747-0.708c0-0.601,0.532-0.903,1.411-0.898V3.976c0-0.156-0.063-0.415-0.483-0.415
						c-0.234,0-0.479,0.073-0.64,0.176L9.955,3.346c0.176-0.107,0.483-0.21,0.859-0.21c0.762,0,0.981,0.483,0.981,1.001v0.859
						c0,0.215,0.01,0.425,0.034,0.571H11.288z M11.21,4.405c-0.425-0.01-0.83,0.083-0.83,0.444c0,0.234,0.151,0.342,0.342,0.342
						c0.239,0,0.415-0.156,0.469-0.327c0.015-0.044,0.02-0.093,0.02-0.132V4.405z"/>
					<path fill="#FFFFFF" d="M12.302,4.913c0.195,0.112,0.488,0.21,0.796,0.21c0.386,0,0.601-0.181,0.601-0.449
						c0-0.249-0.166-0.396-0.586-0.547c-0.542-0.195-0.889-0.483-0.889-0.957c0-0.537,0.449-0.947,1.162-0.947
						c0.356,0,0.62,0.078,0.791,0.166L14.03,2.872c-0.117-0.063-0.347-0.156-0.654-0.156c-0.381,0-0.547,0.205-0.547,0.396
						c0,0.254,0.19,0.371,0.63,0.542c0.571,0.215,0.85,0.503,0.85,0.977c0,0.527-0.4,0.986-1.25,0.986
						c-0.347,0-0.708-0.098-0.889-0.205L12.302,4.913z"/>
					<path fill="#FFFFFF" d="M15.356,2.511v0.679h0.571v0.449h-0.571v1.05c0,0.288,0.078,0.439,0.308,0.439
						c0.103,0,0.181-0.015,0.234-0.029l0.01,0.459c-0.088,0.034-0.244,0.059-0.435,0.059c-0.22,0-0.405-0.073-0.518-0.195
						c-0.127-0.137-0.186-0.352-0.186-0.664V3.639h-0.342V3.189h0.342V2.652L15.356,2.511z"/>
					<path fill="#FFFFFF" d="M18.474,4.356c0,0.874-0.615,1.265-1.221,1.265c-0.674,0-1.191-0.464-1.191-1.226
						c0-0.781,0.513-1.26,1.23-1.26C18,3.136,18.474,3.634,18.474,4.356z M16.682,4.381c0,0.459,0.225,0.806,0.591,0.806
						c0.342,0,0.581-0.337,0.581-0.815c0-0.371-0.166-0.796-0.576-0.796C16.853,3.575,16.682,3.985,16.682,4.381z"/>
					<path fill="#FFFFFF" d="M18.828,3.98c0-0.313-0.01-0.566-0.02-0.791h0.527l0.029,0.366h0.01c0.176-0.269,0.455-0.42,0.816-0.42
						c0.547,0,1,0.469,1,1.211c0,0.859-0.541,1.274-1.084,1.274c-0.297,0-0.547-0.127-0.668-0.317h-0.01v1.23h-0.602V3.98z
						 M19.43,4.571c0,0.059,0.004,0.112,0.02,0.166c0.059,0.244,0.273,0.42,0.527,0.42c0.381,0,0.605-0.317,0.605-0.786
						c0-0.42-0.205-0.762-0.592-0.762c-0.248,0-0.479,0.181-0.537,0.444c-0.014,0.049-0.023,0.103-0.023,0.151V4.571z"/>
				</g>
			</g>
		</g>
		<path fill="#FFFFFF" d="M15.574,11.339c-1.122-1.121-2.613-1.738-4.198-1.738c-1.586,0-3.077,0.617-4.198,1.738
			c-2.314,2.315-2.314,6.081,0,8.396c1.121,1.122,2.612,1.74,4.198,1.74c1.585,0,3.076-0.618,4.198-1.74
			C17.889,17.42,17.889,13.654,15.574,11.339z M11.376,10.601c1.318,0,2.559,0.513,3.491,1.445c1.804,1.804,1.895,4.655,0.317,6.593
			l-1.815-1.816l-3.119-3.118l-1.977-1.978C9.15,11.01,10.227,10.601,11.376,10.601z M11.376,20.475
			c-1.319,0-2.559-0.514-3.491-1.447c-1.804-1.803-1.895-4.655-0.317-6.592l5.802,5.801l1.11,1.11
			C13.601,20.064,12.524,20.475,11.376,20.475z"/>
	</g>
</g>
</svg>
