<?xml version="1.0" encoding="utf-8"?>
<!-- Generator: Adobe Illustrator 16.0.3, SVG Export Plug-In . SVG Version: 6.00 Build 0)  -->
<!DOCTYPE svg PUBLIC "-//W3C//DTD SVG 1.1//EN" "http://www.w3.org/Graphics/SVG/1.1/DTD/svg11.dtd">
<svg version="1.1" xmlns="http://www.w3.org/2000/svg" xmlns:xlink="http://www.w3.org/1999/xlink" x="0px" y="0px" width="22.68px"
	 height="22.68px" viewBox="0 0 22.68 22.68" enable-background="new 0 0 22.68 22.68" xml:space="preserve">
<g id="BCGRND">
</g>
<g id="BAREVNE_POZADI_IKON">
	<rect x="0.002" fill="#585857" width="22.677" height="22.68"/>
</g>
<g id="IKONY">
	<g>
		<g>
			<g>
				<path fill="#FFFFFF" d="M6.418,4.637L6.135,5.57H5.516L6.57,2.279h0.766l1.07,3.291H7.762L7.463,4.637H6.418z M7.361,4.183
					l-0.26-0.811c-0.063-0.2-0.117-0.425-0.166-0.615h-0.01c-0.049,0.19-0.098,0.42-0.156,0.615L6.516,4.183H7.361z"/>
				<path fill="#FFFFFF" d="M8.746,5.018c0.137,0.083,0.396,0.171,0.611,0.171c0.264,0,0.381-0.107,0.381-0.264
					c0-0.161-0.098-0.244-0.391-0.347c-0.465-0.161-0.66-0.415-0.654-0.693c0-0.42,0.346-0.747,0.898-0.747
					c0.264,0,0.492,0.068,0.629,0.142l-0.117,0.425C10.002,3.646,9.81,3.568,9.601,3.568c-0.215,0-0.332,0.103-0.332,0.249
					c0,0.151,0.111,0.225,0.414,0.332c0.43,0.156,0.631,0.376,0.635,0.728c0,0.43-0.336,0.742-0.967,0.742
					c-0.287,0-0.547-0.068-0.723-0.166L8.746,5.018z"/>
				<path fill="#FFFFFF" d="M10.736,5.018c0.137,0.083,0.396,0.171,0.61,0.171c0.264,0,0.381-0.107,0.381-0.264
					c0-0.161-0.098-0.244-0.391-0.347c-0.464-0.161-0.659-0.415-0.654-0.693c0-0.42,0.347-0.747,0.898-0.747
					c0.264,0,0.493,0.068,0.63,0.142l-0.117,0.425c-0.103-0.059-0.293-0.137-0.503-0.137c-0.215,0-0.332,0.103-0.332,0.249
					c0,0.151,0.112,0.225,0.415,0.332c0.43,0.156,0.63,0.376,0.635,0.728c0,0.43-0.337,0.742-0.967,0.742
					c-0.288,0-0.547-0.068-0.723-0.166L10.736,5.018z"/>
				<path fill="#FFFFFF" d="M13.394,2.528c0,0.181-0.131,0.322-0.342,0.322c-0.199,0-0.332-0.142-0.332-0.322
					c0-0.186,0.137-0.327,0.338-0.327C13.264,2.2,13.391,2.342,13.394,2.528z M12.756,5.57V3.192h0.605V5.57H12.756z"/>
				<path fill="#FFFFFF" d="M13.929,5.018c0.137,0.083,0.396,0.171,0.61,0.171c0.264,0,0.381-0.107,0.381-0.264
					c0-0.161-0.098-0.244-0.391-0.347c-0.464-0.161-0.659-0.415-0.654-0.693c0-0.42,0.347-0.747,0.898-0.747
					c0.264,0,0.493,0.068,0.63,0.142l-0.117,0.425c-0.103-0.059-0.293-0.137-0.503-0.137c-0.215,0-0.332,0.103-0.332,0.249
					c0,0.151,0.112,0.225,0.415,0.332c0.43,0.156,0.63,0.376,0.635,0.728c0,0.43-0.337,0.742-0.967,0.742
					c-0.288,0-0.547-0.068-0.723-0.166L13.929,5.018z"/>
				<path fill="#FFFFFF" d="M16.637,2.513v0.679h0.57v0.449h-0.57v1.05c0,0.288,0.078,0.439,0.307,0.439
					c0.104,0,0.182-0.015,0.234-0.029l0.01,0.459c-0.088,0.034-0.244,0.059-0.434,0.059c-0.221,0-0.406-0.073-0.518-0.195
					c-0.127-0.137-0.186-0.352-0.186-0.664V3.641h-0.342V3.192h0.342V2.655L16.637,2.513z"/>
			</g>
		</g>
		<g>
			<rect x="0.001" y="7.771" fill="#FFFFFF" width="22.678" height="0.889"/>
		</g>
		<path opacity="0.5" fill="#FFFFFF" d="M18.916,15.165c0-3.146-1.927-5.849-4.661-6.993c-0.897-0.375-4.954-0.37-5.86,0.014
			c-2.718,1.151-4.63,3.847-4.63,6.979c0,3.863,2.907,7.053,6.646,7.514h1.857C16.009,22.218,18.916,19.029,18.916,15.165z
			 M4.765,15.165c0-3.626,2.949-6.576,6.575-6.576s6.576,2.95,6.576,6.576s-2.95,6.576-6.576,6.576S4.765,18.791,4.765,15.165z"/>
		<path opacity="0.5" fill="#FFFFFF" d="M2.375,15.165c0-2.594,1.123-5.058,3.08-6.762c0,0-1.063-0.385-1.254-0.188
			c-1.805,1.854-2.826,4.344-2.826,6.95c0,2.999,1.337,5.686,3.439,7.514h1.651C4.008,21.078,2.375,18.312,2.375,15.165z"/>
		<path opacity="0.5" fill="#FFFFFF" d="M21.304,15.165c0-2.603-1.021-5.097-2.824-6.95c-0.169-0.174-1.192,0.243-1.192,0.243
			c1.917,1.701,3.017,4.146,3.017,6.707c0,3.146-1.633,5.913-4.091,7.514h1.651C19.967,20.851,21.304,18.164,21.304,15.165z"/>
		<path fill="#FFFFFF" d="M8.245,15.171c1.536,2.059,2.081,2.363,2.081,2.363l0.633,0.266l1.237,0.445
			c0.177,0.073,0.684,0.154,0.854,0.16c0.751,0.022,1.239-0.055,1.647-0.219c-0.508-0.029-0.916-0.072-1.581-0.131
			c-0.459-0.04-1.258-0.407-1.646-0.58c-0.081-0.03-0.107-0.12-0.074-0.194c0.034-0.073,0.119-0.106,0.194-0.074
			c0.577,0.259,1.322,0.562,1.979,0.611c0.657,0.05,1.255,0.082,1.64,0.102c0.235-0.161,0.37-0.314,0.429-0.393
			c-0.588-0.032-1.302-0.089-2.199-0.164c-0.57-0.048-1.236-0.351-1.646-0.534c-0.079-0.036-0.107-0.121-0.074-0.194
			c0.033-0.074,0.122-0.107,0.195-0.074c0.512,0.231,1.07,0.491,1.787,0.546c0.838,0.063,1.65,0.111,2.126,0.138
			c0.257-0.487-0.081-0.574-2.368-0.844c-0.212-0.025-0.115,0-0.343-0.098c-2.725-1.166-2.17-1.835-2.17-1.835
			c0.257-0.018,0.689,0.104,2.388,0.352c1.138,0.165,1.228-0.356,1.228-0.356c-0.354-0.491-2.236-0.89-3.297-1.172
			c-0.336-0.09-1.546-0.604-2.345-0.491c-1.103-0.274-2.336-0.458-3.387-0.713c-0.463,0.871-0.732,1.858-0.76,2.906
			C6.486,15.217,8.245,15.171,8.245,15.171z"/>
	</g>
</g>
</svg>
