<?xml version="1.0" encoding="utf-8"?>
<!-- Generator: Adobe Illustrator 16.0.3, SVG Export Plug-In . SVG Version: 6.00 Build 0)  -->
<!DOCTYPE svg PUBLIC "-//W3C//DTD SVG 1.1//EN" "http://www.w3.org/Graphics/SVG/1.1/DTD/svg11.dtd">
<svg version="1.1" xmlns="http://www.w3.org/2000/svg" xmlns:xlink="http://www.w3.org/1999/xlink" x="0px" y="0px" width="22.68px"
	 height="22.68px" viewBox="0 0 22.68 22.68" enable-background="new 0 0 22.68 22.68" xml:space="preserve">
<g id="BCGRND">
</g>
<g id="BAREVNE_POZADI_IKON">
	<rect x="0.002" fill="#585857" width="22.678" height="22.68"/>
</g>
<g id="IKONY">
	<g>
		<g>
			<path fill="#FFFFFF" d="M8.646,19.084h5.546v-0.854H8.646V19.084z M13.393,12.287c0,0,0.091-1.324-1.108-1.637
				C9.399,9.9,9.295,12.699,9.295,12.699c-1.544-0.412-3.114,0.85-2.435,2.766c0.136,0.381,0.336,0.639,0.555,0.816
				c0.426,0.344,1.68,0.537,2.449,0.158c-0.206,0.334-0.752,0.521-1.219,0.555v0.857h5.546v-1.451
				c-1.358-0.145-1.375-0.781-1.375-0.781c0.663,0.768,1.936,0.334,2.018,0.305c0.546-0.246,1.226-0.781,1.138-1.926
				C15.828,12.123,13.393,12.287,13.393,12.287z"/>
		</g>
		<g>
			<rect y="7.769" fill="#FFFFFF" width="22.678" height="0.889"/>
		</g>
		<path opacity="0.5" fill="#FFFFFF" d="M18.915,15.164c0-3.146-1.927-5.849-4.661-6.993C13.356,7.795,9.3,7.8,8.394,8.184
			c-2.718,1.152-4.63,3.847-4.63,6.98c0,3.863,2.907,7.053,6.646,7.513h1.857C16.008,22.217,18.915,19.027,18.915,15.164z
			 M4.764,15.164c0-3.626,2.949-6.576,6.575-6.576s6.576,2.95,6.576,6.576s-2.95,6.576-6.576,6.576S4.764,18.79,4.764,15.164z"/>
		<path opacity="0.5" fill="#FFFFFF" d="M2.374,15.164c0-2.594,1.123-5.058,3.08-6.762c0,0-1.063-0.384-1.254-0.188
			c-1.805,1.854-2.826,4.344-2.826,6.951c0,2.999,1.337,5.685,3.439,7.513h1.651C4.007,21.077,2.374,18.31,2.374,15.164z"/>
		<path opacity="0.5" fill="#FFFFFF" d="M21.303,15.164c0-2.603-1.021-5.097-2.824-6.95c-0.169-0.174-1.192,0.243-1.192,0.243
			c1.917,1.701,3.017,4.145,3.017,6.707c0,3.146-1.633,5.913-4.091,7.513h1.651C19.966,20.849,21.303,18.162,21.303,15.164z"/>
		<g>
			<g>
				<path fill="#FFFFFF" d="M3.09,4.635L2.807,5.568H2.188l1.055-3.291h0.766l1.07,3.291H4.434L4.135,4.635H3.09z M4.033,4.181
					L3.773,3.37c-0.063-0.2-0.117-0.425-0.166-0.615h-0.01C3.549,2.946,3.5,3.175,3.441,3.37L3.188,4.181H4.033z"/>
				<path fill="#FFFFFF" d="M7.576,4.855c0,0.283,0.01,0.518,0.02,0.713H7.068L7.039,5.206h-0.01
					C6.928,5.377,6.693,5.621,6.268,5.621c-0.434,0-0.83-0.259-0.83-1.035V3.19h0.602v1.294c0,0.396,0.127,0.649,0.443,0.649
					c0.24,0,0.396-0.171,0.459-0.322c0.02-0.054,0.035-0.117,0.035-0.186V3.19h0.6V4.855z"/>
				<path fill="#FFFFFF" d="M8.918,2.511V3.19h0.571v0.449H8.918v1.05c0,0.288,0.078,0.439,0.308,0.439
					c0.103,0,0.181-0.015,0.234-0.029l0.01,0.459C9.382,5.592,9.226,5.616,9.035,5.616c-0.22,0-0.405-0.073-0.518-0.195
					C8.391,5.284,8.332,5.07,8.332,4.757V3.639H7.99V3.19h0.342V2.653L8.918,2.511z"/>
				<path fill="#FFFFFF" d="M12.177,4.357c0,0.874-0.615,1.265-1.221,1.265c-0.674,0-1.191-0.464-1.191-1.226
					c0-0.781,0.513-1.26,1.23-1.26C11.703,3.136,12.177,3.634,12.177,4.357z M10.385,4.381c0,0.459,0.225,0.806,0.591,0.806
					c0.342,0,0.581-0.337,0.581-0.815c0-0.371-0.166-0.796-0.576-0.796C10.556,3.575,10.385,3.986,10.385,4.381z"/>
				<path fill="#FFFFFF" d="M12.674,3.898c0-0.273-0.006-0.503-0.02-0.708h0.518l0.023,0.352h0.016
					c0.117-0.186,0.332-0.405,0.732-0.405c0.313,0,0.557,0.176,0.658,0.439h0.01c0.084-0.132,0.182-0.229,0.293-0.298
					c0.133-0.093,0.283-0.142,0.479-0.142c0.396,0,0.797,0.269,0.797,1.03v1.401h-0.586V4.254c0-0.396-0.137-0.63-0.426-0.63
					c-0.205,0-0.355,0.146-0.42,0.317c-0.014,0.059-0.029,0.132-0.029,0.2v1.426h-0.586V4.191c0-0.332-0.131-0.566-0.41-0.566
					c-0.225,0-0.375,0.176-0.43,0.342C13.27,4.025,13.26,4.093,13.26,4.161v1.406h-0.586V3.898z"/>
				<path fill="#FFFFFF" d="M18.157,5.568l-0.039-0.264h-0.015C17.957,5.49,17.708,5.621,17.4,5.621
					c-0.479,0-0.747-0.347-0.747-0.708c0-0.601,0.532-0.903,1.411-0.898V3.976c0-0.156-0.063-0.415-0.483-0.415
					c-0.234,0-0.479,0.073-0.64,0.176l-0.117-0.391c0.176-0.107,0.483-0.21,0.859-0.21c0.762,0,0.981,0.483,0.981,1.001v0.859
					c0,0.215,0.01,0.425,0.034,0.571H18.157z M18.079,4.406c-0.425-0.01-0.83,0.083-0.83,0.444c0,0.234,0.151,0.342,0.342,0.342
					c0.239,0,0.415-0.156,0.469-0.327c0.015-0.044,0.02-0.093,0.02-0.132V4.406z"/>
				<path fill="#FFFFFF" d="M19.962,2.511V3.19h0.571v0.449h-0.571v1.05c0,0.288,0.078,0.439,0.308,0.439
					c0.103,0,0.181-0.015,0.234-0.029l0.01,0.459c-0.088,0.034-0.244,0.059-0.435,0.059c-0.22,0-0.405-0.073-0.518-0.195
					c-0.127-0.137-0.186-0.352-0.186-0.664V3.639h-0.342V3.19h0.342V2.653L19.962,2.511z"/>
			</g>
		</g>
	</g>
</g>
</svg>
