<?xml version="1.0" encoding="utf-8"?>
<!-- Generator: Adobe Illustrator 16.0.3, SVG Export Plug-In . SVG Version: 6.00 Build 0)  -->
<!DOCTYPE svg PUBLIC "-//W3C//DTD SVG 1.1//EN" "http://www.w3.org/Graphics/SVG/1.1/DTD/svg11.dtd">
<svg version="1.1" xmlns="http://www.w3.org/2000/svg" xmlns:xlink="http://www.w3.org/1999/xlink" x="0px" y="0px" width="22.68px"
	 height="22.68px" viewBox="0 0 22.68 22.68" enable-background="new 0 0 22.68 22.68" xml:space="preserve">
<g id="BCGRND">
</g>
<g id="BAREVNE_POZADI_IKON">
	<rect x="0.002" fill="#585857" width="22.678" height="22.674"/>
</g>
<g id="IKONY">
	<g>
		<g>
			<g>
				<rect x="0" y="7.77" fill="#FFFFFF" width="22.678" height="0.889"/>
				<g>
					<g>
						<path fill="#FFFFFF" d="M3.672,2.323c0.19-0.039,0.537-0.068,0.874-0.068c0.444,0,0.718,0.054,0.942,0.21
							C5.693,2.587,5.83,2.802,5.83,3.08c0,0.303-0.19,0.581-0.547,0.713v0.01C5.63,3.89,5.947,4.164,5.947,4.618
							c0,0.293-0.127,0.522-0.317,0.679C5.395,5.502,5.01,5.604,4.409,5.604c-0.332,0-0.586-0.024-0.737-0.044V2.323z M4.267,3.622
							h0.308c0.415,0,0.649-0.195,0.649-0.474c0-0.308-0.234-0.449-0.615-0.449c-0.176,0-0.278,0.01-0.342,0.024V3.622z
							 M4.267,5.135C4.345,5.145,4.448,5.15,4.585,5.15c0.386,0,0.728-0.146,0.728-0.552c0-0.381-0.332-0.537-0.747-0.537H4.267
							V5.135z"/>
						<path fill="#FFFFFF" d="M7.053,2.528c0,0.181-0.131,0.322-0.342,0.322c-0.199,0-0.332-0.142-0.332-0.322
							c0-0.186,0.137-0.327,0.338-0.327C6.923,2.201,7.05,2.343,7.053,2.528z M6.415,5.57V3.192H7.02V5.57H6.415z"/>
						<path fill="#FFFFFF" d="M9.878,4.359c0,0.874-0.615,1.265-1.221,1.265c-0.674,0-1.191-0.464-1.191-1.226
							c0-0.781,0.513-1.26,1.23-1.26C9.404,3.138,9.878,3.636,9.878,4.359z M8.086,4.384c0,0.459,0.225,0.806,0.591,0.806
							c0.342,0,0.581-0.337,0.581-0.815c0-0.371-0.166-0.796-0.576-0.796C8.257,3.578,8.086,3.988,8.086,4.384z"/>
						<path fill="#FFFFFF" d="M12.708,5.472c-0.141,0.073-0.453,0.146-0.85,0.146c-1.045,0-1.68-0.654-1.68-1.655
							c0-1.084,0.752-1.738,1.758-1.738c0.396,0,0.68,0.083,0.801,0.146L12.606,2.85c-0.156-0.068-0.371-0.127-0.645-0.127
							c-0.67,0-1.152,0.42-1.152,1.211c0,0.723,0.424,1.187,1.146,1.187c0.244,0,0.498-0.049,0.654-0.122L12.708,5.472z"/>
						<path fill="#FFFFFF" d="M15.334,4.359c0,0.874-0.615,1.265-1.221,1.265c-0.674,0-1.191-0.464-1.191-1.226
							c0-0.781,0.513-1.26,1.23-1.26C14.86,3.138,15.334,3.636,15.334,4.359z M13.542,4.384c0,0.459,0.225,0.806,0.591,0.806
							c0.342,0,0.581-0.337,0.581-0.815c0-0.371-0.166-0.796-0.576-0.796C13.713,3.578,13.542,3.988,13.542,4.384z"/>
						<path fill="#FFFFFF" d="M18.042,4.359c0,0.874-0.615,1.265-1.221,1.265c-0.674,0-1.191-0.464-1.191-1.226
							c0-0.781,0.514-1.26,1.23-1.26C17.569,3.138,18.042,3.636,18.042,4.359z M16.251,4.384c0,0.459,0.225,0.806,0.59,0.806
							c0.342,0,0.582-0.337,0.582-0.815c0-0.371-0.166-0.796-0.576-0.796C16.421,3.578,16.251,3.988,16.251,4.384z"/>
						<path fill="#FFFFFF" d="M18.49,2.103h0.605V5.57H18.49V2.103z"/>
					</g>
				</g>
			</g>
			<g>
				<path fill="#FFFFFF" d="M20.021,21.072H2.656c-0.276,0-0.5-0.224-0.5-0.5V10.387c0-0.276,0.224-0.5,0.5-0.5s0.5,0.224,0.5,0.5
					v9.685h16.365v-9.685c0-0.276,0.224-0.5,0.5-0.5s0.5,0.224,0.5,0.5v10.185C20.521,20.848,20.298,21.072,20.021,21.072z"/>
				<path fill="#FFFFFF" d="M17.184,20.292c-0.009-0.807-0.233-1.629-0.446-1.629H5.939c-0.214,0-0.438,0.822-0.446,1.629
					L4.76,20.285c0.004-0.393,0.077-2.355,1.179-2.355h10.799c1.102,0,1.175,1.962,1.179,2.355L17.184,20.292z"/>
				<path fill="#FFFFFF" d="M17.184,20.292c-0.009-0.807-0.233-1.629-0.446-1.629H5.939c-0.214,0-0.438,0.822-0.446,1.629
					L4.76,20.285c0.004-0.393,0.077-2.355,1.179-2.355h10.799c1.102,0,1.175,1.962,1.179,2.355L17.184,20.292z"/>
			</g>
			<g>
				<path opacity="0.5" fill="#FFFFFF" d="M3.021,11.637c0.131-0.131,0.133-0.344,0.002-0.476c-0.102-0.101-0.244-0.1-0.367-0.044
					v0.564C2.779,11.737,2.922,11.738,3.021,11.637z M3.97,10.69c0.08-0.081,0.094-0.188,0.076-0.292H3.42
					c-0.02,0.104-0.006,0.211,0.076,0.292C3.627,10.821,3.838,10.821,3.97,10.69z M2.656,13.011v0.564
					c0.123,0.056,0.266,0.057,0.367-0.045c0.131-0.131,0.131-0.343-0.002-0.475C2.92,12.955,2.779,12.956,2.656,13.011z
					 M3.496,12.11c-0.131,0.131-0.133,0.343-0.002,0.474c0.133,0.132,0.346,0.131,0.477,0s0.131-0.343,0-0.475
					C3.84,11.979,3.627,11.979,3.496,12.11z M4.916,11.637c0.131-0.131,0.131-0.344,0-0.476c-0.131-0.13-0.342-0.13-0.473,0.001
					s-0.131,0.344-0.002,0.474C4.574,11.768,4.785,11.768,4.916,11.637z M5.865,10.69c0.08-0.081,0.094-0.188,0.074-0.292H5.314
					c-0.02,0.104-0.006,0.212,0.074,0.292C5.519,10.821,5.732,10.821,5.865,10.69z M3.021,15.425c0.131-0.132,0.131-0.344,0-0.475
					c-0.102-0.101-0.242-0.1-0.365-0.045v0.563C2.779,15.525,2.92,15.526,3.021,15.425z M3.496,14.003
					c-0.133,0.131-0.131,0.343,0,0.474s0.342,0.131,0.475,0c0.131-0.131,0.131-0.343,0-0.474S3.627,13.872,3.496,14.003z
					 M4.441,13.056c-0.129,0.131-0.129,0.345,0,0.475c0.133,0.132,0.344,0.131,0.475,0s0.133-0.344,0-0.475
					C4.787,12.925,4.574,12.925,4.441,13.056z M5.863,12.583c0.131-0.131,0.131-0.343,0-0.474s-0.344-0.131-0.475,0
					s-0.131,0.343,0,0.474S5.732,12.714,5.863,12.583z M6.336,11.161c-0.131,0.132-0.131,0.345,0,0.476s0.344,0.131,0.475-0.001
					c0.131-0.13,0.131-0.343,0-0.474S6.467,11.031,6.336,11.161z M7.455,10.761c0.07-0.134,0.133-0.253,0.191-0.364H7.209
					c-0.02,0.104-0.006,0.212,0.074,0.292C7.33,10.737,7.394,10.748,7.455,10.761z M2.656,18.694v0.563
					c0.123,0.055,0.264,0.056,0.365-0.045c0.131-0.131,0.131-0.343,0-0.474C2.92,18.637,2.779,18.639,2.656,18.694z M3.97,18.266
					c0.129-0.131,0.131-0.344,0-0.475c-0.133-0.132-0.346-0.131-0.475,0c-0.133,0.131-0.133,0.344-0.002,0.475
					S3.838,18.397,3.97,18.266z M4.441,16.844c-0.131,0.131-0.131,0.343,0,0.475c0.133,0.131,0.344,0.131,0.475,0
					c0.131-0.132,0.131-0.344,0-0.475S4.574,16.713,4.441,16.844z M5.863,16.371c0.131-0.131,0.131-0.343,0-0.475
					c-0.131-0.131-0.344-0.131-0.475,0c-0.131,0.132-0.131,0.344,0,0.475S5.732,16.502,5.863,16.371z M6.336,15.424
					c0.131,0.132,0.344,0.131,0.475,0c0.059-0.058,0.08-0.134,0.088-0.21c-0.104-0.102-0.191-0.217-0.27-0.339
					c-0.105-0.019-0.213-0.005-0.293,0.076C6.205,15.08,6.205,15.293,6.336,15.424z M2.656,16.8v0.564
					c0.123,0.055,0.266,0.056,0.367-0.045c0.129-0.131,0.129-0.344,0-0.475C2.922,16.743,2.779,16.744,2.656,16.8z M3.97,16.371
					c0.131-0.131,0.129-0.343,0-0.474c-0.133-0.131-0.344-0.131-0.475,0c-0.133,0.132-0.133,0.343,0,0.474
					C3.625,16.502,3.838,16.503,3.97,16.371z M4.443,14.95c-0.131,0.131-0.131,0.343,0,0.475c0.131,0.13,0.342,0.131,0.473,0
					c0.131-0.132,0.131-0.345,0-0.475C4.785,14.819,4.574,14.819,4.443,14.95z M5.388,14.004c-0.131,0.13-0.131,0.342,0,0.474
					c0.131,0.13,0.344,0.13,0.475,0c0.131-0.132,0.131-0.344,0.002-0.475C5.732,13.872,5.519,13.872,5.388,14.004z M6.336,13.056
					c-0.129,0.13-0.127,0.336-0.002,0.468c0.025-0.155,0.066-0.328,0.129-0.52C6.42,13.02,6.371,13.021,6.336,13.056z M9.187,10.694
					c0.133,0.122,0.338,0.124,0.465-0.004c0.08-0.081,0.094-0.188,0.076-0.292H9.103c-0.016,0.078,0.002,0.149,0.045,0.22
					C9.162,10.642,9.174,10.668,9.187,10.694z M3.496,19.686c-0.131,0.13-0.133,0.343,0,0.474c0.131,0.132,0.344,0.131,0.475,0
					s0.131-0.343,0-0.474C3.838,19.555,3.627,19.555,3.496,19.686z M4.443,18.739c-0.131,0.131-0.133,0.344-0.002,0.475
					c0.133,0.131,0.344,0.131,0.475-0.001c0.131-0.13,0.131-0.343,0-0.474S4.574,18.608,4.443,18.739z M5.863,18.266
					c0.131-0.131,0.131-0.343,0-0.475c-0.131-0.131-0.344-0.131-0.475,0.001c-0.131,0.131-0.131,0.343,0,0.474
					S5.732,18.397,5.863,18.266z M6.338,16.844c-0.133,0.131-0.133,0.344-0.002,0.475c0.133,0.131,0.344,0.131,0.475,0
					c0.131-0.132,0.131-0.344,0-0.475S6.469,16.713,6.338,16.844z M7.283,15.898c-0.131,0.131-0.131,0.343,0,0.474
					c0.131,0.132,0.344,0.131,0.475,0s0.131-0.343,0-0.475C7.627,15.766,7.414,15.767,7.283,15.898z M13.439,10.69
					c0.08-0.081,0.094-0.188,0.076-0.292H12.89c-0.02,0.104-0.006,0.211,0.074,0.292C13.097,10.821,13.308,10.821,13.439,10.69z
					 M5.388,19.685c-0.131,0.131-0.131,0.344,0,0.475c0.131,0.132,0.344,0.132,0.477,0c0.129-0.131,0.129-0.344-0.002-0.475
					C5.732,19.555,5.519,19.555,5.388,19.685z M6.336,18.739c-0.131,0.131-0.131,0.344,0,0.474c0.131,0.132,0.344,0.132,0.475,0.001
					s0.131-0.344,0-0.475S6.467,18.608,6.336,18.739z M7.283,17.791c-0.131,0.131-0.131,0.344,0,0.475s0.344,0.131,0.475,0
					s0.131-0.344,0-0.475S7.414,17.659,7.283,17.791z M8.23,16.844c-0.131,0.131-0.131,0.344,0,0.475s0.344,0.131,0.475,0.001
					c0.131-0.132,0.131-0.345,0-0.476S8.361,16.713,8.23,16.844z M15.334,10.69c0.08-0.081,0.094-0.188,0.074-0.292h-0.379
					c0.057,0.105,0.115,0.217,0.182,0.343C15.254,10.724,15.301,10.724,15.334,10.69z M9.177,19.685
					c-0.131,0.131-0.131,0.344,0,0.475s0.344,0.132,0.475,0c0.131-0.131,0.131-0.344,0-0.474
					C9.521,19.554,9.308,19.554,9.177,19.685z M10.123,18.739c-0.129,0.131-0.129,0.344,0.002,0.475s0.342,0.131,0.473,0
					c0.133-0.131,0.133-0.344,0.002-0.475C10.467,18.608,10.256,18.608,10.123,18.739z M11.072,17.791
					c-0.133,0.131-0.131,0.344,0,0.475s0.342,0.131,0.473,0c0.133-0.131,0.131-0.344,0-0.475S11.203,17.659,11.072,17.791z
					 M16.281,13.056c-0.016-0.016-0.039-0.012-0.057-0.024c0.043,0.135,0.08,0.265,0.105,0.382
					C16.381,13.293,16.381,13.155,16.281,13.056z M16.754,12.11c-0.133,0.131-0.131,0.343,0,0.474s0.342,0.132,0.473,0
					c0.133-0.131,0.131-0.343,0-0.474S16.885,11.979,16.754,12.11z M17.699,11.162c-0.131,0.131-0.129,0.344,0.002,0.475
					c0.129,0.131,0.342,0.131,0.475,0c0.131-0.131,0.129-0.344,0-0.475C18.043,11.031,17.83,11.031,17.699,11.162z M19.121,10.69
					c0.08-0.081,0.094-0.188,0.076-0.292h-0.625c-0.02,0.104-0.006,0.212,0.076,0.292C18.777,10.821,18.99,10.821,19.121,10.69z
					 M7.283,19.686c-0.131,0.131-0.131,0.343,0,0.474c0.131,0.132,0.344,0.132,0.475,0c0.131-0.131,0.131-0.343,0-0.474
					C7.627,19.554,7.414,19.555,7.283,19.686z M8.23,18.739c-0.131,0.131-0.131,0.343,0,0.474c0.131,0.132,0.344,0.132,0.475,0
					c0.131-0.131,0.131-0.343,0-0.474S8.361,18.608,8.23,18.739z M9.65,18.266c0.133-0.131,0.133-0.344,0.002-0.475
					c-0.131-0.132-0.344-0.131-0.475,0.001c-0.131,0.13-0.131,0.343,0,0.474S9.521,18.397,9.65,18.266z M15.806,11.162
					c-0.131,0.131-0.133,0.344,0,0.475c0.131,0.131,0.342,0.131,0.475,0c0.131-0.131,0.131-0.344,0-0.475
					C16.148,11.031,15.937,11.031,15.806,11.162z M17.226,10.69c0.082-0.081,0.096-0.188,0.076-0.292h-0.623
					c-0.02,0.104-0.006,0.211,0.074,0.292C16.885,10.821,17.095,10.821,17.226,10.69z M11.072,19.686
					c-0.131,0.13-0.133,0.343,0,0.474c0.131,0.132,0.342,0.131,0.473,0s0.133-0.344,0-0.475
					C11.414,19.554,11.203,19.554,11.072,19.686z M12.017,18.739c-0.131,0.131-0.131,0.343,0,0.474c0.133,0.132,0.344,0.132,0.475,0
					c0.131-0.131,0.131-0.343,0-0.474S12.15,18.608,12.017,18.739z M12.965,17.791c-0.131,0.131-0.131,0.344,0,0.475
					s0.344,0.131,0.475,0s0.131-0.343,0-0.474C13.308,17.66,13.095,17.66,12.965,17.791z M13.912,16.844
					c-0.131,0.131-0.131,0.343,0,0.475c0.131,0.131,0.344,0.131,0.475,0s0.131-0.344,0-0.475S14.043,16.713,13.912,16.844z
					 M14.859,15.897c-0.131,0.132-0.131,0.344,0,0.475s0.344,0.131,0.475,0s0.131-0.343,0-0.475
					C15.203,15.766,14.99,15.767,14.859,15.897z M16.058,14.858c-0.092,0.145-0.199,0.277-0.324,0.394
					c0.014,0.062,0.023,0.125,0.072,0.173c0.131,0.131,0.342,0.131,0.475,0c0.131-0.132,0.131-0.344,0-0.475
					C16.219,14.889,16.138,14.862,16.058,14.858z M16.754,14.003c-0.131,0.131-0.131,0.343,0,0.474s0.342,0.131,0.473,0
					s0.133-0.343,0-0.474C17.095,13.872,16.885,13.872,16.754,14.003z M18.174,13.531c0.131-0.131,0.131-0.343,0-0.475
					c-0.131-0.131-0.344-0.131-0.475,0c-0.131,0.132-0.131,0.344,0,0.475C17.83,13.662,18.043,13.662,18.174,13.531z M18.648,12.11
					c-0.133,0.131-0.133,0.343,0,0.474c0.131,0.131,0.342,0.131,0.473,0s0.131-0.343,0-0.474S18.779,11.979,18.648,12.11z
					 M19.594,11.162c-0.131,0.131-0.131,0.344,0,0.475c0.119,0.118,0.297,0.114,0.428,0.02v-0.514
					C19.89,11.048,19.713,11.044,19.594,11.162z M12.965,19.686c-0.131,0.131-0.131,0.343,0,0.474s0.344,0.132,0.475,0
					c0.131-0.131,0.131-0.344,0-0.474C13.308,19.554,13.097,19.555,12.965,19.686z M13.912,18.739c-0.131,0.131-0.131,0.344,0,0.475
					s0.344,0.131,0.475-0.001c0.131-0.13,0.131-0.343,0-0.474S14.043,18.608,13.912,18.739z M14.859,17.792
					c-0.131,0.131-0.131,0.343,0,0.474s0.344,0.131,0.475,0s0.131-0.344,0-0.474C15.203,17.66,14.99,17.66,14.859,17.792z
					 M15.806,16.844c-0.131,0.131-0.131,0.343,0,0.475c0.131,0.13,0.344,0.131,0.475,0s0.131-0.344,0-0.475
					S15.937,16.713,15.806,16.844z M16.754,15.898c-0.131,0.132-0.131,0.343,0,0.474s0.342,0.131,0.473,0
					c0.133-0.131,0.131-0.343,0-0.474S16.885,15.767,16.754,15.898z M17.701,14.95c-0.131,0.131-0.133,0.343,0,0.475
					c0.129,0.13,0.342,0.131,0.475-0.001c0.129-0.13,0.129-0.344,0-0.474C18.043,14.819,17.83,14.82,17.701,14.95z M18.648,14.004
					c-0.133,0.131-0.133,0.342,0,0.474c0.129,0.13,0.342,0.131,0.473,0c0.131-0.132,0.131-0.344,0-0.474
					C18.99,13.872,18.779,13.872,18.648,14.004z M19.594,13.056c-0.131,0.132-0.131,0.344,0,0.475
					c0.119,0.118,0.297,0.115,0.428,0.02v-0.514C19.89,12.942,19.713,12.938,19.594,13.056z M16.754,19.686
					c-0.131,0.131-0.131,0.343,0,0.474s0.342,0.132,0.473,0c0.133-0.131,0.131-0.344,0-0.474
					C17.095,19.554,16.885,19.554,16.754,19.686z M17.701,18.739c-0.131,0.131-0.133,0.343,0,0.474c0.129,0.131,0.344,0.132,0.475,0
					c0.129-0.13,0.129-0.343,0-0.474C18.043,18.608,17.83,18.608,17.701,18.739z M18.648,17.792c-0.133,0.131-0.133,0.343,0,0.474
					c0.129,0.131,0.342,0.131,0.473,0s0.131-0.344,0-0.474C18.99,17.66,18.779,17.66,18.648,17.792z M19.594,16.844
					c-0.131,0.131-0.131,0.343,0,0.475c0.119,0.117,0.297,0.114,0.428,0.02v-0.514C19.89,16.73,19.713,16.726,19.594,16.844z
					 M14.859,19.685c-0.131,0.131-0.131,0.344,0,0.475c0.131,0.132,0.344,0.131,0.475,0s0.131-0.343-0.002-0.474
					C15.203,19.555,14.99,19.554,14.859,19.685z M15.806,18.739c-0.133,0.131-0.131,0.344,0,0.474c0.131,0.132,0.342,0.132,0.475,0
					c0.131-0.131,0.131-0.343,0-0.474S15.937,18.608,15.806,18.739z M16.754,17.791c-0.131,0.131-0.131,0.344,0,0.475
					s0.342,0.131,0.473,0s0.133-0.344,0-0.475C17.097,17.66,16.885,17.66,16.754,17.791z M18.174,17.319
					c0.131-0.131,0.131-0.344,0-0.475s-0.344-0.131-0.475,0s-0.129,0.344,0,0.475C17.83,17.449,18.043,17.449,18.174,17.319z
					 M18.648,15.897c-0.133,0.132-0.131,0.344,0,0.475s0.342,0.131,0.473,0s0.131-0.343,0-0.475
					C18.99,15.767,18.777,15.767,18.648,15.897z M19.594,14.95c-0.131,0.131-0.131,0.344,0,0.475
					c0.119,0.118,0.297,0.114,0.428,0.02v-0.514C19.89,14.836,19.713,14.832,19.594,14.95z M18.648,19.685
					c-0.133,0.131-0.131,0.344,0,0.475s0.342,0.131,0.473,0s0.131-0.344,0-0.475S18.777,19.554,18.648,19.685z M19.594,18.739
					c-0.131,0.131-0.131,0.344,0,0.474c0.119,0.119,0.297,0.115,0.428,0.02v-0.513C19.89,18.624,19.713,18.62,19.594,18.739z"/>
				<g>
					<path fill="none" d="M10.285,13.364c-0.172,0.258-0.361,0.635-0.43,1.059c-0.035,0.209-0.043,0.43-0.014,0.635
						c0.025,0.207,0.113,0.391,0.188,0.537c0.188,0.29,0.408,0.36,0.398,0.365c0,0-0.016-0.055-0.047-0.136
						c-0.045-0.073-0.053-0.204-0.088-0.331c-0.045-0.27-0.004-0.625,0.055-0.988c0.063-0.363,0.139-0.742,0.197-1.034
						c0.057-0.292,0.082-0.504,0.082-0.504S10.459,13.104,10.285,13.364z"/>
					<path fill="none" d="M7.631,12.695c-0.139,0.175-0.289,0.439-0.336,0.745c-0.033,0.146-0.014,0.316-0.002,0.459
						c0.025,0.15,0.113,0.283,0.156,0.387c0.074,0.1,0.18,0.152,0.227,0.192c0.057,0.037,0.092,0.05,0.092,0.05
						s-0.023-0.177-0.055-0.343c0.006-0.195,0.029-0.416,0.076-0.665c0.02-0.126,0.041-0.253,0.059-0.372
						c0.02-0.122,0.021-0.245,0.041-0.346c0.02-0.208,0.018-0.37,0.018-0.37S7.769,12.516,7.631,12.695z"/>
					<path fill="#FFFFFF" d="M11.338,9.801c0,0-0.979,1.743-1.631,3.267c-0.326,0.76-0.572,1.467-0.572,1.873
						c0,0.059,0.014,0.115,0.018,0.172c0.09,1.136,1.025,2.035,2.186,2.035c1.162,0,2.096-0.9,2.184-2.036
						c0.006-0.058,0.018-0.113,0.018-0.171c0-0.406-0.246-1.112-0.57-1.872C12.316,11.545,11.338,9.801,11.338,9.801z
						 M10.545,13.471c-0.059,0.292-0.135,0.671-0.197,1.034c-0.059,0.363-0.1,0.718-0.055,0.988
						c0.035,0.126,0.043,0.257,0.088,0.331c0.031,0.081,0.047,0.136,0.047,0.136c0.01-0.005-0.211-0.075-0.398-0.365
						c-0.074-0.146-0.162-0.33-0.188-0.537c-0.029-0.205-0.021-0.426,0.014-0.635c0.068-0.424,0.258-0.801,0.43-1.059
						c0.174-0.259,0.342-0.396,0.342-0.396S10.601,13.179,10.545,13.471z"/>
					<path opacity="0.5" fill="#FFFFFF" d="M14.336,10.206c0,0-0.652,1.164-1.107,2.211c0.441,0.979,0.811,1.963,0.811,2.522
						c0,0.127-0.02,0.248-0.037,0.37c0.107,0.024,0.219,0.039,0.334,0.039c0.855,0,1.543-0.692,1.543-1.544
						C15.879,12.95,14.336,10.206,14.336,10.206z"/>
					<path opacity="0.5" fill="#FFFFFF" d="M9.447,12.416c-0.455-1.047-1.107-2.21-1.107-2.21s-1.541,2.744-1.541,3.598
						c0,0.852,0.688,1.544,1.541,1.544c0.115,0,0.225-0.014,0.332-0.038c-0.016-0.122-0.037-0.244-0.037-0.371
						C8.635,14.381,9.006,13.395,9.447,12.416z M7.888,12.803c-0.02,0.102-0.021,0.225-0.041,0.346
						c-0.018,0.119-0.039,0.245-0.059,0.372c-0.047,0.249-0.07,0.469-0.076,0.665c0.031,0.167,0.055,0.343,0.055,0.343
						s-0.035-0.013-0.092-0.05c-0.047-0.041-0.152-0.092-0.227-0.192c-0.043-0.104-0.131-0.237-0.156-0.387
						c-0.012-0.143-0.031-0.313,0.002-0.459c0.047-0.306,0.197-0.57,0.336-0.745c0.139-0.178,0.275-0.261,0.275-0.261
						S7.908,12.595,7.888,12.803z"/>
				</g>
			</g>
		</g>
	</g>
</g>
</svg>
