<?xml version="1.0" encoding="utf-8"?>
<!-- Generator: Adobe Illustrator 16.0.3, SVG Export Plug-In . SVG Version: 6.00 Build 0)  -->
<!DOCTYPE svg PUBLIC "-//W3C//DTD SVG 1.1//EN" "http://www.w3.org/Graphics/SVG/1.1/DTD/svg11.dtd">
<svg version="1.1" xmlns="http://www.w3.org/2000/svg" xmlns:xlink="http://www.w3.org/1999/xlink" x="0px" y="0px" width="22.68px"
	 height="22.68px" viewBox="0 0 22.68 22.68" enable-background="new 0 0 22.68 22.68" xml:space="preserve">
<g id="BCGRND">
</g>
<g id="BAREVNE_POZADI_IKON">
	<rect x="0.002" fill="#585857" width="22.676" height="22.68"/>
</g>
<g id="IKONY">
	<g>
		<g>
			<g>
				<g>
					<rect x="0" y="7.77" fill="#FFFFFF" width="22.678" height="0.889"/>
				</g>
			</g>
			<g>
				<path fill="none" d="M16.754,19.676c0.132-0.132,0.343-0.132,0.474,0c0.024,0.025,0.022,0.061,0.038,0.09
					c-0.072-0.613-0.252-1.22-0.527-1.22H5.94c-0.26,0-0.435,0.539-0.514,1.114c0.131-0.102,0.317-0.105,0.438,0.015
					c0.109,0.109,0.106,0.269,0.032,0.397h1.355c-0.074-0.128-0.078-0.287,0.032-0.396c0.131-0.131,0.343-0.132,0.474,0
					c0.11,0.109,0.106,0.268,0.032,0.396h1.355c-0.073-0.128-0.077-0.288,0.032-0.397c0.131-0.131,0.344-0.131,0.475,0.001
					c0.109,0.108,0.105,0.268,0.032,0.396h1.355c-0.074-0.128-0.077-0.288,0.032-0.396c0.131-0.132,0.343-0.132,0.474-0.001
					c0.11,0.109,0.106,0.269,0.032,0.397h1.355c-0.073-0.128-0.077-0.287,0.032-0.396c0.132-0.131,0.343-0.132,0.475,0
					c0.108,0.108,0.105,0.268,0.032,0.396h1.355c-0.074-0.128-0.077-0.288,0.032-0.397c0.131-0.131,0.343-0.13,0.473,0.001
					c0.11,0.109,0.106,0.268,0.033,0.396h1.355C16.649,19.944,16.645,19.785,16.754,19.676z M6.811,19.203
					c-0.131,0.131-0.343,0.131-0.474-0.001c-0.131-0.13-0.132-0.343,0-0.474c0.131-0.131,0.343-0.131,0.474,0
					C6.943,18.86,6.943,19.073,6.811,19.203z M8.705,19.202c-0.131,0.132-0.343,0.132-0.474,0c-0.132-0.131-0.132-0.343,0-0.474
					c0.131-0.131,0.343-0.131,0.474,0S8.836,19.072,8.705,19.202z M10.599,19.203c-0.131,0.131-0.343,0.131-0.474,0
					s-0.131-0.344-0.001-0.475c0.132-0.131,0.344-0.131,0.476,0C10.731,18.86,10.731,19.073,10.599,19.203z M12.493,19.202
					c-0.131,0.132-0.343,0.132-0.475,0c-0.131-0.131-0.131-0.343,0-0.474c0.132-0.131,0.344-0.131,0.475,0
					S12.624,19.072,12.493,19.202z M14.388,19.202c-0.131,0.132-0.345,0.132-0.475,0.001c-0.132-0.131-0.131-0.344,0-0.475
					s0.343-0.131,0.475,0C14.518,18.86,14.519,19.073,14.388,19.202z M16.281,19.202c-0.132,0.132-0.344,0.132-0.475,0
					c-0.131-0.13-0.132-0.343,0-0.474c0.131-0.131,0.344-0.131,0.475,0S16.412,19.072,16.281,19.202z"/>
				<path fill="none" d="M17.26,20.072h0.032c-0.002-0.023-0.002-0.045-0.003-0.069C17.281,20.027,17.273,20.05,17.26,20.072z"/>
				<path fill="#FFFFFF" d="M15.089,12.005c0.006,0,0.013,0.001,0.02,0.001C15.102,12.006,15.096,12.005,15.089,12.005z"/>
				<path fill="#FFFFFF" d="M15.264,15.858c-0.119,0.017-0.239,0.034-0.359,0.034c-0.016,0-0.029-0.003-0.044-0.003
					c-0.883-0.018-1.413-0.549-1.486-1.394c-0.005-0.066-0.015-0.13-0.015-0.2c0-0.115,0.011-0.221,0.025-0.324
					c0.121-0.852,0.721-1.306,1.523-1.306c0.363,0,0.658,0.08,0.869,0.173l0.17-0.645c-0.139-0.072-0.434-0.159-0.839-0.187
					c-0.007,0-0.014,0-0.02-0.001c-0.07-0.004-0.136-0.011-0.212-0.011c-0.507,0-0.967,0.124-1.344,0.354
					c-0.14,0.085-0.265,0.188-0.379,0.303c-0.404,0.401-0.648,0.971-0.648,1.681c0,0.626,0.189,1.145,0.524,1.527
					c0.132,0.15,0.282,0.28,0.458,0.384c0.349,0.206,0.776,0.322,1.279,0.322c0.537,0,0.957-0.104,1.146-0.197l-0.131-0.637
					C15.648,15.791,15.461,15.83,15.264,15.858z"/>
				<path fill="#FFFFFF" d="M17.266,19.766c0.009,0.079,0.018,0.158,0.023,0.236C17.314,19.92,17.306,19.844,17.266,19.766z"/>
				<path fill="#FFFFFF" d="M17.653,19.086c-0.012-0.048-0.026-0.094-0.041-0.141C17.608,18.996,17.633,19.038,17.653,19.086z"/>
				<path fill="#FFFFFF" d="M17.653,19.086c-0.02-0.048-0.045-0.09-0.041-0.141c-0.084-0.275-0.211-0.52-0.39-0.687
					c-0.132-0.123-0.284-0.212-0.483-0.212H5.94c-0.209,0-0.368,0.095-0.503,0.229c-0.423,0.42-0.53,1.332-0.553,1.796h0.502
					c0.008-0.135,0.021-0.273,0.04-0.412c0.079-0.575,0.254-1.114,0.514-1.114h10.799c0.275,0,0.455,0.606,0.527,1.22
					c0.04,0.078,0.048,0.153,0.023,0.236c0.001,0.024,0.001,0.046,0.003,0.069h0.502C17.781,19.825,17.745,19.449,17.653,19.086z"/>
				<path fill="#FFFFFF" d="M20.022,9.887c-0.089,0-0.168,0.03-0.24,0.07c-0.152,0.085-0.26,0.243-0.26,0.43v9.685H3.156v-9.685
					c0-0.187-0.107-0.344-0.26-0.43c-0.072-0.041-0.151-0.07-0.24-0.07c-0.276,0-0.5,0.224-0.5,0.5v10.185
					c0,0.276,0.224,0.5,0.5,0.5h17.365c0.276,0,0.5-0.224,0.5-0.5V10.387C20.522,10.111,20.298,9.887,20.022,9.887z"/>
				<path opacity="0.5" fill="#FFFFFF" d="M16.754,13.993c-0.131,0.131-0.131,0.343,0,0.474c0.132,0.131,0.343,0.131,0.474,0
					s0.132-0.343,0-0.474C17.097,13.863,16.885,13.863,16.754,13.993z M10.599,17.309c0.132-0.132,0.132-0.344,0-0.475
					c-0.131-0.131-0.343-0.131-0.474,0s-0.131,0.343,0,0.475C10.256,17.44,10.468,17.44,10.599,17.309z M4.444,14.941
					c-0.131,0.131-0.131,0.343,0,0.475c0.131,0.13,0.343,0.131,0.474,0c0.131-0.132,0.131-0.345,0-0.475
					C4.786,14.809,4.574,14.809,4.444,14.941z M5.426,19.66c-0.02,0.138-0.032,0.276-0.04,0.412h0.511
					c0.074-0.128,0.077-0.288-0.032-0.397C5.743,19.555,5.557,19.558,5.426,19.66z M5.39,17.782c-0.131,0.131-0.131,0.343,0,0.474
					c0.013,0.013,0.032,0.009,0.047,0.02c0.135-0.134,0.294-0.229,0.503-0.229h0.012c0.008-0.095-0.014-0.191-0.087-0.265
					C5.734,17.651,5.521,17.651,5.39,17.782z M4.443,13.046c-0.13,0.131-0.13,0.345,0,0.475c0.132,0.132,0.344,0.131,0.475,0
					s0.132-0.344,0-0.475C4.787,12.915,4.574,12.915,4.443,13.046z M3.496,12.1c-0.131,0.131-0.132,0.343-0.001,0.474
					c0.132,0.132,0.345,0.131,0.476,0s0.131-0.343,0-0.475C3.84,11.969,3.627,11.969,3.496,12.1z M3.496,10.205
					c-0.132,0.131-0.132,0.343,0,0.475c0.131,0.131,0.343,0.131,0.475,0c0.131-0.132,0.131-0.344,0-0.475
					C3.839,10.074,3.627,10.074,3.496,10.205z M4.443,16.834c-0.131,0.131-0.131,0.343,0,0.475c0.132,0.131,0.343,0.131,0.475,0
					c0.131-0.132,0.131-0.344,0-0.475C4.785,16.703,4.574,16.703,4.443,16.834z M4.444,18.729c-0.131,0.131-0.132,0.344-0.001,0.475
					c0.132,0.131,0.344,0.131,0.475-0.001c0.131-0.13,0.131-0.343,0-0.474S4.574,18.598,4.444,18.729z M6.338,16.834
					c-0.132,0.131-0.132,0.344-0.001,0.475c0.132,0.131,0.343,0.131,0.474,0c0.132-0.132,0.132-0.344,0-0.475
					C6.68,16.703,6.469,16.703,6.338,16.834z M7.284,19.676c-0.11,0.109-0.106,0.268-0.032,0.396H7.79
					c0.074-0.128,0.078-0.287-0.032-0.396C7.627,19.544,7.415,19.545,7.284,19.676z M6.337,11.152c-0.131,0.132-0.131,0.345,0,0.476
					s0.343,0.131,0.474-0.001c0.132-0.13,0.132-0.343,0-0.474C6.68,11.022,6.468,11.022,6.337,11.152z M7.284,10.205
					c-0.132,0.131-0.131,0.344,0,0.475s0.343,0.131,0.474,0c0.132-0.132,0.132-0.344,0-0.475
					C7.628,10.074,7.415,10.074,7.284,10.205z M7.284,17.781c-0.073,0.073-0.096,0.169-0.087,0.265h0.648
					c0.008-0.096-0.014-0.192-0.088-0.265C7.628,17.651,7.415,17.65,7.284,17.781z M6.337,15.414
					c0.007,0.007,0.017,0.004,0.024,0.01c-0.03-0.116-0.055-0.238-0.074-0.365C6.239,15.18,6.239,15.316,6.337,15.414z M5.39,15.887
					c-0.131,0.132-0.131,0.344,0,0.475s0.344,0.131,0.475,0s0.131-0.343,0-0.475C5.734,15.756,5.521,15.756,5.39,15.887z
					 M6.337,13.046c-0.124,0.125-0.122,0.319-0.01,0.45c0.038-0.181,0.088-0.351,0.15-0.508C6.429,13.004,6.376,13.008,6.337,13.046
					z M5.39,13.994c-0.131,0.13-0.131,0.342,0,0.474c0.131,0.13,0.344,0.13,0.475,0c0.131-0.132,0.131-0.344,0.001-0.475
					C5.734,13.863,5.521,13.863,5.39,13.994z M6.337,18.729c-0.132,0.131-0.131,0.344,0,0.474c0.131,0.132,0.343,0.132,0.474,0.001
					c0.132-0.131,0.132-0.344,0-0.475C6.68,18.598,6.468,18.598,6.337,18.729z M3.496,13.993c-0.132,0.131-0.131,0.343,0,0.474
					s0.343,0.131,0.475,0c0.131-0.131,0.131-0.343,0-0.474S3.627,13.863,3.496,13.993z M5.865,10.68
					c0.13-0.131,0.13-0.344-0.002-0.475c-0.13-0.131-0.343-0.131-0.473,0c-0.132,0.131-0.132,0.344-0.001,0.475
					S5.734,10.811,5.865,10.68z M13.943,11.639c0.132,0.108,0.322,0.111,0.445-0.012c0.025-0.026,0.022-0.063,0.038-0.093
					c0.064-0.126,0.067-0.276-0.038-0.381c-0.131-0.131-0.345-0.131-0.475,0c-0.132,0.131-0.131,0.344,0,0.475
					C13.921,11.635,13.934,11.632,13.943,11.639z M14.387,13.521c0.079-0.078,0.095-0.182,0.08-0.283
					c-0.18,0.066-0.307,0.191-0.408,0.344C14.174,13.616,14.296,13.612,14.387,13.521z M13.913,17.309
					c0.131,0.131,0.343,0.131,0.475,0c0.073-0.073,0.095-0.17,0.086-0.267c-0.213-0.017-0.414-0.052-0.604-0.104
					C13.812,17.062,13.811,17.206,13.913,17.309z M12.493,11.153c-0.131-0.131-0.343-0.131-0.475,0
					c-0.032,0.032-0.032,0.078-0.049,0.118c0.217,0.066,0.394,0.184,0.529,0.342C12.618,11.481,12.62,11.28,12.493,11.153z
					 M3.496,15.888c-0.132,0.132-0.132,0.343,0,0.474c0.13,0.131,0.343,0.132,0.475,0c0.131-0.131,0.13-0.343,0-0.474
					C3.839,15.757,3.627,15.757,3.496,15.888z M14.432,15.308c0.056-0.124,0.058-0.267-0.044-0.367
					c-0.11-0.111-0.271-0.107-0.399-0.032C14.075,15.079,14.215,15.223,14.432,15.308z M15.807,11.627
					c0.076,0.076,0.176,0.095,0.275,0.083c0.071-0.009,0.144-0.028,0.199-0.083c0.131-0.131,0.131-0.344,0-0.475
					c-0.132-0.131-0.344-0.131-0.475,0c-0.127,0.127-0.126,0.328-0.006,0.459C15.805,11.616,15.803,11.623,15.807,11.627z
					 M16.281,13.046c-0.011-0.011-0.026-0.007-0.038-0.016c-0.132-0.101-0.316-0.104-0.437,0.016
					c-0.09,0.089-0.096,0.209-0.063,0.323c0.015,0.053,0.021,0.11,0.063,0.152c0.131,0.131,0.344,0.132,0.475,0
					C16.412,13.391,16.412,13.177,16.281,13.046z M12.11,13.558c0.022-0.091,0.047-0.182,0.077-0.269
					c-0.071,0.039-0.141,0.076-0.222,0.101c0.016,0.045,0.018,0.095,0.054,0.131C12.044,13.546,12.079,13.543,12.11,13.558z
					 M15.807,14.941c-0.076,0.076-0.096,0.175-0.084,0.274c0.01,0.072,0.028,0.145,0.084,0.201c0.117,0.117,0.294,0.113,0.426,0.02
					c0.015-0.01,0.035-0.006,0.049-0.02c0.131-0.132,0.131-0.344,0-0.475C16.15,14.809,15.938,14.809,15.807,14.941z M4.917,11.627
					c0.131-0.131,0.131-0.344,0-0.476c-0.131-0.13-0.343-0.13-0.474,0.001s-0.131,0.344-0.001,0.474
					C4.574,11.758,4.786,11.758,4.917,11.627z M5.865,12.573c0.131-0.131,0.131-0.343,0-0.474s-0.344-0.131-0.475,0
					s-0.131,0.343,0,0.474S5.734,12.704,5.865,12.573z M3.496,19.676c-0.109,0.108-0.106,0.268-0.032,0.396h0.539
					c0.073-0.128,0.077-0.287-0.032-0.396C3.839,19.545,3.627,19.545,3.496,19.676z M3.496,17.781
					c-0.132,0.131-0.132,0.344-0.001,0.475s0.344,0.131,0.476,0c0.13-0.131,0.131-0.344,0-0.475
					C3.839,17.65,3.626,17.651,3.496,17.781z M11.546,10.68c0.131-0.132,0.131-0.344,0-0.475c-0.132-0.131-0.343-0.131-0.474,0
					s-0.131,0.343,0,0.475C11.203,10.811,11.414,10.811,11.546,10.68z M8.232,18.729c-0.132,0.131-0.132,0.343,0,0.474
					c0.131,0.132,0.343,0.132,0.474,0c0.131-0.131,0.131-0.343,0-0.474S8.363,18.598,8.232,18.729z M10.599,11.626
					c0.132-0.13,0.132-0.343,0-0.475c-0.131-0.131-0.343-0.13-0.474,0.001s-0.131,0.343,0,0.474
					C10.256,11.758,10.468,11.758,10.599,11.626z M12.221,15.499c-0.072-0.179-0.129-0.369-0.165-0.574
					c-0.011,0.009-0.026,0.005-0.037,0.016c-0.131,0.131-0.131,0.343,0,0.475C12.074,15.471,12.149,15.49,12.221,15.499z
					 M10.125,13.046c-0.008,0.008-0.005,0.02-0.012,0.028c0.051,0.153,0.092,0.317,0.121,0.492c0.123,0.054,0.264,0.055,0.364-0.046
					c0.132-0.131,0.132-0.343,0-0.475C10.468,12.915,10.256,12.915,10.125,13.046z M17.228,19.676c-0.131-0.132-0.342-0.132-0.474,0
					c-0.109,0.109-0.105,0.268-0.032,0.396h0.538c0.013-0.022,0.021-0.045,0.029-0.069c-0.006-0.078-0.015-0.157-0.023-0.236
					C17.25,19.737,17.252,19.701,17.228,19.676z M8.705,17.31c0.086-0.087,0.095-0.204,0.066-0.314
					c-0.166,0.043-0.34,0.071-0.529,0.071c-0.036,0-0.068-0.009-0.104-0.011c-0.004,0.092,0.021,0.184,0.092,0.253
					C8.362,17.44,8.574,17.44,8.705,17.31z M17.701,18.729c-0.06,0.06-0.085,0.138-0.09,0.216c0.015,0.047,0.029,0.093,0.041,0.141
					c0.017,0.04,0.017,0.084,0.049,0.116c0.13,0.131,0.344,0.132,0.475,0c0.13-0.13,0.13-0.343,0-0.474
					C18.044,18.598,17.831,18.598,17.701,18.729z M18.175,13.521c0.131-0.131,0.131-0.343,0-0.475c-0.131-0.131-0.344-0.131-0.475,0
					c-0.131,0.132-0.131,0.344,0,0.475C17.831,13.653,18.044,13.653,18.175,13.521z M16.754,10.205
					c-0.131,0.131-0.131,0.343,0,0.475c0.132,0.131,0.343,0.131,0.474,0c0.132-0.132,0.132-0.344,0-0.475
					C17.097,10.074,16.886,10.074,16.754,10.205z M16.754,17.781c-0.073,0.073-0.095,0.169-0.086,0.265h0.07
					c0.199,0,0.352,0.089,0.483,0.212c0.002-0.001,0.004-0.001,0.006-0.002c0.131-0.131,0.132-0.344,0-0.475
					C17.098,17.651,16.885,17.651,16.754,17.781z M16.754,15.888c-0.131,0.132-0.131,0.343,0,0.474s0.343,0.131,0.474,0
					c0.132-0.131,0.131-0.343,0-0.474S16.886,15.757,16.754,15.888z M16.185,16.794l-0.051,0.025
					c-0.09,0.044-0.222,0.087-0.373,0.126c-0.053,0.123-0.054,0.263,0.047,0.363c0.13,0.13,0.343,0.131,0.474,0
					s0.131-0.344,0.001-0.475C16.255,16.807,16.217,16.81,16.185,16.794z M14.861,17.782c-0.073,0.073-0.095,0.169-0.087,0.264
					h0.647c0.009-0.096-0.014-0.192-0.087-0.264C15.203,17.651,14.991,17.651,14.861,17.782z M14.86,13.993
					c-0.131,0.131-0.13,0.343,0.001,0.475c0.131,0.13,0.343,0.131,0.474,0c0.131-0.132,0.131-0.344,0-0.474
					C15.203,13.863,14.991,13.863,14.86,13.993z M15.807,18.729c-0.132,0.131-0.131,0.344,0,0.474c0.131,0.132,0.343,0.132,0.475,0
					c0.131-0.131,0.131-0.343,0-0.474S15.938,18.598,15.807,18.729z M18.649,12.1c-0.132,0.131-0.132,0.343,0,0.474
					c0.131,0.131,0.343,0.131,0.474,0s0.131-0.343,0-0.474S18.78,11.969,18.649,12.1z M18.649,15.887
					c-0.132,0.132-0.131,0.344,0,0.475s0.343,0.131,0.474,0s0.131-0.343,0-0.475C18.991,15.757,18.779,15.757,18.649,15.887z
					 M18.649,13.994c-0.132,0.131-0.132,0.342,0,0.474c0.13,0.13,0.343,0.131,0.474,0c0.131-0.132,0.131-0.344,0-0.474
					C18.991,13.863,18.78,13.863,18.649,13.994z M18.649,17.782c-0.132,0.131-0.132,0.343,0,0.474c0.13,0.131,0.343,0.131,0.474,0
					s0.131-0.344,0-0.474C18.991,17.651,18.78,17.651,18.649,17.782z M14.861,19.675c-0.109,0.109-0.106,0.269-0.032,0.397h0.538
					c0.073-0.128,0.077-0.287-0.033-0.396C15.203,19.545,14.991,19.544,14.861,19.675z M18.649,19.675
					c-0.11,0.109-0.105,0.269-0.032,0.397h0.538c0.073-0.128,0.077-0.288-0.032-0.397C18.991,19.544,18.779,19.544,18.649,19.675z
					 M17.701,14.941c-0.131,0.131-0.132,0.343,0,0.475c0.13,0.13,0.343,0.131,0.475-0.001c0.13-0.13,0.13-0.344,0-0.474
					C18.044,14.809,17.831,14.81,17.701,14.941z M17.7,11.153c-0.131,0.131-0.13,0.344,0.001,0.475c0.13,0.131,0.343,0.131,0.475,0
					c0.131-0.131,0.13-0.344,0-0.475C18.044,11.022,17.831,11.021,17.7,11.153z M19.122,10.68c0.131-0.131,0.131-0.344,0-0.475
					s-0.344-0.131-0.475,0s-0.131,0.344,0.001,0.475C18.779,10.811,18.991,10.811,19.122,10.68z M18.175,17.309
					c0.131-0.131,0.131-0.344,0-0.475s-0.344-0.131-0.475,0s-0.13,0.344,0,0.475C17.831,17.44,18.044,17.44,18.175,17.309z
					 M16.754,12.1c-0.132,0.131-0.131,0.343,0,0.474s0.343,0.132,0.474,0c0.132-0.131,0.131-0.343,0-0.474
					S16.885,11.969,16.754,12.1z M11.073,17.781c-0.074,0.073-0.096,0.169-0.087,0.265h0.647c0.009-0.096-0.014-0.192-0.087-0.265
					C11.415,17.651,11.203,17.65,11.073,17.781z M10.273,14.879c-0.021,0.198-0.055,0.383-0.1,0.557
					c0.132,0.093,0.309,0.098,0.427-0.02c0.131-0.131,0.131-0.344-0.001-0.475C10.509,14.851,10.387,14.845,10.273,14.879z
					 M10.124,18.729c-0.13,0.131-0.13,0.344,0.001,0.475s0.343,0.131,0.474,0c0.132-0.131,0.132-0.344,0.001-0.475
					C10.468,18.598,10.256,18.598,10.124,18.729z M11.073,19.676c-0.109,0.108-0.106,0.268-0.032,0.396h0.538
					c0.074-0.128,0.078-0.288-0.032-0.397C11.415,19.544,11.203,19.544,11.073,19.676z M9.178,10.205
					c-0.131,0.131-0.131,0.343,0,0.475c0.131,0.13,0.344,0.131,0.475,0s0.131-0.344,0-0.475S9.309,10.074,9.178,10.205z
					 M9.395,12.01c0.128,0.097,0.247,0.207,0.35,0.34c0.004-0.09-0.023-0.181-0.093-0.25C9.58,12.029,9.488,12.004,9.395,12.01z
					 M9.178,19.675c-0.109,0.109-0.105,0.269-0.032,0.397h0.539c0.073-0.128,0.077-0.288-0.032-0.396
					C9.522,19.544,9.309,19.544,9.178,19.675z M8.232,11.153c-0.132,0.131-0.132,0.344,0,0.475c0.017,0.017,0.042,0.013,0.062,0.026
					c0.002,0,0.003,0,0.004,0c0.097,0,0.185,0.017,0.275,0.029c0.046-0.016,0.096-0.018,0.133-0.055
					c0.131-0.131,0.131-0.344,0-0.475S8.363,11.022,8.232,11.153z M9.178,17.782c-0.073,0.072-0.096,0.168-0.087,0.264h0.647
					c0.01-0.096-0.013-0.192-0.086-0.265C9.522,17.65,9.309,17.651,9.178,17.782z M12.019,18.729c-0.131,0.131-0.131,0.343,0,0.474
					c0.132,0.132,0.344,0.132,0.475,0c0.131-0.131,0.131-0.343,0-0.474S12.151,18.598,12.019,18.729z M12.966,12.1
					c-0.024,0.025-0.021,0.061-0.037,0.09c0.062-0.054,0.125-0.106,0.192-0.154C13.067,12.05,13.009,12.057,12.966,12.1z
					 M12.966,10.205c-0.131,0.131-0.131,0.343,0,0.475c0.132,0.131,0.343,0.131,0.475,0c0.13-0.131,0.131-0.344,0-0.475
					C13.309,10.074,13.097,10.074,12.966,10.205z M13.913,18.729c-0.131,0.131-0.132,0.344,0,0.475
					c0.13,0.131,0.344,0.131,0.475-0.001c0.131-0.13,0.13-0.343,0-0.474C14.256,18.598,14.044,18.598,13.913,18.729z M11.073,15.887
					c-0.131,0.132-0.132,0.344,0,0.475c0.131,0.132,0.343,0.131,0.474,0s0.131-0.342,0-0.474
					C11.414,15.757,11.203,15.757,11.073,15.887z M12.966,17.781c-0.073,0.073-0.095,0.169-0.087,0.265h0.647
					c0.009-0.095-0.014-0.191-0.087-0.264C13.309,17.651,13.097,17.651,12.966,17.781z M11.073,13.993
					c-0.131,0.131-0.131,0.343,0,0.474s0.343,0.132,0.474,0.001c0.132-0.132,0.131-0.344,0-0.475
					C11.415,13.864,11.203,13.863,11.073,13.993z M15.334,10.68c0.131-0.131,0.131-0.344-0.001-0.475
					c-0.13-0.131-0.342-0.131-0.474,0c-0.131,0.131-0.13,0.344,0,0.475C14.991,10.811,15.203,10.811,15.334,10.68z M12.019,16.834
					c-0.131,0.131-0.131,0.344,0,0.476c0.131,0.13,0.344,0.13,0.475-0.001s0.131-0.344,0-0.474
					C12.363,16.703,12.15,16.703,12.019,16.834z M12.966,19.676c-0.109,0.109-0.105,0.268-0.032,0.396h0.539
					c0.073-0.128,0.076-0.288-0.032-0.396C13.309,19.544,13.098,19.545,12.966,19.676z"/>
				<path fill="#FFFFFF" d="M9.683,13.359c-0.077-0.286-0.196-0.529-0.354-0.723c-0.027-0.034-0.052-0.071-0.082-0.101
					c-0.039-0.04-0.084-0.072-0.128-0.106c-0.114-0.089-0.241-0.159-0.386-0.205c-0.029-0.009-0.055-0.024-0.086-0.031
					c-0.108-0.026-0.225-0.041-0.35-0.041c-0.176,0-0.332,0.036-0.48,0.088c-0.199,0.07-0.373,0.183-0.52,0.338
					c-0.17,0.179-0.301,0.411-0.396,0.686c0.005,0.07-0.025,0.134-0.065,0.195c-0.069,0.272-0.105,0.579-0.105,0.915
					c0.001,0.194,0.018,0.375,0.041,0.549c0.014,0.093,0.029,0.184,0.049,0.271c0.009,0.042,0.019,0.084,0.029,0.125
					c0.08,0.297,0.202,0.546,0.361,0.745c0.117,0.147,0.252,0.27,0.411,0.354c0.052,0.027,0.108,0.044,0.164,0.064
					c0.141,0.049,0.289,0.084,0.456,0.084c0.359,0,0.655-0.111,0.893-0.308c0.14-0.116,0.256-0.265,0.352-0.44
					c0.207-0.377,0.318-0.878,0.318-1.489C9.805,13.973,9.762,13.648,9.683,13.359z M7.586,14.898
					c-0.013-0.108-0.021-0.225-0.025-0.349c-0.003-0.065-0.014-0.113-0.014-0.183c0-0.16,0.02-0.283,0.032-0.419
					c0.001-0.009,0.001-0.019,0.002-0.027c0.077-0.752,0.335-1.152,0.694-1.152c0.007,0,0.011,0.006,0.018,0.006
					c0.179,0.006,0.313,0.112,0.422,0.271l-0.006,0.01l-0.299,0.49l-0.024,0.041l-0.324,0.532L7.586,14.898z M8.981,14.515
					c-0.027,0.91-0.262,1.436-0.711,1.436c-0.049,0-0.088-0.031-0.133-0.045c-0.151-0.044-0.284-0.145-0.381-0.338l0.347-0.57
					l0.39-0.642l0.442-0.729c0.036,0.208,0.058,0.443,0.058,0.718C8.992,14.409,8.983,14.455,8.981,14.515z"/>
				<path fill="#FFFFFF" d="M11.571,11.7c-0.459,0-0.721,0.281-0.721,0.644c0,0.348,0.283,0.617,0.717,0.617
					c0.42,0,0.711-0.262,0.711-0.624C12.278,11.969,12.014,11.7,11.571,11.7z M11.561,12.671c-0.057,0-0.104-0.018-0.146-0.043
					c-0.101-0.06-0.162-0.176-0.162-0.291c0-0.121,0.055-0.234,0.15-0.297c0.044-0.03,0.095-0.051,0.158-0.051
					c0.201,0,0.322,0.157,0.322,0.341C11.883,12.512,11.762,12.671,11.561,12.671z"/>
			</g>
		</g>
		<g>
			<g>
				<path fill="#FFFFFF" d="M2.763,2.323C2.953,2.284,3.3,2.255,3.637,2.255c0.444,0,0.718,0.054,0.942,0.21
					C4.784,2.587,4.921,2.802,4.921,3.08c0,0.303-0.19,0.581-0.547,0.713v0.01C4.721,3.89,5.038,4.164,5.038,4.618
					c0,0.293-0.127,0.522-0.317,0.679C4.487,5.502,4.101,5.604,3.5,5.604c-0.332,0-0.586-0.024-0.737-0.044V2.323z M3.359,3.622
					h0.308c0.415,0,0.649-0.195,0.649-0.474c0-0.308-0.234-0.449-0.615-0.449c-0.176,0-0.278,0.01-0.342,0.024V3.622z M3.359,5.135
					C3.437,5.145,3.539,5.15,3.676,5.15c0.386,0,0.728-0.146,0.728-0.552c0-0.381-0.332-0.537-0.747-0.537H3.359V5.135z"/>
				<path fill="#FFFFFF" d="M6.145,2.528c0,0.181-0.131,0.322-0.342,0.322c-0.199,0-0.332-0.142-0.332-0.322
					c0-0.186,0.137-0.327,0.338-0.327C6.014,2.201,6.141,2.343,6.145,2.528z M5.506,5.57V3.192h0.605V5.57H5.506z"/>
				<path fill="#FFFFFF" d="M8.969,4.359c0,0.874-0.615,1.265-1.221,1.265c-0.674,0-1.191-0.464-1.191-1.226
					c0-0.781,0.513-1.26,1.23-1.26C8.495,3.138,8.969,3.636,8.969,4.359z M7.177,4.384c0,0.459,0.225,0.806,0.591,0.806
					c0.342,0,0.581-0.337,0.581-0.815c0-0.371-0.166-0.796-0.576-0.796C7.348,3.578,7.177,3.988,7.177,4.384z"/>
				<path fill="#FFFFFF" d="M9.442,2.279h1.898v0.493h-1.299V3.68h1.211v0.493h-1.211V5.57h-0.6V2.279z"/>
				<path fill="#FFFFFF" d="M11.748,3.959c0-0.322-0.004-0.552-0.02-0.767h0.523l0.02,0.454h0.02
					c0.117-0.337,0.395-0.508,0.648-0.508c0.059,0,0.094,0.005,0.143,0.015v0.566c-0.049-0.01-0.104-0.02-0.176-0.02
					c-0.289,0-0.484,0.186-0.537,0.454c-0.01,0.054-0.02,0.117-0.02,0.186v1.23h-0.602V3.959z"/>
				<path fill="#FFFFFF" d="M13.821,4.55c0.016,0.43,0.352,0.615,0.732,0.615c0.279,0,0.479-0.039,0.66-0.107l0.088,0.415
					c-0.205,0.083-0.488,0.146-0.83,0.146c-0.771,0-1.227-0.474-1.227-1.201c0-0.659,0.4-1.279,1.162-1.279
					c0.771,0,1.025,0.635,1.025,1.157c0,0.112-0.01,0.2-0.02,0.254H13.821z M14.865,4.13c0.006-0.22-0.092-0.581-0.492-0.581
					c-0.371,0-0.527,0.337-0.553,0.581H14.865z"/>
				<path fill="#FFFFFF" d="M15.841,5.018c0.137,0.083,0.396,0.171,0.61,0.171c0.264,0,0.381-0.107,0.381-0.264
					c0-0.161-0.098-0.244-0.391-0.347c-0.464-0.161-0.659-0.415-0.654-0.693c0-0.42,0.347-0.747,0.898-0.747
					c0.264,0,0.493,0.068,0.63,0.142l-0.117,0.425c-0.103-0.059-0.293-0.137-0.503-0.137c-0.215,0-0.332,0.103-0.332,0.249
					c0,0.151,0.112,0.225,0.415,0.332c0.43,0.156,0.63,0.376,0.635,0.728c0,0.43-0.337,0.742-0.967,0.742
					c-0.288,0-0.547-0.068-0.723-0.166L15.841,5.018z"/>
				<path fill="#FFFFFF" d="M17.86,2.103h0.605v1.416h0.01c0.074-0.112,0.172-0.205,0.299-0.273c0.117-0.068,0.258-0.107,0.41-0.107
					c0.404,0,0.83,0.269,0.83,1.03V5.57h-0.602V4.237c0-0.347-0.127-0.605-0.459-0.605c-0.234,0-0.4,0.156-0.463,0.337
					c-0.02,0.049-0.025,0.112-0.025,0.181V5.57H17.86V2.103z"/>
			</g>
		</g>
	</g>
</g>
</svg>
