<?xml version="1.0" encoding="utf-8"?>
<!-- Generator: Adobe Illustrator 16.0.3, SVG Export Plug-In . SVG Version: 6.00 Build 0)  -->
<!DOCTYPE svg PUBLIC "-//W3C//DTD SVG 1.1//EN" "http://www.w3.org/Graphics/SVG/1.1/DTD/svg11.dtd">
<svg version="1.1" xmlns="http://www.w3.org/2000/svg" xmlns:xlink="http://www.w3.org/1999/xlink" x="0px" y="0px" width="22.68px"
	 height="22.68px" viewBox="0 0 22.68 22.68" enable-background="new 0 0 22.68 22.68" xml:space="preserve">
<g id="BCGRND">
</g>
<g id="BAREVNE_BCGRND">
	<polygon fill="#585857" points="22.676,16.336 22.676,0.001 -0.002,0.001 -0.002,22.679 14.116,22.679 22.676,22.679 	"/>
</g>
<g id="IKONY">
	<g>
		<g>
			<rect x="-0.002" y="7.77" fill="#FFFFFF" width="22.678" height="0.889"/>
		</g>
		<g>
			<g>
				<path fill="#FFFFFF" d="M3.99,5.471C3.85,5.544,3.537,5.617,3.141,5.617c-1.045,0-1.68-0.654-1.68-1.655
					c0-1.084,0.752-1.738,1.758-1.738c0.396,0,0.68,0.083,0.801,0.146L3.889,2.849C3.732,2.78,3.518,2.722,3.244,2.722
					c-0.67,0-1.152,0.42-1.152,1.211c0,0.723,0.424,1.187,1.146,1.187c0.244,0,0.498-0.049,0.654-0.122L3.99,5.471z"/>
			</g>
			<g>
				<path fill="#FFFFFF" d="M5.776,5.568L5.737,5.305H5.723C5.576,5.49,5.327,5.622,5.02,5.622c-0.479,0-0.747-0.347-0.747-0.708
					c0-0.601,0.532-0.903,1.411-0.898V3.977c0-0.156-0.063-0.415-0.483-0.415c-0.234,0-0.479,0.073-0.64,0.176L4.443,3.347
					c0.176-0.107,0.483-0.21,0.859-0.21c0.762,0,0.981,0.483,0.981,1.001v0.859c0,0.215,0.01,0.425,0.034,0.571H5.776z M5.698,4.406
					c-0.425-0.01-0.83,0.083-0.83,0.444c0,0.234,0.151,0.342,0.342,0.342c0.239,0,0.415-0.156,0.469-0.327
					c0.015-0.044,0.02-0.093,0.02-0.132V4.406z"/>
			</g>
			<g>
				<path fill="#FFFFFF" d="M6.893,5.017C7.029,5.1,7.289,5.188,7.504,5.188c0.264,0,0.381-0.107,0.381-0.264
					c0-0.161-0.098-0.244-0.391-0.347C7.029,4.416,6.834,4.162,6.84,3.884c0-0.42,0.346-0.747,0.898-0.747
					c0.264,0,0.492,0.068,0.629,0.142L8.25,3.703C8.148,3.645,7.957,3.566,7.748,3.566c-0.215,0-0.332,0.103-0.332,0.249
					c0,0.151,0.111,0.225,0.414,0.332c0.43,0.156,0.631,0.376,0.635,0.728c0,0.43-0.336,0.742-0.967,0.742
					c-0.287,0-0.547-0.068-0.723-0.166L6.893,5.017z"/>
			</g>
			<g>
				<path fill="#FFFFFF" d="M8.961,2.102h0.605v1.416h0.01c0.073-0.112,0.171-0.205,0.298-0.273c0.117-0.068,0.259-0.107,0.41-0.107
					c0.405,0,0.83,0.269,0.83,1.03v1.401h-0.601V4.235c0-0.347-0.127-0.605-0.459-0.605c-0.234,0-0.4,0.156-0.464,0.337
					c-0.02,0.049-0.024,0.112-0.024,0.181v1.421H8.961V2.102z"/>
			</g>
			<g>
				<path fill="#FFFFFF" d="M11.738,5.568c0.01-0.161,0.02-0.425,0.02-0.669V2.102h0.6v1.416h0.01
					c0.146-0.229,0.406-0.381,0.762-0.381c0.582,0,0.996,0.483,0.992,1.206c0,0.854-0.543,1.279-1.08,1.279
					c-0.307,0-0.58-0.117-0.752-0.41h-0.01L12.25,5.568H11.738z M12.357,4.587c0,0.049,0.006,0.098,0.016,0.142
					c0.063,0.239,0.273,0.42,0.531,0.42c0.377,0,0.605-0.303,0.605-0.781c0-0.42-0.199-0.762-0.6-0.762
					c-0.244,0-0.465,0.176-0.533,0.439c-0.01,0.044-0.02,0.098-0.02,0.156V4.587z"/>
			</g>
			<g>
				<path fill="#FFFFFF" d="M15.955,5.568l-0.039-0.264h-0.015c-0.146,0.186-0.396,0.317-0.703,0.317
					c-0.479,0-0.747-0.347-0.747-0.708c0-0.601,0.532-0.903,1.411-0.898V3.977c0-0.156-0.063-0.415-0.483-0.415
					c-0.234,0-0.479,0.073-0.64,0.176l-0.117-0.391c0.176-0.107,0.483-0.21,0.859-0.21c0.762,0,0.981,0.483,0.981,1.001v0.859
					c0,0.215,0.01,0.425,0.034,0.571H15.955z M15.877,4.406c-0.425-0.01-0.83,0.083-0.83,0.444c0,0.234,0.151,0.342,0.342,0.342
					c0.239,0,0.415-0.156,0.469-0.327c0.015-0.044,0.02-0.093,0.02-0.132V4.406z"/>
			</g>
			<g>
				<path fill="#FFFFFF" d="M18.85,5.495c-0.127,0.059-0.377,0.122-0.674,0.122c-0.742,0-1.227-0.474-1.227-1.211
					c0-0.713,0.488-1.27,1.324-1.27c0.219,0,0.443,0.049,0.58,0.112l-0.107,0.449c-0.098-0.044-0.238-0.093-0.453-0.093
					c-0.459,0-0.732,0.337-0.729,0.771c0,0.488,0.318,0.767,0.729,0.767c0.209,0,0.355-0.044,0.473-0.093L18.85,5.495z"/>
			</g>
			<g>
				<path fill="#FFFFFF" d="M19.896,4.235h0.01c0.059-0.093,0.127-0.195,0.19-0.278l0.576-0.767h0.723l-0.879,0.972l1.006,1.406
					h-0.737l-0.684-1.05l-0.205,0.239v0.811h-0.601V2.102h0.601V4.235z"/>
			</g>
		</g>
		<g>
			<defs>
				<rect id="SVGID_93_" x="-0.002" y="8.214" width="22.678" height="14.463"/>
			</defs>
			<clipPath id="SVGID_2_">
				<use xlink:href="#SVGID_93_"  overflow="visible"/>
			</clipPath>
			<g clip-path="url(#SVGID_2_)">
				<g>
					<g>
						<g>
							<g>
								<path fill="#FFFFFF" d="M16.467,20.261l-1.301,2.25l-0.399-0.7c-2.311,1.17-5.061,1.08-7.28-0.27
									c-0.87-0.53-1.6-1.21-2.16-1.99c-0.26-0.36-0.489-0.74-0.68-1.14h1.14c0.23,0.41,0.511,0.79,0.841,1.14
									c0.39,0.43,0.859,0.81,1.38,1.13c1.899,1.16,4.27,1.25,6.26,0.26l-0.39-0.68H16.467z"/>
							</g>
						</g>
					</g>
				</g>
				<g opacity="0.5">
					<path fill="#FFFFFF" d="M15.916,10.591H6.807c-0.33,0.33-0.641,0.71-0.9,1.13h10.92C16.566,11.312,16.267,10.931,15.916,10.591
						z M3.743,18.411c0-0.64-0.511-1.15-1.15-1.15v-4.38c0.64,0,1.15-0.52,1.15-1.16h1.014c0.069-0.15,0.149-0.29,0.239-0.43
						c0.15-0.25,0.311-0.48,0.49-0.7H1.463v8.96h3.863c-0.26-0.36-0.489-0.74-0.68-1.14H3.743z M15.916,10.591H6.807
						c-0.33,0.33-0.641,0.71-0.9,1.13h10.92C16.566,11.312,16.267,10.931,15.916,10.591z M17.257,10.591
						c0.279,0.35,0.52,0.73,0.72,1.13h1.094c0,0.64,0.52,1.16,1.16,1.16v4.38c-0.641,0-1.16,0.51-1.16,1.15H5.786
						c0.23,0.41,0.511,0.79,0.841,1.14H21.36v-8.96H17.257z M15.916,10.591H6.807c-0.33,0.33-0.641,0.71-0.9,1.13h10.92
						C16.566,11.312,16.267,10.931,15.916,10.591z M15.916,10.591H6.807c-0.33,0.33-0.641,0.71-0.9,1.13h10.92
						C16.566,11.312,16.267,10.931,15.916,10.591z M15.916,10.591H6.807c-0.33,0.33-0.641,0.71-0.9,1.13h10.92
						C16.566,11.312,16.267,10.931,15.916,10.591z"/>
				</g>
				<g>
					<path fill="#FFFFFF" d="M17.977,11.721h-1.15c-0.26-0.41-0.56-0.79-0.91-1.13c-0.35-0.36-0.75-0.67-1.189-0.94
						c-2.59-1.57-5.85-1.11-7.92,0.94c-0.33,0.33-0.641,0.71-0.9,1.13H4.757c0.069-0.15,0.149-0.29,0.239-0.43
						c0.15-0.25,0.311-0.48,0.49-0.7c2.29-2.95,6.5-3.78,9.76-1.79c0.79,0.48,1.46,1.09,2.011,1.79
						C17.536,10.941,17.776,11.321,17.977,11.721z"/>
				</g>
				<g>
					<g>
						<path fill="#FFFFFF" d="M4.26,14.137H4.25l-0.605,0.288l-0.122-0.557l0.84-0.391h0.615v3.174H4.26V14.137z"/>
					</g>
					<g>
						<path fill="#FFFFFF" d="M7.93,15.05c0,0.981-0.396,1.655-1.206,1.655c-0.82,0-1.182-0.737-1.187-1.636
							c0-0.918,0.391-1.646,1.211-1.646C7.598,13.424,7.93,14.181,7.93,15.05z M6.284,15.069c-0.005,0.728,0.171,1.074,0.459,1.074
							s0.444-0.361,0.444-1.084c0-0.703-0.151-1.074-0.449-1.074C6.465,13.985,6.279,14.332,6.284,15.069z"/>
					</g>
					<g>
						<path fill="#FFFFFF" d="M10.594,15.05c0,0.981-0.396,1.655-1.206,1.655c-0.82,0-1.182-0.737-1.187-1.636
							c0-0.918,0.391-1.646,1.211-1.646C10.262,13.424,10.594,14.181,10.594,15.05z M8.948,15.069
							c-0.005,0.728,0.171,1.074,0.459,1.074s0.444-0.361,0.444-1.084c0-0.703-0.151-1.074-0.449-1.074
							C9.129,13.985,8.943,14.332,8.948,15.069z"/>
					</g>
					<g>
						<path fill="#FFFFFF" d="M13.259,15.05c0,0.981-0.396,1.655-1.206,1.655c-0.82,0-1.182-0.737-1.187-1.636
							c0-0.918,0.391-1.646,1.211-1.646C12.927,13.424,13.259,14.181,13.259,15.05z M11.613,15.069
							c-0.005,0.728,0.171,1.074,0.459,1.074s0.444-0.361,0.444-1.084c0-0.703-0.151-1.074-0.449-1.074
							C11.794,13.985,11.608,14.332,11.613,15.069z"/>
					</g>
					<g>
						<path fill="#FFFFFF" d="M14.439,13.36h0.737v1.455h0.015c0.073-0.127,0.151-0.244,0.225-0.361l0.747-1.094h0.913l-1.089,1.401
							l1.147,1.89h-0.869L15.46,15.23l-0.283,0.347v1.074h-0.737V13.36z"/>
					</g>
					<g>
						<path fill="#FFFFFF" d="M19.077,16.593c-0.132,0.059-0.381,0.107-0.664,0.107c-0.771,0-1.265-0.469-1.265-1.221
							c0-0.698,0.479-1.27,1.367-1.27c0.195,0,0.41,0.034,0.566,0.093l-0.117,0.552c-0.088-0.039-0.22-0.073-0.415-0.073
							c-0.391,0-0.645,0.278-0.64,0.669c0,0.439,0.293,0.669,0.654,0.669c0.176,0,0.313-0.029,0.425-0.073L19.077,16.593z
							 M18.047,13.966l-0.483-0.742h0.483l0.249,0.425h0.01l0.244-0.425h0.488l-0.488,0.742H18.047z"/>
					</g>
				</g>
			</g>
		</g>
	</g>
</g>
</svg>
