<?xml version="1.0" encoding="utf-8"?>
<!-- Generator: Adobe Illustrator 16.0.3, SVG Export Plug-In . SVG Version: 6.00 Build 0)  -->
<!DOCTYPE svg PUBLIC "-//W3C//DTD SVG 1.1//EN" "http://www.w3.org/Graphics/SVG/1.1/DTD/svg11.dtd">
<svg version="1.1" xmlns="http://www.w3.org/2000/svg" xmlns:xlink="http://www.w3.org/1999/xlink" x="0px" y="0px" width="22.68px"
	 height="22.68px" viewBox="0 0 22.68 22.68" enable-background="new 0 0 22.68 22.68" xml:space="preserve">
<g id="BCGRND">
</g>
<g id="BAREVNE_BCGRND">
	<polygon fill="#585857" points="22.679,16.335 22.679,0 0.002,0 0.002,22.678 14.119,22.678 22.679,22.678 	"/>
</g>
<g id="IKONY">
	<g>
		<g>
			<g>
				<g>
					<g>
						<rect x="0" y="7.77" fill="#FFFFFF" width="22.677" height="0.889"/>
					</g>
					<g>
						<g>
							<path fill="#FFFFFF" d="M3.992,5.471c-0.14,0.073-0.453,0.146-0.85,0.146c-1.045,0-1.679-0.654-1.679-1.655
								c0-1.084,0.752-1.738,1.758-1.738c0.396,0,0.68,0.083,0.801,0.146l-0.13,0.479C3.734,2.78,3.52,2.722,3.246,2.722
								c-0.67,0-1.153,0.42-1.153,1.211c0,0.723,0.424,1.187,1.146,1.187c0.244,0,0.499-0.049,0.654-0.122L3.992,5.471z"/>
						</g>
						<g>
							<path fill="#FFFFFF" d="M5.779,5.568L5.74,5.305H5.725C5.578,5.49,5.329,5.622,5.022,5.622c-0.479,0-0.747-0.347-0.747-0.708
								c0-0.601,0.532-0.903,1.411-0.898V3.977c0-0.156-0.063-0.415-0.483-0.415c-0.234,0-0.479,0.073-0.639,0.176L4.446,3.347
								c0.176-0.107,0.483-0.21,0.859-0.21c0.762,0,0.981,0.483,0.981,1.001v0.859c0,0.215,0.01,0.425,0.035,0.571H5.779z
								 M5.701,4.406c-0.425-0.01-0.83,0.083-0.83,0.444c0,0.234,0.151,0.342,0.342,0.342c0.239,0,0.415-0.156,0.469-0.327
								c0.015-0.044,0.02-0.093,0.02-0.132V4.406z"/>
						</g>
						<g>
							<path fill="#FFFFFF" d="M6.895,5.017C7.031,5.1,7.291,5.188,7.506,5.188c0.263,0,0.381-0.107,0.381-0.264
								c0-0.161-0.098-0.244-0.391-0.347c-0.465-0.161-0.66-0.415-0.654-0.693c0-0.42,0.346-0.747,0.898-0.747
								c0.264,0,0.492,0.068,0.629,0.142L8.252,3.703C8.151,3.645,7.959,3.566,7.75,3.566c-0.215,0-0.332,0.103-0.332,0.249
								c0,0.151,0.112,0.225,0.414,0.332c0.43,0.156,0.631,0.376,0.635,0.728c0,0.43-0.336,0.742-0.967,0.742
								c-0.287,0-0.547-0.068-0.723-0.166L6.895,5.017z"/>
						</g>
						<g>
							<path fill="#FFFFFF" d="M8.963,2.102h0.605v1.416h0.01c0.073-0.112,0.171-0.205,0.298-0.273
								c0.117-0.068,0.259-0.107,0.41-0.107c0.406,0,0.83,0.269,0.83,1.03v1.401h-0.6V4.235c0-0.347-0.127-0.605-0.459-0.605
								c-0.234,0-0.4,0.156-0.464,0.337c-0.02,0.049-0.024,0.112-0.024,0.181v1.421H8.963V2.102z"/>
						</g>
						<g>
							<path fill="#FFFFFF" d="M11.74,5.568c0.01-0.161,0.02-0.425,0.02-0.669V2.102h0.6v1.416h0.01
								c0.147-0.229,0.406-0.381,0.762-0.381c0.582,0,0.996,0.483,0.992,1.206c0,0.854-0.543,1.279-1.08,1.279
								c-0.306,0-0.58-0.117-0.752-0.41h-0.01l-0.029,0.356H11.74z M12.359,4.587c0,0.049,0.006,0.098,0.016,0.142
								c0.063,0.239,0.273,0.42,0.531,0.42c0.377,0,0.606-0.303,0.606-0.781c0-0.42-0.199-0.762-0.6-0.762
								c-0.244,0-0.465,0.176-0.533,0.439c-0.01,0.044-0.02,0.098-0.02,0.156V4.587z"/>
						</g>
						<g>
							<path fill="#FFFFFF" d="M15.957,5.568l-0.039-0.264h-0.014c-0.147,0.186-0.396,0.317-0.703,0.317
								c-0.479,0-0.747-0.347-0.747-0.708c0-0.601,0.532-0.903,1.411-0.898V3.977c0-0.156-0.064-0.415-0.484-0.415
								c-0.235,0-0.479,0.073-0.64,0.176l-0.117-0.391c0.176-0.107,0.483-0.21,0.859-0.21c0.762,0,0.981,0.483,0.981,1.001v0.859
								c0,0.215,0.01,0.425,0.034,0.571H15.957z M15.879,4.406c-0.425-0.01-0.83,0.083-0.83,0.444c0,0.234,0.151,0.342,0.342,0.342
								c0.239,0,0.415-0.156,0.468-0.327c0.015-0.044,0.02-0.093,0.02-0.132V4.406z"/>
						</g>
						<g>
							<path fill="#FFFFFF" d="M18.852,5.495c-0.127,0.059-0.377,0.122-0.674,0.122c-0.742,0-1.227-0.474-1.227-1.211
								c0-0.713,0.488-1.27,1.324-1.27c0.219,0,0.443,0.049,0.58,0.112l-0.107,0.449c-0.097-0.044-0.238-0.093-0.453-0.093
								c-0.459,0-0.732,0.337-0.729,0.771c0,0.488,0.318,0.767,0.729,0.767c0.209,0,0.355-0.044,0.472-0.093L18.852,5.495z"/>
						</g>
						<g>
							<path fill="#FFFFFF" d="M19.899,4.235h0.01c0.059-0.093,0.127-0.195,0.19-0.278l0.576-0.767h0.723l-0.879,0.972l1.006,1.406
								h-0.737l-0.684-1.05l-0.205,0.239v0.811h-0.601V2.102h0.601V4.235z"/>
						</g>
					</g>
					<g>
						<g>
							<g>
								<g>
									<g>
										<g>
											<path fill="#FFFFFF" d="M16.394,20.261l-1.3,2.25l-0.399-0.7c-2.311,1.17-5.061,1.08-7.28-0.27
												c-0.87-0.53-1.6-1.21-2.16-1.99c-0.26-0.36-0.489-0.74-0.68-1.14h1.14c0.23,0.41,0.511,0.79,0.841,1.14
												c0.39,0.43,0.86,0.81,1.38,1.13c1.899,1.16,4.27,1.25,6.26,0.26l-0.39-0.68H16.394z"/>
										</g>
									</g>
								</g>
							</g>
							<g opacity="0.5">
								<path fill="#FFFFFF" d="M15.844,10.591H6.734c-0.33,0.33-0.641,0.71-0.9,1.13h10.92
									C16.494,11.312,16.194,10.931,15.844,10.591z M3.671,18.411c0-0.64-0.511-1.15-1.15-1.15v-4.38c0.64,0,1.15-0.52,1.15-1.16
									h1.014c0.069-0.15,0.149-0.29,0.239-0.43c0.15-0.25,0.311-0.48,0.491-0.7H1.39v8.96h3.864c-0.26-0.36-0.489-0.74-0.68-1.14
									H3.671z M15.844,10.591H6.734c-0.33,0.33-0.641,0.71-0.9,1.13h10.92C16.494,11.312,16.194,10.931,15.844,10.591z
									 M17.185,10.591c0.279,0.35,0.52,0.73,0.72,1.13h1.094c0,0.64,0.52,1.16,1.16,1.16v4.38c-0.641,0-1.16,0.51-1.16,1.15H5.714
									c0.23,0.41,0.511,0.79,0.841,1.14h14.733v-8.96H17.185z M15.844,10.591H6.734c-0.33,0.33-0.641,0.71-0.9,1.13h10.92
									C16.494,11.312,16.194,10.931,15.844,10.591z M15.844,10.591H6.734c-0.33,0.33-0.641,0.71-0.9,1.13h10.92
									C16.494,11.312,16.194,10.931,15.844,10.591z M15.844,10.591H6.734c-0.33,0.33-0.641,0.71-0.9,1.13h10.92
									C16.494,11.312,16.194,10.931,15.844,10.591z"/>
							</g>
							<g>
								<path fill="#FFFFFF" d="M17.904,11.721h-1.15c-0.26-0.41-0.56-0.79-0.91-1.13c-0.35-0.36-0.75-0.67-1.189-0.94
									c-2.59-1.57-5.85-1.11-7.92,0.94c-0.33,0.33-0.641,0.71-0.9,1.13H4.685c0.069-0.15,0.149-0.29,0.239-0.43
									c0.15-0.25,0.311-0.48,0.491-0.7c2.29-2.95,6.5-3.78,9.759-1.79c0.79,0.48,1.46,1.09,2.011,1.79
									C17.464,10.941,17.704,11.321,17.904,11.721z"/>
							</g>
						</g>
					</g>
				</g>
			</g>
		</g>
		<g>
			<path fill="#FFFFFF" d="M3.194,16.65v-0.449l0.41-0.371c0.693-0.62,1.03-0.977,1.04-1.348c0-0.259-0.156-0.464-0.522-0.464
				c-0.273,0-0.513,0.137-0.679,0.264l-0.21-0.532c0.239-0.181,0.61-0.327,1.04-0.327c0.718,0,1.113,0.42,1.113,0.996
				c0,0.532-0.386,0.957-0.845,1.367L4.249,16.03v0.01h1.196v0.61H3.194z"/>
			<path fill="#FFFFFF" d="M8.178,15.049c0,0.981-0.396,1.655-1.206,1.655c-0.82,0-1.182-0.737-1.187-1.636
				c0-0.918,0.391-1.646,1.211-1.646C7.846,13.423,8.178,14.18,8.178,15.049z M6.532,15.068c-0.005,0.728,0.171,1.074,0.459,1.074
				s0.444-0.361,0.444-1.084c0-0.703-0.151-1.074-0.449-1.074C6.713,13.984,6.527,14.331,6.532,15.068z"/>
			<path fill="#FFFFFF" d="M10.818,15.049c0,0.981-0.396,1.655-1.206,1.655c-0.82,0-1.182-0.737-1.187-1.636
				c0-0.918,0.391-1.646,1.211-1.646C10.486,13.423,10.818,14.18,10.818,15.049z M9.173,15.068
				c-0.005,0.728,0.171,1.074,0.459,1.074s0.444-0.361,0.444-1.084c0-0.703-0.151-1.074-0.449-1.074
				C9.353,13.984,9.168,14.331,9.173,15.068z"/>
			<path fill="#FFFFFF" d="M13.458,15.049c0,0.981-0.396,1.655-1.206,1.655c-0.82,0-1.182-0.737-1.187-1.636
				c0-0.918,0.391-1.646,1.211-1.646C13.126,13.423,13.458,14.18,13.458,15.049z M11.812,15.068
				c-0.005,0.728,0.171,1.074,0.459,1.074s0.444-0.361,0.444-1.084c0-0.703-0.151-1.074-0.449-1.074
				C11.993,13.984,11.807,14.331,11.812,15.068z"/>
			<path fill="#FFFFFF" d="M14.59,13.359h0.737v1.455h0.015c0.073-0.127,0.151-0.244,0.225-0.361l0.747-1.094h0.913l-1.089,1.401
				l1.147,1.89h-0.869l-0.806-1.421l-0.283,0.347v1.074H14.59V13.359z"/>
			<path fill="#FFFFFF" d="M19.203,16.592c-0.132,0.059-0.381,0.112-0.664,0.112c-0.771,0-1.265-0.474-1.265-1.226
				c0-0.698,0.479-1.27,1.367-1.27c0.195,0,0.41,0.034,0.566,0.093l-0.117,0.552c-0.088-0.039-0.22-0.073-0.415-0.073
				c-0.391,0-0.645,0.278-0.64,0.669c0,0.439,0.293,0.669,0.654,0.669c0.176,0,0.313-0.029,0.425-0.078L19.203,16.592z
				 M18.173,13.965l-0.483-0.742h0.483l0.249,0.425h0.01l0.244-0.425h0.488l-0.488,0.742H18.173z"/>
		</g>
	</g>
</g>
</svg>
