<?xml version="1.0" encoding="utf-8"?>
<!-- Generator: Adobe Illustrator 16.0.3, SVG Export Plug-In . SVG Version: 6.00 Build 0)  -->
<!DOCTYPE svg PUBLIC "-//W3C//DTD SVG 1.1//EN" "http://www.w3.org/Graphics/SVG/1.1/DTD/svg11.dtd">
<svg version="1.1" xmlns="http://www.w3.org/2000/svg" xmlns:xlink="http://www.w3.org/1999/xlink" x="0px" y="0px" width="22.68px"
	 height="22.68px" viewBox="0 0 22.68 22.68" enable-background="new 0 0 22.68 22.68" xml:space="preserve">
<g id="BCGRND">
</g>
<g id="BAREVNE_POZADI_IKON">
	<rect x="0.002" fill="#585857" width="22.678" height="22.68"/>
</g>
<g id="IKONY">
	<g>
		<g>
			<g>
				<g>
					<rect y="7.77" fill="#FFFFFF" width="22.678" height="0.889"/>
				</g>
				<g>
					<g>
						<path fill="#FFFFFF" d="M3.007,5.472C2.868,5.546,2.565,5.619,2.181,5.619c-1.016,0-1.633-0.654-1.633-1.655
							c0-1.084,0.731-1.738,1.709-1.738c0.385,0,0.66,0.083,0.777,0.146L2.907,2.85C2.755,2.782,2.546,2.723,2.28,2.723
							c-0.65,0-1.119,0.42-1.119,1.211c0,0.723,0.412,1.187,1.115,1.187c0.236,0,0.483-0.049,0.635-0.122L3.007,5.472z"/>
						<path fill="#FFFFFF" d="M3.228,2.103h0.589V5.57H3.228V2.103z"/>
						<path fill="#FFFFFF" d="M4.831,2.528c0,0.181-0.129,0.322-0.332,0.322c-0.195,0-0.323-0.142-0.323-0.322
							c0-0.186,0.134-0.327,0.327-0.327C4.702,2.201,4.826,2.343,4.831,2.528z M4.209,5.57V3.192h0.589V5.57H4.209z"/>
						<path fill="#FFFFFF" d="M6.886,5.497C6.762,5.555,6.52,5.619,6.23,5.619c-0.722,0-1.191-0.474-1.191-1.211
							c0-0.713,0.475-1.27,1.286-1.27c0.213,0,0.432,0.049,0.564,0.112L6.786,3.7C6.69,3.656,6.553,3.607,6.345,3.607
							c-0.447,0-0.713,0.337-0.707,0.771c0,0.488,0.308,0.767,0.707,0.767c0.203,0,0.346-0.044,0.46-0.093L6.886,5.497z"/>
						<path fill="#FFFFFF" d="M7.662,4.237h0.009c0.058-0.093,0.124-0.195,0.186-0.278l0.561-0.767h0.701L8.265,4.164L9.242,5.57
							H8.526L7.861,4.52L7.662,4.76V5.57H7.078V2.103h0.584V4.237z"/>
						<path fill="#FFFFFF" d="M11.3,5.57c-0.08-0.083-0.156-0.166-0.251-0.273c-0.242,0.21-0.536,0.327-0.901,0.327
							c-0.707,0-1.059-0.454-1.059-0.928c0-0.439,0.252-0.752,0.617-0.952V3.729C9.554,3.544,9.45,3.304,9.45,3.07
							c0-0.41,0.303-0.845,0.896-0.845c0.451,0,0.793,0.288,0.793,0.737c0,0.342-0.19,0.62-0.66,0.859l-0.005,0.02
							c0.224,0.264,0.47,0.557,0.646,0.752c0.138-0.22,0.232-0.527,0.289-0.874h0.522c-0.085,0.508-0.232,0.923-0.499,1.235
							c0.176,0.2,0.352,0.4,0.551,0.615H11.3z M10.769,4.96c-0.194-0.21-0.498-0.557-0.797-0.913
							C9.819,4.154,9.644,4.325,9.644,4.598c0,0.327,0.233,0.581,0.59,0.581C10.46,5.179,10.65,5.087,10.769,4.96z M9.977,3.011
							c0,0.2,0.09,0.361,0.232,0.527c0.271-0.176,0.427-0.327,0.427-0.557c0-0.176-0.095-0.371-0.318-0.371
							C10.095,2.611,9.977,2.806,9.977,3.011z"/>
						<path fill="#FFFFFF" d="M14.393,5.472c-0.138,0.073-0.441,0.146-0.825,0.146c-1.016,0-1.633-0.654-1.633-1.655
							c0-1.084,0.73-1.738,1.709-1.738c0.384,0,0.659,0.083,0.777,0.146L14.293,2.85c-0.151-0.068-0.36-0.127-0.626-0.127
							c-0.65,0-1.12,0.42-1.12,1.211c0,0.723,0.413,1.187,1.114,1.187c0.238,0,0.484-0.049,0.637-0.122L14.393,5.472z"/>
						<path fill="#FFFFFF" d="M14.614,2.103h0.588V5.57h-0.588V2.103z"/>
						<path fill="#FFFFFF" d="M16.009,4.55c0.014,0.43,0.342,0.615,0.711,0.615c0.271,0,0.465-0.039,0.641-0.107l0.086,0.415
							c-0.199,0.083-0.475,0.146-0.807,0.146c-0.75,0-1.191-0.474-1.191-1.201c0-0.659,0.389-1.279,1.129-1.279
							c0.75,0,0.997,0.635,0.997,1.157c0,0.112-0.009,0.2-0.019,0.254H16.009z M17.024,4.13c0.004-0.22-0.091-0.581-0.48-0.581
							c-0.359,0-0.512,0.337-0.535,0.581H17.024z"/>
						<path fill="#FFFFFF" d="M19.105,5.57l-0.038-0.264h-0.014c-0.143,0.186-0.385,0.317-0.684,0.317
							c-0.465,0-0.727-0.347-0.727-0.708c0-0.601,0.518-0.903,1.372-0.898V3.978c0-0.156-0.062-0.415-0.47-0.415
							c-0.229,0-0.465,0.073-0.622,0.176L17.81,3.348c0.172-0.107,0.471-0.21,0.836-0.21c0.74,0,0.953,0.483,0.953,1.001v0.859
							c0,0.215,0.01,0.425,0.033,0.571H19.105z M19.03,4.408c-0.414-0.01-0.807,0.083-0.807,0.444c0,0.234,0.146,0.342,0.332,0.342
							c0.232,0,0.402-0.156,0.455-0.327c0.014-0.044,0.02-0.093,0.02-0.132V4.408z"/>
						<path fill="#FFFFFF" d="M19.978,3.9c0-0.273-0.005-0.503-0.02-0.708h0.513l0.028,0.356h0.015c0.1-0.186,0.351-0.41,0.735-0.41
							c0.403,0,0.82,0.269,0.82,1.021V5.57h-0.583V4.227c0-0.342-0.124-0.601-0.441-0.601c-0.232,0-0.394,0.171-0.456,0.352
							c-0.019,0.054-0.023,0.127-0.023,0.195V5.57h-0.588V3.9z"/>
					</g>
				</g>
			</g>
			<polygon fill="#FFFFFF" points="12.442,10.37 12.291,11.172 12.803,11.81 11.999,11.659 11.362,12.17 11.514,11.367 
				11.002,10.729 11.806,10.881 			"/>
			<polygon fill="#FFFFFF" points="16.065,9.82 16.424,10.553 17.216,10.759 16.481,11.118 16.276,11.908 15.918,11.175 
				15.126,10.969 15.86,10.61 			"/>
			<polygon fill="#FFFFFF" points="5.215,9.331 5.604,10.049 6.403,10.22 5.686,10.611 5.514,11.408 5.124,10.691 4.325,10.52 
				5.044,10.13 			"/>
			<polygon fill="#FFFFFF" points="1.423,11.163 1.813,11.88 2.611,12.052 1.894,12.442 1.722,13.24 1.332,12.523 0.533,12.352 
				1.252,11.961 			"/>
			<g>
				<path fill="#FFFFFF" d="M16.79,18.13c-1.669,0.499-3.042,0.895-3.488,0.986c-1.414,0.289-4.742,0.032-5.289-0.547
					c0,0,0.027-0.693,1.538-0.675c2.255,0.028,2.616-0.358,2.909-0.53c0,0,0.259-1.111-3.627-0.885
					c-3.84,0.226-4.408,0.255-4.167-0.5c1.153-0.139,3.824-0.444,5.428-0.508c0.106-0.004,0.189-0.094,0.186-0.201
					c-0.004-0.105-0.087-0.189-0.2-0.185c-1.518,0.061-3.977,0.335-5.23,0.483c0.057-0.113,0.196-0.344,0.465-0.605
					c1.003-0.125,3.121-0.371,4.781-0.441c0.106-0.005,0.188-0.095,0.185-0.201c-0.005-0.106-0.089-0.197-0.201-0.185
					c-1.37,0.059-3.047,0.234-4.164,0.366c0.603-0.372,1.509-0.715,2.87-0.804l1.658-0.109c-0.373-0.313-0.748-0.633-1.127-0.968
					c-0.798-0.706-2.083-0.497-3.408,0.192c-2.002,1.045-3.164,1.292-3.903,1.352c0,0-0.983,2.958,1.396,4.854
					c1.99,1.586,4.193,2.063,7.097,3.641h0.764c0.839,0,1.962,0,3.067,0l5.533-2.838C19.86,19.823,18.653,19.261,16.79,18.13z"/>
				<path fill="#FFFFFF" fill-opacity="0.5" d="M15.223,14.953c-3.015-1.52-3.882-1.423-3.882-1.423l-0.898,0.06l-1.658,0.109
					c-1.361,0.089-2.268,0.432-2.87,0.804c1.117-0.132,2.794-0.308,4.164-0.366c0.112-0.013,0.196,0.078,0.201,0.185
					c0.004,0.106-0.078,0.196-0.185,0.201c-1.66,0.07-3.778,0.316-4.781,0.441c-0.269,0.262-0.408,0.492-0.465,0.605
					c1.254-0.148,3.713-0.423,5.23-0.483c0.113-0.005,0.196,0.079,0.2,0.185c0.004,0.107-0.079,0.197-0.186,0.201
					c-1.604,0.063-4.274,0.369-5.428,0.508c-0.241,0.755,0.327,0.726,4.167,0.5c3.886-0.227,3.627,0.885,3.627,0.885
					c-0.293,0.172-0.654,0.559-2.909,0.53C8.04,17.876,8.013,18.57,8.013,18.57c0.547,0.579,3.875,0.836,5.289,0.547
					c0.446-0.092,1.819-0.487,3.488-0.986c1.888-0.563,4.15-1.258,5.888-1.795v-5.75C20.146,11.707,15.223,14.953,15.223,14.953z"/>
			</g>
		</g>
	</g>
</g>
</svg>
