<?xml version="1.0" encoding="utf-8"?>
<!-- Generator: Adobe Illustrator 16.0.3, SVG Export Plug-In . SVG Version: 6.00 Build 0)  -->
<!DOCTYPE svg PUBLIC "-//W3C//DTD SVG 1.1//EN" "http://www.w3.org/Graphics/SVG/1.1/DTD/svg11.dtd">
<svg version="1.1" xmlns="http://www.w3.org/2000/svg" xmlns:xlink="http://www.w3.org/1999/xlink" x="0px" y="0px" width="22.68px"
	 height="22.68px" viewBox="0 0 22.68 22.68" enable-background="new 0 0 22.68 22.68" xml:space="preserve">
<g id="BCGRND">
</g>
<g id="BAREVNE_POZADI_IKON">
	<rect fill="#585857" width="22.68" height="22.68"/>
</g>
<g id="IKONY">
	<g>
		<g>
			<g>
				<g>
					<g>
						<rect y="11.956" fill="#FFFFFF" width="22.678" height="0.889"/>
					</g>
				</g>
			</g>
			<g>
				<path fill="#FFFFFF" d="M8.646,22.678h5.545v-0.854H8.646V22.678z M13.393,15.881c0,0,0.092-1.324-1.107-1.637
					c-2.885-0.751-2.99,2.049-2.99,2.049c-1.543-0.412-3.113,0.85-2.434,2.766c0.135,0.381,0.336,0.639,0.555,0.816
					c0.426,0.344,1.68,0.537,2.449,0.158c-0.207,0.334-0.752,0.521-1.219,0.555v0.857h5.545v-1.451
					c-1.357-0.145-1.375-0.781-1.375-0.781c0.664,0.768,1.936,0.334,2.018,0.305c0.547-0.246,1.227-0.781,1.139-1.926
					C15.828,15.717,13.393,15.881,13.393,15.881z"/>
			</g>
			<path opacity="0.5" fill="#FFFFFF" d="M3.764,18.758c0,1.436,0.409,2.775,1.105,3.92h1.203c-0.817-1.096-1.309-2.451-1.309-3.92
				c0-3.054,2.095-5.62,4.921-6.357H7.232C5.148,13.752,3.764,16.094,3.764,18.758z"/>
			<path opacity="0.5" fill="#FFFFFF" d="M17.916,18.758c0,1.47-0.491,2.824-1.309,3.92c0.123,0,0.252,0,0.366,0h0.837
				c0.696-1.146,1.105-2.484,1.105-3.92c0-2.664-1.385-5.006-3.469-6.357h-2.452C15.821,13.137,17.916,15.704,17.916,18.758z"/>
			<path opacity="0.5" fill="#FFFFFF" d="M3.29,22.678c-0.58-1.186-0.915-2.513-0.915-3.92c0-2.399,0.97-4.68,2.662-6.357H3.685
				c-1.475,1.776-2.31,4.015-2.31,6.357c0,1.352,0.273,2.641,0.763,3.817c0.231,0.061,0.47,0.104,0.719,0.104H3.29z"/>
			<path opacity="0.5" fill="#FFFFFF" d="M18.994,12.401h-1.353c1.691,1.678,2.661,3.962,2.661,6.357
				c0,1.407-0.335,2.734-0.915,3.92h0.434c0.249,0,0.487-0.042,0.719-0.104c0.489-1.176,0.763-2.465,0.763-3.817
				C21.303,16.42,20.468,14.177,18.994,12.401z"/>
		</g>
		<g>
			<g>
				<path fill="#FFFFFF" d="M8.644,5.189c-0.142,0.073-0.454,0.146-0.85,0.146c-1.045,0-1.68-0.654-1.68-1.655
					c0-1.084,0.752-1.738,1.758-1.738c0.396,0,0.679,0.083,0.801,0.146L8.541,2.567C8.385,2.499,8.17,2.44,7.896,2.44
					c-0.669,0-1.152,0.42-1.152,1.211c0,0.723,0.425,1.187,1.147,1.187c0.244,0,0.498-0.049,0.654-0.122L8.644,5.189z"/>
				<path fill="#FFFFFF" d="M11.318,4.076c0,0.874-0.615,1.265-1.221,1.265c-0.674,0-1.191-0.464-1.191-1.226
					c0-0.781,0.512-1.26,1.23-1.26C10.844,2.855,11.318,3.353,11.318,4.076z M9.525,4.1c0,0.459,0.225,0.806,0.592,0.806
					c0.342,0,0.58-0.337,0.58-0.815c0-0.371-0.166-0.796-0.576-0.796C9.697,3.295,9.525,3.705,9.525,4.1z"/>
				<path fill="#FFFFFF" d="M14.075,4.076c0,0.874-0.615,1.265-1.221,1.265c-0.674,0-1.191-0.464-1.191-1.226
					c0-0.781,0.513-1.26,1.23-1.26C13.602,2.855,14.075,3.353,14.075,4.076z M12.283,4.1c0,0.459,0.225,0.806,0.591,0.806
					c0.342,0,0.581-0.337,0.581-0.815c0-0.371-0.166-0.796-0.576-0.796C12.454,3.295,12.283,3.705,12.283,4.1z"/>
				<path fill="#FFFFFF" d="M15.172,3.954h0.01c0.059-0.093,0.127-0.195,0.191-0.278l0.576-0.767h0.723l-0.879,0.972l1.006,1.406
					h-0.738l-0.684-1.05l-0.205,0.239v0.811h-0.6V1.82h0.6V3.954z"/>
				<path fill="#FFFFFF" d="M4.63,9.689C4.487,9.762,4.175,9.836,3.78,9.836c-1.045,0-1.68-0.654-1.68-1.655
					c0-1.084,0.752-1.738,1.758-1.738c0.395,0,0.678,0.083,0.801,0.146L4.526,7.067C4.37,6.999,4.155,6.94,3.882,6.94
					c-0.668,0-1.152,0.42-1.152,1.211c0,0.723,0.426,1.187,1.148,1.187c0.244,0,0.498-0.049,0.654-0.122L4.63,9.689z"/>
				<path fill="#FFFFFF" d="M7.304,8.576c0,0.874-0.615,1.265-1.221,1.265c-0.674,0-1.191-0.464-1.191-1.226
					c0-0.781,0.513-1.26,1.23-1.26C6.83,7.355,7.304,7.853,7.304,8.576z M5.512,8.6c0,0.459,0.225,0.806,0.591,0.806
					c0.342,0,0.581-0.337,0.581-0.815c0-0.371-0.166-0.796-0.576-0.796C5.683,7.795,5.512,8.205,5.512,8.6z"/>
				<path fill="#FFFFFF" d="M7.8,8.117c0-0.273-0.004-0.503-0.02-0.708h0.527l0.029,0.356h0.016c0.102-0.186,0.361-0.41,0.756-0.41
					c0.416,0,0.846,0.269,0.846,1.021v1.411H9.353V8.444c0-0.342-0.127-0.601-0.453-0.601c-0.24,0-0.406,0.171-0.469,0.352
					C8.411,8.249,8.405,8.322,8.405,8.39v1.396H7.8V8.117z"/>
				<path fill="#FFFFFF" d="M11.261,6.73v0.679h0.572v0.449h-0.572v1.05c0,0.288,0.078,0.439,0.309,0.439
					c0.102,0,0.18-0.015,0.234-0.029l0.01,0.459c-0.088,0.034-0.244,0.059-0.436,0.059c-0.219,0-0.404-0.073-0.518-0.195
					c-0.127-0.137-0.186-0.352-0.186-0.664V7.858h-0.342V7.409h0.342V6.872L11.261,6.73z"/>
				<path fill="#FFFFFF" d="M12.288,8.176c0-0.322-0.004-0.552-0.02-0.767h0.523l0.02,0.454h0.02
					c0.117-0.337,0.395-0.508,0.648-0.508c0.059,0,0.094,0.005,0.143,0.015v0.566c-0.049-0.01-0.104-0.02-0.176-0.02
					c-0.289,0-0.484,0.186-0.537,0.454c-0.01,0.054-0.02,0.117-0.02,0.186v1.23h-0.602V8.176z"/>
				<path fill="#FFFFFF" d="M16.245,8.576c0,0.874-0.615,1.265-1.221,1.265c-0.674,0-1.191-0.464-1.191-1.226
					c0-0.781,0.514-1.26,1.23-1.26C15.772,7.355,16.245,7.853,16.245,8.576z M14.454,8.6c0,0.459,0.225,0.806,0.59,0.806
					c0.342,0,0.582-0.337,0.582-0.815c0-0.371-0.166-0.796-0.576-0.796C14.624,7.795,14.454,8.205,14.454,8.6z"/>
				<path fill="#FFFFFF" d="M16.743,6.32h0.605v3.467h-0.605V6.32z"/>
				<path fill="#FFFFFF" d="M19.494,7.189v1.104h1.06v0.381h-1.06v1.113h-0.4V8.674h-1.06V8.293h1.06V7.189H19.494z"/>
			</g>
		</g>
	</g>
</g>
</svg>
