<?xml version="1.0" encoding="utf-8"?>
<!-- Generator: Adobe Illustrator 16.0.3, SVG Export Plug-In . SVG Version: 6.00 Build 0)  -->
<!DOCTYPE svg PUBLIC "-//W3C//DTD SVG 1.1//EN" "http://www.w3.org/Graphics/SVG/1.1/DTD/svg11.dtd">
<svg version="1.1" xmlns="http://www.w3.org/2000/svg" xmlns:xlink="http://www.w3.org/1999/xlink" x="0px" y="0px" width="22.68px"
	 height="22.68px" viewBox="0 0 22.68 22.68" enable-background="new 0 0 22.68 22.68" xml:space="preserve">
<g id="BCGRND">
</g>
<g id="BAREVNE_POZADI_IKON">
	<rect x="0" y="0" fill="#585857" width="22.676" height="22.678"/>
</g>
<g id="IKONY">
	<g>
		<g>
			<path fill="#FFFFFF" d="M8.61,5.477C8.468,5.545,8.156,5.623,7.755,5.623c-1.045,0-1.68-0.654-1.68-1.66
				c0-1.084,0.757-1.738,1.763-1.738c0.396,0,0.674,0.084,0.796,0.146L8.507,2.85C8.351,2.781,8.131,2.723,7.863,2.723
				c-0.669,0-1.152,0.42-1.152,1.211c0,0.729,0.42,1.188,1.147,1.188c0.239,0,0.493-0.049,0.654-0.117L8.61,5.477z"/>
			<path fill="#FFFFFF" d="M9.136,3.959c0-0.322-0.005-0.557-0.02-0.768h0.518l0.024,0.449h0.015
				c0.117-0.332,0.396-0.502,0.654-0.502c0.059,0,0.093,0.004,0.142,0.014v0.563c-0.054-0.01-0.107-0.016-0.181-0.016
				c-0.283,0-0.483,0.182-0.537,0.455c-0.01,0.053-0.015,0.117-0.015,0.18v1.236H9.136V3.959z"/>
			<path fill="#FFFFFF" d="M11.565,2.528c0,0.176-0.132,0.322-0.342,0.322c-0.2,0-0.332-0.146-0.332-0.322
				c0-0.186,0.137-0.326,0.337-0.326C11.433,2.201,11.56,2.342,11.565,2.528z M10.925,5.571V3.192h0.601v2.379H10.925z"/>
			<path fill="#FFFFFF" d="M12.201,5.014c0.132,0.082,0.391,0.176,0.605,0.176c0.264,0,0.381-0.113,0.381-0.27
				c0-0.16-0.098-0.238-0.391-0.346c-0.464-0.156-0.654-0.41-0.654-0.693c0-0.42,0.347-0.742,0.898-0.742
				c0.264,0,0.493,0.063,0.635,0.141l-0.122,0.42c-0.098-0.059-0.293-0.137-0.503-0.137c-0.215,0-0.332,0.107-0.332,0.254
				c0,0.152,0.112,0.221,0.415,0.332c0.435,0.152,0.63,0.371,0.635,0.723c0,0.436-0.337,0.748-0.967,0.748
				c-0.288,0-0.547-0.068-0.723-0.166L12.201,5.014z"/>
			<path fill="#FFFFFF" d="M14.313,3.983c0-0.313-0.01-0.566-0.02-0.791h0.527l0.029,0.367h0.01c0.176-0.27,0.454-0.42,0.815-0.42
				c0.547,0,1.001,0.469,1.001,1.211c0,0.859-0.542,1.273-1.084,1.273c-0.298,0-0.547-0.127-0.669-0.316h-0.01v1.23h-0.601V3.983z
				 M14.914,4.574c0,0.059,0.005,0.111,0.015,0.166c0.063,0.244,0.273,0.42,0.532,0.42c0.381,0,0.605-0.318,0.605-0.787
				c0-0.42-0.205-0.762-0.591-0.762c-0.249,0-0.479,0.182-0.542,0.445c-0.01,0.049-0.02,0.102-0.02,0.15V4.574z"/>
		</g>
		<g opacity="0.5">
			<path fill="#FFFFFF" d="M12.948,15.332c0.049,0.05,0.113,0.075,0.178,0.075c0.063,0,0.126-0.023,0.175-0.071
				c0.034-0.034,0.336-0.349,0.336-0.984c0-0.312-0.066-0.54-0.125-0.741c-0.048-0.163-0.089-0.305-0.089-0.473
				c0-0.238,0.031-0.412,0.092-0.519c0.069-0.119,0.028-0.272-0.091-0.342c-0.119-0.067-0.272-0.029-0.342,0.092
				c-0.107,0.186-0.16,0.437-0.16,0.769c0,0.239,0.055,0.429,0.109,0.612c0.054,0.186,0.105,0.361,0.105,0.602
				c0,0.421-0.179,0.618-0.189,0.63C12.852,15.078,12.851,15.235,12.948,15.332z M11.107,15.162c0.049,0.05,0.113,0.075,0.178,0.075
				c0.063,0,0.126-0.023,0.175-0.071c0.034-0.034,0.336-0.349,0.336-0.984c0-0.312-0.066-0.54-0.125-0.741
				c-0.048-0.163-0.089-0.305-0.089-0.473c0-0.238,0.031-0.412,0.092-0.519c0.069-0.119,0.028-0.272-0.091-0.342
				c-0.119-0.067-0.272-0.029-0.342,0.092c-0.107,0.186-0.16,0.437-0.16,0.769c0,0.239,0.055,0.429,0.109,0.612
				c0.054,0.186,0.105,0.361,0.105,0.602c0,0.421-0.179,0.618-0.189,0.63C11.011,14.908,11.01,15.065,11.107,15.162z M9.266,15.332
				c0.049,0.05,0.113,0.075,0.178,0.075c0.063,0,0.126-0.023,0.175-0.071c0.034-0.034,0.336-0.349,0.336-0.984
				c0-0.312-0.066-0.54-0.125-0.741c-0.048-0.163-0.089-0.305-0.089-0.473c0-0.238,0.031-0.412,0.092-0.519
				c0.069-0.119,0.028-0.272-0.091-0.342c-0.12-0.067-0.272-0.029-0.342,0.092c-0.107,0.186-0.16,0.437-0.16,0.769
				c0,0.239,0.055,0.429,0.109,0.612c0.054,0.186,0.105,0.361,0.105,0.602c0,0.421-0.179,0.618-0.189,0.63
				C9.171,15.078,9.17,15.235,9.266,15.332z M15.262,15.425c0.098-0.155,0.216-0.416,0.216-0.819c0-0.312-0.066-0.54-0.125-0.74
				c-0.048-0.164-0.089-0.305-0.089-0.473c0-0.238,0.031-0.412,0.092-0.517c0.07-0.119,0.029-0.272-0.09-0.342
				c-0.119-0.071-0.272-0.029-0.342,0.09c-0.108,0.185-0.16,0.437-0.16,0.769c0,0.239,0.055,0.429,0.109,0.612
				c0.054,0.186,0.105,0.36,0.105,0.601c0,0.422-0.179,0.619-0.189,0.631c-0.052,0.052-0.07,0.12-0.066,0.188H7.899
				c0.098-0.155,0.216-0.416,0.216-0.819c0-0.312-0.066-0.54-0.125-0.74c-0.048-0.164-0.089-0.305-0.089-0.473
				c0-0.238,0.031-0.412,0.092-0.517c0.07-0.119,0.029-0.272-0.09-0.342c-0.119-0.071-0.272-0.029-0.342,0.09
				c-0.108,0.185-0.16,0.437-0.16,0.769c0,0.239,0.055,0.429,0.109,0.612c0.054,0.186,0.105,0.36,0.105,0.601
				c0,0.422-0.179,0.619-0.189,0.631c-0.052,0.052-0.07,0.12-0.066,0.188H5.901c0,0,1.323,1.662,1.937,2.279h7.155
				c0.614-0.617,1.937-2.279,1.937-2.279H15.262z"/>
		</g>
		<path fill="#FFFFFF" d="M22.678,7.77H0.001v0.889h3.219C3.127,8.804,3.06,8.966,3.06,9.151c0,0.518,0.936,2.182,0.936,2.182
			S4.93,9.668,4.93,9.151c0-0.185-0.067-0.347-0.159-0.492h0.895c-0.093,0.146-0.16,0.308-0.16,0.492
			c0,0.518,0.937,2.182,0.937,2.182S7.38,9.668,7.38,9.151c0-0.185-0.067-0.347-0.16-0.492h0.894
			c-0.093,0.146-0.16,0.308-0.16,0.492c0,0.518,0.938,2.182,0.938,2.182s0.938-1.664,0.938-2.182c0-0.185-0.068-0.347-0.161-0.492
			h0.895c-0.093,0.146-0.16,0.308-0.16,0.492c0,0.518,0.936,2.182,0.936,2.182s0.938-1.664,0.938-2.182
			c0-0.185-0.067-0.347-0.16-0.492h0.894c-0.092,0.146-0.16,0.308-0.16,0.492c0,0.518,0.935,2.182,0.935,2.182
			s0.938-1.664,0.938-2.182c0-0.185-0.067-0.347-0.16-0.492h0.895c-0.093,0.146-0.16,0.308-0.16,0.492
			c0,0.518,0.936,2.182,0.936,2.182s0.938-1.664,0.938-2.182c0-0.185-0.067-0.347-0.16-0.492h0.895
			c-0.093,0.146-0.16,0.308-0.16,0.492c0,0.518,0.938,2.182,0.938,2.182s0.936-1.664,0.936-2.182c0-0.185-0.067-0.347-0.16-0.492
			h3.219V7.77z M7.954,21.741c0,0.517,0.42,0.937,0.938,0.937c0.516,0,0.938-0.42,0.938-0.937c0-0.518-0.938-2.182-0.938-2.182
			S7.954,21.224,7.954,21.741z M10.403,21.741c0,0.517,0.42,0.937,0.936,0.937c0.52,0,0.938-0.42,0.938-0.937
			c0-0.518-0.938-2.182-0.938-2.182S10.403,21.224,10.403,21.741z M3.06,21.741c0,0.517,0.417,0.937,0.936,0.937
			c0.518,0,0.935-0.42,0.935-0.937c0-0.518-0.935-2.182-0.935-2.182S3.06,21.224,3.06,21.741z M5.506,21.741
			c0,0.517,0.421,0.937,0.937,0.937c0.519,0,0.938-0.42,0.938-0.937c0-0.518-0.938-2.182-0.938-2.182S5.506,21.224,5.506,21.741z
			 M17.746,21.741c0,0.517,0.421,0.937,0.938,0.937s0.936-0.42,0.936-0.937c0-0.518-0.936-2.182-0.936-2.182
			S17.746,21.224,17.746,21.741z M12.85,21.741c0,0.517,0.42,0.937,0.935,0.937c0.52,0,0.938-0.42,0.938-0.937
			c0-0.518-0.938-2.182-0.938-2.182S12.85,21.224,12.85,21.741z M15.298,21.741c0,0.517,0.42,0.937,0.936,0.937
			c0.519,0,0.938-0.42,0.938-0.937c0-0.518-0.938-2.182-0.938-2.182S15.298,21.224,15.298,21.741z M17.17,15.925h1.303
			c0.276,0,0.5-0.224,0.5-0.5s-0.224-0.5-0.5-0.5H4.359c-0.276,0-0.5,0.224-0.5,0.5s0.224,0.5,0.5,0.5h1.302
			c0.361,0.449,1.31,1.617,1.822,2.132l0.146,0.147h7.571l0.146-0.147C15.861,17.542,16.808,16.374,17.17,15.925z M14.78,17.204
			H8.051c-0.312-0.335-0.742-0.846-1.1-1.279h8.929C15.523,16.359,15.093,16.869,14.78,17.204z"/>
	</g>
</g>
</svg>
