<?xml version="1.0" encoding="utf-8"?>
<!-- Generator: Adobe Illustrator 16.0.3, SVG Export Plug-In . SVG Version: 6.00 Build 0)  -->
<!DOCTYPE svg PUBLIC "-//W3C//DTD SVG 1.1//EN" "http://www.w3.org/Graphics/SVG/1.1/DTD/svg11.dtd">
<svg version="1.1" xmlns="http://www.w3.org/2000/svg" xmlns:xlink="http://www.w3.org/1999/xlink" x="0px" y="0px" width="22.68px"
	 height="22.68px" viewBox="0 0 22.68 22.68" enable-background="new 0 0 22.68 22.68" xml:space="preserve">
<g id="BCGRND">
</g>
<g id="BAREVNE_BCGRND">
	<polygon fill="#585857" points="22.678,16.336 22.678,0.001 0,0.001 0,22.679 14.117,22.679 22.678,22.679 	"/>
</g>
<g id="IKONY">
	<g>
		<g>
			<rect y="11.957" fill="#FFFFFF" width="22.678" height="0.889"/>
		</g>
		<g>
			<path fill="#FFFFFF" d="M5.126,2.04C5.39,1.996,5.727,1.972,6.083,1.972c0.615,0,1.04,0.127,1.343,0.381
				c0.317,0.259,0.513,0.649,0.513,1.211c0,0.586-0.2,1.025-0.513,1.309C7.099,5.17,6.576,5.321,5.937,5.321
				c-0.352,0-0.615-0.02-0.811-0.044V2.04z M5.727,4.828c0.083,0.015,0.21,0.015,0.332,0.015c0.781,0.005,1.245-0.425,1.245-1.26
				C7.309,2.855,6.889,2.44,6.137,2.44c-0.19,0-0.327,0.015-0.41,0.034V4.828z"/>
			<path fill="#FFFFFF" d="M9.926,5.287L9.886,5.023H9.872C9.725,5.209,9.476,5.341,9.169,5.341c-0.479,0-0.747-0.347-0.747-0.708
				c0-0.601,0.532-0.903,1.411-0.898V3.695c0-0.156-0.063-0.415-0.483-0.415c-0.234,0-0.479,0.073-0.64,0.176L8.593,3.065
				c0.176-0.107,0.483-0.21,0.859-0.21c0.762,0,0.981,0.483,0.981,1.001v0.859c0,0.215,0.01,0.425,0.034,0.571H9.926z M9.847,4.125
				c-0.425-0.01-0.83,0.083-0.83,0.444c0,0.234,0.151,0.342,0.342,0.342c0.239,0,0.415-0.156,0.469-0.327
				c0.015-0.044,0.02-0.093,0.02-0.132V4.125z M10.219,1.879L9.618,2.602H9.203l0.425-0.723H10.219z"/>
			<path fill="#FFFFFF" d="M11.218,3.676c0-0.322-0.005-0.552-0.02-0.767h0.522l0.02,0.454h0.02
				c0.117-0.337,0.396-0.508,0.649-0.508c0.059,0,0.093,0.005,0.142,0.015v0.566c-0.049-0.01-0.103-0.02-0.176-0.02
				c-0.288,0-0.483,0.186-0.537,0.454c-0.01,0.054-0.02,0.117-0.02,0.186v1.23h-0.601V3.676z"/>
			<path fill="#FFFFFF" d="M13.486,4.267c0.015,0.43,0.352,0.615,0.732,0.615c0.278,0,0.479-0.039,0.659-0.107l0.088,0.415
				c-0.205,0.083-0.488,0.146-0.83,0.146c-0.771,0-1.226-0.474-1.226-1.201c0-0.659,0.4-1.279,1.162-1.279
				c0.771,0,1.025,0.635,1.025,1.157c0,0.112-0.01,0.2-0.02,0.254H13.486z M14.531,3.847c0.005-0.22-0.093-0.581-0.493-0.581
				c-0.371,0-0.527,0.337-0.552,0.581H14.531z"/>
			<path fill="#FFFFFF" d="M16.331,3.954h0.01c0.059-0.093,0.127-0.195,0.19-0.278l0.576-0.767h0.723l-0.879,0.972l1.006,1.406
				h-0.737l-0.684-1.05l-0.205,0.239v0.811H15.73V1.82h0.601V3.954z"/>
			<path fill="#FFFFFF" d="M4.801,8.2c0-0.313-0.01-0.566-0.02-0.791h0.527l0.029,0.366h0.01c0.176-0.269,0.454-0.42,0.815-0.42
				c0.547,0,1.001,0.469,1.001,1.211c0,0.859-0.542,1.274-1.084,1.274c-0.298,0-0.547-0.127-0.669-0.317h-0.01v1.23H4.801V8.2z
				 M5.402,8.791c0,0.059,0.005,0.112,0.02,0.166c0.059,0.244,0.273,0.42,0.527,0.42c0.381,0,0.605-0.317,0.605-0.786
				c0-0.42-0.205-0.762-0.591-0.762c-0.249,0-0.479,0.181-0.537,0.444C5.411,8.322,5.402,8.376,5.402,8.425V8.791z"/>
			<path fill="#FFFFFF" d="M9.146,9.787L9.107,9.523H9.092C8.946,9.709,8.697,9.841,8.389,9.841c-0.479,0-0.747-0.347-0.747-0.708
				c0-0.601,0.532-0.903,1.411-0.898V8.195c0-0.156-0.063-0.415-0.483-0.415c-0.234,0-0.479,0.073-0.64,0.176L7.813,7.565
				c0.176-0.107,0.483-0.21,0.859-0.21c0.762,0,0.981,0.483,0.981,1.001v0.859c0,0.215,0.01,0.425,0.034,0.571H9.146z M9.068,8.625
				c-0.425-0.01-0.83,0.083-0.83,0.444c0,0.234,0.151,0.342,0.342,0.342c0.239,0,0.415-0.156,0.469-0.327
				c0.015-0.044,0.02-0.093,0.02-0.132V8.625z M9.439,6.379L8.838,7.102H8.423l0.425-0.723H9.439z"/>
			<path fill="#FFFFFF" d="M10.438,8.117c0-0.273-0.005-0.503-0.02-0.708h0.527l0.029,0.356h0.015
				c0.103-0.186,0.361-0.41,0.757-0.41c0.415,0,0.845,0.269,0.845,1.021v1.411H11.99V8.444c0-0.342-0.127-0.601-0.454-0.601
				c-0.239,0-0.405,0.171-0.469,0.352c-0.02,0.054-0.024,0.127-0.024,0.195v1.396h-0.605V8.117z"/>
			<path fill="#FFFFFF" d="M13.806,8.767c0.015,0.43,0.352,0.615,0.732,0.615c0.278,0,0.479-0.039,0.659-0.107l0.088,0.415
				c-0.205,0.083-0.488,0.146-0.83,0.146c-0.771,0-1.226-0.474-1.226-1.201c0-0.659,0.4-1.279,1.162-1.279
				c0.771,0,1.025,0.635,1.025,1.157c0,0.112-0.01,0.2-0.02,0.254H13.806z M14.851,8.347c0.005-0.22-0.093-0.581-0.493-0.581
				c-0.371,0-0.527,0.337-0.552,0.581H14.851z"/>
			<path fill="#FFFFFF" d="M16.417,7.409l0.386,1.206c0.068,0.21,0.117,0.4,0.161,0.596h0.015c0.044-0.195,0.098-0.381,0.161-0.596
				l0.376-1.206h0.635l-0.908,2.378h-0.591l-0.884-2.378H16.417z"/>
		</g>
		<g>
			<g>
				<path fill="#FFFFFF" d="M14.041,17.063h-0.376c0.601,0.334,1.243,0.629,1.788,0.726l-0.176,0.984
					c-0.759-0.135-1.628-0.562-2.385-1.004v1.445h4.017v-2.151h-2.792c-0.01,0-0.021,0.002-0.031,0.002
					C14.071,17.065,14.056,17.063,14.041,17.063z"/>
				<path fill="#FFFFFF" d="M7.402,18.773l-0.176-0.984c0.545-0.097,1.189-0.392,1.789-0.726H8.638c-0.015,0-0.03,0.002-0.045,0.002
					c-0.017,0-0.035-0.002-0.052-0.002H5.769v2.151h4.019v-1.445C9.03,18.211,8.161,18.638,7.402,18.773z"/>
				<path opacity="0.5" fill="#FFFFFF" d="M15.808,13.842c-0.271-0.176-0.58-0.265-0.918-0.265c-0.353,0-0.735,0.098-1.145,0.293
					c-0.386,0.182-0.797,0.452-1.23,0.808c-0.628,0.514-1.073,1.024-1.092,1.045l-0.084,0.096c0,0,0,0-0.001,0l-0.082-0.096
					c-0.02-0.021-0.466-0.531-1.093-1.045c-0.89-0.73-1.689-1.101-2.374-1.101c-0.339,0-0.646,0.089-0.919,0.265
					c-0.219,0.141-0.397,0.316-0.53,0.51c-0.267,0.388-0.352,0.858-0.217,1.313c0.3,1.014,1.436,1.385,2.418,1.397
					c0.017,0,0.035,0.002,0.052,0.002c0.015,0,0.03-0.002,0.045-0.002h0.378c-0.6,0.334-1.244,0.629-1.789,0.726l0.176,0.984
					c0.759-0.135,1.628-0.562,2.385-1.004v4.91h3.105v-4.91c0.757,0.443,1.626,0.869,2.385,1.004l0.176-0.984
					c-0.545-0.097-1.188-0.392-1.788-0.726h0.376c0.015,0,0.03,0.002,0.045,0.002c0.01,0,0.021-0.002,0.031-0.002
					c0.807-0.006,1.723-0.253,2.193-0.902c0.107-0.145,0.19-0.309,0.244-0.495C16.757,14.982,16.464,14.266,15.808,13.842z
					 M8.593,16.08c-0.975,0-1.431-0.374-1.523-0.693c-0.077-0.259,0.053-0.532,0.336-0.716c0.111-0.071,0.236-0.107,0.384-0.107
					c0.693,0,1.627,0.733,2.232,1.304C9.499,16.008,9.021,16.08,8.593,16.08z M15.609,15.386c-0.094,0.319-0.551,0.693-1.523,0.693
					c-0.429,0-0.906-0.071-1.43-0.212c0.605-0.571,1.54-1.304,2.233-1.304c0.147,0,0.272,0.036,0.383,0.107
					C15.556,14.854,15.686,15.127,15.609,15.386z"/>
			</g>
			<rect x="5.953" y="20.079" fill="#FFFFFF" width="3.834" height="2.6"/>
			<rect x="12.893" y="20.079" fill="#FFFFFF" width="3.834" height="2.6"/>
		</g>
	</g>
</g>
</svg>
