<?xml version="1.0" encoding="utf-8"?>
<!-- Generator: Adobe Illustrator 16.0.3, SVG Export Plug-In . SVG Version: 6.00 Build 0)  -->
<!DOCTYPE svg PUBLIC "-//W3C//DTD SVG 1.1//EN" "http://www.w3.org/Graphics/SVG/1.1/DTD/svg11.dtd">
<svg version="1.1" xmlns="http://www.w3.org/2000/svg" xmlns:xlink="http://www.w3.org/1999/xlink" x="0px" y="0px" width="22.68px"
	 height="22.68px" viewBox="0 0 22.68 22.68" enable-background="new 0 0 22.68 22.68" xml:space="preserve">
<g id="BCGRND">
</g>
<g id="BAREVNE_POZADI_IKON">
	<rect y="0" fill="#585857" width="22.676" height="22.678"/>
</g>
<g id="IKONY">
	<g>
		<g>
			<g>
				<rect x="0.003" y="14.019" fill="#FFFFFF" width="22.676" height="0.889"/>
			</g>
			<g>
				<path fill="#FFFFFF" d="M4.553,19.682c-0.211,0.078-0.621,0.186-1.055,0.186c-0.557,0-0.982-0.141-1.295-0.439
					c-0.293-0.277-0.459-0.713-0.459-1.211c0.006-1.045,0.742-1.709,1.832-1.709c0.404,0,0.723,0.084,0.873,0.156l-0.131,0.484
					c-0.182-0.084-0.4-0.143-0.748-0.143c-0.703,0-1.195,0.416-1.195,1.182c0,0.748,0.459,1.191,1.143,1.191
					c0.219,0,0.375-0.029,0.453-0.063V18.49h-0.58v-0.473h1.162V19.682z"/>
				<path fill="#FFFFFF" d="M5.602,18.813c0.014,0.43,0.346,0.615,0.732,0.615c0.277,0,0.473-0.043,0.658-0.107l0.088,0.41
					c-0.205,0.088-0.488,0.152-0.83,0.152c-0.771,0-1.225-0.475-1.225-1.201c0-0.66,0.4-1.279,1.162-1.279
					c0.771,0,1.025,0.635,1.025,1.156c0,0.113-0.01,0.201-0.02,0.254H5.602z M6.646,18.393c0.004-0.219-0.094-0.58-0.494-0.58
					c-0.371,0-0.527,0.336-0.551,0.58H6.646z"/>
				<path fill="#FFFFFF" d="M7.699,18.164c0-0.273-0.01-0.504-0.02-0.709h0.522l0.029,0.357h0.015
					c0.107-0.186,0.366-0.41,0.762-0.41c0.415,0,0.845,0.268,0.845,1.02v1.412H9.252V18.49c0-0.342-0.127-0.6-0.454-0.6
					c-0.239,0-0.405,0.17-0.469,0.352C8.31,18.291,8.3,18.364,8.3,18.432v1.402H7.699V18.164z"/>
				<path fill="#FFFFFF" d="M10.92,18.813c0.016,0.43,0.348,0.615,0.732,0.615c0.279,0,0.475-0.043,0.66-0.107l0.088,0.41
					c-0.205,0.088-0.488,0.152-0.83,0.152c-0.771,0-1.227-0.475-1.227-1.201c0-0.66,0.4-1.279,1.162-1.279
					c0.771,0,1.025,0.635,1.025,1.156c0,0.113-0.01,0.201-0.02,0.254H10.92z M11.965,18.393c0.006-0.219-0.092-0.58-0.492-0.58
					c-0.371,0-0.527,0.336-0.553,0.58H11.965z"/>
				<path fill="#FFFFFF" d="M12.994,19.278c0.131,0.082,0.391,0.176,0.605,0.176c0.264,0,0.381-0.113,0.381-0.27
					c0-0.16-0.098-0.238-0.391-0.346c-0.465-0.156-0.654-0.41-0.654-0.693c0-0.42,0.346-0.742,0.898-0.742
					c0.264,0,0.492,0.063,0.635,0.141l-0.123,0.42c-0.098-0.059-0.293-0.137-0.502-0.137c-0.215,0-0.332,0.107-0.332,0.254
					c0,0.152,0.111,0.221,0.414,0.332c0.436,0.152,0.631,0.371,0.635,0.723c0,0.436-0.336,0.748-0.967,0.748
					c-0.287,0-0.547-0.068-0.723-0.166L12.994,19.278z"/>
				<path fill="#FFFFFF" d="M15.697,16.791c0,0.176-0.133,0.322-0.342,0.322c-0.201,0-0.332-0.146-0.332-0.322
					c0-0.186,0.137-0.326,0.336-0.326C15.564,16.465,15.691,16.606,15.697,16.791z M15.057,19.834v-2.379h0.602v2.379H15.057z"/>
				<path fill="#FFFFFF" d="M16.284,19.278c0.132,0.082,0.391,0.176,0.605,0.176c0.264,0,0.381-0.113,0.381-0.27
					c0-0.16-0.098-0.238-0.391-0.346c-0.464-0.156-0.654-0.41-0.654-0.693c0-0.42,0.347-0.742,0.898-0.742
					c0.264,0,0.493,0.063,0.635,0.141l-0.122,0.42c-0.098-0.059-0.293-0.137-0.503-0.137c-0.215,0-0.332,0.107-0.332,0.254
					c0,0.152,0.112,0.221,0.415,0.332c0.435,0.152,0.63,0.371,0.635,0.723c0,0.436-0.337,0.748-0.967,0.748
					c-0.288,0-0.547-0.068-0.723-0.166L16.284,19.278z"/>
				<path fill="#FFFFFF" d="M19.686,17.237v1.104h1.059v0.381h-1.059v1.113h-0.406v-1.113h-1.059V18.34h1.059v-1.104H19.686z"/>
			</g>
		</g>
		<g>
			<g>
				<path fill="#FFFFFF" d="M10.135,7.127c-0.005-0.032-0.012-0.064-0.019-0.096C10.108,6.999,10.1,6.967,10.09,6.937
					c-0.01-0.032-0.021-0.063-0.034-0.095c-0.012-0.031-0.026-0.062-0.04-0.092C10.001,6.72,9.986,6.692,9.97,6.662
					S9.936,6.606,9.917,6.577C9.898,6.55,9.879,6.524,9.86,6.498c-0.02-0.025-0.04-0.049-0.062-0.072
					c-0.02-0.023-0.042-0.045-0.064-0.065s-0.044-0.04-0.068-0.06C9.643,6.283,9.62,6.268,9.598,6.252
					C9.573,6.239,9.551,6.225,9.526,6.213s-0.048-0.021-0.073-0.03C9.429,6.174,9.403,6.166,9.378,6.16l-1.766-0.4l0.021,3.198
					l1.747,0.449C9.408,9.414,9.434,9.42,9.46,9.424c0.025,0.002,0.05,0.005,0.074,0.005s0.049-0.001,0.071-0.005
					C9.63,9.421,9.653,9.416,9.675,9.409c0.023-0.007,0.046-0.015,0.067-0.024s0.042-0.021,0.063-0.033
					c0.02-0.012,0.039-0.025,0.058-0.041S9.899,9.279,9.917,9.26c0.018-0.018,0.035-0.037,0.051-0.058
					c0.016-0.021,0.03-0.044,0.044-0.066c0.016-0.023,0.028-0.048,0.04-0.073c0.013-0.026,0.024-0.053,0.034-0.08
					c0.012-0.027,0.02-0.055,0.027-0.083c0.007-0.028,0.014-0.058,0.02-0.087c0.005-0.029,0.008-0.059,0.011-0.091
					c0.003-0.03,0.004-0.063,0.004-0.095l0.002-1.299c0.001-0.035-0.001-0.068-0.003-0.102C10.144,7.194,10.14,7.16,10.135,7.127z
					 M10.952,1.842L5.88,3.156l0.088,7.531l5.997,1.656l0.056-7.914l4.947-1.465L10.952,1.842z M11.697,9.011
					c0,0.101-0.005,0.198-0.014,0.294c-0.008,0.096-0.021,0.189-0.037,0.279c-0.017,0.091-0.036,0.18-0.061,0.265
					s-0.052,0.168-0.083,0.247c-0.03,0.08-0.065,0.156-0.102,0.229s-0.075,0.141-0.118,0.207c-0.042,0.064-0.087,0.127-0.135,0.187
					c-0.046,0.059-0.098,0.114-0.15,0.165c-0.053,0.052-0.107,0.1-0.164,0.143c-0.058,0.044-0.117,0.084-0.178,0.119
					c-0.062,0.034-0.125,0.066-0.189,0.093c-0.066,0.026-0.133,0.05-0.202,0.067c-0.069,0.019-0.14,0.031-0.212,0.041
					c-0.071,0.008-0.145,0.012-0.218,0.01c-0.073-0.001-0.148-0.008-0.224-0.02c-0.076-0.01-0.151-0.027-0.229-0.047L6.22,10.42
					L6.142,3.54l3.234,0.677c0.078,0.016,0.157,0.037,0.233,0.063c0.078,0.026,0.153,0.057,0.229,0.093
					c0.075,0.035,0.15,0.074,0.224,0.119c0.072,0.045,0.145,0.094,0.215,0.148c0.07,0.053,0.14,0.11,0.206,0.171
					c0.065,0.061,0.13,0.124,0.193,0.191c0.062,0.067,0.121,0.138,0.179,0.211c0.059,0.074,0.114,0.151,0.167,0.231
					c0.053,0.078,0.103,0.16,0.15,0.244s0.092,0.171,0.135,0.259c0.041,0.089,0.08,0.179,0.116,0.271
					c0.036,0.093,0.069,0.188,0.102,0.283c0.03,0.097,0.057,0.195,0.079,0.293c0.023,0.099,0.043,0.198,0.058,0.299
					c0.016,0.1,0.026,0.199,0.034,0.3c0.006,0.101,0.01,0.202,0.009,0.302L11.697,9.011z M15.198,3.174
					c-0.013,0.021-0.031,0.043-0.054,0.063c-0.023,0.021-0.051,0.042-0.083,0.063c-0.031,0.02-0.068,0.041-0.111,0.061
					c-0.041,0.02-0.088,0.039-0.14,0.059c-0.052,0.019-0.107,0.037-0.168,0.055l-2.679,0.791L6.475,3.13l2.74-0.712
					C9.277,2.402,9.342,2.387,9.41,2.372c0.067-0.015,0.138-0.028,0.21-0.041c0.073-0.013,0.147-0.024,0.226-0.035
					c0.077-0.011,0.157-0.021,0.238-0.029c0.082-0.009,0.165-0.017,0.247-0.023c0.084-0.007,0.169-0.013,0.253-0.019
					c0.086-0.004,0.172-0.009,0.26-0.012c0.086-0.004,0.174-0.006,0.262-0.007c0.089-0.001,0.177-0.001,0.264-0.001
					c0.088,0,0.177,0.002,0.264,0.004c0.088,0.003,0.176,0.006,0.263,0.01c0.088,0.004,0.175,0.01,0.262,0.016
					c0.088,0.006,0.174,0.014,0.259,0.021c0.084,0.008,0.168,0.017,0.249,0.027c0.082,0.01,0.162,0.021,0.238,0.033
					c0.079,0.012,0.155,0.024,0.229,0.039l0.981,0.184c0.075,0.014,0.147,0.028,0.216,0.044s0.134,0.032,0.194,0.048
					c0.063,0.018,0.12,0.035,0.174,0.053c0.053,0.018,0.103,0.037,0.147,0.057c0.045,0.019,0.086,0.037,0.124,0.057
					c0.037,0.021,0.07,0.041,0.1,0.061c0.03,0.02,0.056,0.041,0.077,0.062s0.039,0.041,0.052,0.062
					c0.013,0.021,0.022,0.043,0.027,0.064c0.004,0.021,0.004,0.043,0,0.064S15.211,3.153,15.198,3.174z M13.3,2.994
					c-0.007-0.008-0.015-0.016-0.025-0.022c-0.01-0.007-0.021-0.014-0.034-0.021c-0.013-0.008-0.026-0.014-0.042-0.021
					c-0.017-0.006-0.033-0.012-0.05-0.019c-0.018-0.007-0.037-0.012-0.056-0.018c-0.021-0.006-0.041-0.011-0.063-0.017
					c-0.023-0.005-0.047-0.011-0.071-0.016l-0.987-0.189c-0.025-0.004-0.052-0.01-0.078-0.014c-0.028-0.004-0.054-0.008-0.082-0.012
					c-0.026-0.003-0.055-0.006-0.082-0.009c-0.029-0.003-0.058-0.005-0.087-0.007s-0.06-0.004-0.091-0.006
					c-0.03-0.001-0.061-0.002-0.093-0.003c-0.03-0.001-0.062-0.001-0.093-0.001c-0.032,0-0.063,0-0.095,0
					c-0.031,0.001-0.063,0.002-0.093,0.003c-0.031,0.001-0.061,0.003-0.092,0.004c-0.029,0.002-0.058,0.005-0.088,0.007
					C10.97,2.637,10.94,2.64,10.913,2.643s-0.054,0.006-0.079,0.01c-0.026,0.004-0.049,0.008-0.073,0.012
					c-0.023,0.004-0.047,0.008-0.067,0.014c-0.022,0.004-0.044,0.01-0.064,0.016L9.177,3.084l2.507,0.504l1.437-0.41
					c0.021-0.006,0.042-0.012,0.06-0.018s0.033-0.013,0.048-0.02c0.014-0.006,0.027-0.013,0.038-0.02
					c0.011-0.006,0.021-0.014,0.028-0.02c0.009-0.008,0.015-0.016,0.02-0.021c0.006-0.008,0.01-0.015,0.01-0.021
					c0.003-0.008,0.003-0.015,0.002-0.021c-0.002-0.008-0.003-0.014-0.008-0.021S13.307,3,13.3,2.994z"/>
			</g>
			<g>
				<g opacity="0.5">
					<path fill="#FFFFFF" d="M15.556,6.376c-0.004-0.028-0.008-0.058-0.013-0.085s-0.012-0.053-0.02-0.078
						c-0.007-0.026-0.015-0.052-0.023-0.076c-0.01-0.023-0.02-0.047-0.03-0.07c-0.011-0.021-0.022-0.043-0.034-0.063
						c-0.013-0.021-0.026-0.039-0.039-0.058c-0.014-0.019-0.028-0.035-0.044-0.05c-0.015-0.016-0.029-0.029-0.045-0.043
						c-0.017-0.012-0.032-0.022-0.049-0.032c-0.018-0.01-0.036-0.019-0.054-0.024c-0.018-0.008-0.035-0.012-0.054-0.016
						c-0.018-0.003-0.036-0.005-0.055-0.005s-0.038,0.002-0.058,0.005S15,5.789,14.98,5.797l-1.445,0.471l-0.038,3.26l1.43-0.529
						c0.021-0.008,0.042-0.018,0.063-0.027c0.021-0.011,0.041-0.023,0.06-0.036c0.02-0.013,0.037-0.027,0.056-0.043
						c0.02-0.016,0.037-0.032,0.055-0.052c0.019-0.02,0.036-0.039,0.053-0.061c0.017-0.021,0.033-0.043,0.05-0.065
						s0.032-0.047,0.046-0.071c0.015-0.025,0.029-0.051,0.044-0.078s0.027-0.056,0.039-0.084c0.013-0.029,0.025-0.059,0.036-0.088
						c0.012-0.031,0.022-0.062,0.032-0.093s0.02-0.063,0.027-0.096c0.009-0.032,0.016-0.063,0.022-0.095s0.012-0.063,0.017-0.094
						c0.004-0.031,0.008-0.063,0.01-0.094c0.003-0.032,0.004-0.063,0.005-0.095l0.022-1.263c0.001-0.033,0-0.066-0.001-0.098
						S15.559,6.406,15.556,6.376z"/>
				</g>
				<g opacity="0.5">
					<g>
						<path fill="#FFFFFF" d="M12.021,4.43l-0.058,7.92l4.835-1.93l0.169-7.457L12.021,4.43z M16.689,7.416
							c-0.001,0.095-0.006,0.189-0.015,0.283c-0.007,0.094-0.018,0.188-0.03,0.281c-0.014,0.094-0.03,0.188-0.049,0.281
							c-0.019,0.092-0.04,0.185-0.064,0.276c-0.023,0.091-0.05,0.181-0.077,0.268c-0.028,0.089-0.06,0.175-0.091,0.259
							c-0.032,0.085-0.065,0.168-0.102,0.249c-0.037,0.081-0.074,0.161-0.115,0.238c-0.039,0.077-0.082,0.153-0.126,0.226
							c-0.043,0.074-0.089,0.145-0.135,0.212c-0.047,0.067-0.095,0.132-0.146,0.194s-0.103,0.123-0.155,0.179
							c-0.054,0.057-0.108,0.11-0.164,0.159c-0.055,0.049-0.111,0.094-0.169,0.136c-0.059,0.04-0.116,0.077-0.176,0.11
							c-0.059,0.032-0.118,0.061-0.18,0.085l-2.669,1.058l0.056-7.213l2.729-0.818c0.062-0.018,0.123-0.031,0.183-0.039
							c0.061-0.009,0.12-0.012,0.177-0.011c0.059,0.002,0.115,0.009,0.171,0.021c0.055,0.011,0.109,0.027,0.163,0.049
							s0.104,0.047,0.154,0.076c0.049,0.029,0.096,0.063,0.142,0.101s0.09,0.079,0.131,0.124c0.043,0.045,0.082,0.095,0.121,0.147
							c0.038,0.053,0.073,0.108,0.107,0.167c0.032,0.06,0.064,0.123,0.095,0.188c0.028,0.065,0.057,0.133,0.081,0.205
							c0.025,0.07,0.048,0.146,0.068,0.223s0.039,0.158,0.054,0.24c0.015,0.083,0.028,0.168,0.036,0.256
							c0.011,0.087,0.017,0.176,0.021,0.268c0.004,0.091,0.005,0.184,0.002,0.279L16.689,7.416z"/>
					</g>
				</g>
			</g>
		</g>
	</g>
</g>
</svg>
