<?xml version="1.0" encoding="utf-8"?>
<!-- Generator: Adobe Illustrator 16.0.3, SVG Export Plug-In . SVG Version: 6.00 Build 0)  -->
<!DOCTYPE svg PUBLIC "-//W3C//DTD SVG 1.1//EN" "http://www.w3.org/Graphics/SVG/1.1/DTD/svg11.dtd">
<svg version="1.1" xmlns="http://www.w3.org/2000/svg" xmlns:xlink="http://www.w3.org/1999/xlink" x="0px" y="0px" width="22.68px"
	 height="22.68px" viewBox="0 0 22.68 22.68" enable-background="new 0 0 22.68 22.68" xml:space="preserve">
<g id="BCGRND">
</g>
<g id="BAREVNE_POZADI_IKON">
	<rect x="0.001" y="0" fill="#585857" width="22.677" height="22.677"/>
</g>
<g id="IKONY">
	<g>
		<g>
			<g>
				<rect x="0.003" y="14.019" fill="#FFFFFF" width="22.676" height="0.889"/>
			</g>
			<g>
				<path fill="#FFFFFF" d="M3.083,18.901L2.8,19.834H2.18l1.055-3.291h0.767l1.069,3.291H4.421l-0.298-0.934H3.083z M4.025,18.448
					l-0.259-0.811c-0.063-0.201-0.117-0.426-0.166-0.615h-0.01c-0.049,0.189-0.103,0.42-0.156,0.615l-0.254,0.811H4.025z"/>
				<path fill="#FFFFFF" d="M5.484,18.164c0-0.273-0.01-0.504-0.02-0.709h0.513l0.029,0.352h0.015
					c0.112-0.186,0.327-0.404,0.732-0.404c0.313,0,0.557,0.176,0.659,0.439h0.01c0.083-0.133,0.181-0.23,0.288-0.299
					c0.137-0.092,0.288-0.141,0.488-0.141c0.391,0,0.791,0.268,0.791,1.029v1.402H8.404V18.52c0-0.395-0.137-0.629-0.425-0.629
					c-0.205,0-0.356,0.146-0.42,0.316C7.54,18.262,7.53,18.34,7.53,18.408v1.426H6.944v-1.377c0-0.332-0.132-0.566-0.41-0.566
					c-0.225,0-0.376,0.176-0.435,0.336C6.08,18.291,6.07,18.36,6.07,18.428v1.406H5.484V18.164z"/>
				<path fill="#FFFFFF" d="M9.631,16.367h0.6v1.416h0.01c0.146-0.23,0.406-0.381,0.762-0.381c0.582,0,0.996,0.482,0.992,1.205
					c0,0.855-0.543,1.279-1.08,1.279c-0.307,0-0.58-0.117-0.752-0.41h-0.01l-0.029,0.357H9.611c0.01-0.162,0.02-0.426,0.02-0.67
					V16.367z M10.23,18.852c0,0.049,0.006,0.098,0.016,0.143c0.063,0.244,0.273,0.42,0.531,0.42c0.377,0,0.605-0.299,0.605-0.781
					c0-0.42-0.199-0.762-0.6-0.762c-0.244,0-0.469,0.176-0.533,0.439c-0.01,0.043-0.02,0.098-0.02,0.156V18.852z"/>
				<path fill="#FFFFFF" d="M13.13,16.791c0,0.176-0.132,0.322-0.342,0.322c-0.2,0-0.332-0.146-0.332-0.322
					c0-0.186,0.137-0.326,0.337-0.326C12.998,16.465,13.125,16.606,13.13,16.791z M12.49,19.834v-2.379h0.601v2.379H12.49z"/>
				<path fill="#FFFFFF" d="M14.166,18.813c0.016,0.43,0.348,0.615,0.732,0.615c0.279,0,0.475-0.043,0.66-0.107l0.088,0.41
					c-0.205,0.088-0.488,0.152-0.83,0.152c-0.771,0-1.227-0.475-1.227-1.201c0-0.66,0.4-1.279,1.162-1.279
					c0.771,0,1.025,0.635,1.025,1.156c0,0.113-0.01,0.201-0.02,0.254H14.166z M15.211,18.393c0.006-0.219-0.092-0.58-0.492-0.58
					c-0.371,0-0.527,0.336-0.553,0.58H15.211z"/>
				<path fill="#FFFFFF" d="M16.265,18.164c0-0.273-0.01-0.504-0.02-0.709h0.522l0.029,0.357h0.015
					c0.107-0.186,0.366-0.41,0.762-0.41c0.415,0,0.845,0.268,0.845,1.02v1.412h-0.601V18.49c0-0.342-0.127-0.6-0.454-0.6
					c-0.239,0-0.405,0.17-0.469,0.352c-0.02,0.049-0.029,0.121-0.029,0.189v1.402h-0.601V18.164z"/>
				<path fill="#FFFFFF" d="M19.725,16.846v0.609h0.572v0.449h-0.572v1.051c0,0.293,0.078,0.439,0.309,0.439
					c0.107,0,0.166-0.006,0.234-0.025l0.01,0.455c-0.088,0.033-0.25,0.063-0.436,0.063c-0.225,0-0.404-0.072-0.518-0.195
					c-0.131-0.137-0.189-0.355-0.189-0.668v-1.119h-0.338v-0.449h0.338v-0.443L19.725,16.846z"/>
			</g>
		</g>
		<g>
			<g>
				<path fill="#FFFFFF" d="M10.135,7.127c-0.005-0.032-0.012-0.065-0.019-0.097C10.108,6.999,10.1,6.968,10.09,6.937
					c-0.01-0.033-0.021-0.063-0.034-0.096c-0.012-0.03-0.026-0.061-0.04-0.09C10.001,6.72,9.986,6.691,9.97,6.662
					C9.953,6.633,9.936,6.605,9.917,6.577S9.879,6.524,9.86,6.498c-0.02-0.024-0.04-0.05-0.062-0.071
					c-0.02-0.023-0.042-0.045-0.064-0.066S9.69,6.32,9.666,6.302C9.643,6.284,9.62,6.268,9.598,6.253
					C9.573,6.238,9.551,6.225,9.526,6.214C9.502,6.201,9.479,6.191,9.453,6.183c-0.024-0.009-0.05-0.016-0.075-0.021L7.612,5.76
					l0.021,3.198l1.747,0.449C9.408,9.415,9.434,9.419,9.46,9.423c0.025,0.004,0.05,0.006,0.074,0.006s0.049-0.002,0.071-0.004
					C9.63,9.421,9.653,9.416,9.675,9.409c0.023-0.006,0.046-0.015,0.067-0.023c0.021-0.01,0.042-0.021,0.063-0.033
					c0.02-0.013,0.039-0.026,0.058-0.042c0.019-0.015,0.037-0.032,0.055-0.05c0.018-0.02,0.035-0.039,0.051-0.059
					c0.016-0.021,0.03-0.043,0.044-0.066c0.016-0.023,0.028-0.047,0.04-0.073c0.013-0.026,0.024-0.053,0.034-0.08
					c0.012-0.026,0.02-0.055,0.027-0.083c0.007-0.028,0.014-0.057,0.02-0.086c0.005-0.03,0.008-0.061,0.011-0.092
					c0.003-0.03,0.004-0.063,0.004-0.095l0.002-1.298c0.001-0.035-0.001-0.069-0.003-0.103C10.144,7.193,10.14,7.159,10.135,7.127z
					 M10.952,1.842L5.88,3.156l0.088,7.532l5.997,1.654l0.056-7.912l4.947-1.466L10.952,1.842z M11.697,9.011
					c0,0.1-0.005,0.199-0.014,0.294c-0.008,0.095-0.021,0.188-0.037,0.279c-0.017,0.091-0.036,0.179-0.061,0.265
					s-0.052,0.168-0.083,0.248c-0.03,0.079-0.065,0.154-0.102,0.227s-0.075,0.142-0.118,0.207c-0.042,0.066-0.087,0.129-0.135,0.188
					c-0.046,0.059-0.098,0.113-0.15,0.165s-0.107,0.101-0.164,0.144c-0.058,0.043-0.117,0.082-0.178,0.117
					c-0.062,0.035-0.125,0.066-0.189,0.094c-0.066,0.026-0.133,0.049-0.202,0.067s-0.14,0.032-0.212,0.04
					c-0.071,0.009-0.145,0.012-0.218,0.011s-0.148-0.007-0.224-0.019c-0.076-0.011-0.151-0.027-0.229-0.049L6.22,10.42L6.142,3.54
					l3.234,0.677c0.078,0.017,0.157,0.038,0.233,0.063c0.078,0.025,0.153,0.057,0.229,0.092c0.075,0.035,0.15,0.076,0.224,0.12
					c0.072,0.045,0.145,0.095,0.215,0.147c0.07,0.055,0.14,0.111,0.206,0.172c0.065,0.061,0.13,0.125,0.193,0.191
					c0.062,0.067,0.121,0.138,0.179,0.211c0.059,0.074,0.114,0.15,0.167,0.23s0.103,0.162,0.15,0.245
					c0.048,0.085,0.092,0.171,0.135,0.259c0.041,0.088,0.08,0.179,0.116,0.271c0.036,0.092,0.069,0.186,0.102,0.281
					c0.03,0.098,0.057,0.195,0.079,0.295c0.023,0.098,0.043,0.197,0.058,0.297c0.016,0.1,0.026,0.199,0.034,0.301
					c0.006,0.101,0.01,0.201,0.009,0.303L11.697,9.011z M15.198,3.173c-0.013,0.021-0.031,0.043-0.054,0.064
					c-0.023,0.021-0.051,0.043-0.083,0.063c-0.031,0.021-0.068,0.041-0.111,0.061c-0.041,0.021-0.088,0.04-0.14,0.059
					c-0.052,0.02-0.107,0.037-0.168,0.056l-2.679,0.791L6.475,3.13l2.74-0.713C9.277,2.402,9.342,2.386,9.41,2.372
					c0.067-0.016,0.138-0.028,0.21-0.041C9.693,2.32,9.768,2.308,9.846,2.296c0.077-0.011,0.157-0.021,0.238-0.029
					c0.082-0.009,0.165-0.017,0.247-0.023c0.084-0.007,0.169-0.013,0.253-0.018c0.086-0.006,0.172-0.01,0.26-0.013
					c0.086-0.003,0.174-0.005,0.262-0.007c0.089-0.001,0.177-0.002,0.264-0.001c0.088,0.001,0.177,0.002,0.264,0.005
					c0.088,0.002,0.176,0.005,0.263,0.01c0.088,0.004,0.175,0.009,0.262,0.015c0.088,0.006,0.174,0.013,0.259,0.021
					c0.084,0.008,0.168,0.017,0.249,0.026c0.082,0.011,0.162,0.021,0.238,0.033c0.079,0.013,0.155,0.025,0.229,0.039l0.981,0.184
					c0.075,0.015,0.147,0.029,0.216,0.045s0.134,0.031,0.194,0.049c0.063,0.016,0.12,0.033,0.174,0.052
					c0.053,0.019,0.103,0.036,0.147,0.056s0.086,0.039,0.124,0.059c0.037,0.02,0.07,0.039,0.1,0.059
					c0.03,0.021,0.056,0.041,0.077,0.063c0.021,0.021,0.039,0.041,0.052,0.063s0.022,0.043,0.027,0.063
					c0.004,0.021,0.004,0.043,0,0.063C15.222,3.13,15.211,3.152,15.198,3.173z M13.3,2.993c-0.007-0.007-0.015-0.014-0.025-0.021
					c-0.01-0.007-0.021-0.014-0.034-0.021c-0.013-0.006-0.026-0.014-0.042-0.02c-0.017-0.008-0.033-0.014-0.05-0.02
					c-0.018-0.006-0.037-0.012-0.056-0.018c-0.021-0.006-0.041-0.011-0.063-0.017c-0.023-0.005-0.047-0.011-0.071-0.015l-0.987-0.19
					c-0.025-0.005-0.052-0.009-0.078-0.013c-0.028-0.005-0.054-0.009-0.082-0.012c-0.026-0.004-0.055-0.007-0.082-0.01
					c-0.029-0.003-0.058-0.005-0.087-0.007c-0.029-0.003-0.06-0.004-0.091-0.005c-0.03-0.002-0.061-0.003-0.093-0.004
					c-0.03-0.001-0.062-0.002-0.093-0.002c-0.032,0-0.063,0-0.095,0.001s-0.063,0.001-0.093,0.003
					c-0.031,0.001-0.061,0.002-0.092,0.004c-0.029,0.002-0.058,0.004-0.088,0.006c-0.028,0.003-0.058,0.006-0.085,0.01
					c-0.027,0.002-0.054,0.006-0.079,0.01c-0.026,0.003-0.049,0.007-0.073,0.011c-0.023,0.005-0.047,0.009-0.067,0.014
					c-0.022,0.005-0.044,0.011-0.064,0.015L9.177,3.083l2.507,0.504l1.437-0.408c0.021-0.006,0.042-0.014,0.06-0.02
					s0.033-0.012,0.048-0.019c0.014-0.006,0.027-0.013,0.038-0.019c0.011-0.008,0.021-0.014,0.028-0.021
					c0.009-0.006,0.015-0.014,0.02-0.021c0.006-0.006,0.01-0.014,0.01-0.021c0.003-0.007,0.003-0.015,0.002-0.021
					c-0.002-0.007-0.003-0.015-0.008-0.021C13.313,3.008,13.307,3.001,13.3,2.993z"/>
			</g>
			<g>
				<g opacity="0.5">
					<path fill="#FFFFFF" d="M15.556,6.376c-0.004-0.029-0.008-0.057-0.013-0.084s-0.012-0.054-0.02-0.079
						c-0.007-0.026-0.015-0.052-0.023-0.076c-0.01-0.024-0.02-0.048-0.03-0.069c-0.011-0.022-0.022-0.044-0.034-0.064
						c-0.013-0.02-0.026-0.039-0.039-0.057c-0.014-0.019-0.028-0.035-0.044-0.05c-0.015-0.016-0.029-0.029-0.045-0.042
						c-0.017-0.012-0.032-0.023-0.049-0.033c-0.018-0.01-0.036-0.018-0.054-0.025c-0.018-0.006-0.035-0.012-0.054-0.015
						c-0.018-0.003-0.036-0.005-0.055-0.005s-0.038,0.002-0.058,0.005S15,5.79,14.98,5.796l-1.445,0.472l-0.038,3.26l1.43-0.529
						c0.021-0.009,0.042-0.018,0.063-0.027c0.021-0.011,0.041-0.022,0.06-0.036c0.02-0.014,0.037-0.027,0.056-0.043
						c0.02-0.016,0.037-0.033,0.055-0.051c0.019-0.02,0.036-0.04,0.053-0.061c0.017-0.021,0.033-0.043,0.05-0.066
						c0.017-0.022,0.032-0.047,0.046-0.071c0.015-0.024,0.029-0.052,0.044-0.079s0.027-0.055,0.039-0.084
						c0.013-0.028,0.025-0.057,0.036-0.088c0.012-0.029,0.022-0.061,0.032-0.092s0.02-0.063,0.027-0.096
						c0.009-0.031,0.016-0.063,0.022-0.095c0.007-0.031,0.012-0.063,0.017-0.095c0.004-0.03,0.008-0.063,0.01-0.093
						c0.003-0.032,0.004-0.063,0.005-0.095l0.022-1.262c0.001-0.035,0-0.066-0.001-0.099C15.561,6.436,15.559,6.406,15.556,6.376z"
						/>
				</g>
				<g opacity="0.5">
					<g>
						<path fill="#FFFFFF" d="M12.021,4.431l-0.058,7.918l4.835-1.928l0.169-7.458L12.021,4.431z M16.689,7.415
							c-0.001,0.096-0.006,0.189-0.015,0.284c-0.007,0.094-0.018,0.188-0.03,0.282c-0.014,0.094-0.03,0.188-0.049,0.279
							c-0.019,0.094-0.04,0.186-0.064,0.277c-0.023,0.091-0.05,0.18-0.077,0.268c-0.028,0.088-0.06,0.174-0.091,0.259
							c-0.032,0.085-0.065,0.167-0.102,0.249c-0.037,0.082-0.074,0.16-0.115,0.238c-0.039,0.078-0.082,0.153-0.126,0.227
							c-0.043,0.072-0.089,0.143-0.135,0.211c-0.047,0.067-0.095,0.133-0.146,0.195s-0.103,0.121-0.155,0.178
							c-0.054,0.057-0.108,0.11-0.164,0.159c-0.055,0.05-0.111,0.095-0.169,0.136c-0.059,0.041-0.116,0.078-0.176,0.11
							c-0.059,0.032-0.118,0.062-0.18,0.085l-2.669,1.059l0.056-7.215l2.729-0.816c0.062-0.019,0.123-0.031,0.183-0.041
							c0.061-0.008,0.12-0.012,0.177-0.01c0.059,0.002,0.115,0.008,0.171,0.02c0.055,0.012,0.109,0.029,0.163,0.05
							c0.054,0.021,0.104,0.046,0.154,0.076c0.049,0.029,0.096,0.063,0.142,0.101s0.09,0.078,0.131,0.124
							c0.043,0.046,0.082,0.095,0.121,0.147c0.038,0.053,0.073,0.108,0.107,0.168c0.032,0.059,0.064,0.121,0.095,0.187
							c0.028,0.065,0.057,0.134,0.081,0.205c0.025,0.071,0.048,0.146,0.068,0.222c0.021,0.078,0.039,0.159,0.054,0.242
							c0.015,0.082,0.028,0.167,0.036,0.254c0.011,0.088,0.017,0.177,0.021,0.268c0.004,0.092,0.005,0.186,0.002,0.281L16.689,7.415
							z"/>
					</g>
				</g>
			</g>
		</g>
	</g>
</g>
</svg>
