<?xml version="1.0" encoding="utf-8"?>
<!-- Generator: Adobe Illustrator 16.0.3, SVG Export Plug-In . SVG Version: 6.00 Build 0)  -->
<!DOCTYPE svg PUBLIC "-//W3C//DTD SVG 1.1//EN" "http://www.w3.org/Graphics/SVG/1.1/DTD/svg11.dtd">
<svg version="1.1" xmlns="http://www.w3.org/2000/svg" xmlns:xlink="http://www.w3.org/1999/xlink" x="0px" y="0px" width="22.68px"
	 height="22.68px" viewBox="0 0 22.68 22.68" enable-background="new 0 0 22.68 22.68" xml:space="preserve">
<g id="BCGRND">
</g>
<g id="BAREVNE_POZADI_IKON">
	<rect y="0" fill="#585857" width="22.676" height="22.678"/>
</g>
<g id="IKONY">
	<g>
		<g>
			<g>
				<rect x="0.003" y="14.02" fill="#FFFFFF" width="22.676" height="0.889"/>
			</g>
			<g>
				<g>
					<path fill="#FFFFFF" d="M2.419,16.588c0.264-0.044,0.601-0.068,0.957-0.068c0.615,0,1.04,0.127,1.343,0.381
						c0.317,0.259,0.513,0.649,0.513,1.211c0,0.586-0.2,1.025-0.513,1.309c-0.327,0.298-0.85,0.449-1.489,0.449
						c-0.352,0-0.615-0.02-0.811-0.044V16.588z M3.02,19.376c0.083,0.015,0.21,0.015,0.332,0.015
						c0.781,0.005,1.245-0.425,1.245-1.26c0.005-0.728-0.415-1.143-1.167-1.143c-0.19,0-0.327,0.015-0.41,0.034V19.376z"/>
					<path fill="#FFFFFF" d="M6.159,18.815c0.014,0.43,0.352,0.615,0.732,0.615c0.277,0,0.479-0.039,0.658-0.107l0.088,0.415
						c-0.205,0.083-0.488,0.146-0.83,0.146c-0.771,0-1.225-0.474-1.225-1.201c0-0.659,0.4-1.279,1.162-1.279
						c0.771,0,1.025,0.635,1.025,1.157c0,0.112-0.01,0.2-0.02,0.254H6.159z M7.204,18.395c0.004-0.22-0.094-0.581-0.494-0.581
						c-0.371,0-0.527,0.337-0.551,0.581H7.204z"/>
					<path fill="#FFFFFF" d="M8.228,19.283c0.137,0.083,0.395,0.171,0.609,0.171c0.264,0,0.381-0.107,0.381-0.264
						c0-0.161-0.098-0.244-0.391-0.347c-0.463-0.161-0.658-0.415-0.654-0.693c0-0.42,0.348-0.747,0.898-0.747
						c0.264,0,0.494,0.068,0.631,0.142L9.585,17.97c-0.104-0.059-0.293-0.137-0.504-0.137c-0.215,0-0.332,0.103-0.332,0.249
						c0,0.151,0.113,0.225,0.416,0.332c0.43,0.156,0.629,0.376,0.635,0.728c0,0.43-0.338,0.742-0.967,0.742
						c-0.289,0-0.547-0.068-0.723-0.166L8.228,19.283z"/>
					<path fill="#FFFFFF" d="M10.935,16.793c0,0.181-0.132,0.322-0.342,0.322c-0.2,0-0.332-0.142-0.332-0.322
						c0-0.186,0.137-0.327,0.337-0.327C10.803,16.466,10.93,16.608,10.935,16.793z M10.295,19.835v-2.378H10.9v2.378H10.295z"/>
					<path fill="#FFFFFF" d="M13.72,17.457c-0.01,0.161-0.02,0.356-0.02,0.684v1.348c0,0.498-0.104,0.854-0.352,1.079
						c-0.25,0.22-0.592,0.288-0.918,0.288c-0.303,0-0.625-0.063-0.83-0.19l0.131-0.454c0.152,0.088,0.406,0.181,0.693,0.181
						c0.391,0,0.684-0.205,0.684-0.718v-0.205h-0.01c-0.137,0.21-0.381,0.352-0.693,0.352c-0.59,0-1.01-0.488-1.01-1.162
						c0-0.781,0.508-1.255,1.078-1.255c0.361,0,0.576,0.176,0.689,0.371h0.01l0.023-0.317H13.72z M13.099,18.409
						c0-0.054-0.004-0.112-0.02-0.161c-0.063-0.22-0.234-0.386-0.488-0.386c-0.336,0-0.586,0.293-0.586,0.776
						c0,0.405,0.205,0.732,0.582,0.732c0.225,0,0.42-0.146,0.488-0.361c0.014-0.063,0.023-0.146,0.023-0.215V18.409z"/>
					<path fill="#FFFFFF" d="M14.329,18.165c0-0.273-0.006-0.503-0.02-0.708h0.527l0.029,0.356h0.014
						c0.104-0.186,0.361-0.41,0.758-0.41c0.414,0,0.844,0.269,0.844,1.021v1.411h-0.6v-1.343c0-0.342-0.127-0.601-0.455-0.601
						c-0.238,0-0.404,0.171-0.469,0.352c-0.02,0.054-0.023,0.127-0.023,0.195v1.396h-0.605V18.165z"/>
					<path fill="#FFFFFF" d="M20.207,16.661v0.386l-1.343,2.788h-0.635l1.338-2.666v-0.01h-1.494v-0.498H20.207z"/>
				</g>
			</g>
		</g>
		<g>
			<path fill="#FFFFFF" d="M10.135,7.128c-0.005-0.032-0.012-0.064-0.019-0.096C10.108,7,10.1,6.969,10.09,6.938
				c-0.01-0.032-0.021-0.063-0.034-0.095c-0.012-0.031-0.026-0.062-0.04-0.091c-0.015-0.031-0.029-0.06-0.046-0.089
				S9.936,6.607,9.917,6.578C9.898,6.551,9.879,6.525,9.86,6.499C9.841,6.475,9.82,6.45,9.799,6.428
				c-0.02-0.023-0.042-0.045-0.064-0.066C9.712,6.341,9.69,6.322,9.666,6.303C9.643,6.285,9.62,6.269,9.598,6.254
				C9.573,6.24,9.551,6.226,9.526,6.215C9.502,6.202,9.479,6.193,9.453,6.184c-0.024-0.009-0.05-0.016-0.075-0.021L7.612,5.761
				l0.021,3.198l1.747,0.449C9.408,9.416,9.434,9.421,9.46,9.425C9.485,9.428,9.51,9.43,9.534,9.43s0.049-0.001,0.071-0.004
				C9.63,9.422,9.653,9.417,9.675,9.41c0.023-0.006,0.046-0.015,0.067-0.023c0.021-0.01,0.042-0.021,0.063-0.033
				c0.02-0.013,0.039-0.026,0.058-0.042c0.019-0.015,0.037-0.032,0.055-0.05c0.018-0.019,0.035-0.038,0.051-0.059
				c0.016-0.021,0.03-0.043,0.044-0.066c0.016-0.023,0.028-0.047,0.04-0.073c0.013-0.026,0.024-0.053,0.034-0.08
				c0.012-0.026,0.02-0.055,0.027-0.083c0.007-0.028,0.014-0.057,0.02-0.086c0.005-0.03,0.008-0.06,0.011-0.092
				c0.003-0.03,0.004-0.063,0.004-0.095l0.002-1.298c0.001-0.035-0.001-0.069-0.003-0.103C10.144,7.195,10.14,7.161,10.135,7.128z
				 M10.952,1.843L5.88,3.157l0.088,7.532l5.997,1.655l0.056-7.913l4.947-1.466L10.952,1.843z M11.697,9.012
				c0,0.101-0.005,0.199-0.014,0.294c-0.008,0.096-0.021,0.189-0.037,0.279c-0.017,0.091-0.036,0.18-0.061,0.265
				c-0.024,0.086-0.052,0.168-0.083,0.248c-0.03,0.079-0.065,0.155-0.102,0.228s-0.075,0.141-0.118,0.207
				c-0.042,0.065-0.087,0.128-0.135,0.187c-0.046,0.059-0.098,0.114-0.15,0.165c-0.053,0.052-0.107,0.101-0.164,0.144
				c-0.058,0.043-0.117,0.083-0.178,0.118c-0.062,0.034-0.125,0.066-0.189,0.093c-0.066,0.026-0.133,0.05-0.202,0.067
				c-0.069,0.019-0.14,0.032-0.212,0.041c-0.071,0.008-0.145,0.012-0.218,0.01c-0.073-0.001-0.148-0.007-0.224-0.019
				c-0.076-0.011-0.151-0.027-0.229-0.048L6.22,10.421l-0.078-6.88l3.234,0.677c0.078,0.017,0.157,0.038,0.233,0.063
				c0.078,0.026,0.153,0.057,0.229,0.093c0.075,0.035,0.15,0.075,0.224,0.119c0.072,0.045,0.145,0.095,0.215,0.148
				s0.14,0.11,0.206,0.171c0.065,0.061,0.13,0.125,0.193,0.191c0.062,0.067,0.121,0.138,0.179,0.211
				c0.059,0.074,0.114,0.151,0.167,0.231c0.053,0.079,0.103,0.161,0.15,0.244c0.048,0.085,0.092,0.171,0.135,0.259
				c0.041,0.089,0.08,0.179,0.116,0.271c0.036,0.092,0.069,0.187,0.102,0.282c0.03,0.097,0.057,0.195,0.079,0.294
				c0.023,0.098,0.043,0.197,0.058,0.298c0.016,0.1,0.026,0.199,0.034,0.3c0.006,0.101,0.01,0.202,0.009,0.303L11.697,9.012z
				 M15.198,3.175c-0.013,0.021-0.031,0.043-0.054,0.063c-0.023,0.021-0.051,0.043-0.083,0.063
				c-0.031,0.021-0.068,0.041-0.111,0.061c-0.041,0.02-0.088,0.039-0.14,0.059c-0.052,0.019-0.107,0.037-0.168,0.055l-2.679,0.791
				L6.475,3.131l2.74-0.712C9.277,2.403,9.342,2.388,9.41,2.373c0.067-0.015,0.138-0.028,0.21-0.041
				c0.073-0.012,0.147-0.023,0.226-0.035c0.077-0.011,0.157-0.021,0.238-0.029c0.082-0.009,0.165-0.017,0.247-0.023
				c0.084-0.007,0.169-0.013,0.253-0.018c0.086-0.005,0.172-0.01,0.26-0.013c0.086-0.003,0.174-0.005,0.262-0.007
				c0.089-0.001,0.177-0.001,0.264-0.001c0.088,0.001,0.177,0.002,0.264,0.005c0.088,0.002,0.176,0.005,0.263,0.01
				c0.088,0.004,0.175,0.009,0.262,0.015c0.088,0.006,0.174,0.014,0.259,0.021c0.084,0.008,0.168,0.017,0.249,0.027
				c0.082,0.01,0.162,0.021,0.238,0.033c0.079,0.012,0.155,0.024,0.229,0.039l0.981,0.184c0.075,0.014,0.147,0.028,0.216,0.044
				s0.134,0.032,0.194,0.049c0.063,0.017,0.12,0.034,0.174,0.052c0.053,0.019,0.103,0.037,0.147,0.057
				c0.045,0.019,0.086,0.038,0.124,0.058c0.037,0.02,0.07,0.04,0.1,0.06c0.03,0.02,0.056,0.041,0.077,0.062s0.039,0.041,0.052,0.063
				s0.022,0.043,0.027,0.063c0.004,0.021,0.004,0.043,0,0.064S15.211,3.154,15.198,3.175z M13.3,2.995
				c-0.007-0.008-0.015-0.015-0.025-0.022c-0.01-0.007-0.021-0.014-0.034-0.021s-0.026-0.014-0.042-0.021
				c-0.017-0.007-0.033-0.013-0.05-0.02c-0.018-0.006-0.037-0.012-0.056-0.018c-0.021-0.006-0.041-0.011-0.063-0.017
				c-0.023-0.005-0.047-0.011-0.071-0.015l-0.987-0.19c-0.025-0.004-0.052-0.009-0.078-0.013c-0.028-0.005-0.054-0.009-0.082-0.012
				c-0.026-0.004-0.055-0.007-0.082-0.01c-0.029-0.003-0.058-0.005-0.087-0.007s-0.06-0.004-0.091-0.005
				c-0.03-0.002-0.061-0.003-0.093-0.004c-0.03-0.001-0.062-0.001-0.093-0.001c-0.032,0-0.063,0-0.095,0
				c-0.031,0.001-0.063,0.002-0.093,0.003c-0.031,0.001-0.061,0.003-0.092,0.004c-0.029,0.002-0.058,0.005-0.088,0.007
				c-0.028,0.002-0.058,0.005-0.085,0.009c-0.027,0.002-0.054,0.006-0.079,0.01c-0.026,0.003-0.049,0.007-0.073,0.011
				c-0.023,0.005-0.047,0.009-0.067,0.014c-0.022,0.005-0.044,0.011-0.064,0.016L9.177,3.085l2.507,0.504L13.12,3.18
				c0.021-0.006,0.042-0.013,0.06-0.019s0.033-0.013,0.048-0.02c0.014-0.006,0.027-0.013,0.038-0.019
				c0.011-0.007,0.021-0.014,0.028-0.021c0.009-0.007,0.015-0.015,0.02-0.021c0.006-0.007,0.01-0.015,0.01-0.021
				c0.003-0.007,0.003-0.015,0.002-0.021c-0.002-0.007-0.003-0.014-0.008-0.021S13.307,3.002,13.3,2.995z"/>
			<g>
				<path fill="#FFFFFF" fill-opacity="0.5" d="M15.556,6.377c-0.004-0.028-0.008-0.057-0.013-0.084s-0.012-0.054-0.02-0.079
					c-0.007-0.026-0.015-0.052-0.023-0.076c-0.01-0.023-0.02-0.047-0.03-0.069s-0.022-0.044-0.034-0.063
					c-0.013-0.021-0.026-0.039-0.039-0.058c-0.014-0.019-0.028-0.035-0.044-0.05c-0.015-0.016-0.029-0.029-0.045-0.042
					c-0.017-0.012-0.032-0.023-0.049-0.033c-0.018-0.01-0.036-0.018-0.054-0.024s-0.035-0.012-0.054-0.016
					c-0.018-0.003-0.036-0.005-0.055-0.005s-0.038,0.002-0.058,0.005S15,5.791,14.98,5.798l-1.445,0.471l-0.038,3.26l1.43-0.529
					c0.021-0.008,0.042-0.018,0.063-0.027c0.021-0.011,0.041-0.022,0.06-0.036c0.02-0.013,0.037-0.027,0.056-0.043
					c0.02-0.016,0.037-0.032,0.055-0.051c0.019-0.02,0.036-0.04,0.053-0.061c0.017-0.021,0.033-0.043,0.05-0.066
					c0.017-0.022,0.032-0.047,0.046-0.071c0.015-0.024,0.029-0.051,0.044-0.078s0.027-0.056,0.039-0.084
					c0.013-0.029,0.025-0.058,0.036-0.088c0.012-0.03,0.022-0.062,0.032-0.093s0.02-0.063,0.027-0.096
					c0.009-0.031,0.016-0.063,0.022-0.095c0.007-0.031,0.012-0.063,0.017-0.094c0.004-0.031,0.008-0.063,0.01-0.094
					c0.003-0.032,0.004-0.063,0.005-0.095l0.022-1.262c0.001-0.034,0-0.066-0.001-0.099C15.561,6.437,15.559,6.407,15.556,6.377z"/>
				<path fill="#FFFFFF" fill-opacity="0.5" d="M12.021,4.432l-0.058,7.919l4.835-1.929l0.169-7.458L12.021,4.432z M16.689,7.417
					c-0.001,0.095-0.006,0.189-0.015,0.283c-0.007,0.094-0.018,0.188-0.03,0.282c-0.014,0.094-0.03,0.188-0.049,0.28
					s-0.04,0.185-0.064,0.276c-0.023,0.091-0.05,0.181-0.077,0.268c-0.028,0.089-0.06,0.175-0.091,0.259
					c-0.032,0.085-0.065,0.168-0.102,0.249c-0.037,0.082-0.074,0.161-0.115,0.238c-0.039,0.078-0.082,0.153-0.126,0.227
					c-0.043,0.073-0.089,0.144-0.135,0.211c-0.047,0.067-0.095,0.133-0.146,0.195s-0.103,0.122-0.155,0.178
					c-0.054,0.057-0.108,0.11-0.164,0.159c-0.055,0.05-0.111,0.095-0.169,0.136c-0.059,0.041-0.116,0.078-0.176,0.11
					c-0.059,0.032-0.118,0.062-0.18,0.085l-2.669,1.059l0.056-7.214l2.729-0.817c0.062-0.019,0.123-0.031,0.183-0.04
					c0.061-0.009,0.12-0.012,0.177-0.011c0.059,0.002,0.115,0.009,0.171,0.021c0.055,0.011,0.109,0.028,0.163,0.049
					c0.054,0.021,0.104,0.047,0.154,0.076c0.049,0.029,0.096,0.063,0.142,0.101c0.046,0.038,0.09,0.079,0.131,0.124
					c0.043,0.046,0.082,0.095,0.121,0.147c0.038,0.053,0.073,0.108,0.107,0.168c0.032,0.059,0.064,0.122,0.095,0.187
					c0.028,0.065,0.057,0.134,0.081,0.205c0.025,0.071,0.048,0.146,0.068,0.223s0.039,0.158,0.054,0.241
					c0.015,0.082,0.028,0.167,0.036,0.255c0.011,0.087,0.017,0.176,0.021,0.268c0.004,0.091,0.005,0.185,0.002,0.28L16.689,7.417z"
					/>
			</g>
		</g>
	</g>
</g>
</svg>
