<?xml version="1.0" encoding="utf-8"?>
<!-- Generator: Adobe Illustrator 16.0.3, SVG Export Plug-In . SVG Version: 6.00 Build 0)  -->
<!DOCTYPE svg PUBLIC "-//W3C//DTD SVG 1.1//EN" "http://www.w3.org/Graphics/SVG/1.1/DTD/svg11.dtd">
<svg version="1.1" xmlns="http://www.w3.org/2000/svg" xmlns:xlink="http://www.w3.org/1999/xlink" x="0px" y="0px" width="22.68px"
	 height="22.68px" viewBox="0 0 22.68 22.68" enable-background="new 0 0 22.68 22.68" xml:space="preserve">
<g id="BCGRND">
</g>
<g id="BAREVNE_POZADI_IKON">
	<rect y="0" fill="#585857" width="22.676" height="22.678"/>
</g>
<g id="IKONY">
	<g>
		<g>
			<rect x="0.001" y="11.956" fill="#FFFFFF" width="22.678" height="0.889"/>
		</g>
		<g>
			<path fill="#FFFFFF" d="M5.074,2.039C5.343,2,5.675,1.971,6.031,1.971c0.615,0,1.035,0.127,1.338,0.381
				c0.322,0.26,0.518,0.654,0.518,1.211c0,0.592-0.2,1.025-0.513,1.309C7.047,5.17,6.524,5.321,5.885,5.321
				c-0.347,0-0.61-0.02-0.811-0.043V2.039z M5.675,4.832c0.083,0.016,0.21,0.016,0.332,0.016c0.781,0.004,1.245-0.43,1.245-1.266
				C7.257,2.86,6.837,2.44,6.085,2.44c-0.19,0-0.322,0.016-0.41,0.035V4.832z"/>
			<path fill="#FFFFFF" d="M9.141,2.244c0,0.176-0.132,0.322-0.342,0.322c-0.2,0-0.332-0.146-0.332-0.322
				c0-0.186,0.137-0.326,0.337-0.326C9.009,1.918,9.136,2.059,9.141,2.244z M8.501,5.287V2.908h0.601v2.379H8.501z"/>
			<path fill="#FFFFFF" d="M9.851,3.676c0-0.322-0.005-0.557-0.02-0.768h0.518l0.024,0.449h0.015
				c0.117-0.332,0.396-0.502,0.654-0.502c0.059,0,0.093,0.004,0.142,0.014v0.563c-0.054-0.01-0.107-0.016-0.181-0.016
				c-0.283,0-0.483,0.182-0.537,0.455c-0.01,0.053-0.015,0.117-0.015,0.18v1.236H9.851V3.676z"/>
			<path fill="#FFFFFF" d="M12.07,4.266c0.015,0.43,0.347,0.615,0.732,0.615c0.278,0,0.474-0.043,0.659-0.107l0.088,0.41
				c-0.205,0.088-0.488,0.152-0.83,0.152c-0.771,0-1.226-0.475-1.226-1.201c0-0.66,0.4-1.279,1.162-1.279
				c0.771,0,1.025,0.635,1.025,1.156c0,0.113-0.01,0.201-0.02,0.254H12.07z M13.115,3.846c0.005-0.219-0.093-0.58-0.493-0.58
				c-0.371,0-0.527,0.336-0.552,0.58H13.115z"/>
			<path fill="#FFFFFF" d="M16.014,5.213c-0.127,0.059-0.376,0.123-0.674,0.123c-0.742,0-1.226-0.479-1.226-1.217
				c0-0.713,0.488-1.264,1.323-1.264c0.22,0,0.444,0.049,0.581,0.107l-0.107,0.453c-0.098-0.049-0.239-0.092-0.454-0.092
				c-0.459,0-0.732,0.336-0.728,0.771c0,0.488,0.317,0.766,0.728,0.766c0.205,0,0.356-0.043,0.474-0.092L16.014,5.213z"/>
			<path fill="#FFFFFF" d="M17.32,2.299v0.609h0.571v0.449H17.32v1.051c0,0.293,0.078,0.439,0.308,0.439
				c0.107,0,0.166-0.006,0.234-0.025l0.01,0.455c-0.088,0.033-0.249,0.063-0.435,0.063c-0.225,0-0.405-0.072-0.518-0.195
				c-0.132-0.137-0.19-0.355-0.19-0.668V3.358h-0.337V2.908h0.337V2.465L17.32,2.299z"/>
			<path fill="#FFFFFF" d="M5.118,6.496h1.904v0.492H5.719v0.908H6.93v0.488H5.719v1.402H5.118V6.496z"/>
			<path fill="#FFFFFF" d="M7.602,6.321h0.601v3.467H7.602V6.321z"/>
			<path fill="#FFFFFF" d="M10.802,9.215c0,0.215,0.01,0.426,0.039,0.572h-0.542l-0.044-0.264H10.24
				C10.099,9.709,9.85,9.84,9.537,9.84c-0.479,0-0.747-0.346-0.747-0.707c0-0.596,0.532-0.904,1.411-0.898V8.196
				c0-0.156-0.063-0.416-0.483-0.416c-0.234,0-0.479,0.074-0.64,0.176L8.961,7.565C9.137,7.457,9.444,7.356,9.82,7.356
				c0.762,0,0.981,0.482,0.981,1.006V9.215z M10.216,8.625c-0.425-0.006-0.83,0.082-0.83,0.443c0,0.234,0.151,0.342,0.342,0.342
				c0.244,0,0.415-0.156,0.474-0.326c0.015-0.045,0.015-0.088,0.015-0.133V8.625z"/>
			<path fill="#FFFFFF" d="M11.537,8.117c0-0.273-0.01-0.504-0.02-0.709h0.513L12.06,7.76h0.015
				c0.112-0.186,0.327-0.404,0.732-0.404c0.313,0,0.557,0.176,0.659,0.439h0.01c0.083-0.133,0.181-0.23,0.288-0.299
				c0.137-0.092,0.288-0.141,0.488-0.141c0.391,0,0.791,0.268,0.791,1.029v1.402h-0.586V8.473c0-0.395-0.137-0.629-0.425-0.629
				c-0.205,0-0.356,0.146-0.42,0.316c-0.02,0.055-0.029,0.133-0.029,0.201v1.426h-0.586V8.41c0-0.332-0.132-0.566-0.41-0.566
				c-0.225,0-0.376,0.176-0.435,0.336c-0.02,0.064-0.029,0.133-0.029,0.201v1.406h-0.586V8.117z"/>
			<path fill="#FFFFFF" d="M16.206,8.766c0.015,0.43,0.347,0.615,0.732,0.615c0.278,0,0.474-0.043,0.659-0.107l0.088,0.41
				c-0.205,0.088-0.488,0.152-0.83,0.152c-0.771,0-1.226-0.475-1.226-1.201c0-0.66,0.4-1.279,1.162-1.279
				c0.771,0,1.025,0.635,1.025,1.156c0,0.113-0.01,0.201-0.02,0.254H16.206z M17.25,8.346c0.005-0.219-0.093-0.58-0.493-0.58
				c-0.371,0-0.527,0.336-0.552,0.58H17.25z"/>
		</g>
		<g>
			<rect x="5.458" y="21.678" fill="#FFFFFF" width="0.5" height="1"/>
		</g>
		<g>
			<path fill="#FFFFFF" d="M15.742,22.678h-0.978v-1h0.978V22.678z M13.786,22.678h-0.979v-1h0.979V22.678z M11.829,22.678h-0.979
				v-1h0.979V22.678z M9.872,22.678H8.894v-1h0.979V22.678z M7.915,22.678H6.937v-1h0.979V22.678z"/>
		</g>
		<g>
			<rect x="16.721" y="21.678" fill="#FFFFFF" width="0.5" height="1"/>
		</g>
		<g>
			<path fill="#FFFFFF" d="M6.37,20.952c0.232-0.041,0.455-0.113,0.645-0.24c-0.037-0.035-0.068-0.078-0.104-0.116
				C6.782,20.762,6.593,20.89,6.37,20.952z M5.049,20.118c0-0.058,0.017-0.133,0.042-0.217c0.061-0.198,0.185-0.456,0.324-0.717
				c0.295-0.551,0.658-1.105,0.658-1.105s0.154,0.236,0.344,0.551c0.002-0.01,0.006-0.021,0.009-0.031
				c0.019-0.075,0.042-0.153,0.067-0.234c0.118-0.383,0.297-0.825,0.497-1.271c-0.446-0.929-0.917-1.766-0.917-1.766
				s-1.704,3.026-1.704,3.969c0,0.939,0.763,1.701,1.704,1.701C5.509,20.997,5.049,20.604,5.049,20.118z M16.604,15.327
				c0,0-0.47,0.837-0.916,1.766c0.199,0.446,0.379,0.889,0.498,1.271c0.025,0.08,0.047,0.158,0.066,0.234
				c0.003,0.01,0.007,0.021,0.01,0.03c0.188-0.314,0.342-0.55,0.342-0.55s0.366,0.558,0.662,1.108
				c0.139,0.261,0.262,0.517,0.322,0.715c0.025,0.083,0.042,0.158,0.042,0.216c0,0.485-0.46,0.879-1.026,0.879
				c0.939,0,1.705-0.762,1.705-1.701C18.31,18.354,16.604,15.327,16.604,15.327z M15.663,20.713c0.19,0.126,0.413,0.198,0.646,0.239
				c-0.224-0.063-0.412-0.19-0.542-0.356C15.732,20.634,15.701,20.677,15.663,20.713z M8.913,20.943
				c0.266-0.052,0.518-0.139,0.73-0.288c-0.045-0.043-0.082-0.092-0.123-0.138C9.383,20.714,9.169,20.866,8.913,20.943z
				 M7.554,20.439c-0.034-0.062-0.046-0.129-0.064-0.197c-0.019-0.069-0.049-0.135-0.049-0.21c0-0.063,0.018-0.145,0.046-0.238
				c0.042-0.138,0.115-0.305,0.2-0.479c0.025-0.052,0.051-0.105,0.078-0.16c0.042-0.082,0.086-0.163,0.131-0.246
				c0.04-0.074,0.08-0.147,0.121-0.22c0.277-0.483,0.551-0.899,0.551-0.899s0.186,0.283,0.404,0.651
				c0.006-0.022,0.008-0.042,0.014-0.064c0.019-0.074,0.043-0.154,0.066-0.234c0.125-0.419,0.318-0.907,0.539-1.405
				C9.095,15.7,8.567,14.76,8.567,14.76s-0.654,1.163-1.19,2.329c-0.032,0.07-0.064,0.141-0.096,0.21
				c-0.032,0.072-0.063,0.144-0.094,0.216c-0.208,0.482-0.376,0.938-0.45,1.285c-0.024,0.113-0.041,0.217-0.043,0.304l-0.001,0.007
				c0,0.008-0.001,0.012-0.001,0.012c0,0.289,0.068,0.558,0.184,0.799c0.031,0.066,0.066,0.131,0.104,0.192
				c0.028,0.044,0.058,0.087,0.089,0.128c0.066,0.088,0.139,0.171,0.219,0.246c0.042,0.039,0.088,0.075,0.133,0.11
				c0.047,0.036,0.092,0.072,0.141,0.104c0.204,0.13,0.439,0.204,0.686,0.249c-0.237-0.066-0.439-0.198-0.584-0.371
				C7.626,20.532,7.582,20.49,7.554,20.439z M13.035,20.656c0.214,0.15,0.466,0.236,0.731,0.287
				c-0.256-0.076-0.47-0.229-0.608-0.427C13.117,20.562,13.079,20.612,13.035,20.656z M15.804,19.919
				c0.114-0.241,0.184-0.508,0.184-0.793l-0.002-0.013v-0.01c-0.002-0.087-0.02-0.19-0.043-0.305
				c-0.075-0.347-0.242-0.801-0.451-1.284c-0.031-0.072-0.061-0.143-0.094-0.215c-0.031-0.07-0.063-0.141-0.096-0.211
				c-0.536-1.166-1.19-2.329-1.19-2.329s-0.528,0.94-1.024,1.976c0.222,0.497,0.415,0.985,0.541,1.404
				c0.023,0.081,0.048,0.16,0.066,0.234c0.006,0.022,0.008,0.042,0.014,0.064c0.219-0.367,0.403-0.65,0.403-0.65
				s0.274,0.416,0.552,0.9c0.041,0.073,0.08,0.146,0.121,0.221c0.045,0.082,0.089,0.162,0.131,0.244
				c0.028,0.056,0.053,0.108,0.079,0.162c0.085,0.174,0.157,0.34,0.199,0.478c0.028,0.094,0.046,0.175,0.046,0.238
				c0,0.075-0.031,0.142-0.049,0.212c-0.02,0.066-0.031,0.135-0.064,0.195c-0.028,0.052-0.072,0.094-0.11,0.141
				c-0.144,0.172-0.346,0.305-0.583,0.371c0.245-0.045,0.48-0.12,0.684-0.25c0.049-0.031,0.094-0.067,0.141-0.104
				c0.045-0.035,0.092-0.07,0.133-0.109c0.082-0.076,0.154-0.158,0.221-0.247c0.031-0.042,0.061-0.083,0.088-0.128
				C15.737,20.051,15.772,19.986,15.804,19.919z M13.212,19.815c0.129-0.267,0.207-0.562,0.211-0.876
				c0-0.008,0.002-0.016,0.002-0.016c0-0.018-0.002-0.031-0.003-0.041c-0.003-0.088-0.018-0.19-0.04-0.303
				c-0.078-0.381-0.262-0.884-0.492-1.42c-0.031-0.072-0.062-0.144-0.094-0.217c-0.031-0.07-0.063-0.141-0.096-0.211
				c-0.603-1.324-1.361-2.673-1.361-2.673s-0.759,1.349-1.361,2.673c-0.031,0.07-0.063,0.141-0.095,0.212
				c-0.032,0.072-0.063,0.144-0.094,0.216c-0.229,0.537-0.413,1.04-0.491,1.421c-0.023,0.112-0.038,0.215-0.041,0.303
				c0,0.011-0.002,0.022-0.002,0.032c0,0,0.002,0.016,0.002,0.024c0.004,0.315,0.082,0.61,0.211,0.876
				c0.032,0.068,0.066,0.135,0.106,0.197c0.029,0.047,0.061,0.092,0.093,0.136c0.074,0.1,0.154,0.192,0.244,0.277
				c0.043,0.04,0.089,0.074,0.135,0.11c0.045,0.036,0.087,0.077,0.135,0.109c0.233,0.156,0.507,0.245,0.793,0.297
				c-0.276-0.078-0.51-0.238-0.668-0.447c-0.036-0.047-0.083-0.088-0.11-0.141c-0.034-0.064-0.04-0.14-0.058-0.211
				c-0.019-0.074-0.053-0.143-0.053-0.221c0-0.07,0.021-0.161,0.052-0.266c0.036-0.117,0.09-0.252,0.155-0.396
				c0.041-0.091,0.089-0.185,0.137-0.28c0.043-0.084,0.085-0.166,0.131-0.251c0.041-0.075,0.081-0.15,0.123-0.224
				c0.322-0.572,0.656-1.08,0.656-1.08s0.334,0.508,0.657,1.08c0.042,0.074,0.083,0.149,0.123,0.225
				c0.046,0.085,0.089,0.167,0.132,0.251c0.048,0.096,0.097,0.191,0.138,0.281c0.065,0.144,0.118,0.276,0.153,0.394
				c0.032,0.104,0.053,0.195,0.053,0.266c0,0.078-0.034,0.148-0.053,0.222c-0.019,0.071-0.024,0.146-0.059,0.211
				c-0.026,0.052-0.074,0.093-0.109,0.14c-0.158,0.209-0.393,0.368-0.67,0.447c0.287-0.053,0.561-0.141,0.793-0.297
				c0.049-0.033,0.09-0.074,0.136-0.109c0.045-0.037,0.091-0.07,0.134-0.11c0.09-0.085,0.171-0.179,0.245-0.278
				c0.032-0.045,0.063-0.088,0.093-0.135C13.145,19.949,13.179,19.883,13.212,19.815z"/>
		</g>
	</g>
</g>
</svg>
