<?xml version="1.0" encoding="utf-8"?>
<!-- Generator: Adobe Illustrator 16.0.3, SVG Export Plug-In . SVG Version: 6.00 Build 0)  -->
<!DOCTYPE svg PUBLIC "-//W3C//DTD SVG 1.1//EN" "http://www.w3.org/Graphics/SVG/1.1/DTD/svg11.dtd">
<svg version="1.1" xmlns="http://www.w3.org/2000/svg" xmlns:xlink="http://www.w3.org/1999/xlink" x="0px" y="0px" width="22.68px"
	 height="22.68px" viewBox="0 0 22.68 22.68" enable-background="new 0 0 22.68 22.68" xml:space="preserve">
<g id="BCGRND">
</g>
<g id="BAREVNE_POZADI_IKON">
	<rect y="0" fill="#585857" width="22.676" height="22.678"/>
</g>
<g id="IKONY">
	<g>
		<g>
			<rect x="0.002" y="7.77" fill="#FFFFFF" width="22.677" height="0.889"/>
		</g>
		<g>
			<path fill="#FFFFFF" d="M4.717,2.323c0.269-0.039,0.601-0.068,0.957-0.068c0.615,0,1.035,0.127,1.338,0.381
				C7.334,2.895,7.53,3.289,7.53,3.846c0,0.592-0.2,1.025-0.513,1.309C6.69,5.453,6.167,5.604,5.528,5.604
				c-0.347,0-0.61-0.02-0.811-0.043V2.323z M5.318,5.115c0.083,0.016,0.21,0.016,0.332,0.016c0.781,0.004,1.245-0.43,1.245-1.266
				C6.9,3.143,6.48,2.723,5.728,2.723c-0.19,0-0.322,0.016-0.41,0.035V5.115z"/>
			<path fill="#FFFFFF" d="M8.588,2.528c0,0.176-0.132,0.322-0.342,0.322c-0.2,0-0.332-0.146-0.332-0.322
				c0-0.186,0.137-0.326,0.337-0.326C8.457,2.201,8.583,2.342,8.588,2.528z M7.949,5.571V3.192h0.601v2.379H7.949z"/>
			<path fill="#FFFFFF" d="M9.078,5.014C9.21,5.096,9.469,5.19,9.684,5.19c0.264,0,0.381-0.113,0.381-0.27
				c0-0.16-0.098-0.238-0.391-0.346C9.21,4.418,9.02,4.164,9.02,3.881c0-0.42,0.347-0.742,0.898-0.742
				c0.264,0,0.493,0.063,0.635,0.141l-0.122,0.42c-0.098-0.059-0.293-0.137-0.503-0.137c-0.215,0-0.332,0.107-0.332,0.254
				c0,0.152,0.112,0.221,0.415,0.332c0.435,0.152,0.63,0.371,0.635,0.723c0,0.436-0.337,0.748-0.967,0.748
				c-0.288,0-0.547-0.068-0.723-0.166L9.078,5.014z"/>
			<path fill="#FFFFFF" d="M11.043,3.983c0-0.313-0.01-0.566-0.02-0.791h0.527l0.029,0.367h0.01c0.176-0.27,0.454-0.42,0.815-0.42
				c0.547,0,1.001,0.469,1.001,1.211c0,0.859-0.542,1.273-1.084,1.273c-0.298,0-0.547-0.127-0.669-0.316h-0.01v1.23h-0.601V3.983z
				 M11.644,4.574c0,0.059,0.005,0.111,0.015,0.166c0.063,0.244,0.273,0.42,0.532,0.42c0.381,0,0.605-0.318,0.605-0.787
				c0-0.42-0.205-0.762-0.591-0.762c-0.249,0-0.479,0.182-0.542,0.445c-0.01,0.049-0.02,0.102-0.02,0.15V4.574z"/>
			<path fill="#FFFFFF" d="M13.806,2.104h0.601v3.467h-0.601V2.104z"/>
			<path fill="#FFFFFF" d="M15.389,4.549c0.015,0.43,0.347,0.615,0.732,0.615c0.278,0,0.474-0.043,0.659-0.107l0.088,0.41
				c-0.205,0.088-0.488,0.152-0.83,0.152c-0.771,0-1.226-0.475-1.226-1.201c0-0.66,0.4-1.279,1.162-1.279
				C16.747,3.139,17,3.774,17,4.295c0,0.113-0.01,0.201-0.02,0.254H15.389z M16.434,4.129c0.005-0.219-0.093-0.58-0.493-0.58
				c-0.371,0-0.527,0.336-0.552,0.58H16.434z"/>
			<path fill="#FFFFFF" d="M16.862,6.141c0.195-0.014,0.352-0.068,0.449-0.17c0.112-0.123,0.156-0.309,0.156-0.826V3.192h0.601
				v2.125c0,0.492-0.098,0.801-0.313,1.016C17.55,6.528,17.218,6.61,16.92,6.61L16.862,6.141z M18.107,2.528
				c0,0.176-0.127,0.322-0.342,0.322c-0.205,0-0.332-0.146-0.332-0.322c0-0.186,0.137-0.326,0.342-0.326
				C17.975,2.201,18.102,2.342,18.107,2.528z"/>
		</g>
		<g>
			<path fill="#FFFFFF" d="M18.054,18.647v-7.987H4.626v7.987h6.043v1.014H8.253v0.874h6.174V19.66h-2.414v-1.014H18.054z
				 M13.095,12.754c0.33-0.048,0.736-0.083,1.176-0.083c0.754,0,1.27,0.155,1.643,0.467c0.395,0.318,0.635,0.804,0.635,1.487
				c0,0.726-0.246,1.26-0.629,1.607c-0.402,0.366-1.043,0.552-1.83,0.552c-0.426,0-0.748-0.024-0.994-0.054V12.754z M8.911,16.742
				H6.513V12.7h0.736v3.425h1.662V16.742z M11.202,16.809c-1.283,0-2.063-0.804-2.063-2.039c0-1.331,0.93-2.135,2.166-2.135
				c0.484,0,0.826,0.102,0.977,0.18l-0.156,0.588c-0.191-0.084-0.461-0.156-0.791-0.156c-0.822,0-1.416,0.516-1.416,1.487
				c0,0.894,0.516,1.457,1.41,1.457c0.293,0,0.605-0.06,0.803-0.144l0.121,0.581C12.079,16.712,11.694,16.809,11.202,16.809z
				 M15.769,14.65c0.006-0.888-0.51-1.403-1.434-1.403c-0.232,0-0.395,0.018-0.504,0.042v2.896c0.104,0.018,0.258,0.018,0.408,0.018
				C15.198,16.208,15.769,15.675,15.769,14.65z"/>
		</g>
	</g>
</g>
</svg>
