<?xml version="1.0" encoding="utf-8"?>
<!-- Generator: Adobe Illustrator 16.0.3, SVG Export Plug-In . SVG Version: 6.00 Build 0)  -->
<!DOCTYPE svg PUBLIC "-//W3C//DTD SVG 1.1//EN" "http://www.w3.org/Graphics/SVG/1.1/DTD/svg11.dtd">
<svg version="1.1" xmlns="http://www.w3.org/2000/svg" xmlns:xlink="http://www.w3.org/1999/xlink" x="0px" y="0px" width="22.68px"
	 height="22.68px" viewBox="0 0 22.68 22.68" enable-background="new 0 0 22.68 22.68" xml:space="preserve">
<g id="BCGRND" display="none">
</g>
<g id="IKONY">
	<g>
		<g>
			<polygon fill="#585857" points="0,-0.001 0,22.678 14.117,22.678 22.678,22.678 22.678,16.334 22.678,-0.001 			"/>
			<g>
				<defs>
					<polygon id="SVGID_85_" points="0,0 0,22.678 14.117,22.678 22.678,22.678 22.678,16.334 22.678,0 					"/>
				</defs>
				<clipPath id="SVGID_2_">
					<use xlink:href="#SVGID_85_"  overflow="visible"/>
				</clipPath>
				<path clip-path="url(#SVGID_2_)" fill="#FFFFFF" d="M1.349,2.323c0.264-0.044,0.6-0.068,0.957-0.068
					c0.616,0,1.039,0.128,1.342,0.381c0.319,0.259,0.514,0.649,0.514,1.211c0,0.586-0.201,1.025-0.514,1.309
					C3.322,5.453,2.799,5.604,2.16,5.604c-0.352,0-0.615-0.02-0.811-0.044V2.323z M1.949,5.111C2.033,5.126,2.16,5.126,2.281,5.126
					c0.781,0.006,1.246-0.425,1.246-1.26c0.004-0.728-0.416-1.143-1.168-1.143c-0.189,0-0.326,0.015-0.41,0.034V5.111z"/>
				<path clip-path="url(#SVGID_2_)" fill="#FFFFFF" d="M6.973,4.359c0,0.874-0.615,1.265-1.221,1.265
					c-0.674,0-1.191-0.464-1.191-1.226c0-0.781,0.513-1.26,1.23-1.26C6.499,3.139,6.973,3.637,6.973,4.359 M5.181,4.384
					c0,0.459,0.225,0.806,0.591,0.806c0.342,0,0.581-0.337,0.581-0.815c0-0.371-0.166-0.796-0.576-0.796
					C5.352,3.578,5.181,3.987,5.181,4.384"/>
				<path clip-path="url(#SVGID_2_)" fill="#FFFFFF" d="M8.207,2.514v0.679h0.572v0.449H8.207v1.05c0,0.288,0.078,0.439,0.309,0.439
					c0.101,0,0.179-0.015,0.234-0.029l0.01,0.459C8.671,5.595,8.516,5.619,8.324,5.619c-0.219,0-0.404-0.073-0.517-0.195
					C7.68,5.287,7.621,5.072,7.621,4.76V3.642H7.279V3.192h0.342V2.655L8.207,2.514z"/>
				<path clip-path="url(#SVGID_2_)" fill="#FFFFFF" d="M9.693,3.192l0.43,1.274c0.049,0.146,0.097,0.327,0.132,0.464h0.014
					c0.039-0.137,0.084-0.313,0.127-0.469l0.371-1.27h0.645l-0.596,1.621c-0.326,0.889-0.547,1.284-0.83,1.528
					C9.752,6.552,9.507,6.63,9.357,6.649L9.22,6.142c0.102-0.024,0.229-0.078,0.352-0.166C9.683,5.902,9.816,5.761,9.898,5.6
					c0.025-0.044,0.039-0.078,0.039-0.107c0-0.024-0.004-0.059-0.033-0.117L9.035,3.192H9.693z"/>
				<path clip-path="url(#SVGID_2_)" fill="#FFFFFF" d="M12.412,4.237h0.01c0.058-0.093,0.127-0.195,0.19-0.278l0.576-0.767h0.723
					l-0.879,0.972l1.006,1.406h-0.737l-0.684-1.05l-0.205,0.238V5.57h-0.601V2.104h0.601V4.237z"/>
				<path clip-path="url(#SVGID_2_)" fill="#FFFFFF" d="M16.575,4.359c0,0.874-0.615,1.265-1.221,1.265
					c-0.674,0-1.191-0.464-1.191-1.226c0-0.781,0.513-1.26,1.23-1.26C16.101,3.139,16.575,3.637,16.575,4.359 M14.783,4.384
					c0,0.459,0.225,0.806,0.591,0.806c0.342,0,0.581-0.337,0.581-0.815c0-0.371-0.166-0.796-0.576-0.796
					C14.954,3.578,14.783,3.987,14.783,4.384"/>
				<path clip-path="url(#SVGID_2_)" fill="#FFFFFF" d="M17.462,3.192l0.386,1.206c0.068,0.21,0.117,0.4,0.161,0.596h0.015
					c0.043-0.195,0.097-0.381,0.161-0.596l0.376-1.206h0.634L18.288,5.57h-0.591l-0.883-2.378H17.462z"/>
				<path clip-path="url(#SVGID_2_)" fill="#FFFFFF" d="M19.976,4.55c0.014,0.43,0.351,0.615,0.732,0.615
					c0.278,0,0.479-0.039,0.659-0.107l0.088,0.415c-0.205,0.083-0.488,0.146-0.83,0.146c-0.771,0-1.226-0.474-1.226-1.201
					c0-0.659,0.401-1.279,1.163-1.279c0.771,0,1.025,0.635,1.025,1.157c0,0.112-0.01,0.2-0.02,0.254H19.976z M21.021,4.13
					c0.004-0.22-0.093-0.581-0.494-0.581c-0.371,0-0.527,0.337-0.551,0.581H21.021z M21.293,2.162l-0.601,0.723h-0.415l0.425-0.723
					H21.293z"/>
				<path clip-path="url(#SVGID_2_)" fill="#FFFFFF" d="M4.631,8.859c0,0.874-0.615,1.265-1.221,1.265
					c-0.674,0-1.191-0.464-1.191-1.226c0-0.781,0.513-1.26,1.23-1.26C4.157,7.639,4.631,8.137,4.631,8.859 M2.839,8.884
					c0,0.459,0.225,0.806,0.591,0.806c0.342,0,0.581-0.337,0.581-0.815c0-0.371-0.166-0.796-0.576-0.796
					C3.01,8.078,2.839,8.487,2.839,8.884"/>
				<path clip-path="url(#SVGID_2_)" fill="#FFFFFF" d="M5.519,7.692l0.385,1.206c0.068,0.21,0.117,0.4,0.162,0.596H6.08
					c0.044-0.195,0.097-0.381,0.162-0.596l0.375-1.206h0.634L6.343,10.07h-0.59L4.869,7.692H5.519z"/>
				<rect x="7.671" y="6.604" clip-path="url(#SVGID_2_)" fill="#FFFFFF" width="0.605" height="3.467"/>
				<path clip-path="url(#SVGID_2_)" fill="#FFFFFF" d="M10.314,10.07l-0.039-0.264h-0.016c-0.146,0.186-0.394,0.317-0.703,0.317
					c-0.478,0-0.746-0.347-0.746-0.708c0-0.601,0.531-0.903,1.41-0.899V8.479c0-0.156-0.062-0.415-0.482-0.415
					c-0.235,0-0.479,0.073-0.641,0.176L8.98,7.849c0.176-0.107,0.484-0.21,0.859-0.21c0.762,0,0.983,0.483,0.983,1.001v0.859
					c0,0.215,0.01,0.425,0.033,0.571H10.314z M10.236,8.908c-0.426-0.01-0.83,0.083-0.83,0.444c0,0.234,0.15,0.342,0.342,0.342
					c0.238,0,0.414-0.156,0.468-0.327c0.014-0.044,0.02-0.093,0.02-0.132V8.908z M10.607,6.662l-0.602,0.723H9.591l0.424-0.723
					H10.607z"/>
				<path clip-path="url(#SVGID_2_)" fill="#FFFFFF" d="M13.701,6.604v2.798c0,0.244,0.009,0.508,0.019,0.669h-0.537l-0.025-0.376
					h-0.01c-0.141,0.264-0.43,0.43-0.776,0.43c-0.566,0-1.015-0.483-1.015-1.216c-0.006-0.796,0.492-1.27,1.064-1.27
					c0.326,0,0.561,0.137,0.668,0.313h0.01V6.604H13.701z M13.099,8.684c0-0.049-0.004-0.107-0.014-0.156
					c-0.054-0.234-0.244-0.425-0.517-0.425c-0.387,0-0.602,0.342-0.602,0.786c0,0.435,0.215,0.752,0.596,0.752
					c0.244,0,0.459-0.166,0.517-0.425c0.016-0.054,0.02-0.112,0.02-0.176V8.684z"/>
				<path clip-path="url(#SVGID_2_)" fill="#FFFFFF" d="M15.736,10.07l-0.039-0.264h-0.016c-0.146,0.186-0.394,0.317-0.703,0.317
					c-0.478,0-0.746-0.347-0.746-0.708c0-0.601,0.531-0.903,1.41-0.899V8.479c0-0.156-0.062-0.415-0.482-0.415
					c-0.235,0-0.479,0.073-0.641,0.176l-0.117-0.391c0.176-0.107,0.484-0.21,0.859-0.21c0.762,0,0.983,0.483,0.983,1.001v0.859
					c0,0.215,0.01,0.425,0.033,0.571H15.736z M15.658,8.908c-0.426-0.01-0.83,0.083-0.83,0.444c0,0.234,0.15,0.342,0.342,0.342
					c0.238,0,0.414-0.156,0.468-0.327c0.014-0.044,0.02-0.093,0.02-0.132V8.908z M16.029,6.662l-0.602,0.723h-0.414l0.424-0.723
					H16.029z"/>
				<path clip-path="url(#SVGID_2_)" fill="#FFFFFF" d="M16.929,8.4c0-0.273-0.004-0.503-0.02-0.708h0.528l0.029,0.356h0.016
					c0.101-0.186,0.361-0.41,0.756-0.41c0.416,0,0.845,0.269,0.845,1.021v1.411h-0.601V8.728c0-0.342-0.127-0.601-0.453-0.601
					c-0.241,0-0.407,0.171-0.469,0.352c-0.02,0.054-0.026,0.127-0.026,0.195v1.396h-0.605V8.4z"/>
				<path clip-path="url(#SVGID_2_)" fill="#FFFFFF" d="M19.775,7.692h0.605v2.378h-0.605V7.692z M20.81,6.662l-0.6,0.723h-0.416
					l0.426-0.723H20.81z"/>
				<rect x="-0.001" y="11.955" clip-path="url(#SVGID_2_)" fill="#FFFFFF" width="22.678" height="0.889"/>
			</g>
			<g>
				<defs>
					<polygon id="SVGID_87_" points="0,0 0,22.678 14.117,22.678 22.678,22.678 22.678,16.334 22.678,0 					"/>
				</defs>
				<clipPath id="SVGID_4_">
					<use xlink:href="#SVGID_87_"  overflow="visible"/>
				</clipPath>
			</g>
		</g>
		<g>
			<path opacity="0.5" fill="#FFFFFF" d="M15.024,15.911l-0.745,0.292c0,0-0.101,0.215-0.018,0.443
				c0.116,0.323,0.181,0.672,0.181,1.036c0,1.066-0.542,2.009-1.363,2.567h1.435c0.572-0.705,0.929-1.591,0.929-2.567
				C15.442,17.046,15.284,16.449,15.024,15.911z"/>
			<path opacity="0.5" fill="#FFFFFF" d="M17.1,15.258h-0.411l-0.594,0.233c0.31,0.669,0.494,1.407,0.494,2.191
				c0,0.938-0.267,1.805-0.699,2.567h1.142c0.355-0.784,0.558-1.651,0.558-2.567C17.589,16.823,17.414,16.004,17.1,15.258z"/>
			<path opacity="0.5" fill="#FFFFFF" d="M19.375,15.258h-1.056c0.265,0.761,0.416,1.574,0.416,2.425
				c0,0.903-0.171,1.767-0.469,2.567h1.063c0.262-0.81,0.405-1.672,0.405-2.567C19.735,16.84,19.607,16.026,19.375,15.258z"/>
			<path opacity="0.5" fill="#FFFFFF" d="M4.409,15.115H3.346c-0.262,0.81-0.405,1.672-0.405,2.567s0.144,1.758,0.405,2.567h1.063
				c-0.298-0.801-0.469-1.664-0.469-2.567S4.111,15.916,4.409,15.115z"/>
			<path opacity="0.5" fill="#FFFFFF" d="M21.591,15.258h-1.032c0.204,0.775,0.324,1.586,0.324,2.425
				c0,0.891-0.132,1.749-0.36,2.567h1.031c0.207-0.823,0.329-1.681,0.329-2.567C21.883,16.847,21.775,16.038,21.591,15.258z"/>
			<path opacity="0.5" fill="#FFFFFF" d="M2.154,15.115H1.123c-0.207,0.823-0.329,1.681-0.329,2.567s0.122,1.744,0.329,2.567h1.031
				c-0.229-0.818-0.36-1.677-0.36-2.567S1.926,15.934,2.154,15.115z"/>
			<path fill="#FFFFFF" d="M8.234,17.683c0-1.066,0.541-2.008,1.362-2.567H8.162c-0.571,0.705-0.928,1.591-0.928,2.567
				s0.357,1.862,0.929,2.567h1.435C8.775,19.691,8.234,18.749,8.234,17.683z"/>
			<path fill="#FFFFFF" d="M6.787,15.115H5.646c-0.354,0.784-0.558,1.651-0.558,2.567s0.203,1.783,0.558,2.567h1.142
				c-0.433-0.763-0.699-1.63-0.699-2.567S6.354,15.878,6.787,15.115z"/>
		</g>
		<g>
			<path fill="#FFFFFF" d="M10.348,18.142c-0.128-0.31-0.025-0.681,0.267-0.97l0.058-0.057l0.261-0.128
				c0.382-0.188,0.932-0.46,1.551-0.759c-0.316-0.25-0.711-0.404-1.145-0.404c-1.026,0-1.859,0.832-1.859,1.858
				s0.833,1.858,1.859,1.858c0.845,0,1.55-0.566,1.775-1.338c-0.785,0.276-1.415,0.432-1.842,0.432
				C10.645,18.635,10.424,18.325,10.348,18.142z"/>
		</g>
		<g>
			<path fill="#FFFFFF" d="M22.678,11.861c-0.35,0.304-0.563,0.488-0.563,0.488c-3.827-0.512-4.769-0.182-4.769-0.182l-0.947,0.398
				c0,0-0.722,0.354-1.35,0.631c-0.628,0.279-1.193,0.689-1.302,1.335c1.157-0.561,1.453-0.769,2.912-1.345
				c0.117-0.055,0.242,0.012,0.287,0.123c0.044,0.114-0.012,0.242-0.124,0.287c-1.768,0.697-2.181,0.983-3.217,1.494
				c-0.192,0.384-0.172,0.638-0.19,0.783c1.299-0.63,1.573-0.82,3.189-1.454c0.121-0.048,0.242,0.011,0.286,0.125
				c0.045,0.112-0.012,0.241-0.125,0.284c-1.71,0.672-4.752,2.182-5.8,2.697c-0.42,0.415-0.397,1.387,3.926-0.59
				c3.486-1.594,5.141-0.947,5.141-0.947c-0.252,0.295-0.242,0.74-2.689,1.555c-1.64,0.547-1.431,1.163-1.431,1.163
				c0.808,0.421,3.918-0.374,5.337-1.217c0.214-0.127,0.753-0.565,1.428-1.111v-0.043V11.861z"/>
		</g>
	</g>
</g>
</svg>
