<?xml version="1.0" encoding="utf-8"?>
<!-- Generator: Adobe Illustrator 16.0.3, SVG Export Plug-In . SVG Version: 6.00 Build 0)  -->
<!DOCTYPE svg PUBLIC "-//W3C//DTD SVG 1.1//EN" "http://www.w3.org/Graphics/SVG/1.1/DTD/svg11.dtd">
<svg version="1.1" xmlns="http://www.w3.org/2000/svg" xmlns:xlink="http://www.w3.org/1999/xlink" x="0px" y="0px" width="22.68px"
	 height="22.68px" viewBox="0 0 22.68 22.68" enable-background="new 0 0 22.68 22.68" xml:space="preserve">
<g id="BCGRND">
</g>
<g id="BAREVNE_POZADI_IKON">
	<rect y="0" fill="#585857" width="22.676" height="22.678"/>
</g>
<g id="IKONY">
	<g>
		<g>
			<g>
				<rect y="11.956" fill="#FFFFFF" width="22.678" height="0.889"/>
			</g>
			<g>
				<g>
					<path fill="#FFFFFF" d="M3.721,2.039c0.264-0.044,0.601-0.068,0.957-0.068c0.615,0,1.04,0.127,1.343,0.381
						c0.317,0.259,0.513,0.649,0.513,1.211c0,0.586-0.2,1.025-0.513,1.309c-0.327,0.298-0.85,0.449-1.489,0.449
						c-0.352,0-0.615-0.02-0.811-0.044V2.039z M4.322,4.827c0.083,0.015,0.21,0.015,0.332,0.015c0.781,0.005,1.245-0.425,1.245-1.26
						C5.904,2.855,5.484,2.44,4.732,2.44c-0.191,0-0.327,0.015-0.41,0.034V4.827z"/>
					<path fill="#FFFFFF" d="M7.573,2.908l0.386,1.206c0.068,0.21,0.117,0.4,0.161,0.596h0.015c0.044-0.195,0.098-0.381,0.161-0.596
						l0.376-1.206h0.635L8.398,5.286H7.808L6.924,2.908H7.573z"/>
					<path fill="#FFFFFF" d="M11.971,4.075c0,0.874-0.615,1.265-1.221,1.265c-0.674,0-1.191-0.464-1.191-1.226
						c0-0.781,0.513-1.26,1.23-1.26C11.498,2.855,11.971,3.353,11.971,4.075z M10.179,4.1c0,0.459,0.225,0.806,0.591,0.806
						c0.342,0,0.581-0.337,0.581-0.815c0-0.371-0.166-0.796-0.576-0.796C10.35,3.294,10.179,3.704,10.179,4.1z"/>
					<path fill="#FFFFFF" d="M12.038,5.838c0.195-0.015,0.352-0.068,0.449-0.171c0.112-0.122,0.156-0.308,0.156-0.825V2.908h0.601
						v2.104c0,0.493-0.093,0.801-0.308,1.016c-0.21,0.195-0.542,0.278-0.84,0.278L12.038,5.838z M13.278,2.244
						c0,0.176-0.127,0.322-0.342,0.322c-0.2,0-0.327-0.146-0.327-0.322c0-0.186,0.132-0.327,0.337-0.327S13.278,2.059,13.278,2.244z
						"/>
					<path fill="#FFFFFF" d="M14.623,2.244c0,0.181-0.132,0.322-0.342,0.322c-0.2,0-0.332-0.142-0.332-0.322
						c0-0.186,0.137-0.327,0.337-0.327C14.491,1.917,14.618,2.059,14.623,2.244z M13.983,5.286V2.908h0.605v2.378H13.983z"/>
					<path fill="#FFFFFF" d="M16.021,2.23v0.679h0.571v0.449h-0.571v1.05c0,0.288,0.078,0.439,0.308,0.439
						c0.103,0,0.181-0.015,0.234-0.029l0.01,0.459c-0.088,0.034-0.244,0.059-0.435,0.059c-0.22,0-0.405-0.073-0.518-0.195
						c-0.127-0.137-0.186-0.352-0.186-0.664V3.358h-0.342V2.908h0.342V2.371L16.021,2.23z"/>
					<path fill="#FFFFFF" d="M17.557,2.908l0.43,1.274c0.049,0.146,0.098,0.327,0.132,0.464h0.015
						c0.039-0.137,0.083-0.313,0.127-0.469l0.371-1.27h0.645L18.68,4.53c-0.327,0.889-0.547,1.284-0.83,1.528
						c-0.234,0.21-0.479,0.288-0.63,0.308l-0.137-0.508c0.103-0.024,0.229-0.078,0.352-0.166c0.112-0.073,0.244-0.215,0.327-0.376
						c0.024-0.044,0.039-0.078,0.039-0.107c0-0.024-0.005-0.059-0.034-0.117l-0.869-2.183H17.557z M18.875,1.878l-0.601,0.723
						h-0.415l0.425-0.723H18.875z"/>
					<path fill="#FFFFFF" d="M5.354,6.32h0.605v1.416h0.01C6.042,7.623,6.14,7.531,6.267,7.462c0.117-0.068,0.259-0.107,0.41-0.107
						c0.405,0,0.83,0.269,0.83,1.03v1.401H6.907V8.453c0-0.347-0.127-0.605-0.459-0.605c-0.234,0-0.4,0.156-0.464,0.337
						c-0.02,0.049-0.024,0.112-0.024,0.181v1.421H5.354V6.32z"/>
					<path fill="#FFFFFF" d="M10.509,8.575c0,0.874-0.615,1.265-1.221,1.265c-0.674,0-1.191-0.464-1.191-1.226
						c0-0.781,0.513-1.26,1.23-1.26C10.035,7.355,10.509,7.853,10.509,8.575z M8.717,8.6c0,0.459,0.225,0.806,0.591,0.806
						c0.342,0,0.581-0.337,0.581-0.815c0-0.371-0.166-0.796-0.576-0.796C8.888,7.794,8.717,8.204,8.717,8.6z"/>
					<path fill="#FFFFFF" d="M11.104,8.175c0-0.322-0.005-0.552-0.02-0.767h0.522l0.02,0.454h0.02
						c0.117-0.337,0.396-0.508,0.649-0.508c0.059,0,0.093,0.005,0.142,0.015v0.566c-0.049-0.01-0.103-0.02-0.176-0.02
						c-0.288,0-0.483,0.186-0.537,0.454c-0.01,0.054-0.02,0.117-0.02,0.186v1.23h-0.601V8.175z"/>
					<path fill="#FFFFFF" d="M14.235,9.786l-0.039-0.264h-0.015c-0.146,0.186-0.396,0.317-0.703,0.317
						c-0.479,0-0.747-0.347-0.747-0.708c0-0.601,0.532-0.903,1.411-0.898V8.195c0-0.156-0.064-0.415-0.483-0.415
						c-0.234,0-0.479,0.073-0.64,0.176l-0.117-0.391c0.176-0.107,0.483-0.21,0.859-0.21c0.762,0,0.981,0.483,0.981,1.001v0.859
						c0,0.215,0.01,0.425,0.034,0.571H14.235z M14.157,8.624c-0.425-0.01-0.83,0.083-0.83,0.444c0,0.234,0.151,0.342,0.342,0.342
						c0.239,0,0.415-0.156,0.469-0.327c0.015-0.044,0.02-0.093,0.02-0.132V8.624z M14.528,6.378l-0.601,0.723h-0.415l0.425-0.723
						H14.528z"/>
					<path fill="#FFFFFF" d="M16.08,8.453h0.01c0.059-0.093,0.127-0.195,0.19-0.278l0.576-0.767h0.723L16.7,8.38l1.006,1.406h-0.737
						l-0.684-1.05L16.08,8.976v0.811h-0.601V6.32h0.601V8.453z"/>
				</g>
			</g>
		</g>
		<g>
			<rect x="5.458" y="21.678" fill="#FFFFFF" width="0.5" height="1"/>
			<path fill="#FFFFFF" d="M15.741,22.678h-0.977v-1h0.977V22.678z M13.786,22.678h-0.979v-1h0.979V22.678z M11.829,22.678h-0.978
				v-1h0.978V22.678z M9.872,22.678H8.894v-1h0.979V22.678z M7.915,22.678H6.937v-1h0.979V22.678z"/>
			<rect x="16.72" y="21.678" fill="#FFFFFF" width="0.5" height="1"/>
			<path fill="#FFFFFF" d="M6.37,20.952c0.232-0.041,0.455-0.113,0.645-0.24c-0.037-0.035-0.068-0.078-0.104-0.116
				C6.782,20.762,6.593,20.89,6.37,20.952z M5.048,20.118c0-0.058,0.018-0.133,0.043-0.217c0.061-0.198,0.184-0.456,0.324-0.717
				c0.295-0.551,0.658-1.105,0.658-1.105s0.154,0.236,0.344,0.551c0.002-0.01,0.006-0.021,0.008-0.031
				c0.02-0.075,0.043-0.153,0.068-0.234c0.117-0.383,0.297-0.825,0.496-1.271c-0.445-0.929-0.916-1.766-0.916-1.766
				s-1.705,3.026-1.705,3.969c0,0.939,0.764,1.701,1.705,1.701C5.509,20.997,5.048,20.604,5.048,20.118z M16.604,15.327
				c0,0-0.471,0.837-0.916,1.766c0.199,0.446,0.379,0.889,0.498,1.271c0.025,0.08,0.047,0.158,0.066,0.234
				c0.002,0.01,0.006,0.021,0.01,0.03c0.188-0.314,0.342-0.55,0.342-0.55s0.365,0.558,0.662,1.108
				c0.139,0.261,0.262,0.517,0.322,0.715c0.025,0.083,0.041,0.158,0.041,0.216c0,0.485-0.459,0.879-1.025,0.879
				c0.939,0,1.705-0.762,1.705-1.701C18.31,18.354,16.604,15.327,16.604,15.327z M15.663,20.713
				c0.189,0.126,0.412,0.198,0.646,0.239c-0.225-0.063-0.412-0.19-0.543-0.356C15.731,20.634,15.7,20.677,15.663,20.713z
				 M8.913,20.943c0.266-0.052,0.518-0.139,0.73-0.288c-0.045-0.043-0.082-0.092-0.123-0.138
				C9.382,20.714,9.169,20.866,8.913,20.943z M7.554,20.439c-0.035-0.062-0.047-0.129-0.064-0.197
				c-0.02-0.069-0.049-0.135-0.049-0.21c0-0.063,0.018-0.145,0.045-0.238c0.043-0.138,0.115-0.305,0.201-0.479
				c0.025-0.052,0.051-0.105,0.078-0.16c0.041-0.082,0.086-0.163,0.131-0.246c0.039-0.074,0.08-0.147,0.121-0.22
				c0.277-0.483,0.551-0.899,0.551-0.899s0.186,0.283,0.404,0.651c0.006-0.022,0.008-0.042,0.014-0.064
				c0.018-0.074,0.043-0.154,0.066-0.234c0.125-0.419,0.318-0.907,0.539-1.405C9.095,15.7,8.567,14.76,8.567,14.76
				s-0.654,1.163-1.191,2.329c-0.031,0.07-0.064,0.141-0.096,0.21c-0.031,0.072-0.063,0.144-0.094,0.216
				c-0.207,0.482-0.375,0.938-0.449,1.285c-0.025,0.113-0.041,0.217-0.043,0.304l-0.002,0.007c0,0.008,0,0.012,0,0.012
				c0,0.289,0.068,0.558,0.184,0.799c0.031,0.066,0.066,0.131,0.104,0.192c0.029,0.044,0.059,0.087,0.09,0.128
				c0.066,0.088,0.139,0.171,0.219,0.246c0.041,0.039,0.088,0.075,0.133,0.11c0.047,0.036,0.092,0.072,0.141,0.104
				c0.203,0.13,0.439,0.204,0.686,0.249c-0.238-0.066-0.439-0.198-0.584-0.371C7.626,20.532,7.581,20.49,7.554,20.439z
				 M13.034,20.656c0.215,0.15,0.467,0.236,0.732,0.287c-0.256-0.076-0.471-0.229-0.609-0.427
				C13.116,20.562,13.079,20.612,13.034,20.656z M15.804,19.919c0.113-0.241,0.184-0.508,0.184-0.793l-0.002-0.013v-0.01
				c-0.002-0.087-0.02-0.19-0.043-0.305c-0.076-0.347-0.242-0.801-0.451-1.284c-0.031-0.072-0.061-0.143-0.094-0.215
				c-0.031-0.07-0.064-0.141-0.096-0.211c-0.537-1.166-1.191-2.329-1.191-2.329s-0.527,0.94-1.023,1.976
				c0.221,0.497,0.414,0.985,0.541,1.404c0.023,0.081,0.047,0.16,0.066,0.234c0.006,0.022,0.008,0.042,0.014,0.064
				c0.219-0.367,0.402-0.65,0.402-0.65s0.275,0.416,0.553,0.9c0.041,0.073,0.08,0.146,0.121,0.221
				c0.045,0.082,0.088,0.162,0.131,0.244c0.027,0.056,0.053,0.108,0.078,0.162c0.086,0.174,0.158,0.34,0.199,0.478
				c0.029,0.094,0.047,0.175,0.047,0.238c0,0.075-0.031,0.142-0.049,0.212c-0.02,0.066-0.031,0.135-0.064,0.195
				c-0.029,0.052-0.072,0.094-0.111,0.141c-0.143,0.172-0.346,0.305-0.582,0.371c0.244-0.045,0.48-0.12,0.684-0.25
				c0.049-0.031,0.094-0.067,0.141-0.104c0.045-0.035,0.092-0.07,0.133-0.109c0.082-0.076,0.154-0.158,0.221-0.247
				c0.031-0.042,0.061-0.083,0.088-0.128C15.737,20.051,15.772,19.986,15.804,19.919z M13.212,19.815
				c0.129-0.267,0.207-0.562,0.211-0.876c0-0.008,0.002-0.016,0.002-0.016c0-0.018-0.002-0.031-0.004-0.041
				c-0.002-0.088-0.018-0.19-0.039-0.303c-0.078-0.381-0.262-0.884-0.492-1.42c-0.031-0.072-0.063-0.144-0.094-0.217
				c-0.031-0.07-0.064-0.141-0.095-0.211c-0.604-1.324-1.361-2.673-1.361-2.673s-0.76,1.349-1.361,2.673
				c-0.031,0.07-0.064,0.141-0.096,0.212c-0.031,0.072-0.063,0.144-0.094,0.216c-0.229,0.537-0.412,1.04-0.49,1.421
				c-0.023,0.112-0.039,0.215-0.041,0.303c0,0.011-0.002,0.022-0.002,0.032c0,0,0.002,0.016,0.002,0.024
				c0.004,0.315,0.082,0.61,0.211,0.876c0.031,0.068,0.066,0.135,0.105,0.197c0.029,0.047,0.061,0.092,0.094,0.136
				c0.074,0.1,0.154,0.192,0.244,0.277c0.043,0.04,0.088,0.074,0.135,0.11c0.045,0.036,0.086,0.077,0.135,0.109
				c0.232,0.156,0.506,0.245,0.793,0.297c-0.277-0.078-0.51-0.238-0.668-0.447c-0.037-0.047-0.084-0.088-0.111-0.141
				c-0.033-0.064-0.039-0.14-0.057-0.211c-0.02-0.074-0.053-0.143-0.053-0.221c0-0.07,0.02-0.161,0.051-0.266
				c0.037-0.117,0.09-0.252,0.156-0.396c0.041-0.091,0.088-0.185,0.137-0.28c0.043-0.084,0.084-0.166,0.131-0.251
				c0.041-0.075,0.08-0.15,0.123-0.224c0.322-0.572,0.656-1.08,0.656-1.08s0.334,0.508,0.656,1.08
				c0.043,0.074,0.084,0.149,0.123,0.225c0.047,0.085,0.09,0.167,0.133,0.251c0.047,0.096,0.096,0.191,0.137,0.281
				c0.066,0.144,0.119,0.276,0.154,0.394c0.031,0.104,0.053,0.195,0.053,0.266c0,0.078-0.035,0.148-0.053,0.222
				c-0.02,0.071-0.025,0.146-0.059,0.211c-0.027,0.052-0.074,0.093-0.109,0.14c-0.158,0.209-0.393,0.368-0.67,0.447
				c0.287-0.053,0.561-0.141,0.793-0.297c0.049-0.033,0.09-0.074,0.135-0.109c0.045-0.037,0.092-0.07,0.135-0.11
				c0.09-0.085,0.17-0.179,0.244-0.278c0.033-0.045,0.064-0.088,0.094-0.135C13.144,19.949,13.179,19.883,13.212,19.815z"/>
		</g>
	</g>
</g>
</svg>
