<?xml version="1.0" encoding="utf-8"?>
<!-- Generator: Adobe Illustrator 16.0.3, SVG Export Plug-In . SVG Version: 6.00 Build 0)  -->
<!DOCTYPE svg PUBLIC "-//W3C//DTD SVG 1.1//EN" "http://www.w3.org/Graphics/SVG/1.1/DTD/svg11.dtd">
<svg version="1.1" xmlns="http://www.w3.org/2000/svg" xmlns:xlink="http://www.w3.org/1999/xlink" x="0px" y="0px" width="22.68px"
	 height="22.68px" viewBox="0 0 22.68 22.68" enable-background="new 0 0 22.68 22.68" xml:space="preserve">
<g id="BCGRND">
</g>
<g id="BAREVNE_POZADI_IKON">
	<polygon fill="#585857" points="22.678,16.335 22.678,0 0,0 0,22.679 14.117,22.679 22.678,22.679 	"/>
</g>
<g id="IKONY">
	<g>
		<g>
			<g>
				<rect x="0" y="7.77" fill="#FFFFFF" width="22.678" height="0.889"/>
			</g>
			<g>
				<g>
					<path fill="#FFFFFF" d="M3.299,4.111h-1.24v0.967h1.387v0.493H1.457V2.28h1.914v0.493H2.059v0.85h1.24V4.111z"/>
					<path fill="#FFFFFF" d="M5.24,5.571L5.201,5.307H5.186C5.039,5.492,4.791,5.624,4.483,5.624c-0.479,0-0.746-0.347-0.746-0.708
						c0-0.601,0.531-0.903,1.41-0.898V3.979c0-0.156-0.063-0.415-0.482-0.415c-0.234,0-0.479,0.073-0.641,0.176L3.906,3.349
						c0.176-0.107,0.484-0.21,0.859-0.21c0.762,0,0.982,0.483,0.982,1.001v0.859c0,0.215,0.01,0.425,0.033,0.571H5.24z M5.162,4.408
						c-0.426-0.01-0.83,0.083-0.83,0.444c0,0.234,0.15,0.342,0.342,0.342c0.238,0,0.414-0.156,0.469-0.327
						c0.014-0.044,0.02-0.093,0.02-0.132V4.408z"/>
					<path fill="#FFFFFF" d="M6.308,5.019C6.445,5.102,6.703,5.19,6.918,5.19c0.264,0,0.381-0.107,0.381-0.264
						c0-0.161-0.098-0.244-0.391-0.347C6.445,4.418,6.249,4.164,6.254,3.886c0-0.42,0.347-0.747,0.898-0.747
						c0.264,0,0.493,0.068,0.63,0.142L7.665,3.705C7.563,3.647,7.372,3.569,7.162,3.569c-0.215,0-0.332,0.103-0.332,0.249
						c0,0.151,0.112,0.225,0.415,0.332c0.43,0.156,0.63,0.376,0.635,0.728c0,0.43-0.337,0.742-0.967,0.742
						c-0.288,0-0.547-0.068-0.723-0.166L6.308,5.019z"/>
					<path fill="#FFFFFF" d="M8.703,3.193l0.43,1.274c0.049,0.146,0.098,0.327,0.131,0.464H9.28
						c0.039-0.137,0.082-0.313,0.127-0.469l0.371-1.27h0.645L9.826,4.814C9.498,5.702,9.28,6.098,8.996,6.342
						C8.762,6.552,8.518,6.63,8.365,6.65L8.229,6.142c0.104-0.024,0.23-0.078,0.352-0.166C8.694,5.903,8.824,5.761,8.908,5.6
						c0.023-0.044,0.039-0.078,0.039-0.107c0-0.024-0.006-0.059-0.035-0.117L8.043,3.193H8.703z"/>
					<path fill="#FFFFFF" d="M10.746,2.28h1.9v0.493h-1.299v0.908h1.211v0.493h-1.211v1.396h-0.602V2.28z"/>
					<path fill="#FFFFFF" d="M13.055,3.959c0-0.322-0.006-0.552-0.02-0.767h0.521l0.02,0.454h0.02
						c0.117-0.337,0.396-0.508,0.65-0.508c0.059,0,0.092,0.005,0.141,0.015V3.72c-0.049-0.01-0.102-0.02-0.176-0.02
						c-0.287,0-0.482,0.186-0.537,0.454c-0.01,0.054-0.02,0.117-0.02,0.186v1.23h-0.6V3.959z"/>
					<path fill="#FFFFFF" d="M15.127,4.55c0.014,0.43,0.352,0.615,0.732,0.615c0.277,0,0.479-0.039,0.658-0.107l0.088,0.415
						c-0.205,0.083-0.489,0.146-0.83,0.146c-0.771,0-1.225-0.474-1.225-1.201c0-0.659,0.4-1.279,1.162-1.279
						c0.771,0,1.025,0.635,1.025,1.157c0,0.112-0.01,0.2-0.02,0.254H15.127z M16.172,4.13c0.004-0.22-0.094-0.581-0.494-0.581
						c-0.371,0-0.528,0.337-0.551,0.581H16.172z"/>
					<path fill="#FFFFFF" d="M17.147,5.019c0.137,0.083,0.395,0.171,0.61,0.171c0.264,0,0.381-0.107,0.381-0.264
						c0-0.161-0.098-0.244-0.391-0.347c-0.464-0.161-0.659-0.415-0.654-0.693c0-0.42,0.347-0.747,0.898-0.747
						c0.264,0,0.493,0.068,0.63,0.142l-0.117,0.425c-0.103-0.059-0.293-0.137-0.503-0.137c-0.215,0-0.332,0.103-0.332,0.249
						c0,0.151,0.112,0.225,0.415,0.332c0.43,0.156,0.63,0.376,0.635,0.728c0,0.43-0.337,0.742-0.967,0.742
						c-0.288,0-0.547-0.068-0.723-0.166L17.147,5.019z"/>
					<path fill="#FFFFFF" d="M19.166,2.104h0.605V3.52h0.01c0.072-0.112,0.17-0.205,0.297-0.273c0.117-0.068,0.26-0.107,0.41-0.107
						c0.406,0,0.83,0.269,0.83,1.03v1.401h-0.6V4.238c0-0.347-0.127-0.605-0.459-0.605c-0.234,0-0.4,0.156-0.465,0.337
						c-0.02,0.049-0.023,0.112-0.023,0.181v1.421h-0.605V2.104z"/>
				</g>
			</g>
		</g>
		<g>
			<path fill="#FFFFFF" d="M20.022,21.072H2.656c-0.276,0-0.5-0.223-0.5-0.5V10.387c0-0.276,0.224-0.5,0.5-0.5s0.5,0.224,0.5,0.5
				v9.684h16.365v-9.684c0-0.276,0.224-0.5,0.5-0.5s0.5,0.224,0.5,0.5v10.184C20.522,20.849,20.298,21.072,20.022,21.072z"/>
			<path fill="#FFFFFF" d="M17.185,20.292c-0.009-0.807-0.233-1.629-0.446-1.629H5.94c-0.214,0-0.438,0.822-0.446,1.629
				l-0.732-0.006c0.004-0.395,0.077-2.355,1.179-2.355h10.799c1.102,0,1.175,1.961,1.179,2.355L17.185,20.292z"/>
			<path fill="#FFFFFF" d="M17.185,20.292c-0.009-0.807-0.233-1.629-0.446-1.629H5.94c-0.214,0-0.438,0.822-0.446,1.629
				l-0.732-0.006c0.004-0.395,0.077-2.355,1.179-2.355h10.799c1.102,0,1.175,1.961,1.179,2.355L17.185,20.292z"/>
		</g>
		<g>
			<path opacity="0.5" fill="#FFFFFF" d="M3.022,11.638c0.131-0.131,0.133-0.344,0.002-0.477c-0.102-0.101-0.244-0.1-0.367-0.043
				v0.563C2.78,11.738,2.922,11.738,3.022,11.638z M3.971,10.69c0.08-0.082,0.094-0.189,0.076-0.293H3.42
				c-0.02,0.104-0.006,0.211,0.076,0.293C3.627,10.821,3.838,10.821,3.971,10.69z M2.656,13.011v0.564
				c0.123,0.057,0.266,0.057,0.367-0.045c0.131-0.131,0.131-0.342-0.002-0.475C2.92,12.954,2.78,12.956,2.656,13.011z M3.496,12.111
				c-0.131,0.131-0.133,0.342-0.002,0.473c0.133,0.133,0.346,0.131,0.477,0s0.131-0.342,0-0.475
				C3.84,11.98,3.627,11.98,3.496,12.111z M4.916,11.638c0.131-0.131,0.131-0.344,0-0.477c-0.131-0.129-0.342-0.129-0.473,0.002
				s-0.131,0.344-0.002,0.473C4.574,11.769,4.785,11.769,4.916,11.638z M5.865,10.69c0.08-0.081,0.094-0.188,0.074-0.293H5.315
				c-0.02,0.104-0.006,0.212,0.074,0.293C5.52,10.821,5.733,10.821,5.865,10.69z M3.022,15.425c0.131-0.131,0.131-0.344,0-0.475
				c-0.102-0.102-0.242-0.1-0.365-0.045v0.564C2.78,15.525,2.92,15.527,3.022,15.425z M3.496,14.003
				c-0.133,0.131-0.131,0.344,0,0.475s0.342,0.131,0.475,0c0.131-0.131,0.131-0.344,0-0.475S3.627,13.872,3.496,14.003z
				 M4.442,13.056c-0.129,0.131-0.129,0.346,0,0.475c0.133,0.133,0.344,0.131,0.475,0s0.133-0.344,0-0.475
				C4.787,12.925,4.574,12.925,4.442,13.056z M5.864,12.583c0.131-0.131,0.131-0.342,0-0.473s-0.344-0.131-0.475,0
				s-0.131,0.342,0,0.473S5.733,12.714,5.864,12.583z M6.336,11.161c-0.131,0.133-0.131,0.346,0,0.477
				c0.131,0.131,0.344,0.131,0.475-0.002c0.131-0.129,0.131-0.342,0-0.473S6.467,11.032,6.336,11.161z M7.455,10.76
				c0.07-0.134,0.133-0.252,0.191-0.363H7.209c-0.02,0.104-0.006,0.212,0.074,0.293C7.33,10.737,7.395,10.748,7.455,10.76z
				 M2.656,18.695v0.563c0.123,0.055,0.264,0.057,0.365-0.045c0.131-0.131,0.131-0.342,0-0.473C2.92,18.638,2.78,18.64,2.656,18.695
				z M3.971,18.267c0.129-0.131,0.131-0.344,0-0.475c-0.133-0.133-0.346-0.131-0.475,0c-0.133,0.131-0.133,0.344-0.002,0.475
				S3.838,18.398,3.971,18.267z M4.442,16.845c-0.131,0.131-0.131,0.342,0,0.475c0.133,0.131,0.344,0.131,0.475,0
				c0.131-0.133,0.131-0.344,0-0.475S4.574,16.714,4.442,16.845z M5.864,16.372c0.131-0.131,0.131-0.344,0-0.475
				s-0.344-0.131-0.475,0s-0.131,0.344,0,0.475S5.733,16.503,5.864,16.372z M6.336,15.425c0.131,0.131,0.344,0.131,0.475,0
				c0.059-0.059,0.08-0.135,0.088-0.211c-0.104-0.102-0.191-0.217-0.27-0.34c-0.105-0.018-0.213-0.004-0.293,0.076
				C6.205,15.081,6.205,15.294,6.336,15.425z M2.656,16.8v0.564c0.123,0.055,0.266,0.055,0.367-0.045
				c0.129-0.131,0.129-0.344,0-0.475C2.922,16.743,2.78,16.745,2.656,16.8z M3.971,16.372c0.131-0.131,0.129-0.344,0-0.475
				c-0.133-0.131-0.344-0.131-0.475,0c-0.133,0.133-0.133,0.344,0,0.475C3.625,16.503,3.838,16.503,3.971,16.372z M4.444,14.95
				c-0.131,0.131-0.131,0.344,0,0.475s0.342,0.131,0.473,0s0.131-0.344,0-0.475S4.574,14.82,4.444,14.95z M5.389,14.005
				c-0.131,0.129-0.131,0.342,0,0.473s0.344,0.131,0.475,0s0.131-0.344,0.002-0.475C5.733,13.872,5.52,13.872,5.389,14.005z
				 M6.336,13.056c-0.129,0.131-0.127,0.336-0.002,0.469c0.025-0.156,0.066-0.328,0.129-0.521
				C6.42,13.021,6.371,13.021,6.336,13.056z M9.188,10.694c0.133,0.121,0.338,0.123,0.465-0.004c0.08-0.081,0.094-0.188,0.076-0.293
				H9.104c-0.016,0.078,0.002,0.148,0.045,0.22C9.162,10.641,9.174,10.668,9.188,10.694z M3.496,19.687
				c-0.131,0.129-0.133,0.342,0,0.473c0.131,0.133,0.344,0.131,0.475,0s0.131-0.342,0-0.473C3.838,19.556,3.627,19.556,3.496,19.687
				z M4.444,18.74c-0.131,0.131-0.133,0.344-0.002,0.475c0.133,0.131,0.344,0.131,0.475-0.002c0.131-0.129,0.131-0.342,0-0.473
				S4.574,18.609,4.444,18.74z M5.864,18.267c0.131-0.131,0.131-0.344,0-0.475s-0.344-0.131-0.475,0s-0.131,0.344,0,0.475
				S5.733,18.398,5.864,18.267z M6.338,16.845c-0.133,0.131-0.133,0.344-0.002,0.475c0.133,0.131,0.344,0.131,0.475,0
				c0.131-0.133,0.131-0.344,0-0.475S6.469,16.714,6.338,16.845z M7.283,15.898c-0.131,0.131-0.131,0.344,0,0.475
				s0.344,0.131,0.475,0s0.131-0.344,0-0.475S7.414,15.767,7.283,15.898z M13.44,10.69c0.08-0.081,0.094-0.188,0.076-0.293h-0.625
				c-0.02,0.104-0.006,0.211,0.074,0.293C13.098,10.821,13.309,10.821,13.44,10.69z M5.389,19.685c-0.131,0.131-0.131,0.344,0,0.475
				c0.131,0.133,0.344,0.133,0.477,0c0.129-0.131,0.129-0.344-0.002-0.475C5.733,19.556,5.52,19.556,5.389,19.685z M6.336,18.74
				c-0.131,0.131-0.131,0.344,0,0.473c0.131,0.133,0.344,0.133,0.475,0.002s0.131-0.344,0-0.475S6.467,18.609,6.336,18.74z
				 M7.283,17.792c-0.131,0.131-0.131,0.344,0,0.475s0.344,0.131,0.475,0s0.131-0.344,0-0.475S7.414,17.659,7.283,17.792z
				 M8.231,16.845c-0.131,0.131-0.131,0.344,0,0.475s0.344,0.131,0.475,0s0.131-0.344,0-0.475S8.362,16.714,8.231,16.845z
				 M15.334,10.69c0.08-0.081,0.094-0.188,0.074-0.293H15.03c0.057,0.105,0.115,0.217,0.182,0.344
				C15.254,10.724,15.301,10.723,15.334,10.69z M9.178,19.685c-0.131,0.131-0.131,0.344,0,0.475s0.344,0.133,0.475,0
				c0.131-0.131,0.131-0.344,0-0.473C9.522,19.554,9.309,19.554,9.178,19.685z M10.123,18.74c-0.129,0.131-0.129,0.344,0.002,0.475
				s0.342,0.131,0.473,0c0.133-0.131,0.133-0.344,0.002-0.475C10.467,18.609,10.256,18.609,10.123,18.74z M11.073,17.792
				c-0.133,0.131-0.131,0.344,0,0.475s0.342,0.131,0.473,0c0.133-0.131,0.131-0.344,0-0.475S11.203,17.659,11.073,17.792z
				 M16.281,13.056c-0.016-0.016-0.039-0.012-0.057-0.023c0.043,0.135,0.08,0.266,0.105,0.383
				C16.381,13.292,16.381,13.156,16.281,13.056z M16.754,12.111c-0.133,0.131-0.131,0.342,0,0.473s0.342,0.133,0.473,0
				c0.133-0.131,0.131-0.342,0-0.473S16.885,11.98,16.754,12.111z M17.699,11.163c-0.131,0.131-0.129,0.344,0.002,0.475
				c0.129,0.131,0.342,0.131,0.475,0c0.131-0.131,0.129-0.344,0-0.475C18.043,11.032,17.83,11.03,17.699,11.163z M19.121,10.69
				c0.08-0.081,0.094-0.188,0.076-0.293h-0.625c-0.02,0.104-0.006,0.212,0.076,0.293C18.778,10.821,18.99,10.821,19.121,10.69z
				 M7.283,19.687c-0.131,0.131-0.131,0.342,0,0.473c0.131,0.133,0.344,0.133,0.475,0c0.131-0.131,0.131-0.342,0-0.473
				C7.627,19.554,7.414,19.556,7.283,19.687z M8.231,18.74c-0.131,0.131-0.131,0.342,0,0.473c0.131,0.133,0.344,0.133,0.475,0
				c0.131-0.131,0.131-0.342,0-0.473S8.362,18.609,8.231,18.74z M9.65,18.267c0.133-0.131,0.133-0.344,0.002-0.475
				c-0.131-0.133-0.344-0.131-0.475,0s-0.131,0.344,0,0.475S9.522,18.398,9.65,18.267z M15.807,11.163
				c-0.131,0.131-0.133,0.344,0,0.475c0.131,0.131,0.342,0.131,0.475,0c0.131-0.131,0.131-0.344,0-0.475
				C16.149,11.032,15.938,11.032,15.807,11.163z M17.227,10.69c0.082-0.082,0.096-0.189,0.076-0.293H16.68
				c-0.02,0.104-0.006,0.211,0.074,0.293C16.885,10.821,17.096,10.821,17.227,10.69z M11.073,19.687
				c-0.131,0.129-0.133,0.342,0,0.473c0.131,0.133,0.342,0.131,0.473,0s0.133-0.344,0-0.475
				C11.414,19.554,11.203,19.554,11.073,19.687z M12.018,18.74c-0.131,0.131-0.131,0.342,0,0.473c0.133,0.133,0.344,0.133,0.475,0
				c0.131-0.131,0.131-0.342,0-0.473S12.15,18.609,12.018,18.74z M12.965,17.792c-0.131,0.131-0.131,0.344,0,0.475
				s0.344,0.131,0.475,0s0.131-0.344,0-0.475S13.096,17.661,12.965,17.792z M13.912,16.845c-0.131,0.131-0.131,0.342,0,0.475
				c0.131,0.131,0.344,0.131,0.475,0s0.131-0.344,0-0.475S14.043,16.714,13.912,16.845z M14.86,15.898
				c-0.131,0.131-0.131,0.344,0,0.475s0.344,0.131,0.475,0s0.131-0.344,0-0.475S14.99,15.767,14.86,15.898z M16.059,14.859
				c-0.092,0.145-0.199,0.275-0.324,0.393c0.014,0.063,0.023,0.127,0.072,0.174c0.131,0.131,0.342,0.131,0.475,0
				c0.131-0.131,0.131-0.344,0-0.475C16.219,14.89,16.139,14.863,16.059,14.859z M16.754,14.003c-0.131,0.131-0.131,0.344,0,0.475
				s0.342,0.131,0.473,0s0.133-0.344,0-0.475C17.096,13.872,16.885,13.872,16.754,14.003z M18.174,13.531
				c0.131-0.131,0.131-0.342,0-0.475c-0.131-0.131-0.344-0.131-0.475,0c-0.131,0.133-0.131,0.344,0,0.475
				C17.83,13.663,18.043,13.663,18.174,13.531z M18.649,12.111c-0.133,0.131-0.133,0.342,0,0.473c0.131,0.131,0.342,0.131,0.473,0
				s0.131-0.342,0-0.473S18.78,11.98,18.649,12.111z M19.594,11.163c-0.131,0.131-0.131,0.344,0,0.475
				c0.119,0.117,0.297,0.113,0.428,0.02v-0.514C19.891,11.048,19.713,11.044,19.594,11.163z M12.965,19.687
				c-0.131,0.131-0.131,0.342,0,0.473s0.344,0.133,0.475,0c0.131-0.131,0.131-0.344,0-0.473
				C13.309,19.554,13.098,19.556,12.965,19.687z M13.912,18.74c-0.131,0.131-0.131,0.344,0,0.475s0.344,0.131,0.475-0.002
				c0.131-0.129,0.131-0.342,0-0.473S14.043,18.609,13.912,18.74z M14.86,17.792c-0.131,0.131-0.131,0.344,0,0.475
				s0.344,0.131,0.475,0s0.131-0.344,0-0.475S14.99,17.661,14.86,17.792z M15.807,16.845c-0.131,0.131-0.131,0.342,0,0.475
				c0.131,0.129,0.344,0.131,0.475,0c0.131-0.131,0.131-0.344,0-0.475C16.15,16.714,15.938,16.714,15.807,16.845z M16.754,15.898
				c-0.131,0.133-0.131,0.344,0,0.475s0.342,0.131,0.473,0c0.133-0.131,0.131-0.344,0-0.475S16.885,15.767,16.754,15.898z
				 M17.701,14.95c-0.131,0.131-0.133,0.344,0,0.475c0.129,0.131,0.342,0.131,0.475,0c0.129-0.131,0.129-0.344,0-0.475
				C18.043,14.82,17.83,14.82,17.701,14.95z M18.649,14.005c-0.133,0.131-0.133,0.342,0,0.473c0.129,0.131,0.342,0.131,0.473,0
				s0.131-0.344,0-0.473C18.99,13.872,18.78,13.872,18.649,14.005z M19.594,13.056c-0.131,0.133-0.131,0.344,0,0.475
				c0.119,0.119,0.297,0.115,0.428,0.02v-0.514C19.891,12.943,19.713,12.939,19.594,13.056z M16.754,19.687
				c-0.131,0.131-0.131,0.342,0,0.473s0.342,0.133,0.473,0c0.133-0.131,0.131-0.344,0-0.473
				C17.096,19.554,16.885,19.554,16.754,19.687z M17.701,18.74c-0.131,0.131-0.133,0.342,0,0.473c0.129,0.131,0.344,0.133,0.475,0
				c0.129-0.129,0.129-0.342,0-0.473C18.043,18.609,17.83,18.609,17.701,18.74z M18.649,17.792c-0.133,0.131-0.133,0.344,0,0.475
				c0.129,0.131,0.342,0.131,0.473,0s0.131-0.344,0-0.475S18.78,17.661,18.649,17.792z M19.594,16.845
				c-0.131,0.131-0.131,0.342,0,0.475c0.119,0.117,0.297,0.113,0.428,0.02v-0.514C19.891,16.73,19.713,16.726,19.594,16.845z
				 M14.86,19.685c-0.131,0.131-0.131,0.344,0,0.475c0.131,0.133,0.344,0.131,0.475,0s0.131-0.342-0.002-0.473
				C15.203,19.556,14.99,19.554,14.86,19.685z M15.807,18.74c-0.133,0.131-0.131,0.344,0,0.473c0.131,0.133,0.342,0.133,0.475,0
				c0.131-0.131,0.131-0.342,0-0.473C16.15,18.609,15.938,18.609,15.807,18.74z M16.754,17.792c-0.131,0.131-0.131,0.344,0,0.475
				s0.342,0.131,0.473,0s0.133-0.344,0-0.475C17.098,17.661,16.885,17.661,16.754,17.792z M18.174,17.32
				c0.131-0.131,0.131-0.344,0-0.475s-0.344-0.131-0.475,0s-0.129,0.344,0,0.475C17.83,17.45,18.043,17.45,18.174,17.32z
				 M18.649,15.898c-0.133,0.131-0.131,0.344,0,0.475s0.342,0.131,0.473,0s0.131-0.344,0-0.475S18.778,15.767,18.649,15.898z
				 M19.594,14.95c-0.131,0.131-0.131,0.344,0,0.475c0.119,0.119,0.297,0.115,0.428,0.02v-0.514
				C19.891,14.837,19.713,14.831,19.594,14.95z M18.649,19.685c-0.133,0.131-0.131,0.344,0,0.475s0.342,0.131,0.473,0
				s0.131-0.344,0-0.475S18.778,19.554,18.649,19.685z M19.594,18.74c-0.131,0.131-0.131,0.344,0,0.473
				c0.119,0.119,0.297,0.115,0.428,0.02V18.72C19.891,18.624,19.713,18.62,19.594,18.74z"/>
			<g>
				<path fill="none" d="M10.285,13.365c-0.172,0.258-0.361,0.635-0.43,1.059c-0.035,0.209-0.043,0.43-0.014,0.635
					c0.025,0.207,0.113,0.391,0.188,0.537c0.187,0.291,0.408,0.359,0.398,0.365c0,0-0.016-0.055-0.047-0.137
					c-0.045-0.072-0.053-0.203-0.088-0.33c-0.045-0.27-0.004-0.625,0.055-0.988c0.063-0.363,0.139-0.742,0.197-1.033
					c0.057-0.293,0.082-0.504,0.082-0.504S10.459,13.105,10.285,13.365z"/>
				<path fill="none" d="M7.631,12.695c-0.139,0.176-0.289,0.439-0.336,0.746c-0.033,0.145-0.014,0.316-0.002,0.459
					c0.025,0.15,0.113,0.283,0.156,0.387c0.074,0.1,0.18,0.152,0.227,0.193c0.057,0.037,0.092,0.049,0.092,0.049
					s-0.023-0.176-0.055-0.344c0.006-0.195,0.029-0.414,0.076-0.664c0.02-0.127,0.041-0.252,0.059-0.371
					c0.019-0.121,0.021-0.244,0.041-0.346c0.02-0.209,0.018-0.371,0.018-0.371S7.77,12.517,7.631,12.695z"/>
				<path fill="#FFFFFF" d="M11.338,9.801c0,0-0.979,1.744-1.631,3.267c-0.326,0.76-0.572,1.467-0.572,1.873
					c0,0.059,0.014,0.115,0.018,0.172c0.09,1.137,1.025,2.035,2.186,2.035c1.162,0,2.095-0.9,2.184-2.035
					c0.006-0.059,0.018-0.113,0.018-0.172c0-0.406-0.246-1.111-0.57-1.871C12.317,11.546,11.338,9.801,11.338,9.801z M10.545,13.472
					c-0.059,0.291-0.135,0.67-0.197,1.033c-0.059,0.363-0.1,0.719-0.055,0.988c0.035,0.127,0.043,0.258,0.088,0.33
					c0.031,0.082,0.047,0.137,0.047,0.137c0.01-0.006-0.211-0.074-0.398-0.365c-0.074-0.146-0.162-0.33-0.188-0.537
					c-0.029-0.205-0.021-0.426,0.014-0.635c0.068-0.424,0.258-0.801,0.43-1.059c0.174-0.26,0.342-0.396,0.342-0.396
					S10.602,13.179,10.545,13.472z"/>
				<path opacity="0.5" fill="#FFFFFF" d="M14.336,10.206c0,0-0.653,1.164-1.107,2.211c0.441,0.979,0.811,1.965,0.811,2.523
					c0,0.127-0.02,0.248-0.037,0.369c0.107,0.025,0.219,0.039,0.334,0.039c0.855,0,1.543-0.691,1.543-1.545
					S14.336,10.206,14.336,10.206z"/>
				<path opacity="0.5" fill="#FFFFFF" d="M9.448,12.417c-0.455-1.048-1.107-2.211-1.107-2.211s-1.541,2.745-1.541,3.598
					s0.688,1.545,1.541,1.545c0.115,0,0.225-0.014,0.332-0.037c-0.016-0.123-0.037-0.244-0.037-0.371
					C8.635,14.382,9.006,13.396,9.448,12.417z M7.889,12.804c-0.02,0.102-0.022,0.225-0.041,0.346
					c-0.018,0.119-0.039,0.244-0.059,0.371c-0.047,0.25-0.07,0.469-0.076,0.664c0.031,0.168,0.055,0.344,0.055,0.344
					s-0.035-0.012-0.092-0.049c-0.047-0.041-0.152-0.094-0.227-0.193C7.406,14.183,7.319,14.05,7.293,13.9
					c-0.012-0.143-0.031-0.314,0.002-0.459c0.047-0.307,0.197-0.57,0.336-0.746c0.139-0.178,0.275-0.262,0.275-0.262
					S7.908,12.595,7.889,12.804z"/>
			</g>
		</g>
	</g>
</g>
</svg>
