<?xml version="1.0" encoding="utf-8"?>
<!-- Generator: Adobe Illustrator 16.0.3, SVG Export Plug-In . SVG Version: 6.00 Build 0)  -->
<!DOCTYPE svg PUBLIC "-//W3C//DTD SVG 1.1//EN" "http://www.w3.org/Graphics/SVG/1.1/DTD/svg11.dtd">
<svg version="1.1" xmlns="http://www.w3.org/2000/svg" xmlns:xlink="http://www.w3.org/1999/xlink" x="0px" y="0px" width="22.68px"
	 height="22.68px" viewBox="0 0 22.68 22.68" enable-background="new 0 0 22.68 22.68" xml:space="preserve">
<g id="BCGRND">
</g>
<g id="BAREVNE_POZADI_IKON">
	<rect x="0" y="0" fill="#585857" width="22.677" height="22.677"/>
</g>
<g id="IKONY">
	<g>
		<defs>
			<rect id="SVGID_3_" x="0" y="0" width="22.677" height="22.677"/>
		</defs>
		<clipPath id="SVGID_2_">
			<use xlink:href="#SVGID_3_"  overflow="visible"/>
		</clipPath>
		<g clip-path="url(#SVGID_2_)">
			<g>
				<g>
					<rect x="0" y="11.956" fill="#FFFFFF" width="22.678" height="0.889"/>
				</g>
				<g>
					<g>
						<path fill="#FFFFFF" d="M3,3.827H1.76v0.967h1.387v0.493H1.158V1.996h1.914v0.493H1.76v0.85H3V3.827z"/>
						<path fill="#FFFFFF" d="M5.234,5.214C5.107,5.272,4.857,5.336,4.56,5.336c-0.742,0-1.227-0.474-1.227-1.211
							c0-0.713,0.488-1.27,1.324-1.27c0.219,0,0.443,0.049,0.58,0.112L5.131,3.417C5.033,3.373,4.892,3.324,4.678,3.324
							c-0.459,0-0.732,0.337-0.729,0.771c0,0.488,0.318,0.767,0.729,0.767c0.209,0,0.355-0.044,0.473-0.093L5.234,5.214z"/>
						<path fill="#FFFFFF" d="M7.751,4.076c0,0.874-0.615,1.265-1.221,1.265c-0.674,0-1.191-0.464-1.191-1.226
							c0-0.781,0.513-1.26,1.23-1.26C7.277,2.855,7.751,3.353,7.751,4.076z M5.959,4.1c0,0.459,0.225,0.806,0.591,0.806
							c0.342,0,0.581-0.337,0.581-0.815c0-0.371-0.166-0.796-0.576-0.796C6.13,3.295,5.959,3.705,5.959,4.1z"/>
						<path fill="#FFFFFF" d="M8.111,4.633c0.195,0.112,0.488,0.21,0.795,0.21c0.387,0,0.602-0.181,0.602-0.449
							c0-0.249-0.166-0.396-0.586-0.547C8.379,3.651,8.033,3.363,8.033,2.889c0-0.537,0.449-0.947,1.162-0.947
							c0.355,0,0.619,0.078,0.791,0.166L9.84,2.592C9.723,2.528,9.492,2.435,9.185,2.435c-0.381,0-0.547,0.205-0.547,0.396
							c0,0.254,0.189,0.371,0.629,0.542c0.572,0.215,0.85,0.503,0.85,0.977c0,0.527-0.4,0.986-1.25,0.986
							c-0.346,0-0.707-0.098-0.889-0.205L8.111,4.633z"/>
						<path fill="#FFFFFF" d="M11.131,2.245c0,0.181-0.131,0.322-0.342,0.322c-0.199,0-0.332-0.142-0.332-0.322
							c0-0.186,0.137-0.327,0.338-0.327C11,1.918,11.127,2.059,11.131,2.245z M10.492,5.287V2.909h0.605v2.378H10.492z"/>
						<path fill="#FFFFFF" d="M11.597,1.82h0.605v3.467h-0.605V1.82z"/>
						<path fill="#FFFFFF" d="M13.131,4.266c0.016,0.43,0.352,0.615,0.732,0.615c0.279,0,0.479-0.039,0.66-0.107l0.088,0.415
							c-0.205,0.083-0.488,0.146-0.83,0.146c-0.771,0-1.227-0.474-1.227-1.201c0-0.659,0.4-1.279,1.162-1.279
							c0.771,0,1.025,0.635,1.025,1.157c0,0.112-0.01,0.2-0.02,0.254H13.131z M14.176,3.846c0.006-0.22-0.092-0.581-0.492-0.581
							c-0.371,0-0.527,0.337-0.553,0.581H14.176z"/>
						<path fill="#FFFFFF" d="M15.082,3.617c0-0.273-0.004-0.503-0.02-0.708h0.527l0.029,0.356h0.016
							c0.102-0.186,0.361-0.41,0.756-0.41c0.416,0,0.846,0.269,0.846,1.021v1.411h-0.602V3.944c0-0.342-0.127-0.601-0.453-0.601
							c-0.24,0-0.406,0.171-0.469,0.352c-0.02,0.054-0.025,0.127-0.025,0.195v1.396h-0.605V3.617z"/>
						<path fill="#FFFFFF" d="M19.48,5.214c-0.127,0.059-0.376,0.122-0.674,0.122c-0.742,0-1.226-0.474-1.226-1.211
							c0-0.713,0.488-1.27,1.323-1.27c0.22,0,0.444,0.049,0.581,0.112l-0.107,0.449c-0.098-0.044-0.239-0.093-0.454-0.093
							c-0.459,0-0.732,0.337-0.728,0.771c0,0.488,0.317,0.767,0.728,0.767c0.21,0,0.356-0.044,0.474-0.093L19.48,5.214z"/>
						<path fill="#FFFFFF" d="M20.162,4.266c0.014,0.43,0.352,0.615,0.732,0.615c0.277,0,0.479-0.039,0.658-0.107l0.088,0.415
							c-0.205,0.083-0.488,0.146-0.83,0.146c-0.771,0-1.225-0.474-1.225-1.201c0-0.659,0.4-1.279,1.162-1.279
							c0.771,0,1.025,0.635,1.025,1.157c0,0.112-0.01,0.2-0.02,0.254H20.162z M21.207,3.846c0.004-0.22-0.094-0.581-0.494-0.581
							c-0.371,0-0.527,0.337-0.551,0.581H21.207z"/>
						<path fill="#FFFFFF" d="M6.077,6.54c0.264-0.044,0.601-0.068,0.957-0.068c0.615,0,1.04,0.127,1.343,0.381
							C8.694,7.111,8.89,7.502,8.89,8.063c0,0.586-0.2,1.025-0.513,1.309C8.05,9.67,7.527,9.821,6.888,9.821
							c-0.352,0-0.615-0.02-0.811-0.044V6.54z M6.678,9.328c0.083,0.015,0.21,0.015,0.332,0.015c0.781,0.005,1.245-0.425,1.245-1.26
							C8.26,7.355,7.84,6.94,7.088,6.94c-0.19,0-0.327,0.015-0.41,0.034V9.328z"/>
						<path fill="#FFFFFF" d="M9.406,8.176c0-0.322-0.004-0.552-0.02-0.767H9.91l0.02,0.454h0.02
							c0.117-0.337,0.395-0.508,0.648-0.508c0.059,0,0.094,0.005,0.143,0.015v0.566c-0.049-0.01-0.104-0.02-0.176-0.02
							c-0.289,0-0.484,0.186-0.537,0.454c-0.01,0.054-0.02,0.117-0.02,0.186v1.23H9.406V8.176z"/>
						<path fill="#FFFFFF" d="M11.787,6.745c0,0.181-0.133,0.322-0.342,0.322c-0.201,0-0.332-0.142-0.332-0.322
							c0-0.186,0.137-0.327,0.336-0.327C11.654,6.418,11.781,6.559,11.787,6.745z M11.146,9.787V7.409h0.605v2.378H11.146z"/>
						<path fill="#FFFFFF" d="M12.779,7.409l0.386,1.206c0.068,0.21,0.117,0.4,0.161,0.596h0.015
							c0.044-0.195,0.098-0.381,0.161-0.596l0.376-1.206h0.635l-0.908,2.378h-0.591L12.13,7.409H12.779z"/>
						<path fill="#FFFFFF" d="M15.244,8.766c0.014,0.43,0.352,0.615,0.732,0.615c0.277,0,0.479-0.039,0.658-0.107l0.088,0.415
							c-0.205,0.083-0.488,0.146-0.83,0.146c-0.771,0-1.225-0.474-1.225-1.201c0-0.659,0.4-1.279,1.162-1.279
							c0.771,0,1.025,0.635,1.025,1.157c0,0.112-0.01,0.2-0.02,0.254H15.244z M16.289,8.346c0.004-0.22-0.094-0.581-0.494-0.581
							c-0.371,0-0.527,0.337-0.551,0.581H16.289z"/>
					</g>
				</g>
			</g>
		</g>
		<path opacity="0.5" clip-path="url(#SVGID_2_)" fill="#FFFFFF" d="M11.078,14.29c0.82,2.709,3.682,4.24,6.393,3.418
			c0.836-0.253,1.559-0.7,2.135-1.276c1.044-1.044,1.596-2.516,1.476-4.031h-2.895c0.133,0.726-0.078,1.474-0.608,2.005
			c-0.264,0.264-0.578,0.452-0.939,0.561c-0.578,0.177-1.189,0.115-1.721-0.169c-0.533-0.284-0.924-0.759-1.098-1.339
			c-0.106-0.35-0.108-0.71-0.045-1.058h-2.893C10.834,13.021,10.888,13.658,11.078,14.29z"/>
		<path clip-path="url(#SVGID_2_)" fill="#FFFFFF" d="M22.339,12.401h-0.826c0.117,1.591-0.445,3.176-1.604,4.335
			c-0.641,0.643-1.441,1.119-2.314,1.384c-2.93,0.888-6.039-0.774-6.926-3.706c-0.201-0.664-0.263-1.345-0.215-2.013H9.084
			L9.06,12.639l0.559,0.14c-0.002,0.427,0.045,0.854,0.127,1.279l-0.559,0.263l0.301,0.991l0.602-0.089
			c0.166,0.403,0.369,0.783,0.605,1.134l-0.408,0.448l0.656,0.802l0.521-0.312c0.305,0.305,0.641,0.579,0.998,0.815l-0.193,0.539
			l0.912,0.489l0.34-0.461c0.396,0.167,0.813,0.292,1.24,0.377l0.027,0.57l1.029,0.102l0.139-0.551
			c0.426,0.002,0.855-0.041,1.285-0.127l0.26,0.55l0.988-0.301l-0.09-0.605c0.396-0.166,0.773-0.369,1.127-0.605l0.457,0.415
			l0.801-0.658l-0.311-0.519c0.004-0.003,0.006-0.007,0.012-0.012c0.305-0.305,0.563-0.64,0.793-0.992l0.551,0.197l0.486-0.914
			l-0.461-0.34c0.17-0.4,0.287-0.815,0.371-1.237l0.451-0.022c0-0.178,0-0.353,0-0.513c0-0.004,0-0.01,0-0.014v-0.921l-0.334,0.047
			C22.344,12.528,22.341,12.465,22.339,12.401z"/>
		<g clip-path="url(#SVGID_2_)">
			<path opacity="0.5" fill="#FFFFFF" d="M11.264,21.12c-0.82-2.709-3.682-4.24-6.393-3.418c-0.836,0.253-1.559,0.7-2.135,1.276
				c-1.044,1.044-1.596,2.516-1.476,4.031h2.895c-0.133-0.726,0.078-1.474,0.608-2.005c0.264-0.264,0.578-0.452,0.939-0.561
				c0.578-0.177,1.189-0.115,1.721,0.169c0.533,0.284,0.924,0.759,1.098,1.339c0.106,0.35,0.108,0.71,0.045,1.058h2.893
				C11.508,22.39,11.454,21.752,11.264,21.12z"/>
			<path fill="#FFFFFF" d="M0.003,23.01h0.826c-0.117-1.591,0.445-3.176,1.604-4.335c0.641-0.643,1.441-1.119,2.314-1.384
				c2.93-0.888,6.039,0.774,6.926,3.706c0.201,0.664,0.263,1.345,0.215,2.013h1.369l0.023-0.238l-0.559-0.14
				c0.002-0.427-0.045-0.854-0.127-1.279l0.559-0.263l-0.301-0.991l-0.602,0.089c-0.166-0.403-0.369-0.783-0.605-1.134l0.408-0.448
				l-0.656-0.802l-0.521,0.312c-0.305-0.305-0.641-0.579-0.998-0.815l0.193-0.539L9.16,16.272l-0.34,0.461
				c-0.396-0.167-0.813-0.292-1.24-0.377l-0.027-0.57l-1.029-0.102l-0.139,0.551c-0.426-0.002-0.855,0.041-1.285,0.127l-0.26-0.55
				l-0.988,0.301l0.09,0.605c-0.396,0.166-0.773,0.369-1.127,0.605l-0.457-0.415l-0.801,0.658l0.311,0.519
				c-0.004,0.003-0.006,0.007-0.012,0.012c-0.305,0.305-0.563,0.64-0.793,0.992l-0.551-0.197l-0.486,0.914l0.461,0.34
				c-0.17,0.4-0.287,0.815-0.371,1.237l-0.451,0.022c0,0.178,0,0.353,0,0.513c0,0.004,0,0.01,0,0.014v0.921l0.334-0.047
				C-0.002,22.883,0.001,22.946,0.003,23.01z"/>
		</g>
	</g>
</g>
</svg>
