<?xml version="1.0" encoding="utf-8"?>
<!-- Generator: Adobe Illustrator 16.0.3, SVG Export Plug-In . SVG Version: 6.00 Build 0)  -->
<!DOCTYPE svg PUBLIC "-//W3C//DTD SVG 1.1//EN" "http://www.w3.org/Graphics/SVG/1.1/DTD/svg11.dtd">
<svg version="1.1" xmlns="http://www.w3.org/2000/svg" xmlns:xlink="http://www.w3.org/1999/xlink" x="0px" y="0px"
	 width="48.875px" height="22.678px" viewBox="0 0 48.875 22.678" enable-background="new 0 0 48.875 22.678" xml:space="preserve">
<g id="BCGRND" display="none">
</g>
<g id="BAREVNE_POZADI_IKON">
	<g>
		<rect x="0" y="0" fill="#E5E5E5" width="15.943" height="22.677"/>
		<path d="M12.758,3.706h0.592V2.954h0.755V2.379H13.35V1.628h-0.592v0.751h-0.755v0.575h0.755V3.706z M10.087,3.706h0.592V2.954
			h0.754V2.379h-0.754V1.628h-0.592v0.751H9.331v0.575h0.756V3.706z M7.416,3.706h0.592V2.954h0.756V2.379H8.008V1.628H7.416v0.751
			H6.661v0.575h0.756V3.706z M3.872,4.422l0.666-1.625l0.665,1.625H3.872z M1.896,6.519H3.02l0.458-1.124h2.117l0.458,1.124h1.152
			L5.059,1.473H4.044L1.896,6.519z"/>
		<g>
			<path d="M3.417,19.652V16.63h0.852c0.903,0,1.511,0.623,1.511,1.511v0.014c0,0.889-0.609,1.497-1.511,1.497H3.417z M2.316,20.646
				h1.953c1.576,0,2.663-1.094,2.663-2.505v-0.015c0-1.41-1.087-2.49-2.663-2.49H2.316V20.646z"/>
		</g>
		<polygon points="6,10.608 4.531,8.344 3.064,10.608 4.041,10.608 4.041,13.889 5.023,13.889 5.023,10.608 		"/>
		<polygon fill="#FBBA00" points="15.942,0 15.942,22.677 38.622,22.677 48.875,11.338 38.622,0 		"/>
		<g>
			<path fill="#FFFFFF" d="M24.841,14.776v-2.677h3.095c1.373,0,1.982,0.504,1.982,1.321v0.035c0,0.904-0.713,1.321-1.895,1.321
				H24.841z M24.841,9.873V7.3h2.642c1.13,0,1.756,0.452,1.756,1.252v0.034c0,0.905-0.747,1.287-1.93,1.287H24.841z M22.234,17.122
				h5.789c2.747,0,4.554-1.112,4.554-3.338V13.75c0-1.635-0.869-2.452-2.277-2.991c0.869-0.486,1.599-1.251,1.599-2.624V8.1
				c0-0.835-0.278-1.513-0.835-2.069c-0.695-0.695-1.791-1.078-3.181-1.078h-5.65V17.122z"/>
		</g>
	</g>
</g>
<g id="IKONY">
</g>
</svg>
