<?xml version="1.0" encoding="utf-8"?>
<!-- Generator: Adobe Illustrator 16.0.3, SVG Export Plug-In . SVG Version: 6.00 Build 0)  -->
<!DOCTYPE svg PUBLIC "-//W3C//DTD SVG 1.1//EN" "http://www.w3.org/Graphics/SVG/1.1/DTD/svg11.dtd">
<svg version="1.1" xmlns="http://www.w3.org/2000/svg" xmlns:xlink="http://www.w3.org/1999/xlink" x="0px" y="0px" width="22.68px"
	 height="22.68px" viewBox="0 0 22.68 22.68" enable-background="new 0 0 22.68 22.68" xml:space="preserve">
<g id="BCGRND">
</g>
<g id="BAREVNE_POZADI_IKON">
	<rect y="0" fill="#585857" width="22.676" height="22.678"/>
</g>
<g id="IKONY">
	<g>
		<g>
			<path fill="#FFFFFF" d="M11.474,12.495v0.448h-1.163v-0.448H11.474z"/>
			<path fill="#FFFFFF" d="M13.638,11.478c-0.076-0.005-0.155,0-0.262,0.009c-0.599,0.049-0.866,0.354-0.941,0.688h0.014
				c0.142-0.142,0.346-0.226,0.613-0.226c0.484,0,0.892,0.342,0.892,0.941c0,0.572-0.439,1.043-1.061,1.043
				c-0.772,0-1.15-0.573-1.15-1.261c0-0.542,0.2-0.995,0.515-1.288c0.284-0.262,0.662-0.399,1.11-0.422
				c0.125-0.013,0.209-0.009,0.271-0.004V11.478z M13.269,12.926c0-0.267-0.142-0.497-0.431-0.497c-0.182,0-0.333,0.11-0.395,0.253
				c-0.022,0.04-0.031,0.093-0.031,0.173c0.013,0.307,0.16,0.582,0.471,0.582C13.118,13.436,13.269,13.219,13.269,12.926z"/>
			<path fill="#FFFFFF" d="M16.393,12.428c0,0.888-0.36,1.505-1.092,1.505c-0.746,0-1.075-0.671-1.079-1.487
				c0-0.84,0.351-1.496,1.097-1.496C16.086,10.95,16.393,11.637,16.393,12.428z M14.896,12.446c0,0.661,0.16,0.977,0.417,0.977
				c0.262,0,0.404-0.328,0.404-0.985c0-0.64-0.138-0.978-0.409-0.978C15.065,11.46,14.896,11.771,14.896,12.446z"/>
			<path fill="#FFFFFF" d="M18.611,11.806c0,0.604-0.382,0.924-0.799,0.924c-0.439,0-0.786-0.329-0.786-0.875
				c0-0.515,0.315-0.905,0.813-0.905C18.332,10.95,18.611,11.313,18.611,11.806z M17.528,11.842c-0.004,0.303,0.102,0.52,0.297,0.52
				c0.191,0,0.284-0.195,0.284-0.523c0-0.293-0.08-0.52-0.293-0.52C17.617,11.318,17.528,11.549,17.528,11.842z M17.843,13.933
				l1.661-2.979h0.359l-1.656,2.979H17.843z M20.689,13.006c0,0.6-0.382,0.919-0.799,0.919c-0.435,0-0.781-0.329-0.781-0.87
				c0-0.516,0.315-0.906,0.808-0.906C20.41,12.148,20.689,12.512,20.689,13.006z M19.61,13.037c-0.004,0.302,0.102,0.52,0.293,0.52
				s0.284-0.196,0.284-0.52c0-0.294-0.08-0.52-0.289-0.52C19.699,12.517,19.61,12.748,19.61,13.037z"/>
		</g>
		<g>
			<path fill="#FFFFFF" d="M5.748,17.469l-0.773,2.547H3.281l2.88-8.988h2.094l2.921,8.988H9.402l-0.813-2.547H5.748z M8.322,16.229
				l-0.707-2.214c-0.173-0.547-0.32-1.16-0.453-1.681H7.135c-0.133,0.521-0.28,1.146-0.427,1.681l-0.693,2.214H8.322z"/>
		</g>
		<g>
			<rect x="0.037" y="7.769" fill="#FFFFFF" width="22.677" height="0.889"/>
		</g>
		<g>
			<path fill="#FFFFFF" d="M5.041,4.11h-1.24v0.967h1.387V5.57H3.2V2.279h1.914v0.493H3.801v0.85h1.24V4.11z"/>
			<path fill="#FFFFFF" d="M5.865,3.9c0-0.273-0.01-0.503-0.02-0.708h0.522l0.029,0.356h0.015c0.107-0.186,0.366-0.41,0.762-0.41
				c0.415,0,0.845,0.269,0.845,1.021V5.57H7.417V4.227c0-0.342-0.127-0.601-0.454-0.601c-0.239,0-0.405,0.171-0.469,0.352
				C6.475,4.027,6.465,4.1,6.465,4.169V5.57H5.865V3.9z"/>
			<path fill="#FFFFFF" d="M9.257,4.55c0.015,0.43,0.347,0.615,0.732,0.615c0.278,0,0.474-0.044,0.659-0.107l0.088,0.41
				c-0.205,0.088-0.488,0.151-0.83,0.151c-0.771,0-1.226-0.474-1.226-1.201c0-0.659,0.4-1.279,1.162-1.279
				c0.771,0,1.025,0.635,1.025,1.157c0,0.112-0.01,0.2-0.02,0.254H9.257z M10.302,4.13c0.005-0.22-0.093-0.581-0.493-0.581
				c-0.371,0-0.527,0.337-0.552,0.581H10.302z"/>
			<path fill="#FFFFFF" d="M11.526,3.959c0-0.322-0.005-0.557-0.02-0.767h0.518l0.024,0.449h0.015
				c0.117-0.332,0.396-0.503,0.654-0.503c0.059,0,0.093,0.005,0.142,0.015v0.562C12.805,3.705,12.751,3.7,12.678,3.7
				c-0.283,0-0.483,0.181-0.537,0.454c-0.01,0.054-0.015,0.117-0.015,0.181V5.57h-0.601V3.959z"/>
			<path fill="#FFFFFF" d="M15.552,5.223c0,0.498-0.103,0.854-0.352,1.079c-0.244,0.22-0.591,0.288-0.918,0.288
				c-0.303,0-0.625-0.068-0.83-0.19l0.132-0.454c0.151,0.088,0.405,0.181,0.693,0.181c0.391,0,0.684-0.205,0.684-0.718V5.204h-0.01
				c-0.137,0.21-0.376,0.352-0.693,0.352c-0.591,0-1.011-0.488-1.011-1.162c0-0.781,0.508-1.255,1.079-1.255
				c0.366,0,0.576,0.176,0.688,0.371h0.01l0.024-0.317h0.522c-0.01,0.161-0.02,0.356-0.02,0.684V5.223z M14.951,4.144
				c0-0.059-0.005-0.112-0.02-0.161c-0.063-0.22-0.234-0.386-0.488-0.386c-0.337,0-0.586,0.293-0.586,0.776
				c0,0.405,0.205,0.732,0.581,0.732c0.225,0,0.42-0.146,0.488-0.366c0.02-0.059,0.024-0.142,0.024-0.21V4.144z"/>
			<path fill="#FFFFFF" d="M16.991,2.528c0,0.176-0.132,0.322-0.342,0.322c-0.2,0-0.332-0.146-0.332-0.322
				c0-0.186,0.137-0.327,0.337-0.327C16.859,2.201,16.986,2.343,16.991,2.528z M16.352,5.57V3.192h0.601V5.57H16.352z"/>
			<path fill="#FFFFFF" d="M18.199,4.55c0.015,0.43,0.347,0.615,0.732,0.615c0.278,0,0.474-0.044,0.659-0.107l0.088,0.41
				c-0.205,0.088-0.488,0.151-0.83,0.151c-0.771,0-1.226-0.474-1.226-1.201c0-0.659,0.4-1.279,1.162-1.279
				c0.771,0,1.025,0.635,1.025,1.157c0,0.112-0.01,0.2-0.02,0.254H18.199z M19.244,4.13c0.005-0.22-0.093-0.581-0.493-0.581
				c-0.371,0-0.527,0.337-0.552,0.581H19.244z"/>
		</g>
	</g>
</g>
</svg>
