<?xml version="1.0" encoding="utf-8"?>
<!-- Generator: Adobe Illustrator 16.0.3, SVG Export Plug-In . SVG Version: 6.00 Build 0)  -->
<!DOCTYPE svg PUBLIC "-//W3C//DTD SVG 1.1//EN" "http://www.w3.org/Graphics/SVG/1.1/DTD/svg11.dtd">
<svg version="1.1" xmlns="http://www.w3.org/2000/svg" xmlns:xlink="http://www.w3.org/1999/xlink" x="0px" y="0px"
	 width="39.685px" height="22.678px" viewBox="0 0 39.685 22.678" enable-background="new 0 0 39.685 22.678" xml:space="preserve">
<g id="BCGRND" display="none">
	<rect x="22.679" y="-8.504" display="inline" fill="#FFED00" width="8.504" height="8.504"/>
	<rect x="22.679" y="22.678" display="inline" fill="#FFED00" width="8.504" height="8.504"/>
</g>
<g id="BAREVNE_POZADI_IKON">
	<g>
		<rect fill="#E5E5E5" width="9.064" height="22.677"/>
		<path d="M3.853,4.422l0.666-1.625l0.665,1.625H3.853z M1.877,6.519h1.124l0.458-1.124h2.118l0.458,1.124h1.152L5.04,1.473H4.024
			L1.877,6.519z"/>
		<g>
			<path d="M4.74,20.732c0.916,0,1.625-0.359,2.139-0.794v-2.176H4.704v0.951h1.109v0.717C5.534,19.63,5.176,19.73,4.775,19.73
				c-0.887,0-1.518-0.674-1.518-1.589v-0.014c0-0.852,0.638-1.562,1.44-1.562c0.58,0,0.923,0.186,1.31,0.508l0.694-0.838
				c-0.523-0.442-1.066-0.686-1.969-0.686c-1.517,0-2.627,1.165-2.627,2.591v0.014C2.106,19.637,3.179,20.732,4.74,20.732"/>
		</g>
		<polygon fill="#E30613" points="9.075,0 9.075,22.677 29.431,22.677 39.685,11.338 29.431,0 		"/>
		<polygon points="6,10.608 4.532,8.343 3.064,10.608 4.041,10.608 4.041,13.888 5.023,13.888 5.023,10.608 		"/>
		<g>
			<path fill="#FFFFFF" d="M21.125,17.331c2.225,0,3.946-0.87,5.198-1.93v-5.285h-5.285v2.313h2.694v1.738
				c-0.678,0.487-1.547,0.73-2.521,0.73c-2.155,0-3.685-1.634-3.685-3.859v-0.035c0-2.068,1.547-3.79,3.494-3.79
				c1.408,0,2.242,0.452,3.181,1.234l1.686-2.034c-1.269-1.078-2.59-1.669-4.78-1.669c-3.685,0-6.38,2.834-6.38,6.293v0.035
				C14.728,14.67,17.335,17.331,21.125,17.331"/>
		</g>
	</g>
</g>
<g id="IKONY">
</g>
</svg>
