<?xml version="1.0" encoding="utf-8"?>
<!-- Generator: Adobe Illustrator 16.0.3, SVG Export Plug-In . SVG Version: 6.00 Build 0)  -->
<!DOCTYPE svg PUBLIC "-//W3C//DTD SVG 1.1//EN" "http://www.w3.org/Graphics/SVG/1.1/DTD/svg11.dtd">
<svg version="1.1" xmlns="http://www.w3.org/2000/svg" xmlns:xlink="http://www.w3.org/1999/xlink" x="0px" y="0px" width="22.68px"
	 height="22.68px" viewBox="0 0 22.68 22.68" enable-background="new 0 0 22.68 22.68" xml:space="preserve">
<g id="BCGRND">
</g>
<g id="BAREVNE_POZADI_IKON">
	<rect x="0" y="0" fill="#585857" width="22.677" height="22.677"/>
</g>
<g id="IKONY">
	<g>
		<g>
			<path fill="#FFFFFF" d="M14.604,19.764c-0.387,0.187-1.24,0.399-2.334,0.399c-2.854,0-4.587-1.787-4.587-4.534
				c0-2.961,2.067-4.748,4.814-4.748c1.08,0,1.84,0.228,2.174,0.4l-0.347,1.307c-0.427-0.187-1.027-0.347-1.761-0.347
				c-1.827,0-3.147,1.147-3.147,3.308c0,1.987,1.146,3.241,3.134,3.241c0.653,0,1.347-0.134,1.787-0.32L14.604,19.764z"/>
		</g>
		<rect x="0" y="7.77" fill="#FFFFFF" width="22.678" height="0.889"/>
		<g>
			<g>
				<path fill="#FFFFFF" d="M5.004,4.111h-1.24v0.967H5.15v0.493H3.163V2.28h1.914v0.493H3.763v0.85h1.24V4.111z"/>
				<path fill="#FFFFFF" d="M5.827,3.901c0-0.273-0.01-0.503-0.02-0.708H6.33l0.029,0.356h0.015c0.107-0.186,0.366-0.41,0.762-0.41
					c0.415,0,0.845,0.269,0.845,1.021v1.411H7.38V4.228c0-0.342-0.127-0.601-0.454-0.601c-0.239,0-0.405,0.171-0.469,0.352
					c-0.02,0.049-0.029,0.122-0.029,0.19v1.401H5.827V3.901z"/>
				<path fill="#FFFFFF" d="M9.219,4.55c0.015,0.43,0.347,0.615,0.732,0.615c0.278,0,0.474-0.044,0.659-0.107l0.088,0.41
					c-0.205,0.088-0.488,0.151-0.83,0.151c-0.771,0-1.226-0.474-1.226-1.201c0-0.659,0.4-1.279,1.162-1.279
					c0.771,0,1.025,0.635,1.025,1.157c0,0.112-0.01,0.2-0.02,0.254H9.219z M10.264,4.13c0.005-0.22-0.093-0.581-0.493-0.581
					c-0.371,0-0.527,0.337-0.552,0.581H10.264z"/>
				<path fill="#FFFFFF" d="M11.488,3.959c0-0.322-0.005-0.557-0.02-0.767h0.518l0.024,0.449h0.015
					c0.117-0.332,0.396-0.503,0.654-0.503c0.059,0,0.093,0.005,0.142,0.015v0.562C12.767,3.705,12.714,3.7,12.64,3.7
					c-0.283,0-0.483,0.181-0.537,0.454c-0.01,0.054-0.015,0.117-0.015,0.181v1.235h-0.601V3.959z"/>
				<path fill="#FFFFFF" d="M15.514,5.224c0,0.498-0.103,0.854-0.352,1.079c-0.244,0.22-0.591,0.288-0.918,0.288
					c-0.303,0-0.625-0.068-0.83-0.19l0.132-0.454c0.151,0.088,0.405,0.181,0.693,0.181c0.391,0,0.684-0.205,0.684-0.718V5.204h-0.01
					c-0.137,0.21-0.376,0.352-0.693,0.352c-0.591,0-1.011-0.488-1.011-1.162c0-0.781,0.508-1.255,1.079-1.255
					c0.366,0,0.576,0.176,0.688,0.371h0.01l0.024-0.317h0.522c-0.01,0.161-0.02,0.356-0.02,0.684V5.224z M14.913,4.145
					c0-0.059-0.005-0.112-0.02-0.161c-0.063-0.22-0.234-0.386-0.488-0.386c-0.337,0-0.586,0.293-0.586,0.776
					c0,0.405,0.205,0.732,0.581,0.732c0.225,0,0.42-0.146,0.488-0.366c0.02-0.059,0.024-0.142,0.024-0.21V4.145z"/>
				<path fill="#FFFFFF" d="M16.953,2.529c0,0.176-0.132,0.322-0.342,0.322c-0.2,0-0.332-0.146-0.332-0.322
					c0-0.186,0.137-0.327,0.337-0.327C16.821,2.201,16.948,2.343,16.953,2.529z M16.313,5.571V3.193h0.601v2.378H16.313z"/>
				<path fill="#FFFFFF" d="M18.161,4.55c0.015,0.43,0.347,0.615,0.732,0.615c0.278,0,0.474-0.044,0.659-0.107l0.088,0.41
					c-0.205,0.088-0.488,0.151-0.83,0.151c-0.771,0-1.226-0.474-1.226-1.201c0-0.659,0.4-1.279,1.162-1.279
					c0.771,0,1.025,0.635,1.025,1.157c0,0.112-0.01,0.2-0.02,0.254H18.161z M19.206,4.13c0.005-0.22-0.093-0.581-0.493-0.581
					c-0.371,0-0.527,0.337-0.552,0.581H19.206z"/>
			</g>
		</g>
	</g>
</g>
</svg>
