<?xml version="1.0" encoding="utf-8"?>
<!-- Generator: Adobe Illustrator 16.0.3, SVG Export Plug-In . SVG Version: 6.00 Build 0)  -->
<!DOCTYPE svg PUBLIC "-//W3C//DTD SVG 1.1//EN" "http://www.w3.org/Graphics/SVG/1.1/DTD/svg11.dtd">
<svg version="1.1" xmlns="http://www.w3.org/2000/svg" xmlns:xlink="http://www.w3.org/1999/xlink" x="0px" y="0px"
	 width="48.875px" height="22.678px" viewBox="0 0 48.875 22.678" enable-background="new 0 0 48.875 22.678" xml:space="preserve">
<g id="BCGRND" display="none">
</g>
<g id="BAREVNE_POZADI_IKON">
	<g>
		<rect fill="#E5E5E5" width="15.943" height="22.677"/>
		<path d="M12.758,3.706h0.592V2.954h0.754V2.379H13.35V1.628h-0.592v0.751h-0.755v0.575h0.755V3.706z M10.087,3.706h0.592V2.954
			h0.754V2.379h-0.754V1.628h-0.592v0.751H9.331v0.575h0.756V3.706z M7.417,3.706h0.592V2.954h0.756V2.379H8.008V1.628H7.417v0.751
			H6.661v0.575h0.756V3.706z M3.872,4.422l0.666-1.625l0.665,1.625H3.872z M1.896,6.519H3.02l0.458-1.124h2.117l0.458,1.124h1.152
			L5.059,1.473H4.044L1.896,6.519z"/>
		<path d="M3.427,19.651V16.63h0.852c0.903,0,1.511,0.623,1.511,1.511v0.014c0,0.889-0.608,1.497-1.511,1.497H3.427z M2.326,20.646
			h1.953c1.576,0,2.663-1.094,2.663-2.505v-0.015c0-1.41-1.087-2.489-2.663-2.489H2.326V20.646z"/>
		<polygon points="6,10.608 4.532,8.343 3.064,10.608 4.041,10.608 4.041,13.888 5.023,13.888 5.023,10.608 		"/>
		<polygon fill="#C8D400" points="15.943,0 15.943,22.677 38.623,22.677 48.875,11.338 38.623,0 		"/>
		<path fill="#FFFFFF" d="M32.108,8.408h1.016V7.12h1.295V6.132h-1.295V4.844h-1.016v1.288h-1.296V7.12h1.296V8.408z M25.284,12.028
			l1.617-3.946l1.616,3.946H25.284z M20.486,17.122h2.73l1.112-2.729h5.145l1.113,2.729h2.799L28.17,4.866h-2.469L20.486,17.122z"/>
	</g>
</g>
<g id="IKONY">
</g>
</svg>
