<?xml version="1.0" encoding="utf-8"?>
<!-- Generator: Adobe Illustrator 16.0.3, SVG Export Plug-In . SVG Version: 6.00 Build 0)  -->
<!DOCTYPE svg PUBLIC "-//W3C//DTD SVG 1.1//EN" "http://www.w3.org/Graphics/SVG/1.1/DTD/svg11.dtd">
<svg version="1.1" xmlns="http://www.w3.org/2000/svg" xmlns:xlink="http://www.w3.org/1999/xlink" x="0px" y="0px" width="22.68px"
	 height="22.68px" viewBox="0 0 22.68 22.68" enable-background="new 0 0 22.68 22.68" xml:space="preserve">
<g id="BCGRND">
</g>
<g id="BAREVNE_POZADI_IKON">
	<rect x="0" y="0" fill="#585857" width="22.676" height="22.678"/>
</g>
<g id="IKONY">
	<g>
		<g>
			<path fill="#FFFFFF" d="M11.436,12.494v0.448h-1.164v-0.448H11.436z"/>
			<path fill="#FFFFFF" d="M12.618,11.597H12.61l-0.551,0.263l-0.111-0.507l0.768-0.354h0.556v2.886h-0.653V11.597z"/>
			<path fill="#FFFFFF" d="M16.355,12.428c0,0.888-0.36,1.505-1.093,1.505c-0.746,0-1.074-0.671-1.078-1.487
				c0-0.84,0.351-1.496,1.096-1.496C16.049,10.949,16.355,11.637,16.355,12.428z M14.858,12.446c0,0.661,0.16,0.977,0.418,0.977
				c0.262,0,0.404-0.328,0.404-0.985c0-0.64-0.138-0.978-0.408-0.978C15.028,11.459,14.858,11.771,14.858,12.446z"/>
			<path fill="#FFFFFF" d="M18.573,11.806c0,0.604-0.381,0.924-0.799,0.924c-0.439,0-0.785-0.329-0.785-0.875
				c0-0.515,0.314-0.905,0.813-0.905C18.294,10.949,18.573,11.313,18.573,11.806z M17.49,11.841c-0.005,0.303,0.103,0.52,0.298,0.52
				c0.19,0,0.283-0.195,0.283-0.523c0-0.293-0.079-0.52-0.293-0.52C17.579,11.318,17.49,11.548,17.49,11.841z M17.806,13.933
				l1.66-2.979h0.359l-1.656,2.979H17.806z M20.651,13.005c0,0.6-0.381,0.919-0.799,0.919c-0.436,0-0.781-0.329-0.781-0.87
				c0-0.516,0.314-0.906,0.809-0.906C20.372,12.148,20.651,12.512,20.651,13.005z M19.573,13.036
				c-0.005,0.302,0.102,0.52,0.293,0.52c0.19,0,0.283-0.196,0.283-0.52c0-0.294-0.079-0.52-0.288-0.52
				C19.661,12.517,19.573,12.747,19.573,13.036z"/>
		</g>
		<g>
			<path fill="#FFFFFF" d="M5.71,17.469l-0.773,2.547H3.243l2.881-8.988h2.094l2.92,8.988H9.364l-0.813-2.547H5.71z M8.284,16.229
				l-0.707-2.214c-0.174-0.547-0.32-1.16-0.453-1.681H7.097c-0.133,0.521-0.279,1.146-0.426,1.681l-0.693,2.214H8.284z"/>
		</g>
		<g>
			<rect x="0.001" y="7.769" fill="#FFFFFF" width="22.678" height="0.889"/>
		</g>
		<g>
			<path fill="#FFFFFF" d="M5.003,4.11h-1.24v0.967h1.387V5.57H3.163V2.279h1.914v0.493H3.763v0.85h1.24V4.11z"/>
			<path fill="#FFFFFF" d="M5.827,3.9c0-0.273-0.01-0.503-0.02-0.708H6.33l0.029,0.356h0.015c0.107-0.186,0.366-0.41,0.762-0.41
				c0.415,0,0.845,0.269,0.845,1.021V5.57H7.38V4.227c0-0.342-0.127-0.601-0.454-0.601c-0.239,0-0.405,0.171-0.469,0.352
				C6.437,4.027,6.428,4.1,6.428,4.168V5.57H5.827V3.9z"/>
			<path fill="#FFFFFF" d="M9.22,4.549c0.015,0.43,0.347,0.615,0.732,0.615c0.278,0,0.474-0.044,0.659-0.107l0.088,0.41
				c-0.205,0.088-0.488,0.151-0.83,0.151c-0.771,0-1.226-0.474-1.226-1.201c0-0.659,0.4-1.279,1.162-1.279
				c0.771,0,1.025,0.635,1.025,1.157c0,0.112-0.01,0.2-0.02,0.254H9.22z M10.265,4.129c0.005-0.22-0.093-0.581-0.493-0.581
				c-0.371,0-0.527,0.337-0.552,0.581H10.265z"/>
			<path fill="#FFFFFF" d="M11.488,3.958c0-0.322-0.005-0.557-0.02-0.767h0.518l0.024,0.449h0.015
				c0.117-0.332,0.396-0.503,0.654-0.503c0.059,0,0.093,0.005,0.142,0.015v0.562c-0.054-0.01-0.107-0.015-0.181-0.015
				c-0.283,0-0.483,0.181-0.537,0.454c-0.01,0.054-0.015,0.117-0.015,0.181V5.57h-0.601V3.958z"/>
			<path fill="#FFFFFF" d="M15.515,5.223c0,0.498-0.104,0.854-0.352,1.079c-0.244,0.22-0.592,0.288-0.918,0.288
				c-0.303,0-0.625-0.068-0.83-0.19l0.131-0.454c0.152,0.088,0.406,0.181,0.693,0.181c0.391,0,0.684-0.205,0.684-0.718V5.203h-0.01
				c-0.137,0.21-0.375,0.352-0.693,0.352c-0.59,0-1.01-0.488-1.01-1.162c0-0.781,0.508-1.255,1.078-1.255
				c0.367,0,0.576,0.176,0.689,0.371h0.01l0.023-0.317h0.523c-0.01,0.161-0.02,0.356-0.02,0.684V5.223z M14.913,4.144
				c0-0.059-0.004-0.112-0.02-0.161c-0.063-0.22-0.234-0.386-0.488-0.386c-0.336,0-0.586,0.293-0.586,0.776
				c0,0.405,0.205,0.732,0.582,0.732c0.225,0,0.42-0.146,0.488-0.366c0.02-0.059,0.023-0.142,0.023-0.21V4.144z"/>
			<path fill="#FFFFFF" d="M16.954,2.528c0,0.176-0.133,0.322-0.342,0.322c-0.201,0-0.332-0.146-0.332-0.322
				c0-0.186,0.137-0.327,0.336-0.327C16.821,2.2,16.948,2.342,16.954,2.528z M16.313,5.57V3.192h0.602V5.57H16.313z"/>
			<path fill="#FFFFFF" d="M18.161,4.549c0.016,0.43,0.348,0.615,0.732,0.615c0.279,0,0.475-0.044,0.66-0.107l0.088,0.41
				c-0.205,0.088-0.488,0.151-0.83,0.151c-0.771,0-1.227-0.474-1.227-1.201c0-0.659,0.4-1.279,1.162-1.279
				c0.771,0,1.025,0.635,1.025,1.157c0,0.112-0.01,0.2-0.02,0.254H18.161z M19.206,4.129c0.006-0.22-0.092-0.581-0.492-0.581
				c-0.371,0-0.527,0.337-0.553,0.581H19.206z"/>
		</g>
	</g>
</g>
</svg>
