<?xml version="1.0" encoding="utf-8"?>
<!-- Generator: Adobe Illustrator 16.0.3, SVG Export Plug-In . SVG Version: 6.00 Build 0)  -->
<!DOCTYPE svg PUBLIC "-//W3C//DTD SVG 1.1//EN" "http://www.w3.org/Graphics/SVG/1.1/DTD/svg11.dtd">
<svg version="1.1" xmlns="http://www.w3.org/2000/svg" xmlns:xlink="http://www.w3.org/1999/xlink" x="0px" y="0px"
	 width="48.875px" height="22.678px" viewBox="0 0 48.875 22.678" enable-background="new 0 0 48.875 22.678" xml:space="preserve">
<g id="BCGRND" display="none">
</g>
<g id="BAREVNE_POZADI_IKON">
	<g>
		<rect x="0" y="0" fill="#E5E5E5" width="15.943" height="22.677"/>
		<path d="M12.758,3.706h0.592V2.954h0.755V2.379H13.35V1.628h-0.592v0.751h-0.755v0.575h0.755V3.706z M10.087,3.706h0.592V2.954
			h0.754V2.379h-0.754V1.628h-0.592v0.751H9.331v0.575h0.756V3.706z M7.416,3.706h0.592V2.954h0.756V2.379H8.008V1.628H7.416v0.751
			H6.661v0.575h0.756V3.706z M3.872,4.422l0.666-1.625l0.665,1.625H3.872z M1.896,6.519H3.02l0.458-1.124h2.117l0.458,1.124h1.152
			L5.059,1.473H4.044L1.896,6.519z"/>
		<g>
			<path d="M3.417,19.652V16.63h0.852c0.903,0,1.511,0.623,1.511,1.511v0.014c0,0.889-0.609,1.497-1.511,1.497H3.417z M2.316,20.646
				h1.953c1.576,0,2.663-1.094,2.663-2.505v-0.015c0-1.41-1.087-2.49-2.663-2.49H2.316V20.646z"/>
		</g>
		<polygon points="6,10.608 4.531,8.344 3.064,10.608 4.041,10.608 4.041,13.889 5.023,13.889 5.023,10.608 		"/>
		<polygon fill="#EC6608" points="15.942,0 15.942,22.677 38.622,22.677 48.875,11.338 38.622,0 		"/>
		<g>
			<path fill="#FFFFFF" d="M27.797,17.331c2.347,0,3.737-0.835,4.989-2.173l-1.704-1.722c-0.956,0.87-1.808,1.426-3.198,1.426
				c-2.086,0-3.529-1.739-3.529-3.825v-0.035c0-2.086,1.478-3.79,3.529-3.79c1.217,0,2.173,0.521,3.112,1.373l1.704-1.964
				c-1.13-1.112-2.504-1.877-4.798-1.877c-3.738,0-6.345,2.834-6.345,6.293v0.035C21.556,14.567,24.216,17.331,27.797,17.331"/>
		</g>
	</g>
</g>
<g id="IKONY">
</g>
</svg>
