<?xml version="1.0" encoding="utf-8"?>
<!-- Generator: Adobe Illustrator 16.0.3, SVG Export Plug-In . SVG Version: 6.00 Build 0)  -->
<!DOCTYPE svg PUBLIC "-//W3C//DTD SVG 1.1//EN" "http://www.w3.org/Graphics/SVG/1.1/DTD/svg11.dtd">
<svg version="1.1" xmlns="http://www.w3.org/2000/svg" xmlns:xlink="http://www.w3.org/1999/xlink" x="0px" y="0px"
	 width="48.875px" height="22.678px" viewBox="0 0 48.875 22.678" enable-background="new 0 0 48.875 22.678" xml:space="preserve">
<g id="BCGRND" display="none">
</g>
<g id="BAREVNE_POZADI_IKON">
	<g>
		<rect fill="#E5E5E5" width="15.943" height="22.677"/>
		<path d="M12.758,3.706h0.592V2.954h0.755V2.38H13.35V1.628h-0.592V2.38h-0.755v0.574h0.755V3.706z M10.087,3.706h0.592V2.954
			h0.754V2.38h-0.754V1.628h-0.592V2.38H9.331v0.574h0.756V3.706z M7.417,3.706h0.592V2.954h0.756V2.38H8.008V1.628H7.417V2.38
			H6.661v0.574h0.756V3.706z M3.872,4.423l0.666-1.626l0.665,1.626H3.872z M1.896,6.519H3.02l0.458-1.124h2.117l0.458,1.124h1.152
			L5.059,1.473H4.044L1.896,6.519z"/>
		<path d="M3.427,19.651V16.63h0.852c0.903,0,1.511,0.623,1.511,1.511v0.014c0,0.889-0.608,1.497-1.511,1.497H3.427z M2.326,20.646
			h1.953c1.576,0,2.663-1.094,2.663-2.505v-0.015c0-1.41-1.087-2.49-2.663-2.49H2.326V20.646z"/>
		<polygon points="6,10.608 4.532,8.343 3.064,10.608 4.041,10.608 4.041,13.888 5.023,13.888 5.023,10.608 		"/>
		<polygon fill="#52AE32" points="15.943,0 15.943,22.677 38.623,22.677 48.875,11.338 38.623,0 		"/>
		<path fill="#FFFFFF" d="M35.824,8.408h1.016V7.12h1.296V6.132H36.84V4.844h-1.016v1.288h-1.295V7.12h1.295V8.408z M31.458,8.408
			h1.016V7.12h1.296V6.132h-1.296V4.844h-1.016v1.288h-1.295V7.12h1.295V8.408z M24.635,12.028l1.617-3.946l1.617,3.946H24.635z
			 M19.837,17.122h2.729l1.112-2.729h5.146l1.112,2.729h2.799L27.521,4.866h-2.469L19.837,17.122z"/>
	</g>
</g>
<g id="IKONY">
</g>
</svg>
