<?xml version="1.0" encoding="utf-8"?>
<!-- Generator: Adobe Illustrator 16.0.3, SVG Export Plug-In . SVG Version: 6.00 Build 0)  -->
<!DOCTYPE svg PUBLIC "-//W3C//DTD SVG 1.1//EN" "http://www.w3.org/Graphics/SVG/1.1/DTD/svg11.dtd">
<svg version="1.1" xmlns="http://www.w3.org/2000/svg" xmlns:xlink="http://www.w3.org/1999/xlink" x="0px" y="0px" width="22.68px"
	 height="22.68px" viewBox="0 0 22.68 22.68" enable-background="new 0 0 22.68 22.68" xml:space="preserve">
<g id="BCGRND">
</g>
<g id="BAREVNE_POZADI_IKON">
	<rect x="0.002" y="0" fill="#585857" width="22.678" height="22.679"/>
</g>
<g id="IKONY">
	<g>
		<g>
			<g>
				<path fill="#FFFFFF" d="M4.263,17.469l-0.773,2.547H1.796l2.881-8.988h2.094l2.921,8.988H7.931l-0.813-2.547H4.263z
					 M6.837,16.228L6.13,14.014c-0.173-0.547-0.319-1.16-0.453-1.681H5.65c-0.134,0.521-0.267,1.146-0.427,1.681L4.53,16.228H6.837z
					"/>
			</g>
			<g>
				<rect y="7.768" fill="#FFFFFF" width="22.68" height="0.889"/>
			</g>
			<g>
				<path fill="#FFFFFF" d="M5.002,4.109h-1.24v0.967h1.387v0.493H3.161V2.278h1.914v0.493H3.762v0.85h1.24V4.109z"/>
				<path fill="#FFFFFF" d="M5.826,3.899c0-0.273-0.006-0.503-0.02-0.708h0.527l0.029,0.356h0.014
					c0.104-0.186,0.361-0.41,0.758-0.41c0.414,0,0.844,0.269,0.844,1.021v1.411h-0.6V4.226c0-0.342-0.127-0.601-0.455-0.601
					c-0.238,0-0.404,0.171-0.469,0.352c-0.02,0.054-0.023,0.127-0.023,0.195v1.396H5.826V3.899z"/>
				<path fill="#FFFFFF" d="M9.219,4.549c0.014,0.43,0.352,0.615,0.732,0.615c0.277,0,0.479-0.039,0.658-0.107l0.088,0.415
					c-0.205,0.083-0.488,0.146-0.83,0.146c-0.771,0-1.225-0.474-1.225-1.201c0-0.659,0.4-1.279,1.162-1.279
					c0.771,0,1.025,0.635,1.025,1.157c0,0.112-0.01,0.2-0.02,0.254H9.219z M10.264,4.129c0.004-0.22-0.094-0.581-0.494-0.581
					c-0.371,0-0.527,0.337-0.551,0.581H10.264z"/>
				<path fill="#FFFFFF" d="M11.486,3.958c0-0.322-0.004-0.552-0.02-0.767h0.523l0.02,0.454h0.02
					c0.117-0.337,0.395-0.508,0.648-0.508c0.059,0,0.094,0.005,0.143,0.015v0.566c-0.049-0.01-0.104-0.02-0.176-0.02
					c-0.289,0-0.484,0.186-0.537,0.454c-0.01,0.054-0.02,0.117-0.02,0.186v1.23h-0.602V3.958z"/>
				<path fill="#FFFFFF" d="M15.532,3.191c-0.01,0.161-0.02,0.356-0.02,0.684v1.348c0,0.498-0.103,0.854-0.352,1.079
					c-0.249,0.22-0.591,0.288-0.918,0.288c-0.303,0-0.625-0.063-0.83-0.19l0.132-0.454c0.151,0.088,0.405,0.181,0.693,0.181
					c0.391,0,0.684-0.205,0.684-0.718V5.203h-0.01c-0.137,0.21-0.381,0.352-0.693,0.352c-0.591,0-1.011-0.488-1.011-1.162
					c0-0.781,0.508-1.255,1.079-1.255c0.361,0,0.576,0.176,0.688,0.371h0.01l0.024-0.317H15.532z M14.912,4.143
					c0-0.054-0.005-0.112-0.02-0.161c-0.063-0.22-0.234-0.386-0.488-0.386c-0.337,0-0.586,0.293-0.586,0.776
					c0,0.405,0.205,0.732,0.581,0.732c0.225,0,0.42-0.146,0.488-0.361c0.015-0.063,0.024-0.146,0.024-0.215V4.143z"/>
				<path fill="#FFFFFF" d="M16.952,2.527c0,0.181-0.132,0.322-0.342,0.322c-0.2,0-0.332-0.142-0.332-0.322
					c0-0.186,0.137-0.327,0.337-0.327C16.82,2.2,16.947,2.342,16.952,2.527z M16.313,5.569V3.191h0.605v2.378H16.313z"/>
				<path fill="#FFFFFF" d="M18.16,4.549c0.015,0.43,0.352,0.615,0.732,0.615c0.278,0,0.479-0.039,0.659-0.107l0.088,0.415
					c-0.205,0.083-0.488,0.146-0.83,0.146c-0.771,0-1.226-0.474-1.226-1.201c0-0.659,0.4-1.279,1.162-1.279
					c0.771,0,1.025,0.635,1.025,1.157c0,0.112-0.01,0.2-0.02,0.254H18.16z M19.205,4.129c0.005-0.22-0.093-0.581-0.493-0.581
					c-0.371,0-0.527,0.337-0.552,0.581H19.205z"/>
			</g>
		</g>
		<g>
			<g>
				<path fill="#FFFFFF" d="M10.113,11.656v1.154h1.106v0.497h-1.106v1.165h-0.52v-1.165H8.487V12.81h1.106v-1.154H10.113z"/>
				<path fill="#FFFFFF" d="M13.37,11.656v1.154h1.106v0.497H13.37v1.165h-0.52v-1.165h-1.106V12.81h1.106v-1.154H13.37z"/>
				<path fill="#FFFFFF" d="M16.627,11.656v1.154h1.106v0.497h-1.106v1.165h-0.52v-1.165h-1.106V12.81h1.106v-1.154H16.627z"/>
				<path fill="#FFFFFF" d="M19.884,11.656v1.154h1.106v0.497h-1.106v1.165h-0.52v-1.165h-1.106V12.81h1.106v-1.154H19.884z"/>
			</g>
		</g>
	</g>
</g>
</svg>
