<?xml version="1.0" encoding="utf-8"?>
<!-- Generator: Adobe Illustrator 16.0.3, SVG Export Plug-In . SVG Version: 6.00 Build 0)  -->
<!DOCTYPE svg PUBLIC "-//W3C//DTD SVG 1.1//EN" "http://www.w3.org/Graphics/SVG/1.1/DTD/svg11.dtd">
<svg version="1.1" xmlns="http://www.w3.org/2000/svg" xmlns:xlink="http://www.w3.org/1999/xlink" x="0px" y="0px" width="22.68px"
	 height="22.68px" viewBox="0 0 22.68 22.68" enable-background="new 0 0 22.68 22.68" xml:space="preserve">
<g id="BCGRND">
</g>
<g id="BAREVNE_BCGRND">
	<polygon fill="#585857" points="22.68,16.335 22.68,0 0.002,0 0.002,22.678 14.119,22.678 22.68,22.678 	"/>
</g>
<g id="IKONY">
	<g>
		<g>
			<g>
				<rect x="0.004" y="14.018" fill="#FFFFFF" width="22.676" height="0.889"/>
			</g>
			<g>
				<path fill="#FFFFFF" d="M3.789,18.373h-1.24v0.967h1.387v0.493H1.948v-3.291h1.914v0.493H2.549v0.85h1.24V18.373z"/>
				<path fill="#FFFFFF" d="M4.842,17.455l0.283,0.449c0.078,0.127,0.146,0.244,0.215,0.366h0.015
					c0.068-0.132,0.137-0.254,0.205-0.376l0.264-0.439h0.654l-0.796,1.143l0.811,1.235H5.813l-0.293-0.474
					c-0.078-0.127-0.146-0.254-0.215-0.386h-0.01c-0.068,0.137-0.137,0.254-0.215,0.386l-0.273,0.474H4.144l0.825-1.211
					l-0.796-1.167H4.842z"/>
				<path fill="#FFFFFF" d="M8.512,19.76c-0.127,0.059-0.376,0.127-0.674,0.127c-0.742,0-1.226-0.479-1.226-1.216
					c0-0.713,0.488-1.27,1.323-1.27c0.22,0,0.444,0.049,0.581,0.112l-0.107,0.449C8.312,17.919,8.17,17.87,7.955,17.87
					c-0.459,0-0.732,0.337-0.728,0.771c0,0.488,0.317,0.767,0.728,0.767c0.21,0,0.356-0.044,0.474-0.093L8.512,19.76z"/>
				<path fill="#FFFFFF" d="M8.959,16.366h0.605v3.467H8.959V16.366z"/>
				<path fill="#FFFFFF" d="M12.344,19.12c0,0.283,0.01,0.518,0.02,0.713h-0.527l-0.029-0.361h-0.01
					c-0.103,0.171-0.337,0.415-0.762,0.415c-0.435,0-0.83-0.259-0.83-1.035v-1.396h0.601v1.294c0,0.396,0.127,0.649,0.444,0.649
					c0.239,0,0.396-0.171,0.459-0.322c0.02-0.054,0.034-0.117,0.034-0.186v-1.436h0.601V19.12z"/>
				<path fill="#FFFFFF" d="M12.968,19.281c0.137,0.083,0.396,0.171,0.61,0.171c0.264,0,0.381-0.107,0.381-0.264
					c0-0.161-0.098-0.244-0.391-0.347c-0.464-0.161-0.659-0.415-0.654-0.693c0-0.42,0.347-0.747,0.898-0.747
					c0.264,0,0.493,0.068,0.63,0.142l-0.117,0.425c-0.103-0.059-0.293-0.137-0.503-0.137c-0.215,0-0.332,0.103-0.332,0.249
					c0,0.151,0.112,0.225,0.415,0.332c0.43,0.156,0.63,0.376,0.635,0.728c0,0.43-0.337,0.747-0.967,0.747
					c-0.288,0-0.547-0.073-0.723-0.171L12.968,19.281z"/>
				<path fill="#FFFFFF" d="M15.675,16.791c0,0.181-0.132,0.322-0.342,0.322c-0.2,0-0.332-0.142-0.332-0.322
					c0-0.186,0.137-0.327,0.337-0.327C15.543,16.464,15.67,16.605,15.675,16.791z M15.036,19.833v-2.378h0.605v2.378H15.036z"/>
				<path fill="#FFFFFF" d="M16.668,17.455l0.386,1.206c0.068,0.21,0.117,0.4,0.161,0.596h0.015
					c0.044-0.195,0.098-0.381,0.161-0.596l0.376-1.206h0.635l-0.908,2.378h-0.591l-0.884-2.378H16.668z"/>
				<path fill="#FFFFFF" d="M19.132,18.813c0.015,0.43,0.352,0.615,0.732,0.615c0.278,0,0.479-0.039,0.659-0.107l0.088,0.415
					c-0.205,0.083-0.488,0.151-0.83,0.151c-0.771,0-1.226-0.479-1.226-1.206c0-0.659,0.4-1.279,1.162-1.279
					c0.776,0,1.025,0.635,1.025,1.157c0,0.112-0.01,0.2-0.02,0.254H19.132z M20.177,18.393c0.005-0.22-0.093-0.581-0.493-0.581
					c-0.371,0-0.527,0.337-0.552,0.581H20.177z"/>
			</g>
		</g>
		<g>
			<path fill="#FFFFFF" d="M18.213,3.042c-0.673,0-1.219,0.545-1.219,1.222c0,0.279,0.099,0.534,0.26,0.742
				c-0.691,0.585-1.535,1.462-2.263,2.507c0.424,0.245,0.626,0.701,0.626,1.23c0,0.789-0.637,1.423-1.425,1.423
				c-0.785,0-1.424-0.634-1.424-1.423c0-0.611,0.297-1.129,0.833-1.332c-0.385-0.951-0.884-2.272-1.604-3.5
				c0.339-0.214,0.565-0.592,0.565-1.028c0-0.672-0.547-1.219-1.222-1.219c-0.673,0-1.219,0.547-1.219,1.219
				c0,0.436,0.226,0.813,0.564,1.028c-0.72,1.228-1.222,2.548-1.605,3.5c0.537,0.203,0.833,0.721,0.833,1.332
				c0,0.789-0.635,1.423-1.423,1.423c-0.787,0-1.425-0.634-1.425-1.423c0-0.529,0.203-0.985,0.628-1.23
				c-0.73-1.045-1.575-1.922-2.263-2.507c0.161-0.208,0.258-0.463,0.258-0.742c0-0.677-0.544-1.222-1.221-1.222
				c-0.674,0-1.222,0.545-1.222,1.222c0,0.671,0.547,1.221,1.222,1.221c0.069,0,0.129-0.009,0.195-0.022
				C4.845,6.9,5.087,9.794,5.087,11.591h12.509c0-1.797,0.242-4.691,0.424-6.128c0.064,0.013,0.125,0.022,0.193,0.022
				c0.676,0,1.222-0.549,1.222-1.221C19.435,3.587,18.889,3.042,18.213,3.042z"/>
			<polygon opacity="0.5" fill="#FFFFFF" points="17.826,12.807 4.856,12.807 5.087,11.591 17.596,11.591 			"/>
		</g>
	</g>
</g>
</svg>
