<?xml version="1.0" encoding="utf-8"?>
<!-- Generator: Adobe Illustrator 16.0.3, SVG Export Plug-In . SVG Version: 6.00 Build 0)  -->
<!DOCTYPE svg PUBLIC "-//W3C//DTD SVG 1.1//EN" "http://www.w3.org/Graphics/SVG/1.1/DTD/svg11.dtd">
<svg version="1.1" xmlns="http://www.w3.org/2000/svg" xmlns:xlink="http://www.w3.org/1999/xlink" x="0px" y="0px" width="22.68px"
	 height="22.68px" viewBox="0 0 22.68 22.68" enable-background="new 0 0 22.68 22.68" xml:space="preserve">
<g id="BCGRND">
</g>
<g id="BAREVNE_POZADI_IKON">
	<polygon fill="#585857" points="22.678,16.335 22.678,0 0,0 0,22.679 14.117,22.679 22.678,22.679 	"/>
</g>
<g id="IKONY">
	<g>
		<g>
			<g>
				<rect y="7.77" fill="#FFFFFF" width="22.678" height="0.889"/>
				<g>
					<g>
						<path fill="#FFFFFF" d="M3.407,4.917c0.195,0.112,0.488,0.21,0.797,0.21c0.385,0,0.6-0.181,0.6-0.449
							c0-0.249-0.166-0.396-0.586-0.547C3.677,3.935,3.329,3.647,3.329,3.174c0-0.537,0.449-0.947,1.162-0.947
							c0.357,0,0.621,0.078,0.791,0.166L5.136,2.876C5.019,2.812,4.79,2.719,4.481,2.719c-0.381,0-0.547,0.205-0.547,0.396
							c0,0.254,0.191,0.371,0.631,0.542c0.57,0.215,0.85,0.503,0.85,0.977c0,0.527-0.4,0.986-1.25,0.986
							c-0.348,0-0.709-0.098-0.889-0.205L3.407,4.917z"/>
						<path fill="#FFFFFF" d="M6.159,3.193l0.387,1.206c0.068,0.21,0.117,0.4,0.16,0.596h0.016C6.765,4.8,6.819,4.614,6.882,4.399
							l0.377-1.206h0.635L6.985,5.571H6.394L5.511,3.193H6.159z"/>
						<path fill="#FFFFFF" d="M9.474,5.571L9.435,5.307H9.419C9.272,5.493,9.024,5.625,8.716,5.625
							c-0.479,0-0.746-0.347-0.746-0.708c0-0.601,0.531-0.903,1.41-0.898V3.979c0-0.156-0.063-0.415-0.482-0.415
							c-0.234,0-0.479,0.073-0.641,0.176L8.14,3.349c0.176-0.107,0.484-0.21,0.859-0.21c0.762,0,0.982,0.483,0.982,1.001V5
							c0,0.215,0.01,0.425,0.033,0.571H9.474z M9.396,4.409c-0.426-0.01-0.83,0.083-0.83,0.444c0,0.234,0.15,0.342,0.342,0.342
							c0.238,0,0.414-0.156,0.469-0.327c0.014-0.044,0.02-0.093,0.02-0.132V4.409z"/>
						<path fill="#FFFFFF" d="M10.931,2.885l-0.479-0.723h0.416l0.264,0.444h0.01l0.264-0.444h0.414l-0.473,0.723H10.931z
							 M10.521,3.96c0-0.322-0.004-0.552-0.02-0.767h0.523l0.02,0.454h0.02c0.117-0.337,0.395-0.508,0.648-0.508
							c0.059,0,0.094,0.005,0.143,0.015V3.72c-0.049-0.01-0.104-0.02-0.176-0.02c-0.289,0-0.484,0.186-0.537,0.454
							c-0.01,0.054-0.02,0.117-0.02,0.186v1.23h-0.602V3.96z"/>
						<path fill="#FFFFFF" d="M12.545,4.551c0.015,0.43,0.352,0.615,0.732,0.615c0.278,0,0.479-0.039,0.659-0.107l0.088,0.415
							c-0.205,0.083-0.488,0.146-0.83,0.146c-0.771,0-1.226-0.474-1.226-1.201c0-0.659,0.4-1.279,1.162-1.279
							c0.771,0,1.025,0.635,1.025,1.157c0,0.112-0.01,0.2-0.02,0.254H12.545z M13.59,4.131c0.005-0.22-0.093-0.581-0.493-0.581
							c-0.371,0-0.527,0.337-0.552,0.581H13.59z"/>
						<path fill="#FFFFFF" d="M14.545,3.901c0-0.273-0.005-0.503-0.02-0.708h0.527l0.029,0.356h0.015
							c0.103-0.186,0.361-0.41,0.757-0.41c0.415,0,0.845,0.269,0.845,1.021v1.411h-0.601V4.228c0-0.342-0.127-0.601-0.454-0.601
							c-0.239,0-0.405,0.171-0.469,0.352c-0.02,0.054-0.024,0.127-0.024,0.195v1.396h-0.605V3.901z"/>
						<path fill="#FFFFFF" d="M19.505,4.36c0,0.874-0.615,1.265-1.221,1.265c-0.674,0-1.191-0.464-1.191-1.226
							c0-0.781,0.512-1.26,1.23-1.26C19.03,3.139,19.505,3.637,19.505,4.36z M17.712,4.385c0,0.459,0.225,0.806,0.592,0.806
							c0.342,0,0.58-0.337,0.58-0.815c0-0.371-0.166-0.796-0.576-0.796C17.884,3.579,17.712,3.989,17.712,4.385z"/>
					</g>
				</g>
			</g>
			<g>
				<g>
					<circle fill="#FFFFFF" cx="16.1" cy="15.374" r="0.336"/>
				</g>
				<g>
					<circle fill="#FFFFFF" cx="17.439" cy="15.374" r="0.335"/>
				</g>
				<g>
					<circle fill="#FFFFFF" cx="18.779" cy="15.373" r="0.335"/>
				</g>
				<g>
					<circle fill="#FFFFFF" cx="20.118" cy="15.374" r="0.336"/>
				</g>
				<g>
					<circle fill="#FFFFFF" cx="21.457" cy="15.373" r="0.335"/>
				</g>
				<g>
					<circle fill="#FFFFFF" cx="22.796" cy="15.373" r="0.335"/>
				</g>
			</g>
			<path fill="#FFFFFF" d="M16.101,11.003c-0.186,0-0.336,0.15-0.337,0.336c0,0.185,0.151,0.334,0.337,0.335
				c0.185,0,0.335-0.15,0.335-0.335C16.437,11.153,16.285,11.003,16.101,11.003z M17.438,11.003c-0.185,0-0.335,0.15-0.334,0.336
				c0,0.185,0.149,0.335,0.335,0.335c0.186,0,0.335-0.149,0.335-0.335C17.774,11.154,17.624,11.004,17.438,11.003z M18.779,11.003
				c-0.186,0.001-0.335,0.151-0.335,0.336c-0.001,0.186,0.148,0.335,0.335,0.335c0.185,0,0.335-0.15,0.335-0.336
				C19.114,11.153,18.965,11.003,18.779,11.003z M20.118,11.003c-0.186,0-0.335,0.15-0.336,0.336c0,0.185,0.151,0.335,0.336,0.335
				c0.186,0,0.336-0.15,0.336-0.335C20.453,11.154,20.303,11.003,20.118,11.003z M21.458,11.003c-0.186,0-0.336,0.15-0.336,0.336
				c0.001,0.186,0.149,0.335,0.335,0.335c0.186,0,0.335-0.149,0.335-0.336C21.792,11.153,21.644,11.004,21.458,11.003z
				 M22.797,11.004c-0.187-0.001-0.336,0.149-0.336,0.334c-0.001,0.186,0.15,0.336,0.336,0.336c0.185,0,0.335-0.15,0.335-0.335
				S22.981,11.003,22.797,11.004z M0.029,11.003c-0.186,0-0.336,0.15-0.336,0.336c0.001,0.186,0.149,0.335,0.335,0.335
				c0.186,0,0.335-0.149,0.335-0.336C0.363,11.153,0.215,11.004,0.029,11.003z M1.368,11.004c-0.187-0.001-0.336,0.149-0.336,0.334
				c-0.001,0.186,0.15,0.336,0.336,0.336c0.185,0,0.335-0.15,0.335-0.335S1.553,11.003,1.368,11.004z M2.707,11.004
				c-0.186-0.001-0.335,0.149-0.335,0.335c0,0.185,0.149,0.335,0.335,0.335c0.186,0,0.335-0.15,0.335-0.335
				C3.042,11.154,2.893,11.004,2.707,11.004z M4.046,11.004c-0.186,0-0.335,0.149-0.335,0.335c0,0.185,0.15,0.335,0.336,0.335
				c0.185,0,0.334-0.15,0.334-0.335C4.382,11.154,4.231,11.003,4.046,11.004z M5.385,11.004c-0.185,0-0.334,0.149-0.334,0.335
				c-0.001,0.186,0.148,0.335,0.335,0.335c0.186,0,0.335-0.15,0.335-0.335C5.721,11.154,5.571,11.003,5.385,11.004z M6.725,11.003
				c-0.185,0-0.335,0.15-0.334,0.336c0,0.185,0.149,0.335,0.335,0.335c0.186,0,0.335-0.149,0.335-0.335
				C7.061,11.154,6.91,11.004,6.725,11.003z M9.404,11.003c-0.186,0-0.335,0.15-0.336,0.336c0,0.185,0.151,0.335,0.336,0.335
				c0.186,0,0.336-0.15,0.336-0.335C9.739,11.153,9.589,11.003,9.404,11.003z M10.744,11.003c-0.186,0-0.336,0.15-0.336,0.336
				c0.001,0.186,0.149,0.335,0.335,0.335c0.186,0,0.335-0.149,0.335-0.336C11.078,11.153,10.93,11.004,10.744,11.003z
				 M12.083,11.004c-0.187-0.001-0.336,0.149-0.336,0.334c-0.001,0.186,0.15,0.336,0.336,0.336c0.185,0,0.335-0.15,0.335-0.335
				S12.268,11.003,12.083,11.004z M13.422,11.004c-0.186-0.001-0.335,0.149-0.335,0.335c0,0.185,0.149,0.335,0.335,0.335
				c0.186,0,0.335-0.15,0.335-0.335C13.757,11.153,13.607,11.004,13.422,11.004z M14.761,11.004c-0.186,0-0.335,0.149-0.335,0.335
				c0,0.185,0.15,0.335,0.336,0.335c0.185,0,0.334-0.15,0.334-0.335C15.097,11.153,14.946,11.003,14.761,11.004z"/>
			<g>
				<g>
					<path opacity="0.5" fill="#FFFFFF" d="M11.668,15.433c-0.128,0-0.256-0.049-0.354-0.146l-6.719-6.72
						C4.4,8.372,4.4,8.055,4.596,7.86s0.512-0.195,0.707,0l6.719,6.72c0.195,0.195,0.195,0.512,0,0.707
						C11.924,15.384,11.796,15.433,11.668,15.433z"/>
					<path fill="#FFFFFF" d="M12.108,15.874c-0.128,0-0.256-0.049-0.354-0.146L11.127,15.1c-0.195-0.195-0.195-0.512,0-0.707
						s0.512-0.195,0.707,0l0.628,0.627c0.195,0.195,0.195,0.513,0,0.708C12.364,15.825,12.236,15.874,12.108,15.874z"/>
				</g>
				<g>
					<g opacity="0.5">
						<g>
							<path fill="#FFFFFF" d="M11.975,13.631c-0.138,0-0.25-0.111-0.25-0.25v-0.932c0-0.138,0.112-0.25,0.25-0.25
								s0.25,0.112,0.25,0.25v0.932C12.225,13.52,12.112,13.631,11.975,13.631z"/>
							<path fill="#FFFFFF" d="M11.975,18.55c-0.138,0-0.25-0.113-0.25-0.25v-0.932c0-0.139,0.112-0.25,0.25-0.25
								s0.25,0.111,0.25,0.25V18.3C12.225,18.437,12.112,18.55,11.975,18.55z"/>
						</g>
					</g>
					<g opacity="0.5">
						<g>
							<path fill="#FFFFFF" d="M14.043,17.693c-0.063,0-0.128-0.025-0.177-0.074l-0.659-0.658c-0.098-0.098-0.098-0.256,0-0.354
								c0.097-0.096,0.255-0.098,0.354,0l0.659,0.658c0.098,0.098,0.098,0.256,0,0.354C14.171,17.667,14.107,17.693,14.043,17.693z"
								/>
						</g>
					</g>
					<g opacity="0.5">
						<g>
							<path fill="#FFFFFF" d="M13.383,14.214c-0.064,0-0.128-0.024-0.177-0.073c-0.098-0.098-0.098-0.256,0-0.354l0.659-0.659
								c0.098-0.098,0.256-0.098,0.354,0s0.098,0.256,0,0.354l-0.659,0.659C13.511,14.19,13.447,14.214,13.383,14.214z"/>
							<path fill="#FFFFFF" d="M9.906,17.693c-0.063,0-0.128-0.025-0.177-0.074c-0.098-0.098-0.098-0.256,0-0.354l0.658-0.66
								c0.097-0.096,0.255-0.098,0.354,0c0.098,0.098,0.098,0.256,0,0.354l-0.658,0.66C10.034,17.667,9.971,17.693,9.906,17.693z"/>
						</g>
					</g>
					<g opacity="0.5">
						<g>
							<path fill="#FFFFFF" d="M14.899,15.624h-0.933c-0.138,0-0.25-0.113-0.25-0.25c0-0.138,0.112-0.251,0.25-0.251h0.933
								c0.138,0,0.25,0.113,0.25,0.251C15.149,15.511,15.037,15.624,14.899,15.624z"/>
							<path fill="#FFFFFF" d="M9.981,15.624H9.05c-0.138,0-0.25-0.113-0.25-0.25c0-0.138,0.112-0.251,0.25-0.251h0.932
								c0.138,0,0.25,0.113,0.25,0.251C10.231,15.511,10.119,15.624,9.981,15.624z"/>
						</g>
					</g>
				</g>
			</g>
			<path fill="#FFFFFF" d="M7.808,15.624H0c-0.138,0-0.25-0.113-0.25-0.25c0-0.138,0.112-0.251,0.25-0.251h7.808
				c0.138,0,0.25,0.113,0.25,0.251C8.058,15.511,7.945,15.624,7.808,15.624z"/>
			<path fill="#FFFFFF" d="M22.678,20.06H0c-0.138,0-0.25-0.113-0.25-0.25c0-0.139,0.112-0.25,0.25-0.25h22.678
				c0.138,0,0.25,0.111,0.25,0.25C22.928,19.947,22.815,20.06,22.678,20.06z"/>
		</g>
	</g>
</g>
</svg>
