<?xml version="1.0" encoding="utf-8"?>
<!-- Generator: Adobe Illustrator 16.0.3, SVG Export Plug-In . SVG Version: 6.00 Build 0)  -->
<!DOCTYPE svg PUBLIC "-//W3C//DTD SVG 1.1//EN" "http://www.w3.org/Graphics/SVG/1.1/DTD/svg11.dtd">
<svg version="1.1" xmlns="http://www.w3.org/2000/svg" xmlns:xlink="http://www.w3.org/1999/xlink" x="0px" y="0px" width="22.68px"
	 height="22.68px" viewBox="0 0 22.68 22.68" enable-background="new 0 0 22.68 22.68" xml:space="preserve">
<g id="BCGRND">
</g>
<g id="BAREVNE_BCGRND">
	<polygon fill="#585857" points="22.68,16.335 22.68,0 0.002,0 0.002,22.678 14.119,22.678 22.68,22.678 	"/>
</g>
<g id="IKONY">
	<g>
		<g>
			<rect x="0.002" y="11.956" fill="#FFFFFF" width="22.678" height="0.889"/>
		</g>
		<g>
			<path fill="#FFFFFF" d="M6.272,1.995h1.899v0.493H6.873v0.908h1.211V3.89H6.873v1.396H6.272V1.995z"/>
			<path fill="#FFFFFF" d="M8.658,1.819h0.605v3.467H8.658V1.819z"/>
			<path fill="#FFFFFF" d="M10.339,4.266c0.015,0.43,0.352,0.615,0.732,0.615c0.278,0,0.479-0.039,0.659-0.107l0.088,0.415
				c-0.205,0.083-0.488,0.146-0.83,0.146c-0.771,0-1.226-0.474-1.226-1.201c0-0.659,0.4-1.279,1.162-1.279
				c0.771,0,1.025,0.635,1.025,1.157c0,0.112-0.01,0.2-0.02,0.254H10.339z M11.384,3.846c0.005-0.22-0.093-0.581-0.493-0.581
				c-0.371,0-0.527,0.337-0.552,0.581H11.384z"/>
			<path fill="#FFFFFF" d="M12.799,2.908l0.283,0.449c0.078,0.127,0.146,0.244,0.215,0.366h0.015
				c0.068-0.132,0.137-0.254,0.205-0.376l0.264-0.439h0.654l-0.796,1.143l0.811,1.235H13.77l-0.293-0.474
				c-0.078-0.127-0.146-0.254-0.215-0.386h-0.01c-0.068,0.137-0.137,0.254-0.215,0.386l-0.273,0.474H12.1l0.825-1.211L12.13,2.908
				H12.799z"/>
			<path fill="#FFFFFF" d="M15.453,2.244c0,0.181-0.132,0.322-0.342,0.322c-0.2,0-0.332-0.142-0.332-0.322
				c0-0.186,0.137-0.327,0.337-0.327C15.321,1.917,15.448,2.059,15.453,2.244z M14.813,5.286V2.908h0.605v2.378H14.813z"/>
			<path fill="#FFFFFF" d="M6.336,9.439L7.23,8.297c0.122-0.146,0.225-0.264,0.352-0.4v-0.01H6.424V7.408h1.89v0.366L7.44,8.893
				C7.323,9.034,7.21,9.171,7.088,9.298v0.01h1.255v0.479H6.336V9.439z"/>
			<path fill="#FFFFFF" d="M10.988,8.575c0,0.874-0.615,1.265-1.221,1.265c-0.674,0-1.191-0.464-1.191-1.226
				c0-0.781,0.513-1.26,1.23-1.26C10.514,7.354,10.988,7.853,10.988,8.575z M9.196,8.6c0,0.459,0.225,0.806,0.591,0.806
				c0.342,0,0.581-0.337,0.581-0.815c0-0.371-0.166-0.796-0.576-0.796C9.366,7.794,9.196,8.204,9.196,8.6z M10.499,6.378
				L9.899,7.101H9.484l0.425-0.723H10.499z"/>
			<path fill="#FFFFFF" d="M11.484,8.116c0-0.273-0.005-0.503-0.02-0.708h0.527l0.029,0.356h0.015
				c0.103-0.186,0.361-0.41,0.757-0.41c0.415,0,0.845,0.269,0.845,1.021v1.411h-0.601V8.443c0-0.342-0.127-0.601-0.454-0.601
				c-0.239,0-0.405,0.171-0.469,0.352c-0.02,0.054-0.024,0.127-0.024,0.195v1.396h-0.605V8.116z"/>
			<path fill="#FFFFFF" d="M15.618,9.786l-0.039-0.264h-0.015c-0.146,0.186-0.396,0.317-0.703,0.317
				c-0.479,0-0.747-0.347-0.747-0.708c0-0.601,0.532-0.903,1.411-0.898V8.194c0-0.156-0.063-0.415-0.483-0.415
				c-0.234,0-0.479,0.073-0.64,0.176l-0.117-0.391c0.176-0.107,0.483-0.21,0.859-0.21c0.762,0,0.981,0.483,0.981,1.001v0.859
				c0,0.215,0.01,0.425,0.034,0.571H15.618z M15.54,8.624c-0.425-0.01-0.83,0.083-0.83,0.444c0,0.234,0.151,0.342,0.342,0.342
				c0.239,0,0.415-0.156,0.469-0.327c0.015-0.044,0.02-0.093,0.02-0.132V8.624z"/>
		</g>
		<g>
			<path fill="#FFFFFF" d="M3.999,18.097c-0.131-0.13-0.341-0.13-0.471,0c-0.13,0.13-0.13,0.34,0,0.47c0.13,0.14,0.34,0.14,0.471,0
				C4.129,18.438,4.129,18.228,3.999,18.097z M4.948,17.147c-0.13-0.13-0.34-0.13-0.47,0c-0.14,0.13-0.14,0.35,0,0.48
				c0.13,0.129,0.34,0.129,0.47,0C5.078,17.497,5.078,17.277,4.948,17.147z M3.999,19.997c-0.131-0.14-0.341-0.14-0.471,0
				c-0.13,0.131-0.13,0.341,0,0.47c0.13,0.13,0.34,0.13,0.471,0C4.129,20.338,4.129,20.128,3.999,19.997z M4.948,19.047
				c-0.13-0.13-0.34-0.13-0.47,0s-0.14,0.34,0,0.47c0.13,0.13,0.34,0.13,0.47,0C5.078,19.387,5.078,19.177,4.948,19.047z
				 M5.898,18.097c-0.13-0.13-0.35-0.13-0.479,0c-0.131,0.13-0.131,0.35,0,0.48c0.13,0.13,0.35,0.13,0.479-0.01
				C6.028,18.447,6.028,18.228,5.898,18.097z M6.839,17.147c-0.13-0.13-0.34-0.13-0.471,0.01c-0.13,0.13-0.13,0.34,0,0.471
				c0.131,0.129,0.341,0.129,0.471,0C6.979,17.497,6.979,17.287,6.839,17.147z M3.999,21.887c-0.131-0.13-0.341-0.13-0.471,0
				s-0.13,0.34,0,0.47s0.34,0.13,0.471,0C4.129,22.228,4.129,22.017,3.999,21.887z M4.948,20.938c-0.13-0.13-0.34-0.13-0.47,0
				c-0.14,0.13-0.13,0.34,0,0.48c0.13,0.13,0.34,0.13,0.47,0C5.078,21.277,5.078,21.067,4.948,20.938z M5.898,19.997
				c-0.13-0.14-0.35-0.14-0.479,0c-0.131,0.131-0.131,0.341,0,0.47c0.13,0.13,0.35,0.13,0.479,0
				C6.028,20.338,6.028,20.128,5.898,19.997z M6.839,19.047c-0.13-0.13-0.34-0.13-0.471,0c-0.13,0.13-0.13,0.34,0,0.47
				c0.131,0.13,0.341,0.13,0.48,0C6.979,19.387,6.979,19.177,6.839,19.047z M7.788,18.097c-0.13-0.13-0.34-0.13-0.47,0
				c-0.13,0.13-0.13,0.35,0,0.47c0.13,0.14,0.34,0.14,0.47,0.01C7.919,18.447,7.919,18.228,7.788,18.097z M8.738,17.147
				c-0.13-0.13-0.34-0.13-0.479,0c-0.13,0.13-0.13,0.35,0,0.48c0.14,0.129,0.35,0.129,0.479,0
				C8.868,17.497,8.868,17.277,8.738,17.147z M7.788,21.887c-0.13-0.13-0.34-0.13-0.47,0s-0.13,0.34,0,0.47s0.34,0.13,0.47,0
				C7.919,22.228,7.919,22.017,7.788,21.887z M8.738,20.938c-0.13-0.13-0.34-0.13-0.479,0c-0.13,0.13-0.13,0.34,0,0.48
				c0.14,0.13,0.35,0.13,0.479,0C8.868,21.277,8.868,21.067,8.738,20.938z M9.688,19.997c-0.14-0.14-0.35-0.14-0.479,0
				c-0.131,0.131-0.131,0.341,0,0.47c0.13,0.13,0.34,0.13,0.479,0C9.818,20.338,9.818,20.128,9.688,19.997z M10.158,19.047
				c-0.13,0.13-0.13,0.34,0,0.47c0.051,0.05,0.12,0.071,0.181,0.08v-0.63C10.278,18.978,10.209,18.997,10.158,19.047z
				 M12.528,17.147c-0.05-0.05-0.12-0.06-0.189-0.07v0.62c0.069-0.01,0.14-0.02,0.189-0.069
				C12.658,17.497,12.658,17.277,12.528,17.147z M5.898,21.887c-0.13-0.13-0.35-0.13-0.479,0c-0.131,0.13-0.131,0.34,0,0.47
				c0.14,0.13,0.35,0.13,0.479,0S6.028,22.017,5.898,21.887z M6.839,20.938c-0.13-0.13-0.34-0.13-0.471,0
				c-0.13,0.13-0.13,0.34,0,0.48c0.131,0.13,0.341,0.13,0.471,0C6.979,21.277,6.979,21.067,6.839,20.938z M7.788,19.997
				c-0.13-0.14-0.34-0.14-0.47,0c-0.13,0.131-0.13,0.341,0,0.47c0.13,0.13,0.34,0.13,0.47,0C7.919,20.338,7.919,20.128,7.788,19.997
				z M8.738,19.047c-0.13-0.13-0.34-0.13-0.479,0c-0.13,0.13-0.13,0.34,0,0.47c0.14,0.13,0.35,0.13,0.479,0
				C8.868,19.387,8.868,19.177,8.738,19.047z M9.688,18.097c-0.14-0.13-0.35-0.13-0.479,0c-0.131,0.13-0.131,0.34,0,0.47
				c0.13,0.14,0.34,0.14,0.479,0C9.818,18.438,9.818,18.228,9.688,18.097z M10.158,17.157c-0.13,0.12-0.13,0.34,0,0.471
				c0.051,0.049,0.12,0.06,0.181,0.069v-0.62C10.278,17.088,10.209,17.097,10.158,17.157z M9.688,21.887
				c-0.14-0.13-0.35-0.13-0.479,0c-0.131,0.13-0.131,0.34,0,0.47c0.13,0.13,0.34,0.13,0.479,0
				C9.818,22.228,9.818,22.017,9.688,21.887z M10.158,20.938c-0.13,0.13-0.13,0.34,0,0.48c0.051,0.05,0.12,0.06,0.181,0.07v-0.62
				C10.278,20.878,10.209,20.887,10.158,20.938z M12.528,19.047c-0.05-0.05-0.12-0.07-0.189-0.08v0.63
				c0.069-0.009,0.14-0.03,0.189-0.08C12.658,19.387,12.658,19.177,12.528,19.047z M13.469,18.097c-0.13-0.13-0.34-0.13-0.47,0
				c-0.131,0.13-0.131,0.34,0,0.47c0.13,0.14,0.34,0.14,0.47,0C13.599,18.438,13.599,18.228,13.469,18.097z M14.419,17.157
				c-0.131-0.14-0.341-0.14-0.471-0.01c-0.13,0.13-0.13,0.35,0,0.48c0.13,0.129,0.34,0.129,0.471,0
				C14.549,17.497,14.549,17.287,14.419,17.157z M12.528,20.938c-0.05-0.05-0.12-0.06-0.189-0.07v0.62
				c0.069-0.01,0.14-0.02,0.189-0.07C12.658,21.277,12.658,21.067,12.528,20.938z M13.469,19.997c-0.13-0.14-0.34-0.14-0.47,0
				c-0.131,0.131-0.131,0.341,0,0.47c0.13,0.13,0.34,0.13,0.47,0C13.599,20.338,13.599,20.128,13.469,19.997z M14.419,19.047
				c-0.131-0.13-0.341-0.13-0.471,0s-0.13,0.34,0,0.47c0.13,0.13,0.34,0.13,0.471,0C14.549,19.387,14.549,19.177,14.419,19.047z
				 M15.368,18.097c-0.13-0.13-0.35-0.13-0.479,0c-0.13,0.13-0.13,0.35,0,0.48c0.13,0.13,0.35,0.13,0.479-0.01
				C15.499,18.447,15.499,18.228,15.368,18.097z M16.309,17.157c-0.13-0.14-0.34-0.14-0.47,0c-0.13,0.13-0.13,0.34,0,0.471
				c0.13,0.129,0.34,0.129,0.47,0C16.448,17.497,16.448,17.277,16.309,17.157z M15.368,21.887c-0.13-0.13-0.35-0.13-0.479,0
				s-0.13,0.34,0,0.47s0.35,0.13,0.479,0C15.499,22.228,15.499,22.017,15.368,21.887z M16.309,20.938c-0.13-0.13-0.34-0.13-0.47,0
				c-0.13,0.13-0.13,0.34,0,0.48c0.13,0.13,0.34,0.13,0.47,0C16.448,21.277,16.448,21.067,16.309,20.938z M17.259,19.997
				c-0.13-0.14-0.34-0.14-0.471,0c-0.13,0.131-0.13,0.341,0,0.47c0.131,0.13,0.341,0.13,0.471,0
				C17.389,20.338,17.389,20.128,17.259,19.997z M18.209,19.047c-0.131-0.13-0.341-0.13-0.48,0c-0.13,0.13-0.13,0.34,0,0.47
				c0.14,0.13,0.35,0.13,0.48,0C18.339,19.387,18.339,19.177,18.209,19.047z M19.158,18.097c-0.14-0.13-0.35-0.13-0.479,0
				c-0.13,0.13-0.13,0.34,0,0.47c0.13,0.14,0.35,0.14,0.479,0C19.288,18.447,19.288,18.228,19.158,18.097z M13.469,21.887
				c-0.13-0.13-0.34-0.13-0.47,0c-0.131,0.13-0.131,0.34,0,0.47c0.13,0.13,0.34,0.13,0.47,0S13.599,22.017,13.469,21.887z
				 M14.419,20.938c-0.131-0.13-0.341-0.13-0.471,0c-0.13,0.13-0.13,0.34,0,0.48c0.13,0.13,0.34,0.13,0.471,0
				C14.549,21.277,14.549,21.067,14.419,20.938z M15.368,19.997c-0.13-0.14-0.35-0.14-0.479,0c-0.13,0.131-0.13,0.341,0,0.47
				c0.13,0.13,0.35,0.13,0.479,0C15.499,20.338,15.499,20.128,15.368,19.997z M16.309,19.047c-0.13-0.13-0.34-0.13-0.47,0
				s-0.13,0.34,0,0.47c0.13,0.13,0.34,0.13,0.47,0C16.448,19.387,16.448,19.177,16.309,19.047z M17.259,18.097
				c-0.13-0.13-0.34-0.13-0.471,0c-0.13,0.13-0.13,0.35,0,0.47c0.131,0.14,0.341,0.14,0.471,0
				C17.389,18.438,17.389,18.228,17.259,18.097z M18.209,17.147c-0.131-0.13-0.341-0.13-0.48,0c-0.13,0.13-0.13,0.35,0,0.48
				c0.14,0.129,0.35,0.129,0.48,0C18.339,17.497,18.339,17.277,18.209,17.147z M17.259,21.887c-0.13-0.13-0.34-0.13-0.471,0
				c-0.13,0.13-0.13,0.34,0,0.47c0.131,0.13,0.341,0.13,0.471,0S17.389,22.017,17.259,21.887z M18.209,20.938
				c-0.131-0.13-0.341-0.13-0.48,0c-0.13,0.13-0.13,0.34,0,0.48c0.14,0.13,0.35,0.13,0.48,0
				C18.339,21.277,18.339,21.067,18.209,20.938z M19.158,19.997c-0.14-0.14-0.35-0.14-0.479,0c-0.13,0.131-0.13,0.341,0,0.47
				c0.13,0.13,0.34,0.13,0.479,0C19.288,20.338,19.288,20.128,19.158,19.997z M19.158,21.887c-0.14-0.13-0.35-0.13-0.479,0
				s-0.13,0.34,0,0.47s0.34,0.13,0.479,0C19.288,22.228,19.288,22.017,19.158,21.887z M3.129,15.517c-0.21,0-0.4,0.05-0.58,0.14
				c-0.23,0.11-0.41,0.29-0.54,0.5c-0.11,0.181-0.181,0.37-0.2,0.59c-0.01,0.04-0.03,0.08-0.03,0.12v5.81h1v-5.81
				c0-0.2,0.16-0.35,0.351-0.35h0.75v-1H3.129z M20.879,16.747c-0.021-0.22-0.091-0.409-0.2-0.58c-0.141-0.22-0.32-0.4-0.55-0.51
				c-0.181-0.08-0.37-0.14-0.58-0.14h-0.75v1h0.75c0.189,0,0.35,0.15,0.35,0.35v5.81h1v-5.81
				C20.898,16.827,20.879,16.787,20.879,16.747z"/>
		</g>
		<g>
			<path fill="#FFFFFF" d="M12.938,15.517v1h-0.75c-0.19,0-0.35,0.15-0.35,0.35v0.75h-1v-0.75c0-0.04,0.02-0.08,0.029-0.12
				c0.021-0.22,0.09-0.409,0.2-0.59c0.13-0.21,0.311-0.39,0.54-0.5c0.18-0.09,0.37-0.14,0.58-0.14H12.938z"/>
		</g>
		<g>
			<path fill="#FFFFFF" d="M9.739,15.517v1h0.75c0.19,0,0.35,0.15,0.35,0.35v5.81h1v-5.81c0-0.04-0.02-0.08-0.029-0.12
				c-0.021-0.22-0.09-0.409-0.2-0.59c-0.13-0.21-0.311-0.39-0.54-0.5c-0.18-0.09-0.37-0.14-0.58-0.14H9.739z"/>
		</g>
		<g>
			<rect x="4.604" y="15.517" fill="#FFFFFF" width="1.041" height="1"/>
		</g>
		<g>
			<rect x="6.289" y="15.517" fill="#FFFFFF" width="1.04" height="1"/>
		</g>
		<g>
			<rect x="7.978" y="15.517" fill="#FFFFFF" width="1.031" height="1"/>
		</g>
		<g>
			<rect x="13.664" y="15.517" fill="#FFFFFF" width="1.041" height="1"/>
		</g>
		<g>
			<rect x="15.349" y="15.517" fill="#FFFFFF" width="1.04" height="1"/>
		</g>
		<g>
			<rect x="17.037" y="15.517" fill="#FFFFFF" width="1.031" height="1"/>
		</g>
	</g>
</g>
</svg>
