<?xml version="1.0" encoding="utf-8"?>
<!-- Generator: Adobe Illustrator 16.0.3, SVG Export Plug-In . SVG Version: 6.00 Build 0)  -->
<!DOCTYPE svg PUBLIC "-//W3C//DTD SVG 1.1//EN" "http://www.w3.org/Graphics/SVG/1.1/DTD/svg11.dtd">
<svg version="1.1" xmlns="http://www.w3.org/2000/svg" xmlns:xlink="http://www.w3.org/1999/xlink" x="0px" y="0px" width="22.68px"
	 height="22.68px" viewBox="0 0 22.68 22.68" enable-background="new 0 0 22.68 22.68" xml:space="preserve">
<g id="BCGRND">
</g>
<g id="BAREVNE_POZADI_IKON">
	<rect x="0" fill="#585857" width="22.677" height="22.677"/>
</g>
<g id="IKONY">
	<g>
		<g>
			<rect x="0" y="11.956" fill="#FFFFFF" width="22.678" height="0.889"/>
			<g>
				<g>
					<path fill="#FFFFFF" d="M5.808,1.995h1.904v0.493H6.408v0.908h1.211v0.488H6.408v1.401H5.808V1.995z"/>
					<path fill="#FFFFFF" d="M8.262,3.675c0-0.322-0.005-0.557-0.02-0.767H8.76l0.024,0.449h0.015
						c0.117-0.332,0.396-0.503,0.654-0.503c0.059,0,0.093,0.005,0.142,0.015v0.562c-0.054-0.01-0.107-0.015-0.181-0.015
						c-0.283,0-0.483,0.181-0.537,0.454c-0.01,0.054-0.015,0.117-0.015,0.181v1.235H8.262V3.675z"/>
					<path fill="#FFFFFF" d="M10.481,4.266c0.015,0.43,0.347,0.615,0.732,0.615c0.278,0,0.474-0.044,0.659-0.107l0.088,0.41
						c-0.205,0.088-0.488,0.151-0.83,0.151c-0.771,0-1.226-0.474-1.226-1.201c0-0.659,0.4-1.279,1.162-1.279
						c0.771,0,1.025,0.635,1.025,1.157c0,0.112-0.01,0.2-0.02,0.254H10.481z M11.526,3.846c0.005-0.22-0.093-0.581-0.493-0.581
						c-0.371,0-0.527,0.337-0.552,0.581H11.526z"/>
					<path fill="#FFFFFF" d="M12.653,4.729c0.132,0.083,0.391,0.176,0.605,0.176c0.264,0,0.381-0.112,0.381-0.269
						c0-0.161-0.098-0.239-0.391-0.347c-0.464-0.156-0.654-0.41-0.654-0.693c0-0.42,0.347-0.742,0.898-0.742
						c0.264,0,0.493,0.063,0.635,0.142l-0.122,0.42c-0.098-0.059-0.293-0.137-0.503-0.137c-0.215,0-0.332,0.107-0.332,0.254
						c0,0.151,0.112,0.22,0.415,0.332c0.435,0.151,0.63,0.371,0.635,0.723c0,0.435-0.337,0.747-0.967,0.747
						c-0.288,0-0.547-0.068-0.723-0.166L12.653,4.729z"/>
					<path fill="#FFFFFF" d="M14.813,1.819h0.601V3.23h0.01c0.073-0.112,0.176-0.205,0.298-0.269
						c0.122-0.068,0.264-0.107,0.415-0.107c0.405,0,0.83,0.269,0.83,1.03v1.401h-0.601V3.948c0-0.342-0.127-0.605-0.459-0.605
						c-0.234,0-0.4,0.156-0.469,0.337c-0.02,0.054-0.024,0.117-0.024,0.181v1.426h-0.601V1.819z"/>
					<path fill="#FFFFFF" d="M5.96,9.454l1.68-2.446V6.993H6.106V6.495h2.314v0.352L6.76,9.273v0.015h1.685v0.498H5.96V9.454z"/>
					<path fill="#FFFFFF" d="M11.227,8.575c0,0.874-0.615,1.265-1.221,1.265c-0.669,0-1.191-0.459-1.191-1.226
						c0-0.781,0.513-1.26,1.23-1.26C10.753,7.354,11.227,7.853,11.227,8.575z M9.435,8.6c0,0.459,0.229,0.806,0.591,0.806
						c0.342,0,0.581-0.332,0.581-0.815c0-0.371-0.166-0.801-0.576-0.801C9.606,7.789,9.435,8.204,9.435,8.6z"/>
					<path fill="#FFFFFF" d="M11.822,8.116c0-0.273-0.01-0.503-0.02-0.708h0.522l0.029,0.356h0.015
						c0.107-0.186,0.366-0.41,0.762-0.41c0.415,0,0.845,0.269,0.845,1.021v1.411h-0.601V8.443c0-0.342-0.127-0.601-0.454-0.601
						c-0.239,0-0.405,0.171-0.469,0.352c-0.02,0.049-0.029,0.122-0.029,0.19v1.401h-0.601V8.116z"/>
					<path fill="#FFFFFF" d="M15.14,8.766c0.015,0.43,0.347,0.615,0.732,0.615c0.278,0,0.474-0.044,0.659-0.107l0.088,0.41
						c-0.205,0.088-0.488,0.151-0.83,0.151c-0.771,0-1.226-0.474-1.226-1.201c0-0.659,0.4-1.279,1.162-1.279
						c0.771,0,1.025,0.635,1.025,1.157c0,0.112-0.01,0.2-0.02,0.254H15.14z M16.185,8.346c0.005-0.22-0.093-0.581-0.493-0.581
						c-0.371,0-0.527,0.337-0.552,0.581H16.185z"/>
				</g>
			</g>
			<polygon fill="#FFFFFF" points="17.793,21.549 16.021,21.549 16.021,21.044 17.287,21.044 17.287,19.777 17.793,19.777 			"/>
			<polygon fill="#FFFFFF" points="6.652,21.549 4.883,21.549 4.883,19.777 5.388,19.777 5.388,21.044 6.652,21.044 			"/>
			<polygon fill="#FFFFFF" points="5.388,15.64 4.883,15.64 4.883,13.867 6.652,13.867 6.652,14.373 5.388,14.373 			"/>
			<polygon fill="#FFFFFF" points="17.793,15.64 17.287,15.64 17.287,14.373 16.021,14.373 16.021,13.867 17.793,13.867 			"/>
			<path fill="#FFFFFF" d="M10.836,15.716c0-0.372,0.27-0.661,0.742-0.661c0.455,0,0.727,0.276,0.727,0.655
				c0,0.371-0.299,0.641-0.73,0.641C11.129,16.351,10.836,16.073,10.836,15.716z M11.898,15.702c0-0.189-0.123-0.351-0.33-0.351
				c-0.203,0-0.318,0.175-0.318,0.358c0,0.168,0.123,0.343,0.318,0.343C11.775,16.053,11.898,15.89,11.898,15.702z"/>
			<path fill="#FFFFFF" d="M16.043,19.854c-0.195,0.096-0.627,0.202-1.18,0.202c-1.447,0-2.324-0.903-2.324-2.296
				c0-1.5,1.047-2.403,2.438-2.403c0.547,0,0.932,0.116,1.1,0.204l-0.174,0.662c-0.217-0.095-0.52-0.178-0.893-0.178
				c-0.926,0-1.594,0.583-1.594,1.676c0,1.006,0.58,1.642,1.588,1.642c0.33,0,0.682-0.068,0.904-0.164L16.043,19.854z"/>
		</g>
		<g>
			<path fill="#FFFFFF" d="M6.789,19.116c0.173,0.104,0.594,0.276,1.021,0.276c0.647,0,0.903-0.366,0.903-0.717
				c0-0.531-0.504-0.759-1.021-0.759H7.306v-0.621h0.386c0.387,0,0.883-0.179,0.883-0.621c0-0.311-0.221-0.565-0.717-0.565
				c-0.365,0-0.731,0.158-0.917,0.283l-0.193-0.614c0.255-0.173,0.759-0.345,1.29-0.345c0.931,0,1.399,0.511,1.399,1.097
				c0,0.469-0.275,0.855-0.827,1.048v0.014c0.545,0.104,0.979,0.511,0.986,1.118c0,0.758-0.635,1.358-1.745,1.358
				c-0.545,0-1.014-0.151-1.256-0.31L6.789,19.116z"/>
		</g>
	</g>
</g>
</svg>
