<?xml version="1.0" encoding="utf-8"?>
<!-- Generator: Adobe Illustrator 16.0.3, SVG Export Plug-In . SVG Version: 6.00 Build 0)  -->
<!DOCTYPE svg PUBLIC "-//W3C//DTD SVG 1.1//EN" "http://www.w3.org/Graphics/SVG/1.1/DTD/svg11.dtd">
<svg version="1.1" xmlns="http://www.w3.org/2000/svg" xmlns:xlink="http://www.w3.org/1999/xlink" x="0px" y="0px" width="22.68px"
	 height="22.68px" viewBox="0 0 22.68 22.68" enable-background="new 0 0 22.68 22.68" xml:space="preserve">
<g id="BCGRND">
</g>
<g id="BAREVNE_POZADI_IKON">
	<rect x="0.003" y="0" fill="#585857" width="22.673" height="22.678"/>
</g>
<g id="IKONY">
	<g>
		<g>
			<g>
				<g>
					<rect y="11.956" fill="#FFFFFF" width="22.678" height="0.889"/>
				</g>
				<g>
					<g>
						<path fill="#FFFFFF" d="M4.676,1.996h1.9v0.493H5.277v0.908h1.211V3.89H5.277v1.396H4.676V1.996z"/>
						<path fill="#FFFFFF" d="M7.122,3.675c0-0.322-0.005-0.552-0.02-0.767h0.522l0.02,0.454h0.02
							C7.781,3.026,8.06,2.855,8.313,2.855c0.059,0,0.093,0.005,0.142,0.015v0.566c-0.049-0.01-0.103-0.02-0.176-0.02
							c-0.288,0-0.483,0.186-0.537,0.454c-0.01,0.054-0.02,0.117-0.02,0.186v1.23H7.122V3.675z"/>
						<path fill="#FFFFFF" d="M9.453,2.909l0.43,1.274C9.932,4.33,9.98,4.51,10.016,4.647h0.014
							c0.039-0.137,0.084-0.313,0.127-0.469l0.371-1.27h0.645L10.576,4.53c-0.326,0.889-0.547,1.284-0.83,1.528
							c-0.234,0.21-0.479,0.288-0.629,0.308L8.98,5.858C9.082,5.833,9.209,5.78,9.332,5.692c0.111-0.073,0.244-0.215,0.326-0.376
							c0.025-0.044,0.039-0.078,0.039-0.107c0-0.024-0.004-0.059-0.033-0.117L8.795,2.909H9.453z"/>
						<path fill="#FFFFFF" d="M12.278,2.245c0,0.181-0.132,0.322-0.342,0.322c-0.2,0-0.332-0.142-0.332-0.322
							c0-0.186,0.137-0.327,0.337-0.327C12.146,1.917,12.273,2.059,12.278,2.245z M11.639,5.287V2.909h0.605v2.378H11.639z"/>
						<path fill="#FFFFFF" d="M12.977,3.617c0-0.273-0.006-0.503-0.02-0.708h0.527l0.029,0.356h0.014
							c0.104-0.186,0.361-0.41,0.758-0.41c0.414,0,0.844,0.269,0.844,1.021v1.411h-0.6V3.944c0-0.342-0.127-0.601-0.455-0.601
							c-0.238,0-0.404,0.171-0.469,0.352c-0.02,0.054-0.023,0.127-0.023,0.195v1.396h-0.605V3.617z"/>
						<path fill="#FFFFFF" d="M18.041,2.909c-0.01,0.161-0.02,0.356-0.02,0.684V4.94c0,0.498-0.103,0.854-0.352,1.079
							c-0.249,0.22-0.591,0.288-0.918,0.288c-0.303,0-0.625-0.063-0.83-0.19l0.132-0.454c0.151,0.088,0.405,0.181,0.693,0.181
							c0.391,0,0.684-0.205,0.684-0.718V4.92h-0.01c-0.137,0.21-0.381,0.352-0.693,0.352c-0.591,0-1.011-0.488-1.011-1.162
							c0-0.781,0.508-1.255,1.079-1.255c0.361,0,0.576,0.176,0.688,0.371h0.01l0.024-0.317H18.041z M17.421,3.861
							c0-0.054-0.005-0.112-0.02-0.161c-0.063-0.22-0.234-0.386-0.488-0.386c-0.337,0-0.586,0.293-0.586,0.776
							c0,0.405,0.205,0.732,0.581,0.732c0.225,0,0.42-0.146,0.488-0.361c0.015-0.063,0.024-0.146,0.024-0.215V3.861z"/>
						<path fill="#FFFFFF" d="M2.512,9.132C2.707,9.245,3,9.342,3.308,9.342c0.386,0,0.601-0.181,0.601-0.449
							c0-0.249-0.166-0.396-0.586-0.547C2.78,8.151,2.434,7.863,2.434,7.389c0-0.537,0.449-0.947,1.162-0.947
							c0.356,0,0.62,0.078,0.791,0.166L4.24,7.091C4.123,7.028,3.894,6.935,3.586,6.935c-0.381,0-0.547,0.205-0.547,0.396
							c0,0.254,0.19,0.371,0.63,0.542c0.571,0.215,0.85,0.503,0.85,0.977c0,0.527-0.4,0.986-1.25,0.986
							c-0.347,0-0.708-0.098-0.889-0.205L2.512,9.132z"/>
						<path fill="#FFFFFF" d="M5.571,8.766c0.015,0.43,0.352,0.615,0.732,0.615c0.278,0,0.479-0.039,0.659-0.107l0.088,0.415
							c-0.205,0.083-0.488,0.146-0.83,0.146c-0.771,0-1.226-0.474-1.226-1.201c0-0.659,0.4-1.279,1.162-1.279
							c0.771,0,1.025,0.635,1.025,1.157c0,0.112-0.01,0.2-0.02,0.254H5.571z M6.616,8.346c0.005-0.22-0.093-0.581-0.493-0.581
							c-0.371,0-0.527,0.337-0.552,0.581H6.616z"/>
						<path fill="#FFFFFF" d="M7.776,8.117c0-0.273-0.005-0.503-0.02-0.708h0.527l0.029,0.356h0.015
							c0.103-0.186,0.361-0.41,0.757-0.41c0.415,0,0.845,0.269,0.845,1.021v1.411H9.329V8.444c0-0.342-0.127-0.601-0.454-0.601
							c-0.239,0-0.405,0.171-0.469,0.352C8.387,8.249,8.382,8.322,8.382,8.39v1.396H7.776V8.117z"/>
						<path fill="#FFFFFF" d="M10.62,9.235c0.137,0.083,0.396,0.171,0.61,0.171c0.264,0,0.381-0.107,0.381-0.264
							c0-0.161-0.098-0.244-0.391-0.347c-0.464-0.161-0.659-0.415-0.654-0.693c0-0.42,0.347-0.747,0.898-0.747
							c0.264,0,0.493,0.068,0.63,0.142l-0.117,0.425c-0.103-0.059-0.293-0.137-0.503-0.137c-0.215,0-0.332,0.103-0.332,0.249
							c0,0.151,0.112,0.225,0.415,0.332c0.43,0.156,0.63,0.376,0.635,0.728c0,0.43-0.337,0.742-0.967,0.742
							c-0.288,0-0.547-0.068-0.723-0.166L10.62,9.235z"/>
						<path fill="#FFFFFF" d="M15.051,8.576c0,0.874-0.615,1.265-1.221,1.265c-0.674,0-1.191-0.464-1.191-1.226
							c0-0.781,0.514-1.26,1.23-1.26C14.578,7.355,15.051,7.853,15.051,8.576z M13.26,8.6c0,0.459,0.225,0.806,0.59,0.806
							c0.342,0,0.582-0.337,0.582-0.815c0-0.371-0.166-0.796-0.576-0.796C13.43,7.794,13.26,8.205,13.26,8.6z"/>
						<path fill="#FFFFFF" d="M15.643,8.175c0-0.322-0.006-0.552-0.02-0.767h0.521l0.02,0.454h0.02
							c0.117-0.337,0.396-0.508,0.65-0.508c0.059,0,0.092,0.005,0.141,0.015v0.566c-0.049-0.01-0.102-0.02-0.176-0.02
							c-0.287,0-0.482,0.186-0.537,0.454c-0.01,0.054-0.02,0.117-0.02,0.186v1.23h-0.6V8.175z"/>
						<path fill="#FFFFFF" d="M19.238,7.189v1.104h1.06v0.381h-1.06v1.113h-0.4V8.673h-1.06V8.292h1.06V7.189H19.238z"/>
					</g>
				</g>
			</g>
		</g>
		<path opacity="0.5" fill="#FFFFFF" d="M16.314,14.051H6.992c-0.132,0-0.256,0.062-0.336,0.167
			c-0.08,0.104-0.105,0.241-0.071,0.368l0.598,2.159c0.051,0.183,0.217,0.31,0.406,0.31h8.109c0.183,0,0.343-0.117,0.4-0.289
			l0.659-1.988c0.299-0.131,4.652-0.102,5.92,0.049v-1.083C21.052,13.55,16.608,13.911,16.314,14.051z"/>
		<g>
			<path fill="#FFFFFF" d="M13.946,21.678c0.143-0.822-0.095-1.696-0.729-2.33c-1.036-1.037-2.719-1.037-3.755,0
				c-0.635,0.634-0.872,1.508-0.729,2.33H4.762v1h13.154v-1H13.946z M11.337,21.868c-0.595,0-1.078-0.482-1.078-1.078
				s0.483-1.078,1.078-1.078c0.596,0,1.078,0.482,1.078,1.078S11.933,21.868,11.337,21.868z M11.337,20.118
				c-0.371,0-0.672,0.301-0.672,0.672s0.301,0.672,0.672,0.672s0.672-0.301,0.672-0.672S11.708,20.118,11.337,20.118z"/>
		</g>
		<g>
			<path opacity="0.5" fill="#FFFFFF" d="M8.094,20.014c0.047-0.13-0.021-0.273-0.151-0.319c-0.027-0.01-0.056-0.015-0.084-0.015
				c-0.103,0-0.199,0.063-0.235,0.166c-0.269,0.75-0.322,1.56-0.177,2.34H7.96C7.808,21.464,7.845,20.71,8.094,20.014z"/>
			<path opacity="0.5" fill="#FFFFFF" d="M15.04,19.794c-0.037-0.101-0.133-0.163-0.234-0.163c-0.029,0-0.059,0.005-0.087,0.016
				c-0.13,0.048-0.195,0.192-0.147,0.321c0.265,0.71,0.307,1.48,0.149,2.218h0.516C15.387,21.387,15.325,20.56,15.04,19.794z"/>
			<path opacity="0.5" fill="#FFFFFF" d="M15.906,19.041c-0.043-0.09-0.133-0.144-0.227-0.144c-0.036,0-0.072,0.008-0.106,0.024
				c-0.125,0.059-0.179,0.208-0.12,0.333c0.436,0.926,0.563,1.947,0.394,2.932h0.508C16.519,21.127,16.373,20.034,15.906,19.041z"/>
			<path opacity="0.5" fill="#FFFFFF" d="M7.205,19.295c0.058-0.125,0.002-0.274-0.123-0.332c-0.034-0.016-0.069-0.023-0.104-0.023
				c-0.095,0-0.186,0.054-0.228,0.146c-0.449,0.979-0.588,2.056-0.426,3.099h0.518C6.672,21.215,6.786,20.208,7.205,19.295z"/>
			<path opacity="0.5" fill="#FFFFFF" d="M6.34,18.59c0.064-0.122,0.019-0.273-0.104-0.338c-0.037-0.02-0.077-0.029-0.117-0.029
				c-0.089,0-0.176,0.048-0.221,0.133c-0.633,1.191-0.851,2.529-0.679,3.83h0.503C5.547,20.967,5.746,19.708,6.34,18.59z"/>
			<path opacity="0.5" fill="#FFFFFF" d="M16.756,18.314c-0.045-0.084-0.131-0.131-0.22-0.131c-0.04,0-0.081,0.01-0.119,0.03
				c-0.121,0.065-0.166,0.217-0.101,0.338c0.61,1.13,0.816,2.402,0.639,3.634h0.503C17.633,20.871,17.407,19.519,16.756,18.314z"/>
		</g>
		<rect x="0.003" y="21.678" opacity="0.5" fill="#FFFFFF" width="4.051" height="1"/>
		<rect x="18.625" y="21.678" opacity="0.5" fill="#FFFFFF" width="4.051" height="1"/>
	</g>
</g>
</svg>
