<?xml version="1.0" encoding="utf-8"?>
<!-- Generator: Adobe Illustrator 16.0.3, SVG Export Plug-In . SVG Version: 6.00 Build 0)  -->
<!DOCTYPE svg PUBLIC "-//W3C//DTD SVG 1.1//EN" "http://www.w3.org/Graphics/SVG/1.1/DTD/svg11.dtd">
<svg version="1.1" xmlns="http://www.w3.org/2000/svg" xmlns:xlink="http://www.w3.org/1999/xlink" x="0px" y="0px" width="22.68px"
	 height="22.68px" viewBox="0 0 22.68 22.68" enable-background="new 0 0 22.68 22.68" xml:space="preserve">
<g id="BCGRND">
</g>
<g id="BAREVNE_POZADI_IKON">
	<rect fill="#585857" width="22.676" height="22.678"/>
</g>
<g id="IKONY">
	<g>
		<g>
			<g>
				<rect x="0.002" y="7.771" fill="#FFFFFF" width="22.677" height="0.889"/>
			</g>
		</g>
		<g>
			<path fill="#FFFFFF" d="M9.875,5.416c-0.21,0.078-0.62,0.186-1.055,0.186c-0.557,0-0.981-0.141-1.294-0.439
				C7.233,4.885,7.067,4.449,7.067,3.951C7.072,2.906,7.81,2.242,8.898,2.242c0.405,0,0.723,0.084,0.874,0.156L9.641,2.883
				C9.46,2.799,9.24,2.74,8.894,2.74c-0.703,0-1.196,0.416-1.196,1.182c0,0.748,0.459,1.191,1.143,1.191
				c0.22,0,0.376-0.029,0.454-0.063V4.225H8.713V3.752h1.162V5.416z"/>
			<path fill="#FFFFFF" d="M10.47,3.957c0-0.322-0.005-0.557-0.02-0.768h0.518l0.024,0.449h0.015
				c0.117-0.332,0.396-0.502,0.654-0.502c0.059,0,0.093,0.004,0.142,0.014v0.563c-0.054-0.01-0.107-0.016-0.181-0.016
				c-0.283,0-0.483,0.182-0.537,0.455c-0.01,0.053-0.015,0.117-0.015,0.18v1.236H10.47V3.957z"/>
			<path fill="#FFFFFF" d="M12.85,2.525c0,0.176-0.132,0.322-0.342,0.322c-0.2,0-0.332-0.146-0.332-0.322
				c0-0.186,0.137-0.326,0.337-0.326C12.718,2.199,12.845,2.34,12.85,2.525z M12.21,5.568V3.189h0.601v2.379H12.21z"/>
			<path fill="#FFFFFF" d="M13.462,2.102h0.601v3.467h-0.601V2.102z"/>
			<path fill="#FFFFFF" d="M14.718,2.102h0.601v3.467h-0.601V2.102z"/>
		</g>
		<g>
			<path fill="#FFFFFF" d="M18.076,16.652c-0.282,0.705-1.008,0.854-1.565,0.854c-0.323,0-0.69-0.049-1.092-0.145
				c-2.323-0.559-4.882-2.021-4.907-2.037c-0.025-0.014-2.572-1.498-4.217-3.23c-0.988-1.041-1.242-1.984-0.714-2.66
				C5.583,9.43,5.906,9.027,6.437,9.027c0.431,0,0.887,0.258,1.359,0.77c1.607,1.744,3.094,2.602,3.98,3.113l0.17,0.101
				c0.83,0.479,2.377,1.376,4.707,1.901c0.701,0.158,1.16,0.439,1.367,0.832C18.256,16.191,18.079,16.645,18.076,16.652
				 M9.949,18.154c0,0-0.614,1.158-1.512,0.639c-0.899-0.521-0.205-1.633-0.205-1.633l0.97-1.77
				c0.528,0.348,0.896,0.561,0.934,0.584c0.037,0.021,0.361,0.205,0.861,0.461L9.949,18.154z M18.687,15.396
				c-0.314-0.598-0.942-1.006-1.869-1.217c-1.459-0.328-2.567-0.797-3.403-1.221l0.274-1.182L13,12.742
				c-0.256-0.139-0.483-0.27-0.677-0.381l-0.075-0.043l-0.097-0.057c-0.229-0.133-0.504-0.293-0.808-0.482l0.503-0.973l-0.871,0.734
				c-0.759-0.506-1.673-1.215-2.627-2.252c-0.621-0.67-1.264-1.012-1.912-1.012c-0.873,0-1.389,0.619-1.444,0.69
				c-0.37,0.474-1.027,1.763,0.758,3.642c0.812,0.855,1.81,1.637,2.647,2.233c-0.821,1.036-1.511,1.927-1.658,2.183
				c-0.413,0.711,0.479,2.715,0.074,3.408l-1.293,2.244h1.34l0.957-1.656c0.406-0.703,2.586-0.929,2.996-1.646
				c0.147-0.252,0.573-1.287,1.059-2.514c0.951,0.441,2.178,0.941,3.37,1.229c0.458,0.109,0.885,0.166,1.268,0.166
				c1.116,0,1.921-0.471,2.261-1.324C18.806,16.85,19.072,16.133,18.687,15.396 M16.599,15.723l-0.724,0.959
				c-0.034,0.045-0.052,0.1-0.052,0.15c0,0.076,0.035,0.15,0.101,0.199c0.045,0.035,0.097,0.051,0.149,0.051
				c0.076,0,0.152-0.033,0.199-0.1l0.724-0.959c0.034-0.045,0.051-0.097,0.051-0.15c0-0.076-0.034-0.15-0.101-0.199
				C16.839,15.593,16.681,15.611,16.599,15.723 M14.455,15.027l-0.82,1.055c-0.035,0.047-0.053,0.1-0.053,0.154
				c0,0.074,0.033,0.148,0.097,0.197c0.046,0.035,0.099,0.053,0.153,0.053c0.074,0,0.148-0.035,0.197-0.098l0.82-1.055
				c0.035-0.047,0.053-0.1,0.053-0.154c0-0.074-0.033-0.148-0.096-0.197C14.695,14.898,14.538,14.916,14.455,15.027 M8.896,11.646
				L8,12.832c-0.034,0.045-0.052,0.098-0.052,0.15c0,0.076,0.035,0.15,0.101,0.199c0.045,0.036,0.097,0.051,0.149,0.051
				c0.076,0,0.152-0.033,0.199-0.1l0.896-1.186c0.034-0.045,0.051-0.098,0.051-0.15c0-0.076-0.034-0.15-0.1-0.199
				C9.135,11.516,8.978,11.535,8.896,11.646 M7.21,10.303l-0.723,0.959c-0.032,0.045-0.049,0.098-0.049,0.148
				c0,0.078,0.035,0.152,0.1,0.203c0.045,0.033,0.098,0.049,0.15,0.049c0.076,0,0.15-0.033,0.201-0.1l0.721-0.959
				c0.033-0.045,0.05-0.098,0.05-0.152c0-0.074-0.034-0.148-0.099-0.197C7.452,10.174,7.295,10.191,7.21,10.303 M12.367,14.189
				l-0.736,0.977c-0.033,0.045-0.051,0.098-0.051,0.15c0,0.076,0.033,0.151,0.1,0.199c0.045,0.033,0.098,0.051,0.15,0.051
				c0.074,0,0.15-0.035,0.199-0.099l0.736-0.978c0.034-0.045,0.051-0.098,0.051-0.15c0-0.076-0.035-0.15-0.1-0.199
				C12.607,14.059,12.449,14.078,12.367,14.189 M10.542,13.057l-0.789,1.021c-0.035,0.045-0.052,0.1-0.052,0.154
				c0,0.074,0.032,0.146,0.098,0.197c0.045,0.035,0.099,0.051,0.152,0.051c0.073,0,0.149-0.033,0.198-0.098l0.789-1.021
				c0.035-0.045,0.051-0.1,0.051-0.154c0-0.074-0.032-0.146-0.096-0.196C10.785,12.927,10.627,12.943,10.542,13.057"/>
		</g>
	</g>
</g>
</svg>
