<?xml version="1.0" encoding="utf-8"?>
<!-- Generator: Adobe Illustrator 16.0.3, SVG Export Plug-In . SVG Version: 6.00 Build 0)  -->
<!DOCTYPE svg PUBLIC "-//W3C//DTD SVG 1.1//EN" "http://www.w3.org/Graphics/SVG/1.1/DTD/svg11.dtd">
<svg version="1.1" xmlns="http://www.w3.org/2000/svg" xmlns:xlink="http://www.w3.org/1999/xlink" x="0px" y="0px" width="22.68px"
	 height="22.68px" viewBox="0 0 22.68 22.68" enable-background="new 0 0 22.68 22.68" xml:space="preserve">
<g id="BCGRND">
</g>
<g id="BAREVNE_POZADI_IKON">
	<rect fill="#585857" width="22.678" height="22.677"/>
</g>
<g id="IKONY">
	<g>
		<g>
			<rect y="7.77" fill="#FFFFFF" width="22.678" height="0.889"/>
			<g>
				<g>
					<path fill="#FFFFFF" d="M4.417,2.278v1.318h1.392V2.278h0.601v3.291H5.809v-1.45H4.417v1.45H3.816V2.278H4.417z"/>
					<path fill="#FFFFFF" d="M7.795,2.527c0,0.176-0.131,0.322-0.342,0.322c-0.199,0-0.332-0.146-0.332-0.322
						c0-0.186,0.137-0.327,0.338-0.327C7.664,2.2,7.791,2.341,7.795,2.527z M7.156,5.569V3.191h0.6v2.378H7.156z"/>
					<path fill="#FFFFFF" d="M8.48,2.278h0.601v2.788h1.353v0.503H8.48V2.278z"/>
					<path fill="#FFFFFF" d="M11.555,2.527c0,0.176-0.132,0.322-0.342,0.322c-0.2,0-0.332-0.146-0.332-0.322
						c0-0.186,0.137-0.327,0.337-0.327C11.423,2.2,11.55,2.341,11.555,2.527z M10.915,5.569V3.191h0.601v2.378H10.915z"/>
					<path fill="#FFFFFF" d="M14.369,5.222c0,0.498-0.103,0.854-0.352,1.079c-0.244,0.22-0.591,0.288-0.918,0.288
						c-0.303,0-0.625-0.068-0.83-0.19l0.132-0.454c0.151,0.088,0.405,0.181,0.693,0.181c0.391,0,0.684-0.205,0.684-0.718V5.203
						h-0.01c-0.137,0.21-0.376,0.352-0.693,0.352c-0.591,0-1.011-0.488-1.011-1.162c0-0.781,0.508-1.255,1.079-1.255
						c0.366,0,0.576,0.176,0.688,0.371h0.01l0.024-0.317h0.522c-0.01,0.161-0.02,0.356-0.02,0.684V5.222z M13.769,4.143
						c0-0.059-0.005-0.112-0.02-0.161c-0.063-0.22-0.234-0.386-0.488-0.386c-0.337,0-0.586,0.293-0.586,0.776
						c0,0.405,0.205,0.732,0.581,0.732c0.225,0,0.42-0.146,0.488-0.366c0.02-0.059,0.024-0.142,0.024-0.21V4.143z"/>
					<path fill="#FFFFFF" d="M15.066,2.102h0.6v1.411h0.01c0.074-0.112,0.176-0.205,0.299-0.269
						c0.121-0.068,0.264-0.107,0.414-0.107c0.406,0,0.83,0.269,0.83,1.03v1.401h-0.6V4.231c0-0.342-0.127-0.605-0.459-0.605
						c-0.234,0-0.4,0.156-0.469,0.337c-0.02,0.054-0.025,0.117-0.025,0.181v1.426h-0.6V2.102z"/>
					<path fill="#FFFFFF" d="M18.575,2.581v0.61h0.571V3.64h-0.571v1.05c0,0.293,0.078,0.439,0.308,0.439
						c0.107,0,0.166-0.005,0.234-0.024l0.01,0.454c-0.088,0.034-0.249,0.063-0.435,0.063c-0.225,0-0.405-0.073-0.518-0.195
						c-0.132-0.137-0.19-0.356-0.19-0.669V3.64h-0.337V3.191h0.337V2.747L18.575,2.581z"/>
				</g>
			</g>
		</g>
		<g>
			<g>
				<path fill="#FFFFFF" d="M10.043,12.543h-0.027l-1.587,0.801l-0.28-1.24l2.121-1.041h1.359v8.669h-1.586V12.543z"/>
			</g>
			<g>
				<path fill="#FFFFFF" d="M14.899,14.139l-0.271-0.542c-0.111-0.208-0.182-0.364-0.267-0.537h-0.009
					c-0.063,0.173-0.138,0.329-0.235,0.537l-0.244,0.542h-0.772l0.865-1.514l-0.834-1.479h0.777l0.262,0.547
					c0.088,0.182,0.154,0.328,0.227,0.497h0.008c0.072-0.191,0.129-0.324,0.205-0.497l0.253-0.547h0.772l-0.844,1.461l0.889,1.532
					H14.899z"/>
			</g>
		</g>
	</g>
</g>
</svg>
