<?xml version="1.0" encoding="utf-8"?>
<!-- Generator: Adobe Illustrator 16.0.3, SVG Export Plug-In . SVG Version: 6.00 Build 0)  -->
<!DOCTYPE svg PUBLIC "-//W3C//DTD SVG 1.1//EN" "http://www.w3.org/Graphics/SVG/1.1/DTD/svg11.dtd">
<svg version="1.1" xmlns="http://www.w3.org/2000/svg" xmlns:xlink="http://www.w3.org/1999/xlink" x="0px" y="0px" width="22.68px"
	 height="22.68px" viewBox="0 0 22.68 22.68" enable-background="new 0 0 22.68 22.68" xml:space="preserve">
<g id="BCGRND" display="none">
</g>
<g id="IKONY">
	<polygon fill="#585857" points="22.68,16.335 22.68,0 0.002,0 0.002,22.678 14.119,22.678 22.68,22.678 	"/>
	<g>
		<defs>
			<rect id="SVGID_91_" x="-31.181" width="22.678" height="22.678"/>
		</defs>
		<clipPath id="SVGID_2_">
			<use xlink:href="#SVGID_91_"  overflow="visible"/>
		</clipPath>
		<g clip-path="url(#SVGID_2_)">
			<polyline fill="none" stroke="#FFFFFF" stroke-miterlimit="10" points="-59.624,16.849 -56.307,14.416 -52.993,16.849 
				-49.674,14.416 -46.364,16.849 -43.047,14.416 -39.733,16.849 -36.418,14.416 -33.102,16.849 -29.79,14.416 -26.473,16.849 
				-23.157,14.416 -19.842,16.849 -16.528,14.416 -13.211,16.849 -9.897,14.416 -6.583,16.849 -3.268,14.416 0.046,16.849 
				3.363,14.416 6.677,16.849 9.992,14.416 13.308,16.849 16.623,14.416 19.939,16.849 			"/>
		</g>
		<g clip-path="url(#SVGID_2_)">
			<polyline opacity="0.5" fill="none" stroke="#FFFFFF" stroke-miterlimit="10" points="-59.624,20.636 -56.307,18.202 
				-52.993,20.636 -49.674,18.202 -46.364,20.636 -43.047,18.202 -39.733,20.636 -36.418,18.202 -33.102,20.636 -29.79,18.202 
				-26.473,20.636 -23.157,18.202 -19.842,20.636 -16.528,18.202 -13.211,20.636 -9.897,18.202 -6.583,20.636 -3.268,18.202 
				0.046,20.636 3.363,18.202 6.677,20.636 9.992,18.202 13.308,20.636 16.623,18.202 19.939,20.636 			"/>
		</g>
		<g clip-path="url(#SVGID_2_)">
			<polyline opacity="0.5" fill="none" stroke="#FFFFFF" stroke-miterlimit="10" points="-59.624,13.063 -56.307,10.628 
				-52.993,13.063 -49.674,10.628 -46.364,13.063 -43.047,10.628 -39.733,13.063 -36.418,10.628 -33.102,13.063 -29.79,10.628 
				-26.473,13.063 -23.157,10.628 -19.842,13.063 -16.528,10.628 -13.211,13.063 -9.897,10.628 -6.583,13.063 -3.268,10.628 
				0.046,13.063 3.363,10.628 6.677,13.063 9.992,10.628 13.308,13.063 16.623,10.628 19.939,13.063 			"/>
		</g>
	</g>
	<g>
		<line fill="none" stroke="#FFFFFF" stroke-width="0.8889" stroke-miterlimit="10" x1="0" y1="8.214" x2="22.677" y2="8.214"/>
		<g>
			<g>
				<path fill="#FFFFFF" d="M2.4,2.279v1.318h1.392V2.279h0.601V5.57H3.792V4.12H2.4v1.45H1.799V2.279H2.4z"/>
				<path fill="#FFFFFF" d="M5.139,2.104h0.605V5.57H5.139V2.104z"/>
				<path fill="#FFFFFF" d="M8.573,4.857c0,0.283,0.01,0.518,0.02,0.713H8.065L8.036,5.209h-0.01
					C7.923,5.38,7.689,5.624,7.264,5.624c-0.435,0-0.83-0.259-0.83-1.035V3.192h0.601v1.294c0,0.396,0.127,0.649,0.444,0.649
					c0.239,0,0.396-0.171,0.459-0.322c0.02-0.054,0.034-0.117,0.034-0.186V3.192h0.601V4.857z"/>
				<path fill="#FFFFFF" d="M9.875,4.237h0.01c0.059-0.093,0.127-0.195,0.19-0.278l0.576-0.767h0.723l-0.879,0.972l1.006,1.406
					h-0.737l-0.684-1.05L9.875,4.76V5.57H9.274V2.104h0.601V4.237z"/>
				<path fill="#FFFFFF" d="M13.883,2.187c-0.313,0.464-0.552,1.108-0.552,1.987c0,0.864,0.244,1.504,0.552,1.973h-0.439
					c-0.278-0.391-0.591-1.025-0.591-1.973c0.005-0.952,0.313-1.592,0.591-1.987H13.883z"/>
				<path fill="#FFFFFF" d="M16.585,2.104v2.798c0,0.244,0.01,0.508,0.02,0.669h-0.537l-0.024-0.376h-0.01
					c-0.142,0.264-0.43,0.43-0.776,0.43c-0.566,0-1.016-0.483-1.016-1.216c-0.005-0.796,0.493-1.27,1.064-1.27
					c0.327,0,0.562,0.137,0.669,0.313h0.01V2.104H16.585z M15.985,4.184c0-0.049-0.005-0.107-0.015-0.156
					c-0.054-0.234-0.244-0.425-0.518-0.425c-0.386,0-0.601,0.342-0.601,0.786c0,0.435,0.215,0.752,0.596,0.752
					c0.244,0,0.459-0.166,0.518-0.425c0.015-0.054,0.02-0.112,0.02-0.176V4.184z"/>
				<path fill="#FFFFFF" d="M17.307,2.323c0.19-0.039,0.537-0.068,0.874-0.068c0.444,0,0.718,0.054,0.942,0.21
					c0.205,0.122,0.342,0.337,0.342,0.615c0,0.303-0.19,0.581-0.547,0.713v0.01c0.347,0.088,0.664,0.361,0.664,0.815
					c0,0.293-0.127,0.522-0.317,0.679c-0.234,0.205-0.62,0.308-1.221,0.308c-0.332,0-0.586-0.024-0.737-0.044V2.323z M17.902,3.622
					h0.308c0.415,0,0.649-0.195,0.649-0.474c0-0.308-0.234-0.449-0.615-0.449c-0.176,0-0.278,0.01-0.342,0.024V3.622z M17.902,5.136
					c0.078,0.01,0.181,0.015,0.317,0.015c0.386,0,0.728-0.146,0.728-0.552c0-0.381-0.332-0.537-0.747-0.537h-0.298V5.136z"/>
				<path fill="#FFFFFF" d="M19.962,6.146c0.308-0.464,0.547-1.113,0.547-1.982s-0.239-1.509-0.547-1.978h0.435
					c0.283,0.391,0.596,1.025,0.596,1.982c-0.005,0.952-0.313,1.582-0.596,1.978H19.962z"/>
			</g>
		</g>
		<g>
			<path fill="#FFFFFF" d="M5.175,18.04c0.333,0.2,1.147,0.533,1.974,0.533c1.254,0,1.761-0.707,1.747-1.387
				c0-1.027-0.96-1.468-1.96-1.468h-0.76v-1.2h0.733c0.76,0,1.72-0.347,1.72-1.213c0-0.587-0.44-1.08-1.387-1.08
				c-0.707,0-1.414,0.307-1.774,0.546l-0.374-1.187c0.494-0.347,1.454-0.667,2.494-0.667c1.787,0,2.707,0.987,2.707,2.121
				c0,0.906-0.533,1.653-1.6,2.026v0.027c1.053,0.187,1.907,0.986,1.907,2.16c0,1.467-1.227,2.627-3.374,2.627
				c-1.053,0-1.96-0.293-2.427-0.6L5.175,18.04z"/>
			<path fill="#FFFFFF" d="M17.471,11.064v1.054l-3.667,7.615H12.07l3.654-7.281v-0.027h-4.081v-1.36H17.471z"/>
		</g>
	</g>
</g>
</svg>
