<?xml version="1.0" encoding="utf-8"?>
<!-- Generator: Adobe Illustrator 16.0.3, SVG Export Plug-In . SVG Version: 6.00 Build 0)  -->
<!DOCTYPE svg PUBLIC "-//W3C//DTD SVG 1.1//EN" "http://www.w3.org/Graphics/SVG/1.1/DTD/svg11.dtd">
<svg version="1.1" xmlns="http://www.w3.org/2000/svg" xmlns:xlink="http://www.w3.org/1999/xlink" x="0px" y="0px" width="22.68px"
	 height="22.68px" viewBox="0 0 22.68 22.68" enable-background="new 0 0 22.68 22.68" xml:space="preserve">
<g id="BCGRND">
</g>
<g id="IKONY">
	<rect x="0.002" y="0" fill="#585857" width="22.674" height="22.674"/>
	<g>
		<g>
			<rect x="0" y="7.769" fill="#FFFFFF" width="22.677" height="0.889"/>
		</g>
		<g>
			<g>
				<path fill="#FFFFFF" d="M2.4,2.279v1.318h1.392V2.279h0.601V5.57H3.791v-1.45H2.4v1.45H1.799V2.279H2.4z"/>
				<path fill="#FFFFFF" d="M5.138,2.103h0.606V5.57H5.138V2.103z"/>
				<path fill="#FFFFFF" d="M8.573,4.857c0,0.283,0.01,0.518,0.02,0.713H8.065L8.035,5.208h-0.01
					C7.923,5.379,7.689,5.623,7.264,5.623c-0.435,0-0.83-0.259-0.83-1.035V3.192h0.6v1.294c0,0.396,0.127,0.649,0.444,0.649
					c0.239,0,0.396-0.171,0.459-0.322c0.02-0.054,0.034-0.117,0.034-0.186V3.192h0.601V4.857z"/>
				<path fill="#FFFFFF" d="M9.875,4.237h0.01c0.059-0.093,0.127-0.195,0.191-0.278l0.576-0.767h0.723l-0.879,0.972l1.006,1.406
					h-0.737L10.08,4.52L9.875,4.759V5.57H9.274V2.103h0.601V4.237z"/>
				<path fill="#FFFFFF" d="M13.883,2.186c-0.313,0.464-0.552,1.108-0.552,1.987c0,0.864,0.244,1.504,0.552,1.973h-0.439
					c-0.278-0.391-0.591-1.025-0.591-1.973c0.005-0.952,0.313-1.592,0.591-1.987H13.883z"/>
				<path fill="#FFFFFF" d="M16.585,2.103v2.798c0,0.244,0.01,0.508,0.02,0.669h-0.537l-0.024-0.376h-0.01
					c-0.142,0.264-0.43,0.43-0.776,0.43c-0.566,0-1.016-0.483-1.016-1.216c-0.005-0.796,0.493-1.27,1.064-1.27
					c0.327,0,0.561,0.137,0.669,0.313h0.01V2.103H16.585z M15.985,4.183c0-0.049-0.005-0.107-0.015-0.156
					c-0.054-0.234-0.244-0.425-0.518-0.425c-0.386,0-0.601,0.342-0.601,0.786c0,0.435,0.215,0.752,0.596,0.752
					c0.244,0,0.459-0.166,0.518-0.425c0.015-0.054,0.02-0.112,0.02-0.176V4.183z"/>
				<path fill="#FFFFFF" d="M17.306,2.323c0.19-0.039,0.537-0.068,0.874-0.068c0.444,0,0.718,0.054,0.943,0.21
					c0.205,0.122,0.342,0.337,0.342,0.615c0,0.303-0.19,0.581-0.547,0.713v0.01c0.347,0.088,0.664,0.361,0.664,0.815
					c0,0.293-0.127,0.522-0.317,0.679c-0.234,0.205-0.62,0.308-1.221,0.308c-0.332,0-0.586-0.024-0.737-0.044V2.323z M17.902,3.621
					h0.308c0.415,0,0.649-0.195,0.649-0.474c0-0.308-0.234-0.449-0.615-0.449c-0.176,0-0.278,0.01-0.342,0.024V3.621z M17.902,5.135
					c0.078,0.01,0.181,0.015,0.317,0.015c0.386,0,0.727-0.146,0.727-0.552c0-0.381-0.332-0.537-0.747-0.537h-0.298V5.135z"/>
				<path fill="#FFFFFF" d="M19.962,6.146c0.308-0.464,0.547-1.113,0.547-1.982s-0.239-1.509-0.547-1.978h0.435
					c0.283,0.391,0.596,1.025,0.596,1.982c-0.005,0.952-0.313,1.582-0.596,1.978H19.962z"/>
			</g>
		</g>
	</g>
	<g>
		<path fill="#FFFFFF" d="M5.123,18.038c0.333,0.2,1.147,0.533,1.974,0.533c1.254,0,1.761-0.707,1.747-1.387
			c0-1.027-0.96-1.468-1.96-1.468h-0.76v-1.2h0.733c0.76,0,1.72-0.347,1.72-1.213c0-0.587-0.44-1.08-1.387-1.08
			c-0.707,0-1.414,0.307-1.774,0.546l-0.374-1.187c0.494-0.347,1.453-0.667,2.494-0.667c1.787,0,2.707,0.987,2.707,2.121
			c0,0.906-0.533,1.653-1.6,2.026v0.027c1.053,0.187,1.907,0.986,1.907,2.16c0,1.467-1.226,2.627-3.374,2.627
			c-1.053,0-1.96-0.293-2.427-0.6L5.123,18.038z"/>
		<path fill="#FFFFFF" d="M17.069,12.423h-3.335l-0.253,1.734c0.2-0.027,0.374-0.04,0.627-0.04c0.76,0,1.521,0.173,2.107,0.56
			c0.653,0.414,1.133,1.147,1.133,2.201c0,1.653-1.374,3-3.507,3c-1,0-1.84-0.253-2.294-0.507l0.333-1.24
			c0.374,0.2,1.12,0.454,1.907,0.454c0.96,0,1.88-0.547,1.88-1.588c0-0.986-0.733-1.64-2.467-1.64c-0.48,0-0.84,0.026-1.187,0.08
			l0.573-4.375h4.481V12.423z"/>
	</g>
</g>
</svg>
