<?xml version="1.0" encoding="utf-8"?>
<!-- Generator: Adobe Illustrator 16.0.3, SVG Export Plug-In . SVG Version: 6.00 Build 0)  -->
<!DOCTYPE svg PUBLIC "-//W3C//DTD SVG 1.1//EN" "http://www.w3.org/Graphics/SVG/1.1/DTD/svg11.dtd">
<svg version="1.1" xmlns="http://www.w3.org/2000/svg" xmlns:xlink="http://www.w3.org/1999/xlink" x="0px" y="0px" width="22.68px"
	 height="22.68px" viewBox="0 0 22.68 22.68" enable-background="new 0 0 22.68 22.68" xml:space="preserve">
<g id="BCGRND">
</g>
<g id="BAREVNE_BCGRND">
	<rect x="0" y="0" fill="#585857" width="22.676" height="22.678"/>
</g>
<g id="IKONY">
	<g>
		<g>
			<rect y="7.828" fill="#FFFFFF" width="22.677" height="0.889"/>
		</g>
		<g>
			<g>
				<path fill="#FFFFFF" d="M2.4,2.338v1.318h1.392V2.338h0.601v3.291H3.791v-1.45H2.4v1.45H1.799V2.338H2.4z"/>
				<path fill="#FFFFFF" d="M5.139,2.162h0.605v3.467H5.139V2.162z"/>
				<path fill="#FFFFFF" d="M8.573,4.916c0,0.283,0.01,0.518,0.02,0.713H8.065L8.036,5.268h-0.01
					C7.923,5.438,7.689,5.683,7.264,5.683c-0.435,0-0.83-0.259-0.83-1.035V3.251h0.601v1.294c0,0.396,0.127,0.649,0.444,0.649
					c0.239,0,0.396-0.171,0.459-0.322c0.02-0.054,0.034-0.117,0.034-0.186V3.251h0.601V4.916z"/>
				<path fill="#FFFFFF" d="M9.875,4.296h0.01c0.059-0.093,0.127-0.195,0.19-0.278l0.576-0.767h0.723l-0.879,0.972l1.006,1.406
					h-0.737l-0.684-1.05L9.875,4.818v0.811H9.274V2.162h0.601V4.296z"/>
				<path fill="#FFFFFF" d="M13.883,2.245c-0.313,0.464-0.552,1.108-0.552,1.987c0,0.864,0.244,1.504,0.552,1.973h-0.439
					c-0.278-0.391-0.591-1.025-0.591-1.973c0.005-0.952,0.313-1.592,0.591-1.987H13.883z"/>
				<path fill="#FFFFFF" d="M16.585,2.162V4.96c0,0.244,0.01,0.508,0.02,0.669h-0.537l-0.024-0.376h-0.01
					c-0.142,0.264-0.43,0.43-0.776,0.43c-0.566,0-1.016-0.483-1.016-1.216c-0.005-0.796,0.493-1.27,1.064-1.27
					c0.327,0,0.562,0.137,0.669,0.313h0.01V2.162H16.585z M15.985,4.242c0-0.049-0.005-0.107-0.015-0.156
					c-0.054-0.234-0.244-0.425-0.518-0.425c-0.386,0-0.601,0.342-0.601,0.786c0,0.435,0.215,0.752,0.596,0.752
					c0.244,0,0.459-0.166,0.518-0.425c0.015-0.054,0.02-0.112,0.02-0.176V4.242z"/>
				<path fill="#FFFFFF" d="M17.307,2.382c0.19-0.039,0.537-0.068,0.874-0.068c0.444,0,0.718,0.054,0.942,0.21
					c0.205,0.122,0.342,0.337,0.342,0.615c0,0.303-0.19,0.581-0.547,0.713v0.01c0.347,0.088,0.664,0.361,0.664,0.815
					c0,0.293-0.127,0.522-0.317,0.679c-0.234,0.205-0.62,0.308-1.221,0.308c-0.332,0-0.586-0.024-0.737-0.044V2.382z M17.902,3.681
					h0.308c0.415,0,0.649-0.195,0.649-0.474c0-0.308-0.234-0.449-0.615-0.449c-0.176,0-0.278,0.01-0.342,0.024V3.681z M17.902,5.194
					c0.078,0.01,0.181,0.015,0.317,0.015c0.386,0,0.728-0.146,0.728-0.552c0-0.381-0.332-0.537-0.747-0.537h-0.298V5.194z"/>
				<path fill="#FFFFFF" d="M19.962,6.205c0.308-0.464,0.547-1.113,0.547-1.982s-0.239-1.509-0.547-1.978h0.435
					c0.283,0.391,0.596,1.025,0.596,1.982C20.987,5.18,20.68,5.81,20.396,6.205H19.962z"/>
			</g>
		</g>
		<g>
			<path fill="#FFFFFF" d="M4.974,18.099c0.333,0.2,1.147,0.533,1.974,0.533c1.253,0,1.76-0.707,1.747-1.387
				c0-1.027-0.96-1.468-1.96-1.468h-0.76v-1.2h0.733c0.76,0,1.72-0.347,1.72-1.213c0-0.587-0.44-1.08-1.387-1.08
				c-0.707,0-1.414,0.307-1.774,0.546l-0.374-1.187c0.494-0.347,1.454-0.667,2.494-0.667c1.787,0,2.707,0.987,2.707,2.121
				c0,0.906-0.533,1.653-1.6,2.026v0.027c1.053,0.187,1.907,0.986,1.907,2.16c0,1.467-1.227,2.627-3.374,2.627
				c-1.053,0-1.96-0.293-2.427-0.6L4.974,18.099z"/>
			<path fill="#FFFFFF" d="M15.325,19.792v-2.2h-3.921v-1.067l3.534-5.401h1.934v5.229h1.121v1.24h-1.121v2.2H15.325z
				 M15.325,16.352v-2.36c0-0.494,0.013-1.001,0.053-1.508h-0.053c-0.267,0.547-0.493,0.987-0.76,1.468l-1.587,2.373l-0.013,0.027
				H15.325z"/>
		</g>
	</g>
</g>
</svg>
