<?xml version="1.0" encoding="utf-8"?>
<!-- Generator: Adobe Illustrator 16.0.3, SVG Export Plug-In . SVG Version: 6.00 Build 0)  -->
<!DOCTYPE svg PUBLIC "-//W3C//DTD SVG 1.1//EN" "http://www.w3.org/Graphics/SVG/1.1/DTD/svg11.dtd">
<svg version="1.1" xmlns="http://www.w3.org/2000/svg" xmlns:xlink="http://www.w3.org/1999/xlink" x="0px" y="0px" width="22.68px"
	 height="22.68px" viewBox="0 0 22.68 22.68" enable-background="new 0 0 22.68 22.68" xml:space="preserve">
<g id="BCGRND">
</g>
<g id="IKONY">
	<g>
		<rect fill="#585857" width="22.68" height="22.678"/>
		<g>
			<g>
				<rect x="0.001" y="11.956" fill="#FFFFFF" width="22.675" height="0.889"/>
			</g>
			<g>
				<g>
					<path fill="none" d="M12.272,18.77c-0.693,0.223-2.387,0.346-3.449-0.859c-1.066-1.203-0.762-1.768-0.434-2.109
						c0.322-0.34,1.512-0.303,1.896-0.287c0.338,0.217,0.742,0.336,1.174,0.309c0.518-0.033,0.973-0.268,1.303-0.617
						c0.082,0.807,0.445,1.424,0.469,1.99C13.265,17.93,12.966,18.547,12.272,18.77z"/>
					<path opacity="0.5" fill="#FFFFFF" d="M11.339,19.994c3.366,0,6.104-2.736,6.104-6.102c0-0.516-0.071-1.014-0.192-1.492h-0.512
						c0.132,0.475,0.208,0.975,0.208,1.492c0,3.09-2.516,5.605-5.607,5.605c-3.091,0-5.605-2.516-5.605-5.605
						c0-0.518,0.076-1.018,0.208-1.492H5.43c-0.121,0.479-0.192,0.977-0.192,1.492C5.237,17.258,7.975,19.994,11.339,19.994z"/>
					<path fill="#FFFFFF" d="M7.517,14.25c0.529,0.205,1.24,0.119,2.014,0.367c-0.084-0.197-0.145-0.41-0.16-0.639
						c-0.039-0.629,0.238-1.191,0.678-1.578H6.521c-0.028,0.123-0.049,0.238-0.059,0.336C6.388,13.463,6.831,13.982,7.517,14.25z"/>
					<path fill="#FFFFFF" d="M13.302,13.732c0.004,0.045-0.006,0.09-0.004,0.135l0.002,0.002c0.188,0.334,0.783,1.369,1.246,1.465
						c0.463,0.094,1.102,0.057,1.563-1.482c0.153-0.514,0.137-1.004,0.036-1.451h-3.497C13.02,12.73,13.27,13.197,13.302,13.732z"/>
					<path fill="#FFFFFF" d="M11.46,15.822c-0.432,0.027-0.836-0.092-1.174-0.309c-0.385-0.016-1.574-0.053-1.896,0.287
						c-0.328,0.342-0.633,0.906,0.434,2.109c1.063,1.205,2.756,1.082,3.449,0.859s0.992-0.84,0.959-1.574
						c-0.023-0.566-0.387-1.184-0.469-1.99C12.433,15.555,11.978,15.789,11.46,15.822z"/>
					<path opacity="0.5" fill="#FFFFFF" d="M10.278,13.922c0.006,0.096,0.041,0.182,0.07,0.271c0.115,0.336,0.381,0.588,0.725,0.676
						c0.105,0.029,0.213,0.053,0.33,0.047c0.256-0.016,0.475-0.131,0.648-0.295c0.223-0.209,0.365-0.5,0.344-0.832
						c-0.004-0.092-0.041-0.172-0.068-0.254c-0.109-0.342-0.375-0.602-0.721-0.693c-0.107-0.027-0.219-0.053-0.336-0.047
						c-0.311,0.02-0.574,0.174-0.756,0.398C10.354,13.395,10.261,13.646,10.278,13.922z"/>
					<path opacity="0.5" fill="#FFFFFF" d="M0.012,20.729c0.443,0.107,0.896,0.277,0.901,0.281c0.045,0.025,0.747,0.445,1.676,0.445
						c0.481,0,1.021-0.111,1.564-0.447c1.334-0.822,2.719-0.006,2.732,0.002c0.147,0.088,0.32,0.008,0.391-0.18
						c0.068-0.186,0.006-0.41-0.139-0.498c-0.067-0.039-1.646-0.98-3.24,0c-1.333,0.824-2.719,0.01-2.732,0
						c-0.035-0.021-0.497-0.287-1.153-0.396V20.729z"/>
					<path opacity="0.5" fill="#FFFFFF" d="M2.239,18.898c1.333-0.822,2.719-0.006,2.732,0.002c0.146,0.088,0.32,0.01,0.391-0.18
						c0.068-0.186,0.008-0.408-0.139-0.498c-0.066-0.041-1.646-0.982-3.24,0C1.259,18.668,0.526,18.629,0,18.502v0.77
						c0.204,0.043,0.431,0.072,0.675,0.072C1.156,19.344,1.696,19.232,2.239,18.898z"/>
					<path opacity="0.5" fill="#FFFFFF" d="M4.122,16.875c0.146,0.088,0.32,0.008,0.391-0.18c0.068-0.186,0.008-0.408-0.139-0.498
						c-0.066-0.041-1.646-0.982-3.24,0C0.747,16.436,0.36,16.527,0,16.551v0.758c0.437-0.025,0.911-0.141,1.39-0.436
						C2.723,16.053,4.108,16.867,4.122,16.875z"/>
					<path opacity="0.5" fill="#FFFFFF" d="M3.697,14.752c0.146,0.088,0.32,0.008,0.391-0.18c0.068-0.186,0.008-0.408-0.139-0.498
						c-0.066-0.041-1.646-0.982-3.24,0C0.471,14.221,0.233,14.301,0,14.357v0.771c0.313-0.064,0.638-0.178,0.965-0.379
						C2.298,13.93,3.684,14.744,3.697,14.752z"/>
					<path opacity="0.5" fill="#FFFFFF" d="M22.677,20.729c0,0-0.906,0.277-0.912,0.281c-0.045,0.025-0.747,0.445-1.676,0.445
						c-0.481,0-1.021-0.111-1.564-0.447c-1.334-0.822-2.719-0.006-2.732,0.002c-0.147,0.088-0.32,0.008-0.391-0.18
						c-0.068-0.186-0.006-0.41,0.139-0.498c0.067-0.039,1.646-0.98,3.24,0c1.333,0.824,2.719,0.01,2.732,0
						c0.035-0.021,0.508-0.287,1.164-0.396V20.729z"/>
					<path opacity="0.5" fill="#FFFFFF" d="M20.694,18.223c-1.594-0.982-3.174-0.041-3.24,0c-0.146,0.09-0.207,0.313-0.139,0.498
						c0.07,0.189,0.244,0.268,0.391,0.18c0.014-0.008,1.399-0.824,2.732-0.002c0.543,0.334,1.083,0.445,1.564,0.445
						c0.244,0,0.471-0.029,0.675-0.072v-0.08c0-0.213,0-0.445,0-0.689C22.151,18.629,21.419,18.668,20.694,18.223z"/>
					<path opacity="0.5" fill="#FFFFFF" d="M18.304,16.197c-0.146,0.09-0.207,0.313-0.139,0.498c0.07,0.188,0.244,0.268,0.391,0.18
						c0.014-0.008,1.399-0.822,2.732-0.002c0.479,0.295,0.953,0.41,1.39,0.436c0-0.25,0-0.502,0-0.758
						c-0.36-0.023-0.747-0.115-1.134-0.354C19.95,15.215,18.37,16.156,18.304,16.197z"/>
					<path opacity="0.5" fill="#FFFFFF" d="M18.729,14.074c-0.146,0.09-0.207,0.313-0.139,0.498c0.07,0.188,0.244,0.268,0.391,0.18
						c0.014-0.008,1.399-0.822,2.732-0.002c0.327,0.201,0.651,0.314,0.965,0.379c0-0.268,0-0.523,0-0.771
						c-0.233-0.057-0.471-0.137-0.709-0.283C20.375,13.092,18.795,14.033,18.729,14.074z"/>
				</g>
				<path fill="#FFFFFF" d="M10.478,12.67c-0.395,0.287-0.641,0.758-0.607,1.277c0.021,0.34,0.16,0.643,0.371,0.879
					c0.104,0.115,0.221,0.219,0.354,0.297c0.244,0.145,0.531,0.219,0.836,0.199c0.557-0.033,1.016-0.383,1.234-0.857
					c0.092-0.197,0.143-0.416,0.137-0.646c-0.002-0.02,0.002-0.037,0.002-0.055c-0.046-0.729-0.622-1.297-1.326-1.363h-0.291
					c-0.012,0.002-0.021,0.002-0.033,0.004C10.903,12.438,10.671,12.529,10.478,12.67z M11.606,12.842
					c0.346,0.092,0.611,0.352,0.721,0.693c0.027,0.082,0.064,0.162,0.068,0.254c0.021,0.332-0.121,0.623-0.344,0.832
					c-0.174,0.164-0.393,0.279-0.648,0.295c-0.117,0.006-0.225-0.018-0.33-0.047c-0.344-0.088-0.609-0.34-0.725-0.676
					c-0.029-0.09-0.064-0.176-0.07-0.271c-0.018-0.275,0.076-0.527,0.236-0.729c0.182-0.225,0.445-0.379,0.756-0.398
					C11.388,12.789,11.499,12.814,11.606,12.842z"/>
			</g>
		</g>
	</g>
	<g>
		<g>
			<path fill="#FFFFFF" d="M5.75,1.995v1.318h1.392V1.995h0.601v3.291H7.141v-1.45H5.75v1.45H5.149V1.995H5.75z"/>
			<path fill="#FFFFFF" d="M10.769,4.075c0,0.874-0.615,1.265-1.221,1.265c-0.669,0-1.191-0.459-1.191-1.226
				c0-0.781,0.513-1.26,1.23-1.26C10.295,2.854,10.769,3.353,10.769,4.075z M8.977,4.1c0,0.459,0.229,0.806,0.591,0.806
				c0.342,0,0.581-0.332,0.581-0.815c0-0.371-0.166-0.801-0.576-0.801C9.147,3.289,8.977,3.704,8.977,4.1z"/>
			<path fill="#FFFFFF" d="M11.363,3.675c0-0.322-0.005-0.557-0.02-0.767h0.518l0.024,0.449H11.9
				c0.117-0.332,0.396-0.503,0.654-0.503c0.059,0,0.093,0.005,0.142,0.015v0.562c-0.054-0.01-0.107-0.015-0.181-0.015
				c-0.283,0-0.483,0.181-0.537,0.454c-0.01,0.054-0.015,0.117-0.015,0.181v1.235h-0.601V3.675z"/>
			<path fill="#FFFFFF" d="M13.802,3.953h0.01c0.059-0.093,0.127-0.195,0.186-0.278l0.581-0.767h0.723L14.417,3.88l1.006,1.406
				h-0.737l-0.684-1.05l-0.2,0.239v0.811h-0.601V1.819h0.601V3.953z"/>
			<path fill="#FFFFFF" d="M16.207,2.908l0.425,1.274c0.049,0.146,0.103,0.327,0.137,0.459h0.015
				c0.034-0.132,0.078-0.313,0.127-0.464l0.371-1.27h0.64l-0.596,1.621c-0.327,0.889-0.547,1.284-0.825,1.528
				c-0.239,0.205-0.483,0.283-0.63,0.303l-0.137-0.503c0.103-0.024,0.225-0.078,0.347-0.166c0.117-0.073,0.249-0.215,0.332-0.376
				c0.024-0.044,0.034-0.078,0.034-0.107c0-0.024-0.005-0.059-0.029-0.117l-0.874-2.183H16.207z M17.516,1.878L16.92,2.601h-0.415
				l0.425-0.723H17.516z"/>
			<path fill="#FFFFFF" d="M4.203,7.408l0.386,1.206c0.068,0.21,0.117,0.4,0.161,0.596h0.015c0.044-0.195,0.098-0.381,0.161-0.596
				l0.381-1.206h0.63L5.028,9.786H4.437L3.553,7.408H4.203z"/>
			<path fill="#FFFFFF" d="M6.179,9.439l0.894-1.143c0.122-0.146,0.225-0.264,0.347-0.4v-0.01H6.267V7.408h1.885v0.366L7.282,8.893
				C7.165,9.034,7.053,9.171,6.931,9.298v0.01h1.25v0.479H6.179V9.439z"/>
			<path fill="#FFFFFF" d="M10.859,6.319v2.798c0,0.244,0.01,0.508,0.02,0.669h-0.532L10.317,9.41h-0.01
				c-0.142,0.264-0.43,0.43-0.771,0.43c-0.571,0-1.021-0.483-1.021-1.216c-0.005-0.796,0.493-1.27,1.064-1.27
				c0.327,0,0.562,0.132,0.669,0.308h0.01V6.319H10.859z M10.259,8.399c0-0.049-0.005-0.112-0.015-0.161
				C10.19,8.009,10,7.818,9.727,7.818c-0.386,0-0.601,0.342-0.601,0.781s0.215,0.757,0.596,0.757c0.244,0,0.459-0.166,0.518-0.425
				c0.015-0.054,0.02-0.112,0.02-0.176V8.399z"/>
			<path fill="#FFFFFF" d="M13.734,9.073c0,0.283,0.01,0.518,0.02,0.713h-0.522L13.202,9.43h-0.015
				c-0.103,0.166-0.337,0.41-0.767,0.41s-0.825-0.259-0.825-1.035V7.408h0.601v1.294c0,0.396,0.127,0.649,0.444,0.649
				c0.244,0,0.4-0.166,0.459-0.322c0.024-0.049,0.034-0.117,0.034-0.186V7.408h0.601V9.073z"/>
			<path fill="#FFFFFF" d="M16.232,9.713c-0.127,0.059-0.376,0.122-0.674,0.122c-0.742,0-1.226-0.479-1.226-1.216
				c0-0.713,0.488-1.265,1.323-1.265c0.22,0,0.444,0.049,0.581,0.107L16.13,7.916c-0.098-0.049-0.239-0.093-0.454-0.093
				c-0.459,0-0.732,0.337-0.728,0.771c0,0.488,0.317,0.767,0.728,0.767c0.205,0,0.356-0.044,0.474-0.093L16.232,9.713z"/>
			<path fill="#FFFFFF" d="M16.777,6.319h0.601V7.73h0.01c0.073-0.112,0.176-0.205,0.298-0.269c0.122-0.068,0.264-0.107,0.415-0.107
				c0.405,0,0.83,0.269,0.83,1.03v1.401H18.33V8.448c0-0.342-0.127-0.605-0.459-0.605c-0.234,0-0.4,0.156-0.469,0.337
				c-0.02,0.054-0.024,0.117-0.024,0.181v1.426h-0.601V6.319z"/>
		</g>
	</g>
</g>
</svg>
