<?xml version="1.0" encoding="utf-8"?>
<!-- Generator: Adobe Illustrator 16.0.3, SVG Export Plug-In . SVG Version: 6.00 Build 0)  -->
<!DOCTYPE svg PUBLIC "-//W3C//DTD SVG 1.1//EN" "http://www.w3.org/Graphics/SVG/1.1/DTD/svg11.dtd">
<svg version="1.1" xmlns="http://www.w3.org/2000/svg" xmlns:xlink="http://www.w3.org/1999/xlink" x="0px" y="0px" width="22.68px"
	 height="22.68px" viewBox="0 0 22.68 22.68" enable-background="new 0 0 22.68 22.68" xml:space="preserve">
<g id="BCGRND">
</g>
<g id="IKONY">
	<rect x="0.001" fill="#585857" width="22.677" height="22.677"/>
	<g>
		<g>
			<rect x="0.001" y="11.956" fill="#FFFFFF" width="22.678" height="0.889"/>
			<g>
				<g>
					<path fill="#FFFFFF" d="M3.639,1.995v3.291H3.038V1.995H3.639z"/>
					<path fill="#FFFFFF" d="M4.26,3.616c0-0.273-0.01-0.503-0.02-0.708h0.522l0.029,0.356h0.015c0.107-0.186,0.366-0.41,0.762-0.41
						c0.415,0,0.845,0.269,0.845,1.021v1.411H5.813V3.943c0-0.342-0.127-0.601-0.454-0.601c-0.239,0-0.405,0.171-0.469,0.352
						c-0.02,0.049-0.029,0.122-0.029,0.19v1.401H4.26V3.616z"/>
					<path fill="#FFFFFF" d="M7.286,2.908l0.386,1.206c0.068,0.21,0.117,0.4,0.161,0.596h0.015c0.044-0.195,0.098-0.381,0.161-0.596
						L8.39,2.908h0.63L8.111,5.286H7.521L6.637,2.908H7.286z"/>
					<path fill="#FFFFFF" d="M9.677,4.265c0.015,0.43,0.347,0.615,0.732,0.615c0.278,0,0.474-0.044,0.659-0.107l0.088,0.41
						c-0.205,0.088-0.488,0.151-0.83,0.151c-0.771,0-1.226-0.474-1.226-1.201c0-0.659,0.4-1.279,1.162-1.279
						c0.771,0,1.025,0.635,1.025,1.157c0,0.112-0.01,0.2-0.02,0.254H9.677z M10.722,3.845c0.005-0.22-0.093-0.581-0.493-0.581
						c-0.371,0-0.527,0.337-0.552,0.581H10.722z"/>
					<path fill="#FFFFFF" d="M11.701,3.674c0-0.322-0.005-0.557-0.02-0.767h0.518l0.024,0.449h0.015
						c0.117-0.332,0.396-0.503,0.654-0.503c0.059,0,0.093,0.005,0.142,0.015V3.43c-0.054-0.01-0.107-0.015-0.181-0.015
						c-0.283,0-0.483,0.181-0.537,0.454c-0.01,0.054-0.015,0.117-0.015,0.181v1.235h-0.601V3.674z"/>
					<path fill="#FFFFFF" d="M14.169,2.297v0.61h0.571v0.449h-0.571v1.05c0,0.293,0.078,0.439,0.308,0.439
						c0.107,0,0.166-0.005,0.234-0.024l0.01,0.454c-0.088,0.034-0.249,0.063-0.435,0.063c-0.225,0-0.405-0.073-0.518-0.195
						c-0.132-0.137-0.19-0.356-0.19-0.669V3.357h-0.337V2.908h0.337V2.463L14.169,2.297z"/>
					<path fill="#FFFFFF" d="M17.355,4.075c0,0.874-0.615,1.265-1.221,1.265c-0.669,0-1.191-0.459-1.191-1.226
						c0-0.781,0.513-1.26,1.23-1.26C16.881,2.854,17.355,3.352,17.355,4.075z M15.563,4.099c0,0.459,0.229,0.806,0.591,0.806
						c0.342,0,0.581-0.332,0.581-0.815c0-0.371-0.166-0.801-0.576-0.801C15.734,3.289,15.563,3.704,15.563,4.099z"/>
					<path fill="#FFFFFF" d="M17.778,3.674c0-0.322-0.005-0.557-0.02-0.767h0.518l0.024,0.449h0.015
						c0.117-0.332,0.396-0.503,0.654-0.503c0.059,0,0.093,0.005,0.142,0.015V3.43c-0.054-0.01-0.107-0.015-0.181-0.015
						c-0.283,0-0.483,0.181-0.537,0.454c-0.01,0.054-0.015,0.117-0.015,0.181v1.235h-0.601V3.674z"/>
					<path fill="#FFFFFF" d="M19.083,4.954c0-0.225,0.156-0.386,0.371-0.386c0.22,0,0.371,0.156,0.371,0.386
						c0,0.22-0.146,0.386-0.376,0.386C19.235,5.339,19.083,5.173,19.083,4.954z"/>
					<path fill="#FFFFFF" d="M1.578,6.797v0.61h0.571v0.449H1.578v1.05c0,0.293,0.078,0.439,0.308,0.439
						c0.107,0,0.166-0.005,0.234-0.024l0.01,0.454C2.042,9.81,1.88,9.839,1.695,9.839c-0.225,0-0.405-0.073-0.518-0.195
						c-0.132-0.137-0.19-0.356-0.19-0.669V7.857H0.65V7.408h0.337V6.963L1.578,6.797z"/>
					<path fill="#FFFFFF" d="M2.878,8.765C2.893,9.195,3.225,9.38,3.611,9.38c0.278,0,0.474-0.044,0.659-0.107l0.088,0.41
						C4.153,9.771,3.87,9.834,3.528,9.834c-0.771,0-1.226-0.474-1.226-1.201c0-0.659,0.4-1.279,1.162-1.279
						c0.771,0,1.025,0.635,1.025,1.157c0,0.112-0.01,0.2-0.02,0.254H2.878z M3.923,8.345c0.005-0.22-0.093-0.581-0.493-0.581
						c-0.371,0-0.527,0.337-0.552,0.581H3.923z"/>
					<path fill="#FFFFFF" d="M6.602,9.712C6.475,9.771,6.226,9.834,5.928,9.834c-0.742,0-1.226-0.479-1.226-1.216
						c0-0.713,0.488-1.265,1.323-1.265c0.22,0,0.444,0.049,0.581,0.107L6.5,7.916C6.402,7.867,6.26,7.823,6.045,7.823
						c-0.459,0-0.732,0.337-0.728,0.771c0,0.488,0.317,0.767,0.728,0.767c0.205,0,0.356-0.044,0.474-0.093L6.602,9.712z"/>
					<path fill="#FFFFFF" d="M6.927,6.319h0.601V7.73h0.01C7.61,7.618,7.713,7.525,7.835,7.461C7.957,7.393,8.099,7.354,8.25,7.354
						c0.405,0,0.83,0.269,0.83,1.03v1.401H8.479V8.448c0-0.342-0.127-0.605-0.459-0.605c-0.234,0-0.4,0.156-0.469,0.337
						C7.532,8.233,7.527,8.296,7.527,8.36v1.426H6.927V6.319z"/>
					<path fill="#FFFFFF" d="M9.601,8.116c0-0.273-0.01-0.503-0.02-0.708h0.522l0.029,0.356h0.015
						c0.107-0.186,0.366-0.41,0.762-0.41c0.415,0,0.845,0.269,0.845,1.021v1.411h-0.601V8.443c0-0.342-0.127-0.601-0.454-0.601
						c-0.239,0-0.405,0.171-0.469,0.352c-0.02,0.049-0.029,0.122-0.029,0.19v1.401H9.601V8.116z"/>
					<path fill="#FFFFFF" d="M14.536,8.575c0,0.874-0.615,1.265-1.221,1.265c-0.669,0-1.191-0.459-1.191-1.226
						c0-0.781,0.513-1.26,1.23-1.26C14.063,7.354,14.536,7.852,14.536,8.575z M12.744,8.599c0,0.459,0.229,0.806,0.591,0.806
						c0.342,0,0.581-0.332,0.581-0.815c0-0.371-0.166-0.801-0.576-0.801C12.915,7.789,12.744,8.204,12.744,8.599z"/>
					<path fill="#FFFFFF" d="M14.911,6.319h0.601v3.467h-0.601V6.319z"/>
					<path fill="#FFFFFF" d="M18.306,8.575c0,0.874-0.615,1.265-1.221,1.265c-0.669,0-1.191-0.459-1.191-1.226
						c0-0.781,0.513-1.26,1.23-1.26C17.832,7.354,18.306,7.852,18.306,8.575z M16.514,8.599c0,0.459,0.229,0.806,0.591,0.806
						c0.342,0,0.581-0.332,0.581-0.815c0-0.371-0.166-0.801-0.576-0.801C16.685,7.789,16.514,8.204,16.514,8.599z"/>
					<path fill="#FFFFFF" d="M20.833,9.439c0,0.498-0.103,0.854-0.352,1.079c-0.244,0.22-0.591,0.288-0.918,0.288
						c-0.303,0-0.625-0.068-0.83-0.19l0.132-0.454c0.151,0.088,0.405,0.181,0.693,0.181c0.391,0,0.684-0.205,0.684-0.718V9.419
						h-0.01c-0.137,0.21-0.376,0.352-0.693,0.352c-0.591,0-1.011-0.488-1.011-1.162c0-0.781,0.508-1.255,1.079-1.255
						c0.366,0,0.576,0.176,0.688,0.371h0.01l0.024-0.317h0.522c-0.01,0.161-0.02,0.356-0.02,0.684V9.439z M20.232,8.36
						c0-0.059-0.005-0.112-0.02-0.161c-0.063-0.22-0.234-0.386-0.488-0.386c-0.337,0-0.586,0.293-0.586,0.776
						c0,0.405,0.205,0.732,0.581,0.732c0.225,0,0.42-0.146,0.488-0.366c0.02-0.059,0.024-0.142,0.024-0.21V8.36z"/>
					<path fill="#FFFFFF" d="M21.208,9.454c0-0.225,0.156-0.386,0.371-0.386c0.22,0,0.371,0.156,0.371,0.386
						c0,0.22-0.146,0.386-0.376,0.386C21.359,9.839,21.208,9.673,21.208,9.454z"/>
				</g>
			</g>
		</g>
		<g>
			<polygon fill="none" points="10.628,16.966 11.301,17.46 11.872,17.042 11.239,14.953 			"/>
			<path fill="none" d="M6.548,16.633l0.047-0.035c0.176-0.13,0.416-0.129,0.592,0l0.474,0.348l-0.604-1.993L6.548,16.633z"/>
			<polygon fill="none" points="12.606,17.743 13.33,20.128 13.85,18.412 12.772,17.621 			"/>
			<path fill="none" d="M5.125,18.483l-0.847-0.622l0.687,2.268l0.471-1.553C5.327,18.579,5.218,18.551,5.125,18.483z"/>
			<path fill="none" d="M14.78,17.065l0.636-0.467c0.146-0.108,0.332-0.104,0.493-0.033l-0.489-1.613L14.78,17.065z"/>
			<polygon fill="none" points="2.181,17.24 2.481,17.46 3.424,16.768 2.875,14.953 			"/>
			<polygon fill="none" points="0.204,18.214 0.784,20.128 1.447,17.94 1.012,17.621 			"/>
			<path fill="none" d="M17.026,18.529l0.485,1.6l0.65-2.147l-0.684,0.502C17.344,18.582,17.178,18.581,17.026,18.529z"/>
			<polygon fill="none" points="19.075,16.691 20.123,17.46 20.319,17.316 19.602,14.953 			"/>
			<polygon fill="none" points="8.658,18.483 8.649,18.486 9.147,20.128 9.894,17.667 9.832,17.621 			"/>
			<polygon fill="none" points="21.054,18.017 21.694,20.128 22.297,18.138 21.592,17.621 			"/>
			<path opacity="0.3" fill="#FFFFFF" d="M11.478,14.019c-0.063-0.211-0.415-0.21-0.479,0l-0.799,2.634l0.428,0.314l0.61-2.013
				l0.633,2.089l0.427-0.314L11.478,14.019z M7.296,14.019c-0.032-0.105-0.129-0.178-0.239-0.178s-0.208,0.072-0.239,0.177
				l-0.942,3.108l0.672-0.493l0.509-1.681l0.604,1.993l0.671,0.493L7.296,14.019z M13.947,18.483l-0.097-0.071l-0.52,1.716
				l-0.723-2.386l-0.427,0.313l0.911,3.006c0.063,0.211,0.415,0.211,0.479,0l0.761-2.511C14.197,18.576,14.061,18.567,13.947,18.483
				z M18.162,17.981l-0.65,2.147l-0.485-1.6c-0.047-0.016-0.099-0.015-0.14-0.046l-0.509-0.374l0.895,2.954
				c0.063,0.211,0.415,0.211,0.479,0l1.018-3.357l-0.115-0.084L18.162,17.981z M19.841,14.018c-0.063-0.21-0.415-0.21-0.479,0
				l-0.757,2.498c0.12-0.012,0.241,0.007,0.343,0.082l0.126,0.093l0.527-1.738l0.717,2.363l0.427-0.313L19.841,14.018z
				 M15.66,14.019c-0.063-0.211-0.415-0.211-0.479,0l-1.024,3.379l0.085,0.063l0.538-0.395l0.64-2.113l0.489,1.613
				c0.033,0.015,0.07,0.011,0.099,0.033l0.557,0.409L15.66,14.019z M3.114,14.019c-0.063-0.211-0.415-0.211-0.479,0l-0.881,2.907
				l0.427,0.314l0.693-2.287l0.55,1.815l0.231-0.17c0.065-0.047,0.142-0.059,0.218-0.071L3.114,14.019z M22.297,18.138l-0.603,1.99
				l-0.64-2.112l-0.428,0.314l0.829,2.732c0.063,0.21,0.415,0.21,0.479,0l0.746-2.462v-0.182L22.297,18.138z M0.784,20.128
				l-0.58-1.914l-0.202,0.148v0.908l0.543,1.792c0.063,0.211,0.415,0.211,0.479,0l0.851-2.808L1.447,17.94L0.784,20.128z
				 M9.147,20.128l-0.498-1.643c-0.155,0.11-0.352,0.106-0.516,0.02l0.774,2.557c0.032,0.105,0.129,0.178,0.239,0.178
				s0.208-0.072,0.239-0.177l0.935-3.083l-0.427-0.314L9.147,20.128z M5.436,18.576l-0.471,1.553l-0.687-2.268l-0.327-0.24
				l-0.22,0.161l0.994,3.28c0.063,0.211,0.415,0.21,0.479,0l0.859-2.834l-0.347,0.254C5.634,18.544,5.535,18.572,5.436,18.576z"/>
			<path fill="#FFFFFF" d="M22.604,17.124l-0.716-0.526c-0.176-0.13-0.416-0.13-0.592,0l-0.55,0.404l-0.427,0.313l-0.196,0.144
				l-1.047-0.769l-0.126-0.093c-0.102-0.075-0.223-0.094-0.343-0.082c-0.087,0.009-0.175,0.027-0.249,0.082l-1.175,0.862
				l-0.617-0.453l-0.557-0.409c-0.029-0.021-0.066-0.018-0.099-0.033c-0.161-0.072-0.346-0.076-0.493,0.033l-0.636,0.467
				l-0.538,0.395l-0.085-0.063l-1.089-0.8c-0.176-0.129-0.416-0.129-0.592,0l-0.177,0.13l-0.427,0.314l-0.57,0.418l-0.673-0.494
				l-0.428-0.314l-0.073-0.054c-0.176-0.13-0.416-0.13-0.592,0L8.362,17.46l-0.03-0.022l-0.671-0.493l-0.474-0.348
				c-0.176-0.129-0.416-0.129-0.592,0l-0.047,0.035l-0.672,0.493L5.421,17.46l-1.174-0.862c-0.111-0.082-0.244-0.093-0.374-0.072
				c-0.076,0.013-0.153,0.024-0.218,0.071l-0.231,0.17L2.481,17.46l-0.3-0.22l-0.427-0.314l-0.446-0.328
				c-0.176-0.13-0.416-0.129-0.592,0l-0.715,0.525v1.24l0.202-0.148l0.809-0.593l0.435,0.319l0.427,0.314l0.311,0.229
				c0.176,0.13,0.416,0.129,0.592,0l0.955-0.701l0.22-0.161l0.327,0.24l0.847,0.622c0.092,0.068,0.202,0.096,0.311,0.093
				c0.099-0.003,0.198-0.031,0.281-0.093l0.347-0.254l0.827-0.607l1.175,0.862c0.02,0.015,0.046,0.011,0.067,0.022
				c0.165,0.087,0.361,0.09,0.516-0.02c0.002-0.002,0.006-0.001,0.008-0.003l1.174-0.862l0.062,0.045l0.427,0.314l0.685,0.502
				c0.176,0.13,0.416,0.129,0.592,0l0.582-0.427l0.427-0.313l0.166-0.122l1.078,0.791l0.097,0.071
				c0.114,0.083,0.25,0.093,0.383,0.068c0.073-0.014,0.147-0.023,0.209-0.069l1.174-0.862l0.665,0.488l0.509,0.374
				c0.042,0.031,0.093,0.03,0.14,0.046c0.152,0.052,0.317,0.053,0.452-0.045l0.684-0.502l0.491-0.36l0.115,0.084l1.059,0.777
				c0.176,0.13,0.416,0.13,0.592,0l0.208-0.152l0.428-0.314l0.539-0.396l0.705,0.517l0.382,0.281v-1.24L22.604,17.124z"/>
		</g>
	</g>
</g>
</svg>
