<?xml version="1.0" encoding="utf-8"?>
<!-- Generator: Adobe Illustrator 16.0.3, SVG Export Plug-In . SVG Version: 6.00 Build 0)  -->
<!DOCTYPE svg PUBLIC "-//W3C//DTD SVG 1.1//EN" "http://www.w3.org/Graphics/SVG/1.1/DTD/svg11.dtd">
<svg version="1.1" xmlns="http://www.w3.org/2000/svg" xmlns:xlink="http://www.w3.org/1999/xlink" x="0px" y="0px" width="22.68px"
	 height="22.68px" viewBox="0 0 22.68 22.68" enable-background="new 0 0 22.68 22.68" xml:space="preserve">
<g id="BCGRND">
</g>
<g id="IKONY">
	<rect x="0.001" fill="#585857" width="22.678" height="22.677"/>
	<g>
		<defs>
			<rect id="SVGID_3_" x="0.001" width="22.678" height="22.677"/>
		</defs>
		<clipPath id="SVGID_2_">
			<use xlink:href="#SVGID_3_"  overflow="visible"/>
		</clipPath>
		<g clip-path="url(#SVGID_2_)">
			<g>
				<g>
					<g>
						<rect x="0.001" y="11.956" fill="#FFFFFF" width="22.678" height="0.889"/>
					</g>
					<g>
						<g>
							<path fill="#FFFFFF" d="M3.381,1.996v3.291H2.78V1.996H3.381z"/>
							<path fill="#FFFFFF" d="M4.076,3.617c0-0.273-0.005-0.503-0.02-0.708h0.527l0.029,0.356h0.015
								c0.103-0.186,0.361-0.41,0.757-0.41c0.415,0,0.845,0.269,0.845,1.021v1.411H5.628V3.944c0-0.342-0.127-0.601-0.454-0.601
								c-0.239,0-0.405,0.171-0.469,0.352c-0.02,0.054-0.024,0.127-0.024,0.195v1.396H4.076V3.617z"/>
							<path fill="#FFFFFF" d="M7.175,2.909l0.386,1.206c0.068,0.21,0.117,0.4,0.161,0.596h0.015C7.78,4.516,7.834,4.33,7.897,4.115
								l0.376-1.206h0.635L8,5.287H7.409L6.525,2.909H7.175z"/>
							<path fill="#FFFFFF" d="M9.639,4.267c0.015,0.43,0.352,0.615,0.732,0.615c0.278,0,0.479-0.039,0.659-0.107l0.088,0.415
								c-0.205,0.083-0.488,0.146-0.83,0.146c-0.771,0-1.226-0.474-1.226-1.201c0-0.659,0.4-1.279,1.162-1.279
								c0.771,0,1.025,0.635,1.025,1.157c0,0.112-0.01,0.2-0.02,0.254H9.639z M10.684,3.847c0.005-0.22-0.093-0.581-0.493-0.581
								c-0.371,0-0.527,0.337-0.552,0.581H10.684z"/>
							<path fill="#FFFFFF" d="M11.737,3.676c0-0.322-0.005-0.552-0.02-0.767h0.522l0.02,0.454h0.02
								c0.117-0.337,0.396-0.508,0.649-0.508c0.059,0,0.093,0.005,0.142,0.015v0.566c-0.049-0.01-0.103-0.02-0.176-0.02
								c-0.288,0-0.483,0.186-0.537,0.454c-0.01,0.054-0.02,0.117-0.02,0.186v1.23h-0.601V3.676z"/>
							<path fill="#FFFFFF" d="M14.278,2.23v0.679h0.571v0.449h-0.571v1.05c0,0.288,0.078,0.439,0.308,0.439
								c0.103,0,0.181-0.015,0.234-0.029l0.01,0.459c-0.088,0.034-0.244,0.059-0.435,0.059c-0.22,0-0.405-0.073-0.518-0.195
								c-0.127-0.137-0.186-0.352-0.186-0.664V3.358h-0.342V2.909h0.342V2.372L14.278,2.23z"/>
							<path fill="#FFFFFF" d="M17.537,4.076c0,0.874-0.615,1.265-1.221,1.265c-0.674,0-1.191-0.464-1.191-1.226
								c0-0.781,0.513-1.26,1.23-1.26C17.063,2.855,17.537,3.354,17.537,4.076z M15.745,4.101c0,0.459,0.225,0.806,0.591,0.806
								c0.342,0,0.581-0.337,0.581-0.815c0-0.371-0.166-0.796-0.576-0.796C15.916,3.295,15.745,3.705,15.745,4.101z"/>
							<path fill="#FFFFFF" d="M18.034,3.676c0-0.322-0.005-0.552-0.02-0.767h0.522l0.02,0.454h0.02
								c0.117-0.337,0.396-0.508,0.649-0.508c0.059,0,0.093,0.005,0.142,0.015v0.566c-0.049-0.01-0.103-0.02-0.176-0.02
								c-0.288,0-0.483,0.186-0.537,0.454c-0.01,0.054-0.02,0.117-0.02,0.186v1.23h-0.601V3.676z"/>
							<path fill="#FFFFFF" d="M19.413,4.955c0-0.225,0.156-0.386,0.371-0.386c0.22,0,0.371,0.156,0.371,0.386
								c0,0.22-0.146,0.386-0.371,0.386C19.564,5.341,19.413,5.175,19.413,4.955z"/>
							<path fill="#FFFFFF" d="M5.154,8.117c0-0.273-0.005-0.503-0.02-0.708h0.518l0.024,0.352h0.015
								c0.117-0.186,0.332-0.405,0.732-0.405c0.313,0,0.557,0.176,0.659,0.439h0.01c0.083-0.132,0.181-0.229,0.293-0.298
								c0.132-0.093,0.283-0.142,0.479-0.142c0.396,0,0.796,0.269,0.796,1.03v1.401H8.074V8.474c0-0.396-0.137-0.63-0.425-0.63
								c-0.205,0-0.356,0.146-0.42,0.317C7.214,8.22,7.2,8.293,7.2,8.361v1.426H6.614V8.41c0-0.332-0.132-0.566-0.41-0.566
								c-0.225,0-0.376,0.176-0.43,0.342C5.75,8.244,5.74,8.313,5.74,8.381v1.406H5.154V8.117z"/>
							<path fill="#FFFFFF" d="M11.561,8.576c0,0.874-0.615,1.265-1.221,1.265c-0.674,0-1.191-0.464-1.191-1.226
								c0-0.781,0.513-1.26,1.23-1.26C11.087,7.355,11.561,7.854,11.561,8.576z M9.769,8.601c0,0.459,0.225,0.806,0.591,0.806
								c0.342,0,0.581-0.337,0.581-0.815c0-0.371-0.166-0.796-0.576-0.796C9.939,7.795,9.769,8.205,9.769,8.601z"/>
							<path fill="#FFFFFF" d="M12.746,6.73v0.679h0.571v0.449h-0.571v1.05c0,0.288,0.078,0.439,0.308,0.439
								c0.103,0,0.181-0.015,0.234-0.029l0.01,0.459c-0.088,0.034-0.244,0.059-0.435,0.059c-0.22,0-0.405-0.073-0.518-0.195
								c-0.127-0.137-0.186-0.352-0.186-0.664V7.858h-0.342V7.409h0.342V6.872L12.746,6.73z"/>
							<path fill="#FFFFFF" d="M16.004,8.576c0,0.874-0.615,1.265-1.221,1.265c-0.674,0-1.191-0.464-1.191-1.226
								c0-0.781,0.513-1.26,1.23-1.26C15.531,7.355,16.004,7.854,16.004,8.576z M14.212,8.601c0,0.459,0.225,0.806,0.591,0.806
								c0.342,0,0.581-0.337,0.581-0.815c0-0.371-0.166-0.796-0.576-0.796C14.383,7.795,14.212,8.205,14.212,8.601z"/>
							<path fill="#FFFFFF" d="M16.501,8.176c0-0.322-0.005-0.552-0.02-0.767h0.522l0.02,0.454h0.02
								c0.117-0.337,0.396-0.508,0.649-0.508c0.059,0,0.093,0.005,0.142,0.015v0.566c-0.049-0.01-0.103-0.02-0.176-0.02
								c-0.288,0-0.483,0.186-0.537,0.454c-0.01,0.054-0.02,0.117-0.02,0.186v1.23h-0.601V8.176z"/>
						</g>
					</g>
				</g>
			</g>
			<g>
				<path opacity="0.5" fill="#FFFFFF" d="M11.079,14.29c0.82,2.709,3.682,4.24,6.393,3.418c0.836-0.253,1.559-0.7,2.135-1.276
					c1.044-1.044,1.596-2.516,1.476-4.031h-2.895c0.133,0.726-0.078,1.474-0.608,2.005c-0.264,0.264-0.578,0.452-0.939,0.561
					c-0.578,0.177-1.189,0.115-1.721-0.169c-0.533-0.284-0.924-0.759-1.098-1.339c-0.106-0.35-0.108-0.71-0.045-1.058h-2.893
					C10.835,13.021,10.889,13.658,11.079,14.29z"/>
				<path fill="#FFFFFF" d="M22.34,12.4h-0.826c0.117,1.591-0.445,3.176-1.604,4.335c-0.641,0.643-1.441,1.119-2.314,1.384
					c-2.93,0.888-6.039-0.774-6.926-3.706c-0.201-0.664-0.263-1.345-0.215-2.013H9.085l-0.023,0.238l0.559,0.14
					c-0.002,0.427,0.045,0.854,0.127,1.279L9.188,14.32l0.301,0.991l0.602-0.089c0.166,0.403,0.369,0.783,0.605,1.134l-0.408,0.448
					l0.656,0.802l0.521-0.312c0.305,0.305,0.641,0.579,0.998,0.815l-0.193,0.539l0.912,0.489l0.34-0.461
					c0.396,0.167,0.813,0.292,1.24,0.377l0.027,0.57l1.029,0.102l0.139-0.551c0.426,0.002,0.855-0.041,1.285-0.127l0.26,0.55
					l0.988-0.301l-0.09-0.605c0.396-0.166,0.773-0.369,1.127-0.605l0.457,0.415l0.801-0.658l-0.311-0.519
					c0.004-0.003,0.006-0.007,0.012-0.012c0.305-0.305,0.563-0.64,0.793-0.992l0.551,0.197l0.486-0.914l-0.461-0.34
					c0.17-0.4,0.287-0.815,0.371-1.237l0.451-0.022c0-0.178,0-0.353,0-0.513c0-0.004,0-0.01,0-0.014v-0.921l-0.334,0.047
					C22.345,12.528,22.342,12.465,22.34,12.4z"/>
				<g>
					<path opacity="0.5" fill="#FFFFFF" d="M11.265,21.12c-0.82-2.709-3.682-4.24-6.393-3.418c-0.836,0.253-1.559,0.7-2.135,1.276
						c-1.044,1.044-1.596,2.516-1.476,4.031h2.895c-0.133-0.726,0.078-1.474,0.608-2.005c0.264-0.264,0.578-0.452,0.939-0.561
						c0.578-0.177,1.189-0.115,1.721,0.169c0.533,0.284,0.924,0.759,1.098,1.339c0.106,0.35,0.108,0.71,0.045,1.058h2.893
						C11.509,22.39,11.455,21.752,11.265,21.12z"/>
					<path fill="#FFFFFF" d="M0.004,23.01H0.83c-0.117-1.591,0.445-3.176,1.604-4.335c0.641-0.643,1.441-1.119,2.314-1.384
						c2.93-0.888,6.039,0.774,6.926,3.706c0.201,0.664,0.263,1.345,0.215,2.013h1.369l0.023-0.238l-0.559-0.14
						c0.002-0.427-0.045-0.854-0.127-1.279l0.559-0.263l-0.301-0.991l-0.602,0.089c-0.166-0.403-0.369-0.783-0.605-1.134
						l0.408-0.448l-0.656-0.802l-0.521,0.312c-0.305-0.305-0.641-0.579-0.998-0.815l0.193-0.539l-0.912-0.489l-0.34,0.461
						c-0.396-0.167-0.813-0.292-1.24-0.377l-0.027-0.57l-1.029-0.102l-0.139,0.551c-0.426-0.002-0.855,0.041-1.285,0.127l-0.26-0.55
						l-0.988,0.301l0.09,0.605c-0.396,0.166-0.773,0.369-1.127,0.605l-0.457-0.415l-0.801,0.658l0.311,0.519
						c-0.004,0.003-0.006,0.007-0.012,0.012c-0.305,0.305-0.563,0.64-0.793,0.992l-0.551-0.197l-0.486,0.914l0.461,0.34
						c-0.17,0.4-0.287,0.815-0.371,1.237l-0.451,0.022c0,0.178,0,0.353,0,0.513c0,0.004,0,0.01,0,0.014v0.921l0.334-0.047
						C-0.001,22.883,0.002,22.946,0.004,23.01z"/>
				</g>
			</g>
		</g>
	</g>
</g>
</svg>
