<?xml version="1.0" encoding="utf-8"?>
<!-- Generator: Adobe Illustrator 16.0.3, SVG Export Plug-In . SVG Version: 6.00 Build 0)  -->
<!DOCTYPE svg PUBLIC "-//W3C//DTD SVG 1.1//EN" "http://www.w3.org/Graphics/SVG/1.1/DTD/svg11.dtd">
<svg version="1.1" xmlns="http://www.w3.org/2000/svg" xmlns:xlink="http://www.w3.org/1999/xlink" x="0px" y="0px" width="22.68px"
	 height="22.68px" viewBox="0 0 22.68 22.68" enable-background="new 0 0 22.68 22.68" xml:space="preserve">
<g id="BCGRND">
</g>
<g id="IKONY">
	<rect x="0" fill="#585857" width="22.676" height="22.678"/>
	<g>
		<g>
			<g>
				<rect x="0" y="11.956" fill="#FFFFFF" width="22.678" height="0.889"/>
			</g>
			<g>
				<g>
					<path fill="#FFFFFF" d="M6.429,4.75c0.093,0.01,0.176,0.01,0.322,0c0.225-0.015,0.454-0.078,0.625-0.195
						c0.205-0.142,0.342-0.347,0.4-0.586L7.762,3.964C7.621,4.11,7.416,4.193,7.128,4.193c-0.537,0-0.991-0.376-0.991-0.991
						c0-0.62,0.498-1.143,1.196-1.143c0.815,0,1.201,0.625,1.201,1.367c0,0.659-0.21,1.143-0.557,1.46
						C7.675,5.16,7.26,5.312,6.766,5.331c-0.127,0.01-0.254,0.005-0.337,0V4.75z M6.879,3.158c0,0.273,0.146,0.508,0.449,0.508
						c0.2,0,0.342-0.098,0.41-0.21c0.024-0.044,0.039-0.093,0.039-0.186c0-0.337-0.127-0.669-0.464-0.669
						C7.059,2.602,6.874,2.826,6.879,3.158z"/>
					<path fill="#FFFFFF" d="M9.813,4.735c0.137,0.083,0.396,0.171,0.61,0.171c0.264,0,0.381-0.107,0.381-0.264
						c0-0.161-0.098-0.244-0.391-0.347C9.949,4.135,9.754,3.881,9.759,3.603c0-0.42,0.347-0.747,0.898-0.747
						c0.264,0,0.493,0.068,0.63,0.142L11.17,3.422c-0.103-0.059-0.293-0.137-0.503-0.137c-0.215,0-0.332,0.103-0.332,0.249
						c0,0.151,0.112,0.225,0.415,0.332c0.43,0.156,0.63,0.376,0.635,0.728c0,0.43-0.337,0.742-0.967,0.742
						c-0.288,0-0.547-0.068-0.723-0.166L9.813,4.735z"/>
					<path fill="#FFFFFF" d="M13.121,5.287l-0.039-0.264h-0.015c-0.146,0.186-0.396,0.317-0.703,0.317
						c-0.479,0-0.747-0.347-0.747-0.708c0-0.601,0.532-0.903,1.411-0.898V3.695c0-0.156-0.063-0.415-0.483-0.415
						c-0.234,0-0.479,0.073-0.64,0.176l-0.117-0.391c0.176-0.107,0.483-0.21,0.859-0.21c0.762,0,0.981,0.483,0.981,1.001v0.859
						c0,0.215,0.01,0.425,0.034,0.571H13.121z M13.043,4.125c-0.425-0.01-0.83,0.083-0.83,0.444c0,0.234,0.151,0.342,0.342,0.342
						c0.239,0,0.415-0.156,0.469-0.327c0.015-0.044,0.02-0.093,0.02-0.132V4.125z"/>
					<path fill="#FFFFFF" d="M16.361,1.82v2.798c0,0.244,0.01,0.508,0.02,0.669h-0.537l-0.024-0.376h-0.01
						c-0.142,0.264-0.43,0.43-0.776,0.43c-0.566,0-1.016-0.483-1.016-1.216c-0.005-0.796,0.493-1.27,1.064-1.27
						c0.327,0,0.562,0.137,0.669,0.313h0.01V1.82H16.361z M15.76,3.9c0-0.049-0.005-0.107-0.015-0.156
						c-0.054-0.234-0.244-0.425-0.518-0.425c-0.386,0-0.601,0.342-0.601,0.786c0,0.435,0.215,0.752,0.596,0.752
						c0.244,0,0.459-0.166,0.518-0.425c0.015-0.054,0.02-0.112,0.02-0.176V3.9z"/>
					<path fill="#FFFFFF" d="M4.166,8.117c0-0.273-0.005-0.503-0.02-0.708h0.527l0.029,0.356h0.015
						c0.103-0.186,0.361-0.41,0.757-0.41c0.415,0,0.845,0.269,0.845,1.021v1.411H5.719V8.444c0-0.342-0.127-0.601-0.454-0.601
						c-0.239,0-0.405,0.171-0.469,0.352c-0.02,0.054-0.024,0.127-0.024,0.195v1.396H4.166V8.117z"/>
					<path fill="#FFFFFF" d="M8.301,9.787L8.261,9.523H8.247C8.1,9.709,7.851,9.841,7.544,9.841c-0.479,0-0.747-0.347-0.747-0.708
						c0-0.601,0.532-0.903,1.411-0.898V8.195c0-0.156-0.063-0.415-0.483-0.415c-0.234,0-0.479,0.073-0.64,0.176L6.968,7.565
						c0.176-0.107,0.483-0.21,0.859-0.21c0.762,0,0.981,0.483,0.981,1.001v0.859c0,0.215,0.01,0.425,0.034,0.571H8.301z
						 M8.222,8.625c-0.425-0.01-0.83,0.083-0.83,0.444c0,0.234,0.151,0.342,0.342,0.342c0.239,0,0.415-0.156,0.469-0.327
						c0.015-0.044,0.02-0.093,0.02-0.132V8.625z M8.594,6.379L7.993,7.102H7.578l0.425-0.723H8.594z"/>
					<path fill="#FFFFFF" d="M11.639,6.32v2.798c0,0.244,0.01,0.508,0.02,0.669h-0.537l-0.024-0.376h-0.01
						c-0.142,0.264-0.43,0.43-0.776,0.43c-0.566,0-1.016-0.483-1.016-1.216c-0.005-0.796,0.493-1.27,1.064-1.27
						c0.327,0,0.562,0.137,0.669,0.313h0.01V6.32H11.639z M11.038,8.4c0-0.049-0.005-0.107-0.015-0.156
						C10.97,8.01,10.78,7.819,10.506,7.819c-0.386,0-0.601,0.342-0.601,0.786c0,0.435,0.215,0.752,0.596,0.752
						c0.244,0,0.459-0.166,0.518-0.425c0.015-0.054,0.02-0.112,0.02-0.176V8.4z"/>
					<path fill="#FFFFFF" d="M14.548,8.576c0,0.874-0.615,1.265-1.221,1.265c-0.674,0-1.191-0.464-1.191-1.226
						c0-0.781,0.513-1.26,1.23-1.26C14.074,7.355,14.548,7.854,14.548,8.576z M12.756,8.601c0,0.459,0.225,0.806,0.591,0.806
						c0.342,0,0.581-0.337,0.581-0.815c0-0.371-0.166-0.796-0.576-0.796C12.927,7.795,12.756,8.205,12.756,8.601z"/>
					<path fill="#FFFFFF" d="M15.025,9.787c0.01-0.161,0.02-0.425,0.02-0.669V6.32h0.601v1.416h0.01
						c0.146-0.229,0.405-0.381,0.762-0.381c0.581,0,0.996,0.483,0.991,1.206c0,0.854-0.542,1.279-1.079,1.279
						c-0.308,0-0.581-0.117-0.752-0.41h-0.01l-0.029,0.356H15.025z M15.645,8.806c0,0.049,0.005,0.098,0.015,0.142
						c0.063,0.239,0.273,0.42,0.532,0.42c0.376,0,0.605-0.303,0.605-0.781c0-0.42-0.2-0.762-0.601-0.762
						c-0.244,0-0.464,0.176-0.532,0.439c-0.01,0.044-0.02,0.098-0.02,0.156V8.806z"/>
					<path fill="#FFFFFF" d="M17.904,9.787V7.409h0.605v2.378H17.904z M18.939,6.379l-0.601,0.723h-0.415l0.425-0.723H18.939z"/>
				</g>
			</g>
		</g>
	</g>
	<g>
		<polygon fill="#FFFFFF" points="3.508,12.4 3.357,13.203 3.868,13.841 3.065,13.689 2.428,14.2 2.579,13.398 2.068,12.76 
			2.871,12.911 		"/>
		<polygon fill="#FFFFFF" points="12.344,12.917 12.808,13.588 13.622,13.672 12.949,14.138 12.865,14.95 12.401,14.278 
			11.587,14.194 12.26,13.729 		"/>
		<polygon fill="#FFFFFF" points="6.932,17.942 7.485,18.544 8.302,18.516 7.699,19.069 7.728,19.885 7.176,19.284 6.359,19.312 
			6.96,18.758 		"/>
		<polygon fill="#FFFFFF" points="13.933,16.504 13.781,17.306 14.293,17.944 13.49,17.793 12.853,18.304 13.004,17.501 
			12.492,16.863 13.296,17.015 		"/>
		<polygon fill="#FFFFFF" points="19.651,14.833 19.823,15.631 20.542,16.021 19.742,16.193 19.354,16.911 19.182,16.113 
			18.462,15.723 19.262,15.551 		"/>
		<path opacity="0.5" fill="#FFFFFF" d="M10.499,18.091c-0.023-0.074-0.046-0.149-0.072-0.221c-0.154-0.427-0.338-0.813-0.544-1.148
			c-0.089-0.145-0.181-0.284-0.278-0.408c-0.101-0.131-0.208-0.248-0.317-0.355c-0.426-0.417-0.906-0.656-1.416-0.656
			c-0.511,0-0.991,0.239-1.415,0.656c0.097,0.119,0.189,0.247,0.278,0.382c0.225,0.343,0.425,0.735,0.596,1.17
			c0.21-0.158,0.419-0.268,0.579-0.3c0.206-0.049,0.329-0.023,0.327-0.032c0.002,0.009-0.123-0.001-0.316,0.072
			c-0.158,0.053-0.355,0.189-0.542,0.38c0.228,0.606,0.394,1.292,0.494,2.03c0.066,0.498,0.106,1.018,0.106,1.558
			c0,0.506-0.037,0.992-0.097,1.46h2.986c0.063-0.469,0.104-0.954,0.104-1.46C10.972,20.068,10.797,18.999,10.499,18.091z"/>
		<path fill="#FFFFFF" d="M8.237,17.178c0.002,0.009-0.121-0.017-0.327,0.032c-0.16,0.032-0.369,0.142-0.579,0.3
			c0.016,0.04,0.033,0.078,0.048,0.12c0.187-0.19,0.384-0.327,0.542-0.38C8.114,17.177,8.239,17.187,8.237,17.178z"/>
		<path opacity="0.5" fill="#FFFFFF" d="M13.967,18.091c-0.023-0.074-0.046-0.149-0.072-0.221c-0.153-0.427-0.338-0.813-0.543-1.148
			c-0.09-0.145-0.182-0.284-0.278-0.408c-0.102-0.131-0.209-0.248-0.318-0.355c-0.425-0.417-0.906-0.656-1.416-0.656
			c-0.511,0-0.991,0.239-1.415,0.656c0.097,0.119,0.189,0.247,0.278,0.382c0.225,0.343,0.425,0.735,0.596,1.17
			c0.21-0.158,0.42-0.268,0.579-0.3c0.206-0.049,0.329-0.023,0.327-0.032c0.002,0.009-0.123-0.001-0.316,0.072
			c-0.158,0.053-0.355,0.189-0.541,0.38c0.227,0.606,0.393,1.292,0.493,2.03c0.066,0.498,0.106,1.018,0.106,1.558
			c0,0.506-0.038,0.992-0.097,1.46c0.831,0,1.915,0,2.986,0c0.063-0.469,0.104-0.954,0.104-1.46
			C14.44,20.068,14.265,18.999,13.967,18.091z"/>
		<path fill="#FFFFFF" d="M11.704,17.178c0.002,0.009-0.121-0.017-0.327,0.032c-0.159,0.032-0.369,0.142-0.579,0.3
			c0.016,0.04,0.033,0.078,0.049,0.12c0.186-0.19,0.383-0.327,0.541-0.38C11.581,17.177,11.706,17.187,11.704,17.178z"/>
		<path opacity="0.5" fill="#FFFFFF" d="M17.436,18.091c-0.023-0.074-0.046-0.149-0.072-0.221c-0.153-0.427-0.338-0.813-0.543-1.148
			c-0.09-0.145-0.182-0.284-0.278-0.408c-0.102-0.131-0.209-0.248-0.318-0.355c-0.425-0.417-0.905-0.656-1.416-0.656
			c-0.51,0-0.991,0.239-1.415,0.656c0.097,0.119,0.189,0.247,0.278,0.382c0.225,0.343,0.425,0.735,0.596,1.17
			c0.21-0.158,0.42-0.268,0.579-0.3c0.206-0.049,0.329-0.023,0.327-0.032c0.002,0.009-0.123-0.001-0.316,0.072
			c-0.158,0.053-0.354,0.189-0.541,0.38c0.227,0.606,0.393,1.292,0.493,2.03c0.066,0.498,0.106,1.018,0.106,1.558
			c0,0.506-0.038,0.992-0.097,1.46c0.791,0,1.549,0,2.155,0h0.831c0.063-0.469,0.104-0.954,0.104-1.46
			C17.908,20.068,17.734,18.999,17.436,18.091z"/>
		<path fill="#FFFFFF" d="M15.173,17.178c0.002,0.009-0.121-0.017-0.327,0.032c-0.159,0.032-0.369,0.142-0.579,0.3
			c0.016,0.04,0.033,0.078,0.049,0.12c0.187-0.19,0.383-0.327,0.541-0.38C15.05,17.177,15.175,17.187,15.173,17.178z"/>
		<path fill="#FFFFFF" d="M18.641,17.178c0.002,0.009-0.121-0.017-0.327,0.032c-0.159,0.032-0.369,0.142-0.579,0.3
			c0.016,0.04,0.033,0.078,0.049,0.12c0.187-0.19,0.383-0.327,0.541-0.38C18.518,17.177,18.643,17.187,18.641,17.178z"/>
		<path opacity="0.5" fill="#FFFFFF" d="M20.904,18.091c-0.023-0.074-0.046-0.149-0.072-0.221c-0.153-0.427-0.338-0.813-0.543-1.148
			c-0.09-0.145-0.182-0.284-0.278-0.408c-0.102-0.131-0.209-0.248-0.318-0.355c-0.425-0.417-0.905-0.656-1.416-0.656
			c-0.51,0-0.991,0.239-1.415,0.656c0.097,0.119,0.189,0.247,0.278,0.382c0.225,0.343,0.425,0.735,0.596,1.17
			c0.21-0.158,0.42-0.268,0.579-0.3c0.206-0.049,0.329-0.023,0.327-0.032c0.002,0.009-0.123-0.001-0.316,0.072
			c-0.158,0.053-0.354,0.189-0.541,0.38c0.227,0.606,0.393,1.292,0.493,2.03c0.066,0.498,0.106,1.018,0.106,1.558
			c0,0.506-0.038,0.992-0.097,1.46c0.791,0,1.549,0,2.155,0h0.831c0.063-0.469,0.104-0.954,0.104-1.46
			C21.376,20.068,21.201,18.999,20.904,18.091z"/>
		<g>
			<path fill="#FFFFFF" d="M3.073,22.075c-0.05-0.189-0.056-0.397-0.084-0.609c-0.03-0.21-0.036-0.429-0.043-0.669
				c0.001-0.221,0.007-0.448,0.027-0.679c0.077-0.917,0.368-1.833,0.814-2.371c0.218-0.271,0.472-0.432,0.665-0.497
				c0.193-0.073,0.318-0.063,0.316-0.072c0.002,0.009-0.121-0.017-0.327,0.032c-0.207,0.042-0.497,0.177-0.762,0.436
				c-0.545,0.511-0.974,1.437-1.177,2.399c-0.052,0.24-0.09,0.487-0.12,0.734c-0.023,0.229-0.047,0.472-0.044,0.708
				c0.002,0.233-0.018,0.46,0.01,0.674c0.009,0.092,0.036,0.311,0.062,0.517h0.805c-0.008-0.026-0.015-0.046-0.023-0.073
				C3.147,22.448,3.116,22.263,3.073,22.075z"/>
			<path opacity="0.5" fill="#FFFFFF" d="M7.031,18.09c-0.024-0.074-0.047-0.15-0.073-0.222c-0.154-0.427-0.337-0.813-0.544-1.148
				c-0.088-0.145-0.18-0.283-0.277-0.408c-0.102-0.131-0.208-0.247-0.318-0.354c-0.425-0.417-0.905-0.656-1.415-0.656
				c-1.713,0-3.101,2.648-3.101,5.916c0,0.259,0,0.94,0.045,1.46H2.41c-0.026-0.206-0.053-0.425-0.062-0.517
				c-0.027-0.214-0.008-0.441-0.01-0.674c-0.003-0.236,0.021-0.479,0.044-0.708c0.03-0.247,0.068-0.495,0.12-0.734
				c0.203-0.963,0.632-1.889,1.177-2.399c0.265-0.258,0.555-0.394,0.762-0.436c0.206-0.049,0.329-0.023,0.327-0.032
				c0.002,0.009-0.123-0.001-0.316,0.072c-0.193,0.065-0.447,0.226-0.665,0.497C3.341,18.285,3.05,19.2,2.973,20.117
				c-0.021,0.231-0.026,0.458-0.027,0.679c0.007,0.24,0.013,0.458,0.043,0.669c0.028,0.212,0.034,0.42,0.084,0.609
				c0.044,0.188,0.074,0.373,0.119,0.53c0.009,0.027,0.016,0.047,0.023,0.073h4.186c0.063-0.469,0.104-0.954,0.104-1.46
				C7.504,20.068,7.329,18.999,7.031,18.09z"/>
		</g>
	</g>
</g>
</svg>
