<?xml version="1.0" encoding="utf-8"?>
<!-- Generator: Adobe Illustrator 16.0.3, SVG Export Plug-In . SVG Version: 6.00 Build 0)  -->
<!DOCTYPE svg PUBLIC "-//W3C//DTD SVG 1.1//EN" "http://www.w3.org/Graphics/SVG/1.1/DTD/svg11.dtd">
<svg version="1.1" xmlns="http://www.w3.org/2000/svg" xmlns:xlink="http://www.w3.org/1999/xlink" x="0px" y="0px"
	 width="22.679px" height="22.68px" viewBox="0 0 22.679 22.68" enable-background="new 0 0 22.679 22.68" xml:space="preserve">
<g id="BCGRND">
</g>
<g id="IKONY">
	<g>
		<g>
			<polygon fill="#585857" points="22.677,16.334 22.677,0 0,0 0,22.678 14.117,22.678 22.677,22.678 			"/>
			<rect x="0" y="7.77" fill="#FFFFFF" width="22.678" height="0.889"/>
			<g>
				<g>
					<path fill="#FFFFFF" d="M3.84,2.28h0.596v1.514H4.45c0.078-0.127,0.162-0.244,0.24-0.356L5.549,2.28h0.742L5.159,3.681
						l1.205,1.89H5.661L4.729,4.062L4.436,4.414v1.157H3.84V2.28z"/>
					<path fill="#FFFFFF" d="M8.78,4.36c0,0.874-0.615,1.265-1.221,1.265c-0.674,0-1.191-0.464-1.191-1.226
						c0-0.781,0.513-1.26,1.23-1.26C8.306,3.139,8.78,3.637,8.78,4.36z M6.988,4.384c0,0.459,0.225,0.806,0.591,0.806
						c0.342,0,0.581-0.337,0.581-0.815c0-0.371-0.166-0.796-0.576-0.796C7.159,3.579,6.988,3.989,6.988,4.384z"/>
					<path fill="#FFFFFF" d="M11.44,4.36c0,0.874-0.615,1.265-1.221,1.265c-0.674,0-1.191-0.464-1.191-1.226
						c0-0.781,0.512-1.26,1.23-1.26C10.965,3.139,11.44,3.637,11.44,4.36z M9.647,4.384c0,0.459,0.225,0.806,0.592,0.806
						c0.342,0,0.58-0.337,0.58-0.815c0-0.371-0.166-0.796-0.576-0.796C9.819,3.579,9.647,3.989,9.647,4.384z"/>
					<path fill="#FFFFFF" d="M11.819,5.571c0.01-0.161,0.02-0.425,0.02-0.669V2.104h0.601V3.52h0.01
						c0.146-0.229,0.405-0.381,0.762-0.381c0.581,0,0.996,0.483,0.991,1.206c0,0.854-0.542,1.279-1.079,1.279
						c-0.308,0-0.581-0.117-0.752-0.41h-0.01l-0.029,0.356H11.819z M12.439,4.589c0,0.049,0.005,0.098,0.015,0.142
						c0.063,0.239,0.273,0.42,0.532,0.42c0.376,0,0.605-0.303,0.605-0.781c0-0.42-0.2-0.762-0.601-0.762
						c-0.244,0-0.464,0.176-0.532,0.439c-0.01,0.044-0.02,0.098-0.02,0.156V4.589z"/>
					<path fill="#FFFFFF" d="M16.862,4.36c0,0.874-0.615,1.265-1.221,1.265c-0.674,0-1.191-0.464-1.191-1.226
						c0-0.781,0.512-1.26,1.23-1.26C16.387,3.139,16.862,3.637,16.862,4.36z M15.069,4.384c0,0.459,0.225,0.806,0.592,0.806
						c0.342,0,0.58-0.337,0.58-0.815c0-0.371-0.166-0.796-0.576-0.796C15.241,3.579,15.069,3.989,15.069,4.384z"/>
					<path fill="#FFFFFF" d="M17.567,3.193l0.283,0.449c0.078,0.127,0.146,0.244,0.215,0.366h0.016
						c0.068-0.132,0.137-0.254,0.205-0.376l0.264-0.439h0.654l-0.797,1.143l0.811,1.235H18.54l-0.293-0.474
						C18.168,4.97,18.1,4.843,18.032,4.711h-0.01c-0.068,0.137-0.137,0.254-0.215,0.386l-0.273,0.474H16.87l0.824-1.211
						l-0.795-1.167H17.567z"/>
				</g>
			</g>
		</g>
		<path fill="#FFFFFF" d="M20.794,21.307H1.958V7.77h18.836V21.307z M2.847,20.418h17.059V8.658H2.847V20.418z"/>
		<polygon fill="#FFFFFF" points="19.068,19.58 3.685,19.58 3.685,8.214 4.574,8.214 4.574,18.691 18.179,18.691 18.179,8.214 
			19.068,8.214 		"/>
		<rect x="4.129" y="10.694" opacity="0.5" fill="#FFFFFF" width="14.494" height="0.5"/>
		<rect x="4.129" y="13.426" opacity="0.5" fill="#FFFFFF" width="14.494" height="0.5"/>
		<rect x="4.129" y="16.156" opacity="0.5" fill="#FFFFFF" width="14.494" height="0.5"/>
	</g>
</g>
</svg>
