<?xml version="1.0" encoding="utf-8"?>
<!-- Generator: Adobe Illustrator 16.0.3, SVG Export Plug-In . SVG Version: 6.00 Build 0)  -->
<!DOCTYPE svg PUBLIC "-//W3C//DTD SVG 1.1//EN" "http://www.w3.org/Graphics/SVG/1.1/DTD/svg11.dtd">
<svg version="1.1" xmlns="http://www.w3.org/2000/svg" xmlns:xlink="http://www.w3.org/1999/xlink" x="0px" y="0px" width="22.68px"
	 height="22.68px" viewBox="0 0 22.68 22.68" enable-background="new 0 0 22.68 22.68" xml:space="preserve">
<g id="BCGRND">
</g>
<g id="IKONY">
	<g>
		<polygon fill="#585857" points="22.677,16.335 22.677,0 0,0 0,22.678 14.117,22.678 22.677,22.678 		"/>
		<rect x="0" y="11.956" fill="#FFFFFF" width="22.678" height="0.889"/>
		<g>
			<g>
				<path fill="#FFFFFF" d="M2.351,5.286V4.92l0.376-0.347C3.474,3.88,3.826,3.499,3.831,3.079c0-0.283-0.151-0.532-0.566-0.532
					c-0.278,0-0.518,0.142-0.679,0.264L2.41,2.386C2.639,2.2,2.986,2.059,3.386,2.059c0.703,0,1.045,0.444,1.045,0.962
					c0,0.557-0.4,1.006-0.952,1.519L3.201,4.778v0.01h1.304v0.498H2.351z"/>
				<path fill="#FFFFFF" d="M5.852,1.819h0.605v3.467H5.852V1.819z"/>
				<path fill="#FFFFFF" d="M7.625,2.244c0,0.181-0.133,0.322-0.342,0.322c-0.201,0-0.332-0.142-0.332-0.322
					c0-0.186,0.137-0.327,0.336-0.327C7.493,1.917,7.62,2.059,7.625,2.244z M6.985,5.286V2.908H7.59v2.378H6.985z"/>
				<path fill="#FFFFFF" d="M8.803,2.229v0.679h0.571v0.449H8.803v1.05c0,0.288,0.078,0.439,0.308,0.439
					c0.103,0,0.181-0.015,0.234-0.029l0.01,0.459C9.267,5.311,9.111,5.335,8.92,5.335c-0.22,0-0.405-0.073-0.518-0.195
					C8.276,5.003,8.217,4.788,8.217,4.476V3.357H7.875V2.908h0.342V2.371L8.803,2.229z"/>
				<path fill="#FFFFFF" d="M10.348,2.244c0,0.181-0.132,0.322-0.342,0.322c-0.2,0-0.332-0.142-0.332-0.322
					c0-0.186,0.137-0.327,0.337-0.327C10.216,1.917,10.343,2.059,10.348,2.244z M9.708,5.286V2.908h0.605v2.378H9.708z"/>
				<path fill="#FFFFFF" d="M10.838,3.616c0-0.273-0.006-0.503-0.02-0.708h0.527l0.029,0.356h0.014
					c0.104-0.186,0.361-0.41,0.758-0.41c0.414,0,0.844,0.269,0.844,1.021v1.411h-0.6V3.943c0-0.342-0.127-0.601-0.455-0.601
					c-0.238,0-0.404,0.171-0.469,0.352c-0.02,0.054-0.023,0.127-0.023,0.195v1.396h-0.605V3.616z"/>
				<path fill="#FFFFFF" d="M15.773,4.075c0,0.874-0.615,1.265-1.221,1.265c-0.674,0-1.191-0.464-1.191-1.226
					c0-0.781,0.513-1.26,1.23-1.26C15.299,2.854,15.773,3.353,15.773,4.075z M13.981,4.1c0,0.459,0.225,0.806,0.591,0.806
					c0.342,0,0.581-0.337,0.581-0.815c0-0.371-0.166-0.796-0.576-0.796C14.152,3.294,13.981,3.704,13.981,4.1z"/>
				<path fill="#FFFFFF" d="M16.489,2.908l0.387,1.206c0.068,0.21,0.117,0.4,0.16,0.596h0.016c0.043-0.195,0.098-0.381,0.16-0.596
					l0.377-1.206h0.635l-0.908,2.378h-0.592L15.84,2.908H16.489z"/>
				<path fill="#FFFFFF" d="M18.831,4.266c0.016,0.43,0.352,0.615,0.732,0.615c0.279,0,0.479-0.039,0.66-0.107l0.088,0.415
					c-0.205,0.083-0.488,0.146-0.83,0.146c-0.771,0-1.227-0.474-1.227-1.201c0-0.659,0.4-1.279,1.162-1.279
					c0.771,0,1.025,0.635,1.025,1.157c0,0.112-0.01,0.2-0.02,0.254H18.831z M19.875,3.846c0.006-0.22-0.092-0.581-0.492-0.581
					c-0.371,0-0.527,0.337-0.553,0.581H19.875z M20.149,1.878l-0.6,0.723h-0.416l0.426-0.723H20.149z"/>
				<path fill="#FFFFFF" d="M6.744,8.175c0-0.322-0.005-0.552-0.02-0.767h0.522l0.02,0.454h0.02
					c0.117-0.337,0.396-0.508,0.649-0.508c0.059,0,0.093,0.005,0.142,0.015v0.566c-0.049-0.01-0.103-0.02-0.176-0.02
					c-0.288,0-0.483,0.186-0.537,0.454c-0.01,0.054-0.02,0.117-0.02,0.186v1.23H6.744V8.175z"/>
				<path fill="#FFFFFF" d="M10.505,8.575c0,0.874-0.615,1.265-1.221,1.265c-0.674,0-1.191-0.464-1.191-1.226
					c0-0.781,0.513-1.26,1.23-1.26C10.032,7.354,10.505,7.853,10.505,8.575z M8.713,8.6c0,0.459,0.225,0.806,0.591,0.806
					c0.342,0,0.581-0.337,0.581-0.815c0-0.371-0.166-0.796-0.576-0.796C8.884,7.794,8.713,8.204,8.713,8.6z"/>
				<path fill="#FFFFFF" d="M10.777,9.234c0.137,0.083,0.396,0.171,0.61,0.171c0.264,0,0.381-0.107,0.381-0.264
					c0-0.161-0.098-0.244-0.391-0.347c-0.464-0.161-0.659-0.415-0.654-0.693c0-0.42,0.347-0.747,0.898-0.747
					c0.264,0,0.493,0.068,0.63,0.142l-0.117,0.425c-0.103-0.059-0.293-0.137-0.503-0.137c-0.215,0-0.332,0.103-0.332,0.249
					c0,0.151,0.112,0.225,0.415,0.332c0.43,0.156,0.63,0.376,0.635,0.728c0,0.43-0.337,0.742-0.967,0.742
					c-0.288,0-0.547-0.068-0.723-0.166L10.777,9.234z M11.314,7.101l-0.479-0.723h0.415l0.264,0.444h0.01l0.269-0.444h0.41
					l-0.474,0.723H11.314z"/>
				<path fill="#FFFFFF" d="M13.338,6.729v0.679h0.57v0.449h-0.57v1.05c0,0.288,0.078,0.439,0.307,0.439
					c0.104,0,0.182-0.015,0.234-0.029l0.01,0.459c-0.088,0.034-0.244,0.059-0.434,0.059c-0.221,0-0.406-0.073-0.518-0.195
					c-0.127-0.137-0.186-0.352-0.186-0.664V7.857h-0.342V7.408h0.342V6.871L13.338,6.729z"/>
				<path fill="#FFFFFF" d="M14.581,7.408l0.43,1.274c0.049,0.146,0.098,0.327,0.131,0.464h0.016
					c0.039-0.137,0.082-0.313,0.127-0.469l0.371-1.27h0.645l-0.596,1.621c-0.328,0.889-0.547,1.284-0.83,1.528
					c-0.234,0.21-0.479,0.288-0.631,0.308l-0.137-0.508c0.104-0.024,0.23-0.078,0.352-0.166c0.113-0.073,0.244-0.215,0.328-0.376
					c0.023-0.044,0.039-0.078,0.039-0.107c0-0.024-0.006-0.059-0.035-0.117L13.92,7.408H14.581z"/>
			</g>
		</g>
		<g>
			<path fill="#FFFFFF" d="M9.338,14.634c0.071,0,0.134,0.063,0.134,0.134v5.921c0,0.071-0.063,0.134-0.134,0.134H3.417
				c-0.071,0-0.134-0.063-0.134-0.134v-5.921c0-0.071,0.063-0.134,0.134-0.134H9.338 M9.338,13.634H3.417
				c-0.624,0-1.134,0.51-1.134,1.134v5.921c0,0.624,0.51,1.134,1.134,1.134h5.921c0.623,0,1.134-0.51,1.134-1.134v-5.921
				C10.472,14.144,9.961,13.634,9.338,13.634L9.338,13.634z"/>
			<path fill="#FFFFFF" d="M4.224,17.978H1.98c-0.138,0-0.25-0.112-0.25-0.25s0.112-0.25,0.25-0.25h2.244
				c0.138,0,0.25,0.112,0.25,0.25S4.362,17.978,4.224,17.978z"/>
			<path fill="#FFFFFF" d="M10.777,17.978H8.533c-0.138,0-0.25-0.112-0.25-0.25s0.112-0.25,0.25-0.25h2.244
				c0.138,0,0.25,0.112,0.25,0.25S10.915,17.978,10.777,17.978z"/>
			<path fill="#FFFFFF" d="M6.378,15.825c-0.138,0-0.25-0.112-0.25-0.25v-2.244c0-0.138,0.112-0.25,0.25-0.25s0.25,0.112,0.25,0.25
				v2.244C6.628,15.713,6.516,15.825,6.378,15.825z"/>
			<path fill="#FFFFFF" d="M6.378,22.377c-0.138,0-0.25-0.112-0.25-0.25v-2.244c0-0.138,0.112-0.25,0.25-0.25s0.25,0.112,0.25,0.25
				v2.244C6.628,22.266,6.516,22.377,6.378,22.377z"/>
		</g>
		<g>
			<path fill="#FFFFFF" d="M19.258,14.634c0.071,0,0.134,0.063,0.134,0.134v5.921c0,0.071-0.063,0.134-0.134,0.134h-5.921
				c-0.071,0-0.134-0.063-0.134-0.134v-5.921c0-0.071,0.063-0.134,0.134-0.134H19.258 M19.258,13.634h-5.921
				c-0.624,0-1.134,0.51-1.134,1.134v5.921c0,0.624,0.51,1.134,1.134,1.134h5.921c0.623,0,1.134-0.51,1.134-1.134v-5.921
				C20.392,14.144,19.881,13.634,19.258,13.634L19.258,13.634z"/>
			<path fill="#FFFFFF" d="M14.144,17.978H11.9c-0.138,0-0.25-0.112-0.25-0.25s0.112-0.25,0.25-0.25h2.244
				c0.138,0,0.25,0.112,0.25,0.25S14.282,17.978,14.144,17.978z"/>
			<path fill="#FFFFFF" d="M20.697,17.978h-2.244c-0.138,0-0.25-0.112-0.25-0.25s0.112-0.25,0.25-0.25h2.244
				c0.138,0,0.25,0.112,0.25,0.25S20.834,17.978,20.697,17.978z"/>
			<path fill="#FFFFFF" d="M16.298,15.825c-0.138,0-0.25-0.112-0.25-0.25v-2.244c0-0.138,0.112-0.25,0.25-0.25s0.25,0.112,0.25,0.25
				v2.244C16.548,15.713,16.436,15.825,16.298,15.825z"/>
			<path fill="#FFFFFF" d="M16.298,22.377c-0.138,0-0.25-0.112-0.25-0.25v-2.244c0-0.138,0.112-0.25,0.25-0.25s0.25,0.112,0.25,0.25
				v2.244C16.548,22.266,16.436,22.377,16.298,22.377z"/>
		</g>
		<g>
			<path opacity="0.3" fill="#FFFFFF" d="M16.299,15.975c-0.969,0-1.756,0.787-1.756,1.754c0,0.967,0.787,1.753,1.756,1.753
				c0.965,0,1.752-0.787,1.752-1.753C18.051,16.762,17.264,15.975,16.299,15.975z"/>
			<path opacity="0.3" fill="#FFFFFF" d="M16.299,14.928c-1.547,0-2.801,1.253-2.801,2.801c0,1.546,1.254,2.8,2.801,2.8
				s2.799-1.254,2.799-2.8C19.098,16.182,17.846,14.928,16.299,14.928z M16.299,19.982c-1.244,0-2.256-1.011-2.256-2.253
				c0-1.243,1.012-2.254,2.256-2.254c1.242,0,2.252,1.011,2.252,2.254C18.551,18.972,17.542,19.982,16.299,19.982z"/>
		</g>
		<g>
			<path opacity="0.3" fill="#FFFFFF" d="M6.377,16.565c-0.641,0-1.162,0.521-1.162,1.164c0,0.639,0.521,1.159,1.162,1.159
				s1.16-0.521,1.16-1.159C7.538,17.086,7.018,16.565,6.377,16.565z"/>
			<path opacity="0.3" fill="#FFFFFF" d="M6.377,15.545c-1.205,0-2.182,0.978-2.182,2.184c0,1.205,0.977,2.183,2.182,2.183
				c1.207,0,2.184-0.978,2.184-2.183C8.561,16.523,7.584,15.545,6.377,15.545z M6.377,19.388c-0.916,0-1.662-0.744-1.662-1.659
				c0-0.918,0.746-1.664,1.662-1.664s1.66,0.746,1.66,1.664C8.038,18.644,7.293,19.388,6.377,19.388z"/>
		</g>
	</g>
</g>
</svg>
