<?xml version="1.0" encoding="utf-8"?>
<!-- Generator: Adobe Illustrator 16.0.3, SVG Export Plug-In . SVG Version: 6.00 Build 0)  -->
<!DOCTYPE svg PUBLIC "-//W3C//DTD SVG 1.1//EN" "http://www.w3.org/Graphics/SVG/1.1/DTD/svg11.dtd">
<svg version="1.1" xmlns="http://www.w3.org/2000/svg" xmlns:xlink="http://www.w3.org/1999/xlink" x="0px" y="0px" width="22.68px"
	 height="22.68px" viewBox="0 0 22.68 22.68" enable-background="new 0 0 22.68 22.68" xml:space="preserve">
<g id="BCGRND">
</g>
<g id="IKONY">
	<rect fill="#585857" width="22.68" height="22.68"/>
	<g>
		<g>
			<g>
				<rect y="11.956" fill="#FFFFFF" width="22.678" height="0.889"/>
			</g>
		</g>
		<g>
			<g>
				<g>
					<path fill="#FFFFFF" d="M9.339,14.634c0.071,0,0.134,0.063,0.134,0.134v5.921c0,0.071-0.063,0.134-0.134,0.134H3.418
						c-0.071,0-0.134-0.063-0.134-0.134v-5.921c0-0.071,0.063-0.134,0.134-0.134H9.339 M9.339,13.634H3.418
						c-0.623,0-1.134,0.51-1.134,1.134v5.921c0,0.624,0.511,1.134,1.134,1.134h5.921c0.624,0,1.134-0.51,1.134-1.134v-5.921
						C10.473,14.144,9.963,13.634,9.339,13.634L9.339,13.634z"/>
				</g>
				<g>
					<path fill="#FFFFFF" d="M4.225,17.978H1.98c-0.138,0-0.25-0.112-0.25-0.25s0.112-0.25,0.25-0.25h2.244
						c0.138,0,0.25,0.112,0.25,0.25S4.362,17.978,4.225,17.978z"/>
				</g>
				<g>
					<path fill="#FFFFFF" d="M10.777,17.978H8.533c-0.138,0-0.25-0.112-0.25-0.25s0.112-0.25,0.25-0.25h2.244
						c0.138,0,0.25,0.112,0.25,0.25S10.915,17.978,10.777,17.978z"/>
				</g>
				<g>
					<path fill="#FFFFFF" d="M6.379,15.825c-0.138,0-0.25-0.112-0.25-0.25v-2.244c0-0.138,0.112-0.25,0.25-0.25
						s0.25,0.112,0.25,0.25v2.244C6.629,15.713,6.517,15.825,6.379,15.825z"/>
				</g>
				<g>
					<path fill="#FFFFFF" d="M6.379,22.377c-0.138,0-0.25-0.112-0.25-0.25v-2.244c0-0.138,0.112-0.25,0.25-0.25
						s0.25,0.112,0.25,0.25v2.244C6.629,22.266,6.517,22.377,6.379,22.377z"/>
				</g>
			</g>
			<g>
				<g>
					<path fill="#FFFFFF" d="M19.259,14.634c0.071,0,0.134,0.063,0.134,0.134v5.921c0,0.071-0.063,0.134-0.134,0.134h-5.921
						c-0.071,0-0.134-0.063-0.134-0.134v-5.921c0-0.071,0.063-0.134,0.134-0.134H19.259 M19.259,13.634h-5.921
						c-0.623,0-1.134,0.51-1.134,1.134v5.921c0,0.624,0.511,1.134,1.134,1.134h5.921c0.624,0,1.134-0.51,1.134-1.134v-5.921
						C20.393,14.144,19.883,13.634,19.259,13.634L19.259,13.634z"/>
				</g>
				<g>
					<path fill="#FFFFFF" d="M14.145,17.978H11.9c-0.138,0-0.25-0.112-0.25-0.25s0.112-0.25,0.25-0.25h2.244
						c0.138,0,0.25,0.112,0.25,0.25S14.282,17.978,14.145,17.978z"/>
				</g>
				<g>
					<path fill="#FFFFFF" d="M20.697,17.978h-2.244c-0.138,0-0.25-0.112-0.25-0.25s0.112-0.25,0.25-0.25h2.244
						c0.138,0,0.25,0.112,0.25,0.25S20.835,17.978,20.697,17.978z"/>
				</g>
				<g>
					<path fill="#FFFFFF" d="M16.299,15.825c-0.138,0-0.25-0.112-0.25-0.25v-2.244c0-0.138,0.112-0.25,0.25-0.25
						s0.25,0.112,0.25,0.25v2.244C16.549,15.713,16.437,15.825,16.299,15.825z"/>
				</g>
				<g>
					<path fill="#FFFFFF" d="M16.299,22.377c-0.138,0-0.25-0.112-0.25-0.25v-2.244c0-0.138,0.112-0.25,0.25-0.25
						s0.25,0.112,0.25,0.25v2.244C16.549,22.266,16.437,22.377,16.299,22.377z"/>
				</g>
			</g>
			<g>
				<g opacity="0.3">
					<path fill="#FFFFFF" d="M16.3,15.975c-0.969,0-1.756,0.787-1.756,1.754c0,0.967,0.787,1.753,1.756,1.753
						c0.965,0,1.752-0.787,1.752-1.753C18.052,16.762,17.265,15.975,16.3,15.975z"/>
				</g>
				<g opacity="0.3">
					<path fill="#FFFFFF" d="M16.3,14.928c-1.547,0-2.801,1.253-2.801,2.801c0,1.546,1.254,2.8,2.801,2.8s2.799-1.254,2.799-2.8
						C19.099,16.182,17.847,14.928,16.3,14.928z M16.3,19.982c-1.244,0-2.256-1.011-2.256-2.253c0-1.243,1.012-2.254,2.256-2.254
						c1.242,0,2.252,1.011,2.252,2.254C18.552,18.972,17.542,19.982,16.3,19.982z"/>
				</g>
			</g>
			<g>
				<g opacity="0.3">
					<path fill="#FFFFFF" d="M6.378,16.565c-0.641,0-1.162,0.521-1.162,1.164c0,0.639,0.521,1.159,1.162,1.159
						s1.16-0.521,1.16-1.159C7.538,17.086,7.019,16.565,6.378,16.565z"/>
				</g>
				<g opacity="0.3">
					<path fill="#FFFFFF" d="M6.378,15.545c-1.205,0-2.182,0.978-2.182,2.184c0,1.205,0.977,2.183,2.182,2.183
						c1.207,0,2.184-0.978,2.184-2.183C8.562,16.523,7.585,15.545,6.378,15.545z M6.378,19.388c-0.916,0-1.662-0.744-1.662-1.659
						c0-0.918,0.746-1.664,1.662-1.664s1.66,0.746,1.66,1.664C8.038,18.644,7.294,19.388,6.378,19.388z"/>
				</g>
			</g>
		</g>
	</g>
	<g>
		<g>
			<path fill="#FFFFFF" d="M3.178,1.995h0.601v2.788h1.353v0.503H3.178V1.995z"/>
			<path fill="#FFFFFF" d="M6.203,2.244c0,0.181-0.132,0.322-0.342,0.322c-0.2,0-0.332-0.142-0.332-0.322
				c0-0.186,0.137-0.327,0.337-0.327C6.071,1.917,6.198,2.059,6.203,2.244z M5.563,5.286V2.908h0.605v2.378H5.563z"/>
			<path fill="#FFFFFF" d="M7.504,2.229v0.679h0.57v0.449h-0.57v1.05c0,0.288,0.078,0.439,0.307,0.439
				c0.104,0,0.182-0.015,0.234-0.029l0.01,0.459C7.967,5.311,7.811,5.335,7.621,5.335c-0.221,0-0.406-0.073-0.518-0.195
				C6.977,5.003,6.918,4.788,6.918,4.476V3.357H6.576V2.908h0.342V2.371L7.504,2.229z"/>
			<path fill="#FFFFFF" d="M9.171,2.244c0,0.181-0.132,0.322-0.342,0.322c-0.2,0-0.332-0.142-0.332-0.322
				c0-0.186,0.137-0.327,0.337-0.327C9.039,1.917,9.166,2.059,9.171,2.244z M8.531,5.286V2.908h0.605v2.378H8.531z"/>
			<path fill="#FFFFFF" d="M9.783,3.616c0-0.273-0.006-0.503-0.02-0.708h0.527l0.029,0.356h0.014c0.104-0.186,0.361-0.41,0.758-0.41
				c0.414,0,0.844,0.269,0.844,1.021v1.411h-0.6V3.943c0-0.342-0.127-0.601-0.455-0.601c-0.238,0-0.404,0.171-0.469,0.352
				c-0.02,0.054-0.023,0.127-0.023,0.195v1.396H9.783V3.616z"/>
			<path fill="#FFFFFF" d="M14.84,4.075c0,0.874-0.615,1.265-1.221,1.265c-0.674,0-1.191-0.464-1.191-1.226
				c0-0.781,0.513-1.26,1.23-1.26C14.366,2.854,14.84,3.353,14.84,4.075z M13.048,4.1c0,0.459,0.225,0.806,0.591,0.806
				c0.342,0,0.581-0.337,0.581-0.815c0-0.371-0.166-0.796-0.576-0.796C13.219,3.294,13.048,3.704,13.048,4.1z"/>
			<path fill="#FFFFFF" d="M15.678,2.908l0.387,1.206c0.068,0.21,0.117,0.4,0.16,0.596h0.016c0.043-0.195,0.098-0.381,0.16-0.596
				l0.377-1.206h0.635l-0.908,2.378h-0.592l-0.883-2.378H15.678z"/>
			<path fill="#FFFFFF" d="M18.143,4.266c0.015,0.43,0.352,0.615,0.732,0.615c0.278,0,0.479-0.039,0.659-0.107l0.088,0.415
				c-0.205,0.083-0.488,0.146-0.83,0.146c-0.771,0-1.226-0.474-1.226-1.201c0-0.659,0.4-1.279,1.162-1.279
				c0.771,0,1.025,0.635,1.025,1.157c0,0.112-0.01,0.2-0.02,0.254H18.143z M19.188,3.846c0.005-0.22-0.093-0.581-0.493-0.581
				c-0.371,0-0.527,0.337-0.552,0.581H19.188z M19.461,1.878L18.86,2.601h-0.415l0.425-0.723H19.461z"/>
			<path fill="#FFFFFF" d="M2.631,8.199c0-0.313-0.01-0.566-0.02-0.791h0.527l0.029,0.366h0.01c0.176-0.269,0.453-0.42,0.814-0.42
				c0.547,0,1.002,0.469,1.002,1.211c0,0.859-0.543,1.274-1.084,1.274c-0.299,0-0.547-0.127-0.67-0.317H3.23v1.23h-0.6V8.199z
				 M3.23,8.79c0,0.059,0.006,0.112,0.02,0.166c0.059,0.244,0.273,0.42,0.527,0.42c0.381,0,0.605-0.317,0.605-0.786
				c0-0.42-0.205-0.762-0.59-0.762c-0.25,0-0.479,0.181-0.537,0.444C3.24,8.321,3.23,8.375,3.23,8.424V8.79z"/>
			<path fill="#FFFFFF" d="M7.751,8.575c0,0.874-0.615,1.265-1.221,1.265c-0.674,0-1.191-0.464-1.191-1.226
				c0-0.781,0.513-1.26,1.23-1.26C7.277,7.354,7.751,7.853,7.751,8.575z M5.959,8.6c0,0.459,0.225,0.806,0.591,0.806
				c0.342,0,0.581-0.337,0.581-0.815c0-0.371-0.166-0.796-0.576-0.796C6.13,7.794,5.959,8.204,5.959,8.6z"/>
			<path fill="#FFFFFF" d="M10.439,6.319v2.798c0,0.244,0.01,0.508,0.02,0.669H9.922L9.898,9.41h-0.01
				c-0.143,0.264-0.43,0.43-0.777,0.43c-0.566,0-1.016-0.483-1.016-1.216C8.092,7.828,8.59,7.354,9.16,7.354
				c0.328,0,0.563,0.137,0.67,0.313h0.01V6.319H10.439z M9.84,8.399c0-0.049-0.006-0.107-0.016-0.156
				C9.771,8.009,9.58,7.818,9.307,7.818c-0.385,0-0.6,0.342-0.6,0.786c0,0.435,0.215,0.752,0.596,0.752
				c0.244,0,0.459-0.166,0.518-0.425c0.014-0.054,0.02-0.112,0.02-0.176V8.399z"/>
			<path fill="#FFFFFF" d="M11.088,8.199c0-0.313-0.01-0.566-0.02-0.791h0.527l0.029,0.366h0.01c0.176-0.269,0.455-0.42,0.816-0.42
				c0.547,0,1,0.469,1,1.211c0,0.859-0.541,1.274-1.084,1.274c-0.297,0-0.547-0.127-0.668-0.317h-0.01v1.23h-0.602V8.199z
				 M11.689,8.79c0,0.059,0.004,0.112,0.02,0.166c0.059,0.244,0.273,0.42,0.527,0.42c0.381,0,0.605-0.317,0.605-0.786
				c0-0.42-0.205-0.762-0.592-0.762c-0.248,0-0.479,0.181-0.537,0.444c-0.014,0.049-0.023,0.103-0.023,0.151V8.79z"/>
			<path fill="#FFFFFF" d="M14.373,8.766c0.015,0.43,0.352,0.615,0.732,0.615c0.278,0,0.479-0.039,0.659-0.107l0.088,0.415
				c-0.205,0.083-0.488,0.146-0.83,0.146c-0.771,0-1.226-0.474-1.226-1.201c0-0.659,0.4-1.279,1.162-1.279
				c0.771,0,1.025,0.635,1.025,1.157c0,0.112-0.01,0.2-0.02,0.254H14.373z M14.695,7.101l-0.479-0.723h0.415l0.264,0.444h0.01
				l0.264-0.444h0.415L15.11,7.101H14.695z M15.418,8.346c0.005-0.22-0.093-0.581-0.493-0.581c-0.371,0-0.527,0.337-0.552,0.581
				H15.418z"/>
			<path fill="#FFFFFF" d="M16.471,8.175c0-0.322-0.005-0.552-0.02-0.767h0.522l0.02,0.454h0.02
				c0.117-0.337,0.396-0.508,0.649-0.508c0.059,0,0.093,0.005,0.142,0.015v0.566c-0.049-0.01-0.103-0.02-0.176-0.02
				c-0.288,0-0.483,0.186-0.537,0.454c-0.01,0.054-0.02,0.117-0.02,0.186v1.23h-0.601V8.175z"/>
			<path fill="#FFFFFF" d="M18.695,7.408l0.43,1.274c0.049,0.146,0.098,0.327,0.131,0.464h0.016
				c0.039-0.137,0.082-0.313,0.127-0.469l0.371-1.27h0.645l-0.596,1.621c-0.328,0.889-0.547,1.284-0.83,1.528
				c-0.234,0.21-0.479,0.288-0.631,0.308l-0.137-0.508c0.104-0.024,0.23-0.078,0.352-0.166c0.113-0.073,0.244-0.215,0.328-0.376
				c0.023-0.044,0.039-0.078,0.039-0.107c0-0.024-0.006-0.059-0.035-0.117l-0.869-2.183H18.695z"/>
		</g>
	</g>
</g>
</svg>
