<?xml version="1.0" encoding="utf-8"?>
<!-- Generator: Adobe Illustrator 16.0.3, SVG Export Plug-In . SVG Version: 6.00 Build 0)  -->
<!DOCTYPE svg PUBLIC "-//W3C//DTD SVG 1.1//EN" "http://www.w3.org/Graphics/SVG/1.1/DTD/svg11.dtd">
<svg version="1.1" xmlns="http://www.w3.org/2000/svg" xmlns:xlink="http://www.w3.org/1999/xlink" x="0px" y="0px" width="22.68px"
	 height="22.68px" viewBox="0 0 22.68 22.68" enable-background="new 0 0 22.68 22.68" xml:space="preserve">
<g id="BCGRND">
</g>
<g id="IKONY">
	<rect x="0.001" fill="#585857" width="22.677" height="22.68"/>
	<g>
		<g>
			<rect y="7.771" fill="#FFFFFF" width="22.678" height="0.889"/>
			<g>
				<g>
					<path fill="#FFFFFF" d="M7.846,4.229c-0.02-0.425-0.044-0.938-0.039-1.382H7.792c-0.107,0.4-0.244,0.845-0.391,1.26
						L6.923,5.533H6.459L6.02,4.127c-0.127-0.42-0.244-0.869-0.332-1.279h-0.01C5.663,3.277,5.644,3.8,5.619,4.249L5.546,5.572
						H4.984l0.22-3.291h0.791l0.43,1.323c0.117,0.386,0.22,0.776,0.303,1.143h0.015C6.83,4.391,6.942,3.985,7.069,3.6l0.454-1.318
						h0.781l0.19,3.291H7.909L7.846,4.229z"/>
					<path fill="#FFFFFF" d="M11.273,4.361c0,0.874-0.615,1.265-1.221,1.265c-0.674,0-1.191-0.464-1.191-1.226
						c0-0.781,0.513-1.26,1.23-1.26C10.8,3.141,11.273,3.639,11.273,4.361z M9.481,4.386c0,0.459,0.225,0.806,0.591,0.806
						c0.342,0,0.581-0.337,0.581-0.815c0-0.371-0.166-0.796-0.576-0.796C9.652,3.58,9.481,3.99,9.481,4.386z"/>
					<path fill="#FFFFFF" d="M13.865,2.105v2.798c0,0.244,0.01,0.508,0.02,0.669h-0.537l-0.025-0.376h-0.01
						c-0.141,0.264-0.43,0.43-0.775,0.43c-0.566,0-1.016-0.483-1.016-1.216c-0.006-0.796,0.492-1.27,1.064-1.27
						c0.326,0,0.561,0.137,0.668,0.313h0.01V2.105H13.865z M13.264,4.186c0-0.049-0.004-0.107-0.014-0.156
						c-0.055-0.234-0.244-0.425-0.518-0.425c-0.387,0-0.602,0.342-0.602,0.786c0,0.435,0.215,0.752,0.596,0.752
						c0.244,0,0.459-0.166,0.518-0.425c0.016-0.054,0.02-0.112,0.02-0.176V4.186z"/>
					<path fill="#FFFFFF" d="M16.544,4.859c0,0.283,0.01,0.518,0.02,0.713h-0.527l-0.029-0.361h-0.01
						c-0.103,0.171-0.337,0.415-0.762,0.415c-0.435,0-0.83-0.259-0.83-1.035V3.194h0.601v1.294c0,0.396,0.127,0.649,0.444,0.649
						c0.239,0,0.396-0.171,0.459-0.322c0.02-0.054,0.034-0.117,0.034-0.186V3.194h0.601V4.859z"/>
					<path fill="#FFFFFF" d="M17.1,2.105h0.605v3.467H17.1V2.105z"/>
				</g>
			</g>
		</g>
		<g>
			<defs>
				<polygon id="SVGID_1_" points="22.678,16.337 22.678,8.216 0,8.216 0,22.68 14.117,22.68 22.678,22.68 				"/>
			</defs>
			<clipPath id="SVGID_2_">
				<use xlink:href="#SVGID_1_"  overflow="visible"/>
			</clipPath>
			<g clip-path="url(#SVGID_2_)">
				<g>
					<path fill="#FFFFFF" fill-opacity="0.5" d="M11.52,11.755c-0.801-0.8-2.097-0.8-2.896-0.001l-1.669-1.668l-6.323,6.322
						l6.323,6.323l1.669-1.671c-0.799-0.799-0.798-2.096,0-2.895c0.8-0.799,2.097-0.801,2.896-0.001l1.756-1.757l-1.757-1.76
						C12.318,13.85,12.318,12.554,11.52,11.755z"/>
				</g>
				<g>
					<path fill="#FFFFFF" d="M19.363,13.217c0.799-0.799,0.799-2.095,0-2.894l1.669-1.67L14.71,2.33L8.387,8.653l1.67,1.671
						c0.8-0.801,2.096-0.801,2.896-0.001c0.8,0.799,0.8,2.095-0.001,2.896l1.758,1.758l1.759-1.758
						C17.268,14.018,18.564,14.017,19.363,13.217z"/>
				</g>
				<g>
					<path fill="#FFFFFF" d="M8.624,18.166c-0.798,0.799-0.799,2.096,0,2.895l-1.669,1.67l6.322,6.324l6.323-6.324l-1.669-1.671
						c-0.801,0.8-2.097,0.8-2.896,0.001c-0.799-0.799-0.798-2.096,0.002-2.896l-1.76-1.758l-1.757,1.758
						C10.721,17.365,9.424,17.367,8.624,18.166z"/>
				</g>
			</g>
		</g>
	</g>
</g>
</svg>
