<?xml version="1.0" encoding="utf-8"?>
<!-- Generator: Adobe Illustrator 16.0.3, SVG Export Plug-In . SVG Version: 6.00 Build 0)  -->
<!DOCTYPE svg PUBLIC "-//W3C//DTD SVG 1.1//EN" "http://www.w3.org/Graphics/SVG/1.1/DTD/svg11.dtd">
<svg version="1.1" xmlns="http://www.w3.org/2000/svg" xmlns:xlink="http://www.w3.org/1999/xlink" x="0px" y="0px" width="22.68px"
	 height="22.68px" viewBox="0 0 22.68 22.68" enable-background="new 0 0 22.68 22.68" xml:space="preserve">
<g id="BCGRND">
</g>
<g id="IKONY">
	<polygon fill="#585857" points="22.676,16.335 22.676,0 -0.002,0 -0.002,22.678 14.115,22.678 22.676,22.678 	"/>
	<g>
		<g>
			<path fill="#FFFFFF" d="M6.308,1.995v1.318h1.392V1.995H8.3v3.291H7.699v-1.45H6.308v1.45H5.707V1.995H6.308z"/>
			<path fill="#FFFFFF" d="M11.277,4.075c0,0.874-0.615,1.265-1.221,1.265c-0.674,0-1.191-0.464-1.191-1.226
				c0-0.781,0.514-1.26,1.23-1.26C10.805,2.854,11.277,3.353,11.277,4.075z M9.486,4.1c0,0.459,0.225,0.806,0.59,0.806
				c0.342,0,0.582-0.337,0.582-0.815c0-0.371-0.166-0.796-0.576-0.796C9.656,3.294,9.486,3.704,9.486,4.1z"/>
			<path fill="#FFFFFF" d="M11.823,3.675c0-0.322-0.005-0.552-0.02-0.767h0.522l0.02,0.454h0.02
				c0.117-0.337,0.396-0.508,0.649-0.508c0.059,0,0.093,0.005,0.142,0.015v0.566c-0.049-0.01-0.103-0.02-0.176-0.02
				c-0.288,0-0.483,0.186-0.537,0.454c-0.01,0.054-0.02,0.117-0.02,0.186v1.23h-0.601V3.675z"/>
			<path fill="#FFFFFF" d="M13.612,3.616c0-0.273-0.005-0.503-0.02-0.708h0.527l0.029,0.356h0.015
				c0.103-0.186,0.361-0.41,0.757-0.41c0.415,0,0.845,0.269,0.845,1.021v1.411h-0.601V3.943c0-0.342-0.127-0.601-0.454-0.601
				c-0.239,0-0.405,0.171-0.469,0.352c-0.02,0.054-0.024,0.127-0.024,0.195v1.396h-0.605V3.616z"/>
			<path fill="#FFFFFF" d="M16.458,5.286V2.908h0.605v2.378H16.458z M17.493,1.878l-0.601,0.723h-0.415l0.425-0.723H17.493z"/>
			<path fill="#FFFFFF" d="M3.536,8.116c0-0.273-0.005-0.503-0.02-0.708h0.518L4.059,7.76h0.015C4.19,7.574,4.405,7.354,4.806,7.354
				c0.313,0,0.557,0.176,0.659,0.439h0.01c0.083-0.132,0.181-0.229,0.293-0.298c0.132-0.093,0.283-0.142,0.479-0.142
				c0.396,0,0.796,0.269,0.796,1.03v1.401H6.456V8.473c0-0.396-0.137-0.63-0.425-0.63c-0.205,0-0.356,0.146-0.42,0.317
				c-0.015,0.059-0.029,0.132-0.029,0.2v1.426H4.996V8.409c0-0.332-0.132-0.566-0.41-0.566c-0.225,0-0.376,0.176-0.43,0.342
				C4.132,8.243,4.122,8.312,4.122,8.38v1.406H3.536V8.116z"/>
			<path fill="#FFFFFF" d="M9.992,8.575c0,0.874-0.615,1.265-1.221,1.265c-0.674,0-1.191-0.464-1.191-1.226
				c0-0.781,0.512-1.26,1.23-1.26C9.518,7.354,9.992,7.853,9.992,8.575z M8.199,8.6c0,0.459,0.225,0.806,0.592,0.806
				c0.342,0,0.58-0.337,0.58-0.815c0-0.371-0.166-0.796-0.576-0.796C8.371,7.794,8.199,8.204,8.199,8.6z"/>
			<path fill="#FFFFFF" d="M10.537,8.116c0-0.273-0.005-0.503-0.02-0.708h0.527l0.029,0.356h0.015
				c0.103-0.186,0.361-0.41,0.757-0.41c0.415,0,0.845,0.269,0.845,1.021v1.411H12.09V8.443c0-0.342-0.127-0.601-0.454-0.601
				c-0.239,0-0.405,0.171-0.469,0.352c-0.02,0.054-0.024,0.127-0.024,0.195v1.396h-0.605V8.116z"/>
			<path fill="#FFFFFF" d="M14.047,6.729v0.679h0.57v0.449h-0.57v1.05c0,0.288,0.078,0.439,0.307,0.439
				c0.104,0,0.182-0.015,0.234-0.029l0.01,0.459c-0.088,0.034-0.244,0.059-0.434,0.059c-0.221,0-0.406-0.073-0.518-0.195
				c-0.127-0.137-0.186-0.352-0.186-0.664V7.857h-0.342V7.408h0.342V6.871L14.047,6.729z"/>
			<path fill="#FFFFFF" d="M16.461,9.786l-0.039-0.264h-0.015c-0.146,0.186-0.396,0.317-0.703,0.317
				c-0.479,0-0.747-0.347-0.747-0.708c0-0.601,0.532-0.903,1.411-0.898V8.194c0-0.156-0.063-0.415-0.483-0.415
				c-0.234,0-0.479,0.073-0.64,0.176l-0.117-0.391c0.176-0.107,0.483-0.21,0.859-0.21c0.762,0,0.981,0.483,0.981,1.001v0.859
				c0,0.215,0.01,0.425,0.034,0.571H16.461z M16.383,8.624c-0.425-0.01-0.83,0.083-0.83,0.444c0,0.234,0.151,0.342,0.342,0.342
				c0.239,0,0.415-0.156,0.469-0.327c0.015-0.044,0.02-0.093,0.02-0.132V8.624z M16.754,6.378l-0.601,0.723h-0.415l0.425-0.723
				H16.754z"/>
			<path fill="#FFFFFF" d="M17.431,9.439l0.894-1.143c0.122-0.146,0.225-0.264,0.352-0.4v-0.01h-1.157V7.408h1.89v0.366
				l-0.874,1.118c-0.117,0.142-0.229,0.278-0.352,0.405v0.01h1.255v0.479h-2.007V9.439z M18.271,7.101l-0.479-0.723h0.415
				l0.264,0.444h0.01l0.269-0.444h0.41l-0.474,0.723H18.271z"/>
		</g>
	</g>
	<rect x="0.009" y="13.696" fill="#FFFFFF" fill-opacity="0.5" width="5.467" height="3.846"/>
	<path fill="#FFFFFF" d="M-0.002,13.696v0.455h0.088l-0.088,0.088v0.32l0.408-0.408h0.678l-1.086,1.086v0.32l1.406-1.406H2.08
		l-2.082,2.083v0.32L2.4,14.151h0.678l-2.935,2.936h-0.146v0.466l0.011-0.011h5.467v-3.846H-0.002z M5.021,14.205l-2.883,2.882
		H1.462l2.935-2.936h0.624V14.205z M5.021,15.203l-1.885,1.884H2.458l2.563-2.562V15.203z M5.021,16.2l-0.887,0.887H3.456
		l1.564-1.563V16.2z M5.021,17.087H4.454l0.566-0.566V17.087z M3.398,14.151h0.678l-2.935,2.936H0.464L3.398,14.151z"/>
	<rect x="17.198" y="13.696" fill="#FFFFFF" fill-opacity="0.5" width="5.467" height="3.846"/>
	<path fill="#FFFFFF" d="M22.676,17.542v-0.455h-0.088l0.088-0.088v-0.32l-0.408,0.408H21.59l1.086-1.086v-0.32l-1.406,1.406h-0.676
		l2.082-2.083v-0.32l-2.402,2.403h-0.678l2.935-2.936h0.146v-0.466l-0.011,0.011h-5.467v3.846H22.676z M17.653,17.033l2.883-2.882
		h0.676l-2.935,2.936h-0.624V17.033z M17.653,16.035l1.885-1.884h0.678l-2.563,2.562V16.035z M17.653,15.038l0.887-0.887h0.678
		l-1.564,1.563V15.038z M17.653,14.151h0.566l-0.566,0.566V14.151z M19.275,17.087h-0.678l2.935-2.936h0.678L19.275,17.087z"/>
	<path fill="#FFFFFF" d="M12.632,22.678v-1.215h0.513c0.126,0,0.228-0.102,0.228-0.228v-0.544h3.364
		c0.506,0,0.917-0.412,0.917-0.918v-5.622h2.922v-2.209H2.097v2.209h2.924v5.622c0,0.506,0.41,0.918,0.915,0.918h3.366v0.544
		c0,0.126,0.102,0.228,0.228,0.228h0.513l-0.001,1.216l0.456-0.001v-1.215h1.68v1.216L12.632,22.678z M12.917,21.008h-3.16v-0.316
		h3.16V21.008z M16.736,20.236H5.936c-0.254,0-0.46-0.208-0.46-0.463v-5.622h11.723v5.622
		C17.198,20.028,16.991,20.236,16.736,20.236z M20.12,13.696H2.552v-1.299H20.12V13.696z"/>
</g>
</svg>
