<?xml version="1.0" encoding="utf-8"?>
<!-- Generator: Adobe Illustrator 16.0.3, SVG Export Plug-In . SVG Version: 6.00 Build 0)  -->
<!DOCTYPE svg PUBLIC "-//W3C//DTD SVG 1.1//EN" "http://www.w3.org/Graphics/SVG/1.1/DTD/svg11.dtd">
<svg version="1.1" xmlns="http://www.w3.org/2000/svg" xmlns:xlink="http://www.w3.org/1999/xlink" x="0px" y="0px" width="22.68px"
	 height="22.68px" viewBox="0 0 22.68 22.68" enable-background="new 0 0 22.68 22.68" xml:space="preserve">
<g id="BCGRND">
</g>
<g id="IKONY">
	<rect fill="#585857" width="22.676" height="22.678"/>
	<g>
		<g>
			<g>
				<path fill="#FFFFFF" d="M6.381,3.943C6.361,3.52,6.337,3.006,6.342,2.563H6.327c-0.107,0.4-0.244,0.844-0.391,1.26L5.453,5.248
					H4.994L4.555,3.842c-0.127-0.42-0.244-0.869-0.332-1.279h-0.01c-0.015,0.43-0.034,0.951-0.059,1.4L4.081,5.287H3.52l0.22-3.291
					H4.53l0.43,1.322c0.117,0.387,0.22,0.777,0.303,1.143h0.015c0.088-0.355,0.2-0.762,0.327-1.146l0.454-1.318H6.84l0.19,3.291
					H6.444L6.381,3.943z"/>
				<path fill="#FFFFFF" d="M9.955,4.076c0,0.873-0.615,1.264-1.221,1.264c-0.668,0-1.191-0.459-1.191-1.225
					c0-0.781,0.514-1.26,1.23-1.26C9.482,2.855,9.955,3.354,9.955,4.076z M8.164,4.1c0,0.459,0.229,0.807,0.59,0.807
					c0.342,0,0.582-0.332,0.582-0.816c0-0.371-0.166-0.801-0.576-0.801C8.334,3.289,8.164,3.705,8.164,4.1z"/>
				<path fill="#FFFFFF" d="M10.501,3.617c0-0.273-0.01-0.504-0.02-0.709h0.522l0.029,0.357h0.015
					c0.107-0.186,0.366-0.41,0.762-0.41c0.415,0,0.845,0.268,0.845,1.02v1.412h-0.601V3.943c0-0.342-0.127-0.6-0.454-0.6
					c-0.239,0-0.405,0.17-0.469,0.352c-0.02,0.049-0.029,0.121-0.029,0.189v1.402h-0.601V3.617z"/>
				<path fill="#FFFFFF" d="M14.01,2.299v0.609h0.572v0.449H14.01v1.051c0,0.293,0.078,0.439,0.309,0.439
					c0.107,0,0.166-0.006,0.234-0.025l0.01,0.455c-0.088,0.033-0.25,0.063-0.436,0.063c-0.225,0-0.404-0.072-0.518-0.195
					c-0.131-0.137-0.189-0.355-0.189-0.668V3.357h-0.338V2.908h0.338V2.465L14.01,2.299z"/>
				<path fill="#FFFFFF" d="M16.933,4.715c0,0.215,0.01,0.426,0.039,0.572H16.43l-0.044-0.264h-0.015
					C16.229,5.209,15.98,5.34,15.668,5.34c-0.479,0-0.747-0.346-0.747-0.707c0-0.596,0.532-0.904,1.411-0.898V3.695
					c0-0.156-0.063-0.416-0.483-0.416c-0.234,0-0.479,0.074-0.64,0.176l-0.117-0.391c0.176-0.107,0.483-0.209,0.859-0.209
					c0.762,0,0.981,0.482,0.981,1.006V4.715z M16.347,4.125c-0.425-0.006-0.83,0.082-0.83,0.443c0,0.234,0.151,0.342,0.342,0.342
					c0.244,0,0.415-0.156,0.474-0.326c0.015-0.045,0.015-0.088,0.015-0.133V4.125z M16.713,1.879l-0.596,0.723h-0.415l0.425-0.723
					H16.713z"/>
				<path fill="#FFFFFF" d="M17.395,4.939l0.894-1.143c0.122-0.146,0.225-0.264,0.347-0.4v-0.01h-1.152V2.908h1.885v0.367
					l-0.869,1.117c-0.117,0.143-0.229,0.279-0.352,0.406v0.01h1.25v0.479h-2.002V4.939z M18.234,2.602l-0.479-0.723h0.415
					l0.264,0.443h0.01l0.269-0.443h0.41l-0.479,0.723H18.234z"/>
				<path fill="#FFFFFF" d="M3.426,7.408l0.387,1.207c0.068,0.209,0.117,0.4,0.16,0.596h0.016c0.043-0.195,0.098-0.381,0.16-0.596
					l0.381-1.207H5.16L4.252,9.787H3.66L2.777,7.408H3.426z"/>
				<path fill="#FFFFFF" d="M6.639,8.176c0-0.322-0.005-0.557-0.02-0.768h0.518l0.024,0.449h0.015
					C7.293,7.525,7.571,7.355,7.83,7.355c0.059,0,0.093,0.004,0.142,0.014v0.563c-0.054-0.01-0.107-0.016-0.181-0.016
					c-0.283,0-0.483,0.182-0.537,0.455c-0.01,0.053-0.015,0.117-0.015,0.18v1.236H6.639V8.176z"/>
				<path fill="#FFFFFF" d="M10.645,8.576c0,0.873-0.615,1.264-1.221,1.264c-0.668,0-1.191-0.459-1.191-1.225
					c0-0.781,0.514-1.26,1.23-1.26C10.172,7.355,10.645,7.854,10.645,8.576z M8.854,8.6c0,0.459,0.229,0.807,0.59,0.807
					c0.342,0,0.582-0.332,0.582-0.816c0-0.371-0.166-0.801-0.576-0.801C9.023,7.789,8.854,8.205,8.854,8.6z"/>
				<path fill="#FFFFFF" d="M11.532,7.408l0.386,1.207c0.068,0.209,0.117,0.4,0.161,0.596h0.015
					c0.044-0.195,0.098-0.381,0.161-0.596l0.381-1.207h0.63l-0.908,2.379h-0.591l-0.884-2.379H11.532z"/>
				<path fill="#FFFFFF" d="M14.323,6.744c0,0.176-0.132,0.322-0.342,0.322c-0.2,0-0.332-0.146-0.332-0.322
					c0-0.186,0.137-0.326,0.337-0.326C14.191,6.418,14.318,6.559,14.323,6.744z M13.684,9.787V7.408h0.601v2.379H13.684z"/>
				<path fill="#FFFFFF" d="M14.984,8.117c0-0.273-0.01-0.504-0.02-0.709h0.522l0.029,0.357h0.015
					c0.107-0.186,0.366-0.41,0.762-0.41c0.415,0,0.845,0.268,0.845,1.02v1.412h-0.601V8.443c0-0.342-0.127-0.6-0.454-0.6
					c-0.239,0-0.405,0.17-0.469,0.352c-0.02,0.049-0.029,0.121-0.029,0.189v1.402h-0.601V8.117z"/>
				<path fill="#FFFFFF" d="M18.254,8.766c0.016,0.43,0.348,0.615,0.732,0.615c0.279,0,0.475-0.043,0.66-0.107l0.088,0.41
					c-0.205,0.088-0.488,0.152-0.83,0.152c-0.771,0-1.227-0.475-1.227-1.201c0-0.66,0.4-1.279,1.162-1.279
					c0.771,0,1.025,0.635,1.025,1.156c0,0.113-0.01,0.201-0.02,0.254H18.254z M18.576,7.102l-0.479-0.723h0.416l0.264,0.443h0.01
					l0.268-0.443h0.41l-0.473,0.723H18.576z M19.299,8.346c0.006-0.219-0.092-0.58-0.492-0.58c-0.371,0-0.527,0.336-0.553,0.58
					H19.299z"/>
			</g>
		</g>
		<g>
			<g opacity="0.5">
				<g>
					<path fill="#FFFFFF" d="M2.1,14.488v-0.451L0.467,15.67h0.678l1.182-1.182H2.1z M2.1,13.039l-2.099,2.1v0.531h0.146L2.1,13.717
						V13.039z M0.409,12.734l-0.408,0.408v0.678l1.086-1.086H0.409z M5.023,15.67v-0.566L4.457,15.67H5.023z M4.641,14.488
						L3.459,15.67h0.678l0.887-0.887v-0.295H4.641z M2.646,14.488L1.465,15.67h0.676l1.182-1.182H2.646z M3.643,14.488L2.461,15.67
						h0.678l1.182-1.182H3.643z M1.407,12.734l-1.406,1.406v0.678l2.082-2.084H1.407z"/>
				</g>
			</g>
			<g opacity="0.5">
				<g>
					<path fill="#FFFFFF" d="M22.271,15.67l0.407-0.406v-0.676l-1.083,1.082H22.271z M21.275,15.67l1.403-1.402v-0.68l-2.083,2.082
						H21.275z M22.536,12.734L19.6,15.67h0.676l2.403-2.402v-0.533H22.536z M19.783,14.488l-1.182,1.182h0.678l1.182-1.182H19.783z
						 M17.787,14.488l-0.131,0.133v0.676l0.809-0.809H17.787z M21.536,12.734l-0.956,0.957v0.68l1.636-1.637H21.536z M22.679,15.67
						v-0.086l-0.087,0.086H22.679z M18.785,14.488l-1.129,1.129v0.053h0.625l1.182-1.182H18.785z M20.58,12.734v0.637l0.636-0.637
						H20.58z"/>
				</g>
			</g>
			<g>
				<path fill="#FFFFFF" d="M0.001,12.279v0.863l0.408-0.408h0.678L0.001,13.82v0.32l1.406-1.406h0.676l-2.082,2.084v0.32l2.099-2.1
					v0.678L0.146,15.67H0.001v0.455h5.022v3.053c0,0.506,0.41,0.918,0.915,0.918h3.366v0.543c0,0.127,0.102,0.229,0.228,0.229h0.513
					l-0.001,1.811h0.455l0.001-1.811h1.68l0.001,1.811h0.455l-0.001-1.811h0.513c0.126,0,0.228-0.102,0.228-0.229v-0.543h3.364
					c0.506,0,0.917-0.412,0.917-0.918v-3.053h5.022V15.67h-0.087l0.087-0.086v-0.32l-0.407,0.406h-0.676l1.083-1.082v-0.32
					l-1.403,1.402h-0.68l2.083-2.082v-0.32l-2.403,2.402H19.6l2.937-2.936h0.143v-0.455H0.001z M20.58,12.734h0.636l-0.636,0.637
					V12.734z M3.322,14.488L2.141,15.67H1.465l1.182-1.182H3.322z M3.643,14.488H4.32L3.139,15.67H2.461L3.643,14.488z
					 M4.641,14.488h0.383v0.295L4.137,15.67H3.459L4.641,14.488z M5.023,15.104v0.566H4.457L5.023,15.104z M17.656,14.621
					l0.131-0.133h0.678l-0.809,0.809V14.621z M17.656,15.617l1.129-1.129h0.678l-1.182,1.182h-0.625V15.617z M2.555,12.734h17.568
					v1.299H2.555V12.734z M2.1,14.037v0.451h0.227L1.145,15.67H0.467L2.1,14.037z M12.92,20.412H9.76v-0.316h3.16V20.412z
					 M17.201,19.178c0,0.254-0.207,0.463-0.462,0.463H5.938c-0.254,0-0.46-0.209-0.46-0.463v-4.689h11.723V19.178z M19.279,15.67
					h-0.678l1.182-1.182h0.678L19.279,15.67z M20.58,14.371v-0.68l0.956-0.957h0.68L20.58,14.371z"/>
			</g>
		</g>
	</g>
</g>
</svg>
