<?xml version="1.0" encoding="utf-8"?>
<!-- Generator: Adobe Illustrator 16.0.3, SVG Export Plug-In . SVG Version: 6.00 Build 0)  -->
<!DOCTYPE svg PUBLIC "-//W3C//DTD SVG 1.1//EN" "http://www.w3.org/Graphics/SVG/1.1/DTD/svg11.dtd">
<svg version="1.1" xmlns="http://www.w3.org/2000/svg" xmlns:xlink="http://www.w3.org/1999/xlink" x="0px" y="0px" width="22.68px"
	 height="22.68px" viewBox="0 0 22.68 22.68" enable-background="new 0 0 22.68 22.68" xml:space="preserve">
<g id="BCGRND">
</g>
<g id="IKONY">
	<rect x="0" fill="#585857" width="22.676" height="22.678"/>
	<g>
		<g>
			<rect x="0.001" y="7.769" fill="#FFFFFF" width="22.678" height="0.889"/>
		</g>
		<g>
			<path fill="#FFFFFF" d="M2.288,5.569V2.278h0.688l0.85,1.411c0.215,0.366,0.41,0.747,0.562,1.104h0.01
				C4.354,4.354,4.344,3.929,4.344,3.426V2.278h0.557v3.291H4.276l-0.859-1.45C3.206,3.758,2.991,3.357,2.83,2.986l-0.02,0.005
				c0.024,0.425,0.034,0.859,0.034,1.401v1.177H2.288z"/>
			<path fill="#FFFFFF" d="M8.006,4.358c0,0.874-0.615,1.265-1.221,1.265c-0.669,0-1.191-0.459-1.191-1.226
				c0-0.781,0.513-1.26,1.23-1.26C7.532,3.138,8.006,3.636,8.006,4.358z M6.214,4.383c0,0.459,0.229,0.806,0.591,0.806
				c0.342,0,0.581-0.332,0.581-0.815c0-0.371-0.166-0.801-0.576-0.801C6.385,3.572,6.214,3.987,6.214,4.383z"/>
			<path fill="#FFFFFF" d="M9.881,2.278h1.904v0.493h-1.304V3.68h1.211v0.488h-1.211v1.401H9.881V2.278z"/>
			<path fill="#FFFFFF" d="M12.408,3.958c0-0.322-0.005-0.557-0.02-0.767h0.518l0.024,0.449h0.015
				c0.117-0.332,0.396-0.503,0.654-0.503c0.059,0,0.093,0.005,0.142,0.015v0.562c-0.054-0.01-0.107-0.015-0.181-0.015
				c-0.283,0-0.483,0.181-0.537,0.454c-0.01,0.054-0.015,0.117-0.015,0.181v1.235h-0.601V3.958z"/>
			<path fill="#FFFFFF" d="M16.537,4.358c0,0.874-0.615,1.265-1.221,1.265c-0.669,0-1.191-0.459-1.191-1.226
				c0-0.781,0.513-1.26,1.23-1.26C16.063,3.138,16.537,3.636,16.537,4.358z M14.745,4.383c0,0.459,0.229,0.806,0.591,0.806
				c0.342,0,0.581-0.332,0.581-0.815c0-0.371-0.166-0.801-0.576-0.801C14.916,3.572,14.745,3.987,14.745,4.383z"/>
			<path fill="#FFFFFF" d="M17.18,5.013c0.132,0.083,0.391,0.176,0.605,0.176c0.264,0,0.381-0.112,0.381-0.269
				c0-0.161-0.098-0.239-0.391-0.347c-0.464-0.156-0.654-0.41-0.654-0.693c0-0.42,0.347-0.742,0.898-0.742
				c0.264,0,0.493,0.063,0.635,0.142l-0.122,0.42c-0.098-0.059-0.293-0.137-0.503-0.137c-0.215,0-0.332,0.107-0.332,0.254
				c0,0.151,0.112,0.22,0.415,0.332c0.435,0.151,0.63,0.371,0.635,0.723c0,0.435-0.337,0.747-0.967,0.747
				c-0.288,0-0.547-0.068-0.723-0.166L17.18,5.013z"/>
			<path fill="#FFFFFF" d="M20.103,2.581v0.61h0.571v0.449h-0.571v1.05c0,0.293,0.078,0.439,0.308,0.439
				c0.107,0,0.166-0.005,0.234-0.024l0.01,0.454c-0.088,0.034-0.249,0.063-0.435,0.063c-0.225,0-0.405-0.073-0.518-0.195
				c-0.132-0.137-0.19-0.356-0.19-0.669V3.641h-0.337V3.191h0.337V2.747L20.103,2.581z"/>
		</g>
		<g>
			<path fill="#FFFFFF" d="M10.868,9.57L9.475,8.766L9.005,9.582l1.863,1.076v0.73L10.514,12l-0.857-1.488l-0.525-0.303l0.004,0.605
				l0.859,1.484H9.29l-0.633-0.365v-2.15H7.714v1.607l-0.648-0.375V9.783H6.122v0.689L4.846,9.734l-0.471,0.818l1.275,0.736
				l-0.598,0.344l0.473,0.816l1.068-0.615l0.646,0.373L5.85,13.012l0.471,0.816l1.863-1.076l0.646,0.373l0.35,0.605H7.45
				l-0.521,0.297L7.45,14.33h1.717l-0.35,0.609l-0.633,0.365l-1.863-1.076L5.85,15.045l1.391,0.805l-0.646,0.373l-1.068-0.617
				l-0.473,0.818l0.598,0.344l-1.275,0.736l0.471,0.818l1.275-0.736v0.688h0.943v-1.232l0.648-0.375v1.607h0.943v-2.152l0.635-0.365
				h0.705L9.135,17.25l-0.004,0.602l0.523-0.301l0.865-1.498l0.348,0.602v0.744l-1.863,1.076l0.471,0.816l1.393-0.805v0.748
				L9.8,19.852l0.471,0.816l0.598-0.344v1.473h0.943v-1.473l0.596,0.344l0.473-0.816l-1.068-0.617v-0.748l1.391,0.805l0.473-0.816
				l-1.863-1.076v-0.744l0.348-0.604l0.867,1.5l0.52,0.303V17.25l-0.861-1.494h0.703l0.633,0.365v2.152h0.945v-1.607l0.646,0.375
				v1.232h0.943v-0.688l1.275,0.736l0.473-0.818l-1.275-0.736l0.596-0.344l-0.473-0.818l-1.066,0.617l-0.648-0.373l1.393-0.805
				l-0.473-0.816l-1.863,1.076l-0.633-0.365l-0.35-0.609h1.719l0.523-0.303l-0.523-0.297h-1.73l0.348-0.605l0.646-0.373l1.863,1.076
				l0.473-0.816l-1.393-0.805l0.648-0.373l1.066,0.615l0.473-0.816l-0.596-0.344l1.275-0.736l-0.473-0.818l-1.275,0.738V9.783
				h-0.943v1.232l-0.646,0.375V9.783H14.02v2.15l-0.631,0.365h-0.703l0.857-1.484l0.002-0.607l-0.521,0.305l-0.859,1.49
				l-0.354-0.613v-0.73l1.863-1.076l-0.473-0.816L11.811,9.57V8.822l1.055-0.609H9.813l1.055,0.609V9.57z M10.344,15.154H9.387
				L9.86,14.33h0.959L10.344,15.154z M9.87,13.73l-0.475-0.828h0.945l0.479,0.828H9.87z M11.339,16.277l-0.477-0.82l0.479-0.826
				l0.475,0.824L11.339,16.277z M12.339,12.902h0.943l-0.473,0.828H11.86L12.339,12.902z M12.817,14.33l0.475,0.824h-0.955
				L11.86,14.33H12.817z M11.821,12.598l-0.48,0.832l-0.482-0.834l0.48-0.838L11.821,12.598z"/>
		</g>
	</g>
</g>
</svg>
