<?xml version="1.0" encoding="utf-8"?>
<!-- Generator: Adobe Illustrator 16.0.3, SVG Export Plug-In . SVG Version: 6.00 Build 0)  -->
<!DOCTYPE svg PUBLIC "-//W3C//DTD SVG 1.1//EN" "http://www.w3.org/Graphics/SVG/1.1/DTD/svg11.dtd">
<svg version="1.1" xmlns="http://www.w3.org/2000/svg" xmlns:xlink="http://www.w3.org/1999/xlink" x="0px" y="0px" width="22.68px"
	 height="22.68px" viewBox="0 0 22.68 22.68" enable-background="new 0 0 22.68 22.68" xml:space="preserve">
<g id="BCGRND">
</g>
<g id="IKONY">
	<rect x="0" fill="#585857" width="22.677" height="22.677"/>
	<g>
		<rect x="0" y="7.769" fill="#FFFFFF" width="22.678" height="0.889"/>
		<g>
			<path fill="#FFFFFF" d="M1.314,5.569V2.278h0.688l0.85,1.411c0.215,0.366,0.41,0.747,0.562,1.104h0.01
				C3.38,4.354,3.37,3.929,3.37,3.426V2.278h0.557v3.291H3.302l-0.859-1.45c-0.21-0.361-0.425-0.762-0.586-1.133l-0.02,0.005
				c0.024,0.425,0.034,0.859,0.034,1.401v1.177H1.314z"/>
			<path fill="#FFFFFF" d="M6.787,4.358c0,0.874-0.615,1.265-1.221,1.265c-0.669,0-1.191-0.459-1.191-1.226
				c0-0.781,0.513-1.26,1.23-1.26C6.313,3.138,6.787,3.636,6.787,4.358z M4.995,4.383c0,0.459,0.229,0.806,0.591,0.806
				c0.342,0,0.581-0.332,0.581-0.815c0-0.371-0.166-0.801-0.576-0.801C5.166,3.572,4.995,3.987,4.995,4.383z"/>
			<path fill="#FFFFFF" d="M7.782,2.278h1.904v0.493H8.383V3.68h1.211v0.488H8.383v1.401H7.782V2.278z"/>
			<path fill="#FFFFFF" d="M10.065,3.958c0-0.322-0.005-0.557-0.02-0.767h0.518l0.024,0.449h0.015
				c0.117-0.332,0.396-0.503,0.654-0.503c0.059,0,0.093,0.005,0.142,0.015v0.562c-0.054-0.01-0.107-0.015-0.181-0.015
				c-0.283,0-0.483,0.181-0.537,0.454c-0.01,0.054-0.015,0.117-0.015,0.181v1.235h-0.601V3.958z"/>
			<path fill="#FFFFFF" d="M13.949,4.358c0,0.874-0.615,1.265-1.221,1.265c-0.669,0-1.191-0.459-1.191-1.226
				c0-0.781,0.513-1.26,1.23-1.26C13.476,3.138,13.949,3.636,13.949,4.358z M12.157,4.383c0,0.459,0.229,0.806,0.591,0.806
				c0.342,0,0.581-0.332,0.581-0.815c0-0.371-0.166-0.801-0.576-0.801C12.328,3.572,12.157,3.987,12.157,4.383z"/>
			<path fill="#FFFFFF" d="M14.348,5.013c0.132,0.083,0.391,0.176,0.605,0.176c0.264,0,0.381-0.112,0.381-0.269
				c0-0.161-0.098-0.239-0.391-0.347C14.48,4.417,14.29,4.163,14.29,3.88c0-0.42,0.347-0.742,0.898-0.742
				c0.264,0,0.493,0.063,0.635,0.142l-0.122,0.42c-0.098-0.059-0.293-0.137-0.503-0.137c-0.215,0-0.332,0.107-0.332,0.254
				c0,0.151,0.112,0.22,0.415,0.332c0.435,0.151,0.63,0.371,0.635,0.723c0,0.435-0.337,0.747-0.967,0.747
				c-0.288,0-0.547-0.068-0.723-0.166L14.348,5.013z"/>
			<path fill="#FFFFFF" d="M17.027,2.581v0.61h0.571v0.449h-0.571v1.05c0,0.293,0.078,0.439,0.308,0.439
				c0.107,0,0.166-0.005,0.234-0.024l0.01,0.454c-0.088,0.034-0.249,0.063-0.435,0.063c-0.225,0-0.405-0.073-0.518-0.195
				c-0.132-0.137-0.19-0.356-0.19-0.669V3.641h-0.337V3.191h0.337V2.747L17.027,2.581z"/>
			<path fill="#FFFFFF" d="M20.335,2.379v1.266h1.211v0.647h-1.211v1.277h-0.678V4.292h-1.211V3.645h1.211V2.379H20.335z"/>
		</g>
		<path fill="#FFFFFF" d="M10.867,9.569L9.475,8.766L9.004,9.582l1.863,1.076v0.729l-0.354,0.611l-0.857-1.487l-0.525-0.303
			l0.004,0.604l0.859,1.485H9.289l-0.633-0.365v-2.15H7.713v1.606l-0.648-0.374V9.783H6.121v0.688L4.846,9.734l-0.471,0.817
			l1.275,0.737l-0.598,0.344l0.473,0.816l1.068-0.616l0.646,0.374L5.85,13.012l0.471,0.816l1.863-1.076l0.646,0.373l0.35,0.604
			h-1.73l-0.521,0.298l0.521,0.303h1.717l-0.35,0.609l-0.633,0.365l-1.863-1.076L5.85,15.045l1.391,0.804l-0.646,0.374l-1.068-0.617
			l-0.473,0.817l0.598,0.345l-1.275,0.736l0.471,0.818l1.275-0.737v0.688h0.943V17.04l0.648-0.374v1.607h0.943v-2.152l0.635-0.365
			h0.705L9.135,17.25l-0.004,0.602l0.523-0.301l0.865-1.498l0.348,0.602v0.743l-1.863,1.077l0.471,0.816l1.393-0.805v0.748
			l-1.068,0.617l0.471,0.816l0.598-0.344v1.473h0.943v-1.473l0.596,0.344l0.473-0.816l-1.068-0.617v-0.748l1.391,0.805l0.473-0.816
			l-1.863-1.077v-0.743l0.348-0.604l0.867,1.501l0.52,0.303V17.25l-0.861-1.494h0.703l0.633,0.365v2.152h0.945v-1.607l0.646,0.374
			v1.233h0.943v-0.688l1.275,0.737l0.473-0.818l-1.275-0.736l0.596-0.345l-0.473-0.817l-1.066,0.617l-0.648-0.374l1.393-0.804
			l-0.473-0.816l-1.863,1.076l-0.633-0.365l-0.35-0.609h1.719l0.523-0.303l-0.523-0.298h-1.73l0.348-0.604l0.646-0.373l1.863,1.076
			l0.473-0.816l-1.393-0.805l0.648-0.374l1.066,0.616l0.473-0.816l-0.596-0.344l1.275-0.737L17.83,9.734l-1.275,0.737V9.783h-0.943
			v1.232l-0.646,0.374V9.783H14.02v2.15l-0.631,0.365h-0.703l0.857-1.485l0.002-0.606l-0.521,0.305l-0.859,1.489l-0.354-0.613
			v-0.729l1.863-1.076l-0.473-0.816l-1.391,0.804V8.822l1.055-0.609H9.813l1.055,0.609V9.569z M10.344,15.154H9.387L9.86,14.33
			h0.959L10.344,15.154z M9.869,13.729l-0.475-0.828h0.945l0.479,0.828H9.869z M11.338,16.276l-0.477-0.819l0.479-0.826l0.475,0.824
			L11.338,16.276z M12.338,12.901h0.943l-0.473,0.828H11.86L12.338,12.901z M12.817,14.33l0.475,0.824h-0.955L11.86,14.33H12.817z
			 M11.821,12.598l-0.48,0.832l-0.482-0.834l0.48-0.838L11.821,12.598z"/>
	</g>
</g>
</svg>
