<?xml version="1.0" encoding="utf-8"?>
<!-- Generator: Adobe Illustrator 16.0.3, SVG Export Plug-In . SVG Version: 6.00 Build 0)  -->
<!DOCTYPE svg PUBLIC "-//W3C//DTD SVG 1.1//EN" "http://www.w3.org/Graphics/SVG/1.1/DTD/svg11.dtd">
<svg version="1.1" xmlns="http://www.w3.org/2000/svg" xmlns:xlink="http://www.w3.org/1999/xlink" x="0px" y="0px" width="22.68px"
	 height="22.68px" viewBox="0 0 22.68 22.68" enable-background="new 0 0 22.68 22.68" xml:space="preserve">
<g id="BCGRND">
</g>
<g id="IKONY">
	<rect x="0" fill="#585857" width="22.676" height="22.678"/>
	<g>
		<g>
			<rect x="0.001" y="11.956" fill="#FFFFFF" width="22.678" height="0.889"/>
		</g>
		<g>
			<path fill="#FFFFFF" d="M3.973,5.287V1.996h0.689l0.85,1.41c0.215,0.367,0.41,0.748,0.561,1.104h0.01
				C6.039,4.07,6.029,3.646,6.029,3.143V1.996h0.557v3.291H5.961L5.101,3.836C4.891,3.475,4.676,3.074,4.516,2.703l-0.02,0.006
				c0.023,0.424,0.033,0.859,0.033,1.4v1.178H3.973z"/>
			<path fill="#FFFFFF" d="M9.485,4.574c0,0.283,0.01,0.518,0.02,0.713H8.982L8.953,4.93H8.938C8.836,5.096,8.601,5.34,8.172,5.34
				S7.347,5.082,7.347,4.305V2.908h0.601v1.295c0,0.395,0.127,0.648,0.444,0.648c0.244,0,0.4-0.166,0.459-0.322
				C8.875,4.48,8.885,4.412,8.885,4.344V2.908h0.601V4.574z"/>
			<path fill="#FFFFFF" d="M10.236,1.82h0.6v3.467h-0.6V1.82z"/>
			<path fill="#FFFFFF" d="M13.85,4.076c0,0.873-0.615,1.264-1.221,1.264c-0.669,0-1.191-0.459-1.191-1.225
				c0-0.781,0.513-1.26,1.23-1.26C13.377,2.855,13.85,3.354,13.85,4.076z M12.058,4.1c0,0.459,0.229,0.807,0.591,0.807
				c0.342,0,0.581-0.332,0.581-0.816c0-0.371-0.166-0.801-0.576-0.801C12.229,3.289,12.058,3.705,12.058,4.1z"/>
			<path fill="#FFFFFF" d="M14.787,2.908l0.386,1.207c0.068,0.209,0.117,0.4,0.161,0.596h0.015c0.044-0.195,0.098-0.381,0.161-0.596
				l0.381-1.207h0.63l-0.908,2.379h-0.591l-0.884-2.379H14.787z"/>
			<path fill="#FFFFFF" d="M18.804,4.715c0,0.215,0.01,0.426,0.039,0.572h-0.542l-0.044-0.264h-0.015
				C18.1,5.209,17.851,5.34,17.539,5.34c-0.479,0-0.747-0.346-0.747-0.707c0-0.596,0.532-0.904,1.411-0.898V3.695
				c0-0.156-0.063-0.416-0.483-0.416c-0.234,0-0.479,0.074-0.64,0.176l-0.117-0.391c0.176-0.107,0.483-0.209,0.859-0.209
				c0.762,0,0.981,0.482,0.981,1.006V4.715z M18.218,4.125c-0.425-0.006-0.83,0.082-0.83,0.443c0,0.234,0.151,0.342,0.342,0.342
				c0.244,0,0.415-0.156,0.474-0.326c0.015-0.045,0.015-0.088,0.015-0.133V4.125z M18.584,1.879l-0.596,0.723h-0.415l0.425-0.723
				H18.584z"/>
			<path fill="#FFFFFF" d="M6.224,9.439l0.894-1.143c0.122-0.146,0.225-0.264,0.347-0.4v-0.01H6.312V7.408h1.885v0.367L7.328,8.893
				C7.211,9.035,7.099,9.172,6.976,9.299v0.01h1.25v0.479H6.224V9.439z"/>
			<path fill="#FFFFFF" d="M10.974,8.576c0,0.873-0.615,1.264-1.221,1.264c-0.669,0-1.191-0.459-1.191-1.225
				c0-0.781,0.513-1.26,1.23-1.26C10.5,7.355,10.974,7.854,10.974,8.576z M9.182,8.6c0,0.459,0.229,0.807,0.591,0.807
				c0.342,0,0.581-0.332,0.581-0.816c0-0.371-0.166-0.801-0.576-0.801C9.352,7.789,9.182,8.205,9.182,8.6z M10.48,6.379L9.885,7.102
				H9.47l0.425-0.723H10.48z"/>
			<path fill="#FFFFFF" d="M11.568,8.117c0-0.273-0.01-0.504-0.02-0.709h0.521l0.029,0.357h0.016c0.107-0.186,0.365-0.41,0.762-0.41
				c0.414,0,0.844,0.268,0.844,1.02v1.412h-0.6V8.443c0-0.342-0.127-0.6-0.455-0.6c-0.238,0-0.404,0.17-0.469,0.352
				c-0.02,0.049-0.029,0.121-0.029,0.189v1.402h-0.6V8.117z"/>
			<path fill="#FFFFFF" d="M16.308,9.215c0,0.215,0.01,0.426,0.039,0.572h-0.543l-0.043-0.264h-0.016
				c-0.141,0.186-0.391,0.316-0.703,0.316c-0.479,0-0.746-0.346-0.746-0.707c0-0.596,0.531-0.904,1.41-0.898V8.195
				c0-0.156-0.063-0.416-0.482-0.416c-0.234,0-0.479,0.074-0.641,0.176l-0.117-0.391c0.176-0.107,0.484-0.209,0.859-0.209
				c0.762,0,0.982,0.482,0.982,1.006V9.215z M15.723,8.625c-0.426-0.006-0.83,0.082-0.83,0.443c0,0.234,0.15,0.342,0.342,0.342
				c0.244,0,0.414-0.156,0.473-0.326c0.016-0.045,0.016-0.088,0.016-0.133V8.625z"/>
		</g>
		<g>
			<path fill="#FFFFFF" d="M17.288,21.044h-1.266v0.505h1.771v-1.771h-0.506V21.044z M5.39,19.777H4.884v1.771h1.77v-0.505H5.39
				V19.777z M5.39,14.373h1.264v-0.506h-1.77v1.772H5.39V14.373z M16.022,13.867v0.506h1.266v1.267h0.506v-1.772H16.022z
				 M11.579,15.055c-0.473,0-0.742,0.289-0.742,0.661c0,0.357,0.293,0.635,0.738,0.635c0.432,0,0.73-0.27,0.73-0.641
				C12.306,15.331,12.034,15.055,11.579,15.055z M11.569,16.053c-0.195,0-0.318-0.175-0.318-0.343c0-0.184,0.115-0.358,0.318-0.358
				c0.207,0,0.33,0.161,0.33,0.351C11.899,15.89,11.776,16.053,11.569,16.053z M15.909,19.199c-0.223,0.096-0.574,0.164-0.904,0.164
				c-1.008,0-1.588-0.636-1.588-1.642c0-1.093,0.668-1.676,1.594-1.676c0.373,0,0.676,0.083,0.893,0.178l0.174-0.662
				c-0.168-0.088-0.553-0.204-1.1-0.204c-1.391,0-2.438,0.903-2.438,2.403c0,1.393,0.877,2.296,2.324,2.296
				c0.553,0,0.984-0.106,1.18-0.202L15.909,19.199z M8.214,15.521c-1.027,0-1.609,0.91-1.609,2.283
				c0.008,1.336,0.549,2.253,1.555,2.253c1.053,0,1.605-0.883,1.605-2.3C9.765,16.466,9.272,15.521,8.214,15.521z M7.444,17.796
				c0-1.095,0.309-1.643,0.748-1.643c0.193,0,0.335,0.114,0.451,0.284L7.484,18.34C7.464,18.172,7.444,18.003,7.444,17.796z
				 M8.186,19.424c-0.221,0-0.4-0.136-0.528-0.395l1.211-1.994c0.037,0.215,0.06,0.457,0.06,0.739
				C8.929,18.829,8.679,19.424,8.186,19.424z"/>
		</g>
	</g>
</g>
</svg>
