<?xml version="1.0" encoding="utf-8"?>
<!-- Generator: Adobe Illustrator 16.0.3, SVG Export Plug-In . SVG Version: 6.00 Build 0)  -->
<!DOCTYPE svg PUBLIC "-//W3C//DTD SVG 1.1//EN" "http://www.w3.org/Graphics/SVG/1.1/DTD/svg11.dtd">
<svg version="1.1" xmlns="http://www.w3.org/2000/svg" xmlns:xlink="http://www.w3.org/1999/xlink" x="0px" y="0px" width="22.68px"
	 height="22.68px" viewBox="0 0 22.68 22.68" enable-background="new 0 0 22.68 22.68" xml:space="preserve">
<g id="BCGRND">
</g>
<g id="IKONY">
	<rect x="0" fill="#585857" width="22.678" height="22.677"/>
	<g>
		<rect x="0" y="7.77" fill="#FFFFFF" width="22.676" height="0.889"/>
		<g>
			<g>
				<path fill="#FFFFFF" d="M5.086,3.89c0,1.104-0.668,1.733-1.572,1.733c-0.932,0-1.518-0.713-1.518-1.675
					c0-1.016,0.639-1.729,1.566-1.729C4.52,2.22,5.086,2.948,5.086,3.89z M2.631,3.934c0,0.674,0.336,1.206,0.912,1.206
					c0.582,0,0.908-0.542,0.908-1.23c0-0.62-0.307-1.206-0.908-1.206C2.948,2.704,2.631,3.255,2.631,3.934z"/>
				<path fill="#FFFFFF" d="M5.633,2.103h0.601v1.416h0.01C6.39,3.29,6.649,3.138,7.005,3.138c0.581,0,0.996,0.483,0.991,1.206
					c0,0.854-0.542,1.279-1.079,1.279c-0.308,0-0.581-0.117-0.752-0.41h-0.01L6.126,5.57H5.614c0.01-0.161,0.02-0.425,0.02-0.669
					V2.103z M6.234,4.588c0,0.049,0.005,0.098,0.015,0.142c0.063,0.244,0.273,0.42,0.532,0.42c0.376,0,0.605-0.298,0.605-0.781
					c0-0.42-0.2-0.762-0.601-0.762c-0.244,0-0.469,0.176-0.532,0.439c-0.01,0.044-0.02,0.098-0.02,0.156V4.588z"/>
				<path fill="#FFFFFF" d="M8.014,6.141C8.209,6.126,8.365,6.073,8.463,5.97c0.113-0.122,0.156-0.308,0.156-0.825V3.192h0.602
					v2.124c0,0.493-0.098,0.801-0.313,1.016C8.703,6.527,8.371,6.61,8.073,6.61L8.014,6.141z M9.26,2.528
					c0,0.176-0.127,0.322-0.342,0.322c-0.205,0-0.332-0.146-0.332-0.322c0-0.186,0.137-0.327,0.342-0.327
					C9.127,2.201,9.254,2.342,9.26,2.528z"/>
				<path fill="#FFFFFF" d="M10.336,4.549c0.014,0.43,0.346,0.615,0.732,0.615c0.277,0,0.473-0.044,0.658-0.107l0.088,0.41
					c-0.205,0.088-0.488,0.151-0.83,0.151c-0.771,0-1.225-0.474-1.225-1.201c0-0.659,0.4-1.279,1.162-1.279
					c0.771,0,1.025,0.635,1.025,1.157c0,0.112-0.01,0.2-0.02,0.254H10.336z M11.381,4.129c0.004-0.22-0.094-0.581-0.494-0.581
					c-0.371,0-0.527,0.337-0.551,0.581H11.381z"/>
				<path fill="#FFFFFF" d="M12.483,3.9c0-0.273-0.01-0.503-0.02-0.708h0.512l0.029,0.352h0.016
					c0.111-0.186,0.326-0.405,0.732-0.405c0.313,0,0.557,0.176,0.658,0.439h0.01c0.084-0.132,0.182-0.229,0.289-0.298
					c0.137-0.093,0.287-0.142,0.488-0.142c0.391,0,0.791,0.269,0.791,1.03V5.57h-0.586V4.256c0-0.396-0.137-0.63-0.426-0.63
					c-0.205,0-0.355,0.146-0.42,0.317c-0.02,0.054-0.029,0.132-0.029,0.2V5.57h-0.586V4.193c0-0.332-0.131-0.566-0.41-0.566
					c-0.225,0-0.375,0.176-0.434,0.337c-0.02,0.063-0.029,0.132-0.029,0.2V5.57h-0.586V3.9z"/>
				<path fill="#FFFFFF" d="M17.967,2.186C17.655,2.65,17.42,3.294,17.42,4.173c0,0.864,0.238,1.504,0.547,1.973h-0.436
					c-0.283-0.391-0.596-1.03-0.596-1.973c0.006-0.957,0.313-1.592,0.596-1.987H17.967z"/>
				<path fill="#FFFFFF" d="M18.477,2.103h0.6V5.57h-0.6V2.103z"/>
				<path fill="#FFFFFF" d="M19.596,6.146c0.308-0.464,0.547-1.113,0.547-1.982s-0.239-1.509-0.547-1.978h0.435
					c0.283,0.386,0.596,1.021,0.596,1.978c-0.005,0.952-0.313,1.587-0.596,1.982H19.596z"/>
			</g>
		</g>
		<g>
			<path fill="#FFFFFF" d="M9.996,12.238c-0.24-0.013-0.507,0-0.827,0.04c-1.827,0.214-2.694,1.32-2.907,2.521h0.04
				c0.427-0.493,1.081-0.84,1.947-0.84c1.493,0,2.653,1.066,2.653,2.827c0,1.653-1.213,3.094-3.053,3.094
				c-2.107,0-3.268-1.601-3.268-3.747c0-1.667,0.6-3.014,1.506-3.867c0.787-0.761,1.841-1.188,3.081-1.281
				c0.36-0.053,0.627-0.053,0.827-0.039V12.238z M9.237,16.879c0-1.014-0.547-1.721-1.508-1.721c-0.613,0-1.16,0.373-1.413,0.894
				c-0.067,0.133-0.106,0.293-0.106,0.52c0.026,1.147,0.56,2.081,1.641,2.081C8.69,18.653,9.237,17.919,9.237,16.879z"/>
			<path fill="#FFFFFF" d="M17.146,12.424h-3.334l-0.253,1.734c0.186-0.027,0.359-0.04,0.613-0.04c0.76,0,1.533,0.173,2.106,0.56
				c0.653,0.414,1.134,1.147,1.134,2.201c0,1.653-1.373,3-3.494,3c-1.014,0-1.854-0.253-2.307-0.507l0.333-1.24
				c0.374,0.2,1.12,0.454,1.907,0.454c0.96,0,1.881-0.547,1.881-1.574c0-1-0.734-1.653-2.455-1.653c-0.492,0-0.854,0.04-1.187,0.08
				l0.561-4.375h4.494V12.424z"/>
		</g>
	</g>
</g>
</svg>
