<?xml version="1.0" encoding="utf-8"?>
<!-- Generator: Adobe Illustrator 16.0.3, SVG Export Plug-In . SVG Version: 6.00 Build 0)  -->
<!DOCTYPE svg PUBLIC "-//W3C//DTD SVG 1.1//EN" "http://www.w3.org/Graphics/SVG/1.1/DTD/svg11.dtd">
<svg version="1.1" xmlns="http://www.w3.org/2000/svg" xmlns:xlink="http://www.w3.org/1999/xlink" x="0px" y="0px" width="22.68px"
	 height="22.68px" viewBox="0 0 22.68 22.68" enable-background="new 0 0 22.68 22.68" xml:space="preserve">
<g id="BCGRND">
</g>
<g id="IKONY">
	<rect fill="#585857" width="22.676" height="22.678"/>
	<g>
		<g>
			<rect x="0.002" y="8.117" fill="#FFFFFF" width="22.677" height="0.889"/>
		</g>
		<g>
			<path fill="#FFFFFF" d="M5.088,4.238c0,1.104-0.669,1.734-1.572,1.734c-0.933,0-1.519-0.713-1.519-1.676
				c0-1.016,0.64-1.729,1.567-1.729C4.521,2.568,5.088,3.297,5.088,4.238z M2.632,4.283c0,0.674,0.337,1.205,0.913,1.205
				c0.581,0,0.908-0.541,0.908-1.23c0-0.619-0.308-1.205-0.908-1.205C2.949,3.053,2.632,3.604,2.632,4.283z"/>
			<path fill="#FFFFFF" d="M5.635,2.451h0.6v1.416h0.01C6.391,3.639,6.65,3.486,7.006,3.486c0.582,0,0.996,0.484,0.992,1.207
				c0,0.854-0.543,1.279-1.08,1.279c-0.307,0-0.58-0.117-0.752-0.41h-0.01L6.127,5.918H5.615c0.01-0.16,0.02-0.424,0.02-0.668V2.451
				z M6.234,4.938c0,0.049,0.006,0.098,0.016,0.141c0.063,0.244,0.273,0.42,0.531,0.42c0.377,0,0.605-0.297,0.605-0.781
				c0-0.42-0.199-0.762-0.6-0.762c-0.244,0-0.469,0.176-0.533,0.439c-0.01,0.045-0.02,0.098-0.02,0.156V4.938z"/>
			<path fill="#FFFFFF" d="M8.016,6.49c0.195-0.016,0.352-0.068,0.449-0.172c0.112-0.121,0.156-0.307,0.156-0.824V3.541h0.601v2.123
				c0,0.494-0.098,0.801-0.313,1.016C8.704,6.875,8.372,6.959,8.074,6.959L8.016,6.49z M9.261,2.877
				c0,0.176-0.127,0.322-0.342,0.322c-0.205,0-0.332-0.146-0.332-0.322c0-0.186,0.137-0.328,0.342-0.328
				C9.129,2.549,9.256,2.691,9.261,2.877z"/>
			<path fill="#FFFFFF" d="M10.337,4.898c0.015,0.43,0.347,0.615,0.732,0.615c0.278,0,0.474-0.045,0.659-0.107l0.088,0.41
				c-0.205,0.088-0.488,0.15-0.83,0.15c-0.771,0-1.226-0.473-1.226-1.201c0-0.658,0.4-1.279,1.162-1.279
				c0.771,0,1.025,0.635,1.025,1.158c0,0.111-0.01,0.199-0.02,0.254H10.337z M11.382,4.479c0.005-0.221-0.093-0.582-0.493-0.582
				c-0.371,0-0.527,0.338-0.552,0.582H11.382z"/>
			<path fill="#FFFFFF" d="M12.483,4.248c0-0.273-0.01-0.502-0.02-0.707h0.513l0.029,0.352h0.015
				c0.112-0.186,0.327-0.406,0.732-0.406c0.313,0,0.557,0.176,0.659,0.439h0.01c0.083-0.131,0.181-0.229,0.288-0.297
				c0.137-0.094,0.288-0.143,0.488-0.143c0.391,0,0.791,0.27,0.791,1.031v1.4h-0.586V4.605c0-0.396-0.137-0.631-0.425-0.631
				c-0.205,0-0.356,0.146-0.42,0.318c-0.02,0.053-0.029,0.131-0.029,0.199v1.426h-0.586V4.541c0-0.332-0.132-0.566-0.41-0.566
				c-0.225,0-0.376,0.176-0.435,0.338c-0.02,0.063-0.029,0.131-0.029,0.199v1.406h-0.586V4.248z"/>
			<path fill="#FFFFFF" d="M17.968,2.535c-0.313,0.463-0.547,1.107-0.547,1.986c0,0.865,0.239,1.504,0.547,1.973h-0.435
				c-0.283-0.391-0.596-1.029-0.596-1.973c0.005-0.957,0.313-1.592,0.596-1.986H17.968z"/>
			<path fill="#FFFFFF" d="M18.478,2.451h0.601v3.467h-0.601V2.451z"/>
			<path fill="#FFFFFF" d="M19.598,6.494c0.307-0.463,0.547-1.113,0.547-1.982s-0.24-1.508-0.547-1.977h0.434
				c0.283,0.385,0.596,1.02,0.596,1.977c-0.004,0.953-0.313,1.588-0.596,1.982H19.598z"/>
		</g>
		<g>
			<path fill="#FFFFFF" d="M10.533,12.773H7.199l-0.253,1.734c0.187-0.027,0.36-0.041,0.613-0.041c0.761,0,1.534,0.174,2.107,0.561
				c0.653,0.414,1.134,1.146,1.134,2.201c0,1.652-1.374,3-3.494,3c-1.014,0-1.854-0.254-2.308-0.508l0.333-1.24
				c0.374,0.201,1.121,0.455,1.908,0.455c0.959,0,1.88-0.547,1.88-1.574c0-1-0.733-1.654-2.454-1.654
				c-0.493,0-0.854,0.041-1.188,0.08l0.561-4.375h4.494V12.773z"/>
			<path fill="#FFFFFF" d="M13.068,15.561c-0.908-0.439-1.32-1.16-1.32-1.92c0-1.414,1.253-2.375,2.894-2.375
				c1.88,0,2.72,1.121,2.72,2.188c0,0.734-0.387,1.494-1.333,1.961v0.039c0.946,0.361,1.653,1.107,1.653,2.188
				c0,1.547-1.307,2.588-3.16,2.588c-2.027,0-3.08-1.174-3.08-2.387c0-1.068,0.626-1.801,1.627-2.242V15.561z M16.016,17.773
				c0-0.879-0.641-1.359-1.614-1.627c-0.813,0.229-1.28,0.801-1.28,1.508c-0.027,0.746,0.533,1.414,1.453,1.414
				C15.441,19.068,16.016,18.521,16.016,17.773z M13.308,13.574c0,0.707,0.587,1.133,1.413,1.359
				c0.602-0.174,1.081-0.652,1.081-1.307c0-0.6-0.36-1.227-1.24-1.227C13.734,12.4,13.308,12.947,13.308,13.574z"/>
		</g>
	</g>
</g>
</svg>
