<?xml version="1.0" encoding="utf-8"?>
<!-- Generator: Adobe Illustrator 16.0.3, SVG Export Plug-In . SVG Version: 6.00 Build 0)  -->
<!DOCTYPE svg PUBLIC "-//W3C//DTD SVG 1.1//EN" "http://www.w3.org/Graphics/SVG/1.1/DTD/svg11.dtd">
<svg version="1.1" xmlns="http://www.w3.org/2000/svg" xmlns:xlink="http://www.w3.org/1999/xlink" x="0px" y="0px" width="22.68px"
	 height="22.68px" viewBox="0 0 22.68 22.68" enable-background="new 0 0 22.68 22.68" xml:space="preserve">
<g id="BCGRND">
</g>
<g id="IKONY">
	<rect x="0" fill="#585857" width="22.678" height="22.677"/>
	<g>
		<rect x="0" y="7.77" fill="#FFFFFF" width="22.676" height="0.889"/>
		<g>
			<g>
				<path fill="#FFFFFF" d="M5.085,3.89c0,1.104-0.668,1.733-1.572,1.733c-0.932,0-1.518-0.713-1.518-1.675
					c0-1.016,0.639-1.729,1.566-1.729C4.519,2.22,5.085,2.948,5.085,3.89z M2.63,3.934c0,0.674,0.336,1.206,0.912,1.206
					c0.582,0,0.908-0.542,0.908-1.23c0-0.62-0.307-1.206-0.908-1.206C2.947,2.704,2.63,3.255,2.63,3.934z"/>
				<path fill="#FFFFFF" d="M5.632,2.103h0.601v1.416h0.01C6.389,3.29,6.648,3.138,7.004,3.138c0.581,0,0.996,0.483,0.991,1.206
					c0,0.854-0.542,1.279-1.079,1.279c-0.308,0-0.581-0.117-0.752-0.41h-0.01L6.125,5.57H5.613c0.01-0.161,0.02-0.425,0.02-0.669
					V2.103z M6.233,4.588c0,0.049,0.005,0.098,0.015,0.142C6.311,4.974,6.521,5.15,6.78,5.15c0.376,0,0.605-0.298,0.605-0.781
					c0-0.42-0.2-0.762-0.601-0.762c-0.244,0-0.469,0.176-0.532,0.439c-0.01,0.044-0.02,0.098-0.02,0.156V4.588z"/>
				<path fill="#FFFFFF" d="M8.013,6.141C8.208,6.126,8.365,6.073,8.462,5.97c0.113-0.122,0.156-0.308,0.156-0.825V3.192H9.22v2.124
					c0,0.493-0.098,0.801-0.313,1.016C8.703,6.527,8.371,6.61,8.072,6.61L8.013,6.141z M9.259,2.528
					c0,0.176-0.127,0.322-0.342,0.322c-0.205,0-0.332-0.146-0.332-0.322c0-0.186,0.137-0.327,0.342-0.327
					C9.126,2.201,9.253,2.342,9.259,2.528z"/>
				<path fill="#FFFFFF" d="M10.335,4.549c0.014,0.43,0.346,0.615,0.732,0.615c0.277,0,0.473-0.044,0.658-0.107l0.088,0.41
					c-0.205,0.088-0.488,0.151-0.83,0.151c-0.771,0-1.225-0.474-1.225-1.201c0-0.659,0.4-1.279,1.162-1.279
					c0.771,0,1.025,0.635,1.025,1.157c0,0.112-0.01,0.2-0.02,0.254H10.335z M11.38,4.129c0.004-0.22-0.094-0.581-0.494-0.581
					c-0.371,0-0.527,0.337-0.551,0.581H11.38z"/>
				<path fill="#FFFFFF" d="M12.482,3.9c0-0.273-0.01-0.503-0.02-0.708h0.512l0.029,0.352h0.016
					c0.111-0.186,0.326-0.405,0.732-0.405c0.313,0,0.557,0.176,0.658,0.439h0.01c0.084-0.132,0.182-0.229,0.289-0.298
					c0.137-0.093,0.287-0.142,0.488-0.142c0.391,0,0.791,0.269,0.791,1.03V5.57h-0.586V4.256c0-0.396-0.137-0.63-0.426-0.63
					c-0.205,0-0.355,0.146-0.42,0.317c-0.02,0.054-0.029,0.132-0.029,0.2V5.57h-0.586V4.193c0-0.332-0.131-0.566-0.41-0.566
					c-0.225,0-0.375,0.176-0.434,0.337c-0.02,0.063-0.029,0.132-0.029,0.2V5.57h-0.586V3.9z"/>
				<path fill="#FFFFFF" d="M17.966,2.186c-0.313,0.464-0.547,1.108-0.547,1.987c0,0.864,0.238,1.504,0.547,1.973h-0.436
					c-0.283-0.391-0.596-1.03-0.596-1.973c0.006-0.957,0.313-1.592,0.596-1.987H17.966z"/>
				<path fill="#FFFFFF" d="M18.476,2.103h0.6V5.57h-0.6V2.103z"/>
				<path fill="#FFFFFF" d="M19.595,6.146c0.308-0.464,0.547-1.113,0.547-1.982s-0.239-1.509-0.547-1.978h0.435
					c0.283,0.386,0.596,1.021,0.596,1.978c-0.005,0.952-0.313,1.587-0.596,1.982H19.595z"/>
			</g>
		</g>
		<g>
			<path fill="#FFFFFF" d="M10.846,11.064v1.054l-3.667,7.615H5.458l3.654-7.281v-0.027H5.019v-1.36H10.846z"/>
			<path fill="#FFFFFF" d="M16.988,12.424h-3.334L13.4,14.159c0.188-0.027,0.36-0.04,0.613-0.04c0.761,0,1.534,0.173,2.107,0.56
				c0.654,0.414,1.134,1.147,1.134,2.201c0,1.653-1.374,3-3.494,3c-1.014,0-1.854-0.253-2.308-0.507l0.334-1.24
				c0.373,0.2,1.12,0.454,1.907,0.454c0.96,0,1.88-0.547,1.88-1.574c0-1-0.733-1.653-2.453-1.653c-0.494,0-0.854,0.04-1.188,0.08
				l0.561-4.375h4.494V12.424z"/>
		</g>
	</g>
</g>
</svg>
