<?xml version="1.0" encoding="utf-8"?>
<!-- Generator: Adobe Illustrator 16.0.3, SVG Export Plug-In . SVG Version: 6.00 Build 0)  -->
<!DOCTYPE svg PUBLIC "-//W3C//DTD SVG 1.1//EN" "http://www.w3.org/Graphics/SVG/1.1/DTD/svg11.dtd">
<svg version="1.1" xmlns="http://www.w3.org/2000/svg" xmlns:xlink="http://www.w3.org/1999/xlink" x="0px" y="0px" width="22.68px"
	 height="22.68px" viewBox="0 0 22.68 22.68" enable-background="new 0 0 22.68 22.68" xml:space="preserve">
<g id="BCGRND">
</g>
<g id="IKONY">
	<rect x="0" fill="#585857" width="22.68" height="22.68"/>
	<g>
		<g>
			<rect x="0" y="7.77" fill="#FFFFFF" width="22.678" height="0.889"/>
		</g>
		<g>
			<g>
				<path fill="#FFFFFF" d="M5.086,3.89c0,1.104-0.668,1.733-1.576,1.733c-0.928,0-1.514-0.708-1.514-1.675
					c0-1.011,0.635-1.724,1.563-1.724C4.519,2.225,5.086,2.953,5.086,3.89z M2.631,3.939c0,0.669,0.336,1.201,0.912,1.201
					c0.582,0,0.908-0.537,0.908-1.226c0-0.62-0.307-1.206-0.908-1.206C2.947,2.708,2.631,3.26,2.631,3.939z"/>
				<path fill="#FFFFFF" d="M5.613,5.57c0.01-0.161,0.02-0.425,0.02-0.669V2.103h0.601v1.416h0.01
					C6.389,3.29,6.648,3.138,7.005,3.138c0.581,0,0.996,0.483,0.991,1.206c0,0.854-0.542,1.279-1.079,1.279
					c-0.308,0-0.581-0.117-0.752-0.41h-0.01L6.126,5.57H5.613z M6.233,4.588c0,0.049,0.005,0.098,0.015,0.142
					C6.311,4.969,6.521,5.15,6.78,5.15c0.376,0,0.605-0.303,0.605-0.781c0-0.42-0.2-0.762-0.601-0.762
					c-0.244,0-0.464,0.176-0.532,0.439c-0.01,0.044-0.02,0.098-0.02,0.156V4.588z"/>
				<path fill="#FFFFFF" d="M8.013,6.122c0.195-0.015,0.352-0.068,0.449-0.171c0.113-0.122,0.156-0.308,0.156-0.825V3.192H9.22
					v2.104c0,0.493-0.094,0.801-0.309,1.016C8.703,6.507,8.371,6.59,8.072,6.59L8.013,6.122z M9.254,2.528
					c0,0.176-0.127,0.322-0.342,0.322c-0.199,0-0.326-0.146-0.326-0.322c0-0.186,0.131-0.327,0.336-0.327S9.254,2.342,9.254,2.528z"
					/>
				<path fill="#FFFFFF" d="M10.336,4.549c0.014,0.43,0.352,0.615,0.732,0.615c0.277,0,0.479-0.039,0.658-0.107l0.088,0.415
					c-0.205,0.083-0.488,0.146-0.83,0.146c-0.771,0-1.225-0.474-1.225-1.201c0-0.659,0.4-1.279,1.162-1.279
					c0.771,0,1.025,0.635,1.025,1.157c0,0.112-0.01,0.2-0.02,0.254H10.336z M11.381,4.129c0.004-0.22-0.094-0.581-0.494-0.581
					c-0.371,0-0.527,0.337-0.551,0.581H11.381z"/>
				<path fill="#FFFFFF" d="M12.482,3.9c0-0.273-0.006-0.503-0.02-0.708h0.518l0.023,0.352h0.016
					c0.117-0.186,0.332-0.405,0.732-0.405c0.313,0,0.557,0.176,0.658,0.439h0.01c0.084-0.132,0.182-0.229,0.293-0.298
					c0.133-0.093,0.283-0.142,0.479-0.142c0.396,0,0.797,0.269,0.797,1.03V5.57h-0.586V4.256c0-0.396-0.137-0.63-0.426-0.63
					c-0.205,0-0.355,0.146-0.42,0.317c-0.014,0.059-0.029,0.132-0.029,0.2V5.57h-0.586V4.193c0-0.332-0.131-0.566-0.41-0.566
					c-0.225,0-0.375,0.176-0.43,0.342c-0.023,0.059-0.033,0.127-0.033,0.195V5.57h-0.586V3.9z"/>
				<path fill="#FFFFFF" d="M17.967,2.186c-0.313,0.464-0.553,1.108-0.553,1.987c0,0.864,0.244,1.504,0.553,1.973h-0.439
					c-0.279-0.391-0.592-1.025-0.592-1.973c0.006-0.952,0.313-1.592,0.592-1.987H17.967z"/>
				<path fill="#FFFFFF" d="M18.476,2.103h0.605V5.57h-0.605V2.103z"/>
				<path fill="#FFFFFF" d="M19.595,6.146c0.308-0.464,0.547-1.113,0.547-1.982s-0.239-1.509-0.547-1.978h0.435
					c0.283,0.391,0.596,1.025,0.596,1.982c-0.005,0.952-0.313,1.582-0.596,1.978H19.595z"/>
			</g>
		</g>
		<g>
			<path fill="#FFFFFF" d="M10.045,12.424H6.711l-0.254,1.734c0.2-0.027,0.373-0.04,0.627-0.04c0.76,0,1.521,0.173,2.107,0.56
				c0.653,0.414,1.133,1.147,1.133,2.201c0,1.653-1.373,3-3.507,3c-1.001,0-1.841-0.253-2.294-0.507l0.334-1.24
				c0.373,0.2,1.119,0.454,1.906,0.454c0.961,0,1.881-0.547,1.881-1.588c0-0.986-0.733-1.64-2.467-1.64
				c-0.48,0-0.841,0.026-1.188,0.08l0.573-4.375h4.481V12.424z"/>
			<path fill="#FFFFFF" d="M16.814,12.225c-0.24,0-0.508,0-0.841,0.04c-1.813,0.213-2.694,1.333-2.907,2.533h0.04
				c0.427-0.493,1.081-0.84,1.947-0.84c1.493,0,2.653,1.066,2.653,2.827c0,1.653-1.213,3.094-3.053,3.094
				c-2.107,0-3.268-1.601-3.268-3.734c0-1.667,0.6-3.026,1.506-3.894c0.801-0.747,1.841-1.174,3.081-1.28
				c0.36-0.04,0.627-0.04,0.827-0.026L16.814,12.225z M16.041,16.879c0-1.001-0.547-1.721-1.508-1.721
				c-0.613,0-1.16,0.373-1.413,0.894c-0.067,0.133-0.106,0.293-0.106,0.52c0.026,1.147,0.573,2.081,1.627,2.081
				C15.494,18.653,16.041,17.919,16.041,16.879z"/>
		</g>
	</g>
</g>
</svg>
