<?xml version="1.0" encoding="utf-8"?>
<!-- Generator: Adobe Illustrator 16.0.3, SVG Export Plug-In . SVG Version: 6.00 Build 0)  -->
<!DOCTYPE svg PUBLIC "-//W3C//DTD SVG 1.1//EN" "http://www.w3.org/Graphics/SVG/1.1/DTD/svg11.dtd">
<svg version="1.1" xmlns="http://www.w3.org/2000/svg" xmlns:xlink="http://www.w3.org/1999/xlink" x="0px" y="0px" width="22.68px"
	 height="22.68px" viewBox="0 0 22.68 22.68" enable-background="new 0 0 22.68 22.68" xml:space="preserve">
<g id="BCGRND">
</g>
<g id="IKONY">
	<rect fill="#585857" width="22.676" height="22.678"/>
	<g>
		<g>
			<rect y="7.769" fill="#FFFFFF" width="22.678" height="0.889"/>
		</g>
		<g>
			<g>
				<path fill="#FFFFFF" d="M5.087,3.889c0,1.104-0.67,1.733-1.578,1.733c-0.928,0-1.514-0.708-1.514-1.675
					c0-1.011,0.635-1.724,1.563-1.724C4.521,2.224,5.087,2.952,5.087,3.889z M2.63,3.938c0,0.669,0.338,1.201,0.914,1.201
					c0.58,0,0.908-0.537,0.908-1.226c0-0.62-0.309-1.206-0.908-1.206C2.948,2.708,2.63,3.259,2.63,3.938z"/>
				<path fill="#FFFFFF" d="M5.613,5.569c0.01-0.161,0.02-0.425,0.02-0.669V2.102h0.601v1.416h0.01
					C6.39,3.289,6.648,3.137,7.005,3.137c0.581,0,0.996,0.483,0.991,1.206c0,0.854-0.542,1.279-1.079,1.279
					c-0.308,0-0.581-0.117-0.752-0.41h-0.01L6.126,5.569H5.613z M6.233,4.587c0,0.049,0.005,0.098,0.015,0.142
					c0.063,0.239,0.273,0.42,0.532,0.42c0.376,0,0.605-0.303,0.605-0.781c0-0.42-0.2-0.762-0.601-0.762
					c-0.244,0-0.464,0.176-0.532,0.439c-0.01,0.044-0.02,0.098-0.02,0.156V4.587z"/>
				<path fill="#FFFFFF" d="M8.015,6.121C8.21,6.106,8.366,6.052,8.464,5.95C8.575,5.828,8.62,5.642,8.62,5.125V3.191h0.6v2.104
					c0,0.493-0.092,0.801-0.307,1.016C8.702,6.506,8.37,6.589,8.073,6.589L8.015,6.121z M9.255,2.527
					c0,0.176-0.127,0.322-0.342,0.322c-0.201,0-0.328-0.146-0.328-0.322c0-0.186,0.133-0.327,0.338-0.327S9.255,2.341,9.255,2.527z"
					/>
				<path fill="#FFFFFF" d="M10.335,4.548c0.016,0.43,0.352,0.615,0.732,0.615c0.279,0,0.479-0.039,0.66-0.107l0.088,0.415
					c-0.205,0.083-0.488,0.146-0.83,0.146c-0.771,0-1.227-0.474-1.227-1.201c0-0.659,0.4-1.279,1.162-1.279
					c0.771,0,1.025,0.635,1.025,1.157c0,0.112-0.01,0.2-0.02,0.254H10.335z M11.38,4.128c0.006-0.22-0.092-0.581-0.492-0.581
					c-0.371,0-0.527,0.337-0.553,0.581H11.38z"/>
				<path fill="#FFFFFF" d="M12.481,3.899c0-0.273-0.004-0.503-0.02-0.708h0.518l0.025,0.352h0.014
					c0.117-0.186,0.332-0.405,0.732-0.405c0.313,0,0.557,0.176,0.66,0.439h0.01c0.082-0.132,0.18-0.229,0.293-0.298
					c0.131-0.093,0.283-0.142,0.479-0.142c0.395,0,0.795,0.269,0.795,1.03v1.401h-0.586V4.255c0-0.396-0.137-0.63-0.424-0.63
					c-0.205,0-0.357,0.146-0.42,0.317c-0.016,0.059-0.029,0.132-0.029,0.2v1.426h-0.586V4.192c0-0.332-0.133-0.566-0.41-0.566
					c-0.225,0-0.377,0.176-0.43,0.342c-0.025,0.059-0.035,0.127-0.035,0.195v1.406h-0.586V3.899z"/>
				<path fill="#FFFFFF" d="M17.966,2.185c-0.313,0.464-0.551,1.108-0.551,1.987c0,0.864,0.244,1.504,0.551,1.973h-0.439
					c-0.277-0.391-0.59-1.025-0.59-1.973c0.004-0.952,0.313-1.592,0.59-1.987H17.966z"/>
				<path fill="#FFFFFF" d="M18.476,2.102h0.605v3.467h-0.605V2.102z"/>
				<path fill="#FFFFFF" d="M19.596,6.145c0.308-0.464,0.547-1.113,0.547-1.982s-0.239-1.509-0.547-1.978h0.435
					c0.283,0.391,0.596,1.025,0.596,1.982C20.621,5.12,20.313,5.75,20.03,6.145H19.596z"/>
			</g>
		</g>
		<g>
			<path fill="#FFFFFF" d="M1.472,19.732v-1l1.026-0.947c2.04-1.894,3.001-2.934,3.015-4.081c0-0.773-0.414-1.453-1.547-1.453
				c-0.761,0-1.414,0.387-1.854,0.72l-0.479-1.16c0.627-0.507,1.573-0.894,2.667-0.894c1.921,0,2.854,1.214,2.854,2.627
				c0,1.521-1.094,2.748-2.602,4.148l-0.76,0.653v0.026h3.561v1.36H1.472z"/>
			<path fill="#FFFFFF" d="M14.027,11.063v1.054l-3.667,7.615H8.626l3.654-7.281v-0.027H8.2v-1.36H14.027z"/>
			<path fill="#FFFFFF" d="M20.843,11.063v1.054l-3.668,7.615h-1.733l3.653-7.281v-0.027h-4.08v-1.36H20.843z"/>
		</g>
	</g>
</g>
</svg>
