<?xml version="1.0" encoding="utf-8"?>
<!-- Generator: Adobe Illustrator 16.0.3, SVG Export Plug-In . SVG Version: 6.00 Build 0)  -->
<!DOCTYPE svg PUBLIC "-//W3C//DTD SVG 1.1//EN" "http://www.w3.org/Graphics/SVG/1.1/DTD/svg11.dtd">
<svg version="1.1" xmlns="http://www.w3.org/2000/svg" xmlns:xlink="http://www.w3.org/1999/xlink" x="0px" y="0px" width="22.68px"
	 height="22.68px" viewBox="0 0 22.68 22.68" enable-background="new 0 0 22.68 22.68" xml:space="preserve">
<g id="BCGRND">
</g>
<g id="IKONY">
	<rect fill="#585857" width="22.676" height="22.678"/>
	<g>
		<g>
			<rect x="0.001" y="11.956" fill="#FFFFFF" width="22.678" height="0.889"/>
		</g>
		<g>
			<path fill="#FFFFFF" d="M7.498,3.607c0,1.104-0.669,1.733-1.572,1.733c-0.933,0-1.519-0.713-1.519-1.675
				c0-1.016,0.64-1.729,1.567-1.729C6.932,1.938,7.498,2.665,7.498,3.607z M5.042,3.651c0,0.674,0.337,1.206,0.913,1.206
				c0.581,0,0.908-0.542,0.908-1.23c0-0.62-0.308-1.206-0.908-1.206C5.359,2.421,5.042,2.973,5.042,3.651z"/>
			<path fill="#FFFFFF" d="M7.996,1.82h0.601v1.416h0.01c0.146-0.229,0.405-0.381,0.762-0.381c0.581,0,0.996,0.483,0.991,1.206
				c0,0.854-0.542,1.279-1.079,1.279c-0.308,0-0.581-0.117-0.752-0.41h-0.01L8.489,5.287H7.976c0.01-0.161,0.02-0.425,0.02-0.669
				V1.82z M8.596,4.306c0,0.049,0.005,0.098,0.015,0.142c0.063,0.244,0.273,0.42,0.532,0.42c0.376,0,0.605-0.298,0.605-0.781
				c0-0.42-0.2-0.762-0.601-0.762c-0.244,0-0.469,0.176-0.532,0.439c-0.01,0.044-0.02,0.098-0.02,0.156V4.306z"/>
			<path fill="#FFFFFF" d="M10.328,5.858c0.195-0.015,0.352-0.068,0.449-0.171c0.112-0.122,0.156-0.308,0.156-0.825V2.909h0.601
				v2.124c0,0.493-0.098,0.801-0.313,1.016c-0.205,0.195-0.537,0.278-0.835,0.278L10.328,5.858z M11.573,2.245
				c0,0.176-0.127,0.322-0.342,0.322c-0.205,0-0.332-0.146-0.332-0.322c0-0.186,0.137-0.327,0.342-0.327
				C11.441,1.918,11.568,2.06,11.573,2.245z"/>
			<path fill="#FFFFFF" d="M12.6,4.267c0.015,0.43,0.347,0.615,0.732,0.615c0.278,0,0.474-0.044,0.659-0.107l0.088,0.41
				c-0.205,0.088-0.488,0.151-0.83,0.151c-0.771,0-1.226-0.474-1.226-1.201c0-0.659,0.4-1.279,1.162-1.279
				c0.771,0,1.025,0.635,1.025,1.157c0,0.112-0.01,0.2-0.02,0.254H12.6z M13.645,3.847c0.005-0.22-0.093-0.581-0.493-0.581
				c-0.371,0-0.527,0.337-0.552,0.581H13.645z"/>
			<path fill="#FFFFFF" d="M14.698,3.617c0-0.273-0.01-0.503-0.02-0.708h0.513l0.029,0.352h0.015
				c0.112-0.186,0.327-0.405,0.732-0.405c0.313,0,0.557,0.176,0.659,0.439h0.01c0.083-0.132,0.181-0.229,0.288-0.298
				c0.137-0.093,0.288-0.142,0.488-0.142c0.391,0,0.791,0.269,0.791,1.03v1.401h-0.586V3.974c0-0.396-0.137-0.63-0.425-0.63
				c-0.205,0-0.356,0.146-0.42,0.317c-0.02,0.054-0.029,0.132-0.029,0.2v1.426h-0.586V3.91c0-0.332-0.132-0.566-0.41-0.566
				c-0.225,0-0.376,0.176-0.435,0.337c-0.02,0.063-0.029,0.132-0.029,0.2v1.406h-0.586V3.617z"/>
			<path fill="#FFFFFF" d="M0.896,6.32h0.601v1.416h0.01c0.146-0.229,0.405-0.381,0.762-0.381c0.581,0,0.996,0.483,0.991,1.206
				c0,0.854-0.542,1.279-1.079,1.279c-0.308,0-0.581-0.117-0.752-0.41h-0.01L1.39,9.787H0.877c0.01-0.161,0.02-0.425,0.02-0.669
				V6.32z M1.497,8.806c0,0.049,0.005,0.098,0.015,0.142c0.063,0.244,0.273,0.42,0.532,0.42c0.376,0,0.605-0.298,0.605-0.781
				c0-0.42-0.2-0.762-0.601-0.762C1.805,7.824,1.58,8,1.517,8.264c-0.01,0.044-0.02,0.098-0.02,0.156V8.806z"/>
			<path fill="#FFFFFF" d="M5.739,9.074c0,0.283,0.01,0.518,0.02,0.713H5.236L5.207,9.431H5.192c-0.103,0.166-0.337,0.41-0.767,0.41
				S3.6,9.582,3.6,8.806V7.409h0.601v1.294c0,0.396,0.127,0.649,0.444,0.649c0.244,0,0.4-0.166,0.459-0.322
				c0.024-0.049,0.034-0.117,0.034-0.186V7.409h0.601V9.074z"/>
			<path fill="#FFFFFF" d="M6.245,6.32h0.601v1.416h0.01c0.146-0.229,0.405-0.381,0.762-0.381c0.581,0,0.996,0.483,0.991,1.206
				c0,0.854-0.542,1.279-1.079,1.279c-0.308,0-0.581-0.117-0.752-0.41h-0.01L6.738,9.787H6.226c0.01-0.161,0.02-0.425,0.02-0.669
				V6.32z M6.846,8.806c0,0.049,0.005,0.098,0.015,0.142c0.063,0.244,0.273,0.42,0.532,0.42c0.376,0,0.605-0.298,0.605-0.781
				c0-0.42-0.2-0.762-0.601-0.762C7.153,7.824,6.929,8,6.865,8.264c-0.01,0.044-0.02,0.098-0.02,0.156V8.806z"/>
			<path fill="#FFFFFF" d="M8.958,8.117c0-0.273-0.01-0.503-0.02-0.708h0.522l0.029,0.356h0.015c0.107-0.186,0.366-0.41,0.762-0.41
				c0.415,0,0.845,0.269,0.845,1.021v1.411h-0.601V8.444c0-0.342-0.127-0.601-0.454-0.601c-0.239,0-0.405,0.171-0.469,0.352
				c-0.02,0.049-0.029,0.122-0.029,0.19v1.401H8.958V8.117z"/>
			<path fill="#FFFFFF" d="M13.737,9.074c0,0.283,0.01,0.518,0.02,0.713h-0.522l-0.029-0.356H13.19
				c-0.103,0.166-0.337,0.41-0.767,0.41s-0.825-0.259-0.825-1.035V7.409h0.601v1.294c0,0.396,0.127,0.649,0.444,0.649
				c0.244,0,0.4-0.166,0.459-0.322c0.024-0.049,0.034-0.117,0.034-0.186V7.409h0.601V9.074z"/>
			<path fill="#FFFFFF" d="M15.752,6.403c-0.313,0.464-0.547,1.108-0.547,1.987c0,0.864,0.239,1.504,0.547,1.973h-0.435
				c-0.283-0.391-0.596-1.03-0.596-1.973c0.005-0.957,0.313-1.592,0.596-1.987H15.752z"/>
			<path fill="#FFFFFF" d="M16.667,8.454h0.01c0.059-0.093,0.127-0.195,0.186-0.278l0.581-0.767h0.723l-0.884,0.972l1.006,1.406
				h-0.737l-0.684-1.05l-0.2,0.239v0.811h-0.601V6.32h0.601V8.454z"/>
			<path fill="#FFFFFF" d="M20.527,9.44c0,0.498-0.103,0.854-0.352,1.079c-0.244,0.22-0.591,0.288-0.918,0.288
				c-0.303,0-0.625-0.068-0.83-0.19l0.132-0.454c0.151,0.088,0.405,0.181,0.693,0.181c0.391,0,0.684-0.205,0.684-0.718V9.421h-0.01
				c-0.137,0.21-0.376,0.352-0.693,0.352c-0.591,0-1.011-0.488-1.011-1.162c0-0.781,0.508-1.255,1.079-1.255
				c0.366,0,0.576,0.176,0.688,0.371H20l0.024-0.317h0.522c-0.01,0.161-0.02,0.356-0.02,0.684V9.44z M19.927,8.361
				c0-0.059-0.005-0.112-0.02-0.161c-0.063-0.22-0.234-0.386-0.488-0.386c-0.337,0-0.586,0.293-0.586,0.776
				c0,0.405,0.205,0.732,0.581,0.732c0.225,0,0.42-0.146,0.488-0.366c0.02-0.059,0.024-0.142,0.024-0.21V8.361z"/>
			<path fill="#FFFFFF" d="M20.843,10.363c0.308-0.464,0.547-1.113,0.547-1.982s-0.239-1.509-0.547-1.978h0.435
				c0.283,0.386,0.596,1.021,0.596,1.978c-0.005,0.952-0.313,1.587-0.596,1.982H20.843z"/>
		</g>
		<g>
			<path fill="#FFFFFF" d="M13.207,15.059v0.672l-2.337,4.853H9.773l2.329-4.641v-0.017H9.493v-0.867H13.207z"/>
		</g>
	</g>
</g>
</svg>
