<?xml version="1.0" encoding="utf-8"?>
<!-- Generator: Adobe Illustrator 16.0.3, SVG Export Plug-In . SVG Version: 6.00 Build 0)  -->
<!DOCTYPE svg PUBLIC "-//W3C//DTD SVG 1.1//EN" "http://www.w3.org/Graphics/SVG/1.1/DTD/svg11.dtd">
<svg version="1.1" xmlns="http://www.w3.org/2000/svg" xmlns:xlink="http://www.w3.org/1999/xlink" x="0px" y="0px" width="22.68px"
	 height="22.68px" viewBox="0 0 22.68 22.68" enable-background="new 0 0 22.68 22.68" xml:space="preserve">
<g id="BCGRND">
</g>
<g id="IKONY">
	<rect fill="#585857" width="22.677" height="22.677"/>
	<g>
		<rect x="0.002" y="7.77" fill="#FFFFFF" width="22.676" height="0.889"/>
		<g>
			<g>
				<path fill="#FFFFFF" d="M5.088,3.891c0,1.104-0.669,1.733-1.572,1.733c-0.933,0-1.519-0.713-1.519-1.675
					c0-1.016,0.64-1.729,1.567-1.729C4.522,2.221,5.088,2.948,5.088,3.891z M2.632,3.935c0,0.674,0.337,1.206,0.913,1.206
					c0.581,0,0.908-0.542,0.908-1.23c0-0.62-0.308-1.206-0.908-1.206C2.95,2.704,2.632,3.256,2.632,3.935z"/>
				<path fill="#FFFFFF" d="M5.635,2.104h0.601V3.52h0.01C6.392,3.29,6.65,3.139,7.007,3.139c0.581,0,0.996,0.483,0.991,1.206
					c0,0.854-0.542,1.279-1.079,1.279c-0.308,0-0.581-0.117-0.752-0.41h-0.01L6.128,5.57H5.615c0.01-0.161,0.02-0.425,0.02-0.669
					V2.104z M6.235,4.589c0,0.049,0.005,0.098,0.015,0.142c0.063,0.244,0.273,0.42,0.532,0.42c0.376,0,0.605-0.298,0.605-0.781
					c0-0.42-0.2-0.762-0.601-0.762c-0.244,0-0.469,0.176-0.532,0.439c-0.01,0.044-0.02,0.098-0.02,0.156V4.589z"/>
				<path fill="#FFFFFF" d="M8.016,6.142c0.195-0.015,0.352-0.068,0.449-0.171c0.112-0.122,0.156-0.308,0.156-0.825V3.192h0.601
					v2.124c0,0.493-0.098,0.801-0.313,1.016C8.705,6.527,8.373,6.61,8.075,6.61L8.016,6.142z M9.261,2.528
					c0,0.176-0.127,0.322-0.342,0.322c-0.205,0-0.332-0.146-0.332-0.322c0-0.186,0.137-0.327,0.342-0.327
					C9.129,2.201,9.256,2.343,9.261,2.528z"/>
				<path fill="#FFFFFF" d="M10.337,4.55c0.015,0.43,0.347,0.615,0.732,0.615c0.278,0,0.474-0.044,0.659-0.107l0.088,0.41
					c-0.205,0.088-0.488,0.151-0.83,0.151c-0.771,0-1.226-0.474-1.226-1.201c0-0.659,0.4-1.279,1.162-1.279
					c0.771,0,1.025,0.635,1.025,1.157c0,0.112-0.01,0.2-0.02,0.254H10.337z M11.382,4.13c0.005-0.22-0.093-0.581-0.493-0.581
					c-0.371,0-0.527,0.337-0.552,0.581H11.382z"/>
				<path fill="#FFFFFF" d="M12.484,3.9c0-0.273-0.01-0.503-0.02-0.708h0.513l0.029,0.352h0.015
					c0.112-0.186,0.327-0.405,0.732-0.405c0.313,0,0.557,0.176,0.659,0.439h0.01c0.083-0.132,0.181-0.229,0.288-0.298
					c0.137-0.093,0.288-0.142,0.488-0.142c0.391,0,0.791,0.269,0.791,1.03V5.57h-0.586V4.257c0-0.396-0.137-0.63-0.425-0.63
					c-0.205,0-0.356,0.146-0.42,0.317c-0.02,0.054-0.029,0.132-0.029,0.2V5.57h-0.586V4.193c0-0.332-0.132-0.566-0.41-0.566
					c-0.225,0-0.376,0.176-0.435,0.337c-0.02,0.063-0.029,0.132-0.029,0.2V5.57h-0.586V3.9z"/>
				<path fill="#FFFFFF" d="M17.968,2.187c-0.313,0.464-0.547,1.108-0.547,1.987c0,0.864,0.239,1.504,0.547,1.973h-0.435
					c-0.283-0.391-0.596-1.03-0.596-1.973c0.005-0.957,0.313-1.592,0.596-1.987H17.968z"/>
				<path fill="#FFFFFF" d="M18.478,2.104h0.601V5.57h-0.601V2.104z"/>
				<path fill="#FFFFFF" d="M19.598,6.146c0.308-0.464,0.547-1.113,0.547-1.982s-0.239-1.509-0.547-1.978h0.435
					c0.283,0.386,0.596,1.021,0.596,1.978c-0.005,0.952-0.313,1.587-0.596,1.982H19.598z"/>
			</g>
		</g>
		<g>
			<path fill="#FFFFFF" d="M7.732,12.545H7.706l-1.587,0.801l-0.28-1.24l2.121-1.041h1.36v8.669H7.732V12.545z"/>
			<path fill="#FFFFFF" d="M17.16,11.064v1.054l-3.667,7.615h-1.72l3.654-7.281v-0.027h-4.094v-1.36H17.16z"/>
		</g>
	</g>
</g>
</svg>
