<?xml version="1.0" encoding="utf-8"?>
<!-- Generator: Adobe Illustrator 16.0.3, SVG Export Plug-In . SVG Version: 6.00 Build 0)  -->
<!DOCTYPE svg PUBLIC "-//W3C//DTD SVG 1.1//EN" "http://www.w3.org/Graphics/SVG/1.1/DTD/svg11.dtd">
<svg version="1.1" xmlns="http://www.w3.org/2000/svg" xmlns:xlink="http://www.w3.org/1999/xlink" x="0px" y="0px" width="22.68px"
	 height="22.68px" viewBox="0 0 22.68 22.68" enable-background="new 0 0 22.68 22.68" xml:space="preserve">
<g id="BCGRND">
</g>
<g id="IKONY">
	<rect x="0" fill="#585857" width="22.678" height="22.677"/>
	<g>
		<rect x="0.002" y="7.77" fill="#FFFFFF" width="22.676" height="0.889"/>
		<g>
			<g>
				<path fill="#FFFFFF" d="M5.088,3.89c0,1.104-0.668,1.733-1.572,1.733c-0.932,0-1.518-0.713-1.518-1.675
					c0-1.016,0.639-1.729,1.566-1.729C4.521,2.22,5.088,2.947,5.088,3.89z M2.633,3.934c0,0.674,0.336,1.206,0.912,1.206
					c0.582,0,0.908-0.542,0.908-1.23c0-0.62-0.307-1.206-0.908-1.206C2.949,2.703,2.633,3.255,2.633,3.934z"/>
				<path fill="#FFFFFF" d="M5.635,2.103h0.601v1.416h0.01C6.391,3.289,6.65,3.138,7.007,3.138c0.581,0,0.996,0.483,0.991,1.206
					c0,0.854-0.542,1.279-1.079,1.279c-0.308,0-0.581-0.117-0.752-0.41h-0.01L6.128,5.569H5.615c0.01-0.161,0.02-0.425,0.02-0.669
					V2.103z M6.235,4.588c0,0.049,0.005,0.098,0.015,0.142c0.063,0.244,0.273,0.42,0.532,0.42c0.376,0,0.605-0.298,0.605-0.781
					c0-0.42-0.2-0.762-0.601-0.762c-0.244,0-0.469,0.176-0.532,0.439c-0.01,0.044-0.02,0.098-0.02,0.156V4.588z"/>
				<path fill="#FFFFFF" d="M8.015,6.141C8.211,6.126,8.367,6.072,8.465,5.97c0.113-0.122,0.156-0.308,0.156-0.825V3.191h0.602
					v2.124c0,0.493-0.098,0.801-0.313,1.016C8.705,6.526,8.373,6.609,8.074,6.609L8.015,6.141z M9.261,2.527
					c0,0.176-0.127,0.322-0.342,0.322c-0.205,0-0.332-0.146-0.332-0.322c0-0.186,0.137-0.327,0.342-0.327
					C9.129,2.2,9.256,2.342,9.261,2.527z"/>
				<path fill="#FFFFFF" d="M10.338,4.549c0.014,0.43,0.346,0.615,0.732,0.615c0.277,0,0.473-0.044,0.658-0.107l0.088,0.41
					c-0.205,0.088-0.488,0.151-0.83,0.151c-0.771,0-1.225-0.474-1.225-1.201c0-0.659,0.4-1.279,1.162-1.279
					c0.771,0,1.025,0.635,1.025,1.157c0,0.112-0.01,0.2-0.02,0.254H10.338z M11.383,4.129c0.004-0.22-0.094-0.581-0.494-0.581
					c-0.371,0-0.527,0.337-0.551,0.581H11.383z"/>
				<path fill="#FFFFFF" d="M12.484,3.899c0-0.273-0.01-0.503-0.02-0.708h0.512l0.029,0.352h0.016
					c0.111-0.186,0.326-0.405,0.732-0.405c0.313,0,0.557,0.176,0.658,0.439h0.01c0.084-0.132,0.182-0.229,0.289-0.298
					c0.137-0.093,0.287-0.142,0.488-0.142c0.391,0,0.791,0.269,0.791,1.03v1.401h-0.586V4.256c0-0.396-0.137-0.63-0.426-0.63
					c-0.205,0-0.355,0.146-0.42,0.317c-0.02,0.054-0.029,0.132-0.029,0.2v1.426h-0.586V4.192c0-0.332-0.131-0.566-0.41-0.566
					c-0.225,0-0.375,0.176-0.434,0.337c-0.02,0.063-0.029,0.132-0.029,0.2v1.406h-0.586V3.899z"/>
				<path fill="#FFFFFF" d="M17.969,2.186c-0.313,0.464-0.547,1.108-0.547,1.987c0,0.864,0.238,1.504,0.547,1.973h-0.436
					c-0.283-0.391-0.596-1.03-0.596-1.973c0.006-0.957,0.313-1.592,0.596-1.987H17.969z"/>
				<path fill="#FFFFFF" d="M18.478,2.103h0.6v3.467h-0.6V2.103z"/>
				<path fill="#FFFFFF" d="M19.597,6.146c0.308-0.464,0.547-1.113,0.547-1.982s-0.239-1.509-0.547-1.978h0.435
					c0.283,0.386,0.596,1.021,0.596,1.978c-0.005,0.952-0.313,1.587-0.596,1.982H19.597z"/>
			</g>
		</g>
		<g>
			<path fill="#FFFFFF" d="M4.691,19.732v-1l1.026-0.947c2.04-1.894,3.001-2.934,3.015-4.081c0-0.773-0.414-1.453-1.547-1.453
				c-0.773,0-1.414,0.387-1.854,0.72l-0.479-1.16c0.627-0.507,1.573-0.894,2.667-0.894c1.921,0,2.854,1.214,2.854,2.627
				c0,1.521-1.094,2.748-2.615,4.148l-0.746,0.653v0.026h3.547v1.36H4.691z"/>
			<path fill="#FFFFFF" d="M17.187,12.424h-3.334l-0.254,1.734c0.187-0.027,0.359-0.04,0.613-0.04c0.76,0,1.533,0.173,2.107,0.56
				c0.653,0.414,1.133,1.147,1.133,2.201c0,1.653-1.373,3-3.494,3c-1.014,0-1.854-0.253-2.307-0.507l0.334-1.24
				c0.373,0.2,1.119,0.454,1.906,0.454c0.961,0,1.881-0.547,1.881-1.574c0-1-0.733-1.653-2.454-1.653
				c-0.493,0-0.854,0.04-1.187,0.08l0.56-4.375h4.495V12.424z"/>
		</g>
	</g>
</g>
</svg>
