<?xml version="1.0" encoding="utf-8"?>
<!-- Generator: Adobe Illustrator 16.0.3, SVG Export Plug-In . SVG Version: 6.00 Build 0)  -->
<!DOCTYPE svg PUBLIC "-//W3C//DTD SVG 1.1//EN" "http://www.w3.org/Graphics/SVG/1.1/DTD/svg11.dtd">
<svg version="1.1" xmlns="http://www.w3.org/2000/svg" xmlns:xlink="http://www.w3.org/1999/xlink" x="0px" y="0px" width="22.68px"
	 height="22.68px" viewBox="0 0 22.68 22.68" enable-background="new 0 0 22.68 22.68" xml:space="preserve">
<g id="BCGRND">
</g>
<g id="IKONY">
	<rect x="0" fill="#585857" width="22.678" height="22.677"/>
	<g>
		<rect x="0" y="7.77" fill="#FFFFFF" width="22.676" height="0.889"/>
		<g>
			<g>
				<path fill="#FFFFFF" d="M5.087,3.89c0,1.104-0.669,1.733-1.572,1.733c-0.933,0-1.519-0.713-1.519-1.675
					c0-1.016,0.64-1.729,1.567-1.729C4.521,2.22,5.087,2.948,5.087,3.89z M2.631,3.934c0,0.674,0.337,1.206,0.913,1.206
					c0.581,0,0.908-0.542,0.908-1.23c0-0.62-0.308-1.206-0.908-1.206C2.948,2.704,2.631,3.255,2.631,3.934z"/>
				<path fill="#FFFFFF" d="M5.633,2.103h0.602v1.416h0.01C6.391,3.29,6.649,3.138,7.006,3.138c0.58,0,0.996,0.483,0.99,1.206
					c0,0.854-0.541,1.279-1.078,1.279c-0.309,0-0.582-0.117-0.752-0.41h-0.01L6.127,5.57H5.614c0.01-0.161,0.02-0.425,0.02-0.669
					V2.103z M6.235,4.588c0,0.049,0.004,0.098,0.014,0.142c0.064,0.244,0.273,0.42,0.533,0.42c0.375,0,0.605-0.298,0.605-0.781
					c0-0.42-0.201-0.762-0.602-0.762c-0.244,0-0.469,0.176-0.531,0.439c-0.01,0.044-0.02,0.098-0.02,0.156V4.588z"/>
				<path fill="#FFFFFF" d="M8.015,6.141C8.21,6.126,8.366,6.073,8.464,5.97C8.576,5.848,8.62,5.663,8.62,5.145V3.192h0.601v2.124
					c0,0.493-0.098,0.801-0.313,1.016C8.703,6.527,8.371,6.61,8.073,6.61L8.015,6.141z M9.26,2.528c0,0.176-0.127,0.322-0.342,0.322
					c-0.205,0-0.332-0.146-0.332-0.322c0-0.186,0.137-0.327,0.342-0.327C9.128,2.201,9.255,2.342,9.26,2.528z"/>
				<path fill="#FFFFFF" d="M10.336,4.549c0.015,0.43,0.347,0.615,0.732,0.615c0.278,0,0.474-0.044,0.659-0.107l0.088,0.41
					c-0.205,0.088-0.488,0.151-0.83,0.151c-0.771,0-1.226-0.474-1.226-1.201c0-0.659,0.4-1.279,1.162-1.279
					c0.771,0,1.025,0.635,1.025,1.157c0,0.112-0.01,0.2-0.02,0.254H10.336z M11.381,4.129c0.005-0.22-0.093-0.581-0.493-0.581
					c-0.371,0-0.527,0.337-0.552,0.581H11.381z"/>
				<path fill="#FFFFFF" d="M12.483,3.9c0-0.273-0.01-0.503-0.02-0.708h0.513l0.029,0.352h0.015
					c0.112-0.186,0.327-0.405,0.732-0.405c0.313,0,0.557,0.176,0.659,0.439h0.01c0.083-0.132,0.181-0.229,0.288-0.298
					c0.137-0.093,0.288-0.142,0.488-0.142c0.391,0,0.791,0.269,0.791,1.03V5.57h-0.586V4.256c0-0.396-0.137-0.63-0.425-0.63
					c-0.205,0-0.356,0.146-0.42,0.317c-0.02,0.054-0.029,0.132-0.029,0.2V5.57h-0.586V4.193c0-0.332-0.132-0.566-0.41-0.566
					c-0.225,0-0.376,0.176-0.435,0.337c-0.02,0.063-0.029,0.132-0.029,0.2V5.57h-0.586V3.9z"/>
				<path fill="#FFFFFF" d="M17.967,2.186C17.655,2.65,17.42,3.294,17.42,4.173c0,0.864,0.239,1.504,0.547,1.973h-0.435
					c-0.283-0.391-0.596-1.03-0.596-1.973c0.005-0.957,0.313-1.592,0.596-1.987H17.967z"/>
				<path fill="#FFFFFF" d="M18.477,2.103h0.601V5.57h-0.601V2.103z"/>
				<path fill="#FFFFFF" d="M19.596,6.146c0.309-0.464,0.547-1.113,0.547-1.982s-0.238-1.509-0.547-1.978h0.436
					c0.283,0.386,0.596,1.021,0.596,1.978c-0.006,0.952-0.313,1.587-0.596,1.982H19.596z"/>
			</g>
		</g>
		<g>
			<path fill="#FFFFFF" d="M10.471,12.424H7.137l-0.254,1.734c0.188-0.027,0.36-0.04,0.613-0.04c0.761,0,1.534,0.173,2.107,0.56
				c0.654,0.414,1.134,1.147,1.134,2.201c0,1.653-1.374,3-3.494,3c-1.014,0-1.854-0.253-2.308-0.507l0.334-1.24
				c0.373,0.2,1.12,0.454,1.907,0.454c0.96,0,1.88-0.547,1.88-1.574c0-1-0.732-1.653-2.453-1.653c-0.494,0-0.854,0.04-1.188,0.08
				l0.561-4.375h4.494V12.424z"/>
			<path fill="#FFFFFF" d="M13.979,12.544h-0.027l-1.587,0.801l-0.28-1.24l2.121-1.041h1.359v8.669h-1.586V12.544z"/>
		</g>
	</g>
</g>
</svg>
