<?xml version="1.0" encoding="utf-8"?>
<!-- Generator: Adobe Illustrator 16.0.3, SVG Export Plug-In . SVG Version: 6.00 Build 0)  -->
<!DOCTYPE svg PUBLIC "-//W3C//DTD SVG 1.1//EN" "http://www.w3.org/Graphics/SVG/1.1/DTD/svg11.dtd">
<svg version="1.1" xmlns="http://www.w3.org/2000/svg" xmlns:xlink="http://www.w3.org/1999/xlink" x="0px" y="0px" width="22.68px"
	 height="22.68px" viewBox="0 0 22.68 22.68" enable-background="new 0 0 22.68 22.68" xml:space="preserve">
<g id="BCGRND">
</g>
<g id="IKONY">
	<rect x="0" fill="#585857" width="22.677" height="22.677"/>
	<g>
		<rect x="0.003" y="7.77" fill="#FFFFFF" width="22.676" height="0.889"/>
		<g>
			<g>
				<path fill="#FFFFFF" d="M5.089,3.89c0,1.104-0.668,1.733-1.572,1.733c-0.932,0-1.518-0.713-1.518-1.675
					c0-1.016,0.639-1.729,1.566-1.729C4.522,2.22,5.089,2.947,5.089,3.89z M2.634,3.934c0,0.674,0.336,1.206,0.912,1.206
					c0.582,0,0.908-0.542,0.908-1.23c0-0.62-0.307-1.206-0.908-1.206C2.95,2.703,2.634,3.255,2.634,3.934z"/>
				<path fill="#FFFFFF" d="M5.635,2.103h0.601v1.416h0.01c0.146-0.229,0.405-0.381,0.762-0.381c0.581,0,0.996,0.483,0.991,1.206
					c0,0.854-0.542,1.279-1.079,1.279c-0.308,0-0.581-0.117-0.752-0.41h-0.01L6.129,5.569H5.616c0.01-0.161,0.02-0.425,0.02-0.669
					V2.103z M6.236,4.588c0,0.049,0.005,0.098,0.015,0.142c0.063,0.244,0.273,0.42,0.532,0.42c0.376,0,0.605-0.298,0.605-0.781
					c0-0.42-0.2-0.762-0.601-0.762c-0.244,0-0.469,0.176-0.532,0.439c-0.01,0.044-0.02,0.098-0.02,0.156V4.588z"/>
				<path fill="#FFFFFF" d="M8.016,6.141C8.212,6.126,8.368,6.072,8.466,5.97c0.113-0.122,0.156-0.308,0.156-0.825V3.191h0.602
					v2.124c0,0.493-0.098,0.801-0.313,1.016C8.706,6.526,8.374,6.609,8.075,6.609L8.016,6.141z M9.262,2.527
					c0,0.176-0.127,0.322-0.342,0.322c-0.205,0-0.332-0.146-0.332-0.322C8.589,2.342,8.725,2.2,8.93,2.2
					C9.13,2.2,9.257,2.342,9.262,2.527z"/>
				<path fill="#FFFFFF" d="M10.339,4.549c0.014,0.43,0.346,0.615,0.732,0.615c0.277,0,0.473-0.044,0.658-0.107l0.088,0.41
					c-0.205,0.088-0.488,0.151-0.83,0.151c-0.771,0-1.225-0.474-1.225-1.201c0-0.659,0.4-1.279,1.162-1.279
					c0.771,0,1.025,0.635,1.025,1.157c0,0.112-0.01,0.2-0.02,0.254H10.339z M11.384,4.129c0.004-0.22-0.094-0.581-0.494-0.581
					c-0.371,0-0.527,0.337-0.551,0.581H11.384z"/>
				<path fill="#FFFFFF" d="M12.485,3.899c0-0.273-0.01-0.503-0.02-0.708h0.512l0.029,0.352h0.016
					c0.111-0.186,0.326-0.405,0.732-0.405c0.313,0,0.557,0.176,0.658,0.439h0.01c0.084-0.132,0.182-0.229,0.289-0.298
					c0.137-0.093,0.287-0.142,0.488-0.142c0.391,0,0.791,0.269,0.791,1.03v1.401h-0.586V4.256c0-0.396-0.137-0.63-0.426-0.63
					c-0.205,0-0.355,0.146-0.42,0.317c-0.02,0.054-0.029,0.132-0.029,0.2v1.426h-0.586V4.192c0-0.332-0.131-0.566-0.41-0.566
					c-0.225,0-0.375,0.176-0.434,0.337c-0.02,0.063-0.029,0.132-0.029,0.2v1.406h-0.586V3.899z"/>
				<path fill="#FFFFFF" d="M17.969,2.186c-0.313,0.464-0.547,1.108-0.547,1.987c0,0.864,0.238,1.504,0.547,1.973h-0.436
					c-0.283-0.391-0.596-1.03-0.596-1.973c0.006-0.957,0.313-1.592,0.596-1.987H17.969z"/>
				<path fill="#FFFFFF" d="M18.479,2.103h0.6v3.467h-0.6V2.103z"/>
				<path fill="#FFFFFF" d="M19.598,6.146c0.308-0.464,0.547-1.113,0.547-1.982s-0.239-1.509-0.547-1.978h0.435
					c0.283,0.386,0.596,1.021,0.596,1.978c-0.005,0.952-0.313,1.587-0.596,1.982H19.598z"/>
			</g>
		</g>
		<g>
			<path fill="#FFFFFF" d="M4.684,19.732v-1l1.027-0.947c2.04-1.894,3-2.934,3.014-4.081c0-0.773-0.414-1.453-1.547-1.453
				c-0.773,0-1.414,0.387-1.854,0.72l-0.48-1.16c0.627-0.507,1.574-0.894,2.668-0.894c1.92,0,2.854,1.214,2.854,2.627
				c0,1.521-1.094,2.748-2.614,4.148l-0.747,0.653v0.026h3.548v1.36H4.684z"/>
			<path fill="#FFFFFF" d="M12.007,18.039c0.334,0.2,1.147,0.533,1.975,0.533c1.254,0,1.746-0.707,1.746-1.387
				c0-1.027-0.973-1.468-1.973-1.468h-0.747v-1.2h0.747c0.746,0,1.707-0.347,1.707-1.2c0-0.6-0.428-1.093-1.387-1.093
				c-0.707,0-1.414,0.307-1.774,0.546l-0.374-1.187c0.494-0.333,1.468-0.667,2.494-0.667c1.801,0,2.707,0.987,2.707,2.121
				c0,0.906-0.533,1.653-1.6,2.026v0.027c1.053,0.199,1.894,0.986,1.906,2.16c0,1.467-1.227,2.627-3.373,2.627
				c-1.054,0-1.961-0.293-2.428-0.6L12.007,18.039z"/>
		</g>
	</g>
</g>
</svg>
