<?xml version="1.0" encoding="utf-8"?>
<!-- Generator: Adobe Illustrator 16.0.3, SVG Export Plug-In . SVG Version: 6.00 Build 0)  -->
<!DOCTYPE svg PUBLIC "-//W3C//DTD SVG 1.1//EN" "http://www.w3.org/Graphics/SVG/1.1/DTD/svg11.dtd">
<svg version="1.1" xmlns="http://www.w3.org/2000/svg" xmlns:xlink="http://www.w3.org/1999/xlink" x="0px" y="0px" width="22.68px"
	 height="22.68px" viewBox="0 0 22.68 22.68" enable-background="new 0 0 22.68 22.68" xml:space="preserve">
<g id="BCGRND">
</g>
<g id="IKONY">
	<rect fill="#585857" width="22.677" height="22.677"/>
	<g>
		<g>
			<rect x="0.002" y="7.77" fill="#FFFFFF" width="22.678" height="0.889"/>
		</g>
		<g>
			<g>
				<path fill="#FFFFFF" d="M5.088,3.89c0,1.104-0.669,1.733-1.577,1.733c-0.928,0-1.514-0.708-1.514-1.675
					c0-1.011,0.635-1.724,1.563-1.724C4.522,2.225,5.088,2.953,5.088,3.89z M2.632,3.939c0,0.669,0.337,1.201,0.913,1.201
					c0.581,0,0.908-0.537,0.908-1.226c0-0.62-0.308-1.206-0.908-1.206C2.95,2.708,2.632,3.26,2.632,3.939z"/>
				<path fill="#FFFFFF" d="M5.615,5.57c0.01-0.161,0.02-0.425,0.02-0.669V2.103h0.601v1.416h0.01
					C6.392,3.29,6.65,3.138,7.007,3.138c0.581,0,0.996,0.483,0.991,1.206c0,0.854-0.542,1.279-1.079,1.279
					c-0.308,0-0.581-0.117-0.752-0.41h-0.01L6.128,5.57H5.615z M6.235,4.588c0,0.049,0.005,0.098,0.015,0.142
					c0.063,0.239,0.273,0.42,0.532,0.42c0.376,0,0.605-0.303,0.605-0.781c0-0.42-0.2-0.762-0.601-0.762
					c-0.244,0-0.464,0.176-0.532,0.439c-0.01,0.044-0.02,0.098-0.02,0.156V4.588z"/>
				<path fill="#FFFFFF" d="M8.016,6.122c0.195-0.015,0.352-0.068,0.449-0.171c0.112-0.122,0.156-0.308,0.156-0.825V3.192h0.601
					v2.104c0,0.493-0.093,0.801-0.308,1.016C8.705,6.507,8.373,6.59,8.075,6.59L8.016,6.122z M9.256,2.528
					c0,0.176-0.127,0.322-0.342,0.322c-0.2,0-0.327-0.146-0.327-0.322c0-0.186,0.132-0.327,0.337-0.327S9.256,2.342,9.256,2.528z"/>
				<path fill="#FFFFFF" d="M10.337,4.549c0.015,0.43,0.352,0.615,0.732,0.615c0.278,0,0.479-0.039,0.659-0.107l0.088,0.415
					c-0.205,0.083-0.488,0.146-0.83,0.146c-0.771,0-1.226-0.474-1.226-1.201c0-0.659,0.4-1.279,1.162-1.279
					c0.771,0,1.025,0.635,1.025,1.157c0,0.112-0.01,0.2-0.02,0.254H10.337z M11.382,4.129c0.005-0.22-0.093-0.581-0.493-0.581
					c-0.371,0-0.527,0.337-0.552,0.581H11.382z"/>
				<path fill="#FFFFFF" d="M12.484,3.9c0-0.273-0.005-0.503-0.02-0.708h0.518l0.024,0.352h0.015
					c0.117-0.186,0.332-0.405,0.732-0.405c0.313,0,0.557,0.176,0.659,0.439h0.01c0.083-0.132,0.181-0.229,0.293-0.298
					c0.132-0.093,0.283-0.142,0.479-0.142c0.396,0,0.796,0.269,0.796,1.03V5.57h-0.586V4.256c0-0.396-0.137-0.63-0.425-0.63
					c-0.205,0-0.356,0.146-0.42,0.317c-0.015,0.059-0.029,0.132-0.029,0.2V5.57h-0.586V4.193c0-0.332-0.132-0.566-0.41-0.566
					c-0.225,0-0.376,0.176-0.43,0.342C13.08,4.027,13.07,4.095,13.07,4.164V5.57h-0.586V3.9z"/>
				<path fill="#FFFFFF" d="M17.968,2.186c-0.313,0.464-0.552,1.108-0.552,1.987c0,0.864,0.244,1.504,0.552,1.973h-0.439
					c-0.278-0.391-0.591-1.025-0.591-1.973c0.005-0.952,0.313-1.592,0.591-1.987H17.968z"/>
				<path fill="#FFFFFF" d="M18.478,2.103h0.605V5.57h-0.605V2.103z"/>
				<path fill="#FFFFFF" d="M19.598,6.146c0.307-0.464,0.547-1.113,0.547-1.982s-0.24-1.509-0.547-1.978h0.434
					c0.283,0.391,0.596,1.025,0.596,1.982c-0.004,0.952-0.313,1.582-0.596,1.978H19.598z"/>
			</g>
		</g>
		<g>
			<path fill="#FFFFFF" d="M7.41,12.544H7.383l-1.587,0.801l-0.28-1.24l2.107-1.041h1.374v8.669H7.41V12.544z"/>
			<path fill="#FFFFFF" d="M11.118,17.505c0-1.08,0.626-1.813,1.627-2.254v-0.039c-0.907-0.44-1.32-1.161-1.32-1.921
				c0-1.414,1.253-2.374,2.895-2.374c1.866,0,2.72,1.12,2.72,2.188c0,0.733-0.387,1.493-1.333,1.96v0.04
				c0.946,0.36,1.653,1.107,1.653,2.188c0,1.547-1.308,2.587-3.161,2.587C12.171,19.879,11.118,18.719,11.118,17.505z
				 M15.692,17.425c0-0.88-0.654-1.359-1.613-1.627c-0.814,0.24-1.281,0.801-1.281,1.521c-0.027,0.733,0.533,1.4,1.454,1.4
				C15.118,18.719,15.692,18.172,15.692,17.425z M12.984,13.225c0,0.707,0.586,1.134,1.415,1.36c0.586-0.174,1.08-0.653,1.08-1.308
				c0-0.6-0.361-1.227-1.24-1.227C13.411,12.051,12.984,12.598,12.984,13.225z"/>
		</g>
	</g>
</g>
</svg>
