<?xml version="1.0" encoding="utf-8"?>
<!-- Generator: Adobe Illustrator 16.0.3, SVG Export Plug-In . SVG Version: 6.00 Build 0)  -->
<!DOCTYPE svg PUBLIC "-//W3C//DTD SVG 1.1//EN" "http://www.w3.org/Graphics/SVG/1.1/DTD/svg11.dtd">
<svg version="1.1" xmlns="http://www.w3.org/2000/svg" xmlns:xlink="http://www.w3.org/1999/xlink" x="0px" y="0px" width="22.68px"
	 height="22.68px" viewBox="0 0 22.68 22.68" enable-background="new 0 0 22.68 22.68" xml:space="preserve">
<g id="BCGRND">
	<polygon fill="#585857" points="22.678,16.335 22.678,0 0,0 0,22.678 14.118,22.678 22.678,22.678 	"/>
</g>
<g id="IKONY">
	<g>
		<g>
			<line fill="none" stroke="#FFFFFF" stroke-width="0.8889" stroke-miterlimit="10" x1="0" y1="12.4" x2="22.678" y2="12.4"/>
			<g>
				<g>
					<path fill="#FFFFFF" d="M4.551,3.606c0,1.104-0.669,1.733-1.577,1.733c-0.928,0-1.514-0.708-1.514-1.675
						c0-1.011,0.635-1.724,1.563-1.724C3.984,1.941,4.551,2.669,4.551,3.606z M2.095,3.655c0,0.669,0.337,1.201,0.913,1.201
						c0.581,0,0.908-0.537,0.908-1.226c0-0.62-0.308-1.206-0.908-1.206C2.412,2.425,2.095,2.977,2.095,3.655z"/>
					<path fill="#FFFFFF" d="M7.241,1.819v2.798c0,0.244,0.01,0.508,0.02,0.669H6.723L6.699,4.91h-0.01
						c-0.142,0.264-0.43,0.43-0.776,0.43c-0.566,0-1.016-0.483-1.016-1.216c-0.005-0.796,0.493-1.27,1.064-1.27
						c0.327,0,0.562,0.137,0.669,0.313h0.01V1.819H7.241z M6.64,3.899c0-0.049-0.005-0.107-0.015-0.156
						C6.572,3.509,6.381,3.318,6.108,3.318c-0.386,0-0.601,0.342-0.601,0.786c0,0.435,0.215,0.752,0.596,0.752
						c0.244,0,0.459-0.166,0.518-0.425c0.015-0.054,0.02-0.112,0.02-0.176V3.899z"/>
					<path fill="#FFFFFF" d="M7.889,1.819h0.605v3.467H7.889V1.819z"/>
					<path fill="#FFFFFF" d="M11.406,4.075c0,0.874-0.615,1.265-1.221,1.265c-0.674,0-1.191-0.464-1.191-1.226
						c0-0.781,0.513-1.26,1.23-1.26C10.932,2.854,11.406,3.353,11.406,4.075z M9.614,4.1c0,0.459,0.225,0.806,0.591,0.806
						c0.342,0,0.581-0.337,0.581-0.815c0-0.371-0.166-0.796-0.576-0.796C9.785,3.294,9.614,3.704,9.614,4.1z"/>
					<path fill="#FFFFFF" d="M11.639,4.939l0.894-1.143c0.122-0.146,0.225-0.264,0.352-0.4v-0.01h-1.157V2.908h1.89v0.366
						l-0.874,1.118c-0.117,0.142-0.229,0.278-0.352,0.405v0.01h1.255v0.479h-2.007V4.939z M12.479,2.601L12,1.878h0.415l0.264,0.444
						h0.01l0.269-0.444h0.41l-0.474,0.723H12.479z"/>
					<path fill="#FFFFFF" d="M14.454,4.266c0.015,0.43,0.352,0.615,0.732,0.615c0.278,0,0.479-0.039,0.659-0.107l0.088,0.415
						c-0.205,0.083-0.488,0.146-0.83,0.146c-0.771,0-1.226-0.474-1.226-1.201c0-0.659,0.4-1.279,1.162-1.279
						c0.771,0,1.025,0.635,1.025,1.157c0,0.112-0.01,0.2-0.02,0.254H14.454z M15.499,3.846c0.005-0.22-0.093-0.581-0.493-0.581
						c-0.371,0-0.527,0.337-0.552,0.581H15.499z"/>
					<path fill="#FFFFFF" d="M16.552,3.616c0-0.273-0.005-0.503-0.02-0.708h0.527l0.029,0.356h0.015
						c0.103-0.186,0.361-0.41,0.757-0.41c0.415,0,0.845,0.269,0.845,1.021v1.411h-0.601V3.943c0-0.342-0.127-0.601-0.454-0.601
						c-0.239,0-0.405,0.171-0.469,0.352c-0.02,0.054-0.024,0.127-0.024,0.195v1.396h-0.605V3.616z"/>
					<path fill="#FFFFFF" d="M19.646,2.908l0.43,1.274c0.049,0.146,0.098,0.327,0.132,0.464h0.015
						c0.039-0.137,0.083-0.313,0.127-0.469l0.371-1.27h0.645l-0.596,1.621c-0.327,0.889-0.547,1.284-0.83,1.528
						c-0.234,0.21-0.479,0.288-0.63,0.308l-0.137-0.508c0.103-0.024,0.229-0.078,0.352-0.166c0.112-0.073,0.244-0.215,0.327-0.376
						c0.024-0.044,0.039-0.078,0.039-0.107c0-0.024-0.005-0.059-0.034-0.117l-0.869-2.183H19.646z M20.964,1.878l-0.601,0.723
						h-0.415l0.425-0.723H20.964z"/>
					<path fill="#FFFFFF" d="M6.728,9.234c0.137,0.083,0.396,0.171,0.61,0.171c0.264,0,0.381-0.107,0.381-0.264
						c0-0.161-0.098-0.244-0.391-0.347C6.865,8.634,6.669,8.38,6.674,8.102c0-0.42,0.347-0.747,0.898-0.747
						c0.264,0,0.493,0.068,0.63,0.142L8.085,7.921C7.983,7.862,7.792,7.784,7.583,7.784c-0.215,0-0.332,0.103-0.332,0.249
						c0,0.151,0.112,0.225,0.415,0.332c0.43,0.156,0.63,0.376,0.635,0.728c0,0.43-0.337,0.742-0.967,0.742
						c-0.288,0-0.547-0.068-0.723-0.166L6.728,9.234z"/>
					<path fill="#FFFFFF" d="M9.484,6.729v0.679h0.571v0.449H9.484v1.05c0,0.288,0.078,0.439,0.308,0.439
						c0.103,0,0.181-0.015,0.234-0.029l0.01,0.459C9.948,9.811,9.792,9.835,9.602,9.835c-0.22,0-0.405-0.073-0.518-0.195
						C8.957,9.503,8.898,9.288,8.898,8.976V7.857H8.557V7.408h0.342V6.871L9.484,6.729z"/>
					<path fill="#FFFFFF" d="M11.85,9.786l-0.039-0.264h-0.015C11.649,9.708,11.4,9.84,11.093,9.84
						c-0.479,0-0.747-0.347-0.747-0.708c0-0.601,0.532-0.903,1.411-0.898V8.194c0-0.156-0.063-0.415-0.483-0.415
						c-0.234,0-0.479,0.073-0.64,0.176l-0.117-0.391c0.176-0.107,0.483-0.21,0.859-0.21c0.762,0,0.981,0.483,0.981,1.001v0.859
						c0,0.215,0.01,0.425,0.034,0.571H11.85z M11.771,8.624c-0.425-0.01-0.83,0.083-0.83,0.444c0,0.234,0.151,0.342,0.342,0.342
						c0.239,0,0.415-0.156,0.469-0.327c0.015-0.044,0.02-0.093,0.02-0.132V8.624z"/>
					<path fill="#FFFFFF" d="M12.995,8.175c0-0.322-0.005-0.552-0.02-0.767h0.522l0.02,0.454h0.02
						c0.117-0.337,0.396-0.508,0.649-0.508c0.059,0,0.093,0.005,0.142,0.015v0.566c-0.049-0.01-0.103-0.02-0.176-0.02
						c-0.288,0-0.483,0.186-0.537,0.454c-0.01,0.054-0.02,0.117-0.02,0.186v1.23h-0.601V8.175z"/>
					<path fill="#FFFFFF" d="M15.536,6.729v0.679h0.571v0.449h-0.571v1.05c0,0.288,0.078,0.439,0.308,0.439
						c0.103,0,0.181-0.015,0.234-0.029l0.01,0.459C16,9.811,15.844,9.835,15.653,9.835c-0.22,0-0.405-0.073-0.518-0.195
						c-0.127-0.137-0.186-0.352-0.186-0.664V7.857h-0.342V7.408h0.342V6.871L15.536,6.729z"/>
				</g>
			</g>
		</g>
		<g opacity="0.5">
			<polygon fill="none" stroke="#FFFFFF" stroke-linecap="round" stroke-miterlimit="10" points="17.511,20.003 20.651,17.855 
				17.511,15.706 			"/>
		</g>
		<g>
			<path fill="none" stroke="#FFFFFF" stroke-linejoin="round" stroke-miterlimit="10" d="M14.741,17.855
				c0,1.879-1.522,3.402-3.401,3.402c-1.88,0-3.401-1.523-3.401-3.402s1.521-3.402,3.401-3.402"/>
			
				<line fill="none" stroke="#FFFFFF" stroke-width="0.5" stroke-linecap="round" stroke-linejoin="round" stroke-miterlimit="10" x1="11.339" y1="16.076" x2="11.339" y2="17.855"/>
			
				<line fill="none" stroke="#FFFFFF" stroke-width="0.5" stroke-linecap="round" stroke-linejoin="round" stroke-miterlimit="10" x1="13.128" y1="17.855" x2="11.339" y2="17.855"/>
			<g>
				<g>
					<path fill="none" stroke="#FFFFFF" stroke-linejoin="round" d="M14.741,17.855c0-0.169-0.013-0.336-0.036-0.499"/>
					<path fill="none" stroke="#FFFFFF" stroke-linejoin="round" stroke-dasharray="0.8672,0.8672" d="M14.469,16.521
						c-0.4-0.938-1.21-1.661-2.205-1.941"/>
					<path fill="none" stroke="#FFFFFF" stroke-linejoin="round" d="M11.838,14.489c-0.163-0.023-0.329-0.036-0.499-0.036"/>
				</g>
			</g>
		</g>
		<g opacity="0.5">
			
				<line fill="none" stroke="#FFFFFF" stroke-linecap="round" stroke-miterlimit="10" x1="5.228" y1="15.706" x2="5.228" y2="20.003"/>
		</g>
		<g opacity="0.5">
			
				<line fill="none" stroke="#FFFFFF" stroke-linecap="round" stroke-miterlimit="10" x1="3.173" y1="15.706" x2="3.173" y2="20.003"/>
		</g>
	</g>
</g>
</svg>
