<?xml version="1.0" encoding="utf-8"?>
<!-- Generator: Adobe Illustrator 16.0.3, SVG Export Plug-In . SVG Version: 6.00 Build 0)  -->
<!DOCTYPE svg PUBLIC "-//W3C//DTD SVG 1.1//EN" "http://www.w3.org/Graphics/SVG/1.1/DTD/svg11.dtd">
<svg version="1.1" xmlns="http://www.w3.org/2000/svg" xmlns:xlink="http://www.w3.org/1999/xlink" x="0px" y="0px" width="22.68px"
	 height="22.68px" viewBox="0 0 22.68 22.68" enable-background="new 0 0 22.68 22.68" xml:space="preserve">
<g id="BCGRND">
</g>
<g id="IKONY">
	<polygon fill="#585857" points="22.678,16.335 22.678,0 0,0 0,22.678 14.117,22.678 22.678,22.678 	"/>
	<rect y="7.77" fill="#FFFFFF" width="22.678" height="0.889"/>
	<g>
		<path fill="#FFFFFF" d="M8.239,3.891c0,1.104-0.669,1.733-1.577,1.733c-0.928,0-1.514-0.708-1.514-1.675
			c0-1.011,0.635-1.724,1.563-1.724C7.673,2.226,8.239,2.953,8.239,3.891z M5.783,3.939c0,0.669,0.337,1.201,0.913,1.201
			c0.581,0,0.908-0.537,0.908-1.226c0-0.62-0.308-1.206-0.908-1.206C6.101,2.709,5.783,3.261,5.783,3.939z"/>
	</g>
	<g>
		<path fill="#FFFFFF" d="M8.629,3.9c0-0.273-0.005-0.503-0.02-0.708h0.527l0.029,0.356h0.015c0.103-0.186,0.361-0.41,0.757-0.41
			c0.415,0,0.845,0.269,0.845,1.021V5.57h-0.601V4.228c0-0.342-0.127-0.601-0.454-0.601c-0.239,0-0.405,0.171-0.469,0.352
			c-0.02,0.054-0.024,0.127-0.024,0.195V5.57H8.629V3.9z"/>
	</g>
	<g>
		<path fill="#FFFFFF" d="M11.728,4.55c0.016,0.43,0.352,0.615,0.732,0.615c0.279,0,0.479-0.039,0.66-0.107l0.088,0.415
			c-0.205,0.083-0.488,0.146-0.83,0.146c-0.771,0-1.227-0.474-1.227-1.201c0-0.659,0.4-1.279,1.162-1.279
			c0.771,0,1.025,0.635,1.025,1.157c0,0.112-0.01,0.2-0.02,0.254H11.728z M12.772,4.13c0.006-0.22-0.092-0.581-0.492-0.581
			c-0.371,0-0.527,0.337-0.553,0.581H12.772z"/>
	</g>
	<g>
		<path fill="#FFFFFF" d="M14.618,2.279h1.899v0.493h-1.299v0.908h1.211v0.493h-1.211V5.57h-0.601V2.279z"/>
	</g>
	<g>
		<path fill="#FFFFFF" d="M17.491,2.528c0,0.181-0.131,0.322-0.342,0.322c-0.199,0-0.332-0.142-0.332-0.322
			c0-0.186,0.137-0.327,0.338-0.327C17.36,2.201,17.487,2.343,17.491,2.528z M16.853,5.57V3.192h0.605V5.57H16.853z"/>
	</g>
	<path opacity="0.3" fill="#FFFFFF" d="M18.801,12.799c-2.06-2.061-4.798-3.196-7.71-3.196s-5.65,1.135-7.709,3.195
		c-0.265,0.265-0.265,0.693,0,0.957c0.264,0.265,0.693,0.265,0.957,0c1.804-1.805,4.201-2.798,6.752-2.798s4.948,0.994,6.753,2.799
		c0.132,0.132,0.306,0.198,0.479,0.198s0.347-0.066,0.479-0.198C19.065,13.492,19.065,13.064,18.801,12.799z M11.091,12.501
		c-2.229,0-4.324,0.869-5.9,2.446c-0.265,0.264-0.265,0.693,0,0.957c0.264,0.265,0.693,0.265,0.957,0
		c1.321-1.321,3.077-2.049,4.943-2.049c1.869,0,3.625,0.728,4.945,2.049c0.132,0.132,0.305,0.198,0.479,0.198
		c0.173,0,0.347-0.066,0.479-0.198c0.265-0.264,0.265-0.693,0-0.958C15.418,13.37,13.321,12.501,11.091,12.501z M11.091,15.398
		c-1.547,0-3.001,0.603-4.094,1.697c-0.265,0.265-0.265,0.693,0,0.958c0.132,0.132,0.306,0.198,0.479,0.198s0.347-0.066,0.479-0.198
		c0.838-0.839,1.952-1.301,3.137-1.301s2.299,0.462,3.138,1.301c0.264,0.265,0.693,0.265,0.957,0c0.265-0.264,0.265-0.693,0-0.957
		C14.091,16.001,12.637,15.398,11.091,15.398z"/>
	<circle fill="#FFFFFF" cx="3.189" cy="15.736" r="0.671"/>
	<circle fill="#FFFFFF" cx="9.839" cy="14.24" r="0.671"/>
	<circle fill="#FFFFFF" cx="4.044" cy="19.73" r="0.671"/>
	<circle fill="#FFFFFF" cx="20.344" cy="16.903" r="0.671"/>
	<circle fill="#FFFFFF" cx="13.383" cy="11.779" r="0.671"/>
	<circle fill="#FFFFFF" cx="17.186" cy="19.73" r="0.671"/>
	<path fill="#FFFFFF" d="M17.186,21.574c-1.016,0-1.843-0.827-1.843-1.843s0.827-1.843,1.843-1.843s1.843,0.827,1.843,1.843
		S18.201,21.574,17.186,21.574z M17.186,18.387c-0.74,0-1.343,0.603-1.343,1.343s0.603,1.343,1.343,1.343s1.343-0.603,1.343-1.343
		S17.926,18.387,17.186,18.387z"/>
	<circle fill="#FFFFFF" cx="18.752" cy="11.438" r="0.671"/>
	<path fill="#FFFFFF" d="M18.752,13.282c-1.016,0-1.843-0.827-1.843-1.843s0.827-1.843,1.843-1.843s1.843,0.827,1.843,1.843
		S19.768,13.282,18.752,13.282z M18.752,10.095c-0.74,0-1.343,0.603-1.343,1.343s0.603,1.343,1.343,1.343s1.343-0.603,1.343-1.343
		S19.492,10.095,18.752,10.095z"/>
	<circle fill="#FFFFFF" cx="5.669" cy="10.74" r="0.671"/>
	<path fill="#FFFFFF" d="M5.669,12.583c-1.016,0-1.843-0.827-1.843-1.843s0.827-1.843,1.843-1.843s1.843,0.827,1.843,1.843
		S6.685,12.583,5.669,12.583z M5.669,9.397c-0.74,0-1.343,0.603-1.343,1.343s0.603,1.343,1.343,1.343s1.343-0.603,1.343-1.343
		S6.409,9.397,5.669,9.397z"/>
	<path fill="#FFFFFF" d="M11.092,20.248c-0.135,0-0.246-0.107-0.25-0.243c-0.004-0.138,0.104-0.253,0.242-0.257l4.512-0.134
		c0.003,0,0.006,0,0.008,0c0.135,0,0.246,0.107,0.25,0.243c0.004,0.138-0.104,0.253-0.242,0.257L11.1,20.248
		C11.097,20.248,11.094,20.248,11.092,20.248z"/>
	<path fill="#FFFFFF" d="M11.092,20.248c-0.086,0-0.169-0.044-0.216-0.124l-4.619-7.883c-0.069-0.119-0.029-0.272,0.09-0.342
		c0.116-0.07,0.271-0.03,0.342,0.089l4.619,7.883c0.069,0.119,0.029,0.272-0.09,0.342C11.179,20.236,11.135,20.248,11.092,20.248z"
		/>
	<path fill="#FFFFFF" d="M11.092,20.248c-0.06,0-0.118-0.021-0.166-0.063c-0.104-0.092-0.112-0.25-0.021-0.353l6.584-7.391
		c0.092-0.103,0.251-0.111,0.353-0.02c0.104,0.092,0.112,0.25,0.021,0.353l-6.584,7.391C11.229,20.219,11.16,20.248,11.092,20.248z"
		/>
	<circle fill="#FFFFFF" cx="11.092" cy="19.997" r="1.62"/>
</g>
</svg>
