<?xml version="1.0" encoding="utf-8"?>
<!-- Generator: Adobe Illustrator 16.0.3, SVG Export Plug-In . SVG Version: 6.00 Build 0)  -->
<!DOCTYPE svg PUBLIC "-//W3C//DTD SVG 1.1//EN" "http://www.w3.org/Graphics/SVG/1.1/DTD/svg11.dtd">
<svg version="1.1" xmlns="http://www.w3.org/2000/svg" xmlns:xlink="http://www.w3.org/1999/xlink" x="0px" y="0px" width="22.68px"
	 height="22.68px" viewBox="0 0 22.68 22.68" enable-background="new 0 0 22.68 22.68" xml:space="preserve">
<g id="BCGRND">
</g>
<g id="IKONY">
	<polygon fill="#585857" points="22.678,16.335 22.678,0 0,0 0,22.678 14.117,22.678 22.678,22.678 	"/>
	<g>
		<rect y="11.956" fill="#FFFFFF" width="22.678" height="0.889"/>
	</g>
	<g>
		<path fill="#FFFFFF" d="M7.932,3.606c0,1.104-0.67,1.733-1.578,1.733c-0.928,0-1.514-0.708-1.514-1.675
			c0-1.011,0.635-1.724,1.563-1.724C7.365,1.941,7.932,2.669,7.932,3.606z M5.475,3.655c0,0.669,0.338,1.201,0.914,1.201
			c0.58,0,0.908-0.537,0.908-1.226c0-0.62-0.309-1.206-0.908-1.206C5.793,2.425,5.475,2.977,5.475,3.655z"/>
		<path fill="#FFFFFF" d="M8.443,3.616c0-0.273-0.005-0.503-0.02-0.708h0.527L8.98,3.265h0.015c0.103-0.186,0.361-0.41,0.757-0.41
			c0.415,0,0.845,0.269,0.845,1.021v1.411H9.996V3.943c0-0.342-0.127-0.601-0.454-0.601c-0.239,0-0.405,0.171-0.469,0.352
			C9.054,3.748,9.049,3.821,9.049,3.89v1.396H8.443V3.616z"/>
		<path fill="#FFFFFF" d="M11.664,4.266c0.016,0.43,0.352,0.615,0.732,0.615c0.279,0,0.479-0.039,0.66-0.107l0.088,0.415
			c-0.205,0.083-0.488,0.146-0.83,0.146c-0.771,0-1.227-0.474-1.227-1.201c0-0.659,0.4-1.279,1.162-1.279
			c0.771,0,1.025,0.635,1.025,1.157c0,0.112-0.01,0.2-0.02,0.254H11.664z M12.709,3.846c0.006-0.22-0.092-0.581-0.492-0.581
			c-0.371,0-0.527,0.337-0.553,0.581H12.709z"/>
		<path fill="#FFFFFF" d="M14.799,1.995h1.899v0.493h-1.299v0.908h1.211V3.89h-1.211v1.396h-0.601V1.995z"/>
		<path fill="#FFFFFF" d="M17.795,2.244c0,0.181-0.132,0.322-0.342,0.322c-0.2,0-0.332-0.142-0.332-0.322
			c0-0.186,0.137-0.327,0.337-0.327C17.663,1.917,17.79,2.059,17.795,2.244z M17.155,5.286V2.908h0.605v2.378H17.155z"/>
		<path fill="#FFFFFF" d="M8.115,8.326h-1.24v0.967h1.387v0.493H6.275V6.495h1.914v0.493H6.875v0.85h1.24V8.326z"/>
		<path fill="#FFFFFF" d="M9.168,7.408l0.283,0.449c0.078,0.127,0.146,0.244,0.215,0.366h0.016C9.75,8.092,9.818,7.97,9.887,7.848
			l0.264-0.439h0.654l-0.797,1.143l0.811,1.235h-0.678L9.848,9.313C9.77,9.186,9.701,9.059,9.633,8.927h-0.01
			C9.555,9.063,9.486,9.181,9.408,9.313L9.135,9.786H8.471l0.824-1.211L8.5,7.408H9.168z"/>
		<path fill="#FFFFFF" d="M11.936,6.729v0.679h0.571v0.449h-0.571v1.05c0,0.288,0.078,0.439,0.308,0.439
			c0.103,0,0.181-0.015,0.234-0.029l0.01,0.459c-0.088,0.034-0.244,0.059-0.435,0.059c-0.22,0-0.405-0.073-0.518-0.195
			c-0.127-0.137-0.186-0.352-0.186-0.664V7.857h-0.342V7.408h0.342V6.871L11.936,6.729z"/>
		<path fill="#FFFFFF" d="M12.963,8.175c0-0.322-0.005-0.552-0.02-0.767h0.522l0.02,0.454h0.02c0.117-0.337,0.396-0.508,0.649-0.508
			c0.059,0,0.093,0.005,0.142,0.015v0.566c-0.049-0.01-0.103-0.02-0.176-0.02c-0.288,0-0.483,0.186-0.537,0.454
			c-0.01,0.054-0.02,0.117-0.02,0.186v1.23h-0.601V8.175z"/>
		<path fill="#FFFFFF" d="M15.997,9.786l-0.039-0.264h-0.015C15.797,9.708,15.548,9.84,15.24,9.84c-0.479,0-0.747-0.347-0.747-0.708
			c0-0.601,0.532-0.903,1.411-0.898V8.194c0-0.156-0.063-0.415-0.483-0.415c-0.234,0-0.479,0.073-0.64,0.176l-0.117-0.391
			c0.176-0.107,0.483-0.21,0.859-0.21c0.762,0,0.981,0.483,0.981,1.001v0.859c0,0.215,0.01,0.425,0.034,0.571H15.997z M15.919,8.624
			c-0.425-0.01-0.83,0.083-0.83,0.444c0,0.234,0.151,0.342,0.342,0.342c0.239,0,0.415-0.156,0.469-0.327
			c0.015-0.044,0.02-0.093,0.02-0.132V8.624z"/>
	</g>
	<g opacity="0.3">
		<g>
			<path fill="#FFFFFF" d="M15.693,16.457c-0.113,0-0.227-0.043-0.313-0.129c-1.128-1.128-2.627-1.75-4.221-1.75
				c-1.595,0-3.093,0.621-4.219,1.748c-0.172,0.173-0.451,0.173-0.625,0c-0.172-0.172-0.173-0.452,0-0.625
				c1.293-1.295,3.013-2.008,4.844-2.008c1.83,0,3.551,0.713,4.846,2.008c0.173,0.173,0.173,0.453,0,0.625
				C15.92,16.413,15.807,16.457,15.693,16.457z"/>
		</g>
		<g>
			<path fill="#FFFFFF" d="M14.56,17.803c-0.113,0-0.227-0.043-0.313-0.13c-0.824-0.825-1.92-1.279-3.087-1.279
				c-1.166,0-2.262,0.454-3.086,1.279c-0.172,0.173-0.451,0.173-0.625,0c-0.172-0.172-0.173-0.452,0-0.625
				c0.991-0.992,2.309-1.539,3.711-1.539c1.403,0,2.721,0.546,3.712,1.539c0.173,0.172,0.172,0.452,0,0.625
				C14.785,17.76,14.673,17.803,14.56,17.803z"/>
		</g>
		<g>
			<path fill="#FFFFFF" d="M8.895,19.149c-0.113,0-0.227-0.043-0.313-0.129c-0.173-0.173-0.173-0.452,0-0.625
				c1.378-1.377,3.775-1.378,5.157,0c0.172,0.172,0.173,0.452,0,0.625c-0.172,0.173-0.451,0.173-0.625,0
				c-1.045-1.044-2.864-1.044-3.907,0C9.121,19.105,9.008,19.149,8.895,19.149z"/>
		</g>
	</g>
	<g>
		<circle fill="#FFFFFF" cx="9.908" cy="14.665" r="0.671"/>
	</g>
	<g>
		<circle fill="#FFFFFF" cx="4.7" cy="20.827" r="0.671"/>
	</g>
	<g>
		<circle fill="#FFFFFF" cx="20.413" cy="18.249" r="0.671"/>
	</g>
	<g>
		<circle fill="#FFFFFF" cx="14.793" cy="13.995" r="0.671"/>
	</g>
	<g>
		<circle fill="#FFFFFF" cx="12.756" cy="16.657" r="0.671"/>
	</g>
	<g>
		<g>
			<circle fill="#FFFFFF" cx="17.255" cy="20.155" r="0.671"/>
		</g>
		<g>
			<path fill="#FFFFFF" d="M17.255,21.999c-1.016,0-1.843-0.827-1.843-1.843s0.827-1.843,1.843-1.843s1.843,0.827,1.843,1.843
				S18.271,21.999,17.255,21.999z M17.255,18.812c-0.74,0-1.343,0.603-1.343,1.343s0.603,1.343,1.343,1.343s1.343-0.603,1.343-1.343
				S17.995,18.812,17.255,18.812z"/>
		</g>
	</g>
	<g>
		<g>
			<circle fill="#FFFFFF" cx="19.742" cy="14.665" r="0.671"/>
		</g>
		<g>
			<path fill="#FFFFFF" d="M19.742,16.508c-1.016,0-1.843-0.827-1.843-1.843s0.827-1.843,1.843-1.843s1.843,0.827,1.843,1.843
				S20.758,16.508,19.742,16.508z M19.742,13.322c-0.74,0-1.343,0.603-1.343,1.343s0.603,1.343,1.343,1.343s1.343-0.603,1.343-1.343
				S20.482,13.322,19.742,13.322z"/>
		</g>
	</g>
	<g>
		<g>
			<circle fill="#FFFFFF" cx="6.169" cy="14.277" r="0.671"/>
		</g>
		<g>
			<path fill="#FFFFFF" d="M6.169,16.121c-1.016,0-1.843-0.827-1.843-1.843s0.827-1.843,1.843-1.843s1.843,0.827,1.843,1.843
				S7.185,16.121,6.169,16.121z M6.169,12.934c-0.74,0-1.343,0.603-1.343,1.343s0.603,1.343,1.343,1.343s1.343-0.603,1.343-1.343
				S6.909,12.934,6.169,12.934z"/>
		</g>
	</g>
	<g>
		<path fill="#FFFFFF" d="M11.161,20.672c-0.135,0-0.246-0.107-0.25-0.243c-0.004-0.138,0.104-0.253,0.242-0.257l4.512-0.134
			c0.003,0,0.006,0,0.008,0c0.135,0,0.246,0.107,0.25,0.243c0.004,0.138-0.104,0.253-0.242,0.257l-4.512,0.134
			C11.166,20.672,11.163,20.672,11.161,20.672z"/>
	</g>
	<g>
		<path fill="#FFFFFF" d="M11.161,20.672c-0.071,0-0.143-0.031-0.192-0.09l-4.054-4.861c-0.088-0.106-0.074-0.264,0.032-0.352
			c0.105-0.089,0.263-0.075,0.353,0.032l4.054,4.861c0.088,0.106,0.074,0.264-0.032,0.352
			C11.274,20.653,11.218,20.672,11.161,20.672z"/>
	</g>
	<g>
		<path fill="#FFFFFF" d="M11.161,20.672c-0.08,0-0.159-0.039-0.208-0.111c-0.076-0.115-0.046-0.27,0.069-0.347l7.265-4.861
			c0.111-0.076,0.269-0.046,0.347,0.069c0.076,0.115,0.046,0.27-0.069,0.347L11.3,20.63C11.258,20.659,11.209,20.672,11.161,20.672z
			"/>
	</g>
	<g>
		<path fill="#FFFFFF" d="M12.474,20.422c0,0.725-0.588,1.312-1.313,1.312c-0.722,0-1.311-0.587-1.311-1.312
			c0-0.724,0.589-1.312,1.311-1.312C11.886,19.11,12.474,19.698,12.474,20.422z"/>
	</g>
	<g>
		<g>
			<circle fill="#FFFFFF" cx="3.259" cy="17.578" r="0.671"/>
		</g>
		<g>
			<path fill="#FFFFFF" d="M3.259,19.421c-1.016,0-1.843-0.827-1.843-1.843s0.827-1.843,1.843-1.843s1.843,0.827,1.843,1.843
				S4.274,19.421,3.259,19.421z M3.259,16.235c-0.74,0-1.343,0.603-1.343,1.343s0.603,1.343,1.343,1.343s1.343-0.603,1.343-1.343
				S3.999,16.235,3.259,16.235z"/>
		</g>
	</g>
	<g>
		<path fill="#FFFFFF" d="M11.161,20.672c-0.028,0-0.058-0.005-0.085-0.015l-6.4-2.326c-0.13-0.047-0.197-0.19-0.15-0.32
			c0.047-0.129,0.195-0.197,0.32-0.149l6.4,2.326c0.13,0.047,0.197,0.19,0.15,0.32C11.359,20.609,11.264,20.672,11.161,20.672z"/>
	</g>
</g>
</svg>
