<?xml version="1.0" encoding="utf-8"?>
<!-- Generator: Adobe Illustrator 16.0.3, SVG Export Plug-In . SVG Version: 6.00 Build 0)  -->
<!DOCTYPE svg PUBLIC "-//W3C//DTD SVG 1.1//EN" "http://www.w3.org/Graphics/SVG/1.1/DTD/svg11.dtd">
<svg version="1.1" xmlns="http://www.w3.org/2000/svg" xmlns:xlink="http://www.w3.org/1999/xlink" x="0px" y="0px" width="22.68px"
	 height="22.68px" viewBox="0 0 22.68 22.68" enable-background="new 0 0 22.68 22.68" xml:space="preserve">
<g id="BCGRND">
</g>
<g id="IKONY">
	<polygon fill="#585857" points="22.678,16.335 22.678,0 0,0 0,22.678 14.117,22.678 22.678,22.678 	"/>
	<g>
		<rect y="11.956" fill="#FFFFFF" width="22.678" height="0.889"/>
	</g>
	<g>
		<path fill="#FFFFFF" d="M10.253,3.606c0,1.104-0.668,1.733-1.576,1.733c-0.928,0-1.514-0.708-1.514-1.675
			c0-1.011,0.635-1.724,1.563-1.724C9.687,1.941,10.253,2.669,10.253,3.606z M7.798,3.655c0,0.669,0.336,1.201,0.912,1.201
			c0.582,0,0.908-0.537,0.908-1.226c0-0.62-0.307-1.206-0.908-1.206C8.114,2.425,7.798,2.977,7.798,3.655z"/>
		<path fill="#FFFFFF" d="M10.766,3.616c0-0.273-0.005-0.503-0.02-0.708h0.527l0.029,0.356h0.015c0.103-0.186,0.361-0.41,0.757-0.41
			c0.415,0,0.845,0.269,0.845,1.021v1.411h-0.601V3.943c0-0.342-0.127-0.601-0.454-0.601c-0.239,0-0.405,0.171-0.469,0.352
			c-0.02,0.054-0.024,0.127-0.024,0.195v1.396h-0.605V3.616z"/>
		<path fill="#FFFFFF" d="M13.987,4.266c0.014,0.43,0.352,0.615,0.732,0.615c0.277,0,0.479-0.039,0.658-0.107l0.088,0.415
			c-0.205,0.083-0.488,0.146-0.83,0.146c-0.771,0-1.225-0.474-1.225-1.201c0-0.659,0.4-1.279,1.162-1.279
			c0.771,0,1.025,0.635,1.025,1.157c0,0.112-0.01,0.2-0.02,0.254H13.987z M15.032,3.846c0.004-0.22-0.094-0.581-0.494-0.581
			c-0.371,0-0.527,0.337-0.551,0.581H15.032z"/>
		<path fill="#FFFFFF" d="M5.991,6.998H5.054V6.495h2.484v0.503H6.591v2.788h-0.6V6.998z"/>
		<path fill="#FFFFFF" d="M9.788,8.575c0,0.874-0.615,1.265-1.221,1.265c-0.674,0-1.191-0.464-1.191-1.226
			c0-0.781,0.512-1.26,1.23-1.26C9.313,7.354,9.788,7.853,9.788,8.575z M7.995,8.6c0,0.459,0.225,0.806,0.592,0.806
			c0.342,0,0.58-0.337,0.58-0.815c0-0.371-0.166-0.796-0.576-0.796C8.167,7.794,7.995,8.204,7.995,8.6z"/>
		<path fill="#FFFFFF" d="M12.413,9.073c0,0.283,0.01,0.518,0.02,0.713h-0.527l-0.029-0.361h-0.01
			c-0.103,0.171-0.337,0.415-0.762,0.415c-0.435,0-0.83-0.259-0.83-1.035V7.408h0.601v1.294c0,0.396,0.127,0.649,0.444,0.649
			c0.239,0,0.396-0.171,0.459-0.322c0.02-0.054,0.034-0.117,0.034-0.186V7.408h0.601V9.073z"/>
		<path fill="#FFFFFF" d="M14.813,9.713c-0.127,0.059-0.375,0.122-0.674,0.122c-0.742,0-1.225-0.474-1.225-1.211
			c0-0.713,0.488-1.27,1.322-1.27c0.221,0,0.445,0.049,0.582,0.112l-0.107,0.449c-0.098-0.044-0.24-0.093-0.455-0.093
			c-0.459,0-0.732,0.337-0.727,0.771c0,0.488,0.316,0.767,0.727,0.767c0.211,0,0.357-0.044,0.475-0.093L14.813,9.713z"/>
		<path fill="#FFFFFF" d="M15.261,6.319h0.605v1.416h0.01c0.073-0.112,0.171-0.205,0.298-0.273c0.117-0.068,0.259-0.107,0.41-0.107
			c0.405,0,0.83,0.269,0.83,1.03v1.401h-0.601V8.453c0-0.347-0.127-0.605-0.459-0.605c-0.234,0-0.4,0.156-0.464,0.337
			c-0.02,0.049-0.024,0.112-0.024,0.181v1.421h-0.605V6.319z"/>
	</g>
	<g>
		<g>
			<g opacity="0.25">
				<path fill="#FFFFFF" d="M7.839,12.41l-5.374,3.237l4.239,7.041h4.556c1.571,0,4.144,0,5.715,0h2.846
					c0.005,0,0.011-0.001,0.017-0.002L13.647,12.41H7.839z"/>
			</g>
		</g>
		<g opacity="0.35">
			<g>
				
					<rect x="7.075" y="12.929" transform="matrix(0.5154 0.857 -0.857 0.5154 16.6587 1.1358)" fill="#FFFFFF" width="0.5" height="4.736"/>
			</g>
			<g>
				
					<rect x="8.911" y="12.061" transform="matrix(0.5154 0.857 -0.857 0.5154 17.9482 -0.2121)" fill="#FFFFFF" width="0.5" height="7.402"/>
			</g>
			<g>
				
					<rect x="9.607" y="13.215" transform="matrix(0.5154 0.857 -0.857 0.5154 19.2739 -0.2488)" fill="#FFFFFF" width="0.5" height="7.402"/>
			</g>
			<g>
				<polygon fill="#FFFFFF" points="14.464,22.686 13.493,22.686 16.545,20.848 16.803,21.277 				"/>
			</g>
			<g>
				<g>
					
						<rect x="11.015" y="14.772" transform="matrix(0.5154 0.857 -0.857 0.5154 20.5773 -1.1039)" fill="#FFFFFF" width="0.5" height="5.738"/>
				</g>
				<g>
					
						<rect x="7.333" y="19.246" transform="matrix(0.8566 -0.516 0.516 0.8566 -9.0563 6.8578)" fill="#FFFFFF" width="0.952" height="0.951"/>
				</g>
			</g>
			<g>
				<g>
					
						<rect x="11.709" y="15.926" transform="matrix(0.5154 0.857 -0.857 0.5154 21.9027 -1.1403)" fill="#FFFFFF" width="0.5" height="5.738"/>
				</g>
				<g>
					
						<rect x="8.029" y="20.4" transform="matrix(0.8568 -0.5156 0.5156 0.8568 -9.5461 7.3742)" fill="#FFFFFF" width="0.952" height="0.951"/>
				</g>
			</g>
			<g>
				<g>
					<polygon fill="#FFFFFF" points="10.096,22.686 10.262,22.302 11.186,22.681 12.071,20.278 13.188,20.722 13.552,19.699 
						15.242,20.232 15.527,19.159 15.887,19.755 15.592,20.867 13.86,20.321 13.484,21.378 12.362,20.932 11.716,22.688 					"/>
				</g>
			</g>
		</g>
		<g>
			<g>
				<path fill="#FFFFFF" d="M22.678,19.202c0-0.744,0-1.713,0-2.693c-2.042,0.36-3.688,0.64-3.688,0.64
					c-3.005-2.424-3.98-2.63-3.98-2.63l-1.019-0.15c0,0-0.8-0.074-1.48-0.162c-0.682-0.088-1.379-0.03-1.807,0.465
					c1.281,0.122,1.642,0.098,3.188,0.362c0.129,0.014,0.201,0.135,0.182,0.254c-0.021,0.121-0.135,0.201-0.255,0.181
					c-1.872-0.321-2.375-0.292-3.524-0.392c-0.363,0.228-0.478,0.455-0.57,0.57c1.438,0.136,1.771,0.115,3.482,0.412
					c0.129,0.021,0.201,0.135,0.179,0.255c-0.02,0.119-0.135,0.201-0.254,0.178c-1.811-0.313-5.194-0.601-6.357-0.704
					c-0.575,0.137-1.059,0.98,3.663,1.533c3.807,0.447,4.886,1.856,4.886,1.856c-0.369,0.122-0.592,0.508-3.105-0.066
					c-1.687-0.383-1.827,0.252-1.827,0.252c0.473,0.778,3.543,1.713,5.193,1.729c0.521,0.005,2.949-0.417,4.936-0.573
					c0.688-0.054,1.392-0.078,2.095-0.095c0.041-0.192,0.065-0.391,0.065-0.596V19.202z"/>
			</g>
		</g>
		<g>
			<g>
				<path fill="#FFFFFF" d="M18.792,20.952l1.045,1.733c0.188-0.001,0.372-0.02,0.551-0.056l-1.049-1.741
					C19.155,20.91,18.974,20.93,18.792,20.952z"/>
			</g>
			<g>
				<path fill="#FFFFFF" d="M14.741,14.226l0.304,0.044c0.019,0.004,0.15,0.04,0.399,0.154l-1.213-2.014h-0.584L14.741,14.226z"/>
			</g>
			<g>
				<path fill="#FFFFFF" d="M2.465,15.647l5.374-3.237H6.87l-4.178,2.516c-0.503,0.303-0.667,0.959-0.364,1.464l3.792,6.297h0.584
					L2.465,15.647z"/>
			</g>
			<g>
				<path fill="#FFFFFF" d="M19.837,22.686l-1.045-1.733c-0.203,0.025-0.402,0.051-0.599,0.077l0.989,1.659h0.638
					C19.825,22.688,19.831,22.686,19.837,22.686z"/>
			</g>
			<g>
				<polygon fill="#FFFFFF" points="13.053,12.41 14.077,14.128 14.741,14.226 13.647,12.41 				"/>
			</g>
			<g>
				<polygon fill="#FFFFFF" points="2.465,15.647 6.704,22.688 7.347,22.688 3.208,15.783 8.892,12.41 7.839,12.41 				"/>
			</g>
		</g>
	</g>
</g>
</svg>
