<?xml version="1.0" encoding="utf-8"?>
<!-- Generator: Adobe Illustrator 16.0.3, SVG Export Plug-In . SVG Version: 6.00 Build 0)  -->
<!DOCTYPE svg PUBLIC "-//W3C//DTD SVG 1.1//EN" "http://www.w3.org/Graphics/SVG/1.1/DTD/svg11.dtd">
<svg version="1.1" xmlns="http://www.w3.org/2000/svg" xmlns:xlink="http://www.w3.org/1999/xlink" x="0px" y="0px" width="22.68px"
	 height="22.68px" viewBox="0 0 22.68 22.68" enable-background="new 0 0 22.68 22.68" xml:space="preserve">
<g id="BCGRND">
</g>
<g id="IKONY">
	<g>
		<rect x="0" fill="#585857" width="22.676" height="22.678"/>
		<g>
			<g>
				<rect x="0.002" y="7.769" fill="#FFFFFF" width="22.676" height="0.889"/>
			</g>
			<g>
				<path fill="#FFFFFF" d="M7.54,2.278h0.601v2.788h1.353v0.503H7.54V2.278z"/>
				<path fill="#FFFFFF" d="M11.84,4.109H10.6v0.967h1.387v0.493H9.999V2.278h1.914v0.493H10.6v0.85h1.24V4.109z"/>
				<path fill="#FFFFFF" d="M12.566,2.322c0.269-0.039,0.601-0.068,0.957-0.068c0.615,0,1.035,0.127,1.338,0.381
					c0.322,0.259,0.518,0.654,0.518,1.211c0,0.591-0.2,1.025-0.513,1.309c-0.327,0.298-0.85,0.449-1.489,0.449
					c-0.347,0-0.61-0.02-0.811-0.044V2.322z M13.167,5.115c0.083,0.015,0.21,0.015,0.332,0.015c0.781,0.005,1.245-0.43,1.245-1.265
					c0.005-0.723-0.415-1.143-1.167-1.143c-0.19,0-0.322,0.015-0.41,0.034V5.115z"/>
			</g>
			<g opacity="0.5">
				<path fill="#FFFFFF" d="M3.059,12.461c0.33,0,0.6-0.27,0.6-0.6v-0.834c0-0.332-0.27-0.6-0.6-0.6c-0.332,0-0.602,0.268-0.602,0.6
					v0.834C2.457,12.191,2.727,12.461,3.059,12.461z M3.059,17.578c-0.332,0-0.602,0.27-0.602,0.6v0.834c0,0.332,0.27,0.6,0.602,0.6
					c0.33,0,0.6-0.268,0.6-0.6v-0.834C3.658,17.848,3.389,17.578,3.059,17.578z M0.498,15.02c0-0.295-0.217-0.527-0.496-0.578V15.6
					C0.281,15.549,0.498,15.314,0.498,15.02z M0.658,11.773c-0.178-0.178-0.438-0.219-0.656-0.127v1.168l0.398,0.396
					c0.232,0.232,0.613,0.234,0.848,0s0.232-0.615,0-0.848L0.658,11.773z M5.715,16.83c-0.234-0.234-0.613-0.236-0.848,0
					c-0.236,0.234-0.234,0.613,0,0.848l0.59,0.59c0.234,0.234,0.611,0.234,0.848,0c0.234-0.236,0.234-0.613,0-0.85L5.715,16.83z
					 M0.401,16.828l-0.398,0.398v1.168c0.219,0.094,0.479,0.051,0.656-0.129l0.59-0.588c0.232-0.234,0.234-0.613,0-0.85
					C1.014,16.594,0.633,16.596,0.401,16.828z M5.715,13.211l0.59-0.59c0.234-0.234,0.234-0.613,0-0.848
					c-0.236-0.236-0.613-0.236-0.85,0l-0.588,0.59c-0.234,0.232-0.236,0.613,0,0.848C5.102,13.445,5.481,13.443,5.715,13.211z
					 M19.625,12.461c0.33,0,0.6-0.27,0.6-0.6v-0.834c0-0.332-0.27-0.6-0.6-0.6c-0.332,0-0.602,0.268-0.602,0.6v0.834
					C19.024,12.191,19.293,12.461,19.625,12.461z M19.625,17.578c-0.332,0-0.602,0.27-0.602,0.6v0.834c0,0.332,0.27,0.6,0.602,0.6
					c0.33,0,0.6-0.268,0.6-0.6v-0.834C20.225,17.848,19.955,17.578,19.625,17.578z M22.182,15.02c0,0.295,0.217,0.529,0.496,0.58
					v-1.158C22.399,14.492,22.182,14.725,22.182,15.02z M17.225,11.773c-0.234-0.234-0.613-0.234-0.848,0s-0.234,0.613,0,0.848
					l0.59,0.59c0.232,0.232,0.613,0.234,0.848,0s0.232-0.615,0-0.848L17.225,11.773z M21.434,16.83
					c-0.236,0.234-0.234,0.613,0,0.848l0.59,0.59c0.178,0.178,0.438,0.221,0.654,0.129v-1.17l-0.396-0.396
					C22.047,16.596,21.668,16.594,21.434,16.83z M16.967,16.828l-0.59,0.59c-0.234,0.236-0.234,0.613,0,0.848
					c0.234,0.236,0.613,0.236,0.848,0l0.59-0.588c0.232-0.234,0.234-0.613,0-0.85C17.58,16.594,17.199,16.596,16.967,16.828z
					 M22.022,11.773l-0.588,0.59c-0.234,0.232-0.236,0.613,0,0.848c0.234,0.234,0.613,0.232,0.848,0l0.396-0.396v-1.17
					C22.461,11.553,22.201,11.596,22.022,11.773z M11.342,12.461c0.33,0,0.6-0.27,0.6-0.6v-0.834c0-0.332-0.27-0.6-0.6-0.6
					c-0.332,0-0.602,0.268-0.602,0.6v0.834C10.74,12.191,11.01,12.461,11.342,12.461z M11.342,17.578c-0.332,0-0.602,0.27-0.602,0.6
					v0.834c0,0.332,0.27,0.6,0.602,0.6c0.33,0,0.6-0.268,0.6-0.6v-0.834C11.942,17.848,11.672,17.578,11.342,17.578z M8.215,15.02
					c0-0.332-0.27-0.6-0.6-0.6H6.781c-0.332,0-0.6,0.268-0.6,0.6s0.268,0.6,0.6,0.6h0.834C7.945,15.619,8.215,15.352,8.215,15.02z
					 M16.498,15.02c0-0.332-0.268-0.6-0.6-0.6h-0.834c-0.33,0-0.6,0.268-0.6,0.6s0.27,0.6,0.6,0.6h0.834
					C16.231,15.619,16.498,15.352,16.498,15.02z M8.942,11.773c-0.234-0.234-0.613-0.234-0.848,0s-0.234,0.613,0,0.848l0.59,0.59
					c0.232,0.232,0.613,0.234,0.848,0s0.232-0.615,0-0.848L8.942,11.773z M13.998,16.83c-0.234-0.234-0.613-0.236-0.848,0
					c-0.236,0.234-0.234,0.613,0,0.848l0.59,0.59c0.234,0.234,0.611,0.234,0.848,0c0.234-0.236,0.234-0.613,0-0.85L13.998,16.83z
					 M8.684,16.828l-0.59,0.59c-0.234,0.236-0.234,0.613,0,0.848c0.234,0.236,0.613,0.236,0.848,0l0.59-0.588
					c0.232-0.234,0.234-0.613,0-0.85C9.297,16.594,8.916,16.596,8.684,16.828z M13.998,13.211l0.59-0.59
					c0.234-0.234,0.234-0.613,0-0.848c-0.236-0.236-0.613-0.236-0.85,0l-0.588,0.59c-0.234,0.232-0.236,0.613,0,0.848
					C13.385,13.445,13.764,13.443,13.998,13.211z"/>
			</g>
		</g>
		<rect x="1.557" y="13.52" fill="#FFFFFF" width="3" height="3"/>
		<rect x="18.123" y="13.52" fill="#FFFFFF" width="3" height="3"/>
		<rect x="9.84" y="13.52" fill="#FFFFFF" width="3" height="3"/>
	</g>
</g>
</svg>
