<?xml version="1.0" encoding="utf-8"?>
<!-- Generator: Adobe Illustrator 16.0.3, SVG Export Plug-In . SVG Version: 6.00 Build 0)  -->
<!DOCTYPE svg PUBLIC "-//W3C//DTD SVG 1.1//EN" "http://www.w3.org/Graphics/SVG/1.1/DTD/svg11.dtd">
<svg version="1.1" xmlns="http://www.w3.org/2000/svg" xmlns:xlink="http://www.w3.org/1999/xlink" x="0px" y="0px" width="22.68px"
	 height="22.68px" viewBox="0 0 22.68 22.68" enable-background="new 0 0 22.68 22.68" xml:space="preserve">
<g id="BCGRND">
</g>
<g id="IKONY">
	<rect x="0.001" fill="#585857" width="22.677" height="22.677"/>
	<g>
		<g>
			<g>
				<g>
					<rect x="0" y="7.77" fill="#FFFFFF" width="22.678" height="0.889"/>
				</g>
				<g>
					<g>
						<path fill="#FFFFFF" d="M2.055,2.323C2.27,2.284,2.568,2.255,2.973,2.255c0.439,0,0.762,0.093,0.972,0.269
							c0.195,0.161,0.322,0.42,0.322,0.728c0,0.313-0.098,0.571-0.283,0.747C3.745,4.237,3.369,4.35,2.944,4.35
							c-0.112,0-0.215-0.005-0.293-0.02v1.24H2.055V2.323z M2.651,3.856c0.073,0.02,0.171,0.024,0.293,0.024
							c0.449,0,0.723-0.22,0.723-0.605c0-0.366-0.254-0.562-0.669-0.562c-0.166,0-0.283,0.015-0.347,0.029V3.856z"/>
						<path fill="#FFFFFF" d="M5.901,5.57L5.862,5.307H5.847C5.701,5.492,5.452,5.624,5.144,5.624c-0.479,0-0.747-0.347-0.747-0.708
							c0-0.601,0.532-0.903,1.411-0.898V3.979c0-0.156-0.063-0.415-0.483-0.415c-0.234,0-0.479,0.073-0.64,0.176L4.568,3.349
							c0.176-0.107,0.483-0.21,0.859-0.21c0.762,0,0.981,0.483,0.981,1.001v0.859c0,0.215,0.01,0.425,0.034,0.571H5.901z
							 M5.823,4.408c-0.425-0.01-0.83,0.083-0.83,0.444c0,0.234,0.151,0.342,0.342,0.342c0.239,0,0.415-0.156,0.469-0.327
							c0.015-0.044,0.02-0.093,0.02-0.132V4.408z"/>
						<path fill="#FFFFFF" d="M6.95,3.9c0-0.273-0.006-0.503-0.02-0.708h0.527l0.029,0.356h0.014c0.104-0.186,0.361-0.41,0.758-0.41
							c0.414,0,0.844,0.269,0.844,1.021V5.57h-0.6V4.228c0-0.342-0.127-0.601-0.455-0.601c-0.238,0-0.404,0.171-0.469,0.352
							c-0.02,0.054-0.023,0.127-0.023,0.195V5.57H6.95V3.9z"/>
						<path fill="#FFFFFF" d="M9.673,2.323c0.19-0.039,0.537-0.068,0.874-0.068c0.444,0,0.718,0.054,0.942,0.21
							c0.205,0.122,0.342,0.337,0.342,0.615c0,0.303-0.19,0.581-0.547,0.713v0.01c0.347,0.088,0.664,0.361,0.664,0.815
							c0,0.293-0.127,0.522-0.317,0.679c-0.234,0.205-0.62,0.308-1.221,0.308c-0.332,0-0.586-0.024-0.737-0.044V2.323z
							 M10.268,3.622h0.308c0.415,0,0.649-0.195,0.649-0.474c0-0.308-0.234-0.449-0.615-0.449c-0.176,0-0.278,0.01-0.342,0.024
							V3.622z M10.268,5.136c0.078,0.01,0.181,0.015,0.317,0.015c0.386,0,0.728-0.146,0.728-0.552c0-0.381-0.332-0.537-0.747-0.537
							h-0.298V5.136z"/>
						<path fill="#FFFFFF" d="M14.651,4.359c0,0.874-0.615,1.265-1.221,1.265c-0.674,0-1.191-0.464-1.191-1.226
							c0-0.781,0.513-1.26,1.23-1.26C14.177,3.139,14.651,3.637,14.651,4.359z M12.859,4.384c0,0.459,0.225,0.806,0.591,0.806
							c0.342,0,0.581-0.337,0.581-0.815c0-0.371-0.166-0.796-0.576-0.796C13.03,3.578,12.859,3.988,12.859,4.384z"/>
						<path fill="#FFFFFF" d="M17.311,4.359c0,0.874-0.615,1.265-1.221,1.265c-0.674,0-1.191-0.464-1.191-1.226
							c0-0.781,0.512-1.26,1.23-1.26C16.837,3.139,17.311,3.637,17.311,4.359z M15.518,4.384c0,0.459,0.225,0.806,0.592,0.806
							c0.342,0,0.58-0.337,0.58-0.815c0-0.371-0.166-0.796-0.576-0.796C15.69,3.578,15.518,3.988,15.518,4.384z"/>
						<path fill="#FFFFFF" d="M17.68,5.019c0.137,0.083,0.396,0.171,0.61,0.171c0.264,0,0.381-0.107,0.381-0.264
							c0-0.161-0.098-0.244-0.391-0.347c-0.464-0.161-0.659-0.415-0.654-0.693c0-0.42,0.347-0.747,0.898-0.747
							c0.264,0,0.493,0.068,0.63,0.142l-0.117,0.425c-0.103-0.059-0.293-0.137-0.503-0.137c-0.215,0-0.332,0.103-0.332,0.249
							c0,0.151,0.112,0.225,0.415,0.332c0.43,0.156,0.63,0.376,0.635,0.728c0,0.43-0.337,0.742-0.967,0.742
							c-0.288,0-0.547-0.068-0.723-0.166L17.68,5.019z"/>
						<path fill="#FFFFFF" d="M20.339,2.514v0.679h0.572v0.449h-0.572v1.05c0,0.288,0.078,0.439,0.309,0.439
							c0.102,0,0.18-0.015,0.234-0.029l0.01,0.459c-0.088,0.034-0.244,0.059-0.436,0.059c-0.219,0-0.404-0.073-0.518-0.195
							c-0.127-0.137-0.186-0.352-0.186-0.664V3.642h-0.342V3.192h0.342V2.655L20.339,2.514z"/>
					</g>
				</g>
			</g>
		</g>
		<g>
			<rect x="4.761" y="20.269" fill="#FFFFFF" width="13.154" height="1"/>
		</g>
		<g>
			<path fill="#FFFFFF" d="M15.751,17.552c-0.128,0-0.256-0.049-0.354-0.146l-4.059-4.058L7.28,17.405
				c-0.195,0.195-0.512,0.195-0.707,0s-0.195-0.512,0-0.707l4.766-4.765l4.766,4.765c0.195,0.195,0.195,0.512,0,0.707
				C16.007,17.503,15.879,17.552,15.751,17.552z"/>
			<path fill="#FFFFFF" d="M15.751,14.771c-0.128,0-0.256-0.049-0.354-0.146l-4.059-4.058L7.28,14.624
				c-0.195,0.195-0.512,0.195-0.707,0s-0.195-0.512,0-0.707l4.766-4.765l4.766,4.765c0.195,0.195,0.195,0.512,0,0.707
				C16.007,14.722,15.879,14.771,15.751,14.771z"/>
			<path opacity="0.5" fill="#FFFFFF" d="M18.404,14.724h-1.778c-0.046,0.09-0.093,0.18-0.168,0.254
				c-0.188,0.189-0.44,0.293-0.707,0.293c-0.208,0-0.398-0.08-0.565-0.197l1.272,1.271c0.39,0.391,0.39,1.025,0,1.414
				c-0.188,0.189-0.44,0.293-0.707,0.293s-0.519-0.104-0.707-0.293l-3.035-3.035h-1.34l-3.035,3.035
				c-0.377,0.379-1.037,0.379-1.414,0c-0.188-0.188-0.293-0.439-0.293-0.707c0-0.267,0.104-0.518,0.293-0.707l1.28-1.279
				c-0.385,0.27-0.942,0.252-1.28-0.088c-0.074-0.073-0.123-0.163-0.17-0.254H4.257c-0.2,0-0.389,0.094-0.51,0.253
				s-0.16,0.366-0.107,0.558l0.906,3.277c0.077,0.277,0.329,0.47,0.617,0.47h12.306c0.276,0,0.521-0.177,0.607-0.438l1.001-3.018
				c0.452-0.198,1.637-0.646,3.601-0.967v-1.3C20.234,13.934,18.849,14.512,18.404,14.724z"/>
		</g>
	</g>
	<rect y="20.269" opacity="0.5" fill="#FFFFFF" width="4.053" height="1"/>
	<rect x="18.624" y="20.269" opacity="0.5" fill="#FFFFFF" width="4.053" height="1"/>
</g>
</svg>
