<?xml version="1.0" encoding="utf-8"?>
<!-- Generator: Adobe Illustrator 16.0.3, SVG Export Plug-In . SVG Version: 6.00 Build 0)  -->
<!DOCTYPE svg PUBLIC "-//W3C//DTD SVG 1.1//EN" "http://www.w3.org/Graphics/SVG/1.1/DTD/svg11.dtd">
<svg version="1.1" xmlns="http://www.w3.org/2000/svg" xmlns:xlink="http://www.w3.org/1999/xlink" x="0px" y="0px" width="22.68px"
	 height="22.68px" viewBox="0 0 22.68 22.68" enable-background="new 0 0 22.68 22.68" xml:space="preserve">
<g id="BCGRND">
</g>
<g id="IKONY">
	<rect x="0" fill="#585857" width="22.68" height="22.677"/>
	<g>
		<g>
			<g>
				<rect x="0" y="7.77" fill="#FFFFFF" width="22.678" height="0.889"/>
			</g>
			<g>
				<path fill="#FFFFFF" d="M7.222,2.323C7.437,2.284,7.736,2.255,8.14,2.255c0.439,0,0.762,0.093,0.973,0.269
					c0.195,0.161,0.322,0.42,0.322,0.728c0,0.313-0.098,0.571-0.283,0.747C8.912,4.237,8.537,4.35,8.111,4.35
					C8,4.35,7.896,4.345,7.818,4.33v1.24H7.222V2.323z M7.818,3.856c0.074,0.02,0.172,0.024,0.293,0.024
					c0.449,0,0.723-0.22,0.723-0.605c0-0.366-0.254-0.562-0.668-0.562C8,2.714,7.883,2.729,7.818,2.743V3.856z"/>
				<path fill="#FFFFFF" d="M11.068,5.57l-0.039-0.264h-0.014c-0.146,0.186-0.396,0.317-0.703,0.317
					c-0.479,0-0.748-0.347-0.748-0.708c0-0.601,0.533-0.903,1.412-0.898V3.979c0-0.156-0.064-0.415-0.484-0.415
					c-0.234,0-0.479,0.073-0.639,0.176L9.736,3.349c0.176-0.107,0.482-0.21,0.859-0.21c0.762,0,0.98,0.483,0.98,1.001v0.859
					c0,0.215,0.01,0.425,0.035,0.571H11.068z M10.99,4.408c-0.424-0.01-0.83,0.083-0.83,0.444c0,0.234,0.152,0.342,0.342,0.342
					c0.24,0,0.416-0.156,0.469-0.327c0.016-0.044,0.02-0.093,0.02-0.132V4.408z M11.361,2.162l-0.6,0.723h-0.416l0.426-0.723H11.361
					z"/>
				<path fill="#FFFFFF" d="M12.117,3.959c0-0.322-0.005-0.552-0.02-0.767h0.522l0.02,0.454h0.02
					c0.117-0.337,0.396-0.508,0.649-0.508c0.059,0,0.093,0.005,0.142,0.015V3.72c-0.049-0.01-0.103-0.02-0.176-0.02
					c-0.288,0-0.483,0.186-0.537,0.454c-0.01,0.054-0.02,0.117-0.02,0.186v1.23h-0.601V3.959z"/>
				<path fill="#FFFFFF" d="M15.053,5.57l-0.039-0.264H15c-0.146,0.186-0.396,0.317-0.703,0.317c-0.479,0-0.747-0.347-0.747-0.708
					c0-0.601,0.532-0.903,1.411-0.898V3.979c0-0.156-0.063-0.415-0.483-0.415c-0.234,0-0.479,0.073-0.64,0.176L13.72,3.349
					c0.176-0.107,0.483-0.21,0.859-0.21c0.762,0,0.981,0.483,0.981,1.001v0.859c0,0.215,0.01,0.425,0.034,0.571H15.053z
					 M14.975,4.408c-0.425-0.01-0.83,0.083-0.83,0.444c0,0.234,0.151,0.342,0.342,0.342c0.239,0,0.415-0.156,0.469-0.327
					c0.015-0.044,0.02-0.093,0.02-0.132V4.408z"/>
			</g>
		</g>
		<g>
			<g>
				<path fill="#FFFFFF" d="M9.063,13.711c-0.029,0-0.059-0.005-0.087-0.016c-0.13-0.048-0.195-0.192-0.147-0.321l1.375-3.698
					c0.048-0.13,0.193-0.197,0.321-0.147c0.13,0.048,0.195,0.192,0.147,0.321l-1.375,3.698C9.26,13.649,9.165,13.711,9.063,13.711z"
					/>
			</g>
			<g>
				<path fill="#FFFFFF" d="M13.724,13.711c-0.102,0-0.197-0.062-0.234-0.163l-1.375-3.698c-0.048-0.129,0.018-0.273,0.147-0.321
					c0.126-0.049,0.273,0.017,0.321,0.147l1.375,3.698c0.048,0.129-0.018,0.273-0.147,0.321
					C13.783,13.707,13.754,13.711,13.724,13.711z"/>
			</g>
			<g>
				<path fill="#FFFFFF" d="M11.393,13.719c-0.138,0-0.25-0.112-0.25-0.25V9.764c0-0.138,0.112-0.25,0.25-0.25s0.25,0.112,0.25,0.25
					v3.705C11.643,13.607,11.531,13.719,11.393,13.719z"/>
			</g>
			<g opacity="0.5">
				<path fill="#FFFFFF" d="M11.34,16.485c-1.185,0-2.186-0.719-2.186-1.57c0-0.276,0.224-0.5,0.5-0.5s0.5,0.224,0.5,0.5
					c0,0.165,0.473,0.57,1.186,0.57s1.185-0.406,1.185-0.57c0-0.276,0.224-0.5,0.5-0.5s0.5,0.224,0.5,0.5
					C13.524,15.766,12.524,16.485,11.34,16.485z"/>
			</g>
			<g opacity="0.5">
				<path fill="#FFFFFF" d="M10.325,18.583c-0.427,0-0.753-0.121-0.985-0.258c-0.417-0.245-0.691-0.63-0.832-0.999
					c-0.553-0.063-0.977-0.278-1.265-0.644c-0.55-0.698-0.332-1.628-0.306-1.732c0.068-0.268,0.339-0.43,0.608-0.36
					c0.268,0.068,0.429,0.341,0.36,0.608c-0.036,0.149-0.086,0.604,0.125,0.868c0.151,0.19,0.455,0.287,0.863,0.278l0.463-0.006
					L9.399,16.8c0.013,0.138,0.139,0.482,0.447,0.664c0.314,0.185,0.748,0.158,1.292-0.08l0.201-0.089l0.202,0.089
					c0.514,0.228,0.945,0.245,1.28,0.05c0.318-0.188,0.444-0.508,0.456-0.633l0.042-0.461l0.463,0.006
					c0.418,0.001,0.715-0.089,0.865-0.281c0.217-0.274,0.153-0.752,0.124-0.865c-0.068-0.268,0.093-0.54,0.36-0.608
					c0.271-0.07,0.54,0.093,0.608,0.36c0.026,0.104,0.243,1.034-0.307,1.732c-0.289,0.367-0.715,0.583-1.271,0.644
					c-0.143,0.353-0.418,0.722-0.834,0.967c-0.401,0.237-1.064,0.432-1.989,0.086C10.954,18.527,10.616,18.583,10.325,18.583z"/>
			</g>
			<g opacity="0.5">
				<path fill="#FFFFFF" d="M12.444,21.228c-0.364,0-0.733-0.127-1.104-0.38c-0.474,0.323-0.945,0.438-1.405,0.351
					c-0.504-0.098-0.859-0.427-1.078-0.704c-0.534,0.172-1.004,0.146-1.397-0.078c-0.406-0.229-0.618-0.609-0.729-0.916
					c-0.673-0.002-1.125-0.183-1.43-0.562c-0.333-0.414-0.348-0.931-0.299-1.301c-0.475-0.241-0.769-0.572-0.877-0.986
					c-0.21-0.802,0.405-1.515,0.477-1.594c0.185-0.204,0.501-0.221,0.706-0.037c0.205,0.185,0.222,0.501,0.036,0.707
					c-0.106,0.121-0.312,0.449-0.251,0.673c0.046,0.174,0.277,0.338,0.649,0.464l0.482,0.163l-0.172,0.479
					c-0.061,0.175-0.134,0.606,0.028,0.807c0.136,0.166,0.478,0.223,0.971,0.162l0.508-0.064l0.052,0.51
					c0.016,0.127,0.106,0.494,0.343,0.625c0.241,0.133,0.613,0.007,0.885-0.12l0.441-0.208l0.219,0.436
					c0.084,0.168,0.323,0.501,0.627,0.561c0.305,0.055,0.65-0.172,0.884-0.378l0.33-0.291l0.33,0.291
					c0.233,0.206,0.578,0.437,0.883,0.378c0.303-0.059,0.542-0.393,0.626-0.561l0.219-0.436l0.441,0.208
					c0.272,0.127,0.65,0.253,0.888,0.119c0.276-0.156,0.34-0.62,0.341-0.624l0.052-0.509l0.508,0.064
					c0.491,0.062,0.835,0.005,0.97-0.162c0.163-0.201,0.09-0.632,0.028-0.81l-0.164-0.476l0.476-0.164
					c0.373-0.126,0.604-0.292,0.649-0.466c0.065-0.25-0.187-0.599-0.252-0.671c-0.186-0.205-0.169-0.521,0.036-0.706
					c0.205-0.186,0.521-0.168,0.706,0.036c0.071,0.079,0.688,0.792,0.478,1.594c-0.108,0.415-0.402,0.746-0.878,0.986
					c0.05,0.37,0.034,0.887-0.298,1.301c-0.304,0.379-0.79,0.558-1.43,0.561c-0.11,0.306-0.323,0.687-0.729,0.916
					c-0.393,0.223-0.862,0.249-1.397,0.077c-0.219,0.276-0.574,0.606-1.078,0.704C12.644,21.218,12.545,21.228,12.444,21.228z"/>
			</g>
		</g>
	</g>
</g>
</svg>
