<?xml version="1.0" encoding="utf-8"?>
<!-- Generator: Adobe Illustrator 16.0.3, SVG Export Plug-In . SVG Version: 6.00 Build 0)  -->
<!DOCTYPE svg PUBLIC "-//W3C//DTD SVG 1.1//EN" "http://www.w3.org/Graphics/SVG/1.1/DTD/svg11.dtd">
<svg version="1.1" xmlns="http://www.w3.org/2000/svg" xmlns:xlink="http://www.w3.org/1999/xlink" x="0px" y="0px" width="22.68px"
	 height="22.68px" viewBox="0 0 22.68 22.68" enable-background="new 0 0 22.68 22.68" xml:space="preserve">
<g id="BCGRND">
</g>
<g id="IKONY">
	<rect fill="#585857" width="22.677" height="22.677"/>
	<g>
		<g>
			<g>
				<g>
					<rect y="11.956" fill="#FFFFFF" width="22.678" height="0.889"/>
				</g>
				<g>
					<g>
						<path fill="#FFFFFF" d="M4.467,2.04c0.215-0.039,0.513-0.068,0.918-0.068c0.439,0,0.762,0.093,0.972,0.269
							c0.195,0.161,0.322,0.42,0.322,0.728c0,0.313-0.098,0.571-0.283,0.747C6.156,3.954,5.78,4.066,5.355,4.066
							c-0.112,0-0.215-0.005-0.293-0.02v1.24H4.467V2.04z M5.063,3.573c0.073,0.02,0.171,0.024,0.293,0.024
							c0.449,0,0.723-0.22,0.723-0.605c0-0.366-0.254-0.562-0.669-0.562c-0.166,0-0.283,0.015-0.347,0.029V3.573z"/>
						<path fill="#FFFFFF" d="M7.38,4.267c0.015,0.43,0.352,0.615,0.732,0.615c0.278,0,0.479-0.039,0.659-0.107l0.088,0.415
							c-0.205,0.083-0.488,0.146-0.83,0.146c-0.771,0-1.226-0.474-1.226-1.201c0-0.659,0.4-1.279,1.162-1.279
							c0.771,0,1.025,0.635,1.025,1.157c0,0.112-0.01,0.2-0.02,0.254H7.38z M8.425,3.847c0.005-0.22-0.093-0.581-0.493-0.581
							c-0.371,0-0.527,0.337-0.552,0.581H8.425z"/>
						<path fill="#FFFFFF" d="M9.381,3.676c0-0.322-0.006-0.552-0.02-0.767h0.521l0.02,0.454h0.02
							c0.117-0.337,0.396-0.508,0.65-0.508c0.059,0,0.092,0.005,0.141,0.015v0.566c-0.049-0.01-0.102-0.02-0.176-0.02
							c-0.287,0-0.482,0.186-0.537,0.454C9.99,3.925,9.98,3.988,9.98,4.057v1.23h-0.6V3.676z"/>
						<path fill="#FFFFFF" d="M11.229,5.287V3.358h-0.322V2.909h0.322V2.807c0-0.308,0.082-0.615,0.287-0.811
							c0.176-0.166,0.416-0.229,0.621-0.229c0.16,0,0.287,0.024,0.385,0.059l-0.043,0.464c-0.064-0.024-0.146-0.044-0.254-0.044
							c-0.299,0-0.4,0.249-0.4,0.542v0.122h0.521v0.449h-0.518v1.929H11.229z"/>
						<path fill="#FFFFFF" d="M12.992,4.267c0.016,0.43,0.352,0.615,0.732,0.615c0.279,0,0.479-0.039,0.66-0.107l0.088,0.415
							c-0.205,0.083-0.488,0.146-0.83,0.146c-0.771,0-1.227-0.474-1.227-1.201c0-0.659,0.4-1.279,1.162-1.279
							c0.771,0,1.025,0.635,1.025,1.157c0,0.112-0.01,0.2-0.02,0.254H12.992z M14.037,3.847c0.006-0.22-0.092-0.581-0.492-0.581
							c-0.371,0-0.527,0.337-0.553,0.581H14.037z"/>
						<path fill="#FFFFFF" d="M16.74,5.214c-0.127,0.059-0.375,0.122-0.674,0.122c-0.742,0-1.225-0.474-1.225-1.211
							c0-0.713,0.488-1.27,1.322-1.27c0.221,0,0.445,0.049,0.582,0.112l-0.107,0.449c-0.098-0.044-0.24-0.093-0.455-0.093
							c-0.459,0-0.732,0.337-0.727,0.771c0,0.488,0.316,0.767,0.727,0.767c0.211,0,0.357-0.044,0.475-0.093L16.74,5.214z"/>
						<path fill="#FFFFFF" d="M17.852,2.23v0.679h0.571v0.449h-0.571v1.05c0,0.288,0.078,0.439,0.308,0.439
							c0.103,0,0.181-0.015,0.234-0.029l0.01,0.459c-0.088,0.034-0.244,0.059-0.435,0.059c-0.22,0-0.405-0.073-0.518-0.195
							c-0.127-0.137-0.186-0.352-0.186-0.664V3.358h-0.342V2.909h0.342V2.372L17.852,2.23z"/>
						<path fill="#FFFFFF" d="M5.984,6.54c0.225-0.039,0.562-0.068,0.908-0.068c0.474,0,0.796,0.078,1.016,0.264
							c0.181,0.151,0.283,0.381,0.283,0.659c0,0.425-0.288,0.713-0.596,0.825v0.015C7.83,8.322,7.972,8.552,8.055,8.869
							c0.103,0.41,0.19,0.791,0.259,0.918h-0.62c-0.049-0.098-0.127-0.366-0.22-0.776c-0.093-0.43-0.249-0.566-0.591-0.576H6.58
							v1.353H5.984V6.54z M6.58,7.995h0.356c0.405,0,0.659-0.215,0.659-0.542c0-0.361-0.254-0.527-0.645-0.527
							c-0.19,0-0.313,0.015-0.371,0.029V7.995z"/>
						<path fill="#FFFFFF" d="M10.92,8.576c0,0.874-0.615,1.265-1.221,1.265c-0.674,0-1.191-0.464-1.191-1.226
							c0-0.781,0.512-1.26,1.23-1.26C10.445,7.355,10.92,7.854,10.92,8.576z M9.127,8.601c0,0.459,0.225,0.806,0.592,0.806
							c0.342,0,0.58-0.337,0.58-0.815c0-0.371-0.166-0.796-0.576-0.796C9.299,7.795,9.127,8.205,9.127,8.601z"/>
						<path fill="#FFFFFF" d="M12.656,9.787l-0.039-0.264h-0.015c-0.146,0.186-0.396,0.317-0.703,0.317
							c-0.479,0-0.747-0.347-0.747-0.708c0-0.601,0.532-0.903,1.411-0.898V8.195c0-0.156-0.063-0.415-0.483-0.415
							c-0.234,0-0.479,0.073-0.64,0.176l-0.117-0.391c0.176-0.107,0.483-0.21,0.859-0.21c0.762,0,0.981,0.483,0.981,1.001v0.859
							c0,0.215,0.01,0.425,0.034,0.571H12.656z M12.578,8.625c-0.425-0.01-0.83,0.083-0.83,0.444c0,0.234,0.151,0.342,0.342,0.342
							c0.239,0,0.415-0.156,0.469-0.327c0.015-0.044,0.02-0.093,0.02-0.132V8.625z"/>
						<path fill="#FFFFFF" d="M13.675,9.235c0.137,0.083,0.396,0.171,0.61,0.171c0.264,0,0.381-0.107,0.381-0.264
							c0-0.161-0.098-0.244-0.391-0.347c-0.464-0.161-0.659-0.415-0.654-0.693c0-0.42,0.347-0.747,0.898-0.747
							c0.264,0,0.493,0.068,0.63,0.142l-0.117,0.425c-0.103-0.059-0.293-0.137-0.503-0.137c-0.215,0-0.332,0.103-0.332,0.249
							c0,0.151,0.112,0.225,0.415,0.332c0.43,0.156,0.63,0.376,0.635,0.728c0,0.43-0.337,0.742-0.967,0.742
							c-0.288,0-0.547-0.068-0.723-0.166L13.675,9.235z"/>
						<path fill="#FFFFFF" d="M16.334,6.73v0.679h0.57v0.449h-0.57v1.05c0,0.288,0.078,0.439,0.307,0.439
							c0.104,0,0.182-0.015,0.234-0.029l0.01,0.459c-0.088,0.034-0.244,0.059-0.434,0.059c-0.221,0-0.406-0.073-0.518-0.195
							c-0.127-0.137-0.186-0.352-0.186-0.664V7.858h-0.342V7.409h0.342V6.872L16.334,6.73z"/>
					</g>
				</g>
			</g>
		</g>
		<g opacity="0.5">
			<path fill="#FFFFFF" d="M20.627,15.498c0,0-0.103-0.792-0.724-0.528c-0.621,0.264-0.263,1.282-0.263,1.282
				c-0.228,0.226-0.849,0.773-1.414,0.886c-0.504,0.101-0.718,0.104-1.131,0.27c-0.785,0.287-1.808,0.821-2.367,1.796
				c-0.046,0.081-0.131,0.125-0.217,0.125c-0.042,0-0.085-0.011-0.124-0.033c-0.12-0.069-0.161-0.222-0.093-0.341
				c0.629-1.097,1.74-1.698,2.597-2.015c0.011-0.879-0.121-1.084-0.173-1.328c-0.057-0.264,0.377-0.773,0.377-0.773
				s0.886,0.113,0.904-0.546s-0.791-0.49-0.791-0.49c0.018-0.245-0.547-0.66-0.925-0.339c-0.376,0.32,0.086,1.034,0.086,1.034
				s-0.537,0.831-0.933,1.114c-0.396,0.282-0.849,0.264-1.729,0.867c-0.881,0.603-1.363,1.659-1.363,1.659
				c-4.806,0.641-4.787,4.542-4.787,4.542h9.933c2.902-1.564,2.375-5.635,2.375-5.635l0.489-0.415c0,0,0.98,0.169,1.094-0.452
				C21.601,15.339,20.627,15.498,20.627,15.498z"/>
		</g>
		<g>
			<g>
				<path fill="#FFFFFF" d="M11.775,21.774l0.324-0.381l0.208,0.526L11.775,21.774z M11.395,21.451l-0.382-0.324l0.324-0.382
					l0.382,0.324L11.395,21.451z M10.632,20.803l-0.381-0.324l0.324-0.381l0.381,0.324L10.632,20.803z M9.87,20.156l-0.381-0.324
					l0.324-0.381l0.381,0.324L9.87,20.156z"/>
			</g>
			<g>
				<polygon fill="#FFFFFF" points="9.087,19.491 7.383,18.043 7.707,17.663 9.489,19.173 				"/>
			</g>
			<g>
				<path fill="#FFFFFF" d="M4.65,16.119l1.991,1.692l-0.238,0.281c0,0-0.231,0.255,0.043,0.489s0.502-0.024,0.502-0.024
					l1.194-1.406c0,0,0.218-0.266-0.057-0.5c-0.274-0.233-0.489,0.036-0.489,0.036l-0.239,0.281l-1.99-1.691L4.65,16.119z"/>
			</g>
		</g>
		<g>
			<path fill="#FFFFFF" d="M-0.002,14.913c0.82,0.35,1.688,0.318,2.362,0.11c1.624-0.505,2.935,0.586,2.99,0.634l-0.322,0.382
				c-0.011-0.009-1.166-0.957-2.52-0.539c-0.715,0.222-1.625,0.269-2.506-0.047L-0.002,14.913z"/>
		</g>
	</g>
</g>
</svg>
