<?xml version="1.0" encoding="utf-8"?>
<!-- Generator: Adobe Illustrator 16.0.3, SVG Export Plug-In . SVG Version: 6.00 Build 0)  -->
<!DOCTYPE svg PUBLIC "-//W3C//DTD SVG 1.1//EN" "http://www.w3.org/Graphics/SVG/1.1/DTD/svg11.dtd">
<svg version="1.1" xmlns="http://www.w3.org/2000/svg" xmlns:xlink="http://www.w3.org/1999/xlink" x="0px" y="0px" width="22.68px"
	 height="22.68px" viewBox="0 0 22.68 22.68" enable-background="new 0 0 22.68 22.68" xml:space="preserve">
<g id="BCGRND">
</g>
<g id="IKONY">
	<rect x="0.001" fill="#585857" width="22.677" height="22.677"/>
	<g>
		<g>
			<g>
				<g>
					<rect y="7.77" fill="#FFFFFF" width="22.677" height="0.889"/>
				</g>
				<g>
					<g>
						<path fill="#FFFFFF" d="M1.425,2.323C1.64,2.284,1.938,2.255,2.343,2.255c0.439,0,0.762,0.093,0.972,0.269
							c0.195,0.161,0.322,0.42,0.322,0.728c0,0.313-0.098,0.571-0.283,0.747C3.115,4.237,2.739,4.35,2.314,4.35
							c-0.112,0-0.215-0.005-0.293-0.02v1.24H1.425V2.323z M2.021,3.856c0.073,0.02,0.171,0.024,0.293,0.024
							c0.449,0,0.723-0.22,0.723-0.605c0-0.366-0.254-0.562-0.669-0.562c-0.166,0-0.283,0.015-0.347,0.029V3.856z"/>
						<path fill="#FFFFFF" d="M4.314,4.55c0.014,0.43,0.352,0.615,0.732,0.615c0.277,0,0.479-0.039,0.658-0.107l0.088,0.415
							c-0.205,0.083-0.488,0.146-0.83,0.146c-0.771,0-1.225-0.474-1.225-1.201c0-0.659,0.401-1.279,1.163-1.279
							c0.771,0,1.025,0.635,1.025,1.157c0,0.112-0.01,0.2-0.02,0.254H4.314z M5.359,4.13c0.004-0.22-0.094-0.581-0.494-0.581
							c-0.371,0-0.527,0.337-0.551,0.581H5.359z"/>
						<path fill="#FFFFFF" d="M6.29,3.959c0-0.322-0.005-0.552-0.02-0.767h0.522l0.02,0.454h0.02
							C6.949,3.31,7.228,3.139,7.481,3.139c0.059,0,0.093,0.005,0.142,0.015V3.72C7.574,3.71,7.521,3.7,7.447,3.7
							c-0.288,0-0.483,0.186-0.537,0.454C6.9,4.208,6.891,4.271,6.891,4.34v1.23H6.29V3.959z"/>
						<path fill="#FFFFFF" d="M8.113,5.57V3.642H7.791V3.192h0.322V3.09c0-0.308,0.083-0.615,0.288-0.811
							C8.577,2.113,8.816,2.05,9.021,2.05c0.161,0,0.288,0.024,0.386,0.059L9.363,2.572C9.3,2.548,9.217,2.528,9.109,2.528
							c-0.298,0-0.4,0.249-0.4,0.542v0.122h0.522v0.449H8.714V5.57H8.113z"/>
						<path fill="#FFFFFF" d="M9.853,4.55c0.014,0.43,0.352,0.615,0.732,0.615c0.277,0,0.479-0.039,0.658-0.107l0.088,0.415
							c-0.205,0.083-0.488,0.146-0.83,0.146c-0.771,0-1.224-0.474-1.224-1.201c0-0.659,0.4-1.279,1.162-1.279
							c0.771,0,1.025,0.635,1.025,1.157c0,0.112-0.01,0.2-0.02,0.254H9.853z M10.898,4.13c0.004-0.22-0.094-0.581-0.494-0.581
							c-0.371,0-0.527,0.337-0.551,0.581H10.898z"/>
						<path fill="#FFFFFF" d="M13.578,5.497c-0.127,0.059-0.377,0.122-0.674,0.122c-0.742,0-1.227-0.474-1.227-1.211
							c0-0.713,0.488-1.27,1.324-1.27c0.219,0,0.443,0.049,0.58,0.112L13.474,3.7c-0.098-0.044-0.238-0.093-0.453-0.093
							c-0.459,0-0.732,0.337-0.729,0.771c0,0.488,0.318,0.767,0.729,0.767c0.209,0,0.355-0.044,0.473-0.093L13.578,5.497z"/>
						<path fill="#FFFFFF" d="M14.664,2.514v0.679h0.57v0.449h-0.57v1.05c0,0.288,0.078,0.439,0.307,0.439
							c0.104,0,0.182-0.015,0.234-0.029l0.01,0.459c-0.088,0.034-0.244,0.059-0.434,0.059c-0.221,0-0.406-0.073-0.518-0.195
							c-0.127-0.137-0.186-0.352-0.186-0.664V3.642h-0.342V3.192h0.342V2.655L14.664,2.514z"/>
						<path fill="#FFFFFF" d="M15.593,2.279h1.898v0.493h-1.299v0.908h1.211v0.493h-1.211V5.57h-0.6V2.279z"/>
						<path fill="#FFFFFF" d="M17.828,3.959c0-0.322-0.006-0.552-0.02-0.767h0.521l0.02,0.454h0.02
							c0.117-0.337,0.396-0.508,0.65-0.508c0.059,0,0.092,0.005,0.141,0.015V3.72c-0.049-0.01-0.102-0.02-0.176-0.02
							c-0.287,0-0.482,0.186-0.537,0.454c-0.01,0.054-0.02,0.117-0.02,0.186v1.23h-0.6V3.959z"/>
						<path fill="#FFFFFF" d="M19.929,3.192l0.43,1.274c0.049,0.146,0.098,0.327,0.131,0.464h0.016
							c0.039-0.137,0.082-0.313,0.127-0.469l0.371-1.27h0.645l-0.596,1.621c-0.328,0.889-0.547,1.284-0.83,1.528
							c-0.234,0.21-0.479,0.288-0.631,0.308l-0.137-0.508c0.104-0.024,0.23-0.078,0.352-0.166c0.113-0.073,0.244-0.215,0.328-0.376
							c0.023-0.044,0.039-0.078,0.039-0.107c0-0.024-0.006-0.059-0.035-0.117l-0.869-2.183H19.929z"/>
					</g>
				</g>
			</g>
		</g>
		<g>
			<rect x="4.762" y="20.269" fill="#FFFFFF" width="13.154" height="1"/>
		</g>
		<path opacity="0.5" fill="#FFFFFF" d="M18.404,14.724H4.257c-0.2,0-0.389,0.094-0.51,0.253s-0.16,0.366-0.107,0.558l0.906,3.277
			c0.077,0.277,0.329,0.47,0.617,0.47h12.305c0.277,0,0.521-0.177,0.607-0.438l1.002-3.018c0.451-0.198,1.637-0.646,3.6-0.967v-1.3
			C20.234,13.934,18.849,14.512,18.404,14.724z"/>
		<g>
			<path fill="none" d="M9.63,9.628c0.305,0,0.516-0.19,0.516-0.453c0-0.268-0.191-0.463-0.512-0.463
				c-0.334,0-0.525,0.205-0.525,0.468C9.108,9.433,9.315,9.628,9.63,9.628z M9.626,8.922c0.147,0,0.233,0.114,0.233,0.248
				c0,0.132-0.086,0.248-0.233,0.248c-0.138,0-0.225-0.124-0.225-0.243C9.401,9.046,9.482,8.922,9.626,8.922z"/>
			<path fill="none" d="M11.701,12.248c0.391,0,0.695-0.075,0.834-0.144l-0.096-0.463c-0.158,0.068-0.406,0.115-0.639,0.115
				c-0.713,0-1.123-0.449-1.123-1.16c0-0.771,0.473-1.184,1.127-1.184c0.264,0,0.477,0.059,0.631,0.125l0.123-0.468
				c-0.119-0.062-0.393-0.144-0.777-0.144c-0.984,0-1.725,0.638-1.725,1.698C10.056,11.609,10.677,12.248,11.701,12.248z"/>
			<path opacity="0.5" fill="none" d="M7.322,11.817c-0.028,0.01-0.058,0.016-0.087,0.016c-0.102,0-0.197-0.063-0.234-0.164
				c-0.368-0.988-0.373-2.083-0.015-3.081c0.047-0.13,0.19-0.195,0.32-0.151c0.13,0.047,0.197,0.19,0.15,0.32
				c-0.318,0.887-0.314,1.859,0.013,2.738C7.518,11.625,7.452,11.769,7.322,11.817z M15.693,11.618
				c-0.037,0.102-0.133,0.166-0.236,0.166c-0.027,0-0.057-0.006-0.084-0.016c-0.129-0.046-0.197-0.189-0.15-0.318
				c0.303-0.852,0.309-1.791,0.014-2.648c-0.045-0.13,0.023-0.272,0.154-0.317c0.127-0.044,0.271,0.024,0.318,0.155
				C16.041,9.603,16.035,10.661,15.693,11.618z"/>
			<path fill="#FFFFFF" d="M9.626,9.418c0.147,0,0.233-0.116,0.233-0.248c0-0.134-0.086-0.248-0.233-0.248
				c-0.144,0-0.225,0.124-0.225,0.253C9.401,9.294,9.488,9.418,9.626,9.418z"/>
			<path fill="#FFFFFF" d="M8.992,12.45c1.296,1.297,3.398,1.297,4.695,0c1.131-1.131,1.273-2.875,0.432-4.162H8.561
				C7.718,9.575,7.861,11.319,8.992,12.45z M11.781,8.927c0.385,0,0.658,0.082,0.777,0.144l-0.123,0.468
				c-0.154-0.066-0.367-0.125-0.631-0.125c-0.654,0-1.127,0.412-1.127,1.184c0,0.711,0.41,1.16,1.123,1.16
				c0.232,0,0.48-0.047,0.639-0.115l0.096,0.463c-0.139,0.068-0.443,0.144-0.834,0.144c-1.023,0-1.645-0.639-1.645-1.623
				C10.056,9.564,10.796,8.927,11.781,8.927z M9.634,8.712c0.321,0,0.512,0.195,0.512,0.463c0,0.263-0.211,0.453-0.516,0.453
				c-0.314,0-0.521-0.195-0.521-0.448C9.108,8.917,9.3,8.712,9.634,8.712z"/>
			<path opacity="0.5" fill="#FFFFFF" d="M15.39,8.484c-0.131,0.045-0.199,0.188-0.154,0.317c0.295,0.857,0.289,1.797-0.014,2.648
				c-0.047,0.129,0.021,0.272,0.15,0.318c0.027,0.01,0.057,0.016,0.084,0.016c0.104,0,0.199-0.064,0.236-0.166
				c0.342-0.957,0.348-2.016,0.016-2.979C15.662,8.509,15.517,8.44,15.39,8.484z"/>
			<path opacity="0.5" fill="#FFFFFF" d="M7.457,8.757c0.047-0.13-0.021-0.273-0.15-0.32c-0.13-0.044-0.273,0.021-0.32,0.151
				c-0.358,0.998-0.354,2.093,0.015,3.081c0.037,0.102,0.133,0.164,0.234,0.164c0.029,0,0.059-0.006,0.087-0.016
				c0.13-0.049,0.195-0.192,0.147-0.322C7.143,10.616,7.139,9.644,7.457,8.757z"/>
			<path opacity="0.5" fill="#FFFFFF" d="M6.135,12.423c0.043,0.09,0.133,0.143,0.227,0.143c0.036,0,0.072-0.008,0.106-0.023
				c0.125-0.059,0.179-0.207,0.12-0.332C6.004,10.968,5.97,9.554,6.47,8.288H5.932C5.456,9.635,5.521,11.115,6.135,12.423z"/>
			<path opacity="0.5" fill="#FFFFFF" d="M16.111,12.168c-0.059,0.126-0.002,0.274,0.123,0.331c0.033,0.016,0.068,0.023,0.104,0.023
				c0.096,0,0.186-0.055,0.229-0.146c0.592-1.292,0.648-2.759,0.18-4.089h-0.549C16.691,9.54,16.673,10.939,16.111,12.168z"/>
			<path opacity="0.5" fill="#FFFFFF" d="M16.976,12.873c-0.064,0.122-0.02,0.273,0.104,0.338c0.037,0.021,0.076,0.029,0.117,0.029
				c0.088,0,0.176-0.048,0.221-0.133c0.795-1.497,0.945-3.226,0.475-4.819h-0.523C17.857,9.796,17.732,11.448,16.976,12.873z"/>
			<path opacity="0.5" fill="#FFFFFF" d="M5.285,13.149c0.045,0.084,0.131,0.131,0.22,0.131c0.04,0,0.081-0.01,0.119-0.03
				c0.121-0.065,0.166-0.218,0.101-0.339C4.948,11.476,4.816,9.81,5.31,8.288H4.786C4.311,9.896,4.469,11.64,5.285,13.149z"/>
		</g>
	</g>
	<rect x="0" y="20.269" opacity="0.5" fill="#FFFFFF" width="4.053" height="1"/>
	<rect x="18.624" y="20.269" opacity="0.5" fill="#FFFFFF" width="4.053" height="1"/>
</g>
</svg>
