<?xml version="1.0" encoding="utf-8"?>
<!-- Generator: Adobe Illustrator 16.0.3, SVG Export Plug-In . SVG Version: 6.00 Build 0)  -->
<!DOCTYPE svg PUBLIC "-//W3C//DTD SVG 1.1//EN" "http://www.w3.org/Graphics/SVG/1.1/DTD/svg11.dtd">
<svg version="1.1" xmlns="http://www.w3.org/2000/svg" xmlns:xlink="http://www.w3.org/1999/xlink" x="0px" y="0px" width="22.68px"
	 height="22.68px" viewBox="0 0 22.68 22.68" enable-background="new 0 0 22.68 22.68" xml:space="preserve">
<g id="BCGRND">
</g>
<g id="IKONY">
	<rect x="0" fill="#585857" width="22.677" height="22.677"/>
	<g>
		<g>
			<g>
				<g>
					<path fill="#FFFFFF" d="M3.88,2.039C4.095,2,4.392,1.971,4.798,1.971c0.439,0,0.762,0.093,0.972,0.269
						C5.965,2.4,6.092,2.659,6.092,2.967c0,0.313-0.098,0.571-0.283,0.747c-0.239,0.239-0.615,0.352-1.04,0.352
						c-0.112,0-0.215-0.005-0.293-0.02v1.24H3.88V2.039z M4.475,3.572c0.073,0.02,0.171,0.024,0.293,0.024
						c0.449,0,0.723-0.22,0.723-0.605c0-0.366-0.254-0.562-0.669-0.562c-0.166,0-0.283,0.015-0.347,0.029V3.572z"/>
					<path fill="#FFFFFF" d="M6.989,4.266c0.014,0.43,0.352,0.615,0.732,0.615c0.277,0,0.479-0.039,0.658-0.107l0.088,0.415
						c-0.205,0.083-0.488,0.146-0.83,0.146c-0.771,0-1.225-0.474-1.225-1.201c0-0.659,0.4-1.279,1.162-1.279
						c0.771,0,1.025,0.635,1.025,1.157c0,0.112-0.01,0.2-0.02,0.254H6.989z M8.034,3.846C8.038,3.626,7.94,3.265,7.54,3.265
						c-0.371,0-0.527,0.337-0.551,0.581H8.034z"/>
					<path fill="#FFFFFF" d="M9.184,3.675c0-0.322-0.005-0.552-0.02-0.767h0.522l0.02,0.454h0.02
						c0.117-0.337,0.396-0.508,0.649-0.508c0.059,0,0.093,0.005,0.142,0.015v0.566c-0.049-0.01-0.103-0.02-0.176-0.02
						c-0.288,0-0.483,0.186-0.537,0.454c-0.01,0.054-0.02,0.117-0.02,0.186v1.23H9.184V3.675z"/>
					<path fill="#FFFFFF" d="M11.227,5.286V3.357h-0.322V2.908h0.322V2.806c0-0.308,0.084-0.615,0.289-0.811
						c0.176-0.166,0.414-0.229,0.619-0.229c0.162,0,0.289,0.024,0.387,0.059l-0.045,0.464c-0.063-0.024-0.146-0.044-0.254-0.044
						c-0.297,0-0.4,0.249-0.4,0.542v0.122h0.523v0.449h-0.518v1.929H11.227z"/>
					<path fill="#FFFFFF" d="M13.188,4.266c0.014,0.43,0.352,0.615,0.732,0.615c0.277,0,0.479-0.039,0.658-0.107l0.088,0.415
						c-0.205,0.083-0.488,0.146-0.83,0.146c-0.771,0-1.225-0.474-1.225-1.201c0-0.659,0.4-1.279,1.162-1.279
						c0.771,0,1.025,0.635,1.025,1.157c0,0.112-0.01,0.2-0.02,0.254H13.188z M14.233,3.846c0.004-0.22-0.094-0.581-0.494-0.581
						c-0.371,0-0.527,0.337-0.551,0.581H14.233z"/>
					<path fill="#FFFFFF" d="M17.132,5.213c-0.127,0.059-0.377,0.122-0.674,0.122c-0.742,0-1.227-0.474-1.227-1.211
						c0-0.713,0.488-1.27,1.324-1.27c0.219,0,0.443,0.049,0.58,0.112l-0.107,0.449c-0.098-0.044-0.238-0.093-0.453-0.093
						c-0.459,0-0.732,0.337-0.729,0.771c0,0.488,0.318,0.767,0.729,0.767c0.209,0,0.355-0.044,0.473-0.093L17.132,5.213z"/>
					<path fill="#FFFFFF" d="M18.438,2.229v0.679h0.57v0.449h-0.57v1.05c0,0.288,0.078,0.439,0.307,0.439
						c0.104,0,0.182-0.015,0.234-0.029l0.01,0.459c-0.088,0.034-0.244,0.059-0.434,0.059c-0.221,0-0.406-0.073-0.518-0.195
						c-0.127-0.137-0.186-0.352-0.186-0.664V3.357h-0.342V2.908h0.342V2.371L18.438,2.229z"/>
					<path fill="#FFFFFF" d="M6.392,6.539C6.583,6.5,6.93,6.471,7.266,6.471c0.444,0,0.718,0.054,0.942,0.21
						c0.205,0.122,0.342,0.337,0.342,0.615c0,0.303-0.19,0.581-0.547,0.713v0.01C8.35,8.106,8.668,8.38,8.668,8.834
						c0,0.293-0.127,0.522-0.317,0.679C8.116,9.718,7.73,9.82,7.13,9.82c-0.332,0-0.586-0.024-0.737-0.044V6.539z M6.988,7.838
						h0.308c0.415,0,0.649-0.195,0.649-0.474c0-0.308-0.234-0.449-0.615-0.449c-0.176,0-0.278,0.01-0.342,0.024V7.838z M6.988,9.352
						c0.078,0.01,0.181,0.015,0.317,0.015c0.386,0,0.728-0.146,0.728-0.552c0-0.381-0.332-0.537-0.747-0.537H6.988V9.352z"/>
					<path fill="#FFFFFF" d="M10.634,9.786l-0.039-0.264h-0.014C10.434,9.708,10.184,9.84,9.878,9.84
						c-0.479,0-0.748-0.347-0.748-0.708c0-0.601,0.533-0.903,1.412-0.898V8.194c0-0.156-0.064-0.415-0.484-0.415
						c-0.234,0-0.479,0.073-0.639,0.176L9.302,7.564c0.176-0.107,0.482-0.21,0.859-0.21c0.762,0,0.98,0.483,0.98,1.001v0.859
						c0,0.215,0.01,0.425,0.035,0.571H10.634z M10.556,8.624c-0.424-0.01-0.83,0.083-0.83,0.444c0,0.234,0.152,0.342,0.342,0.342
						c0.24,0,0.416-0.156,0.469-0.327c0.016-0.044,0.02-0.093,0.02-0.132V8.624z"/>
					<path fill="#FFFFFF" d="M12.478,8.453h0.01c0.059-0.093,0.127-0.195,0.19-0.278l0.576-0.767h0.723L13.099,8.38l1.006,1.406
						h-0.737l-0.684-1.05l-0.205,0.239v0.811h-0.601V6.319h0.601V8.453z"/>
					<path fill="#FFFFFF" d="M14.854,8.766c0.016,0.43,0.352,0.615,0.732,0.615c0.279,0,0.479-0.039,0.66-0.107l0.088,0.415
						c-0.205,0.083-0.488,0.146-0.83,0.146c-0.771,0-1.227-0.474-1.227-1.201c0-0.659,0.4-1.279,1.162-1.279
						c0.771,0,1.025,0.635,1.025,1.157c0,0.112-0.01,0.2-0.02,0.254H14.854z M15.899,8.346c0.006-0.22-0.092-0.581-0.492-0.581
						c-0.371,0-0.527,0.337-0.553,0.581H15.899z"/>
				</g>
			</g>
		</g>
		<g>
			<path fill="#FFFFFF" d="M19.338,21.503H7.514H3.338c-0.268,0.206,0,0.382,0,0.382c0.318,0,0.496,0.793,0.496,0.793h3.68h11.33
				c0,0,0.178-0.793,0.494-0.793C19.338,21.885,19.607,21.709,19.338,21.503z"/>
			<path opacity="0.5" fill="#FFFFFF" d="M17.547,19.465c-0.113-0.105-0.127-0.118-0.328-0.118c-0.072,0-0.107,0.023-0.279,0.255
				c-0.23,0.312-0.576,0.782-1.377,0.782c-0.928,0-1.252-0.679-1.447-1.084c-0.191-0.401-0.248-0.462-0.402-0.47
				c-0.07,0.039-0.199,0.259-0.275,0.39c-0.203,0.347-0.48,0.822-1.018,0.822l-0.041-0.001l-0.016-0.001
				c-0.498-0.034-0.746-0.43-0.912-0.692c-0.045-0.071-0.119-0.192-0.186-0.247c-0.031,0.038-0.068,0.084-0.098,0.124
				c-0.217,0.285-0.582,0.761-1.246,0.815c-0.051,0.004-0.102,0.006-0.148,0.006c-0.773,0-1.104-0.524-1.281-0.807
				c-0.016-0.025-0.035-0.056-0.053-0.083c-0.037,0.039-0.078,0.114-0.152,0.262c-0.182,0.361-0.482,0.966-1.414,0.966
				c-0.77,0-1.111-0.499-1.314-0.797c-0.141-0.207-0.176-0.24-0.217-0.24c-0.16,0-0.162,0.002-0.264,0.105
				c-0.098,0.099-0.246,0.249-0.504,0.372c-0.123,0.058-0.242,0.08-0.359,0.087v1.092h14.248v-1.086
				c-0.125-0.003-0.254-0.029-0.385-0.087C17.807,19.71,17.656,19.569,17.547,19.465z"/>
			<path fill="#FFFFFF" d="M12.996,15.888l-0.781,0l-0.877,0l-0.877,0l-0.781,0c-4.064,0-6.305,0-6.305,1.426v1.709
				c0.02,0.457,0.297,0.899,0.795,0.899c0.014,0,0.029-0.01,0.045-0.011c0.117-0.007,0.236-0.029,0.359-0.087
				c0.258-0.123,0.406-0.273,0.504-0.372c0.102-0.103,0.104-0.105,0.264-0.105c0.041,0,0.076,0.033,0.217,0.24
				c0.203,0.298,0.545,0.797,1.314,0.797c0.932,0,1.232-0.604,1.414-0.966c0.074-0.148,0.115-0.223,0.152-0.262
				c0.018,0.027,0.037,0.058,0.053,0.083C8.67,19.521,9,20.046,9.773,20.046c0.047,0,0.098-0.002,0.148-0.006
				c0.664-0.055,1.029-0.531,1.246-0.815c0.029-0.039,0.066-0.086,0.098-0.124c0.066,0.054,0.141,0.175,0.186,0.247
				c0.166,0.262,0.414,0.658,0.912,0.692l0.016,0.001l0.041,0.001c0.537,0,0.814-0.475,1.018-0.822
				c0.076-0.131,0.205-0.351,0.275-0.39c0.154,0.008,0.211,0.068,0.402,0.47c0.195,0.405,0.52,1.084,1.447,1.084
				c0.801,0,1.146-0.47,1.377-0.782c0.172-0.232,0.207-0.255,0.279-0.255c0.201,0,0.215,0.013,0.328,0.118
				c0.109,0.104,0.26,0.245,0.531,0.364c0.131,0.058,0.26,0.084,0.385,0.087c0.008,0,0.016,0.005,0.021,0.005
				c0.51,0,0.797-0.44,0.818-0.875v-1.733C19.303,15.888,17.062,15.888,12.996,15.888z M18.803,19.023c0,0-0.02,0.399-0.318,0.399
				c-0.006,0-0.016-0.005-0.021-0.005c-0.053-0.002-0.111-0.013-0.184-0.044c-0.496-0.218-0.408-0.525-1.061-0.525
				c-0.744,0-0.641,1.037-1.656,1.037c-1.199,0-0.793-1.546-1.887-1.546c-0.584,0-0.738,1.204-1.256,1.204
				c-0.008,0-0.016,0-0.023-0.001c-0.514-0.036-0.553-0.968-1.16-0.968c-0.025,0-0.049,0.001-0.076,0.004
				c-0.348,0.041-0.537,0.902-1.279,0.963c-0.037,0.003-0.072,0.004-0.107,0.004c-0.861,0-0.816-0.931-1.277-0.931
				c-0.021,0-0.045,0.002-0.068,0.006c-0.754,0.133-0.443,1.263-1.555,1.263c-0.939,0-0.844-1.037-1.531-1.037
				c-0.605,0-0.523,0.307-0.982,0.525c-0.057,0.027-0.102,0.033-0.145,0.038c-0.014,0.002-0.033,0.012-0.045,0.012
				c-0.277,0-0.295-0.399-0.295-0.399v-1.709c0-0.873,2.051-0.926,5.805-0.926c0.521,0,1.074,0.001,1.658,0.001
				c0.586,0,1.139-0.001,1.658-0.001c3.754,0,5.807,0.053,5.807,0.926V19.023z"/>
			<g>
				<path fill="#FFFFFF" d="M4.43,18.732c-0.1,0-0.182-0.081-0.182-0.181v-1.043c0-0.1,0.082-0.181,0.182-0.181
					s0.18,0.081,0.18,0.181v1.043C4.609,18.651,4.529,18.732,4.43,18.732z"/>
			</g>
			<g>
				<path fill="#FFFFFF" d="M6.924,19.488c-0.533,0-0.807-0.589-0.881-0.921c-0.021-0.097,0.041-0.193,0.139-0.215
					c0.105-0.021,0.193,0.041,0.215,0.137c0.002,0.007,0.146,0.637,0.533,0.637c0.018,0,0.035-0.001,0.055-0.004
					c0.092-0.017,0.189,0.053,0.205,0.152s-0.053,0.191-0.152,0.206C6.998,19.485,6.961,19.488,6.924,19.488z"/>
			</g>
			<g>
				<path fill="#FFFFFF" d="M9.889,19.229H9.887c-0.623-0.003-0.809-0.456-0.82-0.695c-0.006-0.1,0.072-0.184,0.172-0.189
					c0.09-0.005,0.184,0.071,0.189,0.17c0.004,0.059,0.045,0.35,0.461,0.353c0.1,0,0.182,0.082,0.18,0.182
					C10.068,19.149,9.988,19.229,9.889,19.229z"/>
			</g>
			<g>
				<path fill="#FFFFFF" d="M12.392,19.085c-0.053,0-0.104-0.023-0.141-0.067l-0.125-0.155c-0.063-0.078-0.051-0.192,0.027-0.254
					c0.078-0.062,0.191-0.05,0.254,0.027l0.125,0.155c0.063,0.078,0.051,0.192-0.027,0.254
					C12.473,19.072,12.433,19.085,12.392,19.085z"/>
			</g>
			<g>
				<path fill="#FFFFFF" d="M15.674,19.521c-0.33,0-0.531-0.145-0.758-0.522c-0.096-0.162-0.201-0.584-0.223-0.667
					c-0.023-0.097,0.037-0.194,0.133-0.218c0.1-0.024,0.195,0.037,0.219,0.133c0.045,0.184,0.131,0.482,0.182,0.567
					c0.205,0.343,0.314,0.364,0.547,0.341c0.098-0.012,0.188,0.063,0.197,0.162c0.01,0.1-0.063,0.188-0.162,0.198
					C15.762,19.518,15.715,19.521,15.674,19.521z"/>
			</g>
		</g>
		<g>
			<rect x="0" y="11.956" fill="#FFFFFF" width="22.678" height="0.889"/>
		</g>
		<g>
			<path fill="#FFFFFF" d="M9.588,13.472c0.086,0.146,0.184,0.287,0.31,0.412c0.796,0.796,2.088,0.796,2.884,0
				c0.125-0.125,0.224-0.266,0.31-0.412c0.059-0.099,0.108-0.202,0.148-0.308c0.093-0.246,0.125-0.505,0.121-0.764H9.318
				c-0.004,0.259,0.028,0.518,0.121,0.764C9.479,13.27,9.529,13.373,9.588,13.472z"/>
			<path opacity="0.5" fill="#FFFFFF" d="M7.351,14.207c0.064,0.188,0.113,0.379,0.199,0.561c0.043,0.09,0.133,0.144,0.227,0.144
				c0.036,0,0.072-0.008,0.106-0.024c0.125-0.059,0.179-0.208,0.12-0.333c-0.059-0.124-0.086-0.256-0.134-0.383
				c-0.062-0.165-0.131-0.328-0.174-0.498C7.59,13.256,7.551,12.828,7.555,12.4H7.049c-0.004,0.441,0.034,0.882,0.138,1.314
				C7.226,13.882,7.295,14.042,7.351,14.207z"/>
			<path opacity="0.5" fill="#FFFFFF" d="M6.224,14.361c0.121,0.388,0.278,0.768,0.477,1.134c0.045,0.084,0.131,0.131,0.22,0.131
				c0.04,0,0.081-0.01,0.119-0.03c0.121-0.065,0.166-0.217,0.101-0.338c-0.172-0.318-0.307-0.648-0.416-0.985
				c-0.053-0.163-0.096-0.327-0.134-0.493c-0.104-0.454-0.146-0.917-0.142-1.379H5.947c-0.004,0.491,0.041,0.983,0.149,1.466
				C6.134,14.032,6.174,14.198,6.224,14.361z"/>
			<path opacity="0.5" fill="#FFFFFF" d="M8.183,12.985c0.027,0.223,0.072,0.441,0.132,0.659c0,0.002,0.001,0.004,0.001,0.006
				c0.034,0.122,0.057,0.246,0.101,0.365c0.024,0.066,0.077,0.107,0.138,0.133c0.031,0.014,0.063,0.03,0.097,0.03
				c0.029,0,0.059-0.005,0.087-0.016c0.07-0.026,0.116-0.082,0.141-0.146c0.024-0.054,0.029-0.114,0.007-0.175
				c-0.024-0.067-0.035-0.137-0.056-0.205c-0.126-0.402-0.186-0.819-0.184-1.236H8.154c-0.001,0.182,0.006,0.363,0.026,0.544
				C8.182,12.958,8.182,12.972,8.183,12.985z"/>
			<path opacity="0.5" fill="#FFFFFF" d="M15.953,14.272c-0.104,0.323-0.231,0.641-0.394,0.946
				c-0.064,0.122-0.019,0.273,0.104,0.338c0.037,0.02,0.077,0.029,0.117,0.029c0.089,0,0.176-0.048,0.221-0.133
				c0.188-0.353,0.336-0.719,0.452-1.092c0.051-0.163,0.092-0.329,0.129-0.495c0.107-0.482,0.152-0.974,0.148-1.466h-0.502
				c0.004,0.463-0.036,0.926-0.141,1.379C16.051,13.946,16.006,14.11,15.953,14.272z"/>
			<path opacity="0.5" fill="#FFFFFF" d="M13.806,13.795c-0.047,0.13,0.021,0.273,0.151,0.319c0.027,0.01,0.056,0.015,0.084,0.015
				c0.103,0,0.199-0.063,0.235-0.166s0.054-0.209,0.083-0.313c0-0.001,0-0.002,0.001-0.003c0.06-0.216,0.104-0.433,0.131-0.654
				c0.001-0.007,0.001-0.015,0.002-0.022c0.022-0.189,0.031-0.379,0.03-0.57h-0.492c0.003,0.416-0.059,0.831-0.183,1.231
				C13.832,13.686,13.824,13.742,13.806,13.795z"/>
			<path opacity="0.5" fill="#FFFFFF" d="M14.809,14.172c-0.042,0.113-0.064,0.231-0.115,0.341
				c-0.058,0.125-0.002,0.274,0.123,0.332c0.034,0.016,0.069,0.023,0.104,0.023c0.095,0,0.186-0.054,0.228-0.146
				c0.077-0.167,0.119-0.343,0.178-0.516c0.057-0.165,0.128-0.325,0.168-0.493c0.103-0.432,0.14-0.873,0.135-1.314h-0.515
				c0.005,0.428-0.031,0.856-0.137,1.274C14.935,13.844,14.871,14.007,14.809,14.172z"/>
		</g>
	</g>
</g>
</svg>
