<?xml version="1.0" encoding="utf-8"?>
<!-- Generator: Adobe Illustrator 16.0.3, SVG Export Plug-In . SVG Version: 6.00 Build 0)  -->
<!DOCTYPE svg PUBLIC "-//W3C//DTD SVG 1.1//EN" "http://www.w3.org/Graphics/SVG/1.1/DTD/svg11.dtd">
<svg version="1.1" xmlns="http://www.w3.org/2000/svg" xmlns:xlink="http://www.w3.org/1999/xlink" x="0px" y="0px" width="22.68px"
	 height="22.68px" viewBox="0 0 22.68 22.68" enable-background="new 0 0 22.68 22.68" xml:space="preserve">
<g id="BCGRND">
</g>
<g id="IKONY">
	<rect fill="#585857" width="22.676" height="22.678"/>
	<g>
		<g>
			<g>
				<path fill="#FFFFFF" d="M6.969,2.32C7.184,2.281,7.48,2.252,7.887,2.252c0.439,0,0.762,0.093,0.971,0.269
					C9.053,2.682,9.18,2.94,9.18,3.248c0,0.313-0.098,0.571-0.283,0.747C8.658,4.234,8.281,4.347,7.857,4.347
					c-0.113,0-0.215-0.005-0.293-0.02v1.24H6.969V2.32z M7.564,3.854c0.072,0.02,0.17,0.024,0.293,0.024
					c0.449,0,0.723-0.22,0.723-0.605c0-0.366-0.254-0.562-0.67-0.562c-0.166,0-0.283,0.015-0.346,0.029V3.854z"/>
				<path fill="#FFFFFF" d="M9.76,2.101h0.605v3.467H9.76V2.101z"/>
				<path fill="#FFFFFF" d="M11.49,3.189l0.43,1.274c0.049,0.146,0.098,0.327,0.132,0.464h0.015
					c0.039-0.137,0.083-0.313,0.127-0.469l0.371-1.27h0.645l-0.596,1.621c-0.327,0.889-0.547,1.284-0.83,1.528
					c-0.234,0.21-0.479,0.288-0.63,0.308l-0.137-0.508c0.103-0.024,0.229-0.078,0.352-0.166c0.112-0.073,0.244-0.215,0.327-0.376
					c0.024-0.044,0.039-0.078,0.039-0.107c0-0.024-0.005-0.059-0.034-0.117l-0.869-2.183H11.49z"/>
				<path fill="#FFFFFF" d="M13.656,3.897c0-0.273-0.005-0.503-0.02-0.708h0.527l0.029,0.356h0.015
					c0.103-0.186,0.361-0.41,0.757-0.41c0.415,0,0.845,0.269,0.845,1.021v1.411h-0.601V4.225c0-0.342-0.127-0.601-0.454-0.601
					c-0.239,0-0.405,0.171-0.469,0.352c-0.02,0.054-0.024,0.127-0.024,0.195v1.396h-0.605V3.897z"/>
			</g>
		</g>
		<g>
			<rect y="7.769" fill="#FFFFFF" width="22.678" height="0.889"/>
		</g>
		<g>
			<g>
				<rect x="5.458" y="20.826" fill="#FFFFFF" width="0.5" height="1.85"/>
				<path fill="#FFFFFF" d="M15.741,22.676h-0.977v-1.85h0.977V22.676z M13.786,22.676h-0.979v-1.85h0.979V22.676z M11.829,22.676
					h-0.979v-1.85h0.979V22.676z M9.872,22.676H8.894v-1.85h0.979V22.676z M7.915,22.676H6.937v-1.85h0.979V22.676z"/>
				<rect x="16.72" y="20.826" fill="#FFFFFF" width="0.5" height="1.85"/>
			</g>
			<g>
				<path fill="#FFFFFF" d="M19.138,22.676h-1v-2.828H4.54v2.828h-1v-3.328c0-0.276,0.224-0.5,0.5-0.5h14.598
					c0.276,0,0.5,0.224,0.5,0.5V22.676z"/>
			</g>
		</g>
		<g>
			<g>
				<path fill="#FFFFFF" d="M7.542,17.447c-0.082-0.152-0.123-0.307-0.123-0.465c0-0.076,0.023-0.174,0.055-0.287
					c0.041-0.125,0.099-0.267,0.164-0.42c0.047-0.096,0.098-0.199,0.151-0.299c0.045-0.092,0.091-0.178,0.138-0.271
					c0.049-0.082,0.089-0.162,0.136-0.238c0.345-0.615,0.704-1.16,0.704-1.16s0.353,0.545,0.697,1.16
					c0.048,0.076,0.088,0.156,0.136,0.238c0.048,0.089,0.095,0.176,0.139,0.268c0.053,0.1,0.105,0.203,0.147,0.299
					c0.07,0.153,0.128,0.299,0.168,0.424c0.029,0.113,0.053,0.211,0.053,0.287c0,0.16-0.039,0.313-0.115,0.463
					c-0.033,0.053-0.082,0.098-0.121,0.146c-0.17,0.225-0.42,0.396-0.715,0.48H8.372c-0.295-0.084-0.549-0.256-0.715-0.48
					C7.619,17.543,7.565,17.498,7.542,17.447z"/>
				<path opacity="0.5" fill="#FFFFFF" d="M7.377,17.637c-0.046-0.039-0.095-0.076-0.14-0.119c-0.098-0.092-0.186-0.191-0.266-0.299
					c-0.032-0.047-0.064-0.096-0.099-0.145c-0.04-0.063-0.078-0.134-0.114-0.209c-0.137-0.285-0.223-0.604-0.229-0.938
					c0-0.01,0-0.02,0-0.02c0-0.018,0-0.032,0.006-0.044c0-0.093,0.018-0.202,0.042-0.325c0.083-0.406,0.279-0.943,0.525-1.518
					c0.032-0.076,0.068-0.155,0.102-0.232c0.032-0.076,0.067-0.152,0.103-0.227c0.643-1.416,1.459-2.86,1.459-2.86
					s0.811,1.444,1.453,2.86c0.036,0.074,0.07,0.15,0.102,0.23c0.035,0.073,0.07,0.152,0.104,0.229
					c0.245,0.574,0.441,1.115,0.524,1.521c0.026,0.119,0.041,0.23,0.041,0.324c0,0.012,0.005,0.023,0.005,0.034
					c0,0-0.005,0.017-0.005,0.026c-0.004,0.338-0.086,0.654-0.223,0.938c-0.039,0.075-0.074,0.146-0.115,0.209
					c-0.031,0.049-0.063,0.1-0.101,0.146c-0.078,0.107-0.161,0.205-0.259,0.297c-0.045,0.043-0.095,0.082-0.147,0.119
					c-0.046,0.039-0.09,0.082-0.142,0.117c-0.25,0.168-0.544,0.264-0.85,0.318c0.295-0.084,0.545-0.256,0.715-0.48
					c0.039-0.049,0.088-0.094,0.121-0.146c0.076-0.15,0.115-0.303,0.115-0.463c0-0.076-0.023-0.174-0.053-0.287
					c-0.04-0.125-0.098-0.271-0.168-0.424c-0.042-0.096-0.095-0.199-0.147-0.299c-0.044-0.092-0.091-0.179-0.139-0.268
					c-0.048-0.082-0.088-0.162-0.136-0.238c-0.345-0.615-0.697-1.16-0.697-1.16s-0.359,0.545-0.704,1.16
					c-0.047,0.076-0.087,0.156-0.136,0.238c-0.047,0.094-0.093,0.18-0.138,0.271c-0.054,0.1-0.104,0.203-0.151,0.299
					c-0.065,0.153-0.123,0.295-0.164,0.42c-0.031,0.113-0.055,0.211-0.055,0.287c0,0.158,0.041,0.313,0.123,0.465
					c0.023,0.051,0.077,0.096,0.115,0.145c0.166,0.225,0.42,0.396,0.715,0.48c-0.308-0.059-0.596-0.15-0.85-0.318
					C7.471,17.717,7.429,17.674,7.377,17.637z"/>
			</g>
			<g>
				<path fill="#FFFFFF" d="M12.692,17.447c-0.08-0.152-0.121-0.307-0.121-0.465c0-0.076,0.023-0.174,0.055-0.287
					c0.039-0.125,0.099-0.267,0.164-0.42c0.046-0.096,0.098-0.199,0.151-0.299c0.043-0.092,0.091-0.178,0.138-0.271
					c0.047-0.082,0.089-0.162,0.134-0.238c0.346-0.615,0.706-1.16,0.706-1.16s0.353,0.545,0.697,1.16
					c0.047,0.076,0.088,0.156,0.135,0.238c0.047,0.089,0.095,0.176,0.139,0.268c0.053,0.1,0.105,0.203,0.147,0.299
					c0.07,0.153,0.128,0.299,0.167,0.424c0.031,0.113,0.053,0.211,0.053,0.287c0,0.16-0.038,0.313-0.114,0.463
					c-0.032,0.053-0.082,0.098-0.12,0.146c-0.171,0.225-0.42,0.396-0.716,0.48h-0.782c-0.296-0.084-0.549-0.256-0.717-0.48
					C12.77,17.543,12.716,17.498,12.692,17.447z"/>
				<path opacity="0.5" fill="#FFFFFF" d="M12.527,17.637c-0.044-0.039-0.093-0.076-0.14-0.119
					c-0.096-0.092-0.184-0.191-0.266-0.299c-0.03-0.047-0.064-0.096-0.097-0.145c-0.042-0.063-0.08-0.134-0.115-0.209
					c-0.136-0.285-0.223-0.604-0.228-0.938c0-0.01,0-0.02,0-0.02c0-0.018,0-0.032,0.005-0.044c0-0.093,0.018-0.202,0.041-0.325
					c0.085-0.406,0.279-0.943,0.527-1.518c0.03-0.076,0.066-0.155,0.102-0.232c0.03-0.076,0.066-0.152,0.103-0.227
					c0.641-1.416,1.459-2.86,1.459-2.86s0.811,1.444,1.452,2.86c0.036,0.074,0.07,0.15,0.102,0.23
					c0.035,0.073,0.07,0.152,0.104,0.229c0.245,0.574,0.441,1.115,0.524,1.521c0.026,0.119,0.041,0.23,0.041,0.324
					c0,0.012,0.005,0.023,0.005,0.034c0,0-0.005,0.017-0.005,0.026c-0.004,0.338-0.086,0.654-0.223,0.938
					c-0.039,0.075-0.073,0.146-0.115,0.209c-0.031,0.049-0.063,0.1-0.101,0.146c-0.078,0.107-0.161,0.205-0.259,0.297
					c-0.044,0.043-0.095,0.082-0.146,0.119c-0.047,0.039-0.091,0.082-0.144,0.117c-0.248,0.168-0.542,0.264-0.849,0.318
					c0.296-0.084,0.545-0.256,0.716-0.48c0.038-0.049,0.088-0.094,0.12-0.146c0.076-0.15,0.114-0.303,0.114-0.463
					c0-0.076-0.021-0.174-0.053-0.287c-0.039-0.125-0.097-0.271-0.167-0.424c-0.042-0.096-0.095-0.199-0.147-0.299
					c-0.044-0.092-0.092-0.179-0.139-0.268c-0.047-0.082-0.088-0.162-0.135-0.238c-0.345-0.615-0.697-1.16-0.697-1.16
					s-0.36,0.545-0.706,1.16c-0.045,0.076-0.087,0.156-0.134,0.238c-0.047,0.094-0.095,0.18-0.138,0.271
					c-0.054,0.1-0.105,0.203-0.151,0.299c-0.065,0.153-0.125,0.295-0.164,0.42c-0.031,0.113-0.055,0.211-0.055,0.287
					c0,0.158,0.041,0.313,0.121,0.465c0.023,0.051,0.077,0.096,0.115,0.145c0.168,0.225,0.421,0.396,0.717,0.48
					c-0.308-0.059-0.596-0.15-0.85-0.318C12.623,17.717,12.58,17.674,12.527,17.637z"/>
			</g>
			<g>
				<path fill="#FFFFFF" d="M17.565,17.135c-0.049-0.164-0.058-0.324-0.025-0.479c0.015-0.075,0.058-0.165,0.11-0.271
					c0.064-0.114,0.15-0.241,0.245-0.379c0.064-0.084,0.136-0.175,0.209-0.262c0.062-0.081,0.124-0.156,0.189-0.238
					c0.063-0.07,0.119-0.141,0.18-0.206c0.461-0.533,0.924-0.995,0.924-0.995s0.235,0.605,0.449,1.277
					c0.031,0.084,0.055,0.17,0.085,0.26c0.028,0.097,0.059,0.191,0.082,0.291c0.031,0.106,0.063,0.219,0.085,0.321
					c0.037,0.165,0.065,0.318,0.079,0.449c0.007,0.117,0.008,0.216-0.007,0.29c-0.033,0.158-0.101,0.301-0.205,0.432
					c-0.043,0.047-0.1,0.08-0.147,0.119c-0.213,0.186-0.491,0.305-0.798,0.326l-0.767-0.156c-0.272-0.143-0.485-0.361-0.604-0.615
					C17.621,17.244,17.578,17.191,17.565,17.135z"/>
				<path opacity="0.5" fill="#FFFFFF" d="M17.366,17.287c-0.036-0.047-0.077-0.092-0.113-0.145c-0.076-0.109-0.143-0.224-0.2-0.346
					c-0.021-0.051-0.044-0.105-0.066-0.16c-0.027-0.07-0.052-0.148-0.071-0.229c-0.075-0.307-0.096-0.636-0.034-0.965
					c0.002-0.009,0.004-0.02,0.004-0.02c0.003-0.017,0.006-0.031,0.015-0.041c0.019-0.09,0.057-0.195,0.105-0.311
					c0.164-0.381,0.463-0.867,0.82-1.381c0.046-0.068,0.097-0.139,0.146-0.207c0.047-0.069,0.097-0.135,0.146-0.201
					c0.913-1.26,2.004-2.509,2.004-2.509s0.504,1.578,0.848,3.093c0.021,0.081,0.04,0.161,0.054,0.246
					c0.021,0.079,0.039,0.164,0.057,0.244c0.125,0.613,0.208,1.182,0.209,1.598c0.002,0.121-0.007,0.233-0.026,0.325
					c-0.002,0.011,0,0.024-0.002,0.034c0,0-0.008,0.016-0.01,0.025c-0.071,0.33-0.216,0.623-0.406,0.873
					c-0.054,0.066-0.102,0.129-0.155,0.182c-0.039,0.043-0.081,0.086-0.128,0.125c-0.099,0.088-0.198,0.166-0.313,0.238
					c-0.052,0.033-0.108,0.061-0.167,0.086c-0.053,0.029-0.105,0.063-0.164,0.086c-0.276,0.115-0.584,0.148-0.896,0.141
					c0.307-0.021,0.585-0.141,0.798-0.326c0.048-0.039,0.104-0.072,0.147-0.119c0.104-0.131,0.172-0.273,0.205-0.432
					c0.015-0.074,0.014-0.173,0.007-0.29c-0.014-0.131-0.042-0.284-0.079-0.449c-0.021-0.103-0.054-0.215-0.085-0.321
					c-0.023-0.1-0.054-0.194-0.082-0.291c-0.03-0.09-0.054-0.176-0.085-0.26c-0.214-0.672-0.449-1.277-0.449-1.277
					s-0.463,0.462-0.924,0.995c-0.061,0.065-0.117,0.136-0.18,0.206c-0.065,0.082-0.128,0.157-0.189,0.238
					c-0.073,0.087-0.145,0.178-0.209,0.262c-0.095,0.138-0.181,0.265-0.245,0.379c-0.053,0.105-0.096,0.195-0.11,0.271
					c-0.032,0.155-0.023,0.315,0.025,0.479c0.013,0.057,0.056,0.109,0.084,0.164c0.119,0.254,0.332,0.473,0.604,0.615
					c-0.289-0.119-0.553-0.268-0.768-0.482C17.442,17.387,17.409,17.334,17.366,17.287z"/>
			</g>
			<g>
				<path fill="#FFFFFF" d="M5.112,17.135c0.049-0.164,0.058-0.324,0.025-0.479c-0.015-0.075-0.058-0.165-0.11-0.271
					c-0.064-0.114-0.15-0.241-0.245-0.379c-0.064-0.084-0.136-0.175-0.209-0.262c-0.062-0.081-0.124-0.156-0.189-0.238
					c-0.063-0.07-0.119-0.141-0.18-0.206c-0.461-0.533-0.924-0.995-0.924-0.995s-0.235,0.605-0.449,1.277
					c-0.031,0.084-0.055,0.17-0.085,0.26c-0.028,0.097-0.059,0.191-0.082,0.291c-0.031,0.106-0.063,0.219-0.085,0.321
					c-0.037,0.165-0.065,0.318-0.079,0.449c-0.007,0.117-0.008,0.216,0.007,0.29c0.033,0.158,0.101,0.301,0.205,0.432
					c0.043,0.047,0.1,0.08,0.147,0.119c0.213,0.186,0.491,0.305,0.798,0.326l0.767-0.156c0.272-0.143,0.485-0.361,0.604-0.615
					C5.057,17.244,5.1,17.191,5.112,17.135z"/>
				<path opacity="0.5" fill="#FFFFFF" d="M5.312,17.287c0.036-0.047,0.077-0.092,0.113-0.145c0.076-0.109,0.143-0.224,0.2-0.346
					c0.021-0.051,0.044-0.105,0.066-0.16c0.027-0.07,0.052-0.148,0.071-0.229c0.075-0.307,0.096-0.636,0.034-0.965
					c-0.002-0.009-0.004-0.02-0.004-0.02c-0.003-0.017-0.006-0.031-0.015-0.041c-0.019-0.09-0.057-0.195-0.105-0.311
					c-0.164-0.381-0.463-0.867-0.82-1.381c-0.046-0.068-0.097-0.139-0.146-0.207C4.66,13.415,4.61,13.35,4.561,13.283
					c-0.913-1.26-2.004-2.509-2.004-2.509s-0.504,1.578-0.848,3.093c-0.021,0.081-0.04,0.161-0.054,0.246
					c-0.021,0.079-0.039,0.164-0.057,0.244c-0.125,0.613-0.208,1.182-0.209,1.598c-0.002,0.121,0.007,0.233,0.026,0.325
					c0.002,0.011,0,0.024,0.002,0.034c0,0,0.008,0.016,0.01,0.025c0.071,0.33,0.216,0.623,0.406,0.873
					c0.054,0.066,0.102,0.129,0.155,0.182c0.039,0.043,0.081,0.086,0.128,0.125c0.099,0.088,0.198,0.166,0.313,0.238
					c0.052,0.033,0.108,0.061,0.167,0.086c0.053,0.029,0.105,0.063,0.164,0.086c0.276,0.115,0.584,0.148,0.896,0.141
					c-0.307-0.021-0.585-0.141-0.798-0.326c-0.048-0.039-0.104-0.072-0.147-0.119c-0.104-0.131-0.172-0.273-0.205-0.432
					c-0.015-0.074-0.014-0.173-0.007-0.29c0.014-0.131,0.042-0.284,0.079-0.449c0.021-0.103,0.054-0.215,0.085-0.321
					c0.023-0.1,0.054-0.194,0.082-0.291c0.03-0.09,0.054-0.176,0.085-0.26c0.214-0.672,0.449-1.277,0.449-1.277
					s0.463,0.462,0.924,0.995c0.061,0.065,0.117,0.136,0.18,0.206c0.065,0.082,0.128,0.157,0.189,0.238
					c0.073,0.087,0.145,0.178,0.209,0.262c0.095,0.138,0.181,0.265,0.245,0.379c0.053,0.105,0.096,0.195,0.11,0.271
					c0.032,0.155,0.023,0.315-0.025,0.479c-0.013,0.057-0.056,0.109-0.084,0.164c-0.119,0.254-0.332,0.473-0.604,0.615
					c0.289-0.119,0.553-0.268,0.768-0.482C5.235,17.387,5.269,17.334,5.312,17.287z"/>
			</g>
		</g>
	</g>
</g>
</svg>
