<?xml version="1.0" encoding="utf-8"?>
<!-- Generator: Adobe Illustrator 16.0.3, SVG Export Plug-In . SVG Version: 6.00 Build 0)  -->
<!DOCTYPE svg PUBLIC "-//W3C//DTD SVG 1.1//EN" "http://www.w3.org/Graphics/SVG/1.1/DTD/svg11.dtd">
<svg version="1.1" xmlns="http://www.w3.org/2000/svg" xmlns:xlink="http://www.w3.org/1999/xlink" x="0px" y="0px" width="22.68px"
	 height="22.68px" viewBox="0 0 22.68 22.68" enable-background="new 0 0 22.68 22.68" xml:space="preserve">
<g id="BCGRND">
</g>
<g id="IKONY">
	<polygon fill="#585857" points="22.678,16.335 22.678,0 0,0 0,22.678 14.117,22.678 22.678,22.678 	"/>
	<g>
		<g>
			<g>
				<rect x="0" y="11.956" fill="#FFFFFF" width="22.678" height="0.889"/>
			</g>
			<g>
				<path fill="#FFFFFF" d="M2.689,2.039C2.904,2,3.202,1.971,3.607,1.971c0.439,0,0.762,0.093,0.972,0.269
					C4.774,2.4,4.901,2.659,4.901,2.967c0,0.313-0.098,0.571-0.283,0.747c-0.239,0.239-0.615,0.352-1.04,0.352
					c-0.112,0-0.215-0.005-0.293-0.02v1.24H2.689V2.039z M3.285,3.572c0.073,0.02,0.171,0.024,0.293,0.024
					c0.449,0,0.723-0.22,0.723-0.605c0-0.366-0.254-0.562-0.669-0.562c-0.166,0-0.283,0.015-0.347,0.029V3.572z"/>
				<path fill="#FFFFFF" d="M7.537,4.075c0,0.874-0.615,1.265-1.221,1.265c-0.674,0-1.191-0.464-1.191-1.226
					c0-0.781,0.512-1.26,1.23-1.26C7.062,2.854,7.537,3.353,7.537,4.075z M5.744,4.1c0,0.459,0.225,0.806,0.592,0.806
					c0.342,0,0.58-0.337,0.58-0.815c0-0.371-0.166-0.796-0.576-0.796C5.916,3.294,5.744,3.704,5.744,4.1z"/>
				<path fill="#FFFFFF" d="M8.004,4.734c0.137,0.083,0.396,0.171,0.61,0.171c0.264,0,0.381-0.107,0.381-0.264
					c0-0.161-0.098-0.244-0.391-0.347C8.14,4.134,7.945,3.88,7.95,3.602c0-0.42,0.347-0.747,0.898-0.747
					c0.264,0,0.493,0.068,0.63,0.142L9.361,3.421C9.259,3.362,9.068,3.284,8.858,3.284c-0.215,0-0.332,0.103-0.332,0.249
					c0,0.151,0.112,0.225,0.415,0.332c0.43,0.156,0.63,0.376,0.635,0.728c0,0.43-0.337,0.742-0.967,0.742
					c-0.288,0-0.547-0.068-0.723-0.166L8.004,4.734z"/>
				<path fill="#FFFFFF" d="M12.201,4.573c0,0.283,0.01,0.518,0.02,0.713h-0.527l-0.029-0.361h-0.01
					c-0.104,0.171-0.338,0.415-0.762,0.415c-0.436,0-0.83-0.259-0.83-1.035V2.908h0.6v1.294c0,0.396,0.127,0.649,0.445,0.649
					c0.238,0,0.395-0.171,0.459-0.322c0.02-0.054,0.033-0.117,0.033-0.186V2.908h0.602V4.573z"/>
				<path fill="#FFFFFF" d="M13.234,2.908l0.386,1.206c0.068,0.21,0.117,0.4,0.161,0.596h0.015c0.044-0.195,0.098-0.381,0.161-0.596
					l0.376-1.206h0.635l-0.908,2.378h-0.591l-0.884-2.378H13.234z"/>
				<path fill="#FFFFFF" d="M15.337,3.616c0-0.273-0.005-0.503-0.02-0.708h0.527l0.029,0.356h0.015
					c0.103-0.186,0.361-0.41,0.757-0.41c0.415,0,0.845,0.269,0.845,1.021v1.411h-0.601V3.943c0-0.342-0.127-0.601-0.454-0.601
					c-0.239,0-0.405,0.171-0.469,0.352c-0.02,0.054-0.024,0.127-0.024,0.195v1.396h-0.605V3.616z"/>
				<path fill="#FFFFFF" d="M18.558,4.266c0.015,0.43,0.352,0.615,0.732,0.615c0.278,0,0.479-0.039,0.659-0.107l0.088,0.415
					c-0.205,0.083-0.488,0.146-0.83,0.146c-0.771,0-1.226-0.474-1.226-1.201c0-0.659,0.4-1.279,1.162-1.279
					c0.771,0,1.025,0.635,1.025,1.157c0,0.112-0.01,0.2-0.02,0.254H18.558z M19.603,3.846c0.005-0.22-0.093-0.581-0.493-0.581
					c-0.371,0-0.527,0.337-0.552,0.581H19.603z M19.877,1.878l-0.601,0.723h-0.415l0.425-0.723H19.877z"/>
				<path fill="#FFFFFF" d="M5.506,8.199c0-0.313-0.01-0.566-0.02-0.791h0.527l0.029,0.366h0.01c0.176-0.269,0.453-0.42,0.814-0.42
					c0.547,0,1.002,0.469,1.002,1.211c0,0.859-0.543,1.274-1.084,1.274c-0.299,0-0.547-0.127-0.67-0.317h-0.01v1.23h-0.6V8.199z
					 M6.105,8.79c0,0.059,0.006,0.112,0.02,0.166c0.059,0.244,0.273,0.42,0.527,0.42c0.381,0,0.605-0.317,0.605-0.786
					c0-0.42-0.205-0.762-0.59-0.762c-0.25,0-0.479,0.181-0.537,0.444C6.115,8.321,6.105,8.375,6.105,8.424V8.79z"/>
				<path fill="#FFFFFF" d="M9.703,9.786L9.664,9.522H9.649C9.503,9.708,9.254,9.84,8.946,9.84c-0.479,0-0.747-0.347-0.747-0.708
					c0-0.601,0.532-0.903,1.411-0.898V8.194c0-0.156-0.063-0.415-0.483-0.415c-0.234,0-0.479,0.073-0.64,0.176L8.37,7.564
					c0.176-0.107,0.483-0.21,0.859-0.21c0.762,0,0.981,0.483,0.981,1.001v0.859c0,0.215,0.01,0.425,0.034,0.571H9.703z M9.625,8.624
					c-0.425-0.01-0.83,0.083-0.83,0.444c0,0.234,0.151,0.342,0.342,0.342c0.239,0,0.415-0.156,0.469-0.327
					c0.015-0.044,0.02-0.093,0.02-0.132V8.624z"/>
				<path fill="#FFFFFF" d="M10.849,8.116c0-0.273-0.006-0.503-0.02-0.708h0.527l0.029,0.356H11.4
					c0.104-0.186,0.361-0.41,0.758-0.41c0.414,0,0.844,0.269,0.844,1.021v1.411h-0.6V8.443c0-0.342-0.127-0.601-0.455-0.601
					c-0.238,0-0.404,0.171-0.469,0.352c-0.02,0.054-0.023,0.127-0.023,0.195v1.396h-0.605V8.116z"/>
				<path fill="#FFFFFF" d="M14.309,6.729v0.679h0.571v0.449h-0.571v1.05c0,0.288,0.078,0.439,0.308,0.439
					c0.103,0,0.181-0.015,0.234-0.029l0.01,0.459c-0.088,0.034-0.244,0.059-0.435,0.059c-0.22,0-0.405-0.073-0.518-0.195
					c-0.127-0.137-0.186-0.352-0.186-0.664V7.857h-0.342V7.408h0.342V6.871L14.309,6.729z"/>
				<path fill="#FFFFFF" d="M15.747,7.408l0.43,1.274c0.049,0.146,0.098,0.327,0.132,0.464h0.015
					c0.039-0.137,0.083-0.313,0.127-0.469l0.371-1.27h0.645L16.87,9.029c-0.327,0.889-0.547,1.284-0.83,1.528
					c-0.234,0.21-0.479,0.288-0.63,0.308l-0.137-0.508c0.103-0.024,0.229-0.078,0.352-0.166c0.112-0.073,0.244-0.215,0.327-0.376
					c0.024-0.044,0.039-0.078,0.039-0.107c0-0.024-0.005-0.059-0.034-0.117l-0.869-2.183H15.747z"/>
			</g>
		</g>
		<g>
			<path opacity="0.5" fill="#FFFFFF" d="M14.46,19.836c-0.716,0-1.296-0.58-1.296-1.296s0.58-1.296,1.296-1.296
				s1.296,0.58,1.296,1.296c0,0.237-0.081,0.447-0.191,0.638l0.722,0.417l4.153-7.194h-4.868l-2.328,4.032h-1.11l2.328-4.032h-1.154
				l-2.328,4.032H9.924l2.328-4.032h-1.154l-2.328,4.032H7.716l2.328-4.032H8.889l-2.328,4.032H0v3.388
				c0,0.29,0.057,0.564,0.138,0.829H14.46V19.836z"/>
			<g opacity="0.7">
				<path fill="#FFFFFF" d="M11.359,18.541c0-0.961,0.646-1.762,1.525-2.017c-0.187-0.054-0.38-0.092-0.583-0.092
					c-1.164,0-2.108,0.944-2.108,2.108s0.944,2.108,2.108,2.108c0.203,0,0.396-0.038,0.583-0.092
					C12.006,20.303,11.359,19.501,11.359,18.541z"/>
			</g>
			<g opacity="0.5">
				<path fill="#FFFFFF" d="M9.234,18.541c0-0.961,0.646-1.762,1.525-2.017c-0.187-0.054-0.38-0.092-0.583-0.092
					c-1.164,0-2.108,0.944-2.108,2.108s0.944,2.108,2.108,2.108c0.203,0,0.396-0.038,0.583-0.092
					C9.881,20.303,9.234,19.501,9.234,18.541z"/>
			</g>
			<g opacity="0.3">
				<path fill="#FFFFFF" d="M7.165,18.541c0-0.961,0.646-1.762,1.525-2.017c-0.187-0.054-0.38-0.092-0.583-0.092
					c-1.164,0-2.108,0.944-2.108,2.108s0.944,2.108,2.108,2.108c0.203,0,0.396-0.038,0.583-0.092
					C7.811,20.303,7.165,19.501,7.165,18.541z"/>
			</g>
			<g>
				<path fill="#FFFFFF" d="M14.46,16.432c-1.164,0-2.108,0.944-2.108,2.108s0.944,2.108,2.108,2.108s2.108-0.944,2.108-2.108
					S15.624,16.432,14.46,16.432z M14.46,19.445c-0.5,0-0.904-0.405-0.904-0.905s0.404-0.905,0.904-0.905s0.904,0.405,0.904,0.905
					S14.96,19.445,14.46,19.445z"/>
			</g>
		</g>
	</g>
</g>
</svg>
