<?xml version="1.0" encoding="utf-8"?>
<!-- Generator: Adobe Illustrator 16.0.3, SVG Export Plug-In . SVG Version: 6.00 Build 0)  -->
<!DOCTYPE svg PUBLIC "-//W3C//DTD SVG 1.1//EN" "http://www.w3.org/Graphics/SVG/1.1/DTD/svg11.dtd">
<svg version="1.1" xmlns="http://www.w3.org/2000/svg" xmlns:xlink="http://www.w3.org/1999/xlink" x="0px" y="0px" width="22.68px"
	 height="22.68px" viewBox="0 0 22.68 22.68" enable-background="new 0 0 22.68 22.68" xml:space="preserve">
<g id="BCGRND">
</g>
<g id="IKONY">
	<rect x="0" fill="#585857" width="22.676" height="22.678"/>
	<g>
		<g>
			<rect x="0.001" y="11.956" fill="#FFFFFF" width="22.678" height="0.889"/>
		</g>
		<g>
			<path fill="#FFFFFF" d="M5.352,2.039C5.573,2,5.869,1.971,6.27,1.971c0.439,0,0.758,0.094,0.967,0.27
				C7.432,2.4,7.559,2.66,7.559,2.967c0,0.313-0.098,0.566-0.277,0.742C7.037,3.949,6.666,4.066,6.24,4.066
				c-0.111,0-0.209-0.006-0.293-0.025v1.246H5.352V2.039z M5.948,3.568C6.026,3.592,6.119,3.598,6.24,3.598
				c0.449,0,0.723-0.225,0.723-0.605c0-0.367-0.254-0.557-0.668-0.557c-0.166,0-0.283,0.014-0.348,0.029V3.568z"/>
			<path fill="#FFFFFF" d="M10.297,4.076c0,0.873-0.615,1.264-1.221,1.264c-0.669,0-1.191-0.459-1.191-1.225
				c0-0.781,0.513-1.26,1.23-1.26C9.823,2.855,10.297,3.354,10.297,4.076z M8.505,4.1c0,0.459,0.229,0.807,0.591,0.807
				c0.342,0,0.581-0.332,0.581-0.816c0-0.371-0.166-0.801-0.576-0.801C8.676,3.289,8.505,3.705,8.505,4.1z"/>
			<path fill="#FFFFFF" d="M11.233,2.908l0.387,1.207c0.068,0.209,0.117,0.4,0.16,0.596h0.016c0.043-0.195,0.098-0.381,0.16-0.596
				l0.381-1.207h0.631l-0.908,2.379h-0.592l-0.883-2.379H11.233z"/>
			<path fill="#FFFFFF" d="M13.434,3.676c0-0.322-0.005-0.557-0.02-0.768h0.518l0.024,0.449h0.015
				c0.117-0.332,0.396-0.502,0.654-0.502c0.059,0,0.093,0.004,0.142,0.014v0.563c-0.054-0.01-0.107-0.016-0.181-0.016
				c-0.283,0-0.483,0.182-0.537,0.455c-0.01,0.053-0.015,0.117-0.015,0.18v1.236h-0.601V3.676z"/>
			<path fill="#FFFFFF" d="M15.272,1.82h0.602v1.41h0.01c0.072-0.111,0.176-0.205,0.297-0.268c0.123-0.068,0.264-0.107,0.416-0.107
				c0.404,0,0.83,0.268,0.83,1.029v1.402h-0.602V3.949c0-0.342-0.127-0.605-0.459-0.605c-0.234,0-0.4,0.156-0.469,0.336
				c-0.02,0.055-0.023,0.117-0.023,0.182v1.426h-0.602V1.82z"/>
			<path fill="#FFFFFF" d="M4.027,6.744c0,0.176-0.132,0.322-0.342,0.322c-0.2,0-0.332-0.146-0.332-0.322
				c0-0.186,0.137-0.326,0.337-0.326C3.895,6.418,4.022,6.559,4.027,6.744z M3.387,9.787V7.408h0.601v2.379H3.387z"/>
			<path fill="#FFFFFF" d="M6.518,9.787L6.166,9.133c-0.141-0.254-0.234-0.43-0.332-0.621h-0.01
				C5.746,8.703,5.658,8.879,5.528,9.133L5.199,9.787H4.512l0.977-1.666L4.545,6.496h0.693l0.357,0.678
				c0.107,0.205,0.186,0.367,0.268,0.553h0.016c0.088-0.205,0.156-0.352,0.258-0.553l0.352-0.678h0.689L6.215,8.102l1.002,1.686
				H6.518z"/>
			<path fill="#FFFFFF" d="M8.084,8.766C8.1,9.195,8.432,9.381,8.817,9.381c0.279,0,0.475-0.043,0.66-0.107l0.088,0.41
				C9.36,9.771,9.076,9.836,8.735,9.836c-0.771,0-1.227-0.475-1.227-1.201c0-0.66,0.4-1.279,1.162-1.279
				c0.771,0,1.025,0.635,1.025,1.156c0,0.113-0.01,0.201-0.02,0.254H8.084z M9.129,8.346c0.006-0.219-0.092-0.58-0.492-0.58
				c-0.371,0-0.527,0.336-0.553,0.58H9.129z"/>
			<path fill="#FFFFFF" d="M10.281,6.32h0.601v3.467h-0.601V6.32z"/>
			<path fill="#FFFFFF" d="M12.274,6.744c0,0.176-0.131,0.322-0.342,0.322c-0.199,0-0.332-0.146-0.332-0.322
				c0-0.186,0.137-0.326,0.338-0.326C12.143,6.418,12.27,6.559,12.274,6.744z M11.635,9.787V7.408h0.6v2.379H11.635z"/>
			<path fill="#FFFFFF" d="M15.114,9.074c0,0.283,0.01,0.518,0.02,0.713H14.61L14.58,9.43h-0.014
				c-0.104,0.166-0.338,0.41-0.768,0.41s-0.824-0.258-0.824-1.035V7.408h0.6v1.295c0,0.395,0.127,0.648,0.445,0.648
				c0.244,0,0.4-0.166,0.459-0.322c0.023-0.049,0.033-0.117,0.033-0.186V7.408h0.602V9.074z"/>
			<path fill="#FFFFFF" d="M15.864,8.117c0-0.273-0.01-0.504-0.02-0.709h0.513l0.029,0.352h0.015
				c0.112-0.186,0.327-0.404,0.732-0.404c0.313,0,0.557,0.176,0.659,0.439h0.01c0.083-0.133,0.181-0.23,0.288-0.299
				c0.137-0.092,0.288-0.141,0.488-0.141c0.391,0,0.791,0.268,0.791,1.029v1.402h-0.586V8.473c0-0.395-0.137-0.629-0.425-0.629
				c-0.205,0-0.356,0.146-0.42,0.316c-0.02,0.055-0.029,0.133-0.029,0.201v1.426h-0.586V8.41c0-0.332-0.132-0.566-0.41-0.566
				c-0.225,0-0.376,0.176-0.435,0.336c-0.02,0.064-0.029,0.133-0.029,0.201v1.406h-0.586V8.117z"/>
		</g>
		<g>
			<path fill="#FFFFFF" d="M8.241,15.287c0,0.307-0.229,0.561-0.595,0.561c-0.349,0-0.578-0.254-0.578-0.561
				c0-0.322,0.238-0.568,0.586-0.568C8.012,14.719,8.233,14.965,8.241,15.287z M7.128,20.582v-4.139h1.046v4.139H7.128z"/>
			<path fill="#FFFFFF" d="M12.446,20.582l-0.611-1.139c-0.246-0.441-0.408-0.748-0.578-1.08h-0.018
				c-0.135,0.332-0.288,0.639-0.518,1.08l-0.57,1.139H8.953l1.699-2.898l-1.641-2.83h1.207l0.621,1.182
				c0.187,0.357,0.322,0.639,0.467,0.961h0.025c0.153-0.357,0.272-0.611,0.451-0.961l0.611-1.182h1.199l-1.675,2.797l1.742,2.932
				H12.446z"/>
			<path fill="#FFFFFF" d="M14.449,14.549h1.045v6.033h-1.045V14.549z"/>
		</g>
	</g>
</g>
</svg>
