<?xml version="1.0" encoding="utf-8"?>
<!-- Generator: Adobe Illustrator 16.0.3, SVG Export Plug-In . SVG Version: 6.00 Build 0)  -->
<!DOCTYPE svg PUBLIC "-//W3C//DTD SVG 1.1//EN" "http://www.w3.org/Graphics/SVG/1.1/DTD/svg11.dtd">
<svg version="1.1" xmlns="http://www.w3.org/2000/svg" xmlns:xlink="http://www.w3.org/1999/xlink" x="0px" y="0px" width="22.68px"
	 height="22.68px" viewBox="0 0 22.68 22.68" enable-background="new 0 0 22.68 22.68" xml:space="preserve">
<g id="BCGRND">
</g>
<g id="IKONY">
	<rect fill="#585857" width="22.676" height="22.678"/>
	<g>
		<g>
			<rect x="-0.001" y="11.956" fill="#FFFFFF" width="22.678" height="0.889"/>
		</g>
		<g>
			<path fill="#FFFFFF" d="M5.088,2.039C5.303,2,5.601,1.971,6.006,1.971c0.439,0,0.762,0.093,0.972,0.269
				C7.173,2.4,7.3,2.659,7.3,2.967c0,0.313-0.098,0.571-0.283,0.747c-0.239,0.239-0.615,0.352-1.04,0.352
				c-0.112,0-0.215-0.005-0.293-0.02v1.24H5.088V2.039z M5.684,3.572c0.073,0.02,0.171,0.024,0.293,0.024
				c0.449,0,0.723-0.22,0.723-0.605c0-0.366-0.254-0.562-0.669-0.562c-0.166,0-0.283,0.015-0.347,0.029V3.572z"/>
			<path fill="#FFFFFF" d="M9.936,4.075c0,0.874-0.615,1.265-1.221,1.265c-0.674,0-1.191-0.464-1.191-1.226
				c0-0.781,0.512-1.26,1.23-1.26C9.461,2.854,9.936,3.353,9.936,4.075z M8.143,4.1c0,0.459,0.225,0.806,0.592,0.806
				c0.342,0,0.58-0.337,0.58-0.815c0-0.371-0.166-0.796-0.576-0.796C8.315,3.294,8.143,3.704,8.143,4.1z"/>
			<path fill="#FFFFFF" d="M10.754,2.908l0.249,1.079c0.054,0.254,0.107,0.513,0.151,0.771h0.01
				c0.049-0.259,0.127-0.522,0.195-0.767l0.308-1.084h0.488l0.298,1.055c0.073,0.278,0.137,0.537,0.19,0.796h0.01
				c0.039-0.259,0.093-0.518,0.156-0.796l0.264-1.055h0.591l-0.747,2.378h-0.557l-0.283-0.967c-0.073-0.249-0.127-0.474-0.181-0.762
				h-0.01c-0.049,0.293-0.112,0.527-0.181,0.762l-0.303,0.967h-0.562l-0.703-2.378H10.754z"/>
			<path fill="#FFFFFF" d="M14.417,4.266c0.014,0.43,0.352,0.615,0.732,0.615c0.277,0,0.479-0.039,0.658-0.107l0.088,0.415
				c-0.205,0.083-0.488,0.146-0.83,0.146c-0.771,0-1.225-0.474-1.225-1.201c0-0.659,0.4-1.279,1.162-1.279
				c0.771,0,1.025,0.635,1.025,1.157c0,0.112-0.01,0.2-0.02,0.254H14.417z M15.461,3.846c0.004-0.22-0.094-0.581-0.494-0.581
				c-0.371,0-0.527,0.337-0.551,0.581H15.461z"/>
			<path fill="#FFFFFF" d="M16.514,3.675c0-0.322-0.005-0.552-0.02-0.767h0.522l0.02,0.454h0.02
				c0.117-0.337,0.396-0.508,0.649-0.508c0.059,0,0.093,0.005,0.142,0.015v0.566c-0.049-0.01-0.103-0.02-0.176-0.02
				c-0.288,0-0.483,0.186-0.537,0.454c-0.01,0.054-0.02,0.117-0.02,0.186v1.23h-0.601V3.675z"/>
			<path fill="#FFFFFF" d="M4.012,9.688c-0.142,0.073-0.454,0.146-0.85,0.146c-1.045,0-1.68-0.654-1.68-1.655
				c0-1.084,0.752-1.738,1.758-1.738c0.396,0,0.679,0.083,0.801,0.146L3.91,7.066C3.753,6.998,3.539,6.939,3.265,6.939
				c-0.669,0-1.152,0.42-1.152,1.211c0,0.723,0.425,1.187,1.147,1.187c0.244,0,0.498-0.049,0.654-0.122L4.012,9.688z"/>
			<path fill="#FFFFFF" d="M4.489,6.319h0.605v3.467H4.489V6.319z"/>
			<path fill="#FFFFFF" d="M6.17,8.766c0.016,0.43,0.352,0.615,0.732,0.615c0.279,0,0.479-0.039,0.66-0.107l0.088,0.415
				c-0.205,0.083-0.488,0.146-0.83,0.146c-0.771,0-1.227-0.474-1.227-1.201c0-0.659,0.4-1.279,1.162-1.279
				c0.771,0,1.025,0.635,1.025,1.157c0,0.112-0.01,0.2-0.02,0.254H6.17z M7.215,8.346c0.006-0.22-0.092-0.581-0.492-0.581
				c-0.371,0-0.527,0.337-0.553,0.581H7.215z"/>
			<path fill="#FFFFFF" d="M9.606,9.786L9.567,9.522H9.553C9.407,9.708,9.157,9.84,8.85,9.84c-0.479,0-0.748-0.347-0.748-0.708
				c0-0.601,0.533-0.903,1.412-0.898V8.194c0-0.156-0.064-0.415-0.484-0.415c-0.234,0-0.479,0.073-0.639,0.176L8.274,7.564
				c0.176-0.107,0.482-0.21,0.859-0.21c0.762,0,0.98,0.483,0.98,1.001v0.859c0,0.215,0.01,0.425,0.035,0.571H9.606z M9.528,8.624
				c-0.424-0.01-0.83,0.083-0.83,0.444c0,0.234,0.152,0.342,0.342,0.342c0.24,0,0.416-0.156,0.469-0.327
				c0.016-0.044,0.02-0.093,0.02-0.132V8.624z"/>
			<path fill="#FFFFFF" d="M10.752,8.116c0-0.273-0.006-0.503-0.02-0.708h0.527l0.029,0.356h0.014
				c0.104-0.186,0.361-0.41,0.758-0.41c0.414,0,0.844,0.269,0.844,1.021v1.411h-0.6V8.443c0-0.342-0.127-0.601-0.455-0.601
				c-0.238,0-0.404,0.171-0.469,0.352c-0.02,0.054-0.023,0.127-0.023,0.195v1.396h-0.605V8.116z"/>
			<path fill="#FFFFFF" d="M14.584,6.539c0.215-0.039,0.514-0.068,0.918-0.068c0.439,0,0.762,0.093,0.973,0.269
				c0.195,0.161,0.322,0.42,0.322,0.728c0,0.313-0.098,0.571-0.283,0.747c-0.24,0.239-0.615,0.352-1.041,0.352
				c-0.111,0-0.215-0.005-0.293-0.02v1.24h-0.596V6.539z M15.18,8.072c0.074,0.02,0.172,0.024,0.293,0.024
				c0.449,0,0.723-0.22,0.723-0.605c0-0.366-0.254-0.562-0.668-0.562c-0.166,0-0.283,0.015-0.348,0.029V8.072z"/>
			<path fill="#FFFFFF" d="M17.235,8.175c0-0.322-0.005-0.552-0.02-0.767h0.522l0.02,0.454h0.02
				c0.117-0.337,0.396-0.508,0.649-0.508c0.059,0,0.093,0.005,0.142,0.015v0.566c-0.049-0.01-0.103-0.02-0.176-0.02
				c-0.288,0-0.483,0.186-0.537,0.454c-0.01,0.054-0.02,0.117-0.02,0.186v1.23h-0.601V8.175z"/>
			<path fill="#FFFFFF" d="M21.192,8.575c0,0.874-0.615,1.265-1.221,1.265c-0.674,0-1.191-0.464-1.191-1.226
				c0-0.781,0.513-1.26,1.23-1.26C20.718,7.354,21.192,7.853,21.192,8.575z M19.4,8.6c0,0.459,0.225,0.806,0.591,0.806
				c0.342,0,0.581-0.337,0.581-0.815c0-0.371-0.166-0.796-0.576-0.796C19.571,7.794,19.4,8.204,19.4,8.6z"/>
		</g>
		<g>
			<circle opacity="0.5" fill="#FFFFFF" cx="3.642" cy="19.031" r="0.583"/>
			<path opacity="0.5" fill="#FFFFFF" d="M3.642,21.926c-0.32,0-0.582,0.262-0.582,0.583c0,0.06,0.018,0.114,0.034,0.169h1.098
				c0.017-0.055,0.034-0.109,0.034-0.169C4.226,22.188,3.964,21.926,3.642,21.926z"/>
			<circle opacity="0.5" fill="#FFFFFF" cx="3.642" cy="20.77" r="0.583"/>
			<path fill="#FFFFFF" d="M5.624,17.748c0.13-0.049,0.195-0.191,0.147-0.321l-1.007-2.71c0.861-0.419,1.462-1.295,1.462-2.316h-0.5
				c0,1.148-0.935,2.084-2.084,2.084S1.558,13.549,1.558,12.4h-0.5c0,1.021,0.601,1.898,1.464,2.318l-1.007,2.708
				c-0.048,0.13,0.018,0.272,0.147,0.321c0.028,0.011,0.058,0.016,0.087,0.016c0.102,0,0.197-0.063,0.234-0.163l1.007-2.71
				c0.131,0.035,0.264,0.055,0.401,0.068v2.561c0,0.138,0.112,0.25,0.25,0.25s0.25-0.112,0.25-0.25v-2.561
				c0.138-0.014,0.272-0.034,0.403-0.068l1.007,2.71c0.037,0.101,0.133,0.163,0.234,0.163C5.566,17.764,5.595,17.759,5.624,17.748z"
				/>
			<path opacity="0.5" fill="#FFFFFF" d="M7.087,21.621c-0.303,0.112-0.457,0.448-0.346,0.75c0.052,0.139,0.154,0.242,0.276,0.307
				H7.55c0.257-0.133,0.388-0.435,0.283-0.713C7.722,21.663,7.386,21.51,7.087,21.621z"/>
			<circle opacity="0.5" fill="#FFFFFF" cx="6.683" cy="20.538" r="0.583"/>
			<circle opacity="0.5" fill="#FFFFFF" cx="6.078" cy="18.908" r="0.583"/>
			<circle opacity="0.5" fill="#FFFFFF" cx="11.337" cy="13.136" r="0.583"/>
			<circle opacity="0.5" fill="#FFFFFF" cx="1.208" cy="18.907" r="0.582"/>
			<circle opacity="0.5" fill="#FFFFFF" cx="14.984" cy="13.477" r="0.583"/>
			<circle opacity="0.5" fill="#FFFFFF" cx="11.337" cy="16.614" r="0.583"/>
			<circle opacity="0.5" fill="#FFFFFF" cx="7.691" cy="13.477" r="0.583"/>
			<path opacity="0.5" fill="#FFFFFF" d="M0.804,19.992c-0.301-0.111-0.637,0.041-0.748,0.343c-0.003,0.007-0.001,0.014-0.003,0.021
				c0.043,0.226,0.115,0.439,0.208,0.643c0.043,0.032,0.085,0.066,0.139,0.086c0.301,0.111,0.637-0.042,0.75-0.344
				C1.261,20.439,1.107,20.104,0.804,19.992z"/>
			<circle opacity="0.5" fill="#FFFFFF" cx="11.337" cy="14.875" r="0.583"/>
			<circle opacity="0.5" fill="#FFFFFF" cx="19.033" cy="20.77" r="0.583"/>
			<circle opacity="0.5" fill="#FFFFFF" cx="8.297" cy="15.107" r="0.583"/>
			<path opacity="0.5" fill="#FFFFFF" d="M16.798,18.361c-0.299-0.112-0.635,0.041-0.748,0.344
				c-0.111,0.301,0.043,0.637,0.346,0.748c0.301,0.112,0.637-0.041,0.748-0.343S17.101,18.473,16.798,18.361z"/>
			<circle opacity="0.5" fill="#FFFFFF" cx="19.033" cy="19.031" r="0.583"/>
			<path fill="#FFFFFF" d="M21.012,17.748c0.13-0.049,0.195-0.191,0.147-0.321l-1.007-2.708c0.863-0.42,1.464-1.297,1.464-2.318
				h-0.5c0,1.148-0.935,2.084-2.084,2.084s-2.084-0.936-2.084-2.084h-0.5c0,1.021,0.601,1.897,1.462,2.316l-1.007,2.71
				c-0.048,0.13,0.018,0.272,0.147,0.321c0.028,0.011,0.058,0.016,0.087,0.016c0.102,0,0.197-0.063,0.234-0.163l1.007-2.71
				c0.131,0.034,0.266,0.055,0.403,0.068v2.561c0,0.138,0.112,0.25,0.25,0.25s0.25-0.112,0.25-0.25v-2.561
				c0.138-0.014,0.271-0.033,0.401-0.068l1.007,2.71c0.037,0.101,0.133,0.163,0.234,0.163
				C20.955,17.764,20.984,17.759,21.012,17.748z"/>
			<path opacity="0.5" fill="#FFFFFF" d="M22.619,20.335c-0.111-0.302-0.447-0.454-0.748-0.343
				c-0.303,0.111-0.457,0.447-0.346,0.748c0.113,0.302,0.449,0.455,0.75,0.344c0.054-0.02,0.096-0.054,0.139-0.086
				c0.093-0.203,0.165-0.417,0.208-0.643C22.62,20.349,22.622,20.342,22.619,20.335z"/>
			<circle opacity="0.5" fill="#FFFFFF" cx="21.466" cy="18.908" r="0.583"/>
			<path opacity="0.5" fill="#FFFFFF" d="M19.033,21.926c-0.322,0-0.584,0.262-0.584,0.583c0,0.06,0.018,0.114,0.034,0.169h1.098
				c0.017-0.055,0.034-0.109,0.034-0.169C19.615,22.188,19.353,21.926,19.033,21.926z"/>
			<path fill="#FFFFFF" d="M12.458,20.927l1.007-2.709c0.048-0.13-0.018-0.272-0.147-0.321c-0.127-0.049-0.273,0.018-0.321,0.147
				l-1.007,2.71c-0.131-0.034-0.265-0.055-0.402-0.068v-2.561c0-0.138-0.112-0.25-0.25-0.25s-0.25,0.112-0.25,0.25v2.561
				c-0.138,0.014-0.271,0.034-0.402,0.068l-1.007-2.71c-0.049-0.13-0.194-0.196-0.321-0.147c-0.13,0.049-0.195,0.191-0.147,0.321
				l1.007,2.709c-0.697,0.339-1.222,0.977-1.396,1.751h0.521c0.249-0.873,1.044-1.518,1.996-1.518s1.747,0.645,1.996,1.518h0.521
				C13.68,21.903,13.156,21.266,12.458,20.927z"/>
			<circle opacity="0.5" fill="#FFFFFF" cx="15.992" cy="20.538" r="0.582"/>
			<circle opacity="0.5" fill="#FFFFFF" cx="8.902" cy="16.737" r="0.582"/>
			<circle opacity="0.5" fill="#FFFFFF" cx="13.772" cy="16.737" r="0.582"/>
			<circle opacity="0.5" fill="#FFFFFF" cx="14.378" cy="15.106" r="0.582"/>
			<path opacity="0.5" fill="#FFFFFF" d="M15.587,21.621c-0.299-0.111-0.635,0.042-0.746,0.344c-0.104,0.278,0.026,0.58,0.283,0.713
				h0.532c0.122-0.064,0.225-0.168,0.276-0.307C16.044,22.069,15.89,21.733,15.587,21.621z"/>
		</g>
	</g>
</g>
</svg>
