<?xml version="1.0" encoding="utf-8"?>
<!-- Generator: Adobe Illustrator 16.0.3, SVG Export Plug-In . SVG Version: 6.00 Build 0)  -->
<!DOCTYPE svg PUBLIC "-//W3C//DTD SVG 1.1//EN" "http://www.w3.org/Graphics/SVG/1.1/DTD/svg11.dtd">
<svg version="1.1" xmlns="http://www.w3.org/2000/svg" xmlns:xlink="http://www.w3.org/1999/xlink" x="0px" y="0px" width="22.68px"
	 height="22.68px" viewBox="0 0 22.68 22.68" enable-background="new 0 0 22.68 22.68" xml:space="preserve">
<g id="BCGRND">
</g>
<g id="IKONY">
	<g>
		<rect x="0" fill="#585857" width="22.676" height="22.678"/>
		<g>
			<g>
				<rect x="0" y="11.956" fill="#FFFFFF" width="22.678" height="0.889"/>
			</g>
		</g>
		<g>
			<rect x="12.938" y="20.268" fill="#FFFFFF" width="6.395" height="1"/>
		</g>
		<g>
			<rect x="3.344" y="20.268" fill="#FFFFFF" width="5.936" height="1"/>
		</g>
		<rect x="9.988" y="20.268" opacity="0.5" fill="#FFFFFF" width="2.242" height="1"/>
		<rect x="0" y="20.268" opacity="0.5" fill="#FFFFFF" width="2.637" height="1"/>
		<rect x="20.039" y="20.268" opacity="0.5" fill="#FFFFFF" width="2.637" height="1"/>
		<g>
			<g>
				<path fill="#FFFFFF" d="M8.461,19.046c-0.097,0-0.193-0.027-0.278-0.084l-1.87-1.254l-1.87,1.254
					c-0.229,0.153-0.54,0.092-0.693-0.137c-0.154-0.229-0.093-0.54,0.137-0.694l2.427-1.627l2.427,1.627
					c0.229,0.154,0.291,0.465,0.137,0.694C8.779,18.968,8.622,19.046,8.461,19.046z"/>
			</g>
			<g>
				<path fill="#FFFFFF" d="M8.461,16.558c-0.097,0-0.193-0.027-0.278-0.084l-1.87-1.254l-1.87,1.254
					c-0.229,0.153-0.54,0.092-0.693-0.137c-0.154-0.229-0.093-0.54,0.137-0.694l2.427-1.627l2.427,1.627
					c0.229,0.154,0.291,0.465,0.137,0.694C8.779,16.48,8.622,16.558,8.461,16.558z"/>
			</g>
		</g>
		<g>
			<g>
				<path fill="#FFFFFF" d="M18.284,19.046c-0.097,0-0.193-0.027-0.278-0.084l-1.87-1.254l-1.87,1.254
					c-0.229,0.153-0.539,0.092-0.693-0.137c-0.154-0.229-0.093-0.54,0.137-0.694l2.427-1.627l2.427,1.627
					c0.229,0.154,0.291,0.465,0.137,0.694C18.602,18.968,18.445,19.046,18.284,19.046z"/>
			</g>
			<g>
				<path fill="#FFFFFF" d="M18.284,16.558c-0.097,0-0.193-0.027-0.278-0.084l-1.87-1.254l-1.87,1.254
					c-0.229,0.153-0.539,0.092-0.693-0.137s-0.093-0.54,0.137-0.694l2.427-1.627l2.427,1.627c0.229,0.154,0.291,0.465,0.137,0.694
					C18.602,16.48,18.445,16.558,18.284,16.558z"/>
			</g>
		</g>
		<g>
			<g>
				<path fill="#FFFFFF" d="M5.09,2.04C5.304,2,5.602,1.971,6.008,1.971c0.439,0,0.762,0.093,0.972,0.269
					c0.195,0.161,0.322,0.42,0.322,0.728c0,0.313-0.098,0.571-0.283,0.747c-0.239,0.239-0.615,0.352-1.04,0.352
					c-0.112,0-0.215-0.005-0.293-0.02v1.24H5.09V2.04z M5.685,3.573c0.073,0.02,0.171,0.024,0.293,0.024
					c0.449,0,0.723-0.22,0.723-0.605c0-0.366-0.254-0.562-0.669-0.562c-0.166,0-0.283,0.015-0.347,0.029V3.573z"/>
				<path fill="#FFFFFF" d="M9.936,4.076c0,0.874-0.615,1.265-1.221,1.265c-0.674,0-1.191-0.464-1.191-1.226
					c0-0.781,0.514-1.26,1.23-1.26C9.464,2.855,9.936,3.353,9.936,4.076z M8.145,4.1c0,0.459,0.225,0.806,0.59,0.806
					c0.342,0,0.582-0.337,0.582-0.815c0-0.371-0.166-0.796-0.576-0.796C8.315,3.294,8.145,3.705,8.145,4.1z"/>
				<path fill="#FFFFFF" d="M10.756,2.909l0.249,1.079c0.054,0.254,0.107,0.513,0.151,0.771h0.01
					c0.049-0.259,0.127-0.522,0.195-0.767l0.308-1.084h0.488l0.298,1.055c0.073,0.278,0.137,0.537,0.19,0.796h0.01
					c0.039-0.259,0.093-0.518,0.156-0.796l0.264-1.055h0.591l-0.747,2.378h-0.557L12.079,4.32c-0.073-0.249-0.127-0.474-0.181-0.762
					h-0.01c-0.049,0.293-0.112,0.527-0.181,0.762l-0.303,0.967h-0.562L10.14,2.909H10.756z"/>
				<path fill="#FFFFFF" d="M14.417,4.266c0.016,0.43,0.352,0.615,0.732,0.615c0.279,0,0.479-0.039,0.66-0.107l0.088,0.415
					c-0.205,0.083-0.488,0.146-0.83,0.146c-0.771,0-1.227-0.474-1.227-1.201c0-0.659,0.4-1.279,1.162-1.279
					c0.771,0,1.025,0.635,1.025,1.157c0,0.112-0.01,0.2-0.02,0.254H14.417z M15.462,3.846c0.006-0.22-0.092-0.581-0.492-0.581
					c-0.371,0-0.527,0.337-0.553,0.581H15.462z"/>
				<path fill="#FFFFFF" d="M16.515,3.675c0-0.322-0.005-0.552-0.02-0.767h0.522l0.02,0.454h0.02
					c0.117-0.337,0.396-0.508,0.649-0.508c0.059,0,0.093,0.005,0.142,0.015v0.566c-0.049-0.01-0.103-0.02-0.176-0.02
					c-0.288,0-0.483,0.186-0.537,0.454c-0.01,0.054-0.02,0.117-0.02,0.186v1.23h-0.601V3.675z"/>
				<path fill="#FFFFFF" d="M3.512,6.54C3.704,6.5,4.05,6.471,4.387,6.471c0.443,0,0.717,0.054,0.941,0.21
					c0.205,0.122,0.342,0.337,0.342,0.615c0,0.303-0.189,0.581-0.547,0.713v0.01C5.471,8.107,5.788,8.38,5.788,8.834
					c0,0.293-0.127,0.522-0.316,0.679C5.237,9.718,4.85,9.821,4.251,9.821c-0.332,0-0.586-0.024-0.738-0.044V6.54z M4.108,7.838
					h0.309c0.414,0,0.648-0.195,0.648-0.474c0-0.308-0.234-0.449-0.615-0.449c-0.176,0-0.277,0.01-0.342,0.024V7.838z M4.108,9.352
					c0.078,0.01,0.182,0.015,0.318,0.015c0.385,0,0.727-0.146,0.727-0.552c0-0.381-0.332-0.537-0.746-0.537H4.108V9.352z"/>
				<path fill="#FFFFFF" d="M8.59,8.576c0,0.874-0.615,1.265-1.221,1.265c-0.674,0-1.191-0.464-1.191-1.226
					c0-0.781,0.513-1.26,1.23-1.26C8.116,7.355,8.59,7.853,8.59,8.576z M6.798,8.6c0,0.459,0.225,0.806,0.591,0.806
					c0.342,0,0.581-0.337,0.581-0.815c0-0.371-0.166-0.796-0.576-0.796C6.969,7.794,6.798,8.205,6.798,8.6z"/>
				<path fill="#FFFFFF" d="M11.346,8.576c0,0.874-0.615,1.265-1.221,1.265c-0.674,0-1.191-0.464-1.191-1.226
					c0-0.781,0.514-1.26,1.23-1.26C10.874,7.355,11.346,7.853,11.346,8.576z M9.555,8.6c0,0.459,0.225,0.806,0.59,0.806
					c0.342,0,0.582-0.337,0.582-0.815c0-0.371-0.166-0.796-0.576-0.796C9.725,7.794,9.555,8.205,9.555,8.6z"/>
				<path fill="#FFFFFF" d="M11.814,9.235c0.137,0.083,0.396,0.171,0.61,0.171c0.264,0,0.381-0.107,0.381-0.264
					c0-0.161-0.098-0.244-0.391-0.347c-0.464-0.161-0.659-0.415-0.654-0.693c0-0.42,0.347-0.747,0.898-0.747
					c0.264,0,0.493,0.068,0.63,0.142l-0.117,0.425c-0.103-0.059-0.293-0.137-0.503-0.137c-0.215,0-0.332,0.103-0.332,0.249
					c0,0.151,0.112,0.225,0.415,0.332c0.43,0.156,0.63,0.376,0.635,0.728c0,0.43-0.337,0.742-0.967,0.742
					c-0.288,0-0.547-0.068-0.723-0.166L11.814,9.235z"/>
				<path fill="#FFFFFF" d="M14.571,6.73v0.679h0.57v0.449h-0.57v1.05c0,0.288,0.078,0.439,0.307,0.439
					c0.104,0,0.182-0.015,0.234-0.029l0.01,0.459c-0.088,0.034-0.244,0.059-0.434,0.059c-0.221,0-0.406-0.073-0.518-0.195
					c-0.127-0.137-0.186-0.352-0.186-0.664V7.858h-0.342V7.409h0.342V6.872L14.571,6.73z"/>
				<path fill="#FFFFFF" d="M15.994,8.766c0.015,0.43,0.352,0.615,0.732,0.615c0.278,0,0.479-0.039,0.659-0.107l0.088,0.415
					c-0.205,0.083-0.488,0.146-0.83,0.146c-0.771,0-1.226-0.474-1.226-1.201c0-0.659,0.4-1.279,1.162-1.279
					c0.771,0,1.025,0.635,1.025,1.157c0,0.112-0.01,0.2-0.02,0.254H15.994z M17.039,8.346c0.005-0.22-0.093-0.581-0.493-0.581
					c-0.371,0-0.527,0.337-0.552,0.581H17.039z"/>
				<path fill="#FFFFFF" d="M18.092,8.175c0-0.322-0.005-0.552-0.02-0.767h0.522l0.02,0.454h0.02
					c0.117-0.337,0.396-0.508,0.649-0.508c0.059,0,0.093,0.005,0.142,0.015v0.566c-0.049-0.01-0.103-0.02-0.176-0.02
					c-0.288,0-0.483,0.186-0.537,0.454c-0.01,0.054-0.02,0.117-0.02,0.186v1.23h-0.601V8.175z"/>
			</g>
		</g>
	</g>
</g>
</svg>
