<?xml version="1.0" encoding="utf-8"?>
<!-- Generator: Adobe Illustrator 16.0.3, SVG Export Plug-In . SVG Version: 6.00 Build 0)  -->
<!DOCTYPE svg PUBLIC "-//W3C//DTD SVG 1.1//EN" "http://www.w3.org/Graphics/SVG/1.1/DTD/svg11.dtd">
<svg version="1.1" xmlns="http://www.w3.org/2000/svg" xmlns:xlink="http://www.w3.org/1999/xlink" x="0px" y="0px" width="22.68px"
	 height="22.68px" viewBox="0 0 22.68 22.68" enable-background="new 0 0 22.68 22.68" xml:space="preserve">
<g id="BCGRND">
</g>
<g id="IKONY">
	<rect fill="#585857" width="22.676" height="22.678"/>
	<g>
		<g>
			<rect x="0.001" y="7.77" fill="#FFFFFF" width="22.678" height="0.889"/>
		</g>
		<g>
			<path fill="#FFFFFF" d="M1.563,2.322c0.22-0.039,0.518-0.068,0.918-0.068c0.439,0,0.757,0.094,0.967,0.27
				C3.643,2.684,3.77,2.943,3.77,3.25c0,0.313-0.098,0.566-0.278,0.742C3.248,4.232,2.876,4.35,2.452,4.35
				c-0.112,0-0.21-0.006-0.293-0.025V5.57H1.563V2.322z M2.159,3.852C2.237,3.875,2.33,3.881,2.452,3.881
				c0.449,0,0.723-0.225,0.723-0.605c0-0.367-0.254-0.557-0.669-0.557c-0.166,0-0.283,0.014-0.347,0.029V3.852z"/>
			<path fill="#FFFFFF" d="M6.337,4.359c0,0.873-0.615,1.264-1.221,1.264c-0.669,0-1.191-0.459-1.191-1.225
				c0-0.781,0.513-1.26,1.23-1.26C5.863,3.139,6.337,3.637,6.337,4.359z M4.545,4.383c0,0.459,0.229,0.807,0.591,0.807
				c0.342,0,0.581-0.332,0.581-0.816c0-0.371-0.166-0.801-0.576-0.801C4.716,3.572,4.545,3.988,4.545,4.383z"/>
			<path fill="#FFFFFF" d="M7.082,3.191l0.244,1.08c0.059,0.254,0.112,0.512,0.156,0.771h0.01c0.049-0.26,0.127-0.523,0.19-0.768
				l0.313-1.084h0.488l0.298,1.055c0.073,0.279,0.137,0.537,0.19,0.797h0.01c0.034-0.26,0.093-0.518,0.156-0.797l0.264-1.055h0.591
				L9.245,5.57H8.688L8.405,4.604c-0.073-0.25-0.127-0.475-0.181-0.762h-0.01C8.161,4.135,8.103,4.369,8.034,4.604L7.731,5.57H7.17
				L6.467,3.191H7.082z"/>
			<path fill="#FFFFFF" d="M10.671,4.549c0.015,0.43,0.347,0.615,0.732,0.615c0.278,0,0.474-0.043,0.659-0.107l0.088,0.41
				c-0.205,0.088-0.488,0.152-0.83,0.152c-0.771,0-1.226-0.475-1.226-1.201c0-0.66,0.4-1.279,1.162-1.279
				c0.771,0,1.025,0.635,1.025,1.156c0,0.113-0.01,0.201-0.02,0.254H10.671z M11.716,4.129c0.005-0.219-0.093-0.58-0.493-0.58
				c-0.371,0-0.527,0.336-0.552,0.58H11.716z"/>
			<path fill="#FFFFFF" d="M12.695,3.959c0-0.322-0.005-0.557-0.02-0.768h0.518l0.024,0.449h0.015
				c0.117-0.332,0.396-0.502,0.654-0.502c0.059,0,0.093,0.004,0.142,0.014v0.563c-0.054-0.01-0.107-0.016-0.181-0.016
				c-0.283,0-0.483,0.182-0.537,0.455c-0.01,0.053-0.015,0.117-0.015,0.18V5.57h-0.601V3.959z"/>
			<path fill="#FFFFFF" d="M14.387,2.322c0.269-0.039,0.601-0.068,0.957-0.068c0.615,0,1.035,0.127,1.338,0.381
				c0.322,0.26,0.518,0.654,0.518,1.211c0,0.592-0.2,1.025-0.513,1.309c-0.327,0.299-0.85,0.449-1.489,0.449
				c-0.347,0-0.61-0.02-0.811-0.043V2.322z M14.987,5.115c0.083,0.016,0.21,0.016,0.332,0.016c0.781,0.004,1.245-0.43,1.245-1.266
				c0.005-0.723-0.415-1.143-1.167-1.143c-0.19,0-0.322,0.016-0.41,0.035V5.115z"/>
			<path fill="#FFFFFF" d="M17.643,3.959c0-0.322-0.005-0.557-0.02-0.768h0.518l0.024,0.449h0.015
				c0.117-0.332,0.396-0.502,0.654-0.502c0.059,0,0.093,0.004,0.142,0.014v0.563c-0.054-0.01-0.107-0.016-0.181-0.016
				c-0.283,0-0.483,0.182-0.537,0.455c-0.01,0.053-0.015,0.117-0.015,0.18V5.57h-0.601V3.959z"/>
			<path fill="#FFFFFF" d="M19.798,3.191l0.425,1.275c0.049,0.146,0.103,0.326,0.137,0.459h0.015
				c0.034-0.133,0.078-0.313,0.127-0.465l0.371-1.27h0.64l-0.596,1.621c-0.327,0.889-0.547,1.285-0.825,1.529
				c-0.239,0.205-0.483,0.283-0.63,0.303l-0.137-0.504c0.103-0.023,0.225-0.078,0.347-0.166C19.789,5.902,19.92,5.76,20.003,5.6
				c0.024-0.045,0.034-0.078,0.034-0.107c0-0.025-0.005-0.059-0.029-0.117l-0.874-2.184H19.798z"/>
		</g>
		<g>
			<g opacity="0.5">
				<path fill="#FFFFFF" d="M7.938,10.226c-1.293,0.829-0.184,2.437,1.063,3.708c0.488,0.218,0.95,0.459,1.342,0.676
					c0.159-0.171,0.356-0.297,0.576-0.372c-0.033-0.444-0.058-0.964-0.055-1.499C10.23,11.073,9.233,9.395,7.938,10.226z
					 M12.41,16.561c-0.159,0.171-0.357,0.297-0.576,0.373c0.032,0.443,0.057,0.964,0.052,1.498c0.636,1.664,1.634,3.344,2.93,2.514
					c1.294-0.83,0.184-2.438-1.064-3.709C13.263,17.019,12.8,16.777,12.41,16.561z M8.529,16.096
					c-1.665,0.635-3.344,1.633-2.514,2.928c0.831,1.295,2.438,0.185,3.709-1.064c0.219-0.487,0.459-0.949,0.675-1.34
					c-0.17-0.159-0.296-0.357-0.369-0.578C9.584,16.075,9.064,16.102,8.529,16.096z M16.737,12.147
					c-0.832-1.296-2.438-0.185-3.711,1.063c-0.218,0.486-0.458,0.949-0.673,1.34c0.169,0.16,0.296,0.357,0.369,0.578
					c0.444-0.035,0.967-0.061,1.5-0.055C15.888,14.439,17.566,13.441,16.737,12.147z"/>
			</g>
			<g>
				<path fill="#FFFFFF" d="M14.223,15.074c-0.533-0.006-1.056,0.02-1.5,0.055c-0.073-0.221-0.2-0.418-0.369-0.578
					c0.215-0.391,0.455-0.854,0.673-1.34c0.73-1.625,1.212-3.52-0.29-3.848c-1.504-0.328-1.856,1.594-1.872,3.375
					c-0.003,0.535,0.021,1.055,0.055,1.499c-0.22,0.075-0.417,0.201-0.576,0.372c-0.392-0.217-0.854-0.458-1.342-0.676
					c-1.624-0.729-3.518-1.211-3.846,0.293c-0.328,1.502,1.594,1.854,3.374,1.869c0.535,0.006,1.055-0.021,1.501-0.055
					c0.073,0.221,0.199,0.419,0.369,0.578c-0.216,0.391-0.456,0.853-0.675,1.34c-0.729,1.625-1.21,3.52,0.292,3.848
					c1.503,0.328,1.855-1.594,1.869-3.375c0.005-0.534-0.02-1.055-0.052-1.498c0.219-0.076,0.417-0.202,0.576-0.373
					c0.39,0.217,0.853,0.458,1.341,0.676c1.624,0.729,3.519,1.211,3.847-0.292S16.004,15.09,14.223,15.074z M12.293,15.913
					c-0.062,0.166-0.159,0.309-0.29,0.417c-0.064,0.054-0.136,0.1-0.21,0.135c-0.154,0.072-0.325,0.104-0.501,0.09
					c-0.041-0.004-0.082-0.006-0.124-0.016c-0.042-0.009-0.081-0.024-0.12-0.038c-0.165-0.06-0.31-0.16-0.417-0.29
					c-0.054-0.063-0.099-0.135-0.135-0.211c-0.073-0.152-0.105-0.322-0.09-0.499c0.004-0.041,0.005-0.083,0.015-0.124
					c0.009-0.043,0.025-0.081,0.039-0.12c0.059-0.167,0.159-0.309,0.29-0.416c0.064-0.055,0.135-0.101,0.21-0.136
					c0.151-0.073,0.325-0.104,0.5-0.09c0.041,0.004,0.082,0.006,0.124,0.016c0.042,0.009,0.081,0.024,0.12,0.039
					c0.165,0.059,0.308,0.158,0.418,0.289c0.053,0.063,0.098,0.135,0.134,0.211c0.074,0.152,0.105,0.322,0.091,0.499
					c-0.005,0.041-0.006,0.083-0.015,0.125C12.322,15.836,12.307,15.874,12.293,15.913z"/>
			</g>
			<g>
				<g>
					<path fill="#FFFFFF" d="M11.555,14.988c-0.016-0.004-0.027-0.016-0.044-0.02c-0.016-0.004-0.032,0.002-0.049-0.001
						c-0.136-0.02-0.268,0.007-0.384,0.069c-0.026,0.014-0.051,0.03-0.075,0.049c-0.105,0.078-0.185,0.188-0.224,0.321
						c-0.006,0.016-0.017,0.027-0.021,0.043c-0.003,0.017,0.002,0.03,0,0.048c-0.015,0.107,0.005,0.209,0.041,0.306l0.982-0.683
						C11.715,15.063,11.642,15.015,11.555,14.988z"/>
				</g>
				<g>
					<path fill="#FFFFFF" d="M11.993,15.673c0.015-0.108-0.005-0.21-0.041-0.306l-0.982,0.684c0.066,0.057,0.139,0.104,0.229,0.131
						c0.015,0.005,0.027,0.016,0.044,0.02c0.015,0.004,0.031-0.002,0.048,0.001c0.137,0.019,0.268-0.007,0.385-0.069
						c0.025-0.014,0.05-0.029,0.074-0.049c0.106-0.078,0.185-0.188,0.224-0.321c0.007-0.016,0.017-0.026,0.021-0.043
						C11.997,15.704,11.991,15.689,11.993,15.673z"/>
				</g>
			</g>
		</g>
	</g>
</g>
</svg>
