<?xml version="1.0" encoding="utf-8"?>
<!-- Generator: Adobe Illustrator 16.0.3, SVG Export Plug-In . SVG Version: 6.00 Build 0)  -->
<!DOCTYPE svg PUBLIC "-//W3C//DTD SVG 1.1//EN" "http://www.w3.org/Graphics/SVG/1.1/DTD/svg11.dtd">
<svg version="1.1" xmlns="http://www.w3.org/2000/svg" xmlns:xlink="http://www.w3.org/1999/xlink" x="0px" y="0px" width="22.68px"
	 height="22.68px" viewBox="0 0 22.68 22.68" enable-background="new 0 0 22.68 22.68" xml:space="preserve">
<g id="BCGRND" display="none">
</g>
<g id="IKONY">
	<g>
		<polygon fill="#585857" points="0.002,0 0.002,22.677 14.119,22.677 22.678,22.677 22.678,16.335 22.678,0 		"/>
		<g>
			<defs>
				<polygon id="SVGID_11_" points="0.002,0 0.002,22.677 14.119,22.677 22.678,22.677 22.678,16.335 22.678,0 				"/>
			</defs>
			<clipPath id="SVGID_2_">
				<use xlink:href="#SVGID_11_"  overflow="visible"/>
			</clipPath>
			<g opacity="0.5" clip-path="url(#SVGID_2_)">
				<g>
					<defs>
						<rect id="SVGID_13_" x="6.969" y="15.859" width="8.742" height="8.742"/>
					</defs>
					<clipPath id="SVGID_4_">
						<use xlink:href="#SVGID_13_"  overflow="visible"/>
					</clipPath>
					<path clip-path="url(#SVGID_4_)" fill="#FFFFFF" d="M11.341,24.602c-2.41,0-4.371-1.961-4.371-4.371s1.961-4.371,4.371-4.371
						c1.234,0,2.417,0.526,3.244,1.442l-0.742,0.67c-0.638-0.707-1.55-1.112-2.502-1.112c-1.859,0-3.371,1.512-3.371,3.371
						s1.512,3.371,3.371,3.371s3.371-1.512,3.371-3.371c0-0.566-0.143-1.126-0.413-1.618l0.876-0.482
						c0.351,0.639,0.537,1.365,0.537,2.099C15.712,22.641,13.751,24.602,11.341,24.602z"/>
				</g>
			</g>
			<g opacity="0.5" clip-path="url(#SVGID_2_)">
				<g>
					<defs>
						<rect id="SVGID_15_" x="4.664" y="13.554" width="13.354" height="13.354"/>
					</defs>
					<clipPath id="SVGID_6_">
						<use xlink:href="#SVGID_15_"  overflow="visible"/>
					</clipPath>
					<path clip-path="url(#SVGID_6_)" fill="#FFFFFF" d="M11.34,26.908c-3.682,0-6.677-2.995-6.677-6.677
						c0-3.682,2.995-6.678,6.677-6.678c1.652,0,3.239,0.608,4.467,1.713l-0.669,0.743c-1.044-0.939-2.393-1.457-3.798-1.457
						c-3.13,0-5.677,2.547-5.677,5.678c0,3.13,2.547,5.677,5.677,5.677c3.13,0,5.677-2.547,5.677-5.677
						c0-0.849-0.182-1.664-0.541-2.423l0.904-0.428c0.423,0.894,0.637,1.853,0.637,2.851C18.017,23.913,15.022,26.908,11.34,26.908z
						"/>
				</g>
			</g>
			<path clip-path="url(#SVGID_2_)" fill="#FFFFFF" d="M10.669,20.643c-0.132-0.298-0.047-0.668,0.222-0.965l0.054-0.061
				l0.257-0.145c0.322-0.182,0.764-0.431,1.267-0.711c-0.314-0.241-0.702-0.39-1.128-0.39c-1.027,0-1.859,0.832-1.859,1.858
				c0,1.027,0.832,1.859,1.859,1.859c0.863,0,1.582-0.592,1.791-1.389c-0.684,0.265-1.223,0.403-1.607,0.403
				C10.959,21.104,10.746,20.814,10.669,20.643"/>
			<path clip-path="url(#SVGID_2_)" fill="#FFFFFF" d="M22.106,14.225c-3.85-0.299-4.771,0.083-4.771,0.083l-0.925,0.451
				c0,0-0.7,0.393-1.312,0.704c-0.611,0.313-1.153,0.755-1.226,1.405c1.125-0.623,1.408-0.848,2.833-1.504
				c0.115-0.062,0.243-0.003,0.293,0.107c0.051,0.111,0.003,0.242-0.107,0.293c-1.727,0.794-2.123,1.104-3.129,1.671
				c-0.171,0.394-0.137,0.646-0.147,0.791c1.262-0.7,1.525-0.906,3.105-1.628c0.118-0.055,0.241-0.002,0.291,0.109
				c0.052,0.109,0.003,0.24-0.108,0.291c-1.67,0.765-4.624,2.44-5.642,3.014c-0.396,0.438-0.32,1.407,3.888-0.806
				c3.393-1.784,5.08-1.232,5.08-1.232c-0.236,0.31-0.202,0.753-2.599,1.702c-1.608,0.638-1.365,1.241-1.365,1.241
				c0.83,0.375,3.892-0.591,5.262-1.512c0.433-0.291,2.197-2.012,3.747-3.263c1.753-1.416,3.793-2.678,5.399-4.001l-1.38-5.037
				C27.101,9.392,22.106,14.225,22.106,14.225"/>
			
				<line clip-path="url(#SVGID_2_)" fill="none" stroke="#FFFFFF" stroke-width="0.889" stroke-miterlimit="10" x1="0.002" y1="12.4" x2="22.68" y2="12.4"/>
			<g clip-path="url(#SVGID_2_)">
				<g>
					<path fill="#FFFFFF" d="M6.507,2.323c0.215-0.039,0.514-0.068,0.918-0.068c0.439,0,0.762,0.093,0.973,0.269
						C8.593,2.685,8.72,2.943,8.72,3.251c0,0.313-0.098,0.571-0.283,0.747C8.196,4.237,7.821,4.35,7.396,4.35
						c-0.111,0-0.215-0.005-0.293-0.02v1.24H6.507V2.323z M7.103,3.856c0.074,0.02,0.172,0.024,0.293,0.024
						c0.449,0,0.723-0.22,0.723-0.605c0-0.366-0.254-0.562-0.668-0.562c-0.166,0-0.283,0.015-0.348,0.029V3.856z"/>
					<path fill="#FFFFFF" d="M11.335,4.857c0,0.283,0.01,0.518,0.02,0.713h-0.527l-0.029-0.361h-0.01
						c-0.103,0.171-0.337,0.415-0.762,0.415c-0.435,0-0.83-0.259-0.83-1.035V3.192h0.601v1.294c0,0.396,0.127,0.649,0.444,0.649
						c0.239,0,0.396-0.171,0.459-0.322c0.02-0.054,0.034-0.117,0.034-0.186V3.192h0.601V4.857z"/>
					<path fill="#FFFFFF" d="M12.007,5.019c0.137,0.083,0.396,0.171,0.611,0.171c0.264,0,0.381-0.107,0.381-0.264
						c0-0.161-0.098-0.244-0.391-0.347c-0.465-0.161-0.66-0.415-0.654-0.693c0-0.42,0.346-0.747,0.898-0.747
						c0.264,0,0.492,0.068,0.629,0.142l-0.117,0.425c-0.102-0.059-0.293-0.137-0.502-0.137c-0.215,0-0.332,0.103-0.332,0.249
						c0,0.151,0.111,0.225,0.414,0.332c0.43,0.156,0.631,0.376,0.635,0.728c0,0.43-0.336,0.742-0.967,0.742
						c-0.287,0-0.547-0.068-0.723-0.166L12.007,5.019z"/>
					<path fill="#FFFFFF" d="M14.124,2.104h0.605V3.52h0.01c0.074-0.112,0.172-0.205,0.299-0.273
						c0.117-0.068,0.258-0.107,0.41-0.107c0.404,0,0.83,0.269,0.83,1.03V5.57h-0.602V4.237c0-0.347-0.127-0.605-0.459-0.605
						c-0.234,0-0.4,0.156-0.463,0.337c-0.02,0.049-0.025,0.112-0.025,0.181V5.57h-0.605V2.104z"/>
					<path fill="#FFFFFF" d="M3.698,7.014v0.679h0.57v0.449h-0.57v1.05c0,0.288,0.078,0.439,0.307,0.439
						c0.104,0,0.182-0.015,0.234-0.029l0.01,0.459c-0.088,0.034-0.244,0.059-0.434,0.059c-0.221,0-0.406-0.073-0.518-0.195
						C3.171,9.787,3.112,9.572,3.112,9.26V8.142H2.771V7.692h0.342V7.155L3.698,7.014z"/>
					<path fill="#FFFFFF" d="M7.006,8.859c0,0.874-0.615,1.265-1.221,1.265c-0.674,0-1.191-0.464-1.191-1.226
						c0-0.781,0.513-1.26,1.23-1.26C6.532,7.639,7.006,8.137,7.006,8.859z M5.214,8.884c0,0.459,0.225,0.806,0.591,0.806
						c0.342,0,0.581-0.337,0.581-0.815c0-0.371-0.166-0.796-0.576-0.796C5.385,8.078,5.214,8.488,5.214,8.884z"/>
					<path fill="#FFFFFF" d="M11.556,8.391c0,1.104-0.668,1.733-1.576,1.733c-0.928,0-1.514-0.708-1.514-1.675
						c0-1.011,0.635-1.724,1.563-1.724C10.989,6.726,11.556,7.453,11.556,8.391z M9.101,8.439c0,0.669,0.336,1.201,0.912,1.201
						c0.582,0,0.908-0.537,0.908-1.226c0-0.62-0.307-1.206-0.908-1.206C9.417,7.209,9.101,7.761,9.101,8.439z"/>
					<path fill="#FFFFFF" d="M12.117,8.483c0-0.313-0.01-0.566-0.02-0.791h0.527l0.029,0.366h0.01
						c0.176-0.269,0.454-0.42,0.815-0.42c0.547,0,1.001,0.469,1.001,1.211c0,0.859-0.542,1.274-1.084,1.274
						c-0.298,0-0.547-0.127-0.669-0.317h-0.01v1.23h-0.601V8.483z M12.718,9.074c0,0.059,0.005,0.112,0.02,0.166
						c0.059,0.244,0.273,0.42,0.527,0.42c0.381,0,0.605-0.317,0.605-0.786c0-0.42-0.205-0.762-0.591-0.762
						c-0.249,0-0.479,0.181-0.537,0.444c-0.015,0.049-0.024,0.103-0.024,0.151V9.074z"/>
					<path fill="#FFFFFF" d="M15.451,9.05c0.015,0.43,0.352,0.615,0.732,0.615c0.278,0,0.479-0.039,0.659-0.107l0.088,0.415
						c-0.205,0.083-0.488,0.146-0.83,0.146c-0.771,0-1.226-0.474-1.226-1.201c0-0.659,0.4-1.279,1.162-1.279
						c0.771,0,1.025,0.635,1.025,1.157c0,0.112-0.01,0.2-0.02,0.254H15.451z M16.496,8.63c0.005-0.22-0.093-0.581-0.493-0.581
						c-0.371,0-0.527,0.337-0.552,0.581H16.496z"/>
					<path fill="#FFFFFF" d="M17.598,8.4c0-0.273-0.005-0.503-0.02-0.708h0.527l0.029,0.356h0.015
						c0.103-0.186,0.361-0.41,0.757-0.41c0.415,0,0.845,0.269,0.845,1.021v1.411H19.15V8.728c0-0.342-0.127-0.601-0.454-0.601
						c-0.239,0-0.405,0.171-0.469,0.352c-0.02,0.054-0.024,0.127-0.024,0.195v1.396h-0.605V8.4z"/>
				</g>
			</g>
		</g>
	</g>
</g>
</svg>
