<?xml version="1.0" encoding="utf-8"?>
<!-- Generator: Adobe Illustrator 16.0.3, SVG Export Plug-In . SVG Version: 6.00 Build 0)  -->
<!DOCTYPE svg PUBLIC "-//W3C//DTD SVG 1.1//EN" "http://www.w3.org/Graphics/SVG/1.1/DTD/svg11.dtd">
<svg version="1.1" xmlns="http://www.w3.org/2000/svg" xmlns:xlink="http://www.w3.org/1999/xlink" x="0px" y="0px" width="22.68px"
	 height="22.68px" viewBox="0 0 22.68 22.68" enable-background="new 0 0 22.68 22.68" xml:space="preserve">
<g id="BCGRND">
</g>
<g id="IKONY">
	<rect x="0" fill="#585857" width="22.676" height="22.678"/>
	<g>
		<g>
			<rect x="0.003" y="7.769" fill="#FFFFFF" width="22.676" height="0.889"/>
		</g>
		<g>
			<path fill="#FFFFFF" d="M2.102,2.321C2.323,2.282,2.62,2.252,3.02,2.252c0.439,0,0.758,0.093,0.967,0.269
				c0.195,0.161,0.322,0.42,0.322,0.728c0,0.313-0.098,0.566-0.277,0.742C3.788,4.23,3.417,4.347,2.991,4.347
				c-0.111,0-0.209-0.005-0.293-0.024v1.245H2.102V2.321z M2.698,3.849C2.776,3.874,2.87,3.878,2.991,3.878
				c0.449,0,0.723-0.225,0.723-0.605c0-0.366-0.254-0.557-0.668-0.557c-0.166,0-0.283,0.015-0.348,0.029V3.849z"/>
			<path fill="#FFFFFF" d="M5.392,3.19l0.425,1.274C5.866,4.611,5.92,4.792,5.954,4.923h0.015c0.034-0.132,0.078-0.313,0.127-0.464
				l0.371-1.27h0.64L6.51,4.811C6.183,5.7,5.964,6.095,5.685,6.339c-0.239,0.205-0.483,0.283-0.63,0.303L4.919,6.139
				c0.103-0.024,0.225-0.078,0.347-0.166C5.383,5.9,5.514,5.758,5.597,5.597C5.622,5.553,5.632,5.519,5.632,5.49
				c0-0.024-0.005-0.059-0.029-0.117L4.728,3.19H5.392z"/>
			<path fill="#FFFFFF" d="M7.628,3.957c0-0.322-0.006-0.557-0.02-0.767h0.518l0.023,0.449h0.016
				c0.117-0.332,0.395-0.503,0.654-0.503c0.059,0,0.092,0.005,0.141,0.015v0.562c-0.053-0.01-0.107-0.015-0.18-0.015
				c-0.283,0-0.484,0.181-0.537,0.454c-0.01,0.054-0.016,0.117-0.016,0.181v1.235h-0.6V3.957z"/>
			<path fill="#FFFFFF" d="M11.756,4.357c0,0.874-0.615,1.265-1.221,1.265c-0.669,0-1.191-0.459-1.191-1.226
				c0-0.781,0.513-1.26,1.23-1.26C11.282,3.136,11.756,3.634,11.756,4.357z M9.964,4.381c0,0.459,0.229,0.806,0.591,0.806
				c0.342,0,0.581-0.332,0.581-0.815c0-0.371-0.166-0.801-0.576-0.801C10.135,3.571,9.964,3.986,9.964,4.381z"/>
			<path fill="#FFFFFF" d="M12.424,2.101h0.601v3.467h-0.601V2.101z"/>
			<path fill="#FFFFFF" d="M14.231,3.19l0.426,1.274c0.049,0.146,0.102,0.327,0.137,0.459h0.014
				c0.035-0.132,0.078-0.313,0.127-0.464l0.371-1.27h0.641L15.35,4.811c-0.328,0.889-0.547,1.284-0.826,1.528
				c-0.238,0.205-0.482,0.283-0.629,0.303l-0.137-0.503c0.102-0.024,0.225-0.078,0.346-0.166c0.117-0.073,0.25-0.215,0.332-0.376
				c0.025-0.044,0.035-0.078,0.035-0.107c0-0.024-0.006-0.059-0.029-0.117L13.567,3.19H14.231z M15.54,2.16l-0.596,0.723H14.53
				l0.424-0.723H15.54z"/>
			<path fill="#FFFFFF" d="M16.242,5.221l0.894-1.143c0.122-0.146,0.225-0.264,0.347-0.4v-0.01H16.33V3.19h1.885v0.366l-0.869,1.118
				c-0.117,0.142-0.229,0.278-0.352,0.405v0.01h1.25v0.479h-2.002V5.221z"/>
			<path fill="#FFFFFF" d="M20.683,4.997c0,0.215,0.01,0.425,0.039,0.571H20.18l-0.044-0.264h-0.015
				c-0.142,0.186-0.391,0.317-0.703,0.317c-0.479,0-0.747-0.347-0.747-0.708c0-0.596,0.532-0.903,1.411-0.898V3.976
				c0-0.156-0.063-0.415-0.483-0.415c-0.234,0-0.479,0.073-0.64,0.176l-0.117-0.391c0.176-0.107,0.483-0.21,0.859-0.21
				c0.762,0,0.981,0.483,0.981,1.006V4.997z M20.097,4.406c-0.425-0.005-0.83,0.083-0.83,0.444c0,0.234,0.151,0.342,0.342,0.342
				c0.244,0,0.415-0.156,0.474-0.327c0.015-0.044,0.015-0.088,0.015-0.132V4.406z"/>
		</g>
		<g>
			<path fill="#FFFFFF" d="M17.635,7.93H5.046h-1v9.943c0,1.058,0.859,1.918,1.916,1.918h10.758c1.057,0,1.916-0.86,1.916-1.918
				V7.93H17.635z M6.458,18.552c-0.701,0-1.27-0.569-1.27-1.271c0-0.7,0.568-1.271,1.27-1.271s2.957,1.271,2.957,1.271
				S7.159,18.552,6.458,18.552z M6.458,15.076c-0.701,0-1.27-0.567-1.27-1.27c0-0.701,0.568-1.27,1.27-1.27s2.957,1.27,2.957,1.27
				S7.159,15.076,6.458,15.076z M6.458,11.604c-0.701,0-1.27-0.57-1.27-1.271c0-0.702,0.568-1.271,1.27-1.271
				s2.957,1.271,2.957,1.271S7.159,11.604,6.458,11.604z M16.223,18.552c-0.703,0-2.957-1.271-2.957-1.271s2.254-1.271,2.957-1.271
				s1.27,0.571,1.27,1.271C17.493,17.982,16.927,18.552,16.223,18.552z M16.223,15.076c-0.703,0-2.957-1.27-2.957-1.27
				s2.254-1.27,2.957-1.27s1.27,0.568,1.27,1.27C17.493,14.509,16.927,15.076,16.223,15.076z M16.223,11.604
				c-0.703,0-2.957-1.271-2.957-1.271s2.254-1.271,2.957-1.271s1.27,0.568,1.27,1.271C17.493,11.033,16.927,11.604,16.223,11.604z"
				/>
		</g>
	</g>
</g>
</svg>
