<?xml version="1.0" encoding="utf-8"?>
<!-- Generator: Adobe Illustrator 16.0.3, SVG Export Plug-In . SVG Version: 6.00 Build 0)  -->
<!DOCTYPE svg PUBLIC "-//W3C//DTD SVG 1.1//EN" "http://www.w3.org/Graphics/SVG/1.1/DTD/svg11.dtd">
<svg version="1.1" xmlns="http://www.w3.org/2000/svg" xmlns:xlink="http://www.w3.org/1999/xlink" x="0px" y="0px" width="22.68px"
	 height="22.68px" viewBox="0 0 22.68 22.68" enable-background="new 0 0 22.68 22.68" xml:space="preserve">
<g id="BCGRND">
</g>
<g id="IKONY">
	<rect x="0" fill="#585857" width="22.676" height="22.678"/>
	<g>
		<g>
			<g>
				<rect x="0" y="7.769" fill="#FFFFFF" width="22.678" height="0.889"/>
			</g>
			<g>
				<g>
					<path fill="#FFFFFF" d="M3.699,6.095C3.24,5.968,2.83,5.832,2.414,5.67C2.342,5.646,2.274,5.626,2.199,5.622
						C1.438,5.583,0.76,5.021,0.76,3.952c0-1.016,0.629-1.729,1.572-1.729c0.951,0,1.518,0.732,1.518,1.66
						c0,0.796-0.365,1.328-0.85,1.519v0.02c0.283,0.078,0.602,0.146,0.869,0.2L3.699,6.095z M3.215,3.913
						c0-0.63-0.307-1.206-0.902-1.206c-0.602,0-0.924,0.571-0.918,1.23C1.389,4.596,1.727,5.138,2.303,5.138
						C2.883,5.138,3.215,4.601,3.215,3.913z"/>
				</g>
				<g>
					<path fill="#FFFFFF" d="M6.399,4.855c0,0.283,0.01,0.518,0.02,0.713H5.891L5.862,5.207h-0.01
						C5.749,5.377,5.515,5.622,5.09,5.622c-0.435,0-0.83-0.259-0.83-1.035V3.19h0.601v1.294c0,0.396,0.127,0.649,0.444,0.649
						c0.239,0,0.396-0.171,0.459-0.322c0.02-0.054,0.034-0.117,0.034-0.186V3.19h0.601V4.855z"/>
				</g>
				<g>
					<path fill="#FFFFFF" d="M7.593,2.526c0,0.181-0.132,0.322-0.342,0.322c-0.2,0-0.332-0.142-0.332-0.322
						c0-0.186,0.137-0.327,0.337-0.327C7.461,2.199,7.588,2.34,7.593,2.526z M6.953,5.568V3.19h0.605v2.378H6.953z"/>
				</g>
				<g>
					<path fill="#FFFFFF" d="M9.856,5.495C9.729,5.553,9.479,5.617,9.182,5.617c-0.742,0-1.227-0.474-1.227-1.211
						c0-0.713,0.488-1.27,1.324-1.27c0.219,0,0.443,0.049,0.58,0.112L9.752,3.698C9.655,3.654,9.514,3.605,9.299,3.605
						c-0.459,0-0.732,0.337-0.729,0.771c0,0.488,0.318,0.767,0.729,0.767c0.209,0,0.355-0.044,0.473-0.093L9.856,5.495z"/>
				</g>
				<g>
					<path fill="#FFFFFF" d="M10.805,4.235h0.01c0.059-0.093,0.127-0.195,0.191-0.278l0.576-0.767h0.723l-0.879,0.972l1.006,1.406
						h-0.738l-0.684-1.05l-0.205,0.239v0.811h-0.6V2.101h0.6V4.235z"/>
				</g>
				<g>
					<path fill="#FFFFFF" d="M12.606,4.914c0.195,0.112,0.488,0.21,0.795,0.21c0.387,0,0.602-0.181,0.602-0.449
						c0-0.249-0.166-0.396-0.586-0.547c-0.543-0.195-0.889-0.483-0.889-0.957c0-0.537,0.449-0.947,1.162-0.947
						c0.355,0,0.619,0.078,0.791,0.166l-0.146,0.483c-0.117-0.063-0.348-0.156-0.654-0.156c-0.381,0-0.547,0.205-0.547,0.396
						c0,0.254,0.189,0.371,0.629,0.542c0.572,0.215,0.85,0.503,0.85,0.977c0,0.527-0.4,0.986-1.25,0.986
						c-0.346,0-0.707-0.098-0.889-0.205L12.606,4.914z"/>
				</g>
				<g>
					<path fill="#FFFFFF" d="M15.703,2.511V3.19h0.572v0.449h-0.572v1.05c0,0.288,0.078,0.439,0.309,0.439
						c0.102,0,0.18-0.015,0.234-0.029l0.01,0.459c-0.088,0.034-0.244,0.059-0.436,0.059c-0.219,0-0.404-0.073-0.518-0.195
						c-0.127-0.137-0.186-0.352-0.186-0.664V3.639h-0.342V3.19h0.342V2.653L15.703,2.511z"/>
				</g>
				<g>
					<path fill="#FFFFFF" d="M17.971,5.568l-0.039-0.264h-0.014c-0.146,0.186-0.396,0.317-0.703,0.317
						c-0.479,0-0.748-0.347-0.748-0.708c0-0.601,0.533-0.903,1.412-0.898V3.976c0-0.156-0.064-0.415-0.484-0.415
						c-0.234,0-0.479,0.073-0.639,0.176l-0.117-0.391c0.176-0.107,0.482-0.21,0.859-0.21c0.762,0,0.98,0.483,0.98,1.001v0.859
						c0,0.215,0.01,0.425,0.035,0.571H17.971z M17.893,4.406c-0.424-0.01-0.83,0.083-0.83,0.444c0,0.234,0.152,0.342,0.342,0.342
						c0.24,0,0.416-0.156,0.469-0.327c0.016-0.044,0.02-0.093,0.02-0.132V4.406z"/>
				</g>
				<g>
					<path fill="#FFFFFF" d="M19.02,3.957c0-0.322-0.006-0.552-0.02-0.767h0.521l0.02,0.454h0.02
						c0.117-0.337,0.396-0.508,0.65-0.508c0.059,0,0.092,0.005,0.141,0.015v0.566c-0.049-0.01-0.102-0.02-0.176-0.02
						c-0.287,0-0.482,0.186-0.537,0.454c-0.01,0.054-0.02,0.117-0.02,0.186v1.23h-0.6V3.957z"/>
				</g>
				<g>
					<path fill="#FFFFFF" d="M21.463,2.511V3.19h0.571v0.449h-0.571v1.05c0,0.288,0.078,0.439,0.308,0.439
						c0.103,0,0.181-0.015,0.234-0.029l0.01,0.459c-0.088,0.034-0.244,0.059-0.435,0.059c-0.22,0-0.405-0.073-0.518-0.195
						c-0.127-0.137-0.186-0.352-0.186-0.664V3.639h-0.342V3.19h0.342V2.653L21.463,2.511z"/>
				</g>
			</g>
		</g>
		<g opacity="0.5">
			<path fill="#FFFFFF" d="M1.737,18.355c-0.096,0-0.193-0.027-0.278-0.084c-0.229-0.154-0.291-0.465-0.137-0.694l1.254-1.87
				l-1.254-1.871c-0.154-0.229-0.093-0.54,0.137-0.694c0.228-0.153,0.541-0.093,0.693,0.137l1.627,2.428l-1.627,2.427
				C2.055,18.277,1.898,18.355,1.737,18.355z"/>
		</g>
		<g opacity="0.5">
			<path fill="#FFFFFF" d="M3.942,18.355c-0.096,0-0.193-0.027-0.278-0.084c-0.229-0.154-0.291-0.465-0.137-0.694l1.254-1.87
				l-1.254-1.871c-0.154-0.229-0.093-0.54,0.137-0.694c0.228-0.153,0.54-0.093,0.693,0.137l1.627,2.428l-1.627,2.427
				C4.26,18.277,4.103,18.355,3.942,18.355z"/>
		</g>
		<g opacity="0.5">
			<path fill="#FFFFFF" d="M17.245,18.355c-0.096,0-0.193-0.027-0.278-0.084c-0.229-0.154-0.291-0.465-0.137-0.694l1.254-1.87
				l-1.254-1.871c-0.154-0.229-0.093-0.54,0.137-0.694c0.227-0.153,0.54-0.093,0.693,0.137l1.627,2.428l-1.627,2.427
				C17.564,18.277,17.406,18.355,17.245,18.355z"/>
		</g>
		<g opacity="0.5">
			<path fill="#FFFFFF" d="M19.45,18.355c-0.096,0-0.193-0.027-0.278-0.084c-0.229-0.154-0.291-0.465-0.137-0.694l1.254-1.87
				l-1.254-1.871c-0.154-0.229-0.093-0.54,0.137-0.694c0.228-0.153,0.541-0.093,0.693,0.137l1.627,2.428l-1.627,2.427
				C19.769,18.277,19.612,18.355,19.45,18.355z"/>
		</g>
		<g>
			<g>
				<path fill="#FFFFFF" d="M11.338,20.19c-2.502,0-4.537-2.036-4.537-4.539c0-1.654,0.899-3.177,2.347-3.976
					c0.24-0.133,0.545-0.046,0.679,0.196s0.046,0.546-0.196,0.679c-1.128,0.623-1.829,1.812-1.829,3.101
					c0,1.951,1.587,3.539,3.537,3.539c1.951,0,3.539-1.587,3.539-3.539c0-1.295-0.706-2.485-1.844-3.108
					c-0.242-0.132-0.331-0.436-0.198-0.679c0.133-0.243,0.438-0.332,0.679-0.198c1.458,0.797,2.363,2.325,2.363,3.985
					C15.877,18.154,13.841,20.19,11.338,20.19z"/>
			</g>
			<g>
				<path fill="#FFFFFF" d="M11.338,16.152c-0.276,0-0.5-0.224-0.5-0.5v-5.018c0-0.276,0.224-0.5,0.5-0.5s0.5,0.224,0.5,0.5v5.018
					C11.838,15.928,11.615,16.152,11.338,16.152z"/>
			</g>
			<g opacity="0.3">
				<g>
					<circle fill="#FFFFFF" cx="8.498" cy="14.667" r="0.336"/>
				</g>
				<g>
					<circle fill="#FFFFFF" cx="9.445" cy="17.509" r="0.335"/>
				</g>
				<g>
					<circle fill="#FFFFFF" cx="10.392" cy="16.561" r="0.336"/>
				</g>
				<g>
					<circle fill="#FFFFFF" cx="12.286" cy="14.667" r="0.335"/>
				</g>
				<g>
					<circle fill="#FFFFFF" cx="8.498" cy="16.562" r="0.335"/>
				</g>
				<g>
					<circle fill="#FFFFFF" cx="9.445" cy="15.614" r="0.335"/>
				</g>
				<g>
					<circle fill="#FFFFFF" cx="10.391" cy="14.668" r="0.335"/>
				</g>
				<g>
					<circle fill="#FFFFFF" cx="10.392" cy="18.456" r="0.336"/>
				</g>
				<g>
					<circle fill="#FFFFFF" cx="11.339" cy="17.509" r="0.335"/>
				</g>
				<g>
					<circle fill="#FFFFFF" cx="12.286" cy="16.562" r="0.335"/>
				</g>
				<g>
					<circle fill="#FFFFFF" cx="13.233" cy="15.614" r="0.335"/>
				</g>
				<g>
					<circle fill="#FFFFFF" cx="14.18" cy="14.667" r="0.336"/>
				</g>
				<g>
					<circle fill="#FFFFFF" cx="12.286" cy="18.456" r="0.335"/>
				</g>
				<g>
					<circle fill="#FFFFFF" cx="13.233" cy="17.509" r="0.335"/>
				</g>
				<g>
					<circle fill="#FFFFFF" cx="14.18" cy="16.562" r="0.335"/>
				</g>
				<g>
					<circle fill="#FFFFFF" cx="9.445" cy="13.721" r="0.335"/>
				</g>
				<g>
					<circle fill="#FFFFFF" cx="10.392" cy="12.774" r="0.336"/>
				</g>
				<g>
					<circle fill="#FFFFFF" cx="12.286" cy="12.774" r="0.335"/>
				</g>
				<g>
					<circle fill="#FFFFFF" cx="13.233" cy="13.721" r="0.335"/>
				</g>
			</g>
		</g>
	</g>
</g>
</svg>
