<?xml version="1.0" encoding="utf-8"?>
<!-- Generator: Adobe Illustrator 16.0.3, SVG Export Plug-In . SVG Version: 6.00 Build 0)  -->
<!DOCTYPE svg PUBLIC "-//W3C//DTD SVG 1.1//EN" "http://www.w3.org/Graphics/SVG/1.1/DTD/svg11.dtd">
<svg version="1.1" xmlns="http://www.w3.org/2000/svg" xmlns:xlink="http://www.w3.org/1999/xlink" x="0px" y="0px" width="22.68px"
	 height="22.68px" viewBox="0 0 22.68 22.68" enable-background="new 0 0 22.68 22.68" xml:space="preserve">
<g id="BCGRND" display="none">
</g>
<g id="IKONY">
	<g>
		<defs>
			<rect id="SVGID_49_" x="0.002" width="22.679" height="22.678"/>
		</defs>
		<clipPath id="SVGID_2_">
			<use xlink:href="#SVGID_49_"  overflow="visible"/>
		</clipPath>
		<g clip-path="url(#SVGID_2_)">
			<polygon fill="#585857" points="0.004,0 0.004,22.678 14.12,22.678 22.68,22.678 22.68,0 			"/>
		</g>
		<g clip-path="url(#SVGID_2_)">
			<path fill="#FFFFFF" d="M5.379,2.323c0.225-0.039,0.562-0.068,0.908-0.068c0.474,0,0.796,0.078,1.016,0.264
				C7.484,2.67,7.586,2.899,7.586,3.178c0,0.425-0.288,0.713-0.596,0.825v0.015c0.234,0.088,0.376,0.317,0.459,0.635
				c0.103,0.41,0.19,0.791,0.259,0.918h-0.62c-0.049-0.098-0.127-0.366-0.22-0.776c-0.093-0.43-0.249-0.566-0.591-0.576H5.975V5.57
				H5.379V2.323z M5.975,3.778h0.356c0.405,0,0.659-0.215,0.659-0.542c0-0.361-0.254-0.527-0.645-0.527
				c-0.19,0-0.313,0.015-0.371,0.029V3.778z"/>
			<path fill="#FFFFFF" d="M8.483,4.55c0.015,0.43,0.352,0.615,0.732,0.615c0.278,0,0.479-0.039,0.659-0.107l0.088,0.415
				c-0.205,0.083-0.488,0.146-0.83,0.146c-0.771,0-1.226-0.474-1.226-1.201c0-0.659,0.4-1.279,1.162-1.279
				c0.771,0,1.025,0.635,1.025,1.157c0,0.112-0.01,0.2-0.02,0.254H8.483z M9.528,4.13c0.005-0.22-0.093-0.581-0.493-0.581
				c-0.371,0-0.527,0.337-0.552,0.581H9.528z"/>
			<path fill="#FFFFFF" d="M11.826,5.57l-0.039-0.264h-0.015c-0.146,0.186-0.396,0.317-0.703,0.317
				c-0.479,0-0.747-0.347-0.747-0.708c0-0.601,0.532-0.903,1.411-0.898V3.979c0-0.156-0.063-0.415-0.483-0.415
				c-0.234,0-0.479,0.073-0.64,0.176l-0.117-0.391c0.176-0.107,0.483-0.21,0.859-0.21c0.762,0,0.981,0.483,0.981,1.001v0.859
				c0,0.215,0.01,0.425,0.034,0.571H11.826z M11.748,4.408c-0.425-0.01-0.83,0.083-0.83,0.444c0,0.234,0.151,0.342,0.342,0.342
				c0.239,0,0.415-0.156,0.469-0.327c0.015-0.044,0.02-0.093,0.02-0.132V4.408z"/>
			<path fill="#FFFFFF" d="M15.071,2.104v2.798c0,0.244,0.01,0.508,0.02,0.669h-0.537l-0.024-0.376h-0.01
				c-0.142,0.264-0.43,0.43-0.776,0.43c-0.566,0-1.016-0.483-1.016-1.216c-0.005-0.796,0.493-1.27,1.064-1.27
				c0.327,0,0.562,0.137,0.669,0.313h0.01V2.104H15.071z M14.47,4.184c0-0.049-0.005-0.107-0.015-0.156
				c-0.054-0.234-0.244-0.425-0.518-0.425c-0.386,0-0.601,0.342-0.601,0.786c0,0.435,0.215,0.752,0.596,0.752
				c0.244,0,0.459-0.166,0.518-0.425c0.015-0.054,0.02-0.112,0.02-0.176V4.184z"/>
			<path fill="#FFFFFF" d="M16.002,3.192l0.43,1.274c0.049,0.146,0.098,0.327,0.132,0.464h0.015
				c0.039-0.137,0.083-0.313,0.127-0.469l0.371-1.27h0.645l-0.596,1.621c-0.327,0.889-0.547,1.284-0.83,1.528
				c-0.234,0.21-0.479,0.288-0.63,0.308l-0.137-0.508c0.103-0.024,0.229-0.078,0.352-0.166c0.112-0.073,0.244-0.215,0.327-0.376
				c0.024-0.044,0.039-0.078,0.039-0.107c0-0.024-0.005-0.059-0.034-0.117l-0.869-2.183H16.002z"/>
		</g>
		<g clip-path="url(#SVGID_2_)">
			<path fill="#FFFFFF" d="M4.25,10.068V9.702l0.376-0.347c0.747-0.693,1.099-1.074,1.104-1.494c0-0.283-0.151-0.532-0.566-0.532
				c-0.278,0-0.518,0.142-0.679,0.264L4.308,7.168c0.229-0.186,0.576-0.327,0.977-0.327c0.703,0,1.045,0.444,1.045,0.962
				c0,0.557-0.4,1.006-0.952,1.519L5.099,9.561v0.01h1.304v0.498H4.25z"/>
			<path fill="#FFFFFF" d="M10.465,9.971c-0.142,0.073-0.454,0.146-0.85,0.146c-1.045,0-1.68-0.654-1.68-1.655
				c0-1.084,0.752-1.738,1.758-1.738c0.396,0,0.679,0.083,0.801,0.146l-0.132,0.479C10.206,7.28,9.991,7.222,9.718,7.222
				c-0.669,0-1.152,0.42-1.152,1.211c0,0.723,0.425,1.187,1.147,1.187c0.244,0,0.498-0.049,0.654-0.122L10.465,9.971z"/>
			<path fill="#FFFFFF" d="M13.194,8.857c0,0.874-0.615,1.265-1.221,1.265c-0.674,0-1.191-0.464-1.191-1.226
				c0-0.781,0.513-1.26,1.23-1.26C12.72,7.637,13.194,8.135,13.194,8.857z M11.402,8.882c0,0.459,0.225,0.806,0.591,0.806
				c0.342,0,0.581-0.337,0.581-0.815c0-0.371-0.166-0.796-0.576-0.796C11.573,8.076,11.402,8.486,11.402,8.882z"/>
			<path fill="#FFFFFF" d="M15.995,8.857c0,0.874-0.615,1.265-1.221,1.265c-0.674,0-1.191-0.464-1.191-1.226
				c0-0.781,0.513-1.26,1.23-1.26C15.521,7.637,15.995,8.135,15.995,8.857z M14.203,8.882c0,0.459,0.225,0.806,0.591,0.806
				c0.342,0,0.581-0.337,0.581-0.815c0-0.371-0.166-0.796-0.576-0.796C14.374,8.076,14.203,8.486,14.203,8.882z"/>
			<path fill="#FFFFFF" d="M17.136,8.735h0.01c0.059-0.093,0.127-0.195,0.19-0.278l0.576-0.767h0.723l-0.879,0.972l1.006,1.406
				h-0.737l-0.684-1.05l-0.205,0.239v0.811h-0.601V6.602h0.601V8.735z"/>
		</g>
		<g clip-path="url(#SVGID_2_)">
			<defs>
				<rect id="SVGID_51_" x="0.002" width="22.679" height="22.678"/>
			</defs>
			<clipPath id="SVGID_4_">
				<use xlink:href="#SVGID_51_"  overflow="visible"/>
			</clipPath>
			<g clip-path="url(#SVGID_4_)">
				<rect x="0.002" y="11.956" fill="#FFFFFF" width="22.678" height="0.889"/>
			</g>
			<g opacity="0.5" clip-path="url(#SVGID_4_)">
				<g>
					<defs>
						<rect id="SVGID_53_" x="6.627" y="14.116" width="9.282" height="8.562"/>
					</defs>
					<clipPath id="SVGID_6_">
						<use xlink:href="#SVGID_53_"  overflow="visible"/>
					</clipPath>
					<g clip-path="url(#SVGID_6_)">
						<path fill="#FFFFFF" d="M8.575,22.678h5.545v-0.854H8.575V22.678z M13.322,15.881c0,0,0.092-1.324-1.107-1.637
							c-2.885-0.751-2.991,2.049-2.991,2.049c-1.543-0.412-3.113,0.85-2.433,2.766c0.135,0.381,0.336,0.639,0.554,0.816
							c0.426,0.344,1.68,0.537,2.45,0.158c-0.207,0.334-0.752,0.521-1.219,0.555v0.857h5.545v-1.451
							c-1.358-0.145-1.375-0.781-1.375-0.781c0.664,0.768,1.935,0.334,2.017,0.305c0.547-0.246,1.227-0.782,1.139-1.926
							C15.758,15.717,13.322,15.881,13.322,15.881"/>
					</g>
				</g>
			</g>
			<g clip-path="url(#SVGID_4_)">
				<path fill="#FFFFFF" d="M12.493,17.617l-1.35,1.351c0,0-0.11,0.069-0.18,0.069c-0.07,0-0.13-0.029-0.18-0.069l-0.57-0.57
					c-0.1-0.101-0.1-0.26,0-0.351c0.1-0.09,0.26-0.1,0.35,0l0.39,0.391l1.18-1.17c0.1-0.101,0.26-0.101,0.35,0
					c0.1,0.1,0.1,0.26,0,0.35H12.493z"/>
			</g>
		</g>
	</g>
</g>
</svg>
