<?xml version="1.0" encoding="utf-8"?>
<!-- Generator: Adobe Illustrator 16.0.3, SVG Export Plug-In . SVG Version: 6.00 Build 0)  -->
<!DOCTYPE svg PUBLIC "-//W3C//DTD SVG 1.1//EN" "http://www.w3.org/Graphics/SVG/1.1/DTD/svg11.dtd">
<svg version="1.1" xmlns="http://www.w3.org/2000/svg" xmlns:xlink="http://www.w3.org/1999/xlink" x="0px" y="0px" width="22.68px"
	 height="22.68px" viewBox="0 0 22.68 22.68" enable-background="new 0 0 22.68 22.68" xml:space="preserve">
<g id="BCGRND">
</g>
<g id="IKONY">
	<g>
		<g>
			<g>
				<g>
					<g>
						<polygon fill="#585857" points="22.678,16.335 22.678,0 0,0 0,22.678 14.117,22.678 22.678,22.678 						"/>
					</g>
				</g>
			</g>
			<g>
				<g>
					<rect y="11.956" fill="#FFFFFF" width="22.678" height="0.889"/>
				</g>
			</g>
			<g>
				<g>
					<g>
						<path fill="#FFFFFF" d="M4.698,2.039C4.923,2,5.261,1.971,5.606,1.971c0.475,0,0.797,0.078,1.016,0.264
							c0.182,0.151,0.283,0.381,0.283,0.659c0,0.425-0.287,0.713-0.596,0.825v0.015c0.234,0.088,0.377,0.317,0.459,0.635
							c0.104,0.41,0.191,0.791,0.26,0.918H6.407C6.358,5.188,6.28,4.92,6.188,4.51c-0.094-0.43-0.25-0.566-0.592-0.576H5.294v1.353
							H4.698V2.039z M5.294,3.494h0.357c0.404,0,0.658-0.215,0.658-0.542c0-0.361-0.254-0.527-0.645-0.527
							c-0.189,0-0.313,0.015-0.371,0.029V3.494z"/>
					</g>
				</g>
				<g>
					<g>
						<path fill="#FFFFFF" d="M7.871,2.908l0.43,1.274C8.35,4.329,8.398,4.51,8.433,4.646h0.015C8.486,4.51,8.53,4.334,8.574,4.178
							l0.371-1.27H9.59L8.994,4.529c-0.327,0.889-0.547,1.284-0.83,1.528c-0.234,0.21-0.479,0.288-0.63,0.308L7.397,5.857
							C7.5,5.833,7.627,5.779,7.749,5.691c0.112-0.073,0.244-0.215,0.327-0.376c0.024-0.044,0.039-0.078,0.039-0.107
							c0-0.024-0.005-0.059-0.034-0.117L7.212,2.908H7.871z"/>
					</g>
				</g>
				<g>
					<g>
						<path fill="#FFFFFF" d="M11.624,5.213c-0.127,0.059-0.376,0.122-0.674,0.122c-0.742,0-1.226-0.474-1.226-1.211
							c0-0.713,0.488-1.27,1.323-1.27c0.22,0,0.444,0.049,0.581,0.112l-0.107,0.449c-0.098-0.044-0.239-0.093-0.454-0.093
							c-0.459,0-0.732,0.337-0.728,0.771c0,0.488,0.317,0.767,0.728,0.767c0.21,0,0.356-0.044,0.474-0.093L11.624,5.213z"/>
					</g>
				</g>
				<g>
					<g>
						<path fill="#FFFFFF" d="M12.071,1.819h0.605v1.416h0.01c0.073-0.112,0.171-0.205,0.298-0.273
							c0.117-0.068,0.259-0.107,0.41-0.107c0.405,0,0.83,0.269,0.83,1.03v1.401h-0.601V3.953c0-0.347-0.127-0.605-0.459-0.605
							c-0.234,0-0.4,0.156-0.464,0.337c-0.02,0.049-0.024,0.112-0.024,0.181v1.421h-0.605V1.819z"/>
					</g>
				</g>
				<g>
					<g>
						<path fill="#FFFFFF" d="M14.868,1.819h0.605v3.467h-0.605V1.819z"/>
					</g>
				</g>
				<g>
					<g>
						<path fill="#FFFFFF" d="M16.549,4.266c0.015,0.43,0.352,0.615,0.732,0.615c0.278,0,0.479-0.039,0.659-0.107l0.088,0.415
							c-0.205,0.083-0.488,0.146-0.83,0.146c-0.771,0-1.226-0.474-1.226-1.201c0-0.659,0.4-1.279,1.162-1.279
							c0.771,0,1.025,0.635,1.025,1.157c0,0.112-0.01,0.2-0.02,0.254H16.549z M17.594,3.846c0.005-0.22-0.093-0.581-0.493-0.581
							c-0.371,0-0.527,0.337-0.552,0.581H17.594z M17.867,1.878l-0.601,0.723h-0.415l0.425-0.723H17.867z"/>
					</g>
				</g>
				<g>
					<g>
						<path fill="#FFFFFF" d="M1.438,8.199c0-0.313-0.01-0.566-0.02-0.791h0.527l0.029,0.366h0.01
							c0.176-0.269,0.453-0.42,0.814-0.42c0.547,0,1.002,0.469,1.002,1.211c0,0.859-0.543,1.274-1.084,1.274
							c-0.299,0-0.547-0.127-0.67-0.317h-0.01v1.23h-0.6V8.199z M2.038,8.79c0,0.059,0.006,0.112,0.02,0.166
							c0.059,0.244,0.273,0.42,0.527,0.42c0.381,0,0.605-0.317,0.605-0.786c0-0.42-0.205-0.762-0.59-0.762
							c-0.25,0-0.479,0.181-0.537,0.444C2.048,8.321,2.038,8.375,2.038,8.424V8.79z"/>
					</g>
				</g>
				<g>
					<g>
						<path fill="#FFFFFF" d="M4.249,8.175c0-0.322-0.005-0.552-0.02-0.767h0.522l0.02,0.454h0.02
							C4.908,7.525,5.187,7.354,5.44,7.354c0.059,0,0.093,0.005,0.142,0.015v0.566c-0.049-0.01-0.103-0.02-0.176-0.02
							c-0.288,0-0.483,0.186-0.537,0.454c-0.01,0.054-0.02,0.117-0.02,0.186v1.23H4.249V8.175z"/>
					</g>
				</g>
				<g>
					<g>
						<path fill="#FFFFFF" d="M8.157,8.575c0,0.874-0.615,1.265-1.221,1.265c-0.674,0-1.191-0.464-1.191-1.226
							c0-0.781,0.513-1.26,1.23-1.26C7.684,7.354,8.157,7.853,8.157,8.575z M6.365,8.6c0,0.459,0.225,0.806,0.591,0.806
							c0.342,0,0.581-0.337,0.581-0.815c0-0.371-0.166-0.796-0.576-0.796C6.536,7.794,6.365,8.204,6.365,8.6z"/>
					</g>
				</g>
				<g>
					<g>
						<path fill="#FFFFFF" d="M10.778,7.408c-0.01,0.161-0.02,0.356-0.02,0.684v1.348c0,0.498-0.104,0.854-0.352,1.079
							c-0.25,0.22-0.592,0.288-0.918,0.288c-0.303,0-0.625-0.063-0.83-0.19l0.131-0.454c0.152,0.088,0.406,0.181,0.693,0.181
							c0.391,0,0.684-0.205,0.684-0.718V9.42h-0.01c-0.137,0.21-0.381,0.352-0.693,0.352c-0.59,0-1.01-0.488-1.01-1.162
							c0-0.781,0.508-1.255,1.078-1.255c0.361,0,0.576,0.176,0.689,0.371h0.01l0.023-0.317H10.778z M10.157,8.36
							c0-0.054-0.004-0.112-0.02-0.161c-0.063-0.22-0.234-0.386-0.488-0.386c-0.336,0-0.586,0.293-0.586,0.776
							c0,0.405,0.205,0.732,0.582,0.732c0.225,0,0.42-0.146,0.488-0.361c0.014-0.063,0.023-0.146,0.023-0.215V8.36z"/>
					</g>
				</g>
				<g>
					<g>
						<path fill="#FFFFFF" d="M11.339,8.175c0-0.322-0.006-0.552-0.02-0.767h0.521l0.02,0.454h0.02
							c0.117-0.337,0.396-0.508,0.65-0.508c0.059,0,0.092,0.005,0.141,0.015v0.566c-0.049-0.01-0.102-0.02-0.176-0.02
							c-0.287,0-0.482,0.186-0.537,0.454c-0.01,0.054-0.02,0.117-0.02,0.186v1.23h-0.6V8.175z"/>
					</g>
				</g>
				<g>
					<g>
						<path fill="#FFFFFF" d="M14.323,9.786l-0.039-0.264h-0.014c-0.146,0.186-0.396,0.317-0.703,0.317
							c-0.479,0-0.748-0.347-0.748-0.708c0-0.601,0.533-0.903,1.412-0.898V8.194c0-0.156-0.064-0.415-0.484-0.415
							c-0.234,0-0.479,0.073-0.639,0.176l-0.117-0.391c0.176-0.107,0.482-0.21,0.859-0.21c0.762,0,0.98,0.483,0.98,1.001v0.859
							c0,0.215,0.01,0.425,0.035,0.571H14.323z M14.245,8.624c-0.424-0.01-0.83,0.083-0.83,0.444c0,0.234,0.152,0.342,0.342,0.342
							c0.24,0,0.416-0.156,0.469-0.327c0.016-0.044,0.02-0.093,0.02-0.132V8.624z"/>
					</g>
				</g>
				<g>
					<g>
						<path fill="#FFFFFF" d="M15.421,8.116c0-0.273-0.006-0.503-0.02-0.708h0.518l0.023,0.352h0.016
							c0.117-0.186,0.332-0.405,0.732-0.405c0.313,0,0.557,0.176,0.658,0.439h0.01c0.084-0.132,0.182-0.229,0.293-0.298
							c0.133-0.093,0.283-0.142,0.479-0.142c0.396,0,0.797,0.269,0.797,1.03v1.401h-0.586V8.473c0-0.396-0.137-0.63-0.426-0.63
							c-0.205,0-0.355,0.146-0.42,0.317c-0.014,0.059-0.029,0.132-0.029,0.2v1.426H16.88V8.409c0-0.332-0.131-0.566-0.41-0.566
							c-0.225,0-0.375,0.176-0.43,0.342c-0.023,0.059-0.033,0.127-0.033,0.195v1.406h-0.586V8.116z"/>
					</g>
				</g>
				<g>
					<g>
						<path fill="#FFFFFF" d="M19.815,7.408l0.43,1.274c0.049,0.146,0.098,0.327,0.132,0.464h0.015
							c0.039-0.137,0.083-0.313,0.127-0.469l0.371-1.27h0.645l-0.596,1.621c-0.327,0.889-0.547,1.284-0.83,1.528
							c-0.234,0.21-0.479,0.288-0.63,0.308l-0.137-0.508c0.103-0.024,0.229-0.078,0.352-0.166c0.112-0.073,0.244-0.215,0.327-0.376
							c0.024-0.044,0.039-0.078,0.039-0.107c0-0.024-0.005-0.059-0.034-0.117l-0.869-2.183H19.815z"/>
					</g>
				</g>
			</g>
		</g>
		<g opacity="0.5">
			<g>
				<path fill="#FFFFFF" d="M16.783,20.503c-0.097,0-0.193-0.027-0.278-0.085c-0.229-0.153-0.291-0.464-0.137-0.693l1.254-1.87
					l-1.254-1.87c-0.154-0.229-0.093-0.54,0.137-0.693c0.228-0.155,0.539-0.092,0.693,0.137l1.627,2.427l-1.627,2.427
					C17.102,20.425,16.944,20.503,16.783,20.503z"/>
			</g>
			<g>
				<path fill="#FFFFFF" d="M19.271,20.503c-0.097,0-0.193-0.027-0.278-0.085c-0.229-0.153-0.291-0.464-0.137-0.693l1.254-1.87
					l-1.254-1.87c-0.154-0.229-0.093-0.54,0.137-0.693c0.227-0.155,0.539-0.092,0.693,0.137l1.627,2.427l-1.627,2.427
					C19.59,20.425,19.433,20.503,19.271,20.503z"/>
			</g>
		</g>
		<g opacity="0.5">
			<g>
				<path fill="#FFFFFF" d="M2.144,20.503c-0.097,0-0.193-0.027-0.278-0.085c-0.229-0.153-0.291-0.464-0.137-0.693l1.254-1.87
					l-1.254-1.87c-0.154-0.229-0.093-0.54,0.137-0.693c0.228-0.155,0.539-0.092,0.693,0.137l1.627,2.427l-1.627,2.427
					C2.462,20.425,2.305,20.503,2.144,20.503z"/>
			</g>
			<g>
				<path fill="#FFFFFF" d="M4.632,20.503c-0.097,0-0.193-0.027-0.278-0.085c-0.229-0.153-0.291-0.464-0.137-0.693l1.254-1.87
					l-1.254-1.87c-0.154-0.229-0.093-0.54,0.137-0.693c0.227-0.155,0.539-0.092,0.693,0.137l1.627,2.427l-1.627,2.427
					C4.95,20.425,4.793,20.503,4.632,20.503z"/>
			</g>
		</g>
		<g>
			<g opacity="0.3">
				<g>
					<path fill="#FFFFFF" d="M11.339,21.727c-2.139,0-3.871-1.733-3.871-3.872c0-2.138,1.732-3.871,3.871-3.871V21.727z"/>
				</g>
			</g>
			<g>
				<g>
					<path fill="#FFFFFF" d="M11.339,14.983c1.583,0,2.871,1.288,2.871,2.871c0,1.584-1.288,2.872-2.871,2.872
						s-2.871-1.288-2.871-2.872C8.468,16.271,9.756,14.983,11.339,14.983 M11.339,13.983c-2.139,0-3.871,1.733-3.871,3.871
						c0,2.139,1.732,3.872,3.871,3.872s3.871-1.733,3.871-3.872C15.21,15.717,13.478,13.983,11.339,13.983L11.339,13.983z"/>
				</g>
			</g>
			<g>
				<g>
					<path fill="#FFFFFF" d="M11.339,18.104c-0.138,0-0.25-0.112-0.25-0.25v-1.6c0-0.138,0.112-0.25,0.25-0.25s0.25,0.112,0.25,0.25
						v1.6C11.589,17.992,11.477,18.104,11.339,18.104z"/>
				</g>
			</g>
			<g>
				<g>
					<path fill="#FFFFFF" d="M11.339,18.104H9.728c-0.138,0-0.25-0.112-0.25-0.25s0.112-0.25,0.25-0.25h1.611
						c0.138,0,0.25,0.112,0.25,0.25S11.477,18.104,11.339,18.104z"/>
				</g>
			</g>
			<g>
				<g>
					<g>
						<rect x="13.759" y="17.604" fill="#FFFFFF" width="1.301" height="0.5"/>
					</g>
				</g>
				<g>
					<g>
						<rect x="7.62" y="17.604" fill="#FFFFFF" width="1.301" height="0.5"/>
					</g>
				</g>
				<g>
					<g>
						<rect x="11.089" y="20.272" fill="#FFFFFF" width="0.5" height="1.303"/>
					</g>
				</g>
			</g>
			<g>
				<g>
					<rect x="11.089" y="14.134" fill="#FFFFFF" width="0.5" height="1.303"/>
				</g>
			</g>
			<g>
				<g>
					<g>
						
							<rect x="13.235" y="13.825" transform="matrix(0.8644 0.5028 -0.5028 0.8644 9.0842 -4.8416)" fill="#FFFFFF" width="0.567" height="1.193"/>
					</g>
				</g>
				<g>
					<g>
						
							<rect x="13.106" y="13.571" transform="matrix(0.8635 0.5043 -0.5043 0.8635 8.907 -5.0727)" fill="#FFFFFF" width="1.441" height="0.699"/>
					</g>
				</g>
			</g>
			<g>
				<g>
					<g>
						
							<rect x="8.565" y="14.138" transform="matrix(0.5042 0.8636 -0.8636 0.5042 16.9957 -0.7616)" fill="#FFFFFF" width="1.193" height="0.567"/>
					</g>
				</g>
				<g>
					<g>
						
							<rect x="8.504" y="13.201" transform="matrix(0.5054 0.8629 -0.8629 0.5054 16.3905 -0.7546)" fill="#FFFFFF" width="0.699" height="1.441"/>
					</g>
				</g>
			</g>
		</g>
	</g>
</g>
</svg>
