<?xml version="1.0" encoding="utf-8"?>
<!-- Generator: Adobe Illustrator 16.0.3, SVG Export Plug-In . SVG Version: 6.00 Build 0)  -->
<!DOCTYPE svg PUBLIC "-//W3C//DTD SVG 1.1//EN" "http://www.w3.org/Graphics/SVG/1.1/DTD/svg11.dtd">
<svg version="1.1" xmlns="http://www.w3.org/2000/svg" xmlns:xlink="http://www.w3.org/1999/xlink" x="0px" y="0px" width="22.68px"
	 height="22.68px" viewBox="0 0 22.68 22.68" enable-background="new 0 0 22.68 22.68" xml:space="preserve">
<g id="BCGRND">
</g>
<g id="IKONY">
	<g>
		<defs>
			<polygon id="SVGID_5_" points="22.678,16.334 22.678,0 0,0 0,22.678 14.117,22.678 22.678,22.678 			"/>
		</defs>
		<use xlink:href="#SVGID_5_"  overflow="visible" fill="#585857"/>
		<clipPath id="SVGID_2_">
			<use xlink:href="#SVGID_5_"  overflow="visible"/>
		</clipPath>
		<g clip-path="url(#SVGID_2_)">
			<g>
				<rect y="7.769" fill="#FFFFFF" width="22.678" height="0.889"/>
				<g>
					<g>
						<path fill="#FFFFFF" d="M5.598,4.917c0.195,0.112,0.488,0.21,0.797,0.21c0.385,0,0.6-0.181,0.6-0.449
							c0-0.249-0.166-0.396-0.586-0.547C5.867,3.935,5.52,3.647,5.52,3.173c0-0.537,0.449-0.947,1.162-0.947
							c0.357,0,0.621,0.078,0.791,0.166L7.326,2.875C7.209,2.812,6.98,2.719,6.672,2.719c-0.381,0-0.547,0.205-0.547,0.396
							c0,0.254,0.191,0.371,0.631,0.542c0.57,0.215,0.85,0.503,0.85,0.977c0,0.527-0.4,0.986-1.25,0.986
							c-0.348,0-0.709-0.098-0.889-0.205L5.598,4.917z"/>
						<path fill="#FFFFFF" d="M8.482,4.55c0.014,0.43,0.352,0.615,0.732,0.615c0.277,0,0.479-0.039,0.658-0.107l0.088,0.415
							C9.756,5.556,9.473,5.62,9.131,5.62c-0.771,0-1.225-0.474-1.225-1.201c0-0.659,0.4-1.279,1.162-1.279
							c0.771,0,1.025,0.635,1.025,1.157c0,0.112-0.01,0.2-0.02,0.254H8.482z M9.527,4.13c0.004-0.22-0.094-0.581-0.494-0.581
							c-0.371,0-0.527,0.337-0.551,0.581H9.527z"/>
						<path fill="#FFFFFF" d="M10.482,3.959c0-0.322-0.006-0.552-0.02-0.767h0.521l0.02,0.454h0.02
							c0.117-0.337,0.396-0.508,0.65-0.508c0.059,0,0.092,0.005,0.141,0.015V3.72c-0.049-0.01-0.102-0.02-0.176-0.02
							c-0.287,0-0.482,0.186-0.537,0.454c-0.01,0.054-0.02,0.117-0.02,0.186v1.23h-0.6V3.959z"/>
						<path fill="#FFFFFF" d="M12.613,3.193l0.386,1.206c0.068,0.21,0.117,0.4,0.161,0.596h0.015
							c0.044-0.195,0.098-0.381,0.161-0.596l0.376-1.206h0.635l-0.908,2.378h-0.591l-0.884-2.378H12.613z"/>
						<path fill="#FFFFFF" d="M15.258,2.529c0,0.181-0.132,0.322-0.342,0.322c-0.2,0-0.332-0.142-0.332-0.322
							c0-0.186,0.137-0.327,0.337-0.327C15.126,2.202,15.253,2.343,15.258,2.529z M14.618,5.571V3.193h0.605v2.378H14.618z"/>
						<path fill="#FFFFFF" d="M15.742,5.019c0.137,0.083,0.396,0.171,0.611,0.171c0.264,0,0.381-0.107,0.381-0.264
							c0-0.161-0.098-0.244-0.391-0.347c-0.465-0.161-0.66-0.415-0.654-0.693c0-0.42,0.346-0.747,0.898-0.747
							c0.264,0,0.492,0.068,0.629,0.142L17.1,3.706c-0.102-0.059-0.293-0.137-0.502-0.137c-0.215,0-0.332,0.103-0.332,0.249
							c0,0.151,0.111,0.225,0.414,0.332c0.43,0.156,0.631,0.376,0.635,0.728c0,0.43-0.336,0.742-0.967,0.742
							c-0.287,0-0.547-0.068-0.723-0.166L15.742,5.019z"/>
					</g>
				</g>
			</g>
			<path fill="#FFFFFF" d="M13.452,20.328H9.227v-2.842H6.386v-4.225h2.841v-2.84h4.226v2.84h2.841v4.225h-2.841V20.328z
				 M10.227,19.328h2.226v-2.842h2.841v-2.225h-2.841v-2.84h-2.226v2.84H7.386v2.225h2.841V19.328z"/>
			<g opacity="0.5">
				<path fill="#FFFFFF" d="M8.683,17.486H6.392l-1.426-2.111l1.426-2.111h2.291c-0.646-0.869-1.679-1.435-2.843-1.435
					c-1.34,0-2.505,0.744-3.107,1.837H0v3.105h2.579c0.542,1.264,1.797,2.148,3.261,2.148C7.004,18.92,8.036,18.355,8.683,17.486z"
					/>
			</g>
			<polygon opacity="0.5" fill="#FFFFFF" points="16.218,15.967 18.307,16.609 19.271,15.967 25.967,15.967 25.967,14.783 
				19.271,14.783 18.307,14.139 16.218,14.783 			"/>
		</g>
	</g>
</g>
</svg>
