<?xml version="1.0" encoding="utf-8"?>
<!-- Generator: Adobe Illustrator 16.0.3, SVG Export Plug-In . SVG Version: 6.00 Build 0)  -->
<!DOCTYPE svg PUBLIC "-//W3C//DTD SVG 1.1//EN" "http://www.w3.org/Graphics/SVG/1.1/DTD/svg11.dtd">
<svg version="1.1" xmlns="http://www.w3.org/2000/svg" xmlns:xlink="http://www.w3.org/1999/xlink" x="0px" y="0px" width="22.68px"
	 height="22.68px" viewBox="0 0 22.68 22.68" enable-background="new 0 0 22.68 22.68" xml:space="preserve">
<g id="BCGRND">
</g>
<g id="IKONY">
	<rect fill="#585857" width="22.676" height="22.678"/>
	<g>
		<g>
			<path fill="none" d="M13.369,18.828c0,0.252-0.17,0.342-0.379,0.201l-2.499-1.678c-0.208-0.141-0.584-0.254-0.835-0.254H8.911
				c-0.251,0-0.456-0.205-0.456-0.457v-2.346c0-0.25,0.205-0.455,0.456-0.455h0.06l-1.403-1.404
				c-1.577,1.938-1.486,4.789,0.317,6.594c0.933,0.932,2.172,1.445,3.491,1.445c1.148,0,2.225-0.41,3.104-1.127l-1.11-1.109V18.828z
				"/>
			<path fill="none" d="M10.491,13.584l2.499-1.678c0.209-0.141,0.379-0.049,0.379,0.202v4.717l1.815,1.814
				c1.577-1.936,1.486-4.789-0.317-6.592c-0.933-0.932-2.173-1.446-3.491-1.446c-1.149,0-2.226,0.41-3.103,1.127l1.977,1.977
				C10.341,13.668,10.426,13.629,10.491,13.584z"/>
			<path fill="#FFFFFF" d="M8.911,13.84c-0.251,0-0.456,0.205-0.456,0.455v2.346c0,0.252,0.205,0.457,0.456,0.457h0.745
				c0.251,0,0.627,0.113,0.835,0.254l2.499,1.678c0.209,0.141,0.379,0.051,0.379-0.201v-0.59L8.971,13.84H8.911z"/>
			<path fill="#FFFFFF" d="M12.99,11.906l-2.499,1.678c-0.065,0.045-0.15,0.084-0.241,0.121l3.119,3.119v-4.717
				C13.369,11.857,13.199,11.765,12.99,11.906z"/>
			<path opacity="0.5" fill="#FFFFFF" d="M15.574,11.339c-1.122-1.121-2.613-1.738-4.198-1.738c-1.586,0-3.077,0.617-4.198,1.738
				c-2.314,2.315-2.314,6.081,0,8.397c1.121,1.121,2.612,1.738,4.198,1.738c1.585,0,3.076-0.617,4.198-1.738
				C17.889,17.42,17.889,13.654,15.574,11.339z M11.376,10.601c1.318,0,2.559,0.514,3.491,1.446
				c1.804,1.803,1.895,4.656,0.317,6.592l-1.815-1.814l-3.119-3.119l-1.977-1.977C9.15,11.011,10.227,10.601,11.376,10.601z
				 M11.376,20.475c-1.319,0-2.559-0.514-3.491-1.445c-1.804-1.805-1.895-4.656-0.317-6.594l5.802,5.803l1.11,1.109
				C13.601,20.064,12.524,20.475,11.376,20.475z"/>
		</g>
		<g>
			<path fill="#FFFFFF" d="M14.067,16.95c-0.073,0-0.146-0.025-0.205-0.077c-0.13-0.112-0.145-0.309-0.033-0.439
				c0.017-0.02,0.297-0.368,0.297-0.982c0-0.617-0.285-0.969-0.298-0.983c-0.109-0.132-0.093-0.329,0.038-0.44
				c0.129-0.11,0.326-0.097,0.438,0.034c0.019,0.021,0.448,0.529,0.448,1.39c0,0.862-0.431,1.369-0.449,1.391
				C14.242,16.913,14.155,16.95,14.067,16.95z"/>
		</g>
		<g>
			<path fill="#FFFFFF" d="M14.751,17.99c-0.072,0-0.145-0.024-0.204-0.075c-0.131-0.112-0.146-0.31-0.034-0.441
				c0.006-0.007,0.622-0.748,0.622-2.022c0-1.272-0.616-2.014-0.622-2.021c-0.111-0.132-0.097-0.329,0.034-0.441
				c0.13-0.112,0.327-0.099,0.439,0.032c0.032,0.037,0.775,0.912,0.775,2.43c0,1.52-0.743,2.395-0.775,2.432
				C14.925,17.954,14.838,17.99,14.751,17.99z"/>
		</g>
	</g>
	<g>
		<rect y="7.768" fill="#FFFFFF" width="22.678" height="0.889"/>
	</g>
	<g>
		<g>
			<path fill="#FFFFFF" d="M4.214,4.914c0.195,0.112,0.488,0.21,0.795,0.21c0.387,0,0.602-0.181,0.602-0.449
				c0-0.249-0.166-0.396-0.586-0.547C4.481,3.932,4.136,3.644,4.136,3.17c0-0.537,0.449-0.947,1.162-0.947
				c0.355,0,0.619,0.078,0.791,0.166L5.942,2.873C5.825,2.809,5.595,2.716,5.288,2.716c-0.381,0-0.547,0.205-0.547,0.396
				c0,0.254,0.189,0.371,0.629,0.542C5.942,3.869,6.22,4.157,6.22,4.63c0,0.527-0.4,0.986-1.25,0.986
				c-0.346,0-0.707-0.098-0.889-0.205L4.214,4.914z"/>
		</g>
		<g>
			<path fill="#FFFFFF" d="M7.239,2.526c0,0.181-0.133,0.322-0.342,0.322c-0.201,0-0.332-0.142-0.332-0.322
				c0-0.186,0.137-0.327,0.336-0.327C7.106,2.199,7.233,2.34,7.239,2.526z M6.599,5.568V3.19h0.605v2.378H6.599z"/>
		</g>
		<g>
			<path fill="#FFFFFF" d="M7.709,2.101h0.605v3.467H7.709V2.101z"/>
		</g>
		<g>
			<path fill="#FFFFFF" d="M9.249,4.547c0.014,0.43,0.352,0.615,0.732,0.615c0.277,0,0.479-0.039,0.658-0.107l0.088,0.415
				c-0.205,0.083-0.488,0.146-0.83,0.146c-0.771,0-1.225-0.474-1.225-1.201c0-0.659,0.4-1.279,1.162-1.279
				c0.771,0,1.025,0.635,1.025,1.157c0,0.112-0.01,0.2-0.02,0.254H9.249z M10.294,4.127C10.298,3.908,10.2,3.546,9.8,3.546
				c-0.371,0-0.527,0.337-0.551,0.581H10.294z"/>
		</g>
		<g>
			<path fill="#FFFFFF" d="M11.204,3.898c0-0.273-0.004-0.503-0.02-0.708h0.527l0.029,0.356h0.016
				c0.102-0.186,0.361-0.41,0.756-0.41c0.416,0,0.846,0.269,0.846,1.021v1.411h-0.602V4.225c0-0.342-0.127-0.601-0.453-0.601
				c-0.24,0-0.406,0.171-0.469,0.352c-0.02,0.054-0.025,0.127-0.025,0.195v1.396h-0.605V3.898z"/>
		</g>
		<g>
			<path fill="#FFFFFF" d="M14.523,2.511V3.19h0.571v0.449h-0.571v1.05c0,0.288,0.078,0.439,0.308,0.439
				c0.103,0,0.181-0.015,0.234-0.029l0.01,0.459c-0.088,0.034-0.244,0.059-0.435,0.059c-0.22,0-0.405-0.073-0.518-0.195
				c-0.127-0.137-0.186-0.352-0.186-0.664V3.639h-0.342V3.19h0.342V2.653L14.523,2.511z"/>
		</g>
		<g>
			<path fill="#FFFFFF" d="M17.612,2.97v1.104h1.06v0.381h-1.06v1.113h-0.4V4.455h-1.06V4.074h1.06V2.97H17.612z"/>
		</g>
	</g>
</g>
</svg>
