<?xml version="1.0" encoding="utf-8"?>
<!-- Generator: Adobe Illustrator 16.0.3, SVG Export Plug-In . SVG Version: 6.00 Build 0)  -->
<!DOCTYPE svg PUBLIC "-//W3C//DTD SVG 1.1//EN" "http://www.w3.org/Graphics/SVG/1.1/DTD/svg11.dtd">
<svg version="1.1" xmlns="http://www.w3.org/2000/svg" xmlns:xlink="http://www.w3.org/1999/xlink" x="0px" y="0px"
	 width="22.679px" height="22.68px" viewBox="0 0 22.679 22.68" enable-background="new 0 0 22.679 22.68" xml:space="preserve">
<g id="BCGRND">
</g>
<g id="IKONY">
	<polygon fill="#585857" points="22.677,16.335 22.677,0 0,0 0,22.678 14.117,22.678 22.677,22.678 	"/>
	<g>
		<g>
			<rect x="0" y="11.956" fill="#FFFFFF" width="22.678" height="0.889"/>
		</g>
		<g>
			<g>
				<path fill="#FFFFFF" d="M6.138,4.633c0.195,0.112,0.488,0.21,0.796,0.21c0.386,0,0.601-0.181,0.601-0.449
					c0-0.249-0.166-0.396-0.586-0.547C6.406,3.651,6.06,3.363,6.06,2.89c0-0.537,0.449-0.947,1.162-0.947
					c0.356,0,0.62,0.078,0.791,0.166L7.866,2.592C7.749,2.528,7.52,2.436,7.212,2.436c-0.381,0-0.547,0.205-0.547,0.396
					c0,0.254,0.19,0.371,0.63,0.542c0.571,0.215,0.85,0.503,0.85,0.977c0,0.527-0.4,0.986-1.25,0.986
					c-0.347,0-0.708-0.098-0.889-0.205L6.138,4.633z M6.895,1.811L6.396,1.234h0.449l0.273,0.317h0.01l0.273-0.317h0.444
					L7.349,1.811H6.895z"/>
				<path fill="#FFFFFF" d="M8.812,5.287V2.909h0.605v2.378H8.812z M9.847,1.879L9.247,2.602H8.832l0.425-0.723H9.847z"/>
				<path fill="#FFFFFF" d="M10.62,2.602l-0.479-0.723h0.416l0.264,0.444h0.01l0.264-0.444h0.414l-0.473,0.723H10.62z M10.209,3.676
					c0-0.322-0.004-0.552-0.02-0.767h0.523l0.02,0.454h0.02c0.117-0.337,0.395-0.508,0.648-0.508c0.059,0,0.094,0.005,0.143,0.015
					v0.566c-0.049-0.01-0.104-0.02-0.176-0.02c-0.289,0-0.484,0.186-0.537,0.454c-0.01,0.054-0.02,0.117-0.02,0.186v1.23h-0.602
					V3.676z"/>
				<path fill="#FFFFFF" d="M12.698,3.954h0.01c0.059-0.093,0.127-0.195,0.19-0.278l0.576-0.767h0.723l-0.879,0.972l1.006,1.406
					h-0.737l-0.684-1.05l-0.205,0.239v0.811h-0.601V1.82h0.601V3.954z"/>
				<path fill="#FFFFFF" d="M16.124,5.287l-0.039-0.264h-0.014c-0.146,0.186-0.396,0.317-0.703,0.317
					c-0.479,0-0.748-0.347-0.748-0.708c0-0.601,0.533-0.903,1.412-0.898V3.695c0-0.156-0.064-0.415-0.484-0.415
					c-0.234,0-0.479,0.073-0.639,0.176l-0.117-0.391c0.176-0.107,0.482-0.21,0.859-0.21c0.762,0,0.98,0.483,0.98,1.001v0.859
					c0,0.215,0.01,0.425,0.035,0.571H16.124z M16.045,4.125c-0.424-0.01-0.83,0.083-0.83,0.444c0,0.234,0.152,0.342,0.342,0.342
					c0.24,0,0.416-0.156,0.469-0.327c0.016-0.044,0.02-0.093,0.02-0.132V4.125z"/>
				<path fill="#FFFFFF" d="M6.872,6.403C6.56,6.867,6.32,7.512,6.32,8.391c0,0.864,0.244,1.504,0.552,1.973H6.433
					C6.154,9.973,5.842,9.338,5.842,8.391c0.005-0.952,0.313-1.592,0.591-1.987H6.872z"/>
				<path fill="#FFFFFF" d="M7.479,8.117c0-0.273-0.005-0.503-0.02-0.708h0.518l0.024,0.352h0.015
					c0.117-0.186,0.332-0.405,0.732-0.405c0.313,0,0.557,0.176,0.66,0.439h0.01C9.5,7.663,9.598,7.565,9.711,7.497
					c0.131-0.093,0.283-0.142,0.479-0.142c0.395,0,0.795,0.269,0.795,1.03v1.401h-0.586V8.474c0-0.396-0.137-0.63-0.424-0.63
					c-0.205,0-0.357,0.146-0.42,0.317C9.54,8.22,9.526,8.293,9.526,8.361v1.426H8.94V8.41c0-0.332-0.133-0.566-0.41-0.566
					c-0.225,0-0.376,0.176-0.43,0.342C8.075,8.244,8.065,8.313,8.065,8.381v1.406H7.479V8.117z"/>
				<path fill="#FFFFFF" d="M11.772,8.117c0-0.273-0.005-0.503-0.02-0.708h0.518l0.024,0.352h0.015
					c0.117-0.186,0.332-0.405,0.732-0.405c0.313,0,0.557,0.176,0.659,0.439h0.01c0.083-0.132,0.181-0.229,0.293-0.298
					c0.132-0.093,0.283-0.142,0.479-0.142c0.396,0,0.796,0.269,0.796,1.03v1.401h-0.586V8.474c0-0.396-0.137-0.63-0.425-0.63
					c-0.205,0-0.356,0.146-0.42,0.317c-0.015,0.059-0.029,0.132-0.029,0.2v1.426h-0.586V8.41c0-0.332-0.132-0.566-0.41-0.566
					c-0.225,0-0.376,0.176-0.43,0.342c-0.024,0.059-0.034,0.127-0.034,0.195v1.406h-0.586V8.117z"/>
				<path fill="#FFFFFF" d="M15.879,10.363c0.307-0.464,0.547-1.113,0.547-1.982s-0.24-1.509-0.547-1.978h0.434
					c0.283,0.391,0.596,1.025,0.596,1.982c-0.004,0.952-0.313,1.582-0.596,1.978H15.879z"/>
			</g>
		</g>
	</g>
	<g>
		<path fill="#FFFFFF" d="M8.287,15.926H6.163L6.001,17.03c0.127-0.017,0.238-0.025,0.399-0.025c0.484,0,0.969,0.11,1.343,0.357
			c0.417,0.263,0.723,0.73,0.723,1.402c0,1.054-0.876,1.912-2.236,1.912c-0.638,0-1.173-0.162-1.462-0.323l0.212-0.79
			c0.238,0.127,0.714,0.289,1.215,0.289c0.612,0,1.199-0.349,1.199-1.012c0-0.629-0.468-1.046-1.573-1.046
			c-0.306,0-0.535,0.018-0.756,0.052l0.366-2.788h2.855V15.926z"/>
		<path fill="#FFFFFF" d="M9.281,19.164c0-0.688,0.398-1.156,1.036-1.437v-0.025c-0.577-0.281-0.841-0.74-0.841-1.225
			c0-0.9,0.799-1.513,1.844-1.513c1.189,0,1.734,0.714,1.734,1.395c0,0.467-0.247,0.951-0.85,1.249v0.025
			c0.603,0.229,1.053,0.705,1.053,1.394c0,0.986-0.832,1.649-2.014,1.649C9.952,20.677,9.281,19.938,9.281,19.164z M12.195,19.112
			c0-0.561-0.416-0.866-1.027-1.036c-0.52,0.152-0.816,0.51-0.816,0.969c-0.018,0.467,0.34,0.893,0.926,0.893
			C11.83,19.938,12.195,19.589,12.195,19.112z M10.47,16.436c0,0.45,0.374,0.723,0.9,0.867c0.375-0.111,0.689-0.417,0.689-0.833
			c0-0.383-0.23-0.782-0.791-0.782C10.742,15.688,10.47,16.036,10.47,16.436z"/>
		<path fill="#FFFFFF" d="M17.938,17.787c0,1.776-0.696,2.89-2.015,2.89c-1.274,0-1.955-1.156-1.963-2.839
			c0-1.717,0.73-2.873,2.022-2.873C17.318,14.965,17.938,16.155,17.938,17.787z M15.014,17.838c-0.009,1.343,0.366,2.04,0.943,2.04
			c0.612,0,0.935-0.748,0.935-2.074c0-1.283-0.306-2.04-0.935-2.04C15.396,15.764,15.005,16.452,15.014,17.838z"/>
	</g>
</g>
</svg>
