<?xml version="1.0" encoding="utf-8"?>
<!-- Generator: Adobe Illustrator 16.0.3, SVG Export Plug-In . SVG Version: 6.00 Build 0)  -->
<!DOCTYPE svg PUBLIC "-//W3C//DTD SVG 1.1//EN" "http://www.w3.org/Graphics/SVG/1.1/DTD/svg11.dtd">
<svg version="1.1" xmlns="http://www.w3.org/2000/svg" xmlns:xlink="http://www.w3.org/1999/xlink" x="0px" y="0px" width="22.68px"
	 height="22.68px" viewBox="0 0 22.68 22.68" enable-background="new 0 0 22.68 22.68" xml:space="preserve">
<g id="BCGRND">
</g>
<g id="IKONY">
	<rect x="0.001" fill="#585857" width="22.677" height="22.677"/>
	<g>
		<g>
			<rect x="0.001" y="11.956" fill="#FFFFFF" width="22.678" height="0.889"/>
		</g>
		<g>
			<g>
				<path fill="#FFFFFF" d="M6.139,4.633c0.195,0.113,0.488,0.211,0.795,0.211c0.387,0,0.602-0.182,0.602-0.449
					c0-0.25-0.166-0.396-0.586-0.547C6.406,3.652,6.061,3.363,6.061,2.891c0-0.537,0.449-0.947,1.162-0.947
					c0.355,0,0.619,0.078,0.791,0.166L7.867,2.592C7.75,2.529,7.52,2.436,7.213,2.436c-0.381,0-0.547,0.205-0.547,0.396
					c0,0.254,0.189,0.371,0.629,0.541c0.572,0.215,0.85,0.504,0.85,0.977c0,0.527-0.4,0.986-1.25,0.986
					c-0.346,0-0.707-0.098-0.889-0.205L6.139,4.633z M6.895,1.811L6.396,1.234h0.449l0.273,0.318h0.01l0.273-0.318h0.445L7.35,1.811
					H6.895z"/>
				<path fill="#FFFFFF" d="M8.813,5.287V2.91h0.605v2.377H8.813z M9.848,1.879L9.247,2.602H8.832l0.425-0.723H9.848z"/>
				<path fill="#FFFFFF" d="M10.621,2.602l-0.479-0.723h0.414l0.264,0.445h0.01l0.264-0.445h0.416l-0.475,0.723H10.621z
					 M10.211,3.676c0-0.322-0.006-0.551-0.02-0.766h0.521l0.02,0.453h0.02c0.117-0.336,0.396-0.508,0.65-0.508
					c0.059,0,0.092,0.006,0.141,0.016v0.566c-0.049-0.01-0.102-0.02-0.176-0.02c-0.287,0-0.482,0.186-0.537,0.453
					c-0.01,0.055-0.02,0.117-0.02,0.186v1.23h-0.6V3.676z"/>
				<path fill="#FFFFFF" d="M12.698,3.955h0.01c0.059-0.094,0.127-0.195,0.19-0.279l0.576-0.766h0.723l-0.879,0.971l1.006,1.406
					h-0.737l-0.684-1.049l-0.205,0.238v0.811h-0.601V1.82h0.601V3.955z"/>
				<path fill="#FFFFFF" d="M16.125,5.287l-0.039-0.264H16.07c-0.146,0.186-0.395,0.318-0.703,0.318
					c-0.479,0-0.746-0.348-0.746-0.709c0-0.6,0.531-0.902,1.41-0.898V3.695c0-0.156-0.063-0.414-0.482-0.414
					c-0.234,0-0.479,0.072-0.641,0.176l-0.117-0.391c0.176-0.107,0.484-0.211,0.859-0.211c0.762,0,0.982,0.484,0.982,1.002v0.859
					c0,0.215,0.01,0.424,0.033,0.57H16.125z M16.047,4.125c-0.426-0.01-0.83,0.084-0.83,0.445c0,0.234,0.15,0.342,0.342,0.342
					c0.238,0,0.414-0.156,0.469-0.328c0.014-0.043,0.02-0.092,0.02-0.131V4.125z"/>
				<path fill="#FFFFFF" d="M6.873,6.404C6.561,6.867,6.32,7.512,6.32,8.391c0,0.865,0.244,1.504,0.553,1.973H6.434
					C6.154,9.973,5.842,9.338,5.842,8.391c0.006-0.951,0.313-1.592,0.592-1.986H6.873z"/>
				<path fill="#FFFFFF" d="M7.48,8.117c0-0.273-0.006-0.502-0.02-0.707h0.518l0.023,0.352h0.016C8.135,7.576,8.35,7.355,8.75,7.355
					c0.313,0,0.557,0.176,0.658,0.439h0.01C9.502,7.664,9.6,7.566,9.711,7.498c0.133-0.094,0.283-0.143,0.479-0.143
					c0.396,0,0.797,0.27,0.797,1.031v1.4H10.4V8.475c0-0.396-0.137-0.631-0.426-0.631c-0.205,0-0.355,0.146-0.42,0.318
					C9.541,8.221,9.525,8.293,9.525,8.361v1.426H8.939V8.41c0-0.332-0.131-0.566-0.41-0.566c-0.225,0-0.375,0.176-0.43,0.342
					C8.076,8.244,8.066,8.313,8.066,8.381v1.406H7.48V8.117z"/>
				<path fill="#FFFFFF" d="M11.772,8.117c0-0.273-0.005-0.502-0.02-0.707h0.518l0.024,0.352h0.015
					c0.117-0.186,0.332-0.406,0.732-0.406c0.313,0,0.557,0.176,0.659,0.439h0.01c0.083-0.131,0.181-0.229,0.293-0.297
					c0.132-0.094,0.283-0.143,0.479-0.143c0.396,0,0.796,0.27,0.796,1.031v1.4h-0.586V8.475c0-0.396-0.137-0.631-0.425-0.631
					c-0.205,0-0.356,0.146-0.42,0.318c-0.015,0.059-0.029,0.131-0.029,0.199v1.426h-0.586V8.41c0-0.332-0.132-0.566-0.41-0.566
					c-0.225,0-0.376,0.176-0.43,0.342c-0.024,0.059-0.034,0.127-0.034,0.195v1.406h-0.586V8.117z"/>
				<path fill="#FFFFFF" d="M15.879,10.363c0.309-0.463,0.547-1.113,0.547-1.982s-0.238-1.508-0.547-1.977h0.436
					c0.283,0.391,0.596,1.025,0.596,1.982c-0.006,0.951-0.313,1.582-0.596,1.977H15.879z"/>
			</g>
		</g>
		<g>
			<path fill="#FFFFFF" d="M8.75,15.059v0.672l-2.338,4.854H5.308l2.329-4.641v-0.018H5.035v-0.867H8.75z"/>
			<path fill="#FFFFFF" d="M12.797,15.926h-2.125l-0.162,1.105c0.128-0.018,0.238-0.025,0.4-0.025c0.484,0,0.969,0.109,1.342,0.357
				c0.417,0.262,0.723,0.73,0.723,1.402c0,1.053-0.875,1.912-2.234,1.912c-0.639,0-1.174-0.162-1.463-0.324l0.213-0.789
				c0.238,0.127,0.714,0.289,1.215,0.289c0.613,0,1.199-0.35,1.199-1.012c0-0.629-0.468-1.047-1.572-1.047
				c-0.307,0-0.535,0.018-0.757,0.053l0.366-2.789h2.855V15.926z"/>
			<path fill="#FFFFFF" d="M17.768,17.787c0,1.777-0.697,2.891-2.015,2.891c-1.274,0-1.955-1.156-1.964-2.84
				c0-1.717,0.731-2.873,2.023-2.873C17.146,14.965,17.768,16.156,17.768,17.787z M14.844,17.838
				c-0.009,1.344,0.365,2.041,0.943,2.041c0.611,0,0.935-0.748,0.935-2.074c0-1.283-0.306-2.041-0.935-2.041
				C15.226,15.764,14.835,16.453,14.844,17.838z"/>
		</g>
	</g>
</g>
</svg>
