<?xml version="1.0" encoding="utf-8"?>
<!-- Generator: Adobe Illustrator 16.0.3, SVG Export Plug-In . SVG Version: 6.00 Build 0)  -->
<!DOCTYPE svg PUBLIC "-//W3C//DTD SVG 1.1//EN" "http://www.w3.org/Graphics/SVG/1.1/DTD/svg11.dtd">
<svg version="1.1" xmlns="http://www.w3.org/2000/svg" xmlns:xlink="http://www.w3.org/1999/xlink" x="0px" y="0px" width="22.68px"
	 height="22.68px" viewBox="0 0 22.68 22.68" enable-background="new 0 0 22.68 22.68" xml:space="preserve">
<g id="BCGRND">
</g>
<g id="IKONY">
	<rect x="0" fill="#585857" width="22.676" height="22.678"/>
	<g>
		<path fill="#FFFFFF" d="M5.526,4.916c0.19,0.113,0.488,0.211,0.796,0.211c0.381,0,0.596-0.182,0.596-0.449
			c0-0.25-0.166-0.396-0.581-0.547C5.79,3.936,5.443,3.646,5.443,3.174c0-0.543,0.449-0.947,1.167-0.947
			c0.356,0,0.615,0.078,0.786,0.166L7.254,2.875C7.132,2.813,6.903,2.719,6.595,2.719c-0.381,0-0.542,0.201-0.542,0.396
			c0,0.254,0.19,0.371,0.63,0.541C7.254,3.871,7.528,4.16,7.528,4.633c0,0.533-0.4,0.992-1.245,0.992
			c-0.352,0-0.713-0.098-0.894-0.211L5.526,4.916z"/>
		<path fill="#FFFFFF" d="M8.083,2.104h0.602V5.57H8.083V2.104z"/>
		<path fill="#FFFFFF" d="M10.028,2.529c0,0.176-0.132,0.322-0.342,0.322c-0.2,0-0.332-0.146-0.332-0.322
			c0-0.186,0.137-0.328,0.337-0.328C9.896,2.201,10.023,2.344,10.028,2.529z M9.388,5.57V3.193h0.601V5.57H9.388z"/>
		<path fill="#FFFFFF" d="M12.881,2.104v2.799c0,0.244,0.01,0.508,0.02,0.668h-0.533l-0.029-0.375h-0.01
			c-0.141,0.264-0.43,0.43-0.771,0.43c-0.57,0-1.02-0.484-1.02-1.217c-0.006-0.795,0.492-1.27,1.064-1.27
			c0.326,0,0.561,0.133,0.668,0.309h0.01V2.104H12.881z M12.28,4.184c0-0.049-0.004-0.111-0.014-0.16
			c-0.055-0.23-0.244-0.42-0.518-0.42c-0.387,0-0.602,0.342-0.602,0.781s0.215,0.756,0.596,0.756c0.244,0,0.459-0.166,0.518-0.424
			c0.016-0.055,0.02-0.113,0.02-0.176V4.184z"/>
		<path fill="#FFFFFF" d="M14.002,4.551c0.016,0.43,0.348,0.615,0.732,0.615c0.279,0,0.475-0.045,0.66-0.107l0.088,0.41
			c-0.205,0.088-0.488,0.15-0.83,0.15c-0.771,0-1.227-0.473-1.227-1.201c0-0.658,0.4-1.279,1.162-1.279
			c0.771,0,1.025,0.635,1.025,1.158c0,0.111-0.01,0.199-0.02,0.254H14.002z M15.047,4.131c0.006-0.221-0.092-0.582-0.492-0.582
			c-0.371,0-0.527,0.338-0.553,0.582H15.047z"/>
		<path fill="#FFFFFF" d="M16.149,3.959c0-0.322-0.004-0.557-0.02-0.766h0.518l0.025,0.449h0.014
			c0.117-0.332,0.396-0.504,0.654-0.504c0.059,0,0.094,0.006,0.143,0.016v0.561c-0.055-0.01-0.107-0.014-0.182-0.014
			c-0.283,0-0.482,0.18-0.537,0.453c-0.01,0.055-0.014,0.117-0.014,0.182V5.57h-0.602V3.959z"/>
	</g>
	<g>
		<g opacity="0.5">
			<path fill="#FFFFFF" d="M9.551,11.184c0.126-0.285,0.51-0.359,0.855-0.175l0.064,0.048l0.149,0.158
				c0.103,0.107,0.223,0.234,0.353,0.371v-0.973h-1.65v4.688h1.65v-1.335C9.249,11.861,9.471,11.363,9.551,11.184z"/>
		</g>
		<g opacity="0.5">
			<path fill="#FFFFFF" d="M12.63,12.811c0.141-0.033,0.386-0.08,0.73-0.037v-2.16h-1.648v1.754
				c0.158,0.168,0.321,0.342,0.489,0.522L12.63,12.811z"/>
		</g>
		<g opacity="0.5">
			<path fill="#FFFFFF" d="M11.712,14.827v0.474h0.405c-0.094-0.111-0.178-0.217-0.281-0.332
				C11.792,14.919,11.755,14.875,11.712,14.827z"/>
		</g>
		<g opacity="0.5">
			<path fill="#FFFFFF" d="M15.75,10.613H14.1v2.133c0.57-0.024,1.105,0.255,1.649,0.848V10.613z"/>
		</g>
		<g opacity="0.5">
			<path fill="#FFFFFF" d="M17.28,15.301h0.857v-4.688h-1.648v3.789c0.196,0.213,0.336,0.361,0.336,0.361L17.28,15.301z"/>
		</g>
	</g>
	<path fill="#FFFFFF" d="M0.001,7.77v0.889h22.678V7.77H0.001z M0.921,13.203h2.731v-0.492H0.921V13.203z M4.545,15.301h1.649
		v-4.688H4.545V15.301z M22.675,22.678c-1.928-0.916-4.119-2.35-4.119-2.35c-0.652-3.807-1.248-4.606-1.248-4.606l-0.664-0.786
		c0,0-0.552-0.583-1.004-1.1c-0.453-0.516-1.014-0.934-1.662-0.845c0.88,0.938,1.166,1.158,2.151,2.379
		c0.088,0.096,0.062,0.234-0.032,0.311c-0.096,0.076-0.234,0.062-0.311-0.032c-1.192-1.48-1.589-1.789-2.386-2.625
		c-0.423-0.069-0.659,0.025-0.804,0.051c0.988,1.053,1.252,1.258,2.339,2.611c0.082,0.102,0.062,0.234-0.034,0.311
		c-0.094,0.076-0.233,0.061-0.309-0.035c-1.15-1.432-3.499-3.885-4.304-4.731c-0.521-0.277-1.442,0.034,1.733,3.571
		c2.561,2.854,2.438,4.625,2.438,4.625c-0.357-0.153-0.779-0.012-2.286-2.104c-1.012-1.402-1.537-1.02-1.537-1.02
		c-0.16,0.896,1.525,3.629,2.753,4.732c0.258,0.231,1.276,0.883,2.397,1.643H22.675z M20.65,11.549h-0.52v1.154h-1.106v0.492h1.106
		v1.17h0.52v-1.17h1.105v-0.492H20.65V11.549z M6.934,15.301h1.649v-4.688H6.934V15.301z"/>
</g>
</svg>
