<?xml version="1.0" encoding="utf-8"?>
<!-- Generator: Adobe Illustrator 16.0.3, SVG Export Plug-In . SVG Version: 6.00 Build 0)  -->
<!DOCTYPE svg PUBLIC "-//W3C//DTD SVG 1.1//EN" "http://www.w3.org/Graphics/SVG/1.1/DTD/svg11.dtd">
<svg version="1.1" xmlns="http://www.w3.org/2000/svg" xmlns:xlink="http://www.w3.org/1999/xlink" x="0px" y="0px" width="22.68px"
	 height="22.68px" viewBox="0 0 22.68 22.68" enable-background="new 0 0 22.68 22.68" xml:space="preserve">
<g id="BCGRND">
</g>
<g id="IKONY">
	<rect fill="#585857" width="22.677" height="22.678"/>
	<g>
		<g>
			<rect y="7.769" fill="#FFFFFF" width="22.678" height="0.889"/>
		</g>
		<g>
			<g>
				<path fill="#FFFFFF" d="M0.925,4.913c0.195,0.112,0.488,0.21,0.796,0.21c0.386,0,0.601-0.181,0.601-0.449
					c0-0.249-0.166-0.396-0.586-0.547C1.194,3.932,0.847,3.644,0.847,3.17c0-0.537,0.449-0.947,1.162-0.947
					c0.356,0,0.62,0.078,0.791,0.166L2.654,2.872C2.537,2.809,2.307,2.716,2,2.716c-0.381,0-0.547,0.205-0.547,0.396
					c0,0.254,0.19,0.371,0.63,0.542c0.571,0.215,0.85,0.503,0.85,0.977c0,0.527-0.4,0.986-1.25,0.986
					c-0.347,0-0.708-0.098-0.889-0.205L0.925,4.913z"/>
				<path fill="#FFFFFF" d="M3.257,3.897c0-0.273-0.005-0.503-0.02-0.708h0.518L3.78,3.541h0.015
					c0.117-0.186,0.332-0.405,0.732-0.405c0.313,0,0.557,0.176,0.659,0.439h0.01c0.083-0.132,0.181-0.229,0.293-0.298
					c0.132-0.093,0.283-0.142,0.479-0.142c0.396,0,0.796,0.269,0.796,1.03v1.401H6.177V4.254c0-0.396-0.137-0.63-0.425-0.63
					c-0.205,0-0.356,0.146-0.42,0.317C5.318,4,5.303,4.073,5.303,4.142v1.426H4.717V4.19c0-0.332-0.132-0.566-0.41-0.566
					c-0.225,0-0.376,0.176-0.43,0.342C3.853,4.024,3.843,4.093,3.843,4.161v1.406H3.257V3.897z"/>
				<path fill="#FFFFFF" d="M8.545,5.567L8.506,5.304H8.492C8.345,5.489,8.096,5.621,7.789,5.621c-0.479,0-0.747-0.347-0.747-0.708
					c0-0.601,0.532-0.903,1.411-0.898V3.976c0-0.156-0.063-0.415-0.483-0.415c-0.234,0-0.479,0.073-0.64,0.176L7.212,3.346
					c0.176-0.107,0.483-0.21,0.859-0.21c0.762,0,0.981,0.483,0.981,1.001v0.859c0,0.215,0.01,0.425,0.034,0.571H8.545z M8.467,4.405
					c-0.425-0.01-0.83,0.083-0.83,0.444c0,0.234,0.151,0.342,0.342,0.342c0.239,0,0.415-0.156,0.469-0.327
					c0.015-0.044,0.02-0.093,0.02-0.132V4.405z"/>
				<path fill="#FFFFFF" d="M9.496,3.956c0-0.322-0.005-0.552-0.02-0.767h0.522l0.02,0.454h0.02
					c0.117-0.337,0.396-0.508,0.649-0.508c0.059,0,0.093,0.005,0.142,0.015v0.566c-0.049-0.01-0.103-0.02-0.176-0.02
					c-0.288,0-0.483,0.186-0.537,0.454c-0.01,0.054-0.02,0.117-0.02,0.186v1.23H9.496V3.956z"/>
				<path fill="#FFFFFF" d="M11.841,2.511v0.679h0.571v0.449h-0.571v1.05c0,0.288,0.078,0.439,0.308,0.439
					c0.103,0,0.181-0.015,0.234-0.029l0.01,0.459c-0.088,0.034-0.244,0.059-0.435,0.059c-0.22,0-0.405-0.073-0.518-0.195
					c-0.127-0.137-0.186-0.352-0.186-0.664V3.639h-0.342V3.189h0.342V2.652L11.841,2.511z"/>
				<path fill="#FFFFFF" d="M12.698,2.276h1.899V2.77h-1.299v0.908h1.211v0.493h-1.211v1.396h-0.601V2.276z"/>
				<path fill="#FFFFFF" d="M14.859,3.956c0-0.322-0.005-0.552-0.02-0.767h0.522l0.02,0.454h0.02
					c0.117-0.337,0.396-0.508,0.649-0.508c0.059,0,0.093,0.005,0.142,0.015v0.566c-0.049-0.01-0.103-0.02-0.176-0.02
					c-0.288,0-0.483,0.186-0.537,0.454c-0.01,0.054-0.02,0.117-0.02,0.186v1.23h-0.601V3.956z"/>
				<path fill="#FFFFFF" d="M18.621,4.356c0,0.874-0.615,1.265-1.221,1.265c-0.674,0-1.191-0.464-1.191-1.226
					c0-0.781,0.513-1.26,1.23-1.26C18.147,3.136,18.621,3.634,18.621,4.356z M16.829,4.381c0,0.459,0.225,0.806,0.591,0.806
					C17.761,5.187,18,4.85,18,4.371C18,4,17.834,3.575,17.424,3.575C17,3.575,16.829,3.985,16.829,4.381z"/>
				<path fill="#FFFFFF" d="M18.892,5.016c0.137,0.083,0.396,0.171,0.61,0.171c0.264,0,0.381-0.107,0.381-0.264
					c0-0.161-0.098-0.244-0.391-0.347c-0.464-0.161-0.659-0.415-0.654-0.693c0-0.42,0.347-0.747,0.898-0.747
					c0.264,0,0.493,0.068,0.63,0.142L20.25,3.702c-0.103-0.059-0.293-0.137-0.503-0.137c-0.215,0-0.332,0.103-0.332,0.249
					c0,0.151,0.112,0.225,0.415,0.332c0.43,0.156,0.63,0.376,0.635,0.728c0,0.43-0.337,0.742-0.967,0.742
					c-0.288,0-0.547-0.068-0.723-0.166L18.892,5.016z"/>
				<path fill="#FFFFFF" d="M21.453,2.511v0.679h0.571v0.449h-0.571v1.05c0,0.288,0.078,0.439,0.308,0.439
					c0.103,0,0.181-0.015,0.234-0.029l0.01,0.459c-0.088,0.034-0.244,0.059-0.435,0.059c-0.22,0-0.405-0.073-0.518-0.195
					c-0.127-0.137-0.186-0.352-0.186-0.664V3.639h-0.342V3.189h0.342V2.652L21.453,2.511z"/>
			</g>
		</g>
		<g>
			<path fill="#FFFFFF" d="M11.291,10.81c-2.213,0-4.178,1.795-4.178,4.009c0,0.707,0.184,1.371,0.506,1.948
				c0,0,0.836,1.096,1.248,3.294l4.85,0.001c0.41-2.199,1.246-3.295,1.246-3.295c0.322-0.577,0.508-1.241,0.508-1.948
				C15.471,12.604,13.506,10.81,11.291,10.81z M10.718,17.26c-0.067-0.514-0.197-1.229-0.421-1.734
				c0.286-0.088,0.629-0.158,0.994-0.158c0.382,0,0.738,0.077,1.031,0.17c-0.22,0.506-0.348,1.214-0.415,1.723H10.718z
				 M14.116,16.231c-0.191,0.271-0.788,1.206-1.202,2.83h-0.548l-0.105-1.373c0.064-0.646,0.214-1.523,0.432-2.015
				c0.229,0.096,0.372,0.18,0.375,0.182l0.464-0.759c-0.041-0.025-1.023-0.618-2.24-0.618c-1.215,0-2.198,0.593-2.239,0.617
				l0.462,0.76c0.004-0.002,0.162-0.094,0.412-0.197c0.196,0.433,0.338,1.178,0.413,1.799l-0.121,1.604H9.67
				c-0.416-1.623-1.013-2.559-1.204-2.83c-0.233-0.437-0.353-0.912-0.353-1.412c0-1.603,1.485-3.009,3.178-3.009
				c1.693,0,3.18,1.406,3.18,3.009C14.471,15.31,14.348,15.797,14.116,16.231z M8.887,21.328h4.807v-0.759H8.887V21.328z
				 M10.793,22.676h0.994l1.137-0.758H9.656L10.793,22.676z"/>
			<path opacity="0.5" fill="#FFFFFF" d="M15.83,16.416h0.43l0.669-0.381l-0.669-0.387h-0.198
				C16.004,15.91,15.931,16.167,15.83,16.416z M12.378,10.058c0.506,0.116,0.979,0.315,1.415,0.574l0.482-0.279L13.671,9.31
				L12.378,10.058z M16.164,14.891l1.538,0.889l0.604-1.045l-1.779-1.027l0.827-0.477l1.366,0.789l0.602-1.044l-0.763-0.441
				l1.631-0.941l-0.602-1.045l-1.631,0.941v-0.88h-1.205v1.576l-0.827,0.478v-2.054H14.72v0.707c0.896,0.86,1.46,2.042,1.46,3.324
				C16.18,14.725,16.168,14.807,16.164,14.891z M6.659,12.663l-0.827-0.478v-1.576H4.626v0.88l-1.63-0.941l-0.602,1.045l1.628,0.941
				L3.26,12.976l0.604,1.044l1.364-0.789l0.827,0.477l-1.776,1.027l0.602,1.045l1.541-0.89c-0.005-0.083-0.017-0.165-0.017-0.249
				c0-1.282,0.564-2.464,1.46-3.324v-0.707H6.659V12.663z M13.142,8.39H9.44L9.323,8.593l1.366,0.789v0.604
				c0.199-0.025,0.396-0.061,0.602-0.061c0.206,0,0.403,0.035,0.604,0.061V9.382l1.364-0.789L13.142,8.39z M8.309,10.353
				l0.482,0.278c0.436-0.258,0.908-0.457,1.414-0.573L8.91,9.31L8.309,10.353z M7.263,17.665L4.88,16.29l-0.602,1.043l1.776,1.028
				l-0.827,0.478l-1.364-0.787L3.26,19.095l0.763,0.439l-1.628,0.942l0.602,1.044l1.63-0.942v0.88h1.206v-1.575l0.827-0.478v2.053
				h1.205v-2.661c-0.162-0.513-0.333-0.911-0.479-1.203L7.263,17.665z M6.524,15.648H6.321l-0.67,0.387l0.67,0.381h0.439
				C6.655,16.161,6.583,15.905,6.524,15.648z M19.321,19.095l-0.602-1.043l-1.366,0.787l-0.827-0.478l1.779-1.028l-0.604-1.043
				l-2.381,1.375l-0.124-0.071c-0.146,0.29-0.315,0.688-0.478,1.199v2.665h1.205v-2.053l0.827,0.478v1.575h1.205v-0.88l1.631,0.942
				l0.602-1.044l-1.631-0.942L19.321,19.095z"/>
		</g>
	</g>
</g>
</svg>
