<?xml version="1.0" encoding="utf-8"?>
<!-- Generator: Adobe Illustrator 16.0.3, SVG Export Plug-In . SVG Version: 6.00 Build 0)  -->
<!DOCTYPE svg PUBLIC "-//W3C//DTD SVG 1.1//EN" "http://www.w3.org/Graphics/SVG/1.1/DTD/svg11.dtd">
<svg version="1.1" xmlns="http://www.w3.org/2000/svg" xmlns:xlink="http://www.w3.org/1999/xlink" x="0px" y="0px" width="22.68px"
	 height="22.68px" viewBox="0 0 22.68 22.68" enable-background="new 0 0 22.68 22.68" xml:space="preserve">
<g id="BCGRND">
</g>
<g id="IKONY">
	<polygon fill="#585857" points="22.678,16.333 22.678,0.005 0,0.005 0,22.672 14.117,22.672 22.678,22.672 	"/>
	<g>
		<g>
			<g opacity="0.25">
				<path fill="#FFFFFF" d="M7.839,12.41l-5.374,3.237l4.239,7.041h4.556c1.571,0,4.143,0,5.715,0h2.846
					c0.005,0,0.011-0.001,0.017-0.002L13.647,12.41H7.839z"/>
			</g>
		</g>
		<g opacity="0.35">
			<g>
				
					<rect x="7.075" y="12.929" transform="matrix(0.5154 0.857 -0.857 0.5154 16.6586 1.136)" fill="#FFFFFF" width="0.5" height="4.736"/>
			</g>
			<g>
				
					<rect x="8.911" y="12.062" transform="matrix(0.5154 0.857 -0.857 0.5154 17.948 -0.2118)" fill="#FFFFFF" width="0.5" height="7.402"/>
			</g>
			<g>
				
					<rect x="9.606" y="13.215" transform="matrix(0.515 0.8572 -0.8572 0.515 19.2809 -0.2444)" fill="#FFFFFF" width="0.5" height="7.402"/>
			</g>
			<g>
				<polygon fill="#FFFFFF" points="14.464,22.686 13.493,22.686 16.545,20.848 16.802,21.277 				"/>
			</g>
			<g>
				<g>
					
						<rect x="11.014" y="14.772" transform="matrix(0.5157 0.8568 -0.8568 0.5157 20.5694 -1.1076)" fill="#FFFFFF" width="0.5" height="5.739"/>
				</g>
				<g>
					
						<rect x="7.333" y="19.246" transform="matrix(0.8566 -0.516 0.516 0.8566 -9.0563 6.8577)" fill="#FFFFFF" width="0.952" height="0.951"/>
				</g>
			</g>
			<g>
				<g>
					
						<rect x="11.709" y="15.926" transform="matrix(0.5157 0.8568 -0.8568 0.5157 21.8943 -1.1443)" fill="#FFFFFF" width="0.5" height="5.738"/>
				</g>
				<g>
					
						<rect x="8.028" y="20.4" transform="matrix(0.8567 -0.5157 0.5157 0.8567 -9.548 7.3764)" fill="#FFFFFF" width="0.951" height="0.951"/>
				</g>
			</g>
			<g>
				<g>
					<polygon fill="#FFFFFF" points="10.095,22.686 10.261,22.302 11.185,22.681 12.071,20.278 13.187,20.722 13.552,19.699 
						15.242,20.232 15.527,19.159 15.886,19.755 15.592,20.867 13.86,20.321 13.484,21.378 12.362,20.932 11.715,22.688 					"/>
				</g>
			</g>
		</g>
		<g>
			<g>
				<path fill="#FFFFFF" d="M22.677,19.202c0-0.744,0-1.713,0-2.693c-2.042,0.36-3.688,0.64-3.688,0.64
					c-3.005-2.424-3.98-2.63-3.98-2.63l-1.019-0.15c0,0-0.8-0.074-1.48-0.162c-0.682-0.088-1.379-0.03-1.807,0.465
					c1.281,0.122,1.642,0.098,3.188,0.362c0.129,0.014,0.201,0.135,0.182,0.254c-0.021,0.121-0.135,0.201-0.255,0.181
					c-1.872-0.321-2.375-0.292-3.524-0.392c-0.363,0.228-0.478,0.455-0.57,0.57c1.438,0.136,1.771,0.115,3.482,0.412
					c0.129,0.021,0.201,0.135,0.179,0.255c-0.02,0.119-0.135,0.201-0.254,0.178c-1.811-0.313-5.195-0.601-6.358-0.704
					c-0.575,0.137-1.058,0.98,3.663,1.533c3.807,0.447,4.886,1.856,4.886,1.856c-0.369,0.122-0.592,0.508-3.106-0.066
					c-1.686-0.383-1.827,0.252-1.827,0.252c0.472,0.778,3.543,1.713,5.193,1.729c0.522,0.005,2.949-0.417,4.936-0.573
					c0.688-0.054,1.392-0.078,2.095-0.095c0.041-0.192,0.065-0.391,0.065-0.596V19.202z"/>
			</g>
		</g>
		<g>
			<g>
				<path fill="#FFFFFF" d="M18.792,20.952l1.045,1.733c0.188-0.001,0.372-0.02,0.551-0.056l-1.049-1.741
					C19.155,20.91,18.973,20.93,18.792,20.952z"/>
			</g>
			<g>
				<path fill="#FFFFFF" d="M14.741,14.226l0.304,0.044c0.019,0.004,0.15,0.04,0.399,0.154l-1.213-2.014h-0.584L14.741,14.226z"/>
			</g>
			<g>
				<path fill="#FFFFFF" d="M2.465,15.647l5.374-3.237H6.87l-4.178,2.516c-0.503,0.303-0.667,0.959-0.365,1.464l3.792,6.297h0.584
					L2.465,15.647z"/>
			</g>
			<g>
				<path fill="#FFFFFF" d="M19.837,22.686l-1.045-1.733c-0.203,0.025-0.402,0.051-0.599,0.077l0.989,1.659h0.638
					C19.825,22.688,19.831,22.686,19.837,22.686z"/>
			</g>
			<g>
				<polygon fill="#FFFFFF" points="13.052,12.41 14.077,14.128 14.741,14.226 13.647,12.41 				"/>
			</g>
			<g>
				<polygon fill="#FFFFFF" points="2.465,15.647 6.704,22.688 7.346,22.688 3.208,15.783 8.891,12.41 7.839,12.41 				"/>
			</g>
		</g>
	</g>
	<rect y="11.956" fill="#FFFFFF" width="22.678" height="0.888"/>
	<path fill="#FFFFFF" d="M5.143,4.635c0.195,0.112,0.488,0.21,0.797,0.21c0.385,0,0.6-0.181,0.6-0.449
		c0-0.249-0.166-0.395-0.586-0.546C5.412,3.654,5.064,3.366,5.064,2.893c0-0.537,0.449-0.947,1.162-0.947
		c0.357,0,0.621,0.078,0.791,0.166L6.871,2.595C6.754,2.532,6.525,2.439,6.217,2.439c-0.381,0-0.547,0.205-0.547,0.396
		c0,0.253,0.191,0.371,0.631,0.542c0.57,0.215,0.85,0.503,0.85,0.976c0,0.527-0.4,0.986-1.25,0.986
		c-0.348,0-0.709-0.098-0.889-0.205L5.143,4.635z"/>
	<path fill="#FFFFFF" d="M7.769,3.62c0-0.273-0.005-0.503-0.02-0.708h0.518l0.024,0.351h0.015c0.117-0.186,0.332-0.405,0.732-0.405
		c0.313,0,0.557,0.175,0.659,0.439h0.01C9.79,3.166,9.888,3.068,10,3c0.132-0.093,0.283-0.142,0.479-0.142
		c0.396,0,0.796,0.268,0.796,1.03v1.4h-0.586V3.977c0-0.396-0.137-0.63-0.425-0.63c-0.205,0-0.356,0.146-0.42,0.317
		c-0.015,0.059-0.029,0.132-0.029,0.2v1.425H9.229V3.913c0-0.332-0.132-0.566-0.41-0.566c-0.225,0-0.376,0.176-0.43,0.342
		C8.364,3.747,8.354,3.815,8.354,3.884v1.405H7.769V3.62z"/>
	<path fill="#FFFFFF" d="M13.35,5.289l-0.039-0.264h-0.014C13.15,5.211,12.9,5.343,12.594,5.343c-0.479,0-0.748-0.347-0.748-0.708
		c0-0.601,0.533-0.903,1.412-0.898V3.698c0-0.156-0.064-0.415-0.484-0.415c-0.234,0-0.479,0.073-0.639,0.176l-0.117-0.391
		c0.176-0.107,0.482-0.209,0.859-0.209c0.762,0,0.98,0.483,0.98,1v0.859c0,0.215,0.01,0.424,0.035,0.571H13.35z M13.271,4.127
		c-0.424-0.01-0.83,0.083-0.83,0.444c0,0.234,0.152,0.342,0.342,0.342c0.24,0,0.416-0.156,0.469-0.327
		c0.016-0.044,0.02-0.093,0.02-0.132V4.127z"/>
	<path fill="#FFFFFF" d="M14.594,3.679c0-0.322-0.006-0.552-0.02-0.766h0.521l0.02,0.454h0.02c0.117-0.337,0.396-0.507,0.65-0.507
		c0.059,0,0.092,0.005,0.141,0.015v0.566c-0.049-0.01-0.102-0.02-0.176-0.02c-0.287,0-0.482,0.186-0.537,0.454
		c-0.01,0.054-0.02,0.117-0.02,0.185v1.23h-0.6V3.679z"/>
	<path fill="#FFFFFF" d="M17.232,2.234v0.679h0.571v0.449h-0.571v1.049c0,0.288,0.078,0.439,0.308,0.439
		c0.103,0,0.181-0.015,0.234-0.029l0.01,0.458c-0.088,0.034-0.244,0.059-0.435,0.059c-0.22,0-0.405-0.073-0.518-0.195
		c-0.127-0.137-0.186-0.351-0.186-0.664V3.361h-0.342V2.913h0.342V2.375L17.232,2.234z"/>
	<path fill="#FFFFFF" d="M5.795,7H4.857V6.498h2.485V7H6.396v2.787H5.795V7z"/>
	<path fill="#FFFFFF" d="M9.689,8.577c0,0.874-0.615,1.264-1.221,1.264c-0.674,0-1.191-0.464-1.191-1.225
		c0-0.781,0.513-1.259,1.23-1.259C9.216,7.357,9.689,7.855,9.689,8.577z M7.897,8.602c0,0.458,0.225,0.805,0.591,0.805
		c0.342,0,0.581-0.337,0.581-0.815c0-0.371-0.166-0.795-0.576-0.795C8.068,7.796,7.897,8.206,7.897,8.602z"/>
	<path fill="#FFFFFF" d="M12.412,9.075c0,0.283,0.01,0.518,0.02,0.713h-0.527l-0.029-0.361h-0.01
		c-0.102,0.171-0.336,0.415-0.762,0.415c-0.434,0-0.83-0.259-0.83-1.035V7.411h0.602v1.293c0,0.395,0.127,0.649,0.443,0.649
		c0.24,0,0.396-0.171,0.459-0.322c0.02-0.054,0.035-0.117,0.035-0.185V7.411h0.6V9.075z"/>
	<path fill="#FFFFFF" d="M14.912,9.714c-0.127,0.059-0.377,0.122-0.674,0.122c-0.742,0-1.227-0.474-1.227-1.21
		c0-0.712,0.488-1.269,1.324-1.269c0.219,0,0.443,0.049,0.58,0.112l-0.107,0.449c-0.098-0.043-0.238-0.092-0.453-0.092
		c-0.459,0-0.732,0.336-0.729,0.771c0,0.488,0.318,0.766,0.729,0.766c0.209,0,0.355-0.044,0.473-0.093L14.912,9.714z"/>
	<path fill="#FFFFFF" d="M15.456,6.322h0.605v1.416h0.01c0.073-0.112,0.171-0.205,0.298-0.273c0.117-0.068,0.259-0.107,0.41-0.107
		c0.405,0,0.83,0.269,0.83,1.03v1.401h-0.601V8.455c0-0.347-0.127-0.605-0.459-0.605c-0.234,0-0.4,0.156-0.464,0.336
		c-0.02,0.049-0.024,0.112-0.024,0.181v1.42h-0.605V6.322z"/>
</g>
</svg>
