<?xml version="1.0" encoding="utf-8"?>
<!-- Generator: Adobe Illustrator 16.0.3, SVG Export Plug-In . SVG Version: 6.00 Build 0)  -->
<!DOCTYPE svg PUBLIC "-//W3C//DTD SVG 1.1//EN" "http://www.w3.org/Graphics/SVG/1.1/DTD/svg11.dtd">
<svg version="1.1" xmlns="http://www.w3.org/2000/svg" xmlns:xlink="http://www.w3.org/1999/xlink" x="0px" y="0px" width="22.68px"
	 height="22.68px" viewBox="0 0 22.68 22.68" enable-background="new 0 0 22.68 22.68" xml:space="preserve">
<g id="BCGRND">
</g>
<g id="IKONY">
	<g>
		<defs>
			<polygon id="SVGID_3_" points="22.678,16.334 22.678,0 0,0 0,22.678 14.117,22.678 22.678,22.678 			"/>
		</defs>
		<use xlink:href="#SVGID_3_"  overflow="visible" fill="#585857"/>
		<clipPath id="SVGID_2_">
			<use xlink:href="#SVGID_3_"  overflow="visible"/>
		</clipPath>
		<g clip-path="url(#SVGID_2_)">
			<rect y="7.77" fill="#FFFFFF" width="22.678" height="0.889"/>
			<g>
				<g>
					<path fill="#FFFFFF" d="M1.45,4.917c0.195,0.112,0.488,0.21,0.795,0.21c0.387,0,0.602-0.181,0.602-0.449
						c0-0.249-0.166-0.396-0.586-0.547C1.718,3.935,1.372,3.647,1.372,3.173c0-0.537,0.449-0.947,1.162-0.947
						c0.355,0,0.619,0.078,0.791,0.166L3.179,2.875C3.062,2.812,2.831,2.719,2.524,2.719c-0.381,0-0.547,0.205-0.547,0.396
						c0,0.254,0.189,0.371,0.629,0.542c0.572,0.215,0.85,0.503,0.85,0.977c0,0.527-0.4,0.986-1.25,0.986
						c-0.346,0-0.707-0.098-0.889-0.205L1.45,4.917z"/>
					<path fill="#FFFFFF" d="M6.169,4.36c0,0.874-0.615,1.265-1.221,1.265c-0.674,0-1.191-0.464-1.191-1.226
						c0-0.781,0.514-1.26,1.23-1.26C5.696,3.139,6.169,3.637,6.169,4.36z M4.378,4.384c0,0.459,0.225,0.806,0.59,0.806
						c0.342,0,0.582-0.337,0.582-0.815c0-0.371-0.166-0.796-0.576-0.796C4.548,3.579,4.378,3.989,4.378,4.384z"/>
					<path fill="#FFFFFF" d="M6.568,3.959c0-0.322-0.005-0.552-0.02-0.767h0.522l0.02,0.454h0.02C7.228,3.31,7.506,3.139,7.76,3.139
						c0.059,0,0.093,0.005,0.142,0.015V3.72c-0.049-0.01-0.103-0.02-0.176-0.02c-0.288,0-0.483,0.186-0.537,0.454
						c-0.01,0.054-0.02,0.117-0.02,0.186v1.23H6.568V3.959z"/>
					<path fill="#FFFFFF" d="M9.012,2.514v0.679h0.571v0.449H9.012v1.05c0,0.288,0.078,0.439,0.308,0.439
						c0.103,0,0.181-0.015,0.234-0.029l0.01,0.459C9.476,5.595,9.319,5.62,9.129,5.62c-0.22,0-0.405-0.073-0.518-0.195
						C8.484,5.288,8.426,5.073,8.426,4.76V3.642H8.084V3.193h0.342V2.656L9.012,2.514z"/>
					<path fill="#FFFFFF" d="M10.581,2.529c0,0.181-0.131,0.322-0.342,0.322c-0.199,0-0.332-0.142-0.332-0.322
						c0-0.186,0.137-0.327,0.338-0.327C10.45,2.202,10.577,2.343,10.581,2.529z M9.942,5.571V3.193h0.605v2.378H9.942z"/>
					<path fill="#FFFFFF" d="M11.096,3.901c0-0.273-0.005-0.503-0.02-0.708h0.518l0.024,0.352h0.015
						c0.117-0.186,0.332-0.405,0.732-0.405c0.313,0,0.557,0.176,0.659,0.439h0.01c0.083-0.132,0.181-0.229,0.293-0.298
						c0.132-0.093,0.283-0.142,0.479-0.142c0.396,0,0.796,0.269,0.796,1.03v1.401h-0.586V4.257c0-0.396-0.137-0.63-0.425-0.63
						c-0.205,0-0.356,0.146-0.42,0.317c-0.015,0.059-0.029,0.132-0.029,0.2v1.426h-0.586V4.194c0-0.332-0.132-0.566-0.41-0.566
						c-0.225,0-0.376,0.176-0.43,0.342c-0.024,0.059-0.034,0.127-0.034,0.195v1.406h-0.586V3.901z"/>
					<path fill="#FFFFFF" d="M15.568,4.55c0.015,0.43,0.352,0.615,0.732,0.615c0.278,0,0.479-0.039,0.659-0.107l0.088,0.415
						c-0.205,0.083-0.488,0.146-0.83,0.146c-0.771,0-1.226-0.474-1.226-1.201c0-0.659,0.4-1.279,1.162-1.279
						c0.771,0,1.025,0.635,1.025,1.157c0,0.112-0.01,0.2-0.02,0.254H15.568z M16.613,4.13c0.005-0.22-0.093-0.581-0.493-0.581
						c-0.371,0-0.527,0.337-0.552,0.581H16.613z"/>
					<path fill="#FFFFFF" d="M17.568,3.901c0-0.273-0.005-0.503-0.02-0.708h0.527l0.029,0.356h0.015
						c0.103-0.186,0.361-0.41,0.757-0.41c0.415,0,0.845,0.269,0.845,1.021v1.411h-0.601V4.228c0-0.342-0.127-0.601-0.454-0.601
						c-0.239,0-0.405,0.171-0.469,0.352c-0.02,0.054-0.024,0.127-0.024,0.195v1.396h-0.605V3.901z"/>
					<path fill="#FFFFFF" d="M20.931,2.514v0.679h0.572v0.449h-0.572v1.05c0,0.288,0.078,0.439,0.309,0.439
						c0.102,0,0.18-0.015,0.234-0.029l0.01,0.459c-0.088,0.034-0.244,0.059-0.436,0.059c-0.219,0-0.404-0.073-0.518-0.195
						c-0.127-0.137-0.186-0.352-0.186-0.664V3.642h-0.342V3.193h0.342V2.656L20.931,2.514z"/>
				</g>
			</g>
			<g>
				<g>
					<g>
						<path fill="#FFFFFF" d="M-1.238,14.791v3.484h3.66v-3.484H-1.238z M1.729,16.033l-1.354,1.354
							c-0.047,0.047-0.111,0.074-0.178,0.074s-0.129-0.027-0.176-0.074l-0.566-0.566c-0.098-0.098-0.098-0.256,0-0.354
							s0.256-0.098,0.354,0l0.389,0.391l1.178-1.178c0.098-0.098,0.256-0.098,0.354,0S1.826,15.936,1.729,16.033z"/>
					</g>
					<path opacity="0.5" fill="#FFFFFF" d="M5.465,10.386h-9.746v3.563h0.65v6.41h8.445v-6.41h0.65V10.386z M-3.281,11.386h7.746
						v1.563h-7.746V11.386z M3.814,19.359h-6.445v-5.41h6.445V19.359z"/>
				</g>
				<g>
					<g>
						<path fill="#FFFFFF" d="M9.508,14.791v3.484h3.662v-3.484H9.508z M12.475,16.033l-1.354,1.354
							c-0.047,0.047-0.109,0.074-0.176,0.074s-0.131-0.027-0.178-0.074l-0.566-0.566c-0.098-0.098-0.098-0.256,0-0.354
							s0.256-0.098,0.354,0l0.391,0.391l1.176-1.178c0.098-0.098,0.256-0.098,0.354,0S12.572,15.936,12.475,16.033z"/>
					</g>
					<path opacity="0.5" fill="#FFFFFF" d="M16.213,10.386H6.465v3.563h0.65v6.41h8.447v-6.41h0.65V10.386z M7.465,11.386h7.748
						v1.563H7.465V11.386z M14.563,19.359H8.115v-5.41h6.447V19.359z"/>
				</g>
				<g>
					<g>
						<path fill="#FFFFFF" d="M20.256,14.791v3.484h3.66v-3.484H20.256z M23.223,16.033l-1.354,1.354
							c-0.047,0.047-0.111,0.074-0.178,0.074s-0.129-0.027-0.176-0.074l-0.566-0.566c-0.098-0.098-0.098-0.256,0-0.354
							s0.256-0.098,0.354,0l0.389,0.391l1.178-1.178c0.098-0.098,0.256-0.098,0.354,0S23.32,15.936,23.223,16.033z"/>
					</g>
					<path opacity="0.5" fill="#FFFFFF" d="M26.959,10.386h-9.746v3.563h0.65v6.41h8.445v-6.41h0.65V10.386z M18.213,11.386h7.746
						v1.563h-7.746V11.386z M25.309,19.359h-6.445v-5.41h6.445V19.359z"/>
				</g>
			</g>
		</g>
	</g>
</g>
</svg>
