<?xml version="1.0" encoding="utf-8"?>
<!-- Generator: Adobe Illustrator 16.0.3, SVG Export Plug-In . SVG Version: 6.00 Build 0)  -->
<!DOCTYPE svg PUBLIC "-//W3C//DTD SVG 1.1//EN" "http://www.w3.org/Graphics/SVG/1.1/DTD/svg11.dtd">
<svg version="1.1" xmlns="http://www.w3.org/2000/svg" xmlns:xlink="http://www.w3.org/1999/xlink" x="0px" y="0px" width="22.68px"
	 height="22.68px" viewBox="0 0 22.68 22.68" enable-background="new 0 0 22.68 22.68" xml:space="preserve">
<g id="BCGRND">
</g>
<g id="IKONY">
	<rect x="0" fill="#585857" width="22.676" height="22.678"/>
	<g>
		<g>
			<rect x="0.001" y="11.956" fill="#FFFFFF" width="22.678" height="0.889"/>
		</g>
		<g>
			<path fill="#FFFFFF" d="M1.826,4.633c0.19,0.112,0.488,0.21,0.796,0.21c0.381,0,0.596-0.181,0.596-0.449
				c0-0.249-0.166-0.396-0.581-0.547C2.09,3.651,1.743,3.363,1.743,2.89c0-0.542,0.449-0.947,1.167-0.947
				c0.356,0,0.615,0.078,0.786,0.166L3.555,2.592C3.433,2.528,3.203,2.436,2.896,2.436c-0.381,0-0.542,0.2-0.542,0.396
				c0,0.254,0.19,0.371,0.63,0.542C3.555,3.588,3.828,3.876,3.828,4.35c0,0.532-0.4,0.991-1.245,0.991
				c-0.352,0-0.713-0.098-0.894-0.21L1.826,4.633z"/>
			<path fill="#FFFFFF" d="M4.398,3.7c0-0.313-0.01-0.566-0.02-0.791h0.527l0.029,0.366h0.01c0.176-0.269,0.454-0.42,0.815-0.42
				c0.547,0,1.001,0.469,1.001,1.211c0,0.859-0.542,1.274-1.084,1.274c-0.298,0-0.547-0.127-0.669-0.317h-0.01v1.23H4.398V3.7z
				 M4.999,4.291c0,0.059,0.005,0.112,0.015,0.166c0.063,0.244,0.273,0.42,0.532,0.42c0.381,0,0.605-0.317,0.605-0.786
				c0-0.42-0.205-0.762-0.591-0.762c-0.249,0-0.479,0.181-0.542,0.444c-0.01,0.049-0.02,0.103-0.02,0.151V4.291z"/>
			<path fill="#FFFFFF" d="M9.568,4.076c0,0.874-0.615,1.265-1.221,1.265c-0.669,0-1.191-0.459-1.191-1.226
				c0-0.781,0.513-1.26,1.23-1.26C9.094,2.855,9.568,3.354,9.568,4.076z M7.776,4.101c0,0.459,0.229,0.806,0.591,0.806
				c0.342,0,0.581-0.332,0.581-0.815c0-0.371-0.166-0.801-0.576-0.801C7.947,3.29,7.776,3.705,7.776,4.101z"/>
			<path fill="#FFFFFF" d="M10.802,2.299v0.61h0.571v0.449h-0.571v1.05c0,0.293,0.078,0.439,0.308,0.439
				c0.107,0,0.166-0.005,0.234-0.024l0.01,0.454c-0.088,0.034-0.249,0.063-0.435,0.063c-0.225,0-0.405-0.073-0.518-0.195
				c-0.132-0.137-0.19-0.356-0.19-0.669V3.358H9.874V2.909h0.337V2.465L10.802,2.299z"/>
			<path fill="#FFFFFF" d="M12.288,2.602L11.81,1.879h0.415l0.259,0.444h0.01l0.273-0.444h0.41l-0.479,0.723H12.288z M11.878,3.676
				c0-0.322-0.005-0.557-0.02-0.767h0.518l0.024,0.449h0.015c0.117-0.332,0.396-0.503,0.654-0.503c0.059,0,0.093,0.005,0.142,0.015
				v0.562c-0.054-0.01-0.107-0.015-0.181-0.015c-0.283,0-0.483,0.181-0.537,0.454c-0.01,0.054-0.015,0.117-0.015,0.181v1.235h-0.601
				V3.676z"/>
			<path fill="#FFFFFF" d="M14.048,4.267c0.015,0.43,0.347,0.615,0.732,0.615c0.278,0,0.474-0.044,0.659-0.107l0.088,0.41
				c-0.205,0.088-0.488,0.151-0.83,0.151c-0.771,0-1.226-0.474-1.226-1.201c0-0.659,0.4-1.279,1.162-1.279
				c0.771,0,1.025,0.635,1.025,1.157c0,0.112-0.01,0.2-0.02,0.254H14.048z M15.093,3.847C15.098,3.627,15,3.266,14.6,3.266
				c-0.371,0-0.527,0.337-0.552,0.581H15.093z"/>
			<path fill="#FFFFFF" d="M16.195,1.82h0.601v1.416h0.01c0.146-0.229,0.405-0.381,0.762-0.381c0.581,0,0.996,0.483,0.991,1.206
				c0,0.854-0.542,1.279-1.079,1.279c-0.308,0-0.581-0.117-0.752-0.41h-0.01l-0.029,0.356h-0.513c0.01-0.161,0.02-0.425,0.02-0.669
				V1.82z M16.796,4.306c0,0.049,0.005,0.098,0.015,0.142c0.063,0.244,0.273,0.42,0.532,0.42c0.376,0,0.605-0.298,0.605-0.781
				c0-0.42-0.2-0.762-0.601-0.762c-0.244,0-0.469,0.176-0.532,0.439c-0.01,0.044-0.02,0.098-0.02,0.156V4.306z"/>
			<path fill="#FFFFFF" d="M20.949,4.716c0,0.215,0.01,0.425,0.039,0.571h-0.542l-0.044-0.264h-0.015
				c-0.142,0.186-0.391,0.317-0.703,0.317c-0.479,0-0.747-0.347-0.747-0.708c0-0.596,0.532-0.903,1.411-0.898V3.695
				c0-0.156-0.063-0.415-0.483-0.415c-0.234,0-0.479,0.073-0.64,0.176l-0.117-0.391c0.176-0.107,0.483-0.21,0.859-0.21
				c0.762,0,0.981,0.483,0.981,1.006V4.716z M20.364,4.125c-0.425-0.005-0.83,0.083-0.83,0.444c0,0.234,0.151,0.342,0.342,0.342
				c0.244,0,0.415-0.156,0.474-0.327c0.015-0.044,0.015-0.088,0.015-0.132V4.125z"/>
			<path fill="#FFFFFF" d="M6.776,7.409l0.386,1.206c0.068,0.21,0.117,0.4,0.161,0.596h0.015C7.381,9.016,7.435,8.83,7.498,8.615
				l0.381-1.206h0.63L7.601,9.787H7.01L6.126,7.409H6.776z"/>
			<path fill="#FFFFFF" d="M11.125,8.576c0,0.874-0.615,1.265-1.221,1.265c-0.669,0-1.191-0.459-1.191-1.226
				c0-0.781,0.513-1.26,1.23-1.26C10.651,7.355,11.125,7.854,11.125,8.576z M9.333,8.601c0,0.459,0.229,0.806,0.591,0.806
				c0.342,0,0.581-0.332,0.581-0.815c0-0.371-0.166-0.801-0.576-0.801C9.504,7.79,9.333,8.205,9.333,8.601z"/>
			<path fill="#FFFFFF" d="M13.863,6.32v2.798c0,0.244,0.01,0.508,0.02,0.669H13.35l-0.029-0.376h-0.01
				c-0.142,0.264-0.43,0.43-0.771,0.43c-0.571,0-1.021-0.483-1.021-1.216c-0.005-0.796,0.493-1.27,1.064-1.27
				c0.327,0,0.562,0.132,0.669,0.308h0.01V6.32H13.863z M13.262,8.4c0-0.049-0.005-0.112-0.015-0.161
				c-0.054-0.229-0.244-0.42-0.518-0.42c-0.386,0-0.601,0.342-0.601,0.781s0.215,0.757,0.596,0.757c0.244,0,0.459-0.166,0.518-0.425
				c0.015-0.054,0.02-0.112,0.02-0.176V8.4z"/>
			<path fill="#FFFFFF" d="M14.94,7.409l0.425,1.274c0.049,0.146,0.103,0.327,0.137,0.459h0.015
				c0.034-0.132,0.078-0.313,0.127-0.464l0.371-1.27h0.64L16.058,9.03c-0.327,0.889-0.547,1.284-0.825,1.528
				c-0.239,0.205-0.483,0.283-0.63,0.303l-0.137-0.503c0.103-0.024,0.225-0.078,0.347-0.166c0.117-0.073,0.249-0.215,0.332-0.376
				c0.024-0.044,0.034-0.078,0.034-0.107c0-0.024-0.005-0.059-0.029-0.117l-0.874-2.183H14.94z"/>
		</g>
		<g>
			<path fill="#FFFFFF" d="M7.153,16.002H7.136l-1.011,0.51l-0.179-0.79l1.352-0.663h0.867v5.524H7.153V16.002z"/>
			<path fill="#FFFFFF" d="M11.001,16.002h-0.017l-1.011,0.51l-0.179-0.79l1.352-0.663h0.867v5.524h-1.011V16.002z"/>
			<path fill="#FFFFFF" d="M15.871,14.549h1.045v6.034h-1.045V14.549z"/>
		</g>
	</g>
</g>
</svg>
