<?xml version="1.0" encoding="utf-8"?>
<!-- Generator: Adobe Illustrator 16.0.3, SVG Export Plug-In . SVG Version: 6.00 Build 0)  -->
<!DOCTYPE svg PUBLIC "-//W3C//DTD SVG 1.1//EN" "http://www.w3.org/Graphics/SVG/1.1/DTD/svg11.dtd">
<svg version="1.1" xmlns="http://www.w3.org/2000/svg" xmlns:xlink="http://www.w3.org/1999/xlink" x="0px" y="0px" width="22.68px"
	 height="22.68px" viewBox="0 0 22.68 22.68" enable-background="new 0 0 22.68 22.68" xml:space="preserve">
<g id="BCGRND">
</g>
<g id="IKONY">
	<rect x="0" fill="#585857" width="22.676" height="22.678"/>
	<g>
		<g>
			<rect x="0.001" y="11.956" fill="#FFFFFF" width="22.677" height="0.889"/>
		</g>
		<g>
			<path fill="#FFFFFF" d="M1.825,4.633c0.19,0.112,0.488,0.21,0.796,0.21c0.381,0,0.596-0.181,0.596-0.449
				c0-0.249-0.166-0.396-0.581-0.547C2.089,3.651,1.742,3.363,1.742,2.89c0-0.542,0.449-0.947,1.167-0.947
				c0.356,0,0.615,0.078,0.786,0.166L3.554,2.592C3.432,2.528,3.202,2.436,2.895,2.436c-0.381,0-0.542,0.2-0.542,0.396
				c0,0.254,0.19,0.371,0.63,0.542C3.554,3.588,3.827,3.876,3.827,4.35c0,0.532-0.4,0.991-1.245,0.991
				c-0.352,0-0.713-0.098-0.894-0.21L1.825,4.633z"/>
			<path fill="#FFFFFF" d="M4.397,3.7c0-0.313-0.01-0.566-0.02-0.791h0.527l0.029,0.366h0.01c0.176-0.269,0.455-0.42,0.816-0.42
				c0.547,0,1,0.469,1,1.211c0,0.859-0.541,1.274-1.084,1.274c-0.297,0-0.547-0.127-0.668-0.317h-0.01v1.23H4.397V3.7z M4.998,4.291
				c0,0.059,0.004,0.112,0.014,0.166c0.064,0.244,0.273,0.42,0.533,0.42c0.381,0,0.605-0.317,0.605-0.786
				c0-0.42-0.205-0.762-0.592-0.762c-0.248,0-0.479,0.181-0.541,0.444c-0.01,0.049-0.02,0.103-0.02,0.151V4.291z"/>
			<path fill="#FFFFFF" d="M9.567,4.076c0,0.874-0.615,1.265-1.221,1.265c-0.669,0-1.191-0.459-1.191-1.226
				c0-0.781,0.513-1.26,1.23-1.26C9.093,2.855,9.567,3.354,9.567,4.076z M7.775,4.101c0,0.459,0.229,0.806,0.591,0.806
				c0.342,0,0.581-0.332,0.581-0.815c0-0.371-0.166-0.801-0.576-0.801C7.946,3.29,7.775,3.705,7.775,4.101z"/>
			<path fill="#FFFFFF" d="M10.801,2.299v0.61h0.57v0.449h-0.57v1.05c0,0.293,0.078,0.439,0.307,0.439
				c0.107,0,0.166-0.005,0.234-0.024l0.01,0.454c-0.088,0.034-0.248,0.063-0.434,0.063c-0.225,0-0.406-0.073-0.518-0.195
				c-0.133-0.137-0.191-0.356-0.191-0.669V3.358H9.873V2.909h0.336V2.465L10.801,2.299z"/>
			<path fill="#FFFFFF" d="M12.287,2.602l-0.479-0.723h0.415l0.259,0.444h0.01l0.273-0.444h0.41l-0.479,0.723H12.287z M11.877,3.676
				c0-0.322-0.005-0.557-0.02-0.767h0.518L12.4,3.358h0.015c0.117-0.332,0.396-0.503,0.654-0.503c0.059,0,0.093,0.005,0.142,0.015
				v0.562c-0.054-0.01-0.107-0.015-0.181-0.015c-0.283,0-0.483,0.181-0.537,0.454c-0.01,0.054-0.015,0.117-0.015,0.181v1.235h-0.601
				V3.676z"/>
			<path fill="#FFFFFF" d="M14.047,4.267c0.015,0.43,0.347,0.615,0.732,0.615c0.278,0,0.474-0.044,0.659-0.107l0.088,0.41
				c-0.205,0.088-0.488,0.151-0.83,0.151c-0.771,0-1.226-0.474-1.226-1.201c0-0.659,0.4-1.279,1.162-1.279
				c0.771,0,1.025,0.635,1.025,1.157c0,0.112-0.01,0.2-0.02,0.254H14.047z M15.092,3.847c0.005-0.22-0.093-0.581-0.493-0.581
				c-0.371,0-0.527,0.337-0.552,0.581H15.092z"/>
			<path fill="#FFFFFF" d="M16.194,1.82h0.602v1.416h0.01c0.146-0.229,0.404-0.381,0.762-0.381c0.58,0,0.996,0.483,0.99,1.206
				c0,0.854-0.541,1.279-1.078,1.279c-0.309,0-0.582-0.117-0.752-0.41h-0.01l-0.029,0.356h-0.514c0.01-0.161,0.02-0.425,0.02-0.669
				V1.82z M16.795,4.306c0,0.049,0.004,0.098,0.014,0.142c0.064,0.244,0.273,0.42,0.533,0.42c0.375,0,0.605-0.298,0.605-0.781
				c0-0.42-0.201-0.762-0.602-0.762c-0.244,0-0.469,0.176-0.531,0.439c-0.01,0.044-0.02,0.098-0.02,0.156V4.306z"/>
			<path fill="#FFFFFF" d="M20.948,4.716c0,0.215,0.01,0.425,0.039,0.571h-0.542l-0.044-0.264h-0.015
				c-0.142,0.186-0.391,0.317-0.703,0.317c-0.479,0-0.747-0.347-0.747-0.708c0-0.596,0.532-0.903,1.411-0.898V3.695
				c0-0.156-0.063-0.415-0.483-0.415c-0.234,0-0.479,0.073-0.64,0.176l-0.117-0.391c0.176-0.107,0.483-0.21,0.859-0.21
				c0.762,0,0.981,0.483,0.981,1.006V4.716z M20.363,4.125c-0.425-0.005-0.83,0.083-0.83,0.444c0,0.234,0.151,0.342,0.342,0.342
				c0.244,0,0.415-0.156,0.474-0.327c0.015-0.044,0.015-0.088,0.015-0.132V4.125z"/>
			<path fill="#FFFFFF" d="M6.775,7.409L7.16,8.615c0.068,0.21,0.117,0.4,0.161,0.596h0.015C7.38,9.016,7.434,8.83,7.497,8.615
				l0.381-1.206h0.63L7.6,9.787H7.009L6.125,7.409H6.775z"/>
			<path fill="#FFFFFF" d="M11.123,8.576c0,0.874-0.615,1.265-1.221,1.265c-0.668,0-1.191-0.459-1.191-1.226
				c0-0.781,0.514-1.26,1.23-1.26C10.651,7.355,11.123,7.854,11.123,8.576z M9.332,8.601c0,0.459,0.229,0.806,0.59,0.806
				c0.342,0,0.582-0.332,0.582-0.815c0-0.371-0.166-0.801-0.576-0.801C9.502,7.79,9.332,8.205,9.332,8.601z"/>
			<path fill="#FFFFFF" d="M13.862,6.32v2.798c0,0.244,0.01,0.508,0.02,0.669h-0.532L13.32,9.411h-0.01
				c-0.142,0.264-0.43,0.43-0.771,0.43c-0.571,0-1.021-0.483-1.021-1.216c-0.005-0.796,0.493-1.27,1.064-1.27
				c0.327,0,0.562,0.132,0.669,0.308h0.01V6.32H13.862z M13.261,8.4c0-0.049-0.005-0.112-0.015-0.161
				c-0.054-0.229-0.244-0.42-0.518-0.42c-0.386,0-0.601,0.342-0.601,0.781s0.215,0.757,0.596,0.757c0.244,0,0.459-0.166,0.518-0.425
				c0.015-0.054,0.02-0.112,0.02-0.176V8.4z"/>
			<path fill="#FFFFFF" d="M14.94,7.409l0.424,1.274c0.049,0.146,0.104,0.327,0.137,0.459h0.016
				c0.033-0.132,0.078-0.313,0.127-0.464l0.371-1.27h0.639L16.057,9.03c-0.326,0.889-0.547,1.284-0.824,1.528
				c-0.24,0.205-0.484,0.283-0.631,0.303l-0.137-0.503c0.104-0.024,0.225-0.078,0.348-0.166c0.117-0.073,0.248-0.215,0.332-0.376
				c0.023-0.044,0.033-0.078,0.033-0.107c0-0.024-0.004-0.059-0.029-0.117l-0.873-2.183H14.94z"/>
		</g>
		<g>
			<path fill="#FFFFFF" d="M7.001,16.002H6.985l-1.012,0.51l-0.179-0.79l1.352-0.663h0.866v5.524H7.001V16.002z"/>
			<path fill="#FFFFFF" d="M13.03,15.926h-2.125l-0.162,1.104c0.119-0.017,0.229-0.025,0.391-0.025c0.484,0,0.979,0.11,1.344,0.357
				c0.416,0.263,0.723,0.73,0.723,1.402c0,1.054-0.876,1.912-2.228,1.912c-0.646,0-1.181-0.162-1.47-0.323l0.212-0.79
				c0.238,0.127,0.714,0.289,1.216,0.289c0.611,0,1.198-0.349,1.198-1.003c0-0.638-0.468-1.055-1.563-1.055
				c-0.314,0-0.545,0.025-0.757,0.052l0.356-2.788h2.865V15.926z"/>
			<path fill="#FFFFFF" d="M16.022,14.549h1.045v6.034h-1.045V14.549z"/>
		</g>
	</g>
</g>
</svg>
