<?xml version="1.0" encoding="utf-8"?>
<!-- Generator: Adobe Illustrator 16.0.3, SVG Export Plug-In . SVG Version: 6.00 Build 0)  -->
<!DOCTYPE svg PUBLIC "-//W3C//DTD SVG 1.1//EN" "http://www.w3.org/Graphics/SVG/1.1/DTD/svg11.dtd">
<svg version="1.1" xmlns="http://www.w3.org/2000/svg" xmlns:xlink="http://www.w3.org/1999/xlink" x="0px" y="0px" width="22.68px"
	 height="22.68px" viewBox="0 0 22.68 22.68" enable-background="new 0 0 22.68 22.68" xml:space="preserve">
<g id="BCGRND">
</g>
<g id="IKONY">
	<rect x="0" fill="#585857" width="22.676" height="22.678"/>
	<g>
		<g>
			<rect x="0" y="11.956" fill="#FFFFFF" width="22.678" height="0.889"/>
		</g>
		<g>
			<g>
				<path fill="#FFFFFF" d="M1.819,4.632c0.195,0.112,0.488,0.21,0.796,0.21c0.386,0,0.601-0.181,0.601-0.449
					c0-0.249-0.166-0.396-0.586-0.547C2.087,3.651,1.741,3.363,1.741,2.889c0-0.537,0.449-0.947,1.162-0.947
					c0.356,0,0.62,0.078,0.791,0.166L3.547,2.591C3.43,2.528,3.201,2.435,2.893,2.435c-0.381,0-0.547,0.205-0.547,0.396
					c0,0.254,0.19,0.371,0.63,0.542c0.571,0.215,0.85,0.503,0.85,0.977c0,0.527-0.4,0.986-1.25,0.986
					c-0.347,0-0.708-0.098-0.889-0.205L1.819,4.632z"/>
				<path fill="#FFFFFF" d="M4.395,3.7c0-0.313-0.01-0.566-0.02-0.791h0.527l0.029,0.366h0.01c0.176-0.269,0.454-0.42,0.815-0.42
					c0.547,0,1.001,0.469,1.001,1.211c0,0.859-0.542,1.274-1.084,1.274c-0.298,0-0.547-0.127-0.669-0.317h-0.01v1.23H4.395V3.7z
					 M4.996,4.291c0,0.059,0.005,0.112,0.02,0.166c0.059,0.244,0.273,0.42,0.527,0.42c0.381,0,0.605-0.317,0.605-0.786
					c0-0.42-0.205-0.762-0.591-0.762c-0.249,0-0.479,0.181-0.537,0.444C5.006,3.822,4.996,3.875,4.996,3.924V4.291z"/>
				<path fill="#FFFFFF" d="M9.565,4.076c0,0.874-0.615,1.265-1.221,1.265c-0.674,0-1.191-0.464-1.191-1.226
					c0-0.781,0.513-1.26,1.23-1.26C9.091,2.855,9.565,3.353,9.565,4.076z M7.773,4.1c0,0.459,0.225,0.806,0.591,0.806
					c0.342,0,0.581-0.337,0.581-0.815c0-0.371-0.166-0.796-0.576-0.796C7.944,3.294,7.773,3.705,7.773,4.1z"/>
				<path fill="#FFFFFF" d="M10.799,2.23v0.679h0.571v0.449h-0.571v1.05c0,0.288,0.078,0.439,0.308,0.439
					c0.103,0,0.181-0.015,0.234-0.029l0.01,0.459c-0.088,0.034-0.244,0.059-0.435,0.059c-0.22,0-0.405-0.073-0.518-0.195
					c-0.127-0.137-0.186-0.352-0.186-0.664V3.358H9.871V2.909h0.342V2.372L10.799,2.23z"/>
				<path fill="#FFFFFF" d="M12.286,2.601l-0.479-0.723h0.415l0.264,0.444h0.01l0.264-0.444h0.415l-0.474,0.723H12.286z
					 M11.875,3.675c0-0.322-0.005-0.552-0.02-0.767h0.522l0.02,0.454h0.02c0.117-0.337,0.396-0.508,0.649-0.508
					c0.059,0,0.093,0.005,0.142,0.015v0.566c-0.049-0.01-0.103-0.02-0.176-0.02c-0.288,0-0.483,0.186-0.537,0.454
					c-0.01,0.054-0.02,0.117-0.02,0.186v1.23h-0.601V3.675z"/>
				<path fill="#FFFFFF" d="M14.045,4.266c0.015,0.43,0.352,0.615,0.732,0.615c0.278,0,0.479-0.039,0.659-0.107l0.088,0.415
					c-0.205,0.083-0.488,0.146-0.83,0.146c-0.771,0-1.226-0.474-1.226-1.201c0-0.659,0.4-1.279,1.162-1.279
					c0.771,0,1.025,0.635,1.025,1.157c0,0.112-0.01,0.2-0.02,0.254H14.045z M15.09,3.846c0.005-0.22-0.093-0.581-0.493-0.581
					c-0.371,0-0.527,0.337-0.552,0.581H15.09z"/>
				<path fill="#FFFFFF" d="M16.173,5.287c0.01-0.161,0.02-0.425,0.02-0.669V1.82h0.601v1.416h0.01
					c0.146-0.229,0.405-0.381,0.762-0.381c0.581,0,0.996,0.483,0.991,1.206c0,0.854-0.542,1.279-1.079,1.279
					c-0.308,0-0.581-0.117-0.752-0.41h-0.01l-0.029,0.356H16.173z M16.793,4.305c0,0.049,0.005,0.098,0.015,0.142
					c0.063,0.239,0.273,0.42,0.532,0.42c0.376,0,0.605-0.303,0.605-0.781c0-0.42-0.2-0.762-0.601-0.762
					c-0.244,0-0.464,0.176-0.532,0.439c-0.01,0.044-0.02,0.098-0.02,0.156V4.305z"/>
				<path fill="#FFFFFF" d="M20.439,5.287L20.4,5.023h-0.015C20.239,5.208,19.99,5.34,19.682,5.34c-0.479,0-0.747-0.347-0.747-0.708
					c0-0.601,0.532-0.903,1.411-0.898V3.695c0-0.156-0.063-0.415-0.483-0.415c-0.234,0-0.479,0.073-0.64,0.176l-0.117-0.391
					c0.176-0.107,0.483-0.21,0.859-0.21c0.762,0,0.981,0.483,0.981,1.001v0.859c0,0.215,0.01,0.425,0.034,0.571H20.439z
					 M20.361,4.125c-0.425-0.01-0.83,0.083-0.83,0.444c0,0.234,0.151,0.342,0.342,0.342c0.239,0,0.415-0.156,0.469-0.327
					c0.015-0.044,0.02-0.093,0.02-0.132V4.125z"/>
				<path fill="#FFFFFF" d="M6.773,7.409l0.386,1.206c0.068,0.21,0.117,0.4,0.161,0.596h0.015C7.378,9.015,7.432,8.83,7.495,8.615
					l0.376-1.206h0.635L7.598,9.787H7.007L6.123,7.409H6.773z"/>
				<path fill="#FFFFFF" d="M11.122,8.576c0,0.874-0.615,1.265-1.221,1.265c-0.674,0-1.191-0.464-1.191-1.226
					c0-0.781,0.513-1.26,1.23-1.26C10.648,7.355,11.122,7.853,11.122,8.576z M9.33,8.6c0,0.459,0.225,0.806,0.591,0.806
					c0.342,0,0.581-0.337,0.581-0.815c0-0.371-0.166-0.796-0.576-0.796C9.501,7.794,9.33,8.205,9.33,8.6z"/>
				<path fill="#FFFFFF" d="M13.86,6.32v2.798c0,0.244,0.01,0.508,0.02,0.669h-0.537l-0.024-0.376h-0.01
					c-0.142,0.264-0.43,0.43-0.776,0.43c-0.566,0-1.016-0.483-1.016-1.216c-0.005-0.796,0.493-1.27,1.064-1.27
					c0.327,0,0.562,0.137,0.669,0.313h0.01V6.32H13.86z M13.259,8.4c0-0.049-0.005-0.107-0.015-0.156
					C13.191,8.009,13,7.819,12.727,7.819c-0.386,0-0.601,0.342-0.601,0.786c0,0.435,0.215,0.752,0.596,0.752
					c0.244,0,0.459-0.166,0.518-0.425c0.015-0.054,0.02-0.112,0.02-0.176V8.4z"/>
				<path fill="#FFFFFF" d="M14.932,7.409l0.43,1.274c0.049,0.146,0.098,0.327,0.132,0.464h0.015
					c0.039-0.137,0.083-0.313,0.127-0.469l0.371-1.27h0.645L16.056,9.03c-0.327,0.889-0.547,1.284-0.83,1.528
					c-0.234,0.21-0.479,0.288-0.63,0.308l-0.137-0.508c0.103-0.024,0.229-0.078,0.352-0.166c0.112-0.073,0.244-0.215,0.327-0.376
					c0.024-0.044,0.039-0.078,0.039-0.107c0-0.024-0.005-0.059-0.034-0.117l-0.869-2.183H14.932z"/>
			</g>
		</g>
		<g>
			<path fill="#FFFFFF" d="M3.484,16.001H3.467l-1.011,0.51l-0.179-0.79l1.343-0.663h0.875v5.524H3.484V16.001z"/>
			<path fill="#FFFFFF" d="M7.258,16.001H7.241l-1.011,0.51l-0.179-0.79l1.343-0.663h0.875v5.524H7.258V16.001z"/>
			<path fill="#FFFFFF" d="M9.588,21.611c0.229-0.646,0.459-1.538,0.569-2.244l1.097-0.085c-0.238,0.8-0.621,1.717-0.952,2.261
				L9.588,21.611z"/>
			<path fill="#FFFFFF" d="M15.69,15.058v0.672l-2.337,4.853h-1.104l2.329-4.641v-0.017h-2.601v-0.867H15.69z"/>
			<path fill="#FFFFFF" d="M18.402,14.548h1.054v6.034h-1.054V14.548z"/>
		</g>
	</g>
</g>
</svg>
