<?xml version="1.0" encoding="utf-8"?>
<!-- Generator: Adobe Illustrator 16.0.3, SVG Export Plug-In . SVG Version: 6.00 Build 0)  -->
<!DOCTYPE svg PUBLIC "-//W3C//DTD SVG 1.1//EN" "http://www.w3.org/Graphics/SVG/1.1/DTD/svg11.dtd">
<svg version="1.1" xmlns="http://www.w3.org/2000/svg" xmlns:xlink="http://www.w3.org/1999/xlink" x="0px" y="0px" width="22.68px"
	 height="22.68px" viewBox="0 0 22.68 22.68" enable-background="new 0 0 22.68 22.68" xml:space="preserve">
<g id="BCGRND">
</g>
<g id="IKONY">
	<rect x="0" fill="#585857" width="22.676" height="22.678"/>
	<g>
		<rect x="0.001" y="11.463" fill="#FFFFFF" width="22.678" height="0.889"/>
	</g>
	<g>
		<path fill="#FFFFFF" d="M1.824,4.139C2.016,4.252,2.312,4.35,2.621,4.35c0.381,0,0.596-0.182,0.596-0.449
			c0-0.25-0.166-0.396-0.582-0.547C2.088,3.158,1.742,2.869,1.742,2.396c0-0.543,0.449-0.947,1.166-0.947
			c0.357,0,0.615,0.078,0.787,0.166L3.553,2.098C3.432,2.035,3.201,1.941,2.894,1.941c-0.381,0-0.543,0.201-0.543,0.396
			c0,0.254,0.191,0.371,0.631,0.541c0.57,0.215,0.844,0.504,0.844,0.977c0,0.533-0.4,0.992-1.244,0.992
			c-0.352,0-0.713-0.098-0.895-0.211L1.824,4.139z"/>
		<path fill="#FFFFFF" d="M4.396,3.207c0-0.313-0.01-0.566-0.02-0.791h0.527l0.029,0.365h0.01c0.176-0.268,0.454-0.42,0.815-0.42
			c0.547,0,1.001,0.469,1.001,1.211c0,0.859-0.542,1.275-1.084,1.275c-0.298,0-0.547-0.127-0.669-0.318h-0.01v1.23H4.396V3.207z
			 M4.997,3.797c0,0.059,0.005,0.113,0.015,0.166c0.063,0.244,0.273,0.42,0.532,0.42c0.381,0,0.605-0.316,0.605-0.785
			c0-0.42-0.205-0.762-0.591-0.762c-0.249,0-0.479,0.18-0.542,0.443c-0.01,0.049-0.02,0.104-0.02,0.152V3.797z"/>
		<path fill="#FFFFFF" d="M9.566,3.582c0,0.875-0.615,1.266-1.221,1.266c-0.67,0-1.191-0.459-1.191-1.227
			c0-0.781,0.512-1.26,1.23-1.26C9.092,2.361,9.566,2.859,9.566,3.582z M7.773,3.607c0,0.459,0.23,0.805,0.592,0.805
			c0.342,0,0.58-0.332,0.58-0.814c0-0.371-0.166-0.801-0.576-0.801C7.945,2.797,7.773,3.211,7.773,3.607z"/>
		<path fill="#FFFFFF" d="M10.8,1.805v0.611h0.571v0.449H10.8v1.049c0,0.293,0.078,0.439,0.308,0.439
			c0.107,0,0.166-0.004,0.234-0.023l0.01,0.453c-0.088,0.035-0.249,0.064-0.435,0.064c-0.225,0-0.405-0.074-0.518-0.195
			c-0.132-0.137-0.19-0.357-0.19-0.67V2.865H9.872V2.416h0.337V1.971L10.8,1.805z"/>
		<path fill="#FFFFFF" d="M12.287,2.107l-0.479-0.723h0.414l0.26,0.445h0.01l0.273-0.445h0.41l-0.479,0.723H12.287z M11.877,3.182
			c0-0.322-0.006-0.557-0.02-0.766h0.518l0.023,0.449h0.016c0.117-0.332,0.395-0.504,0.654-0.504c0.059,0,0.092,0.006,0.141,0.016
			v0.561c-0.053-0.01-0.107-0.014-0.18-0.014c-0.283,0-0.484,0.18-0.537,0.453c-0.01,0.055-0.016,0.117-0.016,0.182v1.234h-0.6
			V3.182z"/>
		<path fill="#FFFFFF" d="M14.047,3.773c0.014,0.43,0.346,0.615,0.732,0.615c0.277,0,0.473-0.045,0.658-0.107l0.088,0.41
			c-0.205,0.088-0.488,0.15-0.83,0.15c-0.771,0-1.225-0.473-1.225-1.201c0-0.658,0.4-1.279,1.162-1.279
			c0.771,0,1.025,0.635,1.025,1.158c0,0.111-0.01,0.199-0.02,0.254H14.047z M15.092,3.354c0.004-0.221-0.094-0.582-0.494-0.582
			c-0.371,0-0.527,0.338-0.551,0.582H15.092z"/>
		<path fill="#FFFFFF" d="M16.193,1.326h0.601v1.416h0.01c0.146-0.229,0.405-0.381,0.762-0.381c0.581,0,0.996,0.484,0.991,1.207
			c0,0.854-0.542,1.279-1.079,1.279c-0.308,0-0.581-0.117-0.752-0.41h-0.01l-0.029,0.355h-0.513c0.01-0.16,0.02-0.424,0.02-0.668
			V1.326z M16.794,3.813c0,0.049,0.005,0.098,0.015,0.141c0.063,0.244,0.273,0.42,0.532,0.42c0.376,0,0.605-0.297,0.605-0.781
			c0-0.42-0.2-0.762-0.601-0.762c-0.244,0-0.469,0.176-0.532,0.439c-0.01,0.045-0.02,0.098-0.02,0.156V3.813z"/>
		<path fill="#FFFFFF" d="M20.947,4.223c0,0.215,0.01,0.424,0.039,0.57h-0.541L20.4,4.529h-0.014
			c-0.143,0.186-0.391,0.318-0.703,0.318c-0.479,0-0.748-0.348-0.748-0.709c0-0.596,0.533-0.902,1.412-0.898V3.201
			c0-0.156-0.064-0.414-0.484-0.414c-0.234,0-0.479,0.072-0.639,0.176l-0.117-0.391c0.176-0.107,0.482-0.211,0.859-0.211
			c0.762,0,0.98,0.484,0.98,1.006V4.223z M20.361,3.631c-0.424-0.004-0.83,0.084-0.83,0.445c0,0.234,0.152,0.342,0.342,0.342
			c0.244,0,0.416-0.156,0.475-0.328c0.014-0.043,0.014-0.088,0.014-0.131V3.631z"/>
		<path fill="#FFFFFF" d="M6.773,6.916L7.16,8.121c0.068,0.211,0.117,0.4,0.16,0.596h0.016c0.043-0.195,0.098-0.381,0.16-0.596
			l0.381-1.205h0.631L7.599,9.293H7.008L6.125,6.916H6.773z"/>
		<path fill="#FFFFFF" d="M11.123,8.082c0,0.875-0.615,1.266-1.221,1.266c-0.669,0-1.191-0.459-1.191-1.227
			c0-0.781,0.513-1.26,1.23-1.26C10.649,6.861,11.123,7.359,11.123,8.082z M9.331,8.107c0,0.459,0.229,0.805,0.591,0.805
			c0.342,0,0.581-0.332,0.581-0.814c0-0.371-0.166-0.801-0.576-0.801C9.502,7.297,9.331,7.711,9.331,8.107z"/>
		<path fill="#FFFFFF" d="M13.861,5.826v2.799c0,0.244,0.01,0.508,0.02,0.668h-0.533l-0.029-0.375h-0.01
			c-0.141,0.264-0.43,0.43-0.771,0.43c-0.57,0-1.02-0.484-1.02-1.217c-0.006-0.795,0.492-1.27,1.064-1.27
			c0.326,0,0.561,0.133,0.668,0.309h0.01V5.826H13.861z M13.26,7.906c0-0.049-0.004-0.111-0.014-0.16
			c-0.055-0.23-0.244-0.42-0.518-0.42c-0.387,0-0.602,0.342-0.602,0.781s0.215,0.756,0.596,0.756c0.244,0,0.459-0.166,0.518-0.424
			c0.016-0.055,0.02-0.113,0.02-0.176V7.906z"/>
		<path fill="#FFFFFF" d="M14.938,6.916l0.425,1.273c0.049,0.146,0.103,0.328,0.137,0.459h0.015
			c0.034-0.131,0.078-0.313,0.127-0.463l0.371-1.27h0.64l-0.596,1.621c-0.327,0.889-0.547,1.283-0.825,1.527
			c-0.239,0.205-0.483,0.283-0.63,0.303l-0.137-0.502c0.103-0.025,0.225-0.078,0.347-0.166c0.117-0.074,0.249-0.215,0.332-0.377
			c0.024-0.043,0.034-0.078,0.034-0.107c0-0.023-0.005-0.059-0.029-0.117l-0.874-2.182H14.938z"/>
	</g>
	<g>
		<path fill="#FFFFFF" d="M8.471,17.209c-0.578-0.281-0.842-0.74-0.842-1.225c0-0.9,0.799-1.514,1.844-1.514
			c1.199,0,1.734,0.715,1.734,1.395c0,0.467-0.246,0.951-0.85,1.25v0.025c0.604,0.229,1.055,0.705,1.055,1.393
			c0,0.986-0.834,1.65-2.016,1.65c-1.291,0-1.963-0.748-1.963-1.521c0-0.68,0.4-1.148,1.037-1.428V17.209z M10.349,18.619
			c0-0.561-0.408-0.867-1.029-1.037c-0.518,0.145-0.816,0.51-0.816,0.961c-0.016,0.475,0.34,0.9,0.928,0.9
			C9.984,19.443,10.349,19.096,10.349,18.619z M8.623,15.941c0,0.451,0.375,0.723,0.902,0.867c0.381-0.111,0.688-0.416,0.688-0.832
			c0-0.383-0.229-0.783-0.791-0.783C8.896,15.193,8.623,15.543,8.623,15.941z"/>
		<path fill="#FFFFFF" d="M14.201,14.055h1.045v6.035h-1.045V14.055z"/>
	</g>
</g>
</svg>
