<?xml version="1.0" encoding="utf-8"?>
<!-- Generator: Adobe Illustrator 16.0.3, SVG Export Plug-In . SVG Version: 6.00 Build 0)  -->
<!DOCTYPE svg PUBLIC "-//W3C//DTD SVG 1.1//EN" "http://www.w3.org/Graphics/SVG/1.1/DTD/svg11.dtd">
<svg version="1.1" xmlns="http://www.w3.org/2000/svg" xmlns:xlink="http://www.w3.org/1999/xlink" x="0px" y="0px" width="22.68px"
	 height="22.68px" viewBox="0 0 22.68 22.68" enable-background="new 0 0 22.68 22.68" xml:space="preserve">
<g id="BCGRND">
</g>
<g id="IKONY">
	<rect x="0" fill="#585857" width="22.676" height="22.678"/>
	<g>
		<g>
			<rect x="0" y="11.956" fill="#FFFFFF" width="22.677" height="0.889"/>
		</g>
		<g>
			<g>
				<path fill="#FFFFFF" d="M1.82,4.632c0.195,0.112,0.488,0.21,0.796,0.21c0.386,0,0.601-0.181,0.601-0.449
					c0-0.249-0.166-0.396-0.586-0.547C2.089,3.65,1.742,3.362,1.742,2.889c0-0.537,0.449-0.947,1.162-0.947
					c0.356,0,0.62,0.078,0.791,0.166L3.549,2.591C3.431,2.527,3.202,2.435,2.894,2.435c-0.381,0-0.547,0.205-0.547,0.396
					c0,0.254,0.19,0.371,0.63,0.542c0.571,0.215,0.85,0.503,0.85,0.977c0,0.527-0.4,0.986-1.25,0.986
					c-0.347,0-0.708-0.098-0.889-0.205L1.82,4.632z"/>
				<path fill="#FFFFFF" d="M4.397,3.699c0-0.313-0.01-0.566-0.02-0.791h0.527l0.029,0.366h0.01c0.176-0.269,0.454-0.42,0.815-0.42
					c0.547,0,1.001,0.469,1.001,1.211c0,0.859-0.542,1.274-1.084,1.274c-0.298,0-0.547-0.127-0.669-0.317h-0.01v1.23H4.397V3.699z
					 M4.997,4.29c0,0.059,0.005,0.112,0.02,0.166C5.075,4.7,5.29,4.876,5.544,4.876c0.381,0,0.605-0.317,0.605-0.786
					c0-0.42-0.205-0.762-0.591-0.762c-0.249,0-0.479,0.181-0.537,0.444C5.007,3.821,4.997,3.875,4.997,3.924V4.29z"/>
				<path fill="#FFFFFF" d="M9.566,4.075c0,0.874-0.615,1.265-1.221,1.265c-0.674,0-1.191-0.464-1.191-1.226
					c0-0.781,0.513-1.26,1.23-1.26C9.093,2.854,9.566,3.353,9.566,4.075z M7.774,4.1c0,0.459,0.225,0.806,0.591,0.806
					c0.342,0,0.581-0.337,0.581-0.815c0-0.371-0.166-0.796-0.576-0.796C7.945,3.294,7.774,3.704,7.774,4.1z"/>
				<path fill="#FFFFFF" d="M10.8,2.229v0.679h0.571v0.449H10.8v1.05c0,0.288,0.078,0.439,0.308,0.439
					c0.103,0,0.181-0.015,0.234-0.029l0.01,0.459c-0.088,0.034-0.244,0.059-0.435,0.059c-0.22,0-0.405-0.073-0.518-0.195
					c-0.127-0.137-0.186-0.352-0.186-0.664V3.357H9.872V2.908h0.342V2.371L10.8,2.229z"/>
				<path fill="#FFFFFF" d="M12.287,2.601l-0.479-0.723h0.415l0.264,0.444h0.01l0.264-0.444h0.415l-0.474,0.723H12.287z
					 M11.877,3.675c0-0.322-0.005-0.552-0.02-0.767h0.522l0.02,0.454h0.02c0.117-0.337,0.396-0.508,0.649-0.508
					c0.059,0,0.093,0.005,0.142,0.015v0.566c-0.049-0.01-0.103-0.02-0.176-0.02c-0.288,0-0.483,0.186-0.537,0.454
					c-0.01,0.054-0.02,0.117-0.02,0.186v1.23h-0.601V3.675z"/>
				<path fill="#FFFFFF" d="M14.047,4.266c0.015,0.43,0.352,0.615,0.732,0.615c0.278,0,0.479-0.039,0.659-0.107l0.088,0.415
					c-0.205,0.083-0.488,0.146-0.83,0.146c-0.771,0-1.226-0.474-1.226-1.201c0-0.659,0.4-1.279,1.162-1.279
					c0.771,0,1.025,0.635,1.025,1.157c0,0.112-0.01,0.2-0.02,0.254H14.047z M15.092,3.846c0.005-0.22-0.093-0.581-0.493-0.581
					c-0.371,0-0.527,0.337-0.552,0.581H15.092z"/>
				<path fill="#FFFFFF" d="M16.174,5.286c0.01-0.161,0.02-0.425,0.02-0.669V1.819h0.601v1.416h0.01
					c0.146-0.229,0.405-0.381,0.762-0.381c0.581,0,0.996,0.483,0.991,1.206c0,0.854-0.542,1.279-1.079,1.279
					c-0.308,0-0.581-0.117-0.752-0.41h-0.01l-0.029,0.356H16.174z M16.794,4.305c0,0.049,0.005,0.098,0.015,0.142
					c0.063,0.239,0.273,0.42,0.532,0.42c0.376,0,0.605-0.303,0.605-0.781c0-0.42-0.2-0.762-0.601-0.762
					c-0.244,0-0.464,0.176-0.532,0.439c-0.01,0.044-0.02,0.098-0.02,0.156V4.305z"/>
				<path fill="#FFFFFF" d="M20.44,5.286l-0.039-0.264h-0.015C20.24,5.208,19.991,5.34,19.683,5.34
					c-0.479,0-0.747-0.347-0.747-0.708c0-0.601,0.532-0.903,1.411-0.898V3.694c0-0.156-0.063-0.415-0.483-0.415
					c-0.234,0-0.479,0.073-0.64,0.176l-0.117-0.391c0.176-0.107,0.483-0.21,0.859-0.21c0.762,0,0.981,0.483,0.981,1.001v0.859
					c0,0.215,0.01,0.425,0.034,0.571H20.44z M20.362,4.124c-0.425-0.01-0.83,0.083-0.83,0.444c0,0.234,0.151,0.342,0.342,0.342
					c0.239,0,0.415-0.156,0.469-0.327c0.015-0.044,0.02-0.093,0.02-0.132V4.124z"/>
				<path fill="#FFFFFF" d="M6.774,7.408L7.16,8.614c0.068,0.21,0.117,0.4,0.161,0.596h0.015C7.38,9.015,7.433,8.829,7.497,8.614
					l0.376-1.206h0.635L7.599,9.786H7.009L6.125,7.408H6.774z"/>
				<path fill="#FFFFFF" d="M11.123,8.575c0,0.874-0.615,1.265-1.221,1.265c-0.674,0-1.191-0.464-1.191-1.226
					c0-0.781,0.513-1.26,1.23-1.26C10.65,7.354,11.123,7.853,11.123,8.575z M9.331,8.6c0,0.459,0.225,0.806,0.591,0.806
					c0.342,0,0.581-0.337,0.581-0.815c0-0.371-0.166-0.796-0.576-0.796C9.502,7.794,9.331,8.204,9.331,8.6z"/>
				<path fill="#FFFFFF" d="M13.861,6.319v2.798c0,0.244,0.01,0.508,0.02,0.669h-0.537L13.319,9.41h-0.01
					c-0.142,0.264-0.43,0.43-0.776,0.43c-0.566,0-1.016-0.483-1.016-1.216c-0.005-0.796,0.493-1.27,1.064-1.27
					c0.327,0,0.562,0.137,0.669,0.313h0.01V6.319H13.861z M13.26,8.399c0-0.049-0.005-0.107-0.015-0.156
					c-0.054-0.234-0.244-0.425-0.518-0.425c-0.386,0-0.601,0.342-0.601,0.786c0,0.435,0.215,0.752,0.596,0.752
					c0.244,0,0.459-0.166,0.518-0.425c0.015-0.054,0.02-0.112,0.02-0.176V8.399z"/>
				<path fill="#FFFFFF" d="M14.934,7.408l0.43,1.274c0.049,0.146,0.098,0.327,0.132,0.464h0.015
					c0.039-0.137,0.083-0.313,0.127-0.469l0.371-1.27h0.645l-0.596,1.621c-0.327,0.889-0.547,1.284-0.83,1.528
					c-0.234,0.21-0.479,0.288-0.63,0.308l-0.137-0.508c0.103-0.024,0.229-0.078,0.352-0.166c0.112-0.073,0.244-0.215,0.327-0.376
					c0.024-0.044,0.039-0.078,0.039-0.107c0-0.024-0.005-0.059-0.034-0.117l-0.869-2.183H14.934z"/>
			</g>
		</g>
		<g>
			<path fill="#FFFFFF" d="M7.494,15.797c-0.153,0-0.323,0-0.535,0.025c-1.156,0.136-1.717,0.851-1.853,1.615h0.025
				c0.272-0.314,0.688-0.535,1.241-0.535c0.952,0,1.691,0.68,1.691,1.802c0,1.054-0.773,1.972-1.946,1.972
				c-1.343,0-2.083-1.021-2.083-2.38c0-1.063,0.382-1.93,0.96-2.481c0.51-0.477,1.173-0.748,1.963-0.816
				c0.229-0.025,0.399-0.025,0.527-0.017L7.494,15.797z M7.001,18.764c0-0.638-0.349-1.097-0.96-1.097
				c-0.391,0-0.739,0.238-0.901,0.569c-0.042,0.085-0.068,0.187-0.068,0.331c0.017,0.731,0.365,1.326,1.037,1.326
				C6.653,19.894,7.001,19.426,7.001,18.764z"/>
			<path fill="#FFFFFF" d="M8.406,21.61c0.229-0.646,0.459-1.538,0.569-2.244l1.097-0.085c-0.238,0.8-0.621,1.717-0.952,2.261
				L8.406,21.61z"/>
			<path fill="#FFFFFF" d="M14.337,15.925h-2.125l-0.162,1.104c0.127-0.017,0.238-0.025,0.399-0.025c0.484,0,0.969,0.11,1.343,0.357
				c0.417,0.263,0.723,0.73,0.723,1.402c0,1.054-0.875,1.912-2.235,1.912c-0.638,0-1.173-0.162-1.462-0.323l0.212-0.79
				c0.238,0.127,0.714,0.289,1.215,0.289c0.612,0,1.199-0.349,1.199-1.012c0-0.629-0.468-1.046-1.573-1.046
				c-0.306,0-0.535,0.018-0.756,0.052l0.366-2.788h2.855V15.925z"/>
			<path fill="#FFFFFF" d="M17.253,14.548h1.054v6.034h-1.054V14.548z"/>
		</g>
	</g>
</g>
</svg>
