<?xml version="1.0" encoding="utf-8"?>
<!-- Generator: Adobe Illustrator 16.0.3, SVG Export Plug-In . SVG Version: 6.00 Build 0)  -->
<!DOCTYPE svg PUBLIC "-//W3C//DTD SVG 1.1//EN" "http://www.w3.org/Graphics/SVG/1.1/DTD/svg11.dtd">
<svg version="1.1" xmlns="http://www.w3.org/2000/svg" xmlns:xlink="http://www.w3.org/1999/xlink" x="0px" y="0px" width="22.68px"
	 height="22.68px" viewBox="0 0 22.68 22.68" enable-background="new 0 0 22.68 22.68" xml:space="preserve">
<g id="BCGRND">
</g>
<g id="IKONY">
	<rect x="0" fill="#585857" width="22.676" height="22.678"/>
	<g>
		<g>
			<g>
				<rect x="0.001" y="7.77" fill="#FFFFFF" width="22.678" height="0.889"/>
			</g>
			<g>
				<path fill="#FFFFFF" d="M1.918,4.916c0.189,0.111,0.488,0.209,0.795,0.209c0.381,0,0.596-0.18,0.596-0.449
					c0-0.248-0.166-0.395-0.58-0.547C2.181,3.934,1.834,3.646,1.834,3.172c0-0.541,0.449-0.947,1.168-0.947
					c0.355,0,0.615,0.078,0.785,0.166L3.646,2.875c-0.123-0.064-0.352-0.156-0.66-0.156c-0.381,0-0.541,0.199-0.541,0.395
					c0,0.254,0.189,0.371,0.629,0.543C3.646,3.871,3.92,4.158,3.92,4.633c0,0.531-0.4,0.99-1.246,0.99
					c-0.352,0-0.713-0.098-0.893-0.209L1.918,4.916z"/>
				<path fill="#FFFFFF" d="M5.011,2.582v0.609h0.57v0.449h-0.57v1.051c0,0.293,0.078,0.439,0.307,0.439
					c0.107,0,0.166-0.006,0.234-0.025l0.01,0.455C5.474,5.594,5.314,5.623,5.129,5.623c-0.225,0-0.406-0.072-0.518-0.195
					C4.478,5.291,4.42,5.072,4.42,4.76V3.641H4.084V3.191H4.42V2.748L5.011,2.582z"/>
				<path fill="#FFFFFF" d="M7.787,4.998c0,0.215,0.01,0.426,0.039,0.572H7.283L7.24,5.307H7.224
					C7.084,5.492,6.834,5.623,6.521,5.623c-0.479,0-0.746-0.346-0.746-0.707c0-0.596,0.531-0.904,1.41-0.898V3.979
					c0-0.156-0.063-0.416-0.482-0.416c-0.234,0-0.479,0.074-0.641,0.176L5.945,3.348C6.121,3.24,6.429,3.139,6.804,3.139
					c0.762,0,0.982,0.482,0.982,1.006V4.998z M7.201,4.408c-0.426-0.006-0.83,0.082-0.83,0.443c0,0.234,0.15,0.342,0.342,0.342
					c0.244,0,0.414-0.156,0.473-0.326c0.016-0.045,0.016-0.088,0.016-0.133V4.408z"/>
				<path fill="#FFFFFF" d="M8.327,3.959c0-0.322-0.005-0.557-0.02-0.768h0.518l0.024,0.449h0.015
					C8.981,3.309,9.26,3.139,9.518,3.139c0.059,0,0.093,0.004,0.142,0.014v0.563c-0.054-0.01-0.107-0.016-0.181-0.016
					c-0.283,0-0.483,0.182-0.537,0.455c-0.01,0.053-0.015,0.117-0.015,0.18V5.57H8.327V3.959z"/>
				<path fill="#FFFFFF" d="M12.352,5.477c-0.142,0.068-0.454,0.146-0.854,0.146c-1.045,0-1.68-0.654-1.68-1.66
					c0-1.084,0.757-1.738,1.763-1.738c0.396,0,0.674,0.084,0.796,0.146L12.25,2.85c-0.156-0.068-0.376-0.127-0.645-0.127
					c-0.669,0-1.152,0.42-1.152,1.211c0,0.729,0.42,1.188,1.147,1.188c0.239,0,0.493-0.049,0.654-0.117L12.352,5.477z"/>
				<path fill="#FFFFFF" d="M12.732,2.104h0.6V5.57h-0.6V2.104z"/>
				<path fill="#FFFFFF" d="M14.315,4.549c0.015,0.43,0.347,0.615,0.732,0.615c0.278,0,0.474-0.043,0.659-0.107l0.088,0.41
					c-0.205,0.088-0.488,0.152-0.83,0.152c-0.771,0-1.226-0.475-1.226-1.201c0-0.66,0.4-1.279,1.162-1.279
					c0.771,0,1.025,0.635,1.025,1.156c0,0.113-0.01,0.201-0.02,0.254H14.315z M15.36,4.129c0.005-0.219-0.093-0.58-0.493-0.58
					c-0.371,0-0.527,0.336-0.552,0.58H15.36z"/>
				<path fill="#FFFFFF" d="M18.161,4.998c0,0.215,0.01,0.426,0.039,0.572h-0.542l-0.044-0.264h-0.015
					c-0.142,0.186-0.391,0.316-0.703,0.316c-0.479,0-0.747-0.346-0.747-0.707c0-0.596,0.532-0.904,1.411-0.898V3.979
					c0-0.156-0.063-0.416-0.483-0.416c-0.234,0-0.479,0.074-0.64,0.176L16.32,3.348c0.176-0.107,0.483-0.209,0.859-0.209
					c0.762,0,0.981,0.482,0.981,1.006V4.998z M17.575,4.408c-0.425-0.006-0.83,0.082-0.83,0.443c0,0.234,0.151,0.342,0.342,0.342
					c0.244,0,0.415-0.156,0.474-0.326c0.015-0.045,0.015-0.088,0.015-0.133V4.408z"/>
				<path fill="#FFFFFF" d="M18.701,3.9c0-0.273-0.01-0.504-0.02-0.709h0.522l0.029,0.357h0.015c0.107-0.186,0.366-0.41,0.762-0.41
					c0.415,0,0.845,0.268,0.845,1.02V5.57h-0.601V4.227c0-0.342-0.127-0.6-0.454-0.6c-0.239,0-0.405,0.17-0.469,0.352
					c-0.02,0.049-0.029,0.121-0.029,0.189V5.57h-0.601V3.9z"/>
			</g>
		</g>
		<g>
			<polygon fill="#FFFFFF" points="12.443,10.37 12.292,11.172 12.803,11.81 12,11.659 11.363,12.169 11.514,11.367 11.003,10.729 
				11.806,10.88 			"/>
		</g>
		<g>
			<polygon fill="#FFFFFF" points="16.066,9.819 16.425,10.553 17.217,10.759 16.482,11.118 16.277,11.907 15.919,11.175 
				15.127,10.969 15.861,10.609 			"/>
		</g>
		<g>
			<polygon fill="#FFFFFF" points="5.216,9.331 5.605,10.048 6.404,10.22 5.686,10.61 5.514,11.408 5.125,10.69 4.326,10.52 
				5.045,10.13 			"/>
		</g>
		<g>
			<polygon fill="#FFFFFF" points="1.424,11.163 1.813,11.88 2.612,12.052 1.894,12.442 1.722,13.239 1.333,12.522 0.534,12.351 
				1.253,11.961 			"/>
		</g>
		<g>
			<g>
				<path fill="#FFFFFF" d="M16.791,18.13c-1.669,0.499-3.042,0.895-3.488,0.986c-1.414,0.289-4.742,0.032-5.289-0.547
					c0,0,0.027-0.693,1.538-0.675c2.255,0.028,2.616-0.358,2.909-0.53c0,0,0.259-1.111-3.627-0.885
					c-3.84,0.226-4.408,0.255-4.167-0.5c1.153-0.139,3.824-0.444,5.428-0.508c0.106-0.004,0.189-0.094,0.186-0.201
					c-0.004-0.105-0.087-0.189-0.2-0.185c-1.518,0.061-3.977,0.335-5.23,0.483c0.057-0.113,0.196-0.344,0.465-0.605
					c1.003-0.125,3.121-0.371,4.781-0.441c0.106-0.005,0.188-0.095,0.185-0.201c-0.005-0.106-0.089-0.197-0.201-0.185
					c-1.37,0.058-3.047,0.235-4.164,0.366c0.603-0.373,1.509-0.715,2.87-0.804l1.658-0.109c-0.373-0.312-0.748-0.632-1.127-0.968
					c-0.798-0.706-2.083-0.498-3.408,0.193c-2.002,1.043-3.164,1.291-3.903,1.35c0,0-0.983,2.959,1.396,4.855
					c1.99,1.586,4.193,2.063,7.097,3.641h0.764c0.839,0,1.962,0,3.067,0l5.533-2.838C19.861,19.823,18.654,19.261,16.791,18.13z"/>
			</g>
			<g opacity="0.5">
				<path fill="#FFFFFF" d="M15.223,14.953c-3.015-1.519-3.882-1.423-3.882-1.423l-0.898,0.06l-1.658,0.109
					c-1.361,0.089-2.268,0.431-2.87,0.804c1.117-0.131,2.794-0.309,4.164-0.366c0.112-0.013,0.196,0.078,0.201,0.185
					c0.004,0.106-0.078,0.196-0.185,0.201c-1.66,0.07-3.778,0.316-4.781,0.441c-0.269,0.262-0.408,0.492-0.465,0.605
					c1.254-0.148,3.713-0.423,5.23-0.483c0.113-0.005,0.196,0.079,0.2,0.185c0.004,0.107-0.079,0.197-0.186,0.201
					c-1.604,0.063-4.274,0.369-5.428,0.508c-0.241,0.755,0.327,0.726,4.167,0.5c3.886-0.227,3.627,0.885,3.627,0.885
					c-0.293,0.172-0.654,0.559-2.909,0.53c-1.511-0.019-1.538,0.675-1.538,0.675c0.547,0.579,3.875,0.836,5.289,0.547
					c0.446-0.092,1.819-0.487,3.488-0.986c1.888-0.563,4.15-1.258,5.888-1.795v-5.75C20.147,11.706,15.223,14.953,15.223,14.953z"/>
			</g>
		</g>
	</g>
</g>
</svg>
