<?xml version="1.0" encoding="utf-8"?>
<!-- Generator: Adobe Illustrator 16.0.3, SVG Export Plug-In . SVG Version: 6.00 Build 0)  -->
<!DOCTYPE svg PUBLIC "-//W3C//DTD SVG 1.1//EN" "http://www.w3.org/Graphics/SVG/1.1/DTD/svg11.dtd">
<svg version="1.1" xmlns="http://www.w3.org/2000/svg" xmlns:xlink="http://www.w3.org/1999/xlink" x="0px" y="0px" width="22.68px"
	 height="22.68px" viewBox="0 0 22.68 22.68" enable-background="new 0 0 22.68 22.68" xml:space="preserve">
<g id="BCGRND">
</g>
<g id="IKONY">
	<rect x="0" fill="#585857" width="22.676" height="22.678"/>
	<g>
		<g>
			<g>
				<rect x="0.001" y="7.769" fill="#FFFFFF" width="22.678" height="0.889"/>
			</g>
			<g>
				<path fill="#FFFFFF" d="M5.232,4.916c0.19,0.111,0.488,0.209,0.796,0.209c0.381,0,0.596-0.18,0.596-0.449
					c0-0.248-0.166-0.395-0.581-0.547C5.496,3.934,5.149,3.646,5.149,3.172c0-0.541,0.449-0.947,1.167-0.947
					c0.356,0,0.615,0.078,0.786,0.166L6.961,2.875C6.839,2.811,6.609,2.719,6.302,2.719c-0.381,0-0.542,0.199-0.542,0.395
					c0,0.254,0.19,0.371,0.63,0.543c0.571,0.215,0.845,0.502,0.845,0.977c0,0.531-0.4,0.99-1.245,0.99
					c-0.352,0-0.713-0.098-0.894-0.209L5.232,4.916z"/>
				<path fill="#FFFFFF" d="M8.326,2.582v0.609h0.571v0.449H8.326v1.051c0,0.293,0.078,0.439,0.308,0.439
					c0.107,0,0.166-0.006,0.234-0.025l0.01,0.455C8.79,5.594,8.629,5.623,8.443,5.623c-0.225,0-0.405-0.072-0.518-0.195
					c-0.132-0.137-0.19-0.355-0.19-0.668V3.641H7.398V3.191h0.337V2.748L8.326,2.582z"/>
				<path fill="#FFFFFF" d="M9.651,4.549c0.015,0.43,0.347,0.615,0.732,0.615c0.278,0,0.474-0.043,0.659-0.107l0.088,0.41
					c-0.205,0.088-0.488,0.152-0.83,0.152c-0.771,0-1.226-0.475-1.226-1.201c0-0.66,0.4-1.279,1.162-1.279
					c0.771,0,1.025,0.635,1.025,1.156c0,0.113-0.01,0.201-0.02,0.254H9.651z M10.696,4.129c0.005-0.219-0.093-0.58-0.493-0.58
					c-0.371,0-0.527,0.336-0.552,0.58H10.696z"/>
				<path fill="#FFFFFF" d="M13.497,4.998c0,0.215,0.01,0.426,0.039,0.572h-0.542L12.95,5.307h-0.015
					c-0.142,0.186-0.391,0.316-0.703,0.316c-0.479,0-0.747-0.346-0.747-0.707c0-0.596,0.532-0.904,1.411-0.898V3.979
					c0-0.156-0.063-0.416-0.483-0.416c-0.234,0-0.479,0.074-0.64,0.176l-0.117-0.391c0.176-0.107,0.483-0.209,0.859-0.209
					c0.762,0,0.981,0.482,0.981,1.006V4.998z M12.911,4.408c-0.425-0.006-0.83,0.082-0.83,0.443c0,0.234,0.151,0.342,0.342,0.342
					c0.244,0,0.415-0.156,0.474-0.326c0.015-0.045,0.015-0.088,0.015-0.133V4.408z"/>
				<path fill="#FFFFFF" d="M14.037,3.9c0-0.273-0.01-0.504-0.02-0.709h0.513l0.029,0.352h0.015
					c0.112-0.186,0.327-0.404,0.732-0.404c0.313,0,0.557,0.176,0.659,0.439h0.01c0.083-0.133,0.181-0.23,0.288-0.299
					c0.137-0.092,0.288-0.141,0.488-0.141c0.391,0,0.791,0.268,0.791,1.029V5.57h-0.586V4.256c0-0.395-0.137-0.629-0.425-0.629
					c-0.205,0-0.356,0.146-0.42,0.316c-0.02,0.055-0.029,0.133-0.029,0.201V5.57h-0.586V4.193c0-0.332-0.132-0.566-0.41-0.566
					c-0.225,0-0.376,0.176-0.435,0.336c-0.02,0.064-0.029,0.133-0.029,0.201V5.57h-0.586V3.9z"/>
			</g>
		</g>
		<g>
			<g>
				<g>
					<path fill="#FFFFFF" d="M9.064,13.711c-0.029,0-0.059-0.005-0.087-0.016c-0.129-0.048-0.195-0.192-0.147-0.321l1.375-3.697
						c0.049-0.129,0.193-0.196,0.321-0.147c0.129,0.048,0.195,0.192,0.147,0.321l-1.375,3.697
						C9.261,13.648,9.166,13.711,9.064,13.711z"/>
				</g>
			</g>
			<g>
				<g>
					<path fill="#FFFFFF" d="M13.725,13.711c-0.102,0-0.197-0.063-0.234-0.163l-1.375-3.697c-0.048-0.129,0.018-0.273,0.147-0.321
						c0.127-0.05,0.273,0.019,0.321,0.147l1.375,3.697c0.048,0.129-0.018,0.273-0.147,0.321
						C13.784,13.706,13.754,13.711,13.725,13.711z"/>
				</g>
			</g>
			<g>
				<g>
					<path fill="#FFFFFF" d="M11.394,13.719c-0.138,0-0.25-0.112-0.25-0.25V9.764c0-0.138,0.112-0.25,0.25-0.25
						s0.25,0.112,0.25,0.25v3.705C11.644,13.606,11.532,13.719,11.394,13.719z"/>
				</g>
			</g>
			<g opacity="0.5">
				<g>
					<path fill="#FFFFFF" d="M11.341,16.484c-1.185,0-2.186-0.719-2.186-1.57c0-0.276,0.224-0.5,0.5-0.5s0.5,0.224,0.5,0.5
						c0,0.164,0.473,0.57,1.186,0.57c0.712,0,1.185-0.406,1.185-0.57c0-0.276,0.224-0.5,0.5-0.5s0.5,0.224,0.5,0.5
						C13.525,15.766,12.525,16.484,11.341,16.484z"/>
				</g>
			</g>
			<g opacity="0.5">
				<g>
					<path fill="#FFFFFF" d="M10.325,18.582c-0.427,0-0.753-0.121-0.985-0.258c-0.417-0.245-0.691-0.63-0.831-0.998
						c-0.553-0.063-0.977-0.277-1.265-0.644c-0.55-0.698-0.333-1.629-0.306-1.732c0.068-0.268,0.341-0.43,0.608-0.36
						c0.268,0.068,0.429,0.341,0.36,0.608c-0.036,0.149-0.086,0.604,0.125,0.869c0.151,0.19,0.44,0.283,0.863,0.277l0.462-0.006
						l0.042,0.46c0.013,0.139,0.139,0.481,0.447,0.664c0.315,0.186,0.75,0.159,1.292-0.081l0.202-0.089l0.202,0.09
						c0.519,0.229,0.949,0.245,1.28,0.05c0.319-0.188,0.445-0.508,0.457-0.633l0.042-0.461l0.463,0.006
						c0.408,0,0.714-0.088,0.866-0.28c0.216-0.274,0.152-0.753,0.124-0.866c-0.068-0.268,0.093-0.54,0.361-0.608
						c0.266-0.071,0.54,0.093,0.608,0.36c0.026,0.104,0.243,1.034-0.307,1.732c-0.289,0.367-0.715,0.583-1.271,0.645
						c-0.142,0.352-0.418,0.722-0.834,0.967c-0.401,0.237-1.064,0.432-1.989,0.086C10.954,18.526,10.616,18.582,10.325,18.582z"/>
				</g>
			</g>
			<g opacity="0.5">
				<g>
					<path fill="#FFFFFF" d="M12.445,21.228c-0.364,0-0.733-0.127-1.104-0.38c-0.474,0.323-0.945,0.44-1.406,0.351
						C9.43,21.1,9.075,20.771,8.857,20.495c-0.535,0.172-1.003,0.146-1.397-0.077c-0.406-0.229-0.618-0.609-0.729-0.916
						c-0.612-0.006-1.125-0.182-1.43-0.562c-0.333-0.414-0.348-0.932-0.298-1.301c-0.475-0.241-0.769-0.571-0.878-0.985
						c-0.21-0.803,0.406-1.516,0.477-1.595c0.185-0.205,0.5-0.224,0.707-0.036c0.205,0.185,0.221,0.501,0.037,0.706
						c-0.107,0.121-0.312,0.449-0.251,0.673c0.046,0.174,0.277,0.338,0.649,0.464l0.482,0.163l-0.171,0.479
						c-0.061,0.176-0.134,0.607,0.029,0.808c0.135,0.167,0.48,0.227,0.97,0.163l0.508-0.064l0.052,0.51
						c0.015,0.127,0.106,0.494,0.342,0.625c0.238,0.132,0.614,0.008,0.885-0.12l0.442-0.208L9.5,19.657
						c0.084,0.168,0.323,0.501,0.626,0.56c0.306,0.06,0.65-0.172,0.885-0.378l0.33-0.29l0.33,0.291
						c0.233,0.205,0.572,0.44,0.883,0.377c0.303-0.059,0.542-0.392,0.625-0.56l0.218-0.437l0.442,0.208
						c0.273,0.128,0.649,0.256,0.888,0.118c0.276-0.155,0.339-0.618,0.34-0.623l0.052-0.51l0.508,0.064
						c0.491,0.063,0.836,0.003,0.971-0.164c0.18-0.224,0.066-0.7,0.028-0.807l-0.171-0.479l0.482-0.162
						c0.373-0.126,0.604-0.291,0.649-0.465c0.065-0.25-0.187-0.599-0.252-0.672c-0.185-0.205-0.169-0.521,0.036-0.706
						c0.205-0.185,0.521-0.169,0.706,0.036c0.071,0.079,0.688,0.792,0.478,1.595c-0.108,0.414-0.403,0.744-0.877,0.985
						c0.049,0.369,0.034,0.887-0.299,1.301c-0.304,0.38-0.754,0.563-1.43,0.562c-0.11,0.307-0.323,0.687-0.729,0.916
						c-0.394,0.224-0.863,0.249-1.398,0.077c-0.218,0.276-0.573,0.605-1.077,0.703C12.646,21.218,12.546,21.228,12.445,21.228z"/>
				</g>
			</g>
		</g>
	</g>
</g>
</svg>
