<?xml version="1.0" encoding="utf-8"?>
<!-- Generator: Adobe Illustrator 16.0.3, SVG Export Plug-In . SVG Version: 6.00 Build 0)  -->
<!DOCTYPE svg PUBLIC "-//W3C//DTD SVG 1.1//EN" "http://www.w3.org/Graphics/SVG/1.1/DTD/svg11.dtd">
<svg version="1.1" xmlns="http://www.w3.org/2000/svg" xmlns:xlink="http://www.w3.org/1999/xlink" x="0px" y="0px" width="22.68px"
	 height="22.68px" viewBox="0 0 22.68 22.68" enable-background="new 0 0 22.68 22.68" xml:space="preserve">
<g id="BCGRND">
</g>
<g id="IKONY">
	<g>
		<defs>
			<rect id="SVGID_9_" x="0" width="22.678" height="22.677"/>
		</defs>
		<clipPath id="SVGID_2_">
			<use xlink:href="#SVGID_9_"  overflow="visible"/>
		</clipPath>
		<g clip-path="url(#SVGID_2_)">
			<rect x="0" fill="#585857" width="22.678" height="22.677"/>
			<g>
				<g>
					<g>
						<g>
							<path fill="#FFFFFF" d="M5.302,4.631c0.19,0.112,0.488,0.21,0.796,0.21c0.381,0,0.596-0.181,0.596-0.449
								c0-0.249-0.166-0.396-0.581-0.547C5.566,3.65,5.219,3.362,5.219,2.888c0-0.542,0.449-0.947,1.167-0.947
								c0.356,0,0.615,0.078,0.786,0.166L7.031,2.59C6.909,2.527,6.679,2.434,6.372,2.434c-0.381,0-0.542,0.2-0.542,0.396
								c0,0.254,0.19,0.371,0.63,0.542c0.571,0.215,0.845,0.503,0.845,0.977c0,0.532-0.4,0.991-1.245,0.991
								c-0.352,0-0.713-0.098-0.894-0.21L5.302,4.631z"/>
							<path fill="#FFFFFF" d="M8.42,2.297v0.61h0.571v0.449H8.42v1.05c0,0.293,0.078,0.439,0.308,0.439
								c0.107,0,0.166-0.005,0.234-0.024l0.01,0.454C8.884,5.31,8.723,5.339,8.538,5.339c-0.225,0-0.405-0.073-0.518-0.195
								C7.888,5.007,7.83,4.788,7.83,4.475V3.357H7.493V2.908H7.83V2.463L8.42,2.297z"/>
							<path fill="#FFFFFF" d="M10.015,2.244c0,0.176-0.133,0.322-0.342,0.322c-0.201,0-0.332-0.146-0.332-0.322
								c0-0.186,0.137-0.327,0.336-0.327C9.882,1.917,10.009,2.058,10.015,2.244z M9.375,5.286V2.908h0.602v2.378H9.375z"/>
							<path fill="#FFFFFF" d="M10.553,3.674c0-0.322-0.005-0.557-0.02-0.767h0.518l0.024,0.449h0.015
								c0.117-0.332,0.396-0.503,0.654-0.503c0.059,0,0.093,0.005,0.142,0.015V3.43c-0.054-0.01-0.107-0.015-0.181-0.015
								c-0.283,0-0.483,0.181-0.537,0.454c-0.01,0.054-0.015,0.117-0.015,0.181v1.235h-0.601V3.674z"/>
							<path fill="#FFFFFF" d="M12.22,3.674c0-0.322-0.005-0.557-0.02-0.767h0.518l0.024,0.449h0.015
								c0.117-0.332,0.396-0.503,0.654-0.503c0.059,0,0.093,0.005,0.142,0.015V3.43c-0.054-0.01-0.107-0.015-0.181-0.015
								c-0.283,0-0.483,0.181-0.537,0.454c-0.01,0.054-0.015,0.117-0.015,0.181v1.235H12.22V3.674z"/>
							<path fill="#FFFFFF" d="M14.268,4.265C14.283,4.695,14.615,4.88,15,4.88c0.278,0,0.474-0.044,0.659-0.107l0.088,0.41
								c-0.205,0.088-0.488,0.151-0.83,0.151c-0.771,0-1.226-0.474-1.226-1.201c0-0.659,0.4-1.279,1.162-1.279
								c0.771,0,1.025,0.635,1.025,1.157c0,0.112-0.01,0.2-0.02,0.254H14.268z M15.313,3.845c0.005-0.22-0.093-0.581-0.493-0.581
								c-0.371,0-0.527,0.337-0.552,0.581H15.313z"/>
							<path fill="#FFFFFF" d="M16.292,3.674c0-0.322-0.005-0.557-0.02-0.767h0.518l0.024,0.449h0.015
								c0.117-0.332,0.396-0.503,0.654-0.503c0.059,0,0.093,0.005,0.142,0.015V3.43c-0.054-0.01-0.107-0.015-0.181-0.015
								c-0.283,0-0.483,0.181-0.537,0.454c-0.01,0.054-0.015,0.117-0.015,0.181v1.235h-0.601V3.674z"/>
							<path fill="#FFFFFF" d="M1.576,6.797v0.61h0.571v0.449H1.576v1.05c0,0.293,0.078,0.439,0.308,0.439
								c0.107,0,0.166-0.005,0.234-0.024l0.01,0.454C2.04,9.81,1.878,9.839,1.693,9.839c-0.225,0-0.405-0.073-0.518-0.195
								c-0.132-0.137-0.19-0.356-0.19-0.669V7.857H0.648V7.408h0.337V6.963L1.576,6.797z"/>
							<path fill="#FFFFFF" d="M2.876,8.765C2.891,9.195,3.223,9.38,3.609,9.38c0.278,0,0.474-0.044,0.659-0.107l0.088,0.41
								c-0.205,0.088-0.488,0.151-0.83,0.151C2.754,9.834,2.3,9.361,2.3,8.633c0-0.659,0.4-1.279,1.162-1.279
								c0.771,0,1.025,0.635,1.025,1.157c0,0.112-0.01,0.2-0.02,0.254H2.876z M3.921,8.345c0.005-0.22-0.093-0.581-0.493-0.581
								c-0.371,0-0.527,0.337-0.552,0.581H3.921z"/>
							<path fill="#FFFFFF" d="M6.6,9.712C6.473,9.771,6.224,9.834,5.926,9.834c-0.742,0-1.226-0.479-1.226-1.216
								c0-0.713,0.488-1.265,1.323-1.265c0.22,0,0.444,0.049,0.581,0.107L6.498,7.916C6.4,7.867,6.258,7.823,6.043,7.823
								c-0.459,0-0.732,0.337-0.728,0.771c0,0.488,0.317,0.767,0.728,0.767c0.205,0,0.356-0.044,0.474-0.093L6.6,9.712z"/>
							<path fill="#FFFFFF" d="M6.925,6.319h0.6V7.73h0.01C7.609,7.618,7.71,7.525,7.833,7.461c0.121-0.068,0.264-0.107,0.414-0.107
								c0.406,0,0.83,0.269,0.83,1.03v1.401h-0.6V8.448c0-0.342-0.127-0.605-0.459-0.605c-0.234,0-0.4,0.156-0.469,0.337
								C7.531,8.233,7.525,8.296,7.525,8.36v1.426h-0.6V6.319z"/>
							<path fill="#FFFFFF" d="M9.599,8.116c0-0.273-0.01-0.503-0.02-0.708h0.522l0.029,0.356h0.015
								c0.107-0.186,0.366-0.41,0.762-0.41c0.415,0,0.845,0.269,0.845,1.021v1.411h-0.601V8.443c0-0.342-0.127-0.601-0.454-0.601
								c-0.239,0-0.405,0.171-0.469,0.352c-0.02,0.049-0.029,0.122-0.029,0.19v1.401H9.599V8.116z"/>
							<path fill="#FFFFFF" d="M14.535,8.575c0,0.874-0.615,1.265-1.221,1.265c-0.67,0-1.191-0.459-1.191-1.226
								c0-0.781,0.512-1.26,1.23-1.26C14.06,7.354,14.535,7.852,14.535,8.575z M12.742,8.599c0,0.459,0.23,0.806,0.592,0.806
								c0.342,0,0.58-0.332,0.58-0.815c0-0.371-0.166-0.801-0.576-0.801C12.914,7.789,12.742,8.204,12.742,8.599z"/>
							<path fill="#FFFFFF" d="M14.909,6.319h0.601v3.467h-0.601V6.319z"/>
							<path fill="#FFFFFF" d="M18.304,8.575c0,0.874-0.615,1.265-1.221,1.265c-0.67,0-1.191-0.459-1.191-1.226
								c0-0.781,0.512-1.26,1.23-1.26C17.83,7.354,18.304,7.852,18.304,8.575z M16.511,8.599c0,0.459,0.23,0.806,0.592,0.806
								c0.342,0,0.58-0.332,0.58-0.815c0-0.371-0.166-0.801-0.576-0.801C16.683,7.789,16.511,8.204,16.511,8.599z"/>
							<path fill="#FFFFFF" d="M20.832,9.439c0,0.498-0.104,0.854-0.352,1.079c-0.244,0.22-0.592,0.288-0.918,0.288
								c-0.303,0-0.625-0.068-0.83-0.19l0.131-0.454c0.152,0.088,0.406,0.181,0.693,0.181c0.391,0,0.684-0.205,0.684-0.718V9.419
								h-0.01c-0.137,0.21-0.375,0.352-0.693,0.352c-0.59,0-1.01-0.488-1.01-1.162c0-0.781,0.508-1.255,1.078-1.255
								c0.367,0,0.576,0.176,0.689,0.371h0.01l0.023-0.317h0.523c-0.01,0.161-0.02,0.356-0.02,0.684V9.439z M20.23,8.36
								c0-0.059-0.004-0.112-0.02-0.161c-0.063-0.22-0.234-0.386-0.488-0.386c-0.336,0-0.586,0.293-0.586,0.776
								c0,0.405,0.205,0.732,0.582,0.732c0.225,0,0.42-0.146,0.488-0.366c0.02-0.059,0.023-0.142,0.023-0.21V8.36z"/>
							<path fill="#FFFFFF" d="M21.206,9.454c0-0.225,0.156-0.386,0.371-0.386c0.22,0,0.371,0.156,0.371,0.386
								c0,0.22-0.146,0.386-0.376,0.386C21.357,9.839,21.206,9.673,21.206,9.454z"/>
						</g>
					</g>
					<g>
						<path opacity="0.5" fill="#FFFFFF" d="M1.034,16.287l0.791-0.614l0.824,0.571c0.09,0.062,0.21,0.06,0.296-0.008l0.726-0.562
							c-0.053-0.173-0.096-0.35-0.136-0.527l-0.751,0.582l-0.824-0.571c-0.089-0.062-0.208-0.059-0.296,0.008l-0.791,0.614
							l-0.824-0.571C0.034,15.197,0.015,15.2,0,15.193v0.59l0.738,0.512C0.828,16.356,0.948,16.354,1.034,16.287z"/>
						<path opacity="0.5" fill="#FFFFFF" d="M0.586,14.491l0.808-0.594l0.808,0.594c0.09,0.064,0.208,0.064,0.296,0l0.81-0.594
							l0.046,0.034c-0.014-0.192-0.029-0.385-0.029-0.581v-0.007c-0.058-0.004-0.115,0.007-0.164,0.043l-0.81,0.594l-0.808-0.594
							c-0.09-0.064-0.207-0.064-0.297,0l-0.808,0.594L0,13.657v0.621l0.29,0.213C0.379,14.555,0.497,14.555,0.586,14.491z"/>
						<path opacity="0.5" fill="#FFFFFF" d="M21.851,17.29c-0.083-0.07-0.203-0.079-0.295-0.02l-0.847,0.537l-0.766-0.646
							c-0.083-0.069-0.203-0.078-0.295-0.02l-0.847,0.537l-0.482-0.406c-0.083,0.147-0.171,0.292-0.263,0.433l0.563,0.475
							c0.083,0.07,0.204,0.078,0.295,0.02l0.847-0.537l0.766,0.646c0.083,0.07,0.203,0.078,0.295,0.02l0.847-0.537l0.767,0.646
							c0.068,0.058,0.159,0.063,0.241,0.034c0-0.185,0-0.375,0-0.572l-0.06,0.038L21.851,17.29z"/>
						<path opacity="0.5" fill="#FFFFFF" d="M0.241,18.434l0.767-0.646l0.846,0.538c0.092,0.059,0.212,0.051,0.295-0.02l0.767-0.646
							l0.847,0.537c0.092,0.059,0.21,0.051,0.295-0.02l0.563-0.474c-0.092-0.141-0.181-0.285-0.264-0.432l-0.481,0.405L3.028,17.14
							c-0.092-0.059-0.211-0.05-0.295,0.02l-0.767,0.646l-0.846-0.538c-0.092-0.059-0.212-0.051-0.295,0.02l-0.767,0.646L0,17.895
							v0.572C0.082,18.496,0.172,18.491,0.241,18.434z"/>
						<path opacity="0.5" fill="#FFFFFF" d="M17.8,22.376L16.799,22.3l-0.227-0.977c-0.024-0.106-0.115-0.185-0.225-0.193
							l-0.998-0.075l-0.159-0.682c-0.149,0.082-0.306,0.154-0.461,0.227l0.175,0.747c0.024,0.106,0.115,0.185,0.225,0.193
							l0.998,0.075l0.227,0.977c0.008,0.034,0.031,0.058,0.052,0.085c0.198,0,0.392,0,0.568,0h1.075l-0.025-0.107
							C18,22.463,17.909,22.385,17.8,22.376z"/>
						<path opacity="0.5" fill="#FFFFFF" d="M14.817,22.317l-0.898-0.442l0.154-0.991c0-0.003-0.002-0.006-0.002-0.009
							c-0.174,0.064-0.35,0.124-0.53,0.175l-0.145,0.93c-0.017,0.108,0.038,0.214,0.137,0.263l0.884,0.435c0.175,0,0.35,0,0.522,0
							l0.015-0.098C14.97,22.471,14.915,22.365,14.817,22.317z"/>
						<path opacity="0.5" fill="#FFFFFF" d="M22.239,13.979l-0.807-0.594c-0.088-0.064-0.207-0.064-0.297,0l-0.808,0.594
							l-0.81-0.594c-0.049-0.036-0.107-0.047-0.165-0.042v0.007c0,0.196-0.016,0.389-0.029,0.582l0.047-0.035l0.81,0.594
							c0.088,0.064,0.206,0.064,0.296,0l0.808-0.594l0.807,0.594c0.088,0.064,0.208,0.064,0.296,0l0.291-0.213
							c0-0.219,0-0.424,0-0.62L22.239,13.979z"/>
						<path opacity="0.5" fill="#FFFFFF" d="M21.144,15.164c-0.086-0.067-0.206-0.07-0.296-0.008l-0.824,0.572l-0.792-0.615
							c-0.021-0.017-0.049-0.018-0.074-0.027c-0.043,0.195-0.091,0.388-0.148,0.577l0.062-0.042l0.792,0.615
							c0.087,0.068,0.207,0.07,0.296,0.008l0.823-0.572l0.791,0.615c0.086,0.067,0.206,0.071,0.296,0.008l0.608-0.421
							c0-0.206,0-0.407,0-0.608l-0.742,0.514L21.144,15.164z"/>
						<path opacity="0.5" fill="#FFFFFF" d="M6.417,21.607l0.999-0.072c0.109-0.008,0.201-0.086,0.226-0.192l0.188-0.799
							c-0.154-0.076-0.308-0.154-0.457-0.239L7.198,21.05l-0.999,0.072c-0.109,0.008-0.201,0.086-0.226,0.192l-0.229,0.977l-1,0.074
							c-0.108,0.008-0.199,0.086-0.225,0.192l-0.028,0.12h1.641c0.023-0.028,0.048-0.056,0.057-0.093L6.417,21.607z"/>
						<path opacity="0.5" fill="#FFFFFF" d="M10.832,22.252l-0.458-0.893l0.052-0.051c-0.195-0.022-0.388-0.052-0.579-0.088
							c-0.027,0.066-0.036,0.138-0.002,0.205l0.459,0.893l-0.364,0.359h0.712l0.134-0.133
							C10.862,22.467,10.881,22.349,10.832,22.252z"/>
						<path opacity="0.5" fill="#FFFFFF" d="M9.158,21.979l-0.149-0.963c-0.177-0.054-0.348-0.119-0.519-0.185
							c-0.001,0.018-0.012,0.034-0.009,0.052l0.154,0.991l-0.898,0.442c-0.098,0.048-0.153,0.154-0.137,0.262l0.015,0.098h0.522
							l0.884-0.435C9.12,22.193,9.174,22.087,9.158,21.979z"/>
						<path opacity="0.5" fill="#FFFFFF" d="M12.83,21.425c0.034-0.066,0.025-0.139-0.002-0.205
							c-0.19,0.036-0.384,0.066-0.579,0.088l0.052,0.051l-0.458,0.893c-0.05,0.097-0.03,0.215,0.047,0.292l0.135,0.133
							c0.228,0,0.465,0,0.711,0l-0.364-0.359L12.83,21.425z"/>
					</g>
				</g>
			</g>
			<path opacity="0.5" fill="#FFFFFF" d="M5.252,18.55l-0.387,0.459l-0.924-0.386c-0.102-0.042-0.219-0.014-0.288,0.07L3.008,19.46
				l-0.924-0.386c-0.051-0.021-0.105-0.025-0.156-0.012c-0.051,0.012-0.098,0.04-0.133,0.082L1.15,19.911l-0.925-0.385
				c-0.002-0.001-0.004,0-0.007,0C0.18,19.51,0.14,19.508,0.101,19.516c-0.036,0.004-0.066,0.02-0.097,0.039
				C0.002,19.556,0.001,19.556,0,19.557v0.001c-0.021,0.013-0.045,0.019-0.062,0.038l-0.646,0.767l-0.927-0.386
				c-0.075-0.032-0.155-0.013-0.224,0.031v0.263c0,0.146,0.022,0.287,0.043,0.427l0.158-0.188l0.927,0.386
				c0.098,0.04,0.216,0.014,0.287-0.07l0.645-0.766l0.925,0.385c0.049,0.02,0.103,0.023,0.154,0.011
				c0.051-0.012,0.099-0.039,0.134-0.081l0.645-0.767L2.523,19.8l0.462,0.193c0.1,0.04,0.217,0.014,0.288-0.07l0.646-0.767
				l0.924,0.386c0.1,0.04,0.217,0.014,0.288-0.07l0.461-0.548C5.474,18.803,5.362,18.678,5.252,18.55z"/>
			<path opacity="0.5" fill="#FFFFFF" d="M6.397,19.647l-0.29,0.555l-0.986-0.179c-0.115-0.019-0.216,0.033-0.267,0.13l-0.175,0.334
				l0,0l-0.29,0.554l-0.626-0.113l-0.361-0.065c-0.115-0.019-0.216,0.033-0.267,0.13L2.67,21.879l-0.987-0.178
				c-0.116-0.019-0.216,0.034-0.267,0.13L1.24,22.168l0,0l-0.288,0.55l-0.987-0.178c-0.116-0.019-0.216,0.034-0.267,0.13
				l-0.177,0.337c0.138,0.095,0.284,0.174,0.438,0.245l0.098-0.187l0.987,0.178c0.107,0.016,0.214-0.034,0.266-0.13l0.367-0.701
				c0,0,0,0,0,0l0.098-0.187l0.261,0.047l0.726,0.131c0.03,0.005,0.058-0.007,0.087-0.013c0.029-0.006,0.056-0.009,0.082-0.024
				c0.039-0.023,0.074-0.051,0.097-0.093l0.465-0.888l0.986,0.179c0.113,0.016,0.216-0.034,0.267-0.13l0-0.001l0,0l0.465-0.887
				l0.986,0.179c0.113,0.016,0.216-0.034,0.267-0.13l0.338-0.646C6.664,19.854,6.53,19.751,6.397,19.647z"/>
			<path opacity="0.5" fill="#FFFFFF" d="M26.169,20.428l-0.927,0.386l-0.646-0.767c-0.069-0.083-0.188-0.111-0.287-0.07
				l-0.926,0.386l-0.646-0.767c-0.016-0.019-0.041-0.025-0.062-0.038v-0.001c-0.001-0.001-0.002-0.001-0.003-0.001
				c-0.031-0.02-0.062-0.035-0.098-0.039c-0.038-0.008-0.077-0.006-0.115,0.009c-0.003,0.001-0.007,0-0.01,0.001l-0.924,0.386
				l-0.646-0.767c-0.069-0.083-0.188-0.111-0.287-0.07l-0.926,0.386l-0.646-0.767c-0.07-0.083-0.187-0.111-0.288-0.07l-0.924,0.386
				l-0.387-0.459c-0.109,0.128-0.222,0.252-0.339,0.374l0.461,0.548c0.071,0.084,0.188,0.111,0.288,0.07l0.924-0.386l0.646,0.767
				c0.07,0.083,0.189,0.112,0.287,0.07l0.926-0.386l0.646,0.767c0.062,0.073,0.157,0.093,0.245,0.073
				c0.014-0.003,0.029,0.002,0.043-0.003l0.308-0.129l0.616-0.256l0.645,0.766c0.07,0.083,0.189,0.112,0.287,0.07l0.926-0.386
				l0.646,0.767c0.071,0.084,0.189,0.112,0.287,0.07l0.927-0.386l0.158,0.188c0.021-0.14,0.043-0.281,0.043-0.427v-0.262
				C26.325,20.417,26.245,20.397,26.169,20.428z"/>
			<path opacity="0.5" fill="#FFFFFF" d="M22.98,22.671c-0.052-0.097-0.161-0.149-0.266-0.13l-0.988,0.178l-0.289-0.551l0,0
				l-0.177-0.336c-0.052-0.097-0.161-0.149-0.266-0.13l-0.988,0.178l-0.465-0.888c-0.052-0.097-0.155-0.148-0.267-0.13l-0.361,0.065
				l-0.626,0.113L18,20.485c0,0-0.001,0-0.001,0.001l-0.175-0.334c-0.052-0.097-0.155-0.148-0.267-0.13l-0.986,0.179l-0.29-0.556
				c-0.133,0.104-0.267,0.208-0.405,0.304l0.338,0.647c0.051,0.096,0.153,0.146,0.267,0.13l0.986-0.179l0.465,0.887c0,0,0,0,0,0
				l0,0.001c0.051,0.096,0.153,0.146,0.267,0.13l0.986-0.179l0.465,0.888c0.025,0.048,0.065,0.085,0.112,0.107
				c0.019,0.009,0.041,0.005,0.061,0.009c0.031,0.007,0.061,0.019,0.093,0.014l0.726-0.131l0.261-0.047L21,22.413c0,0,0,0,0.001,0
				l0.367,0.702c0.051,0.096,0.158,0.146,0.266,0.13l0.987-0.178l0.098,0.187c0.152-0.07,0.3-0.149,0.438-0.245L22.98,22.671z"/>
			<g>
				<path fill="none" d="M10.75,13.631c0.072,0.15,0.202,0.272,0.371,0.332l0.001,0c0.169,0.06,0.347,0.045,0.497-0.026v0
					c0.15-0.072,0.273-0.201,0.333-0.371c0,0,0,0,0,0c0.06-0.169,0.045-0.347-0.026-0.497v0c-0.043-0.088-0.11-0.162-0.188-0.224
					c-0.056-0.043-0.113-0.084-0.183-0.109c-0.001,0-0.001,0-0.001,0c-0.169-0.06-0.347-0.045-0.497,0.026v0
					c-0.042,0.02-0.075,0.054-0.111,0.083c-0.096,0.074-0.179,0.166-0.222,0.288c0,0,0,0,0,0
					C10.665,13.303,10.679,13.48,10.75,13.631C10.75,13.63,10.75,13.631,10.75,13.631z"/>
				<path fill="#FFFFFF" d="M22.677,11.956H0v0.889h3.35c-0.011,0.166-0.024,0.33-0.025,0.498v0.007
					c0,0.196,0.016,0.389,0.029,0.581c0.03,0.415,0.09,0.821,0.182,1.216c0.04,0.178,0.083,0.354,0.136,0.527
					c0.17,0.562,0.402,1.096,0.686,1.598c0.083,0.147,0.172,0.291,0.264,0.432C4.812,18,5.023,18.283,5.252,18.55
					c0.109,0.128,0.222,0.252,0.339,0.374c0.252,0.259,0.521,0.5,0.806,0.723c0.133,0.104,0.267,0.207,0.405,0.303
					c0.185,0.127,0.376,0.243,0.57,0.355c0.149,0.085,0.303,0.163,0.457,0.239c0.215,0.105,0.435,0.201,0.66,0.287
					c0.171,0.065,0.342,0.131,0.519,0.185c0.273,0.083,0.554,0.15,0.838,0.204c0.191,0.036,0.384,0.066,0.579,0.088
					c0.3,0.034,0.604,0.056,0.913,0.056c0.309,0,0.611-0.021,0.91-0.056c0.195-0.022,0.389-0.052,0.579-0.088
					c0.242-0.046,0.479-0.104,0.713-0.171c0.181-0.052,0.356-0.111,0.53-0.175c0.225-0.082,0.444-0.172,0.659-0.273
					c0.155-0.073,0.312-0.145,0.461-0.227c0.235-0.13,0.464-0.272,0.685-0.424c0.139-0.096,0.272-0.199,0.405-0.304
					c0.284-0.223,0.553-0.463,0.805-0.722c0.117-0.121,0.229-0.246,0.339-0.374c0.229-0.268,0.44-0.549,0.633-0.845
					c0.092-0.141,0.18-0.285,0.263-0.433c0.285-0.505,0.519-1.043,0.689-1.609c0.058-0.189,0.105-0.382,0.148-0.577
					c0.084-0.376,0.138-0.762,0.166-1.155c0.014-0.193,0.029-0.386,0.029-0.582v-0.007c-0.001-0.168-0.015-0.333-0.025-0.498h3.35
					V11.956z M10.724,13.133C10.724,13.133,10.724,13.133,10.724,13.133c0.043-0.123,0.126-0.214,0.222-0.289
					c0.036-0.028,0.069-0.063,0.111-0.083v0c0.15-0.072,0.328-0.086,0.497-0.026c0,0,0,0,0.001,0
					c0.069,0.024,0.127,0.065,0.183,0.109c0.078,0.062,0.146,0.135,0.188,0.224v0c0.071,0.15,0.086,0.328,0.026,0.497c0,0,0,0,0,0
					c-0.06,0.169-0.183,0.299-0.333,0.371v0c-0.15,0.072-0.328,0.086-0.497,0.026l-0.001,0c-0.169-0.06-0.299-0.182-0.371-0.332
					c0,0,0-0.001,0-0.001C10.679,13.48,10.665,13.303,10.724,13.133z M18.227,13.35c0,3.799-3.09,6.89-6.889,6.89
					S4.45,17.148,4.45,13.35c0-0.17,0.014-0.337,0.025-0.505h5.431l0.195,0.069v0c-0.038,0.108-0.037,0.218-0.046,0.327
					l-1.636,0.783l-1.407-0.793l-1.719,0.824l0.854,1.781l4.008-1.92c0.048,0.1,0.126,0.181,0.198,0.267l-0.602,1.708l-1.557,0.433
					l-0.633,1.798l1.863,0.657l1.478-4.192c0.108,0.038,0.218,0.037,0.327,0.046l0.783,1.635l-0.795,1.406l0.824,1.721l1.781-0.854
					l-1.919-4.009c0.101-0.048,0.182-0.126,0.268-0.198l1.708,0.602l0.432,1.556l1.799,0.636l0.656-1.865l-4.191-1.477v0
					c0.038-0.108,0.037-0.218,0.047-0.327l1.28-0.613h0.655l1.106,0.624l1.303-0.624h1.235
					C18.214,13.012,18.228,13.179,18.227,13.35L18.227,13.35z"/>
			</g>
		</g>
	</g>
</g>
</svg>
