<?xml version="1.0" encoding="utf-8"?>
<!-- Generator: Adobe Illustrator 16.0.3, SVG Export Plug-In . SVG Version: 6.00 Build 0)  -->
<!DOCTYPE svg PUBLIC "-//W3C//DTD SVG 1.1//EN" "http://www.w3.org/Graphics/SVG/1.1/DTD/svg11.dtd">
<svg version="1.1" xmlns="http://www.w3.org/2000/svg" xmlns:xlink="http://www.w3.org/1999/xlink" x="0px" y="0px" width="22.68px"
	 height="22.68px" viewBox="0 0 22.68 22.68" enable-background="new 0 0 22.68 22.68" xml:space="preserve">
<g id="BCGRND">
</g>
<g id="IKONY">
	<rect x="0" fill="#585857" width="22.677" height="22.677"/>
	<g>
		<rect x="0.002" y="7.769" fill="#FFFFFF" width="22.678" height="0.889"/>
		<g>
			<g>
				<path fill="#FFFFFF" d="M1.394,4.913c0.19,0.112,0.488,0.21,0.796,0.21c0.381,0,0.596-0.181,0.596-0.449
					c0-0.249-0.166-0.396-0.581-0.547C1.658,3.932,1.311,3.644,1.311,3.17c0-0.542,0.449-0.947,1.167-0.947
					c0.356,0,0.615,0.078,0.786,0.166L3.123,2.872C3.001,2.809,2.771,2.716,2.464,2.716c-0.381,0-0.542,0.2-0.542,0.396
					c0,0.254,0.19,0.371,0.63,0.542C3.123,3.868,3.396,4.156,3.396,4.63c0,0.532-0.4,0.991-1.245,0.991
					c-0.352,0-0.713-0.098-0.894-0.21L1.394,4.913z"/>
				<path fill="#FFFFFF" d="M5.875,4.854c0,0.283,0.01,0.518,0.02,0.713H5.372L5.343,5.211H5.328
					c-0.103,0.166-0.337,0.41-0.767,0.41S3.736,5.362,3.736,4.586V3.189h0.601v1.294c0,0.396,0.127,0.649,0.444,0.649
					c0.244,0,0.4-0.166,0.459-0.322c0.024-0.049,0.034-0.117,0.034-0.186V3.189h0.601V4.854z"/>
				<path fill="#FFFFFF" d="M6.357,3.98c0-0.313-0.01-0.566-0.02-0.791h0.527l0.029,0.366h0.01c0.176-0.269,0.454-0.42,0.815-0.42
					c0.547,0,1.001,0.469,1.001,1.211c0,0.859-0.542,1.274-1.084,1.274c-0.298,0-0.547-0.127-0.669-0.317h-0.01v1.23H6.357V3.98z
					 M6.957,4.571c0,0.059,0.005,0.112,0.015,0.166c0.063,0.244,0.273,0.42,0.532,0.42c0.381,0,0.605-0.317,0.605-0.786
					c0-0.42-0.205-0.762-0.591-0.762c-0.249,0-0.479,0.181-0.542,0.444c-0.01,0.049-0.02,0.103-0.02,0.151V4.571z"/>
				<path fill="#FFFFFF" d="M9.47,4.547c0.015,0.43,0.347,0.615,0.732,0.615c0.278,0,0.474-0.044,0.659-0.107l0.088,0.41
					c-0.205,0.088-0.488,0.151-0.83,0.151c-0.771,0-1.226-0.474-1.226-1.201c0-0.659,0.4-1.279,1.162-1.279
					c0.771,0,1.025,0.635,1.025,1.157c0,0.112-0.01,0.2-0.02,0.254H9.47z M10.515,4.127c0.005-0.22-0.093-0.581-0.493-0.581
					c-0.371,0-0.527,0.337-0.552,0.581H10.515z"/>
				<path fill="#FFFFFF" d="M11.397,3.956c0-0.322-0.005-0.557-0.02-0.767h0.518l0.024,0.449h0.015
					c0.117-0.332,0.396-0.503,0.654-0.503c0.059,0,0.093,0.005,0.142,0.015v0.562c-0.054-0.01-0.107-0.015-0.181-0.015
					c-0.283,0-0.483,0.181-0.537,0.454c-0.01,0.054-0.015,0.117-0.015,0.181v1.235h-0.601V3.956z"/>
				<path fill="#FFFFFF" d="M15.349,5.475c-0.142,0.068-0.454,0.146-0.854,0.146c-1.045,0-1.68-0.654-1.68-1.66
					c0-1.084,0.757-1.738,1.763-1.738c0.396,0,0.674,0.083,0.796,0.146l-0.127,0.479c-0.156-0.068-0.376-0.127-0.645-0.127
					c-0.669,0-1.152,0.42-1.152,1.211c0,0.728,0.42,1.187,1.147,1.187c0.239,0,0.493-0.049,0.654-0.117L15.349,5.475z"/>
				<path fill="#FFFFFF" d="M17.852,4.356c0,0.874-0.615,1.265-1.221,1.265c-0.669,0-1.191-0.459-1.191-1.226
					c0-0.781,0.513-1.26,1.23-1.26C17.379,3.136,17.852,3.634,17.852,4.356z M16.06,4.381c0,0.459,0.229,0.806,0.591,0.806
					c0.342,0,0.581-0.332,0.581-0.815c0-0.371-0.166-0.801-0.576-0.801C16.231,3.57,16.06,3.985,16.06,4.381z"/>
				<path fill="#FFFFFF" d="M20.439,4.356c0,0.874-0.615,1.265-1.221,1.265c-0.669,0-1.191-0.459-1.191-1.226
					c0-0.781,0.513-1.26,1.23-1.26C19.965,3.136,20.439,3.634,20.439,4.356z M18.647,4.381c0,0.459,0.229,0.806,0.591,0.806
					c0.342,0,0.581-0.332,0.581-0.815c0-0.371-0.166-0.801-0.576-0.801C18.818,3.57,18.647,3.985,18.647,4.381z"/>
				<path fill="#FFFFFF" d="M20.764,2.101h0.601v3.467h-0.601V2.101z"/>
			</g>
		</g>
		<g>
			<path fill="#FFFFFF" d="M14.065,13.332V8.024h-1v5.781c0.283,0.2,0.516,0.46,0.715,0.744c0.343,0.486,0.561,1.065,0.561,1.705
				c0,1.658-1.344,3.001-3,3.001s-3-1.343-3-3.001c0-0.64,0.219-1.219,0.561-1.705c0.2-0.284,0.432-0.544,0.717-0.744v-0.974h1.537
				v-0.5H9.618v-1.628h1.537v-0.5H9.618v-2.18h-1v5.307c-0.808,0.751-1.277,1.81-1.277,2.923c0,2.206,1.795,4.001,4,4.001
				s4-1.795,4-4.001C15.341,15.141,14.872,14.083,14.065,13.332z"/>
			<path opacity="0.5" fill="#FFFFFF" d="M8.901,14.549c-0.343,0.486-0.561,1.065-0.561,1.705c0,1.658,1.344,3.001,3,3.001
				s3-1.343,3-3.001c0-0.64-0.218-1.219-0.56-1.705H8.901z"/>
			<g>
				<path opacity="0.5" fill="#FFFFFF" d="M5.511,16.265l-0.547,0.948l1.615,0.935l-0.752,0.435l-0.926-0.534l-0.314-0.182
					l-0.549,0.948l0.693,0.399l-1.48,0.856l0.547,0.949l1.104-0.638l0.379-0.219v0.8h1.096v-1.432l0.752-0.435v1.866h1.096v-1.204
					c-0.79-0.712-1.327-1.684-1.487-2.787L5.511,16.265z"/>
				<path opacity="0.5" fill="#FFFFFF" d="M6.213,16.033l0.458,0.26c0-0.184,0.011-0.365,0.032-0.542L6.213,16.033z"/>
				<path opacity="0.5" fill="#FFFFFF" d="M7.129,11.101v1.867l-0.752-0.435v-1.433H5.281v0.8l-0.379-0.219l-1.104-0.638
					l-0.547,0.951l1.48,0.855l-0.693,0.4L4.588,14.2l0.314-0.182l0.926-0.535l0.752,0.434l-1.615,0.934L5.511,15.8l1.347-0.777
					c0.21-0.726,0.6-1.37,1.108-1.904v-2.019H7.129z"/>
				<path opacity="0.5" fill="#FFFFFF" d="M8.778,20.202l-0.001,0.269l0.238-0.14C8.938,20.286,8.852,20.251,8.778,20.202z"/>
				<path opacity="0.5" fill="#FFFFFF" d="M13.902,20.202c-0.075,0.049-0.159,0.083-0.236,0.128l0.238,0.138L13.902,20.202z"/>
				<path opacity="0.5" fill="#FFFFFF" d="M18.64,18.814l-0.547-0.948l-1.242,0.716l-0.156-0.09l-0.596-0.344l0.596-0.344
					l1.021-0.59l-0.549-0.948l-0.473,0.273l-0.751,0.434c-0.16,1.103-0.697,2.074-1.487,2.787v1.205h1.096v-1.866l0.752,0.435v1.432
					H17.4v-0.8l1.482,0.856l0.547-0.949l-1.482-0.856L18.64,18.814z"/>
				<path opacity="0.5" fill="#FFFFFF" d="M15.823,15.023l0.872,0.503l0.473,0.273l0.549-0.949l-1.021-0.59l-0.596-0.344
					l0.596-0.344l0.156-0.09l1.242,0.717l0.547-0.949l-0.693-0.4l1.482-0.855l-0.547-0.951L17.4,11.9v-0.8h-1.096v1.433
					l-0.752,0.435v-1.867h-0.836v2.021C15.222,13.656,15.612,14.298,15.823,15.023z"/>
				<path opacity="0.5" fill="#FFFFFF" d="M11.34,20.973c-0.614,0-1.196-0.125-1.733-0.341l-0.978,0.564l0.282,0.488l0.265,0.46
					l0.797-0.46l0.82-0.474v0.868l-1.034,0.597h3.162l-1.032-0.597v-0.868l0.819,0.474l0.796,0.46l0.267-0.46l0.282-0.488
					l-0.978-0.565C12.538,20.847,11.954,20.973,11.34,20.973z"/>
				<path opacity="0.5" fill="#FFFFFF" d="M16.465,16.033l-0.486-0.281c0.021,0.177,0.032,0.357,0.032,0.54L16.465,16.033z"/>
			</g>
		</g>
	</g>
</g>
</svg>
