<?xml version="1.0" encoding="utf-8"?>
<!-- Generator: Adobe Illustrator 16.0.3, SVG Export Plug-In . SVG Version: 6.00 Build 0)  -->
<!DOCTYPE svg PUBLIC "-//W3C//DTD SVG 1.1//EN" "http://www.w3.org/Graphics/SVG/1.1/DTD/svg11.dtd">
<svg version="1.1" xmlns="http://www.w3.org/2000/svg" xmlns:xlink="http://www.w3.org/1999/xlink" x="0px" y="0px" width="22.68px"
	 height="22.68px" viewBox="0 0 22.68 22.68" enable-background="new 0 0 22.68 22.68" xml:space="preserve">
<g id="BCGRND">
</g>
<g id="IKONY">
	<rect fill="#585857" width="22.677" height="22.677"/>
	<g>
		<g>
			<g>
				<g>
					<rect y="11.958" fill="#FFFFFF" width="22.678" height="0.889"/>
				</g>
				<g>
					<g>
						<path fill="#FFFFFF" d="M5.165,4.357L4.882,5.29h-0.62l1.055-3.291h0.767L7.152,5.29H6.508L6.21,4.357H5.165z M6.107,3.903
							L5.849,3.093c-0.063-0.2-0.117-0.425-0.166-0.615h-0.01c-0.049,0.19-0.098,0.42-0.156,0.615L5.263,3.903H6.107z"/>
						<path fill="#FFFFFF" d="M7.566,1.823h0.605V5.29H7.566V1.823z"/>
						<path fill="#FFFFFF" d="M8.823,1.823h0.605V5.29H8.823V1.823z"/>
						<path fill="#FFFFFF" d="M11.716,1.999V5.29h-0.601V1.999H11.716z"/>
						<path fill="#FFFFFF" d="M12.411,3.62c0-0.273-0.005-0.503-0.02-0.708h0.527l0.029,0.356h0.015
							c0.103-0.186,0.361-0.41,0.757-0.41c0.415,0,0.845,0.269,0.845,1.021V5.29h-0.601V3.947c0-0.342-0.127-0.601-0.454-0.601
							c-0.239,0-0.405,0.171-0.469,0.352c-0.02,0.054-0.024,0.127-0.024,0.195V5.29h-0.605V3.62z"/>
						<path fill="#FFFFFF" d="M17.049,2.658h-0.01l-0.581,0.293l-0.103-0.454l0.771-0.381h0.503V5.29h-0.581V2.658z"/>
						<path fill="#FFFFFF" d="M4.833,6.733v0.679h0.571v0.449H4.833v1.05c0,0.288,0.078,0.439,0.308,0.439
							c0.103,0,0.181-0.015,0.234-0.029l0.01,0.459C5.296,9.814,5.14,9.839,4.95,9.839c-0.22,0-0.405-0.073-0.518-0.195
							C4.305,9.507,4.247,9.292,4.247,8.979V7.861H3.905V7.412h0.342V6.875L4.833,6.733z"/>
						<path fill="#FFFFFF" d="M7.198,9.79L7.159,9.526H7.144C6.998,9.712,6.749,9.844,6.441,9.844c-0.479,0-0.747-0.347-0.747-0.708
							c0-0.601,0.532-0.903,1.411-0.898V8.198c0-0.156-0.063-0.415-0.483-0.415c-0.234,0-0.479,0.073-0.64,0.176L5.865,7.568
							c0.176-0.107,0.483-0.21,0.859-0.21c0.762,0,0.981,0.483,0.981,1.001v0.859c0,0.215,0.01,0.425,0.034,0.571H7.198z
							 M7.12,8.628c-0.425-0.01-0.83,0.083-0.83,0.444c0,0.234,0.151,0.342,0.342,0.342c0.239,0,0.415-0.156,0.469-0.327
							c0.015-0.044,0.02-0.093,0.02-0.132V8.628z"/>
						<path fill="#FFFFFF" d="M8.324,9.79c0.01-0.161,0.02-0.425,0.02-0.669V6.323h0.601v1.416h0.01
							C9.1,7.51,9.359,7.358,9.715,7.358c0.581,0,0.996,0.483,0.991,1.206c0,0.854-0.542,1.279-1.079,1.279
							c-0.308,0-0.581-0.117-0.752-0.41h-0.01L8.836,9.79H8.324z M8.944,8.809c0,0.049,0.005,0.098,0.015,0.142
							c0.063,0.239,0.273,0.42,0.532,0.42c0.376,0,0.605-0.303,0.605-0.781c0-0.42-0.2-0.762-0.601-0.762
							c-0.244,0-0.464,0.176-0.532,0.439c-0.01,0.044-0.02,0.098-0.02,0.156V8.809z"/>
						<path fill="#FFFFFF" d="M11.203,6.323h0.605V9.79h-0.605V6.323z"/>
						<path fill="#FFFFFF" d="M12.884,8.77c0.015,0.43,0.352,0.615,0.732,0.615c0.278,0,0.479-0.039,0.659-0.107l0.088,0.415
							c-0.205,0.083-0.488,0.146-0.83,0.146c-0.771,0-1.226-0.474-1.226-1.201c0-0.659,0.4-1.279,1.162-1.279
							c0.771,0,1.025,0.635,1.025,1.157c0,0.112-0.01,0.2-0.02,0.254H12.884z M13.929,8.35c0.005-0.22-0.093-0.581-0.493-0.581
							c-0.371,0-0.527,0.337-0.552,0.581H13.929z"/>
						<path fill="#FFFFFF" d="M15.67,6.733v0.679h0.571v0.449H15.67v1.05c0,0.288,0.078,0.439,0.308,0.439
							c0.103,0,0.181-0.015,0.234-0.029l0.01,0.459c-0.088,0.034-0.244,0.059-0.435,0.059c-0.22,0-0.405-0.073-0.518-0.195
							c-0.127-0.137-0.186-0.352-0.186-0.664V7.861h-0.342V7.412h0.342V6.875L15.67,6.733z"/>
						<path fill="#FFFFFF" d="M17.108,7.412l0.43,1.274c0.049,0.146,0.098,0.327,0.132,0.464h0.015
							c0.039-0.137,0.083-0.313,0.127-0.469l0.371-1.27h0.645l-0.596,1.621c-0.327,0.889-0.547,1.284-0.83,1.528
							c-0.234,0.21-0.479,0.288-0.63,0.308l-0.137-0.508c0.103-0.024,0.229-0.078,0.352-0.166c0.112-0.073,0.244-0.215,0.327-0.376
							c0.024-0.044,0.039-0.078,0.039-0.107c0-0.024-0.005-0.059-0.034-0.117l-0.869-2.183H17.108z"/>
					</g>
				</g>
			</g>
		</g>
		<g>
			<path fill="#FFFFFF" fill-opacity="0.5" d="M4.497,18.38l0.188,2.136c0,0,0.061,0.619,0.548,0.619l6.225,0.566
				c0.097,0,0.19-0.006,0.28-0.015c0.316-0.302,0.361-0.736,0.362-0.74l0.177-2.141L4.497,18.38z M12.645,18.734l-0.186,2.238
				c-0.001,0.017-0.024,0.3-0.184,0.606c0.322-0.096,0.526-0.212,0.545-0.224l4.158-2.53c0.006-0.004,0.509-0.317,0.563-0.979
				l0.18-2.029L12.645,18.734z"/>
			<g>
				<path fill="#FFFFFF" fill-opacity="0.25" d="M17.596,14.876C17.595,14.876,17.595,14.876,17.596,14.876
					c-0.046-0.231-0.172-0.363-0.305-0.441c-0.198-0.117-0.415-0.112-0.415-0.112l-3.543-0.077c0.433,0.302,0.734,0.72,0.802,1.271
					c0.006,0.041,0.008,0.085,0.014,0.129c-0.02,0.2-0.219,0.412-0.619,0.607c-1.029,0.502-2.973,0.7-4.34,0.442
					c-0.762-0.144-1.184-0.399-1.229-0.682c-0.011-0.053-0.004-0.107,0.014-0.163c0.03-0.234,0.107-0.443,0.203-0.642l-2.936,1.41
					c0,0-0.169,0.12-0.331,0.305c-0.118,0.134-0.234,0.299-0.273,0.497l-0.12,0.599l7.907,0.425l0.011-0.007l5.215-2.995
					c0.018-0.01,0.038-0.003,0.058-0.008L17.596,14.876z"/>
				<path fill="#FFFFFF" d="M14.135,15.517c-0.068-0.55-0.369-0.968-0.802-1.271c-0.556-0.387-1.336-0.579-2.183-0.563
					c-1.331,0.023-2.505,0.563-2.972,1.526c-0.096,0.198-0.173,0.408-0.203,0.642c-0.018,0.055-0.024,0.109-0.014,0.163
					c0.045,0.283,0.467,0.538,1.229,0.682c1.367,0.257,3.311,0.06,4.34-0.442c0.4-0.195,0.6-0.407,0.619-0.607
					C14.143,15.602,14.141,15.558,14.135,15.517z"/>
			</g>
		</g>
	</g>
</g>
</svg>
