<?xml version="1.0" encoding="utf-8"?>
<!-- Generator: Adobe Illustrator 16.0.3, SVG Export Plug-In . SVG Version: 6.00 Build 0)  -->
<!DOCTYPE svg PUBLIC "-//W3C//DTD SVG 1.1//EN" "http://www.w3.org/Graphics/SVG/1.1/DTD/svg11.dtd">
<svg version="1.1" xmlns="http://www.w3.org/2000/svg" xmlns:xlink="http://www.w3.org/1999/xlink" x="0px" y="0px" width="22.68px"
	 height="22.68px" viewBox="0 0 22.68 22.68" enable-background="new 0 0 22.68 22.68" xml:space="preserve">
<g id="BCGRND">
</g>
<g id="IKONY">
	<rect fill="#585857" width="22.676" height="22.678"/>
	<g>
		<g>
			<rect x="0.001" y="11.956" fill="#FFFFFF" width="22.678" height="0.889"/>
		</g>
		<g>
			<path fill="#FFFFFF" d="M2.353,2.499H1.415V1.996H3.9v0.503H2.953v2.788H2.353V2.499z"/>
			<path fill="#FFFFFF" d="M4.362,4.266c0.015,0.43,0.347,0.615,0.732,0.615c0.278,0,0.474-0.044,0.659-0.107l0.088,0.41
				c-0.205,0.088-0.488,0.151-0.83,0.151c-0.771,0-1.226-0.474-1.226-1.201c0-0.659,0.4-1.279,1.162-1.279
				c0.771,0,1.025,0.635,1.025,1.157c0,0.112-0.01,0.2-0.02,0.254H4.362z M5.407,3.846c0.005-0.22-0.093-0.581-0.493-0.581
				c-0.371,0-0.527,0.337-0.552,0.581H5.407z"/>
			<path fill="#FFFFFF" d="M6.509,1.82h0.601v3.467H6.509V1.82z"/>
			<path fill="#FFFFFF" d="M8.239,4.266c0.015,0.43,0.347,0.615,0.732,0.615c0.278,0,0.474-0.044,0.659-0.107l0.088,0.41
				C9.514,5.272,9.23,5.335,8.889,5.335c-0.771,0-1.226-0.474-1.226-1.201c0-0.659,0.4-1.279,1.162-1.279
				c0.771,0,1.025,0.635,1.025,1.157c0,0.112-0.01,0.2-0.02,0.254H8.239z M9.284,3.846c0.005-0.22-0.093-0.581-0.493-0.581
				c-0.371,0-0.527,0.337-0.552,0.581H9.284z"/>
			<path fill="#FFFFFF" d="M10.361,4.73c0.132,0.083,0.391,0.176,0.605,0.176c0.264,0,0.381-0.112,0.381-0.269
				c0-0.161-0.098-0.239-0.391-0.347c-0.464-0.156-0.654-0.41-0.654-0.693c0-0.42,0.347-0.742,0.898-0.742
				c0.264,0,0.493,0.063,0.635,0.142l-0.122,0.42c-0.098-0.059-0.293-0.137-0.503-0.137c-0.215,0-0.332,0.107-0.332,0.254
				c0,0.151,0.112,0.22,0.415,0.332c0.435,0.151,0.63,0.371,0.635,0.723c0,0.435-0.337,0.747-0.967,0.747
				c-0.288,0-0.547-0.068-0.723-0.166L10.361,4.73z"/>
			<path fill="#FFFFFF" d="M13.074,3.954h0.01c0.059-0.093,0.127-0.195,0.186-0.278l0.581-0.767h0.723L13.689,3.88l1.006,1.406
				h-0.737l-0.684-1.05l-0.2,0.239v0.811h-0.601V1.82h0.601V3.954z"/>
			<path fill="#FFFFFF" d="M17.237,4.076c0,0.874-0.615,1.265-1.221,1.265c-0.669,0-1.191-0.459-1.191-1.226
				c0-0.781,0.513-1.26,1.23-1.26C16.764,2.855,17.237,3.353,17.237,4.076z M15.445,4.1c0,0.459,0.229,0.806,0.591,0.806
				c0.342,0,0.581-0.332,0.581-0.815c0-0.371-0.166-0.801-0.576-0.801C15.616,3.29,15.445,3.705,15.445,4.1z"/>
			<path fill="#FFFFFF" d="M17.783,3.7c0-0.313-0.01-0.566-0.02-0.791h0.527l0.029,0.366h0.01c0.176-0.269,0.453-0.42,0.814-0.42
				c0.547,0,1.002,0.469,1.002,1.211c0,0.859-0.543,1.274-1.084,1.274c-0.299,0-0.547-0.127-0.67-0.317h-0.01v1.23h-0.6V3.7z
				 M18.383,4.291c0,0.059,0.006,0.112,0.016,0.166c0.063,0.244,0.273,0.42,0.531,0.42c0.381,0,0.605-0.317,0.605-0.786
				c0-0.42-0.205-0.762-0.59-0.762c-0.25,0-0.479,0.181-0.543,0.444c-0.01,0.049-0.02,0.103-0.02,0.151V4.291z"/>
			<path fill="#FFFFFF" d="M20.472,4.955c0-0.225,0.156-0.386,0.371-0.386c0.22,0,0.371,0.156,0.371,0.386
				c0,0.22-0.146,0.386-0.376,0.386C20.623,5.34,20.472,5.174,20.472,4.955z"/>
			<path fill="#FFFFFF" d="M4.57,7.409l0.386,1.206c0.068,0.21,0.117,0.4,0.161,0.596h0.015C5.176,9.015,5.229,8.83,5.293,8.615
				l0.381-1.206h0.63L5.396,9.787H4.805L3.921,7.409H4.57z"/>
			<path fill="#FFFFFF" d="M7.182,7.409l0.424,1.274C7.654,8.83,7.709,9.01,7.742,9.142h0.016C7.791,9.01,7.836,8.83,7.885,8.678
				l0.371-1.27h0.639L8.299,9.03c-0.326,0.889-0.547,1.284-0.824,1.528c-0.24,0.205-0.484,0.283-0.631,0.303l-0.137-0.503
				c0.104-0.024,0.225-0.078,0.348-0.166c0.117-0.073,0.248-0.215,0.332-0.376C7.41,9.772,7.42,9.738,7.42,9.708
				c0-0.024-0.004-0.059-0.029-0.117L6.518,7.409H7.182z M8.49,6.378L7.895,7.101H7.479l0.426-0.723H8.49z"/>
			<path fill="#FFFFFF" d="M9.211,9.23c0.131,0.083,0.391,0.176,0.605,0.176c0.264,0,0.381-0.112,0.381-0.269
				c0-0.161-0.098-0.239-0.391-0.347C9.342,8.634,9.152,8.38,9.152,8.097c0-0.42,0.346-0.742,0.898-0.742
				c0.264,0,0.492,0.063,0.635,0.142l-0.123,0.42C10.465,7.858,10.27,7.78,10.061,7.78c-0.215,0-0.332,0.107-0.332,0.254
				c0,0.151,0.111,0.22,0.414,0.332c0.436,0.151,0.631,0.371,0.635,0.723c0,0.435-0.336,0.747-0.967,0.747
				c-0.287,0-0.547-0.068-0.723-0.166L9.211,9.23z"/>
			<path fill="#FFFFFF" d="M13.451,9.074c0,0.283,0.01,0.518,0.02,0.713h-0.522L12.919,9.43h-0.015
				c-0.103,0.166-0.337,0.41-0.767,0.41s-0.825-0.259-0.825-1.035V7.409h0.601v1.294c0,0.396,0.127,0.649,0.444,0.649
				c0.244,0,0.4-0.166,0.459-0.322c0.024-0.049,0.034-0.117,0.034-0.186V7.409h0.601V9.074z"/>
			<path fill="#FFFFFF" d="M14.534,7.409l0.386,1.206c0.068,0.21,0.117,0.4,0.161,0.596h0.015c0.044-0.195,0.098-0.381,0.161-0.596
				l0.381-1.206h0.63l-0.908,2.378h-0.591l-0.884-2.378H14.534z"/>
			<path fill="#FFFFFF" d="M17.145,7.409l0.425,1.274c0.049,0.146,0.103,0.327,0.137,0.459h0.015
				c0.034-0.132,0.078-0.313,0.127-0.464l0.371-1.27h0.64L18.263,9.03c-0.327,0.889-0.547,1.284-0.825,1.528
				c-0.239,0.205-0.483,0.283-0.63,0.303l-0.137-0.503c0.103-0.024,0.225-0.078,0.347-0.166c0.117-0.073,0.249-0.215,0.332-0.376
				c0.024-0.044,0.034-0.078,0.034-0.107c0-0.024-0.005-0.059-0.029-0.117L16.48,7.409H17.145z"/>
		</g>
		<g>
			<path fill="#FFFFFF" d="M2.656,12.4v2.907h0.5v2.907h1.596v0.375h0.02c0.102,0.963,0.909,1.719,1.897,1.719h9.341
				c0.988,0,1.795-0.756,1.896-1.719h0.021v-0.375h1.596v-2.907h0.5V12.4H2.656z M5.641,17.701v-0.902h11.397v0.902H5.641z
				 M5.641,15.91v-0.946h11.397v0.946H5.641z M17.038,13.289v0.786H5.641v-0.786H17.038z M16.01,19.42H6.669
				c-0.496,0-0.892-0.361-0.988-0.83h11.317C16.902,19.059,16.506,19.42,16.01,19.42z"/>
		</g>
	</g>
</g>
</svg>
