<?xml version="1.0" encoding="utf-8"?>
<!-- Generator: Adobe Illustrator 16.0.3, SVG Export Plug-In . SVG Version: 6.00 Build 0)  -->
<!DOCTYPE svg PUBLIC "-//W3C//DTD SVG 1.1//EN" "http://www.w3.org/Graphics/SVG/1.1/DTD/svg11.dtd">
<svg version="1.1" xmlns="http://www.w3.org/2000/svg" xmlns:xlink="http://www.w3.org/1999/xlink" x="0px" y="0px" width="22.68px"
	 height="22.68px" viewBox="0 0 22.68 22.68" enable-background="new 0 0 22.68 22.68" xml:space="preserve">
<g id="BCGRND">
</g>
<g id="IKONY">
	<rect fill="#585857" width="22.676" height="22.678"/>
	<g>
		<g>
			<path fill="#FFFFFF" d="M22.678,17.756l-2.289-0.275c-0.986-2.217-1.512-2.557-1.512-2.557l-1.498-1.069
				c-0.799-0.571-1.458-0.792-1.964-0.858c0.683,0.435,1.694,1.1,2.483,1.689c0.068,0.045,0.073,0.133,0.027,0.195
				c-0.045,0.061-0.133,0.074-0.193,0.027c-0.955-0.717-2.246-1.542-2.861-1.93c-0.269,0.023-0.451,0.089-0.532,0.126
				c0.764,0.487,2.256,1.454,3.128,2.11c0.067,0.049,0.074,0.133,0.026,0.193c-0.047,0.063-0.133,0.074-0.191,0.027
				c-0.924-0.693-2.549-1.738-3.252-2.186c-0.478,0.31-0.147,0.551,2.091,2.174c2.265,1.641,1.614,2.143,1.614,2.143
				c-0.241-0.039-0.618,0.012-1.859-1.029c-0.83-0.697-1.163-0.324-1.163-0.324c0.043,0.57,1.776,2.229,2.694,2.711
				c0.492,0.258,3.147,1.402,5.249,2.262L22.678,17.756z"/>
		</g>
	</g>
	<g>
		<g>
			<g>
				<rect x="0" y="7.769" fill="#FFFFFF" width="22.678" height="0.889"/>
			</g>
			<g>
				<g>
					<path fill="#FFFFFF" d="M4.909,4.309C4.895,3.913,4.88,3.435,4.88,2.956H4.865C4.763,3.376,4.626,3.845,4.499,4.23l-0.4,1.284
						H3.518L3.166,4.24c-0.107-0.386-0.22-0.854-0.298-1.284h-0.01C2.839,3.4,2.824,3.908,2.8,4.318l-0.059,1.25H2.053l0.21-3.291
						h0.991l0.322,1.099c0.103,0.381,0.205,0.791,0.278,1.177h0.015c0.093-0.381,0.205-0.815,0.313-1.182l0.352-1.094h0.972
						l0.181,3.291H4.958L4.909,4.309z"/>
					<path fill="#FFFFFF" d="M7.659,5.568L7.615,5.329H7.6C7.444,5.52,7.2,5.622,6.917,5.622c-0.483,0-0.771-0.352-0.771-0.732
						c0-0.62,0.557-0.918,1.401-0.913V3.942c0-0.127-0.068-0.308-0.435-0.308c-0.244,0-0.503,0.083-0.659,0.181L6.316,3.337
						c0.166-0.093,0.493-0.21,0.928-0.21c0.796,0,1.05,0.469,1.05,1.03v0.83c0,0.229,0.01,0.449,0.034,0.581H7.659z M7.571,4.44
						C7.18,4.436,6.878,4.528,6.878,4.816c0,0.19,0.127,0.283,0.293,0.283c0.186,0,0.337-0.122,0.386-0.273
						c0.01-0.039,0.015-0.083,0.015-0.127V4.44z"/>
					<path fill="#FFFFFF" d="M9.498,3.181l0.234,0.396C9.801,3.698,9.865,3.82,9.928,3.933h0.01
						c0.063-0.127,0.122-0.249,0.186-0.366l0.21-0.386h0.806l-0.786,1.138l0.796,1.25h-0.84l-0.239-0.43
						c-0.068-0.117-0.127-0.239-0.186-0.361H9.869C9.811,4.904,9.747,5.021,9.689,5.139l-0.225,0.43H8.649l0.811-1.216L8.668,3.181
						H9.498z"/>
					<path fill="#FFFFFF" d="M11.464,5.173c0-0.264,0.181-0.454,0.439-0.454s0.435,0.186,0.435,0.454
						c0,0.259-0.176,0.449-0.439,0.449C11.645,5.622,11.464,5.432,11.464,5.173z"/>
					<path fill="#FFFFFF" d="M14.406,2.194c-0.278,0.449-0.493,1.104-0.493,1.978c0,0.859,0.22,1.509,0.493,1.963h-0.518
						c-0.264-0.376-0.557-1.025-0.557-1.968c0.005-0.947,0.293-1.592,0.557-1.973H14.406z"/>
					<path fill="#FFFFFF" d="M16.239,2.937c0,0.42-0.347,0.723-0.747,0.723c-0.43,0-0.737-0.317-0.737-0.708
						c-0.005-0.405,0.327-0.728,0.742-0.728C15.936,2.224,16.239,2.551,16.239,2.937z M15.145,2.946c0,0.21,0.151,0.371,0.352,0.371
						s0.347-0.161,0.347-0.376c0-0.19-0.122-0.376-0.347-0.376C15.282,2.565,15.145,2.746,15.145,2.946z"/>
					<path fill="#FFFFFF" d="M19.151,5.476c-0.137,0.068-0.444,0.142-0.845,0.142c-1.138,0-1.724-0.708-1.724-1.646
						c0-1.123,0.801-1.748,1.797-1.748c0.386,0,0.679,0.078,0.811,0.146l-0.151,0.591c-0.151-0.063-0.361-0.122-0.625-0.122
						c-0.591,0-1.05,0.356-1.05,1.089c0,0.659,0.391,1.074,1.055,1.074c0.225,0,0.474-0.049,0.62-0.107L19.151,5.476z"/>
					<path fill="#FFFFFF" d="M19.585,6.135c0.269-0.449,0.493-1.108,0.493-1.973s-0.22-1.514-0.493-1.968h0.518
						c0.259,0.376,0.557,1.016,0.557,1.968c-0.005,0.952-0.298,1.592-0.557,1.973H19.585z"/>
				</g>
			</g>
		</g>
		<rect x="6.198" y="11.969" opacity="0.25" fill="#FFFFFF" width="10.281" height="5.925"/>
		<g opacity="0.5">
			<g>
				<path fill="#FFFFFF" d="M16.717,20.291H5.961c-1.333,0-2.418-1.084-2.418-2.418V7.93h1v9.943c0,0.781,0.636,1.418,1.418,1.418
					h10.756c0.782,0,1.418-0.637,1.418-1.418V7.93h1v9.943C19.135,19.207,18.05,20.291,16.717,20.291z"/>
			</g>
		</g>
		<g opacity="0.5">
			<g>
				<circle fill="#FFFFFF" cx="15.84" cy="10.246" r="0.771"/>
				<circle fill="#FFFFFF" cx="13.399" cy="10.246" r="0.771"/>
			</g>
		</g>
		<g opacity="0.5">
			<g>
				<circle fill="#FFFFFF" cx="9.44" cy="10.246" r="0.771"/>
				<circle fill="#FFFFFF" cx="6.998" cy="10.246" r="0.771"/>
			</g>
		</g>
		<g>
			<g>
				<path fill="#FFFFFF" d="M15.031,17.894h-0.917v-0.5h0.917V17.894z M13.414,17.894h-0.918v-0.5h0.918V17.894z M11.798,17.894
					H10.88v-0.5h0.918V17.894z M10.181,17.894H9.264v-0.5h0.917V17.894z M8.565,17.894H7.648v-0.5h0.917V17.894z"/>
			</g>
			<g>
				<polygon fill="#FFFFFF" points="6.948,17.894 6.198,17.894 6.198,17.144 6.698,17.144 6.698,17.394 6.948,17.394 				"/>
			</g>
			<g>
				<path fill="#FFFFFF" d="M6.698,16.357h-0.5v-1.033h0.5V16.357z M6.698,14.538h-0.5v-1.032h0.5V14.538z"/>
			</g>
			<g>
				<polygon fill="#FFFFFF" points="6.698,12.719 6.198,12.719 6.198,11.969 6.948,11.969 6.948,12.469 6.698,12.469 				"/>
			</g>
			<g>
				<path fill="#FFFFFF" d="M15.031,12.469h-0.917v-0.5h0.917V12.469z M13.414,12.469h-0.917v-0.5h0.917V12.469z M11.798,12.469
					H10.88v-0.5h0.918V12.469z M10.182,12.469H9.264v-0.5h0.918V12.469z M8.565,12.469H7.648v-0.5h0.917V12.469z"/>
			</g>
			<g>
				<polygon fill="#FFFFFF" points="16.48,12.469 15.98,12.469 15.98,12.469 15.73,12.469 15.73,11.969 16.48,11.969 				"/>
			</g>
		</g>
		<g>
			<path fill="#FFFFFF" d="M10.778,13.977h-1.23l-0.068,0.488c0.068-0.01,0.127-0.01,0.205-0.01c0.303,0,0.61,0.068,0.835,0.23
				c0.239,0.16,0.386,0.424,0.386,0.795c0,0.592-0.508,1.113-1.362,1.113c-0.386,0-0.708-0.088-0.884-0.18l0.132-0.557
				c0.142,0.068,0.43,0.156,0.718,0.156c0.308,0,0.635-0.146,0.635-0.484c0-0.326-0.259-0.527-0.894-0.527
				c-0.176,0-0.298,0.01-0.43,0.029l0.21-1.664h1.748V13.977z"/>
			<path fill="#FFFFFF" d="M13.814,14.939c0,0.98-0.396,1.654-1.206,1.654c-0.82,0-1.182-0.736-1.187-1.635
				c0-0.918,0.391-1.646,1.211-1.646C13.482,13.313,13.814,14.07,13.814,14.939z M12.168,14.959
				c-0.005,0.727,0.171,1.074,0.459,1.074s0.444-0.361,0.444-1.084c0-0.703-0.151-1.074-0.449-1.074
				C12.349,13.875,12.163,14.221,12.168,14.959z"/>
		</g>
	</g>
</g>
</svg>
