<?xml version="1.0" encoding="utf-8"?>
<!-- Generator: Adobe Illustrator 16.0.3, SVG Export Plug-In . SVG Version: 6.00 Build 0)  -->
<!DOCTYPE svg PUBLIC "-//W3C//DTD SVG 1.1//EN" "http://www.w3.org/Graphics/SVG/1.1/DTD/svg11.dtd">
<svg version="1.1" xmlns="http://www.w3.org/2000/svg" xmlns:xlink="http://www.w3.org/1999/xlink" x="0px" y="0px" width="22.68px"
	 height="22.68px" viewBox="0 0 22.68 22.68" enable-background="new 0 0 22.68 22.68" xml:space="preserve">
<g id="BCGRND">
</g>
<g id="IKONY">
	<rect fill="#585857" width="22.676" height="22.678"/>
	<g>
		<g>
			<path fill="#FFFFFF" d="M1.601,2.781H0.664V2.277h2.485v0.504H2.202v2.787H1.601V2.781z"/>
			<path fill="#FFFFFF" d="M2.927,3.957c0-0.322-0.005-0.557-0.02-0.766h0.518l0.024,0.449h0.015
				c0.117-0.332,0.396-0.504,0.654-0.504c0.059,0,0.093,0.006,0.142,0.016v0.561c-0.054-0.01-0.107-0.014-0.181-0.014
				c-0.283,0-0.483,0.18-0.537,0.453C3.532,4.207,3.527,4.27,3.527,4.334v1.234H2.927V3.957z"/>
			<path fill="#FFFFFF" d="M6.737,4.357c0,0.875-0.615,1.266-1.221,1.266c-0.669,0-1.191-0.459-1.191-1.227
				c0-0.781,0.513-1.26,1.23-1.26C6.264,3.137,6.737,3.635,6.737,4.357z M4.945,4.383c0,0.459,0.229,0.805,0.591,0.805
				c0.342,0,0.581-0.332,0.581-0.814c0-0.371-0.166-0.801-0.576-0.801C5.116,3.572,4.945,3.986,4.945,4.383z"/>
			<path fill="#FFFFFF" d="M9.216,4.855c0,0.283,0.01,0.518,0.02,0.713H8.713L8.684,5.213H8.669c-0.103,0.166-0.337,0.41-0.767,0.41
				s-0.825-0.26-0.825-1.035V3.191h0.601v1.293c0,0.396,0.127,0.65,0.444,0.65c0.244,0,0.4-0.166,0.459-0.322
				c0.024-0.049,0.034-0.117,0.034-0.186V3.191h0.601V4.855z"/>
			<path fill="#FFFFFF" d="M9.722,2.102h0.601v1.416h0.01c0.146-0.229,0.405-0.381,0.762-0.381c0.581,0,0.996,0.484,0.991,1.207
				c0,0.854-0.542,1.279-1.079,1.279c-0.308,0-0.581-0.117-0.752-0.41h-0.01l-0.029,0.355H9.703c0.01-0.16,0.02-0.424,0.02-0.668
				V2.102z M10.323,4.588c0,0.049,0.005,0.098,0.015,0.141c0.063,0.244,0.273,0.42,0.532,0.42c0.376,0,0.605-0.297,0.605-0.781
				c0-0.42-0.2-0.762-0.601-0.762c-0.244,0-0.469,0.176-0.532,0.439c-0.01,0.045-0.02,0.098-0.02,0.156V4.588z"/>
			<path fill="#FFFFFF" d="M14.281,4.998c0,0.215,0.01,0.424,0.039,0.57h-0.542l-0.044-0.264H13.72
				c-0.142,0.186-0.391,0.318-0.703,0.318c-0.479,0-0.747-0.348-0.747-0.709c0-0.596,0.532-0.902,1.411-0.898V3.977
				c0-0.156-0.063-0.414-0.483-0.414c-0.234,0-0.479,0.072-0.64,0.176L12.44,3.348c0.176-0.107,0.483-0.211,0.859-0.211
				c0.762,0,0.981,0.484,0.981,1.006V4.998z M13.695,4.406c-0.425-0.004-0.83,0.084-0.83,0.445c0,0.234,0.151,0.342,0.342,0.342
				c0.244,0,0.415-0.156,0.474-0.328c0.015-0.043,0.015-0.088,0.015-0.131V4.406z"/>
			<path fill="#FFFFFF" d="M15.428,5.568V5.203l0.376-0.348c0.747-0.693,1.099-1.074,1.104-1.494c0-0.283-0.151-0.531-0.566-0.531
				c-0.283,0-0.518,0.141-0.679,0.264l-0.176-0.426c0.229-0.186,0.576-0.326,0.977-0.326c0.703,0,1.045,0.443,1.045,0.961
				c0,0.557-0.4,1.006-0.957,1.52l-0.273,0.238v0.01h1.299v0.498H15.428z"/>
			<path fill="#FFFFFF" d="M18.282,3.191l0.386,1.205c0.068,0.211,0.117,0.4,0.161,0.596h0.015c0.044-0.195,0.098-0.381,0.161-0.596
				l0.381-1.205h0.63l-0.908,2.377h-0.591l-0.884-2.377H18.282z"/>
			<path fill="#FFFFFF" d="M20.663,2.938h-0.01L20.072,3.23l-0.103-0.455l0.776-0.381h0.498v3.174h-0.581V2.938z"/>
		</g>
		<g opacity="0.5">
			<path fill="#FFFFFF" d="M4.044,7.93v9.943c0,1.059,0.859,1.918,1.918,1.918h10.756c1.057,0,1.918-0.859,1.918-1.918V7.93H4.044z"
				/>
		</g>
		<path fill="#FFFFFF" d="M0.001,7.769v0.889h3.543v9.216c0,1.333,1.084,2.418,2.418,2.418h10.756c1.333,0,2.418-1.085,2.418-2.418
			V8.657h3.543V7.769H0.001z M18.136,13.469v1v3.404c0,0.782-0.636,1.418-1.418,1.418H5.962c-0.782,0-1.418-0.636-1.418-1.418
			v-3.404v-1V8.657h13.592V13.469z M15,13.469h-1.046v1H15V13.469z M17.09,13.469h-1.045v1h1.045V13.469z M12.908,13.469h-1.045v1
			h1.045V13.469z M10.817,13.469H9.771v1h1.046V13.469z M6.635,13.469H5.589v1h1.046V13.469z M8.726,13.469H7.681v1h1.045V13.469z"
			/>
	</g>
</g>
</svg>
