<?xml version="1.0" encoding="utf-8"?>
<!-- Generator: Adobe Illustrator 16.0.3, SVG Export Plug-In . SVG Version: 6.00 Build 0)  -->
<!DOCTYPE svg PUBLIC "-//W3C//DTD SVG 1.1//EN" "http://www.w3.org/Graphics/SVG/1.1/DTD/svg11.dtd">
<svg version="1.1" xmlns="http://www.w3.org/2000/svg" xmlns:xlink="http://www.w3.org/1999/xlink" x="0px" y="0px" width="22.68px"
	 height="22.68px" viewBox="0 0 22.68 22.68" enable-background="new 0 0 22.68 22.68" xml:space="preserve">
<g id="BCGRND">
</g>
<g id="IKONY">
	<polygon fill="#585857" points="22.678,16.335 22.678,0 0,0 0,22.678 14.117,22.678 22.678,22.678 	"/>
	<g>
		<path fill="#FFFFFF" d="M15.144,8.428c-0.009,0.144-0.118,0.266-0.268,0.284c-0.014,0.001-0.024,0.001-0.037,0.001
			c-0.152,0-0.284-0.114-0.303-0.27c-0.125-1.04-1.127-2.057-2.594-1.959c-0.985,0.066-1.527,0.644-1.772,1.007
			c0.153,0.063,0.229,0.236,0.172,0.39c-0.059,0.159-0.235,0.239-0.394,0.18C8.936,7.682,8.111,7.861,7.501,8.594
			c-0.421,0.504-0.503,1.5,0.102,2.23c0.441,0.534,1.007,0.667,1.337,0.697v-0.316c0-0.169,0.137-0.306,0.306-0.306
			s0.306,0.137,0.306,0.306v3.354h4.884v-2.884l0,0c0-0.001,0-0.001,0-0.001v-0.469c0-0.169,0.139-0.306,0.308-0.306
			c0.167,0,0.304,0.137,0.304,0.306v0.145c0.561-0.072,1.035-0.339,1.282-0.733c0.394-0.626,0.204-1.337-0.187-1.715
			C15.841,8.609,15.438,8.483,15.144,8.428z M9.551,15.7c0.003,0.115,0.063,0.115,0.12,0.115h4.644c0.022,0,0.071-0.002,0.091-0.021
			c0.022-0.023,0.029-0.081,0.029-0.086V15.17H9.551V15.7z M14.835,4.736l0.706-1.908l-0.598-0.207
			c-0.7-0.24-1.545-0.387-2.436-0.387c-1.761,0-3.431,0.294-5.011,1.179C4.72,4.97,3.001,7.411,3.001,10.855
			c0,3.703,1.507,5.507,2.764,6.764c0.932,0.931,2.271,1.577,2.961,1.901c-0.027,0.094-0.056,0.19-0.081,0.281
			c-0.088,0.344,0.017,0.575,0.12,0.709c0.135,0.174,0.344,0.274,0.577,0.274c0.201,0,0.377-0.077,0.444-0.11l1.455-0.76l0.041-0.03
			c0.436-0.325,0.432-0.877,0.245-1.253l-0.008-0.015l-0.006-0.015c-0.003-0.003-0.108-0.189-0.237-0.418
			c0.266,0.031,0.534,0.047,0.807,0.047c3.881,0,7.027-3.146,7.027-7.027C19.111,8.3,17.349,5.807,14.835,4.736z M10.911,19.388
			L9.509,20.12c0,0-0.35,0.176-0.264-0.164c0.088-0.338,0.251-0.775,0.251-0.775s-1.878-0.721-3.157-2
			c-1.278-1.277-2.52-2.8-2.52-6.325c0-3.388,2.374-5.769,4.05-6.789c1.675-1.021,4.755-1.588,6.873-0.859l-0.488,1.312
			c-0.684-0.221-1.413-0.342-2.171-0.342c-2.642,0-4.98,1.286-6.181,3.441c-1.147,1.724-1.241,3.901-0.907,5.619
			c0.503,2.578,2.296,4.566,4.728,5.397l0.2-0.741l0.044-0.155c0,0,0.177-0.354,0.349-0.022c0.045,0.086,0.108,0.205,0.181,0.334
			c0.207,0.381,0.478,0.857,0.478,0.857S11.13,19.225,10.911,19.388z M16.848,10.941c-0.355,0.567-1.029,0.943-1.802,1.022V15.7
			c0,0.044-0.003,0.314-0.204,0.521c-0.091,0.095-0.257,0.207-0.527,0.207H9.671c-0.27,0-0.437-0.112-0.528-0.207
			c-0.201-0.206-0.204-0.477-0.203-0.528v-0.828v-2.731c-0.437-0.029-1.209-0.194-1.809-0.918c-0.731-0.883-0.773-2.207-0.1-3.013
			c0.645-0.772,1.527-1.076,2.526-0.883c0.256-0.44,0.948-1.352,2.345-1.444c1.556-0.103,2.696,0.821,3.101,1.915
			c0.354,0.038,1.053,0.175,1.564,0.673C17.231,9.102,17.346,10.145,16.848,10.941z"/>
	</g>
</g>
</svg>
