<?xml version="1.0" encoding="utf-8"?>
<!-- Generator: Adobe Illustrator 16.0.3, SVG Export Plug-In . SVG Version: 6.00 Build 0)  -->
<!DOCTYPE svg PUBLIC "-//W3C//DTD SVG 1.1//EN" "http://www.w3.org/Graphics/SVG/1.1/DTD/svg11.dtd">
<svg version="1.1" xmlns="http://www.w3.org/2000/svg" xmlns:xlink="http://www.w3.org/1999/xlink" x="0px" y="0px" width="22.68px"
	 height="22.68px" viewBox="0 0 22.68 22.68" enable-background="new 0 0 22.68 22.68" xml:space="preserve">
<g id="BCGRND">
</g>
<g id="IKONY">
	<g>
		<rect x="0.001" fill="#585857" width="22.677" height="22.677"/>
		<g>
			<g>
				<rect x="0.001" y="11.956" fill="#FFFFFF" width="22.678" height="0.889"/>
			</g>
			<g>
				<g>
					<path fill="#FFFFFF" d="M3.921,5.287L2.856,1.996h0.654L3.96,3.49c0.127,0.415,0.234,0.801,0.322,1.201h0.01
						C4.38,4.301,4.497,3.9,4.629,3.5l0.479-1.504h0.64L4.609,5.287H3.921z"/>
					<path fill="#FFFFFF" d="M6.146,1.82h0.605v1.416h0.01C6.835,3.124,6.933,3.031,7.06,2.963c0.117-0.068,0.259-0.107,0.41-0.107
						c0.405,0,0.83,0.269,0.83,1.03v1.401H7.699V3.954c0-0.347-0.127-0.605-0.459-0.605c-0.234,0-0.4,0.156-0.464,0.337
						c-0.02,0.049-0.024,0.112-0.024,0.181v1.421H6.146V1.82z"/>
					<path fill="#FFFFFF" d="M11.302,4.076c0,0.874-0.615,1.265-1.221,1.265c-0.674,0-1.191-0.464-1.191-1.226
						c0-0.781,0.512-1.26,1.23-1.26C10.827,2.855,11.302,3.354,11.302,4.076z M9.509,4.101c0,0.459,0.225,0.806,0.592,0.806
						c0.342,0,0.58-0.337,0.58-0.815c0-0.371-0.166-0.796-0.576-0.796C9.681,3.295,9.509,3.705,9.509,4.101z"/>
					<path fill="#FFFFFF" d="M14.089,1.82v2.798c0,0.244,0.01,0.508,0.02,0.669h-0.537l-0.025-0.376h-0.01
						c-0.141,0.264-0.43,0.43-0.775,0.43c-0.566,0-1.016-0.483-1.016-1.216c-0.006-0.796,0.492-1.27,1.064-1.27
						c0.326,0,0.561,0.137,0.668,0.313h0.01V1.82H14.089z M13.487,3.9c0-0.049-0.004-0.107-0.014-0.156
						c-0.055-0.234-0.244-0.425-0.518-0.425c-0.387,0-0.602,0.342-0.602,0.786c0,0.435,0.215,0.752,0.596,0.752
						c0.244,0,0.459-0.166,0.518-0.425c0.016-0.054,0.02-0.112,0.02-0.176V3.9z"/>
					<path fill="#FFFFFF" d="M14.834,3.617c0-0.273-0.005-0.503-0.02-0.708h0.527l0.029,0.356h0.015
						c0.103-0.186,0.361-0.41,0.757-0.41c0.415,0,0.845,0.269,0.845,1.021v1.411h-0.601V3.944c0-0.342-0.127-0.601-0.454-0.601
						c-0.239,0-0.405,0.171-0.469,0.352c-0.02,0.054-0.024,0.127-0.024,0.195v1.396h-0.605V3.617z"/>
					<path fill="#FFFFFF" d="M18.153,4.267c0.015,0.43,0.352,0.615,0.732,0.615c0.278,0,0.479-0.039,0.659-0.107l0.088,0.415
						c-0.205,0.083-0.488,0.146-0.83,0.146c-0.771,0-1.226-0.474-1.226-1.201c0-0.659,0.4-1.279,1.162-1.279
						c0.771,0,1.025,0.635,1.025,1.157c0,0.112-0.01,0.2-0.02,0.254H18.153z M19.198,3.847c0.005-0.22-0.093-0.581-0.493-0.581
						c-0.371,0-0.527,0.337-0.552,0.581H19.198z M19.472,1.879l-0.601,0.723h-0.415l0.425-0.723H19.472z"/>
					<path fill="#FFFFFF" d="M3.435,6.32v2.798c0,0.244,0.01,0.508,0.02,0.669H2.917L2.894,9.411h-0.01
						c-0.143,0.264-0.43,0.43-0.777,0.43c-0.566,0-1.016-0.483-1.016-1.216c-0.004-0.796,0.494-1.27,1.064-1.27
						c0.328,0,0.563,0.137,0.67,0.313h0.01V6.32H3.435z M2.835,8.4c0-0.049-0.006-0.107-0.016-0.156
						C2.767,8.01,2.575,7.819,2.302,7.819c-0.385,0-0.6,0.342-0.6,0.786c0,0.435,0.215,0.752,0.596,0.752
						c0.244,0,0.459-0.166,0.518-0.425c0.014-0.054,0.02-0.112,0.02-0.176V8.4z"/>
					<path fill="#FFFFFF" d="M6.442,8.576c0,0.874-0.615,1.265-1.221,1.265c-0.674,0-1.191-0.464-1.191-1.226
						c0-0.781,0.512-1.26,1.23-1.26C5.968,7.355,6.442,7.854,6.442,8.576z M4.649,8.601c0,0.459,0.225,0.806,0.592,0.806
						c0.342,0,0.58-0.337,0.58-0.815c0-0.371-0.166-0.796-0.576-0.796C4.821,7.795,4.649,8.205,4.649,8.601z"/>
					<path fill="#FFFFFF" d="M8.146,8.117c0-0.273-0.004-0.503-0.02-0.708h0.518l0.025,0.352h0.014
						C8.8,7.575,9.015,7.355,9.415,7.355c0.313,0,0.557,0.176,0.66,0.439h0.01c0.082-0.132,0.18-0.229,0.293-0.298
						c0.131-0.093,0.283-0.142,0.479-0.142c0.395,0,0.795,0.269,0.795,1.03v1.401h-0.586V8.474c0-0.396-0.137-0.63-0.424-0.63
						c-0.205,0-0.357,0.146-0.42,0.317c-0.016,0.059-0.029,0.132-0.029,0.2v1.426H9.606V8.41c0-0.332-0.133-0.566-0.41-0.566
						c-0.225,0-0.377,0.176-0.43,0.342C8.741,8.244,8.731,8.313,8.731,8.381v1.406H8.146V8.117z"/>
					<path fill="#FFFFFF" d="M12.687,7.409l0.43,1.274c0.049,0.146,0.098,0.327,0.133,0.464h0.014
						c0.039-0.137,0.084-0.313,0.127-0.469l0.371-1.27h0.645L13.81,9.03c-0.326,0.889-0.547,1.284-0.83,1.528
						c-0.234,0.21-0.479,0.288-0.629,0.308l-0.137-0.508c0.102-0.024,0.229-0.078,0.352-0.166c0.111-0.073,0.244-0.215,0.326-0.376
						c0.025-0.044,0.039-0.078,0.039-0.107c0-0.024-0.004-0.059-0.033-0.117l-0.869-2.183H12.687z"/>
					<path fill="#FFFFFF" d="M16.538,9.714c-0.127,0.059-0.376,0.122-0.674,0.122c-0.742,0-1.226-0.474-1.226-1.211
						c0-0.713,0.488-1.27,1.323-1.27c0.22,0,0.444,0.049,0.581,0.112l-0.107,0.449c-0.098-0.044-0.239-0.093-0.454-0.093
						c-0.459,0-0.732,0.337-0.728,0.771c0,0.488,0.317,0.767,0.728,0.767c0.21,0,0.356-0.044,0.474-0.093L16.538,9.714z
						 M15.557,7.102l-0.474-0.723h0.41l0.269,0.444h0.01l0.264-0.444h0.41l-0.474,0.723H15.557z"/>
					<path fill="#FFFFFF" d="M17.684,8.454h0.01c0.059-0.093,0.127-0.195,0.19-0.278l0.576-0.767h0.723l-0.879,0.972l1.006,1.406
						h-0.737l-0.684-1.05l-0.205,0.239v0.811h-0.601V6.32h0.601V8.454z"/>
					<path fill="#FFFFFF" d="M20.084,7.409l0.43,1.274c0.049,0.146,0.098,0.327,0.132,0.464h0.015
						c0.039-0.137,0.083-0.313,0.127-0.469l0.371-1.27h0.645L21.207,9.03c-0.327,0.889-0.547,1.284-0.83,1.528
						c-0.234,0.21-0.479,0.288-0.63,0.308l-0.137-0.508c0.103-0.024,0.229-0.078,0.352-0.166c0.112-0.073,0.244-0.215,0.327-0.376
						c0.024-0.044,0.039-0.078,0.039-0.107c0-0.024-0.005-0.059-0.034-0.117l-0.869-2.183H20.084z"/>
				</g>
			</g>
		</g>
		<path fill="#FFFFFF" d="M16.441,20.436c0,0-0.852,1.514-0.852,1.983c0,0.092,0.025,0.177,0.053,0.259c0.486,0,0.94,0,1.333,0
			h0.265c0.027-0.082,0.053-0.167,0.053-0.259C17.293,21.949,16.441,20.436,16.441,20.436z"/>
		<path opacity="0.5" fill="#FFFFFF" d="M8.787,20.436c0,0-0.85,1.514-0.85,1.983c0,0.092,0.025,0.177,0.053,0.259h1.597
			c0.026-0.082,0.052-0.167,0.052-0.259C9.639,21.949,8.787,20.436,8.787,20.436z"/>
		<path fill="#FFFFFF" d="M11.338,20.436c0,0-0.85,1.514-0.85,1.983c0,0.092,0.025,0.177,0.053,0.259h0.72c0.265,0,0.564,0,0.877,0
			c0.026-0.082,0.052-0.167,0.052-0.259C12.189,21.949,11.338,20.436,11.338,20.436z"/>
		<path opacity="0.5" fill="#FFFFFF" d="M13.889,20.436c0,0-0.85,1.514-0.85,1.983c0,0.092,0.025,0.177,0.053,0.259
			c0.522,0,1.063,0,1.596,0c0.027-0.082,0.053-0.167,0.053-0.259C14.74,21.949,13.889,20.436,13.889,20.436z"/>
		<path opacity="0.5" fill="#FFFFFF" d="M18.992,20.436c0,0-0.85,1.514-0.85,1.983c0,0.092,0.025,0.177,0.053,0.259h1.597
			c0.026-0.082,0.052-0.167,0.052-0.259C19.844,21.949,18.992,20.436,18.992,20.436z"/>
		<path fill="#FFFFFF" d="M6.236,20.436c0,0-0.852,1.514-0.852,1.983c0,0.092,0.025,0.177,0.053,0.259h1.598
			c0.027-0.082,0.053-0.167,0.053-0.259C7.088,21.949,6.236,20.436,6.236,20.436z"/>
		<path opacity="0.5" fill="#FFFFFF" d="M3.684,20.436c0,0-0.852,1.514-0.852,1.983c0,0.092,0.025,0.177,0.053,0.259h1.598
			c0.027-0.082,0.053-0.167,0.053-0.259C4.535,21.949,3.684,20.436,3.684,20.436z"/>
		<path fill="#FFFFFF" d="M17.293,15.415c0-0.47-0.852-1.983-0.852-1.983s-0.852,1.514-0.852,1.983s0.383,0.852,0.852,0.852
			C16.912,16.267,17.293,15.885,17.293,15.415z"/>
		<path opacity="0.5" fill="#FFFFFF" d="M9.639,15.415c0-0.47-0.852-1.983-0.852-1.983s-0.85,1.514-0.85,1.983
			s0.381,0.852,0.85,0.852C9.26,16.267,9.639,15.885,9.639,15.415z"/>
		<path fill="#FFFFFF" d="M12.189,15.415c0-0.47-0.852-1.983-0.852-1.983s-0.85,1.514-0.85,1.983s0.381,0.852,0.85,0.852
			C11.811,16.267,12.189,15.885,12.189,15.415z"/>
		<path opacity="0.5" fill="#FFFFFF" d="M14.74,15.415c0-0.47-0.852-1.983-0.852-1.983s-0.85,1.514-0.85,1.983
			s0.381,0.852,0.85,0.852C14.359,16.267,14.74,15.885,14.74,15.415z"/>
		<path opacity="0.5" fill="#FFFFFF" d="M19.844,15.415c0-0.47-0.852-1.983-0.852-1.983s-0.85,1.514-0.85,1.983
			s0.381,0.852,0.85,0.852C19.465,16.267,19.844,15.885,19.844,15.415z"/>
		<path fill="#FFFFFF" d="M22.396,15.415c0-0.47-0.854-1.983-0.854-1.983s-0.85,1.514-0.85,1.983s0.381,0.852,0.85,0.852
			C22.016,16.267,22.396,15.885,22.396,15.415z"/>
		<path fill="#FFFFFF" d="M7.088,15.415c0-0.47-0.852-1.983-0.852-1.983s-0.852,1.514-0.852,1.983s0.381,0.852,0.852,0.852
			C6.705,16.267,7.088,15.885,7.088,15.415z"/>
		<path opacity="0.5" fill="#FFFFFF" d="M4.535,15.415c0-0.47-0.852-1.983-0.852-1.983s-0.852,1.514-0.852,1.983
			s0.383,0.852,0.852,0.852C4.154,16.267,4.535,15.885,4.535,15.415z"/>
		<path fill="#FFFFFF" d="M1.982,15.415c0-0.47-0.85-1.983-0.85-1.983s-0.85,1.514-0.85,1.983s0.379,0.852,0.85,0.852
			S1.982,15.885,1.982,15.415z"/>
		<path fill="#FFFFFF" d="M16.867,18.917c0,0.47,0.383,0.852,0.852,0.852c0.471,0,0.852-0.382,0.852-0.852s-0.852-1.983-0.852-1.983
			S16.867,18.447,16.867,18.917z"/>
		<path opacity="0.5" fill="#FFFFFF" d="M9.215,18.917c0,0.47,0.381,0.852,0.85,0.852c0.473,0,0.852-0.382,0.852-0.852
			s-0.852-1.983-0.852-1.983S9.215,18.447,9.215,18.917z"/>
		<path fill="#FFFFFF" d="M11.764,18.917c0,0.47,0.381,0.852,0.85,0.852c0.473,0,0.852-0.382,0.852-0.852s-0.852-1.983-0.852-1.983
			S11.764,18.447,11.764,18.917z"/>
		<path opacity="0.5" fill="#FFFFFF" d="M14.314,18.917c0,0.47,0.381,0.852,0.85,0.852c0.473,0,0.854-0.382,0.854-0.852
			s-0.854-1.983-0.854-1.983S14.314,18.447,14.314,18.917z"/>
		<path opacity="0.5" fill="#FFFFFF" d="M19.42,18.917c0,0.47,0.381,0.852,0.85,0.852c0.471,0,0.852-0.382,0.852-0.852
			s-0.852-1.983-0.852-1.983S19.42,18.447,19.42,18.917z"/>
		<path fill="#FFFFFF" d="M22.679,17.191c-0.241,0.451-0.71,1.376-0.71,1.726c0,0.42,0.311,0.754,0.71,0.823v-0.548
			C22.679,18.625,22.679,17.926,22.679,17.191z"/>
		<path fill="#FFFFFF" d="M6.662,18.917c0,0.47,0.381,0.852,0.852,0.852c0.469,0,0.852-0.382,0.852-0.852s-0.852-1.983-0.852-1.983
			S6.662,18.447,6.662,18.917z"/>
		<path opacity="0.5" fill="#FFFFFF" d="M4.109,18.917c0,0.47,0.383,0.852,0.852,0.852c0.471,0,0.852-0.382,0.852-0.852
			s-0.852-1.983-0.852-1.983S4.109,18.447,4.109,18.917z"/>
		<path fill="#FFFFFF" d="M1.561,18.917c0,0.47,0.379,0.852,0.85,0.852s0.85-0.382,0.85-0.852s-0.85-1.983-0.85-1.983
			S1.561,18.447,1.561,18.917z"/>
		<path opacity="0.5" fill="#FFFFFF" d="M0.707,18.917c0-0.349-0.464-1.265-0.706-1.719v2.541C0.4,19.669,0.707,19.336,0.707,18.917
			z"/>
		<path fill="#FFFFFF" d="M1.133,20.436c0,0-0.852,1.514-0.852,1.983c0,0.092,0.025,0.177,0.053,0.259h1.598
			c0.027-0.082,0.053-0.167,0.053-0.259C1.984,21.949,1.133,20.436,1.133,20.436z"/>
		<path fill="#FFFFFF" d="M21.543,20.436c0,0-0.852,1.514-0.852,1.983c0,0.092,0.025,0.177,0.053,0.259c0.486,0,0.94,0,1.333,0
			h0.265c0.027-0.082,0.053-0.167,0.053-0.259C22.395,21.949,21.543,20.436,21.543,20.436z"/>
	</g>
</g>
</svg>
