<?xml version="1.0" encoding="utf-8"?>
<!-- Generator: Adobe Illustrator 16.0.3, SVG Export Plug-In . SVG Version: 6.00 Build 0)  -->
<!DOCTYPE svg PUBLIC "-//W3C//DTD SVG 1.1//EN" "http://www.w3.org/Graphics/SVG/1.1/DTD/svg11.dtd">
<svg version="1.1" xmlns="http://www.w3.org/2000/svg" xmlns:xlink="http://www.w3.org/1999/xlink" x="0px" y="0px" width="22.68px"
	 height="22.68px" viewBox="0 0 22.68 22.68" enable-background="new 0 0 22.68 22.68" xml:space="preserve">
<g id="BCGRND">
</g>
<g id="IKONY">
	<g>
		<defs>
			<polygon id="SVGID_7_" points="22.677,16.335 22.677,0 0,0 0,22.678 14.117,22.678 22.677,22.678 			"/>
		</defs>
		<use xlink:href="#SVGID_7_"  overflow="visible" fill="#585857"/>
		<clipPath id="SVGID_2_">
			<use xlink:href="#SVGID_7_"  overflow="visible"/>
		</clipPath>
		<rect x="0" y="11.956" clip-path="url(#SVGID_2_)" fill="#FFFFFF" width="22.678" height="0.889"/>
		<path clip-path="url(#SVGID_2_)" fill="#FFFFFF" d="M6.56,5.286L5.496,1.995H6.15l0.449,1.494C6.726,3.904,6.833,4.29,6.921,4.69
			h0.01C7.019,4.3,7.136,3.899,7.268,3.499l0.479-1.504h0.64L7.249,5.286H6.56z"/>
		<path clip-path="url(#SVGID_2_)" fill="#FFFFFF" d="M9.049,2.908l0.43,1.274C9.528,4.329,9.577,4.51,9.611,4.646h0.015
			C9.665,4.51,9.708,4.334,9.752,4.178l0.371-1.27h0.645l-0.596,1.621c-0.327,0.889-0.547,1.284-0.83,1.528
			c-0.234,0.21-0.479,0.288-0.63,0.308L8.576,5.857c0.103-0.024,0.229-0.078,0.352-0.166C9.04,5.618,9.171,5.477,9.254,5.315
			c0.024-0.044,0.039-0.078,0.039-0.107c0-0.024-0.005-0.059-0.034-0.117L8.39,2.908H9.049z M10.368,1.878L9.767,2.601H9.352
			l0.425-0.723H10.368z"/>
		<path clip-path="url(#SVGID_2_)" fill="#FFFFFF" d="M11.118,3.675c0-0.322-0.005-0.552-0.02-0.767h0.522l0.02,0.454h0.02
			c0.117-0.337,0.396-0.508,0.649-0.508c0.059,0,0.093,0.005,0.142,0.015v0.566c-0.049-0.01-0.103-0.02-0.176-0.02
			c-0.288,0-0.483,0.186-0.537,0.454c-0.01,0.054-0.02,0.117-0.02,0.186v1.23h-0.601V3.675z"/>
		<path clip-path="url(#SVGID_2_)" fill="#FFFFFF" d="M13.239,4.266c0.015,0.43,0.352,0.615,0.732,0.615
			c0.278,0,0.479-0.039,0.659-0.107l0.088,0.415c-0.205,0.083-0.488,0.146-0.83,0.146c-0.771,0-1.226-0.474-1.226-1.201
			c0-0.659,0.4-1.279,1.162-1.279c0.771,0,1.025,0.635,1.025,1.157c0,0.112-0.01,0.2-0.02,0.254H13.239z M14.284,3.846
			c0.005-0.22-0.093-0.581-0.493-0.581c-0.371,0-0.527,0.337-0.552,0.581H14.284z"/>
		<path clip-path="url(#SVGID_2_)" fill="#FFFFFF" d="M15.112,4.939l0.895-1.143c0.121-0.146,0.225-0.264,0.352-0.4v-0.01H15.2
			V2.908h1.891v0.366l-0.875,1.118c-0.117,0.142-0.229,0.278-0.352,0.405v0.01h1.256v0.479h-2.008V4.939z"/>
		<path clip-path="url(#SVGID_2_)" fill="#FFFFFF" d="M0.555,8.199c0-0.313-0.01-0.566-0.02-0.791h0.527l0.029,0.366h0.01
			c0.176-0.269,0.454-0.42,0.815-0.42c0.547,0,1.001,0.469,1.001,1.211c0,0.859-0.542,1.274-1.084,1.274
			c-0.298,0-0.547-0.127-0.669-0.317h-0.01v1.23H0.555V8.199z M1.156,8.79c0,0.059,0.005,0.112,0.02,0.166
			c0.059,0.244,0.273,0.42,0.527,0.42c0.381,0,0.605-0.317,0.605-0.786c0-0.42-0.205-0.762-0.591-0.762
			c-0.249,0-0.479,0.181-0.537,0.444C1.166,8.321,1.156,8.375,1.156,8.424V8.79z"/>
		<path clip-path="url(#SVGID_2_)" fill="#FFFFFF" d="M5.53,8.575c0,0.874-0.615,1.265-1.221,1.265
			c-0.674,0-1.191-0.464-1.191-1.226c0-0.781,0.512-1.26,1.23-1.26C5.055,7.354,5.53,7.853,5.53,8.575z M3.737,8.6
			c0,0.459,0.225,0.806,0.592,0.806c0.342,0,0.58-0.337,0.58-0.815c0-0.371-0.166-0.796-0.576-0.796
			C3.909,7.794,3.737,8.204,3.737,8.6z"/>
		<path clip-path="url(#SVGID_2_)" fill="#FFFFFF" d="M8.072,6.319v2.798c0,0.244,0.01,0.508,0.02,0.669H7.554L7.53,9.41H7.52
			C7.378,9.674,7.09,9.84,6.744,9.84c-0.566,0-1.016-0.483-1.016-1.216c-0.005-0.796,0.493-1.27,1.064-1.27
			c0.327,0,0.562,0.137,0.669,0.313h0.01V6.319H8.072z M7.471,8.399c0-0.049-0.005-0.107-0.015-0.156
			C7.403,8.009,7.212,7.818,6.939,7.818c-0.386,0-0.601,0.342-0.601,0.786c0,0.435,0.215,0.752,0.596,0.752
			c0.244,0,0.459-0.166,0.518-0.425c0.015-0.054,0.02-0.112,0.02-0.176V8.399z"/>
		<path clip-path="url(#SVGID_2_)" fill="#FFFFFF" d="M9.438,8.116c0-0.273-0.004-0.503-0.02-0.708h0.518L9.961,7.76h0.014
			c0.117-0.186,0.332-0.405,0.732-0.405c0.313,0,0.557,0.176,0.66,0.439h0.01c0.082-0.132,0.18-0.229,0.293-0.298
			c0.131-0.093,0.283-0.142,0.479-0.142c0.395,0,0.795,0.269,0.795,1.03v1.401h-0.586V8.473c0-0.396-0.137-0.63-0.424-0.63
			c-0.205,0-0.357,0.146-0.42,0.317c-0.016,0.059-0.029,0.132-0.029,0.2v1.426h-0.586V8.409c0-0.332-0.133-0.566-0.41-0.566
			c-0.225,0-0.377,0.176-0.43,0.342c-0.025,0.059-0.035,0.127-0.035,0.195v1.406H9.438V8.116z"/>
		<path clip-path="url(#SVGID_2_)" fill="#FFFFFF" d="M13.735,7.408l0.43,1.274c0.049,0.146,0.098,0.327,0.133,0.464h0.014
			c0.039-0.137,0.084-0.313,0.127-0.469l0.371-1.27h0.645l-0.596,1.621c-0.326,0.889-0.547,1.284-0.83,1.528
			c-0.234,0.21-0.479,0.288-0.629,0.308l-0.137-0.508c0.102-0.024,0.229-0.078,0.352-0.166c0.111-0.073,0.244-0.215,0.326-0.376
			c0.025-0.044,0.039-0.078,0.039-0.107c0-0.024-0.004-0.059-0.033-0.117l-0.869-2.183H13.735z"/>
		<path clip-path="url(#SVGID_2_)" fill="#FFFFFF" d="M17.342,9.713c-0.127,0.059-0.377,0.122-0.674,0.122
			c-0.742,0-1.227-0.474-1.227-1.211c0-0.713,0.488-1.27,1.324-1.27c0.219,0,0.443,0.049,0.58,0.112l-0.107,0.449
			C17.141,7.872,17,7.823,16.786,7.823c-0.459,0-0.732,0.337-0.729,0.771c0,0.488,0.318,0.767,0.729,0.767
			c0.209,0,0.355-0.044,0.473-0.093L17.342,9.713z M16.36,7.101l-0.473-0.723h0.41l0.268,0.444h0.01l0.264-0.444h0.41l-0.473,0.723
			H16.36z"/>
		<path clip-path="url(#SVGID_2_)" fill="#FFFFFF" d="M18.243,8.453h0.01c0.059-0.093,0.127-0.195,0.19-0.278l0.576-0.767h0.723
			L18.863,8.38l1.006,1.406h-0.737l-0.684-1.05l-0.205,0.239v0.811h-0.601V6.319h0.601V8.453z"/>
		<path clip-path="url(#SVGID_2_)" fill="#FFFFFF" d="M22.113,9.073c0,0.283,0.01,0.518,0.02,0.713h-0.527l-0.029-0.361h-0.01
			c-0.103,0.171-0.337,0.415-0.762,0.415c-0.435,0-0.83-0.259-0.83-1.035V7.408h0.601v1.294c0,0.396,0.127,0.649,0.444,0.649
			c0.239,0,0.396-0.171,0.459-0.322c0.02-0.054,0.034-0.117,0.034-0.186V7.408h0.601V9.073z"/>
		<g clip-path="url(#SVGID_2_)">
			<path fill="#FFFFFF" d="M3.056,15.794h-4.144c-0.276,0-0.5-0.224-0.5-0.5s0.224-0.5,0.5-0.5h4.144c0.276,0,0.5,0.224,0.5,0.5
				S3.333,15.794,3.056,15.794z"/>
			<path fill="#FFFFFF" d="M9.956,15.794H5.811c-0.276,0-0.5-0.224-0.5-0.5s0.224-0.5,0.5-0.5h4.145c0.276,0,0.5,0.224,0.5,0.5
				S10.232,15.794,9.956,15.794z"/>
			<path fill="#FFFFFF" d="M16.854,15.794H12.71c-0.276,0-0.5-0.224-0.5-0.5s0.224-0.5,0.5-0.5h4.144c0.276,0,0.5,0.224,0.5,0.5
				S17.13,15.794,16.854,15.794z"/>
			<path fill="#FFFFFF" d="M23.752,15.794h-4.144c-0.276,0-0.5-0.224-0.5-0.5s0.224-0.5,0.5-0.5h4.144c0.276,0,0.5,0.224,0.5,0.5
				S24.029,15.794,23.752,15.794z"/>
		</g>
		<g clip-path="url(#SVGID_2_)">
			<path fill="#FFFFFF" d="M3.056,18.138h-4.144c-0.276,0-0.5-0.224-0.5-0.5s0.224-0.5,0.5-0.5h4.144c0.276,0,0.5,0.224,0.5,0.5
				S3.333,18.138,3.056,18.138z"/>
			<path fill="#FFFFFF" d="M9.956,18.138H5.811c-0.276,0-0.5-0.224-0.5-0.5s0.224-0.5,0.5-0.5h4.145c0.276,0,0.5,0.224,0.5,0.5
				S10.232,18.138,9.956,18.138z"/>
			<path fill="#FFFFFF" d="M16.854,18.138H12.71c-0.276,0-0.5-0.224-0.5-0.5s0.224-0.5,0.5-0.5h4.144c0.276,0,0.5,0.224,0.5,0.5
				S17.13,18.138,16.854,18.138z"/>
			<path fill="#FFFFFF" d="M23.752,18.138h-4.144c-0.276,0-0.5-0.224-0.5-0.5s0.224-0.5,0.5-0.5h4.144c0.276,0,0.5,0.224,0.5,0.5
				S24.029,18.138,23.752,18.138z"/>
		</g>
		<g clip-path="url(#SVGID_2_)">
			<path fill="#FFFFFF" d="M3.056,20.481h-4.144c-0.276,0-0.5-0.224-0.5-0.5s0.224-0.5,0.5-0.5h4.144c0.276,0,0.5,0.224,0.5,0.5
				S3.333,20.481,3.056,20.481z"/>
			<path fill="#FFFFFF" d="M9.956,20.481H5.811c-0.276,0-0.5-0.224-0.5-0.5s0.224-0.5,0.5-0.5h4.145c0.276,0,0.5,0.224,0.5,0.5
				S10.232,20.481,9.956,20.481z"/>
			<path fill="#FFFFFF" d="M16.854,20.481H12.71c-0.276,0-0.5-0.224-0.5-0.5s0.224-0.5,0.5-0.5h4.144c0.276,0,0.5,0.224,0.5,0.5
				S17.13,20.481,16.854,20.481z"/>
			<path fill="#FFFFFF" d="M23.752,20.481h-4.144c-0.276,0-0.5-0.224-0.5-0.5s0.224-0.5,0.5-0.5h4.144c0.276,0,0.5,0.224,0.5,0.5
				S24.029,20.481,23.752,20.481z"/>
		</g>
	</g>
</g>
</svg>
