<?xml version="1.0" encoding="utf-8"?>
<!-- Generator: Adobe Illustrator 16.0.3, SVG Export Plug-In . SVG Version: 6.00 Build 0)  -->
<!DOCTYPE svg PUBLIC "-//W3C//DTD SVG 1.1//EN" "http://www.w3.org/Graphics/SVG/1.1/DTD/svg11.dtd">
<svg version="1.1" xmlns="http://www.w3.org/2000/svg" xmlns:xlink="http://www.w3.org/1999/xlink" x="0px" y="0px" width="22.68px"
	 height="22.68px" viewBox="0 0 22.68 22.68" enable-background="new 0 0 22.68 22.68" xml:space="preserve">
<g id="BCGRND">
</g>
<g id="IKONY">
	<rect x="0" fill="#585857" width="22.676" height="22.678"/>
	<g>
		<g>
			<rect x="0.001" y="11.956" fill="#FFFFFF" width="22.678" height="0.889"/>
		</g>
		<g>
			<path fill="#FFFFFF" d="M6.012,5.287L4.948,1.996h0.654l0.449,1.499C6.178,3.91,6.29,4.291,6.373,4.691h0.01
				C6.471,4.301,6.593,3.9,6.72,3.5l0.479-1.504h0.64L6.7,5.287H6.012z"/>
			<path fill="#FFFFFF" d="M8.653,2.909l0.425,1.274C9.126,4.33,9.18,4.511,9.214,4.643h0.015C9.263,4.511,9.307,4.33,9.356,4.179
				l0.371-1.27h0.64L9.771,4.53C9.444,5.419,9.224,5.814,8.946,6.059c-0.239,0.205-0.483,0.283-0.63,0.303L8.179,5.858
				C8.281,5.834,8.404,5.78,8.526,5.692c0.117-0.073,0.249-0.215,0.332-0.376c0.024-0.044,0.034-0.078,0.034-0.107
				c0-0.024-0.005-0.059-0.029-0.117L7.989,2.909H8.653z M9.961,1.879L9.365,2.602H8.95l0.425-0.723H9.961z"/>
			<path fill="#FFFFFF" d="M10.78,4.73c0.132,0.083,0.391,0.176,0.605,0.176c0.264,0,0.381-0.112,0.381-0.269
				c0-0.161-0.098-0.239-0.391-0.347c-0.464-0.156-0.654-0.41-0.654-0.693c0-0.42,0.347-0.742,0.898-0.742
				c0.264,0,0.493,0.063,0.635,0.142l-0.122,0.42C12.035,3.358,11.84,3.28,11.63,3.28c-0.215,0-0.332,0.107-0.332,0.254
				c0,0.151,0.112,0.22,0.415,0.332c0.435,0.151,0.63,0.371,0.635,0.723c0,0.435-0.337,0.747-0.967,0.747
				c-0.288,0-0.547-0.068-0.723-0.166L10.78,4.73z M11.312,2.602l-0.479-0.723h0.415l0.269,0.444h0.01l0.264-0.444h0.41
				l-0.474,0.723H11.312z"/>
			<path fill="#FFFFFF" d="M13.59,3.954h0.01c0.059-0.093,0.127-0.195,0.186-0.278l0.581-0.767h0.723l-0.884,0.972l1.006,1.406
				h-0.737l-0.684-1.05l-0.2,0.239v0.811H12.99V1.82h0.601V3.954z"/>
			<path fill="#FFFFFF" d="M17.524,4.716c0,0.215,0.01,0.425,0.039,0.571h-0.542l-0.044-0.264h-0.015
				c-0.142,0.186-0.391,0.317-0.703,0.317c-0.479,0-0.747-0.347-0.747-0.708c0-0.596,0.532-0.903,1.411-0.898V3.695
				c0-0.156-0.063-0.415-0.483-0.415c-0.234,0-0.479,0.073-0.64,0.176l-0.117-0.391c0.176-0.107,0.483-0.21,0.859-0.21
				c0.762,0,0.981,0.483,0.981,1.006V4.716z M16.938,4.125c-0.425-0.005-0.83,0.083-0.83,0.444c0,0.234,0.151,0.342,0.342,0.342
				c0.244,0,0.415-0.156,0.474-0.327c0.015-0.044,0.015-0.088,0.015-0.132V4.125z"/>
			<path fill="#FFFFFF" d="M6.872,6.403C6.56,6.867,6.325,7.512,6.325,8.391c0,0.864,0.239,1.504,0.547,1.973H6.438
				c-0.283-0.391-0.596-1.03-0.596-1.973c0.005-0.957,0.313-1.592,0.596-1.987H6.872z"/>
			<path fill="#FFFFFF" d="M7.48,8.117c0-0.273-0.01-0.503-0.02-0.708h0.513l0.029,0.352h0.015c0.112-0.186,0.327-0.405,0.732-0.405
				c0.313,0,0.557,0.176,0.659,0.439h0.01c0.083-0.132,0.181-0.229,0.288-0.298c0.137-0.093,0.288-0.142,0.488-0.142
				c0.391,0,0.791,0.269,0.791,1.03v1.401H10.4V8.474c0-0.396-0.137-0.63-0.425-0.63c-0.205,0-0.356,0.146-0.42,0.317
				c-0.02,0.054-0.029,0.132-0.029,0.2v1.426H8.94V8.41c0-0.332-0.132-0.566-0.41-0.566c-0.225,0-0.376,0.176-0.435,0.337
				c-0.02,0.063-0.029,0.132-0.029,0.2v1.406H7.48V8.117z"/>
			<path fill="#FFFFFF" d="M11.772,8.117c0-0.273-0.01-0.503-0.02-0.708h0.513l0.029,0.352h0.015
				c0.112-0.186,0.327-0.405,0.732-0.405c0.313,0,0.557,0.176,0.659,0.439h0.01c0.083-0.132,0.181-0.229,0.288-0.298
				c0.137-0.093,0.288-0.142,0.488-0.142c0.391,0,0.791,0.269,0.791,1.03v1.401h-0.586V8.474c0-0.396-0.137-0.63-0.425-0.63
				c-0.205,0-0.356,0.146-0.42,0.317c-0.02,0.054-0.029,0.132-0.029,0.2v1.426h-0.586V8.41c0-0.332-0.132-0.566-0.41-0.566
				c-0.225,0-0.376,0.176-0.435,0.337c-0.02,0.063-0.029,0.132-0.029,0.2v1.406h-0.586V8.117z"/>
			<path fill="#FFFFFF" d="M15.879,10.363c0.308-0.464,0.547-1.113,0.547-1.982s-0.239-1.509-0.547-1.978h0.435
				c0.283,0.386,0.596,1.021,0.596,1.978c-0.005,0.952-0.313,1.587-0.596,1.982H15.879z"/>
		</g>
	</g>
	<g>
		<path fill="#FFFFFF" d="M4.559,16.001H4.542l-1.011,0.51l-0.179-0.789l1.343-0.664H5.57v5.525H4.559V16.001z"/>
		<path fill="#FFFFFF" d="M10.729,15.058v0.672l-2.337,4.854H7.287l2.329-4.641v-0.018H7.015v-0.867H10.729z"/>
		<path fill="#FFFFFF" d="M14.826,15.925h-2.125L12.54,17.03c0.127-0.018,0.238-0.025,0.399-0.025c0.484,0,0.969,0.109,1.343,0.357
			c0.417,0.262,0.723,0.73,0.723,1.402c0,1.053-0.875,1.912-2.235,1.912c-0.638,0-1.173-0.162-1.462-0.324l0.212-0.789
			c0.238,0.127,0.714,0.289,1.215,0.289c0.612,0,1.199-0.35,1.199-1.012c0-0.629-0.468-1.047-1.573-1.047
			c-0.306,0-0.535,0.018-0.756,0.053l0.366-2.789h2.855V15.925z"/>
		<path fill="#FFFFFF" d="M19.797,17.786c0,1.777-0.697,2.891-2.014,2.891c-1.275,0-1.955-1.156-1.963-2.84
			c0-1.717,0.731-2.873,2.023-2.873C19.177,14.964,19.797,16.155,19.797,17.786z M16.873,17.837
			c-0.008,1.344,0.366,2.041,0.943,2.041c0.612,0,0.935-0.748,0.935-2.074c0-1.283-0.306-2.041-0.935-2.041
			C17.256,15.763,16.865,16.452,16.873,17.837z"/>
	</g>
</g>
</svg>
