<?xml version="1.0" encoding="utf-8"?>
<!-- Generator: Adobe Illustrator 16.0.3, SVG Export Plug-In . SVG Version: 6.00 Build 0)  -->
<!DOCTYPE svg PUBLIC "-//W3C//DTD SVG 1.1//EN" "http://www.w3.org/Graphics/SVG/1.1/DTD/svg11.dtd">
<svg version="1.1" xmlns="http://www.w3.org/2000/svg" xmlns:xlink="http://www.w3.org/1999/xlink" x="0px" y="0px" width="22.68px"
	 height="22.68px" viewBox="0 0 22.68 22.68" enable-background="new 0 0 22.68 22.68" xml:space="preserve">
<g id="BCGRND" display="none">
</g>
<g id="IKONY">
	<g>
		<g>
			<polygon fill="#585857" points="22.678,16.335 22.678,0 0,0 0,22.678 14.117,22.678 22.678,22.678 			"/>
			<g>
				<rect x="0" y="7.77" fill="#FFFFFF" width="22.678" height="0.889"/>
			</g>
			<g>
				<path fill="#FFFFFF" d="M7.218,5.57L6.412,2.279h0.64l0.313,1.494c0.083,0.4,0.161,0.82,0.215,1.147h0.01
					c0.054-0.347,0.146-0.737,0.239-1.152l0.356-1.489h0.63l0.327,1.514c0.083,0.391,0.151,0.757,0.2,1.113h0.01
					C9.41,4.545,9.488,4.169,9.576,3.769l0.342-1.489h0.61L9.645,5.57H9L8.658,4.022C8.575,3.646,8.517,3.334,8.478,2.978h-0.01
					c-0.059,0.352-0.122,0.669-0.22,1.045L7.867,5.57H7.218z"/>
				<path fill="#FFFFFF" d="M11.319,2.528c0,0.181-0.132,0.322-0.342,0.322c-0.2,0-0.332-0.142-0.332-0.322
					c0-0.186,0.137-0.327,0.337-0.327C11.188,2.201,11.315,2.343,11.319,2.528z M10.68,5.57V3.192h0.605V5.57H10.68z"/>
				<path fill="#FFFFFF" d="M12.878,4.062v0.415h-1.244V4.062H12.878z"/>
				<path fill="#FFFFFF" d="M13.251,2.279h1.9v0.493h-1.299v0.908h1.211v0.493h-1.211V5.57h-0.602V2.279z"/>
				<path fill="#FFFFFF" d="M16.126,2.528c0,0.181-0.133,0.322-0.342,0.322c-0.201,0-0.332-0.142-0.332-0.322
					c0-0.186,0.137-0.327,0.336-0.327C15.993,2.201,16.12,2.343,16.126,2.528z M15.485,5.57V3.192h0.605V5.57H15.485z"/>
			</g>
		</g>
		<g>
			<g>
				<path fill="#FFFFFF" d="M17.6,14.154c-0.156,0-0.312-0.06-0.431-0.179c-1.625-1.625-3.783-2.52-6.078-2.52
					s-4.453,0.894-6.076,2.519c-0.238,0.238-0.623,0.238-0.861,0c-0.238-0.238-0.238-0.624,0-0.862
					c1.853-1.854,4.316-2.876,6.938-2.876c2.62,0,5.085,1.022,6.939,2.877c0.238,0.238,0.238,0.624,0,0.861
					C17.911,14.095,17.756,14.154,17.6,14.154z"/>
			</g>
			<g>
				<path fill="#FFFFFF" d="M15.973,16.087c-0.156,0-0.313-0.06-0.431-0.179c-1.188-1.189-2.769-1.844-4.451-1.844
					c-1.681,0-3.26,0.655-4.448,1.844c-0.236,0.238-0.623,0.238-0.861,0c-0.238-0.238-0.238-0.624,0-0.862
					c1.418-1.419,3.304-2.202,5.31-2.202c2.008,0,3.895,0.782,5.313,2.202c0.238,0.238,0.238,0.624,0,0.862
					C16.284,16.028,16.129,16.087,15.973,16.087z"/>
			</g>
			<g>
				<path fill="#FFFFFF" d="M7.838,18.021c-0.155,0-0.312-0.06-0.431-0.178c-0.238-0.238-0.238-0.624,0-0.861
					c0.983-0.985,2.291-1.528,3.684-1.528s2.701,0.542,3.686,1.528c0.238,0.238,0.238,0.624,0,0.861
					c-0.238,0.238-0.623,0.238-0.861,0c-1.51-1.51-4.139-1.509-5.646,0C8.151,17.961,7.994,18.021,7.838,18.021z"/>
			</g>
		</g>
		<g>
			<circle fill="#FFFFFF" cx="11.092" cy="19.592" r="1.458"/>
		</g>
	</g>
</g>
</svg>
