<?xml version="1.0" encoding="utf-8"?>
<!-- Generator: Adobe Illustrator 16.0.3, SVG Export Plug-In . SVG Version: 6.00 Build 0)  -->
<!DOCTYPE svg PUBLIC "-//W3C//DTD SVG 1.1//EN" "http://www.w3.org/Graphics/SVG/1.1/DTD/svg11.dtd">
<svg version="1.1" xmlns="http://www.w3.org/2000/svg" xmlns:xlink="http://www.w3.org/1999/xlink" x="0px" y="0px" width="22.68px"
	 height="22.68px" viewBox="0 0 22.68 22.68" enable-background="new 0 0 22.68 22.68" xml:space="preserve">
<g id="BCGRND" display="none">
</g>
<g id="IKONY">
	<rect x="0" fill="#585857" width="22.677" height="22.677"/>
	<g>
		<g>
			<rect x="0.001" y="11.956" fill="#FFFFFF" width="22.678" height="0.889"/>
			<g>
				<g>
					<path fill="#FFFFFF" d="M1.591,5.286V4.92l0.375-0.347c0.748-0.693,1.1-1.074,1.104-1.494c0-0.283-0.15-0.532-0.566-0.532
						c-0.283,0-0.518,0.142-0.678,0.264L1.649,2.386C1.878,2.2,2.225,2.059,2.626,2.059c0.703,0,1.045,0.444,1.045,0.962
						c0,0.557-0.4,1.006-0.957,1.519L2.44,4.778v0.01h1.299v0.498H1.591z"/>
					<path fill="#FFFFFF" d="M4.723,2.908l0.283,0.449c0.078,0.127,0.146,0.244,0.215,0.366h0.01C5.3,3.592,5.368,3.47,5.441,3.348
						l0.264-0.439h0.654L5.563,4.051l0.811,1.235H5.69L5.402,4.813C5.324,4.686,5.256,4.559,5.187,4.427h-0.01
						C5.109,4.563,5.036,4.681,4.963,4.813L4.689,5.286H4.025L4.85,4.075L4.054,2.908H4.723z"/>
					<path fill="#FFFFFF" d="M9.532,5.286L9.18,4.632c-0.142-0.254-0.234-0.43-0.332-0.62h-0.01c-0.078,0.19-0.166,0.366-0.298,0.62
						L8.214,5.286H7.525l0.977-1.665L7.559,1.995h0.693l0.356,0.679C8.717,2.879,8.795,3.04,8.878,3.226h0.015
						C8.98,3.021,9.049,2.874,9.151,2.674l0.352-0.679h0.688L9.229,3.602l1.001,1.685H9.532z"/>
					<path fill="#FFFFFF" d="M10.639,3.699c0-0.313-0.01-0.566-0.02-0.791h0.527l0.029,0.366h0.01
						c0.176-0.269,0.454-0.42,0.815-0.42c0.547,0,1.001,0.469,1.001,1.211c0,0.859-0.542,1.274-1.084,1.274
						c-0.298,0-0.547-0.127-0.669-0.317h-0.01v1.23h-0.601V3.699z M11.24,4.29c0,0.059,0.005,0.112,0.015,0.166
						c0.063,0.244,0.273,0.42,0.532,0.42c0.381,0,0.605-0.317,0.605-0.786c0-0.42-0.205-0.762-0.591-0.762
						c-0.249,0-0.479,0.181-0.542,0.444c-0.01,0.049-0.02,0.103-0.02,0.151V4.29z"/>
					<path fill="#FFFFFF" d="M15.344,4.715c0,0.215,0.01,0.425,0.039,0.571h-0.541l-0.045-0.264h-0.014
						c-0.143,0.186-0.391,0.317-0.703,0.317c-0.479,0-0.748-0.347-0.748-0.708c0-0.596,0.533-0.903,1.412-0.898V3.694
						c0-0.156-0.064-0.415-0.484-0.415c-0.234,0-0.479,0.073-0.639,0.176l-0.117-0.391c0.176-0.107,0.482-0.21,0.859-0.21
						c0.762,0,0.98,0.483,0.98,1.006V4.715z M14.759,4.124c-0.424-0.005-0.83,0.083-0.83,0.444c0,0.234,0.152,0.342,0.342,0.342
						c0.244,0,0.416-0.156,0.475-0.327c0.014-0.044,0.014-0.088,0.014-0.132V4.124z"/>
					<path fill="#FFFFFF" d="M15.983,3.616c0-0.273-0.01-0.503-0.02-0.708h0.522l0.029,0.356h0.015
						c0.107-0.186,0.366-0.41,0.762-0.41c0.415,0,0.845,0.269,0.845,1.021v1.411h-0.601V3.943c0-0.342-0.127-0.601-0.454-0.601
						c-0.239,0-0.405,0.171-0.469,0.352c-0.02,0.049-0.029,0.122-0.029,0.19v1.401h-0.601V3.616z"/>
					<path fill="#FFFFFF" d="M20.971,1.819v2.798c0,0.244,0.01,0.508,0.02,0.669H20.46L20.43,4.91h-0.01
						c-0.143,0.264-0.43,0.43-0.771,0.43c-0.572,0-1.021-0.483-1.021-1.216c-0.004-0.796,0.494-1.27,1.064-1.27
						c0.328,0,0.563,0.132,0.67,0.308h0.01V1.819H20.971z M20.372,3.899c0-0.049-0.006-0.112-0.016-0.161
						c-0.053-0.229-0.244-0.42-0.518-0.42c-0.385,0-0.6,0.342-0.6,0.781s0.215,0.757,0.596,0.757c0.244,0,0.459-0.166,0.518-0.425
						c0.014-0.054,0.02-0.112,0.02-0.176V3.899z"/>
					<path fill="#FFFFFF" d="M6.071,9.954l1.68-2.446V7.493H6.218V6.995h2.314v0.352l-1.66,2.427v0.015h1.685v0.498H6.071V9.954z"/>
					<path fill="#FFFFFF" d="M11.241,9.075c0,0.874-0.615,1.265-1.221,1.265c-0.67,0-1.191-0.459-1.191-1.226
						c0-0.781,0.512-1.26,1.23-1.26C10.766,7.854,11.241,8.353,11.241,9.075z M9.448,9.1c0,0.459,0.23,0.806,0.592,0.806
						c0.342,0,0.58-0.332,0.58-0.815c0-0.371-0.166-0.801-0.576-0.801C9.62,8.289,9.448,8.704,9.448,9.1z"/>
					<path fill="#FFFFFF" d="M11.737,8.616c0-0.273-0.01-0.503-0.02-0.708h0.522l0.029,0.356h0.015
						c0.107-0.186,0.366-0.41,0.762-0.41c0.415,0,0.845,0.269,0.845,1.021v1.411H13.29V8.943c0-0.342-0.127-0.601-0.454-0.601
						c-0.239,0-0.405,0.171-0.469,0.352c-0.02,0.049-0.029,0.122-0.029,0.19v1.401h-0.601V8.616z"/>
					<path fill="#FFFFFF" d="M14.958,9.266c0.016,0.43,0.348,0.615,0.732,0.615c0.279,0,0.475-0.044,0.66-0.107l0.088,0.41
						c-0.205,0.088-0.488,0.151-0.83,0.151c-0.771,0-1.227-0.474-1.227-1.201c0-0.659,0.4-1.279,1.162-1.279
						c0.771,0,1.025,0.635,1.025,1.157c0,0.112-0.01,0.2-0.02,0.254H14.958z M16.003,8.846c0.006-0.22-0.092-0.581-0.492-0.581
						c-0.371,0-0.527,0.337-0.553,0.581H16.003z"/>
				</g>
			</g>
		</g>
		<path fill="#FFFFFF" d="M4.001,18.572c0.131-0.131,0.131-0.343,0-0.474s-0.342-0.131-0.474,0c-0.13,0.131-0.131,0.343,0,0.474
			C3.658,18.704,3.87,18.703,4.001,18.572z M4.949,17.625c0.13-0.131,0.131-0.344,0-0.475c-0.132-0.132-0.345-0.131-0.475,0
			c-0.132,0.131-0.132,0.344-0.001,0.475S4.817,17.756,4.949,17.625z M3.527,19.993c-0.13,0.131-0.13,0.342,0.001,0.473
			c0.131,0.132,0.342,0.132,0.473,0.001s0.132-0.343,0.001-0.474C3.871,19.861,3.659,19.861,3.527,19.993z M4.474,19.045
			c-0.131,0.13-0.132,0.343,0,0.474c0.131,0.132,0.344,0.131,0.475,0s0.131-0.343,0-0.474C4.817,18.915,4.605,18.915,4.474,19.045z
			 M5.422,18.098c-0.131,0.131-0.132,0.344-0.001,0.475c0.132,0.131,0.344,0.131,0.475-0.001c0.131-0.13,0.131-0.343,0-0.474
			S5.552,17.967,5.422,18.098z M3.527,21.886c-0.131,0.131-0.13,0.343,0,0.474c0.131,0.131,0.343,0.132,0.475,0
			c0.131-0.131,0.13-0.343-0.001-0.474C3.871,21.755,3.658,21.755,3.527,21.886z M4.473,20.939c-0.131,0.131-0.13,0.343,0.001,0.474
			c0.131,0.132,0.344,0.132,0.475,0.001c0.131-0.132,0.131-0.344,0-0.476C4.818,20.808,4.604,20.808,4.473,20.939z M5.421,19.993
			c-0.13,0.13-0.13,0.343,0,0.474c0.132,0.131,0.345,0.131,0.475,0c0.131-0.131,0.131-0.343,0-0.474
			C5.764,19.861,5.552,19.861,5.421,19.993z M8.262,17.151c-0.132,0.131-0.131,0.344,0,0.475s0.344,0.131,0.475,0
			s0.131-0.344-0.001-0.475C8.606,17.02,8.393,17.019,8.262,17.151z M8.262,20.938c-0.132,0.132-0.132,0.344,0,0.476
			c0.131,0.131,0.344,0.131,0.475,0c0.13-0.132,0.13-0.344,0-0.475C8.606,20.808,8.393,20.808,8.262,20.938z M9.209,19.993
			c-0.131,0.131-0.131,0.343,0.001,0.474c0.13,0.131,0.343,0.131,0.474,0s0.131-0.343,0-0.474
			C9.552,19.861,9.34,19.861,9.209,19.993z M10.156,19.044c-0.131,0.131-0.131,0.344,0,0.475s0.344,0.132,0.475,0
			c0.131-0.131,0.131-0.344,0-0.474C10.5,18.914,10.287,18.914,10.156,19.044z M11.102,18.098c-0.13,0.131-0.13,0.344,0.001,0.475
			s0.343,0.131,0.474,0c0.132-0.131,0.132-0.344,0.001-0.475C11.446,17.967,11.234,17.967,11.102,18.098z M12.051,17.151
			c-0.132,0.131-0.131,0.344,0,0.475s0.343,0.131,0.474,0c0.132-0.131,0.131-0.344,0-0.475S12.181,17.019,12.051,17.151z
			 M5.421,21.886c-0.13,0.131-0.13,0.342,0.001,0.474c0.132,0.131,0.343,0.131,0.474,0s0.131-0.343,0-0.474
			S5.552,21.755,5.421,21.886z M8.262,19.045c-0.132,0.131-0.132,0.343,0,0.474c0.131,0.132,0.343,0.132,0.474,0
			c0.131-0.131,0.132-0.343,0-0.474C8.605,18.914,8.393,18.915,8.262,19.045z M9.21,18.098c-0.132,0.131-0.132,0.343,0,0.474
			c0.131,0.132,0.343,0.132,0.474,0c0.131-0.131,0.131-0.343,0-0.474S9.341,17.967,9.21,18.098z M10.63,17.625
			c0.132-0.131,0.132-0.344,0.001-0.475c-0.131-0.132-0.344-0.131-0.475,0.001c-0.131,0.13-0.131,0.343,0,0.474
			S10.5,17.756,10.63,17.625z M9.21,21.886c-0.132,0.131-0.132,0.343-0.001,0.474c0.131,0.132,0.344,0.131,0.475,0
			s0.131-0.343,0-0.474S9.34,21.755,9.21,21.886z M10.156,20.939c-0.131,0.131-0.131,0.343,0,0.475c0.131,0.131,0.343,0.131,0.475,0
			c0.131-0.132,0.131-0.344,0-0.475C10.499,20.808,10.287,20.808,10.156,20.939z M11.103,19.993c-0.131,0.131-0.131,0.342,0,0.474
			c0.131,0.131,0.343,0.131,0.474,0c0.132-0.132,0.132-0.343,0-0.474C11.446,19.861,11.234,19.861,11.103,19.993z M12.051,19.045
			c-0.131,0.13-0.132,0.343,0,0.474c0.131,0.132,0.343,0.131,0.474,0s0.132-0.344,0-0.475
			C12.393,18.914,12.181,18.914,12.051,19.045z M12.997,18.098c-0.131,0.131-0.131,0.343,0,0.474c0.132,0.132,0.344,0.132,0.475,0
			c0.131-0.131,0.131-0.343,0-0.474S13.129,17.967,12.997,18.098z M14.419,17.625c0.13-0.131,0.13-0.343-0.001-0.474
			c-0.131-0.132-0.343-0.132-0.474-0.001s-0.131,0.344,0,0.475S14.287,17.756,14.419,17.625z M11.103,21.886
			c-0.131,0.131-0.131,0.343,0,0.474s0.343,0.132,0.474,0c0.132-0.131,0.132-0.343,0-0.474
			C11.446,21.755,11.234,21.755,11.103,21.886z M12.051,20.939c-0.131,0.131-0.131,0.343,0,0.475c0.131,0.131,0.343,0.131,0.474,0
			c0.132-0.132,0.131-0.344,0-0.475S12.181,20.808,12.051,20.939z M12.997,19.993c-0.13,0.131-0.131,0.343,0,0.474
			s0.344,0.131,0.475,0s0.131-0.344,0-0.474C13.341,19.861,13.129,19.861,12.997,19.993z M13.944,19.045
			c-0.131,0.131-0.131,0.343,0,0.474s0.343,0.132,0.475,0c0.131-0.131,0.13-0.344,0-0.474
			C14.287,18.914,14.076,18.915,13.944,19.045z M17.26,20.466c0.13-0.131,0.129-0.343-0.001-0.474c-0.132-0.132-0.344-0.132-0.474,0
			c-0.132,0.131-0.133,0.343-0.001,0.474C16.916,20.597,17.129,20.597,17.26,20.466z M17.732,19.045
			c-0.131,0.131-0.131,0.343,0,0.474s0.343,0.132,0.474,0c0.132-0.131,0.131-0.344,0-0.474
			C18.075,18.914,17.864,18.914,17.732,19.045z M18.679,18.098c-0.131,0.131-0.132,0.343,0,0.474c0.13,0.131,0.344,0.132,0.475,0
			c0.13-0.13,0.13-0.343,0-0.474C19.022,17.967,18.809,17.967,18.679,18.098z M12.997,21.886c-0.131,0.131-0.13,0.343,0,0.474
			c0.131,0.131,0.344,0.131,0.475,0s0.131-0.343,0-0.474S13.129,21.755,12.997,21.886z M13.944,20.939
			c-0.131,0.131-0.131,0.343,0,0.475c0.131,0.131,0.343,0.131,0.474,0c0.131-0.132,0.132-0.344,0.001-0.476
			C14.288,20.808,14.075,20.808,13.944,20.939z M16.785,18.098c-0.132,0.131-0.131,0.344,0,0.474c0.131,0.132,0.343,0.132,0.475,0
			c0.131-0.131,0.131-0.343,0-0.474S16.916,17.967,16.785,18.098z M17.732,17.151c-0.131,0.131-0.13,0.344,0,0.475
			c0.132,0.131,0.343,0.131,0.474,0s0.132-0.344,0-0.475C18.076,17.02,17.863,17.02,17.732,17.151z M16.785,21.886
			c-0.132,0.131-0.131,0.343,0,0.474s0.343,0.131,0.475,0c0.131-0.131,0.131-0.343,0-0.474S16.916,21.755,16.785,21.886z
			 M17.732,20.938c-0.131,0.132-0.131,0.344,0,0.476c0.131,0.131,0.343,0.131,0.474-0.001c0.131-0.131,0.131-0.343,0-0.474
			S17.863,20.808,17.732,20.938z M19.153,20.466c0.131-0.132,0.131-0.343,0-0.474c-0.131-0.132-0.344-0.132-0.475,0
			c-0.131,0.131-0.131,0.343,0,0.474S19.022,20.597,19.153,20.466z M18.679,21.886c-0.132,0.131-0.132,0.343-0.001,0.474
			c0.131,0.132,0.344,0.131,0.476,0c0.13-0.131,0.13-0.343-0.001-0.474S18.809,21.755,18.679,21.886z M6.641,20.903h0.793v-1.375
			H6.641V20.903z M6.641,18.982h0.793v-1.376H6.641V18.982z M6.641,22.678h0.793v-1.229H6.641V22.678z M15.157,20.903h0.793v-1.375
			h-0.793V20.903z M15.157,22.678h0.793v-1.229h-0.793V22.678z M15.157,18.982h0.793v-1.376h-0.793V18.982z M20.899,16.864
			c0-0.041-0.02-0.075-0.023-0.115c-0.02-0.217-0.092-0.412-0.202-0.587c-0.135-0.214-0.314-0.393-0.543-0.504
			c-0.178-0.086-0.371-0.144-0.582-0.144H3.131c-0.211,0-0.403,0.058-0.581,0.144c-0.229,0.111-0.409,0.289-0.544,0.503
			c-0.109,0.175-0.183,0.37-0.202,0.587C1.8,16.789,1.78,16.823,1.78,16.864v5.813h1v-5.813c0-0.193,0.157-0.35,0.351-0.35h3.511
			v0.546h0.793v-0.546h7.723v0.546h0.793v-0.546h3.599c0.193,0,0.351,0.157,0.351,0.35v5.813h1V16.864z"/>
	</g>
</g>
</svg>
