<?xml version="1.0" encoding="utf-8"?>
<!-- Generator: Adobe Illustrator 16.0.3, SVG Export Plug-In . SVG Version: 6.00 Build 0)  -->
<!DOCTYPE svg PUBLIC "-//W3C//DTD SVG 1.1//EN" "http://www.w3.org/Graphics/SVG/1.1/DTD/svg11.dtd">
<svg version="1.1" xmlns="http://www.w3.org/2000/svg" xmlns:xlink="http://www.w3.org/1999/xlink" x="0px" y="0px" width="22.68px"
	 height="22.68px" viewBox="0 0 22.68 22.68" enable-background="new 0 0 22.68 22.68" xml:space="preserve">
<g id="BCGRND" display="none">
</g>
<g id="IKONY">
	<rect x="0" fill="#585857" width="22.676" height="22.678"/>
	<g>
		<g>
			<rect x="0.001" y="7.769" fill="#FFFFFF" width="22.678" height="0.889"/>
		</g>
		<g>
			<path fill="#FFFFFF" d="M3.982,5.237l1.68-2.446V2.776H4.129V2.278h2.314V2.63l-1.66,2.427v0.015h1.684v0.498H3.982V5.237z"/>
			<path fill="#FFFFFF" d="M8.839,4.998c0,0.215,0.01,0.425,0.039,0.571H8.336L8.292,5.306H8.277
				C8.136,5.491,7.887,5.623,7.574,5.623c-0.479,0-0.747-0.347-0.747-0.708c0-0.596,0.532-0.903,1.411-0.898V3.978
				c0-0.156-0.063-0.415-0.483-0.415c-0.234,0-0.479,0.073-0.64,0.176L6.998,3.348c0.176-0.107,0.483-0.21,0.859-0.21
				c0.762,0,0.981,0.483,0.981,1.006V4.998z M8.253,4.407c-0.425-0.005-0.83,0.083-0.83,0.444c0,0.234,0.151,0.342,0.342,0.342
				c0.244,0,0.415-0.156,0.474-0.327c0.015-0.044,0.015-0.088,0.015-0.132V4.407z M8.619,2.161L8.023,2.884H7.608l0.425-0.723H8.619
				z"/>
			<path fill="#FFFFFF" d="M9.525,3.958c0-0.322-0.004-0.557-0.02-0.767h0.518l0.025,0.449h0.014
				c0.117-0.332,0.396-0.503,0.654-0.503c0.059,0,0.094,0.005,0.143,0.015v0.562c-0.055-0.01-0.107-0.015-0.182-0.015
				c-0.283,0-0.482,0.181-0.537,0.454c-0.01,0.054-0.014,0.117-0.014,0.181v1.235H9.525V3.958z"/>
			<path fill="#FFFFFF" d="M13.443,4.856c0,0.283,0.01,0.518,0.02,0.713h-0.521l-0.029-0.356h-0.016
				c-0.102,0.166-0.336,0.41-0.766,0.41s-0.826-0.259-0.826-1.035V3.191h0.602v1.294c0,0.396,0.127,0.649,0.443,0.649
				c0.244,0,0.4-0.166,0.459-0.322c0.025-0.049,0.035-0.117,0.035-0.186V3.191h0.6V4.856z"/>
			<path fill="#FFFFFF" d="M14.746,4.236h0.01c0.059-0.093,0.127-0.195,0.186-0.278l0.581-0.767h0.723l-0.884,0.972l1.006,1.406
				H15.63l-0.684-1.05l-0.2,0.239v0.811h-0.601V2.103h0.601V4.236z"/>
			<path fill="#FFFFFF" d="M18.582,4.998c0,0.215,0.01,0.425,0.039,0.571H18.08l-0.045-0.264h-0.014
				c-0.143,0.186-0.391,0.317-0.703,0.317c-0.479,0-0.748-0.347-0.748-0.708c0-0.596,0.533-0.903,1.412-0.898V3.978
				c0-0.156-0.064-0.415-0.484-0.415c-0.234,0-0.479,0.073-0.639,0.176l-0.117-0.391c0.176-0.107,0.482-0.21,0.859-0.21
				c0.762,0,0.98,0.483,0.98,1.006V4.998z M17.996,4.407c-0.424-0.005-0.83,0.083-0.83,0.444c0,0.234,0.152,0.342,0.342,0.342
				c0.244,0,0.416-0.156,0.475-0.327c0.014-0.044,0.014-0.088,0.014-0.132V4.407z"/>
		</g>
	</g>
	<g>
		<path fill="#FFFFFF" d="M5.022,18.039c0.333,0.2,1.147,0.533,1.974,0.533c1.254,0,1.761-0.707,1.747-1.387
			c0-1.027-0.96-1.468-1.96-1.468h-0.76v-1.2h0.732c0.761,0,1.721-0.347,1.721-1.213c0-0.587-0.439-1.08-1.387-1.08
			c-0.707,0-1.414,0.307-1.773,0.546l-0.374-1.187c0.493-0.347,1.454-0.667,2.494-0.667c1.787,0,2.707,0.987,2.707,2.121
			c0,0.906-0.533,1.653-1.601,2.026v0.027c1.054,0.187,1.907,0.986,1.907,2.16c0,1.467-1.227,2.627-3.374,2.627
			c-1.053,0-1.961-0.293-2.427-0.6L5.022,18.039z"/>
		<path fill="#FFFFFF" d="M17.785,15.345c0,2.787-1.094,4.534-3.16,4.534c-2.001,0-3.068-1.813-3.081-4.454
			c0-2.694,1.146-4.508,3.174-4.508C16.811,10.917,17.785,12.784,17.785,15.345z M13.197,15.425
			c-0.014,2.107,0.574,3.201,1.48,3.201c0.961,0,1.467-1.174,1.467-3.255c0-2.014-0.48-3.2-1.467-3.2
			C13.797,12.171,13.183,13.251,13.197,15.425z"/>
	</g>
</g>
</svg>
