<?xml version="1.0" encoding="utf-8"?>
<!-- Generator: Adobe Illustrator 16.0.3, SVG Export Plug-In . SVG Version: 6.00 Build 0)  -->
<!DOCTYPE svg PUBLIC "-//W3C//DTD SVG 1.1//EN" "http://www.w3.org/Graphics/SVG/1.1/DTD/svg11.dtd">
<svg version="1.1" xmlns="http://www.w3.org/2000/svg" xmlns:xlink="http://www.w3.org/1999/xlink" x="0px" y="0px" width="22.68px"
	 height="22.68px" viewBox="0 0 22.68 22.68" enable-background="new 0 0 22.68 22.68" xml:space="preserve">
<g id="BCGRND">
</g>
<g id="BAREVNE_BCGRND">
	<rect x="0" y="0" fill="#585857" width="22.676" height="22.678"/>
</g>
<g id="IKONY">
	<g>
		<g>
			<rect x="0" y="11.956" fill="#FFFFFF" width="22.678" height="0.889"/>
		</g>
		<g>
			<g>
				<path fill="#FFFFFF" d="M1.444,4.954l1.685-2.446V2.493H1.595V1.995H3.91v0.352L2.25,4.769v0.02h1.685v0.498h-2.49V4.954z"/>
				<path fill="#FFFFFF" d="M5.622,5.286L5.583,5.022H5.569C5.422,5.208,5.173,5.34,4.865,5.34c-0.479,0-0.747-0.347-0.747-0.708
					c0-0.601,0.532-0.903,1.411-0.898V3.694c0-0.156-0.063-0.415-0.483-0.415c-0.234,0-0.479,0.073-0.64,0.176L4.289,3.064
					c0.176-0.107,0.483-0.21,0.859-0.21c0.762,0,0.981,0.483,0.981,1.001v0.859c0,0.215,0.01,0.425,0.034,0.571H5.622z M5.544,4.124
					c-0.425-0.01-0.83,0.083-0.83,0.444c0,0.234,0.151,0.342,0.342,0.342c0.239,0,0.415-0.156,0.469-0.327
					c0.015-0.044,0.02-0.093,0.02-0.132V4.124z M5.915,1.878L5.315,2.601H4.9l0.425-0.723H5.915z"/>
				<path fill="#FFFFFF" d="M6.646,3.675c0-0.322-0.005-0.552-0.02-0.767h0.522l0.02,0.454h0.02
					c0.117-0.337,0.396-0.508,0.649-0.508c0.059,0,0.093,0.005,0.142,0.015v0.566c-0.049-0.01-0.103-0.02-0.176-0.02
					c-0.288,0-0.483,0.186-0.537,0.454c-0.01,0.054-0.02,0.117-0.02,0.186v1.23H6.646V3.675z"/>
				<path fill="#FFFFFF" d="M10.393,4.573c0,0.283,0.01,0.518,0.02,0.713H9.885L9.856,4.925h-0.01
					C9.743,5.096,9.509,5.34,9.084,5.34c-0.435,0-0.83-0.259-0.83-1.035V2.908h0.601v1.294c0,0.396,0.127,0.649,0.444,0.649
					c0.239,0,0.396-0.171,0.459-0.322c0.02-0.054,0.034-0.117,0.034-0.186V2.908h0.601V4.573z"/>
				<path fill="#FFFFFF" d="M11.524,3.953h0.01c0.059-0.093,0.127-0.195,0.19-0.278l0.576-0.767h0.723L12.144,3.88l1.006,1.406
					h-0.737l-0.684-1.05l-0.205,0.239v0.811h-0.601V1.819h0.601V3.953z"/>
				<path fill="#FFFFFF" d="M14.681,5.286l-0.039-0.264h-0.015c-0.146,0.186-0.396,0.317-0.703,0.317
					c-0.479,0-0.747-0.347-0.747-0.708c0-0.601,0.532-0.903,1.411-0.898V3.694c0-0.156-0.063-0.415-0.483-0.415
					c-0.234,0-0.479,0.073-0.64,0.176l-0.117-0.391c0.176-0.107,0.483-0.21,0.859-0.21c0.762,0,0.981,0.483,0.981,1.001v0.859
					c0,0.215,0.01,0.425,0.034,0.571H14.681z M14.603,4.124c-0.425-0.01-0.83,0.083-0.83,0.444c0,0.234,0.151,0.342,0.342,0.342
					c0.239,0,0.415-0.156,0.469-0.327c0.015-0.044,0.02-0.093,0.02-0.132V4.124z"/>
				<path fill="#FFFFFF" d="M16.594,3.616c0-0.273-0.005-0.503-0.02-0.708h0.527l0.029,0.356h0.015
					c0.103-0.186,0.361-0.41,0.757-0.41c0.415,0,0.845,0.269,0.845,1.021v1.411h-0.601V3.943c0-0.342-0.127-0.601-0.454-0.601
					c-0.239,0-0.405,0.171-0.469,0.352C17.205,3.748,17.2,3.821,17.2,3.89v1.396h-0.605V3.616z"/>
				<path fill="#FFFFFF" d="M20.607,5.286l-0.039-0.264h-0.015C20.406,5.208,20.157,5.34,19.85,5.34
					c-0.479,0-0.747-0.347-0.747-0.708c0-0.601,0.532-0.903,1.411-0.898V3.694c0-0.156-0.063-0.415-0.483-0.415
					c-0.234,0-0.479,0.073-0.64,0.176l-0.117-0.391c0.176-0.107,0.483-0.21,0.859-0.21c0.762,0,0.981,0.483,0.981,1.001v0.859
					c0,0.215,0.01,0.425,0.034,0.571H20.607z M20.529,4.124c-0.425-0.01-0.83,0.083-0.83,0.444c0,0.234,0.151,0.342,0.342,0.342
					c0.239,0,0.415-0.156,0.469-0.327c0.015-0.044,0.02-0.093,0.02-0.132V4.124z"/>
				<path fill="#FFFFFF" d="M1.299,8.453h0.01c0.059-0.093,0.127-0.195,0.19-0.278l0.576-0.767h0.723L1.919,8.38l1.006,1.406H2.188
					l-0.684-1.05L1.299,8.976v0.811H0.698V6.319h0.601V8.453z"/>
				<path fill="#FFFFFF" d="M5.291,8.575c0,0.874-0.615,1.265-1.221,1.265c-0.674,0-1.191-0.464-1.191-1.226
					c0-0.781,0.513-1.26,1.23-1.26C4.818,7.354,5.291,7.853,5.291,8.575z M3.499,8.6c0,0.459,0.225,0.806,0.591,0.806
					c0.342,0,0.581-0.337,0.581-0.815c0-0.371-0.166-0.796-0.576-0.796C3.67,7.794,3.499,8.204,3.499,8.6z"/>
				<path fill="#FFFFFF" d="M5.666,8.116c0-0.273-0.005-0.503-0.02-0.708h0.518L6.188,7.76h0.015
					C6.32,7.574,6.535,7.354,6.935,7.354c0.313,0,0.557,0.176,0.659,0.439h0.01c0.083-0.132,0.181-0.229,0.293-0.298
					C8.029,7.403,8.18,7.354,8.376,7.354c0.396,0,0.796,0.269,0.796,1.03v1.401H8.586V8.473c0-0.396-0.137-0.63-0.425-0.63
					c-0.205,0-0.356,0.146-0.42,0.317c-0.015,0.059-0.029,0.132-0.029,0.2v1.426H7.126V8.409c0-0.332-0.132-0.566-0.41-0.566
					c-0.225,0-0.376,0.176-0.43,0.342C6.261,8.243,6.252,8.312,6.252,8.38v1.406H5.666V8.116z"/>
				<path fill="#FFFFFF" d="M9.689,8.199c0-0.313-0.01-0.566-0.02-0.791h0.527l0.029,0.366h0.01c0.176-0.269,0.454-0.42,0.815-0.42
					c0.547,0,1.001,0.469,1.001,1.211c0,0.859-0.542,1.274-1.084,1.274c-0.298,0-0.547-0.127-0.669-0.317h-0.01v1.23H9.689V8.199z
					 M10.29,8.79c0,0.059,0.005,0.112,0.02,0.166c0.059,0.244,0.273,0.42,0.527,0.42c0.381,0,0.605-0.317,0.605-0.786
					c0-0.42-0.205-0.762-0.591-0.762c-0.249,0-0.479,0.181-0.537,0.444C10.3,8.321,10.29,8.375,10.29,8.424V8.79z"/>
				<path fill="#FFFFFF" d="M12.427,8.175c0-0.322-0.005-0.552-0.02-0.767h0.522l0.02,0.454h0.02
					c0.117-0.337,0.396-0.508,0.649-0.508c0.059,0,0.093,0.005,0.142,0.015v0.566c-0.049-0.01-0.103-0.02-0.176-0.02
					c-0.288,0-0.483,0.186-0.537,0.454c-0.01,0.054-0.02,0.117-0.02,0.186v1.23h-0.601V8.175z"/>
				<path fill="#FFFFFF" d="M14.426,8.766c0.015,0.43,0.352,0.615,0.732,0.615c0.278,0,0.479-0.039,0.659-0.107l0.088,0.415
					c-0.205,0.083-0.488,0.146-0.83,0.146c-0.771,0-1.226-0.474-1.226-1.201c0-0.659,0.4-1.279,1.162-1.279
					c0.771,0,1.025,0.635,1.025,1.157c0,0.112-0.01,0.2-0.02,0.254H14.426z M15.471,8.346c0.005-0.22-0.093-0.581-0.493-0.581
					c-0.371,0-0.527,0.337-0.552,0.581H15.471z"/>
				<path fill="#FFFFFF" d="M16.372,9.234c0.137,0.083,0.396,0.171,0.61,0.171c0.264,0,0.381-0.107,0.381-0.264
					c0-0.161-0.098-0.244-0.391-0.347c-0.464-0.161-0.659-0.415-0.654-0.693c0-0.42,0.347-0.747,0.898-0.747
					c0.264,0,0.493,0.068,0.63,0.142L17.73,7.921c-0.103-0.059-0.293-0.137-0.503-0.137c-0.215,0-0.332,0.103-0.332,0.249
					c0,0.151,0.112,0.225,0.415,0.332c0.43,0.156,0.63,0.376,0.635,0.728c0,0.43-0.337,0.742-0.967,0.742
					c-0.288,0-0.547-0.068-0.723-0.166L16.372,9.234z"/>
				<path fill="#FFFFFF" d="M20.579,8.575c0,0.874-0.615,1.265-1.221,1.265c-0.674,0-1.191-0.464-1.191-1.226
					c0-0.781,0.513-1.26,1.23-1.26C20.105,7.354,20.579,7.853,20.579,8.575z M18.787,8.6c0,0.459,0.225,0.806,0.591,0.806
					c0.342,0,0.581-0.337,0.581-0.815c0-0.371-0.166-0.796-0.576-0.796C18.958,7.794,18.787,8.204,18.787,8.6z"/>
				<path fill="#FFFFFF" d="M20.953,8.175c0-0.322-0.005-0.552-0.02-0.767h0.522l0.02,0.454h0.02
					c0.117-0.337,0.396-0.508,0.649-0.508c0.059,0,0.093,0.005,0.142,0.015v0.566c-0.049-0.01-0.103-0.02-0.176-0.02
					c-0.288,0-0.483,0.186-0.537,0.454c-0.01,0.054-0.02,0.117-0.02,0.186v1.23h-0.601V8.175z"/>
			</g>
		</g>
		<g>
			<path fill="#FFFFFF" d="M3.477,16.001H3.46l-1.011,0.51l-0.179-0.79l1.343-0.663h0.875v5.524H3.477V16.001z"/>
			<path fill="#FFFFFF" d="M9.496,15.925H7.371L7.21,17.029c0.127-0.017,0.238-0.025,0.399-0.025c0.484,0,0.969,0.11,1.343,0.357
				c0.417,0.263,0.723,0.73,0.723,1.402c0,1.054-0.875,1.912-2.235,1.912c-0.638,0-1.173-0.162-1.462-0.323l0.212-0.79
				c0.238,0.127,0.714,0.289,1.215,0.289c0.612,0,1.199-0.349,1.199-1.012c0-0.629-0.468-1.046-1.573-1.046
				c-0.306,0-0.535,0.018-0.756,0.052l0.366-2.788h2.855V15.925z"/>
			<path fill="#FFFFFF" d="M11.987,14.548h1.054v6.034h-1.054V14.548z"/>
			<path fill="#FFFFFF" d="M14.99,18.806c0.025,0.748,0.612,1.071,1.275,1.071c0.484,0,0.833-0.068,1.147-0.188l0.153,0.723
				c-0.357,0.145-0.85,0.255-1.445,0.255c-1.343,0-2.133-0.824-2.133-2.091c0-1.147,0.697-2.227,2.023-2.227
				c1.343,0,1.785,1.104,1.785,2.014c0,0.196-0.017,0.349-0.034,0.442H14.99z M16.809,18.075c0.009-0.383-0.162-1.012-0.858-1.012
				c-0.646,0-0.918,0.586-0.96,1.012H16.809z"/>
			<path fill="#FFFFFF" d="M19.94,15.262v1.182h0.995v0.781H19.94v1.827c0,0.502,0.136,0.766,0.536,0.766
				c0.178,0,0.314-0.025,0.408-0.051l0.017,0.799c-0.153,0.06-0.425,0.102-0.756,0.102c-0.382,0-0.706-0.128-0.901-0.34
				c-0.221-0.238-0.323-0.612-0.323-1.156v-1.946h-0.595v-0.781h0.595v-0.936L19.94,15.262z"/>
		</g>
	</g>
</g>
</svg>
