<?xml version="1.0" encoding="utf-8"?>
<!-- Generator: Adobe Illustrator 16.0.3, SVG Export Plug-In . SVG Version: 6.00 Build 0)  -->
<!DOCTYPE svg PUBLIC "-//W3C//DTD SVG 1.1//EN" "http://www.w3.org/Graphics/SVG/1.1/DTD/svg11.dtd">
<svg version="1.1" xmlns="http://www.w3.org/2000/svg" xmlns:xlink="http://www.w3.org/1999/xlink" x="0px" y="0px" width="22.68px"
	 height="22.68px" viewBox="0 0 22.68 22.68" enable-background="new 0 0 22.68 22.68" xml:space="preserve">
<g id="BCGRND" display="none">
</g>
<g id="IKONY">
	<g>
		<defs>
			<rect id="SVGID_1_" width="22.676" height="22.678"/>
		</defs>
		<clipPath id="SVGID_2_">
			<use xlink:href="#SVGID_1_"  overflow="visible"/>
		</clipPath>
		<rect clip-path="url(#SVGID_2_)" fill="#585857" width="22.676" height="22.678"/>
		<g clip-path="url(#SVGID_2_)">
			<g>
				<rect x="0.001" y="11.956" fill="#FFFFFF" width="22.678" height="0.889"/>
			</g>
			<g>
				<path fill="#FFFFFF" d="M3.859,4.955l1.68-2.447V2.494H4.006V1.996H6.32v0.352L4.66,4.773v0.016h1.684v0.498H3.859V4.955z"/>
				<path fill="#FFFFFF" d="M8.765,4.715c0,0.215,0.01,0.426,0.039,0.572H8.262L8.218,5.023H8.203C8.062,5.209,7.813,5.34,7.5,5.34
					c-0.479,0-0.747-0.346-0.747-0.707c0-0.596,0.532-0.904,1.411-0.898V3.695c0-0.156-0.063-0.416-0.483-0.416
					c-0.234,0-0.479,0.074-0.64,0.176L6.924,3.064C7.1,2.957,7.407,2.855,7.783,2.855c0.762,0,0.981,0.482,0.981,1.006V4.715z
					 M8.179,4.125c-0.425-0.006-0.83,0.082-0.83,0.443C7.349,4.803,7.5,4.91,7.69,4.91c0.244,0,0.415-0.156,0.474-0.326
					c0.015-0.045,0.015-0.088,0.015-0.133V4.125z M8.545,1.879L7.949,2.602H7.534l0.425-0.723H8.545z"/>
				<path fill="#FFFFFF" d="M9.5,3.676c0-0.322-0.004-0.557-0.02-0.768h0.518l0.025,0.449h0.014
					c0.117-0.332,0.396-0.502,0.654-0.502c0.059,0,0.094,0.004,0.143,0.014v0.563c-0.055-0.01-0.107-0.016-0.182-0.016
					c-0.283,0-0.482,0.182-0.537,0.455c-0.01,0.053-0.014,0.117-0.014,0.18v1.236H9.5V3.676z"/>
				<path fill="#FFFFFF" d="M13.468,4.574c0,0.283,0.01,0.518,0.02,0.713h-0.522L12.936,4.93h-0.015
					c-0.103,0.166-0.337,0.41-0.767,0.41s-0.825-0.258-0.825-1.035V2.908h0.601v1.295c0,0.395,0.127,0.648,0.444,0.648
					c0.244,0,0.4-0.166,0.459-0.322c0.024-0.049,0.034-0.117,0.034-0.186V2.908h0.601V4.574z"/>
				<path fill="#FFFFFF" d="M14.818,3.953h0.01c0.059-0.092,0.127-0.195,0.186-0.277l0.582-0.768h0.723l-0.885,0.973l1.006,1.406
					h-0.736L15.02,4.236l-0.201,0.24v0.811h-0.6V1.82h0.6V3.953z"/>
				<path fill="#FFFFFF" d="M18.703,4.715c0,0.215,0.01,0.426,0.039,0.572h-0.541l-0.045-0.264h-0.014
					C18,5.209,17.752,5.34,17.439,5.34c-0.479,0-0.748-0.346-0.748-0.707c0-0.596,0.533-0.904,1.412-0.898V3.695
					c0-0.156-0.064-0.416-0.484-0.416c-0.234,0-0.479,0.074-0.639,0.176l-0.117-0.391c0.176-0.107,0.482-0.209,0.859-0.209
					c0.762,0,0.98,0.482,0.98,1.006V4.715z M18.117,4.125c-0.424-0.006-0.83,0.082-0.83,0.443c0,0.234,0.152,0.342,0.342,0.342
					c0.244,0,0.416-0.156,0.475-0.326c0.014-0.045,0.014-0.088,0.014-0.133V4.125z"/>
				<path fill="#FFFFFF" d="M1.666,8.117c0-0.273-0.01-0.504-0.02-0.709h0.521l0.029,0.357h0.016c0.107-0.186,0.365-0.41,0.762-0.41
					c0.414,0,0.844,0.268,0.844,1.02v1.412h-0.6V8.443c0-0.342-0.127-0.6-0.455-0.6c-0.238,0-0.404,0.17-0.469,0.352
					c-0.02,0.049-0.029,0.121-0.029,0.189v1.402h-0.6V8.117z"/>
				<path fill="#FFFFFF" d="M6.405,9.215c0,0.215,0.01,0.426,0.039,0.572H5.902L5.858,9.523H5.844
					C5.702,9.709,5.453,9.84,5.141,9.84c-0.479,0-0.747-0.346-0.747-0.707c0-0.596,0.532-0.904,1.411-0.898V8.195
					c0-0.156-0.063-0.416-0.483-0.416c-0.234,0-0.479,0.074-0.64,0.176L4.564,7.564C4.74,7.457,5.048,7.355,5.424,7.355
					c0.762,0,0.981,0.482,0.981,1.006V9.215z M5.819,8.625c-0.425-0.006-0.83,0.082-0.83,0.443c0,0.234,0.151,0.342,0.342,0.342
					c0.244,0,0.415-0.156,0.474-0.326c0.015-0.045,0.015-0.088,0.015-0.133V8.625z"/>
				<path fill="#FFFFFF" d="M8.251,8.117c0-0.273-0.01-0.504-0.02-0.709h0.513L8.773,7.76h0.015C8.9,7.574,9.115,7.355,9.521,7.355
					c0.313,0,0.557,0.176,0.659,0.439h0.01c0.083-0.133,0.181-0.23,0.288-0.299c0.137-0.092,0.288-0.141,0.488-0.141
					c0.391,0,0.791,0.268,0.791,1.029v1.402h-0.586V8.473c0-0.395-0.137-0.629-0.425-0.629c-0.205,0-0.356,0.146-0.42,0.316
					c-0.02,0.055-0.029,0.133-0.029,0.201v1.426H9.711V8.41c0-0.332-0.132-0.566-0.41-0.566c-0.225,0-0.376,0.176-0.435,0.336
					c-0.02,0.064-0.029,0.133-0.029,0.201v1.406H8.251V8.117z"/>
				<path fill="#FFFFFF" d="M14.756,8.576c0,0.873-0.615,1.264-1.221,1.264c-0.67,0-1.191-0.459-1.191-1.225
					c0-0.781,0.512-1.26,1.23-1.26C14.281,7.355,14.756,7.854,14.756,8.576z M12.963,8.6c0,0.459,0.23,0.807,0.592,0.807
					c0.342,0,0.58-0.332,0.58-0.816c0-0.371-0.166-0.801-0.576-0.801C13.135,7.789,12.963,8.205,12.963,8.6z"/>
				<path fill="#FFFFFF" d="M16.038,6.799v0.609h0.571v0.449h-0.571v1.051c0,0.293,0.078,0.439,0.308,0.439
					c0.107,0,0.166-0.006,0.234-0.025l0.01,0.455c-0.088,0.033-0.249,0.063-0.435,0.063c-0.225,0-0.405-0.072-0.518-0.195
					c-0.132-0.137-0.19-0.355-0.19-0.668V7.857H15.11V7.408h0.337V6.965L16.038,6.799z"/>
				<path fill="#FFFFFF" d="M19.395,8.576c0,0.873-0.615,1.264-1.221,1.264c-0.668,0-1.191-0.459-1.191-1.225
					c0-0.781,0.514-1.26,1.23-1.26C18.922,7.355,19.395,7.854,19.395,8.576z M17.604,8.6c0,0.459,0.229,0.807,0.59,0.807
					c0.342,0,0.582-0.332,0.582-0.816c0-0.371-0.166-0.801-0.576-0.801C17.773,7.789,17.604,8.205,17.604,8.6z"/>
				<path fill="#FFFFFF" d="M19.989,8.176c0-0.322-0.005-0.557-0.02-0.768h0.518l0.024,0.449h0.015
					c0.117-0.332,0.396-0.502,0.654-0.502c0.059,0,0.093,0.004,0.142,0.014v0.563c-0.054-0.01-0.107-0.016-0.181-0.016
					c-0.283,0-0.483,0.182-0.537,0.455c-0.01,0.053-0.015,0.117-0.015,0.18v1.236h-0.601V8.176z"/>
			</g>
		</g>
		<g clip-path="url(#SVGID_2_)">
			<g>
				<path fill="none" d="M19.606,16.432c-0.576,0.576-1.299,1.023-2.135,1.276c-2.711,0.822-5.572-0.709-6.393-3.418
					c-0.19-0.632-0.244-1.27-0.195-1.89h-0.429c-0.049,0.668,0.013,1.349,0.214,2.013c0.887,2.932,3.996,4.594,6.926,3.706
					c0.873-0.265,1.674-0.741,2.314-1.384c1.159-1.159,1.722-2.744,1.604-4.335h-0.432C21.202,13.916,20.65,15.388,19.606,16.432z"
					/>
			</g>
			<g>
				<path fill="none" d="M13.821,13.458c0.174,0.58,0.564,1.055,1.098,1.339c0.531,0.284,1.143,0.346,1.721,0.169
					c0.361-0.108,0.676-0.297,0.939-0.561c0.53-0.53,0.741-1.279,0.608-2.005h-4.411C13.713,12.747,13.715,13.108,13.821,13.458z"/>
			</g>
			<g>
				<path fill="none" d="M22.679,12.558V12.4H22.34c0.002,0.064,0.005,0.128,0.005,0.204L22.679,12.558z"/>
			</g>
			<g>
				<path fill="none" d="M8.522,21.952c-0.176-0.579-0.564-1.053-1.096-1.338c-0.533-0.284-1.143-0.347-1.721-0.171
					c-0.363,0.11-0.678,0.298-0.941,0.561c-0.453,0.454-0.683,1.068-0.658,1.689h4.498C8.613,22.446,8.597,22.197,8.522,21.952z"/>
			</g>
			<g>
				<g opacity="0.5">
					<path fill="#FFFFFF" d="M11.079,14.29c0.82,2.709,3.682,4.24,6.393,3.418c0.836-0.253,1.559-0.7,2.135-1.276
						c1.044-1.044,1.596-2.516,1.476-4.031h-2.895c0.133,0.726-0.078,1.475-0.608,2.005c-0.264,0.264-0.578,0.452-0.939,0.561
						c-0.578,0.177-1.189,0.115-1.721-0.169c-0.533-0.284-0.924-0.759-1.098-1.339c-0.106-0.35-0.108-0.711-0.045-1.058h-2.893
						C10.835,13.021,10.889,13.658,11.079,14.29z"/>
				</g>
				<g>
					<path fill="#FFFFFF" d="M22.679,12.558l-0.334,0.047c0-0.076-0.003-0.14-0.005-0.204h-0.826
						c0.117,1.591-0.445,3.176-1.604,4.335c-0.641,0.643-1.441,1.119-2.314,1.384c-2.93,0.888-6.039-0.774-6.926-3.706
						c-0.201-0.664-0.263-1.345-0.214-2.013h-1.37l-0.023,0.238l0.559,0.14c-0.002,0.427,0.045,0.854,0.127,1.279L9.188,14.32
						l0.301,0.991l0.602-0.089c0.166,0.403,0.369,0.783,0.605,1.134l-0.408,0.448l0.656,0.802l0.521-0.312
						c0.305,0.305,0.641,0.579,0.998,0.815l-0.193,0.539l0.912,0.489l0.34-0.461c0.396,0.167,0.813,0.292,1.24,0.377l0.027,0.57
						l1.029,0.102l0.139-0.551c0.426,0.002,0.855-0.041,1.285-0.127l0.26,0.55l0.988-0.301l-0.09-0.605
						c0.396-0.166,0.773-0.369,1.127-0.605l0.457,0.415l0.801-0.658l-0.311-0.519c0.004-0.003,0.006-0.007,0.012-0.012
						c0.305-0.305,0.563-0.64,0.793-0.992l0.551,0.197l0.486-0.914l-0.461-0.34c0.17-0.4,0.287-0.815,0.371-1.237l0.451-0.022
						c0-0.178,0-0.354,0-0.513V12.558z"/>
				</g>
			</g>
			<g>
				<g opacity="0.5">
					<path fill="#FFFFFF" d="M11.263,21.121c-0.82-2.709-3.682-4.24-6.393-3.418c-0.836,0.253-1.559,0.7-2.135,1.276
						c-1.044,1.044-1.596,2.516-1.476,4.031h2.895c-0.133-0.726,0.078-1.475,0.608-2.005c0.264-0.264,0.578-0.452,0.939-0.561
						c0.578-0.177,1.189-0.115,1.721,0.169c0.533,0.284,0.924,0.759,1.098,1.339c0.106,0.35,0.108,0.711,0.045,1.058h2.893
						C11.507,22.391,11.453,21.753,11.263,21.121z"/>
				</g>
				<g>
					<path fill="#FFFFFF" d="M-0.337,22.854l0.334-0.047c0,0.076,0.003,0.14,0.005,0.204h0.826
						c-0.117-1.591,0.445-3.176,1.604-4.335c0.641-0.643,1.441-1.119,2.314-1.384c2.93-0.888,6.039,0.774,6.926,3.706
						c0.201,0.664,0.263,1.345,0.214,2.013h1.37l0.023-0.238l-0.559-0.14c0.002-0.427-0.045-0.854-0.127-1.279l0.559-0.263
						L12.853,20.1l-0.602,0.089c-0.166-0.403-0.369-0.783-0.605-1.134l0.408-0.448l-0.656-0.802l-0.521,0.312
						c-0.305-0.305-0.641-0.579-0.998-0.815l0.193-0.539l-0.912-0.489l-0.34,0.461c-0.396-0.167-0.813-0.292-1.24-0.377l-0.027-0.57
						l-1.029-0.102l-0.139,0.551c-0.426-0.002-0.855,0.041-1.285,0.127l-0.26-0.55l-0.988,0.301l0.09,0.605
						c-0.396,0.166-0.773,0.369-1.127,0.605l-0.457-0.415l-0.801,0.658l0.311,0.519c-0.004,0.003-0.006,0.007-0.012,0.012
						c-0.305,0.305-0.563,0.64-0.793,0.992l-0.551-0.197l-0.486,0.914l0.461,0.34c-0.17,0.4-0.287,0.815-0.371,1.237l-0.451,0.022
						c0,0.178,0,0.354,0,0.513V22.854z"/>
				</g>
			</g>
		</g>
	</g>
</g>
</svg>
