<?xml version="1.0" encoding="utf-8"?>
<!-- Generator: Adobe Illustrator 16.0.3, SVG Export Plug-In . SVG Version: 6.00 Build 0)  -->
<!DOCTYPE svg PUBLIC "-//W3C//DTD SVG 1.1//EN" "http://www.w3.org/Graphics/SVG/1.1/DTD/svg11.dtd">
<svg version="1.1" xmlns="http://www.w3.org/2000/svg" xmlns:xlink="http://www.w3.org/1999/xlink" x="0px" y="0px" width="22.68px"
	 height="22.68px" viewBox="0 0 22.68 22.68" enable-background="new 0 0 22.68 22.68" xml:space="preserve">
<g id="BCGRND">
</g>
<g id="BAREVNE_BCGRND">
	<g>
		<polygon fill="#585857" points="22.678,16.334 22.678,0 0,0 0,22.678 14.117,22.678 22.678,22.678 		"/>
	</g>
</g>
<g id="IKONY">
	<g>
		<g>
			<rect y="7.768" fill="#FFFFFF" width="22.678" height="0.889"/>
		</g>
		<g>
			<path fill="#FFFFFF" d="M3.981,5.237l1.685-2.446V2.776H4.132V2.278h2.314V2.63l-1.66,2.422v0.02h1.685v0.498h-2.49V5.237z"/>
			<path fill="#FFFFFF" d="M8.33,5.569L8.291,5.306H8.276C8.13,5.491,7.881,5.623,7.573,5.623c-0.479,0-0.747-0.347-0.747-0.708
				c0-0.601,0.532-0.903,1.411-0.898V3.978c0-0.156-0.063-0.415-0.483-0.415c-0.234,0-0.479,0.073-0.64,0.176L6.997,3.348
				c0.176-0.107,0.483-0.21,0.859-0.21c0.762,0,0.981,0.483,0.981,1.001v0.859c0,0.215,0.01,0.425,0.034,0.571H8.33z M8.252,4.407
				c-0.425-0.01-0.83,0.083-0.83,0.444c0,0.234,0.151,0.342,0.342,0.342c0.239,0,0.415-0.156,0.469-0.327
				c0.015-0.044,0.02-0.093,0.02-0.132V4.407z M8.623,2.161L8.022,2.884H7.607l0.425-0.723H8.623z"/>
			<path fill="#FFFFFF" d="M9.525,3.958c0-0.322-0.005-0.552-0.02-0.767h0.522l0.02,0.454h0.02c0.117-0.337,0.396-0.508,0.649-0.508
				c0.059,0,0.093,0.005,0.142,0.015v0.566c-0.049-0.01-0.103-0.02-0.176-0.02c-0.288,0-0.483,0.186-0.537,0.454
				c-0.01,0.054-0.02,0.117-0.02,0.186v1.23H9.525V3.958z"/>
			<path fill="#FFFFFF" d="M13.443,4.856c0,0.283,0.01,0.518,0.02,0.713h-0.527l-0.029-0.361h-0.01
				c-0.103,0.171-0.337,0.415-0.762,0.415c-0.435,0-0.83-0.259-0.83-1.035V3.191h0.601v1.294c0,0.396,0.127,0.649,0.444,0.649
				c0.239,0,0.396-0.171,0.459-0.322c0.02-0.054,0.034-0.117,0.034-0.186V3.191h0.601V4.856z"/>
			<path fill="#FFFFFF" d="M14.745,4.236h0.01c0.059-0.093,0.127-0.195,0.19-0.278l0.576-0.767h0.723l-0.879,0.972l1.006,1.406
				h-0.737L14.95,4.52l-0.205,0.239v0.811h-0.601V2.103h0.601V4.236z"/>
			<path fill="#FFFFFF" d="M18.074,5.569l-0.039-0.264H18.02c-0.146,0.186-0.396,0.317-0.703,0.317
				c-0.479,0-0.747-0.347-0.747-0.708c0-0.601,0.532-0.903,1.411-0.898V3.978c0-0.156-0.063-0.415-0.483-0.415
				c-0.234,0-0.479,0.073-0.64,0.176l-0.117-0.391c0.176-0.107,0.483-0.21,0.859-0.21c0.762,0,0.981,0.483,0.981,1.001v0.859
				c0,0.215,0.01,0.425,0.034,0.571H18.074z M17.996,4.407c-0.425-0.01-0.83,0.083-0.83,0.444c0,0.234,0.151,0.342,0.342,0.342
				c0.239,0,0.415-0.156,0.469-0.327c0.015-0.044,0.02-0.093,0.02-0.132V4.407z"/>
		</g>
		<g>
			<path fill="#FFFFFF" d="M7.553,12.544H7.526l-1.587,0.801l-0.28-1.24l2.107-1.041H9.14v8.669H7.553V12.544z"/>
			<path fill="#FFFFFF" d="M16.74,15.345c0,2.787-1.094,4.534-3.161,4.534c-2,0-3.067-1.813-3.081-4.454
				c0-2.694,1.147-4.508,3.174-4.508C15.767,10.917,16.74,12.784,16.74,15.345z M12.152,15.425c-0.013,2.107,0.574,3.201,1.48,3.201
				c0.96,0,1.467-1.174,1.467-3.255c0-2.014-0.48-3.2-1.467-3.2C12.752,12.171,12.139,13.251,12.152,15.425z"/>
		</g>
	</g>
</g>
</svg>
