<?xml version="1.0" encoding="utf-8"?>
<!-- Generator: Adobe Illustrator 16.0.3, SVG Export Plug-In . SVG Version: 6.00 Build 0)  -->
<!DOCTYPE svg PUBLIC "-//W3C//DTD SVG 1.1//EN" "http://www.w3.org/Graphics/SVG/1.1/DTD/svg11.dtd">
<svg version="1.1" xmlns="http://www.w3.org/2000/svg" xmlns:xlink="http://www.w3.org/1999/xlink" x="0px" y="0px" width="22.68px"
	 height="22.68px" viewBox="0 0 22.68 22.68" enable-background="new 0 0 22.68 22.68" xml:space="preserve">
<g id="BCGRND">
</g>
<g id="BAREVNE_BCGRND">
	<rect fill="#585857" width="22.676" height="22.678"/>
</g>
<g id="IKONY">
	<g>
		<g>
			<rect y="11.956" fill="#FFFFFF" width="22.678" height="0.889"/>
		</g>
		<g>
			<path fill="#FFFFFF" d="M1.444,4.955l1.685-2.446V2.494H1.596V1.996H3.91v0.352L2.25,4.77v0.02h1.685v0.498h-2.49V4.955z"/>
			<path fill="#FFFFFF" d="M5.623,5.287L5.583,5.023H5.569C5.422,5.209,5.173,5.341,4.866,5.341c-0.479,0-0.747-0.347-0.747-0.708
				c0-0.601,0.532-0.903,1.411-0.898V3.695c0-0.156-0.063-0.415-0.483-0.415c-0.234,0-0.479,0.073-0.64,0.176L4.29,3.065
				c0.176-0.107,0.483-0.21,0.859-0.21c0.762,0,0.981,0.483,0.981,1.001v0.859c0,0.215,0.01,0.425,0.034,0.571H5.623z M5.544,4.125
				c-0.425-0.01-0.83,0.083-0.83,0.444c0,0.234,0.151,0.342,0.342,0.342c0.239,0,0.415-0.156,0.469-0.327
				c0.015-0.044,0.02-0.093,0.02-0.132V4.125z M5.916,1.879L5.315,2.602H4.9l0.425-0.723H5.916z"/>
			<path fill="#FFFFFF" d="M6.646,3.676c0-0.322-0.005-0.552-0.02-0.767h0.522l0.02,0.454h0.02c0.117-0.337,0.396-0.508,0.649-0.508
				c0.059,0,0.093,0.005,0.142,0.015v0.566c-0.049-0.01-0.103-0.02-0.176-0.02c-0.288,0-0.483,0.186-0.537,0.454
				c-0.01,0.054-0.02,0.117-0.02,0.186v1.23H6.646V3.676z"/>
			<path fill="#FFFFFF" d="M10.393,4.574c0,0.283,0.01,0.518,0.02,0.713H9.885L9.856,4.926h-0.01
				C9.744,5.097,9.509,5.341,9.084,5.341c-0.435,0-0.83-0.259-0.83-1.035V2.909h0.601v1.294c0,0.396,0.127,0.649,0.444,0.649
				c0.239,0,0.396-0.171,0.459-0.322c0.02-0.054,0.034-0.117,0.034-0.186V2.909h0.601V4.574z"/>
			<path fill="#FFFFFF" d="M11.524,3.954h0.01c0.059-0.093,0.127-0.195,0.19-0.278l0.576-0.767h0.723l-0.879,0.972l1.006,1.406
				h-0.737l-0.684-1.05l-0.205,0.239v0.811h-0.601V1.82h0.601V3.954z"/>
			<path fill="#FFFFFF" d="M14.682,5.287l-0.039-0.264h-0.015c-0.146,0.186-0.396,0.317-0.703,0.317
				c-0.479,0-0.747-0.347-0.747-0.708c0-0.601,0.532-0.903,1.411-0.898V3.695c0-0.156-0.063-0.415-0.483-0.415
				c-0.234,0-0.479,0.073-0.64,0.176l-0.117-0.391c0.176-0.107,0.483-0.21,0.859-0.21c0.762,0,0.981,0.483,0.981,1.001v0.859
				c0,0.215,0.01,0.425,0.034,0.571H14.682z M14.604,4.125c-0.425-0.01-0.83,0.083-0.83,0.444c0,0.234,0.151,0.342,0.342,0.342
				c0.239,0,0.415-0.156,0.469-0.327c0.015-0.044,0.02-0.093,0.02-0.132V4.125z"/>
			<path fill="#FFFFFF" d="M16.595,3.617c0-0.273-0.005-0.503-0.02-0.708h0.527l0.029,0.356h0.015
				c0.103-0.186,0.361-0.41,0.757-0.41c0.415,0,0.845,0.269,0.845,1.021v1.411h-0.601V3.944c0-0.342-0.127-0.601-0.454-0.601
				c-0.239,0-0.405,0.171-0.469,0.352C17.205,3.749,17.2,3.822,17.2,3.891v1.396h-0.605V3.617z"/>
			<path fill="#FFFFFF" d="M20.607,5.287l-0.039-0.264h-0.015c-0.146,0.186-0.396,0.317-0.703,0.317
				c-0.479,0-0.747-0.347-0.747-0.708c0-0.601,0.532-0.903,1.411-0.898V3.695c0-0.156-0.063-0.415-0.483-0.415
				c-0.234,0-0.479,0.073-0.64,0.176l-0.117-0.391c0.176-0.107,0.483-0.21,0.859-0.21c0.762,0,0.981,0.483,0.981,1.001v0.859
				c0,0.215,0.01,0.425,0.034,0.571H20.607z M20.529,4.125c-0.425-0.01-0.83,0.083-0.83,0.444c0,0.234,0.151,0.342,0.342,0.342
				c0.239,0,0.415-0.156,0.469-0.327c0.015-0.044,0.02-0.093,0.02-0.132V4.125z"/>
			<path fill="#FFFFFF" d="M1.299,8.454h0.01C1.368,8.361,1.436,8.259,1.5,8.176l0.576-0.767h0.723L1.919,8.381l1.006,1.406H2.188
				l-0.684-1.05L1.299,8.977v0.811H0.699V6.32h0.601V8.454z"/>
			<path fill="#FFFFFF" d="M5.292,8.576c0,0.874-0.615,1.265-1.221,1.265c-0.674,0-1.191-0.464-1.191-1.226
				c0-0.781,0.513-1.26,1.23-1.26C4.818,7.355,5.292,7.854,5.292,8.576z M3.5,8.601c0,0.459,0.225,0.806,0.591,0.806
				c0.342,0,0.581-0.337,0.581-0.815c0-0.371-0.166-0.796-0.576-0.796C3.67,7.795,3.5,8.205,3.5,8.601z"/>
			<path fill="#FFFFFF" d="M5.666,8.117c0-0.273-0.005-0.503-0.02-0.708h0.518l0.024,0.352h0.015
				C6.32,7.575,6.535,7.355,6.936,7.355c0.313,0,0.557,0.176,0.659,0.439h0.01c0.083-0.132,0.181-0.229,0.293-0.298
				c0.132-0.093,0.283-0.142,0.479-0.142c0.396,0,0.796,0.269,0.796,1.03v1.401H8.586V8.474c0-0.396-0.137-0.63-0.425-0.63
				c-0.205,0-0.356,0.146-0.42,0.317c-0.015,0.059-0.029,0.132-0.029,0.2v1.426H7.126V8.41c0-0.332-0.132-0.566-0.41-0.566
				c-0.225,0-0.376,0.176-0.43,0.342C6.262,8.244,6.252,8.313,6.252,8.381v1.406H5.666V8.117z"/>
			<path fill="#FFFFFF" d="M9.689,8.2c0-0.313-0.01-0.566-0.02-0.791h0.527l0.029,0.366h0.01c0.176-0.269,0.454-0.42,0.815-0.42
				c0.547,0,1.001,0.469,1.001,1.211c0,0.859-0.542,1.274-1.084,1.274c-0.298,0-0.547-0.127-0.669-0.317h-0.01v1.23H9.689V8.2z
				 M10.29,8.791c0,0.059,0.005,0.112,0.02,0.166c0.059,0.244,0.273,0.42,0.527,0.42c0.381,0,0.605-0.317,0.605-0.786
				c0-0.42-0.205-0.762-0.591-0.762c-0.249,0-0.479,0.181-0.537,0.444C10.3,8.322,10.29,8.376,10.29,8.425V8.791z"/>
			<path fill="#FFFFFF" d="M12.427,8.176c0-0.322-0.005-0.552-0.02-0.767h0.522l0.02,0.454h0.02
				c0.117-0.337,0.396-0.508,0.649-0.508c0.059,0,0.093,0.005,0.142,0.015v0.566c-0.049-0.01-0.103-0.02-0.176-0.02
				c-0.288,0-0.483,0.186-0.537,0.454c-0.01,0.054-0.02,0.117-0.02,0.186v1.23h-0.601V8.176z"/>
			<path fill="#FFFFFF" d="M14.426,8.767c0.015,0.43,0.352,0.615,0.732,0.615c0.278,0,0.479-0.039,0.659-0.107l0.088,0.415
				c-0.205,0.083-0.488,0.146-0.83,0.146c-0.771,0-1.226-0.474-1.226-1.201c0-0.659,0.4-1.279,1.162-1.279
				c0.771,0,1.025,0.635,1.025,1.157c0,0.112-0.01,0.2-0.02,0.254H14.426z M15.471,8.347c0.005-0.22-0.093-0.581-0.493-0.581
				c-0.371,0-0.527,0.337-0.552,0.581H15.471z"/>
			<path fill="#FFFFFF" d="M16.373,9.235c0.137,0.083,0.396,0.171,0.61,0.171c0.264,0,0.381-0.107,0.381-0.264
				c0-0.161-0.098-0.244-0.391-0.347c-0.464-0.161-0.659-0.415-0.654-0.693c0-0.42,0.347-0.747,0.898-0.747
				c0.264,0,0.493,0.068,0.63,0.142L17.73,7.922c-0.103-0.059-0.293-0.137-0.503-0.137c-0.215,0-0.332,0.103-0.332,0.249
				c0,0.151,0.112,0.225,0.415,0.332c0.43,0.156,0.63,0.376,0.635,0.728c0,0.43-0.337,0.742-0.967,0.742
				c-0.288,0-0.547-0.068-0.723-0.166L16.373,9.235z"/>
			<path fill="#FFFFFF" d="M20.579,8.576c0,0.874-0.615,1.265-1.221,1.265c-0.674,0-1.191-0.464-1.191-1.226
				c0-0.781,0.513-1.26,1.23-1.26C20.105,7.355,20.579,7.854,20.579,8.576z M18.787,8.601c0,0.459,0.225,0.806,0.591,0.806
				c0.342,0,0.581-0.337,0.581-0.815c0-0.371-0.166-0.796-0.576-0.796C18.958,7.795,18.787,8.205,18.787,8.601z"/>
			<path fill="#FFFFFF" d="M20.954,8.176c0-0.322-0.005-0.552-0.02-0.767h0.522l0.02,0.454h0.02
				c0.117-0.337,0.396-0.508,0.649-0.508c0.059,0,0.093,0.005,0.142,0.015v0.566c-0.049-0.01-0.103-0.02-0.176-0.02
				c-0.288,0-0.483,0.186-0.537,0.454c-0.01,0.054-0.02,0.117-0.02,0.186v1.23h-0.601V8.176z"/>
		</g>
		<g>
			<path fill="#FFFFFF" d="M2.108,20.583v-0.638l0.655-0.604c1.3-1.207,1.912-1.869,1.921-2.601c0-0.493-0.264-0.926-0.986-0.926
				c-0.484,0-0.901,0.246-1.181,0.459l-0.306-0.74c0.399-0.322,1.003-0.569,1.7-0.569c1.224,0,1.819,0.773,1.819,1.675
				c0,0.969-0.697,1.751-1.658,2.643l-0.484,0.417v0.017h2.27v0.867H2.108z"/>
			<path fill="#FFFFFF" d="M10.31,17.787c0,1.776-0.697,2.89-2.014,2.89c-1.275,0-1.955-1.156-1.963-2.839
				c0-1.717,0.731-2.873,2.023-2.873C9.689,14.965,10.31,16.155,10.31,17.787z M7.386,17.838c-0.008,1.343,0.366,2.04,0.943,2.04
				c0.612,0,0.935-0.748,0.935-2.074c0-1.283-0.306-2.04-0.935-2.04C7.769,15.764,7.378,16.452,7.386,17.838z"/>
			<path fill="#FFFFFF" d="M12.41,14.549h1.054v6.034H12.41V14.549z"/>
			<path fill="#FFFFFF" d="M15.079,18.807c0.025,0.748,0.612,1.071,1.275,1.071c0.484,0,0.833-0.068,1.147-0.188l0.153,0.723
				c-0.357,0.145-0.85,0.255-1.445,0.255c-1.343,0-2.133-0.824-2.133-2.091c0-1.147,0.697-2.227,2.023-2.227
				c1.343,0,1.785,1.104,1.785,2.014c0,0.196-0.017,0.349-0.034,0.442H15.079z M16.897,18.076c0.009-0.383-0.162-1.012-0.858-1.012
				c-0.646,0-0.918,0.586-0.96,1.012H16.897z"/>
			<path fill="#FFFFFF" d="M19.668,15.263v1.182h0.995v0.781h-0.995v1.827c0,0.502,0.136,0.766,0.536,0.766
				c0.178,0,0.314-0.025,0.408-0.051l0.017,0.799c-0.153,0.06-0.425,0.102-0.756,0.102c-0.382,0-0.706-0.128-0.901-0.34
				c-0.221-0.238-0.323-0.612-0.323-1.156v-1.946h-0.595v-0.781h0.595v-0.936L19.668,15.263z"/>
		</g>
	</g>
</g>
</svg>
