<?xml version="1.0" encoding="utf-8"?>
<!-- Generator: Adobe Illustrator 16.0.3, SVG Export Plug-In . SVG Version: 6.00 Build 0)  -->
<!DOCTYPE svg PUBLIC "-//W3C//DTD SVG 1.1//EN" "http://www.w3.org/Graphics/SVG/1.1/DTD/svg11.dtd">
<svg version="1.1" xmlns="http://www.w3.org/2000/svg" xmlns:xlink="http://www.w3.org/1999/xlink" x="0px" y="0px" width="22.68px"
	 height="22.68px" viewBox="0 0 22.68 22.68" enable-background="new 0 0 22.68 22.68" xml:space="preserve">
<g id="BCGRND" display="none">
</g>
<g id="IKONY">
	<rect x="0" fill="#585857" width="22.676" height="22.678"/>
	<g>
		<g>
			<g>
				<g>
					<rect x="0" y="11.956" fill="#FFFFFF" width="22.678" height="0.889"/>
				</g>
				<g>
					<g>
						<path fill="#FFFFFF" d="M4.531,2.498H3.594V1.996h2.485v0.502H5.132v2.789H4.531V2.498z"/>
						<path fill="#FFFFFF" d="M7.464,5.287L7.425,5.023H7.41C7.264,5.209,7.015,5.34,6.707,5.34c-0.479,0-0.747-0.346-0.747-0.707
							c0-0.602,0.532-0.904,1.411-0.898V3.695c0-0.156-0.063-0.416-0.483-0.416c-0.234,0-0.479,0.074-0.64,0.176L6.131,3.064
							C6.307,2.957,6.615,2.855,6.99,2.855c0.762,0,0.981,0.482,0.981,1v0.859c0,0.215,0.01,0.426,0.034,0.572H7.464z M7.386,4.125
							c-0.425-0.01-0.83,0.082-0.83,0.443c0,0.234,0.151,0.342,0.342,0.342c0.239,0,0.415-0.156,0.469-0.326
							c0.015-0.045,0.02-0.094,0.02-0.133V4.125z"/>
						<path fill="#FFFFFF" d="M8.59,5.287c0.01-0.162,0.02-0.426,0.02-0.67V1.82H9.21v1.416h0.01
							c0.146-0.23,0.405-0.381,0.762-0.381c0.581,0,0.996,0.482,0.991,1.205c0,0.855-0.542,1.279-1.079,1.279
							c-0.308,0-0.581-0.117-0.752-0.41h-0.01L9.103,5.287H8.59z M9.21,4.305c0,0.049,0.005,0.098,0.015,0.143
							c0.063,0.238,0.273,0.42,0.532,0.42c0.376,0,0.605-0.303,0.605-0.781c0-0.42-0.2-0.762-0.601-0.762
							c-0.244,0-0.464,0.176-0.532,0.439C9.22,3.807,9.21,3.861,9.21,3.92V4.305z"/>
						<path fill="#FFFFFF" d="M11.47,1.82h0.605v3.467H11.47V1.82z"/>
						<path fill="#FFFFFF" d="M13.151,4.266c0.015,0.43,0.352,0.615,0.732,0.615c0.278,0,0.479-0.039,0.659-0.107l0.088,0.416
							c-0.205,0.082-0.488,0.146-0.83,0.146c-0.771,0-1.226-0.475-1.226-1.201c0-0.66,0.4-1.279,1.162-1.279
							c0.771,0,1.025,0.635,1.025,1.156c0,0.113-0.01,0.201-0.02,0.254H13.151z M14.196,3.846c0.005-0.219-0.093-0.58-0.493-0.58
							c-0.371,0-0.527,0.336-0.552,0.58H14.196z"/>
						<path fill="#FFFFFF" d="M15.937,2.23v0.678h0.571v0.449h-0.571v1.051c0,0.287,0.078,0.439,0.308,0.439
							c0.103,0,0.181-0.016,0.234-0.029l0.01,0.459c-0.088,0.033-0.244,0.059-0.435,0.059c-0.22,0-0.405-0.074-0.518-0.195
							c-0.127-0.137-0.186-0.352-0.186-0.664V3.357H15.01V2.908h0.342V2.371L15.937,2.23z"/>
						<path fill="#FFFFFF" d="M17.375,2.908l0.43,1.275c0.049,0.146,0.098,0.326,0.132,0.463h0.015
							c0.039-0.137,0.083-0.313,0.127-0.469l0.371-1.27h0.645l-0.596,1.621c-0.327,0.889-0.547,1.285-0.83,1.529
							c-0.234,0.209-0.479,0.287-0.63,0.307l-0.137-0.508c0.103-0.023,0.229-0.078,0.352-0.166c0.112-0.072,0.244-0.215,0.327-0.375
							c0.024-0.045,0.039-0.078,0.039-0.107c0-0.025-0.005-0.059-0.034-0.117l-0.869-2.184H17.375z"/>
						<path fill="#FFFFFF" d="M3.506,9.439L4.4,8.297c0.122-0.146,0.225-0.264,0.352-0.4v-0.01H3.594V7.408h1.89v0.367L4.61,8.893
							C4.492,9.035,4.38,9.172,4.258,9.299v0.01h1.255v0.479H3.506V9.439z"/>
						<path fill="#FFFFFF" d="M8.089,6.32v2.797c0,0.244,0.01,0.508,0.02,0.67H7.572L7.547,9.41h-0.01
							c-0.142,0.264-0.43,0.43-0.776,0.43c-0.566,0-1.016-0.482-1.016-1.215C5.74,7.828,6.239,7.355,6.81,7.355
							c0.327,0,0.562,0.137,0.669,0.313h0.01V6.32H8.089z M7.489,8.4c0-0.049-0.005-0.107-0.015-0.156
							C7.42,8.01,7.23,7.818,6.956,7.818c-0.386,0-0.601,0.342-0.601,0.787c0,0.434,0.215,0.752,0.596,0.752
							c0.244,0,0.459-0.166,0.518-0.426c0.015-0.053,0.02-0.111,0.02-0.176V8.4z"/>
						<path fill="#FFFFFF" d="M10.075,9.787l-0.039-0.264h-0.015C9.875,9.709,9.626,9.84,9.318,9.84
							c-0.479,0-0.747-0.346-0.747-0.707c0-0.602,0.532-0.904,1.411-0.898V8.195c0-0.156-0.063-0.416-0.483-0.416
							c-0.234,0-0.479,0.074-0.64,0.176L8.742,7.564c0.176-0.107,0.483-0.209,0.859-0.209c0.762,0,0.981,0.482,0.981,1v0.859
							c0,0.215,0.01,0.426,0.034,0.572H10.075z M9.997,8.625c-0.425-0.01-0.83,0.082-0.83,0.443c0,0.234,0.151,0.342,0.342,0.342
							c0.239,0,0.415-0.156,0.469-0.326c0.015-0.045,0.02-0.094,0.02-0.133V8.625z"/>
						<path fill="#FFFFFF" d="M11.22,8.176c0-0.322-0.005-0.553-0.02-0.768h0.522l0.02,0.455h0.02
							c0.117-0.338,0.396-0.508,0.649-0.508c0.059,0,0.093,0.004,0.142,0.014v0.566c-0.049-0.01-0.103-0.02-0.176-0.02
							c-0.288,0-0.483,0.186-0.537,0.455c-0.01,0.053-0.02,0.117-0.02,0.186v1.23H11.22V8.176z"/>
						<path fill="#FFFFFF" d="M12.961,8.117c0-0.273-0.005-0.504-0.02-0.709h0.518l0.024,0.352h0.015
							c0.117-0.186,0.332-0.404,0.732-0.404c0.313,0,0.557,0.176,0.659,0.439h0.01c0.083-0.133,0.181-0.23,0.293-0.299
							c0.132-0.092,0.283-0.141,0.479-0.141c0.396,0,0.796,0.268,0.796,1.029v1.402h-0.586V8.473c0-0.395-0.137-0.629-0.425-0.629
							c-0.205,0-0.356,0.146-0.42,0.316c-0.015,0.059-0.029,0.133-0.029,0.201v1.426h-0.586V8.41c0-0.332-0.132-0.566-0.41-0.566
							c-0.225,0-0.376,0.176-0.43,0.342c-0.024,0.059-0.034,0.127-0.034,0.195v1.406h-0.586V8.117z"/>
						<path fill="#FFFFFF" d="M18.445,9.787l-0.039-0.264h-0.015c-0.146,0.186-0.396,0.316-0.703,0.316
							c-0.479,0-0.747-0.346-0.747-0.707c0-0.602,0.532-0.904,1.411-0.898V8.195c0-0.156-0.063-0.416-0.483-0.416
							c-0.234,0-0.479,0.074-0.64,0.176l-0.117-0.391c0.176-0.107,0.483-0.209,0.859-0.209c0.762,0,0.981,0.482,0.981,1v0.859
							c0,0.215,0.01,0.426,0.034,0.572H18.445z M18.366,8.625c-0.425-0.01-0.83,0.082-0.83,0.443c0,0.234,0.151,0.342,0.342,0.342
							c0.239,0,0.415-0.156,0.469-0.326c0.015-0.045,0.02-0.094,0.02-0.133V8.625z"/>
					</g>
				</g>
			</g>
		</g>
		<g>
			<path opacity="0.5" fill="#FFFFFF" d="M4.497,18.377l0.188,2.137c0,0,0.061,0.618,0.548,0.618l6.225,0.566
				c0.097,0,0.19-0.006,0.28-0.015c0.316-0.303,0.361-0.736,0.362-0.74l0.177-2.141L4.497,18.377z M12.644,18.731l-0.186,2.237
				c-0.001,0.018-0.024,0.301-0.184,0.607c0.322-0.097,0.526-0.213,0.545-0.225l4.158-2.529c0.006-0.004,0.509-0.318,0.563-0.979
				l0.18-2.028L12.644,18.731z"/>
			<path opacity="0.3" fill="#FFFFFF" d="M17.595,14.873C17.594,14.873,17.594,14.873,17.595,14.873
				c-0.046-0.23-0.172-0.363-0.305-0.441c-0.198-0.116-0.415-0.111-0.415-0.111l-6.419-0.283l-5.215,2.579
				c0,0-0.169,0.12-0.331,0.306c-0.118,0.134-0.234,0.299-0.273,0.496l-0.12,0.6l7.907,0.424l0.011-0.006l5.215-2.996
				c0.018-0.01,0.038-0.003,0.058-0.008L17.595,14.873z"/>
			<g>
				<g>
					<path fill="#FFFFFF" d="M14.276,15.514c-0.156-1.256-1.478-1.861-2.985-1.834c-1.604,0.029-2.999,0.798-3.175,2.168
						c-0.018,0.055-0.024,0.109-0.014,0.162c0.045,0.283,0.467,0.539,1.229,0.683c1.367,0.257,3.311,0.06,4.34-0.442
						c0.4-0.195,0.6-0.406,0.619-0.607C14.284,15.6,14.282,15.555,14.276,15.514z"/>
				</g>
			</g>
		</g>
	</g>
</g>
</svg>
