<?xml version="1.0" encoding="utf-8"?>
<!-- Generator: Adobe Illustrator 16.0.3, SVG Export Plug-In . SVG Version: 6.00 Build 0)  -->
<!DOCTYPE svg PUBLIC "-//W3C//DTD SVG 1.1//EN" "http://www.w3.org/Graphics/SVG/1.1/DTD/svg11.dtd">
<svg version="1.1" xmlns="http://www.w3.org/2000/svg" xmlns:xlink="http://www.w3.org/1999/xlink" x="0px" y="0px" width="22.68px"
	 height="22.68px" viewBox="0 0 22.68 22.68" enable-background="new 0 0 22.68 22.68" xml:space="preserve">
<g id="BCGRND">
</g>
<g id="BAREVNE_BCGRND">
	<rect fill="#585857" width="22.68" height="22.67"/>
</g>
<g id="IKONY">
	<g>
		<rect x="-0.002" y="7.764" fill="#FFFFFF" width="22.678" height="0.889"/>
		<g>
			<g>
				<path fill="#FFFFFF" d="M2.406,2.272v1.265h1.226V2.272h0.742v3.291H3.632V4.187H2.406v1.377H1.659V2.272H2.406z"/>
				<path fill="#FFFFFF" d="M7.298,4.343c0,0.874-0.62,1.274-1.26,1.274c-0.698,0-1.235-0.459-1.235-1.23s0.508-1.265,1.274-1.265
					C6.81,3.122,7.298,3.625,7.298,4.343z M5.57,4.367c0,0.41,0.171,0.718,0.488,0.718c0.288,0,0.474-0.288,0.474-0.718
					c0-0.356-0.137-0.718-0.474-0.718C5.702,3.649,5.57,4.016,5.57,4.367z"/>
				<path fill="#FFFFFF" d="M7.712,3.962c0-0.352-0.01-0.581-0.02-0.786h0.64l0.024,0.439h0.02c0.122-0.347,0.415-0.493,0.645-0.493
					c0.068,0,0.103,0,0.156,0.01v0.703C9.123,3.82,9.06,3.811,8.977,3.811c-0.273,0-0.459,0.146-0.508,0.376
					c-0.01,0.049-0.015,0.107-0.015,0.166v1.211H7.712V3.962z"/>
				<path fill="#FFFFFF" d="M10.287,2.512c0,0.205-0.156,0.371-0.4,0.371c-0.234,0-0.391-0.166-0.386-0.371
					C9.496,2.297,9.652,2.136,9.892,2.136S10.282,2.297,10.287,2.512z M9.521,5.563V3.176h0.742v2.388H9.521z"/>
				<path fill="#FFFFFF" d="M10.626,5.163l1.567-2.256v-0.02h-1.421V2.272h2.388v0.43l-1.533,2.227v0.02h1.558v0.615h-2.559V5.163z"
					/>
				<path fill="#FFFFFF" d="M15.898,4.343c0,0.874-0.62,1.274-1.26,1.274c-0.698,0-1.235-0.459-1.235-1.23s0.508-1.265,1.274-1.265
					C15.41,3.122,15.898,3.625,15.898,4.343z M14.169,4.367c0,0.41,0.171,0.718,0.488,0.718c0.288,0,0.474-0.288,0.474-0.718
					c0-0.356-0.137-0.718-0.474-0.718C14.301,3.649,14.169,4.016,14.169,4.367z"/>
				<path fill="#FFFFFF" d="M16.312,3.938c0-0.298-0.01-0.552-0.02-0.762h0.645l0.034,0.327h0.015
					c0.098-0.151,0.342-0.381,0.737-0.381c0.488,0,0.854,0.322,0.854,1.025v1.416h-0.742V4.24c0-0.308-0.107-0.518-0.376-0.518
					c-0.205,0-0.327,0.142-0.376,0.278c-0.02,0.049-0.029,0.117-0.029,0.186v1.377h-0.742V3.938z"/>
				<path fill="#FFFFFF" d="M19.699,4.606c0.024,0.308,0.327,0.454,0.674,0.454c0.254,0,0.459-0.034,0.659-0.098l0.098,0.503
					c-0.244,0.098-0.542,0.151-0.864,0.151c-0.811,0-1.274-0.474-1.274-1.221c0-0.605,0.376-1.274,1.206-1.274
					c0.771,0,1.064,0.601,1.064,1.191c0,0.127-0.015,0.239-0.024,0.293H19.699z M20.573,4.099c0-0.181-0.078-0.483-0.42-0.483
					c-0.313,0-0.439,0.283-0.459,0.483H20.573z"/>
			</g>
		</g>
		<g>
			<g>
				<g>
					<circle fill="#FFFFFF" cx="5.11" cy="12.642" r="0.336"/>
					<circle fill="#FFFFFF" cx="5.11" cy="14.536" r="0.335"/>
					<circle fill="#FFFFFF" cx="6.058" cy="13.589" r="0.336"/>
					<circle fill="#FFFFFF" cx="7.005" cy="12.642" r="0.336"/>
					<circle fill="#FFFFFF" cx="5.11" cy="18.323" r="0.336"/>
					<circle fill="#FFFFFF" cx="6.058" cy="17.376" r="0.336"/>
					<circle fill="#FFFFFF" cx="7.005" cy="16.429" r="0.335"/>
					<circle fill="#FFFFFF" cx="5.111" cy="16.43" r="0.336"/>
					<circle fill="#FFFFFF" cx="6.058" cy="15.482" r="0.336"/>
					<circle fill="#FFFFFF" cx="7.005" cy="14.536" r="0.335"/>
					<circle fill="#FFFFFF" cx="5.11" cy="20.218" r="0.336"/>
					<circle fill="#FFFFFF" cx="6.058" cy="19.271" r="0.336"/>
					<circle fill="#FFFFFF" cx="7.005" cy="18.323" r="0.336"/>
					<circle fill="#FFFFFF" cx="5.11" cy="22.112" r="0.336"/>
					<circle fill="#FFFFFF" cx="6.058" cy="21.165" r="0.335"/>
					<circle fill="#FFFFFF" cx="7.005" cy="20.218" r="0.336"/>
					<circle fill="#FFFFFF" cx="7.005" cy="22.112" r="0.335"/>
					<circle fill="#FFFFFF" cx="7.951" cy="13.589" r="0.335"/>
					<circle fill="#FFFFFF" cx="8.898" cy="12.642" r="0.335"/>
					<circle fill="#FFFFFF" cx="7.951" cy="17.376" r="0.335"/>
					<circle fill="#FFFFFF" cx="8.898" cy="16.429" r="0.335"/>
					<circle fill="#FFFFFF" cx="7.951" cy="15.482" r="0.335"/>
					<circle fill="#FFFFFF" cx="8.898" cy="14.536" r="0.335"/>
					<circle fill="#FFFFFF" cx="7.951" cy="19.271" r="0.335"/>
					<circle fill="#FFFFFF" cx="8.899" cy="18.323" r="0.336"/>
					<circle fill="#FFFFFF" cx="7.951" cy="21.165" r="0.335"/>
					<circle fill="#FFFFFF" cx="8.898" cy="20.218" r="0.335"/>
					<circle fill="#FFFFFF" cx="8.898" cy="22.112" r="0.335"/>
				</g>
				<path fill="#FFFFFF" d="M8.79,10.44H5.22c-1.21,0-2.2,0.98-2.2,2.2v10.03h1V12.64c0-0.66,0.54-1.2,1.2-1.2h3.57
					c0.66,0,1.199,0.54,1.199,1.2v10.03h1V12.64C10.989,11.42,10,10.44,8.79,10.44z"/>
			</g>
			<g>
				<g>
					<circle fill="#FFFFFF" cx="14.722" cy="12.642" r="0.336"/>
					<circle fill="#FFFFFF" cx="14.721" cy="14.536" r="0.335"/>
					<circle fill="#FFFFFF" cx="15.669" cy="13.589" r="0.336"/>
					<circle fill="#FFFFFF" cx="16.615" cy="12.642" r="0.335"/>
					<circle fill="#FFFFFF" cx="17.563" cy="15.482" r="0.336"/>
					<circle fill="#FFFFFF" cx="15.669" cy="15.482" r="0.336"/>
					<circle fill="#FFFFFF" cx="16.616" cy="14.536" r="0.335"/>
					<circle fill="#FFFFFF" cx="17.563" cy="13.589" r="0.336"/>
					<circle fill="#FFFFFF" cx="13.775" cy="13.589" r="0.336"/>
					<circle fill="#FFFFFF" cx="14.721" cy="16.431" r="0.335"/>
					<circle fill="#FFFFFF" cx="16.616" cy="16.431" r="0.335"/>
					<circle fill="#FFFFFF" cx="13.775" cy="15.483" r="0.336"/>
				</g>
				<path fill="#FFFFFF" d="M17.45,10.44H13.89c-1.21,0-2.2,0.98-2.2,2.2v3.79c0,1.22,0.99,2.2,2.2,2.2h3.561
					c1.21,0,2.199-0.98,2.199-2.2v-3.79C19.649,11.42,18.66,10.44,17.45,10.44z M18.649,16.43c0,0.67-0.54,1.2-1.199,1.2H13.89
					c-0.66,0-1.2-0.53-1.2-1.2v-3.79c0-0.66,0.54-1.2,1.2-1.2h3.561c0.659,0,1.199,0.54,1.199,1.2V16.43z"/>
			</g>
			<g>
				<g>
					<circle fill="#FFFFFF" cx="14.722" cy="21.539" r="0.336"/>
					<path fill="#FFFFFF" d="M15.399,22.67c-0.1-0.13-0.09-0.3,0.03-0.42c0.13-0.13,0.35-0.13,0.48,0
						c0.119,0.12,0.13,0.29,0.029,0.42H15.399z"/>
					<circle fill="#FFFFFF" cx="16.615" cy="21.539" r="0.335"/>
					<path fill="#FFFFFF" d="M17.29,22.67c-0.101-0.13-0.08-0.3,0.04-0.42c0.13-0.13,0.34-0.13,0.47,0
						c0.12,0.12,0.13,0.29,0.04,0.42H17.29z"/>
					<path fill="#FFFFFF" d="M13.5,22.67c-0.09-0.13-0.08-0.3,0.04-0.42c0.13-0.13,0.34-0.13,0.47,0c0.12,0.12,0.13,0.29,0.03,0.42
						H13.5z"/>
				</g>
				<path fill="#FFFFFF" d="M17.45,19.33H13.89c-1.21,0-2.2,0.99-2.2,2.21v1.13h1v-1.13c0-0.67,0.54-1.21,1.2-1.21h3.561
					c0.659,0,1.199,0.54,1.199,1.21v1.13h1v-1.13C19.649,20.32,18.66,19.33,17.45,19.33z"/>
			</g>
		</g>
	</g>
</g>
</svg>
