<?xml version="1.0" encoding="utf-8"?>
<!-- Generator: Adobe Illustrator 16.0.3, SVG Export Plug-In . SVG Version: 6.00 Build 0)  -->
<!DOCTYPE svg PUBLIC "-//W3C//DTD SVG 1.1//EN" "http://www.w3.org/Graphics/SVG/1.1/DTD/svg11.dtd">
<svg version="1.1" xmlns="http://www.w3.org/2000/svg" xmlns:xlink="http://www.w3.org/1999/xlink" x="0px" y="0px" width="22.68px"
	 height="22.68px" viewBox="0 0 22.68 22.68" enable-background="new 0 0 22.68 22.68" xml:space="preserve">
<g id="BCGRND" display="none">
</g>
<g id="IKONY">
	<rect fill="#585857" width="22.676" height="22.678"/>
	<g>
		<g>
			<g>
				<rect x="0.001" y="11.956" fill="#FFFFFF" width="22.678" height="0.889"/>
			</g>
			<g>
				<g>
					<path fill="#FFFFFF" d="M2.021,2.039C2.246,2,2.583,1.971,2.929,1.971c0.474,0,0.796,0.078,1.016,0.264
						c0.181,0.151,0.283,0.381,0.283,0.659c0,0.425-0.288,0.713-0.596,0.825v0.015c0.234,0.088,0.376,0.317,0.459,0.635
						c0.103,0.41,0.19,0.791,0.259,0.918H3.73C3.681,5.188,3.603,4.92,3.51,4.51C3.417,4.08,3.261,3.943,2.919,3.934H2.617v1.353
						H2.021V2.039z M2.617,3.494h0.356c0.405,0,0.659-0.215,0.659-0.542c0-0.361-0.254-0.527-0.645-0.527
						c-0.19,0-0.313,0.015-0.371,0.029V3.494z"/>
					<path fill="#FFFFFF" d="M6.907,4.075c0,0.874-0.615,1.265-1.221,1.265c-0.674,0-1.191-0.464-1.191-1.226
						c0-0.781,0.513-1.26,1.23-1.26C6.434,2.854,6.907,3.353,6.907,4.075z M5.115,4.1c0,0.459,0.225,0.806,0.591,0.806
						c0.342,0,0.581-0.337,0.581-0.815c0-0.371-0.166-0.796-0.576-0.796C5.286,3.294,5.115,3.704,5.115,4.1z"/>
					<path fill="#FFFFFF" d="M6.993,4.939l0.894-1.143c0.122-0.146,0.225-0.264,0.352-0.4v-0.01H7.081V2.908h1.89v0.366L8.097,4.393
						C7.979,4.534,7.867,4.671,7.745,4.798v0.01H9v0.479H6.993V4.939z"/>
					<path fill="#FFFFFF" d="M9.242,4.734c0.137,0.083,0.396,0.171,0.61,0.171c0.264,0,0.381-0.107,0.381-0.264
						c0-0.161-0.098-0.244-0.391-0.347C9.379,4.134,9.184,3.88,9.188,3.602c0-0.42,0.347-0.747,0.898-0.747
						c0.264,0,0.493,0.068,0.63,0.142L10.6,3.421c-0.103-0.059-0.293-0.137-0.503-0.137c-0.215,0-0.332,0.103-0.332,0.249
						c0,0.151,0.112,0.225,0.415,0.332c0.43,0.156,0.63,0.376,0.635,0.728c0,0.43-0.337,0.742-0.967,0.742
						c-0.288,0-0.547-0.068-0.723-0.166L9.242,4.734z M9.779,2.601L9.301,1.878h0.415l0.264,0.444h0.01l0.269-0.444h0.41
						l-0.474,0.723H9.779z"/>
					<path fill="#FFFFFF" d="M11.163,5.286V2.908h0.605v2.378H11.163z M12.198,1.878l-0.601,0.723h-0.415l0.425-0.723H12.198z"/>
					<path fill="#FFFFFF" d="M12.678,2.601L12.2,1.878h0.415l0.264,0.444h0.01l0.264-0.444h0.415l-0.474,0.723H12.678z
						 M12.268,3.675c0-0.322-0.005-0.552-0.02-0.767h0.522l0.02,0.454h0.02c0.117-0.337,0.396-0.508,0.649-0.508
						c0.059,0,0.093,0.005,0.142,0.015v0.566c-0.049-0.01-0.103-0.02-0.176-0.02c-0.288,0-0.483,0.186-0.537,0.454
						c-0.01,0.054-0.02,0.117-0.02,0.186v1.23h-0.601V3.675z"/>
					<path fill="#FFFFFF" d="M14.243,4.266c0.015,0.43,0.352,0.615,0.732,0.615c0.278,0,0.479-0.039,0.659-0.107l0.088,0.415
						c-0.205,0.083-0.488,0.146-0.83,0.146c-0.771,0-1.226-0.474-1.226-1.201c0-0.659,0.4-1.279,1.162-1.279
						c0.771,0,1.025,0.635,1.025,1.157c0,0.112-0.01,0.2-0.02,0.254H14.243z M15.288,3.846c0.005-0.22-0.093-0.581-0.493-0.581
						c-0.371,0-0.527,0.337-0.552,0.581H15.288z"/>
					<path fill="#FFFFFF" d="M16.194,3.616c0-0.273-0.005-0.503-0.02-0.708h0.527l0.029,0.356h0.015
						c0.103-0.186,0.361-0.41,0.757-0.41c0.415,0,0.845,0.269,0.845,1.021v1.411h-0.601V3.943c0-0.342-0.127-0.601-0.454-0.601
						c-0.239,0-0.405,0.171-0.469,0.352c-0.02,0.054-0.024,0.127-0.024,0.195v1.396h-0.605V3.616z"/>
					<path fill="#FFFFFF" d="M20.182,5.286l-0.039-0.264h-0.015c-0.146,0.186-0.396,0.317-0.703,0.317
						c-0.479,0-0.747-0.347-0.747-0.708c0-0.601,0.532-0.903,1.411-0.898V3.694c0-0.156-0.063-0.415-0.483-0.415
						c-0.234,0-0.479,0.073-0.64,0.176l-0.117-0.391c0.176-0.107,0.483-0.21,0.859-0.21c0.762,0,0.981,0.483,0.981,1.001v0.859
						c0,0.215,0.01,0.425,0.034,0.571H20.182z M20.104,4.124c-0.425-0.01-0.83,0.083-0.83,0.444c0,0.234,0.151,0.342,0.342,0.342
						c0.239,0,0.415-0.156,0.469-0.327c0.015-0.044,0.02-0.093,0.02-0.132V4.124z M20.475,1.878l-0.601,0.723h-0.415l0.425-0.723
						H20.475z"/>
					<path fill="#FFFFFF" d="M6.336,9.439l0.894-1.143c0.122-0.146,0.225-0.264,0.352-0.4v-0.01H6.424V7.408h1.89v0.366L7.439,8.893
						C7.322,9.034,7.21,9.171,7.088,9.298v0.01h1.255v0.479H6.336V9.439z"/>
					<path fill="#FFFFFF" d="M10.987,8.575c0,0.874-0.615,1.265-1.221,1.265c-0.674,0-1.191-0.464-1.191-1.226
						c0-0.781,0.513-1.26,1.23-1.26C10.514,7.354,10.987,7.853,10.987,8.575z M9.195,8.6c0,0.459,0.225,0.806,0.591,0.806
						c0.342,0,0.581-0.337,0.581-0.815c0-0.371-0.166-0.796-0.576-0.796C9.366,7.794,9.195,8.204,9.195,8.6z M10.499,6.378
						L9.898,7.101H9.483l0.425-0.723H10.499z"/>
					<path fill="#FFFFFF" d="M11.484,8.116c0-0.273-0.005-0.503-0.02-0.708h0.527l0.029,0.356h0.015
						c0.103-0.186,0.361-0.41,0.757-0.41c0.415,0,0.845,0.269,0.845,1.021v1.411h-0.601V8.443c0-0.342-0.127-0.601-0.454-0.601
						c-0.239,0-0.405,0.171-0.469,0.352c-0.02,0.054-0.024,0.127-0.024,0.195v1.396h-0.605V8.116z"/>
					<path fill="#FFFFFF" d="M15.618,9.786l-0.039-0.264h-0.015c-0.146,0.186-0.396,0.317-0.703,0.317
						c-0.479,0-0.747-0.347-0.747-0.708c0-0.601,0.532-0.903,1.411-0.898V8.194c0-0.156-0.063-0.415-0.483-0.415
						c-0.234,0-0.479,0.073-0.64,0.176l-0.117-0.391c0.176-0.107,0.483-0.21,0.859-0.21c0.762,0,0.981,0.483,0.981,1.001v0.859
						c0,0.215,0.01,0.425,0.034,0.571H15.618z M15.54,8.624c-0.425-0.01-0.83,0.083-0.83,0.444c0,0.234,0.151,0.342,0.342,0.342
						c0.239,0,0.415-0.156,0.469-0.327c0.015-0.044,0.02-0.093,0.02-0.132V8.624z"/>
				</g>
			</g>
		</g>
		<path fill="#FFFFFF" d="M14.419,16.848c0.13-0.131,0.13-0.343-0.001-0.474c-0.022-0.022-0.055-0.019-0.081-0.033
			c-0.149,0.033-0.291,0.086-0.436,0.135c-0.058,0.125-0.06,0.27,0.043,0.372C14.076,16.979,14.288,16.979,14.419,16.848z
			 M14.892,19.688c0.131,0.131,0.343,0.131,0.474,0c0.132-0.132,0.132-0.343,0-0.474c-0.13-0.132-0.343-0.132-0.475,0
			C14.76,19.346,14.761,19.558,14.892,19.688z M13.945,18.268c-0.131,0.131-0.131,0.343,0,0.474s0.343,0.132,0.475,0
			c0.131-0.131,0.13-0.344,0-0.474C14.288,18.136,14.077,18.137,13.945,18.268z M14.418,20.636c0.131-0.132,0.132-0.344,0.001-0.476
			c-0.131-0.13-0.344-0.13-0.475,0.001s-0.131,0.343,0,0.475C14.076,20.767,14.288,20.767,14.418,20.636z M13.945,22.055
			c-0.131,0.131-0.131,0.344,0,0.475s0.343,0.131,0.475,0c0.131-0.131,0.13-0.344,0-0.475
			C14.288,21.924,14.077,21.924,13.945,22.055z M12.051,18.268c-0.131,0.13-0.132,0.343,0,0.474c0.131,0.132,0.343,0.131,0.474,0
			s0.132-0.344,0-0.475C12.394,18.136,12.182,18.136,12.051,18.268z M12.998,17.32c-0.131,0.131-0.131,0.343,0,0.474
			c0.132,0.132,0.344,0.132,0.475,0c0.131-0.131,0.131-0.343,0-0.474S13.129,17.189,12.998,17.32z M15.367,17.794
			c0.131-0.13,0.13-0.343,0-0.474c-0.132-0.131-0.344-0.131-0.475,0s-0.132,0.344,0,0.475
			C15.022,17.926,15.236,17.926,15.367,17.794z M15.838,22.055c-0.13,0.131-0.13,0.344,0,0.475c0.132,0.131,0.344,0.131,0.474,0
			c0.132-0.131,0.132-0.344,0.001-0.475S15.97,21.924,15.838,22.055z M18.207,18.741c0.132-0.131,0.131-0.344,0-0.474
			c-0.131-0.132-0.342-0.132-0.474,0c-0.131,0.131-0.131,0.343,0,0.474S18.076,18.873,18.207,18.741z M14.892,21.108
			c-0.131,0.131-0.132,0.343,0,0.474c0.13,0.131,0.344,0.131,0.475,0s0.131-0.344,0-0.474
			C15.236,20.977,15.023,20.978,14.892,21.108z M19.154,19.688c0.131-0.132,0.131-0.343,0-0.474c-0.131-0.132-0.344-0.132-0.475,0
			c-0.131,0.131-0.131,0.343,0,0.474S19.023,19.819,19.154,19.688z M12.998,19.215c-0.13,0.131-0.131,0.343,0,0.474
			s0.344,0.131,0.475,0s0.131-0.344,0-0.474C13.341,19.083,13.129,19.083,12.998,19.215z M18.68,21.108
			c-0.132,0.131-0.132,0.343-0.001,0.474c0.131,0.132,0.344,0.131,0.476,0c0.13-0.131,0.13-0.343-0.001-0.474
			S18.81,20.978,18.68,21.108z M12.998,21.108c-0.131,0.131-0.13,0.343,0,0.474c0.131,0.131,0.344,0.131,0.475,0
			s0.131-0.343,0-0.474S13.129,20.978,12.998,21.108z M17.733,22.055c-0.131,0.131-0.131,0.344,0,0.475
			c0.132,0.131,0.343,0.131,0.474,0c0.132-0.131,0.132-0.343,0-0.475C18.076,21.924,17.865,21.924,17.733,22.055z M17.733,20.636
			c0.131,0.131,0.343,0.131,0.474-0.001c0.131-0.131,0.131-0.343,0-0.474s-0.343-0.131-0.474-0.001
			C17.602,20.292,17.602,20.504,17.733,20.636z M15.839,20.161c-0.131,0.131-0.131,0.343,0,0.475c0.131,0.131,0.343,0.131,0.474,0
			c0.131-0.132,0.131-0.344,0-0.475S15.97,20.03,15.839,20.161z M3.392,22.678c-0.325-0.583-0.526-1.243-0.578-1.945
			c-0.008-0.112-0.008-0.556,0-0.668c0.061-0.827,0.317-1.601,0.755-2.253c0.12-0.18,0.265-0.34,0.408-0.501
			c0.152-0.171,0.317-0.326,0.493-0.473c0.164-0.138,0.331-0.269,0.514-0.384c0.665-0.416,1.439-0.665,2.272-0.699
			c0.063-0.002,0.122-0.019,0.187-0.019h3.777c0.118-0.102,0.24-0.197,0.366-0.29c0.205-0.152,0.418-0.294,0.642-0.42
			c0.11-0.062,0.224-0.117,0.338-0.172c0.082-0.039,0.161-0.082,0.244-0.118H7.443c-0.176,0-0.349,0.011-0.521,0.026
			c-0.202,0.019-0.401,0.046-0.597,0.086c-1.298,0.261-2.438,0.966-3.25,1.95c-0.016,0.019-0.029,0.04-0.044,0.059
			c-0.528,0.657-0.911,1.433-1.104,2.282c-0.047,0.204-0.085,0.412-0.108,0.625c-0.023,0.208-0.038,0.419-0.038,0.634
			c0,0.214,0.015,0.425,0.038,0.634c0.023,0.213,0.062,0.42,0.108,0.625c0.075,0.33,0.187,0.718,0.316,1.022L3.392,22.678z
			 M15.838,18.741c0.132,0.132,0.344,0.131,0.475,0s0.131-0.343-0.001-0.474c-0.13-0.131-0.342-0.132-0.473-0.001
			S15.708,18.61,15.838,18.741z M16.313,16.848c0.124-0.124,0.122-0.319,0.01-0.45c-0.111-0.029-0.22-0.064-0.335-0.086
			c-0.052,0.016-0.107,0.021-0.148,0.063c-0.131,0.131-0.131,0.343,0,0.474S16.182,16.979,16.313,16.848z M16.786,17.32
			c-0.132,0.131-0.131,0.344,0,0.474c0.131,0.132,0.343,0.132,0.475,0c0.131-0.131,0.131-0.343,0-0.474S16.917,17.189,16.786,17.32z
			 M17.261,19.688c0.13-0.131,0.129-0.343-0.001-0.474c-0.132-0.132-0.344-0.132-0.474,0c-0.132,0.131-0.133,0.343-0.001,0.474
			C16.917,19.819,17.129,19.819,17.261,19.688z M16.786,21.108c-0.132,0.131-0.131,0.343,0,0.474s0.343,0.131,0.475,0
			c0.131-0.131,0.131-0.343,0-0.474S16.917,20.978,16.786,21.108z M3.528,19.215c-0.13,0.131-0.13,0.342,0.001,0.473
			c0.131,0.132,0.342,0.132,0.473,0.001s0.132-0.343,0.001-0.474C3.872,19.083,3.66,19.083,3.528,19.215z M8.263,22.055
			c-0.131,0.131-0.132,0.344,0,0.475c0.131,0.131,0.344,0.131,0.474,0c0.132-0.131,0.131-0.344,0-0.475S8.394,21.924,8.263,22.055z
			 M7.316,17.32c-0.132,0.131-0.131,0.344,0,0.474c0.131,0.132,0.343,0.132,0.474,0.001c0.132-0.131,0.132-0.344,0-0.475
			C7.659,17.189,7.447,17.189,7.316,17.32z M7.316,21.108c-0.131,0.13-0.131,0.343,0,0.474s0.344,0.131,0.474,0
			c0.132-0.131,0.132-0.343,0-0.474C7.659,20.978,7.447,20.978,7.316,21.108z M7.317,19.215c-0.132,0.131-0.133,0.343-0.001,0.474
			c0.131,0.131,0.343,0.131,0.474-0.001c0.132-0.13,0.132-0.342,0-0.473C7.659,19.083,7.447,19.083,7.317,19.215z M6.369,22.055
			c-0.131,0.131-0.131,0.344,0.001,0.475c0.13,0.131,0.343,0.131,0.474,0s0.131-0.344,0.001-0.475
			C6.712,21.924,6.5,21.924,6.369,22.055z M6.369,18.267c-0.131,0.131-0.131,0.344,0,0.475c0.131,0.132,0.344,0.132,0.476,0
			c0.13-0.131,0.13-0.344-0.001-0.475C6.712,18.137,6.5,18.137,6.369,18.267z M6.843,20.636c0.131-0.132,0.131-0.344,0-0.475
			s-0.344-0.131-0.475,0s-0.131,0.343,0,0.475C6.5,20.767,6.712,20.767,6.843,20.636z M10.157,16.848
			c0.011,0.011,0.028,0.008,0.041,0.017c0.124-0.176,0.257-0.344,0.398-0.506c-0.132-0.104-0.318-0.106-0.439,0.016
			C10.026,16.504,10.026,16.717,10.157,16.848z M9.779,17.55c-0.002-0.083-0.031-0.166-0.095-0.229
			c-0.131-0.131-0.343-0.131-0.474,0c-0.132,0.131-0.132,0.343,0,0.474c0.123,0.124,0.313,0.121,0.445,0.012
			C9.696,17.72,9.735,17.634,9.779,17.55z M8.263,18.268c-0.132,0.131-0.132,0.343,0,0.474c0.131,0.132,0.343,0.132,0.474,0
			c0.131-0.131,0.132-0.343,0-0.474C8.606,18.136,8.394,18.137,8.263,18.268z M8.263,16.373c-0.132,0.131-0.131,0.344,0,0.475
			s0.344,0.131,0.475,0s0.131-0.344-0.001-0.475C8.607,16.242,8.394,16.241,8.263,16.373z M8.738,20.636
			c0.13-0.132,0.13-0.344,0-0.475C8.607,20.03,8.394,20.03,8.263,20.16c-0.132,0.132-0.132,0.344,0,0.476
			C8.394,20.767,8.607,20.767,8.738,20.636z M4.475,18.268c-0.131,0.13-0.132,0.343,0,0.474c0.131,0.132,0.344,0.131,0.475,0
			s0.131-0.343,0-0.474C4.818,18.137,4.606,18.137,4.475,18.268z M20.437,22.68c0.13-0.305,0.242-0.692,0.317-1.022
			c0.046-0.205,0.084-0.413,0.107-0.626c0.023-0.208,0.038-0.419,0.038-0.633s-0.015-0.425-0.038-0.633
			c-0.023-0.213-0.062-0.421-0.108-0.626c-0.193-0.85-0.576-1.626-1.105-2.283c-0.014-0.018-0.025-0.035-0.039-0.053
			c-0.813-0.986-1.953-1.693-3.252-1.955c-0.195-0.039-0.395-0.067-0.597-0.086c-0.172-0.016-0.346-0.026-0.522-0.026
			c-0.256,0-0.506,0.022-0.752,0.056c-0.191,0.025-0.379,0.061-0.564,0.105c-0.686,0.164-1.325,0.449-1.89,0.839
			c-0.219,0.151-0.424,0.32-0.619,0.5c-0.854,0.786-1.472,1.827-1.718,3.006c-0.032,0.155-0.055,0.313-0.074,0.472
			c-0.026,0.226-0.045,0.453-0.045,0.685s0.019,0.459,0.045,0.685c0.02,0.158,0.042,0.316,0.074,0.472
			c0.082,0.394,0.22,0.765,0.379,1.123h1.12c-0.342-0.606-0.553-1.294-0.593-2.029c-0.005-0.085-0.005-0.415,0-0.5
			c0.045-0.83,0.297-1.604,0.722-2.263c0.096-0.147,0.207-0.28,0.317-0.416c0.167-0.204,0.347-0.393,0.545-0.566
			c0.136-0.119,0.269-0.242,0.417-0.344c0.182-0.125,0.38-0.225,0.578-0.323c0.509-0.253,1.067-0.409,1.66-0.46
			c0.134-0.012,0.522-0.023,0.586-0.021c0.833,0.035,1.607,0.284,2.272,0.701c0.182,0.113,0.349,0.244,0.512,0.382
			c0.176,0.146,0.341,0.302,0.493,0.473c0.144,0.161,0.288,0.321,0.409,0.501c0.437,0.652,0.693,1.425,0.753,2.252
			c0.009,0.113,0.009,0.557,0,0.67c-0.051,0.703-0.252,1.361-0.576,1.944L20.437,22.68z M3.528,21.108
			c-0.131,0.131-0.13,0.343,0,0.474c0.131,0.131,0.343,0.132,0.475,0c0.131-0.131,0.13-0.343-0.001-0.474
			C3.872,20.978,3.659,20.978,3.528,21.108z M6.359,16.397c-0.112,0.132-0.114,0.326,0.01,0.45c0.131,0.131,0.344,0.131,0.475,0
			s0.131-0.343,0-0.475c-0.041-0.041-0.096-0.046-0.148-0.062C6.58,16.333,6.47,16.367,6.359,16.397z M5.422,17.32
			c-0.131,0.131-0.132,0.344-0.001,0.475c0.132,0.131,0.344,0.131,0.475-0.001c0.131-0.13,0.131-0.343,0-0.474
			S5.553,17.189,5.422,17.32z M11.292,19.136c-0.06,0.187-0.113,0.373-0.146,0.57c0.131,0.098,0.313,0.102,0.432-0.018
			c0.132-0.132,0.132-0.343,0-0.474C11.499,19.136,11.395,19.12,11.292,19.136z M12.051,22.055c-0.132,0.131-0.131,0.344,0,0.475
			s0.342,0.131,0.474,0c0.131-0.131,0.131-0.344,0-0.475C12.394,21.925,12.182,21.924,12.051,22.055z M11.146,21.091
			c0.033,0.196,0.087,0.384,0.146,0.569c0.102,0.017,0.206,0.001,0.285-0.078c0.132-0.131,0.132-0.343,0-0.474
			C11.458,20.989,11.277,20.993,11.146,21.091z M5.421,21.108c-0.13,0.131-0.13,0.342,0.001,0.474c0.132,0.131,0.343,0.131,0.474,0
			s0.131-0.343,0-0.474S5.553,20.978,5.421,21.108z M5.421,19.215c-0.13,0.13-0.13,0.343,0,0.474c0.132,0.131,0.345,0.131,0.475,0
			c0.131-0.131,0.131-0.343,0-0.474C5.765,19.083,5.553,19.083,5.421,19.215z M12.051,20.161c-0.131,0.131-0.131,0.343,0,0.475
			c0.131,0.131,0.343,0.131,0.474,0c0.132-0.132,0.131-0.344,0-0.475S12.182,20.03,12.051,20.161z M4.475,22.055
			c-0.132,0.132-0.132,0.344,0,0.475c0.131,0.131,0.343,0.131,0.475,0c0.131-0.131,0.131-0.344,0-0.475
			C4.818,21.924,4.606,21.924,4.475,22.055z M4.474,20.161c-0.131,0.131-0.13,0.343,0.001,0.474
			c0.131,0.132,0.344,0.132,0.475,0.001c0.131-0.132,0.131-0.344,0-0.476C4.819,20.03,4.605,20.03,4.474,20.161z"/>
	</g>
</g>
</svg>
