<?xml version="1.0" encoding="utf-8"?>
<!-- Generator: Adobe Illustrator 16.0.3, SVG Export Plug-In . SVG Version: 6.00 Build 0)  -->
<!DOCTYPE svg PUBLIC "-//W3C//DTD SVG 1.1//EN" "http://www.w3.org/Graphics/SVG/1.1/DTD/svg11.dtd">
<svg version="1.1" xmlns="http://www.w3.org/2000/svg" xmlns:xlink="http://www.w3.org/1999/xlink" x="0px" y="0px" width="22.68px"
	 height="22.68px" viewBox="0 0 22.68 22.68" enable-background="new 0 0 22.68 22.68" xml:space="preserve">
<g id="BCGRND" display="none">
</g>
<g id="IKONY">
	<g>
		<defs>
			<rect id="SVGID_5_" width="22.676" height="22.678"/>
		</defs>
		<clipPath id="SVGID_2_">
			<use xlink:href="#SVGID_5_"  overflow="visible"/>
		</clipPath>
		<rect clip-path="url(#SVGID_2_)" fill="#585857" width="22.676" height="22.678"/>
		<g clip-path="url(#SVGID_2_)">
			<g>
				<rect x="0.002" y="11.956" fill="#FFFFFF" width="22.678" height="0.889"/>
			</g>
			<g>
				<path fill="#FFFFFF" d="M4.014,2.039C4.282,2,4.614,1.971,4.971,1.971c0.615,0,1.035,0.127,1.338,0.381
					C6.631,2.61,6.826,3.006,6.826,3.563c0,0.591-0.2,1.025-0.513,1.309C5.986,5.169,5.464,5.32,4.824,5.32
					c-0.347,0-0.61-0.02-0.811-0.044V2.039z M4.614,4.832c0.083,0.015,0.21,0.015,0.332,0.015c0.781,0.005,1.245-0.43,1.245-1.265
					c0.005-0.723-0.415-1.143-1.167-1.143c-0.19,0-0.322,0.015-0.41,0.034V4.832z"/>
				<path fill="#FFFFFF" d="M7.768,2.908l0.386,1.206c0.068,0.21,0.117,0.4,0.161,0.596H8.33c0.044-0.195,0.098-0.381,0.161-0.596
					l0.381-1.206h0.63L8.593,5.286H8.002L7.119,2.908H7.768z"/>
				<path fill="#FFFFFF" d="M12.068,4.075c0,0.874-0.615,1.265-1.221,1.265c-0.669,0-1.191-0.459-1.191-1.226
					c0-0.781,0.513-1.26,1.23-1.26C11.594,2.854,12.068,3.353,12.068,4.075z M10.276,4.1c0,0.459,0.229,0.806,0.591,0.806
					c0.342,0,0.581-0.332,0.581-0.815c0-0.371-0.166-0.801-0.576-0.801C10.447,3.289,10.276,3.704,10.276,4.1z"/>
				<path fill="#FFFFFF" d="M12.037,5.857c0.195-0.015,0.352-0.068,0.449-0.171c0.112-0.122,0.156-0.308,0.156-0.825V2.908h0.601
					v2.124c0,0.493-0.098,0.801-0.313,1.016c-0.205,0.195-0.537,0.278-0.835,0.278L12.037,5.857z M13.282,2.244
					c0,0.176-0.127,0.322-0.342,0.322c-0.205,0-0.332-0.146-0.332-0.322c0-0.186,0.137-0.327,0.342-0.327
					C13.15,1.917,13.277,2.059,13.282,2.244z"/>
				<path fill="#FFFFFF" d="M14.524,2.244c0,0.176-0.132,0.322-0.342,0.322c-0.2,0-0.332-0.146-0.332-0.322
					c0-0.186,0.137-0.327,0.337-0.327C14.392,1.917,14.519,2.059,14.524,2.244z M13.884,5.286V2.908h0.601v2.378H13.884z"/>
				<path fill="#FFFFFF" d="M15.825,2.298v0.61h0.571v0.449h-0.571v1.05c0,0.293,0.078,0.439,0.308,0.439
					c0.107,0,0.166-0.005,0.234-0.024l0.01,0.454c-0.088,0.034-0.249,0.063-0.435,0.063c-0.225,0-0.405-0.073-0.518-0.195
					c-0.132-0.137-0.19-0.356-0.19-0.669V3.357h-0.337V2.908h0.337V2.464L15.825,2.298z"/>
				<path fill="#FFFFFF" d="M18.698,4.715c0,0.215,0.01,0.425,0.039,0.571h-0.542l-0.044-0.264h-0.015
					c-0.142,0.186-0.391,0.317-0.703,0.317c-0.479,0-0.747-0.347-0.747-0.708c0-0.596,0.532-0.903,1.411-0.898V3.694
					c0-0.156-0.063-0.415-0.483-0.415c-0.234,0-0.479,0.073-0.64,0.176l-0.117-0.391c0.176-0.107,0.483-0.21,0.859-0.21
					c0.762,0,0.981,0.483,0.981,1.006V4.715z M18.112,4.124c-0.425-0.005-0.83,0.083-0.83,0.444c0,0.234,0.151,0.342,0.342,0.342
					c0.244,0,0.415-0.156,0.474-0.327c0.015-0.044,0.015-0.088,0.015-0.132V4.124z M18.478,1.878l-0.596,0.723h-0.415l0.425-0.723
					H18.478z"/>
				<path fill="#FFFFFF" d="M6.336,9.439L7.23,8.297c0.122-0.146,0.225-0.264,0.347-0.4v-0.01H6.424V7.408h1.885v0.366L7.44,8.893
					C7.323,9.034,7.21,9.171,7.088,9.298v0.01h1.25v0.479H6.336V9.439z"/>
				<path fill="#FFFFFF" d="M10.988,8.575c0,0.874-0.615,1.265-1.221,1.265c-0.669,0-1.191-0.459-1.191-1.226
					c0-0.781,0.513-1.26,1.23-1.26C10.514,7.354,10.988,7.853,10.988,8.575z M9.196,8.6c0,0.459,0.229,0.806,0.591,0.806
					c0.342,0,0.581-0.332,0.581-0.815c0-0.371-0.166-0.801-0.576-0.801C9.367,7.789,9.196,8.204,9.196,8.6z M10.495,6.378
					L9.899,7.101H9.484l0.425-0.723H10.495z"/>
				<path fill="#FFFFFF" d="M11.484,8.116c0-0.273-0.01-0.503-0.02-0.708h0.522l0.029,0.356h0.015
					c0.107-0.186,0.366-0.41,0.762-0.41c0.415,0,0.845,0.269,0.845,1.021v1.411h-0.601V8.443c0-0.342-0.127-0.601-0.454-0.601
					c-0.239,0-0.405,0.171-0.469,0.352c-0.02,0.049-0.029,0.122-0.029,0.19v1.401h-0.601V8.116z"/>
				<path fill="#FFFFFF" d="M16.126,9.215c0,0.215,0.01,0.425,0.039,0.571h-0.542L15.58,9.522h-0.015
					c-0.142,0.186-0.391,0.317-0.703,0.317c-0.479,0-0.747-0.347-0.747-0.708c0-0.596,0.532-0.903,1.411-0.898V8.194
					c0-0.156-0.063-0.415-0.483-0.415c-0.234,0-0.479,0.073-0.64,0.176l-0.117-0.391c0.176-0.107,0.483-0.21,0.859-0.21
					c0.762,0,0.981,0.483,0.981,1.006V9.215z M15.541,8.624c-0.425-0.005-0.83,0.083-0.83,0.444c0,0.234,0.151,0.342,0.342,0.342
					c0.244,0,0.415-0.156,0.474-0.327c0.015-0.044,0.015-0.088,0.015-0.132V8.624z"/>
			</g>
			<g>
				<g>
					<path fill="#FFFFFF" d="M2.86,22.678c-0.047,0-0.091-0.012-0.138-0.014c-0.001,0.004-0.002,0.009-0.003,0.014H2.86z"/>
				</g>
				<g>
					<path fill="#FFFFFF" d="M19.963,22.678c-0.001-0.005-0.002-0.01-0.003-0.014c-0.047,0.002-0.091,0.014-0.139,0.014H19.963z"/>
				</g>
				<g>
					<path fill="none" d="M15.751,17.245c0.014-0.128,0.106-0.186,0.206-0.128s0.2,0.277,0.013,0.347c0,0,0,0-0.13-0.129
						C15.751,17.245,15.751,17.245,15.751,17.245z M6.726,17.115c0.1-0.058,0.193,0.001,0.208,0.13c0,0,0,0-0.09,0.09
						c-0.13,0.129-0.13,0.129-0.13,0.129C6.527,17.395,6.626,17.173,6.726,17.115z M3.895,19.882
						c0.061-0.097,0.168-0.022,0.238,0.164c0,0,0,0-0.129,0.131c-0.09,0.09-0.09,0.09-0.09,0.09
						C3.785,20.252,3.833,19.979,3.895,19.882z M4.002,22.069c-0.131,0.131-0.343,0.133-0.474,0c-0.131-0.131-0.13-0.342,0-0.473
						c0.132-0.131,0.343-0.131,0.474,0S4.133,21.938,4.002,22.069z M4.951,21.124c-0.132,0.131-0.345,0.131-0.476,0
						s-0.131-0.344,0.001-0.475c0.13-0.131,0.343-0.133,0.475,0C5.082,20.78,5.081,20.993,4.951,21.124z M4.951,19.229
						c-0.132,0.131-0.345,0.131-0.475,0c-0.027-0.027-0.027-0.027-0.027-0.027c-0.007-0.039,0.042-0.136,0.111-0.216
						s0.298-0.279,0.353-0.269c0,0,0,0,0.038,0.037C5.081,18.886,5.082,19.099,4.951,19.229z M5.897,20.177
						c-0.132,0.131-0.343,0.131-0.475,0c-0.131-0.133-0.131-0.344,0-0.475c0.132-0.131,0.343-0.131,0.475,0
						C6.028,19.833,6.028,20.044,5.897,20.177z M5.897,18.282c-0.131,0.131-0.343,0.131-0.474,0
						c-0.038-0.037-0.038-0.037-0.038-0.037c-0.01-0.055,0.045-0.157,0.123-0.229s0.323-0.244,0.361-0.236c0,0,0,0,0.027,0.027
						C6.028,17.938,6.028,18.151,5.897,18.282z M6.844,19.229c-0.131,0.131-0.344,0.131-0.475,0s-0.131-0.344,0-0.475
						s0.344-0.131,0.475,0S6.975,19.099,6.844,19.229z M7.791,18.282c-0.131,0.131-0.343,0.131-0.474,0
						c-0.132-0.131-0.131-0.344,0-0.475s0.343-0.131,0.474,0C7.922,17.938,7.922,18.151,7.791,18.282z M8.738,17.335
						c-0.131,0.131-0.343,0.131-0.474,0c-0.132-0.131-0.132-0.344,0-0.475c0.131-0.131,0.343-0.131,0.474,0
						C8.87,16.991,8.869,17.204,8.738,17.335z M9.34,18.055c-0.109,0.034-0.206-0.039-0.215-0.161c0,0,0,0,0.086-0.086
						c0.131-0.131,0.343-0.131,0.474,0c0.038,0.039,0.038,0.039,0.038,0.039C9.733,17.901,9.449,18.021,9.34,18.055z M9.685,16.388
						c-0.131,0.131-0.344,0.133-0.475,0C9.13,16.31,9.13,16.31,9.13,16.31c0.002-0.116,0.089-0.232,0.193-0.258
						s0.426,0.053,0.478,0.221C9.801,16.272,9.801,16.272,9.685,16.388z M10.632,17.335c-0.131,0.131-0.344,0.131-0.475,0
						s-0.131-0.344,0-0.475c0.131-0.129,0.343-0.131,0.474,0.002C10.763,16.993,10.763,17.204,10.632,17.335z M11.579,16.388
						c-0.131,0.133-0.343,0.133-0.474,0c-0.131-0.131-0.131-0.342,0-0.475c0.131-0.131,0.343-0.131,0.474,0
						C11.71,16.046,11.71,16.257,11.579,16.388z M12.526,17.335c-0.131,0.131-0.343,0.131-0.474,0s-0.131-0.344,0-0.475
						s0.343-0.129,0.474,0C12.657,16.991,12.658,17.204,12.526,17.335z M13.558,17.894c-0.009,0.122-0.106,0.195-0.215,0.162
						s-0.393-0.154-0.383-0.209c0,0,0,0,0.038-0.039c0.132-0.131,0.344-0.131,0.475,0C13.558,17.894,13.558,17.894,13.558,17.894z
						 M13.473,16.388c-0.131,0.133-0.343,0.131-0.475,0c-0.115-0.115-0.115-0.115-0.115-0.115c0.051-0.168,0.179-0.286,0.285-0.263
						s0.383,0.185,0.384,0.3C13.552,16.31,13.552,16.31,13.473,16.388z M14.42,17.335c-0.132,0.131-0.343,0.131-0.475,0
						c-0.131-0.131-0.131-0.344,0-0.475c0.131-0.129,0.343-0.131,0.475,0C14.551,16.991,14.55,17.204,14.42,17.335z M15.368,18.282
						c-0.131,0.131-0.344,0.131-0.475,0s-0.132-0.344,0-0.475c0.13-0.131,0.344-0.131,0.475,0S15.499,18.151,15.368,18.282z
						 M16.314,19.229c-0.131,0.131-0.343,0.131-0.474,0s-0.131-0.344,0-0.475s0.343-0.131,0.474,0S16.445,19.099,16.314,19.229z
						 M16.787,17.808c0.027-0.027,0.027-0.027,0.027-0.027c0.039-0.008,0.136,0.043,0.216,0.111s0.279,0.3,0.268,0.354
						c0,0,0,0-0.037,0.037c-0.132,0.131-0.344,0.131-0.475,0C16.655,18.151,16.655,17.938,16.787,17.808z M17.261,20.177
						c-0.131,0.131-0.344,0.129-0.474,0c-0.132-0.133-0.132-0.344,0-0.475c0.13-0.131,0.343-0.131,0.475,0
						C17.392,19.833,17.392,20.046,17.261,20.177z M18.551,20.046c0.07-0.187,0.177-0.261,0.237-0.163s0.109,0.368-0.02,0.382
						c0,0,0,0-0.089-0.088C18.551,20.046,18.551,20.046,18.551,20.046z M18.681,21.597c0.13-0.131,0.343-0.131,0.475,0
						c0.13,0.131,0.13,0.344,0,0.473c-0.131,0.133-0.345,0.131-0.475,0C18.549,21.938,18.55,21.728,18.681,21.597z M18.208,21.124
						c-0.131,0.131-0.342,0.131-0.474,0c-0.13-0.131-0.131-0.344,0-0.475s0.344-0.131,0.474,0
						C18.339,20.78,18.338,20.993,18.208,21.124z M18.208,19.229c-0.131,0.131-0.343,0.131-0.474,0s-0.131-0.342,0-0.475
						c0.038-0.037,0.038-0.037,0.038-0.037c0.054-0.01,0.156,0.046,0.227,0.123s0.243,0.322,0.236,0.361
						C18.235,19.202,18.235,19.202,18.208,19.229z"/>
				</g>
				<g>
					<path fill="none" d="M13.241,20.153c0.081,0.032,0.02,0.091-0.135,0.131c0,0,0,0-0.107-0.107
						c-0.037-0.037-0.037-0.037-0.037-0.037C12.951,20.086,13.16,20.121,13.241,20.153z M10.996,20.065
						c0.042-0.158,0.157-0.3,0.254-0.314c0,0,0,0,0.092,0s0.092,0,0.092,0c0.098,0.015,0.213,0.156,0.256,0.314c0,0,0,0-0.11,0.111
						c-0.131,0.131-0.343,0.131-0.474,0C10.996,20.065,10.996,20.065,10.996,20.065z M9.59,20.094
						c0.083-0.028,0.143-0.008,0.132,0.046c0,0,0,0-0.037,0.037c-0.107,0.107-0.107,0.107-0.107,0.107
						C9.422,20.244,9.507,20.122,9.59,20.094z M7.791,22.071c-0.131,0.131-0.343,0.131-0.474-0.002
						C7.278,22.03,7.278,22.03,7.278,22.03c-0.011-0.056,0.031-0.163,0.092-0.239s0.29-0.263,0.367-0.249c0,0,0,0,0.054,0.055
						C7.922,21.728,7.922,21.94,7.791,22.071z M8.739,21.124c-0.131,0.131-0.344,0.131-0.475,0C8.21,21.069,8.21,21.069,8.21,21.069
						c-0.015-0.076,0.033-0.192,0.106-0.259s0.327-0.211,0.382-0.2c0,0,0,0,0.039,0.039C8.87,20.78,8.87,20.993,8.739,21.124z
						 M9.685,22.069c-0.131,0.133-0.343,0.133-0.474,0c-0.132-0.131-0.132-0.342,0-0.473c0.131-0.131,0.343-0.131,0.474,0
						S9.816,21.938,9.685,22.069z M10.631,21.124c-0.13,0.131-0.343,0.131-0.474,0s-0.131-0.344,0-0.475s0.344-0.133,0.475,0
						C10.763,20.78,10.763,20.993,10.631,21.124z M11.579,22.071c-0.131,0.131-0.343,0.131-0.474,0s-0.131-0.344-0.001-0.475
						c0.132-0.131,0.344-0.131,0.476,0C11.71,21.728,11.71,21.94,11.579,22.071z M12.526,21.124c-0.131,0.131-0.343,0.131-0.474,0
						s-0.132-0.344,0-0.475c0.131-0.133,0.343-0.131,0.474,0S12.658,20.993,12.526,21.124z M13.473,22.069
						c-0.131,0.133-0.343,0.133-0.475,0c-0.131-0.131-0.131-0.342,0-0.473c0.132-0.131,0.344-0.131,0.475,0
						S13.604,21.938,13.473,22.069z M14.42,21.124c-0.132,0.131-0.344,0.131-0.475,0s-0.131-0.344,0-0.475
						c0.039-0.039,0.039-0.039,0.039-0.039c0.056-0.011,0.164,0.031,0.24,0.093s0.263,0.29,0.248,0.366
						C14.473,21.069,14.473,21.069,14.42,21.124z M15.368,22.069c-0.131,0.133-0.345,0.133-0.475,0.002
						c-0.132-0.131-0.131-0.344,0-0.475c0.053-0.053,0.053-0.053,0.053-0.053c0.077-0.015,0.193,0.032,0.259,0.105
						s0.211,0.327,0.201,0.383C15.406,22.032,15.406,22.032,15.368,22.069z"/>
				</g>
				<g>
					<path fill="#FFFFFF" d="M3.112,22.678c-0.016-0.047-0.019-0.099-0.056-0.136c-0.08-0.078-0.186-0.094-0.289-0.076
						c-0.017,0.065-0.029,0.133-0.045,0.198c0.047,0.002,0.091,0.014,0.138,0.014H3.112z"/>
				</g>
				<g>
					<circle fill="#FFFFFF" cx="3.766" cy="21.833" r="0.335"/>
				</g>
				<g>
					<circle fill="#FFFFFF" cx="4.713" cy="20.887" r="0.336"/>
				</g>
				<g>
					<circle fill="#FFFFFF" cx="5.66" cy="19.939" r="0.336"/>
				</g>
				<g>
					<circle fill="#FFFFFF" cx="6.607" cy="18.992" r="0.336"/>
				</g>
				<g>
					<circle fill="#FFFFFF" cx="7.554" cy="18.045" r="0.335"/>
				</g>
				<g>
					<circle fill="#FFFFFF" cx="8.501" cy="17.098" r="0.335"/>
				</g>
				<g>
					<path fill="#FFFFFF" d="M9.134,16.099C9.117,16.202,9.13,16.31,9.21,16.388c0.131,0.133,0.344,0.131,0.475,0
						c0.116-0.115,0.112-0.289,0.022-0.42C9.513,16.005,9.324,16.05,9.134,16.099z"/>
				</g>
				<g>
					<path fill="#FFFFFF" d="M4.003,20.177c0.129-0.131,0.128-0.34,0.002-0.471c-0.117,0.172-0.222,0.352-0.326,0.533
						C3.792,20.271,3.914,20.267,4.003,20.177z"/>
				</g>
				<g>
					<path fill="#FFFFFF" d="M4.813,18.698c-0.129,0.143-0.258,0.283-0.378,0.434c0.016,0.031,0.014,0.07,0.041,0.098
						c0.13,0.131,0.343,0.131,0.475,0c0.131-0.131,0.13-0.344,0-0.475C4.913,18.718,4.861,18.714,4.813,18.698z"/>
				</g>
				<g>
					<path fill="#FFFFFF" d="M5.799,17.767c-0.149,0.121-0.291,0.25-0.433,0.379c0.016,0.047,0.019,0.1,0.057,0.137
						c0.131,0.131,0.343,0.131,0.474,0s0.131-0.344,0-0.475C5.87,17.78,5.832,17.784,5.799,17.767z"/>
				</g>
				<g>
					<path fill="#FFFFFF" d="M6.844,17.335c0.09-0.09,0.095-0.211,0.063-0.324c-0.181,0.105-0.361,0.209-0.533,0.326
						C6.505,17.464,6.714,17.464,6.844,17.335z"/>
				</g>
				<g>
					<path fill="#FFFFFF" d="M4.784,22.474c-0.109-0.023-0.223-0.016-0.308,0.07c-0.037,0.036-0.04,0.088-0.056,0.134h0.306
						C4.746,22.61,4.761,22.541,4.784,22.474z"/>
				</g>
				<g>
					<path fill="#FFFFFF" d="M9.211,17.808c-0.086,0.086-0.095,0.199-0.069,0.309c0.196-0.066,0.396-0.123,0.6-0.17
						c-0.016-0.049-0.019-0.1-0.057-0.139C9.554,17.677,9.342,17.677,9.211,17.808z"/>
				</g>
				<g>
					<circle fill="#FFFFFF" cx="10.395" cy="17.098" r="0.336"/>
				</g>
				<g>
					<circle fill="#FFFFFF" cx="11.342" cy="16.15" r="0.335"/>
				</g>
				<g>
					<path fill="#FFFFFF" d="M7.597,21.517c-0.115,0.137-0.239,0.264-0.339,0.412c0.016,0.049,0.02,0.102,0.059,0.141
						c0.131,0.133,0.343,0.133,0.474,0.002c0.132-0.131,0.132-0.344,0-0.475C7.737,21.542,7.667,21.526,7.597,21.517z"/>
				</g>
				<g>
					<path fill="#FFFFFF" d="M8.597,20.591c-0.148,0.1-0.277,0.225-0.413,0.34c0.01,0.068,0.026,0.139,0.08,0.193
						c0.131,0.131,0.344,0.131,0.475,0s0.131-0.344-0.001-0.475C8.699,20.61,8.646,20.606,8.597,20.591z"/>
				</g>
				<g>
					<path fill="#FFFFFF" d="M9.685,20.177c0.037-0.037,0.04-0.088,0.056-0.135c-0.151,0.053-0.302,0.104-0.446,0.17
						C9.421,20.28,9.578,20.284,9.685,20.177z"/>
				</g>
				<g>
					<circle fill="#FFFFFF" cx="12.289" cy="17.098" r="0.335"/>
				</g>
				<g>
					<path fill="#FFFFFF" d="M12.999,16.388c0.132,0.131,0.344,0.133,0.475,0c0.079-0.078,0.094-0.184,0.077-0.287
						c-0.189-0.049-0.38-0.096-0.574-0.133C12.887,16.099,12.883,16.272,12.999,16.388z"/>
				</g>
				<g>
					<path fill="#FFFFFF" d="M10.632,22.544c-0.131-0.133-0.344-0.133-0.475-0.002c-0.038,0.037-0.04,0.089-0.056,0.136h0.586
						C10.672,22.632,10.669,22.58,10.632,22.544z"/>
				</g>
				<g>
					<circle fill="#FFFFFF" cx="11.341" cy="21.834" r="0.336"/>
				</g>
				<g>
					<circle fill="#FFFFFF" cx="12.289" cy="20.887" r="0.335"/>
				</g>
				<g>
					<path fill="#FFFFFF" d="M13.388,20.212c-0.144-0.066-0.294-0.117-0.445-0.17c0.016,0.047,0.019,0.098,0.056,0.135
						C13.106,20.284,13.261,20.28,13.388,20.212z"/>
				</g>
				<g>
					<circle fill="#FFFFFF" cx="15.13" cy="18.045" r="0.336"/>
				</g>
				<g>
					<path fill="#FFFFFF" d="M16.309,17.337c-0.172-0.115-0.352-0.221-0.532-0.324c-0.031,0.113-0.025,0.232,0.063,0.322
						C15.97,17.464,16.178,17.464,16.309,17.337z"/>
				</g>
				<g>
					<path fill="#FFFFFF" d="M8.738,22.544c-0.131-0.133-0.343-0.131-0.474,0c-0.037,0.037-0.04,0.088-0.056,0.134h0.585
						C8.777,22.632,8.775,22.581,8.738,22.544z"/>
				</g>
				<g>
					<circle fill="#FFFFFF" cx="9.448" cy="21.833" r="0.335"/>
				</g>
				<g>
					<circle fill="#FFFFFF" cx="10.395" cy="20.887" r="0.335"/>
				</g>
				<g>
					<path fill="#FFFFFF" d="M11.579,20.177c0.11-0.111,0.106-0.27,0.032-0.398c-0.091-0.004-0.178-0.027-0.27-0.027
						s-0.178,0.023-0.269,0.027c-0.073,0.129-0.077,0.287,0.032,0.398C11.236,20.308,11.448,20.308,11.579,20.177z"/>
				</g>
				<g>
					<path fill="#FFFFFF" d="M12.999,17.808c-0.038,0.039-0.041,0.09-0.057,0.139c0.203,0.049,0.403,0.104,0.6,0.17
						c0.026-0.109,0.017-0.223-0.068-0.309C13.342,17.677,13.13,17.677,12.999,17.808z"/>
				</g>
				<g>
					<circle fill="#FFFFFF" cx="14.183" cy="17.098" r="0.336"/>
				</g>
				<g>
					<path fill="#FFFFFF" d="M12.526,22.542c-0.131-0.131-0.343-0.131-0.474,0.002c-0.037,0.036-0.04,0.088-0.056,0.134h0.586
						C12.566,22.631,12.563,22.579,12.526,22.542z"/>
				</g>
				<g>
					<circle fill="#FFFFFF" cx="13.236" cy="21.833" r="0.335"/>
				</g>
				<g>
					<path fill="#FFFFFF" d="M13.946,20.649c-0.131,0.131-0.131,0.344,0,0.475s0.343,0.131,0.475,0
						c0.053-0.055,0.069-0.125,0.079-0.193c-0.136-0.115-0.265-0.24-0.413-0.34C14.038,20.606,13.985,20.61,13.946,20.649z"/>
				</g>
				<g>
					<circle fill="#FFFFFF" cx="16.077" cy="18.992" r="0.335"/>
				</g>
				<g>
					<path fill="#FFFFFF" d="M17.261,18.282c0.037-0.037,0.04-0.088,0.057-0.135c-0.142-0.131-0.284-0.26-0.434-0.381
						c-0.032,0.018-0.07,0.014-0.098,0.041c-0.132,0.131-0.132,0.344,0,0.475C16.917,18.413,17.129,18.413,17.261,18.282z"/>
				</g>
				<g>
					<path fill="#FFFFFF" d="M14.476,22.678c-0.016-0.046-0.019-0.098-0.056-0.134c-0.132-0.133-0.343-0.131-0.475,0
						c-0.037,0.037-0.04,0.088-0.056,0.134h0.229H14.476z"/>
				</g>
				<g>
					<path fill="#FFFFFF" d="M14.893,21.597c-0.131,0.131-0.132,0.344,0,0.475c0.13,0.131,0.344,0.131,0.475-0.002
						c0.038-0.037,0.042-0.09,0.058-0.139c-0.101-0.148-0.225-0.277-0.34-0.414C15.016,21.526,14.946,21.544,14.893,21.597z"/>
				</g>
				<g>
					<circle fill="#FFFFFF" cx="17.024" cy="19.939" r="0.335"/>
				</g>
				<g>
					<path fill="#FFFFFF" d="M17.734,18.755c-0.131,0.133-0.131,0.344,0,0.475s0.343,0.131,0.474,0
						c0.027-0.027,0.024-0.064,0.04-0.098c-0.12-0.15-0.248-0.291-0.378-0.432C17.823,18.716,17.772,18.718,17.734,18.755z"/>
				</g>
				<g>
					<path fill="#FFFFFF" d="M18.208,22.544c-0.085-0.086-0.199-0.096-0.309-0.068c0.022,0.065,0.037,0.135,0.057,0.202h0.308
						C18.248,22.632,18.245,22.58,18.208,22.544z"/>
				</g>
				<g>
					<circle fill="#FFFFFF" cx="18.918" cy="21.833" r="0.335"/>
				</g>
				<g>
					<circle fill="#FFFFFF" cx="17.971" cy="20.887" r="0.335"/>
				</g>
				<g>
					<path fill="#FFFFFF" d="M19.003,20.239c-0.104-0.18-0.209-0.361-0.325-0.533c-0.127,0.131-0.127,0.34,0.002,0.471
						C18.769,20.265,18.89,20.271,19.003,20.239z"/>
				</g>
				<g>
					<path fill="#FFFFFF" d="M19.96,22.664c-0.016-0.066-0.029-0.133-0.046-0.198c-0.103-0.018-0.207-0.002-0.286,0.076
						c-0.038,0.037-0.04,0.089-0.056,0.136h0.25C19.869,22.678,19.914,22.666,19.96,22.664z"/>
				</g>
				<g>
					<path fill="#FFFFFF" d="M11.341,19.251c2.284,0,4.239,1.423,5.037,3.427h0.598h0.466c-0.842-2.566-3.256-4.427-6.101-4.427
						s-5.259,1.86-6.101,4.427h1.064C7.102,20.674,9.057,19.251,11.341,19.251z"/>
				</g>
			</g>
		</g>
		<path clip-path="url(#SVGID_2_)" fill="#FFFFFF" d="M11.341,14.31c-5.714,0-10.363,4.649-10.363,10.363
			s4.649,10.363,10.363,10.363s10.363-4.649,10.363-10.363S17.055,14.31,11.341,14.31z M20.705,24.673
			c0,0.226-0.019,0.447-0.034,0.669c-0.013,0.179-0.029,0.356-0.052,0.532c-0.104,0.808-0.308,1.583-0.604,2.313
			c-0.078,0.192-0.167,0.378-0.257,0.563c-0.919,1.888-2.449,3.419-4.337,4.338c-0.186,0.09-0.371,0.18-0.563,0.258
			c-0.729,0.297-1.505,0.5-2.313,0.604c-0.176,0.022-0.354,0.039-0.532,0.052c-0.223,0.016-0.444,0.034-0.671,0.034
			c-0.226,0-0.447-0.019-0.669-0.034c-0.18-0.013-0.357-0.029-0.533-0.052c-0.807-0.104-1.583-0.308-2.313-0.604
			c-0.192-0.078-0.378-0.167-0.563-0.258c-1.888-0.918-3.419-2.449-4.338-4.337c-0.09-0.186-0.179-0.372-0.257-0.564
			c-0.297-0.729-0.5-1.505-0.604-2.313c-0.022-0.176-0.039-0.354-0.052-0.532c-0.016-0.222-0.034-0.443-0.034-0.669
			s0.019-0.447,0.034-0.669c0.013-0.179,0.029-0.356,0.052-0.532c0.104-0.808,0.308-1.583,0.604-2.313
			c0.078-0.192,0.167-0.379,0.257-0.564c0.919-1.888,2.45-3.419,4.338-4.337c0.186-0.091,0.371-0.18,0.563-0.258
			c0.729-0.297,1.506-0.5,2.313-0.604c0.176-0.022,0.354-0.039,0.533-0.052c0.222-0.016,0.443-0.034,0.669-0.034
			c0.227,0,0.448,0.019,0.671,0.034c0.179,0.013,0.356,0.029,0.532,0.052c0.808,0.104,1.583,0.308,2.313,0.604
			c0.192,0.078,0.378,0.168,0.563,0.258c1.888,0.919,3.418,2.45,4.337,4.338c0.09,0.186,0.179,0.371,0.257,0.563
			c0.297,0.729,0.5,1.505,0.604,2.313c0.022,0.176,0.039,0.354,0.052,0.532C20.686,24.226,20.705,24.447,20.705,24.673
			L20.705,24.673z"/>
	</g>
</g>
</svg>
