<?xml version="1.0" encoding="utf-8"?>
<!-- Generator: Adobe Illustrator 16.0.3, SVG Export Plug-In . SVG Version: 6.00 Build 0)  -->
<!DOCTYPE svg PUBLIC "-//W3C//DTD SVG 1.1//EN" "http://www.w3.org/Graphics/SVG/1.1/DTD/svg11.dtd">
<svg version="1.1" xmlns="http://www.w3.org/2000/svg" xmlns:xlink="http://www.w3.org/1999/xlink" x="0px" y="0px" width="22.68px"
	 height="22.68px" viewBox="0 0 22.68 22.68" enable-background="new 0 0 22.68 22.68" xml:space="preserve">
<g id="BCGRND">
</g>
<g id="BAREVNE_POZADI_IKON">
	<rect x="0.003" y="0" fill="#585857" width="22.677" height="22.677"/>
</g>
<g id="IKONY">
	<g>
		<g>
			<g>
				<rect x="0.003" y="7.768" fill="#FFFFFF" width="22.678" height="0.889"/>
				<g>
					<g>
						<path fill="#FFFFFF" d="M1.832,4.635L1.549,5.568h-0.62l1.055-3.291H2.75l1.069,3.291H3.17L2.872,4.635H1.832z M2.775,4.181
							L2.516,3.37C2.452,3.17,2.399,2.946,2.35,2.755H2.34c-0.049,0.19-0.103,0.42-0.156,0.615L1.93,4.181H2.775z"/>
						<path fill="#FFFFFF" d="M6.231,2.101v2.798c0,0.244,0.01,0.508,0.02,0.669H5.718L5.689,5.192h-0.01
							c-0.142,0.264-0.43,0.43-0.771,0.43c-0.571,0-1.021-0.483-1.021-1.216C3.882,3.61,4.38,3.136,4.951,3.136
							c0.327,0,0.562,0.132,0.669,0.308h0.01V2.101H6.231z M5.63,4.181c0-0.049-0.005-0.112-0.015-0.161
							C5.562,3.79,5.371,3.6,5.098,3.6c-0.386,0-0.601,0.342-0.601,0.781s0.215,0.757,0.596,0.757c0.244,0,0.459-0.166,0.518-0.425
							c0.015-0.054,0.02-0.112,0.02-0.176V4.181z"/>
						<path fill="#FFFFFF" d="M8.568,4.996c0,0.215,0.01,0.425,0.039,0.571H8.065L8.021,5.304H8.006
							C7.864,5.49,7.615,5.621,7.303,5.621c-0.479,0-0.747-0.347-0.747-0.708c0-0.596,0.532-0.903,1.411-0.898V3.976
							c0-0.156-0.063-0.415-0.483-0.415c-0.234,0-0.479,0.073-0.64,0.176L6.727,3.346c0.176-0.107,0.483-0.21,0.859-0.21
							c0.762,0,0.981,0.483,0.981,1.006V4.996z M7.982,4.406c-0.425-0.005-0.83,0.083-0.83,0.444c0,0.234,0.151,0.342,0.342,0.342
							c0.244,0,0.415-0.156,0.474-0.327c0.015-0.044,0.015-0.088,0.015-0.132V4.406z"/>
						<path fill="#FFFFFF" d="M9.049,3.981c0-0.313-0.01-0.566-0.02-0.791h0.527l0.029,0.366h0.01
							c0.176-0.269,0.454-0.42,0.815-0.42c0.547,0,1.001,0.469,1.001,1.211c0,0.859-0.542,1.274-1.084,1.274
							c-0.298,0-0.547-0.127-0.669-0.317H9.65v1.23H9.049V3.981z M9.65,4.572c0,0.059,0.005,0.112,0.015,0.166
							c0.063,0.244,0.273,0.42,0.532,0.42c0.381,0,0.605-0.317,0.605-0.786c0-0.42-0.205-0.762-0.591-0.762
							c-0.249,0-0.479,0.181-0.542,0.444c-0.01,0.049-0.02,0.103-0.02,0.151V4.572z"/>
						<path fill="#FFFFFF" d="M12.441,2.579v0.61h0.571v0.449h-0.571v1.05c0,0.293,0.078,0.439,0.308,0.439
							c0.107,0,0.166-0.005,0.234-0.024l0.01,0.454c-0.088,0.034-0.249,0.063-0.435,0.063c-0.225,0-0.405-0.073-0.518-0.195
							c-0.132-0.137-0.19-0.356-0.19-0.669V3.639h-0.337V3.19h0.337V2.745L12.441,2.579z"/>
						<path fill="#FFFFFF" d="M13.673,2.78h-0.938V2.277h2.485V2.78h-0.947v2.788h-0.601V2.78z"/>
						<path fill="#FFFFFF" d="M15.478,4.547c0.015,0.43,0.347,0.615,0.732,0.615c0.278,0,0.474-0.044,0.659-0.107l0.088,0.41
							c-0.205,0.088-0.488,0.151-0.83,0.151c-0.771,0-1.226-0.474-1.226-1.201c0-0.659,0.4-1.279,1.162-1.279
							c0.771,0,1.025,0.635,1.025,1.157c0,0.112-0.01,0.2-0.02,0.254H15.478z M16.523,4.127c0.005-0.22-0.093-0.581-0.493-0.581
							c-0.371,0-0.527,0.337-0.552,0.581H16.523z"/>
						<path fill="#FFFFFF" d="M19.167,5.494c-0.127,0.059-0.376,0.122-0.674,0.122c-0.742,0-1.226-0.479-1.226-1.216
							c0-0.713,0.488-1.265,1.323-1.265c0.22,0,0.444,0.049,0.581,0.107l-0.107,0.454c-0.098-0.049-0.239-0.093-0.454-0.093
							c-0.459,0-0.732,0.337-0.728,0.771c0,0.488,0.317,0.767,0.728,0.767c0.205,0,0.356-0.044,0.474-0.093L19.167,5.494z"/>
						<path fill="#FFFFFF" d="M19.458,2.101h0.601v1.411h0.01c0.073-0.112,0.176-0.205,0.298-0.269
							c0.122-0.068,0.264-0.107,0.415-0.107c0.405,0,0.83,0.269,0.83,1.03v1.401H21.01V4.23c0-0.342-0.127-0.605-0.459-0.605
							c-0.234,0-0.4,0.156-0.469,0.337c-0.02,0.054-0.024,0.117-0.024,0.181v1.426h-0.601V2.101z"/>
					</g>
				</g>
			</g>
			<g>
				<path fill="#FFFFFF" fill-opacity="0.5" d="M14.276,12.525c-0.786-0.785-1.828-1.217-2.934-1.217
					c-1.107,0-2.149,0.432-2.934,1.217c-0.098,0.098-0.098,0.256,0,0.354c0.049,0.049,0.113,0.073,0.177,0.073
					s0.128-0.024,0.177-0.073c0.69-0.69,1.606-1.07,2.58-1.07c0.973,0,1.889,0.38,2.58,1.07c0.098,0.098,0.256,0.098,0.354,0
					S14.373,12.623,14.276,12.525z M13.586,13.709c0.098-0.098,0.098-0.256,0-0.354c-0.601-0.6-1.398-0.931-2.244-0.931
					c-0.847,0-1.644,0.331-2.244,0.931C9,13.453,9,13.611,9.098,13.709c0.049,0.049,0.113,0.073,0.177,0.073
					s0.128-0.024,0.177-0.073c0.506-0.506,1.177-0.784,1.891-0.784c0.712,0,1.384,0.278,1.891,0.784
					C13.33,13.806,13.488,13.806,13.586,13.709z M9.786,14.187c-0.098,0.098-0.098,0.256,0,0.354
					c0.049,0.049,0.113,0.073,0.177,0.073s0.128-0.024,0.177-0.073c0.644-0.644,1.762-0.644,2.403,0
					c0.098,0.098,0.256,0.097,0.354,0c0.098-0.098,0.098-0.256,0-0.354C12.067,13.356,10.619,13.354,9.786,14.187z"/>
				<path fill="#FFFFFF" d="M11.342,9.575c-2.274,0-4.293,1.844-4.293,4.117c0,0.728,0.19,1.409,0.521,2.002
					c0,0,0.858,1.126,1.28,3.385h4.982c0.422-2.259,1.28-3.385,1.28-3.385c0.331-0.593,0.521-1.274,0.521-2.002
					C15.635,11.419,13.616,9.575,11.342,9.575z M14.691,15.425c-0.143,0.2-0.846,1.251-1.266,3.154h-1.249l-0.463-2.119
					c0.326-0.144,0.555-0.467,0.555-0.846c0-0.512-0.415-0.927-0.927-0.927s-0.927,0.415-0.927,0.927
					c0,0.379,0.229,0.702,0.555,0.846l-0.463,2.119H9.259c-0.42-1.903-1.123-2.954-1.266-3.154c-0.291-0.53-0.444-1.128-0.444-1.732
					c0-1.961,1.737-3.617,3.793-3.617s3.793,1.656,3.793,3.617C15.135,14.296,14.982,14.894,14.691,15.425z M10.829,21.764h1.022
					l1.167-0.778H9.662L10.829,21.764z M8.872,20.38h4.937V19.6H8.872V20.38z"/>
			</g>
		</g>
	</g>
</g>
</svg>
