<?xml version="1.0" encoding="utf-8"?>
<!-- Generator: Adobe Illustrator 16.0.3, SVG Export Plug-In . SVG Version: 6.00 Build 0)  -->
<!DOCTYPE svg PUBLIC "-//W3C//DTD SVG 1.1//EN" "http://www.w3.org/Graphics/SVG/1.1/DTD/svg11.dtd">
<svg version="1.1" xmlns="http://www.w3.org/2000/svg" xmlns:xlink="http://www.w3.org/1999/xlink" x="0px" y="0px" width="22.68px"
	 height="22.68px" viewBox="0 0 22.68 22.68" enable-background="new 0 0 22.68 22.68" xml:space="preserve">
<g id="BCGRND">
</g>
<g id="BAREVNE_POZADI_IKON">
	<g>
		<polygon fill="#585857" points="22.681,16.334 22.681,0 0.003,0 0.003,22.677 14.12,22.677 22.681,22.677 		"/>
	</g>
</g>
<g id="IKONY">
	<g>
		<path opacity="0.5" fill="#FFFFFF" d="M17.438,18.09c-0.023-0.072-0.046-0.148-0.072-0.221c-0.153-0.428-0.338-0.813-0.543-1.148
			c-0.09-0.145-0.182-0.283-0.278-0.408c-0.102-0.131-0.209-0.248-0.318-0.355c-0.425-0.416-0.905-0.656-1.416-0.656
			c-0.51,0-0.991,0.24-1.415,0.656c0.097,0.119,0.189,0.246,0.278,0.383c0.225,0.342,0.425,0.734,0.596,1.17
			c0.016,0.039,0.033,0.078,0.049,0.119c0.227,0.607,0.393,1.293,0.493,2.029c0.066,0.498,0.106,1.018,0.106,1.559
			c0,0.506-0.038,0.992-0.097,1.461h2.986c0.063-0.469,0.104-0.955,0.104-1.461C17.911,20.068,17.736,18.998,17.438,18.09z"/>
		<path opacity="0.5" fill="#FFFFFF" d="M20.906,18.09c-0.023-0.072-0.046-0.148-0.072-0.221c-0.153-0.428-0.337-0.813-0.543-1.148
			c-0.09-0.145-0.182-0.283-0.278-0.408c-0.102-0.131-0.209-0.248-0.318-0.355c-0.425-0.416-0.905-0.656-1.416-0.656
			c-0.51,0-0.99,0.24-1.415,0.656c0.097,0.119,0.189,0.246,0.278,0.383c0.225,0.342,0.425,0.734,0.596,1.17
			c0.016,0.039,0.033,0.078,0.049,0.119c0.227,0.607,0.393,1.293,0.493,2.029c0.066,0.498,0.106,1.018,0.106,1.559
			c0,0.506-0.037,0.992-0.097,1.461h2.99c0,0,0.1-0.791,0.1-1.461C21.379,20.068,21.204,18.998,20.906,18.09z"/>
		<g>
			<g>
				<rect x="0.003" y="7.769" fill="#FFFFFF" width="22.678" height="0.889"/>
			</g>
			<g>
				<g>
					<path fill="#FFFFFF" d="M2.625,4.638L2.342,5.571h-0.62L2.776,2.28h0.767l1.069,3.291H3.968L3.67,4.638H2.625z M3.567,4.184
						L3.309,3.373c-0.063-0.2-0.117-0.425-0.166-0.615h-0.01c-0.049,0.19-0.098,0.42-0.156,0.615L2.723,4.184H3.567z"/>
					<path fill="#FFFFFF" d="M7.229,2.104v2.798c0,0.244,0.01,0.508,0.02,0.669H6.711L6.687,5.195h-0.01
						c-0.142,0.264-0.43,0.43-0.776,0.43c-0.566,0-1.016-0.483-1.016-1.216c-0.005-0.796,0.493-1.27,1.064-1.27
						c0.327,0,0.562,0.137,0.669,0.313h0.01V2.104H7.229z M6.628,4.184c0-0.049-0.005-0.107-0.015-0.156
						C6.56,3.793,6.369,3.603,6.096,3.603c-0.386,0-0.601,0.342-0.601,0.786c0,0.435,0.215,0.752,0.596,0.752
						c0.244,0,0.459-0.166,0.518-0.425c0.015-0.054,0.02-0.112,0.02-0.176V4.184z"/>
					<path fill="#FFFFFF" d="M10.118,2.104v2.798c0,0.244,0.01,0.508,0.02,0.669H9.601L9.575,5.195h-0.01
						c-0.141,0.264-0.43,0.43-0.775,0.43c-0.566,0-1.016-0.483-1.016-1.216c-0.006-0.796,0.492-1.27,1.064-1.27
						c0.326,0,0.561,0.137,0.668,0.313h0.01V2.104H10.118z M9.517,4.184c0-0.049-0.004-0.107-0.014-0.156
						C9.448,3.793,9.259,3.603,8.985,3.603c-0.387,0-0.602,0.342-0.602,0.786c0,0.435,0.215,0.752,0.596,0.752
						c0.244,0,0.459-0.166,0.518-0.425c0.016-0.054,0.02-0.112,0.02-0.176V4.184z"/>
					<path fill="#FFFFFF" d="M11.899,2.323c0.264-0.044,0.602-0.068,0.957-0.068c0.615,0,1.041,0.127,1.344,0.381
						c0.316,0.259,0.512,0.649,0.512,1.211c0,0.586-0.199,1.025-0.512,1.309c-0.328,0.298-0.85,0.449-1.49,0.449
						c-0.352,0-0.615-0.02-0.811-0.044V2.323z M12.501,5.112c0.082,0.015,0.209,0.015,0.332,0.015
						c0.781,0.005,1.244-0.425,1.244-1.26c0.006-0.728-0.414-1.143-1.166-1.143c-0.191,0-0.328,0.015-0.41,0.034V5.112z"/>
					<path fill="#FFFFFF" d="M15.918,2.529c0,0.181-0.132,0.322-0.342,0.322c-0.2,0-0.332-0.142-0.332-0.322
						c0-0.186,0.137-0.327,0.337-0.327C15.786,2.201,15.913,2.343,15.918,2.529z M15.278,5.571V3.193h0.605v2.378H15.278z"/>
					<path fill="#FFFFFF" d="M16.55,5.019c0.137,0.083,0.395,0.171,0.609,0.171c0.264,0,0.381-0.107,0.381-0.264
						c0-0.161-0.098-0.244-0.391-0.347c-0.463-0.161-0.658-0.415-0.654-0.693c0-0.42,0.348-0.747,0.898-0.747
						c0.264,0,0.494,0.068,0.631,0.142l-0.117,0.425c-0.104-0.059-0.293-0.137-0.504-0.137c-0.215,0-0.332,0.103-0.332,0.249
						c0,0.151,0.113,0.225,0.416,0.332c0.43,0.156,0.629,0.376,0.635,0.728c0,0.43-0.338,0.742-0.967,0.742
						c-0.289,0-0.547-0.068-0.723-0.166L16.55,5.019z"/>
					<path fill="#FFFFFF" d="M18.667,2.104h0.605V3.52h0.01c0.072-0.112,0.17-0.205,0.297-0.273c0.117-0.068,0.26-0.107,0.41-0.107
						c0.406,0,0.83,0.269,0.83,1.03v1.401h-0.6V4.238c0-0.347-0.127-0.605-0.459-0.605c-0.234,0-0.4,0.156-0.465,0.337
						c-0.02,0.049-0.023,0.112-0.023,0.181v1.421h-0.605V2.104z"/>
				</g>
			</g>
		</g>
		<g>
			<path fill="#FFFFFF" d="M8.601,12.316c0.055,0.172,0.104,0.35,0.15,0.531c0.219,0.859,0.344,1.818,0.344,2.84
				c0,3.164-1.165,5.746-2.785,6.498c-0.152,0.07-0.309,0.125-0.468,0.162c0.047,0.115,0.096,0.225,0.146,0.334
				c1.848-0.004,3.16-0.004,4.859-0.004c0.517-1.102,0.831-2.557,0.831-4.152C11.679,15.205,10.316,12.5,8.601,12.316z"/>
			<g>
				<path opacity="0.5" fill="#FFFFFF" d="M14.442,21.217c0-1.148-0.175-2.219-0.473-3.127c-0.023-0.072-0.046-0.148-0.072-0.221
					c-0.153-0.428-0.338-0.813-0.543-1.148c-0.09-0.145-0.182-0.283-0.278-0.408c-0.102-0.131-0.209-0.248-0.318-0.355
					c-0.311-0.305-0.651-0.512-1.011-0.602c0.275,0.939,0.432,2.016,0.432,3.17c0,1.582-0.293,3.016-0.786,4.152
					c1.226,0,2.446,0,2.946,0C14.401,22.209,14.442,21.722,14.442,21.217z"/>
			</g>
			<g>
				<path fill="#FFFFFF" d="M8.227,12.818c-0.046-0.166-0.096-0.328-0.148-0.486c-0.055-0.162-0.112-0.316-0.174-0.466
					c-0.597-1.462-1.526-2.406-2.573-2.406c-1.803,0-3.264,2.789-3.264,6.228c0,3.318,1.362,6.025,3.078,6.209
					c0.063,0.006,0.123,0.018,0.186,0.018c0.113,0,0.227-0.012,0.338-0.033c0.159-0.031,0.314-0.092,0.467-0.164
					c1.412-0.686,2.459-3.121,2.459-6.029C8.595,14.652,8.46,13.677,8.227,12.818z M5.357,11.569
					c-0.208,0.103-0.447,0.342-0.632,0.683c-0.381,0.689-0.557,1.77-0.584,2.842C4.14,15.375,4.137,15.617,4.15,15.9
					c0.015,0.27,0.028,0.533,0.042,0.791c0.044,0.504,0.092,0.98,0.17,1.383c0.074,0.404,0.145,0.748,0.213,0.986
					c0.072,0.234,0.104,0.377,0.104,0.377s-0.096-0.105-0.245-0.311c-0.134-0.211-0.347-0.514-0.509-0.92
					c-0.179-0.402-0.316-0.895-0.41-1.436c-0.051-0.275-0.082-0.557-0.097-0.828c-0.024-0.268-0.034-0.59-0.017-0.871
					c0.033-1.166,0.381-2.357,0.991-3.057c0.302-0.35,0.666-0.528,0.924-0.578c0.265-0.052,0.396,0.014,0.399-0.002
					C5.725,11.446,5.559,11.45,5.357,11.569z"/>
			</g>
		</g>
		<path fill="#FFFFFF" d="M18.409,12.176c0.473,0,0.854-0.38,0.854-0.851s-0.854-1.983-0.854-1.983s-0.85,1.513-0.85,1.983
			S17.94,12.176,18.409,12.176z"/>
		<path fill="#FFFFFF" d="M18.478,21.5c0.473,0,0.854-0.381,0.854-0.852c0-0.469-0.854-1.982-0.854-1.982s-0.85,1.514-0.85,1.982
			C17.628,21.119,18.009,21.5,18.478,21.5z"/>
		<path fill="#FFFFFF" d="M20.345,16.845c0.473,0,0.854-0.383,0.854-0.852c0-0.471-0.854-1.984-0.854-1.984s-0.85,1.514-0.85,1.984
			C19.495,16.463,19.876,16.845,20.345,16.845z"/>
		<path fill="#FFFFFF" d="M15.651,15.564c0.473,0,0.854-0.383,0.854-0.852c0-0.471-0.854-1.984-0.854-1.984s-0.85,1.514-0.85,1.984
			C14.802,15.181,15.183,15.564,15.651,15.564z"/>
		<path fill="#FFFFFF" d="M12.245,12.861c0.473,0,0.854-0.383,0.854-0.852c0-0.471-0.854-1.983-0.854-1.983s-0.85,1.513-0.85,1.983
			C11.396,12.478,11.776,12.861,12.245,12.861z"/>
		<path fill="#FFFFFF" d="M13.852,19.537c0.473,0,0.854-0.381,0.854-0.852c0-0.469-0.854-1.982-0.854-1.982s-0.85,1.514-0.85,1.982
			C13.002,19.156,13.383,19.537,13.852,19.537z"/>
	</g>
</g>
</svg>
