<?xml version="1.0" encoding="utf-8"?>
<!-- Generator: Adobe Illustrator 16.0.3, SVG Export Plug-In . SVG Version: 6.00 Build 0)  -->
<!DOCTYPE svg PUBLIC "-//W3C//DTD SVG 1.1//EN" "http://www.w3.org/Graphics/SVG/1.1/DTD/svg11.dtd">
<svg version="1.1" xmlns="http://www.w3.org/2000/svg" xmlns:xlink="http://www.w3.org/1999/xlink" x="0px" y="0px" width="22.68px"
	 height="22.68px" viewBox="0 0 22.68 22.68" enable-background="new 0 0 22.68 22.68" xml:space="preserve">
<g id="BCGRND">
</g>
<g id="BAREVNE_POZADI_IKON">
	<rect x="0.002" fill="#585857" width="22.677" height="22.678"/>
</g>
<g id="IKONY">
	<g>
		<g>
			<rect x="0.002" y="7.77" fill="#FFFFFF" width="22.678" height="0.889"/>
			<path fill="#FFFFFF" d="M3.495,19.994h12.154v-8.773H3.495V19.994z M4.793,12.639h9.551v5.939H4.793V12.639z"/>
			<path fill="#FFFFFF" d="M16.078,11.221v6.926h3.109v-6.926H16.078z M17.633,16.77c-0.234,0-0.426-0.191-0.426-0.428
				c0-0.234,0.191-0.426,0.426-0.426c0.236,0,0.426,0.191,0.426,0.426C18.059,16.578,17.87,16.77,17.633,16.77z M17.633,15.129
				c-0.234,0-0.426-0.189-0.426-0.426c0-0.234,0.191-0.428,0.426-0.428c0.236,0,0.426,0.193,0.426,0.428
				C18.059,14.939,17.87,15.129,17.633,15.129z M17.633,13.49c-0.234,0-0.426-0.191-0.426-0.428c0-0.234,0.191-0.424,0.426-0.424
				c0.236,0,0.426,0.189,0.426,0.424C18.059,13.299,17.87,13.49,17.633,13.49z"/>
			<rect x="16.078" y="18.578" fill="#FFFFFF" width="3.109" height="1.416"/>
			<path fill="#FFFFFF" d="M7.795,17.963c-1.189,0-2.088-0.42-2.145-0.445c-0.186-0.09-0.266-0.313-0.176-0.5
				c0.088-0.188,0.311-0.266,0.498-0.178c0.02,0.01,1.789,0.824,3.494,0c2.039-0.98,4.059-0.039,4.143,0
				c0.188,0.088,0.266,0.313,0.178,0.498c-0.088,0.188-0.311,0.268-0.5,0.18c-0.018-0.008-1.787-0.824-3.494-0.002
				C9.1,17.852,8.409,17.963,7.795,17.963z"/>
			<path fill="#FFFFFF" d="M7.795,16.391c-1.189,0-2.088-0.418-2.143-0.443c-0.188-0.09-0.268-0.313-0.178-0.5
				c0.088-0.186,0.313-0.266,0.498-0.178c0.02,0.008,1.789,0.82,3.496,0c2.035-0.982,4.057-0.041,4.141,0
				c0.188,0.09,0.266,0.313,0.178,0.498c-0.088,0.189-0.311,0.268-0.5,0.18c-0.016-0.008-1.787-0.824-3.494-0.002
				C9.1,16.279,8.409,16.391,7.795,16.391z"/>
			<path fill="#FFFFFF" d="M7.795,14.818c-1.189,0-2.088-0.418-2.143-0.443c-0.188-0.09-0.268-0.313-0.178-0.5
				c0.088-0.186,0.311-0.268,0.498-0.178c0.018,0.008,1.789,0.822,3.496,0c2.035-0.982,4.057-0.041,4.141,0
				c0.188,0.09,0.266,0.313,0.178,0.498c-0.088,0.188-0.311,0.268-0.5,0.18c-0.016-0.008-1.787-0.822-3.494-0.002
				C9.1,14.707,8.409,14.818,7.795,14.818z"/>
			<g>
				<g>
					<path fill="#FFFFFF" d="M7.388,4.638L7.104,5.57h-0.62l1.055-3.291h0.767L9.375,5.57H8.725L8.428,4.638H7.388z M8.33,4.184
						L8.071,3.373c-0.063-0.2-0.117-0.425-0.166-0.615h-0.01c-0.049,0.19-0.103,0.42-0.156,0.615L7.485,4.184H8.33z"/>
					<path fill="#FFFFFF" d="M10.316,4.237h0.01c0.059-0.093,0.127-0.195,0.186-0.278l0.581-0.767h0.723l-0.884,0.972l1.006,1.406
						H11.2l-0.684-1.05l-0.2,0.239V5.57H9.716V2.104h0.601V4.237z"/>
					<path fill="#FFFFFF" d="M13.845,5.497c-0.127,0.059-0.376,0.122-0.674,0.122c-0.742,0-1.226-0.479-1.226-1.216
						c0-0.713,0.488-1.265,1.323-1.265c0.22,0,0.444,0.049,0.581,0.107L13.742,3.7c-0.098-0.049-0.239-0.093-0.454-0.093
						c-0.459,0-0.732,0.337-0.728,0.771c0,0.488,0.317,0.767,0.728,0.767c0.205,0,0.356-0.044,0.474-0.093L13.845,5.497z"/>
					<path fill="#FFFFFF" d="M14.599,4.55c0.015,0.43,0.347,0.615,0.732,0.615c0.278,0,0.474-0.044,0.659-0.107l0.088,0.41
						c-0.205,0.088-0.488,0.151-0.83,0.151c-0.771,0-1.226-0.474-1.226-1.201c0-0.659,0.4-1.279,1.162-1.279
						c0.771,0,1.025,0.635,1.025,1.157c0,0.112-0.01,0.2-0.02,0.254H14.599z M15.644,4.13c0.005-0.22-0.093-0.581-0.493-0.581
						c-0.371,0-0.527,0.337-0.552,0.581H15.644z"/>
				</g>
			</g>
		</g>
	</g>
</g>
</svg>
