<?xml version="1.0" encoding="utf-8"?>
<!-- Generator: Adobe Illustrator 16.0.3, SVG Export Plug-In . SVG Version: 6.00 Build 0)  -->
<!DOCTYPE svg PUBLIC "-//W3C//DTD SVG 1.1//EN" "http://www.w3.org/Graphics/SVG/1.1/DTD/svg11.dtd">
<svg version="1.1" xmlns="http://www.w3.org/2000/svg" xmlns:xlink="http://www.w3.org/1999/xlink" x="0px" y="0px" width="22.68px"
	 height="22.68px" viewBox="0 0 22.68 22.68" enable-background="new 0 0 22.68 22.68" xml:space="preserve">
<g id="BCGRND">
</g>
<g id="BAREVNE_POZADI_IKON">
	<rect x="-0.141" fill="#585857" width="22.819" height="22.68"/>
</g>
<g id="IKONY">
	<g>
		<g>
			<rect x="0" y="7.77" fill="#FFFFFF" width="22.678" height="0.889"/>
			<g>
				<path fill="#FFFFFF" d="M2.378,4.637L2.095,5.57H1.476L2.53,2.279h0.766l1.07,3.291H3.722L3.423,4.637H2.378z M3.321,4.183
					l-0.26-0.811c-0.063-0.2-0.117-0.425-0.166-0.615h-0.01c-0.049,0.19-0.098,0.42-0.156,0.615L2.476,4.183H3.321z"/>
				<path fill="#FFFFFF" d="M4.732,2.103h0.605V5.57H4.732V2.103z"/>
				<path fill="#FFFFFF" d="M5.939,2.103h0.605V5.57H5.939V2.103z"/>
				<path fill="#FFFFFF" d="M8.749,2.528c0,0.181-0.133,0.322-0.342,0.322c-0.201,0-0.332-0.142-0.332-0.322
					c0-0.186,0.137-0.327,0.336-0.327C8.616,2.2,8.743,2.342,8.749,2.528z M8.109,5.57V3.192h0.605V5.57H8.109z"/>
				<path fill="#FFFFFF" d="M9.312,3.9c0-0.273-0.005-0.503-0.02-0.708h0.527l0.029,0.356h0.015c0.103-0.186,0.361-0.41,0.757-0.41
					c0.415,0,0.845,0.269,0.845,1.021V5.57h-0.601V4.227c0-0.342-0.127-0.601-0.454-0.601c-0.239,0-0.405,0.171-0.469,0.352
					c-0.02,0.054-0.024,0.127-0.024,0.195V5.57H9.312V3.9z"/>
				<path fill="#FFFFFF" d="M15.967,3.89c0,1.104-0.669,1.733-1.577,1.733c-0.928,0-1.514-0.708-1.514-1.675
					c0-1.011,0.635-1.724,1.563-1.724C15.401,2.225,15.967,2.952,15.967,3.89z M13.511,3.939c0,0.669,0.337,1.201,0.913,1.201
					c0.581,0,0.908-0.537,0.908-1.226c0-0.62-0.308-1.206-0.908-1.206C13.828,2.708,13.511,3.26,13.511,3.939z"/>
				<path fill="#FFFFFF" d="M16.43,3.9c0-0.273-0.005-0.503-0.02-0.708h0.527l0.029,0.356h0.015c0.103-0.186,0.361-0.41,0.757-0.41
					c0.415,0,0.845,0.269,0.845,1.021V5.57h-0.601V4.227c0-0.342-0.127-0.601-0.454-0.601c-0.239,0-0.405,0.171-0.469,0.352
					c-0.02,0.054-0.024,0.127-0.024,0.195V5.57H16.43V3.9z"/>
				<path fill="#FFFFFF" d="M19.603,4.549c0.014,0.43,0.352,0.615,0.732,0.615c0.277,0,0.479-0.039,0.658-0.107l0.088,0.415
					c-0.205,0.083-0.488,0.146-0.83,0.146c-0.771,0-1.225-0.474-1.225-1.201c0-0.659,0.4-1.279,1.162-1.279
					c0.771,0,1.025,0.635,1.025,1.157c0,0.112-0.01,0.2-0.02,0.254H19.603z M20.648,4.129c0.004-0.22-0.094-0.581-0.494-0.581
					c-0.371,0-0.527,0.337-0.551,0.581H20.648z"/>
			</g>
		</g>
		<g>
			<path fill="#FFFFFF" d="M16.122,11.542c2.277,0,4.131,1.853,4.131,4.13s-1.854,4.13-4.131,4.13H6.467
				c-2.277,0-4.13-1.853-4.13-4.13s1.853-4.13,4.13-4.13H16.122 M16.122,10.654H6.467c-2.772,0-5.019,2.247-5.019,5.019
				s2.246,5.019,5.019,5.019h9.655c2.773,0,5.02-2.247,5.02-5.019S18.896,10.654,16.122,10.654L16.122,10.654z"/>
			<g>
				<path fill="#FFFFFF" d="M6.42,13.314h-0.02c-0.091,0.363-0.185,0.798-0.297,1.17l-0.481,1.541h1.606l-0.493-1.541
					C6.615,14.104,6.513,13.677,6.42,13.314z"/>
				<path fill="#FFFFFF" d="M6.467,10.654c-2.772,0-5.019,2.247-5.019,5.019s2.246,5.019,5.019,5.019s5.019-2.247,5.019-5.019
					S9.239,10.654,6.467,10.654z M7.988,18.662l-0.564-1.773H5.437l-0.539,1.773H3.719l2.005-6.257h1.458l2.033,6.257H7.988z"/>
			</g>
			<path fill="#FFFFFF" d="M16.589,13.657h-0.02l-1.105,0.558l-0.194-0.863l1.467-0.725h0.957v6.035h-1.104V13.657z"/>
			<g>
				<path fill="#FFFFFF" d="M13.025,13.483c0,0.219-0.159,0.391-0.414,0.391c-0.243,0-0.402-0.172-0.402-0.391
					c0-0.225,0.165-0.396,0.409-0.396C12.865,13.086,13.018,13.258,13.025,13.483z"/>
				<path fill="#FFFFFF" d="M12.335,15.284c0-0.331-0.006-0.609-0.023-0.857h0.64l0.034,0.432h0.018
					c0.125-0.225,0.438-0.497,0.917-0.497c0.504,0,1.023,0.325,1.023,1.237v1.709h-0.727v-1.627c0-0.414-0.154-0.728-0.55-0.728
					c-0.291,0-0.492,0.207-0.569,0.426c-0.023,0.065-0.029,0.154-0.029,0.237v1.691h-0.733V15.284z"/>
			</g>
		</g>
	</g>
</g>
</svg>
