<?xml version="1.0" encoding="utf-8"?>
<!-- Generator: Adobe Illustrator 16.0.3, SVG Export Plug-In . SVG Version: 6.00 Build 0)  -->
<!DOCTYPE svg PUBLIC "-//W3C//DTD SVG 1.1//EN" "http://www.w3.org/Graphics/SVG/1.1/DTD/svg11.dtd">
<svg version="1.1" xmlns="http://www.w3.org/2000/svg" xmlns:xlink="http://www.w3.org/1999/xlink" x="0px" y="0px" width="22.68px"
	 height="22.68px" viewBox="0 0 22.68 22.68" enable-background="new 0 0 22.68 22.68" xml:space="preserve">
<g id="BCGRND">
</g>
<g id="BAREVNE_POZADI_IKON">
	<rect x="0.002" fill="#585857" width="22.678" height="22.68"/>
</g>
<g id="IKONY">
	<g>
		<g>
			<path fill="#FFFFFF" d="M2.328,4.635L2.045,5.568H1.424l1.055-3.291h0.768l1.068,3.291H3.67L3.373,4.635H2.328z M3.27,4.181
				L3.012,3.37c-0.064-0.2-0.117-0.425-0.166-0.615h-0.01C2.787,2.946,2.738,3.175,2.68,3.37L2.426,4.181H3.27z"/>
			<path fill="#FFFFFF" d="M6.814,4.855c0,0.283,0.01,0.518,0.02,0.713H6.307L6.277,5.206h-0.01C6.164,5.377,5.93,5.621,5.506,5.621
				c-0.436,0-0.83-0.259-0.83-1.035V3.19h0.6v1.294c0,0.396,0.127,0.649,0.445,0.649c0.238,0,0.395-0.171,0.459-0.322
				c0.02-0.054,0.033-0.117,0.033-0.186V3.19h0.602V4.855z"/>
			<path fill="#FFFFFF" d="M8.155,2.511V3.19h0.571v0.449H8.155v1.05c0,0.288,0.078,0.439,0.308,0.439
				c0.103,0,0.181-0.015,0.234-0.029l0.01,0.459C8.619,5.592,8.463,5.616,8.272,5.616c-0.22,0-0.405-0.073-0.518-0.195
				C7.628,5.284,7.569,5.07,7.569,4.757V3.639H7.228V3.19h0.342V2.653L8.155,2.511z"/>
			<path fill="#FFFFFF" d="M11.414,4.357c0,0.874-0.615,1.265-1.221,1.265c-0.674,0-1.191-0.464-1.191-1.226
				c0-0.781,0.513-1.26,1.23-1.26C10.94,3.136,11.414,3.634,11.414,4.357z M9.622,4.381c0,0.459,0.225,0.806,0.591,0.806
				c0.342,0,0.581-0.337,0.581-0.815c0-0.371-0.166-0.796-0.576-0.796C9.793,3.575,9.622,3.986,9.622,4.381z"/>
			<path fill="#FFFFFF" d="M11.91,3.981c0-0.313-0.01-0.566-0.02-0.791h0.527l0.029,0.366h0.01c0.176-0.269,0.455-0.42,0.816-0.42
				c0.547,0,1,0.469,1,1.211c0,0.859-0.541,1.274-1.084,1.274c-0.297,0-0.547-0.127-0.668-0.317h-0.01v1.23H11.91V3.981z
				 M12.512,4.572c0,0.059,0.004,0.112,0.02,0.166c0.059,0.244,0.273,0.42,0.527,0.42c0.381,0,0.605-0.317,0.605-0.786
				c0-0.42-0.205-0.762-0.592-0.762c-0.248,0-0.479,0.181-0.537,0.444c-0.014,0.049-0.023,0.103-0.023,0.151V4.572z"/>
			<path fill="#FFFFFF" d="M15.41,2.526c0,0.181-0.131,0.322-0.342,0.322c-0.199,0-0.332-0.142-0.332-0.322
				c0-0.186,0.137-0.327,0.338-0.327C15.279,2.198,15.406,2.34,15.41,2.526z M14.771,5.568V3.19h0.605v2.378H14.771z"/>
			<path fill="#FFFFFF" d="M16.022,2.101h0.605v3.467h-0.605V2.101z"/>
			<path fill="#FFFFFF" d="M19.539,4.357c0,0.874-0.615,1.265-1.221,1.265c-0.674,0-1.191-0.464-1.191-1.226
				c0-0.781,0.514-1.26,1.23-1.26C19.066,3.136,19.539,3.634,19.539,4.357z M17.748,4.381c0,0.459,0.225,0.806,0.59,0.806
				c0.342,0,0.582-0.337,0.582-0.815c0-0.371-0.166-0.796-0.576-0.796C17.918,3.575,17.748,3.986,17.748,4.381z"/>
			<path fill="#FFFFFF" d="M20.725,2.511V3.19h0.571v0.449h-0.571v1.05c0,0.288,0.078,0.439,0.308,0.439
				c0.103,0,0.181-0.015,0.234-0.029l0.01,0.459c-0.088,0.034-0.244,0.059-0.435,0.059c-0.22,0-0.405-0.073-0.518-0.195
				c-0.127-0.137-0.186-0.352-0.186-0.664V3.639h-0.342V3.19h0.342V2.653L20.725,2.511z"/>
		</g>
		<g>
			<path fill="#FFFFFF" d="M8.646,19.084h5.546v-0.854H8.646V19.084z M13.393,12.287c0,0,0.091-1.324-1.108-1.637
				C9.399,9.9,9.295,12.699,9.295,12.699c-1.544-0.412-3.114,0.85-2.435,2.766c0.136,0.381,0.336,0.639,0.555,0.816
				c0.426,0.344,1.68,0.537,2.449,0.158c-0.206,0.334-0.752,0.521-1.219,0.555v0.857h5.546v-1.451
				c-1.358-0.145-1.375-0.781-1.375-0.781c0.663,0.768,1.936,0.334,2.018,0.305c0.546-0.246,1.226-0.781,1.138-1.926
				C15.828,12.123,13.393,12.287,13.393,12.287z"/>
		</g>
		<g>
			<rect y="7.769" fill="#FFFFFF" width="22.678" height="0.889"/>
		</g>
		<path opacity="0.5" fill="#FFFFFF" d="M18.915,15.164c0-3.146-1.927-5.849-4.661-6.993C13.356,7.795,9.3,7.8,8.394,8.184
			c-2.718,1.152-4.63,3.847-4.63,6.98c0,3.863,2.907,7.053,6.646,7.513h1.857C16.008,22.217,18.915,19.027,18.915,15.164z
			 M4.764,15.164c0-3.626,2.949-6.576,6.575-6.576s6.576,2.95,6.576,6.576s-2.95,6.576-6.576,6.576S4.764,18.79,4.764,15.164z"/>
		<path opacity="0.5" fill="#FFFFFF" d="M2.374,15.164c0-2.594,1.123-5.058,3.08-6.762c0,0-1.063-0.384-1.254-0.188
			c-1.805,1.854-2.826,4.344-2.826,6.951c0,2.999,1.337,5.685,3.439,7.513h1.651C4.007,21.077,2.374,18.31,2.374,15.164z"/>
		<path opacity="0.5" fill="#FFFFFF" d="M21.303,15.164c0-2.603-1.021-5.097-2.824-6.95c-0.169-0.174-1.192,0.243-1.192,0.243
			c1.917,1.701,3.017,4.145,3.017,6.707c0,3.146-1.633,5.913-4.091,7.513h1.651C19.966,20.849,21.303,18.162,21.303,15.164z"/>
	</g>
</g>
</svg>
