<?xml version="1.0" encoding="utf-8"?>
<!-- Generator: Adobe Illustrator 16.0.3, SVG Export Plug-In . SVG Version: 6.00 Build 0)  -->
<!DOCTYPE svg PUBLIC "-//W3C//DTD SVG 1.1//EN" "http://www.w3.org/Graphics/SVG/1.1/DTD/svg11.dtd">
<svg version="1.1" xmlns="http://www.w3.org/2000/svg" xmlns:xlink="http://www.w3.org/1999/xlink" x="0px" y="0px" width="22.68px"
	 height="22.68px" viewBox="0 0 22.68 22.68" enable-background="new 0 0 22.68 22.68" xml:space="preserve">
<g id="BCGRND">
</g>
<g id="BAREVNE_POZADI_IKON">
	<rect x="0.002" fill="#585857" width="22.676" height="22.678"/>
</g>
<g id="IKONY">
	<g>
		<g>
			<g>
				<g>
					<rect x="0.002" y="11.956" fill="#FFFFFF" width="22.678" height="0.889"/>
				</g>
				<g>
					<g>
						<path fill="#FFFFFF" d="M7.032,4.353L6.749,5.286h-0.62l1.055-3.291H7.95L9.02,5.286H8.375L8.077,4.353H7.032z M7.975,3.899
							L7.716,3.088c-0.063-0.2-0.117-0.425-0.166-0.615H7.54c-0.049,0.19-0.098,0.42-0.156,0.615L7.13,3.899H7.975z"/>
						<path fill="#FFFFFF" d="M11.674,4.573c0,0.283,0.01,0.518,0.02,0.713h-0.527l-0.029-0.361h-0.01
							c-0.103,0.171-0.337,0.415-0.762,0.415c-0.435,0-0.83-0.259-0.83-1.035V2.908h0.601v1.294c0,0.396,0.127,0.649,0.444,0.649
							c0.239,0,0.396-0.171,0.459-0.322c0.02-0.054,0.034-0.117,0.034-0.186V2.908h0.601V4.573z"/>
						<path fill="#FFFFFF" d="M13.152,2.229v0.679h0.57v0.449h-0.57v1.05c0,0.288,0.078,0.439,0.307,0.439
							c0.104,0,0.182-0.015,0.234-0.029l0.01,0.459c-0.088,0.034-0.244,0.059-0.434,0.059c-0.221,0-0.406-0.073-0.518-0.195
							c-0.127-0.137-0.186-0.352-0.186-0.664V3.357h-0.342V2.908h0.342V2.371L13.152,2.229z"/>
						<path fill="#FFFFFF" d="M16.552,4.075c0,0.874-0.615,1.265-1.221,1.265c-0.674,0-1.191-0.464-1.191-1.226
							c0-0.781,0.513-1.26,1.23-1.26C16.078,2.854,16.552,3.352,16.552,4.075z M14.76,4.099c0,0.459,0.225,0.806,0.591,0.806
							c0.342,0,0.581-0.337,0.581-0.815c0-0.371-0.166-0.796-0.576-0.796C14.931,3.293,14.76,3.704,14.76,4.099z"/>
						<path fill="#FFFFFF" d="M5.182,9.688c-0.141,0.073-0.453,0.146-0.85,0.146c-1.045,0-1.68-0.654-1.68-1.655
							c0-1.084,0.752-1.738,1.758-1.738c0.396,0,0.68,0.083,0.801,0.146L5.08,7.066C4.924,6.998,4.709,6.939,4.436,6.939
							c-0.67,0-1.152,0.42-1.152,1.211c0,0.723,0.424,1.187,1.146,1.187c0.244,0,0.498-0.049,0.654-0.122L5.182,9.688z"/>
						<path fill="#FFFFFF" d="M7.152,9.786L7.113,9.522H7.1C6.953,9.708,6.703,9.839,6.396,9.839c-0.479,0-0.748-0.347-0.748-0.708
							c0-0.601,0.533-0.903,1.412-0.898V8.194c0-0.156-0.064-0.415-0.484-0.415c-0.234,0-0.478,0.073-0.639,0.176L5.82,7.564
							c0.176-0.107,0.482-0.21,0.859-0.21c0.762,0,0.98,0.483,0.98,1.001v0.859c0,0.215,0.01,0.425,0.035,0.571H7.152z M7.074,8.624
							c-0.424-0.01-0.83,0.083-0.83,0.444c0,0.234,0.152,0.342,0.342,0.342c0.24,0,0.416-0.156,0.469-0.327
							c0.016-0.044,0.02-0.093,0.02-0.132V8.624z"/>
						<path fill="#FFFFFF" d="M8.432,8.199c0-0.313-0.01-0.566-0.02-0.791h0.527l0.029,0.366h0.01
							c0.176-0.269,0.455-0.42,0.816-0.42c0.547,0,1,0.469,1,1.211c0,0.859-0.541,1.274-1.084,1.274
							c-0.297,0-0.547-0.127-0.668-0.317h-0.01v1.23H8.432V8.199z M9.033,8.79c0,0.059,0.004,0.112,0.02,0.166
							C9.111,9.2,9.326,9.375,9.58,9.375c0.381,0,0.606-0.317,0.606-0.786c0-0.42-0.205-0.762-0.592-0.762
							c-0.248,0-0.479,0.181-0.537,0.444C9.043,8.321,9.033,8.375,9.033,8.423V8.79z"/>
						<path fill="#FFFFFF" d="M12.131,6.729v0.679h0.57v0.449h-0.57v1.05c0,0.288,0.078,0.439,0.307,0.439
							c0.104,0,0.182-0.015,0.234-0.029l0.01,0.459c-0.088,0.034-0.244,0.059-0.434,0.059c-0.221,0-0.406-0.073-0.518-0.195
							c-0.127-0.137-0.185-0.352-0.185-0.664V7.857h-0.342V7.408h0.342V6.871L12.131,6.729z"/>
						<path fill="#FFFFFF" d="M15.406,9.073c0,0.283,0.01,0.518,0.02,0.713h-0.527l-0.029-0.361h-0.01
							c-0.103,0.171-0.338,0.415-0.762,0.415c-0.436,0-0.83-0.259-0.83-1.035V7.408h0.6v1.294c0,0.396,0.127,0.649,0.445,0.649
							c0.238,0,0.395-0.171,0.459-0.322c0.02-0.054,0.033-0.117,0.033-0.186V7.408h0.602V9.073z"/>
						<path fill="#FFFFFF" d="M16.197,8.174c0-0.322-0.006-0.552-0.019-0.767h0.521l0.02,0.454h0.02
							c0.117-0.337,0.396-0.508,0.65-0.508c0.058,0,0.092,0.005,0.141,0.015v0.566c-0.049-0.01-0.102-0.02-0.176-0.02
							c-0.287,0-0.482,0.186-0.537,0.454c-0.01,0.054-0.02,0.117-0.02,0.186v1.23h-0.6V8.174z"/>
						<path fill="#FFFFFF" d="M18.5,8.765c0.016,0.43,0.352,0.615,0.732,0.615c0.279,0,0.479-0.039,0.66-0.107l0.088,0.415
							c-0.205,0.083-0.488,0.146-0.83,0.146c-0.771,0-1.227-0.474-1.227-1.201c0-0.659,0.4-1.279,1.162-1.279
							c0.771,0,1.025,0.635,1.025,1.157c0,0.112-0.01,0.2-0.02,0.254H18.5z M19.545,8.345c0.006-0.22-0.092-0.581-0.492-0.581
							c-0.371,0-0.527,0.337-0.553,0.581H19.545z"/>
					</g>
				</g>
			</g>
			<g>
				<g>
					<g opacity="0.5">
						<polygon fill="#FFFFFF" points="15.397,17.723 9.269,14.184 9.269,21.26 						"/>
					</g>
					<g>
						<path fill="#FFFFFF" d="M9.269,21.51c-0.043,0-0.086-0.011-0.125-0.033c-0.077-0.045-0.125-0.127-0.125-0.217v-7.076
							c0-0.09,0.048-0.172,0.125-0.217c0.078-0.045,0.172-0.045,0.25,0l6.129,3.539c0.077,0.045,0.125,0.127,0.125,0.217
							c0,0.089-0.048,0.172-0.125,0.216l-6.129,3.538C9.354,21.499,9.312,21.51,9.269,21.51z M9.519,14.617v6.21l5.379-3.104
							L9.519,14.617z"/>
					</g>
				</g>
				<g>
					<g>
						<path fill="none" d="M20.95,14.994c-0.659-1.427-1.471-2.594-1.805-2.594s-0.004,1.136,0.733,2.523
							c0,0,0.427,0.805,0.427,2.798c0,1.831-0.264,2.381-0.264,2.381c-0.681,1.416-0.975,2.575-0.653,2.575
							c0.322,0,1.086-1.185,1.697-2.632c0,0,0.22-0.519,0.22-2.324C21.306,15.764,20.95,14.994,20.95,14.994z"/>
					</g>
					<g>
						<path fill="none" d="M17.333,15.498c0.313,1.073,0.395,1.951,0.179,1.951s-0.1,0.505,0.257,1.122s0.939,0.617,1.296,0
							s0.466-1.122,0.243-1.122c-0.223,0-0.605-0.842-0.853-1.87c-0.246-1.028-2.085-3.179-2.506-3.179
							C15.529,12.4,17.02,14.425,17.333,15.498z"/>
					</g>
					<path opacity="0.5" fill="#FFFFFF" d="M17.903,17.449H17.12l1.297,2.244l1.295-2.244h-0.809
						c-0.07-1.967-0.896-3.74-2.188-5.049h-1.53C16.763,13.547,17.817,15.373,17.903,17.449z"/>
					<g>
						<path fill="none" d="M4.963,14.615c0.237,0.139,0.545,0.057,0.683-0.183c0.472-0.814,0.472-0.814,0.472-0.814
							C6.876,12.948,7.15,12.4,6.727,12.4c-0.425,0-1.153,0.435-1.619,0.965c0,0,0,0-0.327,0.566
							C4.642,14.171,4.724,14.477,4.963,14.615z"/>
					</g>
					<path opacity="0.5" fill="#FFFFFF" d="M4.963,14.615c0.237,0.139,0.545,0.057,0.683-0.183c0.472-0.814,1.11-1.497,1.851-2.032
						H5.955c-0.449,0.454-0.848,0.965-1.175,1.531C4.642,14.171,4.724,14.477,4.963,14.615z"/>
					<g>
						<path fill="none" d="M2.376,17.722c0-1.993,0.427-2.798,0.427-2.798C3.54,13.536,3.87,12.4,3.536,12.4
							s-1.146,1.167-1.805,2.594c0,0-0.356,0.77-0.356,2.728c0,1.806,0.22,2.324,0.22,2.324c0.611,1.447,1.375,2.632,1.697,2.632
							c0.321,0,0.027-1.159-0.653-2.575C2.64,20.103,2.376,19.553,2.376,17.722z"/>
					</g>
					<g>
						<path fill="none" d="M5.248,19.761c-0.259-0.972-0.294-1.767-0.078-1.767s0.1-0.505-0.257-1.122s-0.939-0.617-1.296,0
							s-0.466,1.122-0.243,1.122c0.223,0,0.573,0.77,0.779,1.709c0.206,0.939,1.788,2.975,2.177,2.975
							C6.72,22.678,5.507,20.732,5.248,19.761z"/>
					</g>
					<path opacity="0.5" fill="#FFFFFF" d="M4.778,17.994h0.783L4.265,15.75L2.97,17.994h0.809c0.064,1.787,0.75,3.418,1.845,4.684
						h1.415C5.718,21.527,4.855,19.862,4.778,17.994z"/>
					<g>
						<path fill="none" d="M17.926,21.47c0.137-0.239,0.053-0.546-0.188-0.683c-0.238-0.136-0.544-0.053-0.682,0.188
							c-0.374,0.656-0.374,0.656-0.374,0.656c-0.573,0.576-0.726,1.047-0.339,1.047c0.388,0,0.987-0.347,1.332-0.77
							C17.676,21.908,17.676,21.908,17.926,21.47z"/>
					</g>
					<path opacity="0.5" fill="#FFFFFF" d="M17.926,21.47c0.137-0.239,0.053-0.546-0.188-0.683
						c-0.238-0.136-0.544-0.053-0.682,0.188c-0.374,0.656-0.861,1.223-1.417,1.703h1.409C17.373,22.305,17.676,21.908,17.926,21.47z
						"/>
				</g>
			</g>
			<g>
				<path opacity="0.5" fill="#FFFFFF" d="M19.752,12.4h-1.213c1.104,1.49,1.767,3.328,1.767,5.321c0,1.831-0.555,3.535-1.501,4.956
					h1.017c0.055,0,0.106-0.014,0.159-0.016c0.837-1.459,1.324-3.142,1.324-4.94C21.306,15.764,20.73,13.941,19.752,12.4z"/>
				<path opacity="0.5" fill="#FFFFFF" d="M4.142,12.4H2.93c-0.979,1.541-1.554,3.363-1.554,5.321c0,1.799,0.487,3.481,1.324,4.94
					c0.054,0.002,0.104,0.016,0.159,0.016h1.018c-0.946-1.421-1.501-3.125-1.501-4.956C2.376,15.729,3.038,13.891,4.142,12.4z"/>
			</g>
		</g>
	</g>
</g>
</svg>
