<?xml version="1.0" encoding="utf-8"?>
<!-- Generator: Adobe Illustrator 16.0.3, SVG Export Plug-In . SVG Version: 6.00 Build 0)  -->
<!DOCTYPE svg PUBLIC "-//W3C//DTD SVG 1.1//EN" "http://www.w3.org/Graphics/SVG/1.1/DTD/svg11.dtd">
<svg version="1.1" xmlns="http://www.w3.org/2000/svg" xmlns:xlink="http://www.w3.org/1999/xlink" x="0px" y="0px" width="22.68px"
	 height="22.68px" viewBox="0 0 22.68 22.68" enable-background="new 0 0 22.68 22.68" xml:space="preserve">
<g id="BCGRND">
</g>
<g id="BAREVNE_POZADI_IKON">
	<polygon fill="#585857" points="22.678,16.335 22.678,0 0,0 0,22.678 14.117,22.678 22.678,22.678 	"/>
</g>
<g id="IKONY">
	<g>
		<g>
			<g>
				<rect y="7.77" fill="#FFFFFF" width="22.678" height="0.889"/>
			</g>
			<g>
				<path fill="#FFFFFF" d="M8.902,4.638L8.619,5.571H7.998L9.053,2.28H9.82l1.068,3.291h-0.645L9.947,4.638H8.902z M9.844,4.184
					L9.586,3.373c-0.064-0.2-0.117-0.425-0.166-0.615H9.41c-0.049,0.19-0.098,0.42-0.156,0.615L9,4.184H9.844z"/>
				<path fill="#FFFFFF" d="M12.895,5.571l-0.356-0.654c-0.142-0.254-0.234-0.43-0.327-0.62h-0.015
					c-0.078,0.19-0.166,0.366-0.298,0.62l-0.327,0.654h-0.688l0.977-1.665L10.922,2.28h0.688l0.356,0.679
					c0.107,0.205,0.186,0.366,0.273,0.552h0.01c0.088-0.205,0.156-0.352,0.259-0.552L12.86,2.28h0.688l-0.962,1.606l1.001,1.685
					H12.895z"/>
				<path fill="#FFFFFF" d="M14.515,2.28v3.291h-0.601V2.28H14.515z"/>
			</g>
		</g>
		<g>
			<g opacity="0.5">
				<rect x="8.479" y="20.851" fill="#FFFFFF" width="5.719" height="0.902"/>
			</g>
			<g>
				<path fill="#FFFFFF" d="M13.648,13.37c0.438,0,0.792-0.354,0.792-0.792s-0.354-0.792-0.792-0.792s-0.792,0.354-0.792,0.792
					c0,0.164,0.062,0.308,0.146,0.434c-0.245,0.456-0.484,1.213-0.518,2.386h-2.293c-0.033-1.173-0.272-1.93-0.518-2.386
					c0.085-0.126,0.146-0.27,0.146-0.434c0-0.438-0.354-0.792-0.792-0.792s-0.792,0.354-0.792,0.792s0.354,0.792,0.792,0.792
					c0.086,0,0.165-0.023,0.243-0.049c0.198,0.399,0.398,1.07,0.424,2.125c-0.518,0.112-0.913,0.552-0.913,1.102
					c0,0.634,0.516,1.15,1.149,1.15h2.829c0.635,0,1.15-0.516,1.15-1.15c0-0.556-0.404-1-0.931-1.105
					c0.025-1.053,0.226-1.723,0.425-2.121C13.483,13.346,13.563,13.37,13.648,13.37z M10.205,15.898h0.422v1.3h-0.422V15.898z
					 M11.127,15.898h0.423v1.3h-0.423V15.898z M12.05,15.898h0.423v1.3H12.05V15.898z M9.283,16.548
					c0-0.278,0.177-0.511,0.422-0.604v1.207C9.46,17.058,9.283,16.825,9.283,16.548z M13.412,16.548
					c0,0.284-0.186,0.519-0.439,0.607V15.94C13.227,16.029,13.412,16.264,13.412,16.548z"/>
			</g>
			<g opacity="0.5">
				<path fill="#FFFFFF" d="M11.339,9.234c-2.635,0-4.973,2.136-4.973,4.772c0,0.842,0.221,1.631,0.604,2.319
					c0,0,0.992,1.303,1.48,3.921h1.796v0h2.186l0,0h1.792c0.492-2.618,1.484-3.921,1.484-3.921c0.383-0.688,0.604-1.478,0.604-2.319
					C16.312,11.37,13.974,9.234,11.339,9.234z M14.859,15.793c-0.205,0.295-0.947,1.454-1.441,3.454h-1.204L11.8,17.352
					l-0.924-0.004l-0.412,1.899H9.257c-0.491-2-1.233-3.159-1.438-3.454c-0.3-0.556-0.452-1.157-0.452-1.787
					c0-2.044,1.819-3.772,3.973-3.772s3.973,1.728,3.973,3.772C15.312,14.635,15.159,15.237,14.859,15.793z"/>
			</g>
		</g>
	</g>
</g>
</svg>
