<?xml version="1.0" encoding="utf-8"?>
<!-- Generator: Adobe Illustrator 16.0.3, SVG Export Plug-In . SVG Version: 6.00 Build 0)  -->
<!DOCTYPE svg PUBLIC "-//W3C//DTD SVG 1.1//EN" "http://www.w3.org/Graphics/SVG/1.1/DTD/svg11.dtd">
<svg version="1.1" xmlns="http://www.w3.org/2000/svg" xmlns:xlink="http://www.w3.org/1999/xlink" x="0px" y="0px" width="22.68px"
	 height="22.68px" viewBox="0 0 22.68 22.68" enable-background="new 0 0 22.68 22.68" xml:space="preserve">
<g id="BCGRND">
</g>
<g id="BAREVNE_POZADI_IKON">
	<rect x="0" y="0" fill="#585857" width="22.676" height="22.678"/>
</g>
<g id="IKONY">
	<g>
		<g>
			<g>
				<rect x="0" y="11.956" fill="#FFFFFF" width="22.678" height="0.889"/>
			</g>
			<g>
				<g>
					<path fill="#FFFFFF" d="M6.723,2.039C6.912,2,7.26,1.97,7.596,1.97c0.445,0,0.719,0.054,0.943,0.21
						c0.205,0.122,0.342,0.337,0.342,0.615c0,0.303-0.191,0.581-0.547,0.713v0.01C8.68,3.606,8.998,3.88,8.998,4.334
						c0,0.293-0.127,0.522-0.318,0.679C8.446,5.218,8.061,5.32,7.459,5.32c-0.332,0-0.586-0.024-0.736-0.044V2.039z M7.319,3.338
						h0.307c0.416,0,0.65-0.195,0.65-0.474c0-0.308-0.234-0.449-0.615-0.449c-0.176,0-0.279,0.01-0.342,0.024V3.338z M7.319,4.851
						c0.078,0.01,0.18,0.015,0.316,0.015c0.387,0,0.729-0.146,0.729-0.552c0-0.381-0.332-0.537-0.748-0.537H7.319V4.851z"/>
					<path fill="#FFFFFF" d="M10.866,5.286l-0.039-0.264h-0.015C10.666,5.208,10.417,5.34,10.11,5.34
						c-0.479,0-0.747-0.347-0.747-0.708c0-0.601,0.532-0.903,1.411-0.898V3.694c0-0.156-0.063-0.415-0.483-0.415
						c-0.234,0-0.479,0.073-0.64,0.176L9.533,3.064c0.176-0.107,0.483-0.21,0.859-0.21c0.762,0,0.981,0.483,0.981,1.001v0.859
						c0,0.215,0.01,0.425,0.034,0.571H10.866z M10.788,4.124c-0.425-0.01-0.83,0.083-0.83,0.444c0,0.234,0.151,0.342,0.342,0.342
						c0.239,0,0.415-0.156,0.469-0.327c0.015-0.044,0.02-0.093,0.02-0.132V4.124z"/>
					<path fill="#FFFFFF" d="M13.76,5.213c-0.127,0.059-0.375,0.122-0.674,0.122c-0.742,0-1.225-0.474-1.225-1.211
						c0-0.713,0.488-1.27,1.322-1.27c0.221,0,0.445,0.049,0.582,0.112l-0.107,0.449c-0.098-0.044-0.24-0.093-0.455-0.093
						c-0.459,0-0.732,0.337-0.727,0.771c0,0.488,0.316,0.767,0.727,0.767c0.211,0,0.357-0.044,0.475-0.093L13.76,5.213z"/>
					<path fill="#FFFFFF" d="M14.808,3.953h0.01c0.059-0.093,0.127-0.195,0.19-0.278l0.576-0.767h0.723L15.428,3.88l1.006,1.406
						h-0.737l-0.684-1.05l-0.205,0.239v0.811h-0.601V1.819h0.601V3.953z"/>
					<path fill="#FFFFFF" d="M1.865,8.853L1.581,9.786h-0.62l1.055-3.291h0.767l1.069,3.291H3.207L2.909,8.853H1.865z M2.807,8.399
						L2.548,7.589c-0.063-0.2-0.117-0.425-0.166-0.615h-0.01c-0.049,0.19-0.098,0.42-0.156,0.615L1.962,8.399H2.807z"/>
					<path fill="#FFFFFF" d="M4.144,9.234c0.137,0.083,0.396,0.171,0.61,0.171c0.264,0,0.381-0.107,0.381-0.264
						c0-0.161-0.098-0.244-0.391-0.347C4.281,8.634,4.085,8.38,4.09,8.101c0-0.42,0.347-0.747,0.898-0.747
						c0.264,0,0.493,0.068,0.63,0.142L5.501,7.921C5.399,7.862,5.208,7.784,4.998,7.784c-0.215,0-0.332,0.103-0.332,0.249
						c0,0.151,0.112,0.225,0.415,0.332c0.43,0.156,0.63,0.376,0.635,0.728c0,0.43-0.337,0.742-0.967,0.742
						c-0.288,0-0.547-0.068-0.723-0.166L4.144,9.234z"/>
					<path fill="#FFFFFF" d="M6.114,8.199c0-0.313-0.01-0.566-0.02-0.791h0.527l0.029,0.366h0.01c0.176-0.269,0.455-0.42,0.816-0.42
						c0.547,0,1,0.469,1,1.211c0,0.859-0.541,1.274-1.084,1.274c-0.297,0-0.547-0.127-0.668-0.317h-0.01v1.23H6.114V8.199z
						 M6.715,8.79c0,0.059,0.004,0.112,0.02,0.166c0.059,0.244,0.273,0.42,0.527,0.42c0.381,0,0.605-0.317,0.605-0.786
						c0-0.42-0.205-0.762-0.592-0.762c-0.248,0-0.479,0.181-0.537,0.444C6.725,8.321,6.715,8.375,6.715,8.424V8.79z"/>
					<path fill="#FFFFFF" d="M9.516,6.744c0,0.181-0.132,0.322-0.342,0.322c-0.2,0-0.332-0.142-0.332-0.322
						c0-0.186,0.137-0.327,0.337-0.327C9.384,6.417,9.511,6.558,9.516,6.744z M8.876,9.786V7.408h0.605v2.378H8.876z"/>
					<path fill="#FFFFFF" d="M10.03,8.175c0-0.322-0.004-0.552-0.02-0.767h0.523l0.02,0.454h0.02
						c0.117-0.337,0.395-0.508,0.648-0.508c0.059,0,0.094,0.005,0.143,0.015v0.566c-0.049-0.01-0.104-0.02-0.176-0.02
						c-0.289,0-0.484,0.186-0.537,0.454c-0.01,0.054-0.02,0.117-0.02,0.186v1.23H10.03V8.175z"/>
					<path fill="#FFFFFF" d="M12.967,9.786l-0.039-0.264h-0.016c-0.146,0.186-0.395,0.317-0.703,0.317
						c-0.479,0-0.746-0.347-0.746-0.708c0-0.601,0.531-0.903,1.41-0.898V8.194c0-0.156-0.063-0.415-0.482-0.415
						c-0.234,0-0.479,0.073-0.641,0.176l-0.117-0.391c0.176-0.107,0.484-0.21,0.859-0.21c0.762,0,0.982,0.483,0.982,1.001v0.859
						c0,0.215,0.01,0.425,0.033,0.571H12.967z M12.889,8.624c-0.426-0.01-0.83,0.083-0.83,0.444c0,0.234,0.15,0.342,0.342,0.342
						c0.238,0,0.414-0.156,0.469-0.327c0.014-0.044,0.02-0.093,0.02-0.132V8.624z"/>
					<path fill="#FFFFFF" d="M14.674,6.729v0.679h0.57v0.449h-0.57v1.05c0,0.288,0.078,0.439,0.307,0.439
						c0.104,0,0.182-0.015,0.234-0.029l0.01,0.459c-0.088,0.034-0.244,0.059-0.434,0.059c-0.221,0-0.406-0.073-0.518-0.195
						c-0.127-0.137-0.186-0.352-0.186-0.664V7.857h-0.342V7.408h0.342V6.871L14.674,6.729z"/>
					<path fill="#FFFFFF" d="M16.242,6.744c0,0.181-0.131,0.322-0.342,0.322c-0.199,0-0.332-0.142-0.332-0.322
						c0-0.186,0.137-0.327,0.338-0.327C16.112,6.417,16.239,6.558,16.242,6.744z M15.604,9.786V7.408h0.605v2.378H15.604z"/>
					<path fill="#FFFFFF" d="M19.018,8.575c0,0.874-0.615,1.265-1.221,1.265c-0.674,0-1.191-0.464-1.191-1.226
						c0-0.781,0.513-1.26,1.23-1.26C18.544,7.354,19.018,7.852,19.018,8.575z M17.226,8.599c0,0.459,0.225,0.806,0.591,0.806
						c0.342,0,0.581-0.337,0.581-0.815c0-0.371-0.166-0.796-0.576-0.796C17.397,7.794,17.226,8.204,17.226,8.599z"/>
					<path fill="#FFFFFF" d="M19.416,8.116c0-0.273-0.004-0.503-0.02-0.708h0.527l0.029,0.356h0.016
						c0.102-0.186,0.361-0.41,0.756-0.41c0.416,0,0.846,0.269,0.846,1.021v1.411h-0.602V8.443c0-0.342-0.127-0.601-0.453-0.601
						c-0.24,0-0.406,0.171-0.469,0.352c-0.02,0.054-0.025,0.127-0.025,0.195v1.396h-0.605V8.116z"/>
				</g>
			</g>
		</g>
		<path fill="#FFFFFF" d="M3.259,15.182c-0.047-0.047-0.11-0.074-0.177-0.074s-0.13,0.027-0.177,0.074l-1.549,1.547
			c-0.098,0.098-0.098,0.256,0,0.354c0.097,0.098,0.255,0.1,0.354,0l1.122-1.121v3.314c0,0.139,0.112,0.25,0.25,0.25
			s0.25-0.111,0.25-0.25v-3.314l1.121,1.121c0.049,0.049,0.112,0.074,0.177,0.074c0.063,0,0.128-0.025,0.177-0.074
			c0.098-0.098,0.098-0.256,0-0.354L3.259,15.182z M21.848,17.141l-1.549-1.549c-0.099-0.098-0.257-0.098-0.354,0
			c-0.098,0.098-0.098,0.256,0,0.354l1.122,1.121h-3.366c-0.138,0-0.25,0.111-0.25,0.25s0.112,0.25,0.25,0.25h3.366l-1.122,1.121
			c-0.098,0.098-0.098,0.256,0,0.354c0.049,0.049,0.112,0.074,0.177,0.074c0.063,0,0.128-0.025,0.177-0.074l1.549-1.547
			c0.047-0.047,0.073-0.111,0.073-0.178S21.895,17.188,21.848,17.141z"/>
		<g>
			<path opacity="0.5" fill="#FFFFFF" d="M14.182,17.139c-0.464-0.465-1.093-0.66-1.699-0.605l1.699-1.699
				c0.1-0.1,0.098-0.262-0.001-0.359c-0.831-0.832-2.187-0.832-3.02,0.002c-0.465,0.463-0.661,1.09-0.606,1.697l-1.698-1.697
				c-0.098-0.1-0.26-0.102-0.358,0c-0.833,0.83-0.833,2.186,0.001,3.02c0.464,0.463,1.09,0.658,1.697,0.605l-1.698,1.699
				c-0.1,0.098-0.1,0.26,0,0.357c0.833,0.832,2.188,0.832,3.021,0c0.464-0.465,0.66-1.092,0.605-1.699l1.7,1.699
				c0.098,0.098,0.258,0.1,0.357,0C15.015,19.326,15.015,17.971,14.182,17.139z"/>
			<path fill="#FFFFFF" d="M14.181,17.141c-0.456-0.455-1.103-0.645-1.726-0.584l1.726-1.727c0.047-0.047,0.073-0.109,0.073-0.176
				s-0.026-0.131-0.073-0.178c-0.807-0.805-2.209-0.803-3.016,0c-0.403,0.402-0.626,0.939-0.626,1.51
				c0,0.064,0.014,0.129,0.02,0.193l-1.703-1.703c-0.097-0.096-0.255-0.098-0.354,0c-0.403,0.402-0.626,0.939-0.626,1.508
				c0,0.57,0.223,1.105,0.626,1.51c0.403,0.402,0.938,0.625,1.508,0.625c0.066,0,0.13-0.014,0.195-0.02l-1.703,1.703
				c-0.098,0.098-0.098,0.256,0,0.354c0.402,0.404,0.938,0.627,1.507,0.627c0.57,0,1.106-0.223,1.511-0.627
				c0.465-0.465,0.66-1.094,0.604-1.703l1.703,1.703c0.049,0.049,0.112,0.074,0.177,0.074c0.063,0,0.128-0.025,0.177-0.074
				c0.403-0.402,0.625-0.938,0.625-1.508C14.805,18.08,14.583,17.543,14.181,17.141z M11.519,14.83
				c0.309-0.307,0.719-0.477,1.154-0.477c0.352,0,0.686,0.109,0.964,0.314l-2.281,2.281c-0.205-0.277-0.316-0.611-0.316-0.965
				C11.039,15.549,11.209,15.139,11.519,14.83z M8.856,17.141c-0.31-0.309-0.479-0.719-0.479-1.156c0-0.352,0.111-0.686,0.316-0.965
				l2.282,2.283C10.352,17.762,9.412,17.698,8.856,17.141z M11.166,19.803c-0.559,0.559-1.497,0.623-2.121,0.164l2.283-2.283
				C11.796,18.323,11.742,19.227,11.166,19.803z M13.991,19.614l-2.282-2.283c0.622-0.459,1.562-0.393,2.118,0.164
				c0.309,0.309,0.479,0.719,0.479,1.154C14.306,19,14.196,19.336,13.991,19.614z"/>
		</g>
		<g opacity="0.5">
			<path fill="#FFFFFF" d="M11.341,12.959c2.402,0,4.356,1.955,4.356,4.357s-1.954,4.357-4.356,4.357s-4.356-1.955-4.356-4.357
				S8.939,12.959,11.341,12.959 M11.341,11.959c-2.958,0-5.356,2.398-5.356,5.357s2.398,5.357,5.356,5.357s5.356-2.398,5.356-5.357
				S14.299,11.959,11.341,11.959L11.341,11.959z"/>
		</g>
	</g>
</g>
</svg>
