<?xml version="1.0" encoding="utf-8"?>
<!-- Generator: Adobe Illustrator 16.0.3, SVG Export Plug-In . SVG Version: 6.00 Build 0)  -->
<!DOCTYPE svg PUBLIC "-//W3C//DTD SVG 1.1//EN" "http://www.w3.org/Graphics/SVG/1.1/DTD/svg11.dtd">
<svg version="1.1" xmlns="http://www.w3.org/2000/svg" xmlns:xlink="http://www.w3.org/1999/xlink" x="0px" y="0px" width="22.68px"
	 height="22.68px" viewBox="0 0 22.68 22.68" enable-background="new 0 0 22.68 22.68" xml:space="preserve">
<g id="BCGRND">
</g>
<g id="BAREVNE_POZADI_IKON">
	<rect y="0" fill="#585857" width="22.678" height="22.677"/>
</g>
<g id="IKONY">
	<g>
		<g>
			<g>
				<rect y="7.77" fill="#FFFFFF" width="22.678" height="0.889"/>
				<g>
					<g>
						<path fill="#FFFFFF" d="M3.403,2.327c0.19-0.039,0.537-0.073,0.879-0.073c0.439,0,0.718,0.059,0.938,0.21
							c0.205,0.122,0.342,0.337,0.342,0.62c0,0.303-0.19,0.576-0.547,0.708v0.015c0.347,0.088,0.664,0.361,0.664,0.811
							c0,0.293-0.127,0.522-0.313,0.684c-0.234,0.2-0.62,0.303-1.226,0.303c-0.332,0-0.581-0.024-0.737-0.044V2.327z M3.999,3.626
							h0.308c0.42,0,0.649-0.195,0.649-0.474c0-0.313-0.234-0.454-0.615-0.454c-0.176,0-0.278,0.01-0.342,0.024V3.626z M3.999,5.135
							C4.077,5.149,4.18,5.149,4.316,5.149c0.386,0,0.732-0.142,0.732-0.547c0-0.386-0.337-0.542-0.752-0.542H3.999V5.135z"/>
						<path fill="#FFFFFF" d="M8.529,4.358c0,0.874-0.615,1.265-1.221,1.265c-0.67,0-1.191-0.459-1.191-1.226
							c0-0.781,0.512-1.26,1.23-1.26C8.055,3.137,8.529,3.635,8.529,4.358z M6.736,4.383c0,0.459,0.23,0.806,0.592,0.806
							c0.342,0,0.58-0.332,0.58-0.815c0-0.371-0.166-0.801-0.576-0.801C6.908,3.572,6.736,3.987,6.736,4.383z"/>
						<path fill="#FFFFFF" d="M11.335,4.358c0,0.874-0.615,1.265-1.221,1.265c-0.669,0-1.191-0.459-1.191-1.226
							c0-0.781,0.513-1.26,1.23-1.26C10.861,3.137,11.335,3.635,11.335,4.358z M9.543,4.383c0,0.459,0.229,0.806,0.591,0.806
							c0.342,0,0.581-0.332,0.581-0.815c0-0.371-0.166-0.801-0.576-0.801C9.714,3.572,9.543,3.987,9.543,4.383z"/>
						<path fill="#FFFFFF" d="M11.856,5.012c0.132,0.083,0.391,0.176,0.605,0.176c0.264,0,0.381-0.112,0.381-0.269
							c0-0.161-0.098-0.239-0.391-0.347c-0.464-0.156-0.654-0.41-0.654-0.693c0-0.42,0.347-0.742,0.898-0.742
							c0.264,0,0.493,0.063,0.635,0.142l-0.122,0.42c-0.098-0.059-0.293-0.137-0.503-0.137c-0.215,0-0.332,0.107-0.332,0.254
							c0,0.151,0.112,0.22,0.415,0.332c0.435,0.151,0.63,0.371,0.635,0.723c0,0.435-0.337,0.747-0.967,0.747
							c-0.288,0-0.547-0.068-0.723-0.166L11.856,5.012z"/>
						<path fill="#FFFFFF" d="M14.656,2.581v0.61h0.572V3.64h-0.572v1.05c0,0.293,0.078,0.439,0.309,0.439
							c0.107,0,0.166-0.005,0.234-0.024l0.01,0.454c-0.088,0.034-0.25,0.063-0.436,0.063c-0.225,0-0.404-0.073-0.518-0.195
							c-0.131-0.137-0.189-0.356-0.189-0.669V3.64h-0.338V3.191h0.338V2.747L14.656,2.581z"/>
						<path fill="#FFFFFF" d="M16.129,4.549c0.015,0.43,0.347,0.615,0.732,0.615c0.278,0,0.474-0.044,0.659-0.107l0.088,0.41
							c-0.205,0.088-0.488,0.151-0.83,0.151c-0.771,0-1.226-0.474-1.226-1.201c0-0.659,0.4-1.279,1.162-1.279
							c0.771,0,1.025,0.635,1.025,1.157c0,0.112-0.01,0.2-0.02,0.254H16.129z M17.174,4.129c0.005-0.22-0.093-0.581-0.493-0.581
							c-0.371,0-0.527,0.337-0.552,0.581H17.174z"/>
						<path fill="#FFFFFF" d="M18.275,3.958c0-0.322-0.005-0.557-0.02-0.767h0.518l0.024,0.449h0.015
							c0.117-0.332,0.396-0.503,0.654-0.503c0.059,0,0.093,0.005,0.142,0.015v0.562c-0.054-0.01-0.107-0.015-0.181-0.015
							c-0.283,0-0.483,0.181-0.537,0.454c-0.01,0.054-0.015,0.117-0.015,0.181v1.235h-0.601V3.958z"/>
					</g>
				</g>
			</g>
			<g>
				<g>
					<path fill="#FFFFFF" d="M7.469,19.732v-1l1.026-0.947c2.04-1.894,3.001-2.934,3.015-4.081c0-0.773-0.414-1.453-1.547-1.453
						c-0.773,0-1.414,0.387-1.854,0.72l-0.479-1.16c0.627-0.507,1.573-0.894,2.667-0.894c1.921,0,2.854,1.214,2.854,2.627
						c0,1.521-1.094,2.748-2.615,4.148l-0.746,0.653v0.026h3.547v1.36H7.469z"/>
				</g>
				<g>
					<path fill="#FFFFFF" d="M15.892,14.139l-0.271-0.542c-0.111-0.208-0.182-0.364-0.267-0.537h-0.009
						c-0.063,0.173-0.138,0.329-0.235,0.537l-0.244,0.542h-0.772l0.865-1.514l-0.834-1.479h0.777l0.262,0.547
						c0.088,0.182,0.154,0.328,0.227,0.497h0.008c0.072-0.191,0.129-0.324,0.205-0.497l0.253-0.547h0.772l-0.844,1.461l0.889,1.532
						H15.892z"/>
				</g>
			</g>
		</g>
	</g>
</g>
</svg>
