<?xml version="1.0" encoding="utf-8"?>
<!-- Generator: Adobe Illustrator 16.0.3, SVG Export Plug-In . SVG Version: 6.00 Build 0)  -->
<!DOCTYPE svg PUBLIC "-//W3C//DTD SVG 1.1//EN" "http://www.w3.org/Graphics/SVG/1.1/DTD/svg11.dtd">
<svg version="1.1" xmlns="http://www.w3.org/2000/svg" xmlns:xlink="http://www.w3.org/1999/xlink" x="0px" y="0px" width="22.68px"
	 height="22.68px" viewBox="0 0 22.68 22.68" enable-background="new 0 0 22.68 22.68" xml:space="preserve">
<g id="BCGRND">
</g>
<g id="BAREVNE_POZADI_IKON">
	<rect x="0" y="0" fill="#585857" width="22.678" height="22.677"/>
</g>
<g id="IKONY">
	<g>
		<g>
			<g>
				<rect x="0" y="7.77" fill="#FFFFFF" width="22.678" height="0.889"/>
				<g>
					<g>
						<path fill="#FFFFFF" d="M3.403,2.327C3.594,2.288,3.94,2.254,4.281,2.254c0.439,0,0.719,0.059,0.938,0.21
							c0.205,0.122,0.342,0.337,0.342,0.62c0,0.303-0.189,0.576-0.547,0.708v0.015c0.348,0.088,0.664,0.361,0.664,0.811
							c0,0.293-0.127,0.522-0.313,0.684c-0.234,0.2-0.619,0.303-1.225,0.303c-0.332,0-0.582-0.024-0.738-0.044V2.327z M3.998,3.626
							h0.309c0.42,0,0.648-0.195,0.648-0.474c0-0.313-0.234-0.454-0.615-0.454c-0.176,0-0.277,0.01-0.342,0.024V3.626z M3.998,5.135
							C4.076,5.149,4.18,5.149,4.317,5.149c0.385,0,0.732-0.142,0.732-0.547c0-0.386-0.338-0.542-0.752-0.542H3.998V5.135z"/>
						<path fill="#FFFFFF" d="M8.529,4.358c0,0.874-0.615,1.265-1.221,1.265c-0.669,0-1.191-0.459-1.191-1.226
							c0-0.781,0.513-1.26,1.23-1.26C8.055,3.137,8.529,3.635,8.529,4.358z M6.737,4.383c0,0.459,0.229,0.806,0.591,0.806
							c0.342,0,0.581-0.332,0.581-0.815c0-0.371-0.166-0.801-0.576-0.801C6.907,3.572,6.737,3.987,6.737,4.383z"/>
						<path fill="#FFFFFF" d="M11.334,4.358c0,0.874-0.615,1.265-1.221,1.265c-0.668,0-1.191-0.459-1.191-1.226
							c0-0.781,0.514-1.26,1.23-1.26C10.862,3.137,11.334,3.635,11.334,4.358z M9.543,4.383c0,0.459,0.229,0.806,0.59,0.806
							c0.342,0,0.582-0.332,0.582-0.815c0-0.371-0.166-0.801-0.576-0.801C9.713,3.572,9.543,3.987,9.543,4.383z"/>
						<path fill="#FFFFFF" d="M11.856,5.012c0.133,0.083,0.391,0.176,0.605,0.176c0.264,0,0.381-0.112,0.381-0.269
							c0-0.161-0.098-0.239-0.391-0.347c-0.463-0.156-0.654-0.41-0.654-0.693c0-0.42,0.348-0.742,0.898-0.742
							c0.264,0,0.494,0.063,0.635,0.142l-0.121,0.42c-0.098-0.059-0.293-0.137-0.504-0.137c-0.215,0-0.332,0.107-0.332,0.254
							c0,0.151,0.113,0.22,0.416,0.332c0.434,0.151,0.629,0.371,0.635,0.723c0,0.435-0.338,0.747-0.967,0.747
							c-0.289,0-0.547-0.068-0.723-0.166L11.856,5.012z"/>
						<path fill="#FFFFFF" d="M14.656,2.581v0.61h0.571V3.64h-0.571v1.05c0,0.293,0.078,0.439,0.308,0.439
							c0.107,0,0.166-0.005,0.234-0.024l0.01,0.454c-0.088,0.034-0.249,0.063-0.435,0.063c-0.225,0-0.405-0.073-0.518-0.195
							c-0.132-0.137-0.19-0.356-0.19-0.669V3.64h-0.337V3.191h0.337V2.747L14.656,2.581z"/>
						<path fill="#FFFFFF" d="M16.129,4.549c0.014,0.43,0.346,0.615,0.732,0.615c0.277,0,0.473-0.044,0.658-0.107l0.088,0.41
							c-0.205,0.088-0.488,0.151-0.83,0.151c-0.771,0-1.225-0.474-1.225-1.201c0-0.659,0.4-1.279,1.162-1.279
							c0.771,0,1.025,0.635,1.025,1.157c0,0.112-0.01,0.2-0.02,0.254H16.129z M17.174,4.129c0.004-0.22-0.094-0.581-0.494-0.581
							c-0.371,0-0.527,0.337-0.551,0.581H17.174z"/>
						<path fill="#FFFFFF" d="M18.276,3.958c0-0.322-0.006-0.557-0.02-0.767h0.518l0.023,0.449h0.016
							c0.117-0.332,0.395-0.503,0.654-0.503c0.059,0,0.092,0.005,0.141,0.015v0.562c-0.053-0.01-0.107-0.015-0.18-0.015
							c-0.283,0-0.484,0.181-0.537,0.454c-0.01,0.054-0.016,0.117-0.016,0.181v1.235h-0.6V3.958z"/>
					</g>
				</g>
			</g>
			<g>
				<g>
					<path fill="#FFFFFF" d="M8.084,18.039c0.334,0.2,1.147,0.533,1.975,0.533c1.254,0,1.746-0.707,1.746-1.387
						c0-1.027-0.973-1.468-1.973-1.468H9.085v-1.2h0.747c0.746,0,1.707-0.347,1.707-1.2c0-0.6-0.428-1.093-1.387-1.093
						c-0.707,0-1.414,0.307-1.774,0.546l-0.374-1.187c0.494-0.333,1.468-0.667,2.494-0.667c1.801,0,2.707,0.987,2.707,2.121
						c0,0.906-0.533,1.653-1.6,2.026v0.027c1.053,0.199,1.894,0.986,1.906,2.16c0,1.467-1.227,2.627-3.373,2.627
						c-1.054,0-1.961-0.293-2.428-0.6L8.084,18.039z"/>
				</g>
				<g>
					<path fill="#FFFFFF" d="M15.891,14.139l-0.27-0.542c-0.111-0.208-0.183-0.364-0.268-0.537h-0.008
						c-0.063,0.173-0.139,0.329-0.236,0.537l-0.244,0.542h-0.771l0.865-1.514l-0.835-1.479h0.777l0.262,0.547
						c0.089,0.182,0.155,0.328,0.227,0.497h0.009c0.071-0.191,0.129-0.324,0.204-0.497l0.253-0.547h0.773l-0.844,1.461l0.888,1.532
						H15.891z"/>
				</g>
			</g>
		</g>
	</g>
</g>
</svg>
