<?xml version="1.0" encoding="utf-8"?>
<!-- Generator: Adobe Illustrator 16.0.3, SVG Export Plug-In . SVG Version: 6.00 Build 0)  -->
<!DOCTYPE svg PUBLIC "-//W3C//DTD SVG 1.1//EN" "http://www.w3.org/Graphics/SVG/1.1/DTD/svg11.dtd">
<svg version="1.1" xmlns="http://www.w3.org/2000/svg" xmlns:xlink="http://www.w3.org/1999/xlink" x="0px" y="0px" width="22.68px"
	 height="22.68px" viewBox="0 0 22.68 22.68" enable-background="new 0 0 22.68 22.68" xml:space="preserve">
<g id="BCGRND">
</g>
<g id="BAREVNE_POZADI_IKON">
	<rect y="0" fill="#585857" width="22.676" height="22.678"/>
</g>
<g id="IKONY">
	<g>
		<g>
			<g>
				<rect x="0.001" y="7.77" fill="#FFFFFF" width="22.678" height="0.889"/>
			</g>
			<g>
				<path fill="#FFFFFF" d="M3.405,2.328c0.19-0.039,0.537-0.074,0.879-0.074c0.439,0,0.718,0.059,0.938,0.211
					c0.205,0.121,0.342,0.336,0.342,0.619c0,0.303-0.19,0.576-0.547,0.709v0.014c0.347,0.088,0.664,0.361,0.664,0.811
					c0,0.293-0.127,0.523-0.313,0.684c-0.234,0.201-0.62,0.303-1.226,0.303c-0.332,0-0.581-0.023-0.737-0.043V2.328z M4.001,3.627
					h0.308c0.42,0,0.649-0.195,0.649-0.475c0-0.313-0.234-0.453-0.615-0.453c-0.176,0-0.278,0.01-0.342,0.023V3.627z M4.001,5.135
					c0.078,0.016,0.181,0.016,0.317,0.016c0.386,0,0.732-0.143,0.732-0.547c0-0.387-0.337-0.543-0.752-0.543H4.001V5.135z"/>
				<path fill="#FFFFFF" d="M8.531,4.36c0,0.873-0.615,1.264-1.221,1.264c-0.669,0-1.191-0.459-1.191-1.225
					c0-0.781,0.513-1.26,1.23-1.26C8.057,3.139,8.531,3.637,8.531,4.36z M6.739,4.383c0,0.459,0.229,0.807,0.591,0.807
					c0.342,0,0.581-0.332,0.581-0.816c0-0.371-0.166-0.801-0.576-0.801C6.91,3.573,6.739,3.989,6.739,4.383z"/>
				<path fill="#FFFFFF" d="M11.337,4.36c0,0.873-0.615,1.264-1.221,1.264c-0.669,0-1.191-0.459-1.191-1.225
					c0-0.781,0.513-1.26,1.23-1.26C10.863,3.139,11.337,3.637,11.337,4.36z M9.545,4.383c0,0.459,0.229,0.807,0.591,0.807
					c0.342,0,0.581-0.332,0.581-0.816c0-0.371-0.166-0.801-0.576-0.801C9.716,3.573,9.545,3.989,9.545,4.383z"/>
				<path fill="#FFFFFF" d="M11.858,5.014c0.132,0.082,0.391,0.176,0.605,0.176c0.264,0,0.381-0.113,0.381-0.27
					c0-0.16-0.098-0.238-0.391-0.346C11.99,4.418,11.8,4.164,11.8,3.881c0-0.42,0.347-0.742,0.898-0.742
					c0.264,0,0.493,0.063,0.635,0.141l-0.122,0.42c-0.098-0.059-0.293-0.137-0.503-0.137c-0.215,0-0.332,0.107-0.332,0.254
					c0,0.152,0.112,0.221,0.415,0.332c0.435,0.152,0.63,0.371,0.635,0.723c0,0.436-0.337,0.748-0.967,0.748
					c-0.288,0-0.547-0.068-0.723-0.166L11.858,5.014z"/>
				<path fill="#FFFFFF" d="M14.659,2.582v0.609h0.571v0.449h-0.571v1.051c0,0.293,0.078,0.439,0.308,0.439
					c0.107,0,0.166-0.006,0.234-0.025l0.01,0.455c-0.088,0.033-0.249,0.063-0.435,0.063c-0.225,0-0.405-0.072-0.518-0.195
					c-0.132-0.137-0.19-0.355-0.19-0.668V3.641h-0.337V3.192h0.337V2.748L14.659,2.582z"/>
				<path fill="#FFFFFF" d="M16.131,4.549c0.015,0.43,0.347,0.615,0.732,0.615c0.278,0,0.474-0.043,0.659-0.107l0.088,0.41
					c-0.205,0.088-0.488,0.152-0.83,0.152c-0.771,0-1.226-0.475-1.226-1.201c0-0.66,0.4-1.279,1.162-1.279
					c0.771,0,1.025,0.635,1.025,1.156c0,0.113-0.01,0.201-0.02,0.254H16.131z M17.176,4.129c0.005-0.219-0.093-0.58-0.493-0.58
					c-0.371,0-0.527,0.336-0.552,0.58H17.176z"/>
				<path fill="#FFFFFF" d="M18.277,3.959c0-0.322-0.005-0.557-0.02-0.768h0.518L18.8,3.641h0.015
					c0.117-0.332,0.396-0.502,0.654-0.502c0.059,0,0.093,0.004,0.142,0.014v0.563c-0.054-0.01-0.107-0.016-0.181-0.016
					c-0.283,0-0.483,0.182-0.537,0.455c-0.01,0.053-0.015,0.117-0.015,0.18v1.236h-0.601V3.959z"/>
			</g>
			<g>
				<path fill="#FFFFFF" d="M11.084,19.733v-2.199H7.15v-1.068l3.547-5.4h1.934v5.229h1.121v1.24h-1.121v2.199H11.084z
					 M11.084,16.293v-2.361c0-0.494,0.027-0.986,0.053-1.508h-0.053c-0.267,0.547-0.493,0.988-0.76,1.469l-1.6,2.373v0.027H11.084z"
					/>
			</g>
			<g>
				<path fill="#FFFFFF" d="M15.894,14.139l-0.271-0.543c-0.111-0.207-0.182-0.363-0.267-0.537h-0.009
					c-0.062,0.174-0.138,0.33-0.235,0.537l-0.244,0.543h-0.772l0.866-1.514l-0.835-1.48h0.777l0.262,0.547
					c0.089,0.182,0.155,0.328,0.227,0.498h0.009c0.071-0.191,0.129-0.324,0.204-0.498l0.253-0.547h0.772l-0.844,1.461l0.888,1.533
					H15.894z"/>
			</g>
		</g>
	</g>
</g>
</svg>
