<?xml version="1.0" encoding="utf-8"?>
<!-- Generator: Adobe Illustrator 16.0.3, SVG Export Plug-In . SVG Version: 6.00 Build 0)  -->
<!DOCTYPE svg PUBLIC "-//W3C//DTD SVG 1.1//EN" "http://www.w3.org/Graphics/SVG/1.1/DTD/svg11.dtd">
<svg version="1.1" xmlns="http://www.w3.org/2000/svg" xmlns:xlink="http://www.w3.org/1999/xlink" x="0px" y="0px" width="22.68px"
	 height="22.68px" viewBox="0 0 22.68 22.68" enable-background="new 0 0 22.68 22.68" xml:space="preserve">
<g id="BCGRND">
</g>
<g id="BAREVNE_BCGRND">
	<polygon fill="#585857" points="22.68,16.335 22.68,0 0.002,0 0.002,22.678 14.119,22.678 22.68,22.678 	"/>
</g>
<g id="IKONY">
	<g>
		<g>
			<rect x="0.002" y="7.769" fill="#FFFFFF" width="22.678" height="0.889"/>
			<g>
				<g>
					<path fill="#FFFFFF" d="M3.995,5.47C3.852,5.543,3.54,5.622,3.145,5.622c-1.045,0-1.68-0.659-1.68-1.66
						c0-1.084,0.752-1.738,1.758-1.738c0.395,0,0.678,0.083,0.801,0.146L3.891,2.848C3.735,2.78,3.52,2.721,3.247,2.721
						c-0.668,0-1.152,0.42-1.152,1.211c0,0.723,0.426,1.187,1.148,1.187c0.244,0,0.498-0.049,0.654-0.122L3.995,5.47z"/>
					<path fill="#FFFFFF" d="M6.288,4.997c0,0.215,0.01,0.425,0.034,0.571H5.78L5.741,5.304H5.726
						C5.58,5.49,5.331,5.622,5.023,5.622c-0.479,0-0.747-0.347-0.747-0.708c0-0.601,0.532-0.903,1.411-0.898V3.976
						c0-0.156-0.063-0.415-0.483-0.415c-0.234,0-0.479,0.073-0.64,0.176L4.447,3.346c0.176-0.107,0.483-0.21,0.859-0.21
						c0.762,0,0.981,0.483,0.981,1.001V4.997z M5.702,4.406c-0.425-0.01-0.83,0.083-0.83,0.444c0,0.234,0.151,0.342,0.342,0.342
						c0.239,0,0.415-0.156,0.469-0.327c0.015-0.044,0.02-0.093,0.02-0.132V4.406z"/>
					<path fill="#FFFFFF" d="M6.897,5.016c0.137,0.083,0.395,0.171,0.609,0.171c0.264,0,0.381-0.107,0.381-0.264
						c0-0.161-0.098-0.244-0.391-0.347C7.034,4.416,6.839,4.162,6.843,3.883c0-0.42,0.348-0.747,0.898-0.747
						c0.264,0,0.494,0.068,0.631,0.142L8.255,3.703C8.151,3.644,7.962,3.566,7.751,3.566c-0.215,0-0.332,0.103-0.332,0.249
						c0,0.151,0.113,0.225,0.416,0.332c0.43,0.156,0.629,0.376,0.635,0.728c0,0.43-0.338,0.747-0.967,0.747
						c-0.289,0-0.547-0.073-0.723-0.171L6.897,5.016z"/>
					<path fill="#FFFFFF" d="M8.965,2.101H9.57v1.416h0.01c0.073-0.112,0.176-0.21,0.298-0.273c0.117-0.068,0.259-0.107,0.41-0.107
						c0.405,0,0.83,0.269,0.83,1.03v1.401h-0.601V4.235c0-0.347-0.127-0.605-0.459-0.605c-0.234,0-0.4,0.156-0.464,0.337
						C9.575,4.015,9.57,4.079,9.57,4.147v1.421H8.965V2.101z"/>
					<path fill="#FFFFFF" d="M11.76,2.101h0.602v1.416h0.01c0.146-0.229,0.404-0.381,0.762-0.381c0.58,0,0.996,0.483,0.99,1.206
						c0,0.854-0.541,1.279-1.078,1.279c-0.309,0-0.582-0.117-0.752-0.41h-0.01l-0.029,0.356h-0.514
						c0.01-0.161,0.02-0.425,0.02-0.669V2.101z M12.362,4.586c0,0.049,0.004,0.098,0.014,0.142c0.064,0.239,0.273,0.42,0.533,0.42
						c0.375,0,0.605-0.303,0.605-0.781c0-0.42-0.201-0.762-0.602-0.762c-0.244,0-0.463,0.176-0.531,0.439
						c-0.01,0.044-0.02,0.098-0.02,0.156V4.586z"/>
					<path fill="#FFFFFF" d="M16.467,4.997c0,0.215,0.01,0.425,0.034,0.571h-0.542L15.92,5.304h-0.015
						c-0.146,0.186-0.396,0.317-0.703,0.317c-0.479,0-0.747-0.347-0.747-0.708c0-0.601,0.532-0.903,1.411-0.898V3.976
						c0-0.156-0.063-0.415-0.483-0.415c-0.234,0-0.479,0.073-0.64,0.176l-0.117-0.391c0.176-0.107,0.483-0.21,0.859-0.21
						c0.762,0,0.981,0.483,0.981,1.001V4.997z M15.881,4.406c-0.425-0.01-0.83,0.083-0.83,0.444c0,0.234,0.151,0.342,0.342,0.342
						c0.239,0,0.415-0.156,0.469-0.327c0.015-0.044,0.02-0.093,0.02-0.132V4.406z"/>
					<path fill="#FFFFFF" d="M18.852,5.495c-0.127,0.059-0.375,0.127-0.674,0.127c-0.742,0-1.225-0.479-1.225-1.216
						c0-0.713,0.488-1.27,1.322-1.27c0.221,0,0.445,0.049,0.582,0.112l-0.107,0.449c-0.098-0.044-0.24-0.093-0.455-0.093
						c-0.459,0-0.732,0.337-0.727,0.771c0,0.488,0.316,0.767,0.727,0.767c0.211,0,0.357-0.044,0.475-0.093L18.852,5.495z"/>
					<path fill="#FFFFFF" d="M19.9,4.235h0.01c0.059-0.093,0.127-0.195,0.19-0.278l0.576-0.767h0.723L20.52,4.162l1.006,1.406
						h-0.737l-0.684-1.05L19.9,4.757v0.811H19.3V2.101H19.9V4.235z"/>
				</g>
			</g>
			<path fill="#FFFFFF" d="M16.47,20.26l-1.301,2.25l-0.399-0.7c-2.311,1.17-5.061,1.08-7.28-0.27c-0.87-0.53-1.6-1.21-2.16-1.99
				c-0.26-0.36-0.489-0.74-0.68-1.14h1.14c0.23,0.41,0.511,0.79,0.841,1.14c0.39,0.43,0.859,0.81,1.38,1.13
				c1.899,1.16,4.27,1.25,6.26,0.26l-0.39-0.68H16.47z"/>
			<path opacity="0.5" fill="#FFFFFF" d="M15.92,10.59H6.81c-0.33,0.33-0.641,0.71-0.9,1.13h10.92
				C16.57,11.311,16.27,10.93,15.92,10.59z M3.747,18.41c0-0.64-0.511-1.15-1.15-1.15v-4.38c0.64,0,1.15-0.52,1.15-1.16H4.76
				C4.83,11.57,4.91,11.43,5,11.291c0.15-0.25,0.311-0.48,0.49-0.7H1.467v8.96H5.33c-0.26-0.36-0.489-0.74-0.68-1.14H3.747z
				 M15.92,10.59H6.81c-0.33,0.33-0.641,0.71-0.9,1.13h10.92C16.57,11.311,16.27,10.93,15.92,10.59z M17.26,10.59
				c0.279,0.35,0.52,0.73,0.72,1.13h1.094c0,0.64,0.52,1.16,1.16,1.16v4.38c-0.641,0-1.16,0.51-1.16,1.15H5.79
				c0.23,0.41,0.511,0.79,0.841,1.14h14.733v-8.96H17.26z M15.92,10.59H6.81c-0.33,0.33-0.641,0.71-0.9,1.13h10.92
				C16.57,11.311,16.27,10.93,15.92,10.59z M15.92,10.59H6.81c-0.33,0.33-0.641,0.71-0.9,1.13h10.92
				C16.57,11.311,16.27,10.93,15.92,10.59z M15.92,10.59H6.81c-0.33,0.33-0.641,0.71-0.9,1.13h10.92
				C16.57,11.311,16.27,10.93,15.92,10.59z"/>
			<path fill="#FFFFFF" d="M17.983,11.718h-1.15c-0.26-0.41-0.56-0.79-0.91-1.13c-0.35-0.36-0.75-0.67-1.189-0.94
				c-2.59-1.57-5.85-1.11-7.92,0.94c-0.33,0.33-0.641,0.71-0.9,1.13H4.763c0.069-0.15,0.149-0.29,0.239-0.43
				c0.15-0.25,0.311-0.48,0.49-0.7c0.851-1.09,1.96-1.9,3.19-2.37h5.39c0.41,0.15,0.8,0.35,1.18,0.58
				c0.79,0.48,1.46,1.09,2.011,1.79C17.543,10.938,17.783,11.318,17.983,11.718z"/>
			<path fill="#FFFFFF" d="M4.166,14.136h-0.01l-0.605,0.288l-0.122-0.557l0.84-0.391h0.615v3.174H4.166V14.136z"/>
			<path fill="#FFFFFF" d="M7.513,14.087h-1.23l-0.068,0.488c0.068-0.01,0.127-0.01,0.205-0.01c0.303,0,0.61,0.068,0.835,0.229
				c0.239,0.161,0.386,0.425,0.386,0.796c0,0.591-0.508,1.113-1.362,1.113c-0.386,0-0.708-0.088-0.884-0.181l0.132-0.557
				c0.142,0.068,0.43,0.156,0.718,0.156c0.308,0,0.635-0.146,0.635-0.483c0-0.327-0.259-0.527-0.894-0.527
				c-0.176,0-0.298,0.01-0.43,0.029l0.21-1.665h1.748V14.087z"/>
			<path fill="#FFFFFF" d="M10.5,15.049c0,0.981-0.396,1.655-1.206,1.655c-0.82,0-1.182-0.737-1.187-1.636
				c0-0.918,0.391-1.646,1.211-1.646C10.168,13.423,10.5,14.18,10.5,15.049z M8.854,15.068c-0.005,0.728,0.171,1.074,0.459,1.074
				s0.444-0.361,0.444-1.084c0-0.703-0.151-1.074-0.449-1.074C9.035,13.984,8.849,14.331,8.854,15.068z"/>
			<path fill="#FFFFFF" d="M13.36,15.049c0,0.981-0.396,1.655-1.206,1.655c-0.82,0-1.182-0.737-1.187-1.636
				c0-0.918,0.391-1.646,1.211-1.646C13.028,13.423,13.36,14.18,13.36,15.049z M11.715,15.068c-0.005,0.728,0.171,1.074,0.459,1.074
				s0.444-0.361,0.444-1.084c0-0.703-0.151-1.074-0.449-1.074C11.895,13.984,11.71,14.331,11.715,15.068z"/>
			<path fill="#FFFFFF" d="M14.541,13.359h0.737v1.455h0.015c0.073-0.127,0.151-0.244,0.225-0.361l0.747-1.094h0.913l-1.089,1.401
				l1.147,1.89h-0.869l-0.806-1.421l-0.283,0.347v1.074h-0.737V13.359z"/>
			<path fill="#FFFFFF" d="M19.178,16.592c-0.132,0.059-0.381,0.112-0.664,0.112c-0.771,0-1.265-0.474-1.265-1.226
				c0-0.698,0.479-1.27,1.367-1.27c0.195,0,0.41,0.034,0.566,0.093l-0.117,0.552c-0.088-0.039-0.22-0.073-0.415-0.073
				c-0.391,0-0.645,0.278-0.64,0.669c0,0.439,0.293,0.669,0.654,0.669c0.176,0,0.313-0.029,0.425-0.078L19.178,16.592z
				 M18.148,13.965l-0.483-0.742h0.483l0.249,0.425h0.01l0.244-0.425h0.488l-0.488,0.742H18.148z"/>
		</g>
	</g>
</g>
</svg>
