<?xml version="1.0" encoding="utf-8"?>
<!-- Generator: Adobe Illustrator 16.0.3, SVG Export Plug-In . SVG Version: 6.00 Build 0)  -->
<!DOCTYPE svg PUBLIC "-//W3C//DTD SVG 1.1//EN" "http://www.w3.org/Graphics/SVG/1.1/DTD/svg11.dtd">
<svg version="1.1" xmlns="http://www.w3.org/2000/svg" xmlns:xlink="http://www.w3.org/1999/xlink" x="0px" y="0px" width="22.68px"
	 height="22.68px" viewBox="0 0 22.68 22.68" enable-background="new 0 0 22.68 22.68" xml:space="preserve">
<g id="BCGRND">
</g>
<g id="IKONY">
	<rect x="0.001" fill="#585857" width="22.676" height="22.678"/>
	<g>
		<path fill="#FFFFFF" d="M4.673,5.193C4.531,5.262,4.219,5.34,3.819,5.34c-1.045,0-1.68-0.654-1.68-1.66
			c0-1.084,0.757-1.738,1.763-1.738c0.396,0,0.674,0.084,0.796,0.146L4.571,2.566C4.414,2.498,4.195,2.439,3.926,2.439
			c-0.669,0-1.152,0.42-1.152,1.211c0,0.729,0.42,1.188,1.147,1.188c0.239,0,0.493-0.049,0.654-0.117L4.673,5.193z"/>
		<path fill="#FFFFFF" d="M5.248,1.82h0.601v1.41h0.01c0.073-0.111,0.176-0.205,0.298-0.268C6.279,2.895,6.42,2.855,6.572,2.855
			c0.405,0,0.83,0.268,0.83,1.029v1.402H6.801V3.949c0-0.342-0.127-0.605-0.459-0.605c-0.234,0-0.4,0.156-0.469,0.336
			c-0.02,0.055-0.024,0.117-0.024,0.182v1.426H5.248V1.82z"/>
		<path fill="#FFFFFF" d="M8.142,1.82h0.602v3.467H8.142V1.82z"/>
		<path fill="#FFFFFF" d="M11.343,4.715c0,0.215,0.01,0.426,0.039,0.572h-0.543l-0.043-0.264h-0.016
			C10.64,5.209,10.39,5.34,10.077,5.34c-0.479,0-0.746-0.346-0.746-0.707c0-0.596,0.531-0.904,1.41-0.898V3.695
			c0-0.156-0.063-0.416-0.482-0.416c-0.234,0-0.479,0.074-0.641,0.176L9.501,3.064c0.176-0.107,0.484-0.209,0.859-0.209
			c0.762,0,0.982,0.482,0.982,1.006V4.715z M10.757,4.125c-0.426-0.006-0.83,0.082-0.83,0.443c0,0.234,0.15,0.342,0.342,0.342
			c0.244,0,0.414-0.156,0.473-0.326c0.016-0.045,0.016-0.088,0.016-0.133V4.125z"/>
		<path fill="#FFFFFF" d="M11.853,4.939l0.895-1.143c0.121-0.146,0.225-0.264,0.346-0.4v-0.01h-1.152V2.908h1.885v0.367
			l-0.869,1.117c-0.117,0.143-0.229,0.279-0.352,0.406v0.01h1.25v0.479h-2.002V4.939z"/>
		<path fill="#FFFFFF" d="M14.767,4.266c0.014,0.43,0.346,0.615,0.732,0.615c0.277,0,0.473-0.043,0.658-0.107l0.088,0.41
			c-0.205,0.088-0.488,0.152-0.83,0.152c-0.771,0-1.225-0.475-1.225-1.201c0-0.66,0.4-1.279,1.162-1.279
			c0.771,0,1.025,0.635,1.025,1.156c0,0.113-0.01,0.201-0.02,0.254H14.767z M15.812,3.846c0.004-0.219-0.094-0.58-0.494-0.58
			c-0.371,0-0.527,0.336-0.551,0.58H15.812z"/>
		<path fill="#FFFFFF" d="M16.962,3.617c0-0.273-0.01-0.504-0.02-0.709h0.522l0.029,0.357h0.015c0.107-0.186,0.366-0.41,0.762-0.41
			c0.415,0,0.845,0.268,0.845,1.02v1.412h-0.601V3.943c0-0.342-0.127-0.6-0.454-0.6c-0.239,0-0.405,0.17-0.469,0.352
			c-0.02,0.049-0.029,0.121-0.029,0.189v1.402h-0.601V3.617z"/>
		<path fill="#FFFFFF" d="M19.857,5.287V2.908h0.6v2.379H19.857z M20.892,1.879l-0.596,0.723H19.88l0.42-0.723H20.892z"/>
		<path fill="#FFFFFF" d="M7.005,6.32v2.797c0,0.244,0.01,0.508,0.02,0.67H6.492L6.463,9.41h-0.01
			c-0.142,0.264-0.43,0.43-0.771,0.43c-0.571,0-1.021-0.482-1.021-1.215c-0.005-0.797,0.493-1.27,1.064-1.27
			c0.327,0,0.562,0.131,0.669,0.307h0.01V6.32H7.005z M6.405,8.4c0-0.049-0.005-0.113-0.015-0.162
			c-0.054-0.229-0.244-0.42-0.518-0.42c-0.386,0-0.601,0.342-0.601,0.781s0.215,0.758,0.596,0.758c0.244,0,0.459-0.166,0.518-0.426
			C6.4,8.879,6.405,8.82,6.405,8.756V8.4z"/>
		<path fill="#FFFFFF" d="M8.132,7.408l0.386,1.207c0.068,0.209,0.117,0.4,0.161,0.596h0.015C8.738,9.016,8.791,8.83,8.855,8.615
			l0.381-1.207h0.63L8.957,9.787H8.366L7.483,7.408H8.132z"/>
		<path fill="#FFFFFF" d="M10.332,9.787V7.408h0.601v2.379H10.332z M11.367,6.379l-0.596,0.723h-0.415l0.42-0.723H11.367z"/>
		<path fill="#FFFFFF" d="M12.092,7.102l-0.479-0.723h0.415l0.259,0.443h0.01l0.273-0.443h0.41l-0.479,0.723H12.092z M11.682,8.176
			c0-0.322-0.005-0.557-0.02-0.768h0.518l0.024,0.449h0.015c0.117-0.332,0.396-0.502,0.654-0.502c0.059,0,0.093,0.004,0.142,0.014
			v0.563c-0.054-0.01-0.107-0.016-0.181-0.016c-0.283,0-0.483,0.182-0.537,0.455c-0.01,0.053-0.015,0.117-0.015,0.18v1.236h-0.601
			V8.176z"/>
		<path fill="#FFFFFF" d="M13.901,8.766c0.015,0.43,0.347,0.615,0.732,0.615c0.278,0,0.474-0.043,0.659-0.107l0.088,0.41
			c-0.205,0.088-0.488,0.152-0.83,0.152c-0.771,0-1.226-0.475-1.226-1.201c0-0.66,0.4-1.279,1.162-1.279
			c0.771,0,1.025,0.635,1.025,1.156c0,0.113-0.01,0.201-0.02,0.254H13.901z M14.946,8.346c0.005-0.219-0.093-0.58-0.493-0.58
			c-0.371,0-0.527,0.336-0.552,0.58H14.946z"/>
		<path fill="#FFFFFF" d="M16.697,8.453h0.01c0.059-0.092,0.127-0.195,0.186-0.277l0.582-0.768h0.723l-0.885,0.973l1.006,1.406
			h-0.736l-0.684-1.051l-0.201,0.24v0.811h-0.6V6.32h0.6V8.453z"/>
	</g>
	<path fill="#FFFFFF" d="M22.68,11.956H0.002v0.889h4.043v5.866c0,1.058,0.859,1.918,1.918,1.918h10.756
		c1.057,0,1.918-0.86,1.918-1.918v-5.866h4.043V11.956z M8.772,19.173c-0.178,0.227-0.494,0.356-0.658,0.404
		c-0.262,0.077-0.471,0.107-0.73,0.118s-0.387,0.03-0.67-0.008c-0.262-0.034-0.465-0.092-0.768-0.192
		c-0.33-0.109-0.617-0.299-0.617-0.299s0.402,0.146,1.063,0.189c0.529,0.034,0.898-0.061,0.988-0.084
		c0.045-0.013,0.266-0.08,0.314-0.102c0.09-0.044,0.182-0.096,0.252-0.138c0.18-0.104,0.283-0.222,0.395-0.401
		c0.154-0.289,0.107-0.719,0.006-0.891c-0.102-0.17-0.313-0.314-0.484-0.371c-0.176-0.059-0.342-0.044-0.494,0.013
		c-0.15,0.053-0.287,0.156-0.365,0.267c-0.078,0.107-0.088,0.225-0.068,0.293c0.035,0.133,0.143,0.227,0.23,0.266
		c0.082,0.039,0.197,0.025,0.293-0.014c0.096-0.037,0.172-0.086,0.223-0.119c0.053-0.035,0.123,0.018,0.094,0.078
		c-0.031,0.061-0.078,0.148-0.174,0.246c-0.09,0.094-0.248,0.211-0.492,0.211c-0.238-0.005-0.479-0.155-0.629-0.348
		c-0.207-0.266-0.213-0.638-0.068-0.932c0.137-0.295,0.398-0.549,0.715-0.665c0.316-0.114,0.777-0.173,1.078-0.01
		c0.385,0.208,0.508,0.269,0.758,0.688c0.162,0.274,0.174,0.676,0.16,0.984C9.106,18.668,8.951,18.946,8.772,19.173z M8.926,15.279
		c-0.135,0.254-0.424,0.437-0.578,0.513c-0.244,0.121-0.445,0.186-0.699,0.242c-0.256,0.057-0.377,0.096-0.662,0.107
		c-0.264,0.012-0.473-0.01-0.789-0.057c-0.344-0.051-0.66-0.187-0.66-0.187s0.424,0.075,1.08,0.003
		c0.529-0.059,0.875-0.215,0.959-0.255c0.043-0.02,0.248-0.124,0.291-0.153c0.082-0.06,0.162-0.127,0.227-0.18
		c0.158-0.134,0.238-0.268,0.318-0.463c0.102-0.312-0.02-0.728-0.15-0.879c-0.127-0.15-0.361-0.256-0.539-0.281
		c-0.184-0.027-0.344,0.016-0.484,0.098c-0.139,0.078-0.256,0.203-0.314,0.326c-0.059,0.119-0.049,0.236-0.018,0.3
		c0.059,0.124,0.18,0.198,0.273,0.222c0.088,0.024,0.199-0.009,0.287-0.064c0.088-0.053,0.156-0.114,0.199-0.156
		c0.045-0.043,0.123-0.002,0.105,0.063c-0.02,0.064-0.051,0.159-0.129,0.271c-0.072,0.108-0.209,0.252-0.449,0.293
		c-0.234,0.036-0.496-0.07-0.678-0.233c-0.252-0.227-0.32-0.592-0.229-0.906c0.082-0.314,0.297-0.61,0.588-0.778
		c0.293-0.167,0.736-0.305,1.061-0.197c0.414,0.14,0.547,0.178,0.865,0.549c0.207,0.242,0.289,0.635,0.328,0.941
		C9.168,14.725,9.065,15.024,8.926,15.279z M13.887,13.476c0.32-0.371,0.451-0.409,0.865-0.549c0.324-0.107,0.768,0.03,1.061,0.197
		c0.291,0.168,0.506,0.464,0.59,0.778c0.092,0.314,0.021,0.68-0.229,0.906c-0.182,0.163-0.443,0.27-0.68,0.233
		c-0.24-0.041-0.377-0.185-0.449-0.293c-0.076-0.112-0.107-0.207-0.127-0.271s0.061-0.105,0.105-0.063
		c0.043,0.042,0.109,0.104,0.197,0.156c0.088,0.056,0.199,0.089,0.287,0.064c0.094-0.023,0.215-0.098,0.273-0.222
		c0.031-0.063,0.041-0.181-0.016-0.3c-0.059-0.123-0.176-0.248-0.314-0.326c-0.143-0.082-0.303-0.125-0.486-0.098
		c-0.178,0.025-0.41,0.131-0.539,0.281c-0.129,0.151-0.252,0.567-0.15,0.879c0.08,0.195,0.162,0.329,0.32,0.463
		c0.063,0.053,0.143,0.12,0.225,0.18c0.043,0.029,0.25,0.134,0.291,0.153c0.086,0.04,0.432,0.196,0.959,0.255
		c0.658,0.072,1.082-0.003,1.082-0.003s-0.316,0.136-0.66,0.187c-0.316,0.047-0.527,0.068-0.789,0.057
		c-0.287-0.012-0.408-0.051-0.662-0.107s-0.455-0.121-0.699-0.242c-0.154-0.076-0.443-0.259-0.58-0.513
		c-0.137-0.255-0.24-0.555-0.201-0.862C13.6,14.11,13.682,13.718,13.887,13.476z M16.744,19.495
		c-0.305,0.101-0.506,0.158-0.768,0.192c-0.285,0.038-0.41,0.019-0.67,0.008c-0.262-0.011-0.471-0.041-0.73-0.118
		c-0.166-0.048-0.482-0.178-0.66-0.404c-0.18-0.227-0.334-0.505-0.348-0.814c-0.016-0.309-0.002-0.71,0.158-0.984
		c0.252-0.42,0.375-0.48,0.758-0.688c0.301-0.163,0.762-0.104,1.078,0.01c0.316,0.116,0.58,0.37,0.717,0.665
		c0.143,0.294,0.139,0.666-0.07,0.932c-0.15,0.192-0.389,0.343-0.627,0.348c-0.244,0-0.402-0.117-0.494-0.211
		c-0.094-0.098-0.143-0.186-0.172-0.246c-0.031-0.061,0.041-0.113,0.092-0.078c0.051,0.033,0.127,0.082,0.223,0.119
		c0.096,0.039,0.211,0.053,0.295,0.014c0.088-0.039,0.193-0.133,0.23-0.266c0.02-0.068,0.01-0.186-0.068-0.293
		c-0.078-0.11-0.217-0.214-0.367-0.267c-0.152-0.057-0.318-0.071-0.494-0.013c-0.17,0.057-0.383,0.201-0.482,0.371
		c-0.102,0.172-0.15,0.602,0.004,0.891c0.113,0.18,0.215,0.297,0.395,0.401c0.072,0.042,0.162,0.094,0.254,0.138
		c0.047,0.021,0.268,0.089,0.313,0.102c0.092,0.023,0.459,0.118,0.988,0.084c0.66-0.043,1.064-0.189,1.064-0.189
		S17.073,19.386,16.744,19.495z"/>
</g>
</svg>
