<?xml version="1.0" encoding="utf-8"?>
<!-- Generator: Adobe Illustrator 16.0.3, SVG Export Plug-In . SVG Version: 6.00 Build 0)  -->
<!DOCTYPE svg PUBLIC "-//W3C//DTD SVG 1.1//EN" "http://www.w3.org/Graphics/SVG/1.1/DTD/svg11.dtd">
<svg version="1.1" xmlns="http://www.w3.org/2000/svg" xmlns:xlink="http://www.w3.org/1999/xlink" x="0px" y="0px" width="22.68px"
	 height="22.68px" viewBox="0 0 22.68 22.68" enable-background="new 0 0 22.68 22.68" xml:space="preserve">
<g id="BCGRND">
</g>
<g id="BAREVNE_POZADI_IKON">
	<rect x="0" y="0" fill="#585857" width="22.676" height="22.678"/>
</g>
<g id="IKONY">
	<g>
		<g>
			<g>
				<g>
					<rect x="0" y="7.77" fill="#FFFFFF" width="22.678" height="0.889"/>
				</g>
				<g>
					<path fill="#FFFFFF" d="M5.703,2.323C5.967,2.28,6.304,2.255,6.66,2.255c0.615,0,1.04,0.127,1.343,0.381
						c0.317,0.259,0.513,0.649,0.513,1.211c0,0.586-0.2,1.025-0.513,1.309c-0.327,0.298-0.85,0.449-1.489,0.449
						c-0.352,0-0.615-0.02-0.811-0.044V2.323z M6.304,5.112c0.083,0.015,0.21,0.015,0.332,0.015c0.781,0.005,1.245-0.425,1.245-1.26
						c0.005-0.728-0.415-1.143-1.167-1.143c-0.19,0-0.327,0.015-0.41,0.034V5.112z"/>
					<path fill="#FFFFFF" d="M10.234,5.571l-0.039-0.264H10.18c-0.146,0.186-0.396,0.317-0.703,0.317
						c-0.479,0-0.747-0.347-0.747-0.708c0-0.601,0.532-0.903,1.411-0.898V3.979c0-0.156-0.063-0.415-0.483-0.415
						c-0.234,0-0.479,0.073-0.64,0.176L8.901,3.349c0.176-0.107,0.483-0.21,0.859-0.21c0.762,0,0.981,0.483,0.981,1.001v0.859
						c0,0.215,0.01,0.425,0.034,0.571H10.234z M10.156,4.408c-0.425-0.01-0.83,0.083-0.83,0.444c0,0.234,0.151,0.342,0.342,0.342
						c0.239,0,0.415-0.156,0.469-0.327c0.015-0.044,0.02-0.093,0.02-0.132V4.408z M10.527,2.162L9.926,2.885H9.511l0.425-0.723
						H10.527z"/>
					<path fill="#FFFFFF" d="M11.257,3.959c0-0.322-0.005-0.552-0.02-0.767h0.522l0.02,0.454h0.02
						c0.117-0.337,0.396-0.508,0.649-0.508c0.059,0,0.093,0.005,0.142,0.015V3.72c-0.049-0.01-0.103-0.02-0.176-0.02
						c-0.288,0-0.483,0.186-0.537,0.454c-0.01,0.054-0.02,0.117-0.02,0.186v1.23h-0.601V3.959z"/>
					<path fill="#FFFFFF" d="M13.256,4.55c0.015,0.43,0.352,0.615,0.732,0.615c0.278,0,0.479-0.039,0.659-0.107l0.088,0.415
						c-0.205,0.083-0.488,0.146-0.83,0.146c-0.771,0-1.226-0.474-1.226-1.201c0-0.659,0.4-1.279,1.162-1.279
						c0.771,0,1.025,0.635,1.025,1.157c0,0.112-0.01,0.2-0.02,0.254H13.256z M14.301,4.13c0.005-0.22-0.093-0.581-0.493-0.581
						c-0.371,0-0.527,0.337-0.552,0.581H14.301z"/>
					<path fill="#FFFFFF" d="M15.833,4.238h0.01c0.059-0.093,0.127-0.195,0.189-0.278l0.576-0.767h0.723l-0.879,0.972l1.006,1.406
						h-0.736l-0.684-1.05L15.833,4.76v0.811h-0.602V2.104h0.602V4.238z"/>
				</g>
			</g>
			<g>
				<path fill="#FFFFFF" d="M14.041,13.835h-0.376c0.601,0.334,1.243,0.629,1.788,0.726l-0.176,0.984
					c-0.759-0.135-1.628-0.562-2.385-1.004V16.5h4.017v-2.665h-2.792c-0.01,0-0.021,0.002-0.031,0.002
					C14.072,13.838,14.056,13.835,14.041,13.835z"/>
				<path fill="#FFFFFF" d="M7.403,15.546l-0.176-0.984c0.545-0.097,1.189-0.392,1.789-0.726H8.638c-0.015,0-0.03,0.002-0.045,0.002
					c-0.017,0-0.035-0.002-0.052-0.002H5.769V16.5h4.019v-1.959C9.031,14.984,8.161,15.41,7.403,15.546z"/>
				<polygon fill="#FFFFFF" points="9.787,22.666 9.787,17.365 6.077,17.365 6.077,22.678 16.601,22.678 16.601,17.365 
					12.893,17.365 12.893,22.666 				"/>
				<path opacity="0.5" fill="#FFFFFF" d="M15.808,10.615c-0.271-0.176-0.58-0.265-0.918-0.265c-0.353,0-0.735,0.098-1.145,0.293
					c-0.386,0.182-0.797,0.452-1.23,0.808c-0.628,0.514-1.073,1.024-1.092,1.045l-0.084,0.096c0,0,0,0-0.001,0l-0.082-0.096
					c-0.02-0.021-0.466-0.531-1.093-1.045c-0.89-0.73-1.689-1.101-2.374-1.101c-0.339,0-0.646,0.089-0.919,0.265
					c-0.219,0.141-0.397,0.316-0.53,0.51c-0.267,0.388-0.352,0.858-0.217,1.313c0.3,1.014,1.436,1.385,2.418,1.397
					c0.017,0,0.035,0.002,0.052,0.002c0.015,0,0.03-0.002,0.045-0.002h0.378c-0.6,0.334-1.244,0.629-1.789,0.726l0.176,0.984
					c0.759-0.135,1.628-0.562,2.385-1.004v8.125h3.105v-8.125c0.757,0.443,1.626,0.869,2.385,1.004l0.176-0.984
					c-0.545-0.097-1.188-0.392-1.788-0.726h0.376c0.015,0,0.03,0.002,0.045,0.002c0.01,0,0.021-0.002,0.031-0.002
					c0.807-0.006,1.723-0.253,2.193-0.902c0.107-0.145,0.19-0.309,0.244-0.495C16.757,11.755,16.464,11.039,15.808,10.615z
					 M8.593,12.852c-0.975,0-1.431-0.374-1.523-0.693c-0.077-0.259,0.053-0.532,0.336-0.716c0.111-0.071,0.236-0.107,0.384-0.107
					c0.693,0,1.627,0.733,2.232,1.304C9.499,12.781,9.021,12.852,8.593,12.852z M15.61,12.159c-0.094,0.319-0.551,0.693-1.523,0.693
					c-0.429,0-0.906-0.071-1.43-0.212c0.605-0.571,1.54-1.304,2.233-1.304c0.147,0,0.272,0.036,0.383,0.107
					C15.556,11.627,15.686,11.9,15.61,12.159z"/>
			</g>
		</g>
	</g>
</g>
</svg>
