<?xml version="1.0" encoding="utf-8"?>
<!-- Generator: Adobe Illustrator 16.0.3, SVG Export Plug-In . SVG Version: 6.00 Build 0)  -->
<!DOCTYPE svg PUBLIC "-//W3C//DTD SVG 1.1//EN" "http://www.w3.org/Graphics/SVG/1.1/DTD/svg11.dtd">
<svg version="1.1" xmlns="http://www.w3.org/2000/svg" xmlns:xlink="http://www.w3.org/1999/xlink" x="0px" y="0px" width="22.68px"
	 height="22.68px" viewBox="0 0 22.68 22.68" enable-background="new 0 0 22.68 22.68" xml:space="preserve">
<g id="BCGRND" display="none">
</g>
<g id="IKONY">
	<g>
		<g>
			<defs>
				<rect id="SVGID_93_" x="0.001" width="22.678" height="22.678"/>
			</defs>
			<clipPath id="SVGID_2_">
				<use xlink:href="#SVGID_93_"  overflow="visible"/>
			</clipPath>
			<polygon clip-path="url(#SVGID_2_)" fill="#585857" points="0.001,0 0.001,22.678 14.119,22.678 22.68,22.678 22.68,0 			"/>
			<rect x="0.001" y="7.77" clip-path="url(#SVGID_2_)" fill="#FFFFFF" width="22.678" height="0.89"/>
			<g clip-path="url(#SVGID_2_)">
				<defs>
					<rect id="SVGID_95_" x="0.001" width="22.678" height="22.678"/>
				</defs>
				<clipPath id="SVGID_4_">
					<use xlink:href="#SVGID_95_"  overflow="visible"/>
				</clipPath>
				<path clip-path="url(#SVGID_4_)" fill="#FFFFFF" d="M3.763,2.324C4.027,2.279,4.364,2.256,4.72,2.256
					c0.616,0,1.04,0.127,1.343,0.38c0.318,0.259,0.513,0.65,0.513,1.211c0,0.586-0.2,1.026-0.513,1.309
					C5.736,5.454,5.214,5.604,4.574,5.604c-0.352,0-0.615-0.019-0.811-0.044V2.324z M4.364,5.111
					c0.083,0.016,0.21,0.016,0.332,0.016c0.781,0.005,1.245-0.425,1.245-1.26c0.005-0.729-0.415-1.144-1.167-1.144
					c-0.19,0-0.327,0.015-0.41,0.034V5.111z"/>
				<path clip-path="url(#SVGID_4_)" fill="#FFFFFF" d="M7.552,4.551c0.015,0.43,0.352,0.614,0.733,0.614
					c0.278,0,0.478-0.039,0.659-0.106l0.088,0.415C8.826,5.557,8.543,5.619,8.201,5.619c-0.771,0-1.225-0.473-1.225-1.201
					c0-0.658,0.4-1.278,1.162-1.278c0.771,0,1.025,0.635,1.025,1.156c0,0.112-0.009,0.2-0.019,0.255H7.552z M8.597,4.13
					c0.005-0.22-0.093-0.58-0.493-0.58c-0.371,0-0.528,0.337-0.552,0.58H8.597z"/>
				<path clip-path="url(#SVGID_4_)" fill="#FFFFFF" d="M9.767,5.57V3.642H9.445V3.192h0.322V3.091c0-0.308,0.083-0.616,0.288-0.812
					c0.176-0.166,0.415-0.229,0.62-0.229c0.161,0,0.288,0.025,0.386,0.059l-0.044,0.464c-0.063-0.023-0.146-0.044-0.254-0.044
					c-0.298,0-0.4,0.249-0.4,0.542v0.122h0.522v0.449h-0.517V5.57H9.767z"/>
				<path clip-path="url(#SVGID_4_)" fill="#FFFFFF" d="M11.307,3.959c0-0.321-0.005-0.552-0.02-0.767h0.523l0.019,0.455h0.02
					c0.117-0.337,0.395-0.508,0.649-0.508c0.059,0,0.093,0.005,0.142,0.014v0.567C12.591,3.71,12.537,3.7,12.464,3.7
					c-0.288,0-0.483,0.187-0.537,0.454c-0.01,0.054-0.019,0.117-0.019,0.187V5.57h-0.601V3.959z"/>
				<path clip-path="url(#SVGID_4_)" fill="#FFFFFF" d="M15.313,4.36c0,0.874-0.615,1.264-1.221,1.264
					c-0.674,0-1.191-0.464-1.191-1.225c0-0.782,0.513-1.26,1.23-1.26C14.839,3.14,15.313,3.638,15.313,4.36 M13.521,4.384
					c0,0.459,0.225,0.807,0.591,0.807c0.342,0,0.581-0.337,0.581-0.816c0-0.371-0.166-0.796-0.576-0.796
					C13.692,3.578,13.521,3.988,13.521,4.384"/>
				<path clip-path="url(#SVGID_4_)" fill="#FFFFFF" d="M15.83,5.019c0.137,0.083,0.396,0.172,0.61,0.172
					c0.264,0,0.381-0.108,0.381-0.265c0-0.161-0.097-0.244-0.39-0.346c-0.464-0.162-0.66-0.415-0.655-0.694
					c0-0.42,0.347-0.747,0.899-0.747c0.263,0,0.493,0.068,0.63,0.143l-0.118,0.425c-0.102-0.059-0.293-0.137-0.503-0.137
					c-0.214,0-0.332,0.102-0.332,0.249c0,0.15,0.113,0.224,0.415,0.332c0.43,0.155,0.63,0.376,0.635,0.727
					c0,0.43-0.337,0.743-0.967,0.743c-0.288,0-0.546-0.069-0.722-0.166L15.83,5.019z"/>
				<path clip-path="url(#SVGID_4_)" fill="#FFFFFF" d="M18.634,2.514v0.68h0.571v0.449h-0.571v1.05
					c0,0.288,0.078,0.438,0.308,0.438c0.102,0,0.18-0.014,0.234-0.028l0.01,0.459c-0.088,0.033-0.244,0.058-0.435,0.058
					c-0.22,0-0.405-0.073-0.517-0.195c-0.127-0.137-0.186-0.351-0.186-0.664V3.643h-0.342V3.193h0.342V2.656L18.634,2.514z"/>
				<g opacity="0.5" clip-path="url(#SVGID_4_)">
					<g>
						<defs>
							<rect id="SVGID_97_" x="4.253" y="8.005" width="14.175" height="10.778"/>
						</defs>
						<clipPath id="SVGID_6_">
							<use xlink:href="#SVGID_97_"  overflow="visible"/>
						</clipPath>
						<polygon clip-path="url(#SVGID_6_)" fill="#FFFFFF" points="12.835,14.717 13.317,15.56 14.07,16.545 15.03,18.734 
							15.03,17.099 15.689,17.479 15.689,18.734 16.649,18.734 16.649,18.033 17.948,18.783 18.427,17.951 17.128,17.201 
							17.736,16.851 17.256,16.021 16.168,16.647 15.509,16.267 16.927,15.448 16.446,14.617 14.549,15.712 13.893,15.332 
							13.538,14.717 15.297,14.717 15.831,14.414 15.297,14.106 13.55,14.106 13.906,13.486 14.549,13.115 16.446,14.21 
							16.927,13.378 15.509,12.56 16.168,12.18 17.256,12.808 17.736,11.977 17.128,11.626 18.427,10.876 17.948,10.043 
							16.649,10.793 16.649,10.092 15.689,10.092 15.689,11.348 15.03,11.729 15.03,10.092 14.07,10.092 14.07,12.283 
							13.423,12.655 12.708,12.655 13.583,11.135 13.586,10.522 13.052,10.828 12.174,12.354 11.82,11.74 11.82,10.984 
							13.716,9.888 13.235,9.057 11.82,9.876 11.82,9.114 12.907,8.486 11.82,8.005 10.86,8.005 9.772,8.486 10.86,9.114 
							10.86,9.876 9.443,9.057 8.963,9.888 10.86,10.984 10.86,11.74 10.504,12.355 9.623,10.828 9.093,10.521 9.093,11.135 
							9.973,12.655 9.254,12.655 8.61,12.283 8.61,10.092 7.65,10.092 7.65,11.729 6.992,11.348 6.992,10.092 6.03,10.092 
							6.03,10.793 4.732,10.043 4.253,10.876 5.549,11.626 4.942,11.977 5.423,12.808 6.509,12.18 7.168,12.56 5.753,13.378 
							6.232,14.21 8.13,13.115 8.774,13.486 9.13,14.106 7.381,14.106 6.848,14.414 7.381,14.717 9.143,14.717 8.789,15.332 
							8.13,15.712 6.232,14.617 5.753,15.448 7.168,16.267 6.509,16.647 5.423,16.021 4.942,16.851 5.549,17.201 4.253,17.951 
							4.732,18.783 6.03,18.033 6.03,18.734 6.992,18.734 6.992,17.479 7.65,17.099 7.65,18.734 8.61,16.545 9.363,15.56 
							9.843,14.717 9.835,14.106 9.353,13.267 10.325,13.267 10.855,12.961 11.339,12.125 11.826,12.959 12.353,13.267 
							13.327,13.267 12.846,14.106 						"/>
					</g>
				</g>
				<path clip-path="url(#SVGID_4_)" fill="#FFFFFF" d="M11.34,13.366c0,0-2.614,3.567-2.614,5.957c0,1.444,1.17,2.614,2.614,2.614
					c1.443,0,2.613-1.17,2.613-2.614C13.953,16.934,11.34,13.366,11.34,13.366 M9.9,20.454c-0.117-0.159-0.257-0.359-0.326-0.601
					C9.5,19.616,9.467,19.354,9.468,19.1c-0.002-0.515,0.151-0.999,0.304-1.337c0.156-0.34,0.327-0.535,0.327-0.535
					s0.012,0.256,0.001,0.613c-0.013,0.356-0.03,0.819-0.033,1.261c-0.001,0.442,0.02,0.87,0.125,1.181
					c0.065,0.144,0.1,0.298,0.167,0.375c0.053,0.09,0.083,0.152,0.083,0.152C10.453,20.801,10.177,20.761,9.9,20.454"/>
			</g>
		</g>
	</g>
</g>
</svg>
