<?xml version="1.0" encoding="utf-8"?>
<!-- Generator: Adobe Illustrator 16.0.3, SVG Export Plug-In . SVG Version: 6.00 Build 0)  -->
<!DOCTYPE svg PUBLIC "-//W3C//DTD SVG 1.1//EN" "http://www.w3.org/Graphics/SVG/1.1/DTD/svg11.dtd">
<svg version="1.1" xmlns="http://www.w3.org/2000/svg" xmlns:xlink="http://www.w3.org/1999/xlink" x="0px" y="0px" width="22.68px"
	 height="22.68px" viewBox="0 0 22.68 22.68" enable-background="new 0 0 22.68 22.68" xml:space="preserve">
<g id="BCGRND">
</g>
<g id="BAREVNE_POZADI_IKON">
	<rect y="0" fill="#585857" width="22.677" height="22.678"/>
</g>
<g id="IKONY">
	<g>
		<g>
			<rect x="0.002" y="14.019" fill="#FFFFFF" width="22.676" height="0.889"/>
			<g>
				<g>
					<path fill="#FFFFFF" d="M2.936,18.902l-0.283,0.933h-0.62l1.055-3.291h0.767l1.069,3.291H4.273l-0.298-0.933H2.936z
						 M3.878,18.448l-0.259-0.811c-0.063-0.2-0.117-0.425-0.166-0.615h-0.01c-0.049,0.19-0.103,0.42-0.156,0.615l-0.254,0.811H3.878
						z"/>
					<path fill="#FFFFFF" d="M5.288,16.367h0.601v1.416h0.01c0.146-0.229,0.405-0.381,0.762-0.381c0.581,0,0.996,0.483,0.991,1.206
						c0,0.854-0.542,1.279-1.079,1.279c-0.308,0-0.581-0.117-0.752-0.41h-0.01l-0.029,0.356H5.269c0.01-0.161,0.02-0.425,0.02-0.669
						V16.367z M5.889,18.853c0,0.049,0.005,0.098,0.015,0.142c0.063,0.244,0.273,0.42,0.532,0.42c0.376,0,0.605-0.298,0.605-0.781
						c0-0.42-0.2-0.762-0.601-0.762c-0.244,0-0.469,0.176-0.532,0.439c-0.01,0.044-0.02,0.098-0.02,0.156V18.853z"/>
					<path fill="#FFFFFF" d="M8.075,19.278c0.132,0.083,0.391,0.176,0.605,0.176c0.264,0,0.381-0.112,0.381-0.269
						c0-0.161-0.098-0.239-0.391-0.347c-0.464-0.156-0.654-0.41-0.654-0.693c0-0.42,0.347-0.742,0.898-0.742
						c0.264,0,0.493,0.063,0.635,0.142l-0.122,0.42c-0.098-0.059-0.293-0.137-0.503-0.137c-0.215,0-0.332,0.107-0.332,0.254
						c0,0.151,0.112,0.22,0.415,0.332c0.435,0.151,0.63,0.371,0.635,0.723c0,0.435-0.337,0.747-0.967,0.747
						c-0.288,0-0.547-0.068-0.723-0.166L8.075,19.278z"/>
					<path fill="#FFFFFF" d="M12.35,18.623c0,0.874-0.615,1.265-1.221,1.265c-0.669,0-1.191-0.459-1.191-1.226
						c0-0.781,0.513-1.26,1.23-1.26C11.876,17.403,12.35,17.901,12.35,18.623z M10.558,18.648c0,0.459,0.229,0.806,0.591,0.806
						c0.342,0,0.581-0.332,0.581-0.815c0-0.371-0.166-0.801-0.576-0.801C10.729,17.837,10.558,18.252,10.558,18.648z"/>
					<path fill="#FFFFFF" d="M12.797,16.367h0.601v3.467h-0.601V16.367z"/>
					<path fill="#FFFFFF" d="M16.134,19.121c0,0.283,0.01,0.518,0.02,0.713h-0.522l-0.029-0.356h-0.015
						c-0.103,0.166-0.337,0.41-0.767,0.41s-0.825-0.259-0.825-1.035v-1.396h0.601v1.294c0,0.396,0.127,0.649,0.444,0.649
						c0.244,0,0.4-0.166,0.459-0.322c0.024-0.049,0.034-0.117,0.034-0.186v-1.436h0.601V19.121z"/>
					<path fill="#FFFFFF" d="M17.426,16.846v0.61h0.571v0.449h-0.571v1.05c0,0.293,0.078,0.439,0.308,0.439
						c0.107,0,0.166-0.005,0.234-0.024l0.01,0.454c-0.088,0.034-0.249,0.063-0.435,0.063c-0.225,0-0.405-0.073-0.518-0.195
						c-0.132-0.137-0.19-0.356-0.19-0.669v-1.118h-0.337v-0.449h0.337v-0.444L17.426,16.846z"/>
					<path fill="#FFFFFF" d="M18.8,18.814c0.015,0.43,0.347,0.615,0.732,0.615c0.278,0,0.474-0.044,0.659-0.107l0.088,0.41
						c-0.205,0.088-0.488,0.151-0.83,0.151c-0.771,0-1.226-0.474-1.226-1.201c0-0.659,0.4-1.279,1.162-1.279
						c0.771,0,1.025,0.635,1.025,1.157c0,0.112-0.01,0.2-0.02,0.254H18.8z M19.845,18.394c0.005-0.22-0.093-0.581-0.493-0.581
						c-0.371,0-0.527,0.337-0.552,0.581H19.845z"/>
				</g>
			</g>
		</g>
		<g>
			<path fill="#FFFFFF" d="M10.134,7.127c-0.005-0.031-0.012-0.064-0.019-0.096C10.107,7,10.099,6.968,10.089,6.937
				c-0.01-0.033-0.021-0.064-0.034-0.096c-0.012-0.031-0.026-0.061-0.04-0.091C10,6.72,9.985,6.691,9.969,6.662
				S9.935,6.605,9.916,6.578s-0.038-0.055-0.057-0.08c-0.02-0.024-0.04-0.049-0.062-0.071c-0.02-0.023-0.042-0.045-0.064-0.065
				C9.711,6.34,9.689,6.32,9.665,6.302C9.642,6.284,9.619,6.267,9.597,6.253C9.572,6.238,9.55,6.224,9.525,6.214
				c-0.024-0.013-0.048-0.022-0.073-0.03c-0.024-0.01-0.05-0.017-0.075-0.022L7.611,5.76l0.021,3.199L9.38,9.408
				C9.407,9.415,9.433,9.42,9.459,9.424c0.025,0.003,0.05,0.006,0.074,0.006s0.049-0.002,0.071-0.005
				C9.629,9.422,9.652,9.416,9.674,9.41C9.697,9.403,9.72,9.394,9.741,9.385c0.021-0.01,0.042-0.021,0.063-0.033
				C9.823,9.34,9.843,9.326,9.861,9.31C9.88,9.296,9.898,9.279,9.916,9.26s0.035-0.038,0.051-0.058
				c0.016-0.021,0.03-0.044,0.044-0.066c0.016-0.023,0.028-0.048,0.04-0.074c0.013-0.025,0.024-0.053,0.034-0.08
				c0.012-0.026,0.02-0.055,0.027-0.082c0.007-0.029,0.014-0.058,0.02-0.087c0.005-0.03,0.008-0.06,0.011-0.091
				s0.004-0.063,0.004-0.096l0.002-1.298c0.001-0.035-0.001-0.069-0.003-0.103C10.143,7.193,10.139,7.16,10.134,7.127z
				 M10.951,1.842L5.879,3.156l0.088,7.532l5.997,1.656L12.02,4.43l4.947-1.466L10.951,1.842z M11.696,9.011
				c0,0.1-0.005,0.198-0.014,0.293c-0.008,0.096-0.021,0.189-0.037,0.279c-0.017,0.092-0.036,0.18-0.061,0.266
				c-0.024,0.085-0.052,0.168-0.083,0.247c-0.03,0.079-0.065,0.155-0.102,0.228s-0.075,0.141-0.118,0.207
				c-0.042,0.065-0.087,0.128-0.135,0.188c-0.046,0.059-0.098,0.113-0.15,0.164c-0.053,0.053-0.107,0.101-0.164,0.144
				c-0.058,0.044-0.117,0.083-0.178,0.118c-0.062,0.035-0.125,0.066-0.189,0.094c-0.066,0.025-0.133,0.049-0.202,0.066
				c-0.069,0.02-0.14,0.032-0.212,0.041c-0.071,0.008-0.145,0.012-0.218,0.01c-0.073,0-0.148-0.007-0.224-0.019
				c-0.076-0.011-0.151-0.027-0.229-0.048L6.219,10.42L6.141,3.541l3.234,0.676c0.078,0.017,0.157,0.038,0.233,0.064
				c0.078,0.025,0.153,0.057,0.229,0.092c0.075,0.035,0.15,0.075,0.224,0.119c0.072,0.045,0.145,0.095,0.215,0.148
				s0.14,0.111,0.206,0.172c0.065,0.061,0.13,0.124,0.193,0.191c0.062,0.066,0.121,0.137,0.179,0.211
				c0.059,0.074,0.114,0.15,0.167,0.23c0.053,0.079,0.103,0.161,0.15,0.244c0.048,0.085,0.092,0.172,0.135,0.26
				c0.041,0.088,0.08,0.178,0.116,0.271s0.069,0.187,0.102,0.282c0.03,0.098,0.057,0.195,0.079,0.294
				c0.023,0.099,0.043,0.198,0.058,0.298c0.016,0.1,0.026,0.199,0.034,0.301c0.006,0.1,0.01,0.201,0.009,0.302L11.696,9.011z
				 M15.197,3.174c-0.013,0.021-0.031,0.043-0.054,0.064c-0.023,0.021-0.051,0.042-0.083,0.063
				c-0.031,0.021-0.068,0.041-0.111,0.061c-0.041,0.02-0.088,0.039-0.14,0.059s-0.107,0.037-0.168,0.055l-2.679,0.791L6.474,3.131
				l2.74-0.713c0.063-0.016,0.127-0.031,0.195-0.045c0.067-0.016,0.138-0.029,0.21-0.041c0.073-0.013,0.147-0.024,0.226-0.035
				c0.077-0.012,0.157-0.021,0.238-0.029c0.082-0.01,0.165-0.018,0.247-0.023c0.084-0.008,0.169-0.014,0.253-0.019
				c0.086-0.005,0.172-0.009,0.26-0.013c0.086-0.003,0.174-0.005,0.262-0.006c0.089-0.002,0.177-0.002,0.264-0.002
				c0.088,0.001,0.177,0.002,0.264,0.005c0.088,0.003,0.176,0.005,0.263,0.01c0.088,0.004,0.175,0.009,0.262,0.015
				c0.088,0.006,0.174,0.014,0.259,0.021c0.084,0.008,0.168,0.018,0.249,0.027c0.082,0.01,0.162,0.021,0.238,0.033
				c0.079,0.012,0.155,0.025,0.229,0.039l0.981,0.184c0.075,0.014,0.147,0.029,0.216,0.045s0.134,0.031,0.194,0.048
				c0.063,0.017,0.12,0.034,0.174,0.052C14.75,2.702,14.8,2.72,14.845,2.74s0.086,0.038,0.124,0.058c0.037,0.021,0.07,0.04,0.1,0.06
				c0.03,0.02,0.056,0.041,0.077,0.063c0.021,0.02,0.039,0.041,0.052,0.062c0.013,0.021,0.022,0.043,0.027,0.063
				c0.004,0.021,0.004,0.043,0,0.064S15.21,3.152,15.197,3.174z M13.299,2.994c-0.007-0.008-0.015-0.015-0.025-0.021
				c-0.01-0.008-0.021-0.014-0.034-0.021c-0.013-0.007-0.026-0.014-0.042-0.021c-0.017-0.007-0.033-0.013-0.05-0.019
				C13.13,2.905,13.11,2.9,13.092,2.894c-0.021-0.006-0.041-0.012-0.063-0.018c-0.023-0.004-0.047-0.01-0.071-0.015l-0.987-0.19
				c-0.025-0.004-0.052-0.009-0.078-0.013c-0.028-0.005-0.054-0.009-0.082-0.012c-0.026-0.003-0.055-0.007-0.082-0.009
				c-0.029-0.004-0.058-0.006-0.087-0.008s-0.06-0.004-0.091-0.005c-0.03-0.001-0.061-0.003-0.093-0.003
				c-0.03-0.002-0.062-0.002-0.093-0.002c-0.032,0-0.063,0-0.095,0c-0.031,0.002-0.063,0.002-0.093,0.004
				c-0.031,0-0.061,0.002-0.092,0.004c-0.029,0.002-0.058,0.004-0.088,0.006c-0.028,0.002-0.058,0.006-0.085,0.009
				s-0.054,0.006-0.079,0.01c-0.026,0.003-0.049,0.007-0.073,0.011c-0.023,0.005-0.047,0.009-0.067,0.014
				c-0.022,0.005-0.044,0.011-0.064,0.016L9.176,3.084l2.507,0.504l1.437-0.409c0.021-0.006,0.042-0.013,0.06-0.019
				s0.033-0.012,0.048-0.02c0.014-0.006,0.027-0.012,0.038-0.019s0.021-0.014,0.028-0.021c0.009-0.007,0.015-0.015,0.02-0.021
				c0.006-0.007,0.01-0.014,0.01-0.021c0.003-0.007,0.003-0.014,0.002-0.021c-0.002-0.007-0.003-0.014-0.008-0.021
				S13.306,3.001,13.299,2.994z"/>
			<g>
				<path fill="#FFFFFF" fill-opacity="0.5" d="M15.555,6.377c-0.004-0.029-0.008-0.058-0.013-0.085s-0.012-0.054-0.02-0.079
					c-0.007-0.025-0.015-0.051-0.023-0.076c-0.01-0.023-0.02-0.047-0.03-0.069s-0.022-0.044-0.034-0.063
					c-0.013-0.02-0.026-0.039-0.039-0.057c-0.014-0.02-0.028-0.035-0.044-0.051c-0.015-0.016-0.029-0.029-0.045-0.042
					c-0.017-0.012-0.032-0.022-0.049-0.032c-0.018-0.01-0.036-0.019-0.054-0.025s-0.035-0.012-0.054-0.016
					c-0.018-0.002-0.036-0.004-0.055-0.004s-0.038,0.002-0.058,0.004c-0.02,0.004-0.039,0.009-0.059,0.016l-1.445,0.471l-0.038,3.26
					l1.43-0.529c0.021-0.008,0.042-0.018,0.063-0.027s0.041-0.022,0.06-0.035c0.02-0.014,0.037-0.027,0.056-0.043
					c0.02-0.016,0.037-0.033,0.055-0.052c0.019-0.02,0.036-0.04,0.053-0.061s0.033-0.043,0.05-0.065
					c0.017-0.023,0.032-0.047,0.046-0.072c0.015-0.024,0.029-0.051,0.044-0.078S15.378,8.51,15.39,8.48
					c0.013-0.029,0.025-0.058,0.036-0.088c0.012-0.03,0.022-0.061,0.032-0.092s0.02-0.063,0.027-0.096
					c0.009-0.032,0.016-0.063,0.022-0.096c0.007-0.031,0.012-0.063,0.017-0.094c0.004-0.031,0.008-0.063,0.01-0.094
					c0.003-0.031,0.004-0.063,0.005-0.094l0.022-1.263c0.001-0.034,0-0.066-0.001-0.099C15.56,6.435,15.558,6.406,15.555,6.377z"/>
				<path fill="#FFFFFF" fill-opacity="0.5" d="M12.02,4.43l-0.058,7.919l4.835-1.929l0.169-7.458L12.02,4.43z M16.688,7.416
					c-0.001,0.096-0.006,0.189-0.015,0.283c-0.007,0.094-0.018,0.189-0.03,0.282c-0.014,0.094-0.03,0.188-0.049,0.28
					s-0.04,0.186-0.064,0.277c-0.023,0.09-0.05,0.18-0.077,0.268c-0.028,0.088-0.06,0.174-0.091,0.258
					c-0.032,0.086-0.065,0.168-0.102,0.25c-0.037,0.081-0.074,0.16-0.115,0.238c-0.039,0.077-0.082,0.152-0.126,0.226
					c-0.043,0.073-0.089,0.144-0.135,0.212c-0.047,0.066-0.095,0.132-0.146,0.194s-0.103,0.122-0.155,0.179
					c-0.054,0.057-0.108,0.109-0.164,0.158c-0.055,0.05-0.111,0.095-0.169,0.137c-0.059,0.04-0.116,0.077-0.176,0.109
					c-0.059,0.033-0.118,0.062-0.18,0.086l-2.669,1.058l0.056-7.214l2.729-0.817c0.062-0.019,0.123-0.031,0.183-0.04
					c0.061-0.008,0.12-0.012,0.177-0.01c0.059,0.002,0.115,0.008,0.171,0.02c0.055,0.012,0.109,0.028,0.163,0.049
					c0.054,0.021,0.104,0.047,0.154,0.076c0.049,0.029,0.096,0.063,0.142,0.102c0.046,0.037,0.09,0.078,0.131,0.123
					c0.043,0.046,0.082,0.096,0.121,0.148c0.038,0.053,0.073,0.107,0.107,0.167c0.032,0.06,0.064,0.122,0.095,0.187
					c0.028,0.066,0.057,0.134,0.081,0.205c0.025,0.071,0.048,0.146,0.068,0.223c0.021,0.078,0.039,0.158,0.054,0.241
					s0.028,0.167,0.036,0.255c0.011,0.088,0.017,0.176,0.021,0.268s0.005,0.185,0.002,0.28L16.688,7.416z"/>
			</g>
		</g>
	</g>
</g>
</svg>
