<?xml version="1.0" encoding="utf-8"?>
<!-- Generator: Adobe Illustrator 16.0.3, SVG Export Plug-In . SVG Version: 6.00 Build 0)  -->
<!DOCTYPE svg PUBLIC "-//W3C//DTD SVG 1.1//EN" "http://www.w3.org/Graphics/SVG/1.1/DTD/svg11.dtd">
<svg version="1.1" xmlns="http://www.w3.org/2000/svg" xmlns:xlink="http://www.w3.org/1999/xlink" x="0px" y="0px" width="22.68px"
	 height="22.68px" viewBox="0 0 22.68 22.68" enable-background="new 0 0 22.68 22.68" xml:space="preserve">
<g id="BCGRND">
</g>
<g id="BAREVNE_POZADI_IKON">
	<rect y="0" fill="#585857" width="22.677" height="22.677"/>
</g>
<g id="IKONY">
	<g>
		<g>
			<rect x="0.002" y="14.019" fill="#FFFFFF" width="22.676" height="0.889"/>
			<g>
				<g>
					<path fill="#FFFFFF" d="M1.558,19.18c0.19,0.112,0.488,0.21,0.796,0.21c0.381,0,0.596-0.181,0.596-0.449
						c0-0.249-0.166-0.396-0.581-0.547c-0.547-0.195-0.894-0.483-0.894-0.957c0-0.542,0.449-0.947,1.167-0.947
						c0.356,0,0.615,0.078,0.786,0.166l-0.142,0.483c-0.122-0.063-0.352-0.156-0.659-0.156c-0.381,0-0.542,0.2-0.542,0.396
						c0,0.254,0.19,0.371,0.63,0.542c0.571,0.215,0.845,0.503,0.845,0.977c0,0.532-0.4,0.991-1.245,0.991
						c-0.352,0-0.713-0.098-0.894-0.21L1.558,19.18z"/>
					<path fill="#FFFFFF" d="M4.623,16.792c0,0.176-0.132,0.322-0.342,0.322c-0.2,0-0.332-0.146-0.332-0.322
						c0-0.186,0.137-0.327,0.337-0.327C4.491,16.465,4.618,16.607,4.623,16.792z M3.983,19.834v-2.378h0.601v2.378H3.983z"/>
					<path fill="#FFFFFF" d="M5.136,18.164c0-0.273-0.01-0.503-0.02-0.708h0.513l0.029,0.352h0.015
						C5.786,17.622,6,17.403,6.406,17.403c0.313,0,0.557,0.176,0.659,0.439h0.01c0.083-0.132,0.181-0.229,0.288-0.298
						c0.137-0.093,0.288-0.142,0.488-0.142c0.391,0,0.791,0.269,0.791,1.03v1.401H8.056v-1.313c0-0.396-0.137-0.63-0.425-0.63
						c-0.205,0-0.356,0.146-0.42,0.317c-0.02,0.054-0.029,0.132-0.029,0.2v1.426H6.596v-1.377c0-0.332-0.132-0.566-0.41-0.566
						c-0.225,0-0.376,0.176-0.435,0.337c-0.02,0.063-0.029,0.132-0.029,0.2v1.406H5.136V18.164z"/>
					<path fill="#FFFFFF" d="M9.185,18.247c0-0.313-0.01-0.566-0.02-0.791h0.527l0.029,0.366h0.01
						c0.176-0.269,0.454-0.42,0.815-0.42c0.547,0,1.001,0.469,1.001,1.211c0,0.859-0.542,1.274-1.084,1.274
						c-0.298,0-0.547-0.127-0.669-0.317h-0.01v1.23H9.185V18.247z M9.785,18.838c0,0.059,0.005,0.112,0.015,0.166
						c0.063,0.244,0.273,0.42,0.532,0.42c0.381,0,0.605-0.317,0.605-0.786c0-0.42-0.205-0.762-0.591-0.762
						c-0.249,0-0.479,0.181-0.542,0.444c-0.01,0.049-0.02,0.103-0.02,0.151V18.838z"/>
					<path fill="#FFFFFF" d="M11.947,16.367h0.601v3.467h-0.601V16.367z"/>
					<path fill="#FFFFFF" d="M13.745,16.792c0,0.176-0.132,0.322-0.342,0.322c-0.2,0-0.332-0.146-0.332-0.322
						c0-0.186,0.137-0.327,0.337-0.327C13.613,16.465,13.74,16.607,13.745,16.792z M13.105,19.834v-2.378h0.601v2.378H13.105z"/>
					<path fill="#FFFFFF" d="M16.007,19.761c-0.127,0.059-0.376,0.122-0.674,0.122c-0.742,0-1.226-0.479-1.226-1.216
						c0-0.713,0.488-1.265,1.323-1.265c0.22,0,0.444,0.049,0.581,0.107l-0.107,0.454c-0.098-0.049-0.239-0.093-0.454-0.093
						c-0.459,0-0.732,0.337-0.728,0.771c0,0.488,0.317,0.767,0.728,0.767c0.205,0,0.356-0.044,0.474-0.093L16.007,19.761z"/>
					<path fill="#FFFFFF" d="M16.996,16.792c0,0.176-0.132,0.322-0.342,0.322c-0.2,0-0.332-0.146-0.332-0.322
						c0-0.186,0.137-0.327,0.337-0.327C16.864,16.465,16.991,16.607,16.996,16.792z M16.356,19.834v-2.378h0.601v2.378H16.356z"/>
					<path fill="#FFFFFF" d="M18.199,16.846v0.61h0.571v0.449h-0.571v1.05c0,0.293,0.078,0.439,0.308,0.439
						c0.107,0,0.166-0.005,0.234-0.024l0.01,0.454c-0.088,0.034-0.249,0.063-0.435,0.063c-0.225,0-0.405-0.073-0.518-0.195
						c-0.132-0.137-0.19-0.356-0.19-0.669v-1.118h-0.337v-0.449h0.337v-0.444L18.199,16.846z"/>
					<path fill="#FFFFFF" d="M19.543,17.456l0.425,1.274c0.049,0.146,0.103,0.327,0.137,0.459h0.015
						c0.034-0.132,0.078-0.313,0.127-0.464l0.371-1.27h0.64l-0.596,1.621c-0.327,0.889-0.547,1.284-0.825,1.528
						c-0.239,0.205-0.483,0.283-0.63,0.303l-0.137-0.503c0.103-0.024,0.225-0.078,0.347-0.166c0.117-0.073,0.249-0.215,0.332-0.376
						c0.024-0.044,0.034-0.078,0.034-0.107c0-0.024-0.005-0.059-0.029-0.117l-0.874-2.183H19.543z"/>
				</g>
			</g>
		</g>
		<g>
			<path fill="#FFFFFF" d="M10.134,7.127c-0.005-0.032-0.012-0.065-0.019-0.096c-0.008-0.032-0.017-0.063-0.026-0.094
				c-0.01-0.033-0.021-0.063-0.034-0.095c-0.012-0.031-0.026-0.061-0.04-0.091C10,6.72,9.985,6.691,9.969,6.662
				C9.952,6.633,9.935,6.605,9.916,6.577C9.897,6.55,9.878,6.524,9.859,6.498c-0.02-0.025-0.04-0.049-0.062-0.072
				c-0.02-0.023-0.042-0.045-0.064-0.066S9.689,6.32,9.665,6.302C9.642,6.284,9.619,6.268,9.597,6.253
				C9.572,6.238,9.55,6.225,9.525,6.214C9.501,6.201,9.478,6.191,9.452,6.183c-0.024-0.009-0.05-0.016-0.075-0.022L7.611,5.76
				l0.021,3.198L9.38,9.407C9.407,9.415,9.433,9.42,9.459,9.424c0.025,0.003,0.05,0.005,0.074,0.005s0.049-0.001,0.071-0.004
				c0.024-0.003,0.048-0.008,0.069-0.015C9.697,9.403,9.72,9.395,9.741,9.385c0.021-0.01,0.042-0.021,0.063-0.033
				c0.02-0.012,0.039-0.026,0.058-0.042C9.88,9.296,9.898,9.279,9.916,9.26c0.018-0.019,0.035-0.038,0.051-0.058
				c0.016-0.021,0.03-0.043,0.044-0.066c0.016-0.023,0.028-0.047,0.04-0.073c0.013-0.026,0.024-0.053,0.034-0.08
				c0.012-0.027,0.02-0.055,0.027-0.083c0.007-0.028,0.014-0.057,0.02-0.086c0.005-0.03,0.008-0.06,0.011-0.091
				c0.003-0.03,0.004-0.063,0.004-0.095l0.002-1.298c0.001-0.035-0.001-0.069-0.003-0.102C10.143,7.193,10.139,7.16,10.134,7.127z
				 M10.951,1.842L5.879,3.156l0.088,7.532l5.997,1.655L12.02,4.43l4.947-1.465L10.951,1.842z M11.696,9.011
				c0,0.1-0.005,0.199-0.014,0.294c-0.008,0.095-0.021,0.189-0.037,0.279c-0.017,0.091-0.036,0.179-0.061,0.265
				s-0.052,0.168-0.083,0.248c-0.03,0.08-0.065,0.155-0.102,0.228s-0.075,0.141-0.118,0.207c-0.042,0.065-0.087,0.128-0.135,0.187
				c-0.046,0.059-0.098,0.114-0.15,0.165c-0.053,0.052-0.107,0.1-0.164,0.143c-0.058,0.043-0.117,0.083-0.178,0.118
				c-0.062,0.035-0.125,0.066-0.189,0.093c-0.066,0.026-0.133,0.049-0.202,0.067c-0.069,0.019-0.14,0.032-0.212,0.041
				c-0.071,0.008-0.145,0.012-0.218,0.01c-0.073-0.001-0.148-0.007-0.224-0.019c-0.076-0.01-0.151-0.027-0.229-0.048L6.219,10.42
				L6.141,3.54l3.234,0.677c0.078,0.016,0.157,0.038,0.233,0.063c0.078,0.026,0.153,0.057,0.229,0.092
				c0.075,0.035,0.15,0.075,0.224,0.12c0.072,0.045,0.145,0.094,0.215,0.148s0.14,0.111,0.206,0.171
				c0.065,0.061,0.13,0.125,0.193,0.191c0.062,0.067,0.121,0.138,0.179,0.211c0.059,0.074,0.114,0.151,0.167,0.231
				c0.053,0.079,0.103,0.161,0.15,0.245c0.048,0.084,0.092,0.171,0.135,0.259c0.041,0.088,0.08,0.179,0.116,0.271
				s0.069,0.187,0.102,0.282c0.03,0.097,0.057,0.195,0.079,0.294c0.023,0.098,0.043,0.198,0.058,0.298
				c0.016,0.1,0.026,0.199,0.034,0.3c0.006,0.101,0.01,0.202,0.009,0.302L11.696,9.011z M15.197,3.174
				c-0.013,0.021-0.031,0.043-0.054,0.064c-0.023,0.021-0.051,0.042-0.083,0.063c-0.031,0.021-0.068,0.041-0.111,0.061
				c-0.041,0.02-0.088,0.04-0.14,0.059s-0.107,0.037-0.168,0.055l-2.679,0.791L6.474,3.13l2.74-0.712
				c0.063-0.016,0.127-0.031,0.195-0.045c0.067-0.015,0.138-0.028,0.21-0.041c0.073-0.012,0.147-0.024,0.226-0.035
				c0.077-0.011,0.157-0.021,0.238-0.029c0.082-0.009,0.165-0.017,0.247-0.023c0.084-0.007,0.169-0.013,0.253-0.018
				c0.086-0.005,0.172-0.009,0.26-0.012c0.086-0.003,0.174-0.005,0.262-0.007c0.089-0.001,0.177-0.001,0.264-0.001
				c0.088,0,0.177,0.002,0.264,0.004c0.088,0.002,0.176,0.005,0.263,0.01c0.088,0.004,0.175,0.009,0.262,0.015
				c0.088,0.006,0.174,0.013,0.259,0.021c0.084,0.008,0.168,0.017,0.249,0.027c0.082,0.01,0.162,0.021,0.238,0.033
				c0.079,0.012,0.155,0.025,0.229,0.039l0.981,0.184c0.075,0.014,0.147,0.029,0.216,0.044s0.134,0.032,0.194,0.048
				c0.063,0.017,0.12,0.034,0.174,0.052C14.75,2.702,14.8,2.72,14.845,2.74c0.045,0.019,0.086,0.038,0.124,0.058
				c0.037,0.02,0.07,0.04,0.1,0.06c0.03,0.02,0.056,0.041,0.077,0.062c0.021,0.021,0.039,0.041,0.052,0.062
				c0.013,0.021,0.022,0.043,0.027,0.064c0.004,0.021,0.004,0.043,0,0.064C15.221,3.131,15.21,3.152,15.197,3.174z M13.299,2.994
				c-0.007-0.007-0.015-0.015-0.025-0.022c-0.01-0.007-0.021-0.014-0.034-0.021c-0.013-0.007-0.026-0.014-0.042-0.021
				c-0.017-0.007-0.033-0.013-0.05-0.019C13.13,2.905,13.11,2.9,13.092,2.894c-0.021-0.006-0.041-0.011-0.063-0.017
				c-0.023-0.005-0.047-0.011-0.071-0.015l-0.987-0.19c-0.025-0.004-0.052-0.009-0.078-0.013c-0.028-0.004-0.054-0.008-0.082-0.012
				c-0.026-0.003-0.055-0.006-0.082-0.009c-0.029-0.003-0.058-0.005-0.087-0.007c-0.029-0.002-0.06-0.004-0.091-0.005
				c-0.03-0.001-0.061-0.002-0.093-0.003c-0.03-0.001-0.062-0.001-0.093-0.001c-0.032,0-0.063,0-0.095,0
				c-0.031,0.001-0.063,0.001-0.093,0.003c-0.031,0.001-0.061,0.002-0.092,0.004c-0.029,0.002-0.058,0.004-0.088,0.006
				c-0.028,0.002-0.058,0.005-0.085,0.009c-0.027,0.002-0.054,0.006-0.079,0.01c-0.026,0.003-0.049,0.007-0.073,0.011
				c-0.023,0.004-0.047,0.008-0.067,0.014c-0.022,0.004-0.044,0.01-0.064,0.015L9.176,3.084l2.507,0.504l1.437-0.409
				c0.021-0.006,0.042-0.013,0.06-0.019s0.033-0.012,0.048-0.019c0.014-0.006,0.027-0.013,0.038-0.019
				c0.011-0.007,0.021-0.014,0.028-0.021c0.009-0.007,0.015-0.015,0.02-0.021c0.006-0.007,0.01-0.014,0.01-0.021
				c0.003-0.007,0.003-0.015,0.002-0.021c-0.002-0.007-0.003-0.014-0.008-0.021C13.312,3.008,13.306,3.001,13.299,2.994z"/>
			<g>
				<path fill="#FFFFFF" fill-opacity="0.5" d="M15.555,6.376c-0.004-0.029-0.008-0.057-0.013-0.084s-0.012-0.053-0.02-0.079
					c-0.007-0.026-0.015-0.052-0.023-0.076c-0.01-0.024-0.02-0.047-0.03-0.07c-0.011-0.022-0.022-0.043-0.034-0.063
					c-0.013-0.02-0.026-0.039-0.039-0.057c-0.014-0.019-0.028-0.035-0.044-0.05c-0.015-0.016-0.029-0.029-0.045-0.042
					c-0.017-0.012-0.032-0.023-0.049-0.033c-0.018-0.01-0.036-0.018-0.054-0.025s-0.035-0.012-0.054-0.015
					c-0.018-0.003-0.036-0.005-0.055-0.005s-0.038,0.002-0.058,0.005s-0.039,0.008-0.059,0.015l-1.445,0.471l-0.038,3.26l1.43-0.529
					c0.021-0.008,0.042-0.018,0.063-0.027c0.021-0.011,0.041-0.023,0.06-0.036c0.02-0.013,0.037-0.027,0.056-0.043
					c0.02-0.016,0.037-0.033,0.055-0.051c0.019-0.02,0.036-0.04,0.053-0.061s0.033-0.043,0.05-0.066
					c0.017-0.022,0.032-0.047,0.046-0.071c0.015-0.025,0.029-0.051,0.044-0.079s0.027-0.055,0.039-0.084
					c0.013-0.029,0.025-0.058,0.036-0.088c0.012-0.03,0.022-0.061,0.032-0.092s0.02-0.063,0.027-0.096
					c0.009-0.032,0.016-0.063,0.022-0.095c0.007-0.031,0.012-0.063,0.017-0.094c0.004-0.031,0.008-0.063,0.01-0.093
					c0.003-0.032,0.004-0.063,0.005-0.095l0.022-1.262c0.001-0.034,0-0.066-0.001-0.098C15.56,6.436,15.558,6.406,15.555,6.376z"/>
				<path fill="#FFFFFF" fill-opacity="0.5" d="M12.02,4.43l-0.058,7.919l4.835-1.929l0.169-7.458L12.02,4.43z M16.688,7.416
					c-0.001,0.095-0.006,0.189-0.015,0.284c-0.007,0.094-0.018,0.188-0.03,0.282c-0.014,0.094-0.03,0.188-0.049,0.28
					s-0.04,0.185-0.064,0.277c-0.023,0.091-0.05,0.18-0.077,0.268c-0.028,0.088-0.06,0.174-0.091,0.259
					c-0.032,0.085-0.065,0.167-0.102,0.249c-0.037,0.082-0.074,0.161-0.115,0.238c-0.039,0.078-0.082,0.153-0.126,0.226
					c-0.043,0.073-0.089,0.144-0.135,0.211c-0.047,0.067-0.095,0.132-0.146,0.195s-0.103,0.122-0.155,0.178
					c-0.054,0.057-0.108,0.11-0.164,0.159c-0.055,0.049-0.111,0.094-0.169,0.136c-0.059,0.041-0.116,0.078-0.176,0.11
					c-0.059,0.032-0.118,0.061-0.18,0.085l-2.669,1.058l0.056-7.214l2.729-0.817c0.062-0.018,0.123-0.031,0.183-0.04
					c0.061-0.008,0.12-0.012,0.177-0.01c0.059,0.002,0.115,0.008,0.171,0.02c0.055,0.011,0.109,0.028,0.163,0.049
					c0.054,0.021,0.104,0.046,0.154,0.076c0.049,0.029,0.096,0.063,0.142,0.101s0.09,0.079,0.131,0.124
					c0.043,0.045,0.082,0.095,0.121,0.147c0.038,0.053,0.073,0.108,0.107,0.167c0.032,0.059,0.064,0.122,0.095,0.187
					c0.028,0.065,0.057,0.133,0.081,0.205c0.025,0.071,0.048,0.146,0.068,0.222c0.021,0.078,0.039,0.159,0.054,0.241
					s0.028,0.167,0.036,0.255c0.011,0.087,0.017,0.176,0.021,0.268s0.005,0.185,0.002,0.28L16.688,7.416z"/>
			</g>
		</g>
	</g>
</g>
</svg>
