<?xml version="1.0" encoding="utf-8"?>
<!-- Generator: Adobe Illustrator 16.0.3, SVG Export Plug-In . SVG Version: 6.00 Build 0)  -->
<!DOCTYPE svg PUBLIC "-//W3C//DTD SVG 1.1//EN" "http://www.w3.org/Graphics/SVG/1.1/DTD/svg11.dtd">
<svg version="1.1" xmlns="http://www.w3.org/2000/svg" xmlns:xlink="http://www.w3.org/1999/xlink" x="0px" y="0px" width="22.68px"
	 height="22.68px" viewBox="0 0 22.68 22.68" enable-background="new 0 0 22.68 22.68" xml:space="preserve">
<g id="BCGRND">
</g>
<g id="BAREVNE_POZADI_IKON">
	<rect x="0" y="0" fill="#585857" width="22.677" height="22.677"/>
</g>
<g id="IKONY">
	<g>
		<g>
			<rect x="0.003" y="14.019" fill="#FFFFFF" width="22.676" height="0.889"/>
			<g>
				<g>
					<path fill="#FFFFFF" d="M5.541,19.741c-0.142,0.068-0.454,0.146-0.854,0.146c-1.045,0-1.68-0.654-1.68-1.66
						c0-1.084,0.757-1.738,1.763-1.738c0.396,0,0.674,0.083,0.796,0.146l-0.127,0.479c-0.156-0.068-0.376-0.127-0.645-0.127
						c-0.669,0-1.152,0.42-1.152,1.211c0,0.728,0.42,1.187,1.147,1.187c0.239,0,0.493-0.049,0.654-0.117L5.541,19.741z"/>
					<path fill="#FFFFFF" d="M6.017,16.367h0.602v3.467H6.017V16.367z"/>
					<path fill="#FFFFFF" d="M9.12,19.263c0,0.215,0.01,0.425,0.039,0.571H8.617l-0.044-0.264H8.558
						c-0.142,0.186-0.391,0.317-0.703,0.317c-0.479,0-0.747-0.347-0.747-0.708c0-0.596,0.532-0.903,1.411-0.898v-0.039
						c0-0.156-0.063-0.415-0.483-0.415c-0.234,0-0.479,0.073-0.64,0.176l-0.117-0.391c0.176-0.107,0.483-0.21,0.859-0.21
						c0.762,0,0.981,0.483,0.981,1.006V19.263z M8.534,18.672c-0.425-0.005-0.83,0.083-0.83,0.444c0,0.234,0.151,0.342,0.342,0.342
						c0.244,0,0.415-0.156,0.474-0.327c0.015-0.044,0.015-0.088,0.015-0.132V18.672z"/>
					<path fill="#FFFFFF" d="M9.733,19.278c0.132,0.083,0.391,0.176,0.605,0.176c0.264,0,0.381-0.112,0.381-0.269
						c0-0.161-0.098-0.239-0.391-0.347c-0.464-0.156-0.654-0.41-0.654-0.693c0-0.42,0.347-0.742,0.898-0.742
						c0.264,0,0.493,0.063,0.635,0.142l-0.122,0.42c-0.098-0.059-0.293-0.137-0.503-0.137c-0.215,0-0.332,0.107-0.332,0.254
						c0,0.151,0.112,0.22,0.415,0.332c0.435,0.151,0.63,0.371,0.635,0.723c0,0.435-0.337,0.747-0.967,0.747
						c-0.288,0-0.547-0.068-0.723-0.166L9.733,19.278z"/>
					<path fill="#FFFFFF" d="M11.771,19.278c0.133,0.083,0.391,0.176,0.605,0.176c0.264,0,0.381-0.112,0.381-0.269
						c0-0.161-0.098-0.239-0.391-0.347c-0.463-0.156-0.654-0.41-0.654-0.693c0-0.42,0.348-0.742,0.898-0.742
						c0.264,0,0.494,0.063,0.635,0.142l-0.121,0.42c-0.098-0.059-0.293-0.137-0.504-0.137c-0.215,0-0.332,0.107-0.332,0.254
						c0,0.151,0.113,0.22,0.416,0.332c0.434,0.151,0.629,0.371,0.635,0.723c0,0.435-0.338,0.747-0.967,0.747
						c-0.289,0-0.547-0.068-0.723-0.166L11.771,19.278z"/>
					<path fill="#FFFFFF" d="M14.474,16.792c0,0.176-0.132,0.322-0.342,0.322c-0.2,0-0.332-0.146-0.332-0.322
						c0-0.186,0.137-0.327,0.337-0.327C14.342,16.465,14.469,16.607,14.474,16.792z M13.834,19.834v-2.378h0.601v2.378H13.834z"/>
					<path fill="#FFFFFF" d="M16.833,19.761c-0.127,0.059-0.375,0.122-0.674,0.122c-0.742,0-1.225-0.479-1.225-1.216
						c0-0.713,0.488-1.265,1.322-1.265c0.221,0,0.445,0.049,0.582,0.107l-0.107,0.454c-0.098-0.049-0.24-0.093-0.455-0.093
						c-0.459,0-0.732,0.337-0.727,0.771c0,0.488,0.316,0.767,0.727,0.767c0.205,0,0.357-0.044,0.475-0.093L16.833,19.761z"/>
					<path fill="#FFFFFF" d="M19.498,18.623c0,0.874-0.615,1.265-1.221,1.265c-0.668,0-1.191-0.459-1.191-1.226
						c0-0.781,0.514-1.26,1.23-1.26C19.025,17.403,19.498,17.901,19.498,18.623z M17.707,18.648c0,0.459,0.229,0.806,0.59,0.806
						c0.342,0,0.582-0.332,0.582-0.815c0-0.371-0.166-0.801-0.576-0.801C17.876,17.837,17.707,18.252,17.707,18.648z"/>
				</g>
			</g>
		</g>
		<g>
			<path fill="#FFFFFF" d="M10.135,7.127c-0.005-0.032-0.012-0.065-0.019-0.096C10.109,6.999,10.1,6.968,10.09,6.937
				c-0.01-0.033-0.021-0.063-0.034-0.095c-0.012-0.031-0.026-0.061-0.04-0.091C10.001,6.72,9.987,6.691,9.97,6.662
				C9.954,6.633,9.936,6.605,9.917,6.577C9.899,6.55,9.879,6.524,9.861,6.498c-0.02-0.025-0.04-0.049-0.062-0.072
				C9.78,6.403,9.757,6.382,9.735,6.361S9.691,6.32,9.667,6.302C9.643,6.284,9.621,6.268,9.598,6.253
				C9.574,6.238,9.551,6.225,9.527,6.214C9.502,6.201,9.479,6.191,9.454,6.183c-0.024-0.009-0.05-0.016-0.075-0.022L7.613,5.76
				l0.021,3.198l1.747,0.449C9.409,9.415,9.434,9.42,9.46,9.424c0.025,0.003,0.05,0.005,0.074,0.005s0.049-0.001,0.071-0.004
				C9.63,9.421,9.654,9.416,9.675,9.409c0.023-0.006,0.046-0.015,0.067-0.024c0.021-0.01,0.042-0.021,0.063-0.033
				c0.02-0.012,0.039-0.026,0.058-0.042C9.881,9.296,9.9,9.279,9.917,9.26c0.018-0.019,0.035-0.038,0.051-0.058
				c0.016-0.021,0.03-0.043,0.044-0.066c0.016-0.023,0.028-0.047,0.04-0.073c0.013-0.026,0.024-0.053,0.034-0.08
				c0.012-0.027,0.02-0.055,0.027-0.083c0.007-0.028,0.014-0.057,0.02-0.086c0.005-0.03,0.008-0.06,0.011-0.091
				c0.003-0.03,0.004-0.063,0.004-0.095l0.002-1.298c0.001-0.035-0.001-0.069-0.003-0.102C10.144,7.193,10.14,7.16,10.135,7.127z
				 M10.953,1.842L5.88,3.156l0.088,7.532l5.997,1.655l0.056-7.913l4.947-1.465L10.953,1.842z M11.698,9.011
				c0,0.1-0.005,0.199-0.014,0.294c-0.008,0.095-0.021,0.189-0.037,0.279c-0.017,0.091-0.036,0.179-0.061,0.265
				s-0.052,0.168-0.083,0.248c-0.03,0.08-0.065,0.155-0.102,0.228s-0.075,0.141-0.118,0.207c-0.042,0.065-0.087,0.128-0.135,0.187
				c-0.046,0.059-0.098,0.114-0.15,0.165c-0.053,0.052-0.107,0.1-0.164,0.143c-0.058,0.043-0.117,0.083-0.178,0.118
				c-0.062,0.035-0.125,0.066-0.189,0.093c-0.066,0.026-0.133,0.049-0.202,0.067c-0.069,0.019-0.14,0.032-0.212,0.041
				c-0.071,0.008-0.145,0.012-0.218,0.01c-0.073-0.001-0.148-0.007-0.224-0.019c-0.076-0.01-0.151-0.027-0.229-0.048L6.22,10.42
				L6.142,3.54l3.234,0.677C9.455,4.233,9.534,4.255,9.61,4.281c0.078,0.026,0.153,0.057,0.229,0.092
				c0.075,0.035,0.15,0.075,0.224,0.12c0.072,0.045,0.145,0.094,0.215,0.148s0.14,0.111,0.206,0.171
				c0.065,0.061,0.13,0.125,0.193,0.191c0.062,0.067,0.121,0.138,0.179,0.211c0.059,0.074,0.114,0.151,0.167,0.231
				c0.053,0.079,0.103,0.161,0.15,0.245c0.048,0.084,0.092,0.171,0.135,0.259c0.041,0.088,0.08,0.179,0.116,0.271
				s0.069,0.187,0.102,0.282c0.03,0.097,0.057,0.195,0.079,0.294c0.023,0.098,0.043,0.198,0.058,0.298
				c0.016,0.1,0.026,0.199,0.034,0.3c0.006,0.101,0.01,0.202,0.009,0.302L11.698,9.011z M15.199,3.174
				c-0.013,0.021-0.031,0.043-0.054,0.064c-0.023,0.021-0.051,0.042-0.083,0.063c-0.031,0.021-0.068,0.041-0.111,0.061
				c-0.041,0.02-0.088,0.04-0.14,0.059s-0.107,0.037-0.168,0.055l-2.679,0.791L6.475,3.13l2.74-0.712
				c0.063-0.016,0.127-0.031,0.195-0.045c0.067-0.015,0.138-0.028,0.21-0.041c0.073-0.012,0.147-0.024,0.226-0.035
				c0.077-0.011,0.157-0.021,0.238-0.029c0.082-0.009,0.165-0.017,0.247-0.023c0.084-0.007,0.169-0.013,0.253-0.018
				c0.086-0.005,0.172-0.009,0.26-0.012c0.086-0.003,0.174-0.005,0.262-0.007c0.089-0.001,0.177-0.001,0.264-0.001
				c0.088,0,0.177,0.002,0.264,0.004c0.088,0.002,0.176,0.005,0.263,0.01c0.088,0.004,0.175,0.009,0.262,0.015
				c0.088,0.006,0.174,0.013,0.259,0.021c0.084,0.008,0.168,0.017,0.249,0.027c0.082,0.01,0.162,0.021,0.238,0.033
				c0.079,0.012,0.155,0.025,0.229,0.039l0.981,0.184c0.075,0.014,0.147,0.029,0.216,0.044s0.134,0.032,0.194,0.048
				c0.063,0.017,0.12,0.034,0.174,0.052c0.053,0.018,0.103,0.037,0.147,0.056c0.045,0.019,0.086,0.038,0.124,0.058
				c0.037,0.02,0.07,0.04,0.1,0.06c0.03,0.02,0.056,0.041,0.077,0.062c0.021,0.021,0.039,0.041,0.052,0.062
				c0.013,0.021,0.022,0.043,0.027,0.064c0.004,0.021,0.004,0.043,0,0.064C15.222,3.131,15.211,3.152,15.199,3.174z M13.3,2.994
				c-0.007-0.007-0.015-0.015-0.025-0.022c-0.01-0.007-0.021-0.014-0.034-0.021c-0.013-0.007-0.026-0.014-0.042-0.021
				c-0.017-0.007-0.033-0.013-0.05-0.019c-0.018-0.006-0.037-0.012-0.056-0.018c-0.021-0.006-0.041-0.011-0.063-0.017
				c-0.023-0.005-0.047-0.011-0.071-0.015l-0.987-0.19c-0.025-0.004-0.052-0.009-0.078-0.013c-0.028-0.004-0.054-0.008-0.082-0.012
				c-0.026-0.003-0.055-0.006-0.082-0.009c-0.029-0.003-0.058-0.005-0.087-0.007c-0.029-0.002-0.06-0.004-0.091-0.005
				c-0.03-0.001-0.061-0.002-0.093-0.003c-0.03-0.001-0.062-0.001-0.093-0.001c-0.032,0-0.063,0-0.095,0
				c-0.031,0.001-0.063,0.001-0.093,0.003c-0.031,0.001-0.061,0.002-0.092,0.004c-0.029,0.002-0.058,0.004-0.088,0.006
				c-0.028,0.002-0.058,0.005-0.085,0.009c-0.027,0.002-0.054,0.006-0.079,0.01c-0.026,0.003-0.049,0.007-0.073,0.011
				c-0.023,0.004-0.047,0.008-0.067,0.014c-0.022,0.004-0.044,0.01-0.064,0.015L9.177,3.084l2.507,0.504l1.437-0.409
				c0.021-0.006,0.042-0.013,0.06-0.019s0.033-0.012,0.048-0.019c0.014-0.006,0.027-0.013,0.038-0.019
				c0.011-0.007,0.021-0.014,0.028-0.021c0.009-0.007,0.015-0.015,0.02-0.021c0.006-0.007,0.01-0.014,0.01-0.021
				c0.003-0.007,0.003-0.015,0.002-0.021c-0.002-0.007-0.003-0.014-0.008-0.021C13.313,3.008,13.307,3.001,13.3,2.994z"/>
			<g>
				<path fill="#FFFFFF" fill-opacity="0.5" d="M15.556,6.376c-0.004-0.029-0.008-0.057-0.013-0.084s-0.012-0.053-0.02-0.079
					c-0.007-0.026-0.015-0.052-0.023-0.076c-0.01-0.024-0.02-0.047-0.03-0.07c-0.011-0.022-0.022-0.043-0.034-0.063
					c-0.013-0.02-0.026-0.039-0.039-0.057c-0.014-0.019-0.028-0.035-0.044-0.05c-0.015-0.016-0.029-0.029-0.045-0.042
					c-0.017-0.012-0.032-0.023-0.049-0.033c-0.018-0.01-0.036-0.018-0.054-0.025s-0.035-0.012-0.054-0.015
					c-0.018-0.003-0.036-0.005-0.055-0.005s-0.038,0.002-0.058,0.005S15,5.79,14.981,5.797l-1.445,0.471l-0.038,3.26l1.43-0.529
					c0.021-0.008,0.042-0.018,0.063-0.027c0.021-0.011,0.041-0.023,0.06-0.036c0.02-0.013,0.037-0.027,0.056-0.043
					c0.02-0.016,0.037-0.033,0.055-0.051c0.019-0.02,0.036-0.04,0.053-0.061s0.033-0.043,0.05-0.066
					c0.017-0.022,0.032-0.047,0.046-0.071c0.015-0.025,0.029-0.051,0.044-0.079s0.027-0.055,0.039-0.084
					c0.013-0.029,0.025-0.058,0.036-0.088c0.012-0.03,0.022-0.061,0.032-0.092s0.02-0.063,0.027-0.096
					c0.009-0.032,0.016-0.063,0.022-0.095c0.007-0.031,0.012-0.063,0.017-0.094c0.004-0.031,0.008-0.063,0.01-0.093
					c0.003-0.032,0.004-0.063,0.005-0.095l0.022-1.262c0.001-0.034,0-0.066-0.001-0.098C15.561,6.436,15.559,6.406,15.556,6.376z"/>
				<path fill="#FFFFFF" fill-opacity="0.5" d="M12.021,4.43l-0.058,7.919l4.835-1.929l0.169-7.458L12.021,4.43z M16.69,7.416
					c-0.001,0.095-0.006,0.189-0.015,0.284c-0.007,0.094-0.018,0.188-0.03,0.282c-0.014,0.094-0.03,0.188-0.049,0.28
					s-0.04,0.185-0.064,0.277c-0.023,0.091-0.05,0.18-0.077,0.268c-0.028,0.088-0.06,0.174-0.091,0.259
					c-0.032,0.085-0.065,0.167-0.102,0.249c-0.037,0.082-0.074,0.161-0.115,0.238c-0.039,0.078-0.082,0.153-0.126,0.226
					c-0.043,0.073-0.089,0.144-0.135,0.211c-0.047,0.067-0.095,0.132-0.146,0.195s-0.103,0.122-0.155,0.178
					c-0.054,0.057-0.108,0.11-0.164,0.159c-0.055,0.049-0.111,0.094-0.169,0.136c-0.059,0.041-0.116,0.078-0.176,0.11
					c-0.059,0.032-0.118,0.061-0.18,0.085l-2.669,1.058l0.056-7.214l2.729-0.817c0.062-0.018,0.123-0.031,0.183-0.04
					c0.061-0.008,0.12-0.012,0.177-0.01c0.059,0.002,0.115,0.008,0.171,0.02c0.055,0.011,0.109,0.028,0.163,0.049
					c0.054,0.021,0.104,0.046,0.154,0.076c0.049,0.029,0.096,0.063,0.142,0.101s0.09,0.079,0.131,0.124
					c0.043,0.045,0.082,0.095,0.121,0.147c0.038,0.053,0.073,0.108,0.107,0.167c0.032,0.059,0.064,0.122,0.095,0.187
					c0.028,0.065,0.057,0.133,0.081,0.205c0.025,0.071,0.048,0.146,0.068,0.222c0.021,0.078,0.039,0.159,0.054,0.241
					s0.028,0.167,0.036,0.255c0.011,0.087,0.017,0.176,0.021,0.268s0.005,0.185,0.002,0.28L16.69,7.416z"/>
			</g>
		</g>
	</g>
</g>
</svg>
