<?xml version="1.0" encoding="utf-8"?>
<!-- Generator: Adobe Illustrator 16.0.3, SVG Export Plug-In . SVG Version: 6.00 Build 0)  -->
<!DOCTYPE svg PUBLIC "-//W3C//DTD SVG 1.1//EN" "http://www.w3.org/Graphics/SVG/1.1/DTD/svg11.dtd">
<svg version="1.1" xmlns="http://www.w3.org/2000/svg" xmlns:xlink="http://www.w3.org/1999/xlink" x="0px" y="0px" width="22.68px"
	 height="22.68px" viewBox="0 0 22.68 22.68" enable-background="new 0 0 22.68 22.68" xml:space="preserve">
<g id="BCGRND">
</g>
<g id="BAREVNE_POZADI_IKON">
	<rect x="0.001" y="0" fill="#585857" width="22.677" height="22.677"/>
</g>
<g id="IKONY">
	<g>
		<g>
			<g>
				<rect x="0.004" y="14.019" fill="#FFFFFF" width="22.676" height="0.889"/>
			</g>
			<g>
				<path fill="#FFFFFF" d="M4.621,16.542h1.904v0.493H5.221v0.908h1.211v0.488H5.221v1.401H4.621V16.542z"/>
				<path fill="#FFFFFF" d="M9.062,19.12c0,0.283,0.01,0.518,0.02,0.713H8.559L8.53,19.477H8.515
					c-0.103,0.166-0.337,0.41-0.767,0.41s-0.825-0.259-0.825-1.035v-1.396h0.601v1.294c0,0.396,0.127,0.649,0.444,0.649
					c0.244,0,0.4-0.166,0.459-0.322c0.024-0.049,0.034-0.117,0.034-0.186v-1.436h0.601V19.12z"/>
				<path fill="#FFFFFF" d="M9.691,19.277c0.131,0.083,0.391,0.176,0.605,0.176c0.264,0,0.381-0.112,0.381-0.269
					c0-0.161-0.098-0.239-0.391-0.347c-0.465-0.156-0.654-0.41-0.654-0.693c0-0.42,0.346-0.742,0.898-0.742
					c0.264,0,0.492,0.063,0.635,0.142l-0.123,0.42c-0.098-0.059-0.293-0.137-0.502-0.137c-0.215,0-0.332,0.107-0.332,0.254
					c0,0.151,0.111,0.22,0.414,0.332c0.436,0.151,0.631,0.371,0.635,0.723c0,0.435-0.336,0.747-0.967,0.747
					c-0.287,0-0.547-0.068-0.723-0.166L9.691,19.277z"/>
				<path fill="#FFFFFF" d="M12.393,16.791c0,0.176-0.132,0.322-0.342,0.322c-0.2,0-0.332-0.146-0.332-0.322
					c0-0.186,0.137-0.327,0.337-0.327C12.261,16.464,12.388,16.606,12.393,16.791z M11.753,19.833v-2.378h0.601v2.378H11.753z"/>
				<path fill="#FFFFFF" d="M15.265,18.622c0,0.874-0.615,1.265-1.221,1.265c-0.668,0-1.191-0.459-1.191-1.226
					c0-0.781,0.514-1.26,1.23-1.26C14.792,17.402,15.265,17.9,15.265,18.622z M13.474,18.647c0,0.459,0.229,0.806,0.59,0.806
					c0.342,0,0.582-0.332,0.582-0.815c0-0.371-0.166-0.801-0.576-0.801C13.644,17.836,13.474,18.251,13.474,18.647z"/>
				<path fill="#FFFFFF" d="M15.763,18.163c0-0.273-0.01-0.503-0.02-0.708h0.521l0.029,0.356h0.016
					c0.107-0.186,0.365-0.41,0.762-0.41c0.414,0,0.844,0.269,0.844,1.021v1.411h-0.6V18.49c0-0.342-0.127-0.601-0.455-0.601
					c-0.238,0-0.404,0.171-0.469,0.352c-0.02,0.049-0.029,0.122-0.029,0.19v1.401h-0.6V18.163z"/>
			</g>
		</g>
		<g>
			<g>
				<path fill="#FFFFFF" d="M10.136,7.127c-0.005-0.033-0.012-0.065-0.019-0.097c-0.008-0.032-0.017-0.063-0.026-0.095
					c-0.01-0.032-0.021-0.063-0.034-0.095c-0.012-0.03-0.026-0.062-0.04-0.091c-0.015-0.031-0.029-0.06-0.046-0.088
					C9.955,6.633,9.937,6.605,9.918,6.576C9.9,6.549,9.88,6.524,9.862,6.498c-0.02-0.025-0.04-0.05-0.062-0.072
					C9.781,6.403,9.758,6.381,9.736,6.36C9.713,6.339,9.692,6.32,9.667,6.301C9.644,6.283,9.622,6.268,9.599,6.252
					C9.575,6.238,9.552,6.225,9.528,6.213S9.48,6.191,9.455,6.182C9.43,6.174,9.405,6.166,9.379,6.16l-1.766-0.4l0.021,3.197
					l1.747,0.449C9.41,9.414,9.435,9.419,9.461,9.423c0.025,0.003,0.05,0.005,0.074,0.005s0.049-0.001,0.071-0.004
					C9.631,9.42,9.655,9.416,9.676,9.408C9.7,9.403,9.722,9.395,9.744,9.385s0.042-0.021,0.063-0.033
					c0.02-0.012,0.039-0.025,0.058-0.041S9.901,9.278,9.918,9.26c0.018-0.019,0.035-0.038,0.051-0.059
					C9.985,9.18,10,9.158,10.013,9.135c0.016-0.023,0.028-0.047,0.04-0.072c0.013-0.027,0.024-0.053,0.034-0.08
					c0.012-0.027,0.02-0.055,0.027-0.084c0.007-0.027,0.014-0.057,0.02-0.086c0.005-0.029,0.008-0.06,0.011-0.092
					c0.003-0.029,0.004-0.063,0.004-0.094l0.002-1.299c0.001-0.035-0.001-0.068-0.003-0.102C10.145,7.193,10.141,7.159,10.136,7.127
					z M10.954,1.842L5.881,3.156l0.088,7.531l5.997,1.655l0.056-7.913l4.947-1.465L10.954,1.842z M11.699,9.01
					c0,0.101-0.005,0.199-0.014,0.295c-0.008,0.095-0.021,0.188-0.037,0.279c-0.017,0.09-0.036,0.179-0.061,0.264
					c-0.024,0.086-0.052,0.168-0.083,0.248c-0.03,0.08-0.065,0.155-0.102,0.228s-0.075,0.142-0.118,0.207
					c-0.042,0.065-0.087,0.128-0.135,0.187c-0.046,0.059-0.098,0.114-0.15,0.166c-0.053,0.051-0.107,0.1-0.164,0.143
					c-0.058,0.043-0.117,0.083-0.178,0.118c-0.062,0.034-0.125,0.066-0.189,0.093c-0.066,0.027-0.133,0.05-0.202,0.068
					c-0.069,0.018-0.14,0.031-0.212,0.04c-0.071,0.009-0.145,0.012-0.218,0.011c-0.073-0.002-0.148-0.008-0.224-0.02
					c-0.076-0.01-0.151-0.027-0.229-0.048L6.221,10.42L6.143,3.539l3.234,0.678C9.456,4.233,9.535,4.254,9.611,4.28
					C9.689,4.306,9.764,4.336,9.84,4.372c0.075,0.035,0.15,0.075,0.224,0.12c0.072,0.045,0.145,0.094,0.215,0.147
					s0.14,0.11,0.206,0.171c0.065,0.061,0.13,0.125,0.193,0.191c0.062,0.068,0.121,0.139,0.179,0.211
					c0.059,0.074,0.114,0.151,0.167,0.231c0.053,0.079,0.103,0.161,0.15,0.245s0.092,0.17,0.135,0.258
					c0.041,0.089,0.08,0.18,0.116,0.271s0.069,0.187,0.102,0.282c0.03,0.097,0.057,0.195,0.079,0.294
					c0.023,0.098,0.043,0.197,0.058,0.298c0.016,0.1,0.026,0.199,0.034,0.3c0.006,0.102,0.01,0.202,0.009,0.303L11.699,9.01z
					 M15.2,3.173c-0.013,0.021-0.031,0.043-0.054,0.063C15.123,3.258,15.095,3.28,15.063,3.3c-0.031,0.021-0.068,0.041-0.111,0.061
					c-0.041,0.021-0.088,0.04-0.14,0.059s-0.107,0.037-0.168,0.056l-2.679,0.791L6.476,3.129l2.74-0.712
					c0.063-0.017,0.127-0.031,0.195-0.046c0.067-0.015,0.138-0.027,0.21-0.041c0.073-0.012,0.147-0.023,0.226-0.035
					c0.077-0.01,0.157-0.02,0.238-0.029c0.082-0.008,0.165-0.016,0.247-0.023c0.084-0.006,0.169-0.012,0.253-0.018
					c0.086-0.005,0.172-0.01,0.26-0.012c0.086-0.004,0.174-0.006,0.262-0.008c0.089,0,0.177-0.001,0.264,0
					c0.088,0,0.177,0.002,0.264,0.004c0.088,0.002,0.176,0.006,0.263,0.01c0.088,0.004,0.175,0.01,0.262,0.016
					c0.088,0.006,0.174,0.013,0.259,0.021c0.084,0.008,0.168,0.016,0.249,0.026c0.082,0.011,0.162,0.021,0.238,0.033
					c0.079,0.013,0.155,0.024,0.229,0.039l0.981,0.184c0.075,0.015,0.147,0.028,0.216,0.044s0.134,0.032,0.194,0.049
					c0.063,0.017,0.12,0.034,0.174,0.053c0.053,0.018,0.103,0.036,0.147,0.056c0.045,0.019,0.086,0.038,0.124,0.058
					c0.037,0.02,0.07,0.04,0.1,0.06c0.03,0.021,0.056,0.041,0.077,0.062c0.021,0.021,0.039,0.041,0.052,0.063
					s0.022,0.043,0.027,0.064c0.004,0.021,0.004,0.043,0,0.063C15.223,3.13,15.212,3.152,15.2,3.173z M13.301,2.993
					c-0.007-0.007-0.015-0.015-0.025-0.022c-0.01-0.006-0.021-0.014-0.034-0.021S13.215,2.937,13.2,2.93
					c-0.017-0.007-0.033-0.013-0.05-0.02c-0.018-0.006-0.037-0.012-0.056-0.018c-0.021-0.006-0.041-0.01-0.063-0.016
					c-0.023-0.006-0.047-0.012-0.071-0.016l-0.987-0.189c-0.025-0.005-0.052-0.01-0.078-0.014c-0.028-0.004-0.054-0.008-0.082-0.012
					c-0.026-0.004-0.055-0.006-0.082-0.01c-0.029-0.002-0.058-0.004-0.087-0.006c-0.029-0.003-0.06-0.004-0.091-0.006
					c-0.03-0.002-0.061-0.002-0.093-0.004c-0.03,0-0.062-0.001-0.093-0.001c-0.032,0-0.063,0-0.095,0.001
					c-0.031,0-0.063,0.001-0.093,0.002c-0.031,0.002-0.061,0.003-0.092,0.004C11.058,2.629,11.03,2.632,11,2.634
					c-0.028,0.003-0.058,0.005-0.085,0.009c-0.027,0.002-0.054,0.006-0.079,0.01c-0.026,0.004-0.049,0.008-0.073,0.012
					c-0.023,0.004-0.047,0.008-0.067,0.014c-0.022,0.004-0.044,0.01-0.064,0.015L9.178,3.083l2.507,0.504l1.437-0.409
					c0.021-0.006,0.042-0.013,0.06-0.019s0.033-0.013,0.048-0.019c0.014-0.006,0.027-0.014,0.038-0.02
					c0.011-0.007,0.021-0.014,0.028-0.021c0.009-0.007,0.015-0.015,0.02-0.021c0.006-0.007,0.01-0.015,0.01-0.021
					c0.003-0.008,0.003-0.016,0.002-0.021c-0.002-0.008-0.003-0.015-0.008-0.021C13.314,3.008,13.308,3,13.301,2.993z"/>
			</g>
			<g>
				<g opacity="0.5">
					<path fill="#FFFFFF" d="M15.557,6.375c-0.004-0.028-0.008-0.057-0.013-0.084s-0.012-0.053-0.02-0.078
						c-0.007-0.027-0.015-0.053-0.023-0.076c-0.01-0.024-0.02-0.048-0.03-0.07c-0.011-0.021-0.022-0.043-0.034-0.063
						c-0.013-0.021-0.026-0.039-0.039-0.058c-0.014-0.018-0.028-0.035-0.044-0.049c-0.015-0.016-0.029-0.029-0.045-0.043
						c-0.017-0.012-0.032-0.023-0.049-0.033c-0.018-0.01-0.036-0.018-0.054-0.024s-0.035-0.012-0.054-0.015
						c-0.018-0.004-0.036-0.006-0.055-0.006s-0.038,0.002-0.058,0.006c-0.02,0.002-0.039,0.008-0.059,0.015l-1.445,0.472
						l-0.038,3.26l1.43-0.529c0.021-0.009,0.042-0.018,0.063-0.027c0.021-0.012,0.041-0.023,0.06-0.037
						c0.02-0.013,0.037-0.027,0.056-0.043c0.02-0.016,0.037-0.032,0.055-0.051c0.019-0.02,0.036-0.039,0.053-0.061
						s0.033-0.043,0.05-0.066c0.017-0.021,0.032-0.047,0.046-0.07c0.015-0.025,0.029-0.052,0.044-0.079s0.027-0.056,0.039-0.084
						c0.013-0.028,0.025-0.058,0.036-0.088c0.012-0.03,0.022-0.062,0.032-0.093s0.02-0.063,0.027-0.096
						c0.009-0.031,0.016-0.063,0.022-0.094s0.012-0.063,0.017-0.095c0.004-0.03,0.008-0.063,0.01-0.093
						c0.003-0.033,0.004-0.064,0.005-0.096l0.022-1.262c0.001-0.034,0-0.066-0.001-0.098S15.56,6.406,15.557,6.375z"/>
				</g>
				<g opacity="0.5">
					<g>
						<path fill="#FFFFFF" d="M12.022,4.43l-0.058,7.919l4.835-1.929l0.169-7.457L12.022,4.43z M16.691,7.415
							c-0.001,0.095-0.006,0.189-0.015,0.284c-0.007,0.094-0.018,0.188-0.03,0.281c-0.014,0.094-0.03,0.188-0.049,0.28
							s-0.04,0.185-0.064,0.276c-0.023,0.092-0.05,0.181-0.077,0.268c-0.028,0.089-0.06,0.175-0.091,0.26
							c-0.032,0.084-0.065,0.167-0.102,0.248c-0.037,0.082-0.074,0.161-0.115,0.238c-0.039,0.078-0.082,0.154-0.126,0.227
							c-0.043,0.073-0.089,0.144-0.135,0.211c-0.047,0.068-0.095,0.133-0.146,0.195s-0.103,0.122-0.155,0.178
							c-0.054,0.057-0.108,0.111-0.164,0.16c-0.055,0.049-0.111,0.094-0.169,0.135c-0.059,0.041-0.116,0.078-0.176,0.111
							c-0.059,0.031-0.118,0.061-0.18,0.084l-2.669,1.059l0.056-7.214l2.729-0.817c0.062-0.018,0.123-0.031,0.183-0.04
							c0.061-0.009,0.12-0.012,0.177-0.011c0.059,0.002,0.115,0.009,0.171,0.021c0.055,0.011,0.109,0.028,0.163,0.05
							s0.104,0.046,0.154,0.076c0.049,0.029,0.096,0.063,0.142,0.1c0.046,0.038,0.09,0.079,0.131,0.125
							c0.043,0.045,0.082,0.094,0.121,0.146c0.038,0.053,0.073,0.109,0.107,0.168c0.032,0.059,0.064,0.122,0.095,0.188
							c0.028,0.064,0.057,0.133,0.081,0.205c0.025,0.07,0.048,0.145,0.068,0.222s0.039,0.159,0.054,0.241s0.028,0.168,0.036,0.255
							c0.011,0.087,0.017,0.177,0.021,0.268s0.005,0.185,0.002,0.28L16.691,7.415z"/>
					</g>
				</g>
			</g>
		</g>
	</g>
</g>
</svg>
