<?xml version="1.0" encoding="utf-8"?>
<!-- Generator: Adobe Illustrator 16.0.3, SVG Export Plug-In . SVG Version: 6.00 Build 0)  -->
<!DOCTYPE svg PUBLIC "-//W3C//DTD SVG 1.1//EN" "http://www.w3.org/Graphics/SVG/1.1/DTD/svg11.dtd">
<svg version="1.1" xmlns="http://www.w3.org/2000/svg" xmlns:xlink="http://www.w3.org/1999/xlink" x="0px" y="0px" width="22.68px"
	 height="22.68px" viewBox="0 0 22.68 22.68" enable-background="new 0 0 22.68 22.68" xml:space="preserve">
<g id="BCGRND">
</g>
<g id="BAREVNE_POZADI_IKON">
	<rect x="0" y="0" fill="#585857" width="22.676" height="22.678"/>
</g>
<g id="IKONY">
	<g>
		<g>
			<g>
				<rect x="0" y="11.956" fill="#FFFFFF" width="22.678" height="0.889"/>
			</g>
			<g>
				<path fill="#FFFFFF" d="M4.363,2.039C4.627,1.996,4.965,1.971,5.32,1.971c0.615,0,1.041,0.127,1.344,0.381
					c0.316,0.26,0.512,0.65,0.512,1.211c0,0.586-0.199,1.025-0.512,1.309c-0.328,0.299-0.85,0.449-1.49,0.449
					c-0.352,0-0.615-0.02-0.811-0.043V2.039z M4.965,4.828c0.082,0.014,0.209,0.014,0.332,0.014c0.781,0.006,1.244-0.424,1.244-1.26
					C6.547,2.856,6.127,2.44,5.375,2.44c-0.191,0-0.328,0.016-0.41,0.035V4.828z"/>
				<path fill="#FFFFFF" d="M8.103,4.266c0.015,0.43,0.352,0.615,0.732,0.615c0.278,0,0.479-0.039,0.659-0.107L9.583,5.19
					c-0.205,0.082-0.488,0.146-0.83,0.146c-0.771,0-1.226-0.475-1.226-1.201c0-0.66,0.4-1.279,1.162-1.279
					c0.771,0,1.025,0.635,1.025,1.156c0,0.113-0.01,0.201-0.02,0.254H8.103z M8.426,2.602L7.947,1.879h0.415l0.264,0.443h0.01
					l0.264-0.443h0.415L8.841,2.602H8.426z M9.148,3.846c0.005-0.219-0.093-0.58-0.493-0.58c-0.371,0-0.527,0.336-0.552,0.58H9.148z
					"/>
				<path fill="#FFFFFF" d="M10.889,2.231v0.678h0.571v0.449h-0.571v1.051c0,0.287,0.078,0.439,0.308,0.439
					c0.103,0,0.181-0.016,0.234-0.029l0.01,0.459c-0.088,0.033-0.244,0.059-0.435,0.059c-0.22,0-0.405-0.074-0.518-0.195
					c-0.127-0.137-0.186-0.352-0.186-0.664V3.358H9.962V2.908h0.342V2.371L10.889,2.231z"/>
				<path fill="#FFFFFF" d="M11.887,4.735c0.137,0.084,0.396,0.172,0.61,0.172c0.264,0,0.381-0.107,0.381-0.264
					c0-0.162-0.098-0.244-0.391-0.348c-0.464-0.16-0.659-0.414-0.654-0.693c0-0.42,0.347-0.746,0.898-0.746
					c0.264,0,0.493,0.068,0.63,0.141l-0.117,0.426c-0.103-0.059-0.293-0.137-0.503-0.137c-0.215,0-0.332,0.102-0.332,0.248
					c0,0.152,0.112,0.225,0.415,0.332c0.43,0.156,0.63,0.377,0.635,0.729c0,0.43-0.337,0.742-0.967,0.742
					c-0.288,0-0.547-0.068-0.723-0.166L11.887,4.735z"/>
				<path fill="#FFFFFF" d="M14.556,3.953h0.01c0.059-0.092,0.127-0.195,0.19-0.277l0.576-0.768h0.723l-0.879,0.973l1.006,1.406
					h-0.737l-0.684-1.051l-0.205,0.24v0.811h-0.601V1.821h0.601V3.953z"/>
				<path fill="#FFFFFF" d="M17.836,5.287l-0.039-0.264h-0.015c-0.146,0.186-0.396,0.316-0.703,0.316
					c-0.479,0-0.747-0.346-0.747-0.707c0-0.602,0.532-0.904,1.411-0.898V3.696c0-0.156-0.063-0.416-0.483-0.416
					c-0.234,0-0.479,0.074-0.64,0.176l-0.117-0.391c0.176-0.107,0.483-0.209,0.859-0.209c0.762,0,0.981,0.482,0.981,1v0.859
					c0,0.215,0.01,0.426,0.034,0.572H17.836z M17.758,4.125c-0.425-0.01-0.83,0.082-0.83,0.443c0,0.234,0.151,0.342,0.342,0.342
					c0.239,0,0.415-0.156,0.469-0.326c0.015-0.045,0.02-0.094,0.02-0.133V4.125z M18.129,1.879l-0.601,0.723h-0.415l0.425-0.723
					H18.129z"/>
				<path fill="#FFFFFF" d="M3.176,8.199c0-0.313-0.01-0.566-0.02-0.791h0.527l0.029,0.367h0.01c0.176-0.27,0.454-0.42,0.815-0.42
					c0.547,0,1.001,0.469,1.001,1.211c0,0.859-0.542,1.273-1.084,1.273c-0.298,0-0.547-0.127-0.669-0.316h-0.01v1.23H3.176V8.199z
					 M3.776,8.791c0,0.059,0.005,0.111,0.02,0.166c0.059,0.244,0.273,0.42,0.527,0.42c0.381,0,0.605-0.318,0.605-0.787
					c0-0.42-0.205-0.762-0.591-0.762c-0.249,0-0.479,0.182-0.537,0.445c-0.015,0.049-0.024,0.102-0.024,0.15V8.791z"/>
				<path fill="#FFFFFF" d="M8.297,8.576c0,0.873-0.615,1.264-1.221,1.264c-0.674,0-1.191-0.463-1.191-1.225
					c0-0.781,0.512-1.26,1.23-1.26C7.822,7.356,8.297,7.854,8.297,8.576z M6.504,8.6c0,0.459,0.225,0.807,0.592,0.807
					c0.342,0,0.58-0.338,0.58-0.816c0-0.371-0.166-0.795-0.576-0.795C6.676,7.795,6.504,8.205,6.504,8.6z"/>
				<path fill="#FFFFFF" d="M8.265,10.338c0.195-0.014,0.352-0.068,0.449-0.17c0.112-0.123,0.156-0.309,0.156-0.826V7.408h0.601
					v2.105c0,0.492-0.093,0.801-0.308,1.016c-0.21,0.195-0.542,0.277-0.84,0.277L8.265,10.338z M9.506,6.744
					c0,0.176-0.127,0.322-0.342,0.322c-0.2,0-0.327-0.146-0.327-0.322c0-0.186,0.132-0.326,0.337-0.326S9.506,6.559,9.506,6.744z"/>
				<path fill="#FFFFFF" d="M10.753,6.744c0,0.182-0.132,0.322-0.342,0.322c-0.2,0-0.332-0.141-0.332-0.322
					c0-0.186,0.137-0.326,0.337-0.326C10.621,6.418,10.748,6.559,10.753,6.744z M10.113,9.787V7.408h0.605v2.379H10.113z"/>
				<path fill="#FFFFFF" d="M11.336,9.235c0.137,0.084,0.395,0.172,0.609,0.172c0.264,0,0.381-0.107,0.381-0.264
					c0-0.162-0.098-0.244-0.391-0.348c-0.463-0.16-0.658-0.414-0.654-0.693c0-0.42,0.348-0.746,0.898-0.746
					c0.264,0,0.494,0.068,0.631,0.141l-0.117,0.426C12.59,7.864,12.4,7.785,12.189,7.785c-0.215,0-0.332,0.102-0.332,0.248
					c0,0.152,0.113,0.225,0.416,0.332c0.43,0.156,0.629,0.377,0.635,0.729c0,0.43-0.338,0.742-0.967,0.742
					c-0.289,0-0.547-0.068-0.723-0.166L11.336,9.235z"/>
				<path fill="#FFFFFF" d="M14.092,6.731v0.678h0.571v0.449h-0.571v1.051c0,0.287,0.078,0.439,0.308,0.439
					c0.103,0,0.181-0.016,0.234-0.029l0.01,0.459c-0.088,0.033-0.244,0.059-0.435,0.059c-0.22,0-0.405-0.074-0.518-0.195
					c-0.127-0.137-0.186-0.352-0.186-0.664V7.858h-0.342V7.408h0.342V6.871L14.092,6.731z"/>
				<path fill="#FFFFFF" d="M15.72,8.453h0.01c0.059-0.092,0.127-0.195,0.189-0.277l0.576-0.768h0.723L16.34,8.381l1.006,1.406
					h-0.736l-0.684-1.051l-0.205,0.24v0.811h-0.602V6.321h0.602V8.453z"/>
				<path fill="#FFFFFF" d="M19,9.787l-0.039-0.264h-0.016c-0.146,0.186-0.395,0.316-0.703,0.316c-0.479,0-0.746-0.346-0.746-0.707
					c0-0.602,0.531-0.904,1.41-0.898V8.196c0-0.156-0.063-0.416-0.482-0.416c-0.234,0-0.479,0.074-0.641,0.176l-0.117-0.391
					c0.176-0.107,0.484-0.209,0.859-0.209c0.762,0,0.982,0.482,0.982,1v0.859c0,0.215,0.01,0.426,0.033,0.572H19z M18.922,8.625
					c-0.426-0.01-0.83,0.082-0.83,0.443c0,0.234,0.15,0.342,0.342,0.342c0.238,0,0.414-0.156,0.469-0.326
					c0.014-0.045,0.02-0.094,0.02-0.133V8.625z"/>
			</g>
		</g>
		<g>
			<g opacity="0.5">
				<path fill="#FFFFFF" d="M14.544,16.838h-1.199V15.68c0-1.105-0.9-2.005-2.006-2.005s-2.006,0.899-2.006,2.005v1.158H8.134V15.68
					c0-1.767,1.438-3.204,3.205-3.204s3.205,1.438,3.205,3.204V16.838z"/>
			</g>
			<path fill="#FFFFFF" d="M14.929,16.256H7.748c-0.38,0-0.689,0.311-0.689,0.689v3.986c0,0.379,0.31,0.689,0.689,0.689h7.182
				c0.38,0,0.689-0.311,0.689-0.689v-3.986C15.619,16.567,15.309,16.256,14.929,16.256z M11.806,19.236v1.294h-0.934v-1.294
				c-0.38-0.177-0.646-0.558-0.646-1.004c0-0.614,0.497-1.113,1.112-1.113s1.114,0.499,1.114,1.113
				C12.453,18.678,12.186,19.059,11.806,19.236z"/>
		</g>
	</g>
</g>
</svg>
