<?xml version="1.0" encoding="utf-8"?>
<!-- Generator: Adobe Illustrator 16.0.3, SVG Export Plug-In . SVG Version: 6.00 Build 0)  -->
<!DOCTYPE svg PUBLIC "-//W3C//DTD SVG 1.1//EN" "http://www.w3.org/Graphics/SVG/1.1/DTD/svg11.dtd">
<svg version="1.1" id="Vrstva_1" xmlns="http://www.w3.org/2000/svg" xmlns:xlink="http://www.w3.org/1999/xlink" x="0px" y="0px"
	 width="22.677px" height="22.677px" viewBox="0 0 22.677 22.677" enable-background="new 0 0 22.677 22.677" xml:space="preserve">
<g>
	<rect fill="#585857" width="22.678" height="22.678"/>
	<g>
		<g>
			<g>
				<path fill="#FFFFFF" d="M5.197,2.323c0.264-0.044,0.6-0.068,0.957-0.068c0.615,0,1.039,0.127,1.342,0.381
					C7.814,2.895,8.01,3.285,8.01,3.847c0,0.586-0.201,1.025-0.514,1.309C7.17,5.453,6.646,5.604,6.008,5.604
					c-0.352,0-0.615-0.02-0.811-0.044V2.323z M5.797,5.111c0.084,0.015,0.211,0.015,0.332,0.015c0.781,0.005,1.246-0.425,1.246-1.26
					c0.004-0.728-0.416-1.143-1.168-1.143c-0.189,0-0.326,0.015-0.41,0.034V5.111z"/>
				<path fill="#FFFFFF" d="M9.215,2.528c0,0.181-0.132,0.322-0.342,0.322c-0.2,0-0.332-0.142-0.332-0.322
					c0-0.186,0.137-0.327,0.337-0.327C9.083,2.201,9.21,2.343,9.215,2.528z M8.575,5.57V3.192h0.605V5.57H8.575z"/>
				<path fill="#FFFFFF" d="M9.875,3.959c0-0.322-0.004-0.552-0.02-0.767h0.523l0.02,0.454h0.02
					c0.117-0.337,0.395-0.508,0.648-0.508c0.059,0,0.094,0.005,0.143,0.015V3.72C11.16,3.71,11.105,3.7,11.033,3.7
					c-0.289,0-0.484,0.186-0.537,0.454c-0.01,0.054-0.02,0.117-0.02,0.186v1.23H9.875V3.959z"/>
				<path fill="#FFFFFF" d="M12.046,4.55c0.015,0.43,0.352,0.615,0.732,0.615c0.278,0,0.479-0.039,0.659-0.107l0.088,0.415
					c-0.205,0.083-0.488,0.146-0.83,0.146c-0.771,0-1.226-0.474-1.226-1.201c0-0.659,0.4-1.279,1.162-1.279
					c0.771,0,1.025,0.635,1.025,1.157c0,0.112-0.01,0.2-0.02,0.254H12.046z M13.091,4.13c0.005-0.22-0.093-0.581-0.493-0.581
					c-0.371,0-0.527,0.337-0.552,0.581H13.091z"/>
				<path fill="#FFFFFF" d="M15.94,5.497c-0.127,0.059-0.376,0.122-0.674,0.122c-0.742,0-1.226-0.474-1.226-1.211
					c0-0.713,0.488-1.27,1.323-1.27c0.22,0,0.444,0.049,0.581,0.112L15.838,3.7c-0.098-0.044-0.239-0.093-0.454-0.093
					c-0.459,0-0.732,0.337-0.728,0.771c0,0.488,0.317,0.767,0.728,0.767c0.21,0,0.356-0.044,0.474-0.093L15.94,5.497z"/>
				<path fill="#FFFFFF" d="M17.198,2.514v0.679h0.571v0.449h-0.571v1.05c0,0.288,0.078,0.439,0.308,0.439
					c0.103,0,0.181-0.015,0.234-0.029l0.01,0.459c-0.088,0.034-0.244,0.059-0.435,0.059c-0.22,0-0.405-0.073-0.518-0.195
					c-0.127-0.137-0.186-0.352-0.186-0.664V3.642h-0.342V3.192h0.342V2.655L17.198,2.514z"/>
				<path fill="#FFFFFF" d="M5.16,9.416c0.195,0.112,0.488,0.21,0.796,0.21c0.386,0,0.601-0.181,0.601-0.449
					c0-0.249-0.166-0.396-0.586-0.547C5.429,8.435,5.082,8.146,5.082,7.673c0-0.537,0.449-0.947,1.162-0.947
					c0.356,0,0.62,0.078,0.791,0.166L6.889,7.375C6.771,7.312,6.542,7.219,6.234,7.219c-0.381,0-0.547,0.205-0.547,0.396
					c0,0.254,0.19,0.371,0.63,0.542c0.571,0.215,0.85,0.503,0.85,0.977c0,0.527-0.4,0.986-1.25,0.986
					c-0.347,0-0.708-0.098-0.889-0.205L5.16,9.416z"/>
				<path fill="#FFFFFF" d="M8.191,9.05c0.014,0.43,0.352,0.615,0.732,0.615c0.277,0,0.479-0.039,0.658-0.107L9.67,9.973
					c-0.205,0.083-0.488,0.146-0.83,0.146c-0.771,0-1.225-0.474-1.225-1.201c0-0.659,0.4-1.279,1.162-1.279
					c0.771,0,1.025,0.635,1.025,1.157c0,0.112-0.01,0.2-0.02,0.254H8.191z M9.236,8.63C9.24,8.41,9.143,8.049,8.742,8.049
					c-0.371,0-0.527,0.337-0.551,0.581H9.236z"/>
				<path fill="#FFFFFF" d="M10.338,6.604h0.605v3.467h-0.605V6.604z"/>
				<path fill="#FFFFFF" d="M12.068,9.05c0.014,0.43,0.352,0.615,0.732,0.615c0.277,0,0.479-0.039,0.658-0.107l0.088,0.415
					c-0.205,0.083-0.488,0.146-0.83,0.146c-0.771,0-1.225-0.474-1.225-1.201c0-0.659,0.4-1.279,1.162-1.279
					c0.771,0,1.025,0.635,1.025,1.157c0,0.112-0.01,0.2-0.02,0.254H12.068z M13.113,8.63c0.004-0.22-0.094-0.581-0.494-0.581
					c-0.371,0-0.527,0.337-0.551,0.581H13.113z"/>
				<path fill="#FFFFFF" d="M15.963,9.997c-0.127,0.059-0.377,0.122-0.674,0.122c-0.742,0-1.227-0.474-1.227-1.211
					c0-0.713,0.488-1.27,1.324-1.27c0.219,0,0.443,0.049,0.58,0.112L15.859,8.2c-0.098-0.044-0.238-0.093-0.453-0.093
					c-0.459,0-0.732,0.337-0.729,0.771c0,0.488,0.318,0.767,0.729,0.767c0.209,0,0.355-0.044,0.473-0.093L15.963,9.997z"/>
				<path fill="#FFFFFF" d="M17.221,7.014v0.679h0.57v0.449h-0.57v1.05c0,0.288,0.078,0.439,0.307,0.439
					c0.104,0,0.182-0.015,0.234-0.029l0.01,0.459c-0.088,0.034-0.244,0.059-0.434,0.059c-0.221,0-0.406-0.073-0.518-0.195
					c-0.127-0.137-0.186-0.352-0.186-0.664V8.142h-0.342V7.692h0.342V7.155L17.221,7.014z"/>
			</g>
		</g>
		<rect y="11.956" fill="#FFFFFF" width="22.678" height="0.889"/>
		<polygon fill="none" points="22.678,16.335 22.678,0 0,0 0,22.678 14.117,22.678 22.678,22.678 		"/>
		<g>
			<path fill="#A4A0A0" d="M15.024,15.909l-0.745,0.292c0,0-0.101,0.215-0.018,0.443c0.116,0.323,0.181,0.672,0.181,1.036
				c0,1.066-0.542,2.009-1.363,2.567h1.435c0.572-0.705,0.929-1.591,0.929-2.567C15.442,17.044,15.284,16.447,15.024,15.909z"/>
			<path fill="#A4A0A0" d="M17.1,15.256h-0.411l-0.594,0.233c0.31,0.669,0.494,1.407,0.494,2.191c0,0.938-0.267,1.805-0.699,2.567
				h1.142c0.355-0.784,0.558-1.651,0.558-2.567C17.589,16.821,17.414,16.002,17.1,15.256z"/>
			<path fill="#A4A0A0" d="M19.375,15.256h-1.056c0.265,0.761,0.416,1.574,0.416,2.425c0,0.903-0.171,1.767-0.469,2.567h1.063
				c0.262-0.81,0.405-1.672,0.405-2.567C19.735,16.838,19.607,16.024,19.375,15.256z"/>
			<path fill="#A4A0A0" d="M4.409,15.113H3.346c-0.262,0.81-0.405,1.672-0.405,2.567s0.144,1.758,0.405,2.567h1.063
				c-0.298-0.801-0.469-1.664-0.469-2.567S4.111,15.914,4.409,15.113z"/>
			<path fill="#A4A0A0" d="M21.591,15.256h-1.032c0.204,0.775,0.324,1.586,0.324,2.425c0,0.891-0.132,1.749-0.36,2.567h1.031
				c0.207-0.823,0.329-1.681,0.329-2.567C21.883,16.845,21.775,16.036,21.591,15.256z"/>
			<path fill="#A4A0A0" d="M2.154,15.113H1.123c-0.207,0.823-0.329,1.681-0.329,2.567s0.122,1.744,0.329,2.567h1.031
				c-0.229-0.818-0.36-1.677-0.36-2.567S1.926,15.932,2.154,15.113z"/>
			<path fill="#FFFFFF" d="M8.234,17.681c0-1.066,0.541-2.008,1.362-2.567H8.162c-0.571,0.705-0.928,1.591-0.928,2.567
				s0.357,1.862,0.929,2.567h1.435C8.775,19.689,8.234,18.747,8.234,17.681z"/>
			<path fill="#FFFFFF" d="M6.787,15.113H5.646c-0.354,0.784-0.558,1.651-0.558,2.567s0.203,1.783,0.558,2.567h1.142
				c-0.433-0.763-0.699-1.63-0.699-2.567S6.354,15.876,6.787,15.113z"/>
		</g>
		<g>
			<path fill="#FFFFFF" d="M10.348,18.14c-0.128-0.31-0.025-0.681,0.267-0.97l0.058-0.057l0.261-0.128
				c0.382-0.188,0.932-0.46,1.551-0.759c-0.316-0.25-0.711-0.404-1.145-0.404c-1.026,0-1.859,0.832-1.859,1.858
				s0.833,1.858,1.859,1.858c0.845,0,1.55-0.566,1.775-1.338c-0.785,0.276-1.415,0.432-1.842,0.432
				C10.645,18.633,10.424,18.323,10.348,18.14z"/>
		</g>
		<g>
			<path fill="#FFFFFF" d="M22.678,11.859c-0.35,0.304-0.563,0.488-0.563,0.488c-3.827-0.512-4.769-0.182-4.769-0.182l-0.947,0.398
				c0,0-0.722,0.354-1.35,0.631c-0.628,0.279-1.193,0.689-1.302,1.335c1.157-0.561,1.453-0.769,2.912-1.345
				c0.117-0.055,0.242,0.012,0.287,0.123c0.044,0.114-0.012,0.242-0.124,0.287c-1.768,0.697-2.181,0.983-3.217,1.494
				c-0.192,0.384-0.172,0.638-0.19,0.783c1.299-0.63,1.573-0.82,3.189-1.454c0.121-0.048,0.242,0.011,0.286,0.125
				c0.045,0.112-0.012,0.241-0.125,0.284c-1.71,0.672-4.752,2.182-5.8,2.697c-0.42,0.415-0.397,1.387,3.926-0.59
				c3.486-1.594,5.141-0.947,5.141-0.947c-0.252,0.295-0.242,0.74-2.689,1.555c-1.64,0.547-1.431,1.163-1.431,1.163
				c0.808,0.421,3.918-0.374,5.337-1.217c0.214-0.127,0.753-0.565,1.428-1.111v-0.043V11.859z"/>
		</g>
	</g>
</g>
</svg>
