<?xml version="1.0" encoding="utf-8"?>
<!-- Generator: Adobe Illustrator 16.0.3, SVG Export Plug-In . SVG Version: 6.00 Build 0)  -->
<!DOCTYPE svg PUBLIC "-//W3C//DTD SVG 1.1//EN" "http://www.w3.org/Graphics/SVG/1.1/DTD/svg11.dtd">
<svg version="1.1" xmlns="http://www.w3.org/2000/svg" xmlns:xlink="http://www.w3.org/1999/xlink" x="0px" y="0px" width="22.68px"
	 height="22.68px" viewBox="0 0 22.68 22.68" enable-background="new 0 0 22.68 22.68" xml:space="preserve">
<g id="BCGRND">
</g>
<g id="BAREVNE_POZADI_IKON">
	<rect y="0" fill="#585857" width="22.676" height="22.678"/>
</g>
<g id="IKONY">
	<g>
		<g opacity="0.5">
			<path fill="#FFFFFF" d="M9.552,11.184c0.126-0.285,0.51-0.359,0.855-0.175l0.064,0.048l0.149,0.158
				c0.103,0.107,0.223,0.234,0.353,0.371v-0.973h-1.65v4.688h1.65v-1.335C9.249,11.862,9.472,11.364,9.552,11.184z"/>
		</g>
		<g opacity="0.5">
			<path fill="#FFFFFF" d="M12.631,12.811c0.141-0.033,0.386-0.08,0.73-0.037v-2.16h-1.648v1.754
				c0.158,0.168,0.321,0.342,0.489,0.522L12.631,12.811z"/>
		</g>
		<g opacity="0.5">
			<path fill="#FFFFFF" d="M11.713,14.827v0.474h0.405c-0.094-0.111-0.178-0.217-0.281-0.332
				C11.793,14.919,11.756,14.875,11.713,14.827z"/>
		</g>
		<g opacity="0.5">
			<path fill="#FFFFFF" d="M15.75,10.614h-1.649v2.133c0.57-0.024,1.105,0.255,1.649,0.848V10.614z"/>
		</g>
		<g opacity="0.5">
			<path fill="#FFFFFF" d="M17.28,15.301h0.857v-4.688h-1.648v3.789c0.196,0.213,0.336,0.361,0.336,0.361L17.28,15.301z"/>
		</g>
	</g>
	<path fill="#FFFFFF" d="M0.002,7.77v0.889H22.68V7.77H0.002z M0.922,13.203h2.731v-0.492H0.922V13.203z M4.546,15.301h1.649v-4.688
		H4.546V15.301z M17.309,15.722l-0.664-0.786c0,0-0.552-0.583-1.004-1.1c-0.453-0.516-1.014-0.934-1.662-0.845
		c0.88,0.938,1.166,1.158,2.151,2.379c0.088,0.096,0.062,0.234-0.032,0.311c-0.096,0.076-0.234,0.062-0.311-0.032
		c-1.192-1.48-1.589-1.789-2.386-2.625c-0.423-0.069-0.659,0.025-0.804,0.051c0.988,1.053,1.252,1.258,2.339,2.611
		c0.082,0.102,0.062,0.234-0.034,0.311c-0.094,0.076-0.233,0.061-0.309-0.035c-1.15-1.432-3.499-3.885-4.304-4.731
		c-0.521-0.277-1.442,0.034,1.733,3.571c2.561,2.854,2.438,4.625,2.438,4.625c-0.357-0.153-0.779-0.012-2.286-2.104
		c-1.012-1.402-1.537-1.02-1.537-1.02c-0.16,0.896,1.525,3.629,2.753,4.732c0.258,0.231,1.276,0.883,2.397,1.643h4.034
		c0.622,0,1.195-0.207,1.666-0.549c-1.646-1.006-2.932-1.801-2.932-1.801C17.904,16.522,17.309,15.722,17.309,15.722z M20.65,11.549
		h-0.52v1.154h-1.106v0.492h1.106v1.17h0.52v-1.17h1.105v-0.492H20.65V11.549z M6.935,15.301h1.649v-4.688H6.935V15.301z"/>
	<g>
		<g>
			<path fill="#FFFFFF" d="M5.196,2.324C5.46,2.28,5.798,2.256,6.153,2.256c0.615,0,1.041,0.127,1.344,0.381
				c0.316,0.258,0.512,0.648,0.512,1.211c0,0.586-0.199,1.025-0.512,1.309c-0.328,0.297-0.85,0.449-1.49,0.449
				c-0.352,0-0.615-0.02-0.811-0.045V2.324z M5.798,5.112C5.88,5.127,6.007,5.127,6.13,5.127c0.781,0.004,1.244-0.426,1.244-1.26
				C7.38,3.139,6.96,2.725,6.208,2.725c-0.191,0-0.328,0.014-0.41,0.033V5.112z"/>
			<path fill="#FFFFFF" d="M9.215,2.53c0,0.18-0.132,0.322-0.342,0.322c-0.2,0-0.332-0.143-0.332-0.322
				c0-0.186,0.137-0.328,0.337-0.328C9.083,2.201,9.21,2.344,9.215,2.53z M8.575,5.571V3.194h0.605v2.377H8.575z"/>
			<path fill="#FFFFFF" d="M9.876,3.959c0-0.322-0.006-0.551-0.02-0.766h0.521l0.02,0.453h0.02c0.117-0.336,0.396-0.508,0.65-0.508
				c0.059,0,0.092,0.006,0.141,0.016v0.566c-0.049-0.01-0.102-0.02-0.176-0.02c-0.287,0-0.482,0.186-0.537,0.453
				c-0.01,0.055-0.02,0.117-0.02,0.186v1.23h-0.6V3.959z"/>
			<path fill="#FFFFFF" d="M12.046,4.551c0.015,0.43,0.352,0.615,0.732,0.615c0.278,0,0.479-0.039,0.659-0.107l0.088,0.414
				c-0.205,0.084-0.488,0.146-0.83,0.146c-0.771,0-1.226-0.473-1.226-1.201c0-0.658,0.4-1.279,1.162-1.279
				c0.771,0,1.025,0.635,1.025,1.158c0,0.111-0.01,0.199-0.02,0.254H12.046z M13.091,4.131c0.005-0.221-0.093-0.582-0.493-0.582
				c-0.371,0-0.527,0.338-0.552,0.582H13.091z"/>
			<path fill="#FFFFFF" d="M15.94,5.498c-0.127,0.059-0.376,0.121-0.674,0.121c-0.742,0-1.226-0.473-1.226-1.211
				c0-0.713,0.488-1.27,1.323-1.27c0.22,0,0.444,0.049,0.581,0.113l-0.107,0.449c-0.098-0.045-0.239-0.094-0.454-0.094
				c-0.459,0-0.732,0.338-0.728,0.771c0,0.488,0.317,0.768,0.728,0.768c0.21,0,0.356-0.045,0.474-0.094L15.94,5.498z"/>
			<path fill="#FFFFFF" d="M17.198,2.514v0.68h0.571v0.449h-0.571v1.049c0,0.289,0.078,0.439,0.308,0.439
				c0.103,0,0.181-0.014,0.234-0.029l0.01,0.459c-0.088,0.035-0.244,0.059-0.435,0.059c-0.22,0-0.405-0.072-0.518-0.195
				c-0.127-0.137-0.186-0.352-0.186-0.664V3.643h-0.342V3.194h0.342V2.656L17.198,2.514z"/>
		</g>
	</g>
</g>
</svg>
