<?xml version="1.0" encoding="utf-8"?>
<!-- Generator: Adobe Illustrator 16.0.3, SVG Export Plug-In . SVG Version: 6.00 Build 0)  -->
<!DOCTYPE svg PUBLIC "-//W3C//DTD SVG 1.1//EN" "http://www.w3.org/Graphics/SVG/1.1/DTD/svg11.dtd">
<svg version="1.1" xmlns="http://www.w3.org/2000/svg" xmlns:xlink="http://www.w3.org/1999/xlink" x="0px" y="0px" width="22.68px"
	 height="22.68px" viewBox="0 0 22.68 22.68" enable-background="new 0 0 22.68 22.68" xml:space="preserve">
<g id="BCGRND">
</g>
<g id="BAREVNE_POZADI_IKON">
	<rect y="0" fill="#585857" width="22.676" height="22.678"/>
</g>
<g id="IKONY">
	<g>
		<g>
			<rect x="0.002" y="7.77" fill="#FFFFFF" width="22.677" height="0.889"/>
		</g>
		<g>
			<g>
				<path fill="#FFFFFF" d="M4.718,2.323c0.264-0.045,0.6-0.068,0.957-0.068c0.615,0,1.039,0.127,1.342,0.381
					C7.335,2.894,7.53,3.284,7.53,3.847c0,0.586-0.201,1.025-0.514,1.309C6.69,5.452,6.167,5.605,5.528,5.605
					c-0.352,0-0.615-0.02-0.811-0.045V2.323z M5.317,5.111c0.084,0.016,0.211,0.016,0.332,0.016C6.431,5.13,6.896,4.7,6.896,3.866
					c0.004-0.729-0.416-1.143-1.168-1.143c-0.189,0-0.326,0.014-0.41,0.033V5.111z"/>
				<path fill="#FFFFFF" d="M8.589,2.529c0,0.18-0.133,0.322-0.342,0.322c-0.201,0-0.332-0.143-0.332-0.322
					c0-0.186,0.137-0.328,0.336-0.328C8.456,2.2,8.583,2.343,8.589,2.529z M7.948,5.57V3.193h0.605V5.57H7.948z"/>
				<path fill="#FFFFFF" d="M9.073,5.019c0.137,0.082,0.396,0.17,0.61,0.17c0.264,0,0.381-0.107,0.381-0.264
					c0-0.16-0.098-0.244-0.391-0.346C9.21,4.417,9.015,4.163,9.02,3.886c0-0.42,0.347-0.748,0.898-0.748
					c0.264,0,0.493,0.068,0.63,0.143l-0.117,0.424c-0.103-0.059-0.293-0.137-0.503-0.137c-0.215,0-0.332,0.104-0.332,0.25
					c0,0.15,0.112,0.225,0.415,0.332c0.43,0.156,0.63,0.375,0.635,0.727c0,0.43-0.337,0.742-0.967,0.742
					c-0.288,0-0.547-0.068-0.723-0.166L9.073,5.019z"/>
				<path fill="#FFFFFF" d="M11.044,3.984c0-0.313-0.01-0.566-0.02-0.791h0.527l0.029,0.365h0.01c0.176-0.268,0.453-0.42,0.814-0.42
					c0.547,0,1.002,0.469,1.002,1.211c0,0.859-0.543,1.275-1.084,1.275c-0.299,0-0.547-0.127-0.67-0.318h-0.01v1.23h-0.6V3.984z
					 M11.644,4.573c0,0.059,0.006,0.113,0.02,0.166c0.059,0.244,0.273,0.42,0.527,0.42c0.381,0,0.605-0.316,0.605-0.785
					c0-0.42-0.205-0.762-0.59-0.762c-0.25,0-0.479,0.18-0.537,0.443c-0.016,0.049-0.025,0.104-0.025,0.152V4.573z"/>
				<path fill="#FFFFFF" d="M13.806,2.103h0.605V5.57h-0.605V2.103z"/>
				<path fill="#FFFFFF" d="M15.39,4.55c0.014,0.43,0.352,0.615,0.732,0.615c0.277,0,0.479-0.039,0.658-0.107l0.088,0.414
					c-0.205,0.084-0.488,0.146-0.83,0.146c-0.772,0-1.225-0.473-1.225-1.201c0-0.658,0.4-1.279,1.162-1.279
					c0.771,0,1.025,0.635,1.025,1.158c0,0.111-0.01,0.199-0.02,0.254H15.39z M16.435,4.13c0.004-0.221-0.094-0.582-0.494-0.582
					c-0.371,0-0.527,0.338-0.551,0.582H16.435z"/>
				<path fill="#FFFFFF" d="M16.862,6.122c0.195-0.016,0.352-0.068,0.449-0.172c0.111-0.121,0.156-0.307,0.156-0.824V3.193h0.6
					v2.104c0,0.494-0.092,0.801-0.307,1.016c-0.211,0.195-0.543,0.279-0.84,0.279L16.862,6.122z M18.103,2.529
					c0,0.176-0.127,0.322-0.342,0.322c-0.201,0-0.328-0.146-0.328-0.322c0-0.186,0.133-0.328,0.338-0.328S18.103,2.343,18.103,2.529
					z"/>
			</g>
		</g>
		<path fill="#FFFFFF" d="M18.054,18.647v-7.987H4.626v7.987h6.043v1.014H8.253v0.874h6.174V19.66h-2.414v-1.014H18.054z
			 M12.903,12.7h3.053v0.617h-1.164v3.425h-0.737v-3.425h-1.151V12.7z M9.752,13.318H8.588v3.425H7.851v-3.425H6.699V12.7h3.053
			V13.318z M10.965,15.028v1.715h-0.737V12.7h2.333v0.605h-1.596v1.115h1.487v0.606H10.965z"/>
	</g>
</g>
</svg>
