<?xml version="1.0" encoding="utf-8"?>
<!-- Generator: Adobe Illustrator 16.0.3, SVG Export Plug-In . SVG Version: 6.00 Build 0)  -->
<!DOCTYPE svg PUBLIC "-//W3C//DTD SVG 1.1//EN" "http://www.w3.org/Graphics/SVG/1.1/DTD/svg11.dtd">
<svg version="1.1" xmlns="http://www.w3.org/2000/svg" xmlns:xlink="http://www.w3.org/1999/xlink" x="0px" y="0px" width="22.68px"
	 height="22.68px" viewBox="0 0 22.68 22.68" enable-background="new 0 0 22.68 22.68" xml:space="preserve">
<g id="BCGRND">
</g>
<g id="BAREVNE_POZADI_IKON">
	<rect y="0" fill="#585857" width="22.68" height="22.679"/>
</g>
<g id="IKONY">
	<g>
		<g>
			<g>
				<rect x="0.001" y="11.956" fill="#FFFFFF" width="22.678" height="0.889"/>
			</g>
			<g>
				<g>
					<path fill="#FFFFFF" d="M4.813,2.039c0.264-0.044,0.601-0.068,0.957-0.068c0.615,0,1.04,0.127,1.343,0.381
						c0.317,0.259,0.513,0.649,0.513,1.211c0,0.586-0.2,1.025-0.513,1.309c-0.327,0.298-0.85,0.449-1.489,0.449
						c-0.352,0-0.615-0.02-0.811-0.044V2.039z M5.414,4.827c0.083,0.015,0.21,0.015,0.332,0.015c0.781,0.005,1.245-0.425,1.245-1.26
						C6.996,2.855,6.576,2.44,5.824,2.44c-0.19,0-0.327,0.015-0.41,0.034V4.827z"/>
					<path fill="#FFFFFF" d="M8.238,3.675c0-0.322-0.005-0.552-0.02-0.767h0.522l0.02,0.454h0.02
						C8.897,3.026,9.176,2.855,9.43,2.855c0.059,0,0.093,0.005,0.142,0.015v0.566c-0.049-0.01-0.103-0.02-0.176-0.02
						c-0.288,0-0.483,0.186-0.537,0.454c-0.01,0.054-0.02,0.117-0.02,0.186v1.23H8.238V3.675z"/>
					<path fill="#FFFFFF" d="M9.898,4.94l0.894-1.143c0.122-0.146,0.225-0.264,0.352-0.4v-0.01H9.986V2.908h1.89v0.366l-0.874,1.118
						c-0.117,0.142-0.229,0.278-0.352,0.405v0.01h1.255v0.479H9.898V4.94z M10.738,2.601L10.26,1.878h0.415l0.264,0.444h0.01
						l0.269-0.444h0.41l-0.474,0.723H10.738z"/>
					<path fill="#FFFFFF" d="M13.812,5.286l-0.039-0.264h-0.015c-0.146,0.186-0.396,0.317-0.703,0.317
						c-0.479,0-0.747-0.347-0.747-0.708c0-0.601,0.532-0.903,1.411-0.898V3.695c0-0.156-0.063-0.415-0.483-0.415
						c-0.234,0-0.479,0.073-0.64,0.176l-0.117-0.391c0.176-0.107,0.483-0.21,0.859-0.21c0.762,0,0.981,0.483,0.981,1.001v0.859
						c0,0.215,0.01,0.425,0.034,0.571H13.812z M13.733,4.124c-0.425-0.01-0.83,0.083-0.83,0.444c0,0.234,0.151,0.342,0.342,0.342
						c0.239,0,0.415-0.156,0.469-0.327c0.015-0.044,0.02-0.093,0.02-0.132V4.124z M14.104,1.878l-0.601,0.723h-0.415l0.425-0.723
						H14.104z"/>
					<path fill="#FFFFFF" d="M15.639,3.953h0.01c0.059-0.093,0.127-0.195,0.19-0.278l0.576-0.767h0.723L16.259,3.88l1.006,1.406
						h-0.737l-0.684-1.05l-0.205,0.239v0.811h-0.601V1.82h0.601V3.953z"/>
					<path fill="#FFFFFF" d="M2.604,8.116c0-0.273-0.005-0.503-0.02-0.708h0.527l0.029,0.356h0.014
						c0.103-0.186,0.362-0.41,0.757-0.41c0.415,0,0.845,0.269,0.845,1.021v1.411H4.157V8.444c0-0.342-0.127-0.601-0.454-0.601
						c-0.239,0-0.406,0.171-0.469,0.352C3.215,8.248,3.21,8.322,3.21,8.39v1.396H2.604V8.116z"/>
					<path fill="#FFFFFF" d="M6.819,9.786L6.78,9.523H6.766C6.619,9.708,6.37,9.84,6.063,9.84c-0.479,0-0.747-0.347-0.747-0.708
						c0-0.601,0.532-0.903,1.411-0.898V8.195c0-0.156-0.063-0.415-0.483-0.415c-0.234,0-0.479,0.073-0.64,0.176L5.486,7.565
						c0.176-0.107,0.483-0.21,0.859-0.21c0.762,0,0.981,0.483,0.981,1.001v0.859c0,0.215,0.01,0.425,0.034,0.571H6.819z
						 M6.741,8.624c-0.425-0.01-0.83,0.083-0.83,0.444c0,0.234,0.151,0.342,0.342,0.342c0.239,0,0.415-0.156,0.469-0.327
						c0.015-0.044,0.02-0.093,0.02-0.132V8.624z"/>
					<path fill="#FFFFFF" d="M8.968,6.32h0.605v3.467H8.968V6.32z"/>
					<path fill="#FFFFFF" d="M11.655,9.786l-0.039-0.264h-0.015c-0.146,0.186-0.396,0.317-0.703,0.317
						c-0.479,0-0.747-0.347-0.747-0.708c0-0.601,0.532-0.903,1.411-0.898V8.195c0-0.156-0.063-0.415-0.483-0.415
						c-0.234,0-0.479,0.073-0.64,0.176l-0.117-0.391c0.176-0.107,0.483-0.21,0.859-0.21c0.762,0,0.981,0.483,0.981,1.001v0.859
						c0,0.215,0.01,0.425,0.034,0.571H11.655z M11.577,8.624c-0.425-0.01-0.83,0.083-0.83,0.444c0,0.234,0.151,0.342,0.342,0.342
						c0.239,0,0.415-0.156,0.469-0.327c0.015-0.044,0.02-0.093,0.02-0.132V8.624z"/>
					<path fill="#FFFFFF" d="M12.882,6.32h0.605v1.416h0.01c0.073-0.112,0.171-0.205,0.298-0.273
						c0.117-0.068,0.259-0.107,0.41-0.107c0.405,0,0.83,0.269,0.83,1.03v1.401h-0.601V8.453c0-0.347-0.127-0.605-0.459-0.605
						c-0.234,0-0.4,0.156-0.464,0.337c-0.02,0.049-0.024,0.112-0.024,0.181v1.421h-0.605V6.32z"/>
					<path fill="#FFFFFF" d="M16.067,7.408l0.386,1.206c0.068,0.21,0.117,0.4,0.161,0.596h0.015
						c0.044-0.195,0.098-0.381,0.161-0.596l0.376-1.206h0.635l-0.908,2.378h-0.591l-0.884-2.378H16.067z"/>
					<path fill="#FFFFFF" d="M18.62,8.766c0.016,0.43,0.352,0.615,0.732,0.615c0.279,0,0.478-0.039,0.66-0.107l0.088,0.415
						c-0.205,0.083-0.488,0.146-0.83,0.146c-0.771,0-1.227-0.474-1.227-1.201c0-0.659,0.4-1.279,1.162-1.279
						c0.771,0,1.025,0.635,1.025,1.157c0,0.112-0.01,0.2-0.02,0.254H18.62z M19.665,8.346c0.006-0.22-0.092-0.581-0.492-0.581
						c-0.371,0-0.527,0.337-0.553,0.581H19.665z"/>
				</g>
			</g>
		</g>
		<g>
			<path opacity="0.25" fill="#FFFFFF" d="M10.479,14.056c-0.917,0.25-1.571,0.881-1.571,1.624c0,0.46,0,4.833,0,4.833
				c0,0.96,1.092,1.74,2.433,1.74c1.35,0,2.442-0.779,2.442-1.74c0,0,0-4.373,0-4.833c0-0.743-0.654-1.374-1.572-1.624
				c-0.015-0.097-0.011-0.194-0.011-0.293c0-0.16,0-0.815,0-1.362h-0.376v1.362c-0.002,0.153-0.001,0.252,0.015,0.35l0.036,0.242
				l0.237,0.064c0.773,0.211,1.295,0.717,1.295,1.261v4.833c0,0.739-0.946,1.363-2.066,1.363c-1.114,0-2.057-0.624-2.057-1.363
				V15.68c0-0.543,0.521-1.05,1.294-1.261l0.234-0.063l0.039-0.24c0.016-0.098,0.017-0.197,0.016-0.297l-0.001-1.418H10.49
				c0,0.546,0,1.202,0,1.362C10.49,13.862,10.495,13.959,10.479,14.056z"/>
			<path opacity="0.25" fill="#FFFFFF" d="M10.852,14.116l-0.039,0.24l-0.234,0.063c-0.772,0.211-1.294,0.717-1.294,1.261v4.833
				c0,0.739,0.942,1.363,2.057,1.363c1.12,0,2.066-0.624,2.066-1.363V15.68c0-0.543-0.521-1.05-1.295-1.261l-0.237-0.064
				l-0.036-0.242c-0.016-0.098-0.017-0.197-0.015-0.35v-1.362h-0.958l0.001,1.418C10.868,13.919,10.867,14.018,10.852,14.116z"/>
			<path opacity="0.25" fill="#FFFFFF" d="M10.852,14.116l-0.039,0.24l-0.234,0.063c-0.772,0.211-1.294,0.717-1.294,1.261v4.833
				c0,0.739,0.942,1.363,2.057,1.363c1.12,0,2.066-0.624,2.066-1.363V15.68c0-0.543-0.521-1.05-1.295-1.261l-0.237-0.064
				l-0.036-0.242c-0.016-0.098-0.017-0.197-0.015-0.35v-1.362h-0.958l0.001,1.418C10.868,13.919,10.867,14.018,10.852,14.116z"/>
			<path opacity="0.25" fill="#FFFFFF" d="M4.024,14.056c-0.918,0.25-1.572,0.881-1.572,1.624c0,0.46,0,4.833,0,4.833
				c0,0.96,1.092,1.74,2.433,1.74c1.35,0,2.442-0.779,2.442-1.74c0,0,0-4.373,0-4.833c0-0.743-0.654-1.374-1.572-1.624
				c-0.015-0.097-0.011-0.194-0.011-0.293c0-0.16,0-0.815,0-1.362H5.368v1.362c-0.002,0.153-0.001,0.252,0.015,0.35l0.036,0.242
				l0.237,0.064c0.775,0.211,1.295,0.717,1.295,1.261v4.833c0,0.739-0.946,1.363-2.066,1.363c-1.114,0-2.056-0.624-2.056-1.363
				V15.68c0-0.543,0.521-1.05,1.293-1.261l0.235-0.063l0.038-0.24c0.016-0.098,0.017-0.197,0.016-0.297L4.41,12.401H4.034
				c0,0.546,0,1.202,0,1.362C4.034,13.862,4.04,13.959,4.024,14.056z"/>
			<path opacity="0.25" fill="#FFFFFF" d="M4.396,14.116l-0.038,0.24l-0.235,0.063C3.35,14.63,2.829,15.136,2.829,15.68v4.833
				c0,0.739,0.941,1.363,2.056,1.363c1.12,0,2.066-0.624,2.066-1.363V15.68c0-0.543-0.521-1.05-1.295-1.261l-0.237-0.064
				l-0.036-0.242c-0.016-0.098-0.017-0.197-0.015-0.35v-1.362H4.41l0.001,1.418C4.412,13.919,4.411,14.018,4.396,14.116z"/>
			<path opacity="0.25" fill="#FFFFFF" d="M4.396,14.116l-0.038,0.24l-0.235,0.063C3.35,14.63,2.829,15.136,2.829,15.68v4.833
				c0,0.739,0.941,1.363,2.056,1.363c1.12,0,2.066-0.624,2.066-1.363V15.68c0-0.543-0.521-1.05-1.295-1.261l-0.237-0.064
				l-0.036-0.242c-0.016-0.098-0.017-0.197-0.015-0.35v-1.362H4.41l0.001,1.418C4.412,13.919,4.411,14.018,4.396,14.116z"/>
			<path opacity="0.25" fill="#FFFFFF" d="M16.936,14.056c-0.917,0.25-1.571,0.881-1.571,1.624c0,0.46,0,4.833,0,4.833
				c0,0.96,1.092,1.74,2.433,1.74c1.35,0,2.442-0.779,2.442-1.74c0,0,0-4.373,0-4.833c0-0.743-0.654-1.374-1.572-1.624
				c-0.015-0.097-0.011-0.194-0.011-0.293c0-0.16,0-0.815,0-1.362H18.28v1.362c-0.002,0.153-0.001,0.252,0.015,0.35l0.036,0.242
				l0.238,0.064c0.773,0.211,1.295,0.717,1.295,1.261v4.833c0,0.739-0.946,1.363-2.066,1.363c-1.114,0-2.057-0.624-2.057-1.363
				V15.68c0-0.543,0.521-1.05,1.294-1.261l0.234-0.063l0.039-0.24c0.016-0.098,0.017-0.197,0.016-0.297l-0.001-1.418h-0.376
				c0,0.546,0,1.202,0,1.362C16.946,13.862,16.951,13.959,16.936,14.056z"/>
			<path opacity="0.25" fill="#FFFFFF" d="M17.308,14.116l-0.039,0.24l-0.234,0.063c-0.772,0.211-1.294,0.717-1.294,1.261v4.833
				c0,0.739,0.942,1.363,2.057,1.363c1.12,0,2.066-0.624,2.066-1.363V15.68c0-0.543-0.521-1.05-1.295-1.261l-0.238-0.064
				l-0.036-0.242c-0.016-0.098-0.017-0.197-0.015-0.35v-1.362h-0.958l0.001,1.418C17.324,13.919,17.323,14.018,17.308,14.116z"/>
			<path opacity="0.25" fill="#FFFFFF" d="M17.308,14.116l-0.039,0.24l-0.234,0.063c-0.772,0.211-1.294,0.717-1.294,1.261v4.833
				c0,0.739,0.942,1.363,2.057,1.363c1.12,0,2.066-0.624,2.066-1.363V15.68c0-0.543-0.521-1.05-1.295-1.261l-0.238-0.064
				l-0.036-0.242c-0.016-0.098-0.017-0.197-0.015-0.35v-1.362h-0.958l0.001,1.418C17.324,13.919,17.323,14.018,17.308,14.116z"/>
		</g>
		<g>
			<path fill="none" d="M17.801,18.492c-1.493,0-2.766-0.727-3.23-1.737c-0.465,1.01-1.738,1.737-3.231,1.737
				s-2.767-0.727-3.231-1.737c-0.465,1.01-1.737,1.737-3.23,1.737c-1.69,0-3.059-0.882-3.358-2.084H0.001v1.789h1.956
				c0.276,0,0.5,0.224,0.5,0.5c0,0.858,1.108,1.584,2.42,1.584s2.419-0.726,2.419-1.584c0-0.276,0.224-0.5,0.5-0.5h0.623
				c0.276,0,0.5,0.224,0.5,0.5c0,0.858,1.108,1.584,2.42,1.584s2.42-0.726,2.42-1.584c0-0.276,0.224-0.5,0.5-0.5h0.623
				c0.276,0,0.5,0.224,0.5,0.5c0,0.858,1.107,1.584,2.419,1.584s2.42-0.726,2.42-1.584c0-0.276,0.224-0.5,0.5-0.5h1.958v-1.789
				h-1.52C20.859,17.61,19.491,18.492,17.801,18.492z"/>
			<path fill="#FFFFFF" d="M20.721,18.197c-0.276,0-0.5,0.224-0.5,0.5c0,0.858-1.108,1.584-2.42,1.584s-2.419-0.726-2.419-1.584
				c0-0.276-0.224-0.5-0.5-0.5h-0.623c-0.276,0-0.5,0.224-0.5,0.5c0,0.858-1.108,1.584-2.42,1.584s-2.42-0.726-2.42-1.584
				c0-0.276-0.224-0.5-0.5-0.5H7.796c-0.276,0-0.5,0.224-0.5,0.5c0,0.858-1.107,1.584-2.419,1.584s-2.42-0.726-2.42-1.584
				c0-0.276-0.224-0.5-0.5-0.5H0.001v1h1.518c0.3,1.202,1.668,2.084,3.358,2.084c1.493,0,2.766-0.727,3.23-1.737
				c0.465,1.01,1.738,1.737,3.231,1.737s2.767-0.727,3.231-1.737c0.465,1.01,1.737,1.737,3.23,1.737c1.69,0,3.059-0.882,3.358-2.084
				h1.52v-1H20.721z"/>
			<path fill="#FFFFFF" d="M1.519,16.408c0.3,1.202,1.668,2.084,3.358,2.084c1.493,0,2.766-0.727,3.23-1.737
				c0.465,1.01,1.738,1.737,3.231,1.737s2.767-0.727,3.231-1.737c0.465,1.01,1.737,1.737,3.23,1.737c1.69,0,3.059-0.882,3.358-2.084
				h1.52v-1h-1.958c-0.276,0-0.5,0.224-0.5,0.5c0,0.858-1.108,1.584-2.42,1.584s-2.419-0.726-2.419-1.584c0-0.276-0.224-0.5-0.5-0.5
				h-0.623c-0.276,0-0.5,0.224-0.5,0.5c0,0.858-1.108,1.584-2.42,1.584s-2.42-0.726-2.42-1.584c0-0.276-0.224-0.5-0.5-0.5H7.796
				c-0.276,0-0.5,0.224-0.5,0.5c0,0.858-1.107,1.584-2.419,1.584s-2.42-0.726-2.42-1.584c0-0.276-0.224-0.5-0.5-0.5H0.001v1H1.519z"
				/>
		</g>
	</g>
</g>
</svg>
