<?xml version="1.0" encoding="utf-8"?>
<!-- Generator: Adobe Illustrator 16.0.3, SVG Export Plug-In . SVG Version: 6.00 Build 0)  -->
<!DOCTYPE svg PUBLIC "-//W3C//DTD SVG 1.1//EN" "http://www.w3.org/Graphics/SVG/1.1/DTD/svg11.dtd">
<svg version="1.1" xmlns="http://www.w3.org/2000/svg" xmlns:xlink="http://www.w3.org/1999/xlink" x="0px" y="0px" width="22.68px"
	 height="22.68px" viewBox="0 0 22.68 22.68" enable-background="new 0 0 22.68 22.68" xml:space="preserve">
<g id="BCGRND">
</g>
<g id="BAREVNE_BCGRND">
	<polygon fill="#585857" points="22.675,16.335 22.675,0 -0.002,0 -0.002,22.678 14.115,22.678 22.675,22.678 	"/>
</g>
<g id="IKONY">
	<g>
		<g>
			<g>
				<g>
					<path fill="#FFFFFF" d="M1.364,2.322c0.264-0.044,0.601-0.068,0.957-0.068c0.615,0,1.04,0.127,1.343,0.381
						c0.317,0.259,0.513,0.649,0.513,1.211c0,0.586-0.2,1.025-0.513,1.309c-0.327,0.298-0.85,0.449-1.489,0.449
						c-0.352,0-0.615-0.02-0.811-0.044V2.322z M1.965,5.11c0.083,0.015,0.21,0.015,0.332,0.015C3.078,5.13,3.542,4.7,3.542,3.865
						c0.005-0.728-0.415-1.143-1.167-1.143c-0.19,0-0.327,0.015-0.41,0.034V5.11z"/>
					<path fill="#FFFFFF" d="M6.705,4.856c0,0.283,0.01,0.518,0.02,0.713H6.197L6.168,5.208h-0.01
						C6.056,5.379,5.821,5.623,5.396,5.623c-0.435,0-0.83-0.259-0.83-1.035V3.191h0.601v1.294c0,0.396,0.127,0.649,0.444,0.649
						c0.239,0,0.396-0.171,0.459-0.322c0.02-0.054,0.034-0.117,0.034-0.186V3.191h0.601V4.856z"/>
					<path fill="#FFFFFF" d="M8.574,5.569L8.535,5.306H8.52C8.374,5.491,8.125,5.623,7.817,5.623c-0.479,0-0.747-0.347-0.747-0.708
						c0-0.601,0.532-0.903,1.411-0.898V3.978c0-0.156-0.063-0.415-0.483-0.415c-0.234,0-0.479,0.073-0.64,0.176L7.241,3.348
						C7.417,3.24,7.724,3.138,8.1,3.138c0.762,0,0.981,0.483,0.981,1.001v0.859c0,0.215,0.01,0.425,0.034,0.571H8.574z M8.496,4.407
						c-0.425-0.01-0.83,0.083-0.83,0.444c0,0.234,0.151,0.342,0.342,0.342c0.239,0,0.415-0.156,0.469-0.327
						c0.015-0.044,0.02-0.093,0.02-0.132V4.407z"/>
					<path fill="#FFFFFF" d="M9.597,2.103h0.605v3.467H9.597V2.103z"/>
					<path fill="#FFFFFF" d="M14.004,5.472c-0.142,0.073-0.454,0.146-0.85,0.146c-1.045,0-1.68-0.654-1.68-1.655
						c0-1.084,0.752-1.738,1.758-1.738c0.396,0,0.679,0.083,0.801,0.146L13.901,2.85c-0.156-0.068-0.371-0.127-0.645-0.127
						c-0.669,0-1.152,0.42-1.152,1.211c0,0.723,0.425,1.187,1.147,1.187c0.244,0,0.498-0.049,0.654-0.122L14.004,5.472z"/>
					<path fill="#FFFFFF" d="M16.556,4.358c0,0.874-0.615,1.265-1.221,1.265c-0.674,0-1.191-0.464-1.191-1.226
						c0-0.781,0.513-1.26,1.23-1.26C16.083,3.138,16.556,3.636,16.556,4.358z M14.764,4.383c0,0.459,0.225,0.806,0.591,0.806
						c0.342,0,0.581-0.337,0.581-0.815c0-0.371-0.166-0.796-0.576-0.796C14.935,3.577,14.764,3.987,14.764,4.383z"/>
					<path fill="#FFFFFF" d="M19.191,4.358c0,0.874-0.615,1.265-1.221,1.265c-0.674,0-1.191-0.464-1.191-1.226
						c0-0.781,0.513-1.26,1.23-1.26C18.718,3.138,19.191,3.636,19.191,4.358z M17.399,4.383c0,0.459,0.225,0.806,0.591,0.806
						c0.342,0,0.581-0.337,0.581-0.815c0-0.371-0.166-0.796-0.576-0.796C17.57,3.577,17.399,3.987,17.399,4.383z"/>
					<path fill="#FFFFFF" d="M20.167,4.236h0.01c0.059-0.093,0.127-0.195,0.19-0.278l0.576-0.767h0.723l-0.879,0.972l1.006,1.406
						h-0.737l-0.684-1.05l-0.205,0.239v0.811h-0.601V2.103h0.601V4.236z"/>
				</g>
			</g>
		</g>
		<g>
			<rect x="-0.002" y="7.769" fill="#FFFFFF" width="22.678" height="0.889"/>
		</g>
		<g opacity="0.5">
			<rect x="4.255" y="11.35" fill="#FFFFFF" width="14.166" height="3.429"/>
		</g>
		<g>
			<rect x="4.255" y="11.1" fill="#FFFFFF" width="14.166" height="0.5"/>
		</g>
		<g>
			<circle fill="#FFFFFF" cx="14.394" cy="9.845" r="0.771"/>
		</g>
		<g>
			<rect x="7.51" y="9.139" fill="#FFFFFF" width="1.992" height="0.5"/>
		</g>
		<g>
			<rect x="10.098" y="9.139" fill="#FFFFFF" width="0.461" height="0.5"/>
		</g>
		<g>
			<rect x="11.153" y="9.139" fill="#FFFFFF" width="0.463" height="0.5"/>
		</g>
		<g>
			<rect x="12.21" y="9.139" fill="#FFFFFF" width="0.463" height="0.5"/>
		</g>
		<g>
			<rect x="7.51" y="10.051" fill="#FFFFFF" width="1.992" height="0.5"/>
		</g>
		<g>
			<rect x="10.098" y="10.051" fill="#FFFFFF" width="0.461" height="0.5"/>
		</g>
		<g>
			<rect x="11.153" y="10.051" fill="#FFFFFF" width="0.463" height="0.5"/>
		</g>
		<g>
			<rect x="12.21" y="10.051" fill="#FFFFFF" width="0.463" height="0.5"/>
		</g>
		<g>
			<rect x="10.003" y="19.474" fill="#FFFFFF" width="2.67" height="0.5"/>
		</g>
		<g opacity="0.5">
			<rect x="4.255" y="15.279" fill="#FFFFFF" width="14.166" height="3.212"/>
		</g>
		<g>
			<path fill="#FFFFFF" d="M7.962,12.826H7.956l-0.372,0.177l-0.075-0.343l0.517-0.241h0.379v1.954H7.962V12.826z"/>
			<path fill="#FFFFFF" d="M9.104,14.374v-0.276l0.253-0.229c0.427-0.382,0.634-0.601,0.64-0.83c0-0.16-0.096-0.286-0.321-0.286
				c-0.168,0-0.315,0.084-0.418,0.162l-0.129-0.328c0.147-0.111,0.376-0.201,0.641-0.201c0.441,0,0.685,0.258,0.685,0.613
				c0,0.328-0.237,0.589-0.52,0.841l-0.181,0.15v0.006h0.736v0.376H9.104z"/>
			<path fill="#FFFFFF" d="M12.272,13.388c0,0.604-0.244,1.019-0.743,1.019c-0.505,0-0.727-0.454-0.73-1.007
				c0-0.565,0.241-1.013,0.746-1.013C12.067,12.387,12.272,12.853,12.272,13.388z M11.259,13.4
				c-0.003,0.448,0.105,0.662,0.283,0.662c0.177,0,0.273-0.223,0.273-0.667c0-0.433-0.094-0.661-0.276-0.661
				C11.37,12.733,11.256,12.946,11.259,13.4z"/>
			<path fill="#FFFFFF" d="M14.089,12.754c0,0.258-0.214,0.445-0.46,0.445c-0.265,0-0.454-0.195-0.454-0.436
				c-0.003-0.25,0.201-0.448,0.457-0.448C13.902,12.315,14.089,12.516,14.089,12.754z M13.415,12.76
				c0,0.129,0.094,0.229,0.217,0.229s0.214-0.099,0.214-0.231c0-0.117-0.075-0.231-0.214-0.231
				C13.5,12.525,13.415,12.637,13.415,12.76z"/>
			<path fill="#FFFFFF" d="M15.878,14.317c-0.084,0.042-0.273,0.087-0.521,0.087c-0.7,0-1.061-0.436-1.061-1.013
				c0-0.691,0.493-1.076,1.105-1.076c0.238,0,0.418,0.048,0.499,0.09l-0.093,0.364c-0.093-0.039-0.223-0.075-0.385-0.075
				c-0.363,0-0.646,0.219-0.646,0.67c0,0.406,0.24,0.662,0.649,0.662c0.139,0,0.292-0.03,0.382-0.066L15.878,14.317z"/>
		</g>
		<g>
			<path fill="#FFFFFF" d="M7.379,17.874v-0.276l0.253-0.229c0.427-0.382,0.634-0.601,0.64-0.83c0-0.16-0.096-0.286-0.321-0.286
				c-0.168,0-0.315,0.084-0.418,0.162l-0.129-0.328c0.147-0.111,0.376-0.201,0.641-0.201c0.441,0,0.685,0.258,0.685,0.613
				c0,0.328-0.237,0.589-0.52,0.841l-0.181,0.15v0.006h0.736v0.376H7.379z"/>
			<path fill="#FFFFFF" d="M10.547,16.888c0,0.604-0.244,1.019-0.743,1.019c-0.505,0-0.727-0.454-0.729-1.007
				c0-0.565,0.24-1.013,0.745-1.013C10.342,15.887,10.547,16.353,10.547,16.888z M9.533,16.9c-0.003,0.448,0.105,0.662,0.283,0.662
				c0.177,0,0.273-0.223,0.273-0.667c0-0.433-0.094-0.661-0.276-0.661C9.645,16.233,9.53,16.446,9.533,16.9z"/>
			<path fill="#FFFFFF" d="M12.272,16.888c0,0.604-0.244,1.019-0.743,1.019c-0.505,0-0.727-0.454-0.73-1.007
				c0-0.565,0.241-1.013,0.746-1.013C12.067,15.887,12.272,16.353,12.272,16.888z M11.259,16.9
				c-0.003,0.448,0.105,0.662,0.283,0.662c0.177,0,0.273-0.223,0.273-0.667c0-0.433-0.094-0.661-0.276-0.661
				C11.37,16.233,11.256,16.446,11.259,16.9z"/>
			<path fill="#FFFFFF" d="M14.089,16.254c0,0.258-0.214,0.445-0.46,0.445c-0.265,0-0.454-0.195-0.454-0.436
				c-0.003-0.25,0.201-0.448,0.457-0.448C13.902,15.815,14.089,16.016,14.089,16.254z M13.415,16.26
				c0,0.129,0.094,0.229,0.217,0.229s0.214-0.099,0.214-0.231c0-0.117-0.075-0.231-0.214-0.231
				C13.5,16.025,13.415,16.137,13.415,16.26z"/>
			<path fill="#FFFFFF" d="M15.878,17.817c-0.084,0.042-0.273,0.087-0.521,0.087c-0.7,0-1.061-0.436-1.061-1.013
				c0-0.691,0.493-1.076,1.105-1.076c0.238,0,0.418,0.048,0.499,0.09l-0.093,0.364c-0.093-0.039-0.223-0.075-0.385-0.075
				c-0.363,0-0.646,0.219-0.646,0.67c0,0.406,0.24,0.662,0.649,0.662c0.139,0,0.292-0.03,0.382-0.066L15.878,17.817z"/>
		</g>
		<g>
			<polygon fill="#FFFFFF" points="18.921,21.515 3.755,21.515 3.755,8.214 4.755,8.214 4.755,20.515 17.921,20.515 17.921,8.214 
				18.921,8.214 			"/>
		</g>
		<g>
			<rect x="4.255" y="18.447" fill="#FFFFFF" width="14.166" height="0.5"/>
		</g>
	</g>
</g>
</svg>
