<?xml version="1.0" encoding="utf-8"?>
<!-- Generator: Adobe Illustrator 16.0.3, SVG Export Plug-In . SVG Version: 6.00 Build 0)  -->
<!DOCTYPE svg PUBLIC "-//W3C//DTD SVG 1.1//EN" "http://www.w3.org/Graphics/SVG/1.1/DTD/svg11.dtd">
<svg version="1.1" xmlns="http://www.w3.org/2000/svg" xmlns:xlink="http://www.w3.org/1999/xlink" x="0px" y="0px" width="22.68px"
	 height="22.68px" viewBox="0 0 22.68 22.68" enable-background="new 0 0 22.68 22.68" xml:space="preserve">
<g id="BCGRND">
</g>
<g id="BAREVNE_BCGRND">
	<polygon fill="#585857" points="22.679,16.336 22.679,0.001 0.001,0.001 0.001,22.679 14.118,22.679 22.679,22.679 	"/>
</g>
<g id="IKONY">
	<g>
		<g>
			<g>
				<text transform="matrix(1 0 0 1 0.9912 5.5713)"><tspan x="0" y="0" fill="#FFFFFF" font-family="'MyriadPro-Semibold'" font-size="4.889">Dual Cook</tspan><tspan x="5.972" y="4.5" fill="#FFFFFF" font-family="'MyriadPro-Semibold'" font-size="4.889">Flex</tspan></text>
			</g>
		</g>
		
			<line fill="none" stroke="#FFFFFF" stroke-width="0.8889" stroke-miterlimit="10" x1="-0.001" y1="12.401" x2="22.677" y2="12.401"/>
		<g>
			<rect x="4.256" y="15.538" opacity="0.5" fill="#FFFFFF" width="14.166" height="3.429"/>
			<line fill="none" stroke="#FFFFFF" stroke-miterlimit="10" x1="4.256" y1="12.401" x2="4.256" y2="22.679"/>
			<line fill="none" stroke="#FFFFFF" stroke-miterlimit="10" x1="18.422" y1="12.401" x2="18.422" y2="22.679"/>
			<line fill="none" stroke="#FFFFFF" stroke-width="0.5" stroke-miterlimit="10" x1="4.256" y1="15.538" x2="18.422" y2="15.538"/>
			<g>
				<circle fill="#FFFFFF" cx="14.396" cy="14.032" r="0.771"/>
				<g>
					
						<line fill="none" stroke="#FFFFFF" stroke-width="0.5" stroke-miterlimit="10" x1="7.512" y1="13.576" x2="9.504" y2="13.576"/>
					
						<line fill="none" stroke="#FFFFFF" stroke-width="0.5" stroke-miterlimit="10" x1="10.1" y1="13.576" x2="10.561" y2="13.576"/>
					
						<line fill="none" stroke="#FFFFFF" stroke-width="0.5" stroke-miterlimit="10" x1="11.154" y1="13.576" x2="11.617" y2="13.576"/>
					
						<line fill="none" stroke="#FFFFFF" stroke-width="0.5" stroke-miterlimit="10" x1="12.211" y1="13.576" x2="12.674" y2="13.576"/>
					
						<line fill="none" stroke="#FFFFFF" stroke-width="0.5" stroke-miterlimit="10" x1="7.512" y1="14.488" x2="9.504" y2="14.488"/>
					
						<line fill="none" stroke="#FFFFFF" stroke-width="0.5" stroke-miterlimit="10" x1="10.1" y1="14.488" x2="10.561" y2="14.488"/>
					
						<line fill="none" stroke="#FFFFFF" stroke-width="0.5" stroke-miterlimit="10" x1="11.154" y1="14.488" x2="11.617" y2="14.488"/>
					
						<line fill="none" stroke="#FFFFFF" stroke-width="0.5" stroke-miterlimit="10" x1="12.211" y1="14.488" x2="12.674" y2="14.488"/>
				</g>
			</g>
			<rect x="4.256" y="19.467" opacity="0.5" fill="#FFFFFF" width="14.166" height="3.212"/>
			<text transform="matrix(1 0 0 1 7.2544 18.436)"><tspan x="0" y="0" fill="#FFFFFF" font-family="'MyriadPro-Bold'" font-size="3">120 </tspan><tspan x="5.841" y="0" fill="#FFFFFF" font-family="'MyriadPro-Bold'" font-size="3">°C</tspan></text>
			<text transform="matrix(1 0 0 1 7.2544 22.061)"><tspan x="0" y="0" fill="#FFFFFF" font-family="'MyriadPro-Bold'" font-size="3">250 </tspan><tspan x="5.841" y="0" fill="#FFFFFF" font-family="'MyriadPro-Bold'" font-size="3">°C</tspan></text>
		</g>
	</g>
</g>
</svg>
