<?xml version="1.0" encoding="utf-8"?>
<!-- Generator: Adobe Illustrator 16.0.3, SVG Export Plug-In . SVG Version: 6.00 Build 0)  -->
<!DOCTYPE svg PUBLIC "-//W3C//DTD SVG 1.1//EN" "http://www.w3.org/Graphics/SVG/1.1/DTD/svg11.dtd">
<svg version="1.1" xmlns="http://www.w3.org/2000/svg" xmlns:xlink="http://www.w3.org/1999/xlink" x="0px" y="0px" width="22.68px"
	 height="22.68px" viewBox="0 0 22.68 22.68" enable-background="new 0 0 22.68 22.68" xml:space="preserve">
<g id="BCGRND">
</g>
<g id="BAREVNE_POZADI_IKON">
	<polygon fill="#585857" points="22.677,16.334 22.677,0 0,0 0,22.678 14.117,22.678 22.677,22.678 	"/>
</g>
<g id="IKONY">
	<g>
		<g>
			<rect x="0" y="7.77" fill="#FFFFFF" width="22.678" height="0.889"/>
			<g>
				<g>
					<path fill="#FFFFFF" d="M6.553,4.111h-1.24v0.967H6.7v0.493H4.713V2.28h1.914v0.493H5.313v0.85h1.24V4.111z"/>
					<path fill="#FFFFFF" d="M8.177,4.062v0.415H6.932V4.062H8.177z"/>
					<path fill="#FFFFFF" d="M8.521,5.019C8.658,5.102,8.917,5.19,9.132,5.19c0.264,0,0.381-0.107,0.381-0.264
						c0-0.161-0.098-0.244-0.391-0.347C8.658,4.419,8.463,4.165,8.468,3.886c0-0.42,0.347-0.747,0.898-0.747
						c0.264,0,0.493,0.068,0.63,0.142L9.879,3.706C9.776,3.647,9.586,3.569,9.376,3.569c-0.215,0-0.332,0.103-0.332,0.249
						c0,0.151,0.112,0.225,0.415,0.332c0.43,0.156,0.63,0.376,0.635,0.728c0,0.43-0.337,0.742-0.967,0.742
						c-0.288,0-0.547-0.068-0.723-0.166L8.521,5.019z"/>
					<path fill="#FFFFFF" d="M10.492,2.104h0.605V3.52h0.01c0.072-0.112,0.17-0.205,0.297-0.273c0.117-0.068,0.26-0.107,0.41-0.107
						c0.406,0,0.83,0.269,0.83,1.03v1.401h-0.6V4.238c0-0.347-0.127-0.605-0.459-0.605c-0.234,0-0.4,0.156-0.465,0.337
						c-0.02,0.049-0.023,0.112-0.023,0.181v1.421h-0.605V2.104z"/>
					<path fill="#FFFFFF" d="M15.451,4.36c0,0.874-0.615,1.265-1.221,1.265c-0.674,0-1.191-0.464-1.191-1.226
						c0-0.781,0.513-1.26,1.23-1.26C14.977,3.139,15.451,3.637,15.451,4.36z M13.659,4.385c0,0.459,0.225,0.806,0.591,0.806
						c0.342,0,0.581-0.337,0.581-0.815c0-0.371-0.166-0.796-0.576-0.796C13.83,3.579,13.659,3.989,13.659,4.385z"/>
					<path fill="#FFFFFF" d="M15.849,3.984c0-0.313-0.01-0.566-0.02-0.791h0.527l0.029,0.366h0.01
						c0.176-0.269,0.455-0.42,0.816-0.42c0.547,0,1,0.469,1,1.211c0,0.859-0.541,1.274-1.084,1.274
						c-0.297,0-0.547-0.127-0.668-0.317h-0.01v1.23h-0.602V3.984z M16.451,4.575c0,0.059,0.004,0.112,0.02,0.166
						c0.059,0.244,0.273,0.42,0.527,0.42c0.381,0,0.605-0.317,0.605-0.786c0-0.42-0.205-0.762-0.592-0.762
						c-0.248,0-0.479,0.181-0.537,0.444c-0.014,0.049-0.023,0.103-0.023,0.151V4.575z"/>
				</g>
			</g>
		</g>
		<path fill="#FFFFFF" d="M16.034,20.985H6.643c-0.229,0-0.428-0.154-0.484-0.376L4.96,15.925c-0.068-0.268,0.093-0.54,0.36-0.608
			c0.27-0.069,0.54,0.094,0.608,0.36l1.103,4.308h8.615l1.103-4.308c0.068-0.267,0.338-0.429,0.608-0.36
			c0.268,0.068,0.429,0.341,0.36,0.608l-1.199,4.684C16.462,20.83,16.262,20.985,16.034,20.985z"/>
		<path fill="#FFFFFF" d="M18.131,16.272H4.547c-0.276,0-0.5-0.224-0.5-0.5v-2.549c0-0.276,0.224-0.5,0.5-0.5h13.584
			c0.276,0,0.5,0.224,0.5,0.5v2.549C18.631,16.048,18.407,16.272,18.131,16.272z M5.047,15.272h12.584v-1.549H5.047V15.272z"/>
		<g>
			<path fill="#FFFFFF" d="M6.663,14.791c-0.128,0-0.256-0.049-0.354-0.146c-0.195-0.195-0.195-0.512,0-0.707l3.754-3.754
				c0.195-0.195,0.512-0.195,0.707,0s0.195,0.512,0,0.707l-3.754,3.754C6.919,14.742,6.791,14.791,6.663,14.791z"/>
			<path fill="#FFFFFF" d="M16.014,14.792c-0.128,0-0.256-0.049-0.354-0.146l-3.754-3.755c-0.195-0.195-0.195-0.512,0-0.707
				s0.512-0.195,0.707,0l3.754,3.755c0.195,0.195,0.195,0.512,0,0.707C16.27,14.743,16.142,14.792,16.014,14.792z"/>
		</g>
		<g>
			<path fill="#FFFFFF" d="M8.815,19.254c-0.276,0-0.5-0.224-0.5-0.5v-1.17c0-0.276,0.224-0.5,0.5-0.5s0.5,0.224,0.5,0.5v1.17
				C9.315,19.031,9.092,19.254,8.815,19.254z"/>
			<path fill="#FFFFFF" d="M11.339,19.254c-0.276,0-0.5-0.224-0.5-0.5v-1.17c0-0.276,0.224-0.5,0.5-0.5s0.5,0.224,0.5,0.5v1.17
				C11.839,19.031,11.615,19.254,11.339,19.254z"/>
			<path fill="#FFFFFF" d="M13.862,19.254c-0.276,0-0.5-0.224-0.5-0.5v-1.17c0-0.276,0.224-0.5,0.5-0.5s0.5,0.224,0.5,0.5v1.17
				C14.362,19.031,14.138,19.254,13.862,19.254z"/>
		</g>
	</g>
</g>
</svg>
