<?xml version="1.0" encoding="utf-8"?>
<!-- Generator: Adobe Illustrator 16.0.3, SVG Export Plug-In . SVG Version: 6.00 Build 0)  -->
<!DOCTYPE svg PUBLIC "-//W3C//DTD SVG 1.1//EN" "http://www.w3.org/Graphics/SVG/1.1/DTD/svg11.dtd">
<svg version="1.1" xmlns="http://www.w3.org/2000/svg" xmlns:xlink="http://www.w3.org/1999/xlink" x="0px" y="0px" width="22.68px"
	 height="22.68px" viewBox="0 0 22.68 22.68" enable-background="new 0 0 22.68 22.68" xml:space="preserve">
<g id="BCGRND">
</g>
<g id="BAREVNE_POZADI_IKON">
	<rect fill="#585857" width="22.68" height="22.68"/>
</g>
<g id="IKONY">
	<g>
		<g>
			<g>
				<rect y="7.771" fill="#FFFFFF" width="22.678" height="0.889"/>
			</g>
			<g>
				<g>
					<path fill="#FFFFFF" d="M3.254,4.111h-1.24v0.967H3.4v0.493H1.413V2.28h1.914v0.493H2.014v0.85h1.24V4.111z"/>
					<path fill="#FFFFFF" d="M5.146,5.571L5.107,5.307H5.093C4.946,5.492,4.697,5.624,4.39,5.624c-0.479,0-0.747-0.347-0.747-0.708
						c0-0.601,0.532-0.903,1.411-0.898V3.979c0-0.156-0.063-0.415-0.483-0.415c-0.234,0-0.479,0.073-0.64,0.176L3.813,3.349
						c0.176-0.107,0.483-0.21,0.859-0.21c0.762,0,0.981,0.483,0.981,1.001v0.859c0,0.215,0.01,0.425,0.034,0.571H5.146z
						 M5.068,4.408c-0.425-0.01-0.83,0.083-0.83,0.444c0,0.234,0.151,0.342,0.342,0.342c0.239,0,0.415-0.156,0.469-0.327
						c0.015-0.044,0.02-0.093,0.02-0.132V4.408z"/>
					<path fill="#FFFFFF" d="M6.165,5.019C6.302,5.102,6.561,5.19,6.775,5.19c0.264,0,0.381-0.107,0.381-0.264
						c0-0.161-0.098-0.244-0.391-0.347C6.302,4.418,6.106,4.164,6.111,3.886c0-0.42,0.347-0.747,0.898-0.747
						c0.264,0,0.493,0.068,0.63,0.142L7.522,3.705C7.42,3.647,7.229,3.569,7.02,3.569c-0.215,0-0.332,0.103-0.332,0.249
						c0,0.151,0.112,0.225,0.415,0.332c0.43,0.156,0.63,0.376,0.635,0.728c0,0.43-0.337,0.742-0.967,0.742
						c-0.288,0-0.547-0.068-0.723-0.166L6.165,5.019z"/>
					<path fill="#FFFFFF" d="M8.512,3.193l0.43,1.274C8.99,4.614,9.039,4.794,9.072,4.931h0.016C9.127,4.794,9.17,4.618,9.215,4.462
						l0.371-1.27h0.645L9.635,4.814c-0.328,0.889-0.547,1.284-0.83,1.528C8.57,6.552,8.326,6.63,8.174,6.65L8.037,6.142
						c0.104-0.024,0.23-0.078,0.352-0.166C8.502,5.903,8.633,5.761,8.717,5.6C8.74,5.556,8.756,5.522,8.756,5.492
						c0-0.024-0.006-0.059-0.035-0.117L7.852,3.193H8.512z"/>
					<path fill="#FFFFFF" d="M12.865,5.473c-0.143,0.073-0.455,0.146-0.85,0.146c-1.045,0-1.68-0.654-1.68-1.655
						c0-1.084,0.752-1.738,1.758-1.738c0.395,0,0.678,0.083,0.801,0.146l-0.133,0.479c-0.156-0.068-0.371-0.127-0.645-0.127
						c-0.668,0-1.152,0.42-1.152,1.211c0,0.723,0.426,1.187,1.148,1.187c0.244,0,0.498-0.049,0.654-0.122L12.865,5.473z"/>
					<path fill="#FFFFFF" d="M13.244,2.104h0.605v3.467h-0.605V2.104z"/>
					<path fill="#FFFFFF" d="M14.828,4.55c0.014,0.43,0.352,0.615,0.732,0.615c0.277,0,0.479-0.039,0.658-0.107l0.088,0.415
						c-0.205,0.083-0.488,0.146-0.83,0.146c-0.771,0-1.225-0.474-1.225-1.201c0-0.659,0.4-1.279,1.162-1.279
						c0.771,0,1.025,0.635,1.025,1.157c0,0.112-0.01,0.2-0.02,0.254H14.828z M15.873,4.13c0.004-0.22-0.094-0.581-0.494-0.581
						c-0.371,0-0.527,0.337-0.551,0.581H15.873z"/>
					<path fill="#FFFFFF" d="M18.166,5.571l-0.039-0.264h-0.015c-0.146,0.186-0.396,0.317-0.703,0.317
						c-0.479,0-0.747-0.347-0.747-0.708c0-0.601,0.532-0.903,1.411-0.898V3.979c0-0.156-0.063-0.415-0.483-0.415
						c-0.234,0-0.479,0.073-0.64,0.176l-0.117-0.391c0.176-0.107,0.483-0.21,0.859-0.21c0.762,0,0.981,0.483,0.981,1.001v0.859
						c0,0.215,0.01,0.425,0.034,0.571H18.166z M18.088,4.408c-0.425-0.01-0.83,0.083-0.83,0.444c0,0.234,0.151,0.342,0.342,0.342
						c0.239,0,0.415-0.156,0.469-0.327c0.015-0.044,0.02-0.093,0.02-0.132V4.408z"/>
					<path fill="#FFFFFF" d="M19.214,3.901c0-0.273-0.005-0.503-0.02-0.708h0.527l0.029,0.356h0.015
						c0.103-0.186,0.361-0.41,0.757-0.41c0.415,0,0.845,0.269,0.845,1.021v1.411h-0.601V4.228c0-0.342-0.127-0.601-0.454-0.601
						c-0.239,0-0.405,0.171-0.469,0.352c-0.02,0.054-0.024,0.127-0.024,0.195v1.396h-0.605V3.901z"/>
				</g>
			</g>
		</g>
		<polygon fill="#FFFFFF" points="12.442,10.37 12.291,11.172 12.803,11.811 11.999,11.659 11.362,12.17 11.514,11.367 
			11.002,10.73 11.806,10.881 		"/>
		<polygon fill="#FFFFFF" points="16.065,9.821 16.424,10.553 17.216,10.759 16.481,11.118 16.276,11.908 15.918,11.175 
			15.126,10.969 15.86,10.61 		"/>
		<polygon fill="#FFFFFF" points="5.215,9.332 5.604,10.049 6.403,10.221 5.685,10.612 5.514,11.408 5.124,10.692 4.325,10.52 
			5.044,10.13 		"/>
		<polygon fill="#FFFFFF" points="1.423,11.163 1.813,11.881 2.611,12.053 1.894,12.443 1.722,13.24 1.332,12.524 0.533,12.352 
			1.252,11.961 		"/>
		<g>
			<path fill="#FFFFFF" d="M16.79,18.131c-1.669,0.498-3.042,0.895-3.488,0.986c-1.414,0.289-4.742,0.031-5.289-0.547
				c0,0,0.027-0.693,1.538-0.676c2.255,0.028,2.616-0.358,2.909-0.529c0,0,0.259-1.112-3.627-0.885
				c-3.84,0.225-4.408,0.254-4.167-0.5c1.153-0.139,3.824-0.445,5.428-0.509c0.106-0.004,0.189-0.094,0.186-0.2
				s-0.087-0.189-0.2-0.186c-1.518,0.061-3.977,0.336-5.23,0.484c0.057-0.113,0.196-0.344,0.465-0.605
				c1.003-0.125,3.121-0.372,4.781-0.442c0.106-0.005,0.188-0.095,0.185-0.2c-0.005-0.107-0.089-0.197-0.201-0.186
				c-1.37,0.059-3.047,0.235-4.164,0.367c0.603-0.373,1.509-0.715,2.87-0.805l1.658-0.109c-0.373-0.312-0.748-0.632-1.127-0.967
				c-0.798-0.707-2.083-0.498-3.408,0.192c-2.002,1.044-3.164,1.292-3.903,1.351c0,0-0.983,2.958,1.396,4.854
				c1.99,1.587,4.193,2.063,7.097,3.641h0.764c0.839,0,1.962,0,3.067,0l5.533-2.837C19.86,19.824,18.653,19.262,16.79,18.131z"/>
			<path fill="#FFFFFF" fill-opacity="0.5" d="M15.223,14.953c-3.015-1.519-3.882-1.422-3.882-1.422l-0.898,0.059l-1.658,0.109
				c-1.361,0.09-2.268,0.432-2.87,0.805c1.117-0.132,2.794-0.309,4.164-0.367c0.112-0.012,0.196,0.078,0.201,0.186
				c0.004,0.105-0.078,0.195-0.185,0.2c-1.66,0.07-3.778,0.317-4.781,0.442c-0.269,0.262-0.408,0.492-0.465,0.605
				c1.254-0.148,3.713-0.424,5.23-0.484c0.113-0.004,0.196,0.079,0.2,0.186s-0.079,0.196-0.186,0.2
				c-1.604,0.063-4.274,0.37-5.428,0.509c-0.241,0.754,0.327,0.725,4.167,0.5c3.885-0.228,3.627,0.885,3.627,0.885
				c-0.293,0.171-0.654,0.558-2.909,0.529c-1.511-0.018-1.538,0.676-1.538,0.676c0.547,0.578,3.875,0.836,5.289,0.547
				c0.446-0.092,1.819-0.488,3.488-0.986c1.888-0.564,4.15-1.259,5.888-1.795v-5.75C20.146,11.707,15.223,14.953,15.223,14.953z"/>
		</g>
	</g>
</g>
</svg>
