<?xml version="1.0" encoding="utf-8"?>
<!-- Generator: Adobe Illustrator 16.0.3, SVG Export Plug-In . SVG Version: 6.00 Build 0)  -->
<!DOCTYPE svg PUBLIC "-//W3C//DTD SVG 1.1//EN" "http://www.w3.org/Graphics/SVG/1.1/DTD/svg11.dtd">
<svg version="1.1" xmlns="http://www.w3.org/2000/svg" xmlns:xlink="http://www.w3.org/1999/xlink" x="0px" y="0px"
	 width="22.679px" height="22.68px" viewBox="0 0 22.679 22.68" enable-background="new 0 0 22.679 22.68" xml:space="preserve">
<g id="BCGRND">
</g>
<g id="BAREVNE_POZADI_IKON">
	<rect x="0" y="0" fill="#585857" width="22.676" height="22.678"/>
</g>
<g id="IKONY">
	<g>
		<g>
			<g>
				<rect x="0" y="11.956" fill="#FFFFFF" width="22.677" height="0.889"/>
			</g>
		</g>
		<polygon fill="#FFFFFF" points="12.442,12.948 12.291,13.749 12.802,14.387 11.999,14.237 11.362,14.746 11.513,13.945 
			11.001,13.307 11.805,13.457 		"/>
		<polygon fill="#FFFFFF" points="16.065,12.397 16.423,13.13 17.215,13.336 16.481,13.696 16.276,14.485 15.917,13.752 
			15.125,13.546 15.86,13.187 		"/>
		<polygon fill="#FFFFFF" points="5.214,12.283 5.604,13 6.403,13.172 5.685,13.563 5.513,14.361 5.124,13.643 4.325,13.472 
			5.043,13.082 		"/>
		<polygon fill="#FFFFFF" points="1.422,13.74 1.812,14.457 2.611,14.629 1.893,15.02 1.721,15.817 1.332,15.1 0.533,14.928 
			1.251,14.538 		"/>
		<g>
			<path fill="#FFFFFF" d="M16.79,20.707c-1.669,0.499-3.042,0.895-3.488,0.986c-1.414,0.289-4.742,0.032-5.289-0.547
				c0,0,0.027-0.693,1.538-0.675c2.255,0.028,2.616-0.358,2.909-0.53c0,0,0.259-1.111-3.627-0.885
				c-3.84,0.226-4.408,0.255-4.167-0.5c1.153-0.139,3.824-0.444,5.428-0.508c0.106-0.004,0.189-0.094,0.186-0.201
				c-0.004-0.105-0.087-0.189-0.2-0.185c-1.518,0.061-3.977,0.335-5.23,0.483c0.057-0.113,0.196-0.344,0.465-0.605
				c1.003-0.125,3.121-0.371,4.781-0.441c0.106-0.005,0.188-0.095,0.185-0.201c-0.005-0.106-0.089-0.197-0.201-0.185
				c-1.37,0.058-3.047,0.235-4.164,0.366c0.603-0.373,1.509-0.715,2.87-0.804l1.658-0.109c-0.373-0.312-0.748-0.632-1.127-0.968
				c-0.798-0.706-2.083-0.498-3.408,0.193c-2.002,1.043-3.164,1.291-3.903,1.35c0,0-1.23,2.613,1.099,4.57
				c0.781,0.656,1.688,0.656,1.957,1.365H19.86C19.86,22.678,18.653,21.838,16.79,20.707z"/>
			<path fill="#FFFFFF" fill-opacity="0.5" d="M15.222,17.531c-3.015-1.519-3.882-1.423-3.882-1.423l-0.898,0.06l-1.658,0.109
				c-1.361,0.089-2.268,0.431-2.87,0.804c1.117-0.131,2.794-0.309,4.164-0.366c0.113-0.013,0.197,0.078,0.201,0.185
				c0.004,0.106-0.078,0.196-0.185,0.201c-1.66,0.07-3.778,0.316-4.781,0.441c-0.269,0.262-0.408,0.492-0.465,0.605
				c1.254-0.148,3.713-0.423,5.23-0.483c0.113-0.005,0.196,0.079,0.2,0.185c0.004,0.107-0.079,0.197-0.186,0.201
				c-1.604,0.063-4.274,0.369-5.428,0.508c-0.241,0.755,0.327,0.726,4.167,0.5c3.886-0.227,3.627,0.885,3.627,0.885
				c-0.293,0.172-0.654,0.559-2.909,0.53c-1.511-0.019-1.538,0.675-1.538,0.675c0.547,0.579,3.875,0.836,5.289,0.547
				c0.446-0.092,1.819-0.487,3.488-0.986c1.887-0.563,4.15-1.258,5.887-1.795v-5.75C20.146,14.283,15.222,17.531,15.222,17.531z"/>
		</g>
		<g>
			<g>
				<path fill="#FFFFFF" d="M8.675,3.828h-1.24v0.967h1.387v0.492H6.833V1.996h1.914V2.49H7.435v0.85h1.24V3.828z"/>
				<path fill="#FFFFFF" d="M10.763,5.287l-0.039-0.264h-0.015c-0.146,0.186-0.396,0.318-0.703,0.318
					c-0.479,0-0.747-0.348-0.747-0.709c0-0.6,0.532-0.902,1.411-0.898V3.696c0-0.156-0.063-0.414-0.483-0.414
					c-0.234,0-0.479,0.072-0.64,0.176L9.43,3.067c0.176-0.107,0.483-0.211,0.859-0.211c0.762,0,0.981,0.484,0.981,1.002v0.859
					c0,0.215,0.01,0.424,0.034,0.57H10.763z M10.685,4.125c-0.425-0.01-0.83,0.084-0.83,0.445c0,0.234,0.151,0.342,0.342,0.342
					c0.239,0,0.415-0.156,0.469-0.328c0.015-0.043,0.02-0.092,0.02-0.131V4.125z"/>
				<path fill="#FFFFFF" d="M11.977,4.737c0.137,0.082,0.396,0.17,0.61,0.17c0.264,0,0.381-0.107,0.381-0.264
					c0-0.16-0.098-0.244-0.391-0.346c-0.464-0.162-0.659-0.416-0.654-0.693c0-0.42,0.347-0.748,0.898-0.748
					c0.264,0,0.493,0.068,0.63,0.143l-0.117,0.424c-0.103-0.059-0.293-0.137-0.503-0.137c-0.215,0-0.332,0.104-0.332,0.25
					c0,0.15,0.112,0.225,0.415,0.332c0.43,0.156,0.63,0.375,0.635,0.727c0,0.43-0.337,0.742-0.967,0.742
					c-0.288,0-0.547-0.068-0.723-0.166L11.977,4.737z"/>
				<path fill="#FFFFFF" d="M14.519,2.91l0.43,1.273c0.049,0.146,0.098,0.328,0.132,0.465h0.015
					c0.039-0.137,0.083-0.313,0.127-0.469l0.371-1.27h0.645l-0.596,1.621c-0.327,0.889-0.547,1.283-0.83,1.527
					c-0.235,0.211-0.479,0.289-0.63,0.309L14.045,5.86c0.103-0.025,0.229-0.078,0.352-0.166c0.112-0.074,0.244-0.215,0.327-0.377
					c0.024-0.043,0.039-0.078,0.039-0.107c0-0.023-0.005-0.059-0.034-0.117L13.86,2.91H14.519z"/>
				<path fill="#FFFFFF" d="M3.072,7H2.134V6.496h2.484V7H3.671v2.787h-0.6V7z"/>
				<path fill="#FFFFFF" d="M6.966,8.576c0,0.875-0.615,1.266-1.221,1.266c-0.674,0-1.191-0.465-1.191-1.227
					c0-0.781,0.512-1.26,1.23-1.26C6.492,7.356,6.966,7.854,6.966,8.576z M5.173,8.602c0,0.459,0.225,0.805,0.592,0.805
					c0.342,0,0.58-0.336,0.58-0.814c0-0.371-0.166-0.797-0.576-0.797C5.345,7.795,5.173,8.205,5.173,8.602z"/>
				<path fill="#FFFFFF" d="M11.052,9.69c-0.141,0.074-0.453,0.146-0.85,0.146c-1.045,0-1.68-0.654-1.68-1.654
					c0-1.084,0.752-1.738,1.758-1.738c0.396,0,0.68,0.082,0.801,0.146l-0.131,0.479C10.794,7,10.58,6.942,10.306,6.942
					c-0.67,0-1.152,0.42-1.152,1.211c0,0.723,0.424,1.186,1.146,1.186c0.244,0,0.498-0.049,0.654-0.121L11.052,9.69z"/>
				<path fill="#FFFFFF" d="M11.628,6.321h0.605v3.467h-0.605V6.321z"/>
				<path fill="#FFFFFF" d="M13.407,8.768c0.015,0.43,0.352,0.615,0.732,0.615c0.278,0,0.479-0.039,0.659-0.107l0.088,0.414
					c-0.205,0.084-0.488,0.146-0.83,0.146c-0.771,0-1.226-0.473-1.226-1.201c0-0.658,0.4-1.279,1.162-1.279
					c0.771,0,1.025,0.635,1.025,1.158c0,0.111-0.01,0.199-0.02,0.254H13.407z M14.452,8.348c0.005-0.221-0.093-0.582-0.493-0.582
					c-0.371,0-0.527,0.338-0.552,0.582H14.452z"/>
				<path fill="#FFFFFF" d="M16.941,9.787l-0.039-0.264h-0.016c-0.146,0.186-0.395,0.318-0.703,0.318
					c-0.479,0-0.746-0.348-0.746-0.709c0-0.6,0.531-0.902,1.41-0.898V8.196c0-0.156-0.063-0.414-0.482-0.414
					c-0.234,0-0.479,0.072-0.641,0.176l-0.117-0.391c0.176-0.107,0.484-0.211,0.859-0.211c0.762,0,0.982,0.484,0.982,1.002v0.859
					c0,0.215,0.01,0.424,0.033,0.57H16.941z M16.863,8.625c-0.426-0.01-0.83,0.084-0.83,0.445c0,0.234,0.15,0.342,0.342,0.342
					c0.238,0,0.414-0.156,0.469-0.328c0.014-0.043,0.02-0.092,0.02-0.131V8.625z"/>
				<path fill="#FFFFFF" d="M18.183,8.117c0-0.273-0.004-0.502-0.02-0.707h0.527l0.029,0.355h0.016
					c0.102-0.186,0.361-0.41,0.756-0.41c0.416,0,0.846,0.27,0.846,1.021v1.41h-0.602V8.446c0-0.342-0.127-0.602-0.453-0.602
					c-0.24,0-0.406,0.172-0.469,0.352c-0.02,0.055-0.025,0.127-0.025,0.195v1.396h-0.605V8.117z"/>
			</g>
		</g>
	</g>
</g>
</svg>
