<?xml version="1.0" encoding="utf-8"?>
<!-- Generator: Adobe Illustrator 16.0.3, SVG Export Plug-In . SVG Version: 6.00 Build 0)  -->
<!DOCTYPE svg PUBLIC "-//W3C//DTD SVG 1.1//EN" "http://www.w3.org/Graphics/SVG/1.1/DTD/svg11.dtd">
<svg version="1.1" xmlns="http://www.w3.org/2000/svg" xmlns:xlink="http://www.w3.org/1999/xlink" x="0px" y="0px" width="22.68px"
	 height="22.68px" viewBox="0 0 22.68 22.68" enable-background="new 0 0 22.68 22.68" xml:space="preserve">
<g id="BCGRND">
</g>
<g id="BAREVNE_POZADI_IKON">
	<polygon fill="#585857" points="22.678,16.335 22.678,0 0.001,0 0.001,22.678 14.118,22.678 22.678,22.678 	"/>
</g>
<g id="IKONY">
	<g>
		<g>
			<path fill="#FFFFFF" d="M13.144,11.068v1.154h1.106v0.497h-1.106v1.165h-0.52v-1.165h-1.105v-0.497h1.105v-1.154H13.144z"/>
			<path fill="#FFFFFF" d="M16.302,11.068v1.154h1.107v0.497h-1.107v1.165h-0.519v-1.165h-1.106v-0.497h1.106v-1.154H16.302z"/>
			<path fill="#FFFFFF" d="M19.461,11.068v1.154h1.106v0.497h-1.106v1.165h-0.519v-1.165h-1.107v-0.497h1.107v-1.154H19.461z"/>
		</g>
		<g>
			<path fill="#FFFFFF" d="M4.86,17.469l-0.773,2.547H2.393l2.88-8.988h2.094l2.922,8.988H8.527l-0.813-2.547H4.86z M7.434,16.229
				l-0.707-2.214c-0.173-0.547-0.319-1.16-0.453-1.681H6.247c-0.134,0.521-0.268,1.146-0.428,1.681l-0.693,2.214H7.434z"/>
		</g>
		<g>
			<rect x="0.001" y="7.77" fill="#FFFFFF" width="22.677" height="0.889"/>
		</g>
		<g>
			<g>
				<path fill="#FFFFFF" d="M5.003,4.11h-1.24v0.967H5.15V5.57H3.163V2.279h1.914v0.493H3.763v0.85h1.24V4.11z"/>
				<path fill="#FFFFFF" d="M5.827,3.9c0-0.273-0.005-0.503-0.02-0.708h0.527l0.029,0.356h0.015c0.103-0.186,0.361-0.41,0.757-0.41
					c0.415,0,0.845,0.269,0.845,1.021V5.57H7.38V4.227c0-0.342-0.127-0.601-0.454-0.601c-0.239,0-0.405,0.171-0.469,0.352
					c-0.02,0.054-0.024,0.127-0.024,0.195V5.57H5.827V3.9z"/>
				<path fill="#FFFFFF" d="M9.22,4.55c0.015,0.43,0.352,0.615,0.732,0.615c0.278,0,0.479-0.039,0.659-0.107l0.088,0.415
					c-0.205,0.083-0.488,0.146-0.83,0.146c-0.771,0-1.226-0.474-1.226-1.201c0-0.659,0.4-1.279,1.162-1.279
					c0.771,0,1.025,0.635,1.025,1.157c0,0.112-0.01,0.2-0.02,0.254H9.22z M10.265,4.13c0.005-0.22-0.093-0.581-0.493-0.581
					c-0.371,0-0.527,0.337-0.552,0.581H10.265z"/>
				<path fill="#FFFFFF" d="M11.489,3.959c0-0.322-0.005-0.552-0.02-0.767h0.522l0.02,0.454h0.02
					c0.117-0.337,0.396-0.508,0.649-0.508c0.059,0,0.093,0.005,0.142,0.015v0.566c-0.049-0.01-0.103-0.02-0.176-0.02
					c-0.288,0-0.483,0.186-0.537,0.454c-0.01,0.054-0.02,0.117-0.02,0.186v1.23h-0.601V3.959z"/>
				<path fill="#FFFFFF" d="M15.534,3.192c-0.01,0.161-0.02,0.356-0.02,0.684v1.348c0,0.498-0.104,0.854-0.352,1.079
					c-0.25,0.22-0.592,0.288-0.918,0.288c-0.303,0-0.625-0.063-0.83-0.19l0.131-0.454c0.152,0.088,0.406,0.181,0.693,0.181
					c0.391,0,0.684-0.205,0.684-0.718V5.204h-0.01c-0.137,0.21-0.381,0.352-0.693,0.352c-0.59,0-1.01-0.488-1.01-1.162
					c0-0.781,0.508-1.255,1.078-1.255c0.361,0,0.576,0.176,0.689,0.371h0.01l0.023-0.317H15.534z M14.913,4.144
					c0-0.054-0.004-0.112-0.02-0.161c-0.063-0.22-0.234-0.386-0.488-0.386c-0.336,0-0.586,0.293-0.586,0.776
					c0,0.405,0.205,0.732,0.582,0.732c0.225,0,0.42-0.146,0.488-0.361c0.014-0.063,0.023-0.146,0.023-0.215V4.144z"/>
				<path fill="#FFFFFF" d="M16.954,2.528c0,0.181-0.133,0.322-0.342,0.322c-0.201,0-0.332-0.142-0.332-0.322
					c0-0.186,0.137-0.327,0.336-0.327C16.822,2.201,16.948,2.343,16.954,2.528z M16.314,5.57V3.192h0.605V5.57H16.314z"/>
				<path fill="#FFFFFF" d="M18.161,4.55c0.016,0.43,0.352,0.615,0.732,0.615c0.279,0,0.479-0.039,0.66-0.107l0.088,0.415
					c-0.205,0.083-0.488,0.146-0.83,0.146c-0.771,0-1.227-0.474-1.227-1.201c0-0.659,0.4-1.279,1.162-1.279
					c0.771,0,1.025,0.635,1.025,1.157c0,0.112-0.01,0.2-0.02,0.254H18.161z M19.206,4.13c0.006-0.22-0.092-0.581-0.492-0.581
					c-0.371,0-0.527,0.337-0.553,0.581H19.206z"/>
			</g>
		</g>
		<g>
			<path fill="#FFFFFF" d="M11.586,16.8v0.448h-1.163V16.8H11.586z"/>
			<path fill="#FFFFFF" d="M11.721,18.189v-0.408l0.373-0.338c0.63-0.563,0.937-0.888,0.946-1.226c0-0.235-0.143-0.422-0.476-0.422
				c-0.249,0-0.466,0.125-0.617,0.24l-0.19-0.484c0.217-0.164,0.555-0.297,0.945-0.297c0.652,0,1.012,0.382,1.012,0.905
				c0,0.484-0.35,0.87-0.768,1.243l-0.267,0.223v0.009h1.088v0.555H11.721z"/>
			<path fill="#FFFFFF" d="M16.282,16.733c0,0.893-0.359,1.505-1.097,1.505c-0.746,0-1.075-0.671-1.079-1.487
				c0-0.835,0.355-1.496,1.102-1.496C15.981,15.255,16.282,15.942,16.282,16.733z M14.786,16.751
				c-0.005,0.661,0.155,0.977,0.417,0.977c0.263,0,0.404-0.328,0.404-0.985c0-0.64-0.138-0.978-0.409-0.978
				C14.95,15.764,14.781,16.08,14.786,16.751z"/>
			<path fill="#FFFFFF" d="M18.576,16.111c0,0.604-0.382,0.919-0.8,0.919c-0.439,0-0.785-0.328-0.785-0.87
				c0-0.515,0.314-0.905,0.809-0.905C18.296,15.255,18.576,15.618,18.576,16.111z M17.493,16.142c0,0.302,0.102,0.52,0.297,0.52
				c0.191,0,0.284-0.195,0.284-0.52c0-0.293-0.079-0.52-0.288-0.52C17.586,15.623,17.493,15.853,17.493,16.142z M17.813,18.238
				l1.656-2.983h0.364l-1.661,2.983H17.813z M20.655,17.31c0,0.604-0.382,0.919-0.8,0.919c-0.435,0-0.781-0.329-0.785-0.87
				c0-0.516,0.314-0.906,0.808-0.906C20.374,16.453,20.655,16.817,20.655,17.31z M19.575,17.342c-0.004,0.302,0.098,0.52,0.293,0.52
				c0.191,0,0.284-0.196,0.284-0.52c0-0.294-0.075-0.52-0.284-0.52C19.664,16.822,19.575,17.052,19.575,17.342z"/>
		</g>
	</g>
</g>
</svg>
