<?xml version="1.0" encoding="utf-8"?>
<!-- Generator: Adobe Illustrator 16.0.3, SVG Export Plug-In . SVG Version: 6.00 Build 0)  -->
<!DOCTYPE svg PUBLIC "-//W3C//DTD SVG 1.1//EN" "http://www.w3.org/Graphics/SVG/1.1/DTD/svg11.dtd">
<svg version="1.1" xmlns="http://www.w3.org/2000/svg" xmlns:xlink="http://www.w3.org/1999/xlink" x="0px" y="0px" width="22.68px"
	 height="22.68px" viewBox="0 0 22.68 22.68" enable-background="new 0 0 22.68 22.68" xml:space="preserve">
<g id="BCGRND">
</g>
<g id="BAREVNE_POZADI_IKON">
	<rect y="0" fill="#585857" width="22.676" height="22.678"/>
</g>
<g id="IKONY">
	<g>
		<g>
			<path fill="#FFFFFF" d="M13.13,11.067v1.154h1.106v0.492H13.13v1.17h-0.519v-1.17h-1.107v-0.492h1.107v-1.154H13.13z"/>
			<path fill="#FFFFFF" d="M16.289,11.067v1.154h1.105v0.492h-1.105v1.17h-0.52v-1.17h-1.106v-0.492h1.106v-1.154H16.289z"/>
			<path fill="#FFFFFF" d="M19.447,11.067v1.154h1.106v0.492h-1.106v1.17h-0.52v-1.17h-1.105v-0.492h1.105v-1.154H19.447z"/>
		</g>
		<g>
			<path fill="#FFFFFF" d="M6.559,17.469l-0.773,2.547H4.092l2.881-8.988h2.094l2.92,8.988h-1.773l-0.813-2.547H6.559z
				 M9.133,16.228l-0.707-2.214c-0.174-0.547-0.32-1.16-0.453-1.681H7.945c-0.133,0.521-0.279,1.146-0.426,1.681l-0.693,2.214H9.133
				z"/>
		</g>
		<g>
			<rect y="7.768" fill="#FFFFFF" width="22.676" height="0.889"/>
		</g>
		<g>
			<path fill="#FFFFFF" d="M5.002,4.109h-1.24v0.967h1.387v0.493H3.161V2.278h1.914v0.493H3.762v0.85h1.24V4.109z"/>
			<path fill="#FFFFFF" d="M5.826,3.899c0-0.273-0.01-0.503-0.02-0.708h0.521l0.029,0.356h0.016c0.107-0.186,0.365-0.41,0.762-0.41
				c0.414,0,0.844,0.269,0.844,1.021v1.411h-0.6V4.226c0-0.342-0.127-0.601-0.455-0.601c-0.238,0-0.404,0.171-0.469,0.352
				c-0.02,0.049-0.029,0.122-0.029,0.19v1.401h-0.6V3.899z"/>
			<path fill="#FFFFFF" d="M9.219,4.549c0.014,0.43,0.346,0.615,0.732,0.615c0.277,0,0.473-0.044,0.658-0.107l0.088,0.41
				c-0.205,0.088-0.488,0.151-0.83,0.151c-0.771,0-1.225-0.474-1.225-1.201c0-0.659,0.4-1.279,1.162-1.279
				c0.771,0,1.025,0.635,1.025,1.157c0,0.112-0.01,0.2-0.02,0.254H9.219z M10.264,4.129c0.004-0.22-0.094-0.581-0.494-0.581
				c-0.371,0-0.527,0.337-0.551,0.581H10.264z"/>
			<path fill="#FFFFFF" d="M11.486,3.958c0-0.322-0.004-0.557-0.02-0.767h0.518L12.01,3.64h0.014
				c0.117-0.332,0.396-0.503,0.654-0.503c0.059,0,0.094,0.005,0.143,0.015v0.562c-0.055-0.01-0.107-0.015-0.182-0.015
				c-0.283,0-0.482,0.181-0.537,0.454c-0.01,0.054-0.014,0.117-0.014,0.181v1.235h-0.602V3.958z"/>
			<path fill="#FFFFFF" d="M15.513,5.222c0,0.498-0.103,0.854-0.352,1.079c-0.244,0.22-0.591,0.288-0.918,0.288
				c-0.303,0-0.625-0.068-0.83-0.19l0.132-0.454c0.151,0.088,0.405,0.181,0.693,0.181c0.391,0,0.684-0.205,0.684-0.718V5.203h-0.01
				c-0.137,0.21-0.376,0.352-0.693,0.352c-0.591,0-1.011-0.488-1.011-1.162c0-0.781,0.508-1.255,1.079-1.255
				c0.366,0,0.576,0.176,0.688,0.371h0.01l0.024-0.317h0.522c-0.01,0.161-0.02,0.356-0.02,0.684V5.222z M14.912,4.143
				c0-0.059-0.005-0.112-0.02-0.161c-0.063-0.22-0.234-0.386-0.488-0.386c-0.337,0-0.586,0.293-0.586,0.776
				c0,0.405,0.205,0.732,0.581,0.732c0.225,0,0.42-0.146,0.488-0.366c0.02-0.059,0.024-0.142,0.024-0.21V4.143z"/>
			<path fill="#FFFFFF" d="M16.952,2.527c0,0.176-0.132,0.322-0.342,0.322c-0.2,0-0.332-0.146-0.332-0.322
				c0-0.186,0.137-0.327,0.337-0.327C16.82,2.2,16.947,2.342,16.952,2.527z M16.313,5.569V3.191h0.601v2.378H16.313z"/>
			<path fill="#FFFFFF" d="M18.16,4.549c0.015,0.43,0.347,0.615,0.732,0.615c0.278,0,0.474-0.044,0.659-0.107l0.088,0.41
				c-0.205,0.088-0.488,0.151-0.83,0.151c-0.771,0-1.226-0.474-1.226-1.201c0-0.659,0.4-1.279,1.162-1.279
				c0.771,0,1.025,0.635,1.025,1.157c0,0.112-0.01,0.2-0.02,0.254H18.16z M19.205,4.129c0.005-0.22-0.093-0.581-0.493-0.581
				c-0.371,0-0.527,0.337-0.552,0.581H19.205z"/>
		</g>
	</g>
</g>
</svg>
