<?xml version="1.0" encoding="utf-8"?>
<!-- Generator: Adobe Illustrator 16.0.3, SVG Export Plug-In . SVG Version: 6.00 Build 0)  -->
<!DOCTYPE svg PUBLIC "-//W3C//DTD SVG 1.1//EN" "http://www.w3.org/Graphics/SVG/1.1/DTD/svg11.dtd">
<svg version="1.1" xmlns="http://www.w3.org/2000/svg" xmlns:xlink="http://www.w3.org/1999/xlink" x="0px" y="0px"
	 width="48.875px" height="22.678px" viewBox="0 0 48.875 22.678" enable-background="new 0 0 48.875 22.678" xml:space="preserve">
<g id="BCGRND" display="none">
</g>
<g id="BAREVNE_POZADI_IKON">
	<g>
		<rect fill="#E5E5E5" width="15.943" height="22.677"/>
		<path d="M12.758,3.706h0.592V2.954h0.755V2.379H13.35V1.628h-0.592v0.751h-0.755v0.575h0.755V3.706z M10.087,3.706h0.592V2.954
			h0.754V2.379h-0.754V1.628h-0.592v0.751H9.331v0.575h0.756V3.706z M7.417,3.706h0.592V2.954h0.756V2.379H8.008V1.628H7.417v0.751
			H6.661v0.575h0.756V3.706z M3.872,4.422l0.666-1.625l0.665,1.625H3.872z M1.896,6.519H3.02l0.458-1.124h2.117l0.458,1.124h1.152
			L5.059,1.473H4.044L1.896,6.519z"/>
		<g>
			<path d="M3.417,19.651V16.63h0.852c0.903,0,1.511,0.623,1.511,1.511v0.014c0,0.889-0.609,1.497-1.511,1.497H3.417z M2.316,20.646
				h1.953c1.576,0,2.663-1.094,2.663-2.505v-0.015c0-1.41-1.087-2.49-2.663-2.49H2.316V20.646z"/>
		</g>
		<polygon points="6,10.608 4.532,8.343 3.064,10.608 4.041,10.608 4.041,13.888 5.023,13.888 5.023,10.608 		"/>
		<polygon fill="#E30613" points="15.943,0 15.943,22.677 38.623,22.677 48.875,11.338 38.623,0 		"/>
		<g>
			<path fill="#FFFFFF" d="M24.811,14.705V7.37h2.068c2.19,0,3.668,1.512,3.668,3.668v0.035c0,2.155-1.478,3.633-3.668,3.633H24.811
				z M22.134,17.122h4.745c3.825,0,6.467-2.66,6.467-6.084v-0.035c0-3.424-2.642-6.049-6.467-6.049h-4.745V17.122z"/>
		</g>
	</g>
</g>
<g id="IKONY">
</g>
</svg>
