<?xml version="1.0" encoding="utf-8"?>
<!-- Generator: Adobe Illustrator 16.0.3, SVG Export Plug-In . SVG Version: 6.00 Build 0)  -->
<!DOCTYPE svg PUBLIC "-//W3C//DTD SVG 1.1//EN" "http://www.w3.org/Graphics/SVG/1.1/DTD/svg11.dtd">
<svg version="1.1" xmlns="http://www.w3.org/2000/svg" xmlns:xlink="http://www.w3.org/1999/xlink" x="0px" y="0px" width="22.68px"
	 height="22.68px" viewBox="0 0 22.68 22.68" enable-background="new 0 0 22.68 22.68" xml:space="preserve">
<g id="BCGRND">
</g>
<g id="BAREVNE_POZADI_IKON">
	<rect x="0" y="0" fill="#585857" width="22.676" height="22.678"/>
</g>
<g id="IKONY">
	<g>
		<polygon fill="#FFFFFF" points="15.945,11.068 15.426,11.068 15.426,12.222 14.319,12.222 14.319,12.715 15.426,12.715 
			15.426,13.885 15.945,13.885 15.945,12.715 17.051,12.715 17.051,12.222 15.945,12.222 		"/>
		<path fill="#FFFFFF" d="M9.524,11.028l-2.881,8.988h1.693l0.773-2.547h2.841l0.813,2.547h1.773l-2.92-8.988H9.524z M9.377,16.229
			l0.693-2.214c0.146-0.534,0.293-1.16,0.426-1.681h0.027c0.133,0.521,0.279,1.134,0.453,1.681l0.707,2.214H9.377z"/>
		<rect x="0" y="7.769" fill="#FFFFFF" width="22.677" height="0.889"/>
		<polygon fill="#FFFFFF" points="5.149,5.077 3.762,5.077 3.762,4.11 5.002,4.11 5.002,3.622 3.762,3.622 3.762,2.772 5.076,2.772 
			5.076,2.279 3.162,2.279 3.162,5.57 5.149,5.57 		"/>
		<path fill="#FFFFFF" d="M5.826,5.57h0.601V4.169c0-0.068,0.01-0.142,0.029-0.19C6.52,3.798,6.686,3.627,6.925,3.627
			c0.327,0,0.454,0.259,0.454,0.601V5.57H7.98V4.159c0-0.752-0.43-1.021-0.845-1.021c-0.396,0-0.654,0.225-0.762,0.41H6.359
			L6.329,3.192H5.807c0.01,0.205,0.02,0.435,0.02,0.708V5.57z"/>
		<path fill="#FFFFFF" d="M9.868,5.619c0.342,0,0.625-0.063,0.83-0.151l-0.088-0.41c-0.186,0.063-0.381,0.107-0.659,0.107
			c-0.386,0-0.718-0.186-0.732-0.615h1.592c0.01-0.054,0.02-0.142,0.02-0.254c0-0.522-0.254-1.157-1.025-1.157
			c-0.762,0-1.162,0.62-1.162,1.279C8.643,5.145,9.097,5.619,9.868,5.619z M9.771,3.549c0.4,0,0.498,0.361,0.493,0.581H9.219
			C9.243,3.885,9.4,3.549,9.771,3.549z"/>
		<path fill="#FFFFFF" d="M11.487,5.57h0.601V4.335c0-0.063,0.005-0.127,0.015-0.181C12.156,3.881,12.357,3.7,12.64,3.7
			c0.073,0,0.127,0.005,0.181,0.015V3.153c-0.049-0.01-0.083-0.015-0.142-0.015c-0.259,0-0.537,0.171-0.654,0.503H12.01
			l-0.024-0.449h-0.518c0.015,0.21,0.02,0.444,0.02,0.767V5.57z"/>
		<path fill="#FFFFFF" d="M14.219,5.555c0.318,0,0.557-0.142,0.693-0.352h0.01v0.205c0,0.513-0.293,0.718-0.684,0.718
			c-0.287,0-0.541-0.093-0.693-0.181L13.414,6.4c0.205,0.122,0.527,0.19,0.83,0.19c0.326,0,0.674-0.068,0.918-0.288
			c0.248-0.225,0.352-0.581,0.352-1.079V3.876c0-0.327,0.01-0.522,0.02-0.684H15.01L14.986,3.51h-0.01
			c-0.113-0.195-0.322-0.371-0.689-0.371c-0.57,0-1.078,0.474-1.078,1.255C13.209,5.067,13.629,5.555,14.219,5.555z M14.404,3.597
			c0.254,0,0.426,0.166,0.488,0.386c0.016,0.049,0.02,0.103,0.02,0.161V4.53c0,0.068-0.004,0.151-0.023,0.21
			c-0.068,0.22-0.264,0.366-0.488,0.366c-0.377,0-0.582-0.327-0.582-0.732C13.818,3.89,14.068,3.597,14.404,3.597z"/>
		<path fill="#FFFFFF" d="M16.611,2.85c0.209,0,0.342-0.146,0.342-0.322c-0.006-0.186-0.133-0.327-0.338-0.327
			c-0.199,0-0.336,0.142-0.336,0.327C16.279,2.704,16.41,2.85,16.611,2.85z"/>
		<rect x="16.313" y="3.192" fill="#FFFFFF" width="0.602" height="2.378"/>
		<path fill="#FFFFFF" d="M18.811,5.619c0.342,0,0.625-0.063,0.83-0.151l-0.088-0.41c-0.186,0.063-0.381,0.107-0.66,0.107
			c-0.385,0-0.717-0.186-0.732-0.615h1.592c0.01-0.054,0.02-0.142,0.02-0.254c0-0.522-0.254-1.157-1.025-1.157
			c-0.762,0-1.162,0.62-1.162,1.279C17.584,5.145,18.039,5.619,18.811,5.619z M18.713,3.549c0.4,0,0.498,0.361,0.492,0.581H18.16
			C18.186,3.885,18.342,3.549,18.713,3.549z"/>
	</g>
</g>
</svg>
