<?xml version="1.0" encoding="utf-8"?>
<!-- Generator: Adobe Illustrator 16.0.3, SVG Export Plug-In . SVG Version: 6.00 Build 0)  -->
<!DOCTYPE svg PUBLIC "-//W3C//DTD SVG 1.1//EN" "http://www.w3.org/Graphics/SVG/1.1/DTD/svg11.dtd">
<svg version="1.1" xmlns="http://www.w3.org/2000/svg" xmlns:xlink="http://www.w3.org/1999/xlink" x="0px" y="0px" width="22.68px"
	 height="22.68px" viewBox="0 0 22.68 22.68" enable-background="new 0 0 22.68 22.68" xml:space="preserve">
<g id="BCGRND">
</g>
<g id="BAREVNE_POZADI_IKON">
	<rect y="0" fill="#585857" width="22.676" height="22.678"/>
</g>
<g id="IKONY">
	<g>
		<g>
			<path fill="#FFFFFF" d="M11.437,12.494v0.448h-1.163v-0.448H11.437z"/>
			<path fill="#FFFFFF" d="M11.762,13.884v-0.408l0.369-0.333c0.635-0.568,0.941-0.893,0.945-1.23c0-0.235-0.137-0.422-0.471-0.422
				c-0.248,0-0.466,0.125-0.617,0.235l-0.19-0.479c0.213-0.164,0.556-0.297,0.941-0.297c0.657,0,1.013,0.382,1.013,0.901
				c0,0.488-0.347,0.874-0.769,1.247l-0.267,0.223v0.009h1.092v0.555H11.762z"/>
			<path fill="#FFFFFF" d="M16.355,12.428c0,0.888-0.359,1.505-1.092,1.505c-0.746,0-1.074-0.671-1.079-1.487
				c0-0.84,0.351-1.496,1.097-1.496C16.049,10.949,16.355,11.637,16.355,12.428z M14.859,12.446c0,0.661,0.16,0.977,0.418,0.977
				c0.262,0,0.404-0.328,0.404-0.985c0-0.64-0.139-0.978-0.409-0.978C15.028,11.459,14.859,11.771,14.859,12.446z"/>
			<path fill="#FFFFFF" d="M18.574,11.806c0,0.604-0.382,0.924-0.799,0.924c-0.439,0-0.786-0.329-0.786-0.875
				c0-0.515,0.315-0.905,0.813-0.905C18.295,10.949,18.574,11.313,18.574,11.806z M17.49,11.841c-0.004,0.303,0.103,0.52,0.298,0.52
				c0.19,0,0.284-0.195,0.284-0.523c0-0.293-0.08-0.52-0.293-0.52C17.58,11.318,17.49,11.548,17.49,11.841z M17.807,13.933
				l1.66-2.979h0.359l-1.656,2.979H17.807z M20.652,13.005c0,0.6-0.382,0.919-0.799,0.919c-0.436,0-0.781-0.329-0.781-0.87
				c0-0.516,0.314-0.906,0.808-0.906S20.652,12.512,20.652,13.005z M19.573,13.036c-0.005,0.302,0.103,0.52,0.293,0.52
				s0.284-0.196,0.284-0.52c0-0.294-0.08-0.52-0.289-0.52C19.662,12.517,19.573,12.747,19.573,13.036z"/>
		</g>
		<g>
			<path fill="#FFFFFF" d="M5.711,17.469l-0.773,2.547H3.244l2.88-8.988h2.094l2.921,8.988H9.365l-0.814-2.547H5.711z M8.285,16.229
				l-0.707-2.214c-0.174-0.547-0.32-1.16-0.453-1.681H7.098c-0.133,0.521-0.28,1.146-0.427,1.681l-0.693,2.214H8.285z"/>
		</g>
		<g>
			<rect y="7.769" fill="#FFFFFF" width="22.677" height="0.889"/>
		</g>
		<g>
			<path fill="#FFFFFF" d="M5.004,4.11h-1.24v0.967H5.15V5.57H3.163V2.279h1.914v0.493H3.764v0.85h1.24V4.11z"/>
			<path fill="#FFFFFF" d="M5.828,3.9c0-0.273-0.01-0.503-0.02-0.708H6.33l0.029,0.356h0.016c0.107-0.186,0.365-0.41,0.762-0.41
				c0.414,0,0.844,0.269,0.844,1.021V5.57h-0.6V4.227c0-0.342-0.127-0.601-0.455-0.601c-0.238,0-0.404,0.171-0.469,0.352
				C6.438,4.027,6.428,4.1,6.428,4.168V5.57h-0.6V3.9z"/>
			<path fill="#FFFFFF" d="M9.221,4.549c0.014,0.43,0.346,0.615,0.732,0.615c0.277,0,0.473-0.044,0.658-0.107l0.088,0.41
				c-0.205,0.088-0.488,0.151-0.83,0.151c-0.771,0-1.225-0.474-1.225-1.201c0-0.659,0.4-1.279,1.162-1.279
				c0.771,0,1.025,0.635,1.025,1.157c0,0.112-0.01,0.2-0.02,0.254H9.221z M10.266,4.129c0.004-0.22-0.094-0.581-0.494-0.581
				c-0.371,0-0.527,0.337-0.551,0.581H10.266z"/>
			<path fill="#FFFFFF" d="M11.488,3.958c0-0.322-0.004-0.557-0.02-0.767h0.518l0.025,0.449h0.014
				c0.117-0.332,0.396-0.503,0.654-0.503c0.059,0,0.094,0.005,0.143,0.015v0.562c-0.055-0.01-0.107-0.015-0.182-0.015
				c-0.283,0-0.482,0.181-0.537,0.454c-0.01,0.054-0.014,0.117-0.014,0.181V5.57h-0.602V3.958z"/>
			<path fill="#FFFFFF" d="M15.515,5.223c0,0.498-0.103,0.854-0.352,1.079c-0.244,0.22-0.591,0.288-0.918,0.288
				c-0.303,0-0.625-0.068-0.83-0.19l0.132-0.454c0.151,0.088,0.405,0.181,0.693,0.181c0.391,0,0.684-0.205,0.684-0.718V5.203h-0.01
				c-0.137,0.21-0.376,0.352-0.693,0.352c-0.591,0-1.011-0.488-1.011-1.162c0-0.781,0.508-1.255,1.079-1.255
				c0.366,0,0.576,0.176,0.688,0.371h0.01l0.024-0.317h0.522c-0.01,0.161-0.02,0.356-0.02,0.684V5.223z M14.914,4.144
				c0-0.059-0.005-0.112-0.02-0.161c-0.063-0.22-0.234-0.386-0.488-0.386c-0.337,0-0.586,0.293-0.586,0.776
				c0,0.405,0.205,0.732,0.581,0.732c0.225,0,0.42-0.146,0.488-0.366c0.02-0.059,0.024-0.142,0.024-0.21V4.144z"/>
			<path fill="#FFFFFF" d="M16.954,2.528c0,0.176-0.132,0.322-0.342,0.322c-0.2,0-0.332-0.146-0.332-0.322
				c0-0.186,0.137-0.327,0.337-0.327C16.822,2.2,16.949,2.342,16.954,2.528z M16.314,5.57V3.192h0.601V5.57H16.314z"/>
			<path fill="#FFFFFF" d="M18.162,4.549c0.015,0.43,0.347,0.615,0.732,0.615c0.278,0,0.474-0.044,0.659-0.107l0.088,0.41
				c-0.205,0.088-0.488,0.151-0.83,0.151c-0.771,0-1.226-0.474-1.226-1.201c0-0.659,0.4-1.279,1.162-1.279
				c0.771,0,1.025,0.635,1.025,1.157c0,0.112-0.01,0.2-0.02,0.254H18.162z M19.207,4.129c0.005-0.22-0.093-0.581-0.493-0.581
				c-0.371,0-0.527,0.337-0.552,0.581H19.207z"/>
		</g>
	</g>
</g>
</svg>
