<?xml version="1.0" encoding="utf-8"?>
<!-- Generator: Adobe Illustrator 16.0.3, SVG Export Plug-In . SVG Version: 6.00 Build 0)  -->
<!DOCTYPE svg PUBLIC "-//W3C//DTD SVG 1.1//EN" "http://www.w3.org/Graphics/SVG/1.1/DTD/svg11.dtd">
<svg version="1.1" xmlns="http://www.w3.org/2000/svg" xmlns:xlink="http://www.w3.org/1999/xlink" x="0px" y="0px" width="22.68px"
	 height="22.68px" viewBox="0 0 22.68 22.68" enable-background="new 0 0 22.68 22.68" xml:space="preserve">
<g id="BCGRND">
</g>
<g id="BAREVNE_POZADI_IKON">
	<rect x="0" y="0" fill="#585857" width="22.676" height="22.678"/>
</g>
<g id="IKONY">
	<g>
		<g>
			<path fill="#FFFFFF" d="M9.821,17.469l-0.773,2.547H7.355l2.88-8.988h2.094l2.922,8.988h-1.774l-0.813-2.547H9.821z
				 M12.396,16.229l-0.707-2.214c-0.173-0.547-0.319-1.16-0.454-1.681h-0.025c-0.134,0.521-0.281,1.146-0.428,1.681l-0.693,2.214
				H12.396z"/>
		</g>
		<g>
			<rect x="0" y="7.769" fill="#FFFFFF" width="22.678" height="0.889"/>
		</g>
		<g>
			<path fill="#FFFFFF" d="M5.004,4.11h-1.24v0.967h1.387V5.57H3.162V2.279h1.914v0.493H3.764v0.85h1.24V4.11z"/>
			<path fill="#FFFFFF" d="M5.827,3.9c0-0.273-0.01-0.503-0.02-0.708H6.33l0.029,0.356h0.015c0.107-0.186,0.366-0.41,0.762-0.41
				c0.415,0,0.845,0.269,0.845,1.021V5.57H7.38V4.227c0-0.342-0.127-0.601-0.454-0.601c-0.239,0-0.405,0.171-0.469,0.352
				C6.438,4.027,6.428,4.1,6.428,4.168V5.57H5.827V3.9z"/>
			<path fill="#FFFFFF" d="M9.22,4.549c0.015,0.43,0.347,0.615,0.732,0.615c0.278,0,0.474-0.044,0.659-0.107l0.088,0.41
				c-0.205,0.088-0.488,0.151-0.83,0.151c-0.771,0-1.226-0.474-1.226-1.201c0-0.659,0.4-1.279,1.162-1.279
				c0.771,0,1.025,0.635,1.025,1.157c0,0.112-0.01,0.2-0.02,0.254H9.22z M10.265,4.129c0.005-0.22-0.093-0.581-0.493-0.581
				c-0.371,0-0.527,0.337-0.552,0.581H10.265z"/>
			<path fill="#FFFFFF" d="M11.488,3.958c0-0.322-0.005-0.557-0.02-0.767h0.518l0.024,0.449h0.015
				c0.117-0.332,0.396-0.503,0.654-0.503c0.059,0,0.093,0.005,0.142,0.015v0.562c-0.054-0.01-0.107-0.015-0.181-0.015
				c-0.283,0-0.483,0.181-0.537,0.454c-0.01,0.054-0.015,0.117-0.015,0.181V5.57h-0.601V3.958z"/>
			<path fill="#FFFFFF" d="M15.514,5.223c0,0.498-0.102,0.854-0.352,1.079c-0.244,0.22-0.59,0.288-0.918,0.288
				c-0.303,0-0.625-0.068-0.83-0.19l0.133-0.454c0.15,0.088,0.404,0.181,0.693,0.181c0.391,0,0.684-0.205,0.684-0.718V5.203h-0.01
				c-0.137,0.21-0.377,0.352-0.693,0.352c-0.592,0-1.012-0.488-1.012-1.162c0-0.781,0.508-1.255,1.08-1.255
				c0.365,0,0.576,0.176,0.688,0.371h0.01l0.025-0.317h0.521c-0.01,0.161-0.02,0.356-0.02,0.684V5.223z M14.914,4.144
				c0-0.059-0.006-0.112-0.02-0.161c-0.064-0.22-0.234-0.386-0.488-0.386c-0.338,0-0.586,0.293-0.586,0.776
				c0,0.405,0.205,0.732,0.58,0.732c0.225,0,0.42-0.146,0.488-0.366c0.02-0.059,0.025-0.142,0.025-0.21V4.144z"/>
			<path fill="#FFFFFF" d="M16.953,2.528c0,0.176-0.131,0.322-0.342,0.322c-0.199,0-0.332-0.146-0.332-0.322
				c0-0.186,0.137-0.327,0.338-0.327C16.822,2.2,16.949,2.342,16.953,2.528z M16.315,5.57V3.192h0.6V5.57H16.315z"/>
			<path fill="#FFFFFF" d="M18.162,4.549c0.014,0.43,0.346,0.615,0.732,0.615c0.277,0,0.473-0.044,0.658-0.107l0.088,0.41
				c-0.205,0.088-0.488,0.151-0.83,0.151c-0.771,0-1.225-0.474-1.225-1.201c0-0.659,0.4-1.279,1.162-1.279
				c0.771,0,1.025,0.635,1.025,1.157c0,0.112-0.01,0.2-0.02,0.254H18.162z M19.207,4.129c0.004-0.22-0.094-0.581-0.494-0.581
				c-0.371,0-0.527,0.337-0.551,0.581H19.207z"/>
		</g>
	</g>
</g>
</svg>
