<?xml version="1.0" encoding="utf-8"?>
<!-- Generator: Adobe Illustrator 16.0.3, SVG Export Plug-In . SVG Version: 6.00 Build 0)  -->
<!DOCTYPE svg PUBLIC "-//W3C//DTD SVG 1.1//EN" "http://www.w3.org/Graphics/SVG/1.1/DTD/svg11.dtd">
<svg version="1.1" xmlns="http://www.w3.org/2000/svg" xmlns:xlink="http://www.w3.org/1999/xlink" x="0px" y="0px" width="22.68px"
	 height="22.68px" viewBox="0 0 22.68 22.68" enable-background="new 0 0 22.68 22.68" xml:space="preserve">
<g id="BCGRND">
</g>
<g id="BAREVNE_POZADI_IKON">
	<rect y="0" fill="#585857" width="22.676" height="22.678"/>
</g>
<g id="IKONY">
	<g>
		<g>
			<path fill="#FFFFFF" d="M11.437,12.495v0.448h-1.163v-0.448H11.437z"/>
			<path fill="#FFFFFF" d="M11.877,13.224c0.12,0.066,0.396,0.177,0.671,0.177c0.351,0,0.528-0.168,0.528-0.382
				c0-0.288-0.284-0.417-0.582-0.417H12.22v-0.484h0.266c0.227,0,0.511-0.089,0.511-0.333c0-0.173-0.138-0.302-0.426-0.302
				c-0.235,0-0.484,0.103-0.6,0.173l-0.137-0.488c0.173-0.11,0.515-0.217,0.892-0.217c0.613,0,0.955,0.323,0.955,0.719
				c0,0.307-0.173,0.551-0.529,0.671v0.009c0.347,0.062,0.626,0.324,0.626,0.706c0,0.506-0.449,0.879-1.181,0.879
				c-0.373,0-0.688-0.098-0.857-0.2L11.877,13.224z"/>
			<path fill="#FFFFFF" d="M16.356,12.429c0,0.888-0.36,1.505-1.092,1.505c-0.746,0-1.075-0.671-1.079-1.487
				c0-0.84,0.351-1.496,1.097-1.496C16.049,10.95,16.356,11.638,16.356,12.429z M14.859,12.447c0,0.661,0.16,0.977,0.417,0.977
				c0.262,0,0.404-0.328,0.404-0.985c0-0.64-0.138-0.978-0.409-0.978C15.028,11.46,14.859,11.772,14.859,12.447z"/>
			<path fill="#FFFFFF" d="M18.574,11.807c0,0.604-0.382,0.924-0.799,0.924c-0.439,0-0.786-0.329-0.786-0.875
				c0-0.515,0.315-0.905,0.813-0.905C18.294,10.95,18.574,11.314,18.574,11.807z M17.491,11.842c-0.004,0.303,0.102,0.52,0.297,0.52
				c0.191,0,0.284-0.195,0.284-0.523c0-0.293-0.08-0.52-0.293-0.52C17.58,11.319,17.491,11.549,17.491,11.842z M17.806,13.934
				l1.661-2.979h0.359l-1.656,2.979H17.806z M20.652,13.006c0,0.6-0.382,0.919-0.799,0.919c-0.435,0-0.781-0.329-0.781-0.87
				c0-0.516,0.315-0.906,0.808-0.906C20.373,12.149,20.652,12.513,20.652,13.006z M19.573,13.037
				c-0.004,0.302,0.102,0.52,0.293,0.52s0.284-0.196,0.284-0.52c0-0.294-0.08-0.52-0.289-0.52
				C19.662,12.518,19.573,12.748,19.573,13.037z"/>
		</g>
		<g>
			<path fill="#FFFFFF" d="M5.71,17.47l-0.773,2.547H3.244l2.88-8.988h2.094l2.921,8.988H9.365L8.551,17.47H5.71z M8.285,16.23
				l-0.707-2.214c-0.173-0.547-0.32-1.16-0.453-1.681H7.098c-0.133,0.521-0.28,1.146-0.427,1.681L5.978,16.23H8.285z"/>
		</g>
		<g>
			<rect y="7.77" fill="#FFFFFF" width="22.677" height="0.889"/>
		</g>
		<g>
			<path fill="#FFFFFF" d="M5.004,4.111h-1.24v0.967H5.15v0.493H3.163V2.28h1.914v0.493H3.764v0.85h1.24V4.111z"/>
			<path fill="#FFFFFF" d="M5.828,3.901c0-0.273-0.01-0.503-0.02-0.708h0.522L6.36,3.549h0.015c0.107-0.186,0.366-0.41,0.762-0.41
				c0.415,0,0.845,0.269,0.845,1.021v1.411H7.38V4.228c0-0.342-0.127-0.601-0.454-0.601c-0.239,0-0.405,0.171-0.469,0.352
				c-0.02,0.049-0.029,0.122-0.029,0.19v1.401H5.828V3.901z"/>
			<path fill="#FFFFFF" d="M9.22,4.55c0.015,0.43,0.347,0.615,0.732,0.615c0.278,0,0.474-0.044,0.659-0.107l0.088,0.41
				c-0.205,0.088-0.488,0.151-0.83,0.151c-0.771,0-1.226-0.474-1.226-1.201c0-0.659,0.4-1.279,1.162-1.279
				c0.771,0,1.025,0.635,1.025,1.157c0,0.112-0.01,0.2-0.02,0.254H9.22z M10.265,4.13c0.005-0.22-0.093-0.581-0.493-0.581
				c-0.371,0-0.527,0.337-0.552,0.581H10.265z"/>
			<path fill="#FFFFFF" d="M11.489,3.959c0-0.322-0.005-0.557-0.02-0.767h0.518l0.024,0.449h0.015
				c0.117-0.332,0.396-0.503,0.654-0.503c0.059,0,0.093,0.005,0.142,0.015v0.562C12.768,3.705,12.714,3.7,12.641,3.7
				c-0.283,0-0.483,0.181-0.537,0.454c-0.01,0.054-0.015,0.117-0.015,0.181v1.235h-0.601V3.959z"/>
			<path fill="#FFFFFF" d="M15.515,5.224c0,0.498-0.103,0.854-0.352,1.079c-0.244,0.22-0.591,0.288-0.918,0.288
				c-0.303,0-0.625-0.068-0.83-0.19l0.132-0.454c0.151,0.088,0.405,0.181,0.693,0.181c0.391,0,0.684-0.205,0.684-0.718V5.204h-0.01
				c-0.137,0.21-0.376,0.352-0.693,0.352c-0.591,0-1.011-0.488-1.011-1.162c0-0.781,0.508-1.255,1.079-1.255
				c0.366,0,0.576,0.176,0.688,0.371h0.01l0.024-0.317h0.522c-0.01,0.161-0.02,0.356-0.02,0.684V5.224z M14.914,4.145
				c0-0.059-0.005-0.112-0.02-0.161c-0.063-0.22-0.234-0.386-0.488-0.386c-0.337,0-0.586,0.293-0.586,0.776
				c0,0.405,0.205,0.732,0.581,0.732c0.225,0,0.42-0.146,0.488-0.366c0.02-0.059,0.024-0.142,0.024-0.21V4.145z"/>
			<path fill="#FFFFFF" d="M16.954,2.529c0,0.176-0.132,0.322-0.342,0.322c-0.2,0-0.332-0.146-0.332-0.322
				c0-0.186,0.137-0.327,0.337-0.327C16.822,2.201,16.949,2.343,16.954,2.529z M16.314,5.571V3.193h0.601v2.378H16.314z"/>
			<path fill="#FFFFFF" d="M18.162,4.55c0.015,0.43,0.347,0.615,0.732,0.615c0.278,0,0.474-0.044,0.659-0.107l0.088,0.41
				c-0.205,0.088-0.488,0.151-0.83,0.151c-0.771,0-1.226-0.474-1.226-1.201c0-0.659,0.4-1.279,1.162-1.279
				c0.771,0,1.025,0.635,1.025,1.157c0,0.112-0.01,0.2-0.02,0.254H18.162z M19.207,4.13c0.005-0.22-0.093-0.581-0.493-0.581
				c-0.371,0-0.527,0.337-0.552,0.581H19.207z"/>
		</g>
	</g>
</g>
</svg>
