<?xml version="1.0" encoding="utf-8"?>
<!-- Generator: Adobe Illustrator 16.0.3, SVG Export Plug-In . SVG Version: 6.00 Build 0)  -->
<!DOCTYPE svg PUBLIC "-//W3C//DTD SVG 1.1//EN" "http://www.w3.org/Graphics/SVG/1.1/DTD/svg11.dtd">
<svg version="1.1" xmlns="http://www.w3.org/2000/svg" xmlns:xlink="http://www.w3.org/1999/xlink" x="0px" y="0px"
	 width="39.685px" height="22.678px" viewBox="0 0 39.685 22.678" enable-background="new 0 0 39.685 22.678" xml:space="preserve">
<g id="BCGRND" display="none">
	<rect x="22.679" y="-8.504" display="inline" fill="#FFED00" width="8.504" height="8.504"/>
	<rect x="22.679" y="22.678" display="inline" fill="#FFED00" width="8.504" height="8.504"/>
</g>
<g id="BAREVNE_POZADI_IKON">
	<g>
		<rect y="0.001" fill="#E5E5E5" width="9.064" height="22.677"/>
		<path d="M3.853,4.422l0.666-1.625l0.665,1.625H3.853z M1.877,6.519h1.124l0.458-1.124h2.118l0.458,1.124h1.152L5.04,1.474H4.024
			L1.877,6.519z"/>
		<g>
			<path d="M4.74,20.733c0.916,0,1.625-0.359,2.139-0.794v-2.176H4.704v0.951h1.109v0.717c-0.279,0.201-0.637,0.301-1.038,0.301
				c-0.887,0-1.518-0.674-1.518-1.589v-0.014c0-0.852,0.638-1.562,1.44-1.562c0.58,0,0.923,0.186,1.31,0.508l0.695-0.838
				c-0.523-0.442-1.067-0.686-1.969-0.686c-1.517,0-2.627,1.165-2.627,2.591v0.014C2.106,19.638,3.179,20.733,4.74,20.733"/>
		</g>
		<polygon fill="#52AE32" points="9.075,0.001 9.075,22.678 29.431,22.678 39.685,11.339 29.431,0.001 		"/>
		<polygon points="6,10.609 4.532,8.344 3.064,10.609 4.041,10.609 4.041,13.889 5.023,13.889 5.023,10.609 		"/>
		<g>
			<path fill="#FFFFFF" d="M18.413,14.776v-2.677h3.094c1.373,0,1.982,0.504,1.982,1.321v0.035c0,0.904-0.713,1.321-1.895,1.321
				H18.413z M18.413,9.874V7.3h2.642c1.13,0,1.756,0.452,1.756,1.252v0.034c0,0.905-0.748,1.287-1.929,1.287H18.413z M15.805,17.123
				h5.789c2.747,0,4.554-1.112,4.554-3.338V13.75c0-1.635-0.869-2.452-2.277-2.991c0.869-0.486,1.599-1.251,1.599-2.624V8.1
				c0-0.835-0.278-1.513-0.834-2.069c-0.695-0.695-1.79-1.078-3.181-1.078h-5.65V17.123z"/>
		</g>
	</g>
</g>
<g id="IKONY">
</g>
</svg>
