<?xml version="1.0" encoding="utf-8"?>
<!-- Generator: Adobe Illustrator 16.0.3, SVG Export Plug-In . SVG Version: 6.00 Build 0)  -->
<!DOCTYPE svg PUBLIC "-//W3C//DTD SVG 1.1//EN" "http://www.w3.org/Graphics/SVG/1.1/DTD/svg11.dtd">
<svg version="1.1" xmlns="http://www.w3.org/2000/svg" xmlns:xlink="http://www.w3.org/1999/xlink" x="0px" y="0px" width="22.68px"
	 height="22.68px" viewBox="0 0 22.68 22.68" enable-background="new 0 0 22.68 22.68" xml:space="preserve">
<g id="BCGRND">
</g>
<g id="BAREVNE_POZADI_IKON">
	<rect x="0" y="0" fill="#585857" width="22.676" height="22.678"/>
</g>
<g id="IKONY">
	<g>
		<g>
			<path fill="#FFFFFF" d="M15.948,11.068v1.154h1.106v0.492h-1.106v1.17h-0.52v-1.17h-1.105v-0.492h1.105v-1.154H15.948z"/>
			<path fill="#FFFFFF" d="M19.424,11.068v1.154h1.106v0.492h-1.106v1.17h-0.52v-1.17h-1.105v-0.492h1.105v-1.154H19.424z"/>
		</g>
		<g>
			<path fill="#FFFFFF" d="M9.112,17.469l-0.773,2.547H6.645l2.881-8.988h2.094l2.921,8.988h-1.774l-0.813-2.547H9.112z
				 M11.686,16.229l-0.707-2.214c-0.173-0.547-0.319-1.16-0.453-1.681h-0.026c-0.134,0.521-0.28,1.146-0.427,1.681l-0.693,2.214
				H11.686z"/>
		</g>
		<g>
			<rect x="0.002" y="7.769" fill="#FFFFFF" width="22.676" height="0.889"/>
		</g>
		<g>
			<path fill="#FFFFFF" d="M5.005,4.11h-1.24v0.967h1.387V5.57H3.164V2.279h1.914v0.493H3.765v0.85h1.24V4.11z"/>
			<path fill="#FFFFFF" d="M5.828,3.9c0-0.273-0.01-0.503-0.02-0.708h0.523l0.029,0.356h0.014c0.107-0.186,0.367-0.41,0.762-0.41
				c0.416,0,0.846,0.269,0.846,1.021V5.57H7.381V4.227c0-0.342-0.127-0.601-0.453-0.601c-0.24,0-0.406,0.171-0.469,0.352
				C6.44,4.027,6.43,4.1,6.43,4.168V5.57H5.828V3.9z"/>
			<path fill="#FFFFFF" d="M9.221,4.549c0.016,0.43,0.348,0.615,0.732,0.615c0.279,0,0.475-0.044,0.66-0.107l0.088,0.41
				c-0.205,0.088-0.488,0.151-0.83,0.151c-0.771,0-1.227-0.474-1.227-1.201c0-0.659,0.4-1.279,1.162-1.279
				c0.771,0,1.025,0.635,1.025,1.157c0,0.112-0.01,0.2-0.02,0.254H9.221z M10.266,4.129c0.006-0.22-0.092-0.581-0.492-0.581
				c-0.371,0-0.527,0.337-0.553,0.581H10.266z"/>
			<path fill="#FFFFFF" d="M11.49,3.958c0-0.322-0.006-0.557-0.02-0.767h0.518l0.023,0.449h0.016
				c0.117-0.332,0.395-0.503,0.654-0.503c0.059,0,0.092,0.005,0.141,0.015v0.562c-0.053-0.01-0.107-0.015-0.18-0.015
				c-0.283,0-0.484,0.181-0.537,0.454c-0.01,0.054-0.016,0.117-0.016,0.181V5.57h-0.6V3.958z"/>
			<path fill="#FFFFFF" d="M15.516,5.223c0,0.498-0.103,0.854-0.352,1.079c-0.244,0.22-0.591,0.288-0.918,0.288
				c-0.303,0-0.625-0.068-0.83-0.19l0.132-0.454c0.151,0.088,0.405,0.181,0.693,0.181c0.391,0,0.684-0.205,0.684-0.718V5.203h-0.01
				c-0.137,0.21-0.376,0.352-0.693,0.352c-0.591,0-1.011-0.488-1.011-1.162c0-0.781,0.508-1.255,1.079-1.255
				c0.366,0,0.576,0.176,0.688,0.371h0.01l0.024-0.317h0.522c-0.01,0.161-0.02,0.356-0.02,0.684V5.223z M14.915,4.144
				c0-0.059-0.005-0.112-0.02-0.161c-0.063-0.22-0.234-0.386-0.488-0.386c-0.337,0-0.586,0.293-0.586,0.776
				c0,0.405,0.205,0.732,0.581,0.732c0.225,0,0.42-0.146,0.488-0.366c0.02-0.059,0.024-0.142,0.024-0.21V4.144z"/>
			<path fill="#FFFFFF" d="M16.955,2.528c0,0.176-0.132,0.322-0.342,0.322c-0.2,0-0.332-0.146-0.332-0.322
				c0-0.186,0.137-0.327,0.337-0.327C16.823,2.2,16.95,2.342,16.955,2.528z M16.316,5.57V3.192h0.601V5.57H16.316z"/>
			<path fill="#FFFFFF" d="M18.163,4.549c0.015,0.43,0.347,0.615,0.732,0.615c0.278,0,0.474-0.044,0.659-0.107l0.088,0.41
				c-0.205,0.088-0.488,0.151-0.83,0.151c-0.771,0-1.226-0.474-1.226-1.201c0-0.659,0.4-1.279,1.162-1.279
				c0.771,0,1.025,0.635,1.025,1.157c0,0.112-0.01,0.2-0.02,0.254H18.163z M19.208,4.129c0.005-0.22-0.093-0.581-0.493-0.581
				c-0.371,0-0.527,0.337-0.552,0.581H19.208z"/>
		</g>
	</g>
</g>
</svg>
