<?xml version="1.0" encoding="utf-8"?>
<!-- Generator: Adobe Illustrator 16.0.3, SVG Export Plug-In . SVG Version: 6.00 Build 0)  -->
<!DOCTYPE svg PUBLIC "-//W3C//DTD SVG 1.1//EN" "http://www.w3.org/Graphics/SVG/1.1/DTD/svg11.dtd">
<svg version="1.1" xmlns="http://www.w3.org/2000/svg" xmlns:xlink="http://www.w3.org/1999/xlink" x="0px" y="0px" width="22.68px"
	 height="22.68px" viewBox="0 0 22.68 22.68" enable-background="new 0 0 22.68 22.68" xml:space="preserve">
<g id="BCGRND">
</g>
<g id="BAREVNE_BCGRND">
	<polygon fill="#585857" points="22.68,16.335 22.68,0 0.002,0 0.002,22.678 14.119,22.678 22.68,22.678 	"/>
</g>
<g id="IKONY">
	<g>
		<g>
			<g>
				<rect x="0.002" y="11.956" fill="#FFFFFF" width="22.678" height="0.889"/>
			</g>
			<g>
				<path fill="#FFFFFF" d="M8.081,3.826h-1.24v0.967h1.387v0.493H6.241V1.995h1.914v0.493H6.841v0.85h1.24V3.826z"/>
				<path fill="#FFFFFF" d="M9.134,2.908l0.283,0.449c0.078,0.127,0.146,0.244,0.215,0.366h0.015
					C9.715,3.592,9.784,3.47,9.852,3.348l0.264-0.439h0.654L9.974,4.051l0.811,1.235h-0.679L9.813,4.813
					C9.735,4.686,9.666,4.559,9.598,4.427h-0.01C9.52,4.563,9.452,4.681,9.373,4.813L9.1,5.286H8.436l0.825-1.211L8.465,2.908H9.134
					z"/>
				<path fill="#FFFFFF" d="M11.901,2.229v0.679h0.571v0.449h-0.571v1.05c0,0.288,0.078,0.439,0.308,0.439
					c0.103,0,0.181-0.015,0.234-0.029l0.01,0.459c-0.088,0.034-0.244,0.059-0.435,0.059c-0.22,0-0.405-0.073-0.518-0.195
					c-0.127-0.137-0.186-0.352-0.186-0.664V3.357h-0.342V2.908h0.342V2.371L11.901,2.229z"/>
				<path fill="#FFFFFF" d="M12.929,3.675c0-0.322-0.005-0.552-0.02-0.767h0.522l0.02,0.454h0.02
					c0.117-0.337,0.396-0.508,0.649-0.508c0.059,0,0.093,0.005,0.142,0.015v0.566c-0.049-0.01-0.103-0.02-0.176-0.02
					c-0.288,0-0.483,0.186-0.537,0.454c-0.01,0.054-0.02,0.117-0.02,0.186v1.23h-0.601V3.675z"/>
				<path fill="#FFFFFF" d="M15.963,5.286l-0.039-0.264h-0.015c-0.146,0.186-0.396,0.317-0.703,0.317
					c-0.479,0-0.747-0.347-0.747-0.708c0-0.601,0.532-0.903,1.411-0.898V3.694c0-0.156-0.063-0.415-0.483-0.415
					c-0.234,0-0.479,0.073-0.64,0.176L14.63,3.064c0.176-0.107,0.483-0.21,0.859-0.21c0.762,0,0.981,0.483,0.981,1.001v0.859
					c0,0.215,0.01,0.425,0.034,0.571H15.963z M15.885,4.124c-0.425-0.01-0.83,0.083-0.83,0.444c0,0.234,0.151,0.342,0.342,0.342
					c0.239,0,0.415-0.156,0.469-0.327c0.015-0.044,0.02-0.093,0.02-0.132V4.124z"/>
				<path fill="#FFFFFF" d="M5.121,9.073c0,0.283,0.01,0.518,0.02,0.713H4.613L4.584,9.425h-0.01C4.472,9.596,4.237,9.84,3.812,9.84
					c-0.435,0-0.83-0.259-0.83-1.035V7.408h0.601v1.294c0,0.396,0.127,0.649,0.444,0.649c0.239,0,0.396-0.171,0.459-0.322
					C4.506,8.976,4.52,8.912,4.52,8.844V7.408h0.601V9.073z M4.813,6.378L4.213,7.101H3.798l0.425-0.723H4.813z"/>
				<path fill="#FFFFFF" d="M5.745,9.234c0.137,0.083,0.396,0.171,0.61,0.171c0.264,0,0.381-0.107,0.381-0.264
					c0-0.161-0.098-0.244-0.391-0.347C5.881,8.634,5.686,8.38,5.691,8.102c0-0.42,0.347-0.747,0.898-0.747
					c0.264,0,0.493,0.068,0.63,0.142L7.102,7.921C6.999,7.862,6.809,7.784,6.599,7.784c-0.215,0-0.332,0.103-0.332,0.249
					c0,0.151,0.112,0.225,0.415,0.332c0.43,0.156,0.63,0.376,0.635,0.728c0,0.43-0.337,0.742-0.967,0.742
					c-0.288,0-0.547-0.068-0.723-0.166L5.745,9.234z"/>
				<path fill="#FFFFFF" d="M7.812,8.199c0-0.313-0.01-0.566-0.02-0.791H8.32l0.029,0.366h0.01c0.176-0.269,0.454-0.42,0.815-0.42
					c0.547,0,1.001,0.469,1.001,1.211c0,0.859-0.542,1.274-1.084,1.274c-0.298,0-0.547-0.127-0.669-0.317h-0.01v1.23H7.812V8.199z
					 M8.413,8.79c0,0.059,0.005,0.112,0.02,0.166C8.491,9.2,8.706,9.376,8.96,9.376c0.381,0,0.605-0.317,0.605-0.786
					c0-0.42-0.205-0.762-0.591-0.762c-0.249,0-0.479,0.181-0.537,0.444C8.423,8.321,8.413,8.375,8.413,8.424V8.79z"/>
				<path fill="#FFFFFF" d="M12.933,8.575c0,0.874-0.615,1.265-1.221,1.265c-0.674,0-1.191-0.464-1.191-1.226
					c0-0.781,0.513-1.26,1.23-1.26C12.46,7.354,12.933,7.853,12.933,8.575z M11.141,8.6c0,0.459,0.225,0.806,0.591,0.806
					c0.342,0,0.581-0.337,0.581-0.815c0-0.371-0.166-0.796-0.576-0.796C11.312,7.794,11.141,8.204,11.141,8.6z"/>
				<path fill="#FFFFFF" d="M13.43,8.175c0-0.322-0.005-0.552-0.02-0.767h0.522l0.02,0.454h0.02
					c0.117-0.337,0.396-0.508,0.649-0.508c0.059,0,0.093,0.005,0.142,0.015v0.566c-0.049-0.01-0.103-0.02-0.176-0.02
					c-0.288,0-0.483,0.186-0.537,0.454c-0.01,0.054-0.02,0.117-0.02,0.186v1.23H13.43V8.175z"/>
				<path fill="#FFFFFF" d="M15.17,8.116c0-0.273-0.005-0.503-0.02-0.708h0.527l0.029,0.356h0.015
					c0.103-0.186,0.361-0.41,0.757-0.41c0.415,0,0.845,0.269,0.845,1.021v1.411h-0.601V8.443c0-0.342-0.127-0.601-0.454-0.601
					c-0.239,0-0.405,0.171-0.469,0.352c-0.02,0.054-0.024,0.127-0.024,0.195v1.396H15.17V8.116z"/>
				<path fill="#FFFFFF" d="M18.265,7.408l0.43,1.274c0.049,0.146,0.098,0.327,0.132,0.464h0.015
					c0.039-0.137,0.083-0.313,0.127-0.469l0.371-1.27h0.645l-0.596,1.621c-0.327,0.889-0.547,1.284-0.83,1.528
					c-0.234,0.21-0.479,0.288-0.63,0.308l-0.137-0.508c0.103-0.024,0.229-0.078,0.352-0.166c0.112-0.073,0.244-0.215,0.327-0.376
					c0.024-0.044,0.039-0.078,0.039-0.107c0-0.024-0.005-0.059-0.034-0.117l-0.869-2.183H18.265z M19.583,6.378l-0.601,0.723h-0.415
					l0.425-0.723H19.583z"/>
			</g>
		</g>
		<g>
			<g>
				<polyline fill="#FFFFFF" points="12.482,16.297 10.487,18.689 12.954,18.009 10.969,20.39 				"/>
			</g>
			<g>
				<path fill="#FFFFFF" d="M12.482,16.297c-0.607,0.846-1.234,1.675-1.892,2.479l-0.139-0.215c0.817-0.244,1.64-0.471,2.466-0.68
					l0.41-0.104l-0.271,0.319c-0.67,0.788-1.369,1.55-2.089,2.295c0.604-0.842,1.228-1.667,1.882-2.467l0.139,0.216
					c-0.817,0.243-1.64,0.47-2.466,0.68l-0.41,0.104l0.271-0.319C11.057,17.812,11.76,17.046,12.482,16.297z"/>
			</g>
		</g>
		<g>
			<defs>
				<rect id="SVGID_103_" x="0.002" y="12.4" width="22.678" height="10.277"/>
			</defs>
			<clipPath id="SVGID_2_">
				<use xlink:href="#SVGID_103_"  overflow="visible"/>
			</clipPath>
			<g opacity="0.5" clip-path="url(#SVGID_2_)">
				<g>
					<path fill="#FFFFFF" d="M19.863,9.92c-0.494,0.378-0.984,0.76-1.449,1.147c-1.229,0.399-2.695,1.016-3.19,1.271
						c-0.66,0.341-1.879,0.531-2.5,0.886c-0.387,0.224-0.803,0.925-1.132,1.717c-0.331-0.792-0.748-1.493-1.136-1.717
						c-0.616-0.354-1.836-0.544-2.5-0.886c-0.493-0.255-1.958-0.871-3.187-1.271c-0.46-0.388-0.956-0.771-1.453-1.148
						c-0.863,1.098-5.758,0.952-6.134,2.337c0.429,0.21,4.948,1.751,4.948,1.751c0.767,4.043,1.339,4.864,1.339,4.864l0.723,0.826
						l1.468,1.51c0.203,0.23,0.879,0.702,1.12,0.831c1.063,0.559,1.821,0.792,2.524,0.842c-0.71-0.399-1.271-0.746-2.187-1.299
						C6.487,21.2,5.595,20.111,5.159,19.59c-0.097-0.1-0.07-0.247,0.028-0.331c0.101-0.082,0.247-0.07,0.332,0.03
						c0.651,0.776,1.512,1.735,2.421,2.269c0.91,0.532,1.745,1,2.287,1.297c0.453-0.066,0.754-0.192,0.893-0.265
						c-0.823-0.459-1.813-1.041-3.05-1.78c-0.786-0.468-1.534-1.372-1.994-1.925c-0.088-0.107-0.072-0.25,0.032-0.331
						c0.096-0.083,0.25-0.069,0.332,0.03c0.571,0.693,1.193,1.46,2.189,2.041c1.161,0.68,2.295,1.32,2.962,1.692
						c0.667-0.372,1.799-1.012,2.962-1.692c0.996-0.581,1.616-1.348,2.19-2.041c0.082-0.099,0.231-0.113,0.331-0.03
						c0.102,0.081,0.12,0.224,0.032,0.331c-0.46,0.554-1.209,1.457-1.994,1.925c-1.24,0.739-2.227,1.321-3.053,1.78
						c0.139,0.072,0.442,0.198,0.896,0.265c0.537-0.297,1.377-0.765,2.288-1.297c0.91-0.534,1.769-1.493,2.42-2.269
						c0.086-0.1,0.229-0.112,0.332-0.03c0.101,0.084,0.122,0.231,0.027,0.331c-0.435,0.521-1.329,1.61-1.962,1.991
						c-0.916,0.553-1.473,0.9-2.183,1.299c0.7-0.051,1.461-0.283,2.524-0.842c0.241-0.128,0.912-0.6,1.118-0.831l1.465-1.51
						l0.728-0.826c0,0,0.572-0.821,1.336-4.864c0,0,4.52-1.541,4.951-1.751C25.625,10.871,20.727,11.017,19.863,9.92z
						 M15.452,18.121c-0.788,0.995-2.325,1.991-3.025,2.461c-0.321,0.216-0.636,0.513-0.835,0.81
						c-0.196-0.297-0.514-0.594-0.835-0.81c-0.703-0.47-2.237-1.466-3.029-2.461c-1.157-1.46-1.16-2.406-0.506-3.104
						c0.91-0.977,2.026-0.771,2.737-0.08c0.484,0.471,1.552,1.234,1.633,1.238c0.085-0.003,1.148-0.767,1.633-1.238
						c0.711-0.691,1.824-0.897,2.737,0.08C16.613,15.715,16.613,16.661,15.452,18.121z"/>
				</g>
			</g>
		</g>
	</g>
</g>
</svg>
