<?xml version="1.0" encoding="utf-8"?>
<!-- Generator: Adobe Illustrator 16.0.3, SVG Export Plug-In . SVG Version: 6.00 Build 0)  -->
<!DOCTYPE svg PUBLIC "-//W3C//DTD SVG 1.1//EN" "http://www.w3.org/Graphics/SVG/1.1/DTD/svg11.dtd">
<svg version="1.1" xmlns="http://www.w3.org/2000/svg" xmlns:xlink="http://www.w3.org/1999/xlink" x="0px" y="0px" width="22.68px"
	 height="22.68px" viewBox="0 0 22.68 22.68" enable-background="new 0 0 22.68 22.68" xml:space="preserve">
<g id="BCGRND">
</g>
<g id="BAREVNE_POZADI_IKON">
	<rect x="0" y="0" fill="#585857" width="22.676" height="22.678"/>
</g>
<g id="IKONY">
	<g>
		<g>
			<g>
				<rect x="0.001" y="7.77" fill="#FFFFFF" width="22.678" height="0.889"/>
			</g>
			<g>
				<g opacity="0.5">
					<path fill="#FFFFFF" d="M7.938,10.226c-1.293,0.829-0.184,2.437,1.063,3.708c0.488,0.218,0.95,0.459,1.342,0.676
						c0.159-0.171,0.356-0.297,0.576-0.372c-0.033-0.444-0.058-0.964-0.055-1.499C10.231,11.073,9.234,9.395,7.938,10.226z
						 M12.41,16.561c-0.159,0.171-0.357,0.297-0.576,0.373c0.032,0.443,0.057,0.964,0.052,1.498c0.636,1.664,1.634,3.344,2.93,2.514
						c1.294-0.83,0.184-2.438-1.064-3.709C13.263,17.019,12.8,16.778,12.41,16.561z M8.53,16.096
						c-1.665,0.635-3.344,1.633-2.514,2.928c0.831,1.295,2.438,0.185,3.709-1.064c0.219-0.487,0.459-0.949,0.675-1.34
						c-0.17-0.159-0.296-0.357-0.369-0.578C9.584,16.075,9.065,16.102,8.53,16.096z M16.738,12.148
						c-0.832-1.296-2.438-0.185-3.711,1.063c-0.218,0.486-0.458,0.949-0.673,1.34c0.169,0.16,0.296,0.357,0.369,0.578
						c0.444-0.035,0.967-0.061,1.5-0.055C15.888,14.44,17.567,13.442,16.738,12.148z"/>
				</g>
				<g>
					<path fill="#FFFFFF" d="M14.223,15.074c-0.533-0.006-1.056,0.02-1.5,0.055c-0.073-0.221-0.2-0.418-0.369-0.578
						c0.215-0.391,0.455-0.854,0.673-1.34c0.73-1.625,1.212-3.52-0.29-3.848c-1.504-0.328-1.856,1.594-1.872,3.375
						c-0.003,0.535,0.021,1.055,0.055,1.499c-0.22,0.075-0.417,0.201-0.576,0.372c-0.392-0.217-0.854-0.458-1.342-0.676
						c-1.624-0.729-3.518-1.211-3.846,0.293c-0.328,1.502,1.594,1.854,3.374,1.869c0.535,0.006,1.055-0.021,1.501-0.055
						c0.073,0.221,0.199,0.419,0.369,0.578c-0.216,0.391-0.456,0.853-0.675,1.34c-0.729,1.625-1.21,3.52,0.292,3.848
						c1.503,0.328,1.855-1.594,1.869-3.375c0.005-0.534-0.02-1.055-0.052-1.498c0.219-0.076,0.417-0.202,0.576-0.373
						c0.39,0.217,0.853,0.458,1.341,0.676c1.624,0.729,3.519,1.211,3.847-0.292S16.004,15.09,14.223,15.074z M12.293,15.913
						c-0.062,0.166-0.159,0.309-0.29,0.417c-0.064,0.054-0.136,0.1-0.21,0.135c-0.154,0.072-0.325,0.104-0.501,0.09
						c-0.041-0.004-0.082-0.006-0.124-0.016c-0.042-0.009-0.081-0.024-0.12-0.038c-0.165-0.06-0.31-0.16-0.417-0.29
						c-0.054-0.063-0.099-0.135-0.135-0.211c-0.073-0.152-0.105-0.322-0.09-0.499c0.004-0.041,0.005-0.083,0.015-0.124
						c0.009-0.043,0.025-0.081,0.039-0.12c0.059-0.167,0.159-0.309,0.29-0.416c0.064-0.055,0.135-0.101,0.21-0.136
						c0.151-0.073,0.325-0.104,0.5-0.09c0.041,0.004,0.082,0.006,0.124,0.016c0.042,0.009,0.081,0.024,0.12,0.039
						c0.165,0.059,0.308,0.158,0.418,0.289c0.053,0.063,0.098,0.135,0.134,0.211c0.074,0.152,0.105,0.322,0.091,0.499
						c-0.005,0.041-0.006,0.083-0.015,0.125C12.323,15.836,12.307,15.874,12.293,15.913z"/>
				</g>
				<g>
					<g>
						<path fill="#FFFFFF" d="M11.555,14.989c-0.016-0.004-0.027-0.016-0.044-0.02c-0.016-0.004-0.032,0.002-0.049-0.001
							c-0.136-0.02-0.268,0.007-0.384,0.069c-0.026,0.014-0.051,0.03-0.075,0.049c-0.105,0.078-0.185,0.188-0.224,0.321
							c-0.006,0.016-0.017,0.027-0.021,0.043c-0.003,0.017,0.002,0.03,0,0.048c-0.015,0.107,0.005,0.209,0.041,0.306l0.982-0.683
							C11.715,15.063,11.642,15.015,11.555,14.989z"/>
					</g>
					<g>
						<path fill="#FFFFFF" d="M11.993,15.673c0.015-0.108-0.005-0.21-0.041-0.306l-0.982,0.684c0.066,0.057,0.139,0.104,0.229,0.131
							c0.015,0.005,0.027,0.016,0.044,0.02c0.015,0.004,0.031-0.002,0.048,0.001c0.137,0.019,0.268-0.007,0.385-0.069
							c0.025-0.014,0.05-0.029,0.074-0.049c0.106-0.078,0.185-0.188,0.224-0.321c0.007-0.016,0.017-0.026,0.021-0.043
							C11.997,15.704,11.991,15.69,11.993,15.673z"/>
					</g>
				</g>
			</g>
		</g>
		<g>
			<g>
				<path fill="#FFFFFF" d="M4.552,4.11h-1.24v0.967h1.387V5.57H2.711V2.279h1.914v0.493H3.312v0.85h1.24V4.11z"/>
				<path fill="#FFFFFF" d="M5.531,3.192l0.283,0.449C5.893,3.768,5.961,3.885,6.03,4.007h0.015
					c0.068-0.132,0.137-0.254,0.205-0.376l0.264-0.439h0.654L6.371,4.334L7.182,5.57H6.503L6.21,5.096
					C6.132,4.969,6.064,4.842,5.995,4.71h-0.01C5.917,4.847,5.849,4.964,5.771,5.096L5.497,5.57H4.833l0.825-1.211L4.863,3.192
					H5.531z"/>
				<path fill="#FFFFFF" d="M8.225,2.513v0.679h0.571v0.449H8.225v1.05c0,0.288,0.078,0.439,0.308,0.439
					c0.103,0,0.181-0.015,0.234-0.029l0.01,0.459C8.689,5.594,8.532,5.618,8.342,5.618c-0.22,0-0.405-0.073-0.518-0.195
					C7.698,5.286,7.639,5.072,7.639,4.759V3.641H7.297V3.192h0.342V2.655L8.225,2.513z"/>
				<path fill="#FFFFFF" d="M9.179,3.958c0-0.322-0.005-0.552-0.02-0.767h0.522l0.02,0.454h0.02
					c0.117-0.337,0.396-0.508,0.649-0.508c0.059,0,0.093,0.005,0.142,0.015v0.566c-0.049-0.01-0.103-0.02-0.176-0.02
					c-0.288,0-0.483,0.186-0.537,0.454c-0.01,0.054-0.02,0.117-0.02,0.186v1.23H9.179V3.958z"/>
				<path fill="#FFFFFF" d="M12.14,5.57l-0.039-0.264h-0.015c-0.146,0.186-0.396,0.317-0.703,0.317
					c-0.479,0-0.747-0.347-0.747-0.708c0-0.601,0.532-0.903,1.411-0.898V3.978c0-0.156-0.063-0.415-0.483-0.415
					c-0.234,0-0.479,0.073-0.64,0.176l-0.117-0.391c0.176-0.107,0.483-0.21,0.859-0.21c0.762,0,0.981,0.483,0.981,1.001v0.859
					c0,0.215,0.01,0.425,0.034,0.571H12.14z M12.062,4.407c-0.425-0.01-0.83,0.083-0.83,0.444c0,0.234,0.151,0.342,0.342,0.342
					c0.239,0,0.415-0.156,0.469-0.327c0.015-0.044,0.02-0.093,0.02-0.132V4.407z"/>
				<path fill="#FFFFFF" d="M13.237,2.323c0.264-0.044,0.601-0.068,0.957-0.068c0.615,0,1.04,0.127,1.343,0.381
					c0.317,0.259,0.513,0.649,0.513,1.211c0,0.586-0.2,1.025-0.513,1.309c-0.327,0.298-0.85,0.449-1.489,0.449
					c-0.352,0-0.615-0.02-0.811-0.044V2.323z M13.838,5.111c0.083,0.015,0.21,0.015,0.332,0.015c0.781,0.005,1.245-0.425,1.245-1.26
					C15.42,3.138,15,2.723,14.248,2.723c-0.19,0-0.327,0.015-0.41,0.034V5.111z"/>
				<path fill="#FFFFFF" d="M16.493,3.958c0-0.322-0.005-0.552-0.02-0.767h0.522l0.02,0.454h0.02
					c0.117-0.337,0.396-0.508,0.649-0.508c0.059,0,0.093,0.005,0.142,0.015v0.566c-0.049-0.01-0.103-0.02-0.176-0.02
					c-0.288,0-0.483,0.186-0.537,0.454c-0.01,0.054-0.02,0.117-0.02,0.186v1.23h-0.601V3.958z"/>
				<path fill="#FFFFFF" d="M18.644,3.192l0.43,1.274c0.049,0.146,0.098,0.327,0.132,0.464h0.015
					c0.039-0.137,0.083-0.313,0.127-0.469l0.371-1.27h0.645l-0.596,1.621c-0.327,0.889-0.547,1.284-0.83,1.528
					c-0.234,0.21-0.479,0.288-0.63,0.308L18.17,6.141c0.103-0.024,0.229-0.078,0.352-0.166c0.112-0.073,0.244-0.215,0.327-0.376
					c0.024-0.044,0.039-0.078,0.039-0.107c0-0.024-0.005-0.059-0.034-0.117l-0.869-2.183H18.644z"/>
			</g>
		</g>
	</g>
</g>
</svg>
