<?xml version="1.0" encoding="utf-8"?>
<!-- Generator: Adobe Illustrator 16.0.3, SVG Export Plug-In . SVG Version: 6.00 Build 0)  -->
<!DOCTYPE svg PUBLIC "-//W3C//DTD SVG 1.1//EN" "http://www.w3.org/Graphics/SVG/1.1/DTD/svg11.dtd">
<svg version="1.1" xmlns="http://www.w3.org/2000/svg" xmlns:xlink="http://www.w3.org/1999/xlink" x="0px" y="0px" width="22.68px"
	 height="22.68px" viewBox="0 0 22.68 22.68" enable-background="new 0 0 22.68 22.68" xml:space="preserve">
<g id="BCGRND">
</g>
<g id="BAREVNE_POZADI_IKON">
	<rect x="0.002" fill="#585857" width="22.677" height="22.677"/>
</g>
<g id="IKONY">
	<g>
		<g>
			<path fill="#FFFFFF" d="M8.018,3.801h-1.24v0.967h1.387V5.26H6.176V1.969H8.09v0.493H6.777v0.85h1.24V3.801z"/>
			<path fill="#FFFFFF" d="M9.119,2.883l0.283,0.449C9.48,3.459,9.549,3.576,9.617,3.698h0.015C9.7,3.566,9.769,3.444,9.837,3.322
				l0.264-0.439h0.654L9.959,4.025L10.77,5.26h-0.679L9.798,4.787C9.72,4.66,9.651,4.533,9.583,4.401h-0.01
				C9.505,4.538,9.437,4.655,9.358,4.787L9.085,5.26H8.421L9.246,4.05L8.45,2.883H9.119z"/>
			<path fill="#FFFFFF" d="M11.935,2.204v0.679h0.571v0.449h-0.571v1.05c0,0.288,0.078,0.439,0.308,0.439
				c0.103,0,0.181-0.015,0.234-0.029l0.01,0.459c-0.088,0.034-0.244,0.059-0.435,0.059c-0.22,0-0.405-0.073-0.518-0.195
				c-0.127-0.137-0.186-0.352-0.186-0.664V3.332h-0.342V2.883h0.342V2.345L11.935,2.204z"/>
			<path fill="#FFFFFF" d="M13.011,3.649c0-0.322-0.005-0.552-0.02-0.767h0.522l0.02,0.454h0.02C13.67,3,13.948,2.829,14.202,2.829
				c0.059,0,0.093,0.005,0.142,0.015V3.41c-0.049-0.01-0.103-0.02-0.176-0.02c-0.288,0-0.483,0.186-0.537,0.454
				c-0.01,0.054-0.02,0.117-0.02,0.186v1.23h-0.601V3.649z"/>
			<path fill="#FFFFFF" d="M16.094,5.26l-0.039-0.264h-0.014c-0.146,0.186-0.396,0.317-0.703,0.317
				c-0.479,0-0.748-0.347-0.748-0.708c0-0.601,0.533-0.903,1.412-0.898V3.669c0-0.156-0.064-0.415-0.484-0.415
				c-0.234,0-0.479,0.073-0.639,0.176l-0.117-0.391c0.176-0.107,0.482-0.21,0.859-0.21c0.762,0,0.98,0.483,0.98,1.001v0.859
				c0,0.215,0.01,0.425,0.035,0.571H16.094z M16.016,4.098c-0.424-0.01-0.83,0.083-0.83,0.444c0,0.234,0.152,0.342,0.342,0.342
				c0.24,0,0.416-0.156,0.469-0.327c0.016-0.044,0.02-0.093,0.02-0.132V4.098z"/>
			<path fill="#FFFFFF" d="M2.837,6.294h0.605V7.71h0.01C3.525,7.597,3.623,7.505,3.75,7.436c0.117-0.068,0.259-0.107,0.41-0.107
				c0.405,0,0.83,0.269,0.83,1.03V9.76H4.39V8.427c0-0.347-0.127-0.605-0.459-0.605c-0.234,0-0.4,0.156-0.464,0.337
				C3.447,8.208,3.442,8.271,3.442,8.34V9.76H2.837V6.294z"/>
			<path fill="#FFFFFF" d="M5.682,6.294h0.605V9.76H5.682V6.294z"/>
			<path fill="#FFFFFF" d="M9.117,9.048c0,0.283,0.01,0.518,0.02,0.713H8.609L8.58,9.399H8.57C8.467,9.57,8.232,9.814,7.809,9.814
				c-0.436,0-0.83-0.259-0.83-1.035V7.383h0.6v1.294c0,0.396,0.127,0.649,0.445,0.649c0.238,0,0.395-0.171,0.459-0.322
				c0.02-0.054,0.033-0.117,0.033-0.186V7.383h0.602V9.048z"/>
			<path fill="#FFFFFF" d="M9.799,9.76c0.01-0.161,0.02-0.425,0.02-0.669V6.294h0.601V7.71h0.01
				c0.146-0.229,0.405-0.381,0.762-0.381c0.581,0,0.996,0.483,0.991,1.206c0,0.854-0.542,1.279-1.079,1.279
				c-0.308,0-0.581-0.117-0.752-0.41h-0.01L10.312,9.76H9.799z M10.419,8.779c0,0.049,0.005,0.098,0.015,0.142
				c0.063,0.239,0.273,0.42,0.532,0.42c0.376,0,0.605-0.303,0.605-0.781c0-0.42-0.2-0.762-0.601-0.762
				c-0.244,0-0.464,0.176-0.532,0.439c-0.01,0.044-0.02,0.098-0.02,0.156V8.779z"/>
			<path fill="#FFFFFF" d="M14.988,8.55c0,0.874-0.615,1.265-1.221,1.265c-0.674,0-1.191-0.464-1.191-1.226
				c0-0.781,0.512-1.26,1.23-1.26C14.514,7.329,14.988,7.827,14.988,8.55z M13.195,8.574c0,0.459,0.225,0.806,0.592,0.806
				c0.342,0,0.58-0.337,0.58-0.815c0-0.371-0.166-0.796-0.576-0.796C13.367,7.768,13.195,8.178,13.195,8.574z"/>
			<path fill="#FFFFFF" d="M16.134,8.427h0.01c0.059-0.093,0.127-0.195,0.19-0.278l0.576-0.767h0.723l-0.879,0.972L17.76,9.76
				h-0.737l-0.684-1.05L16.134,8.95V9.76h-0.601V6.294h0.601V8.427z"/>
			<path fill="#FFFFFF" d="M18.486,7.383l0.43,1.274c0.049,0.146,0.098,0.327,0.131,0.464h0.016
				c0.039-0.137,0.082-0.313,0.127-0.469l0.371-1.27h0.645l-0.596,1.621c-0.328,0.889-0.547,1.284-0.83,1.528
				c-0.234,0.21-0.479,0.288-0.631,0.308l-0.137-0.508c0.104-0.024,0.23-0.078,0.352-0.166c0.113-0.073,0.244-0.215,0.328-0.376
				c0.023-0.044,0.039-0.078,0.039-0.107c0-0.024-0.006-0.059-0.035-0.117l-0.869-2.183H18.486z M19.805,6.352l-0.602,0.723h-0.414
				l0.424-0.723H19.805z"/>
		</g>
	</g>
	<g>
		<rect x="0.002" y="11.956" fill="#FFFFFF" width="22.678" height="0.889"/>
	</g>
	<g>
		<path opacity="0.5" fill="#FFFFFF" d="M-0.002,12.306l0.004,10.371h3.863v-8.388c0-0.138,0.111-0.25,0.25-0.25h14.443
			c0.137,0,0.25,0.112,0.25,0.25v8.388h3.868l-0.003-10.371H-0.002z"/>
		<path fill="#FFFFFF" d="M16.375,19.667l1.926-5.128H4.377l1.926,5.128H16.375z M12.25,15.635c0.023-0.137,0.154-0.229,0.289-0.202
			c0.137,0.024,0.227,0.154,0.203,0.29l-0.141,0.785c-0.021,0.121-0.127,0.206-0.246,0.206c-0.016,0-0.029-0.001-0.045-0.004
			c-0.135-0.024-0.227-0.154-0.201-0.29L12.25,15.635z M11.088,15.679c0-0.138,0.111-0.25,0.25-0.25c0.137,0,0.25,0.112,0.25,0.25
			v0.785c0,0.138-0.113,0.25-0.25,0.25c-0.139,0-0.25-0.112-0.25-0.25V15.679z M10.133,15.433c0.139-0.027,0.266,0.066,0.291,0.201
			l0.143,0.785c0.023,0.136-0.066,0.267-0.201,0.291c-0.016,0.003-0.031,0.004-0.045,0.004c-0.119,0-0.225-0.085-0.246-0.205
			l-0.143-0.785C9.906,15.588,9.996,15.457,10.133,15.433z"/>
		<polygon fill="#FFFFFF" points="16.643,19.853 16.643,22.677 18.311,22.677 18.311,15.41 		"/>
		<path fill="#FFFFFF" d="M6.352,19.984v2.693h4.027c-0.159-0.206-0.269-0.45-0.269-0.729c0-0.679,0.551-1.229,1.229-1.229
			c0.68,0,1.229,0.55,1.229,1.229c0,0.278-0.11,0.523-0.269,0.729h4.029v-2.693H6.352z"/>
		<polygon fill="#FFFFFF" points="4.365,15.404 4.365,22.677 6.035,22.677 6.035,19.853 		"/>
		<path fill="#FFFFFF" d="M11.338,22.125l-0.41,0.409c0.117,0.083,0.254,0.143,0.41,0.143c0.154,0,0.291-0.06,0.408-0.143
			L11.338,22.125z"/>
		<path fill="#FFFFFF" d="M11.516,21.948l0.408,0.409c0.084-0.118,0.143-0.254,0.143-0.408c0-0.155-0.061-0.291-0.143-0.409
			L11.516,21.948z"/>
		<path fill="#FFFFFF" d="M10.609,21.949c0,0.155,0.059,0.291,0.141,0.409l0.41-0.409l-0.408-0.409
			C10.668,21.658,10.609,21.793,10.609,21.949z"/>
		<path fill="#FFFFFF" d="M11.338,21.22c-0.154,0-0.291,0.059-0.408,0.142l0.408,0.409l0.408-0.408
			C11.629,21.28,11.492,21.22,11.338,21.22z"/>
	</g>
</g>
</svg>
