<?xml version="1.0" encoding="utf-8"?>
<!-- Generator: Adobe Illustrator 16.0.3, SVG Export Plug-In . SVG Version: 6.00 Build 0)  -->
<!DOCTYPE svg PUBLIC "-//W3C//DTD SVG 1.1//EN" "http://www.w3.org/Graphics/SVG/1.1/DTD/svg11.dtd">
<svg version="1.1" xmlns="http://www.w3.org/2000/svg" xmlns:xlink="http://www.w3.org/1999/xlink" x="0px" y="0px" width="22.68px"
	 height="22.68px" viewBox="0 0 22.68 22.68" enable-background="new 0 0 22.68 22.68" xml:space="preserve">
<g id="BCGRND">
</g>
<g id="BAREVNE_POZADI_IKON">
	<rect x="0.001" y="0" fill="#585857" width="22.677" height="22.677"/>
</g>
<g id="IKONY">
	<g>
		<g>
			<g>
				<rect x="0.001" y="11.956" fill="#FFFFFF" width="22.677" height="0.889"/>
			</g>
			<g>
				<g>
					<path fill="#FFFFFF" d="M5.081,1.995H6.98v0.493H5.682v0.908h1.211V3.89H5.682v1.396H5.081V1.995z"/>
					<path fill="#FFFFFF" d="M7.564,1.82H8.17v3.467H7.564V1.82z"/>
					<path fill="#FFFFFF" d="M10.257,5.286l-0.039-0.264h-0.015C10.057,5.208,9.808,5.34,9.5,5.34c-0.479,0-0.747-0.347-0.747-0.708
						c0-0.601,0.532-0.903,1.411-0.898V3.695c0-0.156-0.063-0.415-0.483-0.415c-0.234,0-0.479,0.073-0.64,0.176L8.924,3.065
						c0.176-0.107,0.483-0.21,0.859-0.21c0.762,0,0.981,0.483,0.981,1.001v0.859c0,0.215,0.01,0.425,0.034,0.571H10.257z
						 M10.179,4.124c-0.425-0.01-0.83,0.083-0.83,0.444C9.349,4.803,9.5,4.91,9.69,4.91c0.239,0,0.415-0.156,0.469-0.327
						c0.015-0.044,0.02-0.093,0.02-0.132V4.124z"/>
					<path fill="#FFFFFF" d="M11.5,3.616c0-0.273-0.005-0.503-0.02-0.708h0.518l0.024,0.352h0.015
						c0.117-0.186,0.332-0.405,0.732-0.405c0.313,0,0.557,0.176,0.659,0.439h0.01c0.083-0.132,0.181-0.229,0.293-0.298
						c0.132-0.093,0.283-0.142,0.479-0.142c0.396,0,0.796,0.269,0.796,1.03v1.401H14.42V3.973c0-0.396-0.137-0.63-0.425-0.63
						c-0.205,0-0.356,0.146-0.42,0.317c-0.015,0.059-0.029,0.132-0.029,0.2v1.426H12.96V3.909c0-0.332-0.132-0.566-0.41-0.566
						c-0.225,0-0.376,0.176-0.43,0.342c-0.024,0.059-0.034,0.127-0.034,0.195v1.406H11.5V3.616z"/>
					<path fill="#FFFFFF" d="M16.168,4.266c0.016,0.43,0.352,0.615,0.732,0.615c0.279,0,0.479-0.039,0.66-0.107l0.088,0.415
						c-0.205,0.083-0.488,0.146-0.83,0.146c-0.771,0-1.227-0.474-1.227-1.201c0-0.659,0.4-1.279,1.162-1.279
						c0.771,0,1.025,0.635,1.025,1.157c0,0.112-0.01,0.2-0.02,0.254H16.168z M17.213,3.846c0.006-0.22-0.092-0.581-0.492-0.581
						c-0.371,0-0.527,0.337-0.553,0.581H17.213z"/>
					<path fill="#FFFFFF" d="M5,9.132c0.195,0.112,0.488,0.21,0.797,0.21c0.385,0,0.6-0.181,0.6-0.449
						c0-0.249-0.166-0.396-0.586-0.547C5.27,8.151,4.922,7.863,4.922,7.389c0-0.537,0.449-0.947,1.162-0.947
						c0.357,0,0.621,0.078,0.791,0.166L6.729,7.091C6.611,7.028,6.383,6.935,6.074,6.935c-0.381,0-0.547,0.205-0.547,0.396
						c0,0.254,0.191,0.371,0.631,0.542c0.57,0.215,0.85,0.503,0.85,0.977c0,0.527-0.4,0.986-1.25,0.986
						c-0.348,0-0.709-0.098-0.889-0.205L5,9.132z"/>
					<path fill="#FFFFFF" d="M8.08,8.766c0.015,0.43,0.352,0.615,0.732,0.615c0.278,0,0.479-0.039,0.659-0.107L9.56,9.689
						c-0.205,0.083-0.488,0.146-0.83,0.146c-0.771,0-1.226-0.474-1.226-1.201c0-0.659,0.4-1.279,1.162-1.279
						c0.771,0,1.025,0.635,1.025,1.157c0,0.112-0.01,0.2-0.02,0.254H8.08z M9.125,8.346c0.005-0.22-0.093-0.581-0.493-0.581
						c-0.371,0-0.527,0.337-0.552,0.581H9.125z"/>
					<path fill="#FFFFFF" d="M10.275,6.32h0.605v3.467h-0.605V6.32z"/>
					<path fill="#FFFFFF" d="M12.055,8.766c0.015,0.43,0.352,0.615,0.732,0.615c0.278,0,0.479-0.039,0.659-0.107l0.088,0.415
						c-0.205,0.083-0.488,0.146-0.83,0.146c-0.771,0-1.226-0.474-1.226-1.201c0-0.659,0.4-1.279,1.162-1.279
						c0.771,0,1.025,0.635,1.025,1.157c0,0.112-0.01,0.2-0.02,0.254H12.055z M13.1,8.346c0.005-0.22-0.093-0.581-0.493-0.581
						c-0.371,0-0.527,0.337-0.552,0.581H13.1z"/>
					<path fill="#FFFFFF" d="M15.998,9.713c-0.127,0.059-0.375,0.122-0.674,0.122c-0.742,0-1.225-0.474-1.225-1.211
						c0-0.713,0.488-1.27,1.322-1.27c0.221,0,0.445,0.049,0.582,0.112l-0.107,0.449c-0.098-0.044-0.24-0.093-0.455-0.093
						c-0.459,0-0.732,0.337-0.727,0.771c0,0.488,0.316,0.767,0.727,0.767c0.211,0,0.357-0.044,0.475-0.093L15.998,9.713z"/>
					<path fill="#FFFFFF" d="M17.305,6.73v0.679h0.572v0.449h-0.572v1.05c0,0.288,0.078,0.439,0.309,0.439
						c0.102,0,0.18-0.015,0.234-0.029l0.01,0.459c-0.088,0.034-0.244,0.059-0.436,0.059c-0.219,0-0.404-0.073-0.518-0.195
						c-0.127-0.137-0.186-0.352-0.186-0.664V7.858h-0.342V7.408h0.342V6.871L17.305,6.73z"/>
				</g>
			</g>
		</g>
		<path fill="#FFFFFF" d="M4.563,22.678H3.584v-1h0.979V22.678z"/>
		<g>
			<path fill="#FFFFFF" d="M2.968,20.66c-0.073-0.138-0.11-0.277-0.11-0.42c0-0.07,0.021-0.156,0.049-0.26
				c0.036-0.113,0.09-0.24,0.148-0.38c0.042-0.087,0.089-0.181,0.137-0.271c0.04-0.083,0.082-0.16,0.125-0.244
				c0.043-0.074,0.08-0.146,0.122-0.217c0.312-0.555,0.637-1.049,0.637-1.049s0.319,0.494,0.631,1.049
				c0.042,0.07,0.079,0.143,0.122,0.217c0.043,0.08,0.085,0.157,0.125,0.242c0.048,0.089,0.096,0.183,0.134,0.27
				c0.063,0.139,0.115,0.27,0.151,0.383c0.027,0.104,0.047,0.189,0.047,0.26c0,0.145-0.035,0.282-0.104,0.418
				c-0.029,0.049-0.074,0.088-0.108,0.133c-0.154,0.203-0.38,0.358-0.647,0.434H3.719c-0.268-0.075-0.495-0.23-0.647-0.434
				C3.037,20.746,2.989,20.707,2.968,20.66z"/>
			<path opacity="0.5" fill="#FFFFFF" d="M2.818,20.832c-0.041-0.035-0.085-0.068-0.126-0.107c-0.088-0.084-0.167-0.174-0.24-0.271
				c-0.028-0.042-0.059-0.086-0.088-0.131c-0.038-0.057-0.072-0.121-0.104-0.189c-0.123-0.257-0.201-0.545-0.205-0.848
				c0-0.009,0-0.018,0-0.018c0-0.016,0-0.028,0.004-0.039c0-0.084,0.016-0.183,0.037-0.294c0.076-0.367,0.253-0.853,0.477-1.373
				c0.028-0.068,0.061-0.139,0.092-0.209c0.028-0.069,0.061-0.137,0.092-0.205c0.58-1.28,1.319-2.585,1.319-2.585
				s0.733,1.305,1.313,2.585c0.032,0.068,0.063,0.136,0.092,0.208c0.031,0.067,0.063,0.138,0.095,0.206
				c0.222,0.521,0.398,1.009,0.474,1.377c0.023,0.107,0.037,0.208,0.037,0.293c0,0.01,0.004,0.021,0.004,0.03
				c0,0-0.004,0.015-0.004,0.024c-0.003,0.305-0.078,0.592-0.201,0.847c-0.035,0.068-0.066,0.133-0.104,0.189
				c-0.028,0.045-0.057,0.09-0.091,0.133c-0.07,0.097-0.146,0.185-0.234,0.269c-0.04,0.039-0.085,0.074-0.132,0.107
				c-0.042,0.036-0.082,0.074-0.13,0.105c-0.225,0.151-0.49,0.238-0.768,0.287c0.268-0.075,0.493-0.23,0.647-0.434
				c0.034-0.045,0.079-0.084,0.108-0.133c0.068-0.136,0.104-0.273,0.104-0.418c0-0.07-0.02-0.156-0.047-0.26
				c-0.036-0.113-0.089-0.244-0.151-0.383c-0.038-0.087-0.086-0.181-0.134-0.27c-0.04-0.085-0.082-0.162-0.125-0.242
				c-0.043-0.074-0.08-0.146-0.122-0.217c-0.312-0.555-0.631-1.049-0.631-1.049s-0.325,0.494-0.637,1.049
				c-0.042,0.07-0.079,0.143-0.122,0.217c-0.043,0.084-0.085,0.161-0.125,0.244c-0.048,0.09-0.095,0.184-0.137,0.271
				c-0.059,0.14-0.112,0.267-0.148,0.38c-0.027,0.104-0.049,0.189-0.049,0.26c0,0.143,0.037,0.282,0.11,0.42
				c0.021,0.047,0.069,0.086,0.104,0.131c0.152,0.203,0.38,0.358,0.647,0.434c-0.277-0.052-0.539-0.136-0.768-0.287
				C2.904,20.905,2.866,20.865,2.818,20.832z"/>
		</g>
		<path fill="#FFFFFF" d="M9.407,22.678H8.429v-1h0.979V22.678z"/>
		<g>
			<path fill="#FFFFFF" d="M8.01,20.762c-0.061-0.113-0.092-0.228-0.092-0.346c0-0.057,0.018-0.129,0.041-0.213
				c0.029-0.094,0.074-0.198,0.122-0.313c0.035-0.071,0.074-0.147,0.113-0.223c0.032-0.067,0.066-0.131,0.103-0.199
				c0.034-0.062,0.065-0.121,0.099-0.179c0.257-0.456,0.524-0.861,0.524-0.861s0.262,0.405,0.518,0.861
				c0.034,0.058,0.065,0.117,0.1,0.179c0.036,0.065,0.069,0.129,0.103,0.198c0.039,0.073,0.08,0.15,0.11,0.221
				c0.051,0.114,0.096,0.222,0.125,0.315c0.023,0.084,0.038,0.156,0.038,0.213c0,0.119-0.028,0.232-0.085,0.344
				c-0.023,0.04-0.061,0.072-0.09,0.109c-0.127,0.167-0.31,0.294-0.531,0.355h-0.58c-0.222-0.062-0.408-0.188-0.532-0.355
				C8.066,20.832,8.027,20.8,8.01,20.762z"/>
			<path opacity="0.5" fill="#FFFFFF" d="M7.888,20.903c-0.034-0.028-0.07-0.056-0.104-0.089c-0.072-0.067-0.137-0.142-0.196-0.222
				c-0.023-0.034-0.049-0.07-0.072-0.107c-0.031-0.047-0.06-0.1-0.087-0.155c-0.102-0.212-0.165-0.447-0.168-0.696
				c0-0.007,0-0.015,0-0.015c0-0.013,0-0.023,0.003-0.032c0-0.068,0.013-0.15,0.031-0.241c0.062-0.302,0.207-0.7,0.392-1.128
				c0.023-0.057,0.049-0.114,0.074-0.171c0.023-0.058,0.05-0.113,0.075-0.169c0.478-1.052,1.085-2.123,1.085-2.123
				s0.602,1.071,1.079,2.123c0.025,0.056,0.052,0.111,0.074,0.171c0.026,0.055,0.052,0.112,0.078,0.169
				c0.182,0.428,0.327,0.829,0.389,1.131c0.019,0.088,0.031,0.171,0.031,0.241c0,0.008,0.003,0.017,0.003,0.024
				c0,0-0.003,0.013-0.003,0.021c-0.002,0.25-0.063,0.485-0.165,0.695c-0.029,0.056-0.057,0.108-0.087,0.155
				c-0.023,0.037-0.047,0.074-0.074,0.109c-0.058,0.078-0.12,0.152-0.192,0.22c-0.033,0.033-0.069,0.062-0.108,0.089
				c-0.034,0.029-0.067,0.061-0.106,0.087c-0.185,0.124-0.402,0.195-0.631,0.235c0.222-0.062,0.404-0.188,0.531-0.355
				c0.029-0.037,0.066-0.069,0.09-0.109c0.057-0.111,0.085-0.225,0.085-0.344c0-0.057-0.015-0.129-0.038-0.213
				c-0.029-0.094-0.074-0.201-0.125-0.315c-0.03-0.07-0.071-0.147-0.11-0.221c-0.033-0.069-0.066-0.133-0.103-0.198
				c-0.034-0.062-0.065-0.121-0.1-0.179c-0.256-0.456-0.518-0.861-0.518-0.861s-0.268,0.405-0.524,0.861
				c-0.033,0.058-0.064,0.117-0.099,0.179c-0.036,0.068-0.07,0.132-0.103,0.199c-0.039,0.075-0.078,0.151-0.113,0.223
				c-0.048,0.114-0.093,0.219-0.122,0.313c-0.023,0.084-0.041,0.156-0.041,0.213c0,0.118,0.031,0.232,0.092,0.346
				c0.018,0.038,0.057,0.07,0.085,0.107c0.124,0.167,0.311,0.294,0.532,0.355c-0.229-0.042-0.443-0.111-0.631-0.235
				C7.957,20.962,7.926,20.93,7.888,20.903z"/>
		</g>
		<path fill="#FFFFFF" d="M14.251,22.678h-0.979v-1h0.979V22.678z"/>
		<g>
			<path fill="#FFFFFF" d="M13.076,20.875c-0.045-0.086-0.068-0.172-0.068-0.261c0-0.043,0.013-0.097,0.03-0.161
				c0.022-0.07,0.056-0.149,0.093-0.235c0.025-0.054,0.055-0.112,0.084-0.167c0.025-0.053,0.051-0.1,0.078-0.152
				c0.025-0.046,0.049-0.091,0.074-0.134c0.193-0.345,0.396-0.649,0.396-0.649s0.198,0.305,0.392,0.649
				c0.025,0.043,0.049,0.088,0.074,0.134c0.027,0.051,0.053,0.098,0.078,0.15c0.029,0.055,0.06,0.113,0.083,0.167
				c0.038,0.086,0.071,0.167,0.094,0.237c0.018,0.064,0.029,0.118,0.029,0.161c0,0.09-0.022,0.175-0.064,0.259
				c-0.018,0.031-0.046,0.055-0.067,0.082c-0.096,0.127-0.234,0.223-0.4,0.27h-0.439c-0.166-0.047-0.307-0.143-0.4-0.27
				C13.119,20.928,13.09,20.905,13.076,20.875z"/>
			<path opacity="0.5" fill="#FFFFFF" d="M12.984,20.982c-0.026-0.022-0.054-0.042-0.079-0.067
				c-0.055-0.051-0.104-0.107-0.149-0.167c-0.018-0.026-0.036-0.054-0.054-0.081c-0.023-0.035-0.046-0.075-0.065-0.117
				c-0.076-0.16-0.125-0.338-0.127-0.525c0-0.006,0-0.012,0-0.012c0-0.01,0-0.018,0.002-0.023c0-0.053,0.01-0.114,0.023-0.183
				c0.047-0.228,0.156-0.528,0.296-0.852c0.018-0.042,0.037-0.087,0.057-0.13c0.018-0.043,0.037-0.084,0.057-0.127
				c0.36-0.793,0.818-1.602,0.818-1.602s0.454,0.809,0.814,1.602c0.02,0.043,0.039,0.084,0.057,0.129
				c0.02,0.041,0.039,0.086,0.059,0.128c0.138,0.323,0.247,0.626,0.294,0.854c0.014,0.066,0.023,0.13,0.023,0.183
				c0,0.006,0.002,0.012,0.002,0.018c0,0-0.002,0.01-0.002,0.016c-0.002,0.189-0.049,0.367-0.125,0.525
				c-0.021,0.042-0.042,0.082-0.065,0.117c-0.018,0.027-0.035,0.056-0.056,0.082c-0.044,0.06-0.091,0.115-0.146,0.166
				c-0.025,0.025-0.053,0.047-0.082,0.067c-0.026,0.022-0.052,0.046-0.081,0.065c-0.139,0.094-0.303,0.147-0.475,0.178
				c0.166-0.047,0.305-0.143,0.4-0.27c0.021-0.027,0.05-0.051,0.067-0.082c0.042-0.084,0.064-0.169,0.064-0.259
				c0-0.043-0.012-0.097-0.029-0.161c-0.022-0.07-0.056-0.151-0.094-0.237c-0.023-0.054-0.054-0.112-0.083-0.167
				c-0.025-0.053-0.051-0.1-0.078-0.15c-0.025-0.046-0.049-0.091-0.074-0.134c-0.193-0.345-0.392-0.649-0.392-0.649
				s-0.202,0.305-0.396,0.649c-0.025,0.043-0.049,0.088-0.074,0.134c-0.027,0.053-0.053,0.1-0.078,0.152
				c-0.029,0.055-0.059,0.113-0.084,0.167c-0.037,0.086-0.07,0.165-0.093,0.235c-0.018,0.064-0.03,0.118-0.03,0.161
				c0,0.089,0.023,0.175,0.068,0.261c0.014,0.029,0.043,0.053,0.064,0.08c0.094,0.127,0.234,0.223,0.4,0.27
				c-0.172-0.031-0.334-0.084-0.475-0.178C13.037,21.027,13.014,21.002,12.984,20.982z"/>
		</g>
		<path fill="#FFFFFF" d="M19.096,22.678h-0.979v-1h0.979V22.678z"/>
		<g>
			<path fill="#FFFFFF" d="M18.148,20.992c-0.03-0.057-0.046-0.115-0.046-0.174c0-0.029,0.009-0.064,0.021-0.107
				c0.015-0.047,0.037-0.1,0.062-0.157c0.018-0.036,0.037-0.075,0.057-0.112c0.017-0.033,0.034-0.066,0.052-0.1
				c0.018-0.031,0.033-0.062,0.05-0.09c0.129-0.23,0.264-0.434,0.264-0.434s0.132,0.203,0.261,0.434
				c0.018,0.028,0.033,0.059,0.05,0.09c0.019,0.033,0.035,0.064,0.052,0.1c0.02,0.037,0.04,0.075,0.056,0.111
				c0.025,0.057,0.048,0.111,0.063,0.158c0.012,0.043,0.02,0.078,0.02,0.107c0,0.06-0.015,0.117-0.043,0.172
				c-0.012,0.021-0.03,0.037-0.045,0.055c-0.063,0.085-0.156,0.148-0.268,0.18h-0.292c-0.111-0.031-0.205-0.095-0.268-0.18
				C18.177,21.028,18.157,21.012,18.148,20.992z"/>
			<path opacity="0.5" fill="#FFFFFF" d="M18.087,21.063c-0.017-0.014-0.035-0.027-0.052-0.045c-0.037-0.033-0.069-0.07-0.1-0.111
				c-0.012-0.018-0.024-0.035-0.036-0.054c-0.016-0.023-0.03-0.05-0.044-0.079c-0.051-0.105-0.083-0.225-0.084-0.35
				c0-0.004,0-0.008,0-0.008c0-0.006,0-0.012,0.001-0.016c0-0.035,0.007-0.076,0.016-0.121c0.031-0.152,0.104-0.354,0.197-0.568
				c0.012-0.027,0.024-0.057,0.038-0.086c0.012-0.029,0.024-0.057,0.037-0.084c0.24-0.529,0.546-1.068,0.546-1.068
				s0.303,0.539,0.543,1.068c0.013,0.027,0.026,0.055,0.038,0.086c0.013,0.027,0.025,0.057,0.039,0.084
				c0.091,0.215,0.164,0.418,0.195,0.569c0.01,0.044,0.016,0.087,0.016,0.122c0,0.004,0.002,0.008,0.002,0.012
				c0,0-0.002,0.006-0.002,0.01c-0.001,0.127-0.032,0.244-0.083,0.35c-0.015,0.029-0.028,0.056-0.044,0.079
				c-0.012,0.019-0.023,0.037-0.037,0.055c-0.029,0.04-0.061,0.077-0.097,0.11c-0.017,0.018-0.035,0.031-0.055,0.045
				c-0.018,0.016-0.034,0.031-0.054,0.044c-0.093,0.063-0.202,0.099-0.317,0.118c0.111-0.031,0.204-0.095,0.268-0.18
				c0.015-0.018,0.033-0.033,0.045-0.055c0.028-0.055,0.043-0.112,0.043-0.172c0-0.029-0.008-0.064-0.02-0.107
				c-0.015-0.047-0.037-0.102-0.063-0.158c-0.016-0.036-0.036-0.074-0.056-0.111c-0.017-0.035-0.033-0.066-0.052-0.1
				c-0.017-0.031-0.032-0.062-0.05-0.09c-0.129-0.23-0.261-0.434-0.261-0.434s-0.135,0.203-0.264,0.434
				c-0.017,0.028-0.032,0.059-0.05,0.09c-0.018,0.033-0.035,0.066-0.052,0.1c-0.02,0.037-0.039,0.076-0.057,0.112
				c-0.024,0.058-0.047,0.11-0.062,0.157c-0.012,0.043-0.021,0.078-0.021,0.107c0,0.059,0.016,0.117,0.046,0.174
				c0.009,0.02,0.028,0.035,0.043,0.053c0.063,0.085,0.156,0.148,0.268,0.18c-0.115-0.021-0.223-0.056-0.317-0.118
				C18.122,21.093,18.106,21.076,18.087,21.063z"/>
		</g>
		<g opacity="0.5">
			<polygon fill="#FFFFFF" points="6.006,14.406 2.141,13.389 2.141,12.825 6.006,12.825 			"/>
			<polygon fill="#FFFFFF" points="10.852,15.682 6.984,14.664 6.984,12.825 10.852,12.825 			"/>
			<polygon fill="#FFFFFF" points="15.695,16.957 11.828,15.94 11.828,12.825 15.695,12.825 			"/>
			<polygon fill="#FFFFFF" points="20.539,18.233 16.674,17.215 16.674,12.825 20.539,12.825 			"/>
			<polygon fill="#FFFFFF" points="0.001,12.825 1.162,13.131 1.162,12.825 			"/>
			<polygon fill="#FFFFFF" points="22.678,18.795 21.518,18.49 21.518,12.825 22.678,12.825 			"/>
		</g>
	</g>
</g>
</svg>
