<?xml version="1.0" encoding="utf-8"?>
<!-- Generator: Adobe Illustrator 16.0.3, SVG Export Plug-In . SVG Version: 6.00 Build 0)  -->
<!DOCTYPE svg PUBLIC "-//W3C//DTD SVG 1.1//EN" "http://www.w3.org/Graphics/SVG/1.1/DTD/svg11.dtd">
<svg version="1.1" xmlns="http://www.w3.org/2000/svg" xmlns:xlink="http://www.w3.org/1999/xlink" x="0px" y="0px" width="22.68px"
	 height="22.68px" viewBox="0 0 22.68 22.68" enable-background="new 0 0 22.68 22.68" xml:space="preserve">
<g id="BCGRND">
</g>
<g id="BAREVNE_POZADI_IKON">
	<rect y="0" fill="#585857" width="22.676" height="22.678"/>
</g>
<g id="IKONY">
	<g>
		<rect x="0.001" y="11.956" fill="#FFFFFF" width="22.677" height="0.889"/>
	</g>
	<g>
		<rect x="6.64" y="17.605" fill="#FFFFFF" width="0.793" height="1.375"/>
		<circle fill="#FFFFFF" cx="5.657" cy="18.333" r="0.335"/>
		<circle fill="#FFFFFF" cx="14.18" cy="17.387" r="0.336"/>
		<rect x="6.64" y="19.527" fill="#FFFFFF" width="0.793" height="1.375"/>
		<circle fill="#FFFFFF" cx="8.498" cy="21.174" r="0.336"/>
		<circle fill="#FFFFFF" cx="10.391" cy="17.387" r="0.335"/>
		<circle fill="#FFFFFF" cx="9.445" cy="22.122" r="0.335"/>
		<circle fill="#FFFFFF" cx="9.444" cy="20.228" r="0.335"/>
		<circle fill="#FFFFFF" cx="8.498" cy="19.281" r="0.335"/>
		<circle fill="#FFFFFF" cx="8.498" cy="17.387" r="0.336"/>
		<rect x="6.64" y="21.448" fill="#FFFFFF" width="0.793" height="1.23"/>
		<circle fill="#FFFFFF" cx="3.763" cy="22.122" r="0.336"/>
		<circle fill="#FFFFFF" cx="3.762" cy="18.333" r="0.335"/>
		<circle fill="#FFFFFF" cx="9.445" cy="18.333" r="0.335"/>
		<rect x="15.155" y="21.448" fill="#FFFFFF" width="0.793" height="1.23"/>
		<circle fill="#FFFFFF" cx="3.762" cy="20.228" r="0.335"/>
		<circle fill="#FFFFFF" cx="4.71" cy="19.281" r="0.335"/>
		<circle fill="#FFFFFF" cx="5.656" cy="22.122" r="0.336"/>
		<circle fill="#FFFFFF" cx="5.656" cy="20.228" r="0.335"/>
		<circle fill="#FFFFFF" cx="4.71" cy="17.387" r="0.336"/>
		<circle fill="#FFFFFF" cx="4.709" cy="21.174" r="0.336"/>
		<circle fill="#FFFFFF" cx="10.392" cy="19.28" r="0.336"/>
		<circle fill="#FFFFFF" cx="10.392" cy="21.174" r="0.336"/>
		<circle fill="#FFFFFF" cx="17.967" cy="21.174" r="0.335"/>
		<circle fill="#FFFFFF" cx="17.021" cy="20.228" r="0.335"/>
		<rect x="15.155" y="17.605" fill="#FFFFFF" width="0.793" height="1.375"/>
		<circle fill="#FFFFFF" cx="17.967" cy="19.281" r="0.335"/>
		<rect x="15.155" y="19.527" fill="#FFFFFF" width="0.793" height="1.375"/>
		<circle fill="#FFFFFF" cx="17.021" cy="22.122" r="0.336"/>
		<circle fill="#FFFFFF" cx="18.915" cy="18.333" r="0.335"/>
		<path fill="#FFFFFF" d="M20.874,16.748c-0.02-0.217-0.092-0.412-0.202-0.587c-0.135-0.214-0.314-0.393-0.543-0.504
			c-0.178-0.086-0.371-0.144-0.582-0.144H3.129c-0.211,0-0.403,0.057-0.581,0.144c-0.229,0.11-0.409,0.289-0.544,0.503
			c-0.109,0.176-0.183,0.37-0.202,0.588c-0.004,0.039-0.023,0.074-0.023,0.115v5.815h1v-5.815c0-0.193,0.157-0.35,0.351-0.35H6.64
			v0.545h0.793v-0.545h7.723v0.545h0.793v-0.545h3.599c0.193,0,0.351,0.156,0.351,0.35v5.815h1v-5.815
			C20.897,16.822,20.878,16.788,20.874,16.748z"/>
		<circle fill="#FFFFFF" cx="17.967" cy="17.387" r="0.335"/>
		<circle fill="#FFFFFF" cx="18.915" cy="22.122" r="0.336"/>
		<circle fill="#FFFFFF" cx="18.914" cy="20.228" r="0.335"/>
		<circle fill="#FFFFFF" cx="17.021" cy="18.333" r="0.335"/>
		<circle fill="#FFFFFF" cx="12.286" cy="19.281" r="0.335"/>
		<circle fill="#FFFFFF" cx="11.338" cy="18.334" r="0.336"/>
		<circle fill="#FFFFFF" cx="12.286" cy="21.174" r="0.335"/>
		<circle fill="#FFFFFF" cx="11.338" cy="20.228" r="0.335"/>
		<circle fill="#FFFFFF" cx="14.18" cy="19.281" r="0.335"/>
		<circle fill="#FFFFFF" cx="11.338" cy="22.122" r="0.335"/>
		<circle fill="#FFFFFF" cx="13.232" cy="18.333" r="0.335"/>
		<circle fill="#FFFFFF" cx="14.179" cy="21.174" r="0.335"/>
		<circle fill="#FFFFFF" cx="13.232" cy="20.228" r="0.335"/>
		<circle fill="#FFFFFF" cx="12.286" cy="17.387" r="0.335"/>
		<circle fill="#FFFFFF" cx="13.232" cy="22.122" r="0.336"/>
	</g>
	<g>
		<g>
			<path fill="#FFFFFF" d="M6.777,1.996h1.904v0.492H7.378v0.908h1.211v0.488H7.378v1.402H6.777V1.996z"/>
			<path fill="#FFFFFF" d="M9.163,1.821h0.601v3.467H9.163V1.821z"/>
			<path fill="#FFFFFF" d="M10.844,4.266c0.015,0.43,0.347,0.615,0.732,0.615c0.278,0,0.474-0.043,0.659-0.107l0.088,0.41
				c-0.205,0.088-0.488,0.152-0.83,0.152c-0.771,0-1.226-0.475-1.226-1.201c0-0.66,0.4-1.279,1.162-1.279
				c0.771,0,1.025,0.635,1.025,1.156c0,0.113-0.01,0.201-0.02,0.254H10.844z M11.889,3.846c0.005-0.219-0.093-0.58-0.493-0.58
				c-0.371,0-0.527,0.336-0.552,0.58H11.889z"/>
			<path fill="#FFFFFF" d="M13.304,2.908l0.283,0.449c0.078,0.127,0.146,0.244,0.215,0.367h0.01c0.068-0.133,0.137-0.254,0.21-0.377
				l0.264-0.439h0.654l-0.796,1.143l0.811,1.236h-0.684l-0.288-0.475c-0.078-0.127-0.146-0.254-0.215-0.385h-0.01
				c-0.068,0.137-0.142,0.254-0.215,0.385L13.27,5.287h-0.664l0.825-1.211l-0.796-1.168H13.304z"/>
			<path fill="#FFFFFF" d="M15.958,2.244c0,0.176-0.132,0.322-0.342,0.322c-0.2,0-0.332-0.146-0.332-0.322
				c0-0.186,0.137-0.326,0.337-0.326C15.826,1.918,15.953,2.059,15.958,2.244z M15.318,5.287V2.908h0.601v2.379H15.318z"/>
			<path fill="#FFFFFF" d="M6.335,9.44l0.894-1.143c0.122-0.146,0.225-0.264,0.347-0.4v-0.01H6.423V7.408h1.885v0.367L7.439,8.893
				C7.322,9.035,7.209,9.172,7.087,9.299v0.01h1.25v0.479H6.335V9.44z"/>
			<path fill="#FFFFFF" d="M10.987,8.576c0,0.873-0.615,1.264-1.221,1.264c-0.669,0-1.191-0.459-1.191-1.225
				c0-0.781,0.513-1.26,1.23-1.26C10.513,7.356,10.987,7.854,10.987,8.576z M9.195,8.6c0,0.459,0.229,0.807,0.591,0.807
				c0.342,0,0.581-0.332,0.581-0.816c0-0.371-0.166-0.801-0.576-0.801C9.366,7.789,9.195,8.205,9.195,8.6z M10.494,6.379
				L9.898,7.102H9.483l0.425-0.723H10.494z"/>
			<path fill="#FFFFFF" d="M11.483,8.117c0-0.273-0.01-0.504-0.02-0.709h0.522l0.029,0.357h0.015c0.107-0.186,0.366-0.41,0.762-0.41
				c0.415,0,0.845,0.268,0.845,1.02v1.412h-0.601V8.444c0-0.342-0.127-0.6-0.454-0.6c-0.239,0-0.405,0.17-0.469,0.352
				c-0.02,0.049-0.029,0.121-0.029,0.189v1.402h-0.601V8.117z"/>
			<path fill="#FFFFFF" d="M16.125,9.215c0,0.215,0.01,0.426,0.039,0.572h-0.542l-0.044-0.264h-0.015
				c-0.142,0.186-0.391,0.316-0.703,0.316c-0.479,0-0.747-0.346-0.747-0.707c0-0.596,0.532-0.904,1.411-0.898V8.196
				c0-0.156-0.063-0.416-0.483-0.416c-0.234,0-0.479,0.074-0.64,0.176l-0.117-0.391c0.176-0.107,0.483-0.209,0.859-0.209
				c0.762,0,0.981,0.482,0.981,1.006V9.215z M15.54,8.625c-0.425-0.006-0.83,0.082-0.83,0.443c0,0.234,0.151,0.342,0.342,0.342
				c0.244,0,0.415-0.156,0.474-0.326c0.015-0.045,0.015-0.088,0.015-0.133V8.625z"/>
		</g>
	</g>
</g>
</svg>
