<?xml version="1.0" encoding="utf-8"?>
<!-- Generator: Adobe Illustrator 16.0.3, SVG Export Plug-In . SVG Version: 6.00 Build 0)  -->
<!DOCTYPE svg PUBLIC "-//W3C//DTD SVG 1.1//EN" "http://www.w3.org/Graphics/SVG/1.1/DTD/svg11.dtd">
<svg version="1.1" xmlns="http://www.w3.org/2000/svg" xmlns:xlink="http://www.w3.org/1999/xlink" x="0px" y="0px" width="22.68px"
	 height="22.68px" viewBox="0 0 22.68 22.68" enable-background="new 0 0 22.68 22.68" xml:space="preserve">
<g id="BCGRND">
</g>
<g id="BAREVNE_POZADI_IKON">
	<rect x="0.002" y="0" fill="#585857" width="22.678" height="22.678"/>
</g>
<g id="IKONY">
	<g>
		<g>
			<g>
				<rect x="0" y="11.956" fill="#FFFFFF" width="22.678" height="0.889"/>
			</g>
			<g>
				<g>
					<path fill="#FFFFFF" d="M7.222,1.995h1.899v0.493H7.823v0.908h1.211V3.89H7.823v1.396H7.222V1.995z"/>
					<path fill="#FFFFFF" d="M9.705,1.819h0.605v3.467H9.705V1.819z"/>
					<path fill="#FFFFFF" d="M11.485,4.266c0.015,0.43,0.352,0.615,0.732,0.615c0.278,0,0.479-0.039,0.659-0.107l0.088,0.415
						c-0.205,0.083-0.488,0.146-0.83,0.146c-0.771,0-1.226-0.474-1.226-1.201c0-0.659,0.4-1.279,1.162-1.279
						c0.771,0,1.025,0.635,1.025,1.157c0,0.112-0.01,0.2-0.02,0.254H11.485z M12.53,3.846c0.005-0.22-0.093-0.581-0.493-0.581
						c-0.371,0-0.527,0.337-0.552,0.581H12.53z"/>
					<path fill="#FFFFFF" d="M14.11,2.908l0.283,0.449c0.078,0.127,0.146,0.244,0.215,0.366h0.016
						c0.068-0.132,0.137-0.254,0.205-0.376l0.264-0.439h0.654l-0.797,1.143l0.811,1.235h-0.678l-0.293-0.474
						c-0.078-0.127-0.146-0.254-0.215-0.386h-0.01c-0.068,0.137-0.137,0.254-0.215,0.386l-0.273,0.474h-0.664l0.824-1.211
						l-0.795-1.167H14.11z"/>
					<path fill="#FFFFFF" d="M6.574,8.443c-0.02-0.425-0.043-0.938-0.039-1.382H6.522c-0.107,0.4-0.244,0.845-0.391,1.26
						L5.653,9.747H5.188L4.748,8.341c-0.127-0.42-0.244-0.869-0.332-1.279h-0.01c-0.014,0.43-0.033,0.952-0.059,1.401L4.276,9.786
						H3.713l0.221-3.291h0.791l0.43,1.323c0.117,0.386,0.219,0.776,0.303,1.143h0.014c0.088-0.356,0.201-0.762,0.328-1.147
						l0.453-1.318h0.781l0.191,3.291H6.639L6.574,8.443z"/>
					<path fill="#FFFFFF" d="M10.188,8.575c0,0.874-0.615,1.265-1.221,1.265c-0.674,0-1.191-0.464-1.191-1.226
						c0-0.781,0.513-1.26,1.23-1.26C9.714,7.354,10.188,7.853,10.188,8.575z M8.396,8.6c0,0.459,0.225,0.806,0.591,0.806
						c0.342,0,0.581-0.337,0.581-0.815c0-0.371-0.166-0.796-0.576-0.796C8.567,7.794,8.396,8.204,8.396,8.6z"/>
					<path fill="#FFFFFF" d="M11.465,6.729v0.679h0.57v0.449h-0.57v1.05c0,0.288,0.078,0.439,0.307,0.439
						c0.104,0,0.182-0.015,0.234-0.029l0.01,0.459c-0.088,0.034-0.244,0.059-0.434,0.059c-0.221,0-0.406-0.073-0.518-0.195
						c-0.127-0.137-0.186-0.352-0.186-0.664V7.857h-0.342V7.408h0.342V6.871L11.465,6.729z"/>
					<path fill="#FFFFFF" d="M13.202,6.744c0,0.181-0.132,0.322-0.342,0.322c-0.2,0-0.332-0.142-0.332-0.322
						c0-0.186,0.137-0.327,0.337-0.327C13.071,6.417,13.198,6.559,13.202,6.744z M12.563,9.786V7.408h0.605v2.378H12.563z"/>
					<path fill="#FFFFFF" d="M16.162,8.575c0,0.874-0.615,1.265-1.221,1.265c-0.674,0-1.191-0.464-1.191-1.226
						c0-0.781,0.514-1.26,1.23-1.26C15.69,7.354,16.162,7.853,16.162,8.575z M14.371,8.6c0,0.459,0.225,0.806,0.59,0.806
						c0.342,0,0.582-0.337,0.582-0.815c0-0.371-0.166-0.796-0.576-0.796C14.541,7.794,14.371,8.204,14.371,8.6z"/>
					<path fill="#FFFFFF" d="M16.753,8.116c0-0.273-0.005-0.503-0.02-0.708h0.527l0.029,0.356h0.015
						c0.103-0.186,0.361-0.41,0.757-0.41c0.415,0,0.845,0.269,0.845,1.021v1.411h-0.601V8.443c0-0.342-0.127-0.601-0.454-0.601
						c-0.239,0-0.405,0.171-0.469,0.352c-0.02,0.054-0.024,0.127-0.024,0.195v1.396h-0.605V8.116z"/>
				</g>
			</g>
		</g>
		<g>
			<g>
				<g>
					<path fill="#FFFFFF" d="M7.872,15.474l-0.38-0.325c0.006-0.007,0.143-0.166,0.408-0.371l0.307,0.396
						C7.986,15.345,7.873,15.473,7.872,15.474z M8.596,14.909l-0.256-0.43c0.138-0.082,0.293-0.166,0.466-0.245l0.209,0.454
						C8.86,14.76,8.72,14.835,8.596,14.909z M13.66,14.764c-0.138-0.063-0.286-0.124-0.444-0.181l0.168-0.471
						c0.174,0.062,0.334,0.129,0.483,0.197L13.66,14.764z M9.454,14.512L9.292,14.04c0.156-0.054,0.324-0.103,0.503-0.146
						L9.91,14.38C9.749,14.419,9.597,14.463,9.454,14.512z M12.76,14.439c-0.15-0.04-0.306-0.076-0.469-0.106l0.09-0.492
						c0.177,0.033,0.346,0.072,0.508,0.116L12.76,14.439z M10.381,14.292l-0.072-0.495c0.165-0.024,0.339-0.042,0.52-0.052
						l0.027,0.499C10.691,14.253,10.532,14.27,10.381,14.292z M11.817,14.265c-0.155-0.015-0.315-0.025-0.48-0.029l0.012-0.5
						c0.179,0.004,0.351,0.015,0.518,0.032L11.817,14.265z"/>
				</g>
				<g>
					<polygon fill="#FFFFFF" points="14.726,13.92 13.605,15.582 14.995,15.311 					"/>
				</g>
			</g>
		</g>
		<g>
			<g>
				<g>
					<path fill="#FFFFFF" d="M5.009,21.209c0.122,0.073,0.42,0.195,0.723,0.195c0.459,0,0.645-0.259,0.64-0.508
						c0-0.376-0.352-0.537-0.718-0.537H5.375V19.92h0.269c0.278,0,0.63-0.127,0.63-0.444c0-0.215-0.161-0.396-0.508-0.396
						c-0.259,0-0.518,0.112-0.649,0.2L4.98,18.846c0.181-0.127,0.532-0.244,0.913-0.244c0.654,0,0.991,0.361,0.991,0.776
						c0,0.332-0.195,0.605-0.586,0.742v0.01c0.386,0.068,0.698,0.361,0.698,0.791c0,0.537-0.449,0.962-1.235,0.962
						c-0.386,0-0.718-0.107-0.889-0.22L5.009,21.209z"/>
				</g>
				<g>
					<path fill="#FFFFFF" d="M16.009,21.209c0.122,0.073,0.42,0.195,0.723,0.195c0.459,0,0.645-0.259,0.64-0.508
						c0-0.376-0.352-0.537-0.718-0.537h-0.278V19.92h0.269c0.278,0,0.63-0.127,0.63-0.444c0-0.215-0.161-0.396-0.508-0.396
						c-0.259,0-0.518,0.112-0.649,0.2l-0.137-0.435c0.181-0.127,0.532-0.244,0.913-0.244c0.654,0,0.991,0.361,0.991,0.776
						c0,0.332-0.195,0.605-0.586,0.742v0.01c0.386,0.068,0.698,0.361,0.698,0.791c0,0.537-0.449,0.962-1.235,0.962
						c-0.386,0-0.718-0.107-0.889-0.22L16.009,21.209z"/>
				</g>
			</g>
			<g>
				<path fill="none" d="M8.444,19.085c0.131-0.131,0.343-0.131,0.474,0.001c0.131,0.131,0.131,0.343,0.001,0.474
					c-0.132,0.131-0.344,0.131-0.475,0S8.313,19.216,8.444,19.085z M3.236,21.454c-0.131,0.132-0.343,0.132-0.474,0
					c-0.132-0.131-0.132-0.343,0-0.474c0.131-0.131,0.343-0.132,0.474,0C3.367,21.111,3.366,21.323,3.236,21.454z M3.237,19.56
					c-0.131,0.131-0.344,0.131-0.475,0s-0.132-0.344,0-0.475c0.131-0.132,0.344-0.131,0.474,0
					C3.367,19.216,3.367,19.429,3.237,19.56z M4.183,22.401c-0.131,0.131-0.344,0.131-0.474,0c-0.132-0.131-0.132-0.343-0.001-0.474
					c0.131-0.132,0.344-0.132,0.475,0C4.314,22.058,4.314,22.27,4.183,22.401z M4.183,20.506c-0.131,0.132-0.343,0.132-0.474,0
					c-0.132-0.131-0.132-0.343,0-0.474c0.131-0.131,0.343-0.131,0.474,0S4.314,20.375,4.183,20.506z M4.183,18.613
					c-0.131,0.131-0.344,0.132-0.475,0c-0.131-0.131-0.131-0.343,0.001-0.474c0.13-0.131,0.343-0.131,0.474,0
					S4.314,18.482,4.183,18.613z M5.13,21.454c-0.131,0.132-0.344,0.131-0.475,0s-0.131-0.344,0-0.475s0.344-0.131,0.475,0.001
					C5.261,21.11,5.261,21.323,5.13,21.454z M4.656,19.086c0.131-0.132,0.344-0.133,0.475-0.001
					c0.131,0.131,0.131,0.344-0.001,0.475c-0.13,0.131-0.343,0.131-0.474,0S4.525,19.216,4.656,19.086z M5.13,17.667
					c-0.132,0.131-0.344,0.131-0.475,0c-0.131-0.132-0.131-0.344,0-0.475s0.343-0.131,0.475,0
					C5.261,17.323,5.261,17.535,5.13,17.667z M5.603,18.138c0.131-0.131,0.343-0.131,0.474,0c0.131,0.132,0.131,0.343,0,0.474
					c-0.131,0.132-0.343,0.132-0.474,0C5.471,18.481,5.471,18.27,5.603,18.138z M6.076,22.401c-0.131,0.131-0.343,0.131-0.474,0
					c-0.131-0.132-0.131-0.343,0-0.474c0.131-0.132,0.343-0.132,0.474,0C6.208,22.058,6.208,22.269,6.076,22.401z M7.024,21.454
					c-0.131,0.131-0.343,0.132-0.474,0c-0.132-0.131-0.131-0.344,0-0.474c0.131-0.132,0.343-0.132,0.474-0.001
					C7.156,21.11,7.155,21.323,7.024,21.454z M7.024,19.56c-0.131,0.131-0.343,0.131-0.474,0s-0.132-0.344,0-0.475
					c0.131-0.132,0.343-0.131,0.474,0S7.156,19.429,7.024,19.56z M7.024,17.667c-0.131,0.131-0.343,0.131-0.474,0
					c-0.131-0.132-0.131-0.344,0-0.475s0.343-0.131,0.474,0S7.156,17.535,7.024,17.667z M7.971,22.401
					c-0.131,0.131-0.344,0.131-0.475,0s-0.13-0.343,0-0.474c0.132-0.132,0.344-0.132,0.475,0C8.102,22.057,8.102,22.27,7.971,22.401
					z M7.971,20.506c-0.131,0.132-0.343,0.132-0.475,0c-0.131-0.131-0.131-0.343,0-0.474c0.132-0.131,0.344-0.131,0.475,0
					S8.102,20.375,7.971,20.506z M7.971,18.613c-0.131,0.131-0.344,0.131-0.475,0c-0.13-0.131-0.131-0.343,0-0.474
					c0.132-0.131,0.344-0.131,0.475,0S8.102,18.482,7.971,18.613z M8.444,21.454c-0.131-0.131-0.131-0.343,0-0.474
					c0.132-0.131,0.343-0.132,0.475,0c0.13,0.13,0.131,0.343,0,0.474C8.786,21.585,8.574,21.584,8.444,21.454z"/>
				<path fill="none" d="M19.444,19.085c0.131-0.131,0.343-0.131,0.474,0.001c0.131,0.131,0.131,0.343,0.001,0.474
					c-0.132,0.131-0.344,0.131-0.475,0S19.313,19.216,19.444,19.085z M14.236,21.454c-0.131,0.132-0.343,0.132-0.474,0
					c-0.132-0.131-0.132-0.343,0-0.474c0.131-0.131,0.343-0.132,0.474,0C14.367,21.111,14.366,21.323,14.236,21.454z M14.237,19.56
					c-0.131,0.131-0.344,0.131-0.475,0s-0.132-0.344,0-0.475c0.131-0.132,0.344-0.131,0.474,0
					C14.367,19.216,14.367,19.429,14.237,19.56z M15.183,22.401c-0.131,0.131-0.344,0.131-0.474,0
					c-0.132-0.131-0.132-0.343-0.001-0.474c0.131-0.132,0.344-0.132,0.475,0C15.314,22.058,15.314,22.27,15.183,22.401z
					 M15.183,20.506c-0.131,0.132-0.343,0.132-0.474,0c-0.132-0.131-0.132-0.343,0-0.474c0.131-0.131,0.343-0.131,0.474,0
					S15.314,20.375,15.183,20.506z M15.183,18.613c-0.131,0.131-0.344,0.132-0.475,0c-0.131-0.131-0.131-0.343,0.001-0.474
					c0.13-0.131,0.343-0.131,0.474,0S15.314,18.482,15.183,18.613z M16.13,21.454c-0.131,0.132-0.344,0.131-0.475,0
					s-0.131-0.344,0-0.475s0.344-0.131,0.475,0.001C16.261,21.11,16.261,21.323,16.13,21.454z M15.656,19.086
					c0.131-0.132,0.344-0.133,0.475-0.001c0.131,0.131,0.131,0.344-0.001,0.475c-0.13,0.131-0.343,0.131-0.474,0
					S15.525,19.216,15.656,19.086z M16.13,17.667c-0.132,0.131-0.344,0.131-0.475,0c-0.131-0.132-0.131-0.344,0-0.475
					s0.343-0.131,0.475,0C16.261,17.323,16.261,17.535,16.13,17.667z M16.603,18.138c0.131-0.131,0.343-0.131,0.474,0
					c0.131,0.132,0.131,0.343,0,0.474c-0.131,0.132-0.343,0.132-0.474,0C16.471,18.481,16.471,18.27,16.603,18.138z M17.076,22.401
					c-0.131,0.131-0.343,0.131-0.474,0c-0.131-0.132-0.131-0.343,0-0.474c0.131-0.132,0.343-0.132,0.474,0
					C17.208,22.058,17.208,22.269,17.076,22.401z M18.024,21.454c-0.131,0.131-0.343,0.132-0.474,0
					c-0.132-0.131-0.131-0.344,0-0.474c0.131-0.132,0.343-0.132,0.474-0.001C18.156,21.11,18.155,21.323,18.024,21.454z
					 M18.024,19.56c-0.131,0.131-0.343,0.131-0.474,0s-0.132-0.344,0-0.475c0.131-0.132,0.343-0.131,0.474,0
					S18.156,19.429,18.024,19.56z M18.024,17.667c-0.131,0.131-0.343,0.131-0.474,0c-0.131-0.132-0.131-0.344,0-0.475
					s0.343-0.131,0.474,0S18.156,17.535,18.024,17.667z M18.971,22.401c-0.131,0.131-0.344,0.131-0.475,0s-0.13-0.343,0-0.474
					c0.132-0.132,0.344-0.132,0.475,0C19.102,22.057,19.102,22.27,18.971,22.401z M18.971,20.506c-0.131,0.132-0.343,0.132-0.475,0
					c-0.131-0.131-0.131-0.343,0-0.474c0.132-0.131,0.344-0.131,0.475,0S19.102,20.375,18.971,20.506z M18.971,18.613
					c-0.131,0.131-0.344,0.131-0.475,0c-0.13-0.131-0.131-0.343,0-0.474c0.132-0.131,0.344-0.131,0.475,0
					S19.102,18.482,18.971,18.613z M19.444,21.454c-0.131-0.131-0.131-0.343,0-0.474c0.132-0.131,0.343-0.132,0.475,0
					c0.13,0.13,0.131,0.343,0,0.474C19.786,21.585,19.574,21.584,19.444,21.454z"/>
				<circle opacity="0.25" fill="#FFFFFF" cx="2.999" cy="19.323" r="0.336"/>
				<circle opacity="0.25" fill="#FFFFFF" cx="3.946" cy="22.164" r="0.335"/>
				<circle opacity="0.25" fill="#FFFFFF" cx="2.999" cy="21.217" r="0.335"/>
				<circle opacity="0.25" fill="#FFFFFF" cx="3.946" cy="20.27" r="0.335"/>
				<circle opacity="0.25" fill="#FFFFFF" cx="7.734" cy="20.27" r="0.335"/>
				<circle opacity="0.25" fill="#FFFFFF" cx="8.681" cy="19.323" r="0.336"/>
				<circle opacity="0.25" fill="#FFFFFF" cx="7.734" cy="22.164" r="0.335"/>
				<circle opacity="0.25" fill="#FFFFFF" cx="8.681" cy="21.217" r="0.335"/>
				<circle opacity="0.25" fill="#FFFFFF" cx="3.946" cy="18.376" r="0.335"/>
				<circle opacity="0.25" fill="#FFFFFF" cx="4.893" cy="17.429" r="0.336"/>
				<circle opacity="0.25" fill="#FFFFFF" cx="6.787" cy="17.429" r="0.335"/>
				<circle opacity="0.25" fill="#FFFFFF" cx="7.734" cy="18.376" r="0.335"/>
				<circle opacity="0.25" fill="#FFFFFF" cx="13.999" cy="19.323" r="0.336"/>
				<circle opacity="0.25" fill="#FFFFFF" cx="14.946" cy="22.164" r="0.335"/>
				<circle opacity="0.25" fill="#FFFFFF" cx="13.999" cy="21.217" r="0.335"/>
				<circle opacity="0.25" fill="#FFFFFF" cx="14.946" cy="20.27" r="0.335"/>
				<circle opacity="0.25" fill="#FFFFFF" cx="18.734" cy="20.27" r="0.335"/>
				<circle opacity="0.25" fill="#FFFFFF" cx="19.681" cy="19.323" r="0.336"/>
				<circle opacity="0.25" fill="#FFFFFF" cx="18.734" cy="22.164" r="0.335"/>
				<circle opacity="0.25" fill="#FFFFFF" cx="19.681" cy="21.217" r="0.335"/>
				<circle opacity="0.25" fill="#FFFFFF" cx="14.946" cy="18.376" r="0.335"/>
				<circle opacity="0.25" fill="#FFFFFF" cx="15.893" cy="17.429" r="0.336"/>
				<circle opacity="0.25" fill="#FFFFFF" cx="17.787" cy="17.429" r="0.335"/>
				<circle opacity="0.25" fill="#FFFFFF" cx="18.734" cy="18.376" r="0.335"/>
			</g>
		</g>
	</g>
	<path fill="#FFFFFF" d="M5.839,15.715c-2.512,0-4.556,2.043-4.556,4.555c0,0.886,0.265,1.708,0.704,2.408H3.24
		c-0.589-0.635-0.956-1.477-0.956-2.408c0-1.96,1.595-3.555,3.556-3.555s3.556,1.595,3.556,3.555c0,0.931-0.367,1.773-0.956,2.408
		h1.252c0.439-0.7,0.704-1.521,0.704-2.408C10.395,17.758,8.351,15.715,5.839,15.715z"/>
	<path fill="#FFFFFF" d="M16.839,15.715c-2.512,0-4.556,2.043-4.556,4.555c0,0.886,0.265,1.708,0.704,2.408h1.252
		c-0.589-0.635-0.956-1.477-0.956-2.408c0-1.96,1.595-3.555,3.556-3.555s3.556,1.595,3.556,3.555c0,0.931-0.367,1.773-0.956,2.408
		h1.252c0.439-0.7,0.704-1.521,0.704-2.408C21.395,17.758,19.351,15.715,16.839,15.715z"/>
</g>
</svg>
