<?xml version="1.0" encoding="utf-8"?>
<!-- Generator: Adobe Illustrator 16.0.3, SVG Export Plug-In . SVG Version: 6.00 Build 0)  -->
<!DOCTYPE svg PUBLIC "-//W3C//DTD SVG 1.1//EN" "http://www.w3.org/Graphics/SVG/1.1/DTD/svg11.dtd">
<svg version="1.1" xmlns="http://www.w3.org/2000/svg" xmlns:xlink="http://www.w3.org/1999/xlink" x="0px" y="0px" width="22.68px"
	 height="22.68px" viewBox="0 0 22.68 22.68" enable-background="new 0 0 22.68 22.68" xml:space="preserve">
<g id="BCGRND">
</g>
<g id="BAREVNE_POZADI_IKON">
	<rect fill="#585857" width="22.678" height="22.677"/>
</g>
<g id="IKONY">
	<g>
		<g>
			<g>
				<path fill="#FFFFFF" d="M7.402,1.994h1.899v0.493H8.003v0.908h1.211v0.493H8.003v1.396H7.402V1.994z"/>
				<path fill="#FFFFFF" d="M9.788,1.819h0.605v3.467H9.788V1.819z"/>
				<path fill="#FFFFFF" d="M11.469,4.265c0.016,0.43,0.352,0.615,0.732,0.615c0.279,0,0.479-0.039,0.66-0.107l0.088,0.415
					c-0.205,0.083-0.488,0.146-0.83,0.146c-0.771,0-1.227-0.474-1.227-1.201c0-0.659,0.4-1.279,1.162-1.279
					c0.771,0,1.025,0.635,1.025,1.157c0,0.112-0.01,0.2-0.02,0.254H11.469z M12.513,3.845c0.006-0.22-0.092-0.581-0.492-0.581
					c-0.371,0-0.527,0.337-0.553,0.581H12.513z"/>
				<path fill="#FFFFFF" d="M13.928,2.907l0.283,0.449c0.078,0.127,0.146,0.244,0.215,0.366h0.015
					c0.068-0.132,0.137-0.254,0.205-0.376l0.264-0.439h0.654L14.768,4.05l0.811,1.235H14.9l-0.293-0.474
					c-0.078-0.127-0.146-0.254-0.215-0.386h-0.01c-0.068,0.137-0.137,0.254-0.215,0.386l-0.273,0.474H13.23l0.825-1.211L13.26,2.907
					H13.928z"/>
				<path fill="#FFFFFF" d="M3.851,6.494v3.291h-0.6V6.494H3.851z"/>
				<path fill="#FFFFFF" d="M4.547,8.115c0-0.273-0.005-0.503-0.02-0.708h0.527l0.029,0.356h0.015
					c0.103-0.186,0.361-0.41,0.757-0.41C6.27,7.354,6.7,7.622,6.7,8.374v1.411H6.099V8.443c0-0.342-0.127-0.601-0.454-0.601
					c-0.239,0-0.405,0.171-0.469,0.352c-0.02,0.054-0.024,0.127-0.024,0.195v1.396H4.547V8.115z"/>
				<path fill="#FFFFFF" d="M9.535,6.319v2.798c0,0.244,0.01,0.508,0.02,0.669H9.017L8.994,9.409h-0.01
					c-0.143,0.264-0.43,0.43-0.777,0.43c-0.566,0-1.016-0.483-1.016-1.216c-0.004-0.796,0.494-1.27,1.064-1.27
					c0.328,0,0.563,0.137,0.67,0.313h0.01V6.319H9.535z M8.935,8.399c0-0.049-0.006-0.107-0.016-0.156
					C8.867,8.008,8.676,7.818,8.402,7.818c-0.385,0-0.6,0.342-0.6,0.786c0,0.435,0.215,0.752,0.596,0.752
					c0.244,0,0.459-0.166,0.518-0.425c0.014-0.054,0.02-0.112,0.02-0.176V8.399z"/>
				<path fill="#FFFFFF" d="M12.312,9.073c0,0.283,0.01,0.518,0.02,0.713h-0.527l-0.029-0.361h-0.01
					c-0.102,0.171-0.336,0.415-0.762,0.415c-0.434,0-0.83-0.259-0.83-1.035V7.407h0.602v1.294c0,0.396,0.127,0.649,0.443,0.649
					c0.24,0,0.396-0.171,0.459-0.322c0.02-0.054,0.035-0.117,0.035-0.186V7.407h0.6V9.073z"/>
				<path fill="#FFFFFF" d="M13.566,8.452h0.01c0.059-0.093,0.127-0.195,0.19-0.278l0.576-0.767h0.723l-0.879,0.972l1.006,1.406
					h-0.737l-0.684-1.05l-0.205,0.239v0.811h-0.601V6.319h0.601V8.452z"/>
				<path fill="#FFFFFF" d="M17.168,9.712c-0.127,0.059-0.376,0.122-0.674,0.122c-0.742,0-1.226-0.474-1.226-1.211
					c0-0.713,0.488-1.27,1.323-1.27c0.22,0,0.444,0.049,0.581,0.112l-0.107,0.449c-0.098-0.044-0.239-0.093-0.454-0.093
					c-0.459,0-0.732,0.337-0.728,0.771c0,0.488,0.317,0.767,0.728,0.767c0.21,0,0.356-0.044,0.474-0.093L17.168,9.712z"/>
				<path fill="#FFFFFF" d="M17.996,8.765c0.015,0.43,0.352,0.615,0.732,0.615c0.278,0,0.479-0.039,0.659-0.107l0.088,0.415
					c-0.205,0.083-0.488,0.146-0.83,0.146c-0.771,0-1.226-0.474-1.226-1.201c0-0.659,0.4-1.279,1.162-1.279
					c0.771,0,1.025,0.635,1.025,1.157c0,0.112-0.01,0.2-0.02,0.254H17.996z M19.041,8.345c0.005-0.22-0.093-0.581-0.493-0.581
					c-0.371,0-0.527,0.337-0.552,0.581H19.041z"/>
			</g>
		</g>
	</g>
	<g>
		<rect x="0.001" y="11.956" fill="#FFFFFF" width="22.677" height="0.889"/>
	</g>
	<g>
		<circle fill="#FFFFFF" cx="6.605" cy="19.29" r="0.336"/>
		<circle fill="#FFFFFF" cx="8.499" cy="21.184" r="0.336"/>
		<circle fill="#FFFFFF" cx="7.551" cy="18.344" r="0.335"/>
		<circle fill="#FFFFFF" cx="7.552" cy="20.237" r="0.334"/>
		<circle fill="#FFFFFF" cx="7.551" cy="22.131" r="0.335"/>
		<circle fill="#FFFFFF" cx="8.498" cy="19.291" r="0.335"/>
		<path fill="#FFFFFF" d="M10.155,21.422c0.051,0.051,0.118,0.065,0.184,0.076v-0.627c-0.065,0.012-0.133,0.025-0.184,0.076
			C10.024,21.078,10.024,21.29,10.155,21.422z"/>
		<circle fill="#FFFFFF" cx="9.446" cy="18.343" r="0.335"/>
		<circle fill="#FFFFFF" cx="9.445" cy="20.238" r="0.335"/>
		<circle fill="#FFFFFF" cx="9.446" cy="22.131" r="0.335"/>
		<circle fill="#FFFFFF" cx="8.499" cy="17.396" r="0.336"/>
		<circle fill="#FFFFFF" cx="5.657" cy="20.238" r="0.335"/>
		<circle fill="#FFFFFF" cx="3.763" cy="18.343" r="0.335"/>
		<circle fill="#FFFFFF" cx="3.763" cy="22.131" r="0.335"/>
		<circle fill="#FFFFFF" cx="3.763" cy="20.238" r="0.335"/>
		<circle fill="#FFFFFF" cx="6.604" cy="17.397" r="0.335"/>
		<rect x="10.839" y="21.518" fill="#FFFFFF" width="1" height="1.16"/>
		<circle fill="#FFFFFF" cx="4.711" cy="17.396" r="0.336"/>
		<circle fill="#FFFFFF" cx="5.657" cy="18.343" r="0.335"/>
		<path fill="#FFFFFF" d="M10.155,19.527c0.051,0.051,0.118,0.064,0.184,0.076v-0.627c-0.065,0.012-0.133,0.025-0.184,0.076
			C10.024,19.184,10.024,19.396,10.155,19.527z"/>
		<circle fill="#FFFFFF" cx="6.604" cy="21.185" r="0.336"/>
		<circle fill="#FFFFFF" cx="4.711" cy="19.291" r="0.335"/>
		<circle fill="#FFFFFF" cx="5.657" cy="22.131" r="0.335"/>
		<circle fill="#FFFFFF" cx="4.71" cy="21.185" r="0.336"/>
		<rect x="10.839" y="17.374" fill="#FFFFFF" width="1" height="1.036"/>
		<circle fill="#FFFFFF" cx="16.074" cy="21.185" r="0.335"/>
		<circle fill="#FFFFFF" cx="17.021" cy="22.131" r="0.335"/>
		<circle fill="#FFFFFF" cx="17.021" cy="18.343" r="0.335"/>
		<circle fill="#FFFFFF" cx="16.074" cy="19.29" r="0.335"/>
		<circle fill="#FFFFFF" cx="17.968" cy="21.184" r="0.335"/>
		<circle fill="#FFFFFF" cx="16.074" cy="17.397" r="0.335"/>
		<circle fill="#FFFFFF" cx="17.022" cy="20.238" r="0.335"/>
		<circle fill="#FFFFFF" cx="17.968" cy="19.291" r="0.335"/>
		<circle fill="#FFFFFF" cx="18.915" cy="20.238" r="0.335"/>
		<path fill="#FFFFFF" d="M20.875,16.757c-0.02-0.217-0.092-0.412-0.202-0.587c-0.135-0.214-0.314-0.393-0.543-0.503
			c-0.178-0.086-0.371-0.145-0.582-0.145H3.13c-0.211,0-0.403,0.058-0.581,0.144c-0.229,0.111-0.409,0.29-0.544,0.504
			c-0.109,0.175-0.183,0.37-0.202,0.587c-0.004,0.04-0.023,0.075-0.023,0.116v5.805h1v-5.805c0-0.193,0.157-0.35,0.351-0.35h16.418
			c0.193,0,0.351,0.157,0.351,0.35v5.805h1v-5.805C20.898,16.832,20.879,16.797,20.875,16.757z"/>
		<circle fill="#FFFFFF" cx="18.916" cy="18.343" r="0.335"/>
		<circle fill="#FFFFFF" cx="17.968" cy="17.396" r="0.335"/>
		<circle fill="#FFFFFF" cx="18.916" cy="22.131" r="0.335"/>
		<path fill="#FFFFFF" d="M12.339,17.083v0.627c0.066-0.011,0.134-0.025,0.185-0.076c0.132-0.131,0.131-0.344,0-0.475
			C12.472,17.108,12.405,17.094,12.339,17.083z"/>
		<rect x="10.839" y="19.446" fill="#FFFFFF" width="1" height="1.036"/>
		<path fill="#FFFFFF" d="M12.339,20.871v0.627c0.066-0.011,0.134-0.025,0.185-0.076c0.132-0.132,0.131-0.344,0-0.475
			C12.472,20.896,12.405,20.882,12.339,20.871z"/>
		<path fill="#FFFFFF" d="M12.339,18.977v0.627c0.066-0.011,0.134-0.026,0.185-0.077c0.131-0.131,0.132-0.344,0-0.475
			C12.472,19.002,12.405,18.987,12.339,18.977z"/>
		<circle fill="#FFFFFF" cx="14.18" cy="17.396" r="0.336"/>
		<circle fill="#FFFFFF" cx="15.128" cy="18.343" r="0.335"/>
		<path fill="#FFFFFF" d="M10.155,17.634c0.051,0.051,0.118,0.064,0.184,0.076v-0.627c-0.065,0.012-0.133,0.026-0.184,0.077
			C10.024,17.29,10.024,17.503,10.155,17.634z"/>
		<circle fill="#FFFFFF" cx="15.127" cy="20.238" r="0.335"/>
		<circle fill="#FFFFFF" cx="14.18" cy="19.291" r="0.335"/>
		<circle fill="#FFFFFF" cx="15.128" cy="22.131" r="0.335"/>
		<circle fill="#FFFFFF" cx="13.233" cy="22.131" r="0.335"/>
		<circle fill="#FFFFFF" cx="14.18" cy="21.185" r="0.335"/>
		<circle fill="#FFFFFF" cx="13.233" cy="20.238" r="0.335"/>
		<circle fill="#FFFFFF" cx="13.233" cy="18.343" r="0.335"/>
	</g>
</g>
</svg>
