<?xml version="1.0" encoding="utf-8"?>
<!-- Generator: Adobe Illustrator 16.0.3, SVG Export Plug-In . SVG Version: 6.00 Build 0)  -->
<!DOCTYPE svg PUBLIC "-//W3C//DTD SVG 1.1//EN" "http://www.w3.org/Graphics/SVG/1.1/DTD/svg11.dtd">
<svg version="1.1" xmlns="http://www.w3.org/2000/svg" xmlns:xlink="http://www.w3.org/1999/xlink" x="0px" y="0px" width="22.68px"
	 height="22.68px" viewBox="0 0 22.68 22.68" enable-background="new 0 0 22.68 22.68" xml:space="preserve">
<g id="BCGRND" display="none">
</g>
<g id="IKONY">
	<g>
		<g>
			<polygon fill="#585857" points="0,0 0,22.678 14.117,22.678 22.678,22.678 22.678,16.335 22.678,0 			"/>
		</g>
		<g>
			<defs>
				<polygon id="SVGID_43_" points="0,0 0,22.678 14.117,22.678 22.678,22.678 22.678,16.335 22.678,0 				"/>
			</defs>
			<clipPath id="SVGID_2_">
				<use xlink:href="#SVGID_43_"  overflow="visible"/>
			</clipPath>
			<g clip-path="url(#SVGID_2_)">
				<g>
					<path fill="#FFFFFF" d="M5.063,2.279h1.899v0.493H5.664v0.908h1.211v0.493H5.664V5.57H5.063V2.279z"/>
				</g>
				<g>
					<path fill="#FFFFFF" d="M7.327,3.959c0-0.322-0.005-0.552-0.02-0.767H7.83l0.02,0.454h0.02C7.986,3.31,8.264,3.139,8.518,3.139
						c0.059,0,0.093,0.005,0.142,0.015V3.72C8.611,3.71,8.557,3.7,8.484,3.7C8.196,3.7,8,3.886,7.947,4.154
						c-0.01,0.054-0.02,0.117-0.02,0.186v1.23H7.327V3.959z"/>
				</g>
				<g>
					<path fill="#FFFFFF" d="M9.355,4.55c0.015,0.43,0.352,0.615,0.732,0.615c0.278,0,0.479-0.039,0.659-0.107l0.088,0.415
						c-0.205,0.083-0.488,0.146-0.83,0.146c-0.771,0-1.226-0.474-1.226-1.201c0-0.659,0.4-1.279,1.162-1.279
						c0.771,0,1.025,0.635,1.025,1.157c0,0.112-0.01,0.2-0.02,0.254H9.355z M10.4,4.13c0.005-0.22-0.093-0.581-0.493-0.581
						c-0.371,0-0.527,0.337-0.552,0.581H10.4z"/>
				</g>
				<g>
					<path fill="#FFFFFF" d="M11.785,4.55c0.015,0.43,0.352,0.615,0.732,0.615c0.278,0,0.479-0.039,0.659-0.107l0.088,0.415
						c-0.205,0.083-0.488,0.146-0.83,0.146c-0.771,0-1.226-0.474-1.226-1.201c0-0.659,0.4-1.279,1.162-1.279
						c0.771,0,1.025,0.635,1.025,1.157c0,0.112-0.01,0.2-0.02,0.254H11.785z M12.83,4.13c0.005-0.22-0.093-0.581-0.493-0.581
						c-0.371,0-0.527,0.337-0.552,0.581H12.83z"/>
				</g>
				<g>
					<path fill="#FFFFFF" d="M13.565,5.224l0.894-1.143c0.122-0.146,0.225-0.264,0.352-0.4v-0.01h-1.157V3.192h1.89v0.366
						l-0.874,1.118c-0.117,0.142-0.229,0.278-0.352,0.405v0.01h1.255V5.57h-2.007V5.224z"/>
				</g>
				<g>
					<path fill="#FFFFFF" d="M16.278,4.55c0.015,0.43,0.352,0.615,0.732,0.615c0.278,0,0.479-0.039,0.659-0.107l0.088,0.415
						c-0.205,0.083-0.488,0.146-0.83,0.146c-0.771,0-1.226-0.474-1.226-1.201c0-0.659,0.4-1.279,1.162-1.279
						c0.771,0,1.025,0.635,1.025,1.157c0,0.112-0.01,0.2-0.02,0.254H16.278z M17.323,4.13c0.005-0.22-0.093-0.581-0.493-0.581
						c-0.371,0-0.527,0.337-0.552,0.581H17.323z"/>
				</g>
			</g>
			<g clip-path="url(#SVGID_2_)">
				<g>
					<path fill="#FFFFFF" d="M6.498,9.971c-0.142,0.073-0.454,0.146-0.85,0.146c-1.045,0-1.68-0.654-1.68-1.655
						c0-1.084,0.752-1.738,1.758-1.738c0.396,0,0.679,0.083,0.801,0.146L6.395,7.349C6.239,7.28,6.024,7.222,5.75,7.222
						c-0.669,0-1.152,0.42-1.152,1.211c0,0.723,0.425,1.187,1.147,1.187c0.244,0,0.498-0.049,0.654-0.122L6.498,9.971z"/>
				</g>
				<g>
					<path fill="#FFFFFF" d="M9.074,8.857c0,0.874-0.615,1.265-1.221,1.265c-0.674,0-1.191-0.464-1.191-1.226
						c0-0.781,0.513-1.26,1.23-1.26C8.601,7.637,9.074,8.135,9.074,8.857z M7.282,8.882c0,0.459,0.225,0.806,0.591,0.806
						c0.342,0,0.581-0.337,0.581-0.815c0-0.371-0.166-0.796-0.576-0.796C7.453,8.076,7.282,8.486,7.282,8.882z"/>
				</g>
				<g>
					<path fill="#FFFFFF" d="M9.473,8.398c0-0.273-0.005-0.503-0.02-0.708h0.527l0.029,0.356h0.015
						c0.103-0.186,0.361-0.41,0.757-0.41c0.415,0,0.845,0.269,0.845,1.021v1.411h-0.601V8.726c0-0.342-0.127-0.601-0.454-0.601
						c-0.239,0-0.405,0.171-0.469,0.352c-0.02,0.054-0.024,0.127-0.024,0.195v1.396H9.473V8.398z"/>
				</g>
				<g>
					<path fill="#FFFFFF" d="M12.841,7.012V7.69h0.571V8.14h-0.571v1.05c0,0.288,0.078,0.439,0.308,0.439
						c0.103,0,0.181-0.015,0.234-0.029l0.01,0.459c-0.088,0.034-0.244,0.059-0.435,0.059c-0.22,0-0.405-0.073-0.518-0.195
						c-0.127-0.137-0.186-0.352-0.186-0.664V8.14h-0.342V7.69h0.342V7.153L12.841,7.012z"/>
				</g>
				<g>
					<path fill="#FFFFFF" d="M13.771,8.457c0-0.322-0.005-0.552-0.02-0.767h0.522l0.02,0.454h0.02
						c0.117-0.337,0.396-0.508,0.649-0.508c0.059,0,0.093,0.005,0.142,0.015v0.566c-0.049-0.01-0.103-0.02-0.176-0.02
						c-0.288,0-0.483,0.186-0.537,0.454c-0.01,0.054-0.02,0.117-0.02,0.186v1.23h-0.601V8.457z"/>
				</g>
				<g>
					<path fill="#FFFFFF" d="M17.635,8.857c0,0.874-0.615,1.265-1.221,1.265c-0.674,0-1.191-0.464-1.191-1.226
						c0-0.781,0.513-1.26,1.23-1.26C17.161,7.637,17.635,8.135,17.635,8.857z M15.843,8.882c0,0.459,0.225,0.806,0.591,0.806
						c0.342,0,0.581-0.337,0.581-0.815c0-0.371-0.166-0.796-0.576-0.796C16.014,8.076,15.843,8.486,15.843,8.882z"/>
				</g>
				<g>
					<path fill="#FFFFFF" d="M18.034,6.602h0.605v3.467h-0.605V6.602z"/>
				</g>
			</g>
			<g clip-path="url(#SVGID_2_)">
				<rect x="-0.001" y="11.956" fill="#FFFFFF" width="22.678" height="0.889"/>
			</g>
			<g clip-path="url(#SVGID_2_)">
				<path fill="#FFFFFF" d="M6.998,17.688h-1c0-1.624,1.321-2.944,2.944-2.944h4.645c0.786,0,1.525,0.306,2.081,0.862l-0.707,0.708
					c-0.368-0.367-0.856-0.57-1.375-0.57H8.941C7.87,15.744,6.998,16.616,6.998,17.688z"/>
			</g>
			<g clip-path="url(#SVGID_2_)">
				<polygon fill="#FFFFFF" points="5.451,17.382 6.498,19.194 7.544,17.382 				"/>
			</g>
			<g clip-path="url(#SVGID_2_)">
				<path fill="#FFFFFF" d="M13.586,20.632H8.941c-0.786,0-1.525-0.306-2.081-0.862l0.707-0.708c0.368,0.367,0.856,0.57,1.375,0.57
					h4.645c1.072,0,1.944-0.872,1.944-1.944h1C16.53,19.311,15.21,20.632,13.586,20.632z"/>
			</g>
			<g clip-path="url(#SVGID_2_)">
				<polygon fill="#FFFFFF" points="17.077,17.994 16.03,16.182 14.983,17.994 				"/>
			</g>
			<g opacity="0.5" clip-path="url(#SVGID_2_)">
				<g>
					<defs>
						<rect id="SVGID_45_" x="-5.923" y="12.083" width="11.847" height="10.595"/>
					</defs>
					<clipPath id="SVGID_4_">
						<use xlink:href="#SVGID_45_"  overflow="visible"/>
					</clipPath>
					<g clip-path="url(#SVGID_4_)">
						<path fill="#FFFFFF" d="M0.402,21.523l1.183,0.685l0.402-0.695l-1.585-0.915v-0.621l0.3-0.521l0.73,1.266l0.447,0.258
							l-0.005-0.514l-0.73-1.264h0.6l0.539,0.311v1.829h0.802v-1.366l0.551,0.318v1.048h0.802v-0.585l1.086,0.627l0.4-0.695
							l-1.085-0.628l0.507-0.292l-0.4-0.694l-0.909,0.524L3.486,19.28l1.184-0.685l-0.401-0.694l-1.585,0.915L2.134,18.5
							l-0.297-0.516h1.472l0.444-0.253l-0.444-0.257H1.848l0.298-0.52l0.538-0.31l1.585,0.915l0.401-0.695l-1.184-0.683l0.551-0.318
							l0.909,0.525l0.4-0.695l-0.507-0.293l1.085-0.627l-0.4-0.696l-1.086,0.627v-0.586H3.636v1.05l-0.551,0.318v-1.368H2.283v1.831
							l-0.54,0.312h-0.6l0.732-1.271l0.004-0.512l-0.447,0.256L0.698,16.01l-0.296-0.513v-0.633l1.585-0.916l-0.402-0.693
							l-1.183,0.684v-0.636l0.908-0.525l-0.4-0.693l-0.508,0.292v-0.163h-0.803v0.163l-0.507-0.292l-0.401,0.693l0.908,0.525v0.636
							l-1.183-0.684l-0.401,0.693l1.584,0.916v0.633l-0.296,0.515l-0.737-1.277l-0.442-0.257v0.513l0.733,1.271h-0.598L-2.28,15.95
							v-1.831h-0.804v1.368l-0.55-0.318v-1.05h-0.803v0.586l-1.085-0.627l-0.401,0.696l1.085,0.627l-0.507,0.293l0.401,0.695
							l0.909-0.525l0.55,0.318l-1.183,0.683l0.401,0.695l1.585-0.915l0.538,0.31l0.298,0.52h-1.462l-0.446,0.257l0.446,0.253h1.472
							L-2.132,18.5l-0.55,0.316l-1.585-0.915l-0.401,0.694l1.183,0.685l-0.55,0.318l-0.909-0.524l-0.401,0.694l0.507,0.292
							l-1.085,0.628l0.401,0.695l1.085-0.627v0.585h0.803v-1.048l0.55-0.318v1.366h0.804v-1.829l0.537-0.311h0.598l-0.73,1.264
							l-0.001,0.516l0.444-0.26l0.731-1.267l0.3,0.521v0.621l-1.584,0.915l0.401,0.695l1.183-0.685v0.636l-0.897,0.519h2.597
							l-0.897-0.519V21.523z M0.847,16.772h0.814l-0.402,0.702H0.443L0.847,16.772z M1.251,17.984l0.402,0.705H0.849l-0.406-0.705
							H1.251z M0.001,15.818l0.405,0.697L0,17.219l-0.405-0.701L0.001,15.818z M-0.85,18.689h-0.802l0.403-0.705h0.806L-0.85,18.689
							z M-1.257,17.475l-0.403-0.702h0.813l0.404,0.702H-1.257z M-0.409,18.947L0,18.24l0.409,0.709l-0.408,0.712L-0.409,18.947z"/>
					</g>
				</g>
			</g>
			<g opacity="0.5" clip-path="url(#SVGID_2_)">
				<g>
					<defs>
						<rect id="SVGID_47_" x="16.753" y="12.083" width="11.847" height="10.595"/>
					</defs>
					<clipPath id="SVGID_6_">
						<use xlink:href="#SVGID_47_"  overflow="visible"/>
					</clipPath>
					<g clip-path="url(#SVGID_6_)">
						<path fill="#FFFFFF" d="M23.078,21.523l1.184,0.685l0.401-0.695l-1.585-0.915v-0.621l0.3-0.521l0.73,1.266l0.447,0.258
							l-0.005-0.514l-0.73-1.264h0.6l0.539,0.311v1.829h0.802v-1.366l0.551,0.318v1.048h0.802v-0.585l1.086,0.627l0.4-0.695
							l-1.085-0.628l0.507-0.292l-0.4-0.694l-0.909,0.524l-0.551-0.318l1.184-0.685l-0.401-0.694l-1.585,0.915L24.81,18.5
							l-0.297-0.516h1.472l0.444-0.253l-0.444-0.257h-1.461l0.298-0.52l0.538-0.31l1.585,0.915l0.401-0.695l-1.184-0.683
							l0.551-0.318l0.909,0.525l0.4-0.695l-0.507-0.293l1.085-0.627l-0.4-0.696l-1.086,0.627v-0.586h-0.802v1.05l-0.551,0.318
							v-1.368h-0.802v1.831l-0.54,0.312h-0.6l0.732-1.271l0.004-0.512l-0.447,0.256l-0.734,1.275l-0.296-0.513v-0.633l1.585-0.916
							l-0.401-0.693l-1.184,0.684v-0.636l0.908-0.525l-0.4-0.693l-0.508,0.292v-0.163h-0.802v0.163l-0.508-0.292l-0.401,0.693
							l0.909,0.525v0.636l-1.184-0.684l-0.401,0.693l1.585,0.916v0.633l-0.297,0.515l-0.737-1.277L20.8,14.478v0.513l0.733,1.271
							h-0.598l-0.539-0.312v-1.831h-0.804v1.368l-0.55-0.318v-1.05h-0.803v0.586l-1.084-0.627l-0.402,0.696l1.085,0.627
							l-0.507,0.293l0.401,0.695l0.909-0.525l0.55,0.318l-1.183,0.683l0.401,0.695l1.585-0.915l0.538,0.31l0.298,0.52h-1.462
							l-0.446,0.257l0.446,0.253h1.472L20.544,18.5l-0.55,0.316l-1.585-0.915l-0.401,0.694l1.183,0.685l-0.55,0.318l-0.909-0.524
							l-0.401,0.694l0.507,0.292l-1.085,0.628l0.402,0.695l1.084-0.627v0.585h0.803v-1.048l0.55-0.318v1.366h0.804v-1.829
							l0.537-0.311h0.598l-0.73,1.264L20.8,20.981l0.444-0.26l0.731-1.267l0.301,0.521v0.621l-1.585,0.915l0.401,0.695l1.184-0.685
							v0.636l-0.898,0.519h2.597l-0.897-0.519V21.523z M23.523,16.772h0.814l-0.402,0.702h-0.816L23.523,16.772z M23.927,17.984
							l0.402,0.705h-0.803l-0.407-0.705H23.927z M22.677,15.818l0.405,0.697l-0.406,0.703l-0.405-0.701L22.677,15.818z
							 M21.827,18.689h-0.803l0.403-0.705h0.806L21.827,18.689z M21.419,17.475l-0.403-0.702h0.813l0.404,0.702H21.419z
							 M22.267,18.947l0.409-0.707l0.409,0.709l-0.408,0.712L22.267,18.947z"/>
					</g>
				</g>
			</g>
		</g>
	</g>
</g>
</svg>
