<?xml version="1.0" encoding="utf-8"?>
<!-- Generator: Adobe Illustrator 16.0.3, SVG Export Plug-In . SVG Version: 6.00 Build 0)  -->
<!DOCTYPE svg PUBLIC "-//W3C//DTD SVG 1.1//EN" "http://www.w3.org/Graphics/SVG/1.1/DTD/svg11.dtd">
<svg version="1.1" xmlns="http://www.w3.org/2000/svg" xmlns:xlink="http://www.w3.org/1999/xlink" x="0px" y="0px" width="22.68px"
	 height="22.68px" viewBox="0 0 22.68 22.68" enable-background="new 0 0 22.68 22.68" xml:space="preserve">
<g id="BCGRND" display="none">
</g>
<g id="IKONY">
	<g>
		<defs>
			<rect id="SVGID_55_" width="22.678" height="22.678"/>
		</defs>
		<clipPath id="SVGID_2_">
			<use xlink:href="#SVGID_55_"  overflow="visible"/>
		</clipPath>
		<polygon clip-path="url(#SVGID_2_)" fill="#585857" points="0,0 0,22.678 14.117,22.678 22.678,22.678 22.678,0 		"/>
		<rect y="11.957" clip-path="url(#SVGID_2_)" fill="#FFFFFF" width="22.678" height="0.888"/>
		<polygon clip-path="url(#SVGID_2_)" fill="#FFFFFF" points="5.697,1.994 7.596,1.994 7.596,2.487 6.298,2.487 6.298,3.396 
			7.509,3.396 7.509,3.89 6.298,3.89 6.298,5.285 5.697,5.285 		"/>
		<g clip-path="url(#SVGID_2_)">
			<defs>
				<rect id="SVGID_57_" width="22.678" height="22.678"/>
			</defs>
			<clipPath id="SVGID_4_">
				<use xlink:href="#SVGID_57_"  overflow="visible"/>
			</clipPath>
			<path clip-path="url(#SVGID_4_)" fill="#FFFFFF" d="M8.192,3.674c0-0.321-0.005-0.552-0.02-0.767h0.523l0.019,0.455h0.02
				c0.117-0.337,0.395-0.508,0.649-0.508c0.059,0,0.093,0.005,0.142,0.014v0.567C9.477,3.425,9.422,3.415,9.35,3.415
				c-0.288,0-0.483,0.187-0.537,0.454c-0.01,0.054-0.019,0.117-0.019,0.187v1.229H8.192V3.674z"/>
			<path clip-path="url(#SVGID_4_)" fill="#FFFFFF" d="M10.498,4.265c0.015,0.431,0.352,0.615,0.733,0.615
				c0.278,0,0.478-0.039,0.659-0.106l0.088,0.415c-0.206,0.083-0.489,0.146-0.831,0.146c-0.771,0-1.225-0.473-1.225-1.201
				c0-0.658,0.4-1.278,1.162-1.278c0.771,0,1.025,0.635,1.025,1.156c0,0.112-0.009,0.2-0.019,0.254H10.498z M11.543,3.845
				c0.005-0.22-0.093-0.581-0.493-0.581c-0.371,0-0.528,0.338-0.552,0.581H11.543z"/>
			<path clip-path="url(#SVGID_4_)" fill="#FFFFFF" d="M12.716,4.733c0.137,0.083,0.396,0.172,0.61,0.172
				c0.264,0,0.381-0.108,0.381-0.265c0-0.161-0.097-0.244-0.39-0.346c-0.464-0.162-0.66-0.415-0.655-0.694
				c0-0.42,0.347-0.747,0.899-0.747c0.263,0,0.493,0.068,0.63,0.143l-0.118,0.425c-0.102-0.059-0.293-0.137-0.503-0.137
				c-0.214,0-0.332,0.102-0.332,0.249c0,0.15,0.113,0.224,0.415,0.332c0.43,0.155,0.63,0.376,0.635,0.727
				c0,0.43-0.337,0.743-0.967,0.743c-0.288,0-0.546-0.069-0.722-0.166L12.716,4.733z"/>
			<path clip-path="url(#SVGID_4_)" fill="#FFFFFF" d="M14.924,1.818h0.605v1.416h0.01c0.073-0.111,0.171-0.204,0.298-0.272
				c0.117-0.069,0.259-0.108,0.41-0.108c0.406,0,0.83,0.27,0.83,1.03v1.402h-0.6V3.953c0-0.348-0.127-0.606-0.459-0.606
				c-0.235,0-0.401,0.157-0.464,0.337c-0.02,0.049-0.025,0.113-0.025,0.182v1.421h-0.605V1.818z"/>
			<path clip-path="url(#SVGID_4_)" fill="#FFFFFF" d="M7.523,9.688c-0.142,0.073-0.454,0.146-0.85,0.146
				c-1.045,0-1.679-0.654-1.679-1.655c0-1.084,0.752-1.737,1.758-1.737c0.395,0,0.678,0.083,0.8,0.146L7.42,7.066
				C7.265,6.998,7.049,6.938,6.776,6.938c-0.669,0-1.152,0.421-1.152,1.212c0,0.723,0.424,1.186,1.147,1.186
				c0.244,0,0.498-0.048,0.654-0.122L7.523,9.688z"/>
			<path clip-path="url(#SVGID_4_)" fill="#FFFFFF" d="M9.494,9.785L9.455,9.521H9.44C9.294,9.708,9.045,9.84,8.737,9.84
				c-0.478,0-0.747-0.348-0.747-0.708c0-0.602,0.532-0.904,1.411-0.899V8.193c0-0.156-0.063-0.415-0.483-0.415
				c-0.234,0-0.479,0.074-0.64,0.176L8.161,7.563c0.176-0.107,0.484-0.21,0.859-0.21c0.762,0,0.982,0.484,0.982,1.001v0.86
				c0,0.215,0.01,0.425,0.034,0.57H9.494z M9.416,8.623c-0.425-0.01-0.83,0.083-0.83,0.444c0,0.235,0.151,0.342,0.342,0.342
				c0.239,0,0.415-0.155,0.468-0.326c0.015-0.045,0.02-0.094,0.02-0.133V8.623z"/>
			<path clip-path="url(#SVGID_4_)" fill="#FFFFFF" d="M10.773,8.174c0-0.321-0.005-0.552-0.02-0.767h0.523l0.019,0.455h0.02
				c0.117-0.337,0.395-0.508,0.649-0.508c0.059,0,0.093,0.005,0.142,0.014v0.567c-0.049-0.011-0.103-0.021-0.176-0.021
				c-0.288,0-0.483,0.187-0.537,0.454c-0.01,0.054-0.019,0.117-0.019,0.187v1.229h-0.601V8.174z"/>
			<path clip-path="url(#SVGID_4_)" fill="#FFFFFF" d="M13.08,8.765c0.015,0.431,0.352,0.615,0.733,0.615
				c0.278,0,0.478-0.039,0.659-0.106l0.088,0.415c-0.206,0.083-0.489,0.146-0.831,0.146c-0.771,0-1.225-0.473-1.225-1.201
				c0-0.658,0.4-1.278,1.162-1.278c0.771,0,1.025,0.635,1.025,1.156c0,0.112-0.009,0.2-0.019,0.254H13.08z M14.125,8.345
				c0.005-0.22-0.093-0.581-0.493-0.581c-0.371,0-0.528,0.338-0.552,0.581H14.125z"/>
			<polygon clip-path="url(#SVGID_4_)" fill="#FFFFFF" points="16.671,7.188 16.671,8.292 17.731,8.292 17.731,8.672 16.671,8.672 
				16.671,9.786 16.271,9.786 16.271,8.672 15.211,8.672 15.211,8.292 16.271,8.292 16.271,7.188 			"/>
			<g opacity="0.5" clip-path="url(#SVGID_4_)">
				<g>
					<defs>
						<rect id="SVGID_59_" x="2.968" y="12.4" width="4.527" height="7.293"/>
					</defs>
					<clipPath id="SVGID_6_">
						<use xlink:href="#SVGID_59_"  overflow="visible"/>
					</clipPath>
					<path clip-path="url(#SVGID_6_)" fill="#FFFFFF" d="M4.776,17.449h0.783l-1.297,2.244l-1.295-2.244h0.809
						c0.07-1.967,0.895-3.739,2.188-5.049h1.531C5.917,13.547,4.862,15.373,4.776,17.449"/>
				</g>
			</g>
			<g opacity="0.5" clip-path="url(#SVGID_4_)">
				<g>
					<defs>
						<rect id="SVGID_61_" x="15.183" y="12.4" width="2.784" height="2.282"/>
					</defs>
					<clipPath id="SVGID_8_">
						<use xlink:href="#SVGID_61_"  overflow="visible"/>
					</clipPath>
					<path clip-path="url(#SVGID_8_)" fill="#FFFFFF" d="M17.717,14.615c-0.237,0.138-0.545,0.057-0.683-0.183
						c-0.471-0.814-1.11-1.497-1.851-2.032h1.542c0.449,0.454,0.847,0.966,1.175,1.531C18.038,14.171,17.956,14.477,17.717,14.615"
						/>
				</g>
			</g>
			<g opacity="0.5" clip-path="url(#SVGID_4_)">
				<g>
					<defs>
						<rect id="SVGID_63_" x="15.642" y="15.75" width="4.068" height="6.928"/>
					</defs>
					<clipPath id="SVGID_10_">
						<use xlink:href="#SVGID_63_"  overflow="visible"/>
					</clipPath>
					<path clip-path="url(#SVGID_10_)" fill="#FFFFFF" d="M17.901,17.995h-0.783l1.297-2.245l1.295,2.245h-0.809
						c-0.064,1.786-0.75,3.418-1.845,4.683h-1.415C16.962,21.526,17.824,19.862,17.901,17.995"/>
				</g>
			</g>
			<g opacity="0.5" clip-path="url(#SVGID_4_)">
				<g>
					<defs>
						<rect id="SVGID_65_" x="4.688" y="20.723" width="2.352" height="1.955"/>
					</defs>
					<clipPath id="SVGID_12_">
						<use xlink:href="#SVGID_65_"  overflow="visible"/>
					</clipPath>
					<path clip-path="url(#SVGID_12_)" fill="#FFFFFF" d="M4.754,21.47c-0.137-0.24-0.053-0.545,0.187-0.682
						c0.239-0.137,0.545-0.054,0.682,0.187c0.374,0.656,0.861,1.222,1.417,1.703H5.631C5.307,22.304,5.004,21.909,4.754,21.47"/>
				</g>
			</g>
			<g opacity="0.5" clip-path="url(#SVGID_4_)">
				<g>
					<defs>
						<rect id="SVGID_67_" x="1.374" y="12.4" width="2.767" height="10.277"/>
					</defs>
					<clipPath id="SVGID_14_">
						<use xlink:href="#SVGID_67_"  overflow="visible"/>
					</clipPath>
					<path clip-path="url(#SVGID_14_)" fill="#FFFFFF" d="M2.928,12.4h1.213c-1.105,1.491-1.767,3.328-1.767,5.321
						c0,1.832,0.555,3.536,1.501,4.956H2.858c-0.055,0-0.106-0.014-0.16-0.017c-0.836-1.458-1.324-3.141-1.324-4.939
						C1.374,15.765,1.949,13.942,2.928,12.4"/>
				</g>
			</g>
			<g opacity="0.5" clip-path="url(#SVGID_4_)">
				<g>
					<defs>
						<rect id="SVGID_69_" x="18.537" y="12.4" width="2.767" height="10.277"/>
					</defs>
					<clipPath id="SVGID_16_">
						<use xlink:href="#SVGID_69_"  overflow="visible"/>
					</clipPath>
					<path clip-path="url(#SVGID_16_)" fill="#FFFFFF" d="M18.537,12.4h1.213c0.978,1.542,1.554,3.364,1.554,5.321
						c0,1.799-0.488,3.481-1.325,4.939c-0.053,0.003-0.104,0.017-0.159,0.017h-1.017c0.946-1.42,1.501-3.124,1.501-4.956
						C20.304,15.729,19.641,13.892,18.537,12.4"/>
				</g>
			</g>
			<path clip-path="url(#SVGID_4_)" fill="#FFFFFF" d="M13.755,21.377v-4.236l0.945,0.945l1.165-1.165l-1.874-1.874
				c-0.233-0.233-0.55-0.364-0.879-0.364h-0.559c0,0.67-0.544,1.214-1.214,1.214c-0.671,0-1.214-0.544-1.214-1.214h-0.56
				c-0.329,0-0.645,0.131-0.878,0.364l-1.875,1.874l1.165,1.165l0.945-0.945v4.236H13.755z"/>
		</g>
	</g>
</g>
</svg>
