<?xml version="1.0" encoding="utf-8"?>
<!-- Generator: Adobe Illustrator 16.0.3, SVG Export Plug-In . SVG Version: 6.00 Build 0)  -->
<!DOCTYPE svg PUBLIC "-//W3C//DTD SVG 1.1//EN" "http://www.w3.org/Graphics/SVG/1.1/DTD/svg11.dtd">
<svg version="1.1" xmlns="http://www.w3.org/2000/svg" xmlns:xlink="http://www.w3.org/1999/xlink" x="0px" y="0px" width="22.68px"
	 height="22.68px" viewBox="0 0 22.68 22.68" enable-background="new 0 0 22.68 22.68" xml:space="preserve">
<g id="BCGRND">
</g>
<g id="BAREVNE_POZADI_IKON">
	<rect x="0.003" fill="#585857" width="22.677" height="22.678"/>
</g>
<g id="IKONY">
	<g>
		<g>
			<g>
				<g>
					<rect x="0" y="7.769" fill="#FFFFFF" width="22.678" height="0.889"/>
				</g>
				<g>
					<path fill="#FFFFFF" d="M0.663,2.278h1.898v0.493H1.263V3.68h1.211v0.493H1.263v1.396h-0.6V2.278z"/>
					<path fill="#FFFFFF" d="M2.823,3.958c0-0.322-0.004-0.552-0.02-0.767h0.523l0.02,0.454h0.02
						c0.117-0.337,0.395-0.508,0.648-0.508c0.059,0,0.094,0.005,0.143,0.015v0.566c-0.049-0.01-0.104-0.02-0.176-0.02
						c-0.289,0-0.484,0.186-0.537,0.454c-0.01,0.054-0.02,0.117-0.02,0.186v1.23H2.823V3.958z"/>
					<path fill="#FFFFFF" d="M4.749,4.549c0.016,0.43,0.352,0.615,0.732,0.615c0.279,0,0.479-0.039,0.66-0.107L6.23,5.472
						C6.025,5.555,5.741,5.618,5.4,5.618c-0.771,0-1.227-0.474-1.227-1.201c0-0.659,0.4-1.279,1.162-1.279
						c0.771,0,1.025,0.635,1.025,1.157c0,0.112-0.01,0.2-0.02,0.254H4.749z M5.794,4.129C5.8,3.909,5.702,3.548,5.302,3.548
						c-0.371,0-0.527,0.337-0.553,0.581H5.794z"/>
					<path fill="#FFFFFF" d="M6.622,5.018c0.137,0.083,0.396,0.171,0.61,0.171c0.264,0,0.381-0.107,0.381-0.264
						c0-0.161-0.098-0.244-0.391-0.347C6.759,4.417,6.564,4.163,6.569,3.885c0-0.42,0.347-0.747,0.898-0.747
						c0.264,0,0.493,0.068,0.63,0.142L7.98,3.704C7.877,3.646,7.687,3.567,7.477,3.567c-0.215,0-0.332,0.103-0.332,0.249
						c0,0.151,0.112,0.225,0.415,0.332c0.43,0.156,0.63,0.376,0.635,0.728c0,0.43-0.337,0.742-0.967,0.742
						c-0.288,0-0.547-0.068-0.723-0.166L6.622,5.018z"/>
					<path fill="#FFFFFF" d="M8.495,2.103h0.605v1.416h0.01c0.072-0.112,0.17-0.205,0.297-0.273c0.117-0.068,0.26-0.107,0.41-0.107
						c0.406,0,0.83,0.269,0.83,1.03v1.401h-0.6V4.236c0-0.347-0.127-0.605-0.459-0.605c-0.234,0-0.4,0.156-0.465,0.337
						C9.105,4.017,9.101,4.08,9.101,4.148v1.421H8.495V2.103z"/>
					<path fill="#FFFFFF" d="M11.106,4.915c0.195,0.112,0.488,0.21,0.796,0.21c0.386,0,0.601-0.181,0.601-0.449
						c0-0.249-0.166-0.396-0.586-0.547c-0.542-0.195-0.889-0.483-0.889-0.957c0-0.537,0.449-0.947,1.162-0.947
						c0.356,0,0.62,0.078,0.791,0.166l-0.146,0.483c-0.117-0.063-0.347-0.156-0.654-0.156c-0.381,0-0.547,0.205-0.547,0.396
						c0,0.254,0.19,0.371,0.63,0.542c0.571,0.215,0.85,0.503,0.85,0.977c0,0.527-0.4,0.986-1.25,0.986
						c-0.347,0-0.708-0.098-0.889-0.205L11.106,4.915z"/>
					<path fill="#FFFFFF" d="M13.892,4.549c0.015,0.43,0.352,0.615,0.732,0.615c0.278,0,0.479-0.039,0.659-0.107l0.088,0.415
						c-0.205,0.083-0.488,0.146-0.83,0.146c-0.771,0-1.226-0.474-1.226-1.201c0-0.659,0.4-1.279,1.162-1.279
						c0.771,0,1.025,0.635,1.025,1.157c0,0.112-0.01,0.2-0.02,0.254H13.892z M14.937,4.129c0.005-0.22-0.093-0.581-0.493-0.581
						c-0.371,0-0.527,0.337-0.552,0.581H14.937z"/>
					<path fill="#FFFFFF" d="M15.794,3.899c0-0.273-0.005-0.503-0.02-0.708h0.527l0.029,0.356h0.015
						c0.103-0.186,0.361-0.41,0.757-0.41c0.415,0,0.845,0.269,0.845,1.021v1.411h-0.601V4.227c0-0.342-0.127-0.601-0.454-0.601
						c-0.239,0-0.405,0.171-0.469,0.352C16.405,4.031,16.4,4.104,16.4,4.173v1.396h-0.605V3.899z"/>
					<path fill="#FFFFFF" d="M18.365,5.018c0.137,0.083,0.396,0.171,0.61,0.171c0.264,0,0.381-0.107,0.381-0.264
						c0-0.161-0.098-0.244-0.391-0.347c-0.464-0.161-0.659-0.415-0.654-0.693c0-0.42,0.347-0.747,0.898-0.747
						c0.264,0,0.493,0.068,0.63,0.142l-0.117,0.425C19.62,3.646,19.43,3.567,19.22,3.567c-0.215,0-0.332,0.103-0.332,0.249
						c0,0.151,0.112,0.225,0.415,0.332c0.43,0.156,0.63,0.376,0.635,0.728c0,0.43-0.337,0.742-0.967,0.742
						c-0.288,0-0.547-0.068-0.723-0.166L18.365,5.018z"/>
					<path fill="#FFFFFF" d="M20.663,4.549c0.014,0.43,0.352,0.615,0.732,0.615c0.277,0,0.479-0.039,0.658-0.107l0.088,0.415
						c-0.205,0.083-0.488,0.146-0.83,0.146c-0.771,0-1.225-0.474-1.225-1.201c0-0.659,0.4-1.279,1.162-1.279
						c0.771,0,1.025,0.635,1.025,1.157c0,0.112-0.01,0.2-0.02,0.254H20.663z M21.708,4.129c0.004-0.22-0.094-0.581-0.494-0.581
						c-0.371,0-0.527,0.337-0.551,0.581H21.708z"/>
				</g>
			</g>
		</g>
		<g>
			<g>
				<g opacity="0.25">
					<circle fill="#FFFFFF" cx="11.521" cy="12.744" r="4.118"/>
				</g>
				<g>
					<path fill="#FFFFFF" d="M11.521,17.361c-1.233,0-2.394-0.48-3.266-1.352c-1.8-1.801-1.8-4.731,0-6.531
						c0.872-0.873,2.032-1.354,3.266-1.354c1.234,0,2.394,0.48,3.266,1.354c1.8,1.8,1.8,4.73,0,6.531
						C13.914,16.881,12.755,17.361,11.521,17.361z M11.521,9.125c-0.967,0-1.875,0.377-2.559,1.061c-1.41,1.41-1.41,3.705,0,5.117
						c1.367,1.365,3.752,1.365,5.117,0c1.41-1.412,1.41-3.707,0-5.117C13.396,9.502,12.488,9.125,11.521,9.125z"/>
				</g>
			</g>
		</g>
		<g>
			<g>
				<path fill="#FFFFFF" d="M9.101,10.999c0-0.321,0.233-0.571,0.642-0.571c0.393,0,0.627,0.238,0.627,0.566
					c0,0.32-0.258,0.553-0.632,0.553C9.354,11.547,9.101,11.308,9.101,10.999z M10.018,10.986c0-0.163-0.105-0.303-0.284-0.303
					c-0.176,0-0.275,0.151-0.275,0.311c0,0.145,0.106,0.296,0.275,0.296C9.912,11.29,10.018,11.148,10.018,10.986z"/>
			</g>
			<g>
				<path fill="#FFFFFF" d="M13.287,14.574c-0.169,0.082-0.542,0.175-1.019,0.175c-1.25,0-2.009-0.78-2.009-1.983
					c0-1.297,0.904-2.076,2.106-2.076c0.472,0,0.805,0.1,0.949,0.176l-0.15,0.572c-0.187-0.082-0.448-0.153-0.771-0.153
					c-0.8,0-1.376,0.503-1.376,1.447c0,0.869,0.5,1.418,1.371,1.418c0.285,0,0.589-0.059,0.781-0.142L13.287,14.574z"/>
			</g>
		</g>
		<g>
			<path fill="#FFFFFF" fill-opacity="0.5" d="M8.457,19.965c-1.705-0.643-3.124-1.959-3.896-3.611
				c-0.117-0.251-0.417-0.357-0.664-0.242c-0.251,0.117-0.359,0.414-0.242,0.664c0.881,1.888,2.502,3.392,4.448,4.125
				c0.059,0.022,0.118,0.033,0.177,0.033c0.202,0,0.393-0.124,0.468-0.324C8.846,20.352,8.715,20.063,8.457,19.965z M8.924,18.186
				c-1.121-0.534-2.036-1.385-2.646-2.46c-0.096-0.168-0.311-0.228-0.478-0.132c-0.168,0.096-0.227,0.309-0.132,0.478
				c0.681,1.2,1.702,2.149,2.954,2.746c0.049,0.023,0.1,0.034,0.15,0.034c0.131,0,0.256-0.074,0.316-0.199
				C9.173,18.478,9.099,18.269,8.924,18.186z M14.038,18.986c0.687-0.275,1.251-0.596,1.726-0.979
				c0.518-0.418,0.974-0.938,1.395-1.586c0.104-0.162,0.059-0.379-0.104-0.483c-0.161-0.105-0.378-0.06-0.484,0.103
				c-0.38,0.586-0.787,1.051-1.246,1.422c-0.42,0.34-0.926,0.625-1.546,0.874c-0.18,0.071-0.267,0.276-0.195,0.455
				c0.056,0.137,0.187,0.22,0.325,0.22C13.952,19.012,13.996,19.004,14.038,18.986z M18.928,16.572
				c-0.242-0.131-0.547-0.043-0.678,0.201c-0.442,0.816-1.038,1.531-1.771,2.121c-0.697,0.563-1.486,0.982-2.344,1.246
				c-0.265,0.082-0.412,0.361-0.331,0.625c0.065,0.215,0.264,0.354,0.478,0.354c0.049,0,0.098-0.007,0.146-0.021
				c0.981-0.302,1.883-0.781,2.679-1.425c0.836-0.674,1.517-1.489,2.022-2.423C19.261,17.006,19.17,16.703,18.928,16.572z
				 M17.444,11.609c0.032,0.168,0.179,0.284,0.344,0.284c0.021,0,0.043-0.002,0.065-0.007c0.189-0.035,0.314-0.219,0.278-0.408
				c-0.234-1.229-0.814-2.344-1.658-3.266h-0.832c0.008,0.078,0.031,0.156,0.092,0.215C16.621,9.296,17.213,10.396,17.444,11.609z
				 M19.161,8.213h-1.192c0.708,0.984,1.169,2.144,1.301,3.355c0.028,0.256,0.244,0.446,0.496,0.446
				c0.019,0,0.037-0.001,0.055-0.003c0.275-0.029,0.474-0.277,0.443-0.551C20.139,10.31,19.75,9.201,19.161,8.213z M5.188,11.877
				c0.021,0.004,0.044,0.006,0.065,0.006c0.165,0,0.312-0.117,0.344-0.284c0.132-0.689,0.335-1.274,0.62-1.79
				c0.262-0.473,0.622-0.928,1.102-1.393c0.058-0.055,0.077-0.129,0.088-0.203H6.559C6.172,8.626,5.843,9.039,5.604,9.471
				c-0.321,0.58-0.548,1.232-0.694,1.996C4.873,11.656,4.997,11.84,5.188,11.877z M4.605,8.92c0.14-0.252,0.316-0.476,0.483-0.707
				H3.867C3.823,8.289,3.773,8.359,3.73,8.437c-0.521,0.942-0.843,1.954-0.957,3.009c-0.03,0.273,0.168,0.521,0.443,0.551
				c0.018,0.002,0.036,0.003,0.055,0.003c0.252,0,0.468-0.19,0.496-0.446C3.867,10.631,4.149,9.746,4.605,8.92z"/>
		</g>
	</g>
</g>
</svg>
