<?xml version="1.0" encoding="utf-8"?>
<!-- Generator: Adobe Illustrator 16.0.3, SVG Export Plug-In . SVG Version: 6.00 Build 0)  -->
<!DOCTYPE svg PUBLIC "-//W3C//DTD SVG 1.1//EN" "http://www.w3.org/Graphics/SVG/1.1/DTD/svg11.dtd">
<svg version="1.1" xmlns="http://www.w3.org/2000/svg" xmlns:xlink="http://www.w3.org/1999/xlink" x="0px" y="0px" width="22.68px"
	 height="22.68px" viewBox="0 0 22.68 22.68" enable-background="new 0 0 22.68 22.68" xml:space="preserve">
<g id="BCGRND" display="none">
</g>
<g id="IKONY">
	<g>
		<g>
			<polygon fill="#585857" points="0.001,0 0.001,22.678 14.119,22.678 22.678,22.678 22.678,16.335 22.678,0 			"/>
		</g>
		<g>
			<defs>
				<polygon id="SVGID_17_" points="0.001,0 0.001,22.678 14.119,22.678 22.678,22.678 22.678,16.335 22.678,0 				"/>
			</defs>
			<clipPath id="SVGID_2_">
				<use xlink:href="#SVGID_17_"  overflow="visible"/>
			</clipPath>
			<g clip-path="url(#SVGID_2_)">
				<g>
					<path fill="#FFFFFF" d="M6.203,2.279h1.899v0.493H6.804v0.908h1.211v0.493H6.804V5.57H6.203V2.279z"/>
				</g>
				<g>
					<path fill="#FFFFFF" d="M8.467,3.959c0-0.322-0.005-0.552-0.02-0.767H8.97l0.02,0.454h0.02C9.126,3.31,9.404,3.139,9.658,3.139
						c0.059,0,0.093,0.005,0.142,0.015V3.72C9.751,3.71,9.697,3.7,9.624,3.7c-0.288,0-0.483,0.186-0.537,0.454
						c-0.01,0.054-0.02,0.117-0.02,0.186v1.23H8.467V3.959z"/>
				</g>
				<g>
					<path fill="#FFFFFF" d="M10.495,4.55c0.015,0.43,0.352,0.615,0.732,0.615c0.278,0,0.479-0.039,0.659-0.107l0.088,0.415
						c-0.205,0.083-0.488,0.146-0.83,0.146c-0.771,0-1.226-0.474-1.226-1.201c0-0.659,0.4-1.279,1.162-1.279
						c0.771,0,1.025,0.635,1.025,1.157c0,0.112-0.01,0.2-0.02,0.254H10.495z M11.54,4.13c0.005-0.22-0.093-0.581-0.493-0.581
						c-0.371,0-0.527,0.337-0.552,0.581H11.54z"/>
				</g>
				<g>
					<path fill="#FFFFFF" d="M12.471,5.019c0.137,0.083,0.396,0.171,0.61,0.171c0.264,0,0.381-0.107,0.381-0.264
						c0-0.161-0.098-0.244-0.391-0.347c-0.464-0.161-0.659-0.415-0.654-0.693c0-0.42,0.347-0.747,0.898-0.747
						c0.264,0,0.493,0.068,0.63,0.142l-0.117,0.425c-0.103-0.059-0.293-0.137-0.503-0.137c-0.215,0-0.332,0.103-0.332,0.249
						c0,0.151,0.112,0.225,0.415,0.332c0.43,0.156,0.63,0.376,0.635,0.728c0,0.43-0.337,0.742-0.967,0.742
						c-0.288,0-0.547-0.068-0.723-0.166L12.471,5.019z"/>
				</g>
				<g>
					<path fill="#FFFFFF" d="M14.446,2.104h0.605V3.52h0.01c0.073-0.112,0.171-0.205,0.298-0.273
						c0.117-0.068,0.259-0.107,0.41-0.107c0.405,0,0.83,0.269,0.83,1.03V5.57h-0.601V4.237c0-0.347-0.127-0.605-0.459-0.605
						c-0.234,0-0.4,0.156-0.464,0.337c-0.02,0.049-0.024,0.112-0.024,0.181V5.57h-0.605V2.104z"/>
				</g>
			</g>
			<g clip-path="url(#SVGID_2_)">
				<g>
					<path fill="#FFFFFF" d="M6.499,9.971c-0.142,0.073-0.454,0.146-0.85,0.146c-1.045,0-1.68-0.654-1.68-1.655
						c0-1.084,0.752-1.738,1.758-1.738c0.396,0,0.679,0.083,0.801,0.146L6.396,7.349C6.24,7.28,6.025,7.222,5.751,7.222
						c-0.669,0-1.152,0.42-1.152,1.211c0,0.723,0.425,1.187,1.147,1.187c0.244,0,0.498-0.049,0.654-0.122L6.499,9.971z"/>
				</g>
				<g>
					<path fill="#FFFFFF" d="M9.08,8.857c0,0.874-0.615,1.265-1.221,1.265c-0.674,0-1.191-0.464-1.191-1.226
						c0-0.781,0.513-1.26,1.23-1.26C8.606,7.637,9.08,8.135,9.08,8.857z M7.288,8.882c0,0.459,0.225,0.806,0.591,0.806
						c0.342,0,0.581-0.337,0.581-0.815c0-0.371-0.166-0.796-0.576-0.796C7.459,8.076,7.288,8.486,7.288,8.882z"/>
				</g>
				<g>
					<path fill="#FFFFFF" d="M9.479,8.398c0-0.273-0.005-0.503-0.02-0.708h0.527l0.029,0.356h0.015
						c0.103-0.186,0.361-0.41,0.757-0.41c0.415,0,0.845,0.269,0.845,1.021v1.411h-0.601V8.726c0-0.342-0.127-0.601-0.454-0.601
						c-0.239,0-0.405,0.171-0.469,0.352c-0.02,0.054-0.024,0.127-0.024,0.195v1.396H9.479V8.398z"/>
				</g>
				<g>
					<path fill="#FFFFFF" d="M12.847,7.012V7.69h0.571V8.14h-0.571v1.05c0,0.288,0.078,0.439,0.308,0.439
						c0.103,0,0.181-0.015,0.234-0.029l0.01,0.459c-0.088,0.034-0.244,0.059-0.435,0.059c-0.22,0-0.405-0.073-0.518-0.195
						c-0.127-0.137-0.186-0.352-0.186-0.664V8.14h-0.342V7.69h0.342V7.153L12.847,7.012z"/>
				</g>
				<g>
					<path fill="#FFFFFF" d="M13.776,8.457c0-0.322-0.005-0.552-0.02-0.767h0.522l0.02,0.454h0.02
						c0.117-0.337,0.396-0.508,0.649-0.508c0.059,0,0.093,0.005,0.142,0.015v0.566c-0.049-0.01-0.103-0.02-0.176-0.02
						c-0.288,0-0.483,0.186-0.537,0.454c-0.01,0.054-0.02,0.117-0.02,0.186v1.23h-0.601V8.457z"/>
				</g>
				<g>
					<path fill="#FFFFFF" d="M17.641,8.857c0,0.874-0.615,1.265-1.221,1.265c-0.674,0-1.191-0.464-1.191-1.226
						c0-0.781,0.513-1.26,1.23-1.26C17.167,7.637,17.641,8.135,17.641,8.857z M15.849,8.882c0,0.459,0.225,0.806,0.591,0.806
						c0.342,0,0.581-0.337,0.581-0.815c0-0.371-0.166-0.796-0.576-0.796C16.02,8.076,15.849,8.486,15.849,8.882z"/>
				</g>
				<g>
					<path fill="#FFFFFF" d="M18.04,6.602h0.605v3.467H18.04V6.602z"/>
				</g>
			</g>
			<g clip-path="url(#SVGID_2_)">
				<rect x="0" y="11.956" fill="#FFFFFF" width="22.678" height="0.889"/>
			</g>
			<g clip-path="url(#SVGID_2_)">
				<path fill="#FFFFFF" d="M6.998,17.688h-1c0-1.624,1.321-2.944,2.944-2.944h4.645c0.786,0,1.525,0.306,2.081,0.862l-0.707,0.708
					c-0.368-0.367-0.856-0.57-1.375-0.57H8.942C7.87,15.744,6.998,16.616,6.998,17.688z"/>
			</g>
			<g clip-path="url(#SVGID_2_)">
				<polygon fill="#FFFFFF" points="5.451,17.382 6.499,19.194 7.545,17.382 				"/>
			</g>
			<g clip-path="url(#SVGID_2_)">
				<path fill="#FFFFFF" d="M13.587,20.632H8.942c-0.785,0-1.524-0.306-2.081-0.862l0.707-0.708c0.368,0.367,0.856,0.57,1.374,0.57
					h4.645c1.072,0,1.944-0.872,1.944-1.944h1C16.531,19.311,15.21,20.632,13.587,20.632z"/>
			</g>
			<g clip-path="url(#SVGID_2_)">
				<polygon fill="#FFFFFF" points="17.078,17.994 16.031,16.182 14.984,17.994 				"/>
			</g>
			<g opacity="0.5" clip-path="url(#SVGID_2_)">
				<g>
					<defs>
						<rect id="SVGID_19_" x="21.828" y="16.342" width="1.703" height="2.834"/>
					</defs>
					<clipPath id="SVGID_4_">
						<use xlink:href="#SVGID_19_"  overflow="visible"/>
					</clipPath>
					<g clip-path="url(#SVGID_4_)">
						<path fill="#FFFFFF" d="M22.679,19.176c0.471,0,0.852-0.382,0.852-0.852c0-0.471-0.852-1.982-0.852-1.982
							s-0.852,1.512-0.852,1.982C21.827,18.794,22.21,19.176,22.679,19.176"/>
					</g>
				</g>
			</g>
			<g opacity="0.5" clip-path="url(#SVGID_2_)">
				<g>
					<defs>
						<rect id="SVGID_21_" x="19.279" y="16.342" width="1.699" height="2.834"/>
					</defs>
					<clipPath id="SVGID_6_">
						<use xlink:href="#SVGID_21_"  overflow="visible"/>
					</clipPath>
					<g clip-path="url(#SVGID_6_)">
						<path fill="#FFFFFF" d="M20.128,19.176c0.471,0,0.85-0.382,0.85-0.852c0-0.471-0.85-1.982-0.85-1.982s-0.85,1.512-0.85,1.982
							C19.278,18.794,19.657,19.176,20.128,19.176"/>
					</g>
				</g>
			</g>
			<g opacity="0.5" clip-path="url(#SVGID_2_)">
				<g>
					<defs>
						<rect id="SVGID_23_" x="20.556" y="19.843" width="1.699" height="2.835"/>
					</defs>
					<clipPath id="SVGID_8_">
						<use xlink:href="#SVGID_23_"  overflow="visible"/>
					</clipPath>
					<g clip-path="url(#SVGID_8_)">
						<path fill="#FFFFFF" d="M21.406,22.678c0.471,0,0.85-0.382,0.85-0.852c0-0.471-0.85-1.983-0.85-1.983s-0.85,1.513-0.85,1.983
							C20.556,22.296,20.935,22.678,21.406,22.678"/>
					</g>
				</g>
			</g>
			<g opacity="0.5" clip-path="url(#SVGID_2_)">
				<g>
					<defs>
						<rect id="SVGID_25_" x="18.003" y="19.843" width="1.699" height="2.835"/>
					</defs>
					<clipPath id="SVGID_10_">
						<use xlink:href="#SVGID_25_"  overflow="visible"/>
					</clipPath>
					<g clip-path="url(#SVGID_10_)">
						<path fill="#FFFFFF" d="M18.853,22.678c0.471,0,0.85-0.382,0.85-0.852c0-0.471-0.85-1.983-0.85-1.983s-0.85,1.513-0.85,1.983
							C18.003,22.296,18.382,22.678,18.853,22.678"/>
					</g>
				</g>
			</g>
			<g opacity="0.5" clip-path="url(#SVGID_2_)">
				<g>
					<defs>
						<rect id="SVGID_27_" x="20.556" y="12.839" width="1.699" height="2.835"/>
					</defs>
					<clipPath id="SVGID_12_">
						<use xlink:href="#SVGID_27_"  overflow="visible"/>
					</clipPath>
					<g clip-path="url(#SVGID_12_)">
						<path fill="#FFFFFF" d="M21.406,15.674c0.471,0,0.85-0.382,0.85-0.852c0-0.471-0.85-1.982-0.85-1.982s-0.85,1.512-0.85,1.982
							C20.556,15.292,20.935,15.674,21.406,15.674"/>
					</g>
				</g>
			</g>
			<g opacity="0.5" clip-path="url(#SVGID_2_)">
				<g>
					<defs>
						<rect id="SVGID_29_" x="18.003" y="12.839" width="1.699" height="2.835"/>
					</defs>
					<clipPath id="SVGID_14_">
						<use xlink:href="#SVGID_29_"  overflow="visible"/>
					</clipPath>
					<g clip-path="url(#SVGID_14_)">
						<path fill="#FFFFFF" d="M18.853,15.674c0.471,0,0.85-0.382,0.85-0.852c0-0.471-0.85-1.982-0.85-1.982s-0.85,1.512-0.85,1.982
							C18.003,15.292,18.382,15.674,18.853,15.674"/>
					</g>
				</g>
			</g>
			<g opacity="0.5" clip-path="url(#SVGID_2_)">
				<g>
					<defs>
						<rect id="SVGID_31_" x="-0.872" y="16.342" width="1.703" height="2.834"/>
					</defs>
					<clipPath id="SVGID_16_">
						<use xlink:href="#SVGID_31_"  overflow="visible"/>
					</clipPath>
					<g clip-path="url(#SVGID_16_)">
						<path fill="#FFFFFF" d="M-0.02,19.176c-0.471,0-0.852-0.382-0.852-0.852c0-0.471,0.852-1.982,0.852-1.982
							s0.852,1.512,0.852,1.982C0.832,18.794,0.449,19.176-0.02,19.176"/>
					</g>
				</g>
			</g>
			<g opacity="0.5" clip-path="url(#SVGID_2_)">
				<g>
					<defs>
						<rect id="SVGID_33_" x="1.681" y="16.342" width="1.699" height="2.834"/>
					</defs>
					<clipPath id="SVGID_18_">
						<use xlink:href="#SVGID_33_"  overflow="visible"/>
					</clipPath>
					<g clip-path="url(#SVGID_18_)">
						<path fill="#FFFFFF" d="M2.531,19.176c-0.471,0-0.85-0.382-0.85-0.852c0-0.471,0.85-1.982,0.85-1.982s0.85,1.512,0.85,1.982
							C3.381,18.794,3.002,19.176,2.531,19.176"/>
					</g>
				</g>
			</g>
			<g opacity="0.5" clip-path="url(#SVGID_2_)">
				<g>
					<defs>
						<rect id="SVGID_35_" x="0.404" y="19.843" width="1.699" height="2.835"/>
					</defs>
					<clipPath id="SVGID_20_">
						<use xlink:href="#SVGID_35_"  overflow="visible"/>
					</clipPath>
					<g clip-path="url(#SVGID_20_)">
						<path fill="#FFFFFF" d="M1.253,22.678c-0.471,0-0.85-0.382-0.85-0.852c0-0.471,0.85-1.983,0.85-1.983s0.85,1.513,0.85,1.983
							C2.104,22.296,1.725,22.678,1.253,22.678"/>
					</g>
				</g>
			</g>
			<g opacity="0.5" clip-path="url(#SVGID_2_)">
				<g>
					<defs>
						<rect id="SVGID_37_" x="2.957" y="19.843" width="1.699" height="2.835"/>
					</defs>
					<clipPath id="SVGID_22_">
						<use xlink:href="#SVGID_37_"  overflow="visible"/>
					</clipPath>
					<g clip-path="url(#SVGID_22_)">
						<path fill="#FFFFFF" d="M3.806,22.678c-0.471,0-0.85-0.382-0.85-0.852c0-0.471,0.85-1.983,0.85-1.983s0.85,1.513,0.85,1.983
							C4.656,22.296,4.277,22.678,3.806,22.678"/>
					</g>
				</g>
			</g>
			<g opacity="0.5" clip-path="url(#SVGID_2_)">
				<g>
					<defs>
						<rect id="SVGID_39_" x="0.404" y="12.839" width="1.699" height="2.835"/>
					</defs>
					<clipPath id="SVGID_24_">
						<use xlink:href="#SVGID_39_"  overflow="visible"/>
					</clipPath>
					<g clip-path="url(#SVGID_24_)">
						<path fill="#FFFFFF" d="M1.253,15.674c-0.471,0-0.85-0.382-0.85-0.852c0-0.471,0.85-1.982,0.85-1.982s0.85,1.512,0.85,1.982
							C2.104,15.292,1.725,15.674,1.253,15.674"/>
					</g>
				</g>
			</g>
			<g opacity="0.5" clip-path="url(#SVGID_2_)">
				<g>
					<defs>
						<rect id="SVGID_41_" x="2.957" y="12.839" width="1.699" height="2.835"/>
					</defs>
					<clipPath id="SVGID_26_">
						<use xlink:href="#SVGID_41_"  overflow="visible"/>
					</clipPath>
					<g clip-path="url(#SVGID_26_)">
						<path fill="#FFFFFF" d="M3.806,15.674c-0.471,0-0.85-0.382-0.85-0.852c0-0.471,0.85-1.982,0.85-1.982s0.85,1.512,0.85,1.982
							C4.656,15.292,4.277,15.674,3.806,15.674"/>
					</g>
				</g>
			</g>
		</g>
	</g>
</g>
</svg>
