<?xml version="1.0" encoding="utf-8"?>
<!-- Generator: Adobe Illustrator 16.0.3, SVG Export Plug-In . SVG Version: 6.00 Build 0)  -->
<!DOCTYPE svg PUBLIC "-//W3C//DTD SVG 1.1//EN" "http://www.w3.org/Graphics/SVG/1.1/DTD/svg11.dtd">
<svg version="1.1" xmlns="http://www.w3.org/2000/svg" xmlns:xlink="http://www.w3.org/1999/xlink" x="0px" y="0px" width="22.68px"
	 height="22.68px" viewBox="0 0 22.68 22.68" enable-background="new 0 0 22.68 22.68" xml:space="preserve">
<g id="BCGRND" display="none">
</g>
<g id="IKONY">
	<g>
		<defs>
			<rect id="SVGID_71_" width="22.678" height="22.678"/>
		</defs>
		<clipPath id="SVGID_2_">
			<use xlink:href="#SVGID_71_"  overflow="visible"/>
		</clipPath>
		<polygon clip-path="url(#SVGID_2_)" fill="#585857" points="0,0 0,22.678 14.117,22.678 22.678,22.678 22.678,0 		"/>
		<rect y="7.77" clip-path="url(#SVGID_2_)" fill="#FFFFFF" width="22.678" height="0.89"/>
		<polygon clip-path="url(#SVGID_2_)" fill="#FFFFFF" points="0.963,2.28 0.963,5.57 1.564,5.57 1.564,4.175 2.775,4.175 
			2.775,3.681 1.564,3.681 1.564,2.773 2.863,2.773 2.863,2.28 		"/>
		<g clip-path="url(#SVGID_2_)">
			<defs>
				<rect id="SVGID_73_" width="22.678" height="22.678"/>
			</defs>
			<clipPath id="SVGID_4_">
				<use xlink:href="#SVGID_73_"  overflow="visible"/>
			</clipPath>
			<path clip-path="url(#SVGID_4_)" fill="#FFFFFF" d="M3.125,3.959c0-0.321-0.005-0.552-0.02-0.767h0.523l0.019,0.455h0.02
				C3.783,3.311,4.062,3.14,4.315,3.14c0.059,0,0.093,0.005,0.142,0.014v0.567C4.408,3.71,4.354,3.7,4.281,3.7
				c-0.288,0-0.483,0.187-0.537,0.454c-0.01,0.054-0.019,0.117-0.019,0.187V5.57H3.125V3.959z"/>
			<path clip-path="url(#SVGID_4_)" fill="#FFFFFF" d="M5.05,4.551c0.015,0.43,0.352,0.614,0.733,0.614
				c0.278,0,0.478-0.039,0.659-0.106L6.53,5.474C6.324,5.557,6.041,5.619,5.699,5.619c-0.771,0-1.225-0.473-1.225-1.201
				c0-0.658,0.4-1.278,1.162-1.278c0.771,0,1.025,0.635,1.025,1.156c0,0.112-0.009,0.2-0.019,0.255H5.05z M6.095,4.13
				C6.1,3.91,6.002,3.55,5.602,3.55c-0.371,0-0.528,0.337-0.552,0.58H6.095z"/>
			<path clip-path="url(#SVGID_4_)" fill="#FFFFFF" d="M6.923,5.019C7.06,5.102,7.319,5.19,7.533,5.19
				c0.264,0,0.381-0.108,0.381-0.265c0-0.161-0.097-0.244-0.39-0.346C7.06,4.418,6.864,4.165,6.869,3.886
				c0-0.42,0.347-0.747,0.899-0.747c0.263,0,0.493,0.068,0.63,0.143L8.28,3.706C8.178,3.647,7.987,3.569,7.777,3.569
				c-0.214,0-0.332,0.102-0.332,0.249c0,0.15,0.113,0.224,0.415,0.332c0.43,0.155,0.63,0.376,0.635,0.727
				c0,0.43-0.337,0.743-0.967,0.743c-0.288,0-0.546-0.069-0.722-0.166L6.923,5.019z"/>
			<path clip-path="url(#SVGID_4_)" fill="#FFFFFF" d="M8.795,2.104H9.4V3.52h0.01c0.073-0.111,0.171-0.205,0.298-0.272
				c0.117-0.069,0.259-0.108,0.41-0.108c0.406,0,0.83,0.27,0.83,1.03v1.402h-0.6V4.238c0-0.348-0.127-0.606-0.459-0.606
				c-0.235,0-0.401,0.157-0.464,0.337C9.405,4.018,9.4,4.082,9.4,4.15v1.421H8.795V2.104z"/>
			<path clip-path="url(#SVGID_4_)" fill="#FFFFFF" d="M12.237,2.323c0.191-0.039,0.537-0.068,0.874-0.068
				c0.445,0,0.718,0.055,0.943,0.21c0.205,0.122,0.341,0.337,0.341,0.615c0,0.303-0.19,0.581-0.546,0.713v0.011
				c0.346,0.088,0.664,0.36,0.664,0.814c0,0.293-0.127,0.523-0.318,0.679c-0.234,0.205-0.62,0.309-1.22,0.309
				c-0.332,0-0.586-0.025-0.738-0.044V2.323z M12.833,3.622h0.308c0.415,0,0.649-0.195,0.649-0.473c0-0.309-0.234-0.45-0.615-0.45
				c-0.176,0-0.279,0.01-0.342,0.025V3.622z M12.833,5.137c0.078,0.01,0.181,0.015,0.317,0.015c0.386,0,0.728-0.147,0.728-0.552
				c0-0.382-0.332-0.537-0.747-0.537h-0.298V5.137z"/>
			<path clip-path="url(#SVGID_4_)" fill="#FFFFFF" d="M17.119,4.36c0,0.874-0.615,1.264-1.221,1.264
				c-0.674,0-1.191-0.464-1.191-1.225c0-0.782,0.513-1.26,1.23-1.26C16.645,3.14,17.119,3.638,17.119,4.36 M15.327,4.384
				c0,0.459,0.225,0.807,0.591,0.807c0.342,0,0.581-0.337,0.581-0.816c0-0.371-0.166-0.796-0.576-0.796
				C15.498,3.578,15.327,3.988,15.327,4.384"/>
			<path clip-path="url(#SVGID_4_)" fill="#FFFFFF" d="M17.727,3.192l0.283,0.449c0.078,0.127,0.147,0.244,0.215,0.366h0.015
				c0.068-0.131,0.136-0.253,0.205-0.376l0.263-0.439h0.655l-0.796,1.144l0.81,1.235h-0.678l-0.293-0.475
				c-0.078-0.127-0.147-0.254-0.215-0.385h-0.01c-0.068,0.136-0.137,0.253-0.215,0.385l-0.273,0.475h-0.664l0.825-1.212
				l-0.796-1.167H17.727z"/>
			<polygon clip-path="url(#SVGID_4_)" fill="#FFFFFF" points="20.879,2.973 20.879,4.077 21.939,4.077 21.939,4.457 20.879,4.457 
				20.879,5.571 20.479,5.571 20.479,4.457 19.419,4.457 19.419,4.077 20.479,4.077 20.479,2.973 			"/>
			<path clip-path="url(#SVGID_4_)" fill="#FFFFFF" d="M20.795,21.307H1.959V7.77h18.836V21.307z M2.848,20.418h17.059V8.658H2.848
				V20.418z"/>
			<polygon clip-path="url(#SVGID_4_)" fill="#FFFFFF" points="19.069,19.58 3.686,19.58 3.686,8.214 4.575,8.214 4.575,18.691 
				18.18,18.691 18.18,8.214 19.069,8.214 			"/>
			<g opacity="0.5" clip-path="url(#SVGID_4_)">
				<g>
					<defs>
						<rect id="SVGID_75_" x="5.28" y="7.873" width="12.118" height="10.838"/>
					</defs>
					<clipPath id="SVGID_6_">
						<use xlink:href="#SVGID_75_"  overflow="visible"/>
					</clipPath>
					<path clip-path="url(#SVGID_6_)" fill="#FFFFFF" d="M11.749,17.53l1.211,0.699l0.411-0.71l-1.622-0.937v-0.635l0.307-0.532
						l0.747,1.294l0.457,0.264l-0.004-0.526l-0.747-1.292h0.614l0.55,0.318v1.87h0.821v-1.397l0.563,0.326v1.071h0.821v-0.599
						l1.111,0.643l0.409-0.712l-1.109-0.642l0.518-0.299l-0.409-0.71l-0.93,0.536l-0.563-0.326l1.21-0.7l-0.41-0.71l-1.621,0.937
						l-0.563-0.325l-0.303-0.526h1.505l0.454-0.258l-0.454-0.264h-1.494l0.305-0.53l0.55-0.318l1.621,0.938l0.41-0.711l-1.21-0.7
						l0.563-0.324l0.93,0.536l0.409-0.711l-0.518-0.3l1.109-0.641l-0.409-0.713l-1.111,0.643v-0.6h-0.821v1.073l-0.563,0.325V9.957
						h-0.821v1.872l-0.552,0.319h-0.614l0.749-1.3l0.004-0.524l-0.456,0.262l-0.752,1.304l-0.303-0.523v-0.647l1.622-0.937
						L12.96,9.071l-1.211,0.7V9.12l0.93-0.536l-0.41-0.711l-0.52,0.299V8.005h-0.82v0.167l-0.52-0.299l-0.41,0.711l0.93,0.536v0.651
						l-1.211-0.7l-0.41,0.711l1.621,0.937v0.647l-0.304,0.525l-0.753-1.306L9.42,10.322v0.526l0.749,1.3H9.557l-0.551-0.319V9.957
						H8.184v1.398L7.621,11.03V9.957H6.8v0.6L5.69,9.914l-0.41,0.713l1.11,0.641l-0.52,0.3l0.411,0.711l0.929-0.536l0.564,0.324
						l-1.211,0.7l0.41,0.711l1.622-0.938l0.55,0.318l0.305,0.53H7.954l-0.455,0.264l0.455,0.258h1.507l-0.304,0.526l-0.562,0.325
						l-1.622-0.937l-0.41,0.71l1.211,0.7L7.21,15.562l-0.929-0.536l-0.411,0.71l0.52,0.299l-1.11,0.642l0.41,0.712l1.11-0.643v0.599
						h0.821v-1.071l0.563-0.326v1.397h0.822v-1.87l0.55-0.318h0.611L9.42,16.447v0.529l0.453-0.267l0.748-1.296l0.308,0.534v0.635
						L9.308,17.52l0.41,0.71l1.211-0.699v0.65l-0.918,0.53h2.656l-0.918-0.53V17.53z M12.204,12.671h0.834l-0.412,0.718h-0.834
						L12.204,12.671z M12.618,13.91l0.412,0.721h-0.823l-0.415-0.721H12.618z M11.339,11.695l0.415,0.712l-0.416,0.719l-0.414-0.717
						L11.339,11.695z M10.469,14.631h-0.82l0.411-0.721h0.825L10.469,14.631z M10.052,13.389l-0.411-0.718h0.831l0.413,0.718H10.052
						z M10.92,14.896l0.418-0.724l0.419,0.726l-0.418,0.729L10.92,14.896z"/>
				</g>
			</g>
		</g>
	</g>
</g>
</svg>
