<?xml version="1.0" encoding="utf-8"?>
<!-- Generator: Adobe Illustrator 16.0.3, SVG Export Plug-In . SVG Version: 6.00 Build 0)  -->
<!DOCTYPE svg PUBLIC "-//W3C//DTD SVG 1.1//EN" "http://www.w3.org/Graphics/SVG/1.1/DTD/svg11.dtd">
<svg version="1.1" xmlns="http://www.w3.org/2000/svg" xmlns:xlink="http://www.w3.org/1999/xlink" x="0px" y="0px" width="22.68px"
	 height="22.68px" viewBox="0 0 22.68 22.68" enable-background="new 0 0 22.68 22.68" xml:space="preserve">
<g id="BCGRND">
</g>
<g id="BAREVNE_POZADI_IKON">
	<rect fill="#585857" width="22.676" height="22.678"/>
</g>
<g id="IKONY">
	<g>
		<defs>
			<rect id="SVGID_5_" width="22.676" height="22.678"/>
		</defs>
		<clipPath id="SVGID_2_">
			<use xlink:href="#SVGID_5_"  overflow="visible"/>
		</clipPath>
		<g clip-path="url(#SVGID_2_)">
			<g>
				<rect x="0.001" y="11.956" fill="#FFFFFF" width="22.678" height="0.889"/>
			</g>
			<g>
				<path fill="#FFFFFF" d="M8.986,1.996v1.318h1.393V1.996h0.6v3.291h-0.6v-1.45H8.986v1.45h-0.6V1.996H8.986z"/>
				<path fill="#FFFFFF" d="M11.721,2.04C11.989,2,12.321,1.971,12.678,1.971c0.615,0,1.035,0.127,1.338,0.381
					c0.322,0.259,0.518,0.654,0.518,1.211c0,0.591-0.2,1.025-0.513,1.309c-0.327,0.298-0.85,0.449-1.489,0.449
					c-0.347,0-0.61-0.02-0.811-0.044V2.04z M12.321,4.833c0.083,0.015,0.21,0.015,0.332,0.015c0.781,0.005,1.245-0.43,1.245-1.265
					c0.005-0.723-0.415-1.143-1.167-1.143c-0.19,0-0.322,0.015-0.41,0.034V4.833z"/>
				<path fill="#FFFFFF" d="M5.078,9.694C4.938,9.762,4.625,9.84,4.225,9.84c-1.045,0-1.68-0.654-1.68-1.66
					c0-1.084,0.756-1.738,1.762-1.738c0.396,0,0.674,0.083,0.797,0.146L4.977,7.067C4.82,6.999,4.6,6.94,4.332,6.94
					c-0.67,0-1.152,0.42-1.152,1.211c0,0.728,0.42,1.187,1.146,1.187c0.24,0,0.494-0.049,0.654-0.117L5.078,9.694z"/>
				<path fill="#FFFFFF" d="M7.802,8.576c0,0.874-0.615,1.265-1.221,1.265c-0.669,0-1.191-0.459-1.191-1.226
					c0-0.781,0.513-1.26,1.23-1.26C7.328,7.355,7.802,7.853,7.802,8.576z M6.01,8.6c0,0.459,0.229,0.806,0.591,0.806
					c0.342,0,0.581-0.332,0.581-0.815c0-0.371-0.166-0.801-0.576-0.801C6.181,7.79,6.01,8.205,6.01,8.6z"/>
				<path fill="#FFFFFF" d="M10.608,8.576c0,0.874-0.615,1.265-1.221,1.265c-0.669,0-1.191-0.459-1.191-1.226
					c0-0.781,0.513-1.26,1.23-1.26C10.135,7.355,10.608,7.853,10.608,8.576z M8.816,8.6c0,0.459,0.229,0.806,0.591,0.806
					c0.342,0,0.581-0.332,0.581-0.815c0-0.371-0.166-0.801-0.576-0.801C8.987,7.79,8.816,8.205,8.816,8.6z"/>
				<path fill="#FFFFFF" d="M11.754,8.454h0.01c0.059-0.093,0.127-0.195,0.186-0.278l0.582-0.767h0.723L12.369,8.38l1.006,1.406
					h-0.736l-0.684-1.05l-0.201,0.239v0.811h-0.6V6.32h0.6V8.454z"/>
				<path fill="#FFFFFF" d="M14.395,6.745c0,0.176-0.133,0.322-0.342,0.322c-0.201,0-0.332-0.146-0.332-0.322
					c0-0.186,0.137-0.327,0.336-0.327C14.262,6.417,14.389,6.559,14.395,6.745z M13.754,9.787V7.409h0.602v2.378H13.754z"/>
				<path fill="#FFFFFF" d="M15.055,8.117c0-0.273-0.01-0.503-0.02-0.708h0.523l0.029,0.356h0.014
					c0.107-0.186,0.367-0.41,0.762-0.41c0.416,0,0.846,0.269,0.846,1.021v1.411h-0.602V8.444c0-0.342-0.127-0.601-0.453-0.601
					c-0.24,0-0.406,0.171-0.469,0.352c-0.02,0.049-0.029,0.122-0.029,0.19v1.401h-0.602V8.117z"/>
				<path fill="#FFFFFF" d="M20.054,9.44c0,0.498-0.103,0.854-0.352,1.079c-0.244,0.22-0.591,0.288-0.918,0.288
					c-0.303,0-0.625-0.068-0.83-0.19l0.132-0.454c0.151,0.088,0.405,0.181,0.693,0.181c0.391,0,0.684-0.205,0.684-0.718V9.42h-0.01
					c-0.137,0.21-0.376,0.352-0.693,0.352c-0.591,0-1.011-0.488-1.011-1.162c0-0.781,0.508-1.255,1.079-1.255
					c0.366,0,0.576,0.176,0.688,0.371h0.01l0.024-0.317h0.522c-0.01,0.161-0.02,0.356-0.02,0.684V9.44z M19.453,8.361
					c0-0.059-0.005-0.112-0.02-0.161c-0.063-0.22-0.234-0.386-0.488-0.386c-0.337,0-0.586,0.293-0.586,0.776
					c0,0.405,0.205,0.732,0.581,0.732c0.225,0,0.42-0.146,0.488-0.366c0.02-0.059,0.024-0.142,0.024-0.21V8.361z"/>
			</g>
			<g>
				<path fill="#FFFFFF" d="M15.771,21.508c-0.412,0.239-0.547,0.75-0.341,1.17h1.59c0.126-0.261,0.138-0.57-0.02-0.84
					C16.75,21.407,16.21,21.258,15.771,21.508z M6.899,21.487c-0.43-0.25-0.979-0.109-1.229,0.32
					c-0.163,0.279-0.142,0.604,0.002,0.87h1.562C7.462,22.253,7.316,21.729,6.899,21.487z M14.61,19.438
					c-0.431-0.25-0.98-0.1-1.23,0.33s-0.1,0.979,0.33,1.229c0.14,0.08,0.3,0.12,0.449,0.12c0.311,0,0.611-0.159,0.781-0.449
					C15.19,20.237,15.04,19.688,14.61,19.438z M8.069,19.428c-0.43,0.24-0.58,0.8-0.33,1.229c0.17,0.29,0.471,0.45,0.781,0.45
					c0.149,0,0.309-0.04,0.449-0.12c0.43-0.25,0.58-0.8,0.33-1.229C9.05,19.327,8.5,19.178,8.069,19.428z M11.35,18.558
					c-0.5,0-0.899,0.4-0.909,0.9c0,0.5,0.399,0.899,0.899,0.899s0.899-0.399,0.899-0.899C12.25,18.968,11.84,18.558,11.35,18.558z
					 M18.67,21.478c-0.47,0.17-0.71,0.69-0.54,1.15c0.006,0.019,0.02,0.032,0.027,0.05h1.639c0.088-0.204,0.105-0.438,0.023-0.66
					C19.649,21.548,19.14,21.308,18.67,21.478z M4,21.468c-0.47-0.181-0.979,0.06-1.16,0.529c-0.079,0.232-0.062,0.475,0.032,0.681
					h1.625c0.01-0.021,0.025-0.038,0.033-0.061C4.71,22.147,4.47,21.628,4,21.468z M6.819,17.277c-0.43,0.25-0.569,0.79-0.33,1.23
					c0.17,0.29,0.471,0.45,0.791,0.45c0.149,0,0.299-0.04,0.439-0.12c0.43-0.25,0.58-0.801,0.33-1.23
					C7.81,17.178,7.26,17.027,6.819,17.277z M5.69,19.178c-0.381-0.32-0.951-0.271-1.271,0.109c-0.32,0.381-0.271,0.95,0.11,1.261
					c0.17,0.149,0.369,0.22,0.58,0.22c0.25,0,0.51-0.11,0.689-0.32C6.12,20.067,6.069,19.497,5.69,19.178z M10.819,16.938
					c-0.09-0.49-0.56-0.82-1.049-0.729c-0.48,0.079-0.811,0.55-0.73,1.039c0.08,0.44,0.46,0.75,0.89,0.75
					c0.05,0,0.101-0.01,0.149-0.02C10.569,17.897,10.899,17.428,10.819,16.938z M13.64,17.258c0.08-0.5-0.24-0.96-0.73-1.05
					c0,0,0,0-0.01,0c-0.479-0.091-0.949,0.239-1.039,0.729c-0.08,0.49,0.239,0.96,0.729,1.05c0.06,0.01,0.11,0.01,0.16,0.01
					C13.18,17.997,13.56,17.688,13.64,17.258z M18.25,19.298c-0.32-0.38-0.88-0.431-1.271-0.11c-0.38,0.32-0.43,0.89-0.109,1.271
					c0.18,0.21,0.439,0.319,0.689,0.319c0.211,0,0.41-0.069,0.58-0.21C18.521,20.247,18.569,19.678,18.25,19.298z M14.95,18.848
					v-0.01c0.14,0.09,0.3,0.13,0.449,0.13c0.311,0,0.61-0.17,0.78-0.45c0.25-0.43,0.101-0.98-0.33-1.23
					c-0.43-0.25-0.979-0.109-1.229,0.32C14.38,18.037,14.521,18.588,14.95,18.848z M12.71,15.313v0.01c0.04,0,0.08,0.01,0.13,0.01
					c0.44,0,0.819-0.33,0.89-0.779c0.07-0.49-0.27-0.95-0.77-1.021c-0.49-0.069-0.939,0.28-1.02,0.771
					C11.87,14.793,12.22,15.253,12.71,15.313z M15.34,16.094c0.12,0.05,0.25,0.08,0.37,0.08c0.34,0,0.67-0.2,0.82-0.53
					c0.209-0.45,0.01-0.98-0.44-1.19s-0.99-0.01-1.2,0.44C14.69,15.344,14.89,15.884,15.34,16.094z M18.239,17.793
					c0.25,0,0.5-0.1,0.67-0.31c0.33-0.37,0.291-0.94-0.09-1.27c-0.369-0.32-0.939-0.28-1.26,0.09c-0.33,0.38-0.289,0.949,0.08,1.27
					C17.819,17.724,18.03,17.793,18.239,17.793z M20.96,18.674c-0.27-0.41-0.83-0.54-1.25-0.271c-0.41,0.271-0.53,0.83-0.27,1.25
					c0.18,0.26,0.469,0.41,0.76,0.41c0.17,0,0.34-0.05,0.49-0.14C21.11,19.653,21.229,19.094,20.96,18.674z M9.84,15.323
					c0.04,0,0.08,0,0.12-0.01c0.49-0.07,0.84-0.521,0.77-1.01c-0.07-0.5-0.529-0.84-1.02-0.771c-0.49,0.07-0.84,0.53-0.76,1.021
					C9.01,15.003,9.39,15.323,9.84,15.323z M6.96,16.163c0.119,0,0.25-0.02,0.369-0.08v0.011c0.451-0.21,0.65-0.75,0.451-1.2
					c-0.211-0.45-0.74-0.65-1.201-0.44c-0.449,0.2-0.649,0.74-0.439,1.19C6.29,15.974,6.62,16.163,6.96,16.163z M4.43,17.793
					c0.21,0,0.42-0.079,0.591-0.22c0.379-0.33,0.42-0.899,0.09-1.27c-0.32-0.38-0.891-0.42-1.271-0.09c0,0,0,0,0-0.011
					c-0.37,0.33-0.41,0.9-0.09,1.271C3.93,17.684,4.18,17.793,4.43,17.793z M2.95,18.403c-0.41-0.28-0.971-0.15-1.24,0.26
					c-0.27,0.42-0.15,0.98,0.27,1.25c0.15,0.101,0.32,0.141,0.48,0.141c0.3,0,0.59-0.141,0.76-0.41
					C3.489,19.224,3.37,18.674,2.95,18.403z"/>
			</g>
		</g>
		<path clip-path="url(#SVGID_2_)" fill="#FFFFFF" d="M1.8,21.19c-0.381-0.32-0.951-0.271-1.271,0.109
			c-0.32,0.381-0.271,0.95,0.11,1.261c0.17,0.149,0.369,0.22,0.58,0.22c0.25,0,0.51-0.11,0.689-0.32
			C2.229,22.079,2.178,21.509,1.8,21.19z"/>
		<path clip-path="url(#SVGID_2_)" fill="#FFFFFF" d="M20.767,22.459c0.18,0.21,0.439,0.32,0.689,0.32c0.211,0,0.41-0.07,0.58-0.22
			c0.381-0.311,0.431-0.88,0.11-1.261c-0.319-0.38-0.89-0.43-1.271-0.109C20.497,21.509,20.447,22.079,20.767,22.459z"/>
	</g>
</g>
</svg>
