<?xml version="1.0" encoding="utf-8"?>
<!-- Generator: Adobe Illustrator 16.0.3, SVG Export Plug-In . SVG Version: 6.00 Build 0)  -->
<!DOCTYPE svg PUBLIC "-//W3C//DTD SVG 1.1//EN" "http://www.w3.org/Graphics/SVG/1.1/DTD/svg11.dtd">
<svg version="1.1" xmlns="http://www.w3.org/2000/svg" xmlns:xlink="http://www.w3.org/1999/xlink" x="0px" y="0px" width="22.68px"
	 height="22.68px" viewBox="0 0 22.68 22.68" enable-background="new 0 0 22.68 22.68" xml:space="preserve">
<g id="BCGRND">
</g>
<g id="IKONY">
	<g>
		<g>
			<polygon fill="#585857" points="22.677,16.335 22.677,0 0,0 0,22.677 14.117,22.677 22.677,22.677 			"/>
		</g>
		<g>
			<g>
				<rect x="0" y="11.956" fill="#FFFFFF" width="22.678" height="0.889"/>
			</g>
			<g>
				<g>
					<path fill="#FFFFFF" d="M3.325,1.995v1.318h1.392V1.995h0.601v3.291H4.717v-1.45H3.325v1.45H2.725V1.995H3.325z"/>
					<path fill="#FFFFFF" d="M6.015,1.819H6.62v3.467H6.015V1.819z"/>
					<path fill="#FFFFFF" d="M9.532,4.075c0,0.874-0.615,1.265-1.221,1.265c-0.674,0-1.191-0.464-1.191-1.226
						c0-0.781,0.513-1.26,1.23-1.26C9.059,2.854,9.532,3.353,9.532,4.075z M7.74,4.1c0,0.459,0.225,0.806,0.591,0.806
						c0.342,0,0.581-0.337,0.581-0.815c0-0.371-0.166-0.796-0.576-0.796C7.911,3.294,7.74,3.704,7.74,4.1z"/>
					<path fill="#FFFFFF" d="M12.158,4.573c0,0.283,0.01,0.518,0.02,0.713H11.65l-0.029-0.361h-0.01
						c-0.103,0.171-0.337,0.415-0.762,0.415c-0.435,0-0.83-0.259-0.83-1.035V2.908h0.601v1.294c0,0.396,0.127,0.649,0.444,0.649
						c0.239,0,0.396-0.171,0.459-0.322c0.02-0.054,0.034-0.117,0.034-0.186V2.908h0.601V4.573z"/>
					<path fill="#FFFFFF" d="M12.791,5.286c0.01-0.161,0.02-0.425,0.02-0.669V1.819h0.601v1.416h0.01
						c0.146-0.229,0.405-0.381,0.762-0.381c0.581,0,0.996,0.483,0.991,1.206c0,0.854-0.542,1.279-1.079,1.279
						c-0.308,0-0.581-0.117-0.752-0.41h-0.01l-0.029,0.356H12.791z M13.411,4.305c0,0.049,0.005,0.098,0.015,0.142
						c0.063,0.239,0.273,0.42,0.532,0.42c0.376,0,0.605-0.303,0.605-0.781c0-0.42-0.2-0.762-0.601-0.762
						c-0.244,0-0.464,0.176-0.532,0.439c-0.01,0.044-0.02,0.098-0.02,0.156V4.305z"/>
					<path fill="#FFFFFF" d="M16.271,3.953h0.01c0.059-0.093,0.127-0.195,0.19-0.278l0.576-0.767h0.723L16.891,3.88l1.006,1.406
						H17.16l-0.684-1.05l-0.205,0.239v0.811H15.67V1.819h0.601V3.953z"/>
					<path fill="#FFFFFF" d="M19.55,5.286l-0.039-0.264h-0.015C19.35,5.208,19.101,5.34,18.793,5.34
						c-0.479,0-0.747-0.347-0.747-0.708c0-0.601,0.532-0.903,1.411-0.898V3.694c0-0.156-0.063-0.415-0.483-0.415
						c-0.234,0-0.479,0.073-0.64,0.176l-0.117-0.391c0.176-0.107,0.483-0.21,0.859-0.21c0.762,0,0.981,0.483,0.981,1.001v0.859
						c0,0.215,0.01,0.425,0.034,0.571H19.55z M19.472,4.124c-0.425-0.01-0.83,0.083-0.83,0.444c0,0.234,0.151,0.342,0.342,0.342
						c0.239,0,0.415-0.156,0.469-0.327c0.015-0.044,0.02-0.093,0.02-0.132V4.124z"/>
					<path fill="#FFFFFF" d="M6.872,6.402C6.559,6.866,6.32,7.511,6.32,8.39c0,0.864,0.244,1.504,0.552,1.973H6.432
						C6.154,9.972,5.841,9.337,5.841,8.39c0.005-0.952,0.313-1.592,0.591-1.987H6.872z"/>
					<path fill="#FFFFFF" d="M7.479,8.116c0-0.273-0.005-0.503-0.02-0.708h0.518L8.001,7.76h0.015
						c0.117-0.186,0.332-0.405,0.732-0.405c0.313,0,0.557,0.176,0.659,0.439h0.01C9.5,7.662,9.598,7.564,9.71,7.496
						c0.132-0.093,0.283-0.142,0.479-0.142c0.396,0,0.796,0.269,0.796,1.03v1.401h-0.586V8.473c0-0.396-0.137-0.63-0.425-0.63
						c-0.205,0-0.356,0.146-0.42,0.317C9.54,8.219,9.525,8.292,9.525,8.36v1.426H8.939V8.409c0-0.332-0.132-0.566-0.41-0.566
						c-0.225,0-0.376,0.176-0.43,0.342C8.075,8.243,8.065,8.312,8.065,8.38v1.406H7.479V8.116z"/>
					<path fill="#FFFFFF" d="M11.771,8.116c0-0.273-0.005-0.503-0.02-0.708h0.518l0.024,0.352h0.015
						c0.117-0.186,0.332-0.405,0.732-0.405c0.313,0,0.557,0.176,0.659,0.439h0.01c0.083-0.132,0.181-0.229,0.293-0.298
						c0.132-0.093,0.283-0.142,0.479-0.142c0.396,0,0.796,0.269,0.796,1.03v1.401h-0.586V8.473c0-0.396-0.137-0.63-0.425-0.63
						c-0.205,0-0.356,0.146-0.42,0.317c-0.015,0.059-0.029,0.132-0.029,0.2v1.426h-0.586V8.409c0-0.332-0.132-0.566-0.41-0.566
						c-0.225,0-0.376,0.176-0.43,0.342c-0.024,0.059-0.034,0.127-0.034,0.195v1.406h-0.586V8.116z"/>
					<path fill="#FFFFFF" d="M15.878,10.362c0.308-0.464,0.547-1.113,0.547-1.982s-0.239-1.509-0.547-1.978h0.435
						c0.283,0.391,0.596,1.025,0.596,1.982c-0.005,0.952-0.313,1.582-0.596,1.978H15.878z"/>
				</g>
			</g>
			<g>
				<path fill="#FFFFFF" d="M8.052,15.797c-0.153,0-0.323,0-0.535,0.025c-1.156,0.136-1.717,0.851-1.853,1.615h0.025
					c0.272-0.314,0.688-0.535,1.241-0.535c0.952,0,1.691,0.68,1.691,1.802c0,1.054-0.773,1.972-1.946,1.972
					c-1.343,0-2.083-1.021-2.083-2.38c0-1.063,0.382-1.93,0.96-2.481c0.51-0.477,1.173-0.748,1.964-0.816
					c0.229-0.025,0.399-0.025,0.527-0.017L8.052,15.797z M7.56,18.764c0-0.638-0.349-1.097-0.96-1.097
					c-0.391,0-0.739,0.238-0.901,0.569c-0.042,0.085-0.068,0.187-0.068,0.331c0.017,0.732,0.365,1.326,1.037,1.326
					C7.211,19.894,7.56,19.426,7.56,18.764z"/>
				<path fill="#FFFFFF" d="M13.272,17.786c0,1.776-0.697,2.89-2.014,2.89c-1.275,0-1.955-1.156-1.963-2.839
					c0-1.717,0.731-2.873,2.023-2.873C12.651,14.964,13.272,16.154,13.272,17.786z M10.348,17.837
					c-0.008,1.343,0.366,2.04,0.943,2.04c0.612,0,0.935-0.748,0.935-2.074c0-1.283-0.306-2.04-0.935-2.04
					C10.73,15.763,10.34,16.451,10.348,17.837z"/>
				<path fill="#FFFFFF" d="M18.029,17.786c0,1.776-0.697,2.89-2.014,2.89c-1.275,0-1.955-1.156-1.963-2.839
					c0-1.717,0.731-2.873,2.023-2.873C17.408,14.964,18.029,16.154,18.029,17.786z M15.105,17.837
					c-0.008,1.343,0.366,2.04,0.943,2.04c0.612,0,0.935-0.748,0.935-2.074c0-1.283-0.306-2.04-0.935-2.04
					C15.487,15.763,15.097,16.451,15.105,17.837z"/>
			</g>
		</g>
	</g>
</g>
</svg>
