<?xml version="1.0" encoding="utf-8"?>
<!-- Generator: Adobe Illustrator 16.0.3, SVG Export Plug-In . SVG Version: 6.00 Build 0)  -->
<!DOCTYPE svg PUBLIC "-//W3C//DTD SVG 1.1//EN" "http://www.w3.org/Graphics/SVG/1.1/DTD/svg11.dtd">
<svg version="1.1" xmlns="http://www.w3.org/2000/svg" xmlns:xlink="http://www.w3.org/1999/xlink" x="0px" y="0px" width="22.68px"
	 height="22.68px" viewBox="0 0 22.68 22.68" enable-background="new 0 0 22.68 22.68" xml:space="preserve">
<g id="BCGRND">
</g>
<g id="BAREVNE_BCGRND">
	<polygon fill="#585857" points="22.679,16.335 22.679,0 0.002,0 0.002,22.678 14.119,22.678 22.679,22.678 	"/>
</g>
<g id="IKONY">
	<g>
		<rect x="0.002" y="7.769" fill="#FFFFFF" width="22.678" height="0.889"/>
		<g>
			<g>
				<path fill="#FFFFFF" d="M2.403,2.279v1.318h1.392V2.279h0.601V5.57H3.795V4.12H2.403v1.45H1.802V2.279H2.403z"/>
				<path fill="#FFFFFF" d="M5.141,2.104h0.605V5.57H5.141V2.104z"/>
				<path fill="#FFFFFF" d="M8.576,4.857c0,0.283,0.01,0.518,0.02,0.713H8.068L8.039,5.209h-0.01
					C7.927,5.38,7.692,5.624,7.267,5.624c-0.435,0-0.83-0.259-0.83-1.035V3.192h0.601v1.294c0,0.396,0.127,0.649,0.444,0.649
					c0.239,0,0.396-0.171,0.459-0.322c0.02-0.054,0.034-0.117,0.034-0.186V3.192h0.601V4.857z"/>
				<path fill="#FFFFFF" d="M9.878,4.237h0.01c0.059-0.093,0.127-0.195,0.191-0.278l0.576-0.767h0.723l-0.879,0.972l1.006,1.406
					h-0.738l-0.684-1.05L9.878,4.76V5.57h-0.6V2.104h0.6V4.237z"/>
				<path fill="#FFFFFF" d="M13.886,2.187c-0.313,0.464-0.552,1.108-0.552,1.987c0,0.864,0.244,1.504,0.552,1.973h-0.439
					c-0.278-0.391-0.591-1.025-0.591-1.973c0.005-0.952,0.313-1.592,0.591-1.987H13.886z"/>
				<path fill="#FFFFFF" d="M16.589,2.104v2.798c0,0.244,0.01,0.508,0.02,0.669h-0.537l-0.024-0.376h-0.01
					c-0.142,0.264-0.43,0.43-0.776,0.43c-0.566,0-1.016-0.483-1.016-1.216c-0.005-0.796,0.493-1.27,1.064-1.27
					c0.327,0,0.562,0.137,0.669,0.313h0.01V2.104H16.589z M15.988,4.184c0-0.049-0.005-0.107-0.015-0.156
					c-0.054-0.234-0.244-0.425-0.518-0.425c-0.386,0-0.601,0.342-0.601,0.786c0,0.435,0.215,0.752,0.596,0.752
					c0.244,0,0.459-0.166,0.518-0.425c0.015-0.054,0.02-0.112,0.02-0.176V4.184z"/>
				<path fill="#FFFFFF" d="M17.309,2.323c0.191-0.039,0.537-0.068,0.875-0.068c0.443,0,0.717,0.054,0.941,0.21
					c0.205,0.122,0.342,0.337,0.342,0.615c0,0.303-0.189,0.581-0.547,0.713v0.01c0.348,0.088,0.664,0.361,0.664,0.815
					c0,0.293-0.127,0.522-0.316,0.679c-0.234,0.205-0.621,0.308-1.221,0.308c-0.332,0-0.586-0.024-0.738-0.044V2.323z M17.905,3.622
					h0.309c0.414,0,0.648-0.195,0.648-0.474c0-0.308-0.234-0.449-0.615-0.449c-0.176,0-0.277,0.01-0.342,0.024V3.622z M17.905,5.136
					c0.078,0.015,0.182,0.015,0.318,0.015c0.385,0,0.727-0.146,0.727-0.552c0-0.381-0.332-0.537-0.746-0.537h-0.299V5.136z"/>
				<path fill="#FFFFFF" d="M19.966,6.146c0.307-0.464,0.547-1.113,0.547-1.982s-0.24-1.509-0.547-1.978h0.434
					c0.283,0.391,0.596,1.025,0.596,1.982c-0.004,0.952-0.313,1.582-0.596,1.978H19.966z"/>
			</g>
		</g>
		<g>
			<path fill="#FFFFFF" d="M5.896,18.04c0.333,0.2,1.146,0.533,1.974,0.533c1.253,0,1.761-0.707,1.747-1.387
				c0-1.027-0.961-1.468-1.961-1.468h-0.76v-1.2H7.63c0.761,0,1.72-0.347,1.72-1.213c0-0.587-0.439-1.08-1.387-1.08
				c-0.707,0-1.413,0.307-1.773,0.546l-0.373-1.187c0.493-0.347,1.453-0.667,2.494-0.667c1.787,0,2.707,0.987,2.707,2.121
				c0,0.906-0.533,1.653-1.601,2.026v0.027c1.054,0.187,1.907,0.986,1.907,2.16c0,1.467-1.227,2.627-3.375,2.627
				c-1.053,0-1.96-0.293-2.427-0.6L5.896,18.04z"/>
			<path fill="#FFFFFF" d="M14.505,12.545h-0.026l-1.588,0.801l-0.279-1.24l2.107-1.041h1.373v8.669h-1.587V12.545z"/>
		</g>
	</g>
</g>
</svg>
