<?xml version="1.0" encoding="utf-8"?>
<!-- Generator: Adobe Illustrator 16.0.3, SVG Export Plug-In . SVG Version: 6.00 Build 0)  -->
<!DOCTYPE svg PUBLIC "-//W3C//DTD SVG 1.1//EN" "http://www.w3.org/Graphics/SVG/1.1/DTD/svg11.dtd">
<svg version="1.1" xmlns="http://www.w3.org/2000/svg" xmlns:xlink="http://www.w3.org/1999/xlink" x="0px" y="0px" width="22.68px"
	 height="22.68px" viewBox="0 0 22.68 22.68" enable-background="new 0 0 22.68 22.68" xml:space="preserve">
<g id="BCGRND">
</g>
<g id="IKONY">
	<rect x="0" fill="#585857" width="22.676" height="22.678"/>
	<g>
		<g>
			<rect x="0.001" y="7.769" fill="#FFFFFF" width="22.678" height="0.889"/>
		</g>
		<g>
			<path fill="#FFFFFF" d="M2.401,2.278v1.318h1.392V2.278h0.601v3.291H3.793v-1.45H2.401v1.45H1.801V2.278H2.401z"/>
			<path fill="#FFFFFF" d="M5.141,2.103h0.6v3.467h-0.6V2.103z"/>
			<path fill="#FFFFFF" d="M8.574,4.856c0,0.283,0.01,0.518,0.02,0.713H8.071L8.042,5.213H8.027c-0.103,0.166-0.337,0.41-0.767,0.41
				S6.436,5.364,6.436,4.588V3.191h0.601v1.294c0,0.396,0.127,0.649,0.444,0.649c0.244,0,0.4-0.166,0.459-0.322
				c0.024-0.049,0.034-0.117,0.034-0.186V3.191h0.601V4.856z"/>
			<path fill="#FFFFFF" d="M9.877,4.236h0.01c0.059-0.093,0.127-0.195,0.186-0.278l0.58-0.767h0.723l-0.883,0.972l1.006,1.406H10.76
				l-0.684-1.05L9.877,4.759v0.811H9.276V2.103h0.602V4.236z"/>
			<path fill="#FFFFFF" d="M13.885,2.186c-0.313,0.464-0.547,1.108-0.547,1.987c0,0.864,0.239,1.504,0.547,1.973H13.45
				c-0.283-0.391-0.596-1.03-0.596-1.973c0.005-0.957,0.313-1.592,0.596-1.987H13.885z"/>
			<path fill="#FFFFFF" d="M16.587,2.103V4.9c0,0.244,0.01,0.508,0.02,0.669h-0.532l-0.029-0.376h-0.01
				c-0.142,0.264-0.43,0.43-0.771,0.43c-0.571,0-1.021-0.483-1.021-1.216c-0.005-0.796,0.493-1.27,1.064-1.27
				c0.327,0,0.562,0.132,0.669,0.308h0.01V2.103H16.587z M15.986,4.183c0-0.049-0.005-0.112-0.015-0.161
				c-0.054-0.229-0.244-0.42-0.518-0.42c-0.386,0-0.601,0.342-0.601,0.781s0.215,0.757,0.596,0.757c0.244,0,0.459-0.166,0.518-0.425
				c0.015-0.054,0.02-0.112,0.02-0.176V4.183z"/>
			<path fill="#FFFFFF" d="M17.309,2.327c0.189-0.039,0.537-0.073,0.879-0.073c0.439,0,0.717,0.059,0.938,0.21
				c0.205,0.122,0.342,0.337,0.342,0.62c0,0.303-0.191,0.576-0.547,0.708v0.015c0.346,0.088,0.664,0.361,0.664,0.811
				c0,0.293-0.127,0.522-0.313,0.684c-0.234,0.2-0.621,0.303-1.227,0.303c-0.332,0-0.58-0.024-0.736-0.044V2.327z M17.904,3.626
				h0.307c0.42,0,0.65-0.195,0.65-0.474c0-0.313-0.234-0.454-0.615-0.454c-0.176,0-0.279,0.01-0.342,0.024V3.626z M17.904,5.135
				c0.078,0.015,0.18,0.015,0.316,0.015c0.387,0,0.732-0.142,0.732-0.547c0-0.386-0.336-0.542-0.752-0.542h-0.297V5.135z"/>
			<path fill="#FFFFFF" d="M19.963,6.146c0.309-0.464,0.547-1.113,0.547-1.982s-0.238-1.509-0.547-1.978h0.436
				c0.283,0.386,0.596,1.021,0.596,1.978c-0.006,0.952-0.313,1.587-0.596,1.982H19.963z"/>
		</g>
		<g>
			<path fill="#FFFFFF" d="M8.654,19.732v-2.2H4.721v-1.067l3.547-5.401h1.934v5.229h1.121v1.24h-1.121v2.2H8.654z M8.654,16.292
				v-2.36c0-0.494,0.027-0.987,0.054-1.508H8.654c-0.266,0.547-0.492,0.987-0.76,1.468l-1.6,2.373v0.027H8.654z"/>
			<path fill="#FFFFFF" d="M13.889,12.544h-0.027l-1.587,0.801l-0.28-1.24l2.121-1.041h1.359v8.669h-1.586V12.544z"/>
		</g>
	</g>
</g>
</svg>
