<?xml version="1.0" encoding="utf-8"?>
<!-- Generator: Adobe Illustrator 16.0.3, SVG Export Plug-In . SVG Version: 6.00 Build 0)  -->
<!DOCTYPE svg PUBLIC "-//W3C//DTD SVG 1.1//EN" "http://www.w3.org/Graphics/SVG/1.1/DTD/svg11.dtd">
<svg version="1.1" xmlns="http://www.w3.org/2000/svg" xmlns:xlink="http://www.w3.org/1999/xlink" x="0px" y="0px" width="22.68px"
	 height="22.68px" viewBox="0 0 22.68 22.68" enable-background="new 0 0 22.68 22.68" xml:space="preserve">
<g id="BCGRND">
</g>
<g id="IKONY">
	<rect fill="#585857" width="22.676" height="22.678"/>
	<g>
		<g>
			<rect x="0.002" y="7.769" fill="#FFFFFF" width="22.676" height="0.889"/>
		</g>
		<g>
			<g>
				<path fill="#FFFFFF" d="M2.401,2.278v1.318h1.392V2.278h0.601v3.291H3.793v-1.45H2.401v1.45H1.801V2.278H2.401z"/>
				<path fill="#FFFFFF" d="M5.141,2.102h0.605v3.467H5.141V2.102z"/>
				<path fill="#FFFFFF" d="M8.574,4.856c0,0.283,0.01,0.518,0.02,0.713H8.066L8.037,5.208h-0.01
					C7.925,5.378,7.69,5.623,7.266,5.623c-0.435,0-0.83-0.259-0.83-1.035V3.191h0.601v1.294c0,0.396,0.127,0.649,0.444,0.649
					c0.239,0,0.396-0.171,0.459-0.322c0.02-0.054,0.034-0.117,0.034-0.186V3.191h0.601V4.856z"/>
				<path fill="#FFFFFF" d="M9.877,4.236h0.01c0.059-0.093,0.127-0.195,0.189-0.278l0.576-0.767h0.723l-0.879,0.972l1.006,1.406
					h-0.736l-0.684-1.05L9.877,4.758v0.811H9.275V2.102h0.602V4.236z"/>
				<path fill="#FFFFFF" d="M13.885,2.185c-0.313,0.464-0.552,1.108-0.552,1.987c0,0.864,0.244,1.504,0.552,1.973h-0.439
					c-0.278-0.391-0.591-1.025-0.591-1.973c0.005-0.952,0.313-1.592,0.591-1.987H13.885z"/>
				<path fill="#FFFFFF" d="M16.587,2.102V4.9c0,0.244,0.01,0.508,0.02,0.669h-0.537l-0.024-0.376h-0.01
					c-0.142,0.264-0.43,0.43-0.776,0.43c-0.566,0-1.016-0.483-1.016-1.216c-0.005-0.796,0.493-1.27,1.064-1.27
					c0.327,0,0.562,0.137,0.669,0.313h0.01V2.102H16.587z M15.986,4.182c0-0.049-0.005-0.107-0.015-0.156
					c-0.054-0.234-0.244-0.425-0.518-0.425c-0.386,0-0.601,0.342-0.601,0.786c0,0.435,0.215,0.752,0.596,0.752
					c0.244,0,0.459-0.166,0.518-0.425c0.015-0.054,0.02-0.112,0.02-0.176V4.182z"/>
				<path fill="#FFFFFF" d="M17.309,2.322c0.189-0.039,0.537-0.068,0.873-0.068c0.445,0,0.719,0.054,0.943,0.21
					c0.205,0.122,0.342,0.337,0.342,0.615c0,0.303-0.191,0.581-0.547,0.713v0.01c0.346,0.088,0.664,0.361,0.664,0.815
					c0,0.293-0.127,0.522-0.318,0.679c-0.234,0.205-0.619,0.308-1.221,0.308c-0.332,0-0.586-0.024-0.736-0.044V2.322z M17.904,3.621
					h0.307c0.416,0,0.65-0.195,0.65-0.474c0-0.308-0.234-0.449-0.615-0.449c-0.176,0-0.279,0.01-0.342,0.024V3.621z M17.904,5.134
					c0.078,0.01,0.18,0.015,0.316,0.015c0.387,0,0.729-0.146,0.729-0.552c0-0.381-0.332-0.537-0.748-0.537h-0.297V5.134z"/>
				<path fill="#FFFFFF" d="M19.963,6.145c0.309-0.464,0.547-1.113,0.547-1.982s-0.238-1.509-0.547-1.978h0.436
					c0.283,0.391,0.596,1.025,0.596,1.982c-0.006,0.952-0.313,1.582-0.596,1.978H19.963z"/>
			</g>
		</g>
		<g>
			<path fill="#FFFFFF" d="M5.023,18.039c0.334,0.2,1.146,0.533,1.974,0.533c1.254,0,1.761-0.707,1.747-1.387
				c0-1.027-0.96-1.468-1.96-1.468H6.023v-1.2h0.734c0.76,0,1.72-0.347,1.72-1.213c0-0.587-0.44-1.08-1.387-1.08
				c-0.707,0-1.413,0.307-1.774,0.546l-0.373-1.187c0.494-0.347,1.453-0.667,2.494-0.667c1.787,0,2.707,0.987,2.707,2.121
				c0,0.906-0.533,1.653-1.6,2.026v0.027c1.053,0.187,1.906,0.986,1.906,2.16c0,1.467-1.227,2.627-3.374,2.627
				c-1.054,0-1.96-0.293-2.427-0.6L5.023,18.039z"/>
			<path fill="#FFFFFF" d="M11.545,17.504c0-1.08,0.627-1.813,1.627-2.254v-0.039c-0.907-0.44-1.32-1.161-1.32-1.921
				c0-1.414,1.254-2.374,2.895-2.374c1.866,0,2.72,1.12,2.72,2.188c0,0.733-0.387,1.493-1.333,1.96v0.04
				c0.946,0.36,1.653,1.107,1.653,2.188c0,1.547-1.308,2.587-3.161,2.587C12.598,19.878,11.545,18.718,11.545,17.504z
				 M16.119,17.424c0-0.88-0.653-1.359-1.613-1.627c-0.814,0.24-1.281,0.801-1.281,1.521c-0.026,0.733,0.534,1.4,1.454,1.4
				C15.545,18.718,16.119,18.171,16.119,17.424z M13.412,13.224c0,0.707,0.586,1.134,1.413,1.36
				c0.587-0.174,1.081-0.653,1.081-1.308c0-0.6-0.361-1.227-1.24-1.227C13.838,12.05,13.412,12.597,13.412,13.224z"/>
		</g>
	</g>
</g>
</svg>
