<?xml version="1.0" encoding="utf-8"?>
<!-- Generator: Adobe Illustrator 16.0.3, SVG Export Plug-In . SVG Version: 6.00 Build 0)  -->
<!DOCTYPE svg PUBLIC "-//W3C//DTD SVG 1.1//EN" "http://www.w3.org/Graphics/SVG/1.1/DTD/svg11.dtd">
<svg version="1.1" xmlns="http://www.w3.org/2000/svg" xmlns:xlink="http://www.w3.org/1999/xlink" x="0px" y="0px" width="22.68px"
	 height="22.68px" viewBox="0 0 22.68 22.68" enable-background="new 0 0 22.68 22.68" xml:space="preserve">
<g id="BCGRND">
</g>
<g id="BAREVNE_BCGRND">
	<polygon fill="#585857" points="22.678,16.335 22.678,0 0,0 0,22.678 14.117,22.678 22.678,22.678 	"/>
</g>
<g id="IKONY">
	<g>
		<rect y="7.769" fill="#FFFFFF" width="22.678" height="0.889"/>
		<g>
			<g>
				<path fill="#FFFFFF" d="M2.401,2.279v1.318h1.392V2.279h0.601V5.57H3.793V4.12H2.401v1.45H1.801V2.279H2.401z"/>
				<path fill="#FFFFFF" d="M5.14,2.104h0.605V5.57H5.14V2.104z"/>
				<path fill="#FFFFFF" d="M8.574,4.857c0,0.283,0.01,0.518,0.02,0.713H8.066L8.037,5.209h-0.01C7.925,5.38,7.69,5.624,7.266,5.624
					c-0.435,0-0.83-0.259-0.83-1.035V3.192h0.601v1.294c0,0.396,0.127,0.649,0.444,0.649c0.239,0,0.396-0.171,0.459-0.322
					c0.02-0.054,0.034-0.117,0.034-0.186V3.192h0.601V4.857z"/>
				<path fill="#FFFFFF" d="M9.876,4.237h0.01c0.059-0.093,0.127-0.195,0.191-0.278l0.576-0.767h0.723l-0.879,0.972l1.006,1.406
					h-0.738l-0.684-1.05L9.876,4.76V5.57h-0.6V2.104h0.6V4.237z"/>
				<path fill="#FFFFFF" d="M13.885,2.187c-0.313,0.464-0.552,1.108-0.552,1.987c0,0.864,0.244,1.504,0.552,1.973h-0.439
					c-0.278-0.391-0.591-1.025-0.591-1.973c0.005-0.952,0.313-1.592,0.591-1.987H13.885z"/>
				<path fill="#FFFFFF" d="M16.587,2.104v2.798c0,0.244,0.01,0.508,0.02,0.669h-0.537l-0.024-0.376h-0.01
					c-0.142,0.264-0.43,0.43-0.776,0.43c-0.566,0-1.016-0.483-1.016-1.216c-0.005-0.796,0.493-1.27,1.064-1.27
					c0.327,0,0.562,0.137,0.669,0.313h0.01V2.104H16.587z M15.986,4.184c0-0.049-0.005-0.107-0.015-0.156
					c-0.054-0.234-0.244-0.425-0.518-0.425c-0.386,0-0.601,0.342-0.601,0.786c0,0.435,0.215,0.752,0.596,0.752
					c0.244,0,0.459-0.166,0.518-0.425c0.015-0.054,0.02-0.112,0.02-0.176V4.184z"/>
				<path fill="#FFFFFF" d="M17.308,2.323c0.191-0.039,0.537-0.068,0.875-0.068c0.443,0,0.717,0.054,0.941,0.21
					c0.205,0.122,0.342,0.337,0.342,0.615c0,0.303-0.189,0.581-0.547,0.713v0.01c0.348,0.088,0.664,0.361,0.664,0.815
					c0,0.293-0.127,0.522-0.316,0.679c-0.234,0.205-0.621,0.308-1.221,0.308c-0.332,0-0.586-0.024-0.738-0.044V2.323z M17.903,3.622
					h0.309c0.414,0,0.648-0.195,0.648-0.474c0-0.308-0.234-0.449-0.615-0.449c-0.176,0-0.277,0.01-0.342,0.024V3.622z M17.903,5.136
					c0.078,0.015,0.182,0.015,0.318,0.015c0.385,0,0.727-0.146,0.727-0.552c0-0.381-0.332-0.537-0.746-0.537h-0.299V5.136z"/>
				<path fill="#FFFFFF" d="M19.964,6.146c0.307-0.464,0.547-1.113,0.547-1.982s-0.24-1.509-0.547-1.978h0.434
					c0.283,0.391,0.596,1.025,0.596,1.982c-0.004,0.952-0.313,1.582-0.596,1.978H19.964z"/>
			</g>
		</g>
	</g>
	<g>
		<path fill="#FFFFFF" d="M4.713,19.733v-1l1.026-0.947c2.04-1.894,3.001-2.934,3.015-4.081c0-0.773-0.414-1.453-1.547-1.453
			c-0.761,0-1.414,0.387-1.854,0.72l-0.479-1.16c0.627-0.507,1.573-0.894,2.667-0.894c1.921,0,2.854,1.214,2.854,2.627
			c0,1.521-1.094,2.748-2.602,4.148l-0.76,0.653v0.026h3.561v1.36H4.713z"/>
		<path fill="#FFFFFF" d="M12.309,18.56c0.254,0.027,0.507,0.014,0.906-0.026c0.641-0.054,1.281-0.28,1.762-0.667
			c0.56-0.453,0.946-1.106,1.106-1.92l-0.026-0.014c-0.44,0.493-1.055,0.773-1.881,0.773c-1.521,0-2.641-1.094-2.641-2.694
			c0-1.653,1.28-3.094,3.134-3.094c2.015,0,3.095,1.587,3.095,3.694c0,1.854-0.614,3.174-1.508,4.027
			c-0.76,0.707-1.801,1.107-2.961,1.188c-0.373,0.04-0.746,0.04-0.986,0.026V18.56z M14.576,12.132
			c-0.814,0-1.414,0.733-1.414,1.787c0.014,0.894,0.52,1.587,1.427,1.587c0.667,0,1.147-0.307,1.4-0.72
			c0.054-0.107,0.094-0.24,0.094-0.467c0.013-1.174-0.427-2.188-1.494-2.188H14.576z"/>
	</g>
</g>
</svg>
