<?xml version="1.0" encoding="utf-8"?>
<!-- Generator: Adobe Illustrator 16.0.3, SVG Export Plug-In . SVG Version: 6.00 Build 0)  -->
<!DOCTYPE svg PUBLIC "-//W3C//DTD SVG 1.1//EN" "http://www.w3.org/Graphics/SVG/1.1/DTD/svg11.dtd">
<svg version="1.1" xmlns="http://www.w3.org/2000/svg" xmlns:xlink="http://www.w3.org/1999/xlink" x="0px" y="0px" width="22.68px"
	 height="22.68px" viewBox="0 0 22.68 22.68" enable-background="new 0 0 22.68 22.68" xml:space="preserve">
<g id="BCGRND">
</g>
<g id="IKONY">
	<g>
		<polygon fill="#585857" points="22.676,16.335 22.676,0 0,0 0,22.679 14.117,22.679 22.676,22.679 		"/>
		<g>
			<rect y="7.77" fill="#FFFFFF" width="22.676" height="0.889"/>
		</g>
		<g>
			<g>
				<path fill="#FFFFFF" d="M2.399,2.279v1.318h1.392V2.279h0.601V5.57H3.791V4.12H2.399v1.45H1.799V2.279H2.399z"/>
				<path fill="#FFFFFF" d="M5.139,2.103h0.605V5.57H5.139V2.103z"/>
				<path fill="#FFFFFF" d="M8.572,4.857c0,0.283,0.01,0.518,0.02,0.713H8.064L8.035,5.208h-0.01
					C7.923,5.379,7.688,5.624,7.264,5.624c-0.435,0-0.83-0.259-0.83-1.035V3.192h0.601v1.294c0,0.396,0.127,0.649,0.444,0.649
					c0.239,0,0.396-0.171,0.459-0.322c0.02-0.054,0.034-0.117,0.034-0.186V3.192h0.601V4.857z"/>
				<path fill="#FFFFFF" d="M9.875,4.237h0.01c0.059-0.093,0.127-0.195,0.189-0.278l0.576-0.767h0.723l-0.879,0.972L11.5,5.57
					h-0.736L10.08,4.52L9.875,4.759V5.57H9.273V2.103h0.602V4.237z"/>
				<path fill="#FFFFFF" d="M13.883,2.186c-0.313,0.464-0.552,1.108-0.552,1.987c0,0.864,0.244,1.504,0.552,1.973h-0.439
					c-0.278-0.391-0.591-1.025-0.591-1.973c0.005-0.952,0.313-1.592,0.591-1.987H13.883z"/>
				<path fill="#FFFFFF" d="M16.585,2.103v2.798c0,0.244,0.01,0.508,0.02,0.669h-0.537l-0.024-0.376h-0.01
					c-0.142,0.264-0.43,0.43-0.776,0.43c-0.566,0-1.016-0.483-1.016-1.216c-0.005-0.796,0.493-1.27,1.064-1.27
					c0.327,0,0.562,0.137,0.669,0.313h0.01V2.103H16.585z M15.984,4.183c0-0.049-0.005-0.107-0.015-0.156
					c-0.054-0.234-0.244-0.425-0.518-0.425c-0.386,0-0.601,0.342-0.601,0.786c0,0.435,0.215,0.752,0.596,0.752
					c0.244,0,0.459-0.166,0.518-0.425c0.015-0.054,0.02-0.112,0.02-0.176V4.183z"/>
				<path fill="#FFFFFF" d="M17.307,2.323c0.189-0.039,0.537-0.068,0.873-0.068c0.445,0,0.719,0.054,0.943,0.21
					c0.205,0.122,0.342,0.337,0.342,0.615c0,0.303-0.191,0.581-0.547,0.713v0.01c0.346,0.088,0.664,0.361,0.664,0.815
					c0,0.293-0.127,0.522-0.318,0.679c-0.234,0.205-0.619,0.308-1.221,0.308c-0.332,0-0.586-0.024-0.736-0.044V2.323z M17.902,3.622
					h0.307c0.416,0,0.65-0.195,0.65-0.474c0-0.308-0.234-0.449-0.615-0.449c-0.176,0-0.279,0.01-0.342,0.024V3.622z M17.902,5.135
					c0.078,0.01,0.18,0.015,0.316,0.015c0.387,0,0.729-0.146,0.729-0.552c0-0.381-0.332-0.537-0.748-0.537h-0.297V5.135z"/>
				<path fill="#FFFFFF" d="M19.961,6.146c0.309-0.464,0.547-1.113,0.547-1.982s-0.238-1.509-0.547-1.978h0.436
					c0.283,0.391,0.596,1.025,0.596,1.982c-0.006,0.952-0.313,1.582-0.596,1.978H19.961z"/>
			</g>
		</g>
		<g>
			<path fill="#FFFFFF" d="M5.111,18.04c0.334,0.2,1.146,0.533,1.974,0.533c1.254,0,1.761-0.707,1.747-1.387
				c0-1.027-0.96-1.468-1.96-1.468H6.111v-1.2h0.734c0.76,0,1.72-0.347,1.72-1.213c0-0.587-0.44-1.08-1.387-1.08
				c-0.707,0-1.413,0.307-1.774,0.546l-0.373-1.187c0.494-0.347,1.453-0.667,2.494-0.667c1.787,0,2.707,0.987,2.707,2.121
				c0,0.906-0.533,1.653-1.6,2.026v0.027c1.053,0.187,1.906,0.986,1.906,2.16c0,1.467-1.227,2.627-3.374,2.627
				c-1.054,0-1.96-0.293-2.427-0.6L5.111,18.04z"/>
			<path fill="#FFFFFF" d="M12.24,18.559c0.253,0.027,0.506,0.014,0.906-0.026c0.641-0.054,1.28-0.28,1.761-0.667
				c0.56-0.453,0.946-1.106,1.106-1.92l-0.026-0.014c-0.44,0.493-1.054,0.773-1.894,0.773c-1.508,0-2.627-1.094-2.627-2.694
				c0-1.653,1.279-3.094,3.133-3.094c2.015,0,3.095,1.587,3.095,3.694c0,1.854-0.613,3.174-1.507,4.027
				c-0.76,0.707-1.801,1.107-2.961,1.188c-0.373,0.04-0.746,0.04-0.986,0.026V18.559z M13.094,13.918
				c0.013,0.894,0.52,1.587,1.427,1.587c0.667,0,1.146-0.307,1.399-0.72c0.055-0.107,0.094-0.24,0.094-0.467
				c0.014-1.174-0.427-2.188-1.493-2.188C13.693,12.131,13.094,12.865,13.094,13.918z"/>
		</g>
	</g>
</g>
</svg>
