<?xml version="1.0" encoding="utf-8"?>
<!-- Generator: Adobe Illustrator 16.0.3, SVG Export Plug-In . SVG Version: 6.00 Build 0)  -->
<!DOCTYPE svg PUBLIC "-//W3C//DTD SVG 1.1//EN" "http://www.w3.org/Graphics/SVG/1.1/DTD/svg11.dtd">
<svg version="1.1" xmlns="http://www.w3.org/2000/svg" xmlns:xlink="http://www.w3.org/1999/xlink" x="0px" y="0px" width="22.68px"
	 height="22.68px" viewBox="0 0 22.68 22.68" enable-background="new 0 0 22.68 22.68" xml:space="preserve">
<g id="BCGRND">
</g>
<g id="IKONY">
	<rect fill="#585857" width="22.676" height="22.678"/>
	<g>
		<g>
			<rect x="0.002" y="7.769" fill="#FFFFFF" width="22.677" height="0.889"/>
		</g>
		<g>
			<g>
				<path fill="#FFFFFF" d="M2.402,2.278v1.318h1.392V2.278h0.601v3.291H3.793v-1.45H2.402v1.45H1.801V2.278H2.402z"/>
				<path fill="#FFFFFF" d="M5.141,2.102h0.605v3.467H5.141V2.102z"/>
				<path fill="#FFFFFF" d="M8.575,4.856c0,0.283,0.01,0.518,0.02,0.713H8.067L8.038,5.208h-0.01
					C7.925,5.378,7.691,5.623,7.266,5.623c-0.435,0-0.83-0.259-0.83-1.035V3.191h0.601v1.294c0,0.396,0.127,0.649,0.444,0.649
					c0.239,0,0.396-0.171,0.459-0.322c0.02-0.054,0.034-0.117,0.034-0.186V3.191h0.601V4.856z"/>
				<path fill="#FFFFFF" d="M9.877,4.236h0.01c0.059-0.093,0.127-0.195,0.19-0.278l0.576-0.767h0.723l-0.879,0.972l1.006,1.406
					h-0.737l-0.684-1.05L9.877,4.758v0.811H9.276V2.102h0.601V4.236z"/>
				<path fill="#FFFFFF" d="M13.885,2.185c-0.313,0.464-0.552,1.108-0.552,1.987c0,0.864,0.244,1.504,0.552,1.973h-0.439
					c-0.278-0.391-0.591-1.025-0.591-1.973c0.005-0.952,0.313-1.592,0.591-1.987H13.885z"/>
				<path fill="#FFFFFF" d="M16.587,2.102V4.9c0,0.244,0.01,0.508,0.02,0.669H16.07l-0.024-0.376h-0.01
					c-0.142,0.264-0.43,0.43-0.776,0.43c-0.566,0-1.016-0.483-1.016-1.216c-0.005-0.796,0.493-1.27,1.064-1.27
					c0.327,0,0.562,0.137,0.669,0.313h0.01V2.102H16.587z M15.987,4.182c0-0.049-0.005-0.107-0.015-0.156
					c-0.054-0.234-0.244-0.425-0.518-0.425c-0.386,0-0.601,0.342-0.601,0.786c0,0.435,0.215,0.752,0.596,0.752
					c0.244,0,0.459-0.166,0.518-0.425c0.015-0.054,0.02-0.112,0.02-0.176V4.182z"/>
				<path fill="#FFFFFF" d="M17.309,2.322c0.19-0.039,0.537-0.068,0.874-0.068c0.444,0,0.718,0.054,0.942,0.21
					c0.205,0.122,0.342,0.337,0.342,0.615c0,0.303-0.19,0.581-0.547,0.713v0.01c0.347,0.088,0.664,0.361,0.664,0.815
					c0,0.293-0.127,0.522-0.317,0.679c-0.234,0.205-0.62,0.308-1.221,0.308c-0.332,0-0.586-0.024-0.737-0.044V2.322z M17.904,3.621
					h0.308c0.415,0,0.649-0.195,0.649-0.474c0-0.308-0.234-0.449-0.615-0.449c-0.176,0-0.278,0.01-0.342,0.024V3.621z M17.904,5.134
					c0.078,0.01,0.181,0.015,0.317,0.015c0.386,0,0.728-0.146,0.728-0.552c0-0.381-0.332-0.537-0.747-0.537h-0.298V5.134z"/>
				<path fill="#FFFFFF" d="M19.964,6.145c0.308-0.464,0.547-1.113,0.547-1.982s-0.239-1.509-0.547-1.978h0.435
					c0.283,0.391,0.596,1.025,0.596,1.982c-0.005,0.952-0.313,1.582-0.596,1.978H19.964z"/>
			</g>
		</g>
		<g>
			<path fill="#FFFFFF" d="M8.338,19.732v-2.201H4.417v-1.066l3.534-5.402h1.934v5.228h1.121v1.24H9.885v2.201H8.338z M8.338,16.291
				v-2.359c0-0.494,0.013-1.002,0.053-1.508H8.338c-0.267,0.547-0.493,0.986-0.76,1.467l-1.587,2.373l-0.013,0.027H8.338z"/>
			<path fill="#FFFFFF" d="M12.299,18.559c0.253,0.027,0.507,0.014,0.907-0.027c0.64-0.053,1.28-0.279,1.761-0.666
				c0.56-0.453,0.947-1.107,1.106-1.92l-0.026-0.014c-0.44,0.492-1.054,0.773-1.894,0.773c-1.507,0-2.627-1.094-2.627-2.695
				c0-1.652,1.28-3.093,3.134-3.093c2.014,0,3.094,1.587,3.094,3.695c0,1.854-0.613,3.174-1.507,4.027
				c-0.76,0.707-1.801,1.107-2.961,1.188c-0.374,0.039-0.747,0.039-0.987,0.025V18.559z M13.152,13.918
				c0.013,0.893,0.52,1.586,1.427,1.586c0.667,0,1.146-0.307,1.4-0.719c0.054-0.107,0.093-0.24,0.093-0.467
				c0.014-1.174-0.427-2.188-1.493-2.188C13.752,12.131,13.152,12.863,13.152,13.918z"/>
		</g>
	</g>
</g>
</svg>
