<?xml version="1.0" encoding="utf-8"?>
<!-- Generator: Adobe Illustrator 16.0.3, SVG Export Plug-In . SVG Version: 6.00 Build 0)  -->
<!DOCTYPE svg PUBLIC "-//W3C//DTD SVG 1.1//EN" "http://www.w3.org/Graphics/SVG/1.1/DTD/svg11.dtd">
<svg version="1.1" xmlns="http://www.w3.org/2000/svg" xmlns:xlink="http://www.w3.org/1999/xlink" x="0px" y="0px" width="22.68px"
	 height="22.68px" viewBox="0 0 22.68 22.68" enable-background="new 0 0 22.68 22.68" xml:space="preserve">
<g id="BCGRND">
</g>
<g id="IKONY">
	<g>
		<rect fill="#585857" width="22.68" height="22.678"/>
		<g>
			<g>
				<rect x="0.002" y="11.956" fill="#FFFFFF" width="22.675" height="0.889"/>
			</g>
			<g>
				<g>
					<path fill="none" d="M12.273,18.77c-0.693,0.223-2.387,0.346-3.449-0.859c-1.066-1.203-0.762-1.768-0.434-2.109
						c0.322-0.34,1.512-0.303,1.896-0.287c0.338,0.217,0.742,0.336,1.174,0.309c0.518-0.033,0.973-0.268,1.303-0.617
						c0.082,0.807,0.445,1.424,0.469,1.99C13.265,17.93,12.966,18.547,12.273,18.77z"/>
					<path opacity="0.5" fill="#FFFFFF" d="M11.339,19.994c3.366,0,6.104-2.736,6.104-6.102c0-0.516-0.071-1.014-0.193-1.492h-0.512
						c0.132,0.475,0.208,0.975,0.208,1.492c0,3.09-2.516,5.605-5.607,5.605c-3.091,0-5.605-2.516-5.605-5.605
						c0-0.518,0.076-1.018,0.208-1.492H5.43c-0.121,0.479-0.192,0.977-0.192,1.492C5.238,17.258,7.975,19.994,11.339,19.994z"/>
					<path fill="#FFFFFF" d="M7.517,14.25c0.529,0.205,1.24,0.119,2.014,0.367c-0.084-0.197-0.145-0.41-0.16-0.639
						c-0.039-0.629,0.238-1.191,0.678-1.578H6.521c-0.028,0.123-0.049,0.238-0.059,0.336C6.388,13.463,6.831,13.982,7.517,14.25z"/>
					<path fill="#FFFFFF" d="M13.302,13.732c0.004,0.045-0.006,0.09-0.004,0.135l0.002,0.002c0.188,0.334,0.783,1.369,1.246,1.465
						c0.463,0.094,1.102,0.057,1.563-1.482c0.153-0.514,0.137-1.004,0.036-1.451h-3.497C13.02,12.73,13.27,13.197,13.302,13.732z"/>
					<path fill="#FFFFFF" d="M11.46,15.822c-0.432,0.027-0.836-0.092-1.174-0.309c-0.385-0.016-1.574-0.053-1.896,0.287
						c-0.328,0.342-0.633,0.906,0.434,2.109c1.063,1.205,2.756,1.082,3.449,0.859s0.992-0.84,0.959-1.574
						c-0.023-0.566-0.387-1.184-0.469-1.99C12.433,15.555,11.978,15.789,11.46,15.822z"/>
					<path opacity="0.5" fill="#FFFFFF" d="M10.279,13.922c0.006,0.096,0.041,0.182,0.07,0.271c0.115,0.336,0.381,0.588,0.725,0.676
						c0.106,0.029,0.213,0.053,0.33,0.047c0.256-0.016,0.474-0.131,0.648-0.295c0.223-0.209,0.365-0.5,0.344-0.832
						c-0.004-0.092-0.041-0.172-0.068-0.254c-0.109-0.342-0.375-0.602-0.721-0.693c-0.107-0.027-0.219-0.053-0.336-0.047
						c-0.311,0.02-0.574,0.174-0.756,0.398C10.355,13.395,10.261,13.646,10.279,13.922z"/>
					<path opacity="0.5" fill="#FFFFFF" d="M0.012,20.729c0.443,0.107,0.895,0.277,0.901,0.281c0.045,0.025,0.747,0.445,1.676,0.445
						c0.481,0,1.021-0.111,1.564-0.447c1.334-0.822,2.719-0.006,2.732,0.002c0.148,0.088,0.32,0.008,0.391-0.18
						c0.068-0.186,0.006-0.41-0.139-0.498c-0.067-0.039-1.646-0.98-3.24,0c-1.333,0.824-2.719,0.01-2.733,0
						c-0.035-0.021-0.497-0.287-1.153-0.396V20.729z"/>
					<path opacity="0.5" fill="#FFFFFF" d="M2.24,18.898c1.333-0.822,2.719-0.006,2.733,0.002c0.146,0.088,0.32,0.01,0.391-0.18
						c0.068-0.186,0.008-0.408-0.139-0.498c-0.066-0.041-1.646-0.982-3.24,0C1.259,18.668,0.527,18.629,0,18.502v0.77
						c0.204,0.043,0.431,0.072,0.675,0.072C1.156,19.344,1.697,19.232,2.24,18.898z"/>
					<path opacity="0.5" fill="#FFFFFF" d="M4.122,16.875c0.146,0.088,0.32,0.008,0.391-0.18c0.068-0.186,0.008-0.408-0.139-0.498
						c-0.066-0.041-1.647-0.982-3.24,0C0.747,16.436,0.361,16.527,0,16.551v0.758c0.437-0.025,0.911-0.141,1.39-0.436
						C2.723,16.053,4.109,16.867,4.122,16.875z"/>
					<path opacity="0.5" fill="#FFFFFF" d="M3.698,14.752c0.146,0.088,0.32,0.008,0.391-0.18c0.068-0.186,0.008-0.408-0.139-0.498
						c-0.066-0.041-1.647-0.982-3.24,0C0.471,14.221,0.234,14.301,0,14.357v0.771c0.313-0.064,0.638-0.178,0.965-0.379
						C2.298,13.93,3.684,14.744,3.698,14.752z"/>
					<path opacity="0.5" fill="#FFFFFF" d="M22.677,20.729c0,0-0.906,0.277-0.912,0.281c-0.045,0.025-0.747,0.445-1.676,0.445
						c-0.481,0-1.021-0.111-1.564-0.447c-1.334-0.822-2.719-0.006-2.732,0.002c-0.148,0.088-0.32,0.008-0.391-0.18
						c-0.068-0.186-0.006-0.41,0.138-0.498c0.068-0.039,1.647-0.98,3.24,0c1.333,0.824,2.719,0.01,2.732,0
						c0.035-0.021,0.508-0.287,1.164-0.396V20.729z"/>
					<path opacity="0.5" fill="#FFFFFF" d="M20.695,18.223c-1.594-0.982-3.174-0.041-3.24,0c-0.146,0.09-0.207,0.313-0.139,0.498
						c0.07,0.189,0.244,0.268,0.391,0.18c0.014-0.008,1.4-0.824,2.733-0.002c0.543,0.334,1.083,0.445,1.564,0.445
						c0.244,0,0.471-0.029,0.675-0.072v-0.08c0-0.213,0-0.445,0-0.689C22.152,18.629,21.419,18.668,20.695,18.223z"/>
					<path opacity="0.5" fill="#FFFFFF" d="M18.304,16.197c-0.147,0.09-0.207,0.313-0.139,0.498c0.07,0.188,0.244,0.268,0.391,0.18
						c0.014-0.008,1.399-0.822,2.732-0.002c0.479,0.295,0.953,0.41,1.39,0.436c0-0.25,0-0.502,0-0.758
						c-0.36-0.023-0.747-0.115-1.134-0.354C19.951,15.215,18.37,16.156,18.304,16.197z"/>
					<path opacity="0.5" fill="#FFFFFF" d="M18.729,14.074c-0.147,0.09-0.207,0.313-0.139,0.498c0.07,0.188,0.244,0.268,0.391,0.18
						c0.014-0.008,1.399-0.822,2.732-0.002c0.327,0.201,0.651,0.314,0.965,0.379c0-0.268,0-0.523,0-0.771
						c-0.233-0.057-0.471-0.137-0.709-0.283C20.375,13.092,18.795,14.033,18.729,14.074z"/>
				</g>
				<path fill="#FFFFFF" d="M10.478,12.67c-0.394,0.287-0.641,0.758-0.607,1.277c0.021,0.34,0.16,0.643,0.371,0.879
					c0.103,0.115,0.221,0.219,0.353,0.297c0.244,0.145,0.531,0.219,0.836,0.199c0.557-0.033,1.016-0.383,1.234-0.857
					c0.092-0.197,0.143-0.416,0.137-0.646c-0.002-0.02,0.002-0.037,0.002-0.055c-0.046-0.729-0.622-1.297-1.326-1.363h-0.291
					c-0.012,0.002-0.022,0.002-0.033,0.004C10.904,12.438,10.671,12.529,10.478,12.67z M11.607,12.842
					c0.346,0.092,0.611,0.352,0.721,0.693c0.027,0.082,0.065,0.162,0.068,0.254c0.021,0.332-0.121,0.623-0.344,0.832
					c-0.174,0.164-0.392,0.279-0.648,0.295c-0.117,0.006-0.225-0.018-0.33-0.047c-0.344-0.088-0.609-0.34-0.725-0.676
					c-0.029-0.09-0.064-0.176-0.07-0.271c-0.018-0.275,0.076-0.527,0.236-0.729c0.182-0.225,0.445-0.379,0.756-0.398
					C11.388,12.789,11.499,12.814,11.607,12.842z"/>
			</g>
		</g>
	</g>
	<g>
		<g>
			<path fill="#FFFFFF" d="M3.136,5.286V4.529H1.73V4.045l1.201-1.934h0.908v1.86H4.22v0.557H3.839v0.757H3.136z M3.136,3.972V3.269
				c0-0.19,0.01-0.386,0.024-0.591h-0.02C3.038,2.883,2.955,3.069,2.848,3.269L2.423,3.962v0.01H3.136z"/>
			<path fill="#FFFFFF" d="M4.604,2.039C4.878,1.995,5.234,1.97,5.61,1.97c0.625,0,1.03,0.112,1.348,0.352
				C7.3,2.576,7.514,2.981,7.514,3.562c0,0.63-0.229,1.064-0.547,1.333C6.621,5.183,6.094,5.32,5.449,5.32
				c-0.386,0-0.659-0.024-0.845-0.049V2.039z M5.351,4.724C5.415,4.739,5.517,4.739,5.61,4.739c0.674,0.005,1.113-0.366,1.113-1.152
				c0.005-0.684-0.396-1.045-1.035-1.045c-0.166,0-0.273,0.015-0.337,0.029V4.724z"/>
			<path fill="#FFFFFF" d="M9.522,1.995v1.318h1.392V1.995h0.601v3.291h-0.601v-1.45H9.522v1.45H8.921V1.995H9.522z"/>
			<path fill="#FFFFFF" d="M14.394,4.075c0,0.874-0.615,1.265-1.221,1.265c-0.674,0-1.191-0.464-1.191-1.226
				c0-0.781,0.513-1.26,1.23-1.26C13.92,2.854,14.394,3.352,14.394,4.075z M12.602,4.099c0,0.459,0.225,0.806,0.591,0.806
				c0.342,0,0.581-0.337,0.581-0.815c0-0.371-0.166-0.796-0.576-0.796C12.773,3.293,12.602,3.704,12.602,4.099z"/>
			<path fill="#FFFFFF" d="M14.842,3.674c0-0.322-0.005-0.552-0.02-0.767h0.522l0.02,0.454h0.02
				c0.117-0.337,0.396-0.508,0.649-0.508c0.059,0,0.093,0.005,0.142,0.015v0.566c-0.049-0.01-0.103-0.02-0.176-0.02
				c-0.288,0-0.483,0.186-0.537,0.454c-0.01,0.054-0.02,0.117-0.02,0.186v1.23h-0.601V3.674z"/>
			<path fill="#FFFFFF" d="M17.134,3.953h0.01c0.059-0.093,0.127-0.195,0.19-0.278l0.576-0.767h0.723l-0.879,0.972l1.006,1.406
				h-0.737l-0.684-1.05l-0.205,0.239v0.811h-0.601V1.819h0.601V3.953z"/>
			<path fill="#FFFFFF" d="M19.388,2.908l0.43,1.274c0.049,0.146,0.098,0.327,0.132,0.464h0.015
				c0.039-0.137,0.083-0.313,0.127-0.469l0.371-1.27h0.645l-0.596,1.621c-0.327,0.889-0.547,1.284-0.83,1.528
				c-0.234,0.21-0.479,0.288-0.63,0.308l-0.137-0.508c0.103-0.024,0.229-0.078,0.352-0.166c0.112-0.073,0.244-0.215,0.327-0.376
				c0.024-0.044,0.039-0.078,0.039-0.107c0-0.024-0.005-0.059-0.034-0.117l-0.869-2.183H19.388z M20.706,1.877L20.106,2.6h-0.415
				l0.425-0.723H20.706z"/>
			<path fill="#FFFFFF" d="M4.203,7.408l0.386,1.206c0.068,0.211,0.117,0.4,0.161,0.596h0.015c0.044-0.195,0.098-0.381,0.161-0.596
				l0.376-1.206h0.635L5.028,9.785H4.437L3.553,7.408H4.203z"/>
			<path fill="#FFFFFF" d="M6.179,9.439l0.894-1.143C7.195,8.15,7.297,8.033,7.424,7.896v-0.01H6.267V7.408h1.89v0.366L7.282,8.893
				C7.165,9.033,7.053,9.17,6.931,9.297v0.01h1.255v0.479H6.179V9.439z"/>
			<path fill="#FFFFFF" d="M10.86,6.319v2.798c0,0.244,0.01,0.508,0.02,0.668h-0.537L10.318,9.41h-0.01
				c-0.142,0.264-0.43,0.43-0.776,0.43c-0.566,0-1.016-0.484-1.016-1.217C8.511,7.828,9.009,7.354,9.58,7.354
				c0.327,0,0.562,0.137,0.669,0.313h0.01V6.319H10.86z M10.259,8.398c0-0.049-0.005-0.107-0.015-0.156
				C10.191,8.008,10,7.818,9.727,7.818c-0.386,0-0.601,0.342-0.601,0.786c0,0.436,0.215,0.752,0.596,0.752
				c0.244,0,0.459-0.166,0.518-0.424c0.015-0.055,0.02-0.113,0.02-0.176V8.398z"/>
			<path fill="#FFFFFF" d="M13.734,9.072c0,0.283,0.01,0.518,0.02,0.713h-0.527l-0.029-0.361h-0.01
				C13.085,9.596,12.85,9.84,12.426,9.84c-0.435,0-0.83-0.26-0.83-1.035V7.408h0.601v1.293c0,0.396,0.127,0.65,0.444,0.65
				c0.239,0,0.396-0.172,0.459-0.322c0.02-0.055,0.034-0.117,0.034-0.186V7.408h0.601V9.072z"/>
			<path fill="#FFFFFF" d="M16.233,9.713c-0.127,0.059-0.376,0.121-0.674,0.121c-0.742,0-1.226-0.473-1.226-1.211
				c0-0.712,0.488-1.269,1.323-1.269c0.22,0,0.444,0.049,0.581,0.112L16.13,7.916c-0.098-0.044-0.239-0.093-0.454-0.093
				c-0.459,0-0.732,0.337-0.728,0.771c0,0.488,0.317,0.768,0.728,0.768c0.21,0,0.356-0.045,0.474-0.094L16.233,9.713z"/>
			<path fill="#FFFFFF" d="M16.778,6.319h0.605v1.416h0.01c0.073-0.112,0.171-0.205,0.298-0.273c0.117-0.068,0.259-0.107,0.41-0.107
				c0.405,0,0.83,0.269,0.83,1.031v1.4H18.33V8.453c0-0.347-0.127-0.606-0.459-0.606c-0.234,0-0.4,0.156-0.464,0.336
				c-0.02,0.049-0.024,0.113-0.024,0.182v1.42h-0.605V6.319z"/>
		</g>
	</g>
</g>
</svg>
