<?xml version="1.0" encoding="utf-8"?>
<!-- Generator: Adobe Illustrator 16.0.3, SVG Export Plug-In . SVG Version: 6.00 Build 0)  -->
<!DOCTYPE svg PUBLIC "-//W3C//DTD SVG 1.1//EN" "http://www.w3.org/Graphics/SVG/1.1/DTD/svg11.dtd">
<svg version="1.1" xmlns="http://www.w3.org/2000/svg" xmlns:xlink="http://www.w3.org/1999/xlink" x="0px" y="0px" width="22.68px"
	 height="22.68px" viewBox="0 0 22.68 22.68" enable-background="new 0 0 22.68 22.68" xml:space="preserve">
<g id="BCGRND">
</g>
<g id="IKONY">
	<g>
		<rect fill="#585857" width="22.678" height="22.68"/>
		<g>
			<g>
				<g>
					<g>
						<g>
							<rect y="7.77" fill="#FFFFFF" width="22.678" height="0.889"/>
						</g>
						<g>
							<g>
								<path fill="#FFFFFF" d="M3.637,2.279v1.318h1.392V2.279h0.601V5.57H5.028V4.12H3.637v1.45H3.036V2.279H3.637z"/>
								<path fill="#FFFFFF" d="M6.653,3.192l0.43,1.274c0.049,0.146,0.098,0.327,0.132,0.464h0.015
									c0.039-0.137,0.083-0.313,0.127-0.469l0.371-1.27h0.645L7.776,4.813c-0.327,0.889-0.547,1.284-0.83,1.528
									c-0.234,0.21-0.479,0.288-0.63,0.308L6.18,6.142c0.103-0.024,0.229-0.078,0.352-0.166C6.644,5.902,6.775,5.761,6.858,5.6
									c0.024-0.044,0.039-0.078,0.039-0.107c0-0.024-0.005-0.059-0.034-0.117L5.994,3.192H6.653z"/>
								<path fill="#FFFFFF" d="M10.82,3.192c-0.01,0.161-0.02,0.356-0.02,0.684v1.348c0,0.498-0.103,0.854-0.352,1.079
									C10.2,6.522,9.858,6.591,9.531,6.591c-0.303,0-0.625-0.063-0.83-0.19l0.132-0.454c0.151,0.088,0.405,0.181,0.693,0.181
									c0.391,0,0.684-0.205,0.684-0.718V5.204H10.2c-0.137,0.21-0.381,0.352-0.693,0.352c-0.591,0-1.011-0.488-1.011-1.162
									c0-0.781,0.508-1.255,1.079-1.255c0.361,0,0.576,0.176,0.688,0.371h0.01l0.024-0.317H10.82z M10.2,4.145
									c0-0.054-0.005-0.112-0.02-0.161c-0.063-0.22-0.234-0.386-0.488-0.386c-0.337,0-0.586,0.293-0.586,0.776
									c0,0.405,0.205,0.732,0.581,0.732c0.225,0,0.42-0.146,0.488-0.361C10.19,4.682,10.2,4.599,10.2,4.53V4.145z"/>
								<path fill="#FFFFFF" d="M12.057,2.528c0,0.181-0.132,0.322-0.342,0.322c-0.2,0-0.332-0.142-0.332-0.322
									c0-0.186,0.137-0.327,0.337-0.327C11.925,2.201,12.052,2.343,12.057,2.528z M11.417,5.57V3.192h0.605V5.57H11.417z"/>
								<path fill="#FFFFFF" d="M13.062,4.55c0.015,0.43,0.352,0.615,0.732,0.615c0.278,0,0.479-0.039,0.659-0.107l0.088,0.415
									c-0.205,0.083-0.488,0.146-0.83,0.146c-0.771,0-1.226-0.474-1.226-1.201c0-0.659,0.4-1.279,1.162-1.279
									c0.771,0,1.025,0.635,1.025,1.157c0,0.112-0.01,0.2-0.02,0.254H13.062z M14.106,4.13c0.005-0.22-0.093-0.581-0.493-0.581
									c-0.371,0-0.527,0.337-0.552,0.581H14.106z"/>
								<path fill="#FFFFFF" d="M15.143,3.9c0-0.273-0.005-0.503-0.02-0.708h0.527l0.029,0.356h0.015
									c0.103-0.186,0.361-0.41,0.757-0.41c0.415,0,0.845,0.269,0.845,1.021V5.57h-0.601V4.228c0-0.342-0.127-0.601-0.454-0.601
									c-0.239,0-0.405,0.171-0.469,0.352c-0.02,0.054-0.024,0.127-0.024,0.195V5.57h-0.605V3.9z"/>
								<path fill="#FFFFFF" d="M19.24,5.57l-0.039-0.264h-0.015c-0.146,0.186-0.396,0.317-0.703,0.317
									c-0.479,0-0.747-0.347-0.747-0.708c0-0.601,0.532-0.903,1.411-0.898V3.979c0-0.156-0.063-0.415-0.483-0.415
									c-0.234,0-0.479,0.073-0.64,0.176l-0.117-0.391c0.176-0.107,0.483-0.21,0.859-0.21c0.762,0,0.981,0.483,0.981,1.001v0.859
									c0,0.215,0.01,0.425,0.034,0.571H19.24z M19.162,4.408c-0.425-0.01-0.83,0.083-0.83,0.444c0,0.234,0.151,0.342,0.342,0.342
									c0.239,0,0.415-0.156,0.469-0.327c0.015-0.044,0.02-0.093,0.02-0.132V4.408z"/>
							</g>
						</g>
					</g>
				</g>
				<path opacity="0.5" fill="#FFFFFF" d="M20.787,16.852c-0.007-0.002-0.014,0.002-0.021,0.002
					c0.126-0.355,0.193-0.723,0.188-1.083c0.094,0.047,0.291,0.127,0.544,0.127c0.161,0,0.345-0.033,0.537-0.129
					c0.057-0.028,0.079-0.097,0.051-0.153c-0.027-0.057-0.096-0.077-0.152-0.051c-0.481,0.241-0.902-0.01-0.92-0.02
					c-0.026-0.016-0.055-0.019-0.082-0.014c-0.021-0.217-0.066-0.422-0.137-0.613c0.006-0.002,0.013-0.002,0.019-0.004
					c0.008-0.004,0.833-0.316,1.337-0.176c0.065,0.016,0.124-0.02,0.141-0.079c0.018-0.061-0.018-0.123-0.078-0.14
					c-0.575-0.164-1.445,0.168-1.481,0.182c-0.003,0.002-0.004,0.006-0.007,0.008c-0.089-0.184-0.202-0.345-0.34-0.479
					c0.139-0.087,0.983-0.65,0.898-1.352c-0.008-0.063-0.068-0.104-0.127-0.1c-0.063,0.008-0.107,0.064-0.1,0.127
					c0.073,0.601-0.807,1.141-0.815,1.146c-0.021,0.012-0.03,0.033-0.04,0.054c-0.079-0.056-0.149-0.124-0.241-0.163
					c-0.07-0.029-0.134-0.048-0.202-0.073c0.039-0.062,0.363-0.593,0.39-1.124c0.003-0.063-0.046-0.116-0.108-0.119
					c-0.064-0.006-0.116,0.045-0.12,0.108c-0.023,0.491-0.359,1.024-0.362,1.029c-0.006,0.009-0.003,0.021-0.006,0.03
					c-0.267-0.088-0.512-0.145-0.739-0.176c0.002-0.008,0.009-0.013,0.009-0.021c0.002-0.212,0.054-0.813,0.258-1.059
					c0.04-0.048,0.033-0.12-0.015-0.16c-0.049-0.042-0.121-0.034-0.161,0.015c-0.292,0.352-0.309,1.131-0.311,1.193
					c-0.317-0.024-0.591,0.004-0.831,0.064c-0.001-0.006,0.003-0.01,0.001-0.016c-0.129-0.355-0.279-1.002-0.136-1.221
					c0.034-0.053,0.02-0.123-0.033-0.157c-0.052-0.034-0.123-0.02-0.158,0.032c-0.251,0.384,0.074,1.318,0.112,1.423
					c0,0.001,0,0,0.001,0.001c-0.244,0.087-0.447,0.207-0.61,0.34c-0.074-0.183-0.407-0.965-0.775-1.094
					c-0.062-0.021-0.125,0.01-0.146,0.068c-0.021,0.061,0.01,0.125,0.069,0.146c0.223,0.078,0.519,0.653,0.653,0.998
					c0.006,0.016,0.026,0.015,0.038,0.025c-0.303,0.302-0.44,0.614-0.482,0.684c-0.02,0.031-0.038,0.057-0.057,0.088
					c-0.095-0.141-0.528-0.766-0.854-0.881c-0.061-0.021-0.125,0.01-0.146,0.07c-0.021,0.059,0.011,0.125,0.069,0.145
					c0.207,0.073,0.574,0.541,0.758,0.818c0.013,0.02,0.035,0.021,0.055,0.029c-0.177,0.272-0.349,0.515-0.517,0.738
					c-0.104-0.209-0.454-0.847-0.837-0.847h-0.006c-0.063,0.001-0.113,0.054-0.112,0.116c0.002,0.063,0.053,0.111,0.114,0.111h0.005
					c0.198,0,0.501,0.444,0.653,0.762c0.01,0.021,0.033,0.021,0.051,0.032c-0.179,0.233-0.357,0.46-0.537,0.702
					c-0.009-0.008-0.012-0.018-0.022-0.022c-0.005-0.002-0.464-0.185-0.89-0.54c-0.049-0.041-0.12-0.034-0.16,0.014
					c-0.041,0.049-0.034,0.121,0.014,0.161c0.425,0.354,0.854,0.536,0.928,0.566c-0.131,0.181-0.265,0.377-0.401,0.593
					c-0.061-0.068-0.332-0.359-0.798-0.568c-0.06-0.027-0.125,0-0.15,0.058c-0.026,0.058,0,0.124,0.057,0.15
					c0.466,0.208,0.737,0.528,0.739,0.531c0.009,0.011,0.023,0.01,0.035,0.017c-0.085,0.139-0.17,0.281-0.258,0.441
					c-0.01,0.018-0.018,0.043-0.027,0.064c-0.05-0.025-0.8-0.385-1.534-0.012c-0.056,0.029-0.078,0.098-0.05,0.154
					c0.029,0.056,0.099,0.076,0.153,0.049c0.642-0.325,1.326,0.01,1.334,0.014c0.007,0.003,0.014,0.003,0.021,0.005
					c-0.05,0.176-0.078,0.384-0.076,0.604l-0.001-0.001h-0.004c-0.04,0.001-1.011,0.036-1.803,0.608
					c-0.051,0.037-0.063,0.107-0.026,0.158c0.022,0.031,0.058,0.048,0.093,0.048c0.023,0,0.047-0.007,0.066-0.021
					c0.734-0.529,1.668-0.565,1.678-0.565c0.003,0,0.004-0.002,0.006-0.003c0.02,0.169,0.066,0.334,0.133,0.489
					c-0.003,0.001-0.006-0.001-0.009,0l-1.25,0.609c-0.057,0.027-0.08,0.096-0.053,0.152c0.02,0.04,0.061,0.063,0.103,0.063
					c0.017,0,0.034-0.003,0.05-0.011l1.25-0.609c0.006-0.002,0.007-0.009,0.012-0.012c0.097,0.15,0.221,0.287,0.392,0.381
					l0.029,0.017c-0.317,0.194-0.687,1.013-0.844,1.392c-0.023,0.059,0.004,0.125,0.062,0.148c0.015,0.006,0.029,0.009,0.044,0.009
					c0.045,0,0.087-0.026,0.105-0.07c0.279-0.673,0.636-1.278,0.763-1.295c0.043-0.001,0.072-0.029,0.091-0.064
					c0.229,0.121,0.449,0.23,0.662,0.315c-0.004,0.009-0.012,0.015-0.013,0.025c-0.037,0.337-0.181,1.277-0.401,1.58
					c-0.037,0.051-0.026,0.122,0.024,0.158c0.021,0.016,0.044,0.022,0.067,0.022c0.035,0,0.069-0.017,0.092-0.047
					c0.29-0.396,0.426-1.529,0.441-1.667c0.358,0.115,0.692,0.14,1.001,0.021c0.01,0.025,0.024,0.049,0.049,0.063
					c0.218,0.121,0.432,0.875,0.516,1.321c0.011,0.055,0.059,0.093,0.112,0.093c0.007,0,0.014,0,0.021-0.002
					c0.062-0.012,0.103-0.07,0.091-0.133c-0.038-0.202-0.24-1.18-0.587-1.442c0.277-0.171,0.596-0.491,0.997-0.894
					c0.075,0.108,0.632,0.91,0.881,1.063c0.019,0.012,0.039,0.017,0.06,0.017c0.038,0,0.076-0.019,0.098-0.054
					c0.032-0.055,0.016-0.125-0.038-0.157c-0.158-0.097-0.585-0.667-0.816-1.003c-0.007-0.01-0.02-0.011-0.028-0.018
					c0.224-0.223,0.47-0.461,0.75-0.709c0.007,0.012,0.009,0.025,0.02,0.033l1.206,0.918c0.021,0.016,0.045,0.023,0.069,0.023
					c0.034,0,0.068-0.016,0.091-0.045c0.038-0.05,0.028-0.121-0.021-0.16l-1.196-0.91c0.252-0.215,0.525-0.432,0.829-0.645
					c0.011,0.014,0.018,0.031,0.035,0.039c0.367,0.177,0.981,0.535,1.07,0.743c0.019,0.044,0.061,0.069,0.104,0.069
					c0.015,0,0.03-0.003,0.045-0.009c0.058-0.024,0.085-0.092,0.06-0.149c-0.141-0.332-0.945-0.743-1.14-0.839
					c0.364-0.278,0.634-0.638,0.811-1.038c0.005,0.002,0.006,0.008,0.011,0.01c0.705,0.268,1.341,0.617,1.361,0.748
					c0.009,0.057,0.057,0.097,0.112,0.097c0.006,0,0.012-0.001,0.018-0.001c0.062-0.01,0.104-0.068,0.095-0.13
					C22.241,17.438,21.223,17.018,20.787,16.852z M14.971,19.383c-0.142-0.051-0.218-0.207-0.168-0.348
					c0.05-0.143,0.206-0.217,0.349-0.168c0.141,0.051,0.215,0.205,0.166,0.348C15.267,19.357,15.111,19.432,14.971,19.383z
					 M15.35,18.393c-0.075,0.213-0.308,0.324-0.521,0.25c-0.213-0.076-0.324-0.309-0.25-0.521c0.076-0.213,0.309-0.324,0.521-0.25
					C15.313,17.947,15.425,18.18,15.35,18.393z M15.572,17.77c-0.144-0.049-0.22-0.207-0.169-0.354
					c0.051-0.145,0.209-0.219,0.354-0.168s0.221,0.209,0.17,0.354S15.718,17.822,15.572,17.77z M16.601,19.928
					c-0.075,0.213-0.309,0.324-0.521,0.25c-0.213-0.076-0.324-0.309-0.25-0.521c0.075-0.213,0.309-0.324,0.521-0.25
					S16.675,19.715,16.601,19.928z M16.655,15.99c-0.144-0.051-0.221-0.209-0.17-0.354c0.051-0.143,0.211-0.221,0.354-0.17
					c0.145,0.051,0.221,0.211,0.17,0.354C16.958,15.965,16.8,16.041,16.655,15.99z M17.567,18.938
					c-0.141-0.049-0.215-0.205-0.166-0.346c0.051-0.143,0.206-0.217,0.347-0.168c0.142,0.051,0.218,0.205,0.167,0.348
					C17.866,18.912,17.71,18.986,17.567,18.938z M19.374,16.861c-0.418,0.184-1.559,0.316-1.797-0.189
					c-0.238-0.508-0.182-1.234,0.814-1.48C19.92,14.813,20.462,16.385,19.374,16.861z"/>
				<path fill="#FFFFFF" d="M15.537,11.339c-1.122-1.121-2.613-1.738-4.198-1.738c-1.586,0-3.077,0.617-4.198,1.738
					c-2.314,2.315-2.314,6.081,0,8.396c1.121,1.122,2.612,1.74,4.198,1.74c1.585,0,3.076-0.618,4.198-1.74
					C17.852,17.42,17.852,13.654,15.537,11.339z M11.339,10.601c1.318,0,2.559,0.513,3.491,1.445
					c1.804,1.804,1.895,4.655,0.317,6.593l-1.815-1.816l-3.119-3.118l-1.977-1.978C9.113,11.01,10.189,10.601,11.339,10.601z
					 M11.339,20.475c-1.319,0-2.559-0.514-3.491-1.447c-1.804-1.803-1.895-4.655-0.317-6.592l5.802,5.801l1.11,1.11
					C13.563,20.064,12.487,20.475,11.339,20.475z"/>
				<g>
					<path fill="none" d="M1.984,16.061c-0.289,0.304-0.171,1.433,0.584,0.896c0.511-0.36,0.029-0.829,0.029-0.829
						S2.273,15.757,1.984,16.061z"/>
					<circle fill="none" cx="4.337" cy="16.806" r="0.304"/>
					<circle fill="none" cx="5.057" cy="16.175" r="0.309"/>
					<circle fill="none" cx="4.197" cy="14.726" r="0.454"/>
					<path fill="none" d="M0.119,15.157c0.064-0.214,0.175-0.417,0.305-0.606c-0.033-0.002-0.067-0.017-0.088-0.047
						C0.334,14.501,0.214,14.33,0,14.152v0.95C0.055,15.127,0.099,15.146,0.119,15.157z"/>
					<path fill="none" d="M0.589,17.002c0.009-0.011,0.021-0.012,0.032-0.018c-0.153-0.197-0.295-0.396-0.407-0.583
						c-0.174-0.288-0.202-0.653-0.136-1.021c-0.013-0.002-0.026-0.003-0.039-0.01c-0.001,0-0.018-0.008-0.039-0.02v2.305
						C0.188,17.467,0.39,17.248,0.589,17.002z"/>
					<circle fill="none" cx="7.884" cy="15.532" r="0.305"/>
					<path fill="none" d="M9.604,12.599c-1.103-0.305-1.602,0.994-1.602,0.994c0.081,1.359,1.136,1.119,1.642,1.169
						c0.723,0.073,0.762,0.479,1.382,0.44c0.619-0.039,0.774-0.554,0.624-1.127C11.498,13.499,10.709,12.903,9.604,12.599z"/>
					<circle fill="none" cx="6.042" cy="16.139" r="0.456"/>
					<circle fill="none" cx="6.252" cy="14.14" r="0.309"/>
					<path opacity="0.5" fill="#FFFFFF" d="M15.289,14.879c-0.034-0.052-0.106-0.067-0.157-0.031
						c-0.57,0.376-1.555-0.236-1.565-0.244c-0.018-0.012-0.038-0.01-0.058-0.01c0.015-0.296-0.049-0.641-0.252-1.012
						c0.009-0.004,0.019-0.003,0.026-0.01c0.214-0.178,0.837-0.645,1.152-0.668c0.063-0.006,0.109-0.061,0.104-0.123
						c-0.004-0.063-0.06-0.105-0.122-0.105c-0.439,0.033-1.177,0.637-1.275,0.718c-0.388-0.603-0.835-1.046-1.251-1.396
						c0.146-0.083,0.685-0.41,0.972-0.864c0.033-0.054,0.018-0.124-0.036-0.158c-0.054-0.035-0.123-0.018-0.157,0.035
						c-0.294,0.467-0.916,0.803-0.922,0.807c-0.015,0.008-0.021,0.023-0.03,0.037c-0.252-0.205-0.489-0.389-0.668-0.542
						c-0.245-0.21-0.473-0.396-0.707-0.534c0.013-0.021,0.021-0.047,0.018-0.072c-0.001-0.01-0.126-0.848,0.093-1.223
						c0.031-0.055,0.013-0.125-0.041-0.156c-0.056-0.032-0.125-0.014-0.156,0.041c-0.224,0.383-0.156,1.09-0.129,1.306
						c-0.509-0.231-1.093-0.216-1.97,0.242c-0.004-0.011-0.002-0.023-0.01-0.033c-0.27-0.328-0.67-0.956-0.6-1.244
						C7.563,9.576,7.525,9.515,7.465,9.5C7.403,9.483,7.342,9.522,7.327,9.583c-0.119,0.482,0.533,1.308,0.635,1.432
						c-0.255,0.146-0.529,0.319-0.839,0.541c-0.19,0.136-0.372,0.255-0.556,0.376c0.035-0.301,0.103-1.124-0.157-1.421
						c-0.041-0.047-0.114-0.052-0.161-0.011s-0.052,0.113-0.011,0.161c0.177,0.2,0.149,0.929,0.092,1.341
						c-0.004,0.029,0.005,0.055,0.02,0.078c-0.313,0.2-0.614,0.375-0.907,0.535c0-0.001,0.001-0.002,0.001-0.003
						c-0.007-0.106-0.079-1.046-0.347-1.351c-0.041-0.049-0.114-0.053-0.161-0.012s-0.052,0.113-0.011,0.16
						c0.185,0.211,0.273,0.951,0.292,1.218c0.002,0.034,0.021,0.061,0.047,0.079c-0.318,0.167-0.625,0.313-0.92,0.435
						c0.011-0.239,0.019-1.069-0.352-1.271c-0.056-0.029-0.124-0.01-0.155,0.047c-0.029,0.055-0.009,0.124,0.046,0.154
						c0.202,0.109,0.257,0.717,0.231,1.115c-0.001,0.017,0.01,0.029,0.015,0.045C3.726,13.388,3.346,13.5,2.985,13.58
						c-0.004-0.016-0.003-0.033-0.014-0.047c-0.004-0.005-0.351-0.436-0.571-1.018c-0.022-0.06-0.09-0.088-0.146-0.066
						c-0.06,0.022-0.089,0.088-0.066,0.146c0.201,0.529,0.479,0.913,0.567,1.029c-0.328,0.061-0.642,0.098-0.934,0.103
						c-0.139,0.003-0.268,0.034-0.395,0.069c-0.006-0.032-0.099-0.519-0.468-1.018c-0.038-0.051-0.111-0.062-0.159-0.023
						c-0.051,0.037-0.062,0.109-0.024,0.16c0.341,0.459,0.427,0.922,0.428,0.926c0.002,0.014,0.012,0.021,0.018,0.031
						c-0.27,0.118-0.505,0.299-0.69,0.526c-0.003-0.007,0-0.016-0.005-0.022c-0.013-0.02-0.199-0.281-0.525-0.51v0.285
						c0.214,0.178,0.334,0.349,0.336,0.352c0.021,0.03,0.055,0.045,0.088,0.047c-0.13,0.189-0.24,0.393-0.305,0.606
						C0.099,15.146,0.055,15.127,0,15.103v0.249c0.021,0.012,0.038,0.02,0.039,0.02c0.013,0.007,0.026,0.008,0.039,0.01
						c-0.066,0.367-0.038,0.732,0.136,1.021c0.112,0.187,0.254,0.386,0.407,0.583c-0.011,0.006-0.023,0.007-0.032,0.018
						C0.39,17.248,0.188,17.467,0,17.656v0.326c0.292-0.271,0.586-0.614,0.757-0.826c0.2,0.242,0.421,0.477,0.649,0.684
						c-0.005,0.006-0.014,0.007-0.018,0.014c-0.196,0.324-0.786,1.211-1.154,1.415c-0.055,0.03-0.074,0.101-0.044,0.155
						c0.021,0.037,0.06,0.059,0.1,0.059c0.019,0,0.038-0.005,0.056-0.015c0.483-0.269,1.17-1.385,1.23-1.483
						c0.357,0.297,0.718,0.508,1.034,0.562c-0.006,0.027-0.002,0.058,0.014,0.083c0.147,0.242-0.059,1.098-0.223,1.58
						c-0.021,0.059,0.011,0.123,0.07,0.145c0.013,0.004,0.025,0.006,0.037,0.006c0.048,0,0.092-0.03,0.107-0.078
						c0.046-0.133,0.42-1.268,0.22-1.719c0.367-0.01,0.862-0.143,1.487-0.313c0.016,0.172,0.118,1.223,0.274,1.496
						c0.021,0.037,0.059,0.059,0.099,0.059c0.02,0,0.038-0.005,0.057-0.016c0.055-0.031,0.073-0.1,0.042-0.154
						c-0.103-0.182-0.204-0.951-0.247-1.424c-0.001-0.008-0.007-0.012-0.009-0.019c0.346-0.093,0.722-0.19,1.138-0.28
						c0.001,0.008-0.003,0.016,0,0.022l0.669,1.555c0.019,0.043,0.061,0.069,0.104,0.069c0.015,0,0.03-0.004,0.045-0.01
						c0.058-0.025,0.085-0.092,0.06-0.149l-0.658-1.53c0.368-0.074,0.759-0.141,1.179-0.189c0.002,0.018,0,0.035,0.011,0.051
						c0.262,0.373,0.665,1.062,0.635,1.316c-0.007,0.063,0.037,0.119,0.1,0.126c0.005,0.001,0.01,0.001,0.014,0.001
						c0.058,0,0.106-0.043,0.113-0.102c0.046-0.386-0.486-1.197-0.637-1.419c0.545-0.052,1.068-0.065,1.577-0.093
						c0.001,0.014-0.004,0.028,0.002,0.042c0.313,0.7,0.583,1.542,0.482,1.679c-0.037,0.051-0.026,0.122,0.024,0.159
						c0.021,0.015,0.044,0.022,0.067,0.022c0.035,0,0.069-0.017,0.092-0.047c0.222-0.304-0.262-1.465-0.441-1.868
						c0.597-0.039,1.177-0.115,1.758-0.317c0.02,0.088,0.172,0.687,0.828,0.935c0.013,0.005,0.026,0.007,0.04,0.007
						c0.046,0,0.089-0.027,0.106-0.072c0.022-0.06-0.007-0.125-0.066-0.147c-0.571-0.216-0.684-0.759-0.688-0.781
						c-0.002-0.009-0.01-0.013-0.013-0.021c0.481-0.193,0.965-0.486,1.459-0.928c0.009,0.011,0.013,0.025,0.026,0.031
						c0.009,0.005,0.892,0.469,1.146,0.996c0.02,0.041,0.061,0.064,0.103,0.064c0.017,0,0.033-0.004,0.05-0.012
						c0.057-0.027,0.08-0.096,0.053-0.152c-0.264-0.549-1.058-0.998-1.212-1.08c0.157-0.151,0.316-0.313,0.477-0.497
						c0,0,0.223-0.298,0.303-0.755c0.108,0.066,0.648,0.379,1.196,0.379c0.202,0,0.402-0.043,0.577-0.16
						C15.31,15.002,15.324,14.932,15.289,14.879z M2.568,16.956c-0.755,0.537-0.873-0.592-0.584-0.896s0.613,0.066,0.613,0.066
						S3.079,16.596,2.568,16.956z M4.538,17.034c-0.126,0.111-0.317,0.098-0.43-0.027C4,16.881,4.012,16.688,4.137,16.577
						c0.128-0.111,0.319-0.098,0.431,0.027C4.677,16.731,4.665,16.923,4.538,17.034z M4.496,15.067
						c-0.188,0.166-0.476,0.149-0.642-0.041c-0.166-0.189-0.148-0.477,0.043-0.643c0.188-0.166,0.476-0.148,0.642,0.041
						S4.686,14.901,4.496,15.067z M5.261,16.407c-0.129,0.113-0.324,0.101-0.438-0.027c-0.112-0.129-0.1-0.324,0.029-0.437
						c0.129-0.114,0.323-0.101,0.437,0.028C5.402,16.1,5.389,16.296,5.261,16.407z M6.342,16.481
						c-0.19,0.166-0.477,0.146-0.644-0.043c-0.165-0.189-0.146-0.477,0.043-0.643c0.189-0.168,0.477-0.147,0.643,0.042
						C6.55,16.028,6.531,16.315,6.342,16.481z M6.456,14.372c-0.129,0.113-0.326,0.101-0.438-0.027
						c-0.113-0.129-0.1-0.325,0.029-0.438c0.127-0.113,0.322-0.102,0.436,0.029C6.597,14.063,6.584,14.259,6.456,14.372z
						 M8.085,15.761c-0.127,0.111-0.318,0.098-0.429-0.029c-0.111-0.125-0.099-0.317,0.026-0.429c0.127-0.11,0.318-0.097,0.43,0.028
						C8.222,15.458,8.212,15.651,8.085,15.761z M11.025,15.202c-0.62,0.039-0.659-0.367-1.382-0.44
						c-0.506-0.05-1.561,0.19-1.642-1.169c0,0,0.499-1.299,1.602-0.994c1.105,0.305,1.895,0.9,2.046,1.477
						C11.8,14.648,11.645,15.163,11.025,15.202z"/>
				</g>
			</g>
			<circle opacity="0.5" fill="#FFFFFF" cx="17.272" cy="10.058" r="0.472"/>
			<circle opacity="0.5" fill="#FFFFFF" cx="5.405" cy="21.475" r="0.552"/>
			<circle opacity="0.5" fill="#FFFFFF" cx="1.839" cy="10.529" r="0.482"/>
			<circle opacity="0.5" fill="#FFFFFF" cx="2.321" cy="21.416" r="0.275"/>
			<circle opacity="0.5" fill="#FFFFFF" cx="3.466" cy="9.311" r="0.275"/>
			<circle opacity="0.5" fill="#FFFFFF" cx="20.266" cy="21.407" r="0.31"/>
			<circle opacity="0.5" fill="#FFFFFF" cx="19.646" cy="9.311" r="0.31"/>
			<circle opacity="0.5" fill="#FFFFFF" cx="20.266" cy="11.012" r="0.31"/>
		</g>
	</g>
</g>
</svg>
