<?xml version="1.0" encoding="utf-8"?>
<!-- Generator: Adobe Illustrator 16.0.3, SVG Export Plug-In . SVG Version: 6.00 Build 0)  -->
<!DOCTYPE svg PUBLIC "-//W3C//DTD SVG 1.1//EN" "http://www.w3.org/Graphics/SVG/1.1/DTD/svg11.dtd">
<svg version="1.1" xmlns="http://www.w3.org/2000/svg" xmlns:xlink="http://www.w3.org/1999/xlink" x="0px" y="0px" width="22.68px"
	 height="22.68px" viewBox="0 0 22.68 22.68" enable-background="new 0 0 22.68 22.68" xml:space="preserve">
<g id="BCGRND">
</g>
<g id="IKONY">
	<g>
		<polygon fill="#585857" points="22.68,16.335 22.68,0 0.002,0 0.002,22.678 14.119,22.678 22.68,22.678 		"/>
		<g>
			<rect x="0.002" y="11.956" fill="#FFFFFF" width="22.678" height="0.889"/>
		</g>
		<g>
			<g>
				<path fill="#FFFFFF" d="M4.81,1.995v3.291H4.209V1.995H4.81z"/>
				<path fill="#FFFFFF" d="M7.766,1.819v2.798c0,0.244,0.01,0.508,0.02,0.669H7.248L7.224,4.91h-0.01
					c-0.142,0.264-0.43,0.43-0.776,0.43c-0.566,0-1.016-0.483-1.016-1.216c-0.005-0.796,0.493-1.27,1.064-1.27
					c0.327,0,0.562,0.137,0.669,0.313h0.01V1.819H7.766z M7.165,3.899c0-0.049-0.005-0.107-0.015-0.156
					C7.097,3.509,6.906,3.318,6.633,3.318c-0.386,0-0.601,0.342-0.601,0.786c0,0.435,0.215,0.752,0.596,0.752
					c0.244,0,0.459-0.166,0.518-0.425c0.015-0.054,0.02-0.112,0.02-0.176V3.899z"/>
				<path fill="#FFFFFF" d="M8.936,4.266c0.016,0.43,0.352,0.615,0.732,0.615c0.279,0,0.479-0.039,0.66-0.107l0.088,0.415
					c-0.205,0.083-0.488,0.146-0.83,0.146c-0.771,0-1.227-0.474-1.227-1.201c0-0.659,0.4-1.279,1.162-1.279
					c0.771,0,1.025,0.635,1.025,1.157c0,0.112-0.01,0.2-0.02,0.254H8.936z M9.981,3.846c0.006-0.22-0.092-0.581-0.492-0.581
					c-0.371,0-0.527,0.337-0.553,0.581H9.981z"/>
				<path fill="#FFFFFF" d="M12.47,5.286l-0.039-0.264h-0.015C12.27,5.208,12.021,5.34,11.713,5.34
					c-0.479,0-0.747-0.347-0.747-0.708c0-0.601,0.532-0.903,1.411-0.898V3.694c0-0.156-0.063-0.415-0.483-0.415
					c-0.234,0-0.479,0.073-0.64,0.176l-0.117-0.391c0.176-0.107,0.483-0.21,0.859-0.21c0.762,0,0.981,0.483,0.981,1.001v0.859
					c0,0.215,0.01,0.425,0.034,0.571H12.47z M12.392,4.124c-0.425-0.01-0.83,0.083-0.83,0.444c0,0.234,0.151,0.342,0.342,0.342
					c0.239,0,0.415-0.156,0.469-0.327c0.015-0.044,0.02-0.093,0.02-0.132V4.124z M12.763,1.878l-0.601,0.723h-0.415l0.425-0.723
					H12.763z"/>
				<path fill="#FFFFFF" d="M13.713,1.819h0.605v3.467h-0.605V1.819z"/>
				<path fill="#FFFFFF" d="M15.068,3.616c0-0.273-0.005-0.503-0.02-0.708h0.527l0.029,0.356h0.015
					c0.103-0.186,0.361-0.41,0.757-0.41c0.415,0,0.845,0.269,0.845,1.021v1.411H16.62V3.943c0-0.342-0.127-0.601-0.454-0.601
					c-0.239,0-0.405,0.171-0.469,0.352c-0.02,0.054-0.024,0.127-0.024,0.195v1.396h-0.605V3.616z"/>
				<path fill="#FFFFFF" d="M17.961,5.286V2.908h0.605v2.378H17.961z M18.996,1.878l-0.6,0.723h-0.416l0.426-0.723H18.996z"/>
				<path fill="#FFFFFF" d="M4.035,7.408L4.42,8.614c0.068,0.21,0.117,0.4,0.162,0.596h0.014c0.045-0.195,0.098-0.381,0.162-0.596
					l0.375-1.206h0.635L4.86,9.786H4.27L3.385,7.408H4.035z"/>
				<path fill="#FFFFFF" d="M6.236,6.319h0.605v3.467H6.236V6.319z"/>
				<path fill="#FFFFFF" d="M7.59,6.319h0.605v1.416h0.01c0.072-0.112,0.17-0.205,0.297-0.273c0.117-0.068,0.26-0.107,0.41-0.107
					c0.406,0,0.83,0.269,0.83,1.03v1.401h-0.6V8.453c0-0.347-0.127-0.605-0.459-0.605c-0.234,0-0.4,0.156-0.465,0.337
					c-0.02,0.049-0.023,0.112-0.023,0.181v1.421H7.59V6.319z"/>
				<path fill="#FFFFFF" d="M11.084,8.453h0.01c0.059-0.093,0.127-0.195,0.19-0.278l0.576-0.767h0.723L11.704,8.38l1.006,1.406
					h-0.737l-0.684-1.05l-0.205,0.239v0.811h-0.601V6.319h0.601V8.453z"/>
				<path fill="#FFFFFF" d="M15.297,8.575c0,0.874-0.615,1.265-1.221,1.265c-0.674,0-1.191-0.464-1.191-1.226
					c0-0.781,0.512-1.26,1.23-1.26C14.823,7.354,15.297,7.853,15.297,8.575z M13.504,8.6c0,0.459,0.225,0.806,0.592,0.806
					c0.342,0,0.58-0.337,0.58-0.815c0-0.371-0.166-0.796-0.576-0.796C13.676,7.794,13.504,8.204,13.504,8.6z"/>
				<path fill="#FFFFFF" d="M15.862,9.234c0.137,0.083,0.396,0.171,0.61,0.171c0.264,0,0.381-0.107,0.381-0.264
					c0-0.161-0.098-0.244-0.391-0.347c-0.464-0.161-0.659-0.415-0.654-0.693c0-0.42,0.347-0.747,0.898-0.747
					c0.264,0,0.493,0.068,0.63,0.142l-0.117,0.425c-0.103-0.059-0.293-0.137-0.503-0.137c-0.215,0-0.332,0.103-0.332,0.249
					c0,0.151,0.112,0.225,0.415,0.332c0.43,0.156,0.63,0.376,0.635,0.728c0,0.43-0.337,0.742-0.967,0.742
					c-0.288,0-0.547-0.068-0.723-0.166L15.862,9.234z"/>
				<path fill="#FFFFFF" d="M18.716,6.729v0.679h0.571v0.449h-0.571v1.05c0,0.288,0.078,0.439,0.308,0.439
					c0.103,0,0.181-0.015,0.234-0.029l0.01,0.459c-0.088,0.034-0.244,0.059-0.435,0.059c-0.22,0-0.405-0.073-0.518-0.195
					c-0.127-0.137-0.186-0.352-0.186-0.664V7.857h-0.342V7.408h0.342V6.871L18.716,6.729z"/>
			</g>
		</g>
		<g>
			<path fill="#FFFFFF" d="M15.591,21.427c0,0.471,0.383,0.852,0.852,0.852c0.471,0,0.852-0.381,0.852-0.852
				c0-0.47-0.852-1.982-0.852-1.982S15.591,20.957,15.591,21.427z"/>
			<path fill="#FFFFFF" d="M10.49,21.427c0,0.471,0.381,0.852,0.85,0.852c0.473,0,0.852-0.381,0.852-0.852
				c0-0.47-0.852-1.982-0.852-1.982S10.49,20.957,10.49,21.427z"/>
			<path fill="#FFFFFF" d="M5.386,21.427c0,0.471,0.381,0.852,0.852,0.852c0.469,0,0.852-0.381,0.852-0.852
				c0-0.47-0.852-1.982-0.852-1.982S5.386,20.957,5.386,21.427z"/>
			<path fill="#FFFFFF" d="M16.443,15.274c0.471,0,0.852-0.381,0.852-0.852c0-0.47-0.852-1.982-0.852-1.982
				s-0.852,1.513-0.852,1.982C15.591,14.894,15.974,15.274,16.443,15.274z"/>
			<path fill="#FFFFFF" d="M11.339,15.274c0.473,0,0.852-0.381,0.852-0.852c0-0.47-0.852-1.982-0.852-1.982s-0.85,1.513-0.85,1.982
				C10.49,14.894,10.87,15.274,11.339,15.274z"/>
			<path fill="#FFFFFF" d="M22.398,14.423c0-0.47-0.854-1.982-0.854-1.982s-0.85,1.513-0.85,1.982c0,0.471,0.381,0.852,0.85,0.852
				C22.017,15.274,22.398,14.894,22.398,14.423z"/>
			<path fill="#FFFFFF" d="M6.238,15.274c0.469,0,0.852-0.381,0.852-0.852c0-0.47-0.852-1.982-0.852-1.982s-0.852,1.513-0.852,1.982
				C5.386,14.894,5.767,15.274,6.238,15.274z"/>
			<path fill="#FFFFFF" d="M1.984,14.423c0-0.47-0.85-1.982-0.85-1.982s-0.85,1.513-0.85,1.982c0,0.471,0.379,0.852,0.85,0.852
				S1.984,14.894,1.984,14.423z"/>
			<path fill="#FFFFFF" d="M18.572,17.925c0-0.47-0.852-1.982-0.852-1.982s-0.852,1.513-0.852,1.982
				c0,0.471,0.383,0.852,0.852,0.852C18.191,18.776,18.572,18.396,18.572,17.925z"/>
			<path fill="#FFFFFF" d="M13.466,17.925c0-0.47-0.852-1.982-0.852-1.982s-0.85,1.513-0.85,1.982c0,0.471,0.381,0.852,0.85,0.852
				C13.087,18.776,13.466,18.396,13.466,17.925z"/>
			<path fill="#FFFFFF" d="M21.97,17.925c0,0.42,0.311,0.754,0.71,0.824c0-0.752,0-1.65,0-2.55
				C22.439,16.651,21.97,17.575,21.97,17.925z"/>
			<path fill="#FFFFFF" d="M8.366,17.925c0-0.47-0.852-1.982-0.852-1.982s-0.852,1.513-0.852,1.982c0,0.471,0.381,0.852,0.852,0.852
				C7.984,18.776,8.366,18.396,8.366,17.925z"/>
			<path fill="#FFFFFF" d="M3.261,17.925c0-0.47-0.85-1.982-0.85-1.982s-0.85,1.513-0.85,1.982c0,0.471,0.379,0.852,0.85,0.852
				S3.261,18.396,3.261,17.925z"/>
			<circle opacity="0.5" fill="#FFFFFF" cx="8.788" cy="14" r="0.776"/>
			<circle opacity="0.5" fill="#FFFFFF" cx="3.685" cy="14" r="0.776"/>
			<circle opacity="0.5" fill="#FFFFFF" cx="13.89" cy="14" r="0.776"/>
			<circle opacity="0.5" fill="#FFFFFF" cx="18.994" cy="14" r="0.776"/>
			<circle opacity="0.5" fill="#FFFFFF" cx="8.788" cy="21.003" r="0.776"/>
			<circle opacity="0.5" fill="#FFFFFF" cx="3.685" cy="21.003" r="0.776"/>
			<circle opacity="0.5" fill="#FFFFFF" cx="13.89" cy="21.003" r="0.776"/>
			<circle opacity="0.5" fill="#FFFFFF" cx="18.994" cy="21.003" r="0.776"/>
			<circle opacity="0.5" fill="#FFFFFF" cx="4.964" cy="17.501" r="0.776"/>
			<path opacity="0.5" fill="#FFFFFF" d="M0.637,17.501c0-0.378-0.276-0.678-0.635-0.747v1.495
				C0.361,18.181,0.637,17.88,0.637,17.501z"/>
			<circle opacity="0.5" fill="#FFFFFF" cx="10.066" cy="17.501" r="0.776"/>
			<circle opacity="0.5" fill="#FFFFFF" cx="15.17" cy="17.501" r="0.776"/>
			<circle opacity="0.5" fill="#FFFFFF" cx="20.273" cy="17.501" r="0.776"/>
		</g>
		<path fill="#FFFFFF" d="M1.984,21.427c0-0.47-0.85-1.982-0.85-1.982s-0.85,1.513-0.85,1.982c0,0.471,0.379,0.852,0.85,0.852
			S1.984,21.897,1.984,21.427z"/>
		<path fill="#FFFFFF" d="M22.394,21.427c0-0.47-0.85-1.982-0.85-1.982s-0.85,1.513-0.85,1.982c0,0.471,0.379,0.852,0.85,0.852
			S22.394,21.897,22.394,21.427z"/>
	</g>
</g>
</svg>
