<?xml version="1.0" encoding="utf-8"?>
<!-- Generator: Adobe Illustrator 16.0.3, SVG Export Plug-In . SVG Version: 6.00 Build 0)  -->
<!DOCTYPE svg PUBLIC "-//W3C//DTD SVG 1.1//EN" "http://www.w3.org/Graphics/SVG/1.1/DTD/svg11.dtd">
<svg version="1.1" xmlns="http://www.w3.org/2000/svg" xmlns:xlink="http://www.w3.org/1999/xlink" x="0px" y="0px" width="22.68px"
	 height="22.68px" viewBox="0 0 22.68 22.68" enable-background="new 0 0 22.68 22.68" xml:space="preserve">
<g id="BCGRND">
</g>
<g id="IKONY">
	<rect x="0.001" fill="#585857" width="22.676" height="22.678"/>
	<g>
		<g>
			<rect x="0.002" y="7.77" fill="#FFFFFF" width="22.678" height="0.889"/>
		</g>
		<g>
			<path fill="#FFFFFF" d="M3.745,2.279V5.57H3.144V2.279H3.745z"/>
			<path fill="#FFFFFF" d="M4.489,3.9c0-0.273-0.01-0.504-0.02-0.709h0.522l0.029,0.357h0.015c0.107-0.186,0.366-0.41,0.762-0.41
				c0.415,0,0.845,0.268,0.845,1.02V5.57H6.041V4.227c0-0.342-0.127-0.6-0.454-0.6c-0.239,0-0.405,0.17-0.469,0.352
				C5.099,4.027,5.089,4.1,5.089,4.168V5.57H4.489V3.9z"/>
			<path fill="#FFFFFF" d="M9.527,2.104V4.9c0,0.244,0.01,0.508,0.02,0.67H9.014L8.985,5.193h-0.01
				c-0.142,0.264-0.43,0.43-0.771,0.43c-0.571,0-1.021-0.482-1.021-1.215c-0.005-0.797,0.493-1.27,1.064-1.27
				c0.327,0,0.562,0.131,0.669,0.307h0.01V2.104H9.527z M8.926,4.184c0-0.049-0.005-0.113-0.015-0.162
				c-0.054-0.229-0.244-0.42-0.518-0.42c-0.386,0-0.601,0.342-0.601,0.781s0.215,0.758,0.596,0.758c0.244,0,0.459-0.166,0.518-0.426
				c0.015-0.053,0.02-0.111,0.02-0.176V4.184z"/>
			<path fill="#FFFFFF" d="M12.352,4.857c0,0.283,0.01,0.518,0.02,0.713h-0.522L11.82,5.213h-0.015
				c-0.103,0.166-0.337,0.41-0.767,0.41s-0.825-0.258-0.825-1.035V3.191h0.601v1.295c0,0.395,0.127,0.648,0.444,0.648
				c0.244,0,0.4-0.166,0.459-0.322c0.024-0.049,0.034-0.117,0.034-0.186V3.191h0.601V4.857z"/>
			<path fill="#FFFFFF" d="M13.655,4.236h0.01c0.059-0.092,0.127-0.195,0.186-0.277l0.581-0.768h0.723L14.27,4.164l1.006,1.406
				h-0.737L13.855,4.52l-0.2,0.24V5.57h-0.601V2.104h0.601V4.236z"/>
			<path fill="#FFFFFF" d="M17.305,5.496c-0.127,0.059-0.376,0.123-0.674,0.123c-0.742,0-1.226-0.479-1.226-1.217
				c0-0.713,0.488-1.264,1.323-1.264c0.22,0,0.444,0.049,0.581,0.107l-0.107,0.453c-0.098-0.049-0.239-0.092-0.454-0.092
				c-0.459,0-0.732,0.336-0.728,0.771c0,0.488,0.317,0.766,0.728,0.766c0.205,0,0.356-0.043,0.474-0.092L17.305,5.496z"/>
			<path fill="#FFFFFF" d="M18.182,4.549c0.015,0.43,0.347,0.615,0.732,0.615c0.278,0,0.474-0.043,0.659-0.107l0.088,0.41
				c-0.205,0.088-0.488,0.152-0.83,0.152c-0.771,0-1.226-0.475-1.226-1.201c0-0.66,0.4-1.279,1.162-1.279
				c0.771,0,1.025,0.635,1.025,1.156c0,0.113-0.01,0.201-0.02,0.254H18.182z M19.227,4.129c0.005-0.219-0.093-0.58-0.493-0.58
				c-0.371,0-0.527,0.336-0.552,0.58H19.227z"/>
		</g>
		<g>
			<path fill="#FFFFFF" d="M22.452,17.009c-0.475-0.885-0.86-1.949-0.86-3.072c0-1.136,0.283-1.562,0.452-1.715
				c0.146-0.132,0.287-0.14,0.322-0.14c0.004,0,0.007,0,0.008,0l0.076,0.009l0.061-0.007c0.01,0,0.08,0,0.169,0.033v-0.918
				c-0.093-0.01-0.177-0.014-0.23-0.013c-0.171-0.009-0.579,0.003-0.97,0.333c-0.522,0.442-0.788,1.255-0.788,2.417
				c0,1.499,0.566,2.87,1.223,3.956c-0.317,0.466-0.64,0.858-0.905,1.157c-0.419,0.473-1.145,0.474-1.565-0.001
				c-0.265-0.299-0.587-0.69-0.903-1.156c0.656-1.085,1.223-2.456,1.223-3.956c0-1.162-0.266-1.975-0.789-2.417
				c-0.391-0.33-0.797-0.342-0.969-0.333c-0.168-0.005-0.576,0.002-0.968,0.332c-0.522,0.442-0.788,1.256-0.788,2.418
				c0,1.496,0.564,2.865,1.22,3.951c-0.341,0.504-0.673,0.903-0.903,1.162c-0.418,0.473-1.143,0.477-1.564-0.002
				c-0.23-0.258-0.562-0.657-0.901-1.16c0.655-1.084,1.22-2.453,1.22-3.951c0-1.162-0.266-1.976-0.788-2.417
				c-0.392-0.331-0.796-0.338-0.969-0.333c-0.167-0.005-0.577,0.002-0.969,0.333c-0.522,0.441-0.788,1.255-0.788,2.417
				c0,1.497,0.564,2.866,1.22,3.951c-0.341,0.504-0.673,0.903-0.903,1.162c-0.42,0.475-1.144,0.475-1.564-0.002
				c-0.23-0.258-0.562-0.657-0.901-1.16c0.655-1.084,1.22-2.453,1.22-3.951c0-1.162-0.266-1.976-0.788-2.417
				c-0.392-0.331-0.797-0.338-0.969-0.333c-0.168-0.005-0.577,0.002-0.969,0.333c-0.522,0.441-0.788,1.255-0.788,2.417
				c0,1.497,0.564,2.866,1.22,3.951c-0.341,0.504-0.673,0.903-0.903,1.162c-0.418,0.472-1.142,0.476-1.563-0.002
				c-0.23-0.258-0.562-0.657-0.902-1.16c0.655-1.085,1.22-2.453,1.22-3.951c0-1.162-0.266-1.976-0.788-2.417
				c-0.392-0.331-0.798-0.338-0.969-0.333c-0.169-0.005-0.577,0.002-0.969,0.333c-0.522,0.441-0.788,1.255-0.788,2.417
				c0,1.498,0.564,2.867,1.22,3.951c-0.341,0.504-0.673,0.903-0.903,1.162c-0.419,0.473-1.143,0.475-1.563-0.002
				c-0.266-0.298-0.587-0.69-0.905-1.156c0.656-1.086,1.223-2.456,1.223-3.955c0-1.163-0.266-1.976-0.789-2.418
				c-0.391-0.33-0.798-0.337-0.968-0.332c-0.054-0.001-0.138,0.003-0.23,0.013v0.92c0.069-0.027,0.128-0.037,0.147-0.037
				c0.008,0,0.008,0,0.008,0l0.075,0.013l0.075-0.013c0.002-0.007,0.154-0.009,0.313,0.125c0.175,0.147,0.469,0.569,0.469,1.729
				c0,1.122-0.386,2.187-0.86,3.071c-0.081-0.15-0.153-0.313-0.227-0.471v2.459c0.077-0.1,0.152-0.193,0.231-0.301
				c0.271,0.374,0.537,0.694,0.766,0.95c0.759,0.859,2.152,0.857,2.909,0.002c0.229-0.257,0.495-0.577,0.768-0.952
				c0.272,0.374,0.538,0.694,0.767,0.95c0.76,0.86,2.152,0.856,2.909,0.002c0.229-0.257,0.495-0.577,0.768-0.951
				c0.271,0.373,0.537,0.693,0.766,0.949c0.759,0.859,2.153,0.857,2.91,0.002c0.229-0.257,0.495-0.577,0.768-0.951
				c0.271,0.373,0.537,0.693,0.766,0.949c0.759,0.859,2.153,0.857,2.91,0.002c0.229-0.257,0.495-0.577,0.767-0.951
				c0.271,0.373,0.537,0.693,0.766,0.949c0.759,0.859,2.154,0.857,2.911,0.002c0.229-0.257,0.495-0.577,0.767-0.951
				c0.078,0.108,0.154,0.202,0.231,0.301v-2.461C22.607,16.695,22.534,16.857,22.452,17.009z M3.82,13.937
				c0-1.137,0.283-1.563,0.452-1.715c0.146-0.132,0.286-0.14,0.321-0.14c0.008,0,0.008,0,0.008,0l0.075,0.013l0.075-0.013
				c-0.002-0.003,0.158-0.006,0.313,0.125c0.176,0.147,0.469,0.569,0.469,1.729c0,1.12-0.383,2.182-0.856,3.064
				C4.202,16.118,3.82,15.057,3.82,13.937z M8.263,13.937c0-1.137,0.283-1.563,0.452-1.715c0.146-0.132,0.286-0.14,0.321-0.14
				c0.008,0,0.008,0,0.008,0l0.075,0.013l0.075-0.013c-0.003-0.003,0.158-0.006,0.313,0.125c0.176,0.147,0.469,0.569,0.469,1.729
				c0,1.12-0.383,2.182-0.856,3.064C8.647,16.118,8.263,15.056,8.263,13.937z M12.706,13.937c0-1.137,0.283-1.563,0.452-1.715
				c0.146-0.132,0.286-0.14,0.321-0.14c0.008,0,0.008,0,0.008,0l0.075,0.013l0.075-0.013c-0.004-0.003,0.158-0.006,0.313,0.125
				c0.176,0.147,0.469,0.569,0.469,1.729c0,1.12-0.383,2.182-0.856,3.064C13.09,16.118,12.706,15.056,12.706,13.937z M18.001,17.009
				c-0.479-0.893-0.852-1.948-0.852-3.072c0-1.137,0.283-1.563,0.452-1.716c0.146-0.131,0.286-0.139,0.32-0.139
				c0.008,0,0.008,0,0.008,0l0.077,0.009l0.06-0.007c0.019,0.001,0.178-0.013,0.344,0.138c0.169,0.153,0.452,0.579,0.452,1.715
				C18.863,15.06,18.477,16.124,18.001,17.009z"/>
		</g>
	</g>
</g>
</svg>
