<?xml version="1.0" encoding="utf-8"?>
<!-- Generator: Adobe Illustrator 16.0.3, SVG Export Plug-In . SVG Version: 6.00 Build 0)  -->
<!DOCTYPE svg PUBLIC "-//W3C//DTD SVG 1.1//EN" "http://www.w3.org/Graphics/SVG/1.1/DTD/svg11.dtd">
<svg version="1.1" xmlns="http://www.w3.org/2000/svg" xmlns:xlink="http://www.w3.org/1999/xlink" x="0px" y="0px" width="22.68px"
	 height="22.68px" viewBox="0 0 22.68 22.68" enable-background="new 0 0 22.68 22.68" xml:space="preserve">
<g id="BCGRND">
</g>
<g id="BAREVNE_BCGRND">
	<polygon fill="#585857" points="22.678,16.335 22.678,0 0,0 0,22.678 14.117,22.678 22.678,22.678 	"/>
</g>
<g id="IKONY">
	<g>
		<g>
			<rect y="7.769" fill="#FFFFFF" width="22.678" height="0.889"/>
		</g>
		<g>
			<path fill="#FFFFFF" d="M1.457,2.279V5.57H0.857V2.279H1.457z"/>
			<path fill="#FFFFFF" d="M1.908,3.9c0-0.273-0.005-0.503-0.02-0.708h0.527l0.029,0.356H2.46c0.103-0.186,0.361-0.41,0.757-0.41
				c0.415,0,0.845,0.269,0.845,1.021V5.57H3.461V4.228c0-0.342-0.127-0.601-0.454-0.601c-0.239,0-0.405,0.171-0.469,0.352
				c-0.02,0.054-0.024,0.127-0.024,0.195V5.57H1.908V3.9z"/>
			<path fill="#FFFFFF" d="M4.46,3.9c0-0.273-0.005-0.503-0.02-0.708h0.527l0.029,0.356h0.015c0.103-0.186,0.361-0.41,0.757-0.41
				c0.415,0,0.845,0.269,0.845,1.021V5.57H6.012V4.228c0-0.342-0.127-0.601-0.454-0.601c-0.239,0-0.405,0.171-0.469,0.352
				C5.07,4.032,5.065,4.105,5.065,4.174V5.57H4.46V3.9z"/>
			<path fill="#FFFFFF" d="M9.273,4.359c0,0.874-0.615,1.265-1.221,1.265c-0.674,0-1.191-0.464-1.191-1.226
				c0-0.781,0.513-1.26,1.23-1.26C8.799,3.139,9.273,3.637,9.273,4.359z M7.481,4.384c0,0.459,0.225,0.806,0.591,0.806
				c0.342,0,0.581-0.337,0.581-0.815c0-0.371-0.166-0.796-0.576-0.796C7.652,3.578,7.481,3.988,7.481,4.384z"/>
			<path fill="#FFFFFF" d="M9.847,3.192l0.249,1.079c0.054,0.254,0.107,0.513,0.151,0.771h0.01c0.049-0.259,0.127-0.522,0.195-0.767
				l0.308-1.084h0.488l0.298,1.055c0.073,0.278,0.137,0.537,0.19,0.796h0.01c0.039-0.259,0.093-0.518,0.156-0.796l0.264-1.055h0.591
				L12.01,5.57h-0.557L11.17,4.604c-0.073-0.249-0.127-0.474-0.181-0.762h-0.01c-0.049,0.293-0.112,0.527-0.181,0.762L10.496,5.57
				H9.935L9.232,3.192H9.847z"/>
			<path fill="#FFFFFF" d="M14.212,5.57l-0.039-0.264h-0.015c-0.146,0.186-0.396,0.317-0.703,0.317
				c-0.479,0-0.747-0.347-0.747-0.708c0-0.601,0.532-0.903,1.411-0.898V3.979c0-0.156-0.063-0.415-0.483-0.415
				c-0.234,0-0.479,0.073-0.64,0.176l-0.117-0.391c0.176-0.107,0.483-0.21,0.859-0.21c0.762,0,0.981,0.483,0.981,1.001v0.859
				c0,0.215,0.01,0.425,0.034,0.571H14.212z M14.134,4.408c-0.425-0.01-0.83,0.083-0.83,0.444c0,0.234,0.151,0.342,0.342,0.342
				c0.239,0,0.415-0.156,0.469-0.327c0.015-0.044,0.02-0.093,0.02-0.132V4.408z"/>
			<path fill="#FFFFFF" d="M15.084,5.019c0.137,0.083,0.396,0.171,0.61,0.171c0.264,0,0.381-0.107,0.381-0.264
				c0-0.161-0.098-0.244-0.391-0.347c-0.464-0.161-0.659-0.415-0.654-0.693c0-0.42,0.347-0.747,0.898-0.747
				c0.264,0,0.493,0.068,0.63,0.142l-0.117,0.425c-0.103-0.059-0.293-0.137-0.503-0.137c-0.215,0-0.332,0.103-0.332,0.249
				c0,0.151,0.112,0.225,0.415,0.332c0.43,0.156,0.63,0.376,0.635,0.728c0,0.43-0.337,0.742-0.967,0.742
				c-0.288,0-0.547-0.068-0.723-0.166L15.084,5.019z"/>
			<path fill="#FFFFFF" d="M16.907,2.104h0.605V3.52h0.01c0.073-0.112,0.171-0.205,0.298-0.273c0.117-0.068,0.259-0.107,0.41-0.107
				c0.405,0,0.83,0.269,0.83,1.03V5.57H18.46V4.237c0-0.347-0.127-0.605-0.459-0.605c-0.234,0-0.4,0.156-0.464,0.337
				c-0.02,0.049-0.024,0.112-0.024,0.181V5.57h-0.605V2.104z"/>
			<path fill="#FFFFFF" d="M20.852,2.279V5.57h-0.601V2.279H20.852z"/>
			<path fill="#FFFFFF" d="M21.898,2.279V5.57h-0.601V2.279H21.898z"/>
		</g>
		<g>
			<defs>
				<rect id="SVGID_105_" y="8.214" width="22.678" height="14.464"/>
			</defs>
			<clipPath id="SVGID_2_">
				<use xlink:href="#SVGID_105_"  overflow="visible"/>
			</clipPath>
			<g clip-path="url(#SVGID_2_)">
				<g>
					<path fill="#FFFFFF" d="M3.26,18.5H1.015v-5.542H3.26V18.5z M1.515,18H2.76v-4.542H1.515V18z"/>
				</g>
				<g>
					<path fill="#FFFFFF" d="M5.625,17.781H2.76v-4.104h2.865l0.844,0.688v2.729L5.625,17.781z M3.26,17.281h2.187l0.522-0.425
						v-2.254l-0.522-0.425H3.26V17.281z"/>
				</g>
				<g>
					<path fill="#FFFFFF" d="M1.515,16.812H0c-0.138,0-0.25-0.112-0.25-0.25s0.112-0.25,0.25-0.25h1.015v-1.166H0
						c-0.138,0-0.25-0.112-0.25-0.25s0.112-0.25,0.25-0.25h1.515V16.812z"/>
				</g>
				<g>
					<path fill="#FFFFFF" d="M3.01,14.466H1.265c-0.138,0-0.25-0.112-0.25-0.25s0.112-0.25,0.25-0.25H3.01
						c0.138,0,0.25,0.112,0.25,0.25S3.148,14.466,3.01,14.466z"/>
				</g>
				<g>
					<path fill="#FFFFFF" d="M3.01,15.474H1.265c-0.138,0-0.25-0.112-0.25-0.25s0.112-0.25,0.25-0.25H3.01
						c0.138,0,0.25,0.112,0.25,0.25S3.148,15.474,3.01,15.474z"/>
				</g>
				<g>
					<path fill="#FFFFFF" d="M3.01,16.483H1.265c-0.138,0-0.25-0.112-0.25-0.25s0.112-0.25,0.25-0.25H3.01
						c0.138,0,0.25,0.112,0.25,0.25S3.148,16.483,3.01,16.483z"/>
				</g>
				<g>
					<path fill="#FFFFFF" d="M3.01,17.491H1.265c-0.138,0-0.25-0.112-0.25-0.25s0.112-0.25,0.25-0.25H3.01
						c0.138,0,0.25,0.112,0.25,0.25S3.148,17.491,3.01,17.491z"/>
				</g>
				<g>
					<path fill="#FFFFFF" d="M12.886,15.978h-0.451c-0.138,0-0.25-0.112-0.25-0.25s0.112-0.25,0.25-0.25h0.451
						c0.138,0,0.25,0.112,0.25,0.25S13.024,15.978,12.886,15.978z"/>
				</g>
				<g>
					<path fill="#FFFFFF" d="M15.16,15.978h-0.451c-0.138,0-0.25-0.112-0.25-0.25s0.112-0.25,0.25-0.25h0.451
						c0.138,0,0.25,0.112,0.25,0.25S15.298,15.978,15.16,15.978z"/>
				</g>
				<g>
					<path fill="#FFFFFF" d="M8.081,15.978H7.63c-0.138,0-0.25-0.112-0.25-0.25s0.112-0.25,0.25-0.25h0.451
						c0.138,0,0.25,0.112,0.25,0.25S8.219,15.978,8.081,15.978z"/>
				</g>
				<g>
					<path fill="#FFFFFF" d="M5.969,17.246v-3.034l11.744,0.434h0c0.588,0,1.073,0.486,1.073,1.083c0,0.597-0.486,1.083-1.083,1.083
						L5.969,17.246z M6.469,14.73v1.997l11.225-0.415c0.331,0,0.592-0.262,0.592-0.583s-0.262-0.583-0.583-0.583L6.469,14.73z"/>
				</g>
				<g opacity="0.5">
					<path fill="#FFFFFF" d="M6.78,20.109c-0.264,0-0.499-0.128-0.646-0.327c-0.706,0.053-1.216,0.077-1.625,0.077
						c-4.393,0-4.954-0.106-4.954-2.875h0.889c0,1.986,0,1.986,4.065,1.986c0.444,0,1.022-0.03,1.875-0.099
						c0.119-0.01,0.239,0.03,0.329,0.109c0.019,0.016,0.036,0.034,0.051,0.053c0.071-0.123,0.197-0.207,0.342-0.222
						c0.797-0.08,1.695-0.18,2.612-0.289c0.118-0.014,0.237,0.02,0.329,0.094c0.023,0.019,0.045,0.039,0.064,0.062
						c0.065-0.133,0.193-0.226,0.343-0.245c0.868-0.11,1.746-0.229,2.605-0.349c0.119-0.016,0.239,0.016,0.334,0.089
						c0.023,0.018,0.044,0.038,0.063,0.059c0.004-0.009,0.008-0.018,0.013-0.026c0.067-0.126,0.19-0.212,0.331-0.231
						c0.926-0.13,1.812-0.259,2.599-0.389c0.121-0.019,0.244,0.011,0.341,0.085c0.025,0.019,0.048,0.041,0.069,0.065
						c0.003-0.006,0.005-0.011,0.008-0.017c0.065-0.125,0.186-0.212,0.325-0.233c0.934-0.146,1.543-0.268,1.88-0.342v-2.829
						c-0.337-0.074-0.946-0.196-1.88-0.342c-0.139-0.022-0.26-0.108-0.325-0.233c-0.027-0.052-0.044-0.109-0.049-0.166
						c-0.008,0.086-0.023,0.161-0.097,0.217c-0.097,0.074-0.152,0.102-0.273,0.082c-0.787-0.129-1.673-0.259-2.599-0.389
						c-0.141-0.02-0.264-0.106-0.331-0.231c-0.005-0.009-0.009-0.017-0.013-0.026c-0.019,0.021-0.04,0.041-0.063,0.059
						c-0.095,0.073-0.216,0.105-0.334,0.089c-0.859-0.12-1.737-0.239-2.605-0.349c-0.15-0.019-0.278-0.112-0.343-0.245
						c-0.019,0.023-0.04,0.043-0.064,0.062c-0.093,0.074-0.212,0.108-0.329,0.094c-0.917-0.109-1.814-0.209-2.612-0.289
						c-0.145-0.015-0.271-0.098-0.342-0.222c-0.016,0.019-0.033,0.037-0.051,0.053c-0.09,0.079-0.21,0.119-0.329,0.109
						c-0.852-0.068-1.43-0.099-1.875-0.099c-4.065,0-4.065,0-4.065,1.986h-0.889c0-2.768,0.561-2.875,4.954-2.875
						c0.409,0,0.919,0.024,1.625,0.077c0.324-0.438,1.125-0.365,1.377,0.118c0.627,0.065,1.307,0.14,2.003,0.222
						c0.343-0.402,1.12-0.311,1.362,0.167c0.665,0.086,1.334,0.176,1.993,0.268c0.352-0.404,1.14-0.295,1.369,0.198
						c0.695,0.099,1.364,0.197,1.981,0.295c0.353-0.411,1.146-0.296,1.372,0.202c1.382,0.225,1.967,0.384,1.993,0.391
						c0.193,0.053,0.327,0.229,0.327,0.429v3.531c0,0.2-0.134,0.375-0.327,0.429c-0.026,0.007-0.61,0.166-1.993,0.391
						c-0.225,0.498-1.018,0.612-1.372,0.202c-0.617,0.098-1.286,0.196-1.981,0.295c-0.229,0.493-1.017,0.602-1.369,0.198
						c-0.659,0.091-1.328,0.182-1.993,0.268c-0.242,0.478-1.019,0.568-1.362,0.167c-0.696,0.082-1.375,0.157-2.003,0.222
						C7.374,19.928,7.098,20.109,6.78,20.109z"/>
				</g>
				<g>
					<g>
						<g opacity="0.5">
							<circle fill="#FFFFFF" cx="13.489" cy="20.276" r="0.583"/>
						</g>
						<g opacity="0.5">
							<circle fill="#FFFFFF" cx="13.489" cy="22.015" r="0.583"/>
						</g>
					</g>
					<g>
						<g opacity="0.5">
							<circle fill="#FFFFFF" cx="16.839" cy="19.787" r="0.583"/>
						</g>
						<g opacity="0.5">
							<circle fill="#FFFFFF" cx="16.839" cy="21.525" r="0.583"/>
						</g>
					</g>
					<g>
						<g opacity="0.5">
							<circle fill="#FFFFFF" cx="20.116" cy="18.851" r="0.583"/>
						</g>
						<g opacity="0.5">
							<circle fill="#FFFFFF" cx="20.601" cy="20.521" r="0.583"/>
						</g>
						<g opacity="0.5">
							<circle fill="#FFFFFF" cx="21.086" cy="22.191" r="0.583"/>
						</g>
					</g>
					<g>
						<g opacity="0.5">
							<circle fill="#FFFFFF" cx="10.14" cy="20.716" r="0.583"/>
						</g>
						<g opacity="0.5">
							<circle fill="#FFFFFF" cx="10.14" cy="22.455" r="0.583"/>
						</g>
					</g>
					<g>
						<g opacity="0.5">
							<circle fill="#FFFFFF" cx="6.779" cy="21.097" r="0.583"/>
						</g>
						<g opacity="0.5">
							<circle fill="#FFFFFF" cx="6.779" cy="22.835" r="0.583"/>
						</g>
					</g>
				</g>
				<g>
					<g>
						<g opacity="0.5">
							<circle fill="#FFFFFF" cx="13.489" cy="11.181" r="0.583"/>
						</g>
						<g opacity="0.5">
							<circle fill="#FFFFFF" cx="13.489" cy="9.442" r="0.583"/>
						</g>
						<g opacity="0.5">
							<circle fill="#FFFFFF" cx="13.489" cy="7.703" r="0.583"/>
						</g>
						<g opacity="0.5">
							<circle fill="#FFFFFF" cx="13.489" cy="5.963" r="0.583"/>
						</g>
					</g>
					<g>
						<g opacity="0.5">
							<circle fill="#FFFFFF" cx="16.839" cy="11.67" r="0.583"/>
						</g>
						<g opacity="0.5">
							<circle fill="#FFFFFF" cx="16.839" cy="9.932" r="0.583"/>
						</g>
						<g opacity="0.5">
							<circle fill="#FFFFFF" cx="16.839" cy="8.192" r="0.583"/>
						</g>
						<g opacity="0.5">
							<circle fill="#FFFFFF" cx="16.839" cy="6.453" r="0.583"/>
						</g>
					</g>
					<g>
						<g opacity="0.5">
							<circle fill="#FFFFFF" cx="20.116" cy="12.606" r="0.583"/>
						</g>
						<g opacity="0.5">
							<circle fill="#FFFFFF" cx="20.601" cy="10.936" r="0.583"/>
						</g>
						<g opacity="0.5">
							<circle fill="#FFFFFF" cx="21.086" cy="9.266" r="0.583"/>
						</g>
						<g opacity="0.5">
							<circle fill="#FFFFFF" cx="21.571" cy="7.596" r="0.583"/>
						</g>
					</g>
					<g>
						<g opacity="0.5">
							<circle fill="#FFFFFF" cx="10.14" cy="10.741" r="0.583"/>
						</g>
						<g opacity="0.5">
							<circle fill="#FFFFFF" cx="10.14" cy="9.002" r="0.583"/>
						</g>
						<g opacity="0.5">
							<circle fill="#FFFFFF" cx="10.14" cy="7.263" r="0.583"/>
						</g>
						<g opacity="0.5">
							<circle fill="#FFFFFF" cx="10.14" cy="5.523" r="0.583"/>
						</g>
					</g>
					<g>
						<g opacity="0.5">
							<circle fill="#FFFFFF" cx="6.779" cy="10.36" r="0.583"/>
						</g>
						<g opacity="0.5">
							<circle fill="#FFFFFF" cx="6.779" cy="8.622" r="0.583"/>
						</g>
						<g opacity="0.5">
							<circle fill="#FFFFFF" cx="6.779" cy="6.882" r="0.583"/>
						</g>
						<g opacity="0.5">
							<circle fill="#FFFFFF" cx="6.779" cy="5.143" r="0.583"/>
						</g>
					</g>
				</g>
			</g>
		</g>
	</g>
</g>
</svg>
