<?xml version="1.0" encoding="utf-8"?>
<!-- Generator: Adobe Illustrator 16.0.3, SVG Export Plug-In . SVG Version: 6.00 Build 0)  -->
<!DOCTYPE svg PUBLIC "-//W3C//DTD SVG 1.1//EN" "http://www.w3.org/Graphics/SVG/1.1/DTD/svg11.dtd">
<svg version="1.1" xmlns="http://www.w3.org/2000/svg" xmlns:xlink="http://www.w3.org/1999/xlink" x="0px" y="0px" width="22.68px"
	 height="22.68px" viewBox="0 0 22.68 22.68" enable-background="new 0 0 22.68 22.68" xml:space="preserve">
<g id="BCGRND">
</g>
<g id="IKONY">
	<rect x="0.001" fill="#585857" width="22.677" height="22.677"/>
	<g>
		<g>
			<rect x="0.001" y="7.769" fill="#FFFFFF" width="22.678" height="0.889"/>
			<g>
				<g>
					<path fill="#FFFFFF" d="M2.442,2.278v3.291H1.842V2.278H2.442z"/>
					<path fill="#FFFFFF" d="M5.901,6.097C5.442,5.97,5.032,5.833,4.617,5.672C4.548,5.643,4.475,5.628,4.402,5.623
						c-0.762-0.039-1.44-0.601-1.44-1.67c0-1.021,0.63-1.733,1.572-1.733c0.952,0,1.519,0.732,1.519,1.665
						c0,0.791-0.366,1.323-0.85,1.519v0.02c0.283,0.078,0.601,0.146,0.869,0.195L5.901,6.097z M5.417,3.909
						c0-0.625-0.308-1.206-0.903-1.206c-0.601,0-0.918,0.571-0.918,1.23S3.933,5.14,4.509,5.14S5.417,4.603,5.417,3.909z"/>
					<path fill="#FFFFFF" d="M7.538,5.013c0.132,0.083,0.391,0.176,0.605,0.176c0.264,0,0.381-0.112,0.381-0.269
						c0-0.161-0.098-0.239-0.391-0.347C7.669,4.417,7.479,4.163,7.479,3.88c0-0.42,0.347-0.742,0.898-0.742
						c0.264,0,0.493,0.063,0.635,0.142L8.89,3.699C8.792,3.641,8.597,3.563,8.387,3.563c-0.215,0-0.332,0.107-0.332,0.254
						c0,0.151,0.112,0.22,0.415,0.332C8.905,4.3,9.1,4.52,9.105,4.871c0,0.435-0.337,0.747-0.967,0.747
						c-0.288,0-0.547-0.068-0.723-0.166L7.538,5.013z"/>
					<path fill="#FFFFFF" d="M10.025,4.549c0.015,0.43,0.347,0.615,0.732,0.615c0.278,0,0.474-0.044,0.659-0.107l0.088,0.41
						c-0.205,0.088-0.488,0.151-0.83,0.151c-0.771,0-1.226-0.474-1.226-1.201c0-0.659,0.4-1.279,1.162-1.279
						c0.771,0,1.025,0.635,1.025,1.157c0,0.112-0.01,0.2-0.02,0.254H10.025z M11.07,4.129c0.005-0.22-0.093-0.581-0.493-0.581
						c-0.371,0-0.527,0.337-0.552,0.581H11.07z"/>
					<path fill="#FFFFFF" d="M12.123,3.899c0-0.273-0.01-0.503-0.02-0.708h0.522l0.029,0.356h0.015
						c0.107-0.186,0.366-0.41,0.762-0.41c0.415,0,0.845,0.269,0.845,1.021v1.411h-0.601V4.227c0-0.342-0.127-0.601-0.454-0.601
						c-0.239,0-0.405,0.171-0.469,0.352c-0.02,0.049-0.029,0.122-0.029,0.19v1.401h-0.601V3.899z"/>
					<path fill="#FFFFFF" d="M14.695,5.223l0.894-1.143c0.122-0.146,0.225-0.264,0.347-0.4V3.67h-1.152V3.191h1.885v0.366
						l-0.869,1.118c-0.117,0.142-0.229,0.278-0.352,0.405v0.01h1.25v0.479h-2.002V5.223z"/>
					<path fill="#FFFFFF" d="M19.346,4.358c0,0.874-0.615,1.265-1.221,1.265c-0.669,0-1.191-0.459-1.191-1.226
						c0-0.781,0.513-1.26,1.23-1.26C18.873,3.138,19.346,3.636,19.346,4.358z M17.554,4.383c0,0.459,0.229,0.806,0.591,0.806
						c0.342,0,0.581-0.332,0.581-0.815c0-0.371-0.166-0.801-0.576-0.801C17.725,3.572,17.554,3.987,17.554,4.383z"/>
					<path fill="#FFFFFF" d="M19.843,3.958c0-0.322-0.005-0.557-0.02-0.767h0.518l0.024,0.449h0.015
						c0.117-0.332,0.396-0.503,0.654-0.503c0.059,0,0.093,0.005,0.142,0.015v0.562c-0.054-0.01-0.107-0.015-0.181-0.015
						c-0.283,0-0.483,0.181-0.537,0.454c-0.01,0.054-0.015,0.117-0.015,0.181v1.235h-0.601V3.958z"/>
				</g>
			</g>
		</g>
		<g>
			<path fill="#FFFFFF" d="M6.609,17.085l-0.067-0.421C6.542,16.808,6.568,16.948,6.609,17.085z"/>
			<path fill="#FFFFFF" d="M16.139,16.664l-0.067,0.421C16.112,16.948,16.139,16.808,16.139,16.664z"/>
			<path fill="#FFFFFF" fill-opacity="0.3" d="M11.339,10.338c-2.649,0-4.798,1.177-4.798,2.627c0,0.73,0.548,1.392,1.428,1.868
				c0.359,0.193,0.771,0.354,1.227,0.479c0.646,0.177,1.371,0.279,2.144,0.279s1.5-0.102,2.146-0.279
				c0.455-0.125,0.869-0.286,1.225-0.479c0.883-0.477,1.43-1.138,1.43-1.868C16.139,11.515,13.992,10.338,11.339,10.338z"/>
			<path fill="#FFFFFF" fill-opacity="0.5" d="M15.795,17.637c-0.138,0.188-0.313,0.366-0.52,0.528
				c-0.867,0.681-2.307,1.126-3.937,1.126c-1.628,0-3.067-0.446-3.933-1.126c-0.21-0.162-0.383-0.34-0.52-0.528
				c-0.131-0.175-0.223-0.359-0.278-0.552l0.173,0.881c0,1.378,2.043,2.496,4.558,2.496c2.519,0,4.56-1.118,4.56-2.496l0.173-0.881
				C16.016,17.278,15.924,17.462,15.795,17.637z"/>
			<path fill="#FFFFFF" d="M16.057,16.186c-0.057,0.166-0.141,0.326-0.251,0.479c-0.101,0.144-0.228,0.28-0.372,0.409
				c-0.556,0.498-1.403,0.886-2.412,1.092c-0.525,0.108-1.09,0.169-1.683,0.169c-0.591,0-1.155-0.062-1.679-0.169
				c-1.011-0.206-1.857-0.594-2.414-1.092c-0.145-0.129-0.271-0.266-0.373-0.409c-0.109-0.152-0.193-0.313-0.25-0.479
				c-0.052-0.155-0.082-0.315-0.082-0.478v0.956l0.067,0.421c0.056,0.193,0.147,0.377,0.278,0.552
				c0.137,0.188,0.31,0.366,0.52,0.528c0.865,0.681,2.305,1.126,3.933,1.126c1.63,0,3.069-0.446,3.937-1.126
				c0.207-0.162,0.382-0.34,0.52-0.528c0.129-0.175,0.221-0.359,0.276-0.552l0.067-0.421v-0.956
				C16.139,15.871,16.109,16.03,16.057,16.186z"/>
			<path fill="#FFFFFF" fill-opacity="0.5" d="M14.709,14.833c-0.355,0.193-0.77,0.354-1.225,0.479
				c-0.646,0.177-1.373,0.279-2.146,0.279s-1.497-0.102-2.144-0.279c-0.455-0.125-0.867-0.286-1.227-0.479
				c-0.88-0.477-1.428-1.138-1.428-1.868v2.743c0,0.163,0.03,0.322,0.082,0.478c0.057,0.166,0.141,0.326,0.25,0.479
				c0.103,0.144,0.229,0.28,0.373,0.409c0.557,0.498,1.403,0.886,2.414,1.092c0.523,0.108,1.088,0.169,1.679,0.169
				c0.593,0,1.157-0.062,1.683-0.169c1.009-0.206,1.856-0.594,2.412-1.092c0.145-0.129,0.271-0.266,0.372-0.409
				c0.11-0.152,0.194-0.313,0.251-0.479c0.052-0.155,0.082-0.315,0.082-0.478v-2.743C16.139,13.696,15.592,14.357,14.709,14.833z"/>
		</g>
		<g>
			<g>
				<g>
					<path fill="#FFFFFF" d="M1.599,16.992c-0.967-1.941-1.119-4.144-0.428-6.204C1.512,9.77,2.04,8.845,2.742,8.04l0.68,0.593
						C2.799,9.348,2.33,10.17,2.027,11.075c-0.614,1.832-0.479,3.79,0.381,5.515L1.599,16.992z"/>
					<path fill="#FFFFFF" d="M3.32,16.138c-0.74-1.482-0.858-3.166-0.332-4.74c0.267-0.794,0.682-1.512,1.233-2.135l0.676,0.599
						c-0.472,0.532-0.826,1.146-1.054,1.823c-0.449,1.345-0.349,2.783,0.283,4.05L3.32,16.138z"/>
					<path fill="#FFFFFF" d="M5.036,15.284c-0.511-1.028-0.592-2.191-0.229-3.276c0.188-0.554,0.475-1.05,0.853-1.475l0.674,0.6
						c-0.297,0.334-0.522,0.726-0.671,1.164c-0.287,0.854-0.223,1.773,0.182,2.586L5.036,15.284z"/>
				</g>
				<g>
					<path fill="#FFFFFF" d="M21.081,16.992l-0.809-0.402c0.86-1.727,0.995-3.685,0.38-5.514c-0.304-0.91-0.773-1.731-1.395-2.442
						l0.68-0.594c0.7,0.802,1.229,1.727,1.57,2.75C22.199,12.846,22.047,15.049,21.081,16.992z"/>
					<path fill="#FFFFFF" d="M19.359,16.138l-0.807-0.403c0.632-1.267,0.733-2.706,0.285-4.051c-0.23-0.68-0.585-1.293-1.054-1.822
						l0.676-0.599c0.549,0.62,0.964,1.337,1.233,2.134C20.218,12.972,20.099,14.655,19.359,16.138z"/>
					<path fill="#FFFFFF" d="M17.643,15.284l-0.809-0.401c0.404-0.813,0.469-1.732,0.181-2.587c-0.144-0.432-0.369-0.823-0.67-1.165
						l0.678-0.597c0.381,0.433,0.666,0.929,0.848,1.475C18.235,13.091,18.154,14.255,17.643,15.284z"/>
				</g>
			</g>
		</g>
		<ellipse fill="#FFFFFF" cx="11.339" cy="11.523" rx="1.428" ry="0.751"/>
	</g>
</g>
</svg>
