<?xml version="1.0" encoding="utf-8"?>
<!-- Generator: Adobe Illustrator 16.0.3, SVG Export Plug-In . SVG Version: 6.00 Build 0)  -->
<!DOCTYPE svg PUBLIC "-//W3C//DTD SVG 1.1//EN" "http://www.w3.org/Graphics/SVG/1.1/DTD/svg11.dtd">
<svg version="1.1" xmlns="http://www.w3.org/2000/svg" xmlns:xlink="http://www.w3.org/1999/xlink" x="0px" y="0px" width="22.68px"
	 height="22.68px" viewBox="0 0 22.68 22.68" enable-background="new 0 0 22.68 22.68" xml:space="preserve">
<g id="BCGRND">
</g>
<g id="IKONY">
	<rect x="0" fill="#585857" width="22.676" height="22.678"/>
	<g>
		<path fill="#FFFFFF" d="M2.166,2.277h0.596v1.514h0.015c0.078-0.127,0.161-0.244,0.239-0.355l0.864-1.158h0.737L3.484,3.68
			L4.69,5.568H3.987L3.059,4.061L2.761,4.412v1.156H2.166V2.277z"/>
		<path fill="#FFFFFF" d="M7.038,4.998c0,0.215,0.01,0.424,0.039,0.57H6.535L6.491,5.305H6.476C6.334,5.49,6.085,5.623,5.773,5.623
			c-0.479,0-0.747-0.348-0.747-0.709c0-0.596,0.532-0.902,1.411-0.898V3.977c0-0.156-0.063-0.414-0.483-0.414
			c-0.234,0-0.479,0.072-0.64,0.176L5.197,3.348C5.373,3.24,5.68,3.137,6.056,3.137c0.762,0,0.981,0.484,0.981,1.006V4.998z
			 M6.452,4.406c-0.425-0.004-0.83,0.084-0.83,0.445c0,0.234,0.151,0.342,0.342,0.342c0.244,0,0.415-0.156,0.474-0.328
			c0.015-0.043,0.015-0.088,0.015-0.131V4.406z"/>
		<path fill="#FFFFFF" d="M8.505,2.58v0.611h0.571v0.449H8.505v1.049c0,0.293,0.078,0.439,0.308,0.439
			c0.107,0,0.166-0.004,0.234-0.023l0.01,0.453C8.969,5.594,8.808,5.623,8.623,5.623c-0.225,0-0.405-0.074-0.518-0.195
			c-0.132-0.137-0.19-0.357-0.19-0.67V3.641H7.578V3.191h0.337V2.746L8.505,2.58z"/>
		<path fill="#FFFFFF" d="M11.55,4.998c0,0.215,0.01,0.424,0.039,0.57h-0.542l-0.044-0.264h-0.015
			c-0.142,0.186-0.391,0.318-0.703,0.318c-0.479,0-0.747-0.348-0.747-0.709c0-0.596,0.532-0.902,1.411-0.898V3.977
			c0-0.156-0.063-0.414-0.483-0.414c-0.234,0-0.479,0.072-0.64,0.176L9.709,3.348c0.176-0.107,0.483-0.211,0.859-0.211
			c0.762,0,0.981,0.484,0.981,1.006V4.998z M10.964,4.406c-0.425-0.004-0.83,0.084-0.83,0.445c0,0.234,0.151,0.342,0.342,0.342
			c0.244,0,0.415-0.156,0.474-0.328c0.015-0.043,0.015-0.088,0.015-0.131V4.406z"/>
		<path fill="#FFFFFF" d="M12.359,2.102h0.601v3.467h-0.601V2.102z"/>
		<path fill="#FFFFFF" d="M14.167,3.191l0.425,1.273c0.049,0.146,0.103,0.328,0.137,0.459h0.015
			c0.034-0.131,0.078-0.313,0.127-0.463l0.371-1.27h0.64l-0.596,1.621c-0.327,0.889-0.547,1.283-0.825,1.527
			c-0.239,0.205-0.483,0.283-0.63,0.303l-0.137-0.502c0.103-0.025,0.225-0.078,0.347-0.166C14.158,5.9,14.29,5.76,14.373,5.598
			c0.024-0.043,0.034-0.078,0.034-0.107c0-0.023-0.005-0.059-0.029-0.117l-0.874-2.182H14.167z M15.476,2.16L14.88,2.883h-0.415
			L14.89,2.16H15.476z"/>
		<path fill="#FFFFFF" d="M16.177,5.223l0.894-1.143c0.122-0.146,0.225-0.264,0.347-0.4V3.67h-1.152V3.191h1.885v0.365l-0.869,1.119
			c-0.117,0.141-0.229,0.277-0.352,0.404v0.01h1.25v0.479h-2.002V5.223z"/>
		<path fill="#FFFFFF" d="M20.619,4.998c0,0.215,0.01,0.424,0.039,0.57h-0.542l-0.044-0.264h-0.015
			c-0.142,0.186-0.391,0.318-0.703,0.318c-0.479,0-0.747-0.348-0.747-0.709c0-0.596,0.532-0.902,1.411-0.898V3.977
			c0-0.156-0.063-0.414-0.483-0.414c-0.234,0-0.479,0.072-0.64,0.176l-0.117-0.391c0.176-0.107,0.483-0.211,0.859-0.211
			c0.762,0,0.981,0.484,0.981,1.006V4.998z M20.033,4.406c-0.425-0.004-0.83,0.084-0.83,0.445c0,0.234,0.151,0.342,0.342,0.342
			c0.244,0,0.415-0.156,0.474-0.328c0.015-0.043,0.015-0.088,0.015-0.131V4.406z"/>
	</g>
	<path fill="#FFFFFF" d="M0,7.769v0.889h3.543v9.216c0,1.333,1.084,2.418,2.418,2.418h10.756c1.333,0,2.418-1.085,2.418-2.418V8.657
		h3.543V7.769H0z M18.135,17.873c0,0.782-0.636,1.418-1.418,1.418H5.961c-0.782,0-1.418-0.636-1.418-1.418V8.657h13.592V17.873z
		 M16.106,14.27c0.052,0.029,0.1,0.055,0.151,0.08c0.056,0.028,0.113,0.058,0.167,0.082c0.086,0.039,0.165,0.072,0.235,0.092
		c0.063,0.02,0.117,0.031,0.16,0.031c0.089,0,0.175-0.023,0.26-0.066c0.029-0.016,0.054-0.045,0.081-0.065
		c0.126-0.095,0.222-0.235,0.269-0.401v-0.437c-0.047-0.165-0.143-0.306-0.269-0.4c-0.027-0.021-0.052-0.05-0.082-0.065
		c-0.084-0.043-0.169-0.066-0.259-0.066c-0.043,0-0.097,0.012-0.16,0.03c-0.07,0.022-0.151,0.054-0.237,0.093
		c-0.054,0.025-0.111,0.053-0.167,0.082c-0.052,0.025-0.1,0.051-0.149,0.078c-0.046,0.025-0.091,0.049-0.134,0.074
		c-0.344,0.193-0.648,0.393-0.648,0.393s0.305,0.2,0.648,0.395C16.015,14.223,16.06,14.246,16.106,14.27z M16.106,10.792
		c0.052,0.028,0.1,0.054,0.151,0.079c0.056,0.029,0.113,0.059,0.167,0.083c0.086,0.038,0.165,0.071,0.235,0.092
		c0.063,0.019,0.117,0.032,0.16,0.032c0.089,0,0.175-0.023,0.26-0.068c0.029-0.015,0.054-0.043,0.081-0.064
		c0.126-0.095,0.222-0.234,0.269-0.4v-0.438c-0.047-0.166-0.143-0.305-0.269-0.4c-0.027-0.021-0.052-0.05-0.082-0.066
		c-0.084-0.043-0.169-0.065-0.259-0.065c-0.043,0-0.097,0.012-0.16,0.03c-0.07,0.021-0.151,0.055-0.237,0.094
		c-0.054,0.023-0.111,0.053-0.167,0.081c-0.052,0.026-0.1,0.051-0.149,0.079c-0.046,0.024-0.091,0.049-0.134,0.073
		c-0.344,0.193-0.648,0.392-0.648,0.392s0.305,0.201,0.648,0.395C16.015,10.744,16.06,10.768,16.106,10.792z M16.106,17.747
		c0.052,0.028,0.1,0.054,0.151,0.079c0.056,0.029,0.113,0.059,0.167,0.083c0.086,0.038,0.165,0.071,0.235,0.092
		c0.063,0.019,0.117,0.032,0.16,0.032c0.089,0,0.175-0.023,0.26-0.068c0.029-0.015,0.054-0.043,0.081-0.064
		c0.126-0.095,0.222-0.234,0.269-0.4v-0.438c-0.047-0.166-0.143-0.305-0.269-0.4c-0.027-0.021-0.052-0.05-0.082-0.066
		c-0.084-0.043-0.169-0.065-0.259-0.065c-0.043,0-0.097,0.012-0.16,0.03c-0.07,0.021-0.151,0.055-0.237,0.094
		c-0.054,0.023-0.111,0.053-0.167,0.081c-0.052,0.026-0.1,0.051-0.149,0.079c-0.046,0.024-0.091,0.049-0.134,0.073
		c-0.344,0.193-0.648,0.392-0.648,0.392s0.305,0.201,0.648,0.395C16.015,17.699,16.06,17.723,16.106,17.747z M5.6,17.965
		c0.085,0.045,0.171,0.068,0.26,0.068c0.043,0,0.097-0.014,0.16-0.032c0.07-0.021,0.149-0.054,0.235-0.092
		c0.054-0.024,0.111-0.054,0.167-0.083c0.052-0.025,0.1-0.051,0.151-0.079c0.046-0.024,0.091-0.048,0.134-0.073
		c0.344-0.193,0.648-0.395,0.648-0.395s-0.305-0.198-0.648-0.392c-0.043-0.024-0.088-0.049-0.134-0.073
		c-0.05-0.028-0.098-0.053-0.149-0.079c-0.056-0.028-0.113-0.058-0.167-0.081c-0.086-0.039-0.167-0.072-0.237-0.094
		c-0.063-0.019-0.117-0.03-0.16-0.03c-0.09,0-0.175,0.022-0.259,0.065c-0.03,0.017-0.055,0.045-0.082,0.066
		c-0.126,0.096-0.222,0.234-0.269,0.4V17.5c0.047,0.166,0.143,0.306,0.269,0.4C5.546,17.922,5.571,17.95,5.6,17.965z M5.6,11.01
		c0.085,0.045,0.171,0.068,0.26,0.068c0.043,0,0.097-0.014,0.16-0.032c0.07-0.021,0.149-0.054,0.235-0.092
		c0.054-0.024,0.111-0.054,0.167-0.083c0.052-0.025,0.1-0.051,0.151-0.079c0.046-0.024,0.091-0.048,0.134-0.073
		c0.344-0.193,0.648-0.395,0.648-0.395s-0.305-0.198-0.648-0.392C6.665,9.908,6.62,9.884,6.574,9.859
		C6.524,9.831,6.476,9.807,6.424,9.78C6.369,9.752,6.311,9.723,6.257,9.699C6.171,9.66,6.09,9.627,6.02,9.605
		c-0.063-0.019-0.117-0.03-0.16-0.03c-0.09,0-0.175,0.022-0.259,0.065c-0.03,0.017-0.055,0.045-0.082,0.066
		c-0.126,0.096-0.222,0.234-0.269,0.4v0.438c0.047,0.166,0.143,0.306,0.269,0.4C5.546,10.967,5.571,10.995,5.6,11.01z M5.6,14.488
		c0.085,0.043,0.171,0.066,0.26,0.066c0.043,0,0.097-0.012,0.16-0.031c0.07-0.02,0.149-0.053,0.235-0.092
		c0.054-0.024,0.111-0.054,0.167-0.082c0.052-0.025,0.1-0.051,0.151-0.08c0.046-0.023,0.091-0.047,0.134-0.072
		c0.344-0.194,0.648-0.395,0.648-0.395s-0.305-0.199-0.648-0.393c-0.043-0.025-0.088-0.049-0.134-0.074
		c-0.05-0.027-0.098-0.053-0.149-0.078c-0.056-0.029-0.113-0.057-0.167-0.082c-0.086-0.039-0.167-0.07-0.237-0.093
		c-0.063-0.019-0.117-0.03-0.16-0.03c-0.09,0-0.175,0.023-0.259,0.066c-0.03,0.016-0.055,0.044-0.082,0.065
		c-0.126,0.095-0.222,0.235-0.269,0.4v0.437c0.047,0.166,0.143,0.307,0.269,0.401C5.546,14.443,5.571,14.473,5.6,14.488z"/>
	<g opacity="0.5">
		<path fill="#FFFFFF" d="M7.643,9.454c-0.041-0.02-0.085-0.038-0.127-0.058C7.194,9.26,6.892,9.15,6.665,9.104
			C6.598,9.09,6.536,9.08,6.483,9.079c-0.006,0-0.013-0.001-0.019-0.001c0,0-0.01,0.001-0.016,0.001
			C6.26,9.082,6.083,9.129,5.925,9.205C5.883,9.226,5.843,9.246,5.808,9.269C5.781,9.287,5.752,9.305,5.726,9.325
			C5.667,9.369,5.612,9.416,5.56,9.471C5.536,9.496,5.514,9.523,5.494,9.553c-0.022,0.025-0.046,0.051-0.065,0.08
			C5.334,9.771,5.281,9.936,5.25,10.107c0.047-0.166,0.143-0.305,0.269-0.4c0.027-0.021,0.052-0.05,0.082-0.066
			C5.685,9.598,5.77,9.575,5.86,9.575c0.043,0,0.097,0.012,0.16,0.03C6.09,9.627,6.171,9.66,6.257,9.699
			C6.311,9.723,6.369,9.752,6.424,9.78c0.052,0.026,0.1,0.051,0.149,0.079C6.62,9.884,6.665,9.908,6.708,9.933
			c0.344,0.193,0.648,0.392,0.648,0.392s-0.305,0.201-0.648,0.395c-0.043,0.025-0.088,0.049-0.134,0.073
			c-0.052,0.028-0.1,0.054-0.151,0.079C6.367,10.9,6.309,10.93,6.255,10.954c-0.086,0.038-0.165,0.071-0.235,0.092
			c-0.063,0.019-0.117,0.032-0.16,0.032c-0.089,0-0.175-0.023-0.26-0.068c-0.029-0.015-0.054-0.043-0.081-0.064
			c-0.126-0.095-0.222-0.234-0.269-0.4c0.032,0.172,0.084,0.334,0.178,0.474c0.021,0.03,0.045,0.054,0.065,0.083
			c0.021,0.025,0.042,0.053,0.066,0.078c0.052,0.055,0.107,0.104,0.167,0.147c0.026,0.019,0.054,0.038,0.081,0.055
			c0.035,0.024,0.075,0.046,0.117,0.065c0.159,0.076,0.337,0.124,0.524,0.126c0.005,0,0.011,0.001,0.011,0.001
			c0.01,0,0.018-0.001,0.024-0.002c0.052-0.001,0.113-0.01,0.182-0.024c0.228-0.046,0.527-0.155,0.85-0.294
			c0.042-0.019,0.086-0.037,0.129-0.057c0.043-0.019,0.085-0.037,0.127-0.057c0.792-0.36,1.599-0.816,1.599-0.816
			S8.564,9.871,7.772,9.512C7.73,9.492,7.688,9.473,7.643,9.454z M7.643,12.932c-0.041-0.02-0.085-0.038-0.127-0.057
			c-0.322-0.138-0.624-0.247-0.852-0.294c-0.066-0.015-0.129-0.022-0.182-0.024c-0.006,0-0.013-0.001-0.019-0.001
			c0,0-0.01,0.001-0.016,0.001c-0.188,0.002-0.365,0.049-0.523,0.125c-0.042,0.021-0.082,0.041-0.117,0.064
			c-0.027,0.019-0.056,0.037-0.082,0.057c-0.06,0.043-0.114,0.092-0.166,0.145c-0.024,0.027-0.046,0.055-0.066,0.082
			c-0.022,0.027-0.046,0.053-0.065,0.08c-0.094,0.14-0.147,0.304-0.178,0.476c0.047-0.165,0.143-0.306,0.269-0.4
			c0.027-0.021,0.052-0.05,0.082-0.065c0.084-0.043,0.169-0.066,0.259-0.066c0.043,0,0.097,0.012,0.16,0.03
			c0.07,0.022,0.151,0.054,0.237,0.093c0.054,0.025,0.111,0.053,0.167,0.082c0.052,0.025,0.1,0.051,0.149,0.078
			c0.046,0.025,0.091,0.049,0.134,0.074c0.344,0.193,0.648,0.393,0.648,0.393s-0.305,0.2-0.648,0.395
			c-0.043,0.025-0.088,0.049-0.134,0.072c-0.052,0.029-0.1,0.055-0.151,0.08c-0.056,0.028-0.113,0.058-0.167,0.082
			c-0.086,0.039-0.165,0.072-0.235,0.092c-0.063,0.02-0.117,0.031-0.16,0.031c-0.089,0-0.175-0.023-0.26-0.066
			c-0.029-0.016-0.054-0.045-0.081-0.065c-0.126-0.095-0.222-0.235-0.269-0.401c0.032,0.172,0.084,0.336,0.178,0.475
			c0.021,0.029,0.045,0.055,0.065,0.082c0.021,0.026,0.042,0.055,0.066,0.08c0.052,0.055,0.107,0.103,0.167,0.146
			c0.026,0.02,0.054,0.037,0.081,0.055c0.035,0.025,0.075,0.045,0.117,0.064c0.159,0.078,0.337,0.125,0.524,0.127
			c0.005,0,0.011,0.001,0.011,0.001c0.01,0,0.018-0.001,0.024-0.001c0.052-0.002,0.113-0.011,0.182-0.025
			c0.228-0.046,0.527-0.155,0.85-0.295c0.042-0.018,0.086-0.035,0.129-0.055s0.085-0.039,0.127-0.057
			c0.792-0.361,1.599-0.816,1.599-0.816s-0.807-0.455-1.599-0.814C7.73,12.97,7.688,12.949,7.643,12.932z M7.643,16.409
			c-0.041-0.02-0.085-0.038-0.127-0.058c-0.322-0.137-0.624-0.246-0.852-0.293c-0.066-0.014-0.129-0.023-0.182-0.024
			c-0.006,0-0.013-0.001-0.019-0.001c0,0-0.01,0.001-0.016,0.001c-0.188,0.003-0.365,0.05-0.523,0.126
			c-0.042,0.021-0.082,0.041-0.117,0.063c-0.027,0.019-0.056,0.036-0.082,0.057c-0.06,0.044-0.114,0.091-0.166,0.146
			c-0.024,0.025-0.046,0.053-0.066,0.082c-0.022,0.025-0.046,0.051-0.065,0.08c-0.094,0.139-0.147,0.303-0.178,0.475
			c0.047-0.166,0.143-0.305,0.269-0.4c0.027-0.021,0.052-0.05,0.082-0.066C5.685,16.553,5.77,16.53,5.86,16.53
			c0.043,0,0.097,0.012,0.16,0.03c0.07,0.021,0.151,0.055,0.237,0.094c0.054,0.023,0.111,0.053,0.167,0.081
			c0.052,0.026,0.1,0.051,0.149,0.079c0.046,0.024,0.091,0.049,0.134,0.073c0.344,0.193,0.648,0.392,0.648,0.392
			s-0.305,0.201-0.648,0.395c-0.043,0.025-0.088,0.049-0.134,0.073c-0.052,0.028-0.1,0.054-0.151,0.079
			c-0.056,0.029-0.113,0.059-0.167,0.083C6.169,17.947,6.09,17.98,6.02,18.001c-0.063,0.019-0.117,0.032-0.16,0.032
			c-0.089,0-0.175-0.023-0.26-0.068C5.571,17.95,5.546,17.922,5.519,17.9c-0.126-0.095-0.222-0.234-0.269-0.4
			c0.032,0.172,0.084,0.334,0.178,0.474c0.021,0.03,0.045,0.054,0.065,0.083c0.021,0.025,0.042,0.053,0.066,0.078
			c0.052,0.055,0.107,0.104,0.167,0.147c0.026,0.019,0.054,0.038,0.081,0.055c0.035,0.024,0.075,0.046,0.117,0.065
			c0.159,0.076,0.337,0.124,0.524,0.126c0.005,0,0.011,0.001,0.011,0.001c0.01,0,0.018-0.001,0.024-0.002
			c0.052-0.001,0.113-0.01,0.182-0.024c0.228-0.046,0.527-0.155,0.85-0.294c0.042-0.019,0.086-0.037,0.129-0.057
			c0.043-0.019,0.085-0.037,0.127-0.057c0.792-0.36,1.599-0.816,1.599-0.816s-0.807-0.453-1.599-0.813
			C7.73,16.447,7.688,16.428,7.643,16.409z M17.08,11.01c-0.085,0.045-0.171,0.068-0.26,0.068c-0.043,0-0.097-0.014-0.16-0.032
			c-0.07-0.021-0.149-0.054-0.235-0.092c-0.054-0.024-0.111-0.054-0.167-0.083c-0.052-0.025-0.1-0.051-0.151-0.079
			c-0.046-0.024-0.091-0.048-0.134-0.073c-0.344-0.193-0.648-0.395-0.648-0.395s0.305-0.198,0.648-0.392
			c0.043-0.024,0.088-0.049,0.134-0.073c0.05-0.028,0.098-0.053,0.149-0.079c0.056-0.028,0.113-0.058,0.167-0.081
			c0.086-0.039,0.167-0.072,0.237-0.094c0.063-0.019,0.117-0.03,0.16-0.03c0.09,0,0.175,0.022,0.259,0.065
			c0.03,0.017,0.055,0.045,0.082,0.066c0.126,0.096,0.222,0.234,0.269,0.4c-0.03-0.172-0.084-0.336-0.178-0.475
			c-0.02-0.029-0.043-0.055-0.065-0.08c-0.021-0.029-0.042-0.057-0.066-0.082c-0.052-0.055-0.106-0.102-0.166-0.146
			c-0.026-0.021-0.055-0.038-0.082-0.057c-0.035-0.022-0.075-0.043-0.117-0.063c-0.158-0.076-0.335-0.123-0.523-0.126
			c-0.006,0-0.016-0.001-0.016-0.001c-0.006,0-0.013,0.001-0.019,0.001c-0.053,0.001-0.115,0.011-0.182,0.024
			c-0.228,0.047-0.529,0.156-0.852,0.293c-0.042,0.02-0.086,0.038-0.127,0.058c-0.045,0.019-0.087,0.038-0.129,0.058
			c-0.792,0.359-1.599,0.813-1.599,0.813s0.807,0.456,1.599,0.816c0.042,0.02,0.084,0.038,0.127,0.057
			c0.043,0.02,0.087,0.038,0.129,0.057c0.322,0.139,0.622,0.248,0.85,0.294c0.068,0.015,0.13,0.023,0.182,0.024
			c0.007,0.001,0.015,0.002,0.024,0.002c0,0,0.006-0.001,0.011-0.001c0.188-0.002,0.365-0.05,0.524-0.126
			c0.042-0.02,0.082-0.041,0.117-0.065c0.027-0.017,0.055-0.036,0.081-0.055c0.06-0.044,0.115-0.093,0.167-0.147
			c0.024-0.025,0.045-0.053,0.066-0.078c0.021-0.029,0.045-0.053,0.065-0.083c0.094-0.14,0.146-0.302,0.178-0.474
			c-0.047,0.166-0.143,0.306-0.269,0.4C17.133,10.967,17.109,10.995,17.08,11.01z M16.106,13.336
			c0.05-0.027,0.098-0.053,0.149-0.078c0.056-0.029,0.113-0.057,0.167-0.082c0.086-0.039,0.167-0.07,0.237-0.093
			c0.063-0.019,0.117-0.03,0.16-0.03c0.09,0,0.175,0.023,0.259,0.066c0.03,0.016,0.055,0.044,0.082,0.065
			c0.126,0.095,0.222,0.235,0.269,0.4c-0.03-0.172-0.084-0.336-0.178-0.476c-0.02-0.027-0.043-0.053-0.065-0.08
			c-0.021-0.027-0.042-0.055-0.066-0.082c-0.052-0.053-0.106-0.102-0.166-0.145c-0.026-0.02-0.055-0.038-0.082-0.057
			c-0.035-0.023-0.075-0.043-0.117-0.064c-0.158-0.076-0.335-0.123-0.523-0.125c-0.006,0-0.016-0.001-0.016-0.001
			c-0.006,0-0.013,0.001-0.019,0.001c-0.053,0.002-0.115,0.01-0.182,0.024c-0.228,0.047-0.529,0.156-0.852,0.294
			c-0.042,0.019-0.086,0.037-0.127,0.057c-0.045,0.018-0.087,0.038-0.129,0.057c-0.792,0.359-1.599,0.814-1.599,0.814
			s0.807,0.455,1.599,0.816c0.042,0.018,0.084,0.037,0.127,0.057s0.087,0.037,0.129,0.055c0.322,0.14,0.622,0.249,0.85,0.295
			c0.068,0.015,0.13,0.023,0.182,0.025c0.007,0,0.015,0.001,0.024,0.001c0,0,0.006-0.001,0.011-0.001
			c0.188-0.002,0.365-0.049,0.524-0.127c0.042-0.02,0.082-0.039,0.117-0.064c0.027-0.018,0.055-0.035,0.081-0.055
			c0.06-0.044,0.115-0.092,0.167-0.146c0.024-0.025,0.045-0.054,0.066-0.08c0.021-0.027,0.045-0.053,0.065-0.082
			c0.094-0.139,0.146-0.303,0.178-0.475c-0.047,0.166-0.143,0.307-0.269,0.401c-0.027,0.021-0.052,0.05-0.081,0.065
			c-0.085,0.043-0.171,0.066-0.26,0.066c-0.043,0-0.097-0.012-0.16-0.031c-0.07-0.02-0.149-0.053-0.235-0.092
			c-0.054-0.024-0.111-0.054-0.167-0.082c-0.052-0.025-0.1-0.051-0.151-0.08c-0.046-0.023-0.091-0.047-0.134-0.072
			c-0.344-0.194-0.648-0.395-0.648-0.395s0.305-0.199,0.648-0.393C16.015,13.385,16.06,13.361,16.106,13.336z M16.106,16.814
			c0.05-0.028,0.098-0.053,0.149-0.079c0.056-0.028,0.113-0.058,0.167-0.081c0.086-0.039,0.167-0.072,0.237-0.094
			c0.063-0.019,0.117-0.03,0.16-0.03c0.09,0,0.175,0.022,0.259,0.065c0.03,0.017,0.055,0.045,0.082,0.066
			c0.126,0.096,0.222,0.234,0.269,0.4c-0.03-0.172-0.084-0.336-0.178-0.475c-0.02-0.029-0.043-0.055-0.065-0.08
			c-0.021-0.029-0.042-0.057-0.066-0.082c-0.052-0.055-0.106-0.102-0.166-0.146c-0.026-0.021-0.055-0.038-0.082-0.057
			c-0.035-0.022-0.075-0.043-0.117-0.063c-0.158-0.076-0.335-0.123-0.523-0.126c-0.006,0-0.016-0.001-0.016-0.001
			c-0.006,0-0.013,0.001-0.019,0.001c-0.053,0.001-0.115,0.011-0.182,0.024c-0.228,0.047-0.529,0.156-0.852,0.293
			c-0.042,0.02-0.086,0.038-0.127,0.058c-0.045,0.019-0.087,0.038-0.129,0.058c-0.792,0.359-1.599,0.813-1.599,0.813
			s0.807,0.456,1.599,0.816c0.042,0.02,0.084,0.038,0.127,0.057c0.043,0.02,0.087,0.038,0.129,0.057
			c0.322,0.139,0.622,0.248,0.85,0.294c0.068,0.015,0.13,0.023,0.182,0.024c0.007,0.001,0.015,0.002,0.024,0.002
			c0,0,0.006-0.001,0.011-0.001c0.188-0.002,0.365-0.05,0.524-0.126c0.042-0.02,0.082-0.041,0.117-0.065
			c0.027-0.017,0.055-0.036,0.081-0.055c0.06-0.044,0.115-0.093,0.167-0.147c0.024-0.025,0.045-0.053,0.066-0.078
			c0.021-0.029,0.045-0.053,0.065-0.083c0.094-0.14,0.146-0.302,0.178-0.474c-0.047,0.166-0.143,0.306-0.269,0.4
			c-0.027,0.021-0.052,0.05-0.081,0.064c-0.085,0.045-0.171,0.068-0.26,0.068c-0.043,0-0.097-0.014-0.16-0.032
			c-0.07-0.021-0.149-0.054-0.235-0.092c-0.054-0.024-0.111-0.054-0.167-0.083c-0.052-0.025-0.1-0.051-0.151-0.079
			c-0.046-0.024-0.091-0.048-0.134-0.073c-0.344-0.193-0.648-0.395-0.648-0.395s0.305-0.198,0.648-0.392
			C16.015,16.863,16.06,16.839,16.106,16.814z"/>
	</g>
</g>
</svg>
