<?xml version="1.0" encoding="utf-8"?>
<!-- Generator: Adobe Illustrator 16.0.3, SVG Export Plug-In . SVG Version: 6.00 Build 0)  -->
<!DOCTYPE svg PUBLIC "-//W3C//DTD SVG 1.1//EN" "http://www.w3.org/Graphics/SVG/1.1/DTD/svg11.dtd">
<svg version="1.1" xmlns="http://www.w3.org/2000/svg" xmlns:xlink="http://www.w3.org/1999/xlink" x="0px" y="0px" width="22.68px"
	 height="22.68px" viewBox="0 0 22.68 22.68" enable-background="new 0 0 22.68 22.68" xml:space="preserve">
<g id="BCGRND">
</g>
<g id="IKONY">
	<rect x="0.001" fill="#585857" width="22.677" height="22.678"/>
	<g>
		<g>
			<circle fill="#FFFFFF" cx="11.305" cy="15.305" r="1.62"/>
			<g>
				<path fill="#FFFFFF" d="M18.535,9.262c-0.173,0-0.347-0.066-0.479-0.198c-1.805-1.805-4.202-2.799-6.753-2.799
					S6.355,7.258,4.551,9.063c-0.264,0.265-0.693,0.265-0.957,0c-0.265-0.264-0.265-0.692,0-0.957
					c2.059-2.06,4.797-3.195,7.709-3.195s5.65,1.135,7.71,3.196c0.265,0.265,0.265,0.693,0,0.957
					C18.881,9.196,18.708,9.262,18.535,9.262z"/>
			</g>
			<g>
				<path fill="#FFFFFF" d="M16.727,11.41c-0.174,0-0.347-0.066-0.479-0.198c-1.32-1.321-3.076-2.049-4.945-2.049
					c-1.866,0-3.622,0.728-4.943,2.049c-0.264,0.265-0.693,0.265-0.957,0c-0.265-0.264-0.265-0.693,0-0.957
					c1.576-1.577,3.672-2.446,5.9-2.446c2.23,0,4.327,0.869,5.902,2.446c0.265,0.265,0.265,0.693,0,0.958
					C17.074,11.344,16.9,11.41,16.727,11.41z"/>
			</g>
			<g>
				<path fill="#FFFFFF" d="M7.688,13.559c-0.173,0-0.347-0.066-0.479-0.198c-0.265-0.264-0.265-0.693,0-0.958
					c1.093-1.095,2.547-1.697,4.094-1.697c1.546,0,3,0.603,4.095,1.697c0.265,0.264,0.265,0.693,0,0.957
					c-0.264,0.265-0.693,0.265-0.957,0c-0.839-0.839-1.953-1.301-3.138-1.301s-2.299,0.462-3.137,1.301
					C8.035,13.493,7.861,13.559,7.688,13.559z"/>
			</g>
		</g>
	</g>
</g>
</svg>
