<?xml version="1.0" encoding="utf-8"?>
<!-- Generator: Adobe Illustrator 16.0.3, SVG Export Plug-In . SVG Version: 6.00 Build 0)  -->
<!DOCTYPE svg PUBLIC "-//W3C//DTD SVG 1.1//EN" "http://www.w3.org/Graphics/SVG/1.1/DTD/svg11.dtd">
<svg version="1.1" xmlns="http://www.w3.org/2000/svg" xmlns:xlink="http://www.w3.org/1999/xlink" x="0px" y="0px" width="22.68px"
	 height="22.68px" viewBox="0 0 22.68 22.68" enable-background="new 0 0 22.68 22.68" xml:space="preserve">
<g id="BCGRND" display="none">
</g>
<g id="IKONY">
	<g>
		<rect fill="#585857" width="22.676" height="22.678"/>
		<g>
			<g>
				<rect y="7.769" fill="#FFFFFF" width="22.678" height="0.889"/>
			</g>
			<path fill="#FFFFFF" d="M10.867,9.568L9.475,8.766L9.004,9.582l1.863,1.076v0.729l-0.354,0.611l-0.857-1.486l-0.525-0.303
				l0.004,0.604l0.859,1.486H9.289l-0.633-0.365v-2.15H7.713v1.605l-0.648-0.373V9.783H6.121v0.688L4.846,9.734l-0.471,0.816
				l1.275,0.738l-0.598,0.344l0.473,0.816l1.068-0.617l0.646,0.375L5.85,13.012l0.471,0.816l1.863-1.076l0.646,0.373l0.35,0.604
				h-1.73l-0.521,0.299l0.521,0.303h1.717l-0.35,0.609l-0.633,0.365L6.32,14.229L5.85,15.045l1.391,0.803l-0.646,0.375l-1.068-0.617
				l-0.473,0.816l0.598,0.346l-1.275,0.736l0.471,0.818l1.275-0.738v0.689h0.943v-1.234l0.648-0.373v1.607h0.943v-2.152l0.635-0.365
				h0.705L9.135,17.25l-0.004,0.602l0.523-0.301l0.865-1.498l0.348,0.602v0.742l-1.863,1.078l0.471,0.816l1.393-0.805v0.748
				l-1.068,0.617l0.471,0.816l0.598-0.344v1.473h0.943v-1.473l0.596,0.344l0.473-0.816l-1.068-0.617v-0.748l1.391,0.805l0.473-0.816
				l-1.863-1.078v-0.742l0.348-0.605l0.867,1.502l0.52,0.303V17.25l-0.861-1.494h0.703l0.633,0.365v2.152h0.945v-1.607l0.646,0.373
				v1.234h0.943v-0.689l1.275,0.738l0.473-0.818l-1.275-0.736l0.596-0.346l-0.473-0.816l-1.066,0.617l-0.648-0.375l1.393-0.803
				l-0.473-0.816l-1.863,1.076l-0.633-0.365l-0.35-0.609h1.719l0.523-0.303l-0.523-0.299h-1.73l0.348-0.604l0.646-0.373l1.863,1.076
				l0.473-0.816l-1.393-0.805l0.648-0.375l1.066,0.617l0.473-0.816l-0.596-0.344l1.275-0.738L17.83,9.734l-1.275,0.736V9.783h-0.943
				v1.232l-0.646,0.373V9.783H14.02v2.15l-0.631,0.365h-0.703l0.857-1.486l0.002-0.605l-0.521,0.305L12.164,12l-0.354-0.613v-0.729
				l1.863-1.076l-0.473-0.816l-1.391,0.803V8.822l1.055-0.609H9.813l1.055,0.609V9.568z M10.344,15.154H9.387l0.473-0.824h0.959
				L10.344,15.154z M9.869,13.729L9.395,12.9h0.945l0.479,0.828H9.869z M11.338,16.275l-0.477-0.818l0.479-0.826l0.475,0.824
				L11.338,16.275z M12.338,12.9h0.943l-0.473,0.828h-0.949L12.338,12.9z M12.816,14.33l0.475,0.824h-0.955l-0.477-0.824H12.816z
				 M11.82,12.598l-0.48,0.832l-0.482-0.834l0.48-0.838L11.82,12.598z"/>
			<g>
				<path fill="#FFFFFF" d="M1.979,2.277H2.58v2.788h1.352v0.503H1.979V2.277z"/>
				<path fill="#FFFFFF" d="M6.572,4.357c0,0.874-0.615,1.265-1.221,1.265c-0.674,0-1.191-0.464-1.191-1.226
					c0-0.781,0.512-1.26,1.23-1.26C6.098,3.137,6.572,3.635,6.572,4.357z M4.779,4.382c0,0.459,0.225,0.806,0.592,0.806
					c0.342,0,0.58-0.337,0.58-0.815c0-0.371-0.166-0.796-0.576-0.796C4.951,3.576,4.779,3.986,4.779,4.382z"/>
				<path fill="#FFFFFF" d="M7.391,3.19L7.64,4.27c0.054,0.254,0.107,0.513,0.151,0.771h0.01C7.85,4.782,7.928,4.519,7.996,4.274
					L8.304,3.19h0.488L9.09,4.245c0.073,0.278,0.137,0.537,0.19,0.796h0.01c0.039-0.259,0.093-0.518,0.156-0.796L9.71,3.19h0.591
					L9.554,5.568H8.997L8.714,4.602C8.641,4.353,8.587,4.128,8.533,3.84h-0.01C8.475,4.133,8.411,4.367,8.343,4.602L8.04,5.568
					H7.479L6.775,3.19H7.391z"/>
				<path fill="#FFFFFF" d="M10.736,2.277h1.899v0.493h-1.299v0.908h1.211v0.493h-1.211v1.396h-0.601V2.277z"/>
				<path fill="#FFFFFF" d="M13.093,3.957c0-0.322-0.005-0.552-0.02-0.767h0.522l0.02,0.454h0.02
					c0.117-0.337,0.396-0.508,0.649-0.508c0.059,0,0.093,0.005,0.142,0.015v0.566c-0.049-0.01-0.103-0.02-0.176-0.02
					c-0.288,0-0.483,0.186-0.537,0.454c-0.01,0.054-0.02,0.117-0.02,0.186v1.23h-0.601V3.957z"/>
				<path fill="#FFFFFF" d="M17.05,4.357c0,0.874-0.615,1.265-1.221,1.265c-0.674,0-1.191-0.464-1.191-1.226
					c0-0.781,0.514-1.26,1.23-1.26C16.577,3.137,17.05,3.635,17.05,4.357z M15.259,4.382c0,0.459,0.225,0.806,0.59,0.806
					c0.342,0,0.582-0.337,0.582-0.815c0-0.371-0.166-0.796-0.576-0.796C15.429,3.576,15.259,3.986,15.259,4.382z"/>
				<path fill="#FFFFFF" d="M17.518,5.017c0.137,0.083,0.396,0.171,0.61,0.171c0.264,0,0.381-0.107,0.381-0.264
					c0-0.161-0.098-0.244-0.391-0.347c-0.464-0.161-0.659-0.415-0.654-0.693c0-0.42,0.347-0.747,0.898-0.747
					c0.264,0,0.493,0.068,0.63,0.142l-0.117,0.425c-0.103-0.059-0.293-0.137-0.503-0.137c-0.215,0-0.332,0.103-0.332,0.249
					c0,0.151,0.112,0.225,0.415,0.332c0.43,0.156,0.63,0.376,0.635,0.728c0,0.43-0.337,0.742-0.967,0.742
					c-0.288,0-0.547-0.068-0.723-0.166L17.518,5.017z"/>
				<path fill="#FFFFFF" d="M20.274,2.512V3.19h0.57V3.64h-0.57v1.05c0,0.288,0.078,0.439,0.307,0.439
					c0.104,0,0.182-0.015,0.234-0.029l0.01,0.459c-0.088,0.034-0.244,0.059-0.434,0.059c-0.221,0-0.406-0.073-0.518-0.195
					c-0.127-0.137-0.186-0.352-0.186-0.664V3.64h-0.342V3.19h0.342V2.653L20.274,2.512z"/>
			</g>
		</g>
	</g>
</g>
</svg>
