<?xml version="1.0" encoding="utf-8"?>
<!-- Generator: Adobe Illustrator 16.0.3, SVG Export Plug-In . SVG Version: 6.00 Build 0)  -->
<!DOCTYPE svg PUBLIC "-//W3C//DTD SVG 1.1//EN" "http://www.w3.org/Graphics/SVG/1.1/DTD/svg11.dtd">
<svg version="1.1" xmlns="http://www.w3.org/2000/svg" xmlns:xlink="http://www.w3.org/1999/xlink" x="0px" y="0px" width="22.68px"
	 height="22.68px" viewBox="0 0 22.68 22.68" enable-background="new 0 0 22.68 22.68" xml:space="preserve">
<g id="BCGRND" display="none">
</g>
<g id="IKONY">
	<g>
		<defs>
			<rect id="SVGID_91_" width="22.678" height="22.678"/>
		</defs>
		<clipPath id="SVGID_2_">
			<use xlink:href="#SVGID_91_"  overflow="visible"/>
		</clipPath>
		<polygon clip-path="url(#SVGID_2_)" fill="#585857" points="22.678,16.335 22.678,0 0,0 0,22.678 14.117,22.678 22.678,22.678 		
			"/>
		
			<line clip-path="url(#SVGID_2_)" fill="none" stroke="#FFFFFF" stroke-width="0.8889" stroke-miterlimit="10" x1="0" y1="8.214" x2="22.678" y2="8.214"/>
		<g clip-path="url(#SVGID_2_)">
			<g>
				<path fill="#FFFFFF" d="M4.289,4.228C4.27,3.803,4.245,3.29,4.25,2.846H4.235c-0.107,0.4-0.244,0.845-0.391,1.26L3.366,5.531
					H2.902L2.463,4.125c-0.127-0.42-0.244-0.869-0.332-1.279h-0.01c-0.015,0.43-0.034,0.952-0.059,1.401L1.989,5.57H1.428
					l0.22-3.291h0.791l0.43,1.323c0.117,0.386,0.22,0.776,0.303,1.143h0.015c0.088-0.356,0.2-0.762,0.327-1.147l0.454-1.318h0.781
					l0.19,3.291H4.353L4.289,4.228z"/>
				<path fill="#FFFFFF" d="M6.115,2.528c0,0.181-0.132,0.322-0.342,0.322c-0.2,0-0.332-0.142-0.332-0.322
					c0-0.186,0.137-0.327,0.337-0.327C5.983,2.201,6.11,2.343,6.115,2.528z M5.476,5.57V3.192h0.605V5.57H5.476z"/>
				<path fill="#FFFFFF" d="M7.23,4.237h0.01c0.059-0.093,0.127-0.195,0.19-0.278l0.576-0.767h0.723L7.85,4.164L8.856,5.57H8.119
					l-0.684-1.05L7.23,4.76V5.57H6.629V2.104H7.23V4.237z"/>
				<path fill="#FFFFFF" d="M9.083,3.959c0-0.322-0.005-0.552-0.02-0.767h0.522l0.02,0.454h0.02
					c0.117-0.337,0.396-0.508,0.649-0.508c0.059,0,0.093,0.005,0.142,0.015V3.72c-0.049-0.01-0.103-0.02-0.176-0.02
					c-0.288,0-0.483,0.186-0.537,0.454c-0.01,0.054-0.02,0.117-0.02,0.186v1.23H9.083V3.959z"/>
				<path fill="#FFFFFF" d="M12.943,4.359c0,0.874-0.615,1.265-1.221,1.265c-0.674,0-1.191-0.464-1.191-1.226
					c0-0.781,0.513-1.26,1.23-1.26C12.469,3.139,12.943,3.637,12.943,4.359z M11.151,4.384c0,0.459,0.225,0.806,0.591,0.806
					c0.342,0,0.581-0.337,0.581-0.815c0-0.371-0.166-0.796-0.576-0.796C11.322,3.578,11.151,3.988,11.151,4.384z"/>
				<path fill="#FFFFFF" d="M13.684,3.192l0.386,1.206c0.068,0.21,0.117,0.4,0.161,0.596h0.015c0.044-0.195,0.098-0.381,0.161-0.596
					l0.376-1.206h0.635L14.509,5.57h-0.591l-0.884-2.378H13.684z"/>
				<path fill="#FFFFFF" d="M15.688,2.104h0.605V5.57h-0.605V2.104z"/>
				<path fill="#FFFFFF" d="M16.847,3.9c0-0.273-0.005-0.503-0.02-0.708h0.527l0.029,0.356h0.015c0.103-0.186,0.361-0.41,0.757-0.41
					C18.571,3.139,19,3.407,19,4.159V5.57H18.4V4.228c0-0.342-0.127-0.601-0.454-0.601c-0.239,0-0.405,0.171-0.469,0.352
					c-0.02,0.054-0.024,0.127-0.024,0.195V5.57h-0.605V3.9z"/>
				<path fill="#FFFFFF" d="M19.844,3.192l0.43,1.274c0.049,0.146,0.098,0.327,0.132,0.464h0.015
					c0.039-0.137,0.083-0.313,0.127-0.469l0.371-1.27h0.645l-0.596,1.621c-0.327,0.889-0.547,1.284-0.83,1.528
					c-0.234,0.21-0.479,0.288-0.63,0.308L19.37,6.142c0.103-0.024,0.229-0.078,0.352-0.166c0.112-0.073,0.244-0.215,0.327-0.376
					c0.024-0.044,0.039-0.078,0.039-0.107c0-0.024-0.005-0.059-0.034-0.117l-0.869-2.183H19.844z"/>
			</g>
		</g>
		<g clip-path="url(#SVGID_2_)">
			<polyline fill="none" stroke="#FFFFFF" stroke-miterlimit="10" points="-28.442,16.849 -25.126,14.416 -21.812,16.849 
				-18.493,14.416 -15.183,16.849 -11.866,14.416 -8.552,16.849 -5.237,14.416 -1.921,16.849 1.392,14.416 4.708,16.849 
				8.024,14.416 11.339,16.849 14.653,14.416 17.97,16.849 21.284,14.416 24.599,16.849 27.913,14.416 31.228,16.849 34.544,14.416 
				37.858,16.849 41.173,14.416 44.489,16.849 47.804,14.416 51.12,16.849 			"/>
		</g>
		<g clip-path="url(#SVGID_2_)">
			<polyline opacity="0.5" fill="none" stroke="#FFFFFF" stroke-miterlimit="10" points="-28.442,20.636 -25.126,18.202 
				-21.812,20.636 -18.493,18.202 -15.183,20.636 -11.866,18.202 -8.552,20.636 -5.237,18.202 -1.921,20.636 1.392,18.202 
				4.708,20.636 8.024,18.202 11.339,20.636 14.653,18.202 17.97,20.636 21.284,18.202 24.599,20.636 27.913,18.202 31.228,20.636 
				34.544,18.202 37.858,20.636 41.173,18.202 44.489,20.636 47.804,18.202 51.12,20.636 			"/>
		</g>
		<g clip-path="url(#SVGID_2_)">
			<polyline opacity="0.5" fill="none" stroke="#FFFFFF" stroke-miterlimit="10" points="-28.442,13.063 -25.126,10.628 
				-21.812,13.063 -18.493,10.628 -15.183,13.063 -11.866,10.628 -8.552,13.063 -5.237,10.628 -1.921,13.063 1.392,10.628 
				4.708,13.063 8.024,10.628 11.339,13.063 14.653,10.628 17.97,13.063 21.284,10.628 24.599,13.063 27.913,10.628 31.228,13.063 
				34.544,10.628 37.858,13.063 41.173,10.628 44.489,13.063 47.804,10.628 51.12,13.063 			"/>
		</g>
	</g>
</g>
</svg>
