<?xml version="1.0" encoding="utf-8"?>
<!-- Generator: Adobe Illustrator 16.0.3, SVG Export Plug-In . SVG Version: 6.00 Build 0)  -->
<!DOCTYPE svg PUBLIC "-//W3C//DTD SVG 1.1//EN" "http://www.w3.org/Graphics/SVG/1.1/DTD/svg11.dtd">
<svg version="1.1" xmlns="http://www.w3.org/2000/svg" xmlns:xlink="http://www.w3.org/1999/xlink" x="0px" y="0px" width="22.68px"
	 height="22.68px" viewBox="0 0 22.68 22.68" enable-background="new 0 0 22.68 22.68" xml:space="preserve">
<g id="BCGRND">
</g>
<g id="IKONY">
	<rect fill="#585857" width="22.676" height="22.678"/>
	<g>
		<g>
			<g>
				<path fill="#FFFFFF" d="M4.069,4.631c0.19,0.113,0.488,0.211,0.796,0.211c0.381,0,0.596-0.182,0.596-0.449
					c0-0.25-0.166-0.396-0.581-0.547C4.333,3.65,3.986,3.361,3.986,2.889c0-0.543,0.449-0.947,1.167-0.947
					c0.356,0,0.615,0.078,0.786,0.166L5.798,2.59C5.676,2.527,5.446,2.434,5.139,2.434c-0.381,0-0.542,0.201-0.542,0.396
					c0,0.254,0.19,0.371,0.63,0.541c0.571,0.215,0.845,0.504,0.845,0.977c0,0.533-0.4,0.992-1.245,0.992
					c-0.352,0-0.713-0.098-0.894-0.211L4.069,4.631z"/>
				<path fill="#FFFFFF" d="M6.641,3.699c0-0.313-0.01-0.566-0.02-0.791h0.527l0.029,0.365h0.01c0.176-0.268,0.455-0.42,0.816-0.42
					c0.547,0,1,0.469,1,1.211c0,0.859-0.541,1.275-1.084,1.275c-0.297,0-0.547-0.127-0.668-0.318h-0.01v1.23H6.641V3.699z
					 M7.242,4.289c0,0.059,0.004,0.113,0.014,0.166c0.064,0.244,0.273,0.42,0.533,0.42c0.381,0,0.605-0.316,0.605-0.785
					c0-0.42-0.205-0.762-0.592-0.762c-0.248,0-0.479,0.18-0.541,0.443c-0.01,0.049-0.02,0.104-0.02,0.152V4.289z"/>
				<path fill="#FFFFFF" d="M11.811,4.074c0,0.875-0.615,1.266-1.221,1.266c-0.669,0-1.191-0.459-1.191-1.227
					c0-0.781,0.513-1.26,1.23-1.26C11.337,2.854,11.811,3.352,11.811,4.074z M10.019,4.1c0,0.459,0.229,0.805,0.591,0.805
					c0.342,0,0.581-0.332,0.581-0.814c0-0.371-0.166-0.801-0.576-0.801C10.189,3.289,10.019,3.703,10.019,4.1z"/>
				<path fill="#FFFFFF" d="M14.549,1.818v2.799c0,0.244,0.01,0.508,0.02,0.668h-0.533L14.006,4.91h-0.01
					c-0.141,0.264-0.43,0.43-0.771,0.43c-0.57,0-1.02-0.484-1.02-1.217c-0.006-0.795,0.492-1.27,1.064-1.27
					c0.326,0,0.561,0.133,0.668,0.309h0.01V1.818H14.549z M13.947,3.898c0-0.049-0.004-0.111-0.014-0.16
					c-0.055-0.23-0.244-0.42-0.518-0.42c-0.387,0-0.602,0.342-0.602,0.781s0.215,0.756,0.596,0.756c0.244,0,0.459-0.166,0.518-0.424
					c0.016-0.055,0.02-0.113,0.02-0.176V3.898z"/>
				<path fill="#FFFFFF" d="M15.246,3.615c0-0.273-0.01-0.502-0.02-0.707h0.521l0.029,0.355h0.016
					c0.107-0.186,0.365-0.41,0.762-0.41c0.414,0,0.844,0.27,0.844,1.021v1.41h-0.6V3.943c0-0.342-0.127-0.602-0.455-0.602
					c-0.238,0-0.404,0.172-0.469,0.352c-0.02,0.049-0.029,0.123-0.029,0.191v1.4h-0.6V3.615z"/>
				<path fill="#FFFFFF" d="M18.091,5.285V2.908h0.601v2.377H18.091z M19.126,1.877L18.53,2.6h-0.415l0.42-0.723H19.126z"/>
				<path fill="#FFFFFF" d="M3.539,8.115c0-0.273-0.01-0.502-0.02-0.707h0.513L4.062,7.76h0.015
					c0.112-0.186,0.327-0.406,0.732-0.406c0.313,0,0.557,0.176,0.659,0.439h0.01c0.083-0.131,0.181-0.229,0.288-0.297
					c0.137-0.094,0.288-0.143,0.488-0.143c0.391,0,0.791,0.27,0.791,1.031v1.4H6.459V8.473c0-0.396-0.137-0.631-0.425-0.631
					c-0.205,0-0.356,0.146-0.42,0.318c-0.02,0.053-0.029,0.131-0.029,0.199v1.426H4.999V8.408c0-0.332-0.132-0.566-0.41-0.566
					c-0.225,0-0.376,0.176-0.435,0.338c-0.02,0.063-0.029,0.131-0.029,0.199v1.406H3.539V8.115z"/>
				<path fill="#FFFFFF" d="M9.994,8.574c0,0.875-0.615,1.266-1.221,1.266c-0.668,0-1.191-0.459-1.191-1.227
					c0-0.781,0.514-1.26,1.23-1.26C9.521,7.354,9.994,7.852,9.994,8.574z M8.203,8.6c0,0.459,0.229,0.805,0.59,0.805
					c0.342,0,0.582-0.332,0.582-0.814c0-0.371-0.166-0.801-0.576-0.801C8.373,7.789,8.203,8.203,8.203,8.6z"/>
				<path fill="#FFFFFF" d="M10.54,8.115c0-0.273-0.01-0.502-0.02-0.707h0.522l0.029,0.355h0.015c0.107-0.186,0.366-0.41,0.762-0.41
					c0.415,0,0.845,0.27,0.845,1.021v1.41h-0.601V8.443c0-0.342-0.127-0.602-0.454-0.602c-0.239,0-0.405,0.172-0.469,0.352
					c-0.02,0.049-0.029,0.123-0.029,0.191v1.4H10.54V8.115z"/>
				<path fill="#FFFFFF" d="M14.049,6.797v0.611h0.572v0.449h-0.572v1.049c0,0.293,0.078,0.439,0.309,0.439
					c0.107,0,0.166-0.004,0.234-0.023l0.01,0.453c-0.088,0.035-0.25,0.064-0.436,0.064c-0.225,0-0.404-0.074-0.518-0.195
					c-0.131-0.137-0.189-0.357-0.189-0.67V7.857h-0.338V7.408h0.338V6.963L14.049,6.797z"/>
				<path fill="#FFFFFF" d="M16.972,9.215c0,0.215,0.01,0.424,0.039,0.57h-0.542l-0.044-0.264H16.41
					C16.269,9.707,16.02,9.84,15.707,9.84c-0.479,0-0.747-0.348-0.747-0.709c0-0.596,0.532-0.902,1.411-0.898V8.193
					c0-0.156-0.063-0.414-0.483-0.414c-0.234,0-0.479,0.072-0.64,0.176l-0.117-0.391c0.176-0.107,0.483-0.211,0.859-0.211
					c0.762,0,0.981,0.484,0.981,1.006V9.215z M16.386,8.623c-0.425-0.004-0.83,0.084-0.83,0.445c0,0.234,0.151,0.342,0.342,0.342
					c0.244,0,0.415-0.156,0.474-0.328c0.015-0.043,0.015-0.088,0.015-0.131V8.623z M16.752,6.377L16.156,7.1h-0.415l0.425-0.723
					H16.752z"/>
				<path fill="#FFFFFF" d="M17.434,9.439l0.894-1.143c0.122-0.146,0.225-0.264,0.347-0.4v-0.01h-1.152V7.408h1.885v0.365
					l-0.869,1.119c-0.117,0.141-0.229,0.277-0.352,0.404v0.01h1.25v0.479h-2.002V9.439z M18.273,7.1l-0.479-0.723h0.415l0.264,0.445
					h0.01l0.269-0.445h0.41L18.684,7.1H18.273z"/>
			</g>
		</g>
		<g>
			<path fill="#FFFFFF" d="M17.201,12.279v3.391H5.479v-3.391H0.002v0.863l0.408-0.408h0.678l-1.086,1.084v0.32l1.406-1.404h0.676
				l-2.082,2.082v0.32l2.402-2.402h0.678L0.146,15.67H0.002v0.455H2.1v1.754h2.924v1.371c0,0.506,0.41,0.918,0.916,0.918h3.365
				v0.543c0,0.127,0.102,0.229,0.229,0.229h0.512v1.738H10.5v-1.738h1.68l0.002,1.738h0.455l-0.002-1.738h0.514
				c0.125,0,0.227-0.102,0.227-0.229v-0.543h3.365c0.506,0,0.916-0.412,0.916-0.918v-1.371h2.922v-1.754h2.102V15.34l-0.33,0.33
				h-0.678l1.008-1.008v-0.32l-1.328,1.328h-0.678l2.006-2.006v-0.32l-2.326,2.326h-0.676l2.934-2.936h0.068v-0.455H17.201z
				 M17.656,14.695l1.963-1.961h0.676l-2.639,2.639V14.695z M17.656,14.375v-0.676l0.965-0.965h0.678L17.656,14.375z M17.656,13.379
				v-0.645h0.645L17.656,13.379z M17.682,15.67l2.934-2.936h0.678l-2.934,2.936H17.682z M5.023,13.785L3.139,15.67H2.461
				l2.563-2.563V13.785z M5.023,14.105v0.678L4.137,15.67H3.459L5.023,14.105z M5.023,15.104v0.566H4.457L5.023,15.104z
				 M5.023,12.787L2.141,15.67H1.465L4.4,12.734h0.623V12.787z M3.402,12.734H4.08L1.145,15.67H0.467L3.402,12.734z M12.92,20.484
				H9.76v-0.316h3.16V20.484z M17.201,19.25c0,0.254-0.207,0.463-0.461,0.463H5.939c-0.254,0-0.461-0.209-0.461-0.463v-1.371h11.723
				V19.25z M20.123,17.424H2.555v-1.299h17.568V17.424z M19.357,15.67H18.68l2.934-2.936h0.678L19.357,15.67z"/>
		</g>
		<g>
			<g opacity="0.5">
				<polygon fill="#FFFFFF" points="18.621,12.734 17.656,13.699 17.656,14.375 19.299,12.734 				"/>
			</g>
			<g opacity="0.5">
				<path fill="#FFFFFF" d="M21.352,15.67l1.328-1.328c0-0.24,0-0.465,0-0.678l-2.006,2.006H21.352z"/>
			</g>
			<g opacity="0.5">
				<polygon fill="#FFFFFF" points="22.611,12.734 19.678,15.67 20.354,15.67 22.68,13.344 22.68,12.734 				"/>
			</g>
			<g opacity="0.5">
				<path fill="#FFFFFF" d="M22.35,15.67l0.33-0.33c0-0.232,0-0.459,0-0.678l-1.008,1.008H22.35z"/>
			</g>
			<g opacity="0.5">
				<polygon fill="#FFFFFF" points="21.613,12.734 18.68,15.67 19.357,15.67 22.291,12.734 				"/>
			</g>
			<g opacity="0.5">
				<polygon fill="#FFFFFF" points="19.619,12.734 17.656,14.695 17.656,15.373 20.295,12.734 				"/>
			</g>
			<g opacity="0.5">
				<polygon fill="#FFFFFF" points="20.615,12.734 17.682,15.67 18.359,15.67 21.293,12.734 				"/>
			</g>
			<g opacity="0.5">
				<polygon fill="#FFFFFF" points="17.963,12.734 17.656,12.734 17.656,13.041 17.656,13.379 18.301,12.734 				"/>
			</g>
			<g opacity="0.5">
				<polygon fill="#FFFFFF" points="5.023,15.67 5.023,15.104 4.457,15.67 				"/>
			</g>
			<g opacity="0.5">
				<polygon fill="#FFFFFF" points="3.139,15.67 5.023,13.785 5.023,13.107 2.461,15.67 				"/>
			</g>
			<g opacity="0.5">
				<polygon fill="#FFFFFF" points="1.465,15.67 2.1,15.67 2.141,15.67 5.023,12.787 5.023,12.734 4.4,12.734 				"/>
			</g>
			<g opacity="0.5">
				<polygon fill="#FFFFFF" points="1.408,12.734 0.002,14.139 0.002,14.816 2.084,12.734 				"/>
			</g>
			<g opacity="0.5">
				<polygon fill="#FFFFFF" points="4.137,15.67 5.023,14.783 5.023,14.105 3.459,15.67 				"/>
			</g>
			<g opacity="0.5">
				<polygon fill="#FFFFFF" points="2.404,12.734 0.002,15.137 0.002,15.67 0.146,15.67 3.082,12.734 				"/>
			</g>
			<g opacity="0.5">
				<polygon fill="#FFFFFF" points="0.41,12.734 0.002,13.143 0.002,13.818 1.088,12.734 				"/>
			</g>
			<g opacity="0.5">
				<polygon fill="#FFFFFF" points="3.402,12.734 0.467,15.67 1.145,15.67 4.08,12.734 				"/>
			</g>
		</g>
	</g>
</g>
</svg>
