<?xml version="1.0" encoding="utf-8"?>
<!-- Generator: Adobe Illustrator 16.0.3, SVG Export Plug-In . SVG Version: 6.00 Build 0)  -->
<!DOCTYPE svg PUBLIC "-//W3C//DTD SVG 1.1//EN" "http://www.w3.org/Graphics/SVG/1.1/DTD/svg11.dtd">
<svg version="1.1" xmlns="http://www.w3.org/2000/svg" xmlns:xlink="http://www.w3.org/1999/xlink" x="0px" y="0px" width="22.68px"
	 height="22.68px" viewBox="0 0 22.68 22.68" enable-background="new 0 0 22.68 22.68" xml:space="preserve">
<g id="BCGRND">
</g>
<g id="IKONY">
	<rect fill="#585857" width="22.676" height="22.678"/>
	<g>
		<g>
			<g>
				<rect x="0.001" y="11.957" fill="#FFFFFF" width="22.678" height="0.889"/>
			</g>
			<g>
				<path fill="#FFFFFF" d="M8.453,3.944C8.434,3.519,8.41,3.006,8.414,2.562H8.4c-0.107,0.4-0.244,0.845-0.391,1.26L7.531,5.248
					H7.066L6.627,3.841C6.5,3.421,6.383,2.972,6.295,2.562h-0.01c-0.014,0.43-0.033,0.952-0.059,1.401L6.154,5.287H5.592
					l0.221-3.291h0.791l0.43,1.323C7.15,3.705,7.252,4.095,7.336,4.461H7.35C7.438,4.105,7.551,3.7,7.678,3.314l0.453-1.318h0.781
					l0.191,3.291H8.518L8.453,3.944z"/>
				<path fill="#FFFFFF" d="M12.077,4.076c0,0.874-0.615,1.265-1.221,1.265c-0.674,0-1.191-0.464-1.191-1.226
					c0-0.781,0.513-1.26,1.23-1.26C11.604,2.855,12.077,3.353,12.077,4.076z M10.285,4.1c0,0.459,0.225,0.806,0.591,0.806
					c0.342,0,0.581-0.337,0.581-0.815c0-0.371-0.166-0.796-0.576-0.796C10.456,3.294,10.285,3.705,10.285,4.1z"/>
				<path fill="#FFFFFF" d="M13.014,2.909l0.385,1.206c0.068,0.21,0.117,0.4,0.162,0.596h0.014c0.045-0.195,0.098-0.381,0.162-0.596
					l0.375-1.206h0.635l-0.908,2.378h-0.59l-0.885-2.378H13.014z"/>
				<path fill="#FFFFFF" d="M15.575,4.266c0.015,0.43,0.352,0.615,0.732,0.615c0.278,0,0.479-0.039,0.659-0.107l0.088,0.415
					c-0.205,0.083-0.488,0.146-0.83,0.146c-0.771,0-1.226-0.474-1.226-1.201c0-0.659,0.4-1.279,1.162-1.279
					c0.771,0,1.025,0.635,1.025,1.157c0,0.112-0.01,0.2-0.02,0.254H15.575z M16.62,3.846c0.005-0.22-0.093-0.581-0.493-0.581
					c-0.371,0-0.527,0.337-0.552,0.581H16.62z"/>
				<path fill="#FFFFFF" d="M8.224,8.444C8.204,8.019,8.18,7.506,8.185,7.062H8.17c-0.107,0.4-0.244,0.845-0.391,1.26L7.301,9.748
					H6.837L6.397,8.341c-0.127-0.42-0.244-0.869-0.332-1.279h-0.01c-0.015,0.43-0.034,0.952-0.059,1.401L5.924,9.787H5.362
					l0.22-3.291h0.791l0.43,1.323c0.117,0.386,0.22,0.776,0.303,1.143H7.12C7.208,8.605,7.32,8.2,7.447,7.814l0.454-1.318h0.781
					l0.19,3.291H8.287L8.224,8.444z"/>
				<path fill="#FFFFFF" d="M11.848,8.576c0,0.874-0.615,1.265-1.221,1.265c-0.674,0-1.191-0.464-1.191-1.226
					c0-0.781,0.512-1.26,1.23-1.26C11.373,7.355,11.848,7.853,11.848,8.576z M10.055,8.6c0,0.459,0.225,0.806,0.592,0.806
					c0.342,0,0.58-0.337,0.58-0.815c0-0.371-0.166-0.796-0.576-0.796C10.227,7.794,10.055,8.205,10.055,8.6z"/>
				<path fill="#FFFFFF" d="M14.634,6.32v2.798c0,0.244,0.01,0.508,0.02,0.669h-0.537l-0.024-0.376h-0.01
					c-0.142,0.264-0.43,0.43-0.776,0.43c-0.566,0-1.016-0.483-1.016-1.216c-0.005-0.796,0.493-1.27,1.064-1.27
					c0.327,0,0.562,0.137,0.669,0.313h0.01V6.32H14.634z M14.033,8.4c0-0.049-0.005-0.107-0.015-0.156
					c-0.054-0.234-0.244-0.425-0.518-0.425c-0.386,0-0.601,0.342-0.601,0.786c0,0.435,0.215,0.752,0.596,0.752
					c0.244,0,0.459-0.166,0.518-0.425c0.015-0.054,0.02-0.112,0.02-0.176V8.4z"/>
				<path fill="#FFFFFF" d="M15.805,8.766c0.015,0.43,0.352,0.615,0.732,0.615c0.278,0,0.479-0.039,0.659-0.107l0.088,0.415
					c-0.205,0.083-0.488,0.146-0.83,0.146c-0.771,0-1.226-0.474-1.226-1.201c0-0.659,0.4-1.279,1.162-1.279
					c0.771,0,1.025,0.635,1.025,1.157c0,0.112-0.01,0.2-0.02,0.254H15.805z M16.85,8.346c0.005-0.22-0.093-0.581-0.493-0.581
					c-0.371,0-0.527,0.337-0.552,0.581H16.85z"/>
			</g>
		</g>
		<g>
			<g>
				<g>
					<rect x="10.229" y="17.008" fill="#FFFFFF" width="1.65" height="0.5"/>
				</g>
				<g>
					<polygon fill="#FFFFFF" points="11.777,16.5 11.777,18.018 12.536,17.258 					"/>
				</g>
			</g>
			<g>
				<g>
					<rect x="10.229" y="19.096" fill="#FFFFFF" width="1.65" height="0.5"/>
				</g>
				<g>
					<polygon fill="#FFFFFF" points="11.777,18.586 11.777,20.105 12.536,19.346 					"/>
				</g>
			</g>
			<g>
				<g>
					<rect x="10.229" y="21.184" fill="#FFFFFF" width="1.65" height="0.5"/>
				</g>
				<g>
					<polygon fill="#FFFFFF" points="11.777,20.674 11.777,22.193 12.536,21.434 					"/>
				</g>
			</g>
		</g>
		<g>
			<g>
				<circle fill="#FFFFFF" cx="6.613" cy="19.347" r="0.604"/>
			</g>
			<g>
				<path fill="#FFFFFF" d="M6.613,21.014c-0.919,0-1.666-0.748-1.666-1.668c0-0.918,0.747-1.666,1.666-1.666
					s1.666,0.748,1.666,1.666C8.279,20.266,7.532,21.014,6.613,21.014z M6.613,18.18c-0.643,0-1.166,0.523-1.166,1.166
					c0,0.645,0.523,1.168,1.166,1.168s1.166-0.523,1.166-1.168C7.779,18.703,7.256,18.18,6.613,18.18z"/>
			</g>
			<g>
				<path fill="#FFFFFF" d="M6.613,22.078c-1.506,0-2.73-1.225-2.73-2.732c0-1.506,1.225-2.732,2.73-2.732s2.73,1.227,2.73,2.732
					C9.344,20.854,8.119,22.078,6.613,22.078z M6.613,17.113c-1.229,0-2.23,1.002-2.23,2.232c0,1.232,1.001,2.232,2.23,2.232
					s2.23-1,2.23-2.232C8.844,18.115,7.843,17.113,6.613,17.113z"/>
			</g>
			<g>
				<circle fill="#FFFFFF" cx="6.613" cy="19.346" r="0.265"/>
			</g>
		</g>
		<g>
			<g>
				<circle fill="#FFFFFF" cx="15.997" cy="19.347" r="0.604"/>
			</g>
			<g opacity="0.5">
				<path fill="#FFFFFF" d="M15.997,21.014c-0.919,0-1.666-0.748-1.666-1.668c0-0.918,0.747-1.666,1.666-1.666
					s1.666,0.748,1.666,1.666C17.663,20.266,16.916,21.014,15.997,21.014z M15.997,18.18c-0.643,0-1.166,0.523-1.166,1.166
					c0,0.645,0.523,1.168,1.166,1.168s1.166-0.523,1.166-1.168C17.163,18.703,16.64,18.18,15.997,18.18z"/>
			</g>
			<g opacity="0.5">
				<path fill="#FFFFFF" d="M15.997,22.078c-1.506,0-2.73-1.225-2.73-2.732c0-1.506,1.225-2.732,2.73-2.732s2.73,1.227,2.73,2.732
					C18.728,20.854,17.503,22.078,15.997,22.078z M15.997,17.113c-1.229,0-2.23,1.002-2.23,2.232c0,1.232,1.001,2.232,2.23,2.232
					s2.23-1,2.23-2.232C18.228,18.115,17.227,17.113,15.997,17.113z"/>
			</g>
			<g>
				<circle fill="#FFFFFF" cx="15.997" cy="19.346" r="0.265"/>
			</g>
		</g>
		<path fill="#FFFFFF" d="M19.549,15.521c0.193,0,0.351,0.158,0.351,0.352v6.797c0.353-0.01,0.69-0.08,1-0.207v-6.59
			c0-0.041-0.02-0.076-0.023-0.115c-0.02-0.219-0.092-0.412-0.202-0.588c-0.135-0.213-0.314-0.393-0.543-0.504
			c-0.178-0.086-0.371-0.145-0.582-0.145H3.131c-0.211,0-0.403,0.059-0.581,0.145c-0.229,0.111-0.409,0.289-0.544,0.504
			c-0.109,0.176-0.183,0.369-0.202,0.586C1.8,15.797,1.78,15.832,1.78,15.873v6.59c0.31,0.127,0.647,0.197,1,0.207v-6.797
			c0-0.193,0.157-0.352,0.351-0.352H19.549z M7.435,15.521h7.723"/>
	</g>
</g>
</svg>
