<?xml version="1.0" encoding="utf-8"?>
<!-- Generator: Adobe Illustrator 16.0.3, SVG Export Plug-In . SVG Version: 6.00 Build 0)  -->
<!DOCTYPE svg PUBLIC "-//W3C//DTD SVG 1.1//EN" "http://www.w3.org/Graphics/SVG/1.1/DTD/svg11.dtd">
<svg version="1.1" xmlns="http://www.w3.org/2000/svg" xmlns:xlink="http://www.w3.org/1999/xlink" x="0px" y="0px" width="22.68px"
	 height="22.68px" viewBox="0 0 22.68 22.68" enable-background="new 0 0 22.68 22.68" xml:space="preserve">
<g id="BCGRND">
</g>
<g id="IKONY">
	<g>
		<rect fill="#585857" width="22.678" height="22.68"/>
		<g>
			<g>
				<g>
					<rect x="0.002" y="11.957" fill="#FFFFFF" width="22.678" height="0.889"/>
				</g>
				<g>
					<path fill="#FFFFFF" d="M3.959,3.943C3.939,3.519,3.915,3.006,3.92,2.562H3.905c-0.107,0.4-0.244,0.845-0.391,1.26L3.036,5.247
						H2.572L2.133,3.841c-0.127-0.42-0.244-0.869-0.332-1.279h-0.01c-0.015,0.43-0.034,0.952-0.059,1.401L1.659,5.286H1.097
						l0.22-3.291h0.791l0.43,1.323c0.117,0.386,0.22,0.776,0.303,1.143h0.015c0.088-0.356,0.2-0.762,0.327-1.147l0.454-1.318h0.781
						l0.19,3.291H4.022L3.959,3.943z"/>
					<path fill="#FFFFFF" d="M7.206,4.573c0,0.283,0.01,0.518,0.02,0.713H6.698L6.669,4.925h-0.01
						C6.556,5.096,6.322,5.34,5.897,5.34c-0.435,0-0.83-0.259-0.83-1.035V2.908h0.601v1.294c0,0.396,0.127,0.649,0.444,0.649
						c0.239,0,0.396-0.171,0.459-0.322c0.02-0.054,0.034-0.117,0.034-0.186V2.908h0.601V4.573z"/>
					<path fill="#FFFFFF" d="M7.736,1.819h0.605v3.467H7.736V1.819z"/>
					<path fill="#FFFFFF" d="M9.559,2.229v0.679h0.571v0.449H9.559v1.05c0,0.288,0.078,0.439,0.308,0.439
						c0.103,0,0.181-0.015,0.234-0.029l0.01,0.459c-0.088,0.034-0.244,0.059-0.435,0.059c-0.22,0-0.405-0.073-0.518-0.195
						C9.032,5.003,8.973,4.788,8.973,4.476V3.357H8.632V2.908h0.342V2.371L9.559,2.229z"/>
					<path fill="#FFFFFF" d="M11.104,2.244c0,0.181-0.132,0.322-0.342,0.322c-0.2,0-0.332-0.142-0.332-0.322
						c0-0.186,0.137-0.327,0.337-0.327C10.972,1.917,11.099,2.059,11.104,2.244z M10.465,5.286V2.908h0.605v2.378H10.465z"/>
					<path fill="#FFFFFF" d="M11.619,1.995h0.6v2.788h1.354v0.503h-1.953V1.995z"/>
					<path fill="#FFFFFF" d="M14.254,4.266c0.014,0.43,0.352,0.615,0.732,0.615c0.277,0,0.479-0.039,0.658-0.107l0.088,0.415
						c-0.205,0.083-0.488,0.146-0.83,0.146c-0.771,0-1.225-0.474-1.225-1.201c0-0.659,0.4-1.279,1.162-1.279
						c0.771,0,1.025,0.635,1.025,1.157c0,0.112-0.01,0.2-0.02,0.254H14.254z M15.299,3.846c0.004-0.22-0.094-0.581-0.494-0.581
						c-0.371,0-0.527,0.337-0.551,0.581H15.299z"/>
					<path fill="#FFFFFF" d="M16.595,2.908l0.385,1.206c0.068,0.21,0.117,0.4,0.162,0.596h0.014
						c0.045-0.195,0.098-0.381,0.162-0.596l0.375-1.206h0.635L17.42,5.286h-0.59l-0.885-2.378H16.595z"/>
					<path fill="#FFFFFF" d="M18.937,4.266c0.014,0.43,0.352,0.615,0.732,0.615c0.277,0,0.479-0.039,0.658-0.107l0.088,0.415
						c-0.205,0.083-0.488,0.146-0.83,0.146c-0.771,0-1.225-0.474-1.225-1.201c0-0.659,0.4-1.279,1.162-1.279
						c0.771,0,1.025,0.635,1.025,1.157c0,0.112-0.01,0.2-0.02,0.254H18.937z M19.982,3.846c0.004-0.22-0.094-0.581-0.494-0.581
						c-0.371,0-0.527,0.337-0.551,0.581H19.982z"/>
					<path fill="#FFFFFF" d="M20.912,1.819h0.605v3.467h-0.605V1.819z"/>
					<path fill="#FFFFFF" d="M3.607,6.496h1.9v0.492H4.209v0.908H5.42V8.39H4.209v1.396H3.607V6.496z"/>
					<path fill="#FFFFFF" d="M5.945,6.32h0.605v3.467H5.945V6.32z"/>
					<path fill="#FFFFFF" d="M8.49,9.787L8.451,9.523H8.436C8.29,9.708,8.041,9.839,7.733,9.839c-0.479,0-0.747-0.346-0.747-0.707
						c0-0.602,0.532-0.904,1.411-0.898V8.195c0-0.156-0.063-0.416-0.483-0.416c-0.234,0-0.479,0.074-0.64,0.176L7.157,7.564
						C7.333,7.457,7.64,7.355,8.016,7.355c0.762,0,0.981,0.482,0.981,1v0.859c0,0.215,0.01,0.426,0.034,0.572H8.49z M8.412,8.625
						c-0.425-0.01-0.83,0.082-0.83,0.443c0,0.234,0.151,0.342,0.342,0.342c0.239,0,0.415-0.156,0.469-0.326
						c0.015-0.045,0.02-0.094,0.02-0.133V8.625z"/>
					<path fill="#FFFFFF" d="M9.587,8.117c0-0.273-0.005-0.504-0.02-0.709h0.518l0.024,0.352h0.015
						c0.117-0.186,0.332-0.404,0.732-0.404c0.313,0,0.557,0.176,0.659,0.439h0.01c0.083-0.133,0.181-0.23,0.293-0.299
						c0.132-0.092,0.283-0.141,0.479-0.141c0.396,0,0.796,0.268,0.796,1.029v1.402h-0.586V8.472c0-0.395-0.137-0.629-0.425-0.629
						c-0.205,0-0.356,0.146-0.42,0.316c-0.015,0.059-0.029,0.133-0.029,0.201v1.426h-0.586V8.41c0-0.332-0.132-0.566-0.41-0.566
						c-0.225,0-0.376,0.176-0.43,0.342c-0.024,0.059-0.034,0.127-0.034,0.195v1.406H9.587V8.117z"/>
					<path fill="#FFFFFF" d="M14.109,8.765c0.014,0.43,0.352,0.615,0.732,0.615c0.277,0,0.479-0.039,0.658-0.107l0.088,0.416
						c-0.205,0.082-0.488,0.146-0.83,0.146c-0.771,0-1.225-0.475-1.225-1.201c0-0.66,0.4-1.279,1.162-1.279
						c0.771,0,1.025,0.635,1.025,1.156c0,0.113-0.01,0.201-0.02,0.254H14.109z M15.154,8.345c0.004-0.219-0.094-0.58-0.494-0.58
						c-0.371,0-0.527,0.336-0.551,0.58H15.154z"/>
					<path fill="#FFFFFF" d="M17.253,9.357c0.093,0.01,0.186,0.004,0.332-0.01c0.234-0.02,0.469-0.104,0.645-0.244
						c0.205-0.166,0.347-0.406,0.405-0.703l-0.01-0.006c-0.161,0.182-0.386,0.283-0.693,0.283c-0.552,0-0.962-0.4-0.962-0.986
						c0-0.605,0.469-1.133,1.147-1.133c0.737,0,1.133,0.582,1.133,1.354c0,0.678-0.225,1.162-0.552,1.475
						c-0.278,0.258-0.659,0.404-1.084,0.434c-0.137,0.016-0.273,0.016-0.361,0.01V9.357z M17.565,7.658
						c0.005,0.326,0.19,0.58,0.522,0.58c0.244,0,0.42-0.111,0.513-0.264c0.02-0.039,0.034-0.088,0.034-0.17
						c0.005-0.43-0.156-0.801-0.547-0.801C17.785,7.003,17.565,7.271,17.565,7.658z"/>
				</g>
			</g>
			<path fill="#FFFFFF" d="M2.533,22.678L2.533,22.678l-0.489-1h0.979L2.533,22.678z"/>
			<g>
				<path fill="#FFFFFF" d="M1.54,20.717c-0.066-0.123-0.1-0.248-0.1-0.377c0-0.063,0.019-0.141,0.044-0.234
					c0.032-0.102,0.081-0.217,0.134-0.342c0.037-0.078,0.08-0.162,0.123-0.242c0.036-0.076,0.073-0.145,0.111-0.221
					c0.039-0.066,0.073-0.131,0.11-0.193c0.28-0.5,0.573-0.945,0.573-0.945s0.287,0.445,0.567,0.945
					c0.037,0.063,0.071,0.127,0.109,0.193c0.039,0.072,0.076,0.141,0.112,0.217c0.044,0.082,0.087,0.166,0.121,0.244
					c0.056,0.125,0.104,0.242,0.136,0.344c0.025,0.094,0.042,0.172,0.042,0.234c0,0.129-0.031,0.254-0.093,0.375
					c-0.026,0.045-0.066,0.08-0.098,0.119c-0.139,0.184-0.342,0.324-0.583,0.391H2.216c-0.241-0.066-0.446-0.207-0.583-0.391
					C1.601,20.795,1.558,20.76,1.54,20.717z"/>
				<path opacity="0.5" fill="#FFFFFF" d="M1.405,20.871c-0.037-0.031-0.076-0.061-0.113-0.096c-0.079-0.076-0.15-0.156-0.217-0.244
					c-0.025-0.037-0.052-0.076-0.078-0.117c-0.034-0.051-0.064-0.109-0.095-0.17c-0.11-0.232-0.181-0.49-0.185-0.764
					c0-0.006,0-0.016,0-0.016c0-0.014,0-0.025,0.004-0.035c0-0.074,0.014-0.164,0.033-0.264c0.069-0.33,0.228-0.768,0.429-1.234
					c0.026-0.063,0.055-0.127,0.083-0.189c0.025-0.063,0.054-0.123,0.083-0.184c0.521-1.152,1.187-2.326,1.187-2.326
					s0.659,1.174,1.181,2.326c0.03,0.061,0.058,0.121,0.083,0.188c0.028,0.059,0.057,0.123,0.086,0.186
					c0.199,0.467,0.357,0.906,0.426,1.238c0.021,0.096,0.033,0.186,0.033,0.264c0,0.008,0.003,0.018,0.003,0.027
					c0,0-0.003,0.014-0.003,0.021c-0.003,0.273-0.07,0.531-0.181,0.762c-0.032,0.061-0.061,0.119-0.095,0.17
					c-0.024,0.041-0.051,0.08-0.081,0.119c-0.063,0.088-0.132,0.166-0.211,0.242c-0.036,0.035-0.076,0.066-0.118,0.096
					c-0.039,0.033-0.074,0.068-0.117,0.096C3.34,21.104,3.1,21.182,2.85,21.225c0.241-0.066,0.444-0.207,0.583-0.391
					c0.031-0.039,0.071-0.074,0.098-0.119c0.062-0.121,0.093-0.246,0.093-0.375c0-0.063-0.017-0.141-0.042-0.234
					c-0.032-0.102-0.08-0.219-0.136-0.344c-0.034-0.078-0.077-0.162-0.121-0.244c-0.036-0.076-0.073-0.145-0.112-0.217
					c-0.038-0.066-0.072-0.131-0.109-0.193c-0.28-0.5-0.567-0.945-0.567-0.945s-0.293,0.445-0.573,0.945
					c-0.037,0.063-0.071,0.127-0.11,0.193c-0.038,0.076-0.075,0.145-0.111,0.221c-0.043,0.08-0.086,0.164-0.123,0.242
					c-0.053,0.125-0.102,0.24-0.134,0.342C1.459,20.199,1.44,20.277,1.44,20.34c0,0.129,0.033,0.254,0.1,0.377
					c0.019,0.043,0.062,0.078,0.093,0.117c0.137,0.184,0.342,0.324,0.583,0.391c-0.25-0.047-0.485-0.121-0.691-0.258
					C1.482,20.938,1.448,20.902,1.405,20.871z"/>
			</g>
			<path fill="#FFFFFF" d="M11.34,22.678L11.34,22.678l-0.488-1h0.979L11.34,22.678z"/>
			<g>
				<path fill="#FFFFFF" d="M10.589,20.727c-0.05-0.094-0.076-0.188-0.076-0.285c0-0.049,0.015-0.107,0.034-0.178
					c0.024-0.078,0.062-0.164,0.101-0.258c0.029-0.061,0.063-0.123,0.095-0.186c0.026-0.057,0.055-0.109,0.085-0.166
					c0.028-0.051,0.054-0.1,0.081-0.146c0.213-0.379,0.435-0.715,0.435-0.715s0.218,0.336,0.43,0.715
					c0.028,0.047,0.054,0.096,0.082,0.146c0.03,0.055,0.058,0.107,0.085,0.166c0.033,0.061,0.066,0.123,0.092,0.182
					c0.042,0.096,0.079,0.184,0.104,0.262c0.02,0.07,0.032,0.129,0.032,0.178c0,0.098-0.023,0.191-0.071,0.283
					c-0.019,0.033-0.05,0.061-0.074,0.092c-0.105,0.139-0.257,0.244-0.44,0.295H11.1c-0.184-0.051-0.339-0.156-0.441-0.295
					C10.635,20.785,10.603,20.758,10.589,20.727z"/>
				<path opacity="0.5" fill="#FFFFFF" d="M10.487,20.844c-0.028-0.023-0.058-0.047-0.086-0.074
					c-0.061-0.057-0.113-0.117-0.163-0.184c-0.02-0.027-0.04-0.059-0.06-0.088c-0.026-0.039-0.05-0.084-0.072-0.129
					c-0.084-0.176-0.137-0.371-0.14-0.578c0-0.006,0-0.012,0-0.012c0-0.01,0-0.02,0.003-0.027c0-0.057,0.011-0.125,0.025-0.199
					c0.052-0.25,0.172-0.58,0.325-0.936c0.02-0.047,0.04-0.094,0.062-0.141c0.02-0.049,0.041-0.094,0.063-0.141
					c0.396-0.871,0.898-1.76,0.898-1.76s0.499,0.889,0.895,1.76c0.021,0.047,0.043,0.092,0.063,0.141
					c0.021,0.047,0.042,0.094,0.064,0.141c0.15,0.355,0.271,0.688,0.322,0.938c0.015,0.072,0.025,0.143,0.025,0.199
					c0,0.008,0.003,0.016,0.003,0.021c0,0-0.003,0.01-0.003,0.018c-0.002,0.207-0.053,0.402-0.137,0.576
					c-0.024,0.045-0.047,0.09-0.072,0.129c-0.02,0.029-0.039,0.061-0.062,0.09c-0.048,0.064-0.1,0.125-0.159,0.182
					c-0.027,0.027-0.058,0.051-0.09,0.074c-0.028,0.025-0.056,0.051-0.088,0.072c-0.153,0.102-0.334,0.162-0.523,0.195
					c0.184-0.051,0.335-0.156,0.44-0.295c0.024-0.031,0.056-0.059,0.074-0.092c0.048-0.092,0.071-0.186,0.071-0.283
					c0-0.049-0.013-0.107-0.032-0.178c-0.024-0.078-0.062-0.166-0.104-0.262c-0.025-0.059-0.059-0.121-0.092-0.182
					c-0.027-0.059-0.055-0.111-0.085-0.166c-0.028-0.051-0.054-0.1-0.082-0.146c-0.212-0.379-0.43-0.715-0.43-0.715
					s-0.222,0.336-0.435,0.715c-0.027,0.047-0.053,0.096-0.081,0.146c-0.03,0.057-0.059,0.109-0.085,0.166
					c-0.032,0.063-0.065,0.125-0.095,0.186c-0.039,0.094-0.076,0.18-0.101,0.258c-0.02,0.07-0.034,0.129-0.034,0.178
					c0,0.098,0.026,0.191,0.076,0.285c0.015,0.031,0.047,0.059,0.07,0.09c0.103,0.139,0.258,0.244,0.441,0.295
					c-0.19-0.035-0.367-0.094-0.523-0.195C10.545,20.893,10.519,20.867,10.487,20.844z"/>
			</g>
			<path fill="#FFFFFF" d="M20.146,22.678L20.146,22.678l-0.487-1h0.979L20.146,22.678z"/>
			<g>
				<path fill="#FFFFFF" d="M19.69,20.879c-0.03-0.057-0.046-0.115-0.046-0.174c0-0.029,0.009-0.064,0.021-0.107
					c0.015-0.047,0.037-0.1,0.062-0.158c0.018-0.035,0.037-0.074,0.057-0.111c0.017-0.033,0.034-0.066,0.052-0.1
					c0.018-0.031,0.033-0.063,0.05-0.09c0.129-0.23,0.264-0.434,0.264-0.434s0.132,0.203,0.261,0.434
					c0.018,0.027,0.033,0.059,0.05,0.09c0.019,0.033,0.035,0.064,0.052,0.1c0.02,0.037,0.04,0.074,0.056,0.111
					c0.025,0.057,0.048,0.111,0.063,0.158c0.012,0.043,0.02,0.078,0.02,0.107c0,0.059-0.015,0.117-0.043,0.172
					c-0.012,0.021-0.03,0.037-0.045,0.055c-0.063,0.084-0.156,0.148-0.268,0.18h-0.292c-0.111-0.031-0.205-0.096-0.268-0.18
					C19.719,20.914,19.699,20.898,19.69,20.879z"/>
				<path opacity="0.5" fill="#FFFFFF" d="M19.629,20.949c-0.017-0.014-0.035-0.027-0.052-0.045c-0.037-0.033-0.069-0.07-0.1-0.111
					c-0.012-0.018-0.024-0.035-0.036-0.055c-0.016-0.023-0.03-0.049-0.044-0.078c-0.051-0.105-0.083-0.225-0.084-0.35
					c0-0.004,0-0.008,0-0.008c0-0.006,0-0.012,0.001-0.016c0-0.035,0.007-0.076,0.016-0.121c0.031-0.152,0.104-0.354,0.197-0.568
					c0.012-0.027,0.024-0.057,0.038-0.086c0.012-0.029,0.024-0.057,0.037-0.084c0.24-0.529,0.546-1.068,0.546-1.068
					s0.303,0.539,0.543,1.068c0.013,0.027,0.026,0.055,0.038,0.086c0.013,0.027,0.025,0.057,0.039,0.084
					c0.091,0.215,0.164,0.418,0.195,0.568c0.01,0.045,0.016,0.088,0.016,0.123c0,0.004,0.002,0.008,0.002,0.012
					c0,0-0.002,0.006-0.002,0.01c-0.001,0.127-0.032,0.244-0.083,0.35c-0.015,0.029-0.028,0.055-0.044,0.078
					c-0.012,0.02-0.023,0.037-0.037,0.055c-0.029,0.041-0.061,0.078-0.097,0.111c-0.017,0.018-0.035,0.031-0.055,0.045
					c-0.018,0.016-0.034,0.031-0.054,0.043c-0.093,0.063-0.202,0.1-0.317,0.119c0.111-0.031,0.204-0.096,0.268-0.18
					c0.015-0.018,0.033-0.033,0.045-0.055c0.028-0.055,0.043-0.113,0.043-0.172c0-0.029-0.008-0.064-0.02-0.107
					c-0.015-0.047-0.037-0.102-0.063-0.158c-0.016-0.037-0.036-0.074-0.056-0.111c-0.017-0.035-0.033-0.066-0.052-0.1
					c-0.017-0.031-0.032-0.063-0.05-0.09c-0.129-0.23-0.261-0.434-0.261-0.434s-0.135,0.203-0.264,0.434
					c-0.017,0.027-0.032,0.059-0.05,0.09c-0.018,0.033-0.035,0.066-0.052,0.1c-0.02,0.037-0.039,0.076-0.057,0.111
					c-0.024,0.059-0.047,0.111-0.062,0.158c-0.012,0.043-0.021,0.078-0.021,0.107c0,0.059,0.016,0.117,0.046,0.174
					c0.009,0.02,0.028,0.035,0.043,0.053c0.063,0.084,0.156,0.148,0.268,0.18c-0.115-0.021-0.223-0.057-0.317-0.119
					C19.664,20.979,19.648,20.963,19.629,20.949z"/>
			</g>
			<circle fill="#FFFFFF" cx="4.735" cy="20.6" r="0.378"/>
			<circle fill="#FFFFFF" cx="6.937" cy="20.6" r="0.378"/>
			<circle fill="#FFFFFF" cx="9.138" cy="20.6" r="0.378"/>
			<circle fill="#FFFFFF" cx="13.542" cy="20.6" r="0.377"/>
			<circle fill="#FFFFFF" cx="15.744" cy="20.6" r="0.378"/>
			<circle fill="#FFFFFF" cx="17.946" cy="20.6" r="0.378"/>
			<polygon opacity="0.5" fill="#FFFFFF" points="2.033,12.117 2.033,13.256 3.033,13.463 3.033,12.117 			"/>
			<polygon opacity="0.5" fill="#FFFFFF" points="4.235,12.117 4.235,13.713 5.235,13.92 5.235,12.117 			"/>
			<polygon opacity="0.5" fill="#FFFFFF" points="6.436,12.117 6.436,14.17 7.436,14.377 7.436,12.117 			"/>
			<polygon opacity="0.5" fill="#FFFFFF" points="8.639,12.117 8.639,14.627 9.639,14.834 9.639,12.117 			"/>
			<polygon opacity="0.5" fill="#FFFFFF" points="10.841,12.117 10.841,15.084 11.841,15.291 11.841,12.117 			"/>
			<polygon opacity="0.5" fill="#FFFFFF" points="13.042,12.117 13.042,15.541 14.042,15.748 14.042,12.117 			"/>
			<polygon opacity="0.5" fill="#FFFFFF" points="15.245,12.117 15.245,15.998 16.245,16.205 16.245,12.117 			"/>
			<polygon opacity="0.5" fill="#FFFFFF" points="17.446,12.117 17.446,16.455 18.446,16.662 18.446,12.117 			"/>
			<polygon opacity="0.5" fill="#FFFFFF" points="19.648,12.117 19.648,16.912 20.648,17.119 20.648,12.117 			"/>
		</g>
	</g>
</g>
</svg>
