<?xml version="1.0" encoding="utf-8"?>
<!-- Generator: Adobe Illustrator 16.0.3, SVG Export Plug-In . SVG Version: 6.00 Build 0)  -->
<!DOCTYPE svg PUBLIC "-//W3C//DTD SVG 1.1//EN" "http://www.w3.org/Graphics/SVG/1.1/DTD/svg11.dtd">
<svg version="1.1" xmlns="http://www.w3.org/2000/svg" xmlns:xlink="http://www.w3.org/1999/xlink" x="0px" y="0px" width="22.68px"
	 height="22.68px" viewBox="0 0 22.68 22.68" enable-background="new 0 0 22.68 22.68" xml:space="preserve">
<g id="BCGRND" display="none">
</g>
<g id="IKONY">
	<g>
		<defs>
			<polygon id="SVGID_89_" points="22.678,16.335 22.678,0 0,0 0,22.678 14.117,22.678 22.678,22.678 			"/>
		</defs>
		<clipPath id="SVGID_2_">
			<use xlink:href="#SVGID_89_"  overflow="visible"/>
		</clipPath>
		<g clip-path="url(#SVGID_2_)">
			<polygon fill="#585857" points="22.678,16.335 22.678,0 0,0 0,22.678 14.117,22.678 22.678,22.678 			"/>
			<g>
				<g>
					<path fill="#FFFFFF" d="M3.73,5.57V2.279h0.684l0.85,1.411c0.22,0.366,0.41,0.747,0.562,1.104h0.01
						C5.796,4.354,5.781,3.93,5.781,3.427V2.279h0.557V5.57h-0.62L4.858,4.125c-0.21-0.361-0.43-0.767-0.591-1.138L4.253,2.992
						c0.024,0.425,0.029,0.859,0.029,1.401V5.57H3.73z"/>
					<path fill="#FFFFFF" d="M8.398,5.57L8.359,5.307H8.344C8.198,5.492,7.949,5.624,7.641,5.624c-0.479,0-0.747-0.347-0.747-0.708
						c0-0.601,0.532-0.903,1.411-0.898V3.979c0-0.156-0.063-0.415-0.483-0.415c-0.234,0-0.479,0.073-0.64,0.176L7.065,3.349
						c0.176-0.107,0.483-0.21,0.859-0.21c0.762,0,0.981,0.483,0.981,1.001v0.859c0,0.215,0.01,0.425,0.034,0.571H8.398z M8.32,4.408
						c-0.425-0.01-0.83,0.083-0.83,0.444c0,0.234,0.151,0.342,0.342,0.342c0.239,0,0.415-0.156,0.469-0.327
						c0.015-0.044,0.02-0.093,0.02-0.132V4.408z"/>
					<path fill="#FFFFFF" d="M10.251,2.514v0.679h0.571v0.449h-0.571v1.05c0,0.288,0.078,0.439,0.308,0.439
						c0.103,0,0.181-0.015,0.234-0.029l0.01,0.459c-0.088,0.034-0.244,0.059-0.435,0.059c-0.22,0-0.405-0.073-0.518-0.195
						C9.724,5.287,9.666,5.072,9.666,4.76V3.642H9.324V3.192h0.342V2.655L10.251,2.514z"/>
					<path fill="#FFFFFF" d="M13.457,4.857c0,0.283,0.01,0.518,0.02,0.713h-0.527L12.92,5.209h-0.01
						c-0.103,0.171-0.337,0.415-0.762,0.415c-0.435,0-0.83-0.259-0.83-1.035V3.192h0.601v1.294c0,0.396,0.127,0.649,0.444,0.649
						c0.239,0,0.396-0.171,0.459-0.322c0.02-0.054,0.034-0.117,0.034-0.186V3.192h0.601V4.857z"/>
					<path fill="#FFFFFF" d="M14.159,3.959c0-0.322-0.005-0.552-0.02-0.767h0.522l0.02,0.454h0.02
						c0.117-0.337,0.396-0.508,0.649-0.508c0.059,0,0.093,0.005,0.142,0.015V3.72c-0.049-0.01-0.103-0.02-0.176-0.02
						c-0.288,0-0.483,0.186-0.537,0.454c-0.01,0.054-0.02,0.117-0.02,0.186v1.23h-0.601V3.959z"/>
					<path fill="#FFFFFF" d="M17.242,5.57l-0.039-0.264h-0.015c-0.146,0.186-0.396,0.317-0.703,0.317
						c-0.479,0-0.747-0.347-0.747-0.708c0-0.601,0.532-0.903,1.411-0.898V3.979c0-0.156-0.063-0.415-0.483-0.415
						c-0.234,0-0.479,0.073-0.64,0.176l-0.117-0.391c0.176-0.107,0.483-0.21,0.859-0.21c0.762,0,0.981,0.483,0.981,1.001v0.859
						c0,0.215,0.01,0.425,0.034,0.571H17.242z M17.164,4.408c-0.425-0.01-0.83,0.083-0.83,0.444c0,0.234,0.151,0.342,0.342,0.342
						c0.239,0,0.415-0.156,0.469-0.327c0.015-0.044,0.02-0.093,0.02-0.132V4.408z"/>
					<path fill="#FFFFFF" d="M18.437,2.104h0.605V5.57h-0.605V2.104z"/>
					<path fill="#FFFFFF" d="M7.852,6.823c0.264-0.044,0.601-0.068,0.957-0.068c0.615,0,1.04,0.127,1.343,0.381
						c0.317,0.259,0.513,0.649,0.513,1.211c0,0.586-0.2,1.025-0.513,1.309c-0.327,0.298-0.85,0.449-1.489,0.449
						c-0.352,0-0.615-0.02-0.811-0.044V6.823z M8.452,9.611c0.083,0.015,0.21,0.015,0.332,0.015c0.781,0.005,1.245-0.425,1.245-1.26
						c0.005-0.728-0.415-1.143-1.167-1.143c-0.19,0-0.327,0.015-0.41,0.034V9.611z"/>
					<path fill="#FFFFFF" d="M11.23,8.459c0-0.322-0.005-0.552-0.02-0.767h0.522l0.02,0.454h0.02
						c0.117-0.337,0.396-0.508,0.649-0.508c0.059,0,0.093,0.005,0.142,0.015V8.22C12.514,8.21,12.46,8.2,12.387,8.2
						c-0.288,0-0.483,0.186-0.537,0.454c-0.01,0.054-0.02,0.117-0.02,0.186v1.23H11.23V8.459z"/>
					<path fill="#FFFFFF" d="M13.502,7.692l0.43,1.274c0.049,0.146,0.098,0.327,0.132,0.464h0.015
						c0.039-0.137,0.083-0.313,0.127-0.469l0.371-1.27h0.645l-0.596,1.621c-0.327,0.889-0.547,1.284-0.83,1.528
						c-0.234,0.21-0.479,0.288-0.63,0.308l-0.137-0.508c0.103-0.024,0.229-0.078,0.352-0.166c0.112-0.073,0.244-0.215,0.327-0.376
						c0.024-0.044,0.039-0.078,0.039-0.107c0-0.024-0.005-0.059-0.034-0.117l-0.869-2.183H13.502z"/>
				</g>
			</g>
		</g>
		
			<line clip-path="url(#SVGID_2_)" fill="none" stroke="#FFFFFF" stroke-width="0.8889" stroke-miterlimit="10" x1="0" y1="12.4" x2="22.678" y2="12.4"/>
		<polygon clip-path="url(#SVGID_2_)" fill="none" points="22.678,16.335 22.678,0 0,0 0,22.678 14.117,22.678 22.678,22.678 		"/>
		<g clip-path="url(#SVGID_2_)">
			<path opacity="0.5" fill="#FFFFFF" d="M10.604,21.458c-0.128-0.427-0.262-0.93-0.373-1.453c-0.976-1.491-2.308-2.918-3.396-1.83
				c-1.087,1.086,0.34,2.42,1.829,3.396c0.524,0.109,1.026,0.245,1.456,0.374C10.24,21.744,10.405,21.579,10.604,21.458z"/>
			<path opacity="0.5" fill="#FFFFFF" d="M12.557,21.945c0.427-0.129,0.932-0.266,1.454-0.374c1.491-0.975,2.918-2.309,1.832-3.396
				c-1.089-1.088-2.423,0.34-3.398,1.831c-0.108,0.522-0.245,1.026-0.372,1.453C12.271,21.579,12.438,21.745,12.557,21.945z"/>
			<path fill="#FFFFFF" d="M14.011,21.571c-0.522,0.108-1.027,0.245-1.454,0.374c-0.119-0.2-0.285-0.366-0.484-0.486
				c0.127-0.427,0.264-0.931,0.372-1.453c0.366-1.743,0.433-3.697-1.105-3.697s-1.473,1.954-1.107,3.697
				c0.111,0.523,0.245,1.026,0.373,1.453c-0.199,0.12-0.364,0.285-0.483,0.486c-0.43-0.129-0.932-0.265-1.456-0.374
				c-1.741-0.366-3.694-0.432-3.694,1.106c0.001,1.538,1.953,1.472,3.696,1.106c0.523-0.109,1.025-0.245,1.454-0.373
				c0.118,0.199,0.283,0.366,0.483,0.486c-0.126,0.427-0.263,0.93-0.373,1.453c-0.365,1.742-0.431,3.696,1.107,3.696
				s1.473-1.953,1.104-3.696c-0.108-0.523-0.243-1.026-0.369-1.453c0.196-0.12,0.364-0.286,0.482-0.486
				c0.428,0.129,0.932,0.265,1.454,0.373c1.742,0.365,3.696,0.432,3.696-1.106C17.707,21.139,15.754,21.206,14.011,21.571z
				 M12.305,22.803c-0.025,0.175-0.09,0.335-0.194,0.468c-0.052,0.067-0.111,0.126-0.176,0.178
				c-0.137,0.104-0.297,0.171-0.472,0.194c-0.041,0.004-0.081,0.012-0.124,0.012c-0.043,0-0.085-0.007-0.126-0.012
				c-0.174-0.022-0.337-0.09-0.469-0.194c-0.066-0.051-0.125-0.11-0.177-0.178c-0.104-0.133-0.172-0.293-0.194-0.469
				c-0.005-0.041-0.013-0.081-0.012-0.125c0-0.042,0.007-0.084,0.012-0.125c0.022-0.175,0.09-0.335,0.195-0.468
				c0.052-0.067,0.11-0.127,0.176-0.178c0.133-0.104,0.296-0.171,0.469-0.194c0.041-0.005,0.082-0.012,0.126-0.012
				c0.043,0,0.084,0.007,0.125,0.012c0.174,0.022,0.334,0.089,0.47,0.194c0.065,0.051,0.125,0.11,0.176,0.178
				c0.105,0.133,0.172,0.292,0.195,0.468c0.004,0.041,0.013,0.082,0.013,0.125C12.316,22.721,12.309,22.761,12.305,22.803z"/>
		</g>
		<path opacity="0.5" clip-path="url(#SVGID_2_)" fill="#FFFFFF" d="M19.878,19.685l-0.351-2.568l-0.677,0.524
			c-1.352-1.641-3.038-3.675-7.512-3.675c-4.486,0-6.171,2.046-7.524,3.689C2.752,18.946,1.912,19.966,0,19.966h-5.75v1H0
			c2.384,0,3.504-1.36,4.587-2.675c1.346-1.635,2.737-3.325,6.752-3.325c3.982,0,5.385,1.664,6.721,3.287l-0.582,0.45L19.878,19.685
			z"/>
	</g>
</g>
</svg>
