<?xml version="1.0" encoding="utf-8"?>
<!-- Generator: Adobe Illustrator 16.0.3, SVG Export Plug-In . SVG Version: 6.00 Build 0)  -->
<!DOCTYPE svg PUBLIC "-//W3C//DTD SVG 1.1//EN" "http://www.w3.org/Graphics/SVG/1.1/DTD/svg11.dtd">
<svg version="1.1" xmlns="http://www.w3.org/2000/svg" xmlns:xlink="http://www.w3.org/1999/xlink" x="0px" y="0px" width="22.68px"
	 height="22.68px" viewBox="0 0 22.68 22.68" enable-background="new 0 0 22.68 22.68" xml:space="preserve">
<g id="BCGRND">
</g>
<g id="BAREVNE_BCGRND">
	<g>
		<polygon fill="#585857" points="22.678,16.334 22.678,0 0,0 0,22.677 14.118,22.677 22.678,22.677 		"/>
	</g>
</g>
<g id="IKONY">
	<g>
		<rect x="0" y="11.956" fill="#FFFFFF" width="22.678" height="0.889"/>
		<g>
			<g>
				<path fill="#FFFFFF" d="M3.875,5.286V1.995h0.684l0.85,1.411c0.22,0.366,0.41,0.747,0.562,1.104h0.01
					C5.94,4.07,5.925,3.646,5.925,3.143V1.995h0.557v3.291h-0.62l-0.859-1.45c-0.21-0.356-0.43-0.762-0.591-1.133L4.397,2.708
					c0.024,0.425,0.029,0.859,0.029,1.401v1.177H3.875z"/>
				<path fill="#FFFFFF" d="M9.318,4.075c0,0.874-0.615,1.265-1.221,1.265c-0.674,0-1.191-0.464-1.191-1.226
					c0-0.781,0.513-1.26,1.23-1.26C8.844,2.854,9.318,3.353,9.318,4.075z M7.526,4.1c0,0.459,0.225,0.806,0.591,0.806
					c0.342,0,0.581-0.337,0.581-0.815c0-0.371-0.166-0.796-0.576-0.796C7.697,3.294,7.526,3.704,7.526,4.1z"/>
				<path fill="#FFFFFF" d="M10.655,2.039c0.264-0.044,0.601-0.068,0.957-0.068c0.615,0,1.04,0.127,1.343,0.381
					c0.317,0.259,0.513,0.649,0.513,1.211c0,0.586-0.2,1.025-0.513,1.309c-0.327,0.298-0.85,0.449-1.489,0.449
					c-0.352,0-0.615-0.02-0.811-0.044V2.039z M11.256,4.827c0.083,0.015,0.21,0.015,0.332,0.015c0.781,0.005,1.245-0.425,1.245-1.26
					c0.005-0.728-0.415-1.143-1.167-1.143c-0.19,0-0.327,0.015-0.41,0.034V4.827z"/>
				<path fill="#FFFFFF" d="M13.887,3.675c0-0.322-0.005-0.552-0.02-0.767h0.522l0.02,0.454h0.02
					c0.117-0.337,0.396-0.508,0.649-0.508c0.059,0,0.093,0.005,0.142,0.015v0.566c-0.049-0.01-0.103-0.02-0.176-0.02
					c-0.288,0-0.483,0.186-0.537,0.454c-0.01,0.054-0.02,0.117-0.02,0.186v1.23h-0.601V3.675z"/>
				<path fill="#FFFFFF" d="M16.169,2.244c0,0.181-0.132,0.322-0.342,0.322c-0.2,0-0.332-0.142-0.332-0.322
					c0-0.186,0.137-0.327,0.337-0.327C16.038,1.917,16.165,2.059,16.169,2.244z M15.53,5.286V2.908h0.605v2.378H15.53z"/>
				<path fill="#FFFFFF" d="M16.684,3.699c0-0.313-0.01-0.566-0.02-0.791h0.527l0.029,0.366h0.01c0.176-0.269,0.454-0.42,0.815-0.42
					c0.547,0,1.001,0.469,1.001,1.211c0,0.859-0.542,1.274-1.084,1.274c-0.298,0-0.547-0.127-0.669-0.317h-0.01v1.23h-0.601V3.699z
					 M17.284,4.29c0,0.059,0.005,0.112,0.02,0.166c0.059,0.244,0.273,0.42,0.527,0.42c0.381,0,0.605-0.317,0.605-0.786
					c0-0.42-0.205-0.762-0.591-0.762c-0.249,0-0.479,0.181-0.537,0.444c-0.015,0.049-0.024,0.103-0.024,0.151V4.29z"/>
				<path fill="#FFFFFF" d="M4.322,9.132c0.195,0.112,0.488,0.21,0.796,0.21c0.386,0,0.601-0.181,0.601-0.449
					c0-0.249-0.166-0.396-0.586-0.547C4.59,8.15,4.244,7.862,4.244,7.389c0-0.537,0.449-0.947,1.162-0.947
					c0.356,0,0.62,0.078,0.791,0.166L6.05,7.091C5.933,7.027,5.704,6.935,5.396,6.935c-0.381,0-0.547,0.205-0.547,0.396
					c0,0.254,0.19,0.371,0.63,0.542c0.571,0.215,0.85,0.503,0.85,0.977c0,0.527-0.4,0.991-1.25,0.991
					c-0.347,0-0.708-0.103-0.889-0.21L4.322,9.132z"/>
				<path fill="#FFFFFF" d="M7.069,7.408l0.43,1.274C7.547,8.829,7.596,9.01,7.63,9.146h0.015C7.684,9.01,7.728,8.834,7.772,8.678
					l0.371-1.27h0.645L8.192,9.029c-0.327,0.889-0.547,1.284-0.83,1.528c-0.234,0.21-0.479,0.288-0.63,0.308l-0.137-0.508
					c0.103-0.024,0.229-0.078,0.352-0.166c0.112-0.073,0.244-0.215,0.327-0.376c0.024-0.044,0.039-0.078,0.039-0.107
					c0-0.024-0.005-0.059-0.034-0.117L6.41,7.408H7.069z"/>
				<path fill="#FFFFFF" d="M8.952,9.234c0.137,0.083,0.396,0.171,0.61,0.171c0.264,0,0.381-0.107,0.381-0.264
					c0-0.161-0.098-0.244-0.391-0.347C9.088,8.634,8.893,8.38,8.898,8.102c0-0.42,0.347-0.747,0.898-0.747
					c0.264,0,0.493,0.068,0.63,0.142l-0.117,0.425c-0.103-0.059-0.293-0.137-0.503-0.137c-0.215,0-0.332,0.103-0.332,0.249
					c0,0.151,0.112,0.225,0.415,0.332c0.43,0.156,0.63,0.376,0.635,0.728c0,0.43-0.337,0.747-0.967,0.747
					c-0.288,0-0.547-0.073-0.723-0.171L8.952,9.234z"/>
				<path fill="#FFFFFF" d="M11.61,6.798v0.61h0.571v0.449H11.61v1.05c0,0.288,0.078,0.439,0.308,0.439
					c0.112,0,0.166-0.01,0.234-0.029l0.01,0.459c-0.088,0.034-0.244,0.063-0.435,0.063c-0.22,0-0.405-0.078-0.518-0.2
					c-0.127-0.137-0.186-0.352-0.186-0.664V7.857h-0.342V7.408h0.342V6.969L11.61,6.798z"/>
				<path fill="#FFFFFF" d="M12.936,8.766c0.015,0.43,0.352,0.615,0.732,0.615c0.278,0,0.479-0.039,0.659-0.107l0.088,0.415
					c-0.205,0.083-0.488,0.151-0.83,0.151c-0.771,0-1.226-0.479-1.226-1.206c0-0.659,0.4-1.279,1.162-1.279
					c0.776,0,1.025,0.635,1.025,1.157c0,0.112-0.01,0.2-0.02,0.254H12.936z M13.98,8.346c0.005-0.22-0.093-0.581-0.493-0.581
					c-0.371,0-0.527,0.337-0.552,0.581H13.98z"/>
				<path fill="#FFFFFF" d="M14.936,8.116c0-0.273-0.005-0.503-0.02-0.708h0.518l0.024,0.352h0.015
					c0.117-0.186,0.332-0.405,0.732-0.405c0.313,0,0.557,0.176,0.659,0.439h0.01c0.083-0.132,0.181-0.229,0.293-0.298
					c0.132-0.093,0.283-0.142,0.479-0.142c0.396,0,0.796,0.269,0.796,1.03v1.401h-0.586V8.473c0-0.396-0.137-0.63-0.425-0.63
					c-0.205,0-0.356,0.146-0.42,0.317c-0.015,0.059-0.029,0.132-0.029,0.2v1.426h-0.586V8.409c0-0.332-0.132-0.566-0.41-0.566
					c-0.225,0-0.376,0.176-0.43,0.342c-0.024,0.059-0.034,0.127-0.034,0.195v1.406h-0.586V8.116z"/>
			</g>
		</g>
		<path opacity="0.5" fill="#FFFFFF" d="M0.841,15.445c0-0.47-0.84-1.96-0.84-1.96v2.8C0.471,16.285,0.841,15.905,0.841,15.445z
			 M0.001,22.675h0.77c0.05-0.1,0.07-0.21,0.07-0.32c0-0.46-0.84-1.96-0.84-1.96V22.675z M2.101,18.895c0-0.46-0.84-1.95-0.84-1.95
			s-0.84,1.49-0.84,1.95c0,0.47,0.38,0.84,0.84,0.84S2.101,19.365,2.101,18.895z M2.521,16.285c0.47,0,0.84-0.38,0.84-0.84
			c0-0.47-0.84-1.96-0.84-1.96s-0.84,1.49-0.84,1.96C1.681,15.905,2.061,16.285,2.521,16.285z M1.681,22.354
			c0,0.11,0.021,0.22,0.07,0.32h1.54c0.05-0.1,0.069-0.21,0.069-0.32c0-0.46-0.84-1.96-0.84-1.96S1.681,21.895,1.681,22.354z
			 M4.622,18.895c0-0.46-0.841-1.95-0.841-1.95s-0.84,1.49-0.84,1.95c0,0.47,0.38,0.84,0.84,0.84S4.622,19.365,4.622,18.895z
			 M5.042,16.285c0.47,0,0.84-0.38,0.84-0.84c0-0.47-0.84-1.96-0.84-1.96s-0.84,1.49-0.84,1.96
			C4.202,15.905,4.582,16.285,5.042,16.285z M4.202,22.354c0,0.11,0.02,0.22,0.069,0.32h1.54c0.05-0.1,0.07-0.21,0.07-0.32
			c0-0.46-0.84-1.96-0.84-1.96S4.202,21.895,4.202,22.354z M7.141,18.895c0-0.46-0.84-1.95-0.84-1.95s-0.84,1.49-0.84,1.95
			c0,0.47,0.37,0.84,0.84,0.84C6.761,19.735,7.141,19.365,7.141,18.895z M7.561,16.285c0.46,0,0.84-0.38,0.84-0.84
			c0-0.47-0.84-1.96-0.84-1.96s-0.84,1.49-0.84,1.96C6.721,15.905,7.101,16.285,7.561,16.285z M6.721,22.354
			c0,0.11,0.02,0.22,0.07,0.32h1.54c0.05-0.1,0.069-0.21,0.069-0.32c0-0.46-0.84-1.96-0.84-1.96S6.721,21.895,6.721,22.354z
			 M9.662,18.895c0-0.46-0.841-1.95-0.841-1.95s-0.84,1.49-0.84,1.95c0,0.47,0.37,0.84,0.84,0.84
			C9.281,19.735,9.662,19.365,9.662,18.895z M10.082,16.285c0.47,0,0.84-0.38,0.84-0.84c0-0.47-0.84-1.96-0.84-1.96
			s-0.841,1.49-0.841,1.96C9.241,15.905,9.622,16.285,10.082,16.285z M9.241,22.354c0,0.11,0.021,0.22,0.07,0.32h1.54
			c0.05-0.1,0.07-0.21,0.07-0.32c0-0.46-0.84-1.96-0.84-1.96S9.241,21.895,9.241,22.354z M12.181,18.895c0-0.46-0.84-1.95-0.84-1.95
			s-0.84,1.49-0.84,1.95c0,0.47,0.37,0.84,0.84,0.84C11.801,19.735,12.181,19.365,12.181,18.895z M12.601,16.285
			c0.46,0,0.84-0.38,0.84-0.84c0-0.47-0.84-1.96-0.84-1.96s-0.84,1.49-0.84,1.96C11.761,15.905,12.131,16.285,12.601,16.285z
			 M11.761,22.354c0,0.11,0.02,0.22,0.07,0.32h1.54c0.05-0.1,0.069-0.21,0.069-0.32c0-0.46-0.84-1.96-0.84-1.96
			S11.761,21.895,11.761,22.354z M14.702,18.895c0-0.46-0.851-1.95-0.851-1.95s-0.83,1.49-0.83,1.95c0,0.47,0.37,0.84,0.83,0.84
			C14.321,19.735,14.702,19.365,14.702,18.895z M15.111,16.285c0.471,0,0.851-0.38,0.851-0.84c0-0.47-0.851-1.96-0.851-1.96
			s-0.83,1.49-0.83,1.96C14.281,15.905,14.651,16.285,15.111,16.285z M14.281,22.354c0,0.11,0.021,0.22,0.07,0.32h1.54
			c0.05-0.1,0.07-0.21,0.07-0.32c0-0.46-0.851-1.96-0.851-1.96S14.281,21.895,14.281,22.354z M17.221,18.895
			c0-0.46-0.84-1.95-0.84-1.95s-0.851,1.49-0.851,1.95c0,0.47,0.381,0.84,0.851,0.84C16.841,19.735,17.221,19.365,17.221,18.895z
			 M17.641,16.285c0.46,0,0.84-0.38,0.84-0.84c0-0.47-0.84-1.96-0.84-1.96s-0.84,1.49-0.84,1.96
			C16.801,15.905,17.171,16.285,17.641,16.285z M16.801,22.354c0,0.11,0.02,0.22,0.07,0.32h1.54c0.05-0.1,0.069-0.21,0.069-0.32
			c0-0.46-0.84-1.96-0.84-1.96S16.801,21.895,16.801,22.354z M19.731,18.895c0-0.46-0.84-1.95-0.84-1.95s-0.84,1.49-0.84,1.95
			c0,0.47,0.38,0.84,0.84,0.84C19.361,19.735,19.731,19.365,19.731,18.895z M20.151,16.285c0.471,0,0.851-0.38,0.851-0.84
			c0-0.47-0.851-1.96-0.851-1.96s-0.83,1.49-0.83,1.96C19.321,15.905,19.691,16.285,20.151,16.285z M19.321,22.354
			c0,0.11,0.021,0.22,0.07,0.32h1.54c0.05-0.1,0.07-0.21,0.07-0.32c0-0.46-0.851-1.96-0.851-1.96S19.321,21.895,19.321,22.354z
			 M22.261,18.895c0-0.46-0.85-1.95-0.85-1.95s-0.841,1.49-0.841,1.95c0,0.47,0.381,0.84,0.841,0.84
			C21.881,19.735,22.261,19.365,22.261,18.895z M22.671,13.485c0,0-0.84,1.49-0.84,1.96c0,0.46,0.38,0.84,0.84,0.84h0.01v-2.78
			C22.671,13.495,22.671,13.485,22.671,13.485z M21.832,22.354c0,0.11,0.02,0.22,0.069,0.32h0.78v-2.26
			c-0.01-0.01-0.01-0.02-0.01-0.02S21.832,21.895,21.832,22.354z"/>
		<g>
			<path fill="#FFFFFF" d="M11.34,22.051c-2.411,0-4.372-1.961-4.372-4.371s1.96-4.371,4.37-4.371c2.411,0,4.372,1.961,4.372,4.371
				S13.75,22.051,11.34,22.051z M11.34,14.198c-0.931,0-1.805,0.362-2.463,1.02c-0.658,0.658-1.02,1.532-1.02,2.462
				c0,1.92,1.563,3.482,3.483,3.482c1.92,0,3.481-1.562,3.481-3.482S13.26,14.198,11.34,14.198z"/>
			
				<rect x="7.411" y="17.236" transform="matrix(0.7073 0.7069 -0.7069 0.7073 15.8174 -2.8406)" fill="#FFFFFF" width="7.855" height="0.889"/>
		</g>
	</g>
</g>
</svg>
