<?xml version="1.0" encoding="utf-8"?>
<!-- Generator: Adobe Illustrator 16.0.3, SVG Export Plug-In . SVG Version: 6.00 Build 0)  -->
<!DOCTYPE svg PUBLIC "-//W3C//DTD SVG 1.1//EN" "http://www.w3.org/Graphics/SVG/1.1/DTD/svg11.dtd">
<svg version="1.1" xmlns="http://www.w3.org/2000/svg" xmlns:xlink="http://www.w3.org/1999/xlink" x="0px" y="0px" width="22.68px"
	 height="22.68px" viewBox="0 0 22.68 22.68" enable-background="new 0 0 22.68 22.68" xml:space="preserve">
<g id="BCGRND">
</g>
<g id="IKONY">
	<rect x="0" fill="#585857" width="22.676" height="22.678"/>
	<g>
		<g>
			<rect x="0.002" y="14.019" fill="#FFFFFF" width="22.678" height="0.889"/>
		</g>
		<g>
			<path fill="#FFFFFF" d="M2.656,19.975v-3.291h0.689l0.85,1.41c0.215,0.367,0.41,0.748,0.561,1.104h0.01
				c-0.043-0.439-0.053-0.863-0.053-1.367v-1.146h0.557v3.291H4.644l-0.859-1.451c-0.211-0.361-0.426-0.762-0.586-1.133l-0.02,0.006
				c0.023,0.424,0.033,0.859,0.033,1.4v1.178H2.656z"/>
			<path fill="#FFFFFF" d="M8.252,18.764c0,0.873-0.615,1.264-1.221,1.264c-0.669,0-1.191-0.459-1.191-1.225
				c0-0.781,0.513-1.26,1.23-1.26C7.778,17.543,8.252,18.041,8.252,18.764z M6.46,18.787c0,0.459,0.229,0.807,0.591,0.807
				c0.342,0,0.581-0.332,0.581-0.816c0-0.371-0.166-0.801-0.576-0.801C6.631,17.977,6.46,18.393,6.46,18.787z"/>
			<path fill="#FFFFFF" d="M9.138,17.596l0.387,1.207c0.068,0.209,0.117,0.4,0.16,0.596h0.016c0.043-0.195,0.098-0.381,0.16-0.596
				l0.381-1.207h0.631l-0.908,2.379H9.373L8.49,17.596H9.138z"/>
			<path fill="#FFFFFF" d="M11.929,16.932c0,0.176-0.131,0.322-0.342,0.322c-0.199,0-0.332-0.146-0.332-0.322
				c0-0.186,0.137-0.326,0.338-0.326C11.799,16.605,11.926,16.746,11.929,16.932z M11.291,19.975v-2.379h0.6v2.379H11.291z"/>
			<path fill="#FFFFFF" d="M12.592,18.305c0-0.273-0.01-0.504-0.02-0.709h0.521l0.029,0.357h0.016
				c0.107-0.186,0.365-0.41,0.762-0.41c0.414,0,0.844,0.268,0.844,1.02v1.412h-0.6v-1.344c0-0.342-0.127-0.6-0.455-0.6
				c-0.238,0-0.404,0.17-0.469,0.352c-0.02,0.049-0.029,0.121-0.029,0.189v1.402h-0.6V18.305z"/>
			<path fill="#FFFFFF" d="M16.037,18.641h0.01c0.059-0.092,0.127-0.195,0.186-0.277l0.581-0.768h0.723l-0.884,0.973l1.006,1.406
				h-0.737l-0.684-1.051l-0.2,0.24v0.811h-0.601v-3.467h0.601V18.641z"/>
			<path fill="#FFFFFF" d="M19.873,19.402c0,0.215,0.01,0.426,0.039,0.572H19.37l-0.044-0.264h-0.015
				c-0.142,0.186-0.391,0.316-0.703,0.316c-0.479,0-0.747-0.346-0.747-0.707c0-0.596,0.532-0.904,1.411-0.898v-0.039
				c0-0.156-0.063-0.416-0.483-0.416c-0.234,0-0.479,0.074-0.64,0.176l-0.117-0.391c0.176-0.107,0.483-0.209,0.859-0.209
				c0.762,0,0.981,0.482,0.981,1.006V19.402z M19.287,18.813c-0.425-0.006-0.83,0.082-0.83,0.443c0,0.234,0.151,0.342,0.342,0.342
				c0.244,0,0.415-0.156,0.474-0.326c0.015-0.045,0.015-0.088,0.015-0.133V18.813z"/>
		</g>
		<g>
			<path fill="#FFFFFF" d="M16.787,5.672l-3.766-0.548L11.34,1.713L9.656,5.124L5.892,5.672l2.723,2.654l-0.643,3.748l3.367-1.77
				l3.365,1.77l-0.643-3.748L16.787,5.672z M11.34,9.344L9.101,10.52l0.428-2.49L7.719,6.266l2.502-0.364l1.119-2.267l1.117,2.267
				l2.502,0.364l-1.811,1.764l0.428,2.49L11.34,9.344z"/>
			<polygon opacity="0.5" fill="#FFFFFF" points="14.959,6.266 12.457,5.901 11.34,3.635 10.22,5.901 7.719,6.266 9.529,8.029 
				9.101,10.52 11.34,9.344 13.576,10.52 13.148,8.029 			"/>
		</g>
	</g>
</g>
</svg>
