<?xml version="1.0" encoding="utf-8"?>
<!-- Generator: Adobe Illustrator 16.0.3, SVG Export Plug-In . SVG Version: 6.00 Build 0)  -->
<!DOCTYPE svg PUBLIC "-//W3C//DTD SVG 1.1//EN" "http://www.w3.org/Graphics/SVG/1.1/DTD/svg11.dtd">
<svg version="1.1" xmlns="http://www.w3.org/2000/svg" xmlns:xlink="http://www.w3.org/1999/xlink" x="0px" y="0px" width="22.68px"
	 height="22.68px" viewBox="0 0 22.68 22.68" enable-background="new 0 0 22.68 22.68" xml:space="preserve">
<g id="BCGRND">
</g>
<g id="IKONY">
	<rect fill="#585857" width="22.676" height="22.678"/>
	<g>
		<g>
			<rect y="7.782" fill="#FFFFFF" width="22.677" height="0.889"/>
		</g>
		<g>
			<g>
				<path fill="#FFFFFF" d="M5.086,3.902c0,1.104-0.669,1.733-1.577,1.733c-0.928,0-1.514-0.708-1.514-1.675
					c0-1.011,0.635-1.724,1.563-1.724C4.52,2.237,5.086,2.965,5.086,3.902z M2.63,3.951c0,0.669,0.337,1.201,0.913,1.201
					c0.581,0,0.908-0.537,0.908-1.226c0-0.62-0.308-1.206-0.908-1.206C2.947,2.721,2.63,3.272,2.63,3.951z"/>
				<path fill="#FFFFFF" d="M5.613,5.582c0.01-0.161,0.02-0.425,0.02-0.669V2.115h0.601v1.416h0.01
					C6.389,3.302,6.648,3.15,7.004,3.15C7.585,3.15,8,3.634,7.996,4.356c0,0.854-0.542,1.279-1.079,1.279
					c-0.308,0-0.581-0.117-0.752-0.41h-0.01L6.125,5.582H5.613z M6.233,4.601c0,0.049,0.005,0.098,0.015,0.142
					c0.063,0.239,0.273,0.42,0.532,0.42c0.376,0,0.605-0.303,0.605-0.781c0-0.42-0.2-0.762-0.601-0.762
					c-0.244,0-0.464,0.176-0.532,0.439c-0.01,0.044-0.02,0.098-0.02,0.156V4.601z"/>
				<path fill="#FFFFFF" d="M8.014,6.134c0.195-0.015,0.352-0.068,0.449-0.171c0.112-0.122,0.156-0.308,0.156-0.825V3.204H9.22
					v2.104c0,0.493-0.093,0.801-0.308,1.016C8.702,6.52,8.37,6.603,8.072,6.603L8.014,6.134z M9.254,2.54
					c0,0.176-0.127,0.322-0.342,0.322c-0.2,0-0.327-0.146-0.327-0.322c0-0.186,0.132-0.327,0.337-0.327S9.254,2.354,9.254,2.54z"/>
				<path fill="#FFFFFF" d="M10.335,4.562c0.015,0.43,0.352,0.615,0.732,0.615c0.278,0,0.479-0.039,0.659-0.107l0.088,0.415
					c-0.205,0.083-0.488,0.146-0.83,0.146c-0.771,0-1.226-0.474-1.226-1.201c0-0.659,0.4-1.279,1.162-1.279
					c0.771,0,1.025,0.635,1.025,1.157c0,0.112-0.01,0.2-0.02,0.254H10.335z M11.38,4.142c0.005-0.22-0.093-0.581-0.493-0.581
					c-0.371,0-0.527,0.337-0.552,0.581H11.38z"/>
				<path fill="#FFFFFF" d="M12.481,3.912c0-0.273-0.005-0.503-0.02-0.708h0.518l0.024,0.352h0.015
					c0.117-0.186,0.332-0.405,0.732-0.405c0.313,0,0.557,0.176,0.659,0.439h0.01c0.083-0.132,0.181-0.229,0.293-0.298
					c0.132-0.093,0.283-0.142,0.479-0.142c0.396,0,0.796,0.269,0.796,1.03v1.401h-0.586V4.269c0-0.396-0.137-0.63-0.425-0.63
					c-0.205,0-0.356,0.146-0.42,0.317c-0.015,0.059-0.029,0.132-0.029,0.2v1.426h-0.586V4.205c0-0.332-0.132-0.566-0.41-0.566
					c-0.225,0-0.376,0.176-0.43,0.342c-0.024,0.059-0.034,0.127-0.034,0.195v1.406h-0.586V3.912z"/>
				<path fill="#FFFFFF" d="M17.966,2.198c-0.313,0.464-0.552,1.108-0.552,1.987c0,0.864,0.244,1.504,0.552,1.973h-0.439
					c-0.278-0.391-0.591-1.025-0.591-1.973c0.005-0.952,0.313-1.592,0.591-1.987H17.966z"/>
				<path fill="#FFFFFF" d="M18.476,2.115h0.605v3.467h-0.605V2.115z"/>
				<path fill="#FFFFFF" d="M19.595,6.158c0.308-0.464,0.547-1.113,0.547-1.982s-0.239-1.509-0.547-1.978h0.435
					c0.283,0.391,0.596,1.025,0.596,1.982c-0.005,0.952-0.313,1.582-0.596,1.978H19.595z"/>
			</g>
		</g>
		<g>
			<path fill="#FFFFFF" d="M10.937,11.076v1.054L7.27,19.745H5.536l3.654-7.281v-0.027H5.109v-1.36H10.937z"/>
			<path fill="#FFFFFF" d="M11.375,19.745v-1l1.027-0.947c2.04-1.894,3-2.934,3.014-4.081c0-0.773-0.414-1.453-1.547-1.453
				c-0.76,0-1.414,0.387-1.854,0.72l-0.48-1.16c0.627-0.507,1.574-0.894,2.667-0.894c1.92,0,2.854,1.214,2.854,2.627
				c0,1.521-1.094,2.748-2.601,4.148l-0.76,0.653v0.026h3.561v1.36H11.375z"/>
		</g>
	</g>
</g>
</svg>
