<?xml version="1.0" encoding="utf-8"?>
<!-- Generator: Adobe Illustrator 16.0.3, SVG Export Plug-In . SVG Version: 6.00 Build 0)  -->
<!DOCTYPE svg PUBLIC "-//W3C//DTD SVG 1.1//EN" "http://www.w3.org/Graphics/SVG/1.1/DTD/svg11.dtd">
<svg version="1.1" xmlns="http://www.w3.org/2000/svg" xmlns:xlink="http://www.w3.org/1999/xlink" x="0px" y="0px" width="22.68px"
	 height="22.68px" viewBox="0 0 22.68 22.68" enable-background="new 0 0 22.68 22.68" xml:space="preserve">
<g id="BCGRND">
</g>
<g id="IKONY">
	<rect x="0" fill="#585857" width="22.676" height="22.678"/>
	<g>
		<g>
			<rect x="0" y="7.782" fill="#FFFFFF" width="22.677" height="0.889"/>
		</g>
		<g>
			<path fill="#FFFFFF" d="M5.087,3.903c0,1.104-0.669,1.733-1.572,1.733c-0.933,0-1.519-0.713-1.519-1.675
				c0-1.016,0.64-1.729,1.567-1.729C4.52,2.233,5.087,2.96,5.087,3.903z M2.631,3.947c0,0.674,0.337,1.206,0.913,1.206
				c0.581,0,0.908-0.542,0.908-1.23c0-0.62-0.308-1.206-0.908-1.206C2.948,2.716,2.631,3.268,2.631,3.947z"/>
			<path fill="#FFFFFF" d="M5.633,2.116h0.601v1.416h0.01C6.39,3.302,6.649,3.151,7.005,3.151c0.581,0,0.996,0.483,0.991,1.206
				c0,0.854-0.542,1.279-1.079,1.279c-0.308,0-0.581-0.117-0.752-0.41h-0.01L6.126,5.583H5.614c0.01-0.161,0.02-0.425,0.02-0.669
				V2.116z M6.234,4.601c0,0.049,0.005,0.098,0.015,0.142c0.063,0.244,0.273,0.42,0.532,0.42c0.376,0,0.605-0.298,0.605-0.781
				c0-0.42-0.2-0.762-0.601-0.762c-0.244,0-0.469,0.176-0.532,0.439c-0.01,0.044-0.02,0.098-0.02,0.156V4.601z"/>
			<path fill="#FFFFFF" d="M8.014,6.154C8.21,6.139,8.366,6.085,8.464,5.983C8.576,5.861,8.62,5.675,8.62,5.158V3.205H9.22v2.124
				c0,0.493-0.098,0.801-0.313,1.016C8.703,6.54,8.371,6.623,8.073,6.623L8.014,6.154z M9.26,2.541c0,0.176-0.127,0.322-0.342,0.322
				c-0.205,0-0.332-0.146-0.332-0.322c0-0.186,0.137-0.327,0.342-0.327C9.128,2.213,9.255,2.355,9.26,2.541z"/>
			<path fill="#FFFFFF" d="M10.336,4.562c0.015,0.43,0.347,0.615,0.732,0.615c0.278,0,0.474-0.044,0.659-0.107l0.088,0.41
				c-0.205,0.088-0.488,0.151-0.83,0.151c-0.771,0-1.226-0.474-1.226-1.201c0-0.659,0.4-1.279,1.162-1.279
				c0.771,0,1.025,0.635,1.025,1.157c0,0.112-0.01,0.2-0.02,0.254H10.336z M11.381,4.142c0.005-0.22-0.093-0.581-0.493-0.581
				c-0.371,0-0.527,0.337-0.552,0.581H11.381z"/>
			<path fill="#FFFFFF" d="M12.482,3.913c0-0.273-0.01-0.503-0.02-0.708h0.513l0.029,0.352h0.015
				c0.112-0.186,0.327-0.405,0.732-0.405c0.313,0,0.557,0.176,0.659,0.439h0.01c0.083-0.132,0.181-0.229,0.288-0.298
				c0.137-0.093,0.288-0.142,0.488-0.142c0.391,0,0.791,0.269,0.791,1.03v1.401h-0.586V4.269c0-0.396-0.137-0.63-0.425-0.63
				c-0.205,0-0.356,0.146-0.42,0.317c-0.02,0.054-0.029,0.132-0.029,0.2v1.426h-0.586V4.206c0-0.332-0.132-0.566-0.41-0.566
				c-0.225,0-0.376,0.176-0.435,0.337c-0.02,0.063-0.029,0.132-0.029,0.2v1.406h-0.586V3.913z"/>
			<path fill="#FFFFFF" d="M17.967,2.199c-0.313,0.464-0.547,1.108-0.547,1.987c0,0.864,0.239,1.504,0.547,1.973h-0.435
				c-0.283-0.391-0.596-1.03-0.596-1.973c0.005-0.957,0.313-1.592,0.596-1.987H17.967z"/>
			<path fill="#FFFFFF" d="M18.476,2.116h0.601v3.467h-0.601V2.116z"/>
			<path fill="#FFFFFF" d="M19.596,6.159c0.308-0.464,0.547-1.113,0.547-1.982s-0.239-1.509-0.547-1.978h0.435
				c0.283,0.386,0.596,1.021,0.596,1.978c-0.005,0.952-0.313,1.587-0.596,1.982H19.596z"/>
		</g>
		<g>
			<path fill="#FFFFFF" d="M10.007,12.25c-0.24-0.013-0.507,0-0.827,0.04c-1.827,0.214-2.694,1.32-2.908,2.521h0.04
				c0.427-0.493,1.081-0.84,1.947-0.84c1.494,0,2.654,1.066,2.654,2.827c0,1.653-1.213,3.094-3.054,3.094
				c-2.107,0-3.268-1.601-3.268-3.747c0-1.667,0.6-3.014,1.507-3.867c0.787-0.761,1.84-1.188,3.081-1.281
				c0.36-0.053,0.626-0.053,0.827-0.039V12.25z M9.246,16.892c0-1.014-0.547-1.721-1.507-1.721c-0.614,0-1.16,0.373-1.414,0.894
				c-0.067,0.133-0.107,0.293-0.107,0.52c0.027,1.147,0.56,2.081,1.641,2.081C8.699,18.666,9.246,17.932,9.246,16.892z"/>
			<path fill="#FFFFFF" d="M11.948,18.052c0.333,0.2,1.147,0.533,1.974,0.533c1.253,0,1.747-0.707,1.747-1.387
				c0-1.027-0.973-1.468-1.974-1.468h-0.747v-1.2h0.747c0.747,0,1.707-0.347,1.707-1.2c0-0.6-0.427-1.093-1.387-1.093
				c-0.707,0-1.414,0.307-1.774,0.546l-0.374-1.187c0.494-0.333,1.467-0.667,2.494-0.667c1.8,0,2.707,0.987,2.707,2.121
				c0,0.906-0.533,1.653-1.6,2.026v0.027c1.053,0.199,1.894,0.986,1.907,2.16c0,1.467-1.227,2.627-3.374,2.627
				c-1.053,0-1.96-0.293-2.427-0.6L11.948,18.052z"/>
		</g>
	</g>
</g>
</svg>
