<?xml version="1.0" encoding="utf-8"?>
<!-- Generator: Adobe Illustrator 16.0.3, SVG Export Plug-In . SVG Version: 6.00 Build 0)  -->
<!DOCTYPE svg PUBLIC "-//W3C//DTD SVG 1.1//EN" "http://www.w3.org/Graphics/SVG/1.1/DTD/svg11.dtd">
<svg version="1.1" xmlns="http://www.w3.org/2000/svg" xmlns:xlink="http://www.w3.org/1999/xlink" x="0px" y="0px" width="22.68px"
	 height="22.68px" viewBox="0 0 22.68 22.68" enable-background="new 0 0 22.68 22.68" xml:space="preserve">
<g id="BCGRND">
</g>
<g id="IKONY">
	<rect fill="#585857" width="22.676" height="22.678"/>
	<g>
		<g>
			<rect y="7.769" fill="#FFFFFF" width="22.678" height="0.889"/>
		</g>
		<g>
			<path fill="#FFFFFF" d="M5.086,3.89c0,1.104-0.669,1.733-1.572,1.733c-0.933,0-1.519-0.713-1.519-1.675
				c0-1.016,0.64-1.729,1.567-1.729C4.52,2.22,5.086,2.948,5.086,3.89z M2.63,3.934c0,0.674,0.337,1.206,0.913,1.206
				c0.581,0,0.908-0.542,0.908-1.23c0-0.62-0.308-1.206-0.908-1.206C2.947,2.704,2.63,3.255,2.63,3.934z"/>
			<path fill="#FFFFFF" d="M5.633,2.103h0.6v1.416h0.01C6.389,3.29,6.648,3.138,7.004,3.138c0.582,0,0.996,0.483,0.992,1.206
				c0,0.854-0.543,1.279-1.08,1.279c-0.307,0-0.58-0.117-0.752-0.41h-0.01L6.125,5.57H5.613c0.01-0.161,0.02-0.425,0.02-0.669V2.103
				z M6.232,4.588c0,0.049,0.006,0.098,0.016,0.142c0.063,0.244,0.273,0.42,0.531,0.42c0.377,0,0.605-0.298,0.605-0.781
				c0-0.42-0.199-0.762-0.6-0.762c-0.244,0-0.469,0.176-0.533,0.439c-0.01,0.044-0.02,0.098-0.02,0.156V4.588z"/>
			<path fill="#FFFFFF" d="M8.014,6.141C8.209,6.126,8.365,6.073,8.463,5.97c0.112-0.122,0.156-0.308,0.156-0.825V3.192H9.22v2.124
				c0,0.493-0.098,0.801-0.313,1.016C8.702,6.527,8.37,6.61,8.072,6.61L8.014,6.141z M9.259,2.528c0,0.176-0.127,0.322-0.342,0.322
				c-0.205,0-0.332-0.146-0.332-0.322c0-0.186,0.137-0.327,0.342-0.327C9.127,2.201,9.254,2.342,9.259,2.528z"/>
			<path fill="#FFFFFF" d="M10.335,4.549c0.015,0.43,0.347,0.615,0.732,0.615c0.278,0,0.474-0.044,0.659-0.107l0.088,0.41
				c-0.205,0.088-0.488,0.151-0.83,0.151c-0.771,0-1.226-0.474-1.226-1.201c0-0.659,0.4-1.279,1.162-1.279
				c0.771,0,1.025,0.635,1.025,1.157c0,0.112-0.01,0.2-0.02,0.254H10.335z M11.38,4.129c0.005-0.22-0.093-0.581-0.493-0.581
				c-0.371,0-0.527,0.337-0.552,0.581H11.38z"/>
			<path fill="#FFFFFF" d="M12.481,3.9c0-0.273-0.01-0.503-0.02-0.708h0.513l0.029,0.352h0.015c0.112-0.186,0.327-0.405,0.732-0.405
				c0.313,0,0.557,0.176,0.659,0.439h0.01c0.083-0.132,0.181-0.229,0.288-0.298c0.137-0.093,0.288-0.142,0.488-0.142
				c0.391,0,0.791,0.269,0.791,1.03V5.57h-0.586V4.256c0-0.396-0.137-0.63-0.425-0.63c-0.205,0-0.356,0.146-0.42,0.317
				c-0.02,0.054-0.029,0.132-0.029,0.2V5.57h-0.586V4.193c0-0.332-0.132-0.566-0.41-0.566c-0.225,0-0.376,0.176-0.435,0.337
				c-0.02,0.063-0.029,0.132-0.029,0.2V5.57h-0.586V3.9z"/>
			<path fill="#FFFFFF" d="M17.966,2.186c-0.313,0.464-0.547,1.108-0.547,1.987c0,0.864,0.239,1.504,0.547,1.973h-0.435
				c-0.283-0.391-0.596-1.03-0.596-1.973c0.005-0.957,0.313-1.592,0.596-1.987H17.966z"/>
			<path fill="#FFFFFF" d="M18.476,2.103h0.601V5.57h-0.601V2.103z"/>
			<path fill="#FFFFFF" d="M19.596,6.146c0.307-0.464,0.547-1.113,0.547-1.982s-0.24-1.509-0.547-1.978h0.434
				c0.283,0.386,0.596,1.021,0.596,1.978c-0.004,0.952-0.313,1.587-0.596,1.982H19.596z"/>
		</g>
		<g>
			<path fill="#FFFFFF" d="M2.48,18.04c0.333,0.2,1.146,0.533,1.973,0.533c1.254,0,1.748-0.707,1.748-1.387
				c0-1.027-0.974-1.468-1.975-1.468H3.48v-1.2h0.746c0.748,0,1.707-0.347,1.707-1.2c0-0.6-0.426-1.093-1.387-1.093
				c-0.707,0-1.413,0.307-1.773,0.546L2.4,11.584c0.493-0.333,1.467-0.667,2.494-0.667c1.8,0,2.707,0.987,2.707,2.121
				c0,0.906-0.533,1.653-1.601,2.026v0.027c1.054,0.199,1.894,0.986,1.907,2.16c0,1.467-1.227,2.627-3.375,2.627
				c-1.053,0-1.96-0.293-2.426-0.6L2.48,18.04z"/>
			<path fill="#FFFFFF" d="M10.428,12.544H10.4l-1.587,0.801l-0.28-1.24l2.121-1.041h1.359v8.669h-1.586V12.544z"/>
			<path fill="#FFFFFF" d="M20.043,15.332c0,2.801-1.094,4.548-3.174,4.548c-1.987,0-3.055-1.813-3.067-4.454
				c0-2.707,1.147-4.508,3.174-4.508C19.069,10.917,20.043,12.785,20.043,15.332z M15.455,15.412c0,2.121,0.574,3.215,1.467,3.215
				c0.975,0,1.467-1.174,1.467-3.255c0-2.014-0.467-3.2-1.453-3.2C16.068,12.171,15.455,13.251,15.455,15.412z"/>
		</g>
	</g>
</g>
</svg>
