<?xml version="1.0" encoding="utf-8"?>
<!-- Generator: Adobe Illustrator 16.0.3, SVG Export Plug-In . SVG Version: 6.00 Build 0)  -->
<!DOCTYPE svg PUBLIC "-//W3C//DTD SVG 1.1//EN" "http://www.w3.org/Graphics/SVG/1.1/DTD/svg11.dtd">
<svg version="1.1" xmlns="http://www.w3.org/2000/svg" xmlns:xlink="http://www.w3.org/1999/xlink" x="0px" y="0px" width="22.68px"
	 height="22.68px" viewBox="0 0 22.68 22.68" enable-background="new 0 0 22.68 22.68" xml:space="preserve">
<g id="BCGRND">
</g>
<g id="IKONY">
	<rect fill="#585857" width="22.675" height="22.678"/>
	<g>
		<g>
			<rect x="0" y="7.769" fill="#FFFFFF" width="22.678" height="0.889"/>
		</g>
		<g>
			<path fill="#FFFFFF" d="M5.085,3.89c0,1.104-0.669,1.733-1.572,1.733c-0.933,0-1.519-0.713-1.519-1.675
				c0-1.016,0.64-1.729,1.567-1.729C4.519,2.22,5.085,2.947,5.085,3.89z M2.629,3.934c0,0.674,0.337,1.206,0.913,1.206
				c0.581,0,0.908-0.542,0.908-1.23c0-0.62-0.308-1.206-0.908-1.206C2.947,2.703,2.629,3.255,2.629,3.934z"/>
			<path fill="#FFFFFF" d="M5.632,2.103h0.6v1.416h0.01c0.146-0.229,0.406-0.381,0.762-0.381c0.582,0,0.996,0.483,0.992,1.206
				c0,0.854-0.543,1.279-1.08,1.279c-0.307,0-0.58-0.117-0.752-0.41h-0.01L6.125,5.569H5.613c0.01-0.161,0.02-0.425,0.02-0.669
				V2.103z M6.232,4.588c0,0.049,0.006,0.098,0.016,0.142c0.063,0.244,0.273,0.42,0.531,0.42c0.377,0,0.605-0.298,0.605-0.781
				c0-0.42-0.199-0.762-0.6-0.762c-0.244,0-0.469,0.176-0.533,0.439c-0.01,0.044-0.02,0.098-0.02,0.156V4.588z"/>
			<path fill="#FFFFFF" d="M8.013,6.141C8.208,6.126,8.365,6.072,8.462,5.97c0.112-0.122,0.156-0.308,0.156-0.825V3.191h0.601v2.124
				c0,0.493-0.098,0.801-0.313,1.016C8.702,6.526,8.37,6.609,8.072,6.609L8.013,6.141z M9.258,2.527
				c0,0.176-0.127,0.322-0.342,0.322c-0.205,0-0.332-0.146-0.332-0.322c0-0.186,0.137-0.327,0.342-0.327
				C9.126,2.2,9.253,2.342,9.258,2.527z"/>
			<path fill="#FFFFFF" d="M10.334,4.549c0.015,0.43,0.347,0.615,0.732,0.615c0.278,0,0.474-0.044,0.659-0.107l0.088,0.41
				c-0.205,0.088-0.488,0.151-0.83,0.151c-0.771,0-1.226-0.474-1.226-1.201c0-0.659,0.4-1.279,1.162-1.279
				c0.771,0,1.025,0.635,1.025,1.157c0,0.112-0.01,0.2-0.02,0.254H10.334z M11.379,4.129c0.005-0.22-0.093-0.581-0.493-0.581
				c-0.371,0-0.527,0.337-0.552,0.581H11.379z"/>
			<path fill="#FFFFFF" d="M12.481,3.899c0-0.273-0.01-0.503-0.02-0.708h0.513l0.029,0.352h0.015
				c0.112-0.186,0.327-0.405,0.732-0.405c0.313,0,0.557,0.176,0.659,0.439h0.01c0.083-0.132,0.181-0.229,0.288-0.298
				c0.137-0.093,0.288-0.142,0.488-0.142c0.391,0,0.791,0.269,0.791,1.03v1.401h-0.586V4.256c0-0.396-0.137-0.63-0.425-0.63
				c-0.205,0-0.356,0.146-0.42,0.317c-0.02,0.054-0.029,0.132-0.029,0.2v1.426h-0.586V4.192c0-0.332-0.132-0.566-0.41-0.566
				c-0.225,0-0.376,0.176-0.435,0.337c-0.02,0.063-0.029,0.132-0.029,0.2v1.406h-0.586V3.899z"/>
			<path fill="#FFFFFF" d="M17.965,2.186c-0.313,0.464-0.547,1.108-0.547,1.987c0,0.864,0.239,1.504,0.547,1.973h-0.435
				c-0.283-0.391-0.596-1.03-0.596-1.973c0.005-0.957,0.313-1.592,0.596-1.987H17.965z"/>
			<path fill="#FFFFFF" d="M18.475,2.103h0.601v3.467h-0.601V2.103z"/>
			<path fill="#FFFFFF" d="M19.595,6.146c0.307-0.464,0.547-1.113,0.547-1.982s-0.24-1.509-0.547-1.978h0.434
				c0.283,0.386,0.596,1.021,0.596,1.978c-0.004,0.952-0.313,1.587-0.596,1.982H19.595z"/>
		</g>
	</g>
	<g>
		<path fill="#FFFFFF" d="M1.541,18.039c0.333,0.2,1.147,0.533,1.974,0.533c1.254,0,1.761-0.707,1.747-1.387
			c0-1.027-0.96-1.468-1.96-1.468h-0.76v-1.2h0.732c0.761,0,1.721-0.347,1.721-1.213c0-0.587-0.439-1.08-1.387-1.08
			c-0.707,0-1.414,0.307-1.773,0.546L1.46,11.584c0.493-0.347,1.454-0.667,2.494-0.667c1.787,0,2.707,0.987,2.707,2.121
			c0,0.906-0.533,1.653-1.601,2.026v0.027c1.054,0.187,1.907,0.986,1.907,2.16c0,1.467-1.227,2.627-3.374,2.627
			c-1.053,0-1.961-0.293-2.427-0.6L1.541,18.039z"/>
		<path fill="#FFFFFF" d="M14.17,15.345c0,2.787-1.094,4.534-3.161,4.534c-2.001,0-3.067-1.813-3.081-4.454
			c0-2.694,1.147-4.508,3.174-4.508C13.196,10.917,14.17,12.784,14.17,15.345z M9.583,15.425c-0.014,2.107,0.573,3.201,1.48,3.201
			c0.96,0,1.467-1.174,1.467-3.255c0-2.014-0.48-3.2-1.467-3.2C10.182,12.171,9.569,13.251,9.583,15.425z"/>
		<path fill="#FFFFFF" d="M18.758,19.732v-2.2h-3.92v-1.067l3.533-5.401h1.934v5.229h1.121v1.24h-1.121v2.2H18.758z M18.758,16.292
			v-2.36c0-0.494,0.014-1.001,0.054-1.508h-0.054c-0.266,0.547-0.492,0.987-0.76,1.468l-1.587,2.373l-0.013,0.027H18.758z"/>
	</g>
</g>
</svg>
