<?xml version="1.0" encoding="utf-8"?>
<!-- Generator: Adobe Illustrator 16.0.3, SVG Export Plug-In . SVG Version: 6.00 Build 0)  -->
<!DOCTYPE svg PUBLIC "-//W3C//DTD SVG 1.1//EN" "http://www.w3.org/Graphics/SVG/1.1/DTD/svg11.dtd">
<svg version="1.1" xmlns="http://www.w3.org/2000/svg" xmlns:xlink="http://www.w3.org/1999/xlink" x="0px" y="0px" width="22.68px"
	 height="22.68px" viewBox="0 0 22.68 22.68" enable-background="new 0 0 22.68 22.68" xml:space="preserve">
<g id="BCGRND">
</g>
<g id="BAREVNE_BCGRND">
	<polygon fill="#585857" points="22.677,16.335 22.677,0 0,0 0,22.678 14.117,22.678 22.677,22.678 	"/>
</g>
<g id="IKONY">
	<g>
		<g>
			<rect x="0" y="7.769" fill="#FFFFFF" width="22.678" height="0.889"/>
		</g>
		<g>
			<path fill="#FFFFFF" d="M5.087,3.891c0,1.104-0.669,1.733-1.577,1.733c-0.928,0-1.514-0.708-1.514-1.675
				c0-1.011,0.635-1.724,1.563-1.724C4.521,2.226,5.087,2.953,5.087,3.891z M2.631,3.939c0,0.669,0.337,1.201,0.913,1.201
				c0.581,0,0.908-0.537,0.908-1.226c0-0.62-0.308-1.206-0.908-1.206C2.948,2.709,2.631,3.261,2.631,3.939z"/>
			<path fill="#FFFFFF" d="M5.614,5.57c0.01-0.161,0.02-0.425,0.02-0.669V2.104h0.601V3.52h0.01C6.39,3.29,6.649,3.139,7.006,3.139
				c0.581,0,0.996,0.483,0.991,1.206c0,0.854-0.542,1.279-1.079,1.279c-0.308,0-0.581-0.117-0.752-0.41h-0.01L6.127,5.57H5.614z
				 M6.234,4.589c0,0.049,0.005,0.098,0.015,0.142C6.312,4.97,6.522,5.15,6.781,5.15c0.376,0,0.605-0.303,0.605-0.781
				c0-0.42-0.2-0.762-0.601-0.762c-0.244,0-0.464,0.176-0.532,0.439c-0.01,0.044-0.02,0.098-0.02,0.156V4.589z"/>
			<path fill="#FFFFFF" d="M8.015,6.122C8.21,6.107,8.366,6.054,8.464,5.951C8.576,5.829,8.62,5.644,8.62,5.126V3.192h0.601v2.104
				c0,0.493-0.093,0.801-0.308,1.016c-0.21,0.195-0.542,0.278-0.84,0.278L8.015,6.122z M9.255,2.528
				c0,0.176-0.127,0.322-0.342,0.322c-0.2,0-0.327-0.146-0.327-0.322c0-0.186,0.132-0.327,0.337-0.327S9.255,2.343,9.255,2.528z"/>
			<path fill="#FFFFFF" d="M10.336,4.55c0.015,0.43,0.352,0.615,0.732,0.615c0.278,0,0.479-0.039,0.659-0.107l0.088,0.415
				c-0.205,0.083-0.488,0.146-0.83,0.146c-0.771,0-1.226-0.474-1.226-1.201c0-0.659,0.4-1.279,1.162-1.279
				c0.771,0,1.025,0.635,1.025,1.157c0,0.112-0.01,0.2-0.02,0.254H10.336z M11.381,4.13c0.005-0.22-0.093-0.581-0.493-0.581
				c-0.371,0-0.527,0.337-0.552,0.581H11.381z"/>
			<path fill="#FFFFFF" d="M12.483,3.9c0-0.273-0.005-0.503-0.02-0.708h0.518l0.024,0.352h0.015
				c0.117-0.186,0.332-0.405,0.732-0.405c0.313,0,0.557,0.176,0.659,0.439h0.01c0.083-0.132,0.181-0.229,0.293-0.298
				c0.132-0.093,0.283-0.142,0.479-0.142c0.396,0,0.796,0.269,0.796,1.03V5.57h-0.586V4.257c0-0.396-0.137-0.63-0.425-0.63
				c-0.205,0-0.356,0.146-0.42,0.317c-0.015,0.059-0.029,0.132-0.029,0.2V5.57h-0.586V4.193c0-0.332-0.132-0.566-0.41-0.566
				c-0.225,0-0.376,0.176-0.43,0.342c-0.024,0.059-0.034,0.127-0.034,0.195V5.57h-0.586V3.9z"/>
			<path fill="#FFFFFF" d="M17.967,2.187c-0.313,0.464-0.552,1.108-0.552,1.987c0,0.864,0.244,1.504,0.552,1.973h-0.439
				c-0.278-0.391-0.591-1.025-0.591-1.973c0.005-0.952,0.313-1.592,0.591-1.987H17.967z"/>
			<path fill="#FFFFFF" d="M18.477,2.104h0.605V5.57h-0.605V2.104z"/>
			<path fill="#FFFFFF" d="M19.596,6.146c0.308-0.464,0.547-1.113,0.547-1.982s-0.239-1.509-0.547-1.978h0.435
				c0.283,0.391,0.596,1.025,0.596,1.982c-0.005,0.952-0.313,1.582-0.596,1.978H19.596z"/>
		</g>
		<g>
			<path fill="#FFFFFF" d="M10.19,12.425H6.856l-0.253,1.734c0.2-0.027,0.374-0.04,0.627-0.04c0.76,0,1.521,0.173,2.107,0.56
				c0.654,0.414,1.134,1.147,1.134,2.201c0,1.653-1.374,3-3.507,3c-1,0-1.84-0.253-2.294-0.507l0.333-1.24
				c0.374,0.2,1.12,0.454,1.907,0.454c0.96,0,1.88-0.547,1.88-1.588c0-0.986-0.734-1.64-2.467-1.64c-0.48,0-0.84,0.026-1.187,0.08
				l0.574-4.375h4.48V12.425z"/>
			<path fill="#FFFFFF" d="M17.793,15.346c0,2.787-1.094,4.534-3.161,4.534c-2,0-3.067-1.813-3.081-4.454
				c0-2.694,1.147-4.508,3.174-4.508C16.82,10.918,17.793,12.785,17.793,15.346z M13.205,15.426
				c-0.013,2.107,0.574,3.201,1.48,3.201c0.96,0,1.467-1.174,1.467-3.255c0-2.014-0.48-3.2-1.467-3.2
				C13.805,12.172,13.192,13.252,13.205,15.426z"/>
		</g>
	</g>
</g>
</svg>
