<?xml version="1.0" encoding="utf-8"?>
<!-- Generator: Adobe Illustrator 16.0.3, SVG Export Plug-In . SVG Version: 6.00 Build 0)  -->
<!DOCTYPE svg PUBLIC "-//W3C//DTD SVG 1.1//EN" "http://www.w3.org/Graphics/SVG/1.1/DTD/svg11.dtd">
<svg version="1.1" xmlns="http://www.w3.org/2000/svg" xmlns:xlink="http://www.w3.org/1999/xlink" x="0px" y="0px" width="22.68px"
	 height="22.68px" viewBox="0 0 22.68 22.68" enable-background="new 0 0 22.68 22.68" xml:space="preserve">
<g id="BCGRND">
</g>
<g id="BAREVNE_BCGRND">
	<polygon fill="#585857" points="22.679,16.335 22.679,0 0.001,0 0.001,22.678 14.119,22.678 22.679,22.678 	"/>
</g>
<g id="IKONY">
	<g>
		<rect x="0.001" y="7.769" fill="#FFFFFF" width="22.678" height="0.889"/>
		<g>
			<g>
				<path fill="#FFFFFF" d="M7.4,3.89c0,1.104-0.669,1.733-1.577,1.733c-0.928,0-1.514-0.708-1.514-1.675
					c0-1.011,0.635-1.724,1.563-1.724C6.833,2.225,7.4,2.952,7.4,3.89z M4.944,3.938c0,0.669,0.337,1.206,0.913,1.206
					c0.581,0,0.908-0.542,0.908-1.23c0-0.62-0.308-1.211-0.908-1.211C5.261,2.703,4.944,3.26,4.944,3.938z"/>
				<path fill="#FFFFFF" d="M7.946,2.103h0.601v1.416h0.01c0.146-0.229,0.405-0.381,0.762-0.381c0.581,0,0.996,0.483,0.991,1.206
					c0,0.854-0.542,1.279-1.079,1.279c-0.308,0-0.581-0.117-0.752-0.41h-0.01L8.439,5.569H7.927c0.01-0.161,0.02-0.425,0.02-0.669
					V2.103z M8.547,4.588c0,0.049,0.005,0.098,0.015,0.142c0.063,0.239,0.273,0.42,0.532,0.42c0.376,0,0.605-0.303,0.605-0.781
					c0-0.42-0.2-0.762-0.601-0.762c-0.244,0-0.464,0.176-0.532,0.439c-0.01,0.044-0.02,0.098-0.02,0.156V4.588z"/>
				<path fill="#FFFFFF" d="M10.328,6.141c0.195-0.015,0.352-0.063,0.449-0.171c0.112-0.117,0.156-0.308,0.156-0.825V3.191h0.601
					v2.124c0,0.493-0.093,0.801-0.308,1.016c-0.21,0.195-0.542,0.278-0.84,0.278L10.328,6.141z M11.568,2.527
					c0,0.176-0.127,0.322-0.342,0.322c-0.2,0-0.327-0.146-0.327-0.322c0-0.186,0.132-0.327,0.337-0.327S11.568,2.342,11.568,2.527z"
					/>
				<path fill="#FFFFFF" d="M12.649,4.549c0.015,0.43,0.352,0.615,0.732,0.615c0.278,0,0.479-0.039,0.659-0.107l0.088,0.415
					c-0.205,0.083-0.488,0.151-0.83,0.151c-0.771,0-1.226-0.479-1.226-1.206c0-0.659,0.4-1.279,1.162-1.279
					c0.776,0,1.025,0.635,1.025,1.157c0,0.112-0.01,0.2-0.02,0.254H12.649z M13.694,4.129c0.005-0.22-0.093-0.581-0.493-0.581
					c-0.371,0-0.527,0.337-0.552,0.581H13.694z"/>
				<path fill="#FFFFFF" d="M14.795,3.899c0-0.273-0.005-0.503-0.02-0.708h0.518l0.024,0.352h0.015
					c0.117-0.186,0.332-0.405,0.732-0.405c0.313,0,0.557,0.176,0.659,0.439h0.01c0.083-0.132,0.181-0.229,0.293-0.298
					c0.132-0.093,0.283-0.142,0.479-0.142c0.396,0,0.796,0.269,0.796,1.03v1.401h-0.586V4.256c0-0.396-0.137-0.63-0.425-0.63
					c-0.205,0-0.356,0.146-0.42,0.317c-0.015,0.059-0.029,0.132-0.029,0.2v1.426h-0.586V4.192c0-0.332-0.132-0.566-0.41-0.566
					c-0.225,0-0.376,0.176-0.43,0.342c-0.024,0.059-0.034,0.127-0.034,0.195v1.406h-0.586V3.899z"/>
			</g>
		</g>
		<g>
			<path fill="#FFFFFF" d="M6.524,19.732L5.55,17.945c-0.387-0.693-0.64-1.174-0.894-1.693h-0.04c-0.213,0.52-0.453,1-0.813,1.693
				L2.91,19.732h-1.88l2.667-4.548l-2.561-4.44h1.88l0.974,1.854c0.293,0.56,0.507,1,0.747,1.507h0.027
				c0.24-0.561,0.427-0.96,0.707-1.507l0.96-1.854h1.88l-2.627,4.388l2.734,4.601H6.524z"/>
			<path fill="#FFFFFF" d="M14.244,19.732l-0.974-1.787c-0.387-0.693-0.64-1.174-0.894-1.693h-0.04c-0.213,0.52-0.453,1-0.813,1.693
				l-0.894,1.787H8.75l2.667-4.548l-2.561-4.44h1.88l0.974,1.854c0.293,0.56,0.506,1,0.747,1.507h0.027
				c0.24-0.561,0.427-0.96,0.707-1.507l0.96-1.854h1.88l-2.627,4.388l2.734,4.601H14.244z"/>
			<path fill="#FFFFFF" d="M16.816,10.744h1.641v7.614h3.694v1.374h-5.334V10.744z"/>
		</g>
	</g>
</g>
</svg>
