<?xml version="1.0" encoding="utf-8"?>
<!-- Generator: Adobe Illustrator 16.0.3, SVG Export Plug-In . SVG Version: 6.00 Build 0)  -->
<!DOCTYPE svg PUBLIC "-//W3C//DTD SVG 1.1//EN" "http://www.w3.org/Graphics/SVG/1.1/DTD/svg11.dtd">
<svg version="1.1" xmlns="http://www.w3.org/2000/svg" xmlns:xlink="http://www.w3.org/1999/xlink" x="0px" y="0px" width="22.68px"
	 height="22.68px" viewBox="0 0 22.68 22.68" enable-background="new 0 0 22.68 22.68" xml:space="preserve">
<g id="BCGRND">
</g>
<g id="IKONY">
	<rect fill="#585857" width="22.676" height="22.678"/>
	<g>
		<g>
			<rect x="0.001" y="8.117" fill="#FFFFFF" width="22.677" height="0.889"/>
		</g>
		<g>
			<path fill="#FFFFFF" d="M5.087,4.238c0,1.104-0.669,1.734-1.572,1.734c-0.933,0-1.519-0.713-1.519-1.676
				c0-1.016,0.64-1.729,1.567-1.729C4.521,2.568,5.087,3.297,5.087,4.238z M2.631,4.283c0,0.674,0.337,1.205,0.913,1.205
				c0.581,0,0.908-0.541,0.908-1.23c0-0.619-0.308-1.205-0.908-1.205C2.948,3.053,2.631,3.604,2.631,4.283z"/>
			<path fill="#FFFFFF" d="M5.633,2.451h0.602v1.416h0.01c0.146-0.229,0.404-0.381,0.762-0.381c0.58,0,0.996,0.484,0.99,1.207
				c0,0.854-0.541,1.279-1.078,1.279c-0.309,0-0.582-0.117-0.752-0.41h-0.01L6.127,5.918H5.613c0.01-0.16,0.02-0.424,0.02-0.668
				V2.451z M6.234,4.938c0,0.049,0.004,0.098,0.014,0.141c0.064,0.244,0.273,0.42,0.533,0.42c0.375,0,0.605-0.297,0.605-0.781
				c0-0.42-0.201-0.762-0.602-0.762c-0.244,0-0.469,0.176-0.531,0.439c-0.01,0.045-0.02,0.098-0.02,0.156V4.938z"/>
			<path fill="#FFFFFF" d="M8.015,6.49C8.21,6.475,8.366,6.422,8.464,6.318C8.576,6.197,8.62,6.012,8.62,5.494V3.541h0.601v2.123
				c0,0.494-0.098,0.801-0.313,1.016C8.703,6.875,8.371,6.959,8.073,6.959L8.015,6.49z M9.26,2.877c0,0.176-0.127,0.322-0.342,0.322
				c-0.205,0-0.332-0.146-0.332-0.322c0-0.186,0.137-0.328,0.342-0.328C9.128,2.549,9.255,2.691,9.26,2.877z"/>
			<path fill="#FFFFFF" d="M10.336,4.898c0.015,0.43,0.347,0.615,0.732,0.615c0.278,0,0.474-0.045,0.659-0.107l0.088,0.41
				c-0.205,0.088-0.488,0.15-0.83,0.15c-0.771,0-1.226-0.473-1.226-1.201c0-0.658,0.4-1.279,1.162-1.279
				c0.771,0,1.025,0.635,1.025,1.158c0,0.111-0.01,0.199-0.02,0.254H10.336z M11.381,4.479c0.005-0.221-0.093-0.582-0.493-0.582
				c-0.371,0-0.527,0.338-0.552,0.582H11.381z"/>
			<path fill="#FFFFFF" d="M12.482,4.248c0-0.273-0.01-0.502-0.02-0.707h0.513l0.029,0.352h0.015
				c0.112-0.186,0.327-0.406,0.732-0.406c0.313,0,0.557,0.176,0.659,0.439h0.01c0.083-0.131,0.181-0.229,0.288-0.297
				c0.137-0.094,0.288-0.143,0.488-0.143c0.391,0,0.791,0.27,0.791,1.031v1.4h-0.586V4.605c0-0.396-0.137-0.631-0.425-0.631
				c-0.205,0-0.356,0.146-0.42,0.318c-0.02,0.053-0.029,0.131-0.029,0.199v1.426h-0.586V4.541c0-0.332-0.132-0.566-0.41-0.566
				c-0.225,0-0.376,0.176-0.435,0.338c-0.02,0.063-0.029,0.131-0.029,0.199v1.406h-0.586V4.248z"/>
			<path fill="#FFFFFF" d="M17.967,2.535c-0.313,0.463-0.547,1.107-0.547,1.986c0,0.865,0.239,1.504,0.547,1.973h-0.435
				c-0.283-0.391-0.596-1.029-0.596-1.973c0.005-0.957,0.313-1.592,0.596-1.986H17.967z"/>
			<path fill="#FFFFFF" d="M18.477,2.451h0.601v3.467h-0.601V2.451z"/>
			<path fill="#FFFFFF" d="M19.596,6.494c0.309-0.463,0.547-1.113,0.547-1.982s-0.238-1.508-0.547-1.977h0.436
				c0.283,0.385,0.596,1.02,0.596,1.977c-0.006,0.953-0.313,1.588-0.596,1.982H19.596z"/>
		</g>
		<g>
			<path fill="#FFFFFF" d="M10.693,11.412v1.055l-3.668,7.615h-1.72l3.653-7.281v-0.027H4.865v-1.361H10.693z"/>
			<path fill="#FFFFFF" d="M11.955,18.389c0.334,0.199,1.146,0.533,1.975,0.533c1.253,0,1.746-0.707,1.746-1.387
				c0-1.027-0.973-1.469-1.974-1.469h-0.747v-1.199h0.747c0.747,0,1.707-0.348,1.707-1.201c0-0.6-0.427-1.092-1.387-1.092
				c-0.707,0-1.413,0.307-1.774,0.545l-0.373-1.186c0.494-0.334,1.467-0.668,2.494-0.668c1.801,0,2.707,0.988,2.707,2.121
				c0,0.906-0.533,1.654-1.6,2.027v0.027c1.053,0.199,1.893,0.986,1.906,2.16c0,1.467-1.227,2.627-3.374,2.627
				c-1.054,0-1.96-0.293-2.427-0.6L11.955,18.389z"/>
		</g>
	</g>
</g>
</svg>
