<?xml version="1.0" encoding="utf-8"?>
<!-- Generator: Adobe Illustrator 16.0.3, SVG Export Plug-In . SVG Version: 6.00 Build 0)  -->
<!DOCTYPE svg PUBLIC "-//W3C//DTD SVG 1.1//EN" "http://www.w3.org/Graphics/SVG/1.1/DTD/svg11.dtd">
<svg version="1.1" xmlns="http://www.w3.org/2000/svg" xmlns:xlink="http://www.w3.org/1999/xlink" x="0px" y="0px" width="22.68px"
	 height="22.68px" viewBox="0 0 22.68 22.68" enable-background="new 0 0 22.68 22.68" xml:space="preserve">
<g id="BCGRND">
</g>
<g id="IKONY">
	<rect fill="#585857" width="22.676" height="22.678"/>
	<g>
		<g>
			<rect y="7.769" fill="#FFFFFF" width="22.678" height="0.889"/>
		</g>
		<g>
			<path fill="#FFFFFF" d="M5.086,3.89c0,1.104-0.669,1.733-1.572,1.733c-0.933,0-1.519-0.713-1.519-1.675
				c0-1.016,0.64-1.729,1.567-1.729C4.52,2.22,5.086,2.947,5.086,3.89z M2.63,3.934c0,0.674,0.337,1.206,0.913,1.206
				c0.581,0,0.908-0.542,0.908-1.23c0-0.62-0.308-1.206-0.908-1.206C2.947,2.703,2.63,3.255,2.63,3.934z"/>
			<path fill="#FFFFFF" d="M5.633,2.103h0.6v1.416h0.01c0.146-0.229,0.406-0.381,0.762-0.381c0.582,0,0.996,0.483,0.992,1.206
				c0,0.854-0.543,1.279-1.08,1.279c-0.307,0-0.58-0.117-0.752-0.41h-0.01L6.125,5.569H5.613c0.01-0.161,0.02-0.425,0.02-0.669
				V2.103z M6.232,4.588c0,0.049,0.006,0.098,0.016,0.142c0.063,0.244,0.273,0.42,0.531,0.42c0.377,0,0.605-0.298,0.605-0.781
				c0-0.42-0.199-0.762-0.6-0.762c-0.244,0-0.469,0.176-0.533,0.439c-0.01,0.044-0.02,0.098-0.02,0.156V4.588z"/>
			<path fill="#FFFFFF" d="M8.014,6.141C8.209,6.126,8.365,6.072,8.463,5.97c0.112-0.122,0.156-0.308,0.156-0.825V3.191H9.22v2.124
				c0,0.493-0.098,0.801-0.313,1.016C8.702,6.526,8.37,6.609,8.072,6.609L8.014,6.141z M9.259,2.527
				c0,0.176-0.127,0.322-0.342,0.322c-0.205,0-0.332-0.146-0.332-0.322c0-0.186,0.137-0.327,0.342-0.327
				C9.127,2.2,9.254,2.342,9.259,2.527z"/>
			<path fill="#FFFFFF" d="M10.335,4.549c0.015,0.43,0.347,0.615,0.732,0.615c0.278,0,0.474-0.044,0.659-0.107l0.088,0.41
				c-0.205,0.088-0.488,0.151-0.83,0.151c-0.771,0-1.226-0.474-1.226-1.201c0-0.659,0.4-1.279,1.162-1.279
				c0.771,0,1.025,0.635,1.025,1.157c0,0.112-0.01,0.2-0.02,0.254H10.335z M11.38,4.129c0.005-0.22-0.093-0.581-0.493-0.581
				c-0.371,0-0.527,0.337-0.552,0.581H11.38z"/>
			<path fill="#FFFFFF" d="M12.481,3.899c0-0.273-0.01-0.503-0.02-0.708h0.513l0.029,0.352h0.015
				c0.112-0.186,0.327-0.405,0.732-0.405c0.313,0,0.557,0.176,0.659,0.439h0.01c0.083-0.132,0.181-0.229,0.288-0.298
				c0.137-0.093,0.288-0.142,0.488-0.142c0.391,0,0.791,0.269,0.791,1.03v1.401h-0.586V4.256c0-0.396-0.137-0.63-0.425-0.63
				c-0.205,0-0.356,0.146-0.42,0.317c-0.02,0.054-0.029,0.132-0.029,0.2v1.426h-0.586V4.192c0-0.332-0.132-0.566-0.41-0.566
				c-0.225,0-0.376,0.176-0.435,0.337c-0.02,0.063-0.029,0.132-0.029,0.2v1.406h-0.586V3.899z"/>
			<path fill="#FFFFFF" d="M17.966,2.186c-0.313,0.464-0.547,1.108-0.547,1.987c0,0.864,0.239,1.504,0.547,1.973h-0.435
				c-0.283-0.391-0.596-1.03-0.596-1.973c0.005-0.957,0.313-1.592,0.596-1.987H17.966z"/>
			<path fill="#FFFFFF" d="M18.476,2.103h0.601v3.467h-0.601V2.103z"/>
			<path fill="#FFFFFF" d="M19.596,6.146c0.307-0.464,0.547-1.113,0.547-1.982s-0.24-1.509-0.547-1.978h0.434
				c0.283,0.386,0.596,1.021,0.596,1.978c-0.004,0.952-0.313,1.587-0.596,1.982H19.596z"/>
		</g>
		<g>
			<path fill="#FFFFFF" d="M2.01,18.039c0.333,0.2,1.146,0.533,1.973,0.533c1.254,0,1.748-0.707,1.748-1.387
				c0-1.027-0.974-1.468-1.975-1.468H3.01v-1.2h0.746c0.748,0,1.707-0.347,1.707-1.2c0-0.6-0.426-1.093-1.387-1.093
				c-0.707,0-1.413,0.307-1.773,0.546L1.93,11.584c0.493-0.333,1.467-0.667,2.494-0.667c1.8,0,2.707,0.987,2.707,2.121
				c0,0.906-0.533,1.653-1.601,2.026v0.027c1.054,0.199,1.894,0.986,1.907,2.16c0,1.467-1.227,2.627-3.375,2.627
				c-1.053,0-1.96-0.293-2.426-0.6L2.01,18.039z"/>
			<path fill="#FFFFFF" d="M14.037,15.331c0,2.801-1.094,4.548-3.174,4.548c-1.986,0-3.054-1.813-3.066-4.454
				c0-2.707,1.146-4.508,3.174-4.508C13.064,10.917,14.037,12.784,14.037,15.331z M9.449,15.411c0,2.121,0.574,3.215,1.468,3.215
				c0.974,0,1.467-1.174,1.467-3.255c0-2.014-0.467-3.2-1.454-3.2C10.063,12.171,9.449,13.251,9.449,15.411z"/>
			<path fill="#FFFFFF" d="M16.184,15.212c-0.908-0.44-1.32-1.161-1.32-1.921c0-1.414,1.253-2.374,2.894-2.374
				c1.88,0,2.72,1.12,2.72,2.188c0,0.733-0.387,1.493-1.333,1.96v0.04c0.946,0.36,1.653,1.107,1.653,2.188
				c0,1.547-1.307,2.587-3.16,2.587c-2.027,0-3.08-1.174-3.08-2.387c0-1.067,0.626-1.801,1.627-2.241V15.212z M19.131,17.425
				c0-0.88-0.641-1.359-1.614-1.627c-0.813,0.228-1.28,0.801-1.28,1.508c-0.027,0.746,0.533,1.413,1.453,1.413
				C18.557,18.719,19.131,18.172,19.131,17.425z M16.423,13.225c0,0.707,0.587,1.134,1.413,1.36
				c0.602-0.174,1.081-0.653,1.081-1.308c0-0.6-0.36-1.227-1.24-1.227C16.85,12.051,16.423,12.598,16.423,13.225z"/>
		</g>
	</g>
</g>
</svg>
