<?xml version="1.0" encoding="utf-8"?>
<!-- Generator: Adobe Illustrator 16.0.3, SVG Export Plug-In . SVG Version: 6.00 Build 0)  -->
<!DOCTYPE svg PUBLIC "-//W3C//DTD SVG 1.1//EN" "http://www.w3.org/Graphics/SVG/1.1/DTD/svg11.dtd">
<svg version="1.1" xmlns="http://www.w3.org/2000/svg" xmlns:xlink="http://www.w3.org/1999/xlink" x="0px" y="0px" width="22.68px"
	 height="22.68px" viewBox="0 0 22.68 22.68" enable-background="new 0 0 22.68 22.68" xml:space="preserve">
<g id="BCGRND">
</g>
<g id="BAREVNE_BCGRND">
	<polygon fill="#585857" points="22.678,16.335 22.678,0 0,0 0,22.678 14.117,22.678 22.678,22.678 	"/>
</g>
<g id="IKONY">
	<g>
		<g>
			<rect y="7.769" fill="#FFFFFF" width="22.678" height="0.889"/>
		</g>
		<g>
			<g>
				<path fill="#FFFFFF" d="M5.086,3.889c0,1.104-0.669,1.733-1.577,1.733c-0.928,0-1.514-0.708-1.514-1.675
					c0-1.011,0.635-1.724,1.563-1.724C4.52,2.224,5.086,2.951,5.086,3.889z M2.63,3.938c0,0.669,0.337,1.206,0.913,1.206
					c0.581,0,0.908-0.542,0.908-1.23c0-0.62-0.308-1.211-0.908-1.211C2.948,2.702,2.63,3.259,2.63,3.938z"/>
			</g>
			<g>
				<path fill="#FFFFFF" d="M5.633,2.102h0.601v1.416h0.01c0.146-0.229,0.405-0.381,0.762-0.381c0.581,0,0.996,0.483,0.991,1.206
					c0,0.854-0.542,1.279-1.079,1.279c-0.308,0-0.581-0.117-0.752-0.41h-0.01L6.126,5.568H5.613c0.01-0.161,0.02-0.425,0.02-0.669
					V2.102z M6.233,4.587c0,0.049,0.005,0.098,0.015,0.142c0.063,0.239,0.273,0.42,0.532,0.42c0.376,0,0.605-0.303,0.605-0.781
					c0-0.42-0.2-0.762-0.601-0.762c-0.244,0-0.464,0.176-0.532,0.439c-0.01,0.044-0.02,0.098-0.02,0.156V4.587z"/>
			</g>
			<g>
				<path fill="#FFFFFF" d="M8.014,6.14c0.195-0.015,0.352-0.063,0.449-0.171c0.112-0.117,0.156-0.308,0.156-0.825V3.19H9.22v2.124
					c0,0.493-0.093,0.801-0.308,1.016c-0.21,0.195-0.542,0.278-0.84,0.278L8.014,6.14z M9.254,2.526
					c0,0.176-0.127,0.322-0.342,0.322c-0.2,0-0.327-0.146-0.327-0.322c0-0.186,0.132-0.327,0.337-0.327S9.254,2.341,9.254,2.526z"/>
			</g>
			<g>
				<path fill="#FFFFFF" d="M10.335,4.548c0.015,0.43,0.352,0.615,0.732,0.615c0.278,0,0.479-0.039,0.659-0.107l0.088,0.415
					c-0.205,0.083-0.488,0.151-0.83,0.151c-0.771,0-1.226-0.479-1.226-1.206c0-0.659,0.4-1.279,1.162-1.279
					c0.776,0,1.025,0.635,1.025,1.157c0,0.112-0.01,0.2-0.02,0.254H10.335z M11.38,4.128c0.005-0.22-0.093-0.581-0.493-0.581
					c-0.371,0-0.527,0.337-0.552,0.581H11.38z"/>
			</g>
			<g>
				<path fill="#FFFFFF" d="M12.482,3.898c0-0.273-0.005-0.503-0.02-0.708h0.518l0.024,0.352h0.015
					c0.117-0.186,0.332-0.405,0.732-0.405c0.313,0,0.557,0.176,0.659,0.439h0.01c0.083-0.132,0.181-0.229,0.293-0.298
					c0.132-0.093,0.283-0.142,0.479-0.142c0.396,0,0.796,0.269,0.796,1.03v1.401h-0.586V4.255c0-0.396-0.137-0.63-0.425-0.63
					c-0.205,0-0.356,0.146-0.42,0.317c-0.015,0.059-0.029,0.132-0.029,0.2v1.426h-0.586V4.191c0-0.332-0.132-0.566-0.41-0.566
					c-0.225,0-0.376,0.176-0.43,0.342c-0.024,0.059-0.034,0.127-0.034,0.195v1.406h-0.586V3.898z"/>
			</g>
			<g>
				<path fill="#FFFFFF" d="M17.966,2.185c-0.313,0.464-0.552,1.108-0.552,1.987c0,0.864,0.244,1.504,0.552,1.973h-0.439
					c-0.278-0.391-0.591-1.025-0.591-1.973c0.005-0.952,0.313-1.592,0.591-1.987H17.966z"/>
			</g>
			<g>
				<path fill="#FFFFFF" d="M18.476,2.102h0.605v3.467h-0.605V2.102z"/>
			</g>
			<g>
				<path fill="#FFFFFF" d="M19.595,6.145c0.308-0.464,0.547-1.113,0.547-1.982s-0.239-1.509-0.547-1.978h0.435
					c0.283,0.391,0.596,1.025,0.596,1.982c-0.005,0.952-0.313,1.582-0.596,1.978H19.595z"/>
			</g>
		</g>
	</g>
	<g>
		<path fill="#FFFFFF" d="M5.421,18.039c0.333,0.2,1.147,0.533,1.974,0.533c1.253,0,1.76-0.707,1.747-1.387
			c0-1.027-0.96-1.468-1.96-1.468h-0.76v-1.2h0.733c0.76,0,1.72-0.347,1.72-1.213c0-0.587-0.44-1.08-1.387-1.08
			c-0.707,0-1.414,0.307-1.774,0.546l-0.374-1.187c0.494-0.347,1.454-0.667,2.494-0.667c1.787,0,2.707,0.987,2.707,2.121
			c0,0.906-0.533,1.653-1.6,2.026v0.027c1.053,0.187,1.907,0.986,1.907,2.16c0,1.467-1.227,2.627-3.374,2.627
			c-1.053,0-1.96-0.293-2.427-0.6L5.421,18.039z"/>
		<path fill="#FFFFFF" d="M17.233,12.424h-3.334l-0.253,1.734c0.2-0.027,0.374-0.04,0.627-0.04c0.76,0,1.521,0.173,2.107,0.56
			c0.653,0.414,1.133,1.147,1.133,2.201c0,1.653-1.374,3-3.507,3c-1,0-1.84-0.253-2.294-0.507l0.333-1.24
			c0.374,0.2,1.12,0.454,1.907,0.454c0.96,0,1.88-0.547,1.88-1.588c0-0.986-0.733-1.64-2.467-1.64c-0.48,0-0.84,0.026-1.187,0.08
			l0.573-4.375h4.481V12.424z"/>
	</g>
</g>
</svg>
