<?xml version="1.0" encoding="utf-8"?>
<!-- Generator: Adobe Illustrator 16.0.3, SVG Export Plug-In . SVG Version: 6.00 Build 0)  -->
<!DOCTYPE svg PUBLIC "-//W3C//DTD SVG 1.1//EN" "http://www.w3.org/Graphics/SVG/1.1/DTD/svg11.dtd">
<svg version="1.1" xmlns="http://www.w3.org/2000/svg" xmlns:xlink="http://www.w3.org/1999/xlink" x="0px" y="0px" width="22.68px"
	 height="22.68px" viewBox="0 0 22.68 22.68" enable-background="new 0 0 22.68 22.68" xml:space="preserve">
<g id="BCGRND">
</g>
<g id="IKONY">
	<g>
		<rect x="0" fill="#585857" width="22.676" height="22.678"/>
		<g>
			<g>
				<rect x="0.002" y="7.77" fill="#FFFFFF" width="22.677" height="0.889"/>
			</g>
			<g>
				<path fill="#FFFFFF" d="M3.226,2.279v1.318h1.392V2.279h0.601V5.57H4.617V4.119H3.226V5.57H2.625V2.279H3.226z"/>
				<path fill="#FFFFFF" d="M7.781,4.998c0,0.215,0.01,0.426,0.039,0.572H7.278L7.234,5.307H7.219
					C7.078,5.492,6.829,5.623,6.516,5.623c-0.479,0-0.747-0.346-0.747-0.707c0-0.596,0.532-0.904,1.411-0.898V3.979
					c0-0.156-0.063-0.416-0.483-0.416c-0.234,0-0.479,0.074-0.64,0.176L5.94,3.348C6.116,3.24,6.423,3.139,6.799,3.139
					c0.762,0,0.981,0.482,0.981,1.006V4.998z M7.195,4.408C6.77,4.402,6.365,4.49,6.365,4.852c0,0.234,0.151,0.342,0.342,0.342
					c0.244,0,0.415-0.156,0.474-0.326c0.015-0.045,0.015-0.088,0.015-0.133V4.408z"/>
				<path fill="#FFFFFF" d="M8.467,2.104h0.601V5.57H8.467V2.104z"/>
				<path fill="#FFFFFF" d="M12.033,4.359c0,0.873-0.615,1.264-1.221,1.264c-0.669,0-1.191-0.459-1.191-1.225
					c0-0.781,0.513-1.26,1.23-1.26C11.56,3.139,12.033,3.637,12.033,4.359z M10.241,4.383c0,0.459,0.229,0.807,0.591,0.807
					c0.342,0,0.581-0.332,0.581-0.816c0-0.371-0.166-0.801-0.576-0.801C10.412,3.572,10.241,3.988,10.241,4.383z"/>
				<path fill="#FFFFFF" d="M14.733,5.223c0,0.498-0.103,0.855-0.352,1.08C14.137,6.521,13.79,6.59,13.463,6.59
					c-0.303,0-0.625-0.068-0.83-0.189l0.132-0.455c0.151,0.088,0.405,0.182,0.693,0.182c0.391,0,0.684-0.205,0.684-0.719V5.203
					h-0.01c-0.137,0.211-0.376,0.352-0.693,0.352c-0.591,0-1.011-0.488-1.011-1.162c0-0.781,0.508-1.254,1.079-1.254
					c0.366,0,0.576,0.176,0.688,0.371h0.01l0.024-0.318h0.522c-0.01,0.162-0.02,0.357-0.02,0.684V5.223z M14.132,4.145
					c0-0.059-0.005-0.113-0.02-0.162c-0.063-0.219-0.234-0.385-0.488-0.385c-0.337,0-0.586,0.293-0.586,0.775
					c0,0.406,0.205,0.732,0.581,0.732c0.225,0,0.42-0.146,0.488-0.365c0.02-0.059,0.024-0.143,0.024-0.211V4.145z"/>
				<path fill="#FFFFFF" d="M15.854,4.549c0.015,0.43,0.347,0.615,0.732,0.615c0.278,0,0.474-0.043,0.659-0.107l0.088,0.41
					c-0.205,0.088-0.488,0.152-0.83,0.152c-0.771,0-1.226-0.475-1.226-1.201c0-0.66,0.4-1.279,1.162-1.279
					c0.771,0,1.025,0.635,1.025,1.156c0,0.113-0.01,0.201-0.02,0.254H15.854z M16.899,4.129c0.005-0.219-0.093-0.58-0.493-0.58
					c-0.371,0-0.527,0.336-0.552,0.58H16.899z"/>
				<path fill="#FFFFFF" d="M18.001,3.9c0-0.273-0.01-0.504-0.02-0.709h0.522l0.029,0.357h0.015c0.107-0.186,0.366-0.41,0.762-0.41
					c0.415,0,0.845,0.268,0.845,1.02V5.57h-0.601V4.227c0-0.342-0.127-0.6-0.454-0.6c-0.239,0-0.405,0.17-0.469,0.352
					c-0.02,0.049-0.029,0.121-0.029,0.189V5.57h-0.601V3.9z"/>
			</g>
			<g>
				<path opacity="0.5" fill="#FFFFFF" d="M7.06,15.188c0-0.331-0.27-0.6-0.601-0.6H5.584c-0.331,0-0.601,0.269-0.601,0.6
					s0.27,0.6,0.601,0.6h0.875C6.79,15.787,7.06,15.519,7.06,15.188z M17.098,14.588h-0.875c-0.331,0-0.601,0.269-0.601,0.6
					s0.27,0.6,0.601,0.6h0.875c0.331,0,0.601-0.269,0.601-0.6S17.429,14.588,17.098,14.588z M11.34,19.085
					c-0.331,0-0.601,0.269-0.601,0.6v0.834c0,0.331,0.27,0.6,0.601,0.6s0.601-0.269,0.601-0.6v-0.834
					C11.941,19.354,11.671,19.085,11.34,19.085z M15.193,18.19c-0.233-0.233-0.613-0.235-0.849-0.001
					c-0.234,0.234-0.235,0.614-0.001,0.849l0.712,0.714c0.117,0.117,0.271,0.176,0.425,0.176c0.153,0,0.307-0.058,0.424-0.175
					c0.234-0.234,0.234-0.614,0.001-0.849L15.193,18.19z M7.389,12.086c0.117,0.117,0.271,0.176,0.425,0.176
					c0.153,0,0.307-0.058,0.424-0.175c0.234-0.233,0.234-0.613,0.001-0.849l-0.612-0.614c-0.234-0.233-0.613-0.235-0.849-0.001
					c-0.234,0.233-0.235,0.613-0.001,0.849L7.389,12.086z M7.489,18.19l-0.712,0.714c-0.233,0.234-0.233,0.614,0.001,0.849
					c0.117,0.117,0.271,0.175,0.424,0.175c0.154,0,0.308-0.059,0.425-0.176l0.712-0.714c0.234-0.234,0.233-0.614-0.001-0.849
					S7.724,17.957,7.489,18.19z M14.867,12.262c0.153,0,0.308-0.059,0.425-0.176l0.613-0.614c0.234-0.234,0.233-0.614-0.001-0.849
					c-0.233-0.234-0.614-0.232-0.849,0.001l-0.613,0.614c-0.234,0.234-0.233,0.614,0.001,0.849
					C14.561,12.204,14.714,12.262,14.867,12.262z"/>
			</g>
		</g>
		<path fill="#FFFFFF" d="M14.421,13.572c-0.358-0.623-0.711-1.046-1.197-1.635c-0.077-0.094-0.157-0.191-0.242-0.293
			c-0.573-0.7-0.618-1.402-0.618-1.601V9.347h-2.046v0.697c0,0.198-0.045,0.9-0.619,1.601c-0.084,0.102-0.165,0.199-0.241,0.293
			c-0.487,0.589-0.838,1.012-1.197,1.635c-0.459,0.795-0.478,2.186-0.04,2.975c0.241,0.435,1.182,1.853,3.12,1.853
			c1.939,0,2.879-1.418,3.12-1.853C14.898,15.758,14.88,14.367,14.421,13.572z"/>
	</g>
</g>
</svg>
