<?xml version="1.0" encoding="utf-8"?>
<!-- Generator: Adobe Illustrator 16.0.3, SVG Export Plug-In . SVG Version: 6.00 Build 0)  -->
<!DOCTYPE svg PUBLIC "-//W3C//DTD SVG 1.1//EN" "http://www.w3.org/Graphics/SVG/1.1/DTD/svg11.dtd">
<svg version="1.1" xmlns="http://www.w3.org/2000/svg" xmlns:xlink="http://www.w3.org/1999/xlink" x="0px" y="0px" width="22.68px"
	 height="22.68px" viewBox="0 0 22.68 22.68" enable-background="new 0 0 22.68 22.68" xml:space="preserve">
<g id="BCGRND">
</g>
<g id="IKONY">
	<rect x="0" fill="#585857" width="22.68" height="22.677"/>
	<g>
		<g>
			<g>
				<g>
					<path fill="#FFFFFF" d="M5.428,2.039C5.643,2,5.94,1.971,6.346,1.971c0.439,0,0.762,0.093,0.971,0.269
						C7.512,2.4,7.639,2.659,7.639,2.967c0,0.313-0.098,0.571-0.283,0.747C7.118,3.953,6.741,4.065,6.317,4.065
						c-0.113,0-0.215-0.005-0.293-0.02v1.24H5.428V2.039z M6.024,3.572c0.072,0.02,0.17,0.024,0.293,0.024
						c0.449,0,0.723-0.22,0.723-0.605c0-0.366-0.254-0.562-0.67-0.562c-0.166,0-0.283,0.015-0.346,0.029V3.572z"/>
					<path fill="#FFFFFF" d="M8.537,4.266c0.015,0.43,0.352,0.615,0.732,0.615c0.278,0,0.479-0.039,0.659-0.107l0.088,0.415
						c-0.205,0.083-0.488,0.146-0.83,0.146c-0.771,0-1.226-0.474-1.226-1.201c0-0.659,0.4-1.279,1.162-1.279
						c0.771,0,1.025,0.635,1.025,1.157c0,0.112-0.01,0.2-0.02,0.254H8.537z M9.582,3.846c0.005-0.22-0.093-0.581-0.493-0.581
						c-0.371,0-0.527,0.337-0.552,0.581H9.582z"/>
					<path fill="#FFFFFF" d="M12.481,5.213c-0.127,0.059-0.377,0.122-0.674,0.122c-0.742,0-1.227-0.474-1.227-1.211
						c0-0.713,0.488-1.27,1.324-1.27c0.219,0,0.443,0.049,0.58,0.112l-0.107,0.449c-0.098-0.044-0.238-0.093-0.453-0.093
						c-0.459,0-0.732,0.337-0.729,0.771c0,0.488,0.318,0.767,0.729,0.767c0.209,0,0.355-0.044,0.473-0.093L12.481,5.213z
						 M11.499,2.601l-0.473-0.723h0.41l0.268,0.444h0.01l0.264-0.444h0.41l-0.473,0.723H11.499z"/>
					<path fill="#FFFFFF" d="M13.026,5.286V2.908h0.605v2.378H13.026z M14.061,1.878L13.46,2.601h-0.414l0.424-0.723H14.061z"/>
					<path fill="#FFFFFF" d="M16.123,5.213c-0.127,0.059-0.376,0.122-0.674,0.122c-0.742,0-1.226-0.474-1.226-1.211
						c0-0.713,0.488-1.27,1.323-1.27c0.22,0,0.444,0.049,0.581,0.112L16.02,3.416c-0.098-0.044-0.239-0.093-0.454-0.093
						c-0.459,0-0.732,0.337-0.728,0.771c0,0.488,0.317,0.767,0.728,0.767c0.21,0,0.356-0.044,0.474-0.093L16.123,5.213z"/>
					<path fill="#FFFFFF" d="M16.668,5.286V2.908h0.605v2.378H16.668z M17.703,1.878l-0.601,0.723h-0.415l0.425-0.723H17.703z"/>
					<path fill="#FFFFFF" d="M4.377,9.234c0.137,0.083,0.396,0.171,0.61,0.171c0.264,0,0.381-0.107,0.381-0.264
						c0-0.161-0.098-0.244-0.391-0.347C4.513,8.634,4.318,8.38,4.323,8.102c0-0.42,0.347-0.747,0.898-0.747
						c0.264,0,0.493,0.068,0.63,0.142L5.734,7.921C5.632,7.862,5.441,7.784,5.231,7.784c-0.215,0-0.332,0.103-0.332,0.249
						c0,0.151,0.112,0.225,0.415,0.332c0.43,0.156,0.63,0.376,0.635,0.728c0,0.43-0.337,0.742-0.967,0.742
						c-0.288,0-0.547-0.068-0.723-0.166L4.377,9.234z"/>
					<path fill="#FFFFFF" d="M6.968,8.766C6.981,9.195,7.319,9.381,7.7,9.381c0.277,0,0.479-0.039,0.658-0.107l0.088,0.415
						c-0.205,0.083-0.488,0.146-0.83,0.146c-0.771,0-1.225-0.474-1.225-1.201c0-0.659,0.4-1.279,1.162-1.279
						c0.771,0,1.025,0.635,1.025,1.157c0,0.112-0.01,0.2-0.02,0.254H6.968z M8.012,8.346c0.004-0.22-0.094-0.581-0.494-0.581
						c-0.371,0-0.527,0.337-0.551,0.581H8.012z"/>
					<path fill="#FFFFFF" d="M9.163,8.116c0-0.273-0.005-0.503-0.02-0.708h0.527L9.7,7.765h0.015c0.103-0.186,0.361-0.41,0.757-0.41
						c0.415,0,0.845,0.269,0.845,1.021v1.411h-0.601V8.443c0-0.342-0.127-0.601-0.454-0.601c-0.239,0-0.405,0.171-0.469,0.352
						C9.773,8.248,9.768,8.321,9.768,8.39v1.396H9.163V8.116z"/>
					<path fill="#FFFFFF" d="M11.833,9.439l0.894-1.143c0.122-0.146,0.225-0.264,0.352-0.4v-0.01h-1.157V7.408h1.89v0.366
						l-0.874,1.118c-0.117,0.142-0.229,0.278-0.352,0.405v0.01h1.255v0.479h-2.007V9.439z"/>
					<path fill="#FFFFFF" d="M16.581,8.575c0,0.874-0.615,1.265-1.221,1.265c-0.674,0-1.191-0.464-1.191-1.226
						c0-0.781,0.514-1.26,1.23-1.26C16.108,7.354,16.581,7.853,16.581,8.575z M14.79,8.6c0,0.459,0.225,0.806,0.59,0.806
						c0.342,0,0.582-0.337,0.582-0.815c0-0.371-0.166-0.796-0.576-0.796C14.96,7.794,14.79,8.204,14.79,8.6z"/>
					<path fill="#FFFFFF" d="M17.177,8.175c0-0.322-0.006-0.552-0.02-0.767h0.521l0.02,0.454h0.02
						c0.117-0.337,0.396-0.508,0.65-0.508c0.059,0,0.092,0.005,0.141,0.015v0.566c-0.049-0.01-0.102-0.02-0.176-0.02
						c-0.287,0-0.482,0.186-0.537,0.454c-0.01,0.054-0.02,0.117-0.02,0.186v1.23h-0.6V8.175z"/>
				</g>
			</g>
		</g>
		<g>
			<path fill="#FFFFFF" d="M19.339,21.503H7.514H3.339c-0.268,0.206,0,0.382,0,0.382c0.318,0,0.496,0.793,0.496,0.793h3.68h11.33
				c0,0,0.178-0.793,0.494-0.793C19.339,21.885,19.608,21.709,19.339,21.503z"/>
			<path opacity="0.5" fill="#FFFFFF" d="M17.548,19.465c-0.113-0.105-0.127-0.118-0.328-0.118c-0.072,0-0.107,0.023-0.279,0.255
				c-0.23,0.312-0.576,0.782-1.377,0.782c-0.928,0-1.252-0.679-1.447-1.084c-0.191-0.401-0.248-0.462-0.402-0.47
				c-0.07,0.039-0.199,0.259-0.275,0.39c-0.203,0.347-0.48,0.822-1.018,0.822l-0.041-0.001l-0.016-0.001
				c-0.498-0.034-0.746-0.43-0.912-0.692c-0.045-0.071-0.119-0.192-0.186-0.247c-0.031,0.038-0.068,0.084-0.098,0.124
				c-0.217,0.285-0.582,0.761-1.246,0.815c-0.051,0.004-0.102,0.006-0.148,0.006c-0.773,0-1.104-0.524-1.281-0.807
				c-0.016-0.025-0.035-0.056-0.053-0.083c-0.037,0.039-0.078,0.114-0.152,0.262c-0.182,0.361-0.482,0.966-1.414,0.966
				c-0.77,0-1.111-0.499-1.314-0.797c-0.141-0.207-0.176-0.24-0.217-0.24c-0.16,0-0.162,0.002-0.264,0.105
				c-0.098,0.099-0.246,0.249-0.504,0.372c-0.123,0.058-0.242,0.08-0.359,0.087v1.092h14.248v-1.086
				c-0.125-0.003-0.254-0.029-0.385-0.087C17.807,19.71,17.657,19.569,17.548,19.465z"/>
			<path fill="#FFFFFF" d="M12.997,15.888l-0.781,0l-0.877,0l-0.877,0l-0.781,0c-4.064,0-6.305,0-6.305,1.426v1.709
				c0.02,0.457,0.297,0.899,0.795,0.899c0.014,0,0.029-0.01,0.045-0.011c0.117-0.007,0.236-0.029,0.359-0.087
				c0.258-0.123,0.406-0.273,0.504-0.372c0.102-0.103,0.104-0.105,0.264-0.105c0.041,0,0.076,0.033,0.217,0.24
				c0.203,0.298,0.545,0.797,1.314,0.797c0.932,0,1.232-0.604,1.414-0.966c0.074-0.148,0.115-0.223,0.152-0.262
				c0.018,0.027,0.037,0.058,0.053,0.083c0.178,0.282,0.508,0.807,1.281,0.807c0.047,0,0.098-0.002,0.148-0.006
				c0.664-0.055,1.029-0.531,1.246-0.815c0.029-0.039,0.066-0.086,0.098-0.124c0.066,0.054,0.141,0.175,0.186,0.247
				c0.166,0.262,0.414,0.658,0.912,0.692l0.016,0.001l0.041,0.001c0.537,0,0.814-0.475,1.018-0.822
				c0.076-0.131,0.205-0.351,0.275-0.39c0.154,0.008,0.211,0.068,0.402,0.47c0.195,0.405,0.52,1.084,1.447,1.084
				c0.801,0,1.146-0.47,1.377-0.782c0.172-0.232,0.207-0.255,0.279-0.255c0.201,0,0.215,0.013,0.328,0.118
				c0.109,0.104,0.26,0.245,0.531,0.364c0.131,0.058,0.26,0.084,0.385,0.087c0.008,0,0.016,0.005,0.021,0.005
				c0.51,0,0.797-0.44,0.818-0.875v-1.733C19.303,15.888,17.063,15.888,12.997,15.888z M18.803,19.023c0,0-0.02,0.399-0.318,0.399
				c-0.006,0-0.016-0.005-0.021-0.005c-0.053-0.002-0.111-0.013-0.184-0.044c-0.496-0.218-0.408-0.525-1.061-0.525
				c-0.744,0-0.641,1.037-1.656,1.037c-1.199,0-0.793-1.546-1.887-1.546c-0.584,0-0.738,1.204-1.256,1.204
				c-0.008,0-0.016,0-0.023-0.001c-0.514-0.036-0.553-0.968-1.16-0.968c-0.025,0-0.049,0.001-0.076,0.004
				c-0.348,0.041-0.537,0.902-1.279,0.963c-0.037,0.003-0.072,0.004-0.107,0.004c-0.861,0-0.816-0.931-1.277-0.931
				c-0.021,0-0.045,0.002-0.068,0.006c-0.754,0.133-0.443,1.263-1.555,1.263c-0.939,0-0.844-1.037-1.531-1.037
				c-0.605,0-0.523,0.307-0.982,0.525c-0.057,0.027-0.102,0.033-0.145,0.038c-0.014,0.002-0.033,0.012-0.045,0.012
				c-0.277,0-0.295-0.399-0.295-0.399v-1.709c0-0.873,2.051-0.926,5.805-0.926c0.521,0,1.074,0.001,1.658,0.001
				c0.586,0,1.139-0.001,1.658-0.001c3.754,0,5.807,0.053,5.807,0.926V19.023z"/>
			<g>
				<path fill="#FFFFFF" d="M4.43,18.732c-0.1,0-0.182-0.081-0.182-0.181v-1.043c0-0.1,0.082-0.181,0.182-0.181
					s0.18,0.081,0.18,0.181v1.043C4.61,18.651,4.53,18.732,4.43,18.732z"/>
			</g>
			<g>
				<path fill="#FFFFFF" d="M6.925,19.488c-0.533,0-0.807-0.589-0.881-0.921c-0.021-0.097,0.041-0.193,0.139-0.215
					c0.105-0.021,0.193,0.041,0.215,0.137c0.002,0.007,0.146,0.637,0.533,0.637c0.018,0,0.035-0.001,0.055-0.004
					c0.092-0.017,0.189,0.053,0.205,0.152s-0.053,0.191-0.152,0.206C6.999,19.485,6.962,19.488,6.925,19.488z"/>
			</g>
			<g>
				<path fill="#FFFFFF" d="M9.889,19.229H9.887c-0.623-0.003-0.809-0.456-0.82-0.695c-0.006-0.1,0.072-0.184,0.172-0.189
					c0.09-0.005,0.184,0.071,0.189,0.17c0.004,0.059,0.045,0.35,0.461,0.353c0.1,0,0.182,0.082,0.18,0.182
					C10.069,19.149,9.989,19.229,9.889,19.229z"/>
			</g>
			<g>
				<path fill="#FFFFFF" d="M12.393,19.085c-0.053,0-0.104-0.023-0.141-0.067l-0.125-0.155c-0.063-0.078-0.051-0.192,0.027-0.254
					c0.078-0.062,0.191-0.05,0.254,0.027l0.125,0.155c0.063,0.078,0.051,0.192-0.027,0.254
					C12.473,19.072,12.434,19.085,12.393,19.085z"/>
			</g>
			<g>
				<path fill="#FFFFFF" d="M15.675,19.521c-0.33,0-0.531-0.145-0.758-0.522c-0.096-0.162-0.201-0.584-0.223-0.667
					c-0.023-0.097,0.037-0.194,0.133-0.218c0.1-0.024,0.195,0.037,0.219,0.133c0.045,0.184,0.131,0.482,0.182,0.567
					c0.205,0.343,0.314,0.364,0.547,0.341c0.098-0.012,0.188,0.063,0.197,0.162c0.01,0.1-0.063,0.188-0.162,0.198
					C15.762,19.518,15.716,19.521,15.675,19.521z"/>
			</g>
		</g>
		<g>
			<rect x="0.001" y="11.956" fill="#FFFFFF" width="22.678" height="0.889"/>
		</g>
		<g>
			<path fill="#FFFFFF" d="M9.589,13.472c0.086,0.146,0.184,0.287,0.31,0.412c0.796,0.796,2.088,0.796,2.884,0
				c0.125-0.125,0.224-0.266,0.31-0.412c0.059-0.099,0.108-0.202,0.148-0.308c0.093-0.246,0.125-0.505,0.121-0.764H9.319
				c-0.004,0.259,0.028,0.518,0.121,0.764C9.48,13.27,9.53,13.373,9.589,13.472z"/>
			<path opacity="0.5" fill="#FFFFFF" d="M7.352,14.207c0.064,0.188,0.113,0.379,0.199,0.561c0.043,0.09,0.133,0.144,0.227,0.144
				c0.036,0,0.072-0.008,0.106-0.024c0.125-0.059,0.179-0.208,0.12-0.333c-0.059-0.124-0.086-0.256-0.134-0.383
				c-0.062-0.165-0.131-0.328-0.174-0.498c-0.106-0.418-0.146-0.847-0.142-1.274H7.05c-0.004,0.441,0.034,0.882,0.138,1.314
				C7.227,13.882,7.296,14.042,7.352,14.207z"/>
			<path opacity="0.5" fill="#FFFFFF" d="M6.225,14.361c0.121,0.388,0.278,0.768,0.477,1.134c0.045,0.084,0.131,0.131,0.22,0.131
				c0.04,0,0.081-0.01,0.119-0.03c0.121-0.065,0.166-0.217,0.101-0.338c-0.172-0.318-0.307-0.648-0.416-0.985
				C6.673,14.11,6.63,13.945,6.592,13.78C6.487,13.326,6.446,12.863,6.45,12.4H5.948c-0.004,0.491,0.041,0.983,0.149,1.466
				C6.135,14.032,6.175,14.198,6.225,14.361z"/>
			<path opacity="0.5" fill="#FFFFFF" d="M8.184,12.985c0.027,0.223,0.072,0.441,0.132,0.659c0,0.002,0.001,0.004,0.001,0.006
				c0.034,0.122,0.057,0.246,0.101,0.365c0.024,0.066,0.077,0.107,0.138,0.133c0.031,0.014,0.063,0.03,0.097,0.03
				c0.029,0,0.059-0.005,0.087-0.016c0.07-0.026,0.116-0.082,0.141-0.146c0.024-0.054,0.029-0.114,0.007-0.175
				c-0.024-0.067-0.035-0.137-0.056-0.205c-0.126-0.402-0.186-0.819-0.184-1.236H8.155c-0.001,0.182,0.006,0.363,0.026,0.544
				C8.182,12.958,8.183,12.972,8.184,12.985z"/>
			<path opacity="0.5" fill="#FFFFFF" d="M15.954,14.272c-0.104,0.323-0.231,0.641-0.394,0.946
				c-0.064,0.122-0.019,0.273,0.104,0.338c0.037,0.02,0.077,0.029,0.117,0.029c0.089,0,0.176-0.048,0.221-0.133
				c0.188-0.353,0.336-0.719,0.452-1.092c0.051-0.163,0.092-0.329,0.129-0.495c0.107-0.482,0.152-0.974,0.148-1.466h-0.502
				c0.004,0.463-0.036,0.926-0.141,1.379C16.052,13.946,16.007,14.11,15.954,14.272z"/>
			<path opacity="0.5" fill="#FFFFFF" d="M13.806,13.795c-0.047,0.13,0.021,0.273,0.151,0.319c0.027,0.01,0.056,0.015,0.084,0.015
				c0.103,0,0.199-0.063,0.235-0.166s0.054-0.209,0.083-0.313c0-0.001,0-0.002,0.001-0.003c0.06-0.216,0.104-0.433,0.131-0.654
				c0.001-0.007,0.001-0.015,0.002-0.022c0.022-0.189,0.031-0.379,0.03-0.57h-0.492c0.003,0.416-0.059,0.831-0.183,1.231
				C13.833,13.686,13.825,13.742,13.806,13.795z"/>
			<path opacity="0.5" fill="#FFFFFF" d="M14.81,14.172c-0.042,0.113-0.064,0.231-0.115,0.341c-0.058,0.125-0.002,0.274,0.123,0.332
				c0.034,0.016,0.069,0.023,0.104,0.023c0.095,0,0.186-0.054,0.228-0.146c0.077-0.167,0.119-0.343,0.178-0.516
				c0.057-0.165,0.128-0.325,0.168-0.493c0.103-0.432,0.14-0.873,0.135-1.314h-0.515c0.005,0.428-0.031,0.856-0.137,1.274
				C14.936,13.844,14.872,14.007,14.81,14.172z"/>
		</g>
	</g>
</g>
</svg>
