<?xml version="1.0" encoding="utf-8"?>
<!-- Generator: Adobe Illustrator 16.0.3, SVG Export Plug-In . SVG Version: 6.00 Build 0)  -->
<!DOCTYPE svg PUBLIC "-//W3C//DTD SVG 1.1//EN" "http://www.w3.org/Graphics/SVG/1.1/DTD/svg11.dtd">
<svg version="1.1" xmlns="http://www.w3.org/2000/svg" xmlns:xlink="http://www.w3.org/1999/xlink" x="0px" y="0px" width="22.68px"
	 height="22.68px" viewBox="0 0 22.68 22.68" enable-background="new 0 0 22.68 22.68" xml:space="preserve">
<g id="BCGRND">
</g>
<g id="IKONY">
	<rect x="0" fill="#585857" width="22.68" height="22.677"/>
	<g>
		<g>
			<g>
				<g>
					<rect x="0" y="11.956" fill="#FFFFFF" width="22.678" height="0.889"/>
				</g>
				<g>
					<g>
						<path fill="#FFFFFF" d="M5.914,2.04c0.215-0.039,0.513-0.068,0.918-0.068c0.439,0,0.762,0.093,0.972,0.269
							c0.195,0.161,0.322,0.42,0.322,0.728c0,0.313-0.098,0.571-0.283,0.747c-0.239,0.239-0.615,0.352-1.04,0.352
							c-0.112,0-0.215-0.005-0.293-0.02v1.24H5.914V2.04z M6.51,3.573c0.073,0.02,0.171,0.024,0.293,0.024
							c0.449,0,0.723-0.22,0.723-0.605c0-0.366-0.254-0.562-0.669-0.562c-0.166,0-0.283,0.015-0.347,0.029V3.573z"/>
						<path fill="#FFFFFF" d="M8.827,4.267c0.015,0.43,0.352,0.615,0.732,0.615c0.278,0,0.479-0.039,0.659-0.107l0.088,0.415
							c-0.205,0.083-0.488,0.146-0.83,0.146c-0.771,0-1.226-0.474-1.226-1.201c0-0.659,0.4-1.279,1.162-1.279
							c0.771,0,1.025,0.635,1.025,1.157c0,0.112-0.01,0.2-0.02,0.254H8.827z M9.872,3.847c0.005-0.22-0.093-0.581-0.493-0.581
							c-0.371,0-0.527,0.337-0.552,0.581H9.872z"/>
						<path fill="#FFFFFF" d="M12.576,5.214c-0.127,0.059-0.377,0.122-0.674,0.122c-0.742,0-1.227-0.474-1.227-1.211
							c0-0.713,0.488-1.27,1.324-1.27c0.219,0,0.443,0.049,0.58,0.112l-0.107,0.449c-0.098-0.044-0.238-0.093-0.453-0.093
							c-0.459,0-0.732,0.337-0.729,0.771c0,0.488,0.318,0.767,0.729,0.767c0.209,0,0.355-0.044,0.473-0.093L12.576,5.214z
							 M11.594,2.602l-0.473-0.723h0.41l0.268,0.444h0.01l0.264-0.444h0.41L12.01,2.602H11.594z"/>
						<path fill="#FFFFFF" d="M12.925,5.287V2.909h0.605v2.378H12.925z M13.96,1.879l-0.601,0.723h-0.415l0.425-0.723H13.96z"/>
						<path fill="#FFFFFF" d="M15.826,5.214c-0.127,0.059-0.375,0.122-0.674,0.122c-0.742,0-1.225-0.474-1.225-1.211
							c0-0.713,0.488-1.27,1.322-1.27c0.221,0,0.445,0.049,0.582,0.112l-0.107,0.449c-0.098-0.044-0.24-0.093-0.455-0.093
							c-0.459,0-0.732,0.337-0.727,0.771c0,0.488,0.316,0.767,0.727,0.767c0.211,0,0.357-0.044,0.475-0.093L15.826,5.214z"/>
						<path fill="#FFFFFF" d="M16.176,5.287V2.909h0.605v2.378H16.176z M17.211,1.879L16.61,2.602h-0.415l0.425-0.723H17.211z"/>
						<path fill="#FFFFFF" d="M5.367,9.235c0.137,0.083,0.395,0.171,0.609,0.171c0.264,0,0.381-0.107,0.381-0.264
							c0-0.161-0.098-0.244-0.391-0.347C5.504,8.635,5.308,8.381,5.312,8.103c0-0.42,0.348-0.747,0.898-0.747
							c0.264,0,0.494,0.068,0.631,0.142L6.724,7.922C6.621,7.863,6.432,7.785,6.221,7.785c-0.215,0-0.332,0.103-0.332,0.249
							c0,0.151,0.113,0.225,0.416,0.332c0.43,0.156,0.629,0.376,0.635,0.728c0,0.43-0.338,0.742-0.967,0.742
							c-0.289,0-0.547-0.068-0.723-0.166L5.367,9.235z"/>
						<path fill="#FFFFFF" d="M9.598,8.576c0,0.874-0.615,1.265-1.221,1.265c-0.674,0-1.191-0.464-1.191-1.226
							c0-0.781,0.513-1.26,1.23-1.26C9.124,7.355,9.598,7.854,9.598,8.576z M7.806,8.601c0,0.459,0.225,0.806,0.591,0.806
							c0.342,0,0.581-0.337,0.581-0.815c0-0.371-0.166-0.796-0.576-0.796C7.976,7.795,7.806,8.205,7.806,8.601z"/>
						<path fill="#FFFFFF" d="M9.996,8.117c0-0.273-0.004-0.503-0.02-0.708h0.527l0.029,0.356h0.016
							c0.102-0.186,0.361-0.41,0.756-0.41c0.416,0,0.846,0.269,0.846,1.021v1.411h-0.602V8.444c0-0.342-0.127-0.601-0.453-0.601
							c-0.24,0-0.406,0.171-0.469,0.352c-0.02,0.054-0.025,0.127-0.025,0.195v1.396H9.996V8.117z"/>
						<path fill="#FFFFFF" d="M14.888,6.32v2.798c0,0.244,0.01,0.508,0.02,0.669H14.37l-0.024-0.376h-0.01
							c-0.142,0.264-0.43,0.43-0.776,0.43c-0.566,0-1.016-0.483-1.016-1.216c-0.005-0.796,0.493-1.27,1.064-1.27
							c0.327,0,0.562,0.137,0.669,0.313h0.01V6.32H14.888z M14.287,8.4c0-0.049-0.005-0.107-0.015-0.156
							c-0.054-0.234-0.244-0.425-0.518-0.425c-0.386,0-0.601,0.342-0.601,0.786c0,0.435,0.215,0.752,0.596,0.752
							c0.244,0,0.459-0.166,0.518-0.425c0.015-0.054,0.02-0.112,0.02-0.176V8.4z"/>
						<path fill="#FFFFFF" d="M16.775,9.787l-0.039-0.264h-0.014c-0.146,0.186-0.396,0.317-0.703,0.317
							c-0.479,0-0.748-0.347-0.748-0.708c0-0.601,0.533-0.903,1.412-0.898V8.195c0-0.156-0.064-0.415-0.484-0.415
							c-0.234,0-0.479,0.073-0.639,0.176l-0.117-0.391c0.176-0.107,0.482-0.21,0.859-0.21c0.762,0,0.98,0.483,0.98,1.001v0.859
							c0,0.215,0.01,0.425,0.035,0.571H16.775z M16.697,8.625c-0.424-0.01-0.83,0.083-0.83,0.444c0,0.234,0.152,0.342,0.342,0.342
							c0.24,0,0.416-0.156,0.469-0.327c0.016-0.044,0.02-0.093,0.02-0.132V8.625z"/>
					</g>
				</g>
			</g>
		</g>
		<g opacity="0.5">
			<path fill="#FFFFFF" d="M20.627,15.498c0,0-0.103-0.792-0.724-0.528c-0.621,0.264-0.263,1.282-0.263,1.282
				c-0.228,0.226-0.849,0.773-1.414,0.886c-0.504,0.101-0.718,0.104-1.131,0.27c-0.785,0.287-1.808,0.821-2.367,1.796
				c-0.046,0.081-0.131,0.125-0.217,0.125c-0.042,0-0.085-0.011-0.124-0.033c-0.12-0.069-0.161-0.222-0.093-0.341
				c0.629-1.097,1.74-1.698,2.597-2.015c0.011-0.879-0.121-1.084-0.173-1.328c-0.057-0.264,0.377-0.773,0.377-0.773
				s0.886,0.113,0.904-0.546s-0.791-0.49-0.791-0.49c0.018-0.245-0.547-0.66-0.925-0.339c-0.376,0.32,0.086,1.034,0.086,1.034
				s-0.537,0.831-0.933,1.114c-0.396,0.282-0.849,0.264-1.729,0.867c-0.881,0.603-1.363,1.659-1.363,1.659
				c-4.806,0.641-4.787,4.542-4.787,4.542h9.933c2.902-1.564,2.375-5.635,2.375-5.635l0.489-0.415c0,0,0.98,0.169,1.094-0.452
				C21.6,15.339,20.627,15.498,20.627,15.498z"/>
		</g>
		<g>
			<g>
				<path fill="#FFFFFF" d="M11.775,21.774l0.324-0.381l0.208,0.526L11.775,21.774z M11.394,21.451l-0.382-0.324l0.324-0.382
					l0.382,0.324L11.394,21.451z M10.632,20.803l-0.381-0.324l0.324-0.381l0.381,0.324L10.632,20.803z M9.87,20.156l-0.381-0.324
					l0.324-0.381l0.381,0.324L9.87,20.156z"/>
			</g>
			<g>
				<polygon fill="#FFFFFF" points="9.087,19.491 7.383,18.043 7.707,17.663 9.489,19.173 				"/>
			</g>
			<g>
				<path fill="#FFFFFF" d="M4.65,16.119l1.991,1.692l-0.238,0.281c0,0-0.231,0.255,0.043,0.489s0.502-0.024,0.502-0.024
					l1.194-1.406c0,0,0.218-0.266-0.057-0.5c-0.274-0.233-0.489,0.036-0.489,0.036l-0.239,0.281l-1.99-1.691L4.65,16.119z"/>
			</g>
		</g>
		<g>
			<path fill="#FFFFFF" d="M-0.002,14.913c0.82,0.35,1.688,0.318,2.362,0.11c1.624-0.505,2.935,0.586,2.99,0.634l-0.322,0.382
				c-0.011-0.009-1.166-0.957-2.52-0.539c-0.715,0.222-1.625,0.269-2.506-0.047L-0.002,14.913z"/>
		</g>
	</g>
	<g>
		<g opacity="0.5">
			<path fill="#FFFFFF" d="M20.625,15.498c0,0-0.103-0.792-0.724-0.528c-0.621,0.264-0.263,1.282-0.263,1.282
				c-0.228,0.226-0.849,0.773-1.414,0.886c-0.504,0.101-0.718,0.104-1.131,0.27c-0.785,0.287-1.808,0.821-2.367,1.796
				c-0.046,0.081-0.131,0.125-0.217,0.125c-0.042,0-0.085-0.011-0.124-0.033c-0.12-0.069-0.161-0.222-0.093-0.341
				c0.629-1.097,1.74-1.698,2.597-2.015c0.011-0.879-0.121-1.084-0.173-1.328c-0.057-0.264,0.377-0.773,0.377-0.773
				s0.886,0.113,0.904-0.546s-0.791-0.49-0.791-0.49c0.018-0.245-0.547-0.66-0.925-0.339c-0.376,0.32,0.086,1.034,0.086,1.034
				s-0.537,0.831-0.933,1.114c-0.396,0.282-0.849,0.264-1.729,0.867c-0.881,0.603-1.363,1.659-1.363,1.659
				c-4.806,0.641-4.787,4.542-4.787,4.542h9.933c2.902-1.564,2.375-5.635,2.375-5.635l0.489-0.415c0,0,0.98,0.169,1.094-0.452
				C21.599,15.339,20.625,15.498,20.625,15.498z"/>
		</g>
		<g>
			<g>
				<path fill="#FFFFFF" d="M11.773,21.774l0.324-0.381l0.208,0.526L11.773,21.774z M11.392,21.451l-0.382-0.324l0.324-0.382
					l0.382,0.324L11.392,21.451z M10.63,20.803l-0.381-0.324l0.324-0.381l0.381,0.324L10.63,20.803z M9.868,20.156l-0.381-0.324
					l0.324-0.381l0.381,0.324L9.868,20.156z"/>
			</g>
			<g>
				<polygon fill="#FFFFFF" points="9.085,19.491 7.381,18.043 7.705,17.663 9.487,19.173 				"/>
			</g>
			<g>
				<path fill="#FFFFFF" d="M4.648,16.119l1.991,1.692l-0.238,0.281c0,0-0.231,0.255,0.043,0.489s0.502-0.024,0.502-0.024
					l1.194-1.406c0,0,0.218-0.266-0.057-0.5c-0.274-0.233-0.489,0.036-0.489,0.036l-0.239,0.281l-1.99-1.691L4.648,16.119z"/>
			</g>
		</g>
		<g>
			<path fill="#FFFFFF" d="M-0.004,14.913c0.82,0.35,1.688,0.318,2.362,0.11c1.624-0.505,2.935,0.586,2.99,0.634l-0.322,0.382
				C5.016,16.03,3.86,15.082,2.507,15.5c-0.715,0.222-1.625,0.269-2.506-0.047L-0.004,14.913z"/>
		</g>
	</g>
</g>
</svg>
