<?xml version="1.0" encoding="utf-8"?>
<!-- Generator: Adobe Illustrator 16.0.3, SVG Export Plug-In . SVG Version: 6.00 Build 0)  -->
<!DOCTYPE svg PUBLIC "-//W3C//DTD SVG 1.1//EN" "http://www.w3.org/Graphics/SVG/1.1/DTD/svg11.dtd">
<svg version="1.1" xmlns="http://www.w3.org/2000/svg" xmlns:xlink="http://www.w3.org/1999/xlink" x="0px" y="0px" width="22.68px"
	 height="22.68px" viewBox="0 0 22.68 22.68" enable-background="new 0 0 22.68 22.68" xml:space="preserve">
<g id="BCGRND">
</g>
<g id="IKONY">
	<polygon fill="#585857" points="22.678,16.335 22.678,0 0,0 0,22.678 14.117,22.678 22.678,22.678 	"/>
	<g>
		<rect x="0" y="11.956" fill="#FFFFFF" width="22.678" height="0.889"/>
	</g>
	<g opacity="0.5">
		<path fill="#FFFFFF" d="M16.858,19.443c-0.094-0.529-0.223-1.027-0.385-1.48c-0.08-0.227-0.17-0.438-0.266-0.643
			c-0.09-0.191-0.186-0.374-0.287-0.544c-0.574-0.958-1.324-1.544-2.146-1.544c-0.824,0-1.572,0.586-2.146,1.545
			c0.092,0.172,0.18,0.355,0.262,0.545c0.176,0.408,0.324,0.854,0.445,1.33c0.195-0.377,0.422-0.713,0.678-0.951
			c0.279-0.272,0.584-0.415,0.801-0.459c0.217-0.051,0.348-0.023,0.346-0.033c0.002,0.009-0.131-0.002-0.334,0.074
			c-0.203,0.068-0.471,0.238-0.699,0.523c-0.293,0.354-0.512,0.867-0.664,1.432c0.133,0.693,0.207,1.439,0.207,2.223
			c0,0.418-0.028,0.822-0.069,1.217c1.456,0,3.19,0,4.369,0c0.042-0.395,0.069-0.799,0.069-1.217
			C17.037,20.754,16.973,20.076,16.858,19.443z"/>
	</g>
	<g>
		<path fill="#FFFFFF" d="M13.824,17.283c0.203-0.076,0.336-0.065,0.334-0.074c0.002,0.01-0.129-0.018-0.346,0.033
			c-0.217,0.044-0.521,0.187-0.801,0.459c-0.256,0.238-0.482,0.574-0.678,0.951c0.047,0.191,0.09,0.387,0.127,0.586
			c0.152-0.564,0.371-1.078,0.664-1.432C13.354,17.521,13.621,17.352,13.824,17.283z"/>
	</g>
	<g>
		<path fill="#FFFFFF" d="M18.694,17.283c0.203-0.076,0.336-0.065,0.334-0.074c0.002,0.01-0.129-0.018-0.346,0.033
			c-0.217,0.044-0.521,0.187-0.801,0.459c-0.256,0.238-0.482,0.574-0.678,0.951c0.047,0.191,0.09,0.387,0.127,0.586
			c0.152-0.564,0.371-1.078,0.664-1.432C18.223,17.521,18.49,17.352,18.694,17.283z"/>
	</g>
	<g>
		<path fill="#FFFFFF" d="M11.99,19.445c-0.094-0.529-0.223-1.027-0.385-1.482c-0.08-0.227-0.172-0.438-0.266-0.641
			c-0.092-0.193-0.188-0.375-0.289-0.545c-0.574-0.959-1.322-1.545-2.146-1.545c-0.822,0-1.572,0.586-2.146,1.544
			c0.094,0.173,0.18,0.354,0.262,0.545c0.176,0.407,0.326,0.853,0.447,1.331c0.195-0.377,0.42-0.713,0.676-0.951
			c0.279-0.272,0.584-0.415,0.803-0.459c0.217-0.051,0.346-0.023,0.344-0.033c0.002,0.009-0.129-0.002-0.332,0.074
			c-0.205,0.068-0.471,0.238-0.699,0.523c-0.293,0.353-0.514,0.865-0.664,1.43c0.133,0.693,0.207,1.439,0.207,2.225
			c0,0.418-0.028,0.822-0.068,1.217h3.527c0.254,0,0.541,0,0.839,0c0.042-0.395,0.069-0.799,0.069-1.217
			C12.168,20.754,12.104,20.078,11.99,19.445z"/>
	</g>
	<g>
		<polygon fill="#FFFFFF" points="3.008,12.609 2.857,13.411 3.368,14.049 2.565,13.898 1.928,14.408 2.079,13.606 1.568,12.969 
			2.371,13.119 		"/>
	</g>
	<g>
		<polygon fill="#FFFFFF" points="13.362,12.916 13.825,13.588 14.64,13.672 13.967,14.138 13.883,14.949 13.418,14.278 
			12.605,14.193 13.278,13.729 		"/>
	</g>
	<g>
		<polygon fill="#FFFFFF" points="6.496,13.82 6.961,14.492 7.776,14.576 7.102,15.041 7.018,15.854 6.554,15.182 5.74,15.098 
			6.412,14.632 		"/>
	</g>
	<g>
		<polygon fill="#FFFFFF" points="15.773,19.08 15.621,19.883 16.133,20.521 15.329,20.369 14.693,20.881 14.844,20.078 
			14.332,19.439 15.136,19.592 		"/>
	</g>
	<g>
		<polygon fill="#FFFFFF" points="20.214,15.052 20.386,15.85 21.106,16.24 20.306,16.412 19.917,17.129 19.745,16.332 
			19.026,15.941 19.825,15.77 		"/>
	</g>
	<g>
		<path fill="#FFFFFF" d="M2.025,2.04C2.24,2,2.537,1.971,2.943,1.971c0.439,0,0.762,0.093,0.972,0.269
			C4.11,2.401,4.237,2.66,4.237,2.967c0,0.313-0.098,0.571-0.283,0.747c-0.239,0.239-0.615,0.352-1.04,0.352
			c-0.112,0-0.215-0.005-0.293-0.02v1.24H2.025V2.04z M2.62,3.573c0.073,0.02,0.171,0.024,0.293,0.024
			c0.449,0,0.723-0.22,0.723-0.605c0-0.366-0.254-0.562-0.669-0.562c-0.166,0-0.283,0.015-0.347,0.029V3.573z"/>
		<path fill="#FFFFFF" d="M6.871,4.076c0,0.874-0.615,1.265-1.221,1.265c-0.674,0-1.191-0.464-1.191-1.226
			c0-0.781,0.514-1.26,1.23-1.26C6.399,2.855,6.871,3.353,6.871,4.076z M5.08,4.1c0,0.459,0.225,0.806,0.59,0.806
			c0.342,0,0.582-0.337,0.582-0.815c0-0.371-0.166-0.796-0.576-0.796C5.25,3.294,5.08,3.705,5.08,4.1z"/>
		<path fill="#FFFFFF" d="M7.368,1.82h0.605v3.467H7.368V1.82z"/>
		<path fill="#FFFFFF" d="M10.885,4.076c0,0.874-0.615,1.265-1.221,1.265c-0.674,0-1.191-0.464-1.191-1.226
			c0-0.781,0.514-1.26,1.23-1.26C10.412,2.855,10.885,3.353,10.885,4.076z M9.094,4.1c0,0.459,0.225,0.806,0.59,0.806
			c0.342,0,0.582-0.337,0.582-0.815c0-0.371-0.166-0.796-0.576-0.796C9.264,3.294,9.094,3.705,9.094,4.1z"/>
		<path fill="#FFFFFF" d="M11.724,2.909l0.386,1.206c0.068,0.21,0.117,0.4,0.161,0.596h0.015c0.044-0.195,0.098-0.381,0.161-0.596
			l0.376-1.206h0.635l-0.908,2.378h-0.591l-0.884-2.378H11.724z"/>
		<path fill="#FFFFFF" d="M14.466,2.245c0,0.181-0.132,0.322-0.342,0.322c-0.2,0-0.332-0.142-0.332-0.322
			c0-0.186,0.137-0.327,0.337-0.327C14.334,1.917,14.461,2.059,14.466,2.245z M13.826,5.287V2.909h0.605v2.378H13.826z"/>
		<path fill="#FFFFFF" d="M16.826,5.213c-0.127,0.059-0.376,0.122-0.674,0.122c-0.742,0-1.226-0.474-1.226-1.211
			c0-0.713,0.488-1.27,1.323-1.27c0.22,0,0.444,0.049,0.581,0.112l-0.107,0.449c-0.098-0.044-0.239-0.093-0.454-0.093
			c-0.459,0-0.732,0.337-0.728,0.771c0,0.488,0.317,0.767,0.728,0.767c0.21,0,0.356-0.044,0.474-0.093L16.826,5.213z M15.845,2.601
			l-0.474-0.723h0.41l0.269,0.444h0.01l0.264-0.444h0.41L16.26,2.601H15.845z"/>
		<path fill="#FFFFFF" d="M17.274,3.617c0-0.273-0.006-0.503-0.02-0.708h0.527l0.029,0.356h0.014c0.104-0.186,0.361-0.41,0.758-0.41
			c0.414,0,0.844,0.269,0.844,1.021v1.411h-0.6V3.944c0-0.342-0.127-0.601-0.455-0.601c-0.238,0-0.404,0.171-0.469,0.352
			c-0.02,0.054-0.023,0.127-0.023,0.195v1.396h-0.605V3.617z"/>
		<path fill="#FFFFFF" d="M20.07,5.287V2.909h0.605v2.378H20.07z M21.105,1.878l-0.601,0.723h-0.415l0.425-0.723H21.105z"/>
		<path fill="#FFFFFF" d="M5.565,8.117c0-0.273-0.006-0.503-0.02-0.708h0.527l0.029,0.356h0.014c0.104-0.186,0.361-0.41,0.758-0.41
			c0.414,0,0.844,0.269,0.844,1.021v1.411h-0.6V8.444c0-0.342-0.127-0.601-0.455-0.601c-0.238,0-0.404,0.171-0.469,0.352
			C6.174,8.249,6.17,8.322,6.17,8.39v1.396H5.565V8.117z"/>
		<path fill="#FFFFFF" d="M9.698,9.787L9.659,9.523H9.645C9.498,9.708,9.249,9.84,8.942,9.84c-0.479,0-0.747-0.347-0.747-0.708
			c0-0.601,0.532-0.903,1.411-0.898V8.195c0-0.156-0.063-0.415-0.483-0.415c-0.234,0-0.479,0.073-0.64,0.176L8.365,7.565
			c0.176-0.107,0.483-0.21,0.859-0.21c0.762,0,0.981,0.483,0.981,1.001v0.859c0,0.215,0.01,0.425,0.034,0.571H9.698z M9.62,8.625
			c-0.425-0.01-0.83,0.083-0.83,0.444c0,0.234,0.151,0.342,0.342,0.342c0.239,0,0.415-0.156,0.469-0.327
			C9.615,9.04,9.62,8.991,9.62,8.952V8.625z M9.991,6.378L9.391,7.101H8.976l0.425-0.723H9.991z"/>
		<path fill="#FFFFFF" d="M10.844,8.2c0-0.313-0.01-0.566-0.02-0.791h0.527l0.029,0.366h0.01c0.176-0.269,0.455-0.42,0.816-0.42
			c0.547,0,1,0.469,1,1.211c0,0.859-0.541,1.274-1.084,1.274c-0.297,0-0.547-0.127-0.668-0.317h-0.01v1.23h-0.602V8.2z
			 M11.446,8.791c0,0.059,0.004,0.112,0.02,0.166c0.059,0.244,0.273,0.42,0.527,0.42c0.381,0,0.605-0.317,0.605-0.786
			c0-0.42-0.205-0.762-0.592-0.762c-0.248,0-0.479,0.181-0.537,0.444c-0.014,0.049-0.023,0.103-0.023,0.151V8.791z"/>
		<path fill="#FFFFFF" d="M13.704,6.32h0.605v3.467h-0.605V6.32z"/>
		<path fill="#FFFFFF" d="M14.961,8.117c0-0.273-0.006-0.503-0.02-0.708h0.527l0.029,0.356h0.014c0.104-0.186,0.361-0.41,0.758-0.41
			c0.414,0,0.844,0.269,0.844,1.021v1.411h-0.6V8.444c0-0.342-0.127-0.601-0.455-0.601c-0.238,0-0.404,0.171-0.469,0.352
			c-0.02,0.054-0.023,0.127-0.023,0.195v1.396h-0.605V8.117z M15.824,7.101l-0.473-0.723h0.41l0.268,0.444h0.01l0.264-0.444h0.41
			L16.24,7.101H15.824z"/>
	</g>
	<g opacity="0.5">
		<path fill="#FFFFFF" d="M21.727,19.443c-0.094-0.529-0.223-1.027-0.385-1.48c-0.08-0.227-0.17-0.438-0.266-0.643
			c-0.09-0.191-0.186-0.374-0.287-0.544c-0.574-0.958-1.324-1.544-2.146-1.544c-0.824,0-1.572,0.586-2.146,1.545
			c0.092,0.172,0.18,0.355,0.262,0.545c0.176,0.408,0.324,0.854,0.445,1.33c0.195-0.377,0.422-0.713,0.678-0.951
			c0.279-0.272,0.584-0.415,0.801-0.459c0.217-0.051,0.348-0.023,0.346-0.033c0.002,0.009-0.131-0.002-0.334,0.074
			c-0.203,0.068-0.471,0.238-0.699,0.523c-0.293,0.354-0.512,0.867-0.664,1.432c0.133,0.693,0.207,1.439,0.207,2.223
			c0,0.418-0.028,0.822-0.069,1.217c1.456,0,3.19,0,4.369,0c0.042-0.395,0.069-0.799,0.069-1.217
			C21.906,20.754,21.842,20.076,21.727,19.443z"/>
	</g>
	<path fill="#FFFFFF" d="M7.123,19.443c-0.096-0.529-0.225-1.027-0.385-1.48c-0.082-0.227-0.172-0.438-0.268-0.643
		c-0.09-0.191-0.186-0.374-0.287-0.544c-0.574-0.958-1.322-1.544-2.146-1.544c-1.803,0-3.264,2.789-3.264,6.229
		c0,0.104,0.006,0.205,0.008,0.309c0,0.327,0.022,0.634,0.051,0.908h1.076c-0.017-0.104-0.029-0.184-0.029-0.184
		c-0.002-0.014-0.003-0.025-0.004-0.039c-0.029-0.227-0.008-0.465-0.01-0.711C1.862,21.496,1.887,21.24,1.91,21
		c0.033-0.262,0.072-0.521,0.127-0.773c0.215-1.014,0.666-1.988,1.238-2.525c0.279-0.272,0.584-0.415,0.803-0.459
		c0.217-0.051,0.346-0.023,0.344-0.033c0.002,0.009-0.129-0.002-0.332,0.074c-0.205,0.068-0.471,0.238-0.699,0.523
		c-0.471,0.566-0.777,1.531-0.859,2.496c-0.021,0.244-0.027,0.482-0.027,0.715c0.006,0.254,0.012,0.482,0.045,0.703
		c0.029,0.225,0.035,0.443,0.088,0.643c0.025,0.105,0.046,0.199,0.066,0.299c0.053,0.004,0.102,0.016,0.154,0.016h4.374
		c0.042-0.395,0.069-0.799,0.069-1.217C7.301,20.754,7.237,20.076,7.123,19.443z"/>
</g>
</svg>
