<?xml version="1.0" encoding="utf-8"?>
<!-- Generator: Adobe Illustrator 16.0.3, SVG Export Plug-In . SVG Version: 6.00 Build 0)  -->
<!DOCTYPE svg PUBLIC "-//W3C//DTD SVG 1.1//EN" "http://www.w3.org/Graphics/SVG/1.1/DTD/svg11.dtd">
<svg version="1.1" xmlns="http://www.w3.org/2000/svg" xmlns:xlink="http://www.w3.org/1999/xlink" x="0px" y="0px" width="22.68px"
	 height="22.68px" viewBox="0 0 22.68 22.68" enable-background="new 0 0 22.68 22.68" xml:space="preserve">
<g id="BCGRND">
</g>
<g id="IKONY">
	<rect x="0" fill="#585857" width="22.676" height="22.678"/>
	<g>
		<g>
			<rect x="0.002" y="11.956" fill="#FFFFFF" width="22.676" height="0.889"/>
		</g>
		<g>
			<path fill="#FFFFFF" d="M5.207,2.039C5.427,2,5.724,1.971,6.125,1.971c0.439,0,0.757,0.093,0.967,0.269
				C7.287,2.4,7.414,2.659,7.414,2.967c0,0.313-0.098,0.566-0.278,0.742C6.891,3.948,6.52,4.065,6.095,4.065
				c-0.112,0-0.21-0.005-0.293-0.024v1.245H5.207V2.039z M5.802,3.567c0.078,0.024,0.171,0.029,0.293,0.029
				c0.449,0,0.723-0.225,0.723-0.605c0-0.366-0.254-0.557-0.669-0.557c-0.166,0-0.283,0.015-0.347,0.029V3.567z"/>
			<path fill="#FFFFFF" d="M10.103,4.075c0,0.874-0.615,1.265-1.221,1.265c-0.669,0-1.191-0.459-1.191-1.226
				c0-0.781,0.513-1.26,1.23-1.26C9.629,2.854,10.103,3.353,10.103,4.075z M8.311,4.1c0,0.459,0.229,0.806,0.591,0.806
				c0.342,0,0.581-0.332,0.581-0.815c0-0.371-0.166-0.801-0.576-0.801C8.482,3.289,8.311,3.704,8.311,4.1z"/>
			<path fill="#FFFFFF" d="M12.777,4.573c0,0.283,0.01,0.518,0.02,0.713h-0.522L12.245,4.93H12.23
				c-0.103,0.166-0.337,0.41-0.767,0.41s-0.825-0.259-0.825-1.035V2.908h0.601v1.294c0,0.396,0.127,0.649,0.444,0.649
				c0.244,0,0.4-0.166,0.459-0.322c0.024-0.049,0.034-0.117,0.034-0.186V2.908h0.601V4.573z"/>
			<path fill="#FFFFFF" d="M13.254,4.939l0.894-1.143c0.122-0.146,0.225-0.264,0.347-0.4v-0.01h-1.152V2.908h1.885v0.366
				l-0.869,1.118c-0.117,0.142-0.229,0.278-0.352,0.405v0.01h1.25v0.479h-2.002V4.939z"/>
			<path fill="#FFFFFF" d="M16.118,4.266c0.015,0.43,0.347,0.615,0.732,0.615c0.278,0,0.474-0.044,0.659-0.107l0.088,0.41
				c-0.205,0.088-0.488,0.151-0.83,0.151c-0.771,0-1.226-0.474-1.226-1.201c0-0.659,0.4-1.279,1.162-1.279
				c0.771,0,1.025,0.635,1.025,1.157c0,0.112-0.01,0.2-0.02,0.254H16.118z M17.163,3.846c0.005-0.22-0.093-0.581-0.493-0.581
				c-0.371,0-0.527,0.337-0.552,0.581H17.163z"/>
			<path fill="#FFFFFF" d="M4.703,7.408l0.386,1.206c0.068,0.21,0.117,0.4,0.161,0.596h0.015c0.044-0.195,0.098-0.381,0.161-0.596
				l0.381-1.206h0.63L5.528,9.786H4.937L4.053,7.408H4.703z"/>
			<path fill="#FFFFFF" d="M10.86,8.106c0,1.104-0.669,1.733-1.572,1.733c-0.933,0-1.519-0.713-1.519-1.675
				c0-1.016,0.64-1.729,1.567-1.729C10.293,6.437,10.86,7.164,10.86,8.106z M8.404,8.15c0,0.674,0.337,1.206,0.913,1.206
				c0.581,0,0.908-0.542,0.908-1.23c0-0.62-0.308-1.206-0.908-1.206C8.721,6.92,8.404,7.472,8.404,8.15z"/>
			<path fill="#FFFFFF" d="M11.421,8.175c0-0.322-0.005-0.557-0.02-0.767h0.518l0.024,0.449h0.015
				c0.117-0.332,0.396-0.503,0.654-0.503c0.059,0,0.093,0.005,0.142,0.015v0.562c-0.054-0.01-0.107-0.015-0.181-0.015
				c-0.283,0-0.483,0.181-0.537,0.454c-0.01,0.054-0.015,0.117-0.015,0.181v1.235h-0.601V8.175z"/>
			<path fill="#FFFFFF" d="M13.591,8.766c0.015,0.43,0.347,0.615,0.732,0.615c0.278,0,0.474-0.044,0.659-0.107l0.088,0.41
				c-0.205,0.088-0.488,0.151-0.83,0.151c-0.771,0-1.226-0.474-1.226-1.201c0-0.659,0.4-1.279,1.162-1.279
				c0.771,0,1.025,0.635,1.025,1.157c0,0.112-0.01,0.2-0.02,0.254H13.591z M14.636,8.346c0.005-0.22-0.093-0.581-0.493-0.581
				c-0.371,0-0.527,0.337-0.552,0.581H14.636z"/>
			<path fill="#FFFFFF" d="M15.713,9.229c0.132,0.083,0.391,0.176,0.605,0.176c0.264,0,0.381-0.112,0.381-0.269
				c0-0.161-0.098-0.239-0.391-0.347c-0.464-0.156-0.654-0.41-0.654-0.693c0-0.42,0.347-0.742,0.898-0.742
				c0.264,0,0.493,0.063,0.635,0.142l-0.122,0.42c-0.098-0.059-0.293-0.137-0.503-0.137c-0.215,0-0.332,0.107-0.332,0.254
				c0,0.151,0.112,0.22,0.415,0.332c0.435,0.151,0.63,0.371,0.635,0.723c0,0.435-0.337,0.747-0.967,0.747
				c-0.288,0-0.547-0.068-0.723-0.166L15.713,9.229z"/>
			<path fill="#FFFFFF" d="M18.465,6.744c0,0.176-0.132,0.322-0.342,0.322c-0.2,0-0.332-0.146-0.332-0.322
				c0-0.186,0.137-0.327,0.337-0.327C18.333,6.417,18.46,6.559,18.465,6.744z M17.825,9.786V7.408h0.601v2.378H17.825z"/>
		</g>
		<g>
			<path fill="#FFFFFF" d="M16.447,14.729c-0.5,0-0.906,0.404-0.906,0.908c0,0.207,0.074,0.396,0.193,0.551
				c-0.514,0.436-1.141,1.088-1.682,1.863c0.314,0.182,0.465,0.521,0.465,0.914c0,0.586-0.473,1.059-1.059,1.059
				c-0.584,0-1.059-0.473-1.059-1.059c0-0.453,0.221-0.838,0.619-0.99c-0.285-0.707-0.656-1.688-1.191-2.6
				c0.252-0.16,0.42-0.441,0.42-0.764c0-0.5-0.406-0.906-0.908-0.906c-0.5,0-0.906,0.406-0.906,0.906
				c0,0.322,0.168,0.604,0.42,0.764c-0.535,0.912-0.908,1.893-1.193,2.6c0.398,0.152,0.619,0.537,0.619,0.99
				c0,0.586-0.473,1.059-1.059,1.059c-0.584,0-1.059-0.473-1.059-1.059c0-0.393,0.15-0.732,0.467-0.914
				c-0.543-0.775-1.17-1.428-1.682-1.863c0.119-0.154,0.191-0.344,0.191-0.551c0-0.504-0.404-0.908-0.906-0.908
				s-0.908,0.404-0.908,0.908c0,0.498,0.406,0.906,0.908,0.906c0.051,0,0.096-0.006,0.145-0.016
				c0.135,1.068,0.314,3.219,0.314,4.555h9.297c0-1.336,0.18-3.486,0.314-4.555c0.049,0.01,0.094,0.016,0.145,0.016
				c0.502,0,0.908-0.408,0.908-0.906C17.355,15.133,16.949,14.729,16.447,14.729z"/>
		</g>
	</g>
</g>
</svg>
