<?xml version="1.0" encoding="utf-8"?>
<!-- Generator: Adobe Illustrator 16.0.3, SVG Export Plug-In . SVG Version: 6.00 Build 0)  -->
<!DOCTYPE svg PUBLIC "-//W3C//DTD SVG 1.1//EN" "http://www.w3.org/Graphics/SVG/1.1/DTD/svg11.dtd">
<svg version="1.1" xmlns="http://www.w3.org/2000/svg" xmlns:xlink="http://www.w3.org/1999/xlink" x="0px" y="0px" width="22.68px"
	 height="22.68px" viewBox="0 0 22.68 22.68" enable-background="new 0 0 22.68 22.68" xml:space="preserve">
<g id="BCGRND">
</g>
<g id="BAREVNE_BCGRND">
	<g>
		<polygon fill="#585857" points="0,0 0,22.678 14.117,22.678 22.678,22.678 22.678,16.335 22.678,0 		"/>
	</g>
</g>
<g id="IKONY">
	<g>
		<g>
			<rect y="14.018" fill="#FFFFFF" width="22.678" height="0.889"/>
			<g>
				<g>
					<path fill="#FFFFFF" d="M1.258,20.257v-0.366l0.375-0.347c0.748-0.693,1.1-1.074,1.104-1.494c0-0.283-0.15-0.532-0.566-0.532
						c-0.277,0-0.518,0.142-0.678,0.264l-0.176-0.425c0.229-0.186,0.576-0.327,0.977-0.327c0.703,0,1.045,0.444,1.045,0.962
						c0,0.557-0.4,1.006-0.953,1.519L2.107,19.75v0.01H3.41v0.498H1.258z"/>
					<path fill="#FFFFFF" d="M3.951,19.637c0.122,0.073,0.42,0.195,0.723,0.195c0.459,0,0.645-0.259,0.64-0.508
						c0-0.376-0.352-0.537-0.718-0.537H4.317v-0.439h0.269c0.278,0,0.63-0.127,0.63-0.444c0-0.215-0.161-0.396-0.508-0.396
						c-0.259,0-0.518,0.112-0.649,0.2l-0.137-0.435c0.181-0.127,0.532-0.244,0.913-0.244c0.654,0,0.991,0.361,0.991,0.776
						c0,0.332-0.195,0.605-0.586,0.742v0.01c0.386,0.068,0.698,0.361,0.698,0.791c0,0.537-0.449,0.962-1.235,0.962
						c-0.386,0-0.718-0.107-0.889-0.22L3.951,19.637z"/>
					<path fill="#FFFFFF" d="M8.642,18.651c0,1.021-0.4,1.66-1.157,1.66c-0.732,0-1.123-0.664-1.128-1.631
						c0-0.986,0.42-1.65,1.162-1.65C8.285,17.03,8.642,17.713,8.642,18.651z M6.962,18.68c-0.005,0.771,0.21,1.172,0.542,1.172
						c0.352,0,0.537-0.43,0.537-1.191c0-0.737-0.176-1.172-0.537-1.172C7.182,17.489,6.957,17.884,6.962,18.68z"/>
					<path fill="#FFFFFF" d="M8.703,20.453l1.191-3.54h0.42l-1.191,3.54H8.703z"/>
					<path fill="#FFFFFF" d="M11.601,20.257v-0.806h-1.436v-0.391l1.294-1.978h0.708v1.914h0.41v0.454h-0.41v0.806H11.601z
						 M11.601,18.998v-0.864c0-0.181,0.005-0.366,0.02-0.552h-0.02c-0.098,0.2-0.181,0.361-0.278,0.537l-0.581,0.869l-0.005,0.01
						H11.601z"/>
					<path fill="#FFFFFF" d="M15.09,18.651c0,1.021-0.4,1.66-1.156,1.66c-0.732,0-1.123-0.664-1.129-1.631
						c0-0.986,0.42-1.65,1.162-1.65C14.734,17.03,15.09,17.713,15.09,18.651z M13.41,18.68c-0.004,0.771,0.211,1.172,0.543,1.172
						c0.352,0,0.537-0.43,0.537-1.191c0-0.737-0.176-1.172-0.537-1.172C13.631,17.489,13.406,17.884,13.41,18.68z"/>
					<path fill="#FFFFFF" d="M17.662,18.651c0,1.021-0.4,1.66-1.158,1.66c-0.732,0-1.123-0.664-1.127-1.631
						c0-0.986,0.42-1.65,1.162-1.65C17.305,17.03,17.662,17.713,17.662,18.651z M15.982,18.68c-0.006,0.771,0.209,1.172,0.541,1.172
						c0.352,0,0.537-0.43,0.537-1.191c0-0.737-0.176-1.172-0.537-1.172C16.201,17.489,15.977,17.884,15.982,18.68z"/>
					<path fill="#FFFFFF" d="M19.814,20.257l-1.064-3.291h0.654l0.449,1.494c0.127,0.415,0.234,0.801,0.322,1.201h0.01
						c0.088-0.391,0.205-0.791,0.337-1.191l0.479-1.504h0.64l-1.138,3.291H19.814z"/>
				</g>
			</g>
			<path fill="#FFFFFF" d="M19.398,0.002L17.83,0.008c0.178,1.22,0.011,2.259-0.501,3.1c-0.934,1.534-2.755,2-3.089,2.074
				L14.011,4.43l-0.919-0.486l-1.719,0.524l-1.352-0.469L7.787,4.682L7.646,4.219L6.49,4.572l0.141,0.463l0.032,0.105l0.23,0.749
				L4.194,6.715C3.973,6.782,3.848,7.018,3.915,7.239c0.067,0.223,0.304,0.347,0.524,0.278l2.698-0.824l0.317,1.045l0.176,0.576
				L7.95,9.359l-2.696,0.822c-0.223,0.068-0.349,0.303-0.279,0.525c0.066,0.223,0.303,0.347,0.523,0.278l2.697-0.822l0.229,0.747
				l0.033,0.108L8.6,11.48l1.154-0.352l-0.141-0.465l2.234-0.68l0.86-1.144l1.72-0.524l0.489-0.919l-0.222-0.725
				c0.717-0.177,2.784-0.835,3.953-2.741C19.33,2.821,19.58,1.504,19.398,0.002z"/>
		</g>
	</g>
</g>
</svg>
