<?xml version="1.0" encoding="utf-8"?>
<!-- Generator: Adobe Illustrator 16.0.3, SVG Export Plug-In . SVG Version: 6.00 Build 0)  -->
<!DOCTYPE svg PUBLIC "-//W3C//DTD SVG 1.1//EN" "http://www.w3.org/Graphics/SVG/1.1/DTD/svg11.dtd">
<svg version="1.1" xmlns="http://www.w3.org/2000/svg" xmlns:xlink="http://www.w3.org/1999/xlink" x="0px" y="0px" width="22.68px"
	 height="22.68px" viewBox="0 0 22.68 22.68" enable-background="new 0 0 22.68 22.68" xml:space="preserve">
<g id="BCGRND">
</g>
<g id="BAREVNE_BCGRND">
	<polygon fill="#585857" points="22.68,16.335 22.68,0 0.002,0 0.002,22.678 14.119,22.678 22.68,22.678 	"/>
</g>
<g id="IKONY">
	<g>
		<g>
			<g>
				<rect x="0.002" y="11.956" fill="#FFFFFF" width="22.678" height="0.889"/>
			</g>
			<g>
				<path fill="#FFFFFF" d="M5.092,2.039C5.307,2,5.604,1.971,6.01,1.971c0.439,0,0.762,0.093,0.972,0.269
					C7.177,2.4,7.304,2.659,7.304,2.967c0,0.313-0.098,0.571-0.283,0.747C6.781,3.953,6.405,4.065,5.98,4.065
					c-0.112,0-0.215-0.005-0.293-0.02v1.24H5.092V2.039z M5.687,3.572c0.073,0.02,0.171,0.024,0.293,0.024
					c0.449,0,0.723-0.22,0.723-0.605c0-0.366-0.254-0.562-0.669-0.562c-0.166,0-0.283,0.015-0.347,0.029V3.572z"/>
				<path fill="#FFFFFF" d="M9.939,4.075c0,0.874-0.615,1.265-1.221,1.265c-0.674,0-1.191-0.464-1.191-1.226
					c0-0.781,0.513-1.26,1.23-1.26C9.465,2.854,9.939,3.353,9.939,4.075z M8.147,4.1c0,0.459,0.225,0.806,0.591,0.806
					c0.342,0,0.581-0.337,0.581-0.815c0-0.371-0.166-0.796-0.576-0.796C8.318,3.294,8.147,3.704,8.147,4.1z"/>
				<path fill="#FFFFFF" d="M10.758,2.908l0.249,1.079c0.054,0.254,0.107,0.513,0.151,0.771h0.01
					c0.049-0.259,0.127-0.522,0.195-0.767l0.308-1.084h0.488l0.298,1.055c0.073,0.278,0.137,0.537,0.19,0.796h0.01
					c0.039-0.259,0.093-0.518,0.156-0.796l0.264-1.055h0.591l-0.747,2.378h-0.557l-0.283-0.967C12.008,4.07,11.954,3.846,11.9,3.558
					h-0.01c-0.049,0.293-0.112,0.527-0.181,0.762l-0.303,0.967h-0.562l-0.703-2.378H10.758z"/>
				<path fill="#FFFFFF" d="M14.419,4.266c0.015,0.43,0.352,0.615,0.732,0.615c0.278,0,0.479-0.039,0.659-0.107l0.088,0.415
					c-0.205,0.083-0.488,0.146-0.83,0.146c-0.771,0-1.226-0.474-1.226-1.201c0-0.659,0.4-1.279,1.162-1.279
					c0.771,0,1.025,0.635,1.025,1.157c0,0.112-0.01,0.2-0.02,0.254H14.419z M15.464,3.846c0.005-0.22-0.093-0.581-0.493-0.581
					c-0.371,0-0.527,0.337-0.552,0.581H15.464z"/>
				<path fill="#FFFFFF" d="M16.517,3.675c0-0.322-0.005-0.552-0.02-0.767h0.522l0.02,0.454h0.02
					c0.117-0.337,0.396-0.508,0.649-0.508c0.059,0,0.093,0.005,0.142,0.015v0.566c-0.049-0.01-0.103-0.02-0.176-0.02
					c-0.288,0-0.483,0.186-0.537,0.454c-0.01,0.054-0.02,0.117-0.02,0.186v1.23h-0.601V3.675z"/>
				<path fill="#FFFFFF" d="M0.932,6.539C1.122,6.5,1.469,6.471,1.806,6.471c0.444,0,0.718,0.054,0.942,0.21
					C2.953,6.803,3.09,7.018,3.09,7.296c0,0.303-0.19,0.581-0.547,0.713v0.01C2.89,8.106,3.207,8.38,3.207,8.834
					c0,0.293-0.127,0.522-0.317,0.679C2.655,9.718,2.269,9.82,1.669,9.82c-0.332,0-0.586-0.024-0.737-0.044V6.539z M1.527,7.838
					h0.308c0.415,0,0.649-0.195,0.649-0.474c0-0.308-0.234-0.449-0.615-0.449c-0.176,0-0.278,0.01-0.342,0.024V7.838z M1.527,9.352
					c0.078,0.01,0.181,0.015,0.317,0.015c0.386,0,0.728-0.146,0.728-0.552c0-0.381-0.332-0.537-0.747-0.537H1.527V9.352z"/>
				<path fill="#FFFFFF" d="M5.911,8.575c0,0.874-0.615,1.265-1.221,1.265c-0.674,0-1.191-0.464-1.191-1.226
					c0-0.781,0.513-1.26,1.23-1.26C5.437,7.354,5.911,7.853,5.911,8.575z M4.119,8.6c0,0.459,0.225,0.806,0.591,0.806
					c0.342,0,0.581-0.337,0.581-0.815c0-0.371-0.166-0.796-0.576-0.796C4.289,7.794,4.119,8.204,4.119,8.6z"/>
				<path fill="#FFFFFF" d="M8.57,8.575c0,0.874-0.615,1.265-1.221,1.265c-0.674,0-1.191-0.464-1.191-1.226
					c0-0.781,0.513-1.26,1.23-1.26C8.097,7.354,8.57,7.853,8.57,8.575z M6.778,8.6c0,0.459,0.225,0.806,0.591,0.806
					c0.342,0,0.581-0.337,0.581-0.815c0-0.371-0.166-0.796-0.576-0.796C6.949,7.794,6.778,8.204,6.778,8.6z"/>
				<path fill="#FFFFFF" d="M8.94,9.234c0.137,0.083,0.396,0.171,0.61,0.171c0.264,0,0.381-0.107,0.381-0.264
					c0-0.161-0.098-0.244-0.391-0.347C9.077,8.634,8.881,8.38,8.886,8.102c0-0.42,0.347-0.747,0.898-0.747
					c0.264,0,0.493,0.068,0.63,0.142l-0.117,0.425c-0.103-0.059-0.293-0.137-0.503-0.137c-0.215,0-0.332,0.103-0.332,0.249
					c0,0.151,0.112,0.225,0.415,0.332c0.43,0.156,0.63,0.376,0.635,0.728c0,0.43-0.337,0.742-0.967,0.742
					c-0.288,0-0.547-0.068-0.723-0.166L8.94,9.234z"/>
				<path fill="#FFFFFF" d="M11.598,6.729v0.679h0.571v0.449h-0.571v1.05c0,0.288,0.078,0.439,0.308,0.439
					c0.103,0,0.181-0.015,0.234-0.029l0.01,0.459c-0.088,0.034-0.244,0.059-0.435,0.059c-0.22,0-0.405-0.073-0.518-0.195
					c-0.127-0.137-0.186-0.352-0.186-0.664V7.857H10.67V7.408h0.342V6.871L11.598,6.729z"/>
				<path fill="#FFFFFF" d="M12.924,8.766c0.015,0.43,0.352,0.615,0.732,0.615c0.278,0,0.479-0.039,0.659-0.107l0.088,0.415
					c-0.205,0.083-0.488,0.146-0.83,0.146c-0.771,0-1.226-0.474-1.226-1.201c0-0.659,0.4-1.279,1.162-1.279
					c0.771,0,1.025,0.635,1.025,1.157c0,0.112-0.01,0.2-0.02,0.254H12.924z M13.969,8.346c0.005-0.22-0.093-0.581-0.493-0.581
					c-0.371,0-0.527,0.337-0.552,0.581H13.969z"/>
				<path fill="#FFFFFF" d="M14.924,8.175c0-0.322-0.005-0.552-0.02-0.767h0.522l0.02,0.454h0.02
					c0.117-0.337,0.396-0.508,0.649-0.508c0.059,0,0.093,0.005,0.142,0.015v0.566c-0.049-0.01-0.103-0.02-0.176-0.02
					c-0.288,0-0.483,0.186-0.537,0.454c-0.01,0.054-0.02,0.117-0.02,0.186v1.23h-0.601V8.175z"/>
				<path fill="#FFFFFF" d="M18.691,9.786V8.98h-1.436V8.59l1.294-1.978h0.708v1.914h0.41V8.98h-0.41v0.806H18.691z M18.691,8.526
					V7.662c0-0.181,0.005-0.366,0.02-0.552h-0.02c-0.098,0.2-0.181,0.361-0.278,0.537l-0.581,0.869l-0.005,0.01H18.691z"/>
				<path fill="#FFFFFF" d="M20.404,7.408l0.283,0.449c0.078,0.127,0.146,0.244,0.215,0.366h0.015
					c0.068-0.132,0.137-0.254,0.205-0.376l0.264-0.439h0.654l-0.796,1.143l0.811,1.235h-0.679l-0.293-0.474
					c-0.078-0.127-0.146-0.254-0.215-0.386h-0.01c-0.068,0.137-0.137,0.254-0.215,0.386L20.37,9.786h-0.664l0.825-1.211
					l-0.796-1.167H20.404z"/>
			</g>
		</g>
		<g>
			<defs>
				<rect id="SVGID_101_" x="0.002" y="12.4" width="22.678" height="10.277"/>
			</defs>
			<clipPath id="SVGID_2_">
				<use xlink:href="#SVGID_101_"  overflow="visible"/>
			</clipPath>
			<g clip-path="url(#SVGID_2_)">
				<g>
					<rect x="0.002" y="20.268" fill="#FFFFFF" width="4.297" height="1"/>
				</g>
				<g>
					<rect x="6.129" y="20.268" fill="#FFFFFF" width="4.297" height="1"/>
				</g>
				<g>
					<rect x="12.256" y="20.268" fill="#FFFFFF" width="4.297" height="1"/>
				</g>
				<g>
					<rect x="18.383" y="20.268" fill="#FFFFFF" width="4.297" height="1"/>
				</g>
				<g>
					<polyline fill="none" stroke="#FFFFFF" stroke-linecap="round" stroke-miterlimit="10" points="0.002,18.546 2.151,17.105 
						4.299,18.546 					"/>
					<polyline fill="none" stroke="#FFFFFF" stroke-linecap="round" stroke-miterlimit="10" points="0.002,16.058 2.151,14.617 
						4.299,16.058 					"/>
				</g>
				<g>
					<polyline fill="none" stroke="#FFFFFF" stroke-linecap="round" stroke-miterlimit="10" points="12.256,18.546 14.404,17.105 
						16.553,18.546 					"/>
					<polyline fill="none" stroke="#FFFFFF" stroke-linecap="round" stroke-miterlimit="10" points="12.256,16.058 14.404,14.617 
						16.553,16.058 					"/>
				</g>
				<g>
					<polyline fill="none" stroke="#FFFFFF" stroke-linecap="round" stroke-miterlimit="10" points="18.383,18.546 20.531,17.105 
						22.68,18.546 					"/>
					<polyline fill="none" stroke="#FFFFFF" stroke-linecap="round" stroke-miterlimit="10" points="18.383,16.058 20.531,14.617 
						22.68,16.058 					"/>
				</g>
				<g>
					<polyline fill="none" stroke="#FFFFFF" stroke-linecap="round" stroke-miterlimit="10" points="6.129,18.546 8.277,17.105 
						10.426,18.546 					"/>
					<polyline fill="none" stroke="#FFFFFF" stroke-linecap="round" stroke-miterlimit="10" points="6.129,16.058 8.277,14.617 
						10.426,16.058 					"/>
				</g>
				<rect x="5.007" y="20.268" opacity="0.5" fill="#FFFFFF" width="0.414" height="1"/>
				<rect x="11.134" y="20.268" opacity="0.5" fill="#FFFFFF" width="0.414" height="1"/>
				<rect x="17.261" y="20.268" opacity="0.5" fill="#FFFFFF" width="0.414" height="1"/>
			</g>
		</g>
	</g>
</g>
</svg>
