<?xml version="1.0" encoding="utf-8"?>
<!-- Generator: Adobe Illustrator 16.0.3, SVG Export Plug-In . SVG Version: 6.00 Build 0)  -->
<!DOCTYPE svg PUBLIC "-//W3C//DTD SVG 1.1//EN" "http://www.w3.org/Graphics/SVG/1.1/DTD/svg11.dtd">
<svg version="1.1" xmlns="http://www.w3.org/2000/svg" xmlns:xlink="http://www.w3.org/1999/xlink" x="0px" y="0px" width="22.68px"
	 height="22.68px" viewBox="0 0 22.68 22.68" enable-background="new 0 0 22.68 22.68" xml:space="preserve">
<g id="BCGRND">
</g>
<g id="IKONY">
	<rect x="0" fill="#585857" width="22.676" height="22.678"/>
	<g>
		<g>
			<rect x="0.002" y="14.019" fill="#FFFFFF" width="22.677" height="0.889"/>
		</g>
		<g>
			<path fill="#FFFFFF" d="M5.451,19.974v-0.366l0.375-0.347c0.748-0.693,1.1-1.074,1.104-1.494c0-0.283-0.15-0.532-0.566-0.532
				c-0.283,0-0.518,0.142-0.678,0.264L5.51,17.073c0.229-0.186,0.576-0.327,0.977-0.327c0.703,0,1.045,0.444,1.045,0.962
				c0,0.557-0.4,1.006-0.957,1.519l-0.273,0.239v0.01h1.299v0.498H5.451z"/>
			<path fill="#FFFFFF" d="M8.291,19.354c0.122,0.073,0.42,0.195,0.723,0.195c0.459,0,0.64-0.259,0.64-0.508
				c0-0.376-0.356-0.537-0.723-0.537H8.657v-0.439H8.93c0.273,0,0.625-0.127,0.625-0.439c0-0.22-0.156-0.4-0.508-0.4
				c-0.259,0-0.518,0.112-0.649,0.2L8.261,16.99c0.181-0.122,0.537-0.244,0.913-0.244c0.659,0,0.991,0.361,0.991,0.776
				c0,0.332-0.195,0.605-0.586,0.742v0.01c0.386,0.073,0.693,0.361,0.698,0.791c0,0.537-0.449,0.962-1.235,0.962
				c-0.386,0-0.718-0.107-0.889-0.22L8.291,19.354z"/>
			<path fill="#FFFFFF" d="M13.129,18.362c0,1.025-0.4,1.665-1.162,1.665c-0.729,0-1.119-0.664-1.123-1.631
				c0-0.991,0.42-1.65,1.162-1.65C12.771,16.746,13.129,17.43,13.129,18.362z M11.449,18.392c0,0.776,0.209,1.177,0.537,1.177
				c0.355,0,0.537-0.43,0.537-1.191c0-0.737-0.172-1.172-0.533-1.172C11.674,17.205,11.449,17.601,11.449,18.392z"/>
			<path fill="#FFFFFF" d="M15.427,19.974l-1.064-3.291h0.654l0.449,1.499c0.127,0.415,0.239,0.796,0.322,1.196h0.01
				c0.088-0.391,0.21-0.791,0.337-1.191l0.479-1.504h0.64l-1.138,3.291H15.427z"/>
		</g>
		<g>
			<path fill="#FFFFFF" d="M19.4,0.002l-1.57,0.006c0.179,1.219,0.012,2.258-0.5,3.1c-0.934,1.535-2.758,2.001-3.089,2.074
				L14.011,4.43l-0.92-0.486l-1.718,0.523l-1.352-0.469L7.788,4.682L7.646,4.219L6.491,4.572l0.14,0.463l0.033,0.105l0.23,0.748
				L4.195,6.715C3.972,6.781,3.848,7.018,3.916,7.238c0.068,0.223,0.303,0.348,0.525,0.279l2.697-0.824l0.318,1.045l0.175,0.576
				l0.319,1.045l-2.697,0.822c-0.222,0.068-0.348,0.303-0.279,0.525c0.066,0.223,0.304,0.346,0.524,0.277l2.697-0.822l0.229,0.748
				l0.032,0.107l0.142,0.463l1.155-0.352l-0.141-0.465l2.234-0.68l0.86-1.145l1.72-0.523l0.489-0.92l-0.221-0.724
				c0.716-0.177,2.783-0.836,3.952-2.741C19.331,2.82,19.582,1.504,19.4,0.002z"/>
		</g>
	</g>
</g>
</svg>
