<?xml version="1.0" encoding="utf-8"?>
<!-- Generator: Adobe Illustrator 16.0.3, SVG Export Plug-In . SVG Version: 6.00 Build 0)  -->
<!DOCTYPE svg PUBLIC "-//W3C//DTD SVG 1.1//EN" "http://www.w3.org/Graphics/SVG/1.1/DTD/svg11.dtd">
<svg version="1.1" xmlns="http://www.w3.org/2000/svg" xmlns:xlink="http://www.w3.org/1999/xlink" x="0px" y="0px" width="22.68px"
	 height="22.68px" viewBox="0 0 22.68 22.68" enable-background="new 0 0 22.68 22.68" xml:space="preserve">
<g id="BCGRND">
</g>
<g id="IKONY">
	<g>
		<rect fill="#585857" width="22.676" height="22.678"/>
		<g>
			<g>
				<g>
					<rect y="11.956" fill="#FFFFFF" width="22.678" height="0.889"/>
				</g>
				<g>
					<g>
						<path fill="#FFFFFF" d="M4.859,2.039C5.074,2,5.372,1.971,5.777,1.971c0.439,0,0.762,0.093,0.972,0.269
							C6.944,2.4,7.071,2.659,7.071,2.967c0,0.313-0.098,0.571-0.283,0.747c-0.239,0.239-0.615,0.352-1.04,0.352
							c-0.112,0-0.215-0.005-0.293-0.02v1.24H4.859V2.039z M5.455,3.572c0.073,0.02,0.171,0.024,0.293,0.024
							c0.449,0,0.723-0.22,0.723-0.605c0-0.366-0.254-0.562-0.669-0.562c-0.166,0-0.283,0.015-0.347,0.029V3.572z"/>
						<path fill="#FFFFFF" d="M9.854,4.075c0,0.874-0.615,1.265-1.221,1.265c-0.674,0-1.191-0.464-1.191-1.226
							c0-0.781,0.513-1.26,1.23-1.26C9.381,2.854,9.854,3.353,9.854,4.075z M8.063,4.1c0,0.459,0.225,0.806,0.591,0.806
							c0.342,0,0.581-0.337,0.581-0.815c0-0.371-0.166-0.796-0.576-0.796C8.233,3.294,8.063,3.704,8.063,4.1z"/>
						<path fill="#FFFFFF" d="M10.765,2.908l0.249,1.079c0.054,0.254,0.107,0.513,0.151,0.771h0.01
							c0.049-0.259,0.127-0.522,0.195-0.767l0.308-1.084h0.488l0.298,1.055c0.073,0.278,0.137,0.537,0.19,0.796h0.01
							c0.039-0.259,0.093-0.518,0.156-0.796l0.264-1.055h0.591l-0.747,2.378h-0.557l-0.283-0.967
							c-0.073-0.249-0.127-0.474-0.181-0.762h-0.01c-0.049,0.293-0.112,0.527-0.181,0.762l-0.303,0.967h-0.562l-0.703-2.378H10.765z
							"/>
						<path fill="#FFFFFF" d="M14.543,4.266c0.014,0.43,0.352,0.615,0.732,0.615c0.277,0,0.479-0.039,0.658-0.107l0.088,0.415
							c-0.205,0.083-0.488,0.146-0.83,0.146c-0.771,0-1.225-0.474-1.225-1.201c0-0.659,0.4-1.279,1.162-1.279
							c0.771,0,1.025,0.635,1.025,1.157c0,0.112-0.01,0.2-0.02,0.254H14.543z M15.588,3.846c0.004-0.22-0.094-0.581-0.494-0.581
							c-0.371,0-0.527,0.337-0.551,0.581H15.588z"/>
						<path fill="#FFFFFF" d="M16.746,3.675c0-0.322-0.004-0.552-0.02-0.767h0.523l0.02,0.454h0.02
							c0.117-0.337,0.395-0.508,0.648-0.508c0.059,0,0.094,0.005,0.143,0.015v0.566c-0.049-0.01-0.104-0.02-0.176-0.02
							c-0.289,0-0.484,0.186-0.537,0.454c-0.01,0.054-0.02,0.117-0.02,0.186v1.23h-0.602V3.675z"/>
						<path fill="#FFFFFF" d="M6.679,8.443C6.659,8.019,6.635,7.506,6.64,7.062H6.625c-0.107,0.4-0.244,0.845-0.391,1.26
							L5.756,9.747H5.292L4.853,8.341c-0.127-0.42-0.244-0.869-0.332-1.279h-0.01c-0.015,0.43-0.034,0.952-0.059,1.401L4.379,9.786
							H3.817l0.22-3.291h0.791l0.43,1.323c0.117,0.386,0.22,0.776,0.303,1.143h0.015c0.088-0.356,0.2-0.762,0.327-1.147l0.454-1.318
							h0.781l0.19,3.291H6.742L6.679,8.443z"/>
						<path fill="#FFFFFF" d="M10.291,8.575c0,0.874-0.615,1.265-1.221,1.265c-0.674,0-1.191-0.464-1.191-1.226
							c0-0.781,0.514-1.26,1.23-1.26C9.818,7.354,10.291,7.853,10.291,8.575z M8.5,8.6c0,0.459,0.225,0.806,0.59,0.806
							c0.342,0,0.582-0.337,0.582-0.815c0-0.371-0.166-0.796-0.576-0.796C8.67,7.794,8.5,8.204,8.5,8.6z"/>
						<path fill="#FFFFFF" d="M11.206,7.408l0.386,1.206c0.068,0.21,0.117,0.4,0.161,0.596h0.015
							c0.044-0.195,0.098-0.381,0.161-0.596l0.376-1.206h0.635l-0.908,2.378H11.44l-0.884-2.378H11.206z"/>
						<path fill="#FFFFFF" d="M13.764,8.766c0.015,0.43,0.352,0.615,0.732,0.615c0.278,0,0.479-0.039,0.659-0.107l0.088,0.415
							c-0.205,0.083-0.488,0.146-0.83,0.146c-0.771,0-1.226-0.474-1.226-1.201c0-0.659,0.4-1.279,1.162-1.279
							c0.771,0,1.025,0.635,1.025,1.157c0,0.112-0.01,0.2-0.02,0.254H13.764z M14.809,8.346c0.005-0.22-0.093-0.581-0.493-0.581
							c-0.371,0-0.527,0.337-0.552,0.581H14.809z"/>
						<path fill="#FFFFFF" d="M17.864,7.188v1.104h1.06v0.381h-1.06v1.113h-0.4V8.673h-1.06V8.292h1.06V7.188H17.864z"/>
					</g>
				</g>
			</g>
			<g>
				<g>
					<g>
						<rect x="10.228" y="17.008" fill="#FFFFFF" width="1.65" height="0.5"/>
					</g>
					<g>
						<g>
							<polygon fill="#FFFFFF" points="11.776,16.499 11.776,18.017 12.535,17.258 							"/>
						</g>
					</g>
				</g>
				<g>
					<g>
						<rect x="10.228" y="19.095" fill="#FFFFFF" width="1.65" height="0.5"/>
					</g>
					<g>
						<g>
							<polygon fill="#FFFFFF" points="11.776,18.585 11.776,20.104 12.535,19.345 							"/>
						</g>
					</g>
				</g>
				<g>
					<g>
						<rect x="10.228" y="21.183" fill="#FFFFFF" width="1.65" height="0.5"/>
					</g>
					<g>
						<g>
							<polygon fill="#FFFFFF" points="11.776,20.673 11.776,22.192 12.535,21.433 							"/>
						</g>
					</g>
				</g>
			</g>
			<g>
				<g>
					<circle fill="#FFFFFF" cx="6.612" cy="19.345" r="0.604"/>
				</g>
				<g>
					<path fill="#FFFFFF" d="M6.612,21.013c-0.919,0-1.666-0.748-1.666-1.667c0-0.919,0.747-1.667,1.666-1.667
						s1.666,0.748,1.666,1.667C8.278,20.265,7.531,21.013,6.612,21.013z M6.612,18.178c-0.643,0-1.166,0.524-1.166,1.167
						s0.523,1.167,1.166,1.167s1.166-0.523,1.166-1.167S7.255,18.178,6.612,18.178z"/>
				</g>
				<g>
					<path fill="#FFFFFF" d="M6.612,22.078c-1.506,0-2.73-1.226-2.73-2.732s1.225-2.732,2.73-2.732s2.73,1.226,2.73,2.732
						S8.118,22.078,6.612,22.078z M6.612,17.113c-1.229,0-2.23,1.001-2.23,2.232s1.001,2.232,2.23,2.232s2.23-1.001,2.23-2.232
						S7.842,17.113,6.612,17.113z"/>
				</g>
				<g>
					<circle fill="#FFFFFF" cx="6.612" cy="19.346" r="0.265"/>
				</g>
			</g>
			<g>
				<g>
					<circle fill="#FFFFFF" cx="15.996" cy="19.345" r="0.604"/>
				</g>
				<g opacity="0.5">
					<path fill="#FFFFFF" d="M15.996,21.013c-0.919,0-1.666-0.748-1.666-1.667c0-0.919,0.747-1.667,1.666-1.667
						s1.666,0.748,1.666,1.667C17.662,20.265,16.915,21.013,15.996,21.013z M15.996,18.178c-0.643,0-1.166,0.524-1.166,1.167
						s0.523,1.167,1.166,1.167s1.166-0.523,1.166-1.167S16.639,18.178,15.996,18.178z"/>
				</g>
				<g opacity="0.5">
					<path fill="#FFFFFF" d="M15.996,22.078c-1.506,0-2.73-1.226-2.73-2.732s1.225-2.732,2.73-2.732s2.73,1.226,2.73,2.732
						S17.502,22.078,15.996,22.078z M15.996,17.113c-1.229,0-2.23,1.001-2.23,2.232s1.001,2.232,2.23,2.232s2.23-1.001,2.23-2.232
						S17.226,17.113,15.996,17.113z"/>
				</g>
				<g>
					<circle fill="#FFFFFF" cx="15.996" cy="19.346" r="0.265"/>
				</g>
			</g>
		</g>
	</g>
	<path fill="#FFFFFF" d="M20.875,15.756c-0.02-0.217-0.092-0.412-0.202-0.587c-0.135-0.214-0.314-0.393-0.543-0.504
		c-0.178-0.086-0.371-0.144-0.582-0.144H3.13c-0.211,0-0.403,0.058-0.581,0.144c-0.229,0.111-0.409,0.289-0.544,0.503
		c-0.109,0.175-0.183,0.37-0.202,0.587c-0.004,0.04-0.023,0.075-0.023,0.116v6.798h1v-6.798c0-0.193,0.157-0.35,0.351-0.35h16.418
		c0.193,0,0.351,0.157,0.351,0.35v6.808h1v-6.808C20.898,15.831,20.879,15.796,20.875,15.756z"/>
</g>
</svg>
