<?xml version="1.0" encoding="utf-8"?>
<!-- Generator: Adobe Illustrator 16.0.3, SVG Export Plug-In . SVG Version: 6.00 Build 0)  -->
<!DOCTYPE svg PUBLIC "-//W3C//DTD SVG 1.1//EN" "http://www.w3.org/Graphics/SVG/1.1/DTD/svg11.dtd">
<svg version="1.1" xmlns="http://www.w3.org/2000/svg" xmlns:xlink="http://www.w3.org/1999/xlink" x="0px" y="0px" width="22.68px"
	 height="22.68px" viewBox="0 0 22.68 22.68" enable-background="new 0 0 22.68 22.68" xml:space="preserve">
<g id="BCGRND">
</g>
<g id="IKONY">
	<rect x="0" fill="#585857" width="22.676" height="22.678"/>
	<g>
		<g>
			<g>
				<rect x="0" y="7.769" fill="#FFFFFF" width="22.678" height="0.889"/>
			</g>
			<g>
				<g>
					<path fill="#FFFFFF" d="M3.92,2.321c0.225-0.039,0.562-0.068,0.908-0.068c0.474,0,0.796,0.078,1.016,0.264
						c0.181,0.151,0.283,0.381,0.283,0.659C6.127,3.6,5.839,3.888,5.531,4v0.015C5.765,4.103,5.907,4.333,5.99,4.65
						c0.103,0.41,0.19,0.791,0.259,0.918h-0.62C5.58,5.47,5.502,5.202,5.409,4.792C5.316,4.362,5.16,4.225,4.818,4.215H4.515v1.353
						H3.92V2.321z M4.515,3.776h0.356c0.405,0,0.659-0.215,0.659-0.542c0-0.361-0.254-0.527-0.645-0.527
						c-0.19,0-0.313,0.015-0.371,0.029V3.776z"/>
				</g>
				<g>
					<path fill="#FFFFFF" d="M7.117,4.547c0.014,0.43,0.352,0.615,0.732,0.615c0.277,0,0.479-0.039,0.658-0.107L8.595,5.47
						C8.39,5.553,8.107,5.617,7.765,5.617c-0.771,0-1.225-0.474-1.225-1.201c0-0.659,0.4-1.279,1.162-1.279
						c0.771,0,1.025,0.635,1.025,1.157c0,0.112-0.01,0.2-0.02,0.254H7.117z M8.162,4.127c0.004-0.22-0.094-0.581-0.494-0.581
						c-0.371,0-0.527,0.337-0.551,0.581H8.162z"/>
				</g>
				<g>
					<path fill="#FFFFFF" d="M9.224,4.914c0.195,0.112,0.488,0.21,0.795,0.21c0.387,0,0.602-0.181,0.602-0.449
						c0-0.249-0.166-0.396-0.586-0.547C9.492,3.932,9.146,3.644,9.146,3.17c0-0.537,0.449-0.947,1.162-0.947
						c0.355,0,0.619,0.078,0.791,0.166l-0.146,0.483c-0.117-0.063-0.348-0.156-0.654-0.156c-0.381,0-0.547,0.205-0.547,0.396
						c0,0.254,0.189,0.371,0.629,0.542c0.572,0.215,0.85,0.503,0.85,0.977c0,0.527-0.4,0.986-1.25,0.986
						c-0.346,0-0.707-0.098-0.889-0.205L9.224,4.914z"/>
				</g>
				<g>
					<path fill="#FFFFFF" d="M12.421,2.511V3.19h0.571v0.449h-0.571v1.05c0,0.288,0.078,0.439,0.308,0.439
						c0.103,0,0.181-0.015,0.234-0.029l0.01,0.459c-0.088,0.034-0.244,0.059-0.435,0.059c-0.22,0-0.405-0.073-0.518-0.195
						c-0.127-0.137-0.186-0.352-0.186-0.664V3.639h-0.342V3.19h0.342V2.653L12.421,2.511z"/>
				</g>
				<g>
					<path fill="#FFFFFF" d="M14.786,5.568l-0.039-0.264h-0.015c-0.146,0.186-0.396,0.317-0.703,0.317
						c-0.479,0-0.747-0.347-0.747-0.708c0-0.601,0.532-0.903,1.411-0.898V3.976c0-0.156-0.063-0.415-0.483-0.415
						c-0.234,0-0.479,0.073-0.64,0.176l-0.117-0.391c0.176-0.107,0.483-0.21,0.859-0.21c0.762,0,0.981,0.483,0.981,1.001v0.859
						c0,0.215,0.01,0.425,0.034,0.571H14.786z M14.708,4.406c-0.425-0.01-0.83,0.083-0.83,0.444c0,0.234,0.151,0.342,0.342,0.342
						c0.239,0,0.415-0.156,0.469-0.327c0.015-0.044,0.02-0.093,0.02-0.132V4.406z"/>
				</g>
				<g>
					<path fill="#FFFFFF" d="M15.931,3.957c0-0.322-0.004-0.552-0.02-0.767h0.523l0.02,0.454h0.02
						c0.117-0.337,0.395-0.508,0.648-0.508c0.059,0,0.094,0.005,0.143,0.015v0.566c-0.049-0.01-0.104-0.02-0.176-0.02
						c-0.289,0-0.484,0.186-0.537,0.454c-0.01,0.054-0.02,0.117-0.02,0.186v1.23h-0.602V3.957z"/>
				</g>
				<g>
					<path fill="#FFFFFF" d="M18.472,2.511V3.19h0.572v0.449h-0.572v1.05c0,0.288,0.078,0.439,0.309,0.439
						c0.102,0,0.18-0.015,0.234-0.029l0.01,0.459c-0.088,0.034-0.244,0.059-0.436,0.059c-0.219,0-0.404-0.073-0.518-0.195
						c-0.127-0.137-0.186-0.352-0.186-0.664V3.639h-0.342V3.19h0.342V2.653L18.472,2.511z"/>
				</g>
			</g>
		</g>
		<g>
			<g>
				<path fill="#FFFFFF" d="M11.338,19.821c-2.502,0-4.537-2.036-4.537-4.539c0-1.654,0.899-3.177,2.347-3.976
					c0.24-0.134,0.545-0.046,0.679,0.196c0.134,0.242,0.046,0.546-0.196,0.679c-1.128,0.623-1.829,1.812-1.829,3.101
					c0,1.951,1.587,3.539,3.537,3.539c1.951,0,3.539-1.587,3.539-3.539c0-1.295-0.706-2.485-1.844-3.108
					c-0.242-0.132-0.331-0.436-0.198-0.679c0.133-0.244,0.438-0.331,0.679-0.198c1.458,0.797,2.363,2.325,2.363,3.985
					C15.877,17.785,13.841,19.821,11.338,19.821z"/>
			</g>
			<g>
				<path fill="#FFFFFF" d="M11.338,15.783c-0.276,0-0.5-0.224-0.5-0.5v-5.018c0-0.276,0.224-0.5,0.5-0.5s0.5,0.224,0.5,0.5v5.018
					C11.838,15.559,11.614,15.783,11.338,15.783z"/>
			</g>
			<g opacity="0.3">
				<g>
					<circle fill="#FFFFFF" cx="8.498" cy="14.298" r="0.336"/>
				</g>
				<g>
					<circle fill="#FFFFFF" cx="9.444" cy="17.14" r="0.335"/>
				</g>
				<g>
					<circle fill="#FFFFFF" cx="10.391" cy="16.192" r="0.336"/>
				</g>
				<g>
					<circle fill="#FFFFFF" cx="12.285" cy="14.298" r="0.335"/>
				</g>
				<g>
					<circle fill="#FFFFFF" cx="8.497" cy="16.192" r="0.335"/>
				</g>
				<g>
					<circle fill="#FFFFFF" cx="9.445" cy="15.245" r="0.335"/>
				</g>
				<g>
					<circle fill="#FFFFFF" cx="10.391" cy="14.299" r="0.335"/>
				</g>
				<g>
					<circle fill="#FFFFFF" cx="10.391" cy="18.086" r="0.336"/>
				</g>
				<g>
					<circle fill="#FFFFFF" cx="11.338" cy="17.14" r="0.335"/>
				</g>
				<g>
					<circle fill="#FFFFFF" cx="12.285" cy="16.192" r="0.335"/>
				</g>
				<g>
					<circle fill="#FFFFFF" cx="13.232" cy="15.245" r="0.335"/>
				</g>
				<g>
					<circle fill="#FFFFFF" cx="14.179" cy="14.298" r="0.336"/>
				</g>
				<g>
					<circle fill="#FFFFFF" cx="12.285" cy="18.086" r="0.335"/>
				</g>
				<g>
					<circle fill="#FFFFFF" cx="13.232" cy="17.14" r="0.335"/>
				</g>
				<g>
					<circle fill="#FFFFFF" cx="14.179" cy="16.192" r="0.335"/>
				</g>
				<g>
					<circle fill="#FFFFFF" cx="9.445" cy="13.352" r="0.335"/>
				</g>
				<g>
					<circle fill="#FFFFFF" cx="10.391" cy="12.405" r="0.336"/>
				</g>
				<g>
					<circle fill="#FFFFFF" cx="12.285" cy="12.405" r="0.335"/>
				</g>
				<g>
					<circle fill="#FFFFFF" cx="13.232" cy="13.352" r="0.335"/>
				</g>
			</g>
		</g>
		<g opacity="0.5">
			<path fill="#FFFFFF" d="M11.338,7.821c-4.112,0-7.458,3.346-7.458,7.458c0,2.601,1.362,4.99,3.563,6.346L7.05,22.345l2.592-0.061
				L8.294,20.07l-0.37,0.677c-1.882-1.179-3.044-3.233-3.044-5.468c0-3.561,2.897-6.458,6.458-6.458s6.458,2.897,6.458,6.458
				c0,2.354-1.28,4.521-3.341,5.66c-0.241,0.135-0.329,0.438-0.195,0.68c0.133,0.242,0.438,0.332,0.68,0.195
				c2.379-1.314,3.856-3.818,3.856-6.535C18.796,11.167,15.45,7.821,11.338,7.821z"/>
		</g>
	</g>
</g>
</svg>
