<?xml version="1.0" encoding="utf-8"?>
<!-- Generator: Adobe Illustrator 16.0.3, SVG Export Plug-In . SVG Version: 6.00 Build 0)  -->
<!DOCTYPE svg PUBLIC "-//W3C//DTD SVG 1.1//EN" "http://www.w3.org/Graphics/SVG/1.1/DTD/svg11.dtd">
<svg version="1.1" xmlns="http://www.w3.org/2000/svg" xmlns:xlink="http://www.w3.org/1999/xlink" x="0px" y="0px" width="22.68px"
	 height="22.68px" viewBox="0 0 22.68 22.68" enable-background="new 0 0 22.68 22.68" xml:space="preserve">
<g id="BCGRND">
</g>
<g id="IKONY">
	<rect x="0" fill="#585857" width="22.676" height="22.678"/>
	<g>
		<g>
			<g>
				<g>
					<rect y="11.956" fill="#FFFFFF" width="22.678" height="0.889"/>
				</g>
				<g>
					<g>
						<path fill="#FFFFFF" d="M2.707,2.04c0.225-0.039,0.561-0.068,0.908-0.068c0.473,0,0.795,0.078,1.016,0.264
							c0.18,0.151,0.283,0.381,0.283,0.659c0,0.425-0.289,0.713-0.596,0.825v0.015c0.234,0.088,0.375,0.317,0.459,0.635
							c0.102,0.41,0.189,0.791,0.258,0.918H4.416C4.367,5.189,4.289,4.921,4.195,4.511c-0.092-0.43-0.248-0.566-0.59-0.576H3.303
							v1.353H2.707V2.04z M3.303,3.495h0.355c0.406,0,0.66-0.215,0.66-0.542c0-0.361-0.254-0.527-0.645-0.527
							c-0.191,0-0.313,0.015-0.371,0.029V3.495z"/>
						<path fill="#FFFFFF" d="M7.642,4.076c0,0.874-0.615,1.265-1.221,1.265c-0.674,0-1.191-0.464-1.191-1.226
							c0-0.781,0.513-1.26,1.23-1.26C7.168,2.855,7.642,3.354,7.642,4.076z M5.85,4.101c0,0.459,0.225,0.806,0.591,0.806
							c0.342,0,0.581-0.337,0.581-0.815c0-0.371-0.166-0.796-0.576-0.796C6.021,3.295,5.85,3.705,5.85,4.101z"/>
						<path fill="#FFFFFF" d="M9.379,5.287L9.34,5.023H9.324C9.178,5.209,8.93,5.341,8.621,5.341c-0.479,0-0.746-0.347-0.746-0.708
							c0-0.601,0.531-0.903,1.41-0.898V3.695c0-0.156-0.063-0.415-0.482-0.415c-0.234,0-0.479,0.073-0.641,0.176L8.045,3.065
							c0.176-0.107,0.484-0.21,0.859-0.21c0.762,0,0.982,0.483,0.982,1.001v0.859c0,0.215,0.01,0.425,0.033,0.571H9.379z
							 M9.301,4.125c-0.426-0.01-0.83,0.083-0.83,0.444c0,0.234,0.15,0.342,0.342,0.342c0.238,0,0.414-0.156,0.469-0.327
							c0.014-0.044,0.02-0.093,0.02-0.132V4.125z"/>
						<path fill="#FFFFFF" d="M10.396,4.735c0.137,0.083,0.396,0.171,0.611,0.171c0.264,0,0.381-0.107,0.381-0.264
							c0-0.161-0.098-0.244-0.391-0.347c-0.465-0.161-0.66-0.415-0.654-0.693c0-0.42,0.346-0.747,0.898-0.747
							c0.264,0,0.492,0.068,0.629,0.142l-0.117,0.425c-0.102-0.059-0.293-0.137-0.502-0.137c-0.215,0-0.332,0.103-0.332,0.249
							c0,0.151,0.111,0.225,0.414,0.332c0.43,0.156,0.631,0.376,0.635,0.728c0,0.43-0.336,0.742-0.967,0.742
							c-0.287,0-0.547-0.068-0.723-0.166L10.396,4.735z"/>
						<path fill="#FFFFFF" d="M13.056,2.23v0.679h0.571v0.449h-0.571v1.05c0,0.288,0.078,0.439,0.308,0.439
							c0.103,0,0.181-0.015,0.234-0.029l0.01,0.459c-0.088,0.034-0.244,0.059-0.435,0.059c-0.22,0-0.405-0.073-0.518-0.195
							c-0.127-0.137-0.186-0.352-0.186-0.664V3.358h-0.342V2.909h0.342V2.372L13.056,2.23z"/>
						<path fill="#FFFFFF" d="M14.625,2.245c0,0.181-0.132,0.322-0.342,0.322c-0.2,0-0.332-0.142-0.332-0.322
							c0-0.186,0.137-0.327,0.337-0.327C14.493,1.918,14.62,2.06,14.625,2.245z M13.985,5.287V2.909h0.605v2.378H13.985z"/>
						<path fill="#FFFFFF" d="M15.139,3.617c0-0.273-0.004-0.503-0.02-0.708h0.527l0.029,0.356h0.016
							c0.102-0.186,0.361-0.41,0.756-0.41c0.416,0,0.846,0.269,0.846,1.021v1.411h-0.602V3.944c0-0.342-0.127-0.601-0.453-0.601
							c-0.24,0-0.406,0.171-0.469,0.352c-0.02,0.054-0.025,0.127-0.025,0.195v1.396h-0.605V3.617z"/>
						<path fill="#FFFFFF" d="M20.011,2.909c-0.01,0.161-0.02,0.356-0.02,0.684V4.94c0,0.498-0.103,0.854-0.352,1.079
							c-0.249,0.22-0.591,0.288-0.918,0.288c-0.303,0-0.625-0.063-0.83-0.19l0.132-0.454c0.151,0.088,0.405,0.181,0.693,0.181
							c0.391,0,0.684-0.205,0.684-0.718V4.921h-0.01c-0.137,0.21-0.381,0.352-0.693,0.352c-0.591,0-1.011-0.488-1.011-1.162
							c0-0.781,0.508-1.255,1.079-1.255c0.361,0,0.576,0.176,0.688,0.371h0.01l0.024-0.317H20.011z M19.391,3.861
							c0-0.054-0.005-0.112-0.02-0.161c-0.063-0.22-0.234-0.386-0.488-0.386c-0.337,0-0.586,0.293-0.586,0.776
							c0,0.405,0.205,0.732,0.581,0.732c0.225,0,0.42-0.146,0.488-0.361c0.015-0.063,0.024-0.146,0.024-0.215V3.861z"/>
						<path fill="#FFFFFF" d="M4.443,9.133c0.195,0.112,0.488,0.21,0.796,0.21c0.386,0,0.601-0.181,0.601-0.449
							c0-0.249-0.166-0.396-0.586-0.547C4.712,8.151,4.365,7.863,4.365,7.39c0-0.537,0.449-0.947,1.162-0.947
							c0.356,0,0.62,0.078,0.791,0.166L6.172,7.092C6.055,7.028,5.825,6.936,5.518,6.936c-0.381,0-0.547,0.205-0.547,0.396
							c0,0.254,0.19,0.371,0.63,0.542C6.172,8.088,6.45,8.376,6.45,8.85c0,0.527-0.4,0.986-1.25,0.986
							c-0.347,0-0.708-0.098-0.889-0.205L4.443,9.133z"/>
						<path fill="#FFFFFF" d="M7.327,8.767c0.015,0.43,0.352,0.615,0.732,0.615c0.278,0,0.479-0.039,0.659-0.107l0.088,0.415
							c-0.205,0.083-0.488,0.146-0.83,0.146c-0.771,0-1.226-0.474-1.226-1.201c0-0.659,0.4-1.279,1.162-1.279
							c0.771,0,1.025,0.635,1.025,1.157c0,0.112-0.01,0.2-0.02,0.254H7.327z M8.372,8.347c0.005-0.22-0.093-0.581-0.493-0.581
							c-0.371,0-0.527,0.337-0.552,0.581H8.372z"/>
						<path fill="#FFFFFF" d="M9.327,8.117c0-0.273-0.005-0.503-0.02-0.708h0.527l0.029,0.356h0.015
							c0.103-0.186,0.361-0.41,0.757-0.41c0.415,0,0.845,0.269,0.845,1.021v1.411H10.88V8.444c0-0.342-0.127-0.601-0.454-0.601
							c-0.239,0-0.405,0.171-0.469,0.352c-0.02,0.054-0.024,0.127-0.024,0.195v1.396H9.327V8.117z"/>
						<path fill="#FFFFFF" d="M11.997,9.235c0.137,0.083,0.395,0.171,0.609,0.171c0.264,0,0.381-0.107,0.381-0.264
							c0-0.161-0.098-0.244-0.391-0.347c-0.463-0.161-0.658-0.415-0.654-0.693c0-0.42,0.348-0.747,0.898-0.747
							c0.264,0,0.494,0.068,0.631,0.142l-0.117,0.425c-0.104-0.059-0.293-0.137-0.504-0.137c-0.215,0-0.332,0.103-0.332,0.249
							c0,0.151,0.113,0.225,0.416,0.332c0.43,0.156,0.629,0.376,0.635,0.728c0,0.43-0.338,0.742-0.967,0.742
							c-0.289,0-0.547-0.068-0.723-0.166L11.997,9.235z"/>
						<path fill="#FFFFFF" d="M16.228,8.576c0,0.874-0.615,1.265-1.221,1.265c-0.674,0-1.191-0.464-1.191-1.226
							c0-0.781,0.513-1.26,1.23-1.26C15.754,7.355,16.228,7.854,16.228,8.576z M14.436,8.601c0,0.459,0.225,0.806,0.591,0.806
							c0.342,0,0.581-0.337,0.581-0.815c0-0.371-0.166-0.796-0.576-0.796C14.606,7.795,14.436,8.205,14.436,8.601z"/>
						<path fill="#FFFFFF" d="M16.626,8.176c0-0.322-0.004-0.552-0.02-0.767h0.523l0.02,0.454h0.02
							c0.117-0.337,0.395-0.508,0.648-0.508c0.059,0,0.094,0.005,0.143,0.015v0.566c-0.049-0.01-0.104-0.02-0.176-0.02
							c-0.289,0-0.484,0.186-0.537,0.454c-0.01,0.054-0.02,0.117-0.02,0.186v1.23h-0.602V8.176z"/>
					</g>
				</g>
			</g>
		</g>
		<g opacity="0.5">
			<path fill="#FFFFFF" d="M20.627,15.498c0,0-0.103-0.792-0.724-0.528c-0.621,0.264-0.263,1.282-0.263,1.282
				c-0.228,0.226-0.849,0.773-1.414,0.886c-0.504,0.101-0.718,0.104-1.131,0.27c-0.785,0.287-1.808,0.821-2.367,1.796
				c-0.046,0.081-0.131,0.125-0.217,0.125c-0.042,0-0.085-0.011-0.124-0.033c-0.12-0.069-0.161-0.222-0.093-0.341
				c0.629-1.097,1.74-1.698,2.597-2.015c0.011-0.879-0.121-1.084-0.173-1.328c-0.057-0.264,0.377-0.773,0.377-0.773
				s0.886,0.113,0.904-0.546s-0.791-0.49-0.791-0.49c0.018-0.245-0.547-0.66-0.925-0.339c-0.376,0.32,0.086,1.034,0.086,1.034
				s-0.537,0.831-0.933,1.114c-0.396,0.282-0.849,0.264-1.729,0.867c-0.881,0.603-1.363,1.659-1.363,1.659
				c-4.806,0.641-4.787,4.542-4.787,4.542h9.933c2.902-1.564,2.375-5.635,2.375-5.635l0.489-0.415c0,0,0.98,0.169,1.094-0.452
				C21.601,15.339,20.627,15.498,20.627,15.498z"/>
		</g>
		<g>
			<g>
				<path fill="#FFFFFF" d="M11.775,21.774l0.324-0.381l0.208,0.526L11.775,21.774z M11.395,21.451l-0.382-0.324l0.324-0.382
					l0.382,0.324L11.395,21.451z M10.632,20.803l-0.381-0.324l0.324-0.381l0.381,0.324L10.632,20.803z M9.87,20.156l-0.381-0.324
					l0.324-0.381l0.381,0.324L9.87,20.156z"/>
			</g>
			<g>
				<polygon fill="#FFFFFF" points="9.087,19.491 7.383,18.043 7.707,17.663 9.489,19.173 				"/>
			</g>
			<g>
				<path fill="#FFFFFF" d="M4.65,16.119l1.991,1.692l-0.238,0.281c0,0-0.231,0.255,0.043,0.489s0.502-0.024,0.502-0.024
					l1.194-1.406c0,0,0.218-0.266-0.057-0.5c-0.274-0.233-0.489,0.036-0.489,0.036l-0.239,0.281l-1.99-1.691L4.65,16.119z"/>
			</g>
		</g>
		<g>
			<path fill="#FFFFFF" d="M-0.002,14.913c0.82,0.35,1.688,0.318,2.362,0.11c1.624-0.505,2.935,0.586,2.99,0.634l-0.322,0.382
				c-0.011-0.009-1.166-0.957-2.52-0.539c-0.715,0.222-1.625,0.269-2.506-0.047L-0.002,14.913z"/>
		</g>
	</g>
</g>
</svg>
