<?xml version="1.0" encoding="utf-8"?>
<!-- Generator: Adobe Illustrator 16.0.3, SVG Export Plug-In . SVG Version: 6.00 Build 0)  -->
<!DOCTYPE svg PUBLIC "-//W3C//DTD SVG 1.1//EN" "http://www.w3.org/Graphics/SVG/1.1/DTD/svg11.dtd">
<svg version="1.1" xmlns="http://www.w3.org/2000/svg" xmlns:xlink="http://www.w3.org/1999/xlink" x="0px" y="0px" width="22.68px"
	 height="22.68px" viewBox="0 0 22.68 22.68" enable-background="new 0 0 22.68 22.68" xml:space="preserve">
<g id="BCGRND">
</g>
<g id="IKONY">
	<g>
		<g>
			<polygon fill="#585857" points="22.678,16.335 22.678,0 0,0 0,22.678 14.118,22.678 22.678,22.678 			"/>
			<rect x="0" y="7.77" fill="#FFFFFF" width="22.678" height="0.889"/>
			<g>
				<g>
					<path fill="#FFFFFF" d="M2.378,4.916c0.195,0.112,0.488,0.21,0.797,0.21c0.385,0,0.6-0.181,0.6-0.449
						c0-0.249-0.166-0.396-0.586-0.547C2.648,3.935,2.3,3.646,2.3,3.173c0-0.537,0.449-0.947,1.162-0.947
						c0.357,0,0.621,0.078,0.791,0.166L4.107,2.875C3.99,2.812,3.761,2.719,3.453,2.719c-0.381,0-0.547,0.205-0.547,0.396
						c0,0.254,0.191,0.371,0.631,0.542c0.57,0.215,0.85,0.503,0.85,0.977c0,0.527-0.4,0.986-1.25,0.986
						c-0.348,0-0.709-0.098-0.889-0.205L2.378,4.916z"/>
					<path fill="#FFFFFF" d="M5.423,2.528c0,0.181-0.131,0.322-0.342,0.322c-0.199,0-0.332-0.142-0.332-0.322
						c0-0.186,0.137-0.327,0.338-0.327C5.292,2.201,5.419,2.343,5.423,2.528z M4.785,5.57V3.192H5.39V5.57H4.785z"/>
					<path fill="#FFFFFF" d="M5.914,3.9c0-0.273-0.005-0.503-0.02-0.708h0.518l0.024,0.352h0.015
						c0.117-0.186,0.332-0.405,0.732-0.405c0.313,0,0.557,0.176,0.659,0.439h0.01C7.935,3.446,8.033,3.349,8.145,3.28
						c0.132-0.093,0.283-0.142,0.479-0.142c0.396,0,0.796,0.269,0.796,1.03V5.57H8.833V4.257c0-0.396-0.137-0.63-0.425-0.63
						c-0.205,0-0.356,0.146-0.42,0.317c-0.015,0.059-0.029,0.132-0.029,0.2V5.57H7.374V4.193c0-0.332-0.132-0.566-0.41-0.566
						c-0.225,0-0.376,0.176-0.43,0.342C6.509,4.027,6.5,4.096,6.5,4.164V5.57H5.914V3.9z"/>
					<path fill="#FFFFFF" d="M9.937,3.983c0-0.313-0.01-0.566-0.02-0.791h0.527l0.029,0.366h0.01c0.176-0.269,0.454-0.42,0.815-0.42
						c0.547,0,1.001,0.469,1.001,1.211c0,0.859-0.542,1.274-1.084,1.274c-0.298,0-0.547-0.127-0.669-0.317h-0.01v1.23H9.937V3.983z
						 M10.538,4.574c0,0.059,0.005,0.112,0.02,0.166c0.059,0.244,0.273,0.42,0.527,0.42c0.381,0,0.605-0.317,0.605-0.786
						c0-0.42-0.205-0.762-0.591-0.762c-0.249,0-0.479,0.181-0.537,0.444c-0.015,0.049-0.024,0.103-0.024,0.151V4.574z"/>
					<path fill="#FFFFFF" d="M12.675,2.104h0.605V5.57h-0.605V2.104z"/>
					<path fill="#FFFFFF" d="M14.185,3.192l0.43,1.274c0.049,0.146,0.098,0.327,0.132,0.464h0.015
						c0.039-0.137,0.083-0.313,0.127-0.469l0.371-1.27h0.645l-0.596,1.621c-0.327,0.889-0.547,1.284-0.83,1.528
						C14.244,6.552,14,6.63,13.848,6.649l-0.137-0.508c0.103-0.024,0.229-0.078,0.352-0.166c0.112-0.073,0.244-0.215,0.327-0.376
						c0.024-0.044,0.039-0.078,0.039-0.107c0-0.024-0.005-0.059-0.034-0.117l-0.869-2.183H14.185z"/>
					<path fill="#FFFFFF" d="M17.171,4.062v0.415h-1.245V4.062H17.171z"/>
					<path fill="#FFFFFF" d="M17.544,2.279h1.899v0.493h-1.299v0.908h1.211v0.493h-1.211V5.57h-0.601V2.279z"/>
					<path fill="#FFFFFF" d="M20.418,2.528c0,0.181-0.132,0.322-0.342,0.322c-0.2,0-0.332-0.142-0.332-0.322
						c0-0.186,0.137-0.327,0.337-0.327C20.287,2.201,20.414,2.343,20.418,2.528z M19.779,5.57V3.192h0.605V5.57H19.779z"/>
				</g>
			</g>
		</g>
		<g opacity="0.3">
			<path fill="#FFFFFF" d="M18.323,13.955c-0.173,0-0.347-0.066-0.479-0.198c-1.805-1.805-4.202-2.799-6.753-2.799
				s-4.948,0.994-6.752,2.798c-0.264,0.265-0.693,0.265-0.957,0c-0.265-0.264-0.265-0.692,0-0.957
				c2.059-2.06,4.797-3.195,7.709-3.195s5.65,1.135,7.71,3.196c0.265,0.265,0.265,0.693,0,0.957
				C18.669,13.889,18.496,13.955,18.323,13.955z"/>
			<path fill="#FFFFFF" d="M16.515,16.103c-0.174,0-0.347-0.066-0.479-0.198c-1.32-1.321-3.076-2.049-4.945-2.049
				c-1.866,0-3.622,0.728-4.943,2.049c-0.264,0.265-0.693,0.265-0.957,0c-0.265-0.264-0.265-0.693,0-0.957
				c1.576-1.577,3.672-2.446,5.9-2.446c2.23,0,4.327,0.869,5.902,2.446c0.265,0.265,0.265,0.693,0,0.958
				C16.862,16.037,16.688,16.103,16.515,16.103z"/>
			<path fill="#FFFFFF" d="M7.476,18.251c-0.173,0-0.347-0.066-0.479-0.198c-0.265-0.264-0.265-0.693,0-0.958
				c1.093-1.095,2.547-1.697,4.094-1.697c1.546,0,3,0.603,4.095,1.697c0.265,0.264,0.265,0.693,0,0.957
				c-0.264,0.265-0.693,0.265-0.957,0c-0.839-0.839-1.953-1.301-3.138-1.301s-2.299,0.462-3.137,1.301
				C7.823,18.185,7.649,18.251,7.476,18.251z"/>
		</g>
		<circle fill="#FFFFFF" cx="3.19" cy="15.736" r="0.671"/>
		<circle fill="#FFFFFF" cx="9.839" cy="14.24" r="0.671"/>
		<circle fill="#FFFFFF" cx="4.044" cy="19.73" r="0.671"/>
		<circle fill="#FFFFFF" cx="20.344" cy="16.903" r="0.671"/>
		<circle fill="#FFFFFF" cx="13.383" cy="11.779" r="0.671"/>
		<g>
			<circle fill="#FFFFFF" cx="17.186" cy="19.73" r="0.671"/>
			<path fill="#FFFFFF" d="M17.186,21.574c-1.016,0-1.843-0.827-1.843-1.843s0.827-1.843,1.843-1.843s1.843,0.827,1.843,1.843
				S18.202,21.574,17.186,21.574z M17.186,18.387c-0.74,0-1.343,0.603-1.343,1.343s0.603,1.343,1.343,1.343s1.343-0.603,1.343-1.343
				S17.926,18.387,17.186,18.387z"/>
		</g>
		<g>
			<circle fill="#FFFFFF" cx="18.752" cy="11.438" r="0.671"/>
			<path fill="#FFFFFF" d="M18.752,13.282c-1.016,0-1.843-0.827-1.843-1.843s0.827-1.843,1.843-1.843s1.843,0.827,1.843,1.843
				S19.768,13.282,18.752,13.282z M18.752,10.095c-0.74,0-1.343,0.603-1.343,1.343s0.603,1.343,1.343,1.343s1.343-0.603,1.343-1.343
				S19.493,10.095,18.752,10.095z"/>
		</g>
		<g>
			<circle fill="#FFFFFF" cx="5.669" cy="10.74" r="0.671"/>
			<path fill="#FFFFFF" d="M5.669,12.583c-1.016,0-1.843-0.827-1.843-1.843s0.827-1.843,1.843-1.843s1.843,0.827,1.843,1.843
				S6.685,12.583,5.669,12.583z M5.669,9.397c-0.74,0-1.343,0.603-1.343,1.343s0.603,1.343,1.343,1.343s1.343-0.603,1.343-1.343
				S6.41,9.397,5.669,9.397z"/>
		</g>
		<path fill="#FFFFFF" d="M11.092,20.248c-0.135,0-0.246-0.107-0.25-0.243c-0.004-0.138,0.104-0.253,0.242-0.257l4.512-0.134
			c0.003,0,0.006,0,0.008,0c0.135,0,0.246,0.107,0.25,0.243c0.004,0.138-0.104,0.253-0.242,0.257L11.1,20.248
			C11.097,20.248,11.094,20.248,11.092,20.248z"/>
		<path fill="#FFFFFF" d="M11.092,20.248c-0.086,0-0.169-0.044-0.216-0.124l-4.619-7.883c-0.069-0.119-0.029-0.272,0.09-0.342
			c0.116-0.069,0.271-0.03,0.342,0.089l4.619,7.883c0.069,0.119,0.029,0.272-0.09,0.342C11.179,20.236,11.135,20.248,11.092,20.248z
			"/>
		<path fill="#FFFFFF" d="M11.092,20.248c-0.06,0-0.118-0.021-0.166-0.063c-0.104-0.092-0.112-0.25-0.021-0.353l6.584-7.391
			c0.092-0.103,0.251-0.11,0.353-0.02c0.104,0.092,0.112,0.25,0.021,0.353l-6.584,7.391C11.23,20.219,11.161,20.248,11.092,20.248z"
			/>
		<circle fill="#FFFFFF" cx="11.093" cy="19.997" r="1.62"/>
	</g>
</g>
</svg>
