<?xml version="1.0" encoding="utf-8"?>
<!-- Generator: Adobe Illustrator 16.0.3, SVG Export Plug-In . SVG Version: 6.00 Build 0)  -->
<!DOCTYPE svg PUBLIC "-//W3C//DTD SVG 1.1//EN" "http://www.w3.org/Graphics/SVG/1.1/DTD/svg11.dtd">
<svg version="1.1" xmlns="http://www.w3.org/2000/svg" xmlns:xlink="http://www.w3.org/1999/xlink" x="0px" y="0px" width="22.68px"
	 height="22.68px" viewBox="0 0 22.68 22.68" enable-background="new 0 0 22.68 22.68" xml:space="preserve">
<g id="BCGRND">
</g>
<g id="IKONY">
	<rect fill="#585857" width="22.677" height="22.677"/>
	<g>
		<g>
			<rect x="0" y="7.769" fill="#FFFFFF" width="22.678" height="0.889"/>
			<g>
				<g>
					<path fill="#FFFFFF" d="M1.757,4.913c0.19,0.112,0.488,0.21,0.796,0.21c0.381,0,0.596-0.181,0.596-0.449
						c0-0.249-0.166-0.396-0.581-0.547C2.021,3.932,1.674,3.644,1.674,3.17c0-0.542,0.449-0.947,1.167-0.947
						c0.356,0,0.615,0.078,0.786,0.166L3.486,2.872C3.364,2.809,3.134,2.716,2.827,2.716c-0.381,0-0.542,0.2-0.542,0.396
						c0,0.254,0.19,0.371,0.63,0.542C3.486,3.868,3.759,4.156,3.759,4.63c0,0.532-0.4,0.991-1.245,0.991
						c-0.352,0-0.713-0.098-0.894-0.21L1.757,4.913z"/>
					<path fill="#FFFFFF" d="M4.749,2.525c0,0.176-0.132,0.322-0.342,0.322c-0.2,0-0.332-0.146-0.332-0.322
						c0-0.186,0.137-0.327,0.337-0.327C4.617,2.198,4.744,2.34,4.749,2.525z M4.109,5.567V3.189h0.601v2.378H4.109z"/>
					<path fill="#FFFFFF" d="M5.189,3.897c0-0.273-0.01-0.503-0.02-0.708h0.513l0.029,0.352h0.015
						c0.112-0.186,0.327-0.405,0.732-0.405c0.313,0,0.557,0.176,0.659,0.439h0.01c0.083-0.132,0.181-0.229,0.288-0.298
						c0.137-0.093,0.288-0.142,0.488-0.142c0.391,0,0.791,0.269,0.791,1.03v1.401H8.109V4.254c0-0.396-0.137-0.63-0.425-0.63
						c-0.205,0-0.356,0.146-0.42,0.317c-0.02,0.054-0.029,0.132-0.029,0.2v1.426H6.649V4.19c0-0.332-0.132-0.566-0.41-0.566
						c-0.225,0-0.376,0.176-0.435,0.337c-0.02,0.063-0.029,0.132-0.029,0.2v1.406H5.189V3.897z"/>
					<path fill="#FFFFFF" d="M9.164,3.98c0-0.313-0.01-0.566-0.02-0.791h0.527l0.029,0.366h0.01c0.176-0.269,0.454-0.42,0.815-0.42
						c0.547,0,1.001,0.469,1.001,1.211c0,0.859-0.542,1.274-1.084,1.274c-0.298,0-0.547-0.127-0.669-0.317h-0.01v1.23H9.164V3.98z
						 M9.765,4.571c0,0.059,0.005,0.112,0.015,0.166c0.063,0.244,0.273,0.42,0.532,0.42c0.381,0,0.605-0.317,0.605-0.786
						c0-0.42-0.205-0.762-0.591-0.762c-0.249,0-0.479,0.181-0.542,0.444c-0.01,0.049-0.02,0.103-0.02,0.151V4.571z"/>
					<path fill="#FFFFFF" d="M11.853,2.101h0.601v3.467h-0.601V2.101z"/>
					<path fill="#FFFFFF" d="M13.363,4.547c0.015,0.43,0.347,0.615,0.732,0.615c0.278,0,0.474-0.044,0.659-0.107l0.088,0.41
						c-0.205,0.088-0.488,0.151-0.83,0.151c-0.771,0-1.226-0.474-1.226-1.201c0-0.659,0.4-1.279,1.162-1.279
						c0.771,0,1.025,0.635,1.025,1.157c0,0.112-0.01,0.2-0.02,0.254H13.363z M14.408,4.127c0.005-0.22-0.093-0.581-0.493-0.581
						c-0.371,0-0.527,0.337-0.552,0.581H14.408z"/>
					<path fill="#FFFFFF" d="M18.234,3.888c0,1.104-0.669,1.733-1.572,1.733c-0.933,0-1.519-0.713-1.519-1.675
						c0-1.016,0.64-1.729,1.567-1.729C17.668,2.218,18.234,2.945,18.234,3.888z M15.778,3.932c0,0.674,0.337,1.206,0.913,1.206
						c0.581,0,0.908-0.542,0.908-1.23c0-0.62-0.308-1.206-0.908-1.206C16.096,2.701,15.778,3.253,15.778,3.932z"/>
					<path fill="#FFFFFF" d="M20.157,5.567V3.639h-0.864v1.929h-0.601V3.639H18.37V3.189h0.322V3.141
						c0-0.308,0.078-0.591,0.269-0.786c0.146-0.151,0.366-0.244,0.669-0.244c0.127,0,0.254,0.034,0.327,0.068l-0.098,0.449
						c-0.059-0.029-0.137-0.049-0.22-0.049c-0.273,0-0.352,0.229-0.352,0.527v0.083h0.869V3.087c0-0.308,0.083-0.615,0.288-0.811
						c0.176-0.166,0.415-0.229,0.625-0.229c0.156,0,0.288,0.029,0.381,0.059l-0.044,0.464c-0.063-0.024-0.142-0.044-0.254-0.044
						c-0.298,0-0.4,0.249-0.4,0.542v0.122h0.522v0.449h-0.518v1.929H20.157z"/>
				</g>
			</g>
		</g>
		<path opacity="0.3" fill="#FFFFFF" d="M14.464,19.704c1.221-0.913,2.022-2.356,2.022-3.998c0-2.765-2.242-5.006-5.006-5.006
			c-2.766,0-5.006,2.241-5.006,5.006c0,1.642,0.801,3.086,2.022,3.999l-0.538,0.922c-0.102,0.175-0.043,0.399,0.132,0.501
			c0.058,0.034,0.121,0.05,0.185,0.05c0.126,0,0.248-0.065,0.316-0.182l0.526-0.902c0.707,0.381,1.503,0.618,2.362,0.618
			s1.656-0.237,2.363-0.619l0.525,0.902c0.067,0.117,0.19,0.182,0.316,0.182c0.063,0,0.126-0.016,0.185-0.05
			c0.175-0.102,0.233-0.326,0.132-0.5L14.464,19.704z"/>
		<path fill="#FFFFFF" d="M13.872,11.327c-0.24-0.133-0.546-0.045-0.679,0.199c-0.133,0.242-0.044,0.546,0.198,0.678
			c1.174,0.642,1.932,1.822,2.054,3.136h-0.513v0.732h0.5c-0.177,1.902-1.682,3.407-3.585,3.584v-0.501h-0.732v0.501
			c-1.902-0.177-3.406-1.682-3.583-3.584h0.5V15.34H7.519c0.121-1.308,0.874-2.485,2.037-3.128c0.242-0.133,0.33-0.438,0.196-0.679
			c-0.133-0.242-0.439-0.33-0.679-0.196c-1.591,0.878-2.579,2.552-2.579,4.369c0,2.75,2.237,4.987,4.986,4.987
			c2.751,0,4.988-2.237,4.988-4.987C16.469,13.881,15.474,12.204,13.872,11.327z M11.481,16.206c0.276,0,0.5-0.224,0.5-0.5v-5.575
			c0-0.276-0.224-0.5-0.5-0.5s-0.5,0.224-0.5,0.5v5.575C10.981,15.982,11.205,16.206,11.481,16.206z"/>
	</g>
</g>
</svg>
