<?xml version="1.0" encoding="utf-8"?>
<!-- Generator: Adobe Illustrator 16.0.3, SVG Export Plug-In . SVG Version: 6.00 Build 0)  -->
<!DOCTYPE svg PUBLIC "-//W3C//DTD SVG 1.1//EN" "http://www.w3.org/Graphics/SVG/1.1/DTD/svg11.dtd">
<svg version="1.1" xmlns="http://www.w3.org/2000/svg" xmlns:xlink="http://www.w3.org/1999/xlink" x="0px" y="0px" width="22.68px"
	 height="22.68px" viewBox="0 0 22.68 22.68" enable-background="new 0 0 22.68 22.68" xml:space="preserve">
<g id="BCGRND">
</g>
<g id="IKONY">
	<g>
		<polygon fill="#585857" points="22.678,16.335 22.678,0 0,0 0,22.678 14.117,22.678 22.678,22.678 		"/>
		<rect y="7.77" fill="#FFFFFF" width="22.678" height="0.889"/>
		<g>
			<g>
				<path fill="#FFFFFF" d="M3.189,4.916c0.195,0.112,0.488,0.21,0.797,0.21c0.385,0,0.6-0.181,0.6-0.449
					C4.586,4.428,4.42,4.281,4,4.13C3.459,3.935,3.111,3.646,3.111,3.173c0-0.537,0.449-0.947,1.162-0.947
					c0.357,0,0.621,0.078,0.791,0.166L4.918,2.875C4.801,2.812,4.572,2.719,4.264,2.719c-0.381,0-0.547,0.205-0.547,0.396
					c0,0.254,0.191,0.371,0.631,0.542c0.57,0.215,0.85,0.503,0.85,0.977c0,0.527-0.4,0.986-1.25,0.986
					c-0.348,0-0.709-0.098-0.889-0.205L3.189,4.916z"/>
				<path fill="#FFFFFF" d="M5.596,3.9c0-0.273-0.006-0.503-0.02-0.708h0.518l0.023,0.352h0.016C6.25,3.358,6.465,3.139,6.865,3.139
					c0.313,0,0.557,0.176,0.658,0.439h0.01C7.617,3.446,7.715,3.349,7.826,3.28c0.133-0.093,0.283-0.142,0.479-0.142
					c0.396,0,0.797,0.269,0.797,1.03V5.57H8.516V4.257c0-0.396-0.137-0.63-0.426-0.63c-0.205,0-0.355,0.146-0.42,0.317
					c-0.014,0.059-0.029,0.132-0.029,0.2V5.57H7.055V4.193c0-0.332-0.131-0.566-0.41-0.566c-0.225,0-0.375,0.176-0.43,0.342
					C6.191,4.027,6.182,4.096,6.182,4.164V5.57H5.596V3.9z"/>
				<path fill="#FFFFFF" d="M10.957,5.57l-0.039-0.264h-0.015c-0.146,0.186-0.396,0.317-0.703,0.317
					c-0.479,0-0.747-0.347-0.747-0.708c0-0.601,0.532-0.903,1.411-0.898V3.979c0-0.156-0.063-0.415-0.483-0.415
					c-0.234,0-0.479,0.073-0.64,0.176L9.624,3.349c0.176-0.107,0.483-0.21,0.859-0.21c0.762,0,0.981,0.483,0.981,1.001v0.859
					c0,0.215,0.01,0.425,0.034,0.571H10.957z M10.879,4.408c-0.425-0.01-0.83,0.083-0.83,0.444c0,0.234,0.151,0.342,0.342,0.342
					c0.239,0,0.415-0.156,0.469-0.327c0.015-0.044,0.02-0.093,0.02-0.132V4.408z"/>
				<path fill="#FFFFFF" d="M11.98,3.959c0-0.322-0.005-0.552-0.02-0.767h0.522l0.02,0.454h0.02
					c0.117-0.337,0.396-0.508,0.649-0.508c0.059,0,0.093,0.005,0.142,0.015V3.72c-0.049-0.01-0.103-0.02-0.176-0.02
					c-0.288,0-0.483,0.186-0.537,0.454c-0.01,0.054-0.02,0.117-0.02,0.186v1.23H11.98V3.959z"/>
				<path fill="#FFFFFF" d="M14.399,2.514v0.679h0.571v0.449h-0.571v1.05c0,0.288,0.078,0.439,0.308,0.439
					c0.103,0,0.181-0.015,0.234-0.029l0.01,0.459c-0.088,0.034-0.244,0.059-0.435,0.059c-0.22,0-0.405-0.073-0.518-0.195
					c-0.127-0.137-0.186-0.352-0.186-0.664V3.642h-0.342V3.192h0.342V2.655L14.399,2.514z"/>
				<path fill="#FFFFFF" d="M16.359,4.062v0.415h-1.245V4.062H16.359z"/>
				<path fill="#FFFFFF" d="M16.732,2.279h1.899v0.493h-1.299v0.908h1.211v0.493h-1.211V5.57h-0.601V2.279z"/>
				<path fill="#FFFFFF" d="M19.605,2.528c0,0.181-0.131,0.322-0.342,0.322c-0.199,0-0.332-0.142-0.332-0.322
					c0-0.186,0.137-0.327,0.338-0.327C19.475,2.201,19.602,2.343,19.605,2.528z M18.967,5.57V3.192h0.605V5.57H18.967z"/>
			</g>
		</g>
		<g>
			<g opacity="0.5">
				<path fill="#FFFFFF" fill-opacity="0.25" d="M8.454,10.74c-0.492,2.618-1.484,3.921-1.484,3.921
					c-0.383,0.688-0.604,1.478-0.604,2.319c0,2.636,2.338,4.772,4.973,4.772s4.973-2.136,4.973-4.772
					c0-0.842-0.221-1.631-0.604-2.319c0,0-0.992-1.303-1.48-3.921L8.454,10.74z"/>
				<path fill="#FFFFFF" d="M9.26,11.74l4.161,0c0.491,2,1.233,3.159,1.438,3.454c0.3,0.556,0.452,1.157,0.452,1.787
					c0,2.044-1.819,3.772-3.973,3.772s-3.973-1.728-3.973-3.772c0-0.629,0.152-1.23,0.452-1.787C8.023,14.9,8.766,13.741,9.26,11.74
					 M8.454,10.74c-0.492,2.618-1.484,3.921-1.484,3.921c-0.383,0.688-0.604,1.478-0.604,2.319c0,2.636,2.338,4.772,4.973,4.772
					s4.973-2.136,4.973-4.772c0-0.842-0.221-1.631-0.604-2.319c0,0-0.992-1.303-1.48-3.921L8.454,10.74L8.454,10.74z"/>
			</g>
			<rect x="8.481" y="9.234" opacity="0.5" fill="#FFFFFF" width="5.719" height="0.902"/>
			<circle fill="#FFFFFF" cx="11.339" cy="14.755" r="1.074"/>
			<polygon fill="#FFFFFF" points="10.245,10.74 12.431,10.74 11.757,13.837 10.921,13.837 			"/>
			<g>
				<path fill="#FFFFFF" d="M11.339,19.063c-1.15,0-2.232-0.448-3.046-1.262c-0.098-0.098-0.098-0.256,0-0.354
					c0.098-0.099,0.256-0.097,0.354,0c0.719,0.72,1.675,1.116,2.692,1.116c1.017,0,1.973-0.396,2.692-1.115
					c0.098-0.099,0.256-0.097,0.354,0c0.098,0.098,0.098,0.256,0,0.354C13.571,18.615,12.489,19.063,11.339,19.063z"/>
				<path fill="#FFFFFF" d="M11.339,18.048c-0.877,0-1.704-0.342-2.329-0.964c-0.098-0.098-0.098-0.256,0-0.354
					c0.097-0.098,0.255-0.099,0.354-0.001c0.53,0.528,1.231,0.819,1.976,0.819s1.445-0.291,1.976-0.819
					c0.099-0.098,0.257-0.097,0.354,0.001c0.098,0.098,0.098,0.256,0,0.354C13.043,17.706,12.216,18.048,11.339,18.048z"/>
				<path fill="#FFFFFF" d="M11.339,17.034c-0.606,0-1.179-0.237-1.611-0.667c-0.099-0.097-0.099-0.255-0.002-0.354
					s0.255-0.098,0.354-0.001c0.678,0.673,1.843,0.673,2.517,0c0.099-0.098,0.257-0.097,0.354,0c0.098,0.098,0.098,0.256,0,0.354
					C12.518,16.797,11.946,17.034,11.339,17.034z"/>
			</g>
		</g>
	</g>
</g>
</svg>
