<?xml version="1.0" encoding="utf-8"?>
<!-- Generator: Adobe Illustrator 16.0.3, SVG Export Plug-In . SVG Version: 6.00 Build 0)  -->
<!DOCTYPE svg PUBLIC "-//W3C//DTD SVG 1.1//EN" "http://www.w3.org/Graphics/SVG/1.1/DTD/svg11.dtd">
<svg version="1.1" xmlns="http://www.w3.org/2000/svg" xmlns:xlink="http://www.w3.org/1999/xlink" x="0px" y="0px" width="22.68px"
	 height="22.68px" viewBox="0 0 22.68 22.68" enable-background="new 0 0 22.68 22.68" xml:space="preserve">
<g id="BCGRND">
</g>
<g id="IKONY">
	<rect x="0" fill="#585857" width="22.676" height="22.678"/>
	<g>
		<g>
			<rect x="0" y="11.956" fill="#FFFFFF" width="22.678" height="0.889"/>
		</g>
		<g>
			<path fill="#FFFFFF" d="M1.824,4.632c0.19,0.112,0.488,0.21,0.796,0.21c0.381,0,0.596-0.181,0.596-0.449
				c0-0.249-0.166-0.396-0.581-0.547C2.087,3.651,1.741,3.363,1.741,2.889c0-0.542,0.449-0.947,1.167-0.947
				c0.356,0,0.615,0.078,0.786,0.166L3.552,2.591C3.43,2.528,3.201,2.435,2.893,2.435c-0.381,0-0.542,0.2-0.542,0.396
				c0,0.254,0.19,0.371,0.63,0.542c0.571,0.215,0.845,0.503,0.845,0.977c0,0.532-0.4,0.991-1.245,0.991
				c-0.352,0-0.713-0.098-0.894-0.21L1.824,4.632z"/>
			<path fill="#FFFFFF" d="M4.395,3.7c0-0.313-0.01-0.566-0.02-0.791h0.527l0.029,0.366h0.01c0.176-0.269,0.454-0.42,0.815-0.42
				c0.547,0,1.001,0.469,1.001,1.211c0,0.859-0.542,1.274-1.084,1.274c-0.298,0-0.547-0.127-0.669-0.317h-0.01v1.23H4.395V3.7z
				 M4.996,4.291c0,0.059,0.005,0.112,0.015,0.166c0.063,0.244,0.273,0.42,0.532,0.42c0.381,0,0.605-0.317,0.605-0.786
				c0-0.42-0.205-0.762-0.591-0.762c-0.249,0-0.479,0.181-0.542,0.444c-0.01,0.049-0.02,0.103-0.02,0.151V4.291z"/>
			<path fill="#FFFFFF" d="M9.565,4.076c0,0.874-0.615,1.265-1.221,1.265c-0.669,0-1.191-0.459-1.191-1.226
				c0-0.781,0.513-1.26,1.23-1.26C9.091,2.855,9.565,3.353,9.565,4.076z M7.773,4.1c0,0.459,0.229,0.806,0.591,0.806
				c0.342,0,0.581-0.332,0.581-0.815c0-0.371-0.166-0.801-0.576-0.801C7.944,3.29,7.773,3.705,7.773,4.1z"/>
			<path fill="#FFFFFF" d="M10.799,2.298v0.61h0.571v0.449h-0.571v1.05c0,0.293,0.078,0.439,0.308,0.439
				c0.107,0,0.166-0.005,0.234-0.024l0.01,0.454c-0.088,0.034-0.249,0.063-0.435,0.063c-0.225,0-0.405-0.073-0.518-0.195
				c-0.132-0.137-0.19-0.356-0.19-0.669V3.358H9.871V2.909h0.337V2.464L10.799,2.298z"/>
			<path fill="#FFFFFF" d="M12.286,2.601l-0.479-0.723h0.415l0.259,0.444h0.01l0.273-0.444h0.41l-0.479,0.723H12.286z M11.875,3.675
				c0-0.322-0.005-0.557-0.02-0.767h0.518l0.024,0.449h0.015c0.117-0.332,0.396-0.503,0.654-0.503c0.059,0,0.093,0.005,0.142,0.015
				v0.562c-0.054-0.01-0.107-0.015-0.181-0.015c-0.283,0-0.483,0.181-0.537,0.454c-0.01,0.054-0.015,0.117-0.015,0.181v1.235h-0.601
				V3.675z"/>
			<path fill="#FFFFFF" d="M14.045,4.266c0.015,0.43,0.347,0.615,0.732,0.615c0.278,0,0.474-0.044,0.659-0.107l0.088,0.41
				c-0.205,0.088-0.488,0.151-0.83,0.151c-0.771,0-1.226-0.474-1.226-1.201c0-0.659,0.4-1.279,1.162-1.279
				c0.771,0,1.025,0.635,1.025,1.157c0,0.112-0.01,0.2-0.02,0.254H14.045z M15.09,3.846c0.005-0.22-0.093-0.581-0.493-0.581
				c-0.371,0-0.527,0.337-0.552,0.581H15.09z"/>
			<path fill="#FFFFFF" d="M16.192,1.82h0.601v1.416h0.01c0.146-0.229,0.405-0.381,0.762-0.381c0.581,0,0.996,0.483,0.991,1.206
				c0,0.854-0.542,1.279-1.079,1.279c-0.308,0-0.581-0.117-0.752-0.41h-0.01l-0.029,0.356h-0.513c0.01-0.161,0.02-0.425,0.02-0.669
				V1.82z M16.793,4.305c0,0.049,0.005,0.098,0.015,0.142c0.063,0.244,0.273,0.42,0.532,0.42c0.376,0,0.605-0.298,0.605-0.781
				c0-0.42-0.2-0.762-0.601-0.762c-0.244,0-0.469,0.176-0.532,0.439c-0.01,0.044-0.02,0.098-0.02,0.156V4.305z"/>
			<path fill="#FFFFFF" d="M20.947,4.715c0,0.215,0.01,0.425,0.039,0.571h-0.542L20.4,5.023h-0.015
				c-0.142,0.186-0.391,0.317-0.703,0.317c-0.479,0-0.747-0.347-0.747-0.708c0-0.596,0.532-0.903,1.411-0.898V3.695
				c0-0.156-0.063-0.415-0.483-0.415c-0.234,0-0.479,0.073-0.64,0.176l-0.117-0.391c0.176-0.107,0.483-0.21,0.859-0.21
				c0.762,0,0.981,0.483,0.981,1.006V4.715z M20.361,4.125c-0.425-0.005-0.83,0.083-0.83,0.444c0,0.234,0.151,0.342,0.342,0.342
				c0.244,0,0.415-0.156,0.474-0.327c0.015-0.044,0.015-0.088,0.015-0.132V4.125z"/>
			<path fill="#FFFFFF" d="M6.773,7.409l0.386,1.206c0.068,0.21,0.117,0.4,0.161,0.596h0.015C7.378,9.015,7.432,8.83,7.495,8.615
				l0.381-1.206h0.63L7.598,9.787H7.007L6.123,7.409H6.773z"/>
			<path fill="#FFFFFF" d="M11.122,8.576c0,0.874-0.615,1.265-1.221,1.265c-0.669,0-1.191-0.459-1.191-1.226
				c0-0.781,0.513-1.26,1.23-1.26C10.648,7.355,11.122,7.853,11.122,8.576z M9.33,8.6c0,0.459,0.229,0.806,0.591,0.806
				c0.342,0,0.581-0.332,0.581-0.815c0-0.371-0.166-0.801-0.576-0.801C9.501,7.79,9.33,8.205,9.33,8.6z"/>
			<path fill="#FFFFFF" d="M13.86,6.32v2.798c0,0.244,0.01,0.508,0.02,0.669h-0.532l-0.029-0.376h-0.01
				c-0.142,0.264-0.43,0.43-0.771,0.43c-0.571,0-1.021-0.483-1.021-1.216c-0.005-0.796,0.493-1.27,1.064-1.27
				c0.327,0,0.562,0.132,0.669,0.308h0.01V6.32H13.86z M13.259,8.4c0-0.049-0.005-0.112-0.015-0.161
				c-0.054-0.229-0.244-0.42-0.518-0.42c-0.386,0-0.601,0.342-0.601,0.781s0.215,0.757,0.596,0.757c0.244,0,0.459-0.166,0.518-0.425
				c0.015-0.054,0.02-0.112,0.02-0.176V8.4z"/>
			<path fill="#FFFFFF" d="M14.937,7.409l0.425,1.274c0.049,0.146,0.103,0.327,0.137,0.459h0.015
				c0.034-0.132,0.078-0.313,0.127-0.464l0.371-1.27h0.64L16.056,9.03c-0.327,0.889-0.547,1.284-0.825,1.528
				c-0.239,0.205-0.483,0.283-0.63,0.303l-0.137-0.503c0.103-0.024,0.225-0.078,0.347-0.166c0.117-0.073,0.249-0.215,0.332-0.376
				c0.024-0.044,0.034-0.078,0.034-0.107c0-0.024-0.005-0.059-0.029-0.117l-0.874-2.183H14.937z"/>
		</g>
		<g>
			<path fill="#FFFFFF" d="M4.96,17.702c-0.578-0.281-0.841-0.74-0.841-1.225c0-0.9,0.799-1.513,1.844-1.513
				c1.199,0,1.734,0.714,1.734,1.395c0,0.467-0.247,0.951-0.85,1.249v0.025c0.603,0.229,1.054,0.705,1.054,1.394
				c0,0.986-0.833,1.649-2.014,1.649c-1.292,0-1.963-0.748-1.963-1.521c0-0.68,0.399-1.147,1.037-1.428V17.702z M6.838,19.112
				c0-0.561-0.408-0.866-1.028-1.036c-0.519,0.145-0.816,0.51-0.816,0.96c-0.017,0.476,0.34,0.901,0.926,0.901
				C6.473,19.937,6.838,19.588,6.838,19.112z M5.113,16.435c0,0.45,0.374,0.723,0.901,0.867c0.382-0.111,0.688-0.417,0.688-0.833
				c0-0.383-0.229-0.782-0.791-0.782C5.385,15.687,5.113,16.036,5.113,16.435z"/>
			<path fill="#FFFFFF" d="M8.396,21.611c0.229-0.646,0.459-1.538,0.569-2.244l1.097-0.085c-0.247,0.8-0.621,1.717-0.952,2.261
				L8.396,21.611z"/>
			<path fill="#FFFFFF" d="M14.218,15.925h-2.125l-0.162,1.104c0.119-0.017,0.229-0.025,0.391-0.025c0.484,0,0.978,0.11,1.343,0.357
				c0.417,0.263,0.723,0.73,0.723,1.402c0,1.054-0.875,1.912-2.227,1.912c-0.646,0-1.181-0.162-1.47-0.323l0.212-0.79
				c0.238,0.127,0.714,0.289,1.215,0.289c0.612,0,1.199-0.349,1.199-1.003c0-0.638-0.468-1.055-1.564-1.055
				c-0.314,0-0.544,0.025-0.756,0.052l0.357-2.788h2.864V15.925z"/>
			<path fill="#FFFFFF" d="M17.21,14.548h1.045v6.034H17.21V14.548z"/>
		</g>
	</g>
</g>
</svg>
