<?xml version="1.0" encoding="utf-8"?>
<!-- Generator: Adobe Illustrator 16.0.3, SVG Export Plug-In . SVG Version: 6.00 Build 0)  -->
<!DOCTYPE svg PUBLIC "-//W3C//DTD SVG 1.1//EN" "http://www.w3.org/Graphics/SVG/1.1/DTD/svg11.dtd">
<svg version="1.1" xmlns="http://www.w3.org/2000/svg" xmlns:xlink="http://www.w3.org/1999/xlink" x="0px" y="0px" width="22.68px"
	 height="22.68px" viewBox="0 0 22.68 22.68" enable-background="new 0 0 22.68 22.68" xml:space="preserve">
<g id="BCGRND">
</g>
<g id="IKONY">
	<rect x="0" fill="#585857" width="22.676" height="22.678"/>
	<g>
		<g>
			<rect x="0.001" y="11.929" fill="#FFFFFF" width="22.678" height="0.889"/>
		</g>
		<g>
			<path fill="#FFFFFF" d="M1.824,4.605c0.191,0.112,0.488,0.21,0.797,0.21c0.381,0,0.596-0.181,0.596-0.449
				c0-0.249-0.166-0.396-0.582-0.547C2.088,3.624,1.742,3.336,1.742,2.862c0-0.542,0.449-0.947,1.166-0.947
				c0.357,0,0.615,0.078,0.787,0.166L3.552,2.564C3.431,2.501,3.201,2.408,2.894,2.408c-0.381,0-0.543,0.2-0.543,0.396
				c0,0.254,0.191,0.371,0.631,0.542c0.57,0.215,0.844,0.503,0.844,0.977c0,0.532-0.4,0.991-1.244,0.991
				c-0.352,0-0.713-0.098-0.895-0.21L1.824,4.605z"/>
			<path fill="#FFFFFF" d="M4.396,3.673c0-0.313-0.01-0.566-0.02-0.791h0.527l0.029,0.366h0.01c0.176-0.269,0.454-0.42,0.815-0.42
				c0.547,0,1.001,0.469,1.001,1.211c0,0.859-0.542,1.274-1.084,1.274c-0.298,0-0.547-0.127-0.669-0.317h-0.01v1.23H4.396V3.673z
				 M4.997,4.264c0,0.059,0.005,0.112,0.015,0.166c0.063,0.244,0.273,0.42,0.532,0.42c0.381,0,0.605-0.317,0.605-0.786
				c0-0.42-0.205-0.762-0.591-0.762c-0.249,0-0.479,0.181-0.542,0.444c-0.01,0.049-0.02,0.103-0.02,0.151V4.264z"/>
			<path fill="#FFFFFF" d="M9.566,4.049c0,0.874-0.615,1.265-1.221,1.265c-0.67,0-1.191-0.459-1.191-1.226
				c0-0.781,0.512-1.26,1.23-1.26C9.092,2.828,9.566,3.326,9.566,4.049z M7.773,4.073c0,0.459,0.23,0.806,0.592,0.806
				c0.342,0,0.58-0.332,0.58-0.815c0-0.371-0.166-0.801-0.576-0.801C7.945,3.263,7.773,3.678,7.773,4.073z"/>
			<path fill="#FFFFFF" d="M10.8,2.271v0.61h0.571v0.449H10.8v1.05c0,0.293,0.078,0.439,0.308,0.439
				c0.107,0,0.166-0.005,0.234-0.024l0.01,0.454c-0.088,0.034-0.249,0.063-0.435,0.063c-0.225,0-0.405-0.073-0.518-0.195
				c-0.132-0.137-0.19-0.356-0.19-0.669V3.331H9.872V2.882h0.337V2.438L10.8,2.271z"/>
			<path fill="#FFFFFF" d="M12.287,2.574l-0.479-0.723h0.414l0.26,0.444h0.01l0.273-0.444h0.41l-0.479,0.723H12.287z M11.877,3.648
				c0-0.322-0.006-0.557-0.02-0.767h0.518l0.023,0.449h0.016c0.117-0.332,0.395-0.503,0.654-0.503c0.059,0,0.092,0.005,0.141,0.015
				v0.562c-0.053-0.01-0.107-0.015-0.18-0.015c-0.283,0-0.484,0.181-0.537,0.454c-0.01,0.054-0.016,0.117-0.016,0.181V5.26h-0.6
				V3.648z"/>
			<path fill="#FFFFFF" d="M14.047,4.239c0.014,0.43,0.346,0.615,0.732,0.615c0.277,0,0.473-0.044,0.658-0.107l0.088,0.41
				c-0.205,0.088-0.488,0.151-0.83,0.151c-0.771,0-1.225-0.474-1.225-1.201c0-0.659,0.4-1.279,1.162-1.279
				c0.771,0,1.025,0.635,1.025,1.157c0,0.112-0.01,0.2-0.02,0.254H14.047z M15.092,3.819c0.004-0.22-0.094-0.581-0.494-0.581
				c-0.371,0-0.527,0.337-0.551,0.581H15.092z"/>
			<path fill="#FFFFFF" d="M16.193,1.793h0.601v1.416h0.01c0.146-0.229,0.405-0.381,0.762-0.381c0.581,0,0.996,0.483,0.991,1.206
				c0,0.854-0.542,1.279-1.079,1.279c-0.308,0-0.581-0.117-0.752-0.41h-0.01L16.686,5.26h-0.513c0.01-0.161,0.02-0.425,0.02-0.669
				V1.793z M16.794,4.278c0,0.049,0.005,0.098,0.015,0.142c0.063,0.244,0.273,0.42,0.532,0.42c0.376,0,0.605-0.298,0.605-0.781
				c0-0.42-0.2-0.762-0.601-0.762c-0.244,0-0.469,0.176-0.532,0.439c-0.01,0.044-0.02,0.098-0.02,0.156V4.278z"/>
			<path fill="#FFFFFF" d="M20.947,4.688c0,0.215,0.01,0.425,0.039,0.571h-0.541L20.4,4.996h-0.014
				c-0.143,0.186-0.391,0.317-0.703,0.317c-0.479,0-0.748-0.347-0.748-0.708c0-0.596,0.533-0.903,1.412-0.898V3.668
				c0-0.156-0.064-0.415-0.484-0.415c-0.234,0-0.479,0.073-0.639,0.176l-0.117-0.391c0.176-0.107,0.482-0.21,0.859-0.21
				c0.762,0,0.98,0.483,0.98,1.006V4.688z M20.361,4.098c-0.424-0.005-0.83,0.083-0.83,0.444c0,0.234,0.152,0.342,0.342,0.342
				c0.244,0,0.416-0.156,0.475-0.327c0.014-0.044,0.014-0.088,0.014-0.132V4.098z"/>
			<path fill="#FFFFFF" d="M6.773,7.382L7.16,8.588c0.068,0.21,0.117,0.4,0.16,0.596h0.016c0.043-0.195,0.098-0.381,0.16-0.596
				l0.381-1.206h0.631L7.599,9.76H7.008L6.125,7.382H6.773z"/>
			<path fill="#FFFFFF" d="M11.123,8.549c0,0.874-0.615,1.265-1.221,1.265c-0.669,0-1.191-0.459-1.191-1.226
				c0-0.781,0.513-1.26,1.23-1.26C10.649,7.328,11.123,7.826,11.123,8.549z M9.331,8.573c0,0.459,0.229,0.806,0.591,0.806
				c0.342,0,0.581-0.332,0.581-0.815c0-0.371-0.166-0.801-0.576-0.801C9.502,7.763,9.331,8.178,9.331,8.573z"/>
			<path fill="#FFFFFF" d="M13.861,6.293v2.798c0,0.244,0.01,0.508,0.02,0.669h-0.533l-0.029-0.376h-0.01
				c-0.141,0.264-0.43,0.43-0.771,0.43c-0.57,0-1.02-0.483-1.02-1.216c-0.006-0.796,0.492-1.27,1.064-1.27
				c0.326,0,0.561,0.132,0.668,0.308h0.01V6.293H13.861z M13.26,8.373c0-0.049-0.004-0.112-0.014-0.161
				c-0.055-0.229-0.244-0.42-0.518-0.42c-0.387,0-0.602,0.342-0.602,0.781s0.215,0.757,0.596,0.757c0.244,0,0.459-0.166,0.518-0.425
				c0.016-0.054,0.02-0.112,0.02-0.176V8.373z"/>
			<path fill="#FFFFFF" d="M14.938,7.382l0.425,1.274c0.049,0.146,0.103,0.327,0.137,0.459h0.015
				c0.034-0.132,0.078-0.313,0.127-0.464l0.371-1.27h0.64l-0.596,1.621c-0.327,0.889-0.547,1.284-0.825,1.528
				c-0.239,0.205-0.483,0.283-0.63,0.303l-0.137-0.503c0.103-0.024,0.225-0.078,0.347-0.166c0.117-0.073,0.249-0.215,0.332-0.376
				c0.024-0.044,0.034-0.078,0.034-0.107c0-0.024-0.005-0.059-0.029-0.117l-0.874-2.183H14.938z"/>
		</g>
		<g>
			<path fill="#FFFFFF" d="M8.297,21.584c0.229-0.646,0.459-1.538,0.569-2.244l1.097-0.085c-0.247,0.8-0.621,1.717-0.952,2.261
				L8.297,21.584z"/>
			<path fill="#FFFFFF" d="M14.119,15.898h-2.125l-0.162,1.104c0.119-0.017,0.229-0.025,0.392-0.025c0.484,0,0.978,0.11,1.343,0.357
				c0.416,0.263,0.723,0.73,0.723,1.402c0,1.054-0.876,1.912-2.228,1.912c-0.646,0-1.181-0.162-1.47-0.323l0.212-0.79
				c0.238,0.127,0.714,0.289,1.216,0.289c0.612,0,1.198-0.349,1.198-1.003c0-0.638-0.468-1.055-1.563-1.055
				c-0.314,0-0.544,0.025-0.757,0.052l0.357-2.788h2.864V15.898z"/>
			<path fill="#FFFFFF" d="M17.111,14.521h1.045v6.034h-1.045V14.521z"/>
			<g>
				<path fill="#FFFFFF" d="M8.237,15.031v0.672l-2.338,4.853H4.803l2.328-4.641v-0.017H4.523v-0.867H8.237z"/>
			</g>
		</g>
	</g>
</g>
</svg>
