<?xml version="1.0" encoding="utf-8"?>
<!-- Generator: Adobe Illustrator 16.0.3, SVG Export Plug-In . SVG Version: 6.00 Build 0)  -->
<!DOCTYPE svg PUBLIC "-//W3C//DTD SVG 1.1//EN" "http://www.w3.org/Graphics/SVG/1.1/DTD/svg11.dtd">
<svg version="1.1" xmlns="http://www.w3.org/2000/svg" xmlns:xlink="http://www.w3.org/1999/xlink" x="0px" y="0px" width="22.68px"
	 height="22.68px" viewBox="0 0 22.68 22.68" enable-background="new 0 0 22.68 22.68" xml:space="preserve">
<g id="BCGRND">
</g>
<g id="BAREVNE_BCGRND">
	<rect fill="#585857" width="22.676" height="22.678"/>
</g>
<g id="IKONY">
	<g>
		<g>
			<path fill="#FFFFFF" d="M3.145,5.57V2.279h0.684l0.85,1.411c0.22,0.366,0.41,0.747,0.562,1.104h0.01
				C5.211,4.354,5.196,3.93,5.196,3.427V2.279h0.557V5.57h-0.62L4.273,4.125c-0.21-0.361-0.43-0.767-0.591-1.138L3.668,2.992
				c0.024,0.425,0.029,0.859,0.029,1.401V5.57H3.145z"/>
			<path fill="#FFFFFF" d="M8.022,5.57L7.983,5.307H7.968C7.822,5.492,7.573,5.624,7.265,5.624c-0.479,0-0.747-0.347-0.747-0.708
				c0-0.601,0.532-0.903,1.411-0.898V3.979c0-0.156-0.063-0.415-0.483-0.415c-0.234,0-0.479,0.073-0.64,0.176L6.689,3.349
				c0.176-0.107,0.483-0.21,0.859-0.21c0.762,0,0.981,0.483,0.981,1.001v0.859c0,0.215,0.01,0.425,0.034,0.571H8.022z M7.944,4.408
				c-0.425-0.01-0.83,0.083-0.83,0.444c0,0.234,0.151,0.342,0.342,0.342c0.239,0,0.415-0.156,0.469-0.327
				c0.015-0.044,0.02-0.093,0.02-0.132V4.408z"/>
			<path fill="#FFFFFF" d="M10.071,2.514v0.679h0.571v0.449h-0.571v1.05c0,0.288,0.078,0.439,0.308,0.439
				c0.103,0,0.181-0.015,0.234-0.029l0.01,0.459c-0.088,0.034-0.244,0.059-0.435,0.059c-0.22,0-0.405-0.073-0.518-0.195
				C9.544,5.287,9.485,5.072,9.485,4.76V3.642H9.143V3.192h0.342V2.655L10.071,2.514z"/>
			<path fill="#FFFFFF" d="M13.442,4.857c0,0.283,0.01,0.518,0.02,0.713h-0.527l-0.029-0.361h-0.01
				c-0.103,0.171-0.337,0.415-0.762,0.415c-0.435,0-0.83-0.259-0.83-1.035V3.192h0.601v1.294c0,0.396,0.127,0.649,0.444,0.649
				c0.239,0,0.396-0.171,0.459-0.322c0.02-0.054,0.034-0.117,0.034-0.186V3.192h0.601V4.857z"/>
			<path fill="#FFFFFF" d="M14.331,3.959c0-0.322-0.005-0.552-0.02-0.767h0.522l0.02,0.454h0.02
				c0.117-0.337,0.396-0.508,0.649-0.508c0.059,0,0.093,0.005,0.142,0.015V3.72c-0.049-0.01-0.103-0.02-0.176-0.02
				c-0.288,0-0.483,0.186-0.537,0.454c-0.01,0.054-0.02,0.117-0.02,0.186v1.23h-0.601V3.959z"/>
			<path fill="#FFFFFF" d="M17.646,5.57l-0.039-0.264h-0.015c-0.146,0.186-0.396,0.317-0.703,0.317
				c-0.479,0-0.747-0.347-0.747-0.708c0-0.601,0.532-0.903,1.411-0.898V3.979c0-0.156-0.063-0.415-0.483-0.415
				c-0.234,0-0.479,0.073-0.64,0.176l-0.117-0.391c0.176-0.107,0.483-0.21,0.859-0.21c0.762,0,0.981,0.483,0.981,1.001v0.859
				c0,0.215,0.01,0.425,0.034,0.571H17.646z M17.568,4.408c-0.425-0.01-0.83,0.083-0.83,0.444c0,0.234,0.151,0.342,0.342,0.342
				c0.239,0,0.415-0.156,0.469-0.327c0.015-0.044,0.02-0.093,0.02-0.132V4.408z"/>
			<path fill="#FFFFFF" d="M19.022,2.104h0.605V5.57h-0.605V2.104z"/>
			<path fill="#FFFFFF" d="M4.575,9.416c0.195,0.112,0.488,0.21,0.796,0.21c0.386,0,0.601-0.181,0.601-0.449
				c0-0.249-0.166-0.396-0.586-0.547C4.843,8.435,4.497,8.146,4.497,7.673c0-0.537,0.449-0.947,1.162-0.947
				c0.356,0,0.62,0.078,0.791,0.166L6.303,7.375C6.186,7.312,5.957,7.219,5.649,7.219c-0.381,0-0.547,0.205-0.547,0.396
				c0,0.254,0.19,0.371,0.63,0.542c0.571,0.215,0.85,0.503,0.85,0.977c0,0.527-0.4,0.986-1.25,0.986
				c-0.347,0-0.708-0.098-0.889-0.205L4.575,9.416z"/>
			<path fill="#FFFFFF" d="M7.972,7.014v0.679h0.571v0.449H7.972v1.05c0,0.288,0.078,0.439,0.308,0.439
				c0.103,0,0.181-0.015,0.234-0.029l0.01,0.459c-0.088,0.034-0.244,0.059-0.435,0.059c-0.22,0-0.405-0.073-0.518-0.195
				C7.445,9.787,7.386,9.572,7.386,9.26V8.142H7.045V7.692h0.342V7.155L7.972,7.014z"/>
			<path fill="#FFFFFF" d="M9.63,9.05c0.015,0.43,0.352,0.615,0.732,0.615c0.278,0,0.479-0.039,0.659-0.107l0.088,0.415
				c-0.205,0.083-0.488,0.146-0.83,0.146c-0.771,0-1.226-0.474-1.226-1.201c0-0.659,0.4-1.279,1.162-1.279
				c0.771,0,1.025,0.635,1.025,1.157c0,0.112-0.01,0.2-0.02,0.254H9.63z M10.675,8.63c0.005-0.22-0.093-0.581-0.493-0.581
				c-0.371,0-0.527,0.337-0.552,0.581H10.675z"/>
			<path fill="#FFFFFF" d="M13.31,10.07l-0.039-0.264h-0.015c-0.146,0.186-0.396,0.317-0.703,0.317
				c-0.479,0-0.747-0.347-0.747-0.708c0-0.601,0.532-0.903,1.411-0.898V8.479c0-0.156-0.063-0.415-0.483-0.415
				c-0.234,0-0.479,0.073-0.64,0.176l-0.117-0.391c0.176-0.107,0.483-0.21,0.859-0.21c0.762,0,0.981,0.483,0.981,1.001v0.859
				c0,0.215,0.01,0.425,0.034,0.571H13.31z M13.232,8.908c-0.425-0.01-0.83,0.083-0.83,0.444c0,0.234,0.151,0.342,0.342,0.342
				c0.239,0,0.415-0.156,0.469-0.327c0.015-0.044,0.02-0.093,0.02-0.132V8.908z"/>
			<path fill="#FFFFFF" d="M14.688,8.4c0-0.273-0.005-0.503-0.02-0.708h0.518l0.024,0.352h0.015
				c0.117-0.186,0.332-0.405,0.732-0.405c0.313,0,0.557,0.176,0.659,0.439h0.01c0.083-0.132,0.181-0.229,0.293-0.298
				c0.132-0.093,0.283-0.142,0.479-0.142c0.396,0,0.796,0.269,0.796,1.03v1.401h-0.586V8.757c0-0.396-0.137-0.63-0.425-0.63
				c-0.205,0-0.356,0.146-0.42,0.317c-0.015,0.059-0.029,0.132-0.029,0.2v1.426h-0.586V8.693c0-0.332-0.132-0.566-0.41-0.566
				c-0.225,0-0.376,0.176-0.43,0.342c-0.024,0.059-0.034,0.127-0.034,0.195v1.406h-0.586V8.4z"/>
		</g>
	</g>
	<g>
		<rect x="-0.039" y="11.956" fill="#FFFFFF" width="22.678" height="0.889"/>
	</g>
	<g>
		<defs>
			<rect id="SVGID_99_" x="3.119" y="20.636" width="16.439" height="2.043"/>
		</defs>
		<clipPath id="SVGID_2_">
			<use xlink:href="#SVGID_99_"  overflow="visible"/>
		</clipPath>
		<g clip-path="url(#SVGID_2_)">
			<g>
				<g opacity="0.5">
					<path fill="#FFFFFF" d="M4.408,19.9c0,0,1.322,1.663,1.936,2.28h9.99c0.613-0.617,1.936-2.28,1.936-2.28"/>
				</g>
				<g>
					<path fill="#FFFFFF" d="M16.541,22.68H6.137L5.99,22.532c-0.627-0.629-1.92-2.251-1.975-2.32l0.783-0.623
						c0.012,0.015,1.127,1.415,1.758,2.091h9.564c0.631-0.676,1.746-2.075,1.758-2.091l0.783,0.623
						c-0.055,0.069-1.348,1.691-1.975,2.321L16.541,22.68z"/>
				</g>
			</g>
		</g>
	</g>
	<g>
		<g opacity="0.5">
			<path fill="#FFFFFF" d="M16.662,20.067c-0.276,0-0.5-0.224-0.5-0.5c0-0.125-0.403-0.517-1.102-0.517s-1.102,0.392-1.102,0.517
				c0,0.276-0.224,0.5-0.5,0.5s-0.5-0.224-0.5-0.5c0-0.822,0.962-1.517,2.102-1.517s2.102,0.695,2.102,1.517
				C17.162,19.843,16.938,20.067,16.662,20.067z"/>
		</g>
		<g opacity="0.5">
			<path fill="#FFFFFF" d="M18.782,19.915c-0.041,0-0.083-0.005-0.125-0.016c-0.268-0.069-0.429-0.341-0.36-0.609
				c0.034-0.139,0.08-0.56-0.114-0.803c-0.139-0.174-0.407-0.265-0.799-0.254l-0.461,0.006l-0.043-0.459
				c-0.012-0.123-0.132-0.447-0.415-0.614c-0.292-0.171-0.696-0.145-1.202,0.078l-0.202,0.089l-0.202-0.089
				c-0.485-0.214-0.888-0.229-1.196-0.047c-0.291,0.172-0.41,0.47-0.419,0.58l-0.041,0.461l-0.463-0.005
				c-0.207-0.004-0.39,0.022-0.533,0.073c-0.261,0.092-0.546-0.044-0.638-0.304c-0.092-0.26,0.044-0.546,0.304-0.638
				c0.148-0.052,0.311-0.089,0.485-0.11c0.138-0.335,0.401-0.684,0.795-0.917c0.385-0.228,1.019-0.416,1.905-0.089
				c0.908-0.341,1.536-0.163,1.91,0.057c0.396,0.233,0.66,0.597,0.798,0.948c0.525,0.062,0.928,0.27,1.203,0.619
				c0.529,0.673,0.32,1.567,0.295,1.667C19.208,19.765,19.005,19.915,18.782,19.915z"/>
		</g>
		<g opacity="0.5">
			<path fill="#FFFFFF" d="M21.109,19.611c-0.119,0-0.239-0.042-0.334-0.128c-0.205-0.185-0.222-0.501-0.037-0.706
				c0.098-0.112,0.287-0.413,0.233-0.616c-0.042-0.157-0.256-0.307-0.601-0.424l-0.482-0.163l0.171-0.479
				c0.056-0.162,0.125-0.561-0.023-0.743c-0.121-0.149-0.448-0.202-0.898-0.145l-0.508,0.064l-0.052-0.51
				c-0.013-0.109-0.099-0.456-0.313-0.575c-0.217-0.12-0.564-0.004-0.817,0.115l-0.439,0.207l-0.22-0.433
				c-0.009-0.019-0.235-0.456-0.581-0.522c-0.283-0.055-0.599,0.162-0.817,0.353l-0.33,0.291l-0.33-0.291
				c-0.218-0.192-0.537-0.408-0.819-0.353c-0.291,0.058-0.513,0.392-0.573,0.516l-0.217,0.441l-0.445-0.209
				c-0.202-0.095-0.38-0.15-0.529-0.163c-0.275-0.025-0.478-0.267-0.454-0.542c0.025-0.275,0.267-0.478,0.542-0.454
				c0.145,0.013,0.298,0.044,0.457,0.094c0.209-0.262,0.546-0.568,1.023-0.662c0.44-0.088,0.892,0.022,1.345,0.327
				c0.45-0.302,0.897-0.412,1.335-0.328c0.481,0.092,0.821,0.397,1.034,0.664c0.508-0.158,0.954-0.131,1.329,0.081
				c0.385,0.217,0.589,0.574,0.697,0.867c0.601,0,1.069,0.179,1.36,0.542c0.316,0.394,0.335,0.883,0.291,1.237
				c0.449,0.232,0.728,0.549,0.831,0.945c0.203,0.775-0.389,1.461-0.457,1.536C21.382,19.555,21.246,19.611,21.109,19.611z"/>
		</g>
		<g opacity="0.5">
			<path fill="#FFFFFF" d="M9.219,20.067c-0.276,0-0.5-0.224-0.5-0.5c0-0.125-0.403-0.517-1.102-0.517s-1.102,0.392-1.102,0.517
				c0,0.276-0.224,0.5-0.5,0.5s-0.5-0.224-0.5-0.5c0-0.822,0.962-1.517,2.102-1.517s2.102,0.695,2.102,1.517
				C9.719,19.843,9.495,20.067,9.219,20.067z"/>
		</g>
		<g opacity="0.5">
			<path fill="#FFFFFF" d="M3.896,19.915c-0.223,0-0.426-0.15-0.484-0.376c-0.026-0.1-0.234-0.994,0.295-1.667
				c0.276-0.351,0.682-0.559,1.21-0.62c0.138-0.334,0.401-0.683,0.794-0.916c0.385-0.228,1.019-0.416,1.905-0.089
				c0.91-0.342,1.539-0.163,1.914,0.059c0.396,0.233,0.658,0.597,0.795,0.947c0.174,0.021,0.336,0.058,0.484,0.112
				c0.26,0.093,0.395,0.38,0.302,0.64c-0.094,0.26-0.38,0.394-0.64,0.302c-0.143-0.051-0.323-0.077-0.531-0.073l-0.463,0.006
				l-0.042-0.461c-0.011-0.121-0.13-0.444-0.413-0.611c-0.292-0.172-0.697-0.146-1.204,0.077l-0.202,0.089l-0.202-0.089
				c-0.485-0.214-0.888-0.229-1.196-0.047c-0.291,0.172-0.41,0.47-0.419,0.58L5.76,18.239l-0.464-0.006
				c-0.4-0.01-0.665,0.081-0.803,0.257c-0.199,0.253-0.139,0.695-0.112,0.8c0.069,0.267-0.093,0.54-0.36,0.609
				C3.979,19.91,3.937,19.915,3.896,19.915z"/>
		</g>
		<g opacity="0.5">
			<path fill="#FFFFFF" d="M1.57,19.611c-0.137,0-0.273-0.056-0.371-0.165c-0.068-0.076-0.661-0.762-0.459-1.537
				c0.104-0.397,0.382-0.713,0.831-0.945c-0.045-0.355-0.025-0.844,0.291-1.237c0.291-0.363,0.72-0.544,1.36-0.542
				c0.108-0.292,0.313-0.649,0.697-0.867c0.376-0.213,0.822-0.24,1.331-0.081c0.209-0.262,0.546-0.568,1.023-0.662
				c0.441-0.088,0.892,0.022,1.345,0.327c0.449-0.302,0.897-0.412,1.335-0.328c0.481,0.092,0.82,0.397,1.033,0.664
				c0.156-0.049,0.307-0.079,0.454-0.092c0.274-0.025,0.518,0.179,0.542,0.454c0.025,0.275-0.179,0.518-0.454,0.542
				c-0.149,0.013-0.325,0.068-0.523,0.162l-0.44,0.208l-0.22-0.434c-0.009-0.019-0.235-0.456-0.581-0.522
				c-0.283-0.055-0.599,0.162-0.817,0.353l-0.33,0.291l-0.33-0.291c-0.218-0.192-0.537-0.408-0.819-0.353
				c-0.291,0.058-0.513,0.392-0.573,0.516l-0.217,0.441l-0.445-0.209c-0.253-0.119-0.6-0.236-0.819-0.115
				c-0.214,0.119-0.3,0.466-0.313,0.578l-0.059,0.501l-0.501-0.059c-0.451-0.058-0.779-0.004-0.899,0.146
				c-0.152,0.189-0.069,0.609-0.022,0.741l0.171,0.479l-0.482,0.163c-0.347,0.117-0.56,0.268-0.601,0.425
				c-0.055,0.21,0.152,0.524,0.234,0.615c0.185,0.205,0.169,0.521-0.036,0.706C1.81,19.568,1.69,19.611,1.57,19.611z"/>
		</g>
	</g>
</g>
</svg>
