<?xml version="1.0" encoding="utf-8"?>
<!-- Generator: Adobe Illustrator 16.0.3, SVG Export Plug-In . SVG Version: 6.00 Build 0)  -->
<!DOCTYPE svg PUBLIC "-//W3C//DTD SVG 1.1//EN" "http://www.w3.org/Graphics/SVG/1.1/DTD/svg11.dtd">
<svg version="1.1" xmlns="http://www.w3.org/2000/svg" xmlns:xlink="http://www.w3.org/1999/xlink" x="0px" y="0px" width="22.68px"
	 height="22.68px" viewBox="0 0 22.68 22.68" enable-background="new 0 0 22.68 22.68" xml:space="preserve">
<g id="BCGRND">
</g>
<g id="BAREVNE_BCGRND">
	<rect x="0" fill="#585857" width="22.676" height="22.678"/>
</g>
<g id="IKONY">
	<g>
		<g>
			<g>
				<path fill="#FFFFFF" d="M4.575,4.916c0.195,0.112,0.488,0.21,0.796,0.21c0.386,0,0.601-0.181,0.601-0.449
					c0-0.249-0.166-0.396-0.586-0.547C4.843,3.935,4.497,3.646,4.497,3.173c0-0.537,0.449-0.947,1.162-0.947
					c0.356,0,0.62,0.078,0.791,0.166L6.303,2.875C6.186,2.812,5.957,2.719,5.649,2.719c-0.381,0-0.547,0.205-0.547,0.396
					c0,0.254,0.19,0.371,0.63,0.542c0.571,0.215,0.85,0.503,0.85,0.977c0,0.527-0.4,0.986-1.25,0.986
					c-0.347,0-0.708-0.098-0.889-0.205L4.575,4.916z"/>
				<path fill="#FFFFFF" d="M7.972,2.514v0.679h0.571v0.449H7.972v1.05c0,0.288,0.078,0.439,0.308,0.439
					c0.103,0,0.181-0.015,0.234-0.029l0.01,0.459C8.436,5.595,8.28,5.619,8.089,5.619c-0.22,0-0.405-0.073-0.518-0.195
					C7.445,5.287,7.386,5.072,7.386,4.76V3.642H7.045V3.192h0.342V2.655L7.972,2.514z"/>
				<path fill="#FFFFFF" d="M9.63,4.55c0.015,0.43,0.352,0.615,0.732,0.615c0.278,0,0.479-0.039,0.659-0.107l0.088,0.415
					c-0.205,0.083-0.488,0.146-0.83,0.146c-0.771,0-1.226-0.474-1.226-1.201c0-0.659,0.4-1.279,1.162-1.279
					c0.771,0,1.025,0.635,1.025,1.157c0,0.112-0.01,0.2-0.02,0.254H9.63z M10.675,4.13c0.005-0.22-0.093-0.581-0.493-0.581
					c-0.371,0-0.527,0.337-0.552,0.581H10.675z"/>
				<path fill="#FFFFFF" d="M13.31,5.57l-0.039-0.264h-0.015c-0.146,0.186-0.396,0.317-0.703,0.317
					c-0.479,0-0.747-0.347-0.747-0.708c0-0.601,0.532-0.903,1.411-0.898V3.979c0-0.156-0.063-0.415-0.483-0.415
					c-0.234,0-0.479,0.073-0.64,0.176l-0.117-0.391c0.176-0.107,0.483-0.21,0.859-0.21c0.762,0,0.981,0.483,0.981,1.001v0.859
					c0,0.215,0.01,0.425,0.034,0.571H13.31z M13.232,4.408c-0.425-0.01-0.83,0.083-0.83,0.444c0,0.234,0.151,0.342,0.342,0.342
					c0.239,0,0.415-0.156,0.469-0.327c0.015-0.044,0.02-0.093,0.02-0.132V4.408z"/>
				<path fill="#FFFFFF" d="M14.688,3.9c0-0.273-0.005-0.503-0.02-0.708h0.518l0.024,0.352h0.015
					c0.117-0.186,0.332-0.405,0.732-0.405c0.313,0,0.557,0.176,0.659,0.439h0.01c0.083-0.132,0.181-0.229,0.293-0.298
					c0.132-0.093,0.283-0.142,0.479-0.142c0.396,0,0.796,0.269,0.796,1.03V5.57h-0.586V4.257c0-0.396-0.137-0.63-0.425-0.63
					c-0.205,0-0.356,0.146-0.42,0.317c-0.015,0.059-0.029,0.132-0.029,0.2V5.57h-0.586V4.193c0-0.332-0.132-0.566-0.41-0.566
					c-0.225,0-0.376,0.176-0.43,0.342c-0.024,0.059-0.034,0.127-0.034,0.195V5.57h-0.586V3.9z"/>
				<path fill="#FFFFFF" d="M6.431,7.438h-0.01L5.84,7.731L5.738,7.277l0.771-0.381h0.503v3.174H6.431V7.438z"/>
				<path fill="#FFFFFF" d="M10.387,8.464c0,1.021-0.4,1.66-1.157,1.66c-0.732,0-1.123-0.664-1.128-1.631
					c0-0.986,0.42-1.65,1.162-1.65C10.03,6.843,10.387,7.526,10.387,8.464z M8.707,8.493c-0.005,0.771,0.21,1.172,0.542,1.172
					c0.352,0,0.537-0.43,0.537-1.191c0-0.737-0.176-1.172-0.537-1.172C8.927,7.302,8.702,7.697,8.707,8.493z"/>
				<path fill="#FFFFFF" d="M13.318,8.464c0,1.021-0.4,1.66-1.157,1.66c-0.732,0-1.123-0.664-1.128-1.631
					c0-0.986,0.42-1.65,1.162-1.65C12.962,6.843,13.318,7.526,13.318,8.464z M11.639,8.493c-0.005,0.771,0.21,1.172,0.542,1.172
					c0.352,0,0.537-0.43,0.537-1.191c0-0.737-0.176-1.172-0.537-1.172C11.859,7.302,11.634,7.697,11.639,8.493z"/>
				<path fill="#FFFFFF" d="M15.532,7.785c0,0.669-0.391,1.006-0.825,1.006c-0.444,0-0.806-0.342-0.811-0.952
					c0-0.601,0.347-0.996,0.835-0.996C15.234,6.843,15.532,7.214,15.532,7.785z M14.356,7.819c-0.005,0.366,0.127,0.635,0.366,0.635
					s0.356-0.254,0.356-0.64c0-0.352-0.098-0.635-0.356-0.635C14.478,7.18,14.356,7.463,14.356,7.819z M14.717,10.124l1.841-3.281
					H16.9l-1.841,3.281H14.717z M17.72,9.104c0,0.664-0.386,1.006-0.825,1.006s-0.806-0.342-0.806-0.957
					c0-0.596,0.347-0.996,0.83-0.996C17.422,8.156,17.72,8.532,17.72,9.104z M16.543,9.138c-0.005,0.361,0.127,0.635,0.366,0.635
					c0.244,0,0.356-0.254,0.356-0.64c0-0.356-0.098-0.635-0.356-0.635C16.665,8.498,16.543,8.781,16.543,9.138z"/>
			</g>
		</g>
		<g>
			<g>
				<path fill="#FFFFFF" d="M7.616,17.448c-1.139,0-2.102-0.695-2.102-1.517c0-0.276,0.224-0.5,0.5-0.5s0.5,0.224,0.5,0.5
					c0,0.125,0.403,0.517,1.102,0.517s1.102-0.392,1.102-0.517c0-0.276,0.224-0.5,0.5-0.5s0.5,0.224,0.5,0.5
					C9.718,16.753,8.755,17.448,7.616,17.448z"/>
			</g>
			<g>
				<path fill="#FFFFFF" d="M6.653,19.442c-0.409,0-0.723-0.116-0.947-0.247c-0.396-0.233-0.66-0.597-0.798-0.949
					c-0.525-0.062-0.928-0.269-1.203-0.619c-0.529-0.673-0.32-1.567-0.295-1.667c0.069-0.267,0.341-0.429,0.609-0.36
					c0.268,0.069,0.429,0.341,0.36,0.609c-0.034,0.139-0.08,0.56,0.114,0.803c0.139,0.174,0.409,0.264,0.799,0.254l0.461-0.006
					l0.043,0.459c0.012,0.123,0.132,0.448,0.415,0.614c0.292,0.171,0.696,0.145,1.202-0.078l0.202-0.089l0.202,0.089
					c0.485,0.214,0.888,0.23,1.196,0.047c0.291-0.172,0.41-0.47,0.419-0.58l0.041-0.462l0.463,0.005
					c0.209,0.003,0.389-0.022,0.531-0.073c0.26-0.093,0.546,0.043,0.639,0.303c0.093,0.26-0.043,0.546-0.303,0.639
					c-0.148,0.053-0.311,0.09-0.487,0.111c-0.138,0.335-0.401,0.684-0.795,0.917c-0.385,0.228-1.019,0.416-1.905,0.089
					C7.251,19.388,6.93,19.442,6.653,19.442z"/>
			</g>
			<g>
				<path fill="#FFFFFF" d="M8.665,21.954c-0.346,0-0.697-0.119-1.049-0.356C7.167,21.9,6.721,22.01,6.282,21.927
					c-0.481-0.092-0.821-0.397-1.035-0.665c-0.508,0.158-0.954,0.131-1.33-0.081c-0.385-0.217-0.589-0.574-0.697-0.867
					c-0.624-0.007-1.069-0.18-1.36-0.543c-0.316-0.394-0.335-0.882-0.291-1.237c-0.449-0.232-0.728-0.549-0.831-0.945
					c-0.203-0.775,0.389-1.461,0.457-1.536c0.185-0.205,0.501-0.222,0.706-0.037c0.205,0.185,0.222,0.501,0.037,0.706
					c-0.098,0.112-0.287,0.413-0.233,0.616c0.042,0.157,0.256,0.307,0.601,0.424l0.482,0.163l-0.171,0.479
					c-0.056,0.162-0.125,0.56,0.023,0.742c0.121,0.149,0.449,0.202,0.899,0.145l0.508-0.064l0.052,0.51
					c0.013,0.109,0.099,0.456,0.313,0.575c0.218,0.121,0.564,0.004,0.817-0.115l0.438-0.207l0.22,0.432
					c0.086,0.169,0.306,0.47,0.582,0.523c0.281,0.053,0.599-0.163,0.816-0.353l0.33-0.291l0.33,0.291
					C8.164,20.783,8.483,21,8.765,20.944c0.29-0.057,0.513-0.392,0.574-0.516l0.217-0.44l0.444,0.209
					c0.201,0.095,0.379,0.15,0.529,0.163c0.275,0.025,0.478,0.267,0.454,0.542c-0.025,0.275-0.268,0.478-0.542,0.454
					c-0.146-0.013-0.298-0.044-0.457-0.094c-0.209,0.262-0.547,0.568-1.024,0.663C8.862,21.944,8.764,21.954,8.665,21.954z"/>
			</g>
			<g>
				<path fill="#FFFFFF" d="M15.059,17.448c-1.139,0-2.102-0.695-2.102-1.517c0-0.276,0.224-0.5,0.5-0.5s0.5,0.224,0.5,0.5
					c0,0.125,0.403,0.517,1.102,0.517s1.102-0.392,1.102-0.517c0-0.276,0.224-0.5,0.5-0.5s0.5,0.224,0.5,0.5
					C17.161,16.753,16.199,17.448,15.059,17.448z"/>
			</g>
			<g>
				<path fill="#FFFFFF" d="M14.096,19.442c-0.411,0-0.726-0.117-0.95-0.249c-0.396-0.233-0.658-0.597-0.795-0.947
					c-0.174-0.021-0.336-0.058-0.484-0.112c-0.26-0.093-0.395-0.38-0.302-0.64c0.094-0.26,0.38-0.395,0.64-0.302
					c0.143,0.052,0.322,0.075,0.53,0.073l0.464-0.007l0.042,0.462c0.011,0.121,0.13,0.444,0.413,0.611
					c0.292,0.172,0.697,0.146,1.204-0.077l0.202-0.089l0.202,0.089c0.485,0.214,0.888,0.23,1.196,0.047
					c0.291-0.172,0.41-0.47,0.419-0.58l0.041-0.462l0.464,0.006c0.396,0.007,0.665-0.081,0.803-0.257
					c0.198-0.252,0.139-0.695,0.112-0.8c-0.069-0.267,0.093-0.54,0.36-0.609c0.267-0.068,0.54,0.093,0.609,0.36
					c0.026,0.1,0.234,0.994-0.295,1.667c-0.276,0.351-0.682,0.559-1.21,0.62c-0.138,0.334-0.401,0.683-0.794,0.916
					c-0.385,0.228-1.019,0.416-1.905,0.089C14.694,19.388,14.373,19.442,14.096,19.442z"/>
			</g>
			<g>
				<path fill="#FFFFFF" d="M16.109,21.954c-0.346,0-0.697-0.119-1.049-0.356c-0.449,0.302-0.896,0.412-1.334,0.329
					c-0.481-0.092-0.821-0.397-1.035-0.665c-0.156,0.049-0.308,0.08-0.453,0.093c-0.276,0.026-0.518-0.177-0.544-0.452
					c-0.025-0.275,0.177-0.518,0.452-0.544c0.151-0.014,0.328-0.068,0.525-0.162l0.439-0.208l0.221,0.433
					c0.086,0.169,0.306,0.47,0.582,0.523c0.281,0.053,0.599-0.163,0.816-0.353l0.33-0.291l0.33,0.291
					c0.218,0.192,0.536,0.409,0.819,0.353c0.29-0.057,0.513-0.392,0.574-0.516L17,19.988l0.444,0.209
					c0.253,0.119,0.6,0.236,0.819,0.115c0.214-0.119,0.3-0.466,0.313-0.578l0.059-0.501l0.501,0.059
					c0.449,0.057,0.778,0.004,0.899-0.145c0.148-0.182,0.079-0.581,0.022-0.745l-0.164-0.475l0.475-0.164
					c0.347-0.117,0.56-0.268,0.601-0.425c0.055-0.21-0.152-0.524-0.234-0.615c-0.185-0.205-0.169-0.521,0.036-0.706
					c0.205-0.185,0.521-0.169,0.706,0.036c0.068,0.076,0.661,0.762,0.459,1.537c-0.104,0.397-0.382,0.713-0.831,0.945
					c0.045,0.355,0.025,0.843-0.291,1.237c-0.292,0.363-0.752,0.528-1.36,0.543c-0.108,0.292-0.313,0.649-0.697,0.866
					c-0.376,0.213-0.823,0.24-1.331,0.081c-0.209,0.262-0.547,0.568-1.024,0.663C16.305,21.944,16.207,21.954,16.109,21.954z"/>
			</g>
			<g>
				<g>
					<path fill="#FFFFFF" d="M3.269,14.881c-0.014,0-0.029-0.001-0.044-0.004c-0.136-0.024-0.227-0.154-0.203-0.29l0.391-2.214
						c0.024-0.136,0.154-0.226,0.29-0.203c0.136,0.024,0.227,0.154,0.203,0.29l-0.391,2.214C3.493,14.796,3.388,14.881,3.269,14.881
						z"/>
				</g>
				<g>
					<path fill="#FFFFFF" d="M5.409,14.882c-0.119,0-0.225-0.085-0.246-0.207l-0.391-2.214c-0.024-0.136,0.067-0.266,0.203-0.29
						c0.136-0.024,0.266,0.067,0.29,0.203l0.391,2.214c0.024,0.136-0.067,0.266-0.203,0.29C5.438,14.881,5.423,14.882,5.409,14.882z
						"/>
				</g>
				<g>
					<path fill="#FFFFFF" d="M4.339,14.882c-0.138,0-0.25-0.112-0.25-0.25V12.4c0-0.138,0.112-0.25,0.25-0.25s0.25,0.112,0.25,0.25
						v2.231C4.589,14.77,4.477,14.882,4.339,14.882z"/>
				</g>
			</g>
			<g>
				<g>
					<path fill="#FFFFFF" d="M6.769,14.882c-0.014,0-0.029-0.001-0.044-0.004c-0.136-0.024-0.227-0.154-0.203-0.29l0.391-2.214
						c0.024-0.136,0.153-0.226,0.29-0.203c0.136,0.024,0.227,0.154,0.203,0.29l-0.391,2.214C6.993,14.797,6.888,14.882,6.769,14.882
						z"/>
				</g>
				<g>
					<path fill="#FFFFFF" d="M8.909,14.882c-0.119,0-0.225-0.085-0.246-0.207l-0.391-2.214c-0.024-0.136,0.067-0.266,0.203-0.29
						c0.137-0.024,0.266,0.067,0.29,0.203l0.391,2.214c0.024,0.136-0.067,0.266-0.203,0.29C8.938,14.881,8.923,14.882,8.909,14.882z
						"/>
				</g>
				<g>
					<path fill="#FFFFFF" d="M7.841,14.882c-0.138,0-0.25-0.112-0.25-0.25V12.4c0-0.138,0.112-0.25,0.25-0.25s0.25,0.112,0.25,0.25
						v2.231C8.091,14.77,7.979,14.882,7.841,14.882z"/>
				</g>
			</g>
			<g>
				<g>
					<path fill="#FFFFFF" d="M10.269,14.882c-0.014,0-0.029-0.001-0.044-0.004c-0.136-0.024-0.227-0.154-0.203-0.29l0.391-2.214
						c0.024-0.136,0.153-0.226,0.29-0.203c0.136,0.024,0.227,0.154,0.203,0.29l-0.391,2.214
						C10.493,14.797,10.388,14.882,10.269,14.882z"/>
				</g>
				<g>
					<path fill="#FFFFFF" d="M12.409,14.882c-0.119,0-0.225-0.085-0.246-0.207l-0.391-2.214c-0.024-0.136,0.067-0.266,0.203-0.29
						c0.137-0.024,0.266,0.067,0.29,0.203l0.391,2.214c0.024,0.136-0.067,0.266-0.203,0.29
						C12.438,14.881,12.423,14.882,12.409,14.882z"/>
				</g>
				<g>
					<path fill="#FFFFFF" d="M11.339,14.882c-0.138,0-0.25-0.112-0.25-0.25V12.4c0-0.138,0.112-0.25,0.25-0.25s0.25,0.112,0.25,0.25
						v2.231C11.589,14.77,11.477,14.882,11.339,14.882z"/>
				</g>
			</g>
			<g>
				<g>
					<path fill="#FFFFFF" d="M13.769,14.881c-0.014,0-0.029-0.001-0.044-0.004c-0.136-0.024-0.227-0.154-0.203-0.29l0.391-2.214
						c0.024-0.136,0.153-0.226,0.29-0.203c0.136,0.024,0.227,0.154,0.203,0.29l-0.391,2.214
						C13.993,14.796,13.888,14.881,13.769,14.881z"/>
				</g>
				<g>
					<path fill="#FFFFFF" d="M15.909,14.882c-0.119,0-0.225-0.085-0.246-0.207l-0.391-2.214c-0.024-0.136,0.067-0.266,0.203-0.29
						c0.136-0.024,0.266,0.067,0.29,0.203l0.391,2.214c0.024,0.136-0.067,0.266-0.203,0.29
						C15.938,14.881,15.923,14.882,15.909,14.882z"/>
				</g>
				<g>
					<path fill="#FFFFFF" d="M14.841,14.882c-0.138,0-0.25-0.112-0.25-0.25V12.4c0-0.138,0.112-0.25,0.25-0.25s0.25,0.112,0.25,0.25
						v2.231C15.091,14.77,14.979,14.882,14.841,14.882z"/>
				</g>
			</g>
			<g>
				<g>
					<path fill="#FFFFFF" d="M17.269,14.882c-0.014,0-0.029-0.001-0.044-0.004c-0.136-0.024-0.227-0.154-0.203-0.29l0.391-2.214
						c0.024-0.136,0.153-0.226,0.29-0.203c0.136,0.024,0.227,0.154,0.203,0.29l-0.391,2.214
						C17.493,14.797,17.388,14.882,17.269,14.882z"/>
				</g>
				<g>
					<path fill="#FFFFFF" d="M19.409,14.882c-0.119,0-0.225-0.085-0.246-0.207l-0.391-2.214c-0.024-0.136,0.067-0.266,0.203-0.29
						c0.137-0.024,0.266,0.067,0.29,0.203l0.391,2.214c0.024,0.136-0.067,0.266-0.203,0.29
						C19.438,14.881,19.423,14.882,19.409,14.882z"/>
				</g>
				<g>
					<path fill="#FFFFFF" d="M18.339,14.882c-0.138,0-0.25-0.112-0.25-0.25V12.4c0-0.138,0.112-0.25,0.25-0.25s0.25,0.112,0.25,0.25
						v2.231C18.589,14.77,18.477,14.882,18.339,14.882z"/>
				</g>
			</g>
		</g>
		<g>
			<rect x="-0.001" y="11.956" fill="#FFFFFF" width="22.678" height="0.889"/>
		</g>
	</g>
</g>
</svg>
