<?xml version="1.0" encoding="utf-8"?>
<!-- Generator: Adobe Illustrator 16.0.3, SVG Export Plug-In . SVG Version: 6.00 Build 0)  -->
<!DOCTYPE svg PUBLIC "-//W3C//DTD SVG 1.1//EN" "http://www.w3.org/Graphics/SVG/1.1/DTD/svg11.dtd">
<svg version="1.1" xmlns="http://www.w3.org/2000/svg" xmlns:xlink="http://www.w3.org/1999/xlink" x="0px" y="0px" width="22.68px"
	 height="22.68px" viewBox="0 0 22.68 22.68" enable-background="new 0 0 22.68 22.68" xml:space="preserve">
<g id="BCGRND">
</g>
<g id="IKONY">
	<rect x="0" fill="#585857" width="22.677" height="22.677"/>
	<g>
		<g>
			<rect x="0" y="7.769" fill="#FFFFFF" width="22.678" height="0.889"/>
			<g>
				<g>
					<path fill="#FFFFFF" d="M2.031,4.915c0.19,0.112,0.488,0.21,0.796,0.21c0.381,0,0.596-0.181,0.596-0.449
						c0-0.249-0.166-0.396-0.581-0.547C2.294,3.934,1.948,3.646,1.948,3.172c0-0.542,0.449-0.947,1.167-0.947
						c0.356,0,0.615,0.078,0.786,0.166L3.759,2.874C3.637,2.811,3.407,2.718,3.1,2.718c-0.381,0-0.542,0.2-0.542,0.396
						c0,0.254,0.19,0.371,0.63,0.542C3.759,3.87,4.032,4.158,4.032,4.632c0,0.532-0.4,0.991-1.245,0.991
						c-0.352,0-0.713-0.098-0.894-0.21L2.031,4.915z"/>
					<path fill="#FFFFFF" d="M5.149,2.581v0.61H5.72v0.449H5.149v1.05c0,0.293,0.078,0.439,0.308,0.439
						c0.107,0,0.166-0.005,0.234-0.024L5.7,5.56C5.613,5.594,5.451,5.623,5.266,5.623c-0.225,0-0.405-0.073-0.518-0.195
						c-0.132-0.137-0.19-0.356-0.19-0.669V3.641H4.221V3.191h0.337V2.747L5.149,2.581z"/>
					<path fill="#FFFFFF" d="M6.499,4.549c0.015,0.43,0.347,0.615,0.732,0.615c0.278,0,0.474-0.044,0.659-0.107l0.088,0.41
						C7.773,5.555,7.49,5.618,7.148,5.618c-0.771,0-1.226-0.474-1.226-1.201c0-0.659,0.4-1.279,1.162-1.279
						c0.771,0,1.025,0.635,1.025,1.157c0,0.112-0.01,0.2-0.02,0.254H6.499z M7.544,4.129c0.005-0.22-0.093-0.581-0.493-0.581
						c-0.371,0-0.527,0.337-0.552,0.581H7.544z"/>
					<path fill="#FFFFFF" d="M8.523,3.982c0-0.313-0.01-0.566-0.02-0.791h0.527L9.06,3.558h0.01c0.176-0.269,0.454-0.42,0.815-0.42
						c0.547,0,1.001,0.469,1.001,1.211c0,0.859-0.542,1.274-1.084,1.274c-0.298,0-0.547-0.127-0.669-0.317h-0.01v1.23H8.523V3.982z
						 M9.124,4.573c0,0.059,0.005,0.112,0.015,0.166c0.063,0.244,0.273,0.42,0.532,0.42c0.381,0,0.605-0.317,0.605-0.786
						c0-0.42-0.205-0.762-0.591-0.762c-0.249,0-0.479,0.181-0.542,0.444c-0.01,0.049-0.02,0.103-0.02,0.151V4.573z"/>
					<path fill="#FFFFFF" d="M11.334,2.327c0.19-0.039,0.537-0.073,0.879-0.073c0.439,0,0.718,0.059,0.938,0.21
						c0.205,0.122,0.342,0.337,0.342,0.62c0,0.303-0.19,0.576-0.547,0.708v0.015c0.347,0.088,0.664,0.361,0.664,0.811
						c0,0.293-0.127,0.522-0.313,0.684c-0.234,0.2-0.62,0.303-1.226,0.303c-0.332,0-0.581-0.024-0.737-0.044V2.327z M11.93,3.626
						h0.308c0.42,0,0.649-0.195,0.649-0.474c0-0.313-0.234-0.454-0.615-0.454c-0.176,0-0.278,0.01-0.342,0.024V3.626z M11.93,5.135
						c0.078,0.015,0.181,0.015,0.317,0.015c0.386,0,0.732-0.142,0.732-0.547c0-0.386-0.337-0.542-0.752-0.542H11.93V5.135z"/>
					<path fill="#FFFFFF" d="M15.913,4.998c0,0.215,0.01,0.425,0.039,0.571H15.41l-0.044-0.264h-0.015
						c-0.142,0.186-0.391,0.317-0.703,0.317c-0.479,0-0.747-0.347-0.747-0.708c0-0.596,0.532-0.903,1.411-0.898V3.978
						c0-0.156-0.063-0.415-0.483-0.415c-0.234,0-0.479,0.073-0.64,0.176l-0.117-0.391c0.176-0.107,0.483-0.21,0.859-0.21
						c0.762,0,0.981,0.483,0.981,1.006V4.998z M15.327,4.407c-0.425-0.005-0.83,0.083-0.83,0.444c0,0.234,0.151,0.342,0.342,0.342
						c0.244,0,0.415-0.156,0.474-0.327c0.015-0.044,0.015-0.088,0.015-0.132V4.407z"/>
					<path fill="#FFFFFF" d="M17.078,4.236h0.01c0.059-0.093,0.127-0.195,0.186-0.278l0.581-0.767h0.723l-0.884,0.972l1.006,1.406
						h-0.737l-0.684-1.05l-0.2,0.239v0.811h-0.601V2.103h0.601V4.236z"/>
					<path fill="#FFFFFF" d="M19.283,4.549c0.015,0.43,0.347,0.615,0.732,0.615c0.278,0,0.474-0.044,0.659-0.107l0.088,0.41
						c-0.205,0.088-0.488,0.151-0.83,0.151c-0.771,0-1.226-0.474-1.226-1.201c0-0.659,0.4-1.279,1.162-1.279
						c0.771,0,1.025,0.635,1.025,1.157c0,0.112-0.01,0.2-0.02,0.254H19.283z M20.328,4.129c0.005-0.22-0.093-0.581-0.493-0.581
						c-0.371,0-0.527,0.337-0.552,0.581H20.328z"/>
				</g>
			</g>
		</g>
		<g>
			<rect x="11.088" y="13.276" fill="#FFFFFF" width="0.5" height="9.401"/>
			<g>
				<rect x="16.686" y="19.187" opacity="0.3" fill="#FFFFFF" width="1.988" height="1.521"/>
				<rect x="16.686" y="17.216" opacity="0.3" fill="#FFFFFF" width="1.988" height="1.521"/>
				<rect x="16.686" y="15.246" opacity="0.3" fill="#FFFFFF" width="1.988" height="1.522"/>
				<rect x="16.686" y="13.276" opacity="0.3" fill="#FFFFFF" width="1.988" height="1.521"/>
			</g>
			<g>
				<rect x="12.457" y="15.246" opacity="0.3" fill="#FFFFFF" width="1.99" height="1.522"/>
				<rect x="12.457" y="13.276" opacity="0.3" fill="#FFFFFF" width="1.99" height="1.521"/>
			</g>
			<g>
				<rect x="8.229" y="15.246" opacity="0.3" fill="#FFFFFF" width="1.99" height="1.522"/>
				<rect x="8.229" y="13.276" opacity="0.3" fill="#FFFFFF" width="1.99" height="1.521"/>
			</g>
			<rect x="4" y="13.276" opacity="0.3" fill="#FFFFFF" width="1.99" height="1.521"/>
		</g>
		<path fill="#FFFFFF" d="M9.502,8.937c-0.123,0-0.191,0.105-0.191,0.216c0,0.101,0.074,0.205,0.191,0.205
			c0.123,0,0.197-0.098,0.197-0.211S9.625,8.937,9.502,8.937z M19.545,22.678h0.5v-9.401h-0.5V22.678z M15.317,22.678h0.5v-9.401
			h-0.5V22.678z M6.86,22.678h0.5v-9.401h-0.5V22.678z M2.631,22.678h0.5v-9.401h-0.5V22.678z M16.686,22.678h1.988v-1.521h-1.988
			V22.678z M12.457,22.678h1.99v-1.521h-1.99V22.678z M12.457,20.708h1.99v-1.521h-1.99V20.708z M12.457,18.737h1.99v-1.521h-1.99
			V18.737z M8.229,22.678h1.99v-1.521h-1.99V22.678z M8.229,20.708h1.99v-1.521h-1.99V20.708z M8.229,18.737h1.99v-1.521h-1.99
			V18.737z M4,22.678h1.99v-1.521H4V22.678z M4,20.708h1.99v-1.521H4V20.708z M4,18.737h1.99v-1.521H4V18.737z M4,16.769h1.99
			v-1.522H4V16.769z M2.631,8.207v4.222h17.414V8.207H2.631z M9.506,9.537c-0.27,0-0.443-0.167-0.443-0.381
			c0-0.225,0.162-0.397,0.445-0.397c0.273,0,0.436,0.166,0.436,0.394C9.944,9.375,9.764,9.537,9.506,9.537z M11.651,11.177
			c0.199,0,0.41-0.042,0.543-0.099l0.082,0.394c-0.117,0.058-0.377,0.121-0.709,0.121c-0.869,0-1.396-0.542-1.396-1.379
			c0-0.9,0.629-1.443,1.465-1.443c0.328,0,0.559,0.069,0.66,0.122L12.19,9.29c-0.129-0.057-0.311-0.106-0.535-0.106
			c-0.557,0-0.957,0.351-0.957,1.007C10.698,10.795,11.045,11.177,11.651,11.177z"/>
	</g>
</g>
</svg>
