<?xml version="1.0" encoding="utf-8"?>
<!-- Generator: Adobe Illustrator 16.0.3, SVG Export Plug-In . SVG Version: 6.00 Build 0)  -->
<!DOCTYPE svg PUBLIC "-//W3C//DTD SVG 1.1//EN" "http://www.w3.org/Graphics/SVG/1.1/DTD/svg11.dtd">
<svg version="1.1" xmlns="http://www.w3.org/2000/svg" xmlns:xlink="http://www.w3.org/1999/xlink" x="0px" y="0px"
	 width="22.679px" height="22.68px" viewBox="0 0 22.679 22.68" enable-background="new 0 0 22.679 22.68" xml:space="preserve">
<g id="BCGRND" display="none">
</g>
<g id="IKONY">
	<g>
		<defs>
			<rect id="SVGID_91_" x="31.181" width="22.678" height="22.678"/>
		</defs>
		<clipPath id="SVGID_2_">
			<use xlink:href="#SVGID_91_"  overflow="visible"/>
		</clipPath>
		<g clip-path="url(#SVGID_2_)">
			<polyline fill="none" stroke="#FFFFFF" stroke-miterlimit="10" points="2.738,16.849 6.055,14.416 9.369,16.849 12.688,14.416 
				15.998,16.849 19.314,14.416 22.629,16.849 25.943,14.416 29.26,16.849 32.572,14.416 35.889,16.849 39.205,14.416 42.52,16.849 
				45.834,14.416 49.15,16.849 52.465,14.416 55.779,16.849 59.094,14.416 62.408,16.849 65.725,14.416 69.039,16.849 
				72.354,14.416 75.67,16.849 78.984,14.416 82.301,16.849 			"/>
		</g>
		<g clip-path="url(#SVGID_2_)">
			<polyline opacity="0.5" fill="none" stroke="#FFFFFF" stroke-miterlimit="10" points="2.738,20.636 6.055,18.202 9.369,20.636 
				12.688,18.202 15.998,20.636 19.314,18.202 22.629,20.636 25.943,18.202 29.26,20.636 32.572,18.202 35.889,20.636 
				39.205,18.202 42.52,20.636 45.834,18.202 49.15,20.636 52.465,18.202 55.779,20.636 59.094,18.202 62.408,20.636 65.725,18.202 
				69.039,20.636 72.354,18.202 75.67,20.636 78.984,18.202 82.301,20.636 			"/>
		</g>
		<g clip-path="url(#SVGID_2_)">
			<polyline opacity="0.5" fill="none" stroke="#FFFFFF" stroke-miterlimit="10" points="2.738,13.063 6.055,10.628 9.369,13.063 
				12.688,10.628 15.998,13.063 19.314,10.628 22.629,13.063 25.943,10.628 29.26,13.063 32.572,10.628 35.889,13.063 
				39.205,10.628 42.52,13.063 45.834,10.628 49.15,13.063 52.465,10.628 55.779,13.063 59.094,10.628 62.408,13.063 65.725,10.628 
				69.039,13.063 72.354,10.628 75.67,13.063 78.984,10.628 82.301,13.063 			"/>
		</g>
	</g>
	<g>
		<polygon fill="#585857" points="22.678,16.335 22.678,0 0,0 0,22.678 14.117,22.678 22.678,22.678 		"/>
		<g>
			<g>
				<path fill="#FFFFFF" d="M2.513,4.916c0.195,0.112,0.488,0.21,0.796,0.21c0.386,0,0.601-0.181,0.601-0.449
					c0-0.249-0.166-0.396-0.586-0.547C2.781,3.935,2.435,3.646,2.435,3.173c0-0.537,0.449-0.947,1.162-0.947
					c0.356,0,0.62,0.078,0.791,0.166L4.241,2.875C4.124,2.812,3.895,2.719,3.587,2.719c-0.381,0-0.547,0.205-0.547,0.396
					c0,0.254,0.19,0.371,0.63,0.542c0.571,0.215,0.85,0.503,0.85,0.977c0,0.527-0.4,0.986-1.25,0.986
					c-0.347,0-0.708-0.098-0.889-0.205L2.513,4.916z"/>
				<path fill="#FFFFFF" d="M5.412,3.192l0.386,1.206c0.068,0.21,0.117,0.4,0.161,0.596h0.015c0.044-0.195,0.098-0.381,0.161-0.596
					L6.51,3.192h0.635L6.237,5.57H5.646L4.762,3.192H5.412z"/>
				<path fill="#FFFFFF" d="M7.924,4.55c0.015,0.43,0.352,0.615,0.732,0.615c0.278,0,0.479-0.039,0.659-0.107l0.088,0.415
					c-0.205,0.083-0.488,0.146-0.83,0.146c-0.771,0-1.226-0.474-1.226-1.201c0-0.659,0.4-1.279,1.162-1.279
					c0.771,0,1.025,0.635,1.025,1.157c0,0.112-0.01,0.2-0.02,0.254H7.924z M8.247,2.885L7.768,2.162h0.415l0.264,0.444h0.01
					L8.72,2.162h0.415L8.662,2.885H8.247z M8.969,4.13c0.005-0.22-0.093-0.581-0.493-0.581c-0.371,0-0.527,0.337-0.552,0.581H8.969z
					"/>
				<path fill="#FFFFFF" d="M10.76,2.514v0.679h0.571v0.449H10.76v1.05c0,0.288,0.078,0.439,0.308,0.439
					c0.103,0,0.181-0.015,0.234-0.029l0.01,0.459c-0.088,0.034-0.244,0.059-0.435,0.059c-0.22,0-0.405-0.073-0.518-0.195
					c-0.127-0.137-0.186-0.352-0.186-0.664V3.642H9.832V3.192h0.342V2.655L10.76,2.514z"/>
				<path fill="#FFFFFF" d="M12.231,4.55c0.015,0.43,0.352,0.615,0.732,0.615c0.278,0,0.479-0.039,0.659-0.107l0.088,0.415
					c-0.205,0.083-0.488,0.146-0.83,0.146c-0.771,0-1.226-0.474-1.226-1.201c0-0.659,0.4-1.279,1.162-1.279
					c0.771,0,1.025,0.635,1.025,1.157c0,0.112-0.01,0.2-0.02,0.254H12.231z M13.276,4.13c0.005-0.22-0.093-0.581-0.493-0.581
					c-0.371,0-0.527,0.337-0.552,0.581H13.276z"/>
				<path fill="#FFFFFF" d="M14.378,2.104h0.605V5.57h-0.605V2.104z"/>
				<path fill="#FFFFFF" d="M15.684,3.9c0-0.273-0.005-0.503-0.02-0.708h0.527l0.029,0.356h0.015c0.103-0.186,0.361-0.41,0.757-0.41
					c0.415,0,0.845,0.269,0.845,1.021V5.57h-0.601V4.228c0-0.342-0.127-0.601-0.454-0.601c-0.239,0-0.405,0.171-0.469,0.352
					c-0.02,0.054-0.024,0.127-0.024,0.195V5.57h-0.605V3.9z"/>
				<path fill="#FFFFFF" d="M18.827,3.192l0.43,1.274c0.049,0.146,0.098,0.327,0.132,0.464h0.015
					c0.039-0.137,0.083-0.313,0.127-0.469l0.371-1.27h0.645L19.95,4.813c-0.327,0.889-0.547,1.284-0.83,1.528
					c-0.234,0.21-0.479,0.288-0.63,0.308l-0.137-0.508c0.103-0.024,0.229-0.078,0.352-0.166c0.112-0.073,0.244-0.215,0.327-0.376
					c0.024-0.044,0.039-0.078,0.039-0.107c0-0.024-0.005-0.059-0.034-0.117l-0.869-2.183H18.827z M20.145,2.162l-0.601,0.723h-0.415
					l0.425-0.723H20.145z"/>
				<path fill="#FFFFFF" d="M2.483,7.028c0,0.181-0.132,0.322-0.342,0.322c-0.2,0-0.332-0.142-0.332-0.322
					c0-0.186,0.137-0.327,0.337-0.327C2.351,6.701,2.478,6.843,2.483,7.028z M1.843,10.07V7.692h0.605v2.378H1.843z"/>
				<path fill="#FFFFFF" d="M3.144,8.4c0-0.273-0.005-0.503-0.02-0.708h0.527l0.029,0.356h0.015c0.103-0.186,0.361-0.41,0.757-0.41
					c0.415,0,0.845,0.269,0.845,1.021v1.411H4.696V8.728c0-0.342-0.127-0.601-0.454-0.601c-0.239,0-0.405,0.171-0.469,0.352
					c-0.02,0.054-0.024,0.127-0.024,0.195v1.396H3.144V8.4z"/>
				<path fill="#FFFFFF" d="M8.182,6.604v2.798c0,0.244,0.01,0.508,0.02,0.669H7.664L7.64,9.694H7.63
					c-0.142,0.264-0.43,0.43-0.776,0.43c-0.566,0-1.016-0.483-1.016-1.216c-0.005-0.796,0.493-1.27,1.064-1.27
					c0.327,0,0.562,0.137,0.669,0.313h0.01V6.604H8.182z M7.581,8.684c0-0.049-0.005-0.107-0.015-0.156
					C7.513,8.293,7.322,8.103,7.049,8.103c-0.386,0-0.601,0.342-0.601,0.786c0,0.435,0.215,0.752,0.596,0.752
					c0.244,0,0.459-0.166,0.518-0.425c0.015-0.054,0.02-0.112,0.02-0.176V8.684z"/>
				<path fill="#FFFFFF" d="M9.518,7.028c0,0.181-0.132,0.322-0.342,0.322c-0.2,0-0.332-0.142-0.332-0.322
					c0-0.186,0.137-0.327,0.337-0.327C9.386,6.701,9.513,6.843,9.518,7.028z M8.878,10.07V7.692h0.605v2.378H8.878z"/>
				<path fill="#FFFFFF" d="M10.779,8.737h0.01c0.059-0.093,0.127-0.195,0.19-0.278l0.576-0.767h0.723l-0.879,0.972l1.006,1.406
					h-0.737l-0.684-1.05L10.779,9.26v0.811h-0.601V6.604h0.601V8.737z"/>
				<path fill="#FFFFFF" d="M14.108,10.07l-0.039-0.264h-0.015c-0.146,0.186-0.396,0.317-0.703,0.317
					c-0.479,0-0.747-0.347-0.747-0.708c0-0.601,0.532-0.903,1.411-0.898V8.479c0-0.156-0.063-0.415-0.483-0.415
					c-0.234,0-0.479,0.073-0.64,0.176l-0.117-0.391c0.176-0.107,0.483-0.21,0.859-0.21c0.762,0,0.981,0.483,0.981,1.001v0.859
					c0,0.215,0.01,0.425,0.034,0.571H14.108z M14.03,8.908c-0.425-0.01-0.83,0.083-0.83,0.444c0,0.234,0.151,0.342,0.342,0.342
					c0.239,0,0.415-0.156,0.469-0.327c0.015-0.044,0.02-0.093,0.02-0.132V8.908z M14.401,6.662L13.8,7.385h-0.415l0.425-0.723
					H14.401z"/>
				<path fill="#FFFFFF" d="M15.961,7.014v0.679h0.571v0.449h-0.571v1.05c0,0.288,0.078,0.439,0.308,0.439
					c0.103,0,0.181-0.015,0.234-0.029l0.01,0.459c-0.088,0.034-0.244,0.059-0.435,0.059c-0.22,0-0.405-0.073-0.518-0.195
					c-0.127-0.137-0.186-0.352-0.186-0.664V8.142h-0.342V7.692h0.342V7.155L15.961,7.014z"/>
				<path fill="#FFFFFF" d="M19.27,8.859c0,0.874-0.615,1.265-1.221,1.265c-0.674,0-1.191-0.464-1.191-1.226
					c0-0.781,0.513-1.26,1.23-1.26C18.796,7.639,19.27,8.137,19.27,8.859z M17.478,8.884c0,0.459,0.225,0.806,0.591,0.806
					c0.342,0,0.581-0.337,0.581-0.815c0-0.371-0.166-0.796-0.576-0.796C17.648,8.078,17.478,8.488,17.478,8.884z"/>
				<path fill="#FFFFFF" d="M19.815,8.459c0-0.322-0.005-0.552-0.02-0.767h0.522l0.02,0.454h0.02
					c0.117-0.337,0.396-0.508,0.649-0.508c0.059,0,0.093,0.005,0.142,0.015V8.22c-0.049-0.01-0.103-0.02-0.176-0.02
					c-0.288,0-0.483,0.186-0.537,0.454c-0.01,0.054-0.02,0.117-0.02,0.186v1.23h-0.601V8.459z"/>
			</g>
		</g>
		<line fill="none" stroke="#FFFFFF" stroke-width="0.8889" stroke-miterlimit="10" x1="0" y1="12.4" x2="22.678" y2="12.4"/>
		<polygon fill="none" points="22.678,16.335 22.678,0 0,0 0,22.678 14.117,22.678 22.678,22.678 		"/>
		<polygon fill="none" points="22.678,16.335 22.678,0 0,0 0,22.678 14.117,22.678 22.678,22.678 		"/>
		<g>
			<path fill="#FFFFFF" d="M0,16.611c0.696,0,1.262,0.564,1.262,1.261c0,0.697-0.565,1.262-1.262,1.262V16.611z"/>
			
				<line opacity="0.5" fill="none" stroke="#FFFFFF" stroke-width="0.5" stroke-linecap="round" stroke-miterlimit="10" stroke-dasharray="1.3,1" x1="1.906" y1="16.872" x2="8.185" y2="14.834"/>
			
				<line opacity="0.5" fill="none" stroke="#FFFFFF" stroke-width="0.5" stroke-linecap="round" stroke-miterlimit="10" stroke-dasharray="1.3,1" x1="1.906" y1="18.873" x2="8.185" y2="20.91"/>
			
				<line opacity="0.5" fill="none" stroke="#FFFFFF" stroke-width="0.5" stroke-linecap="round" stroke-miterlimit="10" stroke-dasharray="1.3,1" x1="1.391" y1="16.071" x2="5.046" y2="13.862"/>
			
				<line opacity="0.5" fill="none" stroke="#FFFFFF" stroke-width="0.5" stroke-linecap="round" stroke-miterlimit="10" stroke-dasharray="1.3,1" x1="1.391" y1="19.673" x2="5.046" y2="21.882"/>
			
				<line opacity="0.5" fill="none" stroke="#FFFFFF" stroke-width="0.5" stroke-linecap="round" stroke-miterlimit="10" stroke-dasharray="1.3,1" x1="2.048" y1="17.872" x2="8.326" y2="17.872"/>
		</g>
		<g>
			<path fill="#FFFFFF" d="M22.678,16.611c-0.696,0-1.262,0.564-1.262,1.261c0,0.697,0.565,1.262,1.262,1.262V16.611z"/>
			
				<line opacity="0.5" fill="none" stroke="#FFFFFF" stroke-width="0.5" stroke-linecap="round" stroke-miterlimit="10" stroke-dasharray="1.3,1" x1="20.771" y1="16.872" x2="14.493" y2="14.834"/>
			
				<line opacity="0.5" fill="none" stroke="#FFFFFF" stroke-width="0.5" stroke-linecap="round" stroke-miterlimit="10" stroke-dasharray="1.3,1" x1="20.771" y1="18.873" x2="14.493" y2="20.91"/>
			
				<line opacity="0.5" fill="none" stroke="#FFFFFF" stroke-width="0.5" stroke-linecap="round" stroke-miterlimit="10" stroke-dasharray="1.3,1" x1="21.287" y1="16.071" x2="17.632" y2="13.862"/>
			
				<line opacity="0.5" fill="none" stroke="#FFFFFF" stroke-width="0.5" stroke-linecap="round" stroke-miterlimit="10" stroke-dasharray="1.3,1" x1="21.287" y1="19.673" x2="17.632" y2="21.882"/>
			
				<line opacity="0.5" fill="none" stroke="#FFFFFF" stroke-width="0.5" stroke-linecap="round" stroke-miterlimit="10" stroke-dasharray="1.3,1" x1="20.63" y1="17.872" x2="14.352" y2="17.872"/>
		</g>
		<rect x="6.938" y="14.112" fill="#585857" width="8.803" height="7.542"/>
		<g>
			<polygon fill="none" stroke="#FFFFFF" stroke-linejoin="round" stroke-miterlimit="10" points="11.734,17.802 8.326,15.053 
				8.326,20.55 			"/>
			
				<line fill="none" stroke="#FFFFFF" stroke-linecap="round" stroke-linejoin="round" stroke-miterlimit="10" x1="14.352" y1="14.911" x2="14.352" y2="20.692"/>
		</g>
	</g>
</g>
</svg>
