<?xml version="1.0" encoding="utf-8"?>
<!-- Generator: Adobe Illustrator 16.0.3, SVG Export Plug-In . SVG Version: 6.00 Build 0)  -->
<!DOCTYPE svg PUBLIC "-//W3C//DTD SVG 1.1//EN" "http://www.w3.org/Graphics/SVG/1.1/DTD/svg11.dtd">
<svg version="1.1" xmlns="http://www.w3.org/2000/svg" xmlns:xlink="http://www.w3.org/1999/xlink" x="0px" y="0px" width="22.68px"
	 height="22.68px" viewBox="0 0 22.68 22.68" enable-background="new 0 0 22.68 22.68" xml:space="preserve">
<g id="BCGRND">
</g>
<g id="IKONY">
	<rect fill="#585857" width="22.676" height="22.678"/>
	<g>
		<g>
			<rect x="0.002" y="11.956" fill="#FFFFFF" width="22.678" height="0.889"/>
		</g>
		<g>
			<path fill="#FFFFFF" d="M3.981,2.498H3.044V1.996H5.53v0.502H4.583v2.789H3.981V2.498z"/>
			<path fill="#FFFFFF" d="M5.942,4.266c0.016,0.43,0.348,0.615,0.732,0.615c0.279,0,0.475-0.043,0.66-0.107l0.088,0.41
				c-0.205,0.088-0.488,0.152-0.83,0.152c-0.771,0-1.227-0.475-1.227-1.201c0-0.66,0.4-1.279,1.162-1.279
				c0.771,0,1.025,0.635,1.025,1.156c0,0.113-0.01,0.201-0.02,0.254H5.942z M6.987,3.846c0.006-0.219-0.092-0.58-0.492-0.58
				c-0.371,0-0.527,0.336-0.553,0.58H6.987z"/>
			<path fill="#FFFFFF" d="M8.04,3.699c0-0.313-0.01-0.566-0.02-0.791h0.527l0.029,0.367h0.01c0.176-0.27,0.455-0.42,0.816-0.42
				c0.547,0,1,0.469,1,1.211c0,0.859-0.541,1.273-1.084,1.273c-0.297,0-0.547-0.127-0.668-0.316h-0.01v1.23H8.04V3.699z
				 M8.642,4.291c0,0.059,0.004,0.111,0.014,0.166c0.064,0.244,0.273,0.42,0.533,0.42c0.381,0,0.605-0.318,0.605-0.787
				c0-0.42-0.205-0.762-0.592-0.762c-0.248,0-0.479,0.182-0.541,0.445c-0.01,0.049-0.02,0.102-0.02,0.15V4.291z"/>
			<path fill="#FFFFFF" d="M11.325,4.266c0.015,0.43,0.347,0.615,0.732,0.615c0.278,0,0.474-0.043,0.659-0.107l0.088,0.41
				c-0.205,0.088-0.488,0.152-0.83,0.152c-0.771,0-1.226-0.475-1.226-1.201c0-0.66,0.4-1.279,1.162-1.279
				c0.771,0,1.025,0.635,1.025,1.156c0,0.113-0.01,0.201-0.02,0.254H11.325z M12.37,3.846c0.005-0.219-0.093-0.58-0.493-0.58
				c-0.371,0-0.527,0.336-0.552,0.58H12.37z"/>
			<path fill="#FFFFFF" d="M13.423,1.82h0.602v3.467h-0.602V1.82z"/>
			<path fill="#FFFFFF" d="M14.68,3.617c0-0.273-0.01-0.504-0.02-0.709h0.522l0.029,0.357h0.015c0.107-0.186,0.366-0.41,0.762-0.41
				c0.415,0,0.845,0.268,0.845,1.02v1.412h-0.601V3.943c0-0.342-0.127-0.6-0.454-0.6c-0.239,0-0.405,0.17-0.469,0.352
				c-0.02,0.049-0.029,0.121-0.029,0.189v1.402H14.68V3.617z"/>
			<path fill="#FFFFFF" d="M17.901,4.266c0.014,0.43,0.346,0.615,0.732,0.615c0.277,0,0.473-0.043,0.658-0.107l0.088,0.41
				c-0.205,0.088-0.488,0.152-0.83,0.152c-0.771,0-1.225-0.475-1.225-1.201c0-0.66,0.4-1.279,1.162-1.279
				c0.771,0,1.025,0.635,1.025,1.156c0,0.113-0.01,0.201-0.02,0.254H17.901z M18.946,3.846c0.004-0.219-0.094-0.58-0.494-0.58
				c-0.371,0-0.527,0.336-0.551,0.58H18.946z M19.214,1.879l-0.596,0.723h-0.414l0.424-0.723H19.214z"/>
			<path fill="#FFFFFF" d="M4.104,9.713C3.978,9.771,3.729,9.836,3.431,9.836c-0.742,0-1.225-0.479-1.225-1.217
				c0-0.713,0.488-1.264,1.322-1.264c0.221,0,0.445,0.049,0.582,0.107L4.003,7.916c-0.098-0.049-0.24-0.092-0.455-0.092
				c-0.459,0-0.732,0.336-0.727,0.771c0,0.488,0.316,0.766,0.727,0.766c0.205,0,0.357-0.043,0.475-0.092L4.104,9.713z M3.124,7.102
				L2.646,6.379H3.06l0.27,0.443h0.01l0.264-0.443h0.41L3.538,7.102H3.124z"/>
			<path fill="#FFFFFF" d="M4.933,8.766c0.016,0.43,0.348,0.615,0.732,0.615c0.279,0,0.475-0.043,0.66-0.107l0.088,0.41
				c-0.205,0.088-0.488,0.152-0.83,0.152c-0.771,0-1.227-0.475-1.227-1.201c0-0.66,0.4-1.279,1.162-1.279
				c0.771,0,1.025,0.635,1.025,1.156c0,0.113-0.01,0.201-0.02,0.254H4.933z M5.978,8.346c0.006-0.219-0.092-0.58-0.492-0.58
				c-0.371,0-0.527,0.336-0.553,0.58H5.978z"/>
			<path fill="#FFFFFF" d="M7.03,8.176c0-0.322-0.004-0.557-0.02-0.768h0.518l0.025,0.449h0.014
				c0.117-0.332,0.396-0.502,0.654-0.502c0.059,0,0.094,0.004,0.143,0.014v0.563C8.31,7.922,8.257,7.916,8.183,7.916
				c-0.283,0-0.482,0.182-0.537,0.455c-0.01,0.053-0.014,0.117-0.014,0.18v1.236H7.03V8.176z"/>
			<path fill="#FFFFFF" d="M8.771,8.199c0-0.313-0.01-0.566-0.02-0.791h0.527l0.029,0.367h0.01c0.176-0.27,0.455-0.42,0.816-0.42
				c0.547,0,1,0.469,1,1.211c0,0.859-0.541,1.273-1.084,1.273c-0.297,0-0.547-0.127-0.668-0.316h-0.01v1.23H8.771V8.199z
				 M9.372,8.791c0,0.059,0.004,0.111,0.014,0.166c0.064,0.244,0.273,0.42,0.533,0.42c0.381,0,0.605-0.318,0.605-0.787
				c0-0.42-0.205-0.762-0.592-0.762c-0.248,0-0.479,0.182-0.541,0.445c-0.01,0.049-0.02,0.102-0.02,0.15V8.791z"/>
			<path fill="#FFFFFF" d="M13.478,9.215c0,0.215,0.01,0.426,0.039,0.572h-0.543l-0.043-0.264h-0.016
				c-0.141,0.186-0.391,0.316-0.703,0.316c-0.479,0-0.746-0.346-0.746-0.707c0-0.596,0.531-0.904,1.41-0.898V8.195
				c0-0.156-0.063-0.416-0.482-0.416c-0.234,0-0.479,0.074-0.641,0.176l-0.117-0.391c0.176-0.107,0.484-0.209,0.859-0.209
				c0.762,0,0.982,0.482,0.982,1.006V9.215z M12.892,8.625c-0.426-0.006-0.83,0.082-0.83,0.443c0,0.234,0.15,0.342,0.342,0.342
				c0.244,0,0.414-0.156,0.473-0.326c0.016-0.045,0.016-0.088,0.016-0.133V8.625z"/>
			<path fill="#FFFFFF" d="M16.308,6.32v2.797c0,0.244,0.01,0.508,0.02,0.67h-0.533L15.765,9.41h-0.01
				c-0.141,0.264-0.43,0.43-0.771,0.43c-0.57,0-1.02-0.482-1.02-1.215c-0.006-0.797,0.492-1.27,1.064-1.27
				c0.326,0,0.561,0.131,0.668,0.307h0.01V6.32H16.308z M15.706,8.4c0-0.049-0.004-0.113-0.014-0.162
				c-0.055-0.229-0.244-0.42-0.518-0.42c-0.387,0-0.602,0.342-0.602,0.781s0.215,0.758,0.596,0.758c0.244,0,0.459-0.166,0.518-0.426
				c0.016-0.053,0.02-0.111,0.02-0.176V8.4z"/>
			<path fill="#FFFFFF" d="M16.955,6.32h0.601v3.467h-0.601V6.32z"/>
			<path fill="#FFFFFF" d="M20.473,8.576c0,0.873-0.615,1.264-1.221,1.264c-0.669,0-1.191-0.459-1.191-1.225
				c0-0.781,0.513-1.26,1.23-1.26C19.999,7.355,20.473,7.854,20.473,8.576z M18.681,8.6c0,0.459,0.229,0.807,0.591,0.807
				c0.342,0,0.581-0.332,0.581-0.816c0-0.371-0.166-0.801-0.576-0.801C18.852,7.789,18.681,8.205,18.681,8.6z"/>
		</g>
		<g>
			<path fill="none" d="M11.545,22.31v-6.232h-0.25v-0.96c-0.689,0.006-1.348,0.135-1.963,0.359l0.365,0.879l-0.23,0.096
				l-0.23,0.096l-0.365-0.879c-0.547,0.256-1.049,0.594-1.488,0.998l0.672,0.671l-0.176,0.177L7.703,17.69l-0.674-0.672
				c-0.404,0.439-0.742,0.94-0.998,1.488l0.881,0.364l-0.096,0.23l-0.096,0.23l-0.879-0.364c-0.23,0.627-0.363,1.301-0.363,2.007
				c0,0.584,0.113,1.153,0.283,1.703h5.59L11.545,22.31z"/>
		</g>
		<g>
			<path fill="none" d="M16.84,18.968l-0.34,0.142l-4.355,3.568h4.775c0.17-0.551,0.281-1.119,0.281-1.703
				C17.201,20.269,17.07,19.595,16.84,18.968z"/>
		</g>
		<g opacity="0.5">
			<path fill="#FFFFFF" d="M15.865,19.102l-0.096-0.23l0.879-0.364c-0.256-0.548-0.592-1.048-0.996-1.488l-0.674,0.672l-0.176-0.177
				l-0.176-0.177l0.672-0.671c-0.439-0.404-0.941-0.742-1.49-0.998l-0.363,0.879l-0.23-0.096l-0.23-0.096l0.363-0.879
				c-0.49-0.18-1.012-0.297-1.555-0.338v0.938h-0.248v6.232l1.908-3.635c0.088-0.166,0.293-0.229,0.459-0.143
				c0.166,0.087,0.23,0.293,0.143,0.459l-1.936,3.687h0.025l4.355-3.568l-0.539,0.223L15.865,19.102z"/>
		</g>
		<g>
			<path fill="#FFFFFF" d="M5.479,20.975c0-0.706,0.133-1.38,0.363-2.007L5.42,18.793l0.096-0.23l0.096-0.23l0.42,0.175
				c0.256-0.548,0.594-1.049,0.998-1.488l-0.322-0.323l0.176-0.177l0.176-0.177l0.324,0.324c0.439-0.404,0.941-0.742,1.488-0.998
				l-0.174-0.421l0.23-0.096l0.23-0.096l0.174,0.421c0.615-0.225,1.273-0.354,1.963-0.359v-0.446h0.25h0.248v0.035l1.1,0.157
				l0.609,0.244l0.021-0.052l0.23,0.096l0.23,0.096l-0.02,0.047l0.467,0.188l1.111,0.94l0.08-0.08l0.176,0.177l0.176,0.177
				l-0.049,0.05l0.32,0.271l0.791,1.33l0.033-0.014l0.096,0.23l0.096,0.23l-0.422,0.175c0.23,0.627,0.361,1.301,0.361,2.007
				c0,0.584-0.111,1.152-0.281,1.703h0.941c0.145-0.553,0.229-1.123,0.229-1.703c0-3.721-3.027-6.748-6.748-6.748
				c-3.723,0-6.752,3.027-6.752,6.748c0,0.58,0.084,1.15,0.23,1.703h0.941C5.592,22.128,5.479,21.559,5.479,20.975z"/>
		</g>
		<g>
			<path fill="#FFFFFF" d="M13.348,15.477l0.154-0.369l-0.609-0.244l-1.1-0.157v0.433C12.336,15.18,12.857,15.297,13.348,15.477z"/>
		</g>
		<g>
			<path fill="#FFFFFF" d="M16.648,18.507l0.389-0.161l-0.791-1.33l-0.32-0.271l-0.273,0.273
				C16.057,17.459,16.393,17.959,16.648,18.507z"/>
		</g>
		<g>
			<path fill="#FFFFFF" d="M15.299,16.666l0.244-0.244l-1.111-0.94l-0.467-0.188l-0.156,0.374
				C14.357,15.924,14.859,16.262,15.299,16.666z"/>
		</g>
		<g>
			<polygon fill="#FFFFFF" points="11.545,22.31 11.352,22.678 11.545,22.678 			"/>
		</g>
		<g>
			<path fill="#FFFFFF" d="M12.119,22.678l1.936-3.687c0.088-0.166,0.023-0.372-0.143-0.459c-0.166-0.086-0.371-0.023-0.459,0.143
				l-1.908,3.635v0.368H12.119z"/>
		</g>
		<g>
			<path fill="#FFFFFF" d="M6.816,19.102l0.096-0.23l-0.881-0.364c-0.035,0.075-0.072,0.149-0.104,0.227L6.816,19.102z"/>
		</g>
		<g>
			<path fill="#FFFFFF" d="M6.816,19.102l-0.889-0.368c-0.033,0.076-0.059,0.156-0.086,0.234l0.879,0.364L6.816,19.102z"/>
		</g>
		<g>
			<path fill="#FFFFFF" d="M5.516,18.563l-0.096,0.23l0.422,0.175c0.027-0.078,0.053-0.158,0.086-0.234L5.516,18.563z"/>
		</g>
		<g>
			<path fill="#FFFFFF" d="M6.031,18.507l-0.42-0.175l-0.096,0.23l0.412,0.171C5.959,18.656,5.996,18.582,6.031,18.507z"/>
		</g>
		<g>
			<path fill="#FFFFFF" d="M16.5,19.109l0.34-0.142c-0.012-0.035-0.025-0.071-0.039-0.106L16.5,19.109z"/>
		</g>
		<g>
			<path fill="#FFFFFF" d="M15.865,19.102l0.889-0.368c-0.031-0.077-0.07-0.151-0.105-0.227l-0.879,0.364L15.865,19.102z"/>
		</g>
		<g>
			<path fill="#FFFFFF" d="M16.754,18.733l-0.889,0.368l0.096,0.23l0.539-0.223l0.301-0.248
				C16.785,18.819,16.771,18.775,16.754,18.733z"/>
		</g>
		<g>
			<path fill="#FFFFFF" d="M16.84,18.968l0.422-0.175l-0.096-0.23l-0.365,0.299C16.814,18.896,16.828,18.933,16.84,18.968z"/>
		</g>
		<g>
			<polygon fill="#FFFFFF" points="17.07,18.332 17.037,18.346 17.166,18.563 			"/>
		</g>
		<g>
			<path fill="#FFFFFF" d="M16.754,18.733l0.412-0.171l-0.129-0.217l-0.389,0.161C16.684,18.582,16.723,18.656,16.754,18.733z"/>
		</g>
		<g>
			<path fill="#FFFFFF" d="M16.801,18.861l0.365-0.299l-0.412,0.171C16.771,18.775,16.785,18.819,16.801,18.861z"/>
		</g>
		<g>
			<path fill="#FFFFFF" d="M7.879,17.514l-0.682-0.68c-0.059,0.059-0.111,0.123-0.168,0.185l0.674,0.672L7.879,17.514z"/>
		</g>
		<g>
			<path fill="#FFFFFF" d="M7.197,16.834l0.682,0.68l0.176-0.177l-0.672-0.671C7.32,16.723,7.256,16.775,7.197,16.834z"/>
		</g>
		<g>
			<path fill="#FFFFFF" d="M7.383,16.666l-0.324-0.324l-0.176,0.177l0.314,0.315C7.256,16.775,7.32,16.723,7.383,16.666z"/>
		</g>
		<g>
			<path fill="#FFFFFF" d="M6.883,16.519l-0.176,0.177l0.322,0.323c0.057-0.062,0.109-0.126,0.168-0.185L6.883,16.519z"/>
		</g>
		<g>
			<path fill="#FFFFFF" d="M9.467,16.451l0.23-0.096l-0.365-0.879c-0.078,0.029-0.156,0.055-0.234,0.086L9.467,16.451z"/>
		</g>
		<g>
			<path fill="#FFFFFF" d="M9.467,16.451l-0.369-0.889c-0.076,0.033-0.15,0.07-0.227,0.105l0.365,0.879L9.467,16.451z"/>
		</g>
		<g>
			<path fill="#FFFFFF" d="M8.928,15.151l-0.23,0.096l0.174,0.421c0.076-0.035,0.15-0.072,0.227-0.105L8.928,15.151z"/>
		</g>
		<g>
			<path fill="#FFFFFF" d="M9.332,15.477l-0.174-0.421l-0.23,0.096l0.17,0.411C9.176,15.531,9.254,15.506,9.332,15.477z"/>
		</g>
		<g>
			<path fill="#FFFFFF" d="M14.979,17.69l0.674-0.672c-0.057-0.062-0.109-0.126-0.168-0.185l-0.682,0.68L14.979,17.69z"/>
		</g>
		<g>
			<path fill="#FFFFFF" d="M14.803,17.514l0.682-0.68c-0.061-0.059-0.125-0.111-0.186-0.168l-0.672,0.671L14.803,17.514z"/>
		</g>
		<g>
			<polygon fill="#FFFFFF" points="15.799,16.519 15.623,16.342 15.543,16.422 15.734,16.583 			"/>
		</g>
		<g>
			<polygon fill="#FFFFFF" points="15.926,16.745 15.975,16.695 15.799,16.519 15.734,16.583 			"/>
		</g>
		<g>
			<path fill="#FFFFFF" d="M15.484,16.834l0.25-0.251l-0.191-0.161l-0.244,0.244C15.359,16.723,15.424,16.775,15.484,16.834z"/>
		</g>
		<g>
			<path fill="#FFFFFF" d="M15.484,16.834c0.059,0.059,0.111,0.123,0.168,0.185l0.273-0.273l-0.191-0.162L15.484,16.834z"/>
		</g>
		<g>
			<path fill="#FFFFFF" d="M13.215,16.451l0.367-0.889c-0.076-0.031-0.156-0.057-0.234-0.086l-0.363,0.879L13.215,16.451z"/>
		</g>
		<g>
			<path fill="#FFFFFF" d="M13.445,16.547l0.363-0.879c-0.074-0.035-0.148-0.073-0.227-0.105l-0.367,0.889L13.445,16.547z"/>
		</g>
		<g>
			
				<rect x="13.503" y="15.101" transform="matrix(0.9235 0.3835 -0.3835 0.9235 6.8442 -4.0696)" fill="#FFFFFF" width="0.25" height="0.056"/>
		</g>
		<g>
			
				<rect x="13.834" y="15.098" transform="matrix(-0.3846 0.9231 -0.9231 -0.3846 33.2416 8.2843)" fill="#FFFFFF" width="0.051" height="0.25"/>
		</g>
		<g>
			<path fill="#FFFFFF" d="M13.582,15.563l0.15-0.361l-0.23-0.094l-0.154,0.369C13.426,15.506,13.506,15.531,13.582,15.563z"/>
		</g>
		<g>
			<path fill="#FFFFFF" d="M13.582,15.563c0.078,0.032,0.152,0.07,0.227,0.105l0.156-0.374l-0.232-0.093L13.582,15.563z"/>
		</g>
		<g>
			<path fill="#FFFFFF" d="M11.545,16.077v-0.952c-0.068-0.002-0.135-0.01-0.203-0.01c-0.016,0-0.031,0.002-0.047,0.002v0.96H11.545
				z"/>
		</g>
		<g>
			<path fill="#FFFFFF" d="M11.793,15.139c-0.082-0.007-0.166-0.01-0.248-0.014v0.952h0.248V15.139z"/>
		</g>
		<g>
			<polygon fill="#FFFFFF" points="11.793,14.671 11.545,14.671 11.793,14.706 			"/>
		</g>
		<g>
			<path fill="#FFFFFF" d="M11.545,15.125v-0.454h-0.25v0.446c0.016,0,0.031-0.002,0.047-0.002
				C11.41,15.115,11.477,15.123,11.545,15.125z"/>
		</g>
		<g>
			<path fill="#FFFFFF" d="M11.793,15.139v-0.433l-0.248-0.035v0.454C11.627,15.129,11.711,15.132,11.793,15.139z"/>
		</g>
	</g>
</g>
</svg>
