<?xml version="1.0" encoding="utf-8"?>
<!-- Generator: Adobe Illustrator 16.0.3, SVG Export Plug-In . SVG Version: 6.00 Build 0)  -->
<!DOCTYPE svg PUBLIC "-//W3C//DTD SVG 1.1//EN" "http://www.w3.org/Graphics/SVG/1.1/DTD/svg11.dtd">
<svg version="1.1" xmlns="http://www.w3.org/2000/svg" xmlns:xlink="http://www.w3.org/1999/xlink" x="0px" y="0px" width="22.68px"
	 height="22.68px" viewBox="0 0 22.68 22.68" enable-background="new 0 0 22.68 22.68" xml:space="preserve">
<g id="BCGRND">
</g>
<g id="IKONY">
	<rect fill="#585857" width="22.676" height="22.678"/>
	<g>
		<g>
			<g>
				<g>
					<rect x="0.003" y="11.957" fill="#FFFFFF" width="22.676" height="0.889"/>
				</g>
				<g>
					<g>
						<path fill="#FFFFFF" d="M3.665,2.622H2.78V1.997h2.529v0.625H4.411v2.666H3.665V2.622z"/>
						<path fill="#FFFFFF" d="M5.762,4.331c0.023,0.308,0.326,0.454,0.674,0.454c0.254,0,0.459-0.034,0.657-0.098L7.191,5.19
							c-0.243,0.098-0.54,0.146-0.862,0.146c-0.811,0-1.275-0.469-1.275-1.216c0-0.605,0.377-1.274,1.207-1.274
							c0.771,0,1.063,0.601,1.063,1.191c0,0.127-0.016,0.239-0.025,0.293H5.762z M6.635,3.823c0-0.181-0.078-0.483-0.42-0.483
							c-0.313,0-0.439,0.283-0.459,0.483H6.635z"/>
						<path fill="#FFFFFF" d="M7.674,3.701c0-0.313-0.01-0.581-0.02-0.801h0.645l0.033,0.332h0.01
							c0.176-0.254,0.449-0.386,0.797-0.386c0.521,0,0.99,0.454,0.99,1.216c0,0.869-0.551,1.279-1.084,1.279
							c-0.287,0-0.512-0.117-0.619-0.273h-0.01v1.187H7.674V3.701z M8.416,4.263c0,0.059,0.004,0.112,0.014,0.156
							c0.049,0.2,0.221,0.352,0.436,0.352c0.322,0,0.512-0.269,0.512-0.674c0-0.381-0.17-0.669-0.502-0.669
							c-0.211,0-0.396,0.156-0.445,0.376C8.42,3.843,8.416,3.892,8.416,3.936V4.263z"/>
						<path fill="#FFFFFF" d="M10.499,1.821h0.742v3.467h-0.742V1.821z"/>
						<path fill="#FFFFFF" d="M14.103,4.067c0,0.874-0.619,1.274-1.26,1.274c-0.697,0-1.234-0.459-1.234-1.23
							s0.508-1.265,1.273-1.265C13.615,2.847,14.103,3.35,14.103,4.067z M12.375,4.092c0,0.41,0.172,0.718,0.488,0.718
							c0.289,0,0.475-0.288,0.475-0.718c0-0.356-0.137-0.718-0.475-0.718C12.508,3.374,12.375,3.74,12.375,4.092z"/>
						<path fill="#FFFFFF" d="M15.299,2.217V2.9h0.531v0.547h-0.531v0.864c0,0.288,0.068,0.42,0.293,0.42
							c0.093,0,0.165-0.01,0.219-0.02l0.005,0.562c-0.097,0.039-0.272,0.063-0.482,0.063c-0.239,0-0.439-0.083-0.557-0.205
							c-0.137-0.142-0.205-0.371-0.205-0.708V3.447h-0.317V2.9h0.317V2.383L15.299,2.217z"/>
						<path fill="#FFFFFF" d="M16.165,3.662c0-0.298-0.01-0.552-0.02-0.762h0.645l0.033,0.327h0.016
							c0.098-0.151,0.342-0.381,0.736-0.381c0.488,0,0.855,0.322,0.855,1.025v1.416h-0.742V3.965c0-0.308-0.107-0.518-0.377-0.518
							c-0.205,0-0.326,0.142-0.375,0.278c-0.02,0.044-0.029,0.117-0.029,0.186v1.377h-0.742V3.662z"/>
						<path fill="#FFFFFF" d="M18.931,5.288V2.9h0.742v2.388H18.931z M20.094,1.86l-0.596,0.742h-0.513l0.42-0.742H20.094z"/>
						<path fill="#FFFFFF" d="M5.178,9.139c0.137,0.083,0.42,0.181,0.639,0.181c0.225,0,0.318-0.078,0.318-0.2
							S6.061,8.938,5.784,8.846C5.29,8.68,5.1,8.411,5.104,8.128c0-0.444,0.381-0.781,0.973-0.781c0.277,0,0.527,0.063,0.674,0.137
							L6.618,7.996C6.51,7.938,6.305,7.859,6.1,7.859c-0.18,0-0.283,0.073-0.283,0.195c0,0.112,0.094,0.171,0.387,0.273
							c0.453,0.156,0.645,0.386,0.648,0.737c0,0.444-0.352,0.771-1.035,0.771c-0.313,0-0.59-0.068-0.771-0.166L5.178,9.139z"/>
						<path fill="#FFFFFF" d="M9.564,8.567c0,0.874-0.62,1.274-1.26,1.274c-0.698,0-1.235-0.459-1.235-1.23s0.508-1.265,1.274-1.265
							C9.076,7.347,9.564,7.85,9.564,8.567z M7.836,8.592c0,0.41,0.171,0.718,0.488,0.718c0.288,0,0.474-0.288,0.474-0.718
							c0-0.356-0.137-0.718-0.474-0.718C7.968,7.874,7.836,8.24,7.836,8.592z"/>
						<path fill="#FFFFFF" d="M9.929,8.162c0-0.298-0.01-0.552-0.02-0.762h0.645l0.033,0.327h0.016
							c0.098-0.151,0.342-0.381,0.736-0.381c0.488,0,0.855,0.322,0.855,1.025v1.416h-0.742V8.465c0-0.308-0.107-0.518-0.377-0.518
							c-0.205,0-0.326,0.142-0.375,0.278c-0.02,0.044-0.029,0.117-0.029,0.186v1.377H9.929V8.162z"/>
						<path fill="#FFFFFF" d="M15.01,6.321v2.754c0,0.269,0.01,0.552,0.02,0.713h-0.659l-0.034-0.352h-0.01
							c-0.151,0.269-0.439,0.405-0.747,0.405c-0.566,0-1.021-0.483-1.021-1.226c-0.005-0.806,0.498-1.27,1.069-1.27
							c0.293,0,0.522,0.103,0.63,0.269h0.01V6.321H15.01z M14.268,8.411c0-0.039-0.005-0.093-0.01-0.132
							c-0.044-0.2-0.205-0.366-0.435-0.366c-0.337,0-0.513,0.303-0.513,0.679c0,0.405,0.2,0.659,0.508,0.659
							c0.215,0,0.386-0.146,0.43-0.356c0.015-0.054,0.02-0.107,0.02-0.171V8.411z"/>
						<path fill="#FFFFFF" d="M16.869,9.788l-0.044-0.239H16.81c-0.156,0.19-0.4,0.293-0.684,0.293
							c-0.482,0-0.771-0.352-0.771-0.732c0-0.62,0.556-0.918,1.4-0.913V8.162c0-0.127-0.068-0.308-0.435-0.308
							c-0.244,0-0.503,0.083-0.658,0.181l-0.137-0.479c0.166-0.093,0.492-0.21,0.927-0.21c0.796,0,1.05,0.469,1.05,1.03v0.83
							c0,0.229,0.01,0.449,0.034,0.581H16.869z M16.781,8.66c-0.391-0.005-0.693,0.088-0.693,0.376c0,0.19,0.127,0.283,0.293,0.283
							c0.186,0,0.337-0.122,0.386-0.273c0.01-0.039,0.015-0.083,0.015-0.127V8.66z"/>
					</g>
				</g>
			</g>
		</g>
		<g opacity="0.5">
			<path fill="#FFFFFF" d="M20.628,15.499c0,0-0.103-0.792-0.724-0.528s-0.263,1.281-0.263,1.281
				c-0.228,0.227-0.849,0.773-1.414,0.886c-0.504,0.102-0.718,0.104-1.131,0.27c-0.785,0.287-1.807,0.821-2.366,1.797
				c-0.046,0.08-0.131,0.125-0.217,0.125c-0.042,0-0.085-0.011-0.124-0.033c-0.12-0.068-0.161-0.222-0.093-0.341
				c0.629-1.098,1.739-1.698,2.596-2.016c0.011-0.879-0.121-1.084-0.173-1.328c-0.057-0.264,0.377-0.772,0.377-0.772
				s0.886,0.113,0.904-0.547c0.019-0.659-0.791-0.49-0.791-0.49c0.018-0.245-0.547-0.659-0.925-0.339
				c-0.376,0.32,0.086,1.034,0.086,1.034s-0.537,0.831-0.932,1.114c-0.396,0.282-0.849,0.264-1.729,0.867
				c-0.881,0.603-1.363,1.658-1.363,1.658c-4.806,0.642-4.787,4.542-4.787,4.542h9.932c2.902-1.564,2.375-5.635,2.375-5.635
				l0.489-0.415c0,0,0.98,0.17,1.094-0.452C21.601,15.341,20.628,15.499,20.628,15.499z"/>
		</g>
		<g>
			<g>
				<path fill="#FFFFFF" d="M11.777,21.775l0.324-0.381l0.208,0.526L11.777,21.775z M11.396,21.452l-0.382-0.323l0.324-0.382
					l0.382,0.323L11.396,21.452z M10.634,20.805l-0.381-0.324l0.324-0.381l0.381,0.324L10.634,20.805z M9.872,20.157l-0.381-0.324
					l0.324-0.381l0.381,0.324L9.872,20.157z"/>
			</g>
			<g>
				<polygon fill="#FFFFFF" points="9.089,19.492 7.385,18.045 7.709,17.664 9.491,19.174 				"/>
			</g>
			<g>
				<path fill="#FFFFFF" d="M4.653,16.12l1.991,1.692l-0.238,0.28c0,0-0.231,0.256,0.043,0.489s0.502-0.024,0.502-0.024l1.193-1.406
					c0,0,0.218-0.266-0.057-0.499s-0.489,0.035-0.489,0.035l-0.239,0.281L5.37,15.277L4.653,16.12z"/>
			</g>
		</g>
		<g>
			<path fill="#FFFFFF" d="M0.001,14.914c0.82,0.35,1.688,0.318,2.362,0.11c1.624-0.506,2.935,0.586,2.99,0.634L5.031,16.04
				c-0.011-0.009-1.166-0.957-2.52-0.538c-0.715,0.222-1.625,0.269-2.506-0.048L0.001,14.914z"/>
		</g>
	</g>
</g>
</svg>
