<?xml version="1.0" encoding="utf-8"?>
<!-- Generator: Adobe Illustrator 16.0.3, SVG Export Plug-In . SVG Version: 6.00 Build 0)  -->
<!DOCTYPE svg PUBLIC "-//W3C//DTD SVG 1.1//EN" "http://www.w3.org/Graphics/SVG/1.1/DTD/svg11.dtd">
<svg version="1.1" xmlns="http://www.w3.org/2000/svg" xmlns:xlink="http://www.w3.org/1999/xlink" x="0px" y="0px" width="22.68px"
	 height="22.68px" viewBox="0 0 22.68 22.68" enable-background="new 0 0 22.68 22.68" xml:space="preserve">
<g id="BCGRND">
</g>
<g id="IKONY">
	<rect x="0" fill="#585857" width="22.676" height="22.678"/>
	<path fill="#FFFFFF" d="M1.842,2.779H0.905V2.276h2.486v0.503H2.444v2.788H1.842V2.779z"/>
	<path fill="#FFFFFF" d="M3.969,2.525c0,0.176-0.132,0.322-0.342,0.322c-0.2,0-0.332-0.146-0.332-0.322
		c0-0.186,0.137-0.327,0.337-0.327C3.837,2.198,3.964,2.34,3.969,2.525z M3.329,5.567V3.189H3.93v2.378H3.329z"/>
	<path fill="#FFFFFF" d="M6.188,5.494C6.061,5.553,5.811,5.616,5.514,5.616c-0.742,0-1.227-0.479-1.227-1.216
		c0-0.713,0.488-1.265,1.324-1.265c0.219,0,0.443,0.049,0.58,0.107L6.084,3.697C5.987,3.648,5.846,3.604,5.631,3.604
		c-0.459,0-0.732,0.337-0.729,0.771c0,0.488,0.318,0.767,0.729,0.767c0.205,0,0.355-0.044,0.473-0.093L6.188,5.494z"/>
	<path fill="#FFFFFF" d="M6.492,2.101h0.602v1.411h0.01C7.176,3.399,7.28,3.307,7.401,3.243c0.123-0.068,0.264-0.107,0.416-0.107
		c0.404,0,0.83,0.269,0.83,1.03v1.401H8.045V4.229c0-0.342-0.127-0.605-0.459-0.605c-0.234,0-0.4,0.156-0.469,0.337
		c-0.02,0.054-0.023,0.117-0.023,0.181v1.426H6.492V2.101z"/>
	<path fill="#FFFFFF" d="M9.449,3.189l0.426,1.274c0.049,0.146,0.102,0.327,0.137,0.459h0.014c0.035-0.132,0.078-0.313,0.127-0.464
		l0.371-1.27h0.641l-0.596,1.621c-0.328,0.889-0.547,1.284-0.826,1.528C9.504,6.544,9.26,6.622,9.114,6.642L8.977,6.139
		c0.102-0.024,0.225-0.078,0.346-0.166c0.117-0.073,0.25-0.215,0.332-0.376C9.68,5.553,9.69,5.519,9.69,5.489
		c0-0.024-0.006-0.059-0.029-0.117L8.785,3.189H9.449z M10.758,2.159l-0.596,0.723H9.748l0.424-0.723H10.758z"/>
	<path fill="#FFFFFF" d="M13.795,5.494c-0.127,0.059-0.377,0.122-0.674,0.122c-0.742,0-1.227-0.479-1.227-1.216
		c0-0.713,0.488-1.265,1.324-1.265c0.219,0,0.443,0.049,0.58,0.107l-0.107,0.454c-0.098-0.049-0.238-0.093-0.453-0.093
		c-0.459,0-0.732,0.337-0.729,0.771c0,0.488,0.318,0.767,0.729,0.767c0.205,0,0.355-0.044,0.473-0.093L13.795,5.494z"/>
	<path fill="#FFFFFF" d="M14.1,2.101H14.7v1.411h0.01c0.073-0.112,0.176-0.205,0.298-0.269c0.122-0.068,0.264-0.107,0.415-0.107
		c0.405,0,0.83,0.269,0.83,1.03v1.401h-0.601V4.229c0-0.342-0.127-0.605-0.459-0.605c-0.234,0-0.4,0.156-0.469,0.337
		C14.705,4.015,14.7,4.078,14.7,4.142v1.426H14.1V2.101z"/>
	<path fill="#FFFFFF" d="M19.016,4.356c0,0.874-0.615,1.265-1.221,1.265c-0.67,0-1.191-0.459-1.191-1.226
		c0-0.781,0.512-1.26,1.23-1.26C18.541,3.136,19.016,3.634,19.016,4.356z M17.223,4.381c0,0.459,0.23,0.806,0.592,0.806
		c0.342,0,0.58-0.332,0.58-0.815c0-0.371-0.166-0.801-0.576-0.801C17.395,3.57,17.223,3.985,17.223,4.381z"/>
	<path fill="#FFFFFF" d="M21.563,2.101v2.798c0,0.244,0.01,0.508,0.02,0.669H21.05l-0.029-0.376h-0.01
		c-0.142,0.264-0.43,0.43-0.771,0.43c-0.571,0-1.021-0.483-1.021-1.216c-0.005-0.796,0.493-1.27,1.064-1.27
		c0.327,0,0.562,0.132,0.669,0.308h0.01V2.101H21.563z M20.962,4.181c0-0.049-0.005-0.112-0.015-0.161
		C20.894,3.79,20.703,3.6,20.43,3.6c-0.386,0-0.601,0.342-0.601,0.781s0.215,0.757,0.596,0.757c0.244,0,0.459-0.166,0.518-0.425
		c0.015-0.054,0.02-0.112,0.02-0.176V4.181z"/>
	<path fill="none" d="M13.37,18.828c0,0.25-0.17,0.342-0.379,0.201l-2.499-1.679c-0.208-0.14-0.584-0.255-0.835-0.255H8.912
		c-0.251,0-0.456-0.205-0.456-0.455v-2.346c0-0.252,0.205-0.457,0.456-0.457h0.06l-1.403-1.402
		c-1.577,1.937-1.486,4.789,0.317,6.592c0.933,0.934,2.172,1.447,3.491,1.447c1.148,0,2.225-0.41,3.104-1.128l-1.11-1.11V18.828z"/>
	<path fill="none" d="M10.492,13.584l2.499-1.679c0.209-0.14,0.379-0.05,0.379,0.202v4.715l1.815,1.816
		c1.577-1.938,1.486-4.789-0.317-6.593c-0.933-0.933-2.173-1.445-3.491-1.445c-1.149,0-2.226,0.409-3.103,1.126l1.977,1.978
		C10.342,13.668,10.427,13.629,10.492,13.584z"/>
	<path opacity="0.5" fill="#FFFFFF" d="M15.575,11.339c-1.122-1.121-2.613-1.738-4.198-1.738c-1.586,0-3.077,0.617-4.198,1.738
		c-2.314,2.315-2.314,6.081,0,8.396c1.121,1.122,2.612,1.74,4.198,1.74c1.585,0,3.076-0.618,4.198-1.74
		C17.89,17.42,17.89,13.654,15.575,11.339z M11.377,10.601c1.318,0,2.559,0.513,3.491,1.445c1.804,1.804,1.895,4.655,0.317,6.593
		l-1.815-1.816l-3.119-3.118l-1.977-1.978C9.152,11.01,10.228,10.601,11.377,10.601z M11.377,20.475
		c-1.319,0-2.559-0.514-3.491-1.447c-1.804-1.803-1.895-4.655-0.317-6.592l5.802,5.801l1.11,1.11
		C13.602,20.064,12.526,20.475,11.377,20.475z"/>
	<path fill="#FFFFFF" d="M0.001,7.769v0.889h22.678V7.769H0.001z M12.991,11.905l-2.499,1.679c-0.065,0.045-0.15,0.084-0.241,0.12
		l3.119,3.118v-4.715C13.37,11.855,13.2,11.766,12.991,11.905z M8.912,13.838c-0.251,0-0.456,0.205-0.456,0.457v2.346
		c0,0.25,0.205,0.455,0.456,0.455h0.745c0.251,0,0.627,0.115,0.835,0.255l2.499,1.679c0.209,0.141,0.379,0.049,0.379-0.201v-0.592
		l-4.398-4.398H8.912z M14.305,14.061c-0.113-0.131-0.308-0.144-0.438-0.032s-0.146,0.308-0.036,0.44
		c0.012,0.015,0.297,0.364,0.297,0.982c0,0.614-0.28,0.963-0.297,0.982c-0.111,0.131-0.097,0.327,0.033,0.439
		c0.06,0.052,0.133,0.077,0.205,0.077c0.088,0,0.175-0.037,0.236-0.108c0.019-0.021,0.449-0.528,0.449-1.391
		S14.323,14.082,14.305,14.061z M14.546,12.989c-0.131,0.113-0.145,0.311-0.031,0.441c0.006,0.007,0.621,0.733,0.621,2.021
		c0,1.272-0.616,2.015-0.622,2.022c-0.112,0.131-0.097,0.328,0.034,0.44c0.06,0.051,0.132,0.075,0.204,0.075
		c0.087,0,0.174-0.036,0.235-0.107c0.032-0.037,0.775-0.914,0.775-2.431c0-1.519-0.743-2.394-0.775-2.431
		C14.875,12.891,14.678,12.874,14.546,12.989z"/>
</g>
</svg>
