<?xml version="1.0" encoding="utf-8"?>
<!-- Generator: Adobe Illustrator 16.0.3, SVG Export Plug-In . SVG Version: 6.00 Build 0)  -->
<!DOCTYPE svg PUBLIC "-//W3C//DTD SVG 1.1//EN" "http://www.w3.org/Graphics/SVG/1.1/DTD/svg11.dtd">
<svg version="1.1" xmlns="http://www.w3.org/2000/svg" xmlns:xlink="http://www.w3.org/1999/xlink" x="0px" y="0px" width="22.68px"
	 height="22.68px" viewBox="0 0 22.68 22.68" enable-background="new 0 0 22.68 22.68" xml:space="preserve">
<g id="BCGRND">
</g>
<g id="IKONY">
	<rect x="0" fill="#585857" width="22.676" height="22.678"/>
	<g>
		<g>
			<rect y="7.77" fill="#FFFFFF" width="22.678" height="0.889"/>
		</g>
		<g>
			<g>
				<path fill="#FFFFFF" d="M2.679,2.781H1.741V2.278h2.485v0.503H3.279v2.788H2.679V2.781z"/>
				<path fill="#FFFFFF" d="M4.493,2.103h0.605v3.467H4.493V2.103z"/>
				<path fill="#FFFFFF" d="M7.039,5.569L7,5.306H6.984C6.838,5.491,6.59,5.623,6.281,5.623c-0.479,0-0.746-0.347-0.746-0.708
					c0-0.601,0.531-0.903,1.41-0.898V3.978c0-0.156-0.063-0.415-0.482-0.415c-0.234,0-0.479,0.073-0.641,0.176L5.705,3.348
					c0.176-0.107,0.484-0.21,0.859-0.21c0.762,0,0.982,0.483,0.982,1.001v0.859c0,0.215,0.01,0.425,0.033,0.571H7.039z M6.961,4.407
					c-0.426-0.01-0.83,0.083-0.83,0.444c0,0.234,0.15,0.342,0.342,0.342c0.238,0,0.414-0.156,0.469-0.327
					c0.014-0.044,0.02-0.093,0.02-0.132V4.407z"/>
				<path fill="#FFFFFF" d="M8.736,4.236h0.01c0.059-0.093,0.127-0.195,0.19-0.278l0.576-0.767h0.723L9.356,4.163l1.006,1.406H9.625
					L8.941,4.52L8.736,4.759v0.811H8.136V2.103h0.601V4.236z"/>
				<path fill="#FFFFFF" d="M12.549,2.186c-0.313,0.464-0.552,1.108-0.552,1.987c0,0.864,0.244,1.504,0.552,1.973h-0.439
					c-0.278-0.391-0.591-1.025-0.591-1.973c0.005-0.952,0.313-1.592,0.591-1.987H12.549z"/>
				<path fill="#FFFFFF" d="M12.941,5.569c0.01-0.161,0.02-0.425,0.02-0.669V2.103h0.601v1.416h0.01
					c0.146-0.229,0.405-0.381,0.762-0.381c0.581,0,0.996,0.483,0.991,1.206c0,0.854-0.542,1.279-1.079,1.279
					c-0.308,0-0.581-0.117-0.752-0.41h-0.01l-0.029,0.356H12.941z M13.562,4.588c0,0.049,0.005,0.098,0.015,0.142
					c0.063,0.239,0.273,0.42,0.532,0.42c0.376,0,0.605-0.303,0.605-0.781c0-0.42-0.2-0.762-0.601-0.762
					c-0.244,0-0.464,0.176-0.532,0.439c-0.01,0.044-0.02,0.098-0.02,0.156V4.588z"/>
				<path fill="#FFFFFF" d="M17.109,5.569L17.07,5.306h-0.014c-0.146,0.186-0.396,0.317-0.703,0.317
					c-0.479,0-0.748-0.347-0.748-0.708c0-0.601,0.533-0.903,1.412-0.898V3.978c0-0.156-0.064-0.415-0.484-0.415
					c-0.234,0-0.479,0.073-0.639,0.176l-0.117-0.391c0.176-0.107,0.482-0.21,0.859-0.21c0.762,0,0.98,0.483,0.98,1.001v0.859
					c0,0.215,0.01,0.425,0.035,0.571H17.109z M17.031,4.407c-0.424-0.01-0.83,0.083-0.83,0.444c0,0.234,0.152,0.342,0.342,0.342
					c0.24,0,0.416-0.156,0.469-0.327c0.016-0.044,0.02-0.093,0.02-0.132V4.407z"/>
				<path fill="#FFFFFF" d="M18.207,3.958c0-0.322-0.006-0.552-0.02-0.767h0.521l0.02,0.454h0.02
					c0.117-0.337,0.396-0.508,0.65-0.508c0.059,0,0.092,0.005,0.141,0.015v0.566c-0.049-0.01-0.102-0.02-0.176-0.02
					c-0.287,0-0.482,0.186-0.537,0.454c-0.01,0.054-0.02,0.117-0.02,0.186v1.23h-0.6V3.958z"/>
				<path fill="#FFFFFF" d="M19.713,6.146c0.307-0.464,0.547-1.113,0.547-1.982s-0.24-1.509-0.547-1.978h0.434
					c0.283,0.391,0.596,1.025,0.596,1.982C20.738,5.12,20.43,5.75,20.146,6.146H19.713z"/>
			</g>
		</g>
		<g>
			<path fill="#FFFFFF" d="M7.682,12.544H7.654l-1.586,0.801l-0.281-1.24l2.107-1.041h1.374v8.669H7.682V12.544z"/>
			<path fill="#FFFFFF" d="M16.753,12.424h-3.335l-0.253,1.734c0.2-0.027,0.374-0.04,0.627-0.04c0.761,0,1.521,0.173,2.107,0.56
				c0.653,0.414,1.134,1.147,1.134,2.201c0,1.653-1.374,3-3.508,3c-1,0-1.84-0.253-2.294-0.507l0.333-1.24
				c0.374,0.2,1.121,0.454,1.908,0.454c0.959,0,1.88-0.547,1.88-1.588c0-0.986-0.733-1.64-2.468-1.64
				c-0.479,0-0.84,0.026-1.187,0.08l0.573-4.375h4.481V12.424z"/>
		</g>
	</g>
</g>
</svg>
