<?xml version="1.0" encoding="utf-8"?>
<!-- Generator: Adobe Illustrator 16.0.3, SVG Export Plug-In . SVG Version: 6.00 Build 0)  -->
<!DOCTYPE svg PUBLIC "-//W3C//DTD SVG 1.1//EN" "http://www.w3.org/Graphics/SVG/1.1/DTD/svg11.dtd">
<svg version="1.1" xmlns="http://www.w3.org/2000/svg" xmlns:xlink="http://www.w3.org/1999/xlink" x="0px" y="0px" width="22.68px"
	 height="22.68px" viewBox="0 0 22.68 22.68" enable-background="new 0 0 22.68 22.68" xml:space="preserve">
<g id="BCGRND">
</g>
<g id="IKONY">
	<rect fill="#585857" width="22.678" height="22.677"/>
	<g>
		<g>
			<rect y="7.77" fill="#FFFFFF" width="22.678" height="0.889"/>
		</g>
		<g>
			<g>
				<path fill="#FFFFFF" d="M2.679,2.782H1.741V2.279h2.485v0.503H3.279V5.57H2.679V2.782z"/>
				<path fill="#FFFFFF" d="M4.493,2.103h0.605V5.57H4.493V2.103z"/>
				<path fill="#FFFFFF" d="M7.039,5.57L7,5.306H6.984C6.838,5.492,6.59,5.624,6.281,5.624c-0.479,0-0.746-0.347-0.746-0.708
					c0-0.601,0.531-0.903,1.41-0.898V3.978c0-0.156-0.063-0.415-0.482-0.415c-0.234,0-0.479,0.073-0.641,0.176L5.705,3.348
					c0.176-0.107,0.484-0.21,0.859-0.21c0.762,0,0.982,0.483,0.982,1.001v0.859c0,0.215,0.01,0.425,0.033,0.571H7.039z M6.961,4.408
					c-0.426-0.01-0.83,0.083-0.83,0.444c0,0.234,0.15,0.342,0.342,0.342c0.238,0,0.414-0.156,0.469-0.327
					c0.014-0.044,0.02-0.093,0.02-0.132V4.408z"/>
				<path fill="#FFFFFF" d="M8.736,4.237h0.01c0.059-0.093,0.127-0.195,0.19-0.278l0.576-0.767h0.723L9.356,4.164l1.006,1.406H9.625
					L8.941,4.52L8.736,4.759V5.57H8.136V2.103h0.601V4.237z"/>
				<path fill="#FFFFFF" d="M12.549,2.186c-0.313,0.464-0.552,1.108-0.552,1.987c0,0.864,0.244,1.504,0.552,1.973h-0.439
					c-0.278-0.391-0.591-1.025-0.591-1.973c0.005-0.952,0.313-1.592,0.591-1.987H12.549z"/>
				<path fill="#FFFFFF" d="M12.941,5.57c0.01-0.161,0.02-0.425,0.02-0.669V2.103h0.601v1.416h0.01
					c0.146-0.229,0.405-0.381,0.762-0.381c0.581,0,0.996,0.483,0.991,1.206c0,0.854-0.542,1.279-1.079,1.279
					c-0.308,0-0.581-0.117-0.752-0.41h-0.01L13.454,5.57H12.941z M13.562,4.588c0,0.049,0.005,0.098,0.015,0.142
					c0.063,0.239,0.273,0.42,0.532,0.42c0.376,0,0.605-0.303,0.605-0.781c0-0.42-0.2-0.762-0.601-0.762
					c-0.244,0-0.464,0.176-0.532,0.439c-0.01,0.044-0.02,0.098-0.02,0.156V4.588z"/>
				<path fill="#FFFFFF" d="M17.109,5.57L17.07,5.306h-0.014c-0.146,0.186-0.396,0.317-0.703,0.317
					c-0.479,0-0.748-0.347-0.748-0.708c0-0.601,0.533-0.903,1.412-0.898V3.978c0-0.156-0.064-0.415-0.484-0.415
					c-0.234,0-0.479,0.073-0.639,0.176l-0.117-0.391c0.176-0.107,0.482-0.21,0.859-0.21c0.762,0,0.98,0.483,0.98,1.001v0.859
					c0,0.215,0.01,0.425,0.035,0.571H17.109z M17.031,4.408c-0.424-0.01-0.83,0.083-0.83,0.444c0,0.234,0.152,0.342,0.342,0.342
					c0.24,0,0.416-0.156,0.469-0.327c0.016-0.044,0.02-0.093,0.02-0.132V4.408z"/>
				<path fill="#FFFFFF" d="M18.207,3.958c0-0.322-0.006-0.552-0.02-0.767h0.521l0.02,0.454h0.02
					c0.117-0.337,0.396-0.508,0.65-0.508c0.059,0,0.092,0.005,0.141,0.015v0.566c-0.049-0.01-0.102-0.02-0.176-0.02
					c-0.287,0-0.482,0.186-0.537,0.454c-0.01,0.054-0.02,0.117-0.02,0.186v1.23h-0.6V3.958z"/>
				<path fill="#FFFFFF" d="M19.713,6.146c0.307-0.464,0.547-1.113,0.547-1.982s-0.24-1.509-0.547-1.978h0.434
					c0.283,0.391,0.596,1.025,0.596,1.982c-0.004,0.952-0.313,1.582-0.596,1.978H19.713z"/>
			</g>
		</g>
		<g>
			<path fill="#FFFFFF" d="M7.658,12.544H7.631l-1.586,0.801l-0.281-1.24l2.107-1.041h1.374v8.669H7.658V12.544z"/>
			<path fill="#FFFFFF" d="M11.936,18.559c0.253,0.027,0.506,0.014,0.906-0.026c0.641-0.054,1.28-0.28,1.761-0.667
				c0.56-0.453,0.946-1.106,1.106-1.92l-0.026-0.014c-0.44,0.493-1.054,0.773-1.894,0.773c-1.508,0-2.627-1.094-2.627-2.694
				c0-1.653,1.279-3.094,3.133-3.094c2.015,0,3.095,1.587,3.095,3.694c0,1.854-0.613,3.174-1.507,4.027
				c-0.76,0.707-1.801,1.107-2.961,1.188c-0.373,0.04-0.746,0.04-0.986,0.026V18.559z M12.789,13.918
				c0.013,0.894,0.52,1.587,1.427,1.587c0.667,0,1.146-0.307,1.399-0.72c0.055-0.107,0.094-0.24,0.094-0.467
				c0.014-1.174-0.427-2.188-1.493-2.188C13.389,12.131,12.789,12.865,12.789,13.918z"/>
		</g>
	</g>
</g>
</svg>
