<?xml version="1.0" encoding="utf-8"?>
<!-- Generator: Adobe Illustrator 16.0.3, SVG Export Plug-In . SVG Version: 6.00 Build 0)  -->
<!DOCTYPE svg PUBLIC "-//W3C//DTD SVG 1.1//EN" "http://www.w3.org/Graphics/SVG/1.1/DTD/svg11.dtd">
<svg version="1.1" xmlns="http://www.w3.org/2000/svg" xmlns:xlink="http://www.w3.org/1999/xlink" x="0px" y="0px" width="22.68px"
	 height="22.68px" viewBox="0 0 22.68 22.68" enable-background="new 0 0 22.68 22.68" xml:space="preserve">
<g id="BCGRND" display="none">
</g>
<g id="IKONY">
	<g>
		<defs>
			<polygon id="SVGID_99_" points="22.678,16.335 22.678,0 0,0 0,22.678 14.117,22.678 22.678,22.678 			"/>
		</defs>
		<clipPath id="SVGID_2_">
			<use xlink:href="#SVGID_99_"  overflow="visible"/>
		</clipPath>
		<g clip-path="url(#SVGID_2_)">
			<polygon fill="#585857" points="22.678,16.335 22.678,0 0,0 0,22.678 14.117,22.678 22.678,22.678 			"/>
			<g>
				<g>
					<path fill="#FFFFFF" d="M7.054,2.782H6.116V2.279h2.485v0.503H7.654V5.57H7.054V2.782z"/>
					<path fill="#FFFFFF" d="M10.899,4.359c0,0.874-0.615,1.265-1.221,1.265c-0.674,0-1.191-0.464-1.191-1.226
						c0-0.781,0.513-1.26,1.23-1.26C10.426,3.139,10.899,3.637,10.899,4.359z M9.107,4.384c0,0.459,0.225,0.806,0.591,0.806
						c0.342,0,0.581-0.337,0.581-0.815c0-0.371-0.166-0.796-0.576-0.796C9.278,3.578,9.107,3.988,9.107,4.384z"/>
					<path fill="#FFFFFF" d="M12.133,2.514v0.679h0.571v0.449h-0.571v1.05c0,0.288,0.078,0.439,0.308,0.439
						c0.103,0,0.181-0.015,0.234-0.029l0.01,0.459c-0.088,0.034-0.244,0.059-0.435,0.059c-0.22,0-0.405-0.073-0.518-0.195
						c-0.127-0.137-0.186-0.352-0.186-0.664V3.642h-0.342V3.192h0.342V2.655L12.133,2.514z"/>
					<path fill="#FFFFFF" d="M14.548,5.57l-0.039-0.264h-0.015c-0.146,0.186-0.396,0.317-0.703,0.317
						c-0.479,0-0.747-0.347-0.747-0.708c0-0.601,0.532-0.903,1.411-0.898V3.979c0-0.156-0.063-0.415-0.483-0.415
						c-0.234,0-0.479,0.073-0.64,0.176l-0.117-0.391c0.176-0.107,0.483-0.21,0.859-0.21c0.762,0,0.981,0.483,0.981,1.001v0.859
						c0,0.215,0.01,0.425,0.034,0.571H14.548z M14.47,4.408c-0.425-0.01-0.83,0.083-0.83,0.444c0,0.234,0.151,0.342,0.342,0.342
						c0.239,0,0.415-0.156,0.469-0.327c0.015-0.044,0.02-0.093,0.02-0.132V4.408z"/>
					<path fill="#FFFFFF" d="M15.742,2.104h0.605V5.57h-0.605V2.104z"/>
					<path fill="#FFFFFF" d="M2.721,10.07V6.779h0.684l0.85,1.411c0.22,0.366,0.41,0.747,0.562,1.104h0.01
						C4.786,8.854,4.771,8.43,4.771,7.927V6.779h0.557v3.291h-0.62L3.849,8.625c-0.21-0.361-0.43-0.767-0.591-1.138L3.243,7.492
						c0.024,0.425,0.029,0.859,0.029,1.401v1.177H2.721z"/>
					<path fill="#FFFFFF" d="M8.311,8.859c0,0.874-0.615,1.265-1.221,1.265c-0.674,0-1.191-0.464-1.191-1.226
						c0-0.781,0.513-1.26,1.23-1.26C7.837,7.639,8.311,8.137,8.311,8.859z M6.519,8.884c0,0.459,0.225,0.806,0.591,0.806
						c0.342,0,0.581-0.337,0.581-0.815c0-0.371-0.166-0.796-0.576-0.796C6.69,8.078,6.519,8.488,6.519,8.884z"/>
					<path fill="#FFFFFF" d="M9.941,6.779h1.899v0.493h-1.299v0.908h1.211v0.493h-1.211v1.396H9.941V6.779z"/>
					<path fill="#FFFFFF" d="M12.347,8.459c0-0.322-0.005-0.552-0.02-0.767h0.522l0.02,0.454h0.02
						c0.117-0.337,0.396-0.508,0.649-0.508c0.059,0,0.093,0.005,0.142,0.015V8.22c-0.049-0.01-0.103-0.02-0.176-0.02
						c-0.288,0-0.483,0.186-0.537,0.454c-0.01,0.054-0.02,0.117-0.02,0.186v1.23h-0.601V8.459z"/>
					<path fill="#FFFFFF" d="M16.353,8.859c0,0.874-0.615,1.265-1.221,1.265c-0.674,0-1.191-0.464-1.191-1.226
						c0-0.781,0.513-1.26,1.23-1.26C15.879,7.639,16.353,8.137,16.353,8.859z M14.561,8.884c0,0.459,0.225,0.806,0.591,0.806
						c0.342,0,0.581-0.337,0.581-0.815c0-0.371-0.166-0.796-0.576-0.796C14.732,8.078,14.561,8.488,14.561,8.884z"/>
					<path fill="#FFFFFF" d="M16.869,9.519c0.137,0.083,0.396,0.171,0.61,0.171c0.264,0,0.381-0.107,0.381-0.264
						c0-0.161-0.098-0.244-0.391-0.347c-0.464-0.161-0.659-0.415-0.654-0.693c0-0.42,0.347-0.747,0.898-0.747
						c0.264,0,0.493,0.068,0.63,0.142l-0.117,0.425c-0.103-0.059-0.293-0.137-0.503-0.137c-0.215,0-0.332,0.103-0.332,0.249
						c0,0.151,0.112,0.225,0.415,0.332c0.43,0.156,0.63,0.376,0.635,0.728c0,0.43-0.337,0.742-0.967,0.742
						c-0.288,0-0.547-0.068-0.723-0.166L16.869,9.519z"/>
					<path fill="#FFFFFF" d="M19.675,7.014v0.679h0.571v0.449h-0.571v1.05c0,0.288,0.078,0.439,0.308,0.439
						c0.103,0,0.181-0.015,0.234-0.029l0.01,0.459c-0.088,0.034-0.244,0.059-0.435,0.059c-0.22,0-0.405-0.073-0.518-0.195
						c-0.127-0.137-0.186-0.352-0.186-0.664V8.142h-0.342V7.692h0.342V7.155L19.675,7.014z"/>
				</g>
			</g>
		</g>
		<rect y="11.956" clip-path="url(#SVGID_2_)" fill="#FFFFFF" width="22.678" height="0.889"/>
		<polygon clip-path="url(#SVGID_2_)" fill="none" points="22.678,16.335 22.678,0 0,0 0,22.678 14.117,22.678 22.678,22.678 		"/>
		<path clip-path="url(#SVGID_2_)" fill="#FFFFFF" d="M11.248,13.672l-1.305-0.753l-0.441,0.765l1.746,1.008v0.684l-0.331,0.573
			l-0.804-1.394l-0.492-0.284l0.004,0.566l0.806,1.392H9.77l-0.593-0.342v-2.015H8.293v1.505l-0.608-0.351v-1.155H6.801v0.645
			l-1.195-0.691l-0.441,0.766l1.195,0.691L5.8,15.605l0.442,0.765l1.002-0.577l0.605,0.351l-1.304,0.754l0.441,0.765l1.746-1.008
			l0.606,0.35l0.327,0.566H8.045L7.557,17.85l0.488,0.283h1.609l-0.328,0.571l-0.593,0.342l-1.746-1.008l-0.441,0.765l1.304,0.753
			l-0.605,0.351l-1.002-0.579L5.8,20.094l0.56,0.323l-1.195,0.69l0.441,0.767l1.195-0.691v0.646h0.884v-1.156l0.608-0.351v1.506
			h0.884v-2.017l0.595-0.342h0.66l-0.807,1.4l-0.004,0.564l0.49-0.282l0.812-1.404l0.325,0.563v0.697l-1.746,1.009l0.441,0.765
			l1.305-0.754v0.701l-1.001,0.579l0.441,0.765l0.56-0.322v1.38h0.885v-1.38l0.558,0.322l0.443-0.765l-1.001-0.579v-0.701
			l1.303,0.754l0.443-0.765l-1.746-1.009v-0.697l0.325-0.566l0.813,1.407l0.486,0.284v-0.566l-0.807-1.4h0.658l0.594,0.342v2.017
			h0.886v-1.506l0.605,0.351v1.156h0.884v-0.646l1.195,0.691l0.443-0.767l-1.195-0.69l0.559-0.323l-0.443-0.766l-1,0.579
			l-0.607-0.351l1.306-0.753l-0.443-0.765l-1.746,1.008l-0.593-0.342l-0.328-0.571h1.611l0.49-0.283l-0.49-0.279h-1.622l0.326-0.566
			l0.605-0.35l1.746,1.008l0.443-0.765l-1.306-0.754l0.607-0.351l1,0.577l0.443-0.765l-0.559-0.322l1.195-0.691l-0.443-0.766
			l-1.195,0.691v-0.645h-0.884v1.155l-0.605,0.351v-1.505h-0.886v2.015l-0.592,0.342h-0.659l0.804-1.392l0.002-0.568l-0.488,0.286
			l-0.806,1.396l-0.331-0.575v-0.684l1.746-1.008l-0.443-0.765l-1.303,0.753v-0.7l0.988-0.571H10.26l0.988,0.571V13.672z
			 M10.758,18.905H9.861l0.442-0.772h0.899L10.758,18.905z M10.313,17.57l-0.445-0.776h0.886l0.449,0.776H10.313z M11.689,19.957
			l-0.446-0.768l0.448-0.774l0.444,0.772L11.689,19.957z M12.627,16.794h0.884l-0.443,0.776h-0.89L12.627,16.794z M13.075,18.133
			l0.444,0.772h-0.895l-0.447-0.772H13.075z M12.142,16.51l-0.45,0.779l-0.452-0.781l0.45-0.785L12.142,16.51z"/>
	</g>
</g>
</svg>
