<?xml version="1.0" encoding="utf-8"?>
<!-- Generator: Adobe Illustrator 16.0.3, SVG Export Plug-In . SVG Version: 6.00 Build 0)  -->
<!DOCTYPE svg PUBLIC "-//W3C//DTD SVG 1.1//EN" "http://www.w3.org/Graphics/SVG/1.1/DTD/svg11.dtd">
<svg version="1.1" xmlns="http://www.w3.org/2000/svg" xmlns:xlink="http://www.w3.org/1999/xlink" x="0px" y="0px" width="22.68px"
	 height="22.68px" viewBox="0 0 22.68 22.68" enable-background="new 0 0 22.68 22.68" xml:space="preserve">
<g id="BCGRND">
</g>
<g id="IKONY">
	<polygon fill="#585857" points="22.678,16.334 22.678,0 0,0 0,22.677 14.117,22.677 22.678,22.677 	"/>
	<path fill="#FFFFFF" d="M2.318,2.779H1.381V2.276h2.484v0.503H2.918v2.788h-0.6V2.779z"/>
	<path fill="#FFFFFF" d="M6.017,4.356c0,0.874-0.615,1.265-1.221,1.265c-0.674,0-1.191-0.464-1.191-1.226
		c0-0.781,0.513-1.26,1.23-1.26C5.543,3.136,6.017,3.634,6.017,4.356z M4.225,4.381c0,0.459,0.225,0.806,0.591,0.806
		c0.342,0,0.581-0.337,0.581-0.815C5.396,4,5.23,3.575,4.82,3.575C4.396,3.575,4.225,3.985,4.225,4.381z"/>
	<path fill="#FFFFFF" d="M7.104,2.511v0.679h0.572v0.449H7.104v1.05c0,0.288,0.078,0.439,0.309,0.439
		c0.102,0,0.18-0.015,0.234-0.029l0.01,0.459C7.568,5.592,7.412,5.616,7.221,5.616c-0.219,0-0.404-0.073-0.518-0.195
		C6.576,5.284,6.518,5.069,6.518,4.757V3.639H6.176V3.189h0.342V2.652L7.104,2.511z"/>
	<path fill="#FFFFFF" d="M9.371,5.567L9.332,5.304H9.318C9.172,5.489,8.922,5.621,8.615,5.621c-0.479,0-0.748-0.347-0.748-0.708
		c0-0.601,0.533-0.903,1.412-0.898V3.976c0-0.156-0.064-0.415-0.484-0.415c-0.234,0-0.479,0.073-0.639,0.176L8.039,3.346
		c0.176-0.107,0.482-0.21,0.859-0.21c0.762,0,0.98,0.483,0.98,1.001v0.859c0,0.215,0.01,0.425,0.035,0.571H9.371z M9.293,4.405
		c-0.424-0.01-0.83,0.083-0.83,0.444c0,0.234,0.152,0.342,0.342,0.342c0.24,0,0.416-0.156,0.469-0.327
		c0.016-0.044,0.02-0.093,0.02-0.132V4.405z"/>
	<path fill="#FFFFFF" d="M10.42,2.101h0.605v3.467H10.42V2.101z"/>
	<path fill="#FFFFFF" d="M14.875,5.47c-0.141,0.073-0.453,0.146-0.85,0.146c-1.045,0-1.68-0.654-1.68-1.655
		c0-1.084,0.752-1.738,1.758-1.738c0.396,0,0.68,0.083,0.801,0.146l-0.131,0.479c-0.156-0.068-0.371-0.127-0.645-0.127
		c-0.67,0-1.152,0.42-1.152,1.211c0,0.723,0.424,1.187,1.146,1.187c0.244,0,0.498-0.049,0.654-0.122L14.875,5.47z"/>
	<path fill="#FFFFFF" d="M16.563,5.567l-0.039-0.264H16.51c-0.146,0.186-0.396,0.317-0.703,0.317c-0.479,0-0.747-0.347-0.747-0.708
		c0-0.601,0.532-0.903,1.411-0.898V3.976c0-0.156-0.063-0.415-0.483-0.415c-0.234,0-0.479,0.073-0.64,0.176L15.23,3.346
		c0.176-0.107,0.483-0.21,0.859-0.21c0.762,0,0.981,0.483,0.981,1.001v0.859c0,0.215,0.01,0.425,0.034,0.571H16.563z M16.485,4.405
		c-0.425-0.01-0.83,0.083-0.83,0.444c0,0.234,0.151,0.342,0.342,0.342c0.239,0,0.415-0.156,0.469-0.327
		c0.015-0.044,0.02-0.093,0.02-0.132V4.405z"/>
	<path fill="#FFFFFF" d="M17.611,3.956c0-0.322-0.005-0.552-0.02-0.767h0.522l0.02,0.454h0.02c0.117-0.337,0.396-0.508,0.649-0.508
		c0.059,0,0.093,0.005,0.142,0.015v0.566c-0.049-0.01-0.103-0.02-0.176-0.02c-0.288,0-0.483,0.186-0.537,0.454
		c-0.01,0.054-0.02,0.117-0.02,0.186v1.23h-0.601V3.956z"/>
	<path fill="#FFFFFF" d="M19.635,4.547c0.015,0.43,0.352,0.615,0.732,0.615c0.278,0,0.479-0.039,0.659-0.107l0.088,0.415
		c-0.205,0.083-0.488,0.146-0.83,0.146c-0.771,0-1.226-0.474-1.226-1.201c0-0.659,0.4-1.279,1.162-1.279
		c0.771,0,1.025,0.635,1.025,1.157c0,0.112-0.01,0.2-0.02,0.254H19.635z M20.68,4.127c0.005-0.22-0.093-0.581-0.493-0.581
		c-0.371,0-0.527,0.337-0.552,0.581H20.68z"/>
	<rect y="7.769" fill="#FFFFFF" width="22.678" height="0.889"/>
	<path opacity="0.5" fill="#FFFFFF" d="M18.916,15.164c0-2.766-1.496-5.184-3.715-6.506h-2.957c1.723,0.239,3.232,1.144,4.26,2.45
		c0.539,0.685,0.943,1.479,1.178,2.343c0.148,0.547,0.234,1.12,0.234,1.713c0,3.626-2.951,6.576-6.576,6.576
		c-3.627,0-6.576-2.95-6.576-6.576c0-0.593,0.086-1.166,0.234-1.713c0.234-0.865,0.637-1.659,1.176-2.344
		c1.029-1.306,2.537-2.21,4.26-2.449H7.479c-2.221,1.322-3.715,3.74-3.715,6.506c0,3.863,2.908,7.053,6.646,7.513h1.857
		C16.008,22.217,18.916,19.026,18.916,15.164z M2.375,15.164c0-2.471,1.027-4.816,2.816-6.506H3.809
		c-1.555,1.798-2.434,4.099-2.434,6.506c0,2.999,1.336,5.685,3.439,7.513h1.65C4.006,21.077,2.375,18.31,2.375,15.164z
		 M18.871,8.657H17.49c1.785,1.689,2.813,4.04,2.813,6.506c0,3.146-1.633,5.913-4.09,7.513h1.65
		c2.102-1.828,3.439-4.515,3.439-7.513C21.303,12.76,20.424,10.456,18.871,8.657z"/>
	<path fill="#FFFFFF" d="M16.504,11.107c-0.309,0.236-0.615,0.475-0.904,0.716c-0.768,0.25-1.684,0.634-1.992,0.793
		c-0.412,0.213-1.174,0.332-1.561,0.553c-0.242,0.14-0.502,0.578-0.707,1.072c-0.207-0.495-0.467-0.932-0.709-1.072
		c-0.385-0.221-1.146-0.34-1.561-0.553c-0.309-0.159-1.223-0.544-1.99-0.793c-0.287-0.242-0.596-0.48-0.906-0.717
		c-0.539,0.686-0.941,1.479-1.176,2.344c0.268,0.131,0.436,0.208,0.436,0.208c0.479,2.524,0.836,3.037,0.836,3.037l0.451,0.516
		l0.916,0.943c0.127,0.144,0.549,0.438,0.699,0.518C9,19.021,9.473,19.166,9.912,19.198c-0.443-0.249-0.793-0.466-1.365-0.811
		c-0.395-0.238-0.951-0.918-1.223-1.243c-0.061-0.062-0.045-0.154,0.018-0.207c0.063-0.051,0.154-0.043,0.207,0.019
		c0.406,0.485,0.943,1.083,1.512,1.417c0.568,0.332,1.09,0.624,1.428,0.81c0.283-0.042,0.471-0.12,0.557-0.165
		c-0.514-0.287-1.131-0.65-1.904-1.111c-0.49-0.292-0.957-0.856-1.244-1.202c-0.055-0.067-0.045-0.156,0.02-0.207
		c0.061-0.052,0.156-0.043,0.207,0.019c0.357,0.433,0.746,0.911,1.367,1.274c0.725,0.425,1.434,0.824,1.85,1.056
		c0.416-0.231,1.123-0.631,1.85-1.056c0.621-0.363,1.008-0.841,1.367-1.274c0.051-0.062,0.145-0.071,0.207-0.019
		c0.063,0.051,0.074,0.14,0.02,0.207c-0.287,0.345-0.754,0.909-1.244,1.202c-0.775,0.461-1.391,0.825-1.906,1.111
		c0.086,0.045,0.275,0.124,0.559,0.165c0.336-0.186,0.859-0.478,1.428-0.81c0.568-0.333,1.105-0.932,1.512-1.417
		c0.053-0.063,0.143-0.07,0.207-0.019c0.063,0.053,0.076,0.145,0.018,0.207c-0.271,0.325-0.83,1.005-1.225,1.243
		c-0.572,0.345-0.92,0.562-1.363,0.811c0.438-0.032,0.912-0.177,1.576-0.526c0.15-0.08,0.57-0.375,0.697-0.518l0.916-0.943
		l0.453-0.516c0,0,0.357-0.512,0.834-3.037c0,0,0.168-0.077,0.438-0.208C17.447,12.586,17.043,11.792,16.504,11.107z M13.75,16.228
		c-0.492,0.621-1.451,1.243-1.889,1.536c-0.201,0.135-0.396,0.32-0.521,0.505c-0.123-0.186-0.32-0.371-0.521-0.505
		c-0.439-0.293-1.396-0.916-1.891-1.536c-0.723-0.912-0.725-1.502-0.316-1.938c0.568-0.61,1.266-0.481,1.709-0.05
		c0.303,0.294,0.584,0.637,0.865,0.732c0.051,0.023,0.104,0.038,0.154,0.041c0.053-0.002,0.104-0.017,0.156-0.041
		c0.281-0.096,0.561-0.438,0.863-0.732c0.443-0.431,1.139-0.56,1.709,0.05C14.475,14.725,14.475,15.316,13.75,16.228z"/>
</g>
</svg>
