<?xml version="1.0" encoding="utf-8"?>
<!-- Generator: Adobe Illustrator 16.0.3, SVG Export Plug-In . SVG Version: 6.00 Build 0)  -->
<!DOCTYPE svg PUBLIC "-//W3C//DTD SVG 1.1//EN" "http://www.w3.org/Graphics/SVG/1.1/DTD/svg11.dtd">
<svg version="1.1" xmlns="http://www.w3.org/2000/svg" xmlns:xlink="http://www.w3.org/1999/xlink" x="0px" y="0px" width="22.68px"
	 height="22.68px" viewBox="0 0 22.68 22.68" enable-background="new 0 0 22.68 22.68" xml:space="preserve">
<g id="BCGRND">
</g>
<g id="IKONY">
	<rect fill="#585857" width="22.676" height="22.678"/>
	<g>
		<g opacity="0.5">
			<path fill="#FFFFFF" d="M9.552,11.184c0.126-0.285,0.51-0.359,0.855-0.175l0.064,0.048l0.149,0.158
				c0.103,0.107,0.223,0.234,0.353,0.371v-0.973h-1.65v4.688h1.65v-1.335C9.249,11.861,9.472,11.363,9.552,11.184z"/>
		</g>
		<g opacity="0.5">
			<path fill="#FFFFFF" d="M12.631,12.811c0.141-0.033,0.386-0.08,0.73-0.037v-2.16h-1.648v1.754
				c0.158,0.168,0.321,0.342,0.489,0.522L12.631,12.811z"/>
		</g>
		<g opacity="0.5">
			<path fill="#FFFFFF" d="M11.713,14.827v0.474h0.405c-0.094-0.111-0.178-0.217-0.281-0.332
				C11.793,14.919,11.756,14.875,11.713,14.827z"/>
		</g>
		<g opacity="0.5">
			<path fill="#FFFFFF" d="M15.75,10.613h-1.649v2.133c0.57-0.024,1.105,0.255,1.649,0.848V10.613z"/>
		</g>
		<g opacity="0.5">
			<path fill="#FFFFFF" d="M17.28,15.301h0.857v-4.688h-1.648v3.789c0.196,0.213,0.336,0.361,0.336,0.361L17.28,15.301z"/>
		</g>
	</g>
	<path fill="#FFFFFF" d="M0.002,7.77v0.889H22.68V7.77H0.002z M0.922,13.203h2.731v-0.492H0.922V13.203z M4.546,15.301h1.649v-4.688
		H4.546V15.301z M20.65,11.549h-0.52v1.154h-1.106v0.492h1.106v1.17h0.52v-1.17h1.105v-0.492H20.65V11.549z M6.935,15.301h1.649
		v-4.688H6.935V15.301z"/>
	<g>
		<g>
			<g>
				<path fill="#FFFFFF" d="M5.895,2.782H4.957V2.28h2.486v0.502H6.496v2.789H5.895V2.782z"/>
				<path fill="#FFFFFF" d="M9.74,4.36c0,0.873-0.615,1.264-1.221,1.264c-0.674,0-1.191-0.463-1.191-1.225
					c0-0.781,0.514-1.26,1.23-1.26C9.268,3.14,9.74,3.638,9.74,4.36z M7.949,4.384c0,0.459,0.225,0.807,0.59,0.807
					c0.342,0,0.582-0.338,0.582-0.816c0-0.371-0.166-0.795-0.576-0.795C8.119,3.579,7.949,3.989,7.949,4.384z"/>
				<path fill="#FFFFFF" d="M12.415,4.858c0,0.283,0.01,0.518,0.02,0.713h-0.527L11.878,5.21h-0.01
					c-0.103,0.17-0.337,0.414-0.762,0.414c-0.435,0-0.83-0.258-0.83-1.035V3.192h0.601v1.295c0,0.395,0.127,0.648,0.444,0.648
					c0.239,0,0.396-0.17,0.459-0.322c0.02-0.053,0.034-0.117,0.034-0.186V3.192h0.601V4.858z"/>
				<path fill="#FFFFFF" d="M14.865,5.497c-0.127,0.059-0.377,0.123-0.674,0.123c-0.742,0-1.227-0.475-1.227-1.211
					c0-0.713,0.488-1.27,1.324-1.27c0.219,0,0.443,0.049,0.58,0.111L14.762,3.7c-0.098-0.043-0.238-0.092-0.453-0.092
					c-0.459,0-0.732,0.336-0.729,0.771c0,0.488,0.318,0.766,0.729,0.766c0.209,0,0.355-0.043,0.473-0.092L14.865,5.497z"/>
				<path fill="#FFFFFF" d="M15.361,2.104h0.605v1.416h0.01c0.072-0.113,0.17-0.205,0.297-0.273c0.117-0.068,0.26-0.107,0.41-0.107
					c0.406,0,0.83,0.268,0.83,1.029v1.402h-0.6V4.237c0-0.346-0.127-0.605-0.459-0.605c-0.234,0-0.4,0.156-0.465,0.338
					c-0.02,0.049-0.023,0.111-0.023,0.18v1.422h-0.605V2.104z"/>
			</g>
		</g>
	</g>
	<path fill="#FFFFFF" d="M22.676,22.678c-1.928-0.916-4.119-2.35-4.119-2.35c-0.652-3.807-1.248-4.606-1.248-4.606l-0.664-0.786
		c0,0-0.552-0.583-1.004-1.1c-0.453-0.516-1.014-0.934-1.662-0.845c0.88,0.938,1.166,1.158,2.151,2.379
		c0.088,0.096,0.062,0.234-0.032,0.311c-0.096,0.076-0.234,0.062-0.311-0.032c-1.192-1.48-1.589-1.789-2.386-2.625
		c-0.423-0.069-0.659,0.025-0.803,0.051c0.988,1.053,1.252,1.258,2.339,2.611c0.082,0.102,0.062,0.234-0.034,0.311
		c-0.094,0.076-0.233,0.061-0.309-0.035c-1.151-1.432-3.499-3.885-4.304-4.731c-0.522-0.277-1.442,0.034,1.733,3.571
		c2.561,2.854,2.438,4.625,2.438,4.625c-0.357-0.153-0.779-0.012-2.286-2.104c-1.012-1.402-1.537-1.02-1.537-1.02
		c-0.16,0.896,1.525,3.629,2.753,4.732c0.258,0.231,1.276,0.883,2.397,1.643H22.676z"/>
</g>
</svg>
