<?xml version="1.0" encoding="utf-8"?>
<!-- Generator: Adobe Illustrator 16.0.3, SVG Export Plug-In . SVG Version: 6.00 Build 0)  -->
<!DOCTYPE svg PUBLIC "-//W3C//DTD SVG 1.1//EN" "http://www.w3.org/Graphics/SVG/1.1/DTD/svg11.dtd">
<svg version="1.1" xmlns="http://www.w3.org/2000/svg" xmlns:xlink="http://www.w3.org/1999/xlink" x="0px" y="0px" width="22.68px"
	 height="22.68px" viewBox="0 0 22.68 22.68" enable-background="new 0 0 22.68 22.68" xml:space="preserve">
<g id="BCGRND" display="none">
</g>
<g id="IKONY">
	<g>
		<rect fill="#585857" width="22.68" height="22.68"/>
		<g>
			<g>
				<g>
					<path fill="#FFFFFF" d="M5.896,2.782H4.958V2.279h2.484v0.503H6.495V5.57h-0.6V2.782z"/>
					<path fill="#FFFFFF" d="M9.741,4.359c0,0.874-0.615,1.265-1.221,1.265c-0.674,0-1.191-0.464-1.191-1.226
						c0-0.781,0.512-1.26,1.23-1.26C9.267,3.139,9.741,3.637,9.741,4.359z M7.948,4.384c0,0.459,0.225,0.806,0.592,0.806
						c0.342,0,0.58-0.337,0.58-0.815c0-0.371-0.166-0.796-0.576-0.796C8.12,3.578,7.948,3.988,7.948,4.384z"/>
					<path fill="#FFFFFF" d="M12.415,4.857c0,0.283,0.01,0.518,0.02,0.713h-0.527l-0.029-0.361h-0.01
						c-0.103,0.171-0.337,0.415-0.762,0.415c-0.435,0-0.83-0.259-0.83-1.035V3.192h0.601v1.294c0,0.396,0.127,0.649,0.444,0.649
						c0.239,0,0.396-0.171,0.459-0.322c0.02-0.054,0.034-0.117,0.034-0.186V3.192h0.601V4.857z"/>
					<path fill="#FFFFFF" d="M14.864,5.497c-0.127,0.059-0.375,0.122-0.674,0.122c-0.742,0-1.225-0.474-1.225-1.211
						c0-0.713,0.488-1.27,1.322-1.27c0.221,0,0.445,0.049,0.582,0.112L14.763,3.7c-0.098-0.044-0.24-0.093-0.455-0.093
						c-0.459,0-0.732,0.337-0.727,0.771c0,0.488,0.316,0.767,0.727,0.767c0.211,0,0.357-0.044,0.475-0.093L14.864,5.497z"/>
					<path fill="#FFFFFF" d="M15.36,2.104h0.605V3.52h0.01c0.074-0.112,0.172-0.205,0.299-0.273c0.117-0.068,0.258-0.107,0.41-0.107
						c0.404,0,0.83,0.269,0.83,1.03V5.57h-0.602V4.237c0-0.347-0.127-0.605-0.459-0.605c-0.234,0-0.4,0.156-0.463,0.337
						c-0.02,0.049-0.025,0.112-0.025,0.181V5.57H15.36V2.104z"/>
					<path fill="#FFFFFF" d="M5.16,9.416c0.195,0.112,0.488,0.21,0.796,0.21c0.386,0,0.601-0.181,0.601-0.449
						c0-0.249-0.166-0.396-0.586-0.547C5.429,8.435,5.082,8.146,5.082,7.673c0-0.537,0.449-0.947,1.162-0.947
						c0.356,0,0.62,0.078,0.791,0.166L6.889,7.375C6.771,7.312,6.542,7.219,6.234,7.219c-0.381,0-0.547,0.205-0.547,0.396
						c0,0.254,0.19,0.371,0.63,0.542c0.571,0.215,0.85,0.503,0.85,0.977c0,0.527-0.4,0.986-1.25,0.986
						c-0.347,0-0.708-0.098-0.889-0.205L5.16,9.416z"/>
					<path fill="#FFFFFF" d="M8.19,9.05c0.016,0.43,0.352,0.615,0.732,0.615c0.279,0,0.479-0.039,0.66-0.107l0.088,0.415
						c-0.205,0.083-0.488,0.146-0.83,0.146c-0.771,0-1.227-0.474-1.227-1.201c0-0.659,0.4-1.279,1.162-1.279
						c0.771,0,1.025,0.635,1.025,1.157c0,0.112-0.01,0.2-0.02,0.254H8.19z M9.235,8.63c0.006-0.22-0.092-0.581-0.492-0.581
						c-0.371,0-0.527,0.337-0.553,0.581H9.235z"/>
					<path fill="#FFFFFF" d="M10.337,6.604h0.605v3.467h-0.605V6.604z"/>
					<path fill="#FFFFFF" d="M12.067,9.05c0.016,0.43,0.352,0.615,0.732,0.615c0.279,0,0.479-0.039,0.66-0.107l0.088,0.415
						c-0.205,0.083-0.488,0.146-0.83,0.146c-0.771,0-1.227-0.474-1.227-1.201c0-0.659,0.4-1.279,1.162-1.279
						c0.771,0,1.025,0.635,1.025,1.157c0,0.112-0.01,0.2-0.02,0.254H12.067z M13.112,8.63c0.006-0.22-0.092-0.581-0.492-0.581
						c-0.371,0-0.527,0.337-0.553,0.581H13.112z"/>
					<path fill="#FFFFFF" d="M15.962,9.997c-0.127,0.059-0.375,0.122-0.674,0.122c-0.742,0-1.225-0.474-1.225-1.211
						c0-0.713,0.488-1.27,1.322-1.27c0.221,0,0.445,0.049,0.582,0.112L15.86,8.2c-0.098-0.044-0.24-0.093-0.455-0.093
						c-0.459,0-0.732,0.337-0.727,0.771c0,0.488,0.316,0.767,0.727,0.767c0.211,0,0.357-0.044,0.475-0.093L15.962,9.997z"/>
					<path fill="#FFFFFF" d="M17.22,7.014v0.679h0.572v0.449H17.22v1.05c0,0.288,0.078,0.439,0.309,0.439
						c0.102,0,0.18-0.015,0.234-0.029l0.01,0.459c-0.088,0.034-0.244,0.059-0.436,0.059c-0.219,0-0.404-0.073-0.518-0.195
						c-0.127-0.137-0.186-0.352-0.186-0.664V8.142h-0.342V7.692h0.342V7.155L17.22,7.014z"/>
				</g>
			</g>
			<g>
				<rect y="11.956" fill="#FFFFFF" width="22.678" height="0.889"/>
			</g>
			<g>
				<rect x="1.768" y="15.255" fill="#FFFFFF" width="1" height="5.137"/>
			</g>
			<g>
				<rect x="4.035" y="15.255" fill="#FFFFFF" width="1" height="5.137"/>
			</g>
			<g>
				<rect x="6.304" y="15.255" fill="#FFFFFF" width="1" height="5.137"/>
			</g>
			<g>
				<rect x="8.571" y="15.255" fill="#FFFFFF" width="1" height="5.137"/>
			</g>
			<g>
				<path fill="#FFFFFF" d="M10.839,15.255v1.776l0.094-0.046c0.241-0.119,0.556-0.273,0.906-0.445v-1.285H10.839z M10.839,18.565
					v1.826h1v-1.828c-0.212,0.041-0.407,0.07-0.566,0.07C11.096,18.634,10.957,18.605,10.839,18.565z"/>
			</g>
			<g opacity="0.5">
				<rect x="13.106" y="15.255" fill="#FFFFFF" width="1" height="5.137"/>
			</g>
			<g opacity="0.5">
				<rect x="15.374" y="15.538" fill="#FFFFFF" width="1" height="4.854"/>
			</g>
			<g opacity="0.5">
				<rect x="17.643" y="15.255" fill="#FFFFFF" width="1" height="5.137"/>
			</g>
			<g opacity="0.5">
				<rect x="19.91" y="15.255" fill="#FFFFFF" width="1" height="5.137"/>
			</g>
			<g>
				<path fill="#FFFFFF" d="M22.678,11.858c-0.35,0.304-0.563,0.488-0.563,0.488c-3.827-0.512-4.769-0.182-4.769-0.182l-0.947,0.4
					c0,0-0.722,0.353-1.35,0.63c-0.628,0.278-1.193,0.689-1.302,1.335c1.157-0.561,1.453-0.768,2.912-1.344
					c0.117-0.057,0.242,0.01,0.287,0.123c0.044,0.113-0.012,0.242-0.124,0.286c-1.768,0.697-2.181,0.983-3.217,1.495
					c-0.192,0.383-0.172,0.637-0.19,0.782c1.299-0.63,1.573-0.82,3.189-1.454c0.121-0.048,0.242,0.012,0.286,0.125
					c0.045,0.112-0.012,0.241-0.125,0.284c-1.71,0.671-4.752,2.182-5.8,2.697c-0.42,0.415-0.397,1.388,3.926-0.589
					c3.486-1.594,5.141-0.949,5.141-0.949c-0.252,0.297-0.242,0.741-2.689,1.556c-1.64,0.548-1.431,1.163-1.431,1.163
					c0.808,0.42,3.918-0.374,5.337-1.217c0.214-0.127,0.753-0.565,1.428-1.111v-0.043V11.858z"/>
			</g>
		</g>
	</g>
</g>
</svg>
