<?xml version="1.0" encoding="utf-8"?>
<!-- Generator: Adobe Illustrator 16.0.3, SVG Export Plug-In . SVG Version: 6.00 Build 0)  -->
<!DOCTYPE svg PUBLIC "-//W3C//DTD SVG 1.1//EN" "http://www.w3.org/Graphics/SVG/1.1/DTD/svg11.dtd">
<svg version="1.1" xmlns="http://www.w3.org/2000/svg" xmlns:xlink="http://www.w3.org/1999/xlink" x="0px" y="0px" width="22.68px"
	 height="22.68px" viewBox="0 0 22.68 22.68" enable-background="new 0 0 22.68 22.68" xml:space="preserve">
<g id="BCGRND">
</g>
<g id="IKONY">
	<g>
		<g>
			<polygon fill="#585857" points="22.677,16.335 22.677,0 0,0 0,22.678 14.117,22.678 22.677,22.678 			"/>
			<rect x="0" y="7.77" fill="#FFFFFF" width="22.678" height="0.889"/>
			<g>
				<g>
					<path fill="#FFFFFF" d="M5.875,2.782H4.937V2.279h2.486v0.503H6.476V5.57H5.875V2.782z"/>
					<path fill="#FFFFFF" d="M7.421,3.959c0-0.322-0.006-0.552-0.02-0.767h0.521l0.02,0.454h0.02C8.08,3.31,8.359,3.139,8.613,3.139
						c0.059,0,0.092,0.005,0.141,0.015V3.72C8.705,3.71,8.652,3.7,8.578,3.7c-0.287,0-0.482,0.186-0.537,0.454
						c-0.01,0.054-0.02,0.117-0.02,0.186v1.23h-0.6V3.959z"/>
					<path fill="#FFFFFF" d="M9.523,3.192l0.43,1.274c0.049,0.146,0.098,0.327,0.131,0.464h0.016
						c0.039-0.137,0.082-0.313,0.127-0.469l0.371-1.27h0.645l-0.596,1.621c-0.328,0.889-0.547,1.284-0.83,1.528
						C9.582,6.552,9.337,6.63,9.185,6.649L9.048,6.142C9.152,6.117,9.279,6.063,9.4,5.976C9.513,5.902,9.644,5.761,9.728,5.6
						c0.023-0.044,0.039-0.078,0.039-0.107c0-0.024-0.006-0.059-0.035-0.117L8.863,3.192H9.523z"/>
					<path fill="#FFFFFF" d="M11.38,5.019c0.137,0.083,0.396,0.171,0.611,0.171c0.264,0,0.381-0.107,0.381-0.264
						c0-0.161-0.098-0.244-0.391-0.347c-0.465-0.161-0.66-0.415-0.654-0.693c0-0.42,0.346-0.747,0.898-0.747
						c0.264,0,0.492,0.068,0.629,0.142l-0.117,0.425c-0.102-0.059-0.293-0.137-0.502-0.137c-0.215,0-0.332,0.103-0.332,0.249
						c0,0.151,0.111,0.225,0.414,0.332c0.43,0.156,0.631,0.376,0.635,0.728c0,0.43-0.336,0.742-0.967,0.742
						c-0.287,0-0.547-0.068-0.723-0.166L11.38,5.019z"/>
					<path fill="#FFFFFF" d="M13.927,4.237h0.01c0.059-0.093,0.127-0.195,0.19-0.278l0.576-0.767h0.723l-0.879,0.972l1.006,1.406
						h-0.737l-0.684-1.05L13.927,4.76V5.57h-0.601V2.104h0.601V4.237z"/>
					<path fill="#FFFFFF" d="M16.108,3.192l0.43,1.274c0.049,0.146,0.098,0.327,0.132,0.464h0.015
						c0.039-0.137,0.083-0.313,0.127-0.469l0.371-1.27h0.645l-0.596,1.621c-0.327,0.889-0.547,1.284-0.83,1.528
						c-0.234,0.21-0.479,0.288-0.63,0.308l-0.137-0.508c0.103-0.024,0.229-0.078,0.352-0.166c0.112-0.073,0.244-0.215,0.327-0.376
						c0.024-0.044,0.039-0.078,0.039-0.107c0-0.024-0.005-0.059-0.034-0.117l-0.869-2.183H16.108z"/>
				</g>
			</g>
		</g>
		<g>
			<polygon fill="#FFFFFF" points="8.965,20.303 9.849,21.369 12.902,21.369 13.786,20.303 13.786,19.624 8.965,20.227 			"/>
			<polygon fill="#FFFFFF" points="8.965,18.35 13.786,17.747 13.786,17.096 8.965,17.699 			"/>
			<polygon fill="#FFFFFF" points="8.965,19.613 13.786,19.01 13.786,18.36 8.965,18.963 			"/>
			<polygon fill="#FFFFFF" points="14.09,10.449 14.09,15.048 15.714,15.048 15.714,10.961 			"/>
			<rect x="9.269" y="10.352" opacity="0.5" fill="#FFFFFF" width="4.212" height="4.696"/>
			<polygon opacity="0.3" fill="#FFFFFF" points="8.661,10.449 7.038,10.961 7.038,15.048 8.661,15.048 			"/>
			<g>
				<polygon fill="#FFFFFF" points="13.481,15.048 9.269,15.048 8.661,15.048 8.965,16.114 8.965,17.085 13.786,16.482 
					13.786,16.114 14.09,15.048 				"/>
				<polygon fill="#FFFFFF" points="7.038,15.048 7.921,16.114 8.965,16.114 8.661,15.048 				"/>
				<polygon fill="#FFFFFF" points="15.714,15.048 14.09,15.048 13.786,16.114 14.83,16.114 				"/>
			</g>
		</g>
	</g>
</g>
</svg>
