<?xml version="1.0" encoding="utf-8"?>
<!-- Generator: Adobe Illustrator 16.0.3, SVG Export Plug-In . SVG Version: 6.00 Build 0)  -->
<!DOCTYPE svg PUBLIC "-//W3C//DTD SVG 1.1//EN" "http://www.w3.org/Graphics/SVG/1.1/DTD/svg11.dtd">
<svg version="1.1" xmlns="http://www.w3.org/2000/svg" xmlns:xlink="http://www.w3.org/1999/xlink" x="0px" y="0px" width="22.68px"
	 height="22.68px" viewBox="0 0 22.68 22.68" enable-background="new 0 0 22.68 22.68" xml:space="preserve">
<g id="BCGRND">
</g>
<g id="IKONY">
	<rect fill="#585857" width="22.677" height="22.677"/>
	<g>
		<g>
			<rect y="11.956" fill="#FFFFFF" width="22.678" height="0.889"/>
			<g>
				<g>
					<path fill="#FFFFFF" d="M6.944,5.286L5.88,1.995h0.654l0.449,1.494C7.11,3.904,7.218,4.29,7.306,4.69h0.01
						C7.403,4.3,7.521,3.899,7.652,3.499l0.479-1.504h0.64L7.633,5.286H6.944z"/>
					<path fill="#FFFFFF" d="M10.259,5.286L10.22,5.022h-0.016C10.058,5.208,9.81,5.34,9.501,5.34c-0.479,0-0.746-0.347-0.746-0.708
						c0-0.601,0.531-0.903,1.41-0.898V3.694c0-0.156-0.063-0.415-0.482-0.415c-0.234,0-0.479,0.073-0.641,0.176L8.925,3.064
						c0.176-0.107,0.484-0.21,0.859-0.21c0.762,0,0.982,0.483,0.982,1.001v0.859c0,0.215,0.01,0.425,0.033,0.571H10.259z
						 M10.181,4.124c-0.426-0.01-0.83,0.083-0.83,0.444c0,0.234,0.15,0.342,0.342,0.342c0.238,0,0.414-0.156,0.469-0.327
						c0.014-0.044,0.02-0.093,0.02-0.132V4.124z"/>
					<path fill="#FFFFFF" d="M11.404,3.675c0-0.322-0.005-0.552-0.02-0.767h0.522l0.02,0.454h0.02
						c0.117-0.337,0.396-0.508,0.649-0.508c0.059,0,0.093,0.005,0.142,0.015v0.566c-0.049-0.01-0.103-0.02-0.176-0.02
						c-0.288,0-0.483,0.186-0.537,0.454c-0.01,0.054-0.02,0.117-0.02,0.186v1.23h-0.601V3.675z"/>
					<path fill="#FFFFFF" d="M13.784,2.244c0,0.181-0.132,0.322-0.342,0.322c-0.2,0-0.332-0.142-0.332-0.322
						c0-0.186,0.137-0.327,0.337-0.327C13.652,1.917,13.779,2.059,13.784,2.244z M13.145,5.286V2.908h0.605v2.378H13.145z"/>
					<path fill="#FFFFFF" d="M16.657,4.075c0,0.874-0.615,1.265-1.221,1.265c-0.674,0-1.191-0.464-1.191-1.226
						c0-0.781,0.512-1.26,1.23-1.26C16.183,2.854,16.657,3.353,16.657,4.075z M14.864,4.1c0,0.459,0.225,0.806,0.592,0.806
						c0.342,0,0.58-0.337,0.58-0.815c0-0.371-0.166-0.796-0.576-0.796C15.036,3.294,14.864,3.704,14.864,4.1z"/>
					<path fill="#FFFFFF" d="M5.028,9.132c0.195,0.112,0.488,0.21,0.797,0.21c0.385,0,0.6-0.181,0.6-0.449
						c0-0.249-0.166-0.396-0.586-0.547C5.298,8.15,4.95,7.862,4.95,7.389c0-0.537,0.449-0.947,1.162-0.947
						c0.357,0,0.621,0.078,0.791,0.166L6.757,7.091C6.64,7.027,6.411,6.935,6.103,6.935c-0.381,0-0.547,0.205-0.547,0.396
						c0,0.254,0.191,0.371,0.631,0.542c0.57,0.215,0.85,0.503,0.85,0.977c0,0.527-0.4,0.986-1.25,0.986
						c-0.348,0-0.709-0.098-0.889-0.205L5.028,9.132z"/>
					<path fill="#FFFFFF" d="M7.557,8.199c0-0.313-0.01-0.566-0.02-0.791h0.527l0.029,0.366h0.01c0.176-0.269,0.454-0.42,0.815-0.42
						c0.547,0,1.001,0.469,1.001,1.211c0,0.859-0.542,1.274-1.084,1.274c-0.298,0-0.547-0.127-0.669-0.317h-0.01v1.23H7.557V8.199z
						 M8.157,8.79c0,0.059,0.005,0.112,0.02,0.166C8.235,9.2,8.45,9.376,8.704,9.376c0.381,0,0.605-0.317,0.605-0.786
						c0-0.42-0.205-0.762-0.591-0.762c-0.249,0-0.479,0.181-0.537,0.444C8.167,8.321,8.157,8.375,8.157,8.424V8.79z"/>
					<path fill="#FFFFFF" d="M10.841,8.766c0.016,0.43,0.352,0.615,0.732,0.615c0.279,0,0.479-0.039,0.66-0.107l0.088,0.415
						c-0.205,0.083-0.488,0.146-0.83,0.146c-0.771,0-1.227-0.474-1.227-1.201c0-0.659,0.4-1.279,1.162-1.279
						c0.771,0,1.025,0.635,1.025,1.157c0,0.112-0.01,0.2-0.02,0.254H10.841z M11.886,8.346c0.006-0.22-0.092-0.581-0.492-0.581
						c-0.371,0-0.527,0.337-0.553,0.581H11.886z"/>
					<path fill="#FFFFFF" d="M13.364,8.766c0.014,0.43,0.352,0.615,0.732,0.615c0.277,0,0.479-0.039,0.658-0.107l0.088,0.415
						c-0.205,0.083-0.488,0.146-0.83,0.146c-0.771,0-1.225-0.474-1.225-1.201c0-0.659,0.4-1.279,1.162-1.279
						c0.771,0,1.025,0.635,1.025,1.157c0,0.112-0.01,0.2-0.02,0.254H13.364z M14.409,8.346c0.004-0.22-0.094-0.581-0.494-0.581
						c-0.371,0-0.527,0.337-0.551,0.581H14.409z"/>
					<path fill="#FFFFFF" d="M17.654,6.319v2.798c0,0.244,0.01,0.508,0.02,0.669h-0.537L17.112,9.41h-0.01
						c-0.142,0.264-0.43,0.43-0.776,0.43c-0.566,0-1.016-0.483-1.016-1.216c-0.005-0.796,0.493-1.27,1.064-1.27
						c0.327,0,0.562,0.137,0.669,0.313h0.01V6.319H17.654z M17.054,8.399c0-0.049-0.005-0.107-0.015-0.156
						c-0.054-0.234-0.244-0.425-0.518-0.425c-0.386,0-0.601,0.342-0.601,0.786c0,0.435,0.215,0.752,0.596,0.752
						c0.244,0,0.459-0.166,0.518-0.425c0.015-0.054,0.02-0.112,0.02-0.176V8.399z"/>
				</g>
			</g>
		</g>
		<g opacity="0.5">
			<path fill="#FFFFFF" d="M16.783,20.503c-0.096,0-0.193-0.027-0.278-0.084c-0.229-0.154-0.291-0.465-0.137-0.694l1.254-1.87
				l-1.254-1.871c-0.154-0.229-0.093-0.54,0.137-0.694c0.228-0.154,0.54-0.093,0.693,0.137l1.627,2.427l-1.627,2.427
				C17.102,20.426,16.944,20.503,16.783,20.503z"/>
			<path fill="#FFFFFF" d="M19.271,20.503c-0.096,0-0.193-0.027-0.278-0.084c-0.229-0.154-0.291-0.465-0.137-0.694l1.254-1.87
				l-1.254-1.871c-0.154-0.229-0.093-0.54,0.137-0.694c0.228-0.154,0.541-0.093,0.693,0.137l1.627,2.427l-1.627,2.427
				C19.59,20.426,19.433,20.503,19.271,20.503z"/>
		</g>
		<g opacity="0.5">
			<path fill="#FFFFFF" d="M2.143,20.503c-0.096,0-0.192-0.027-0.278-0.084c-0.229-0.154-0.291-0.465-0.137-0.694l1.254-1.87
				l-1.254-1.871c-0.153-0.229-0.092-0.54,0.137-0.694c0.229-0.154,0.539-0.093,0.694,0.137l1.626,2.427l-1.626,2.427
				C2.462,20.426,2.304,20.503,2.143,20.503z"/>
			<path fill="#FFFFFF" d="M4.632,20.503c-0.096,0-0.193-0.027-0.278-0.084c-0.229-0.154-0.291-0.465-0.137-0.694l1.254-1.87
				l-1.254-1.871c-0.154-0.229-0.093-0.54,0.137-0.694c0.228-0.154,0.541-0.093,0.693,0.137l1.627,2.427l-1.627,2.427
				C4.95,20.426,4.793,20.503,4.632,20.503z"/>
		</g>
		<g>
			<path opacity="0.3" fill="#FFFFFF" d="M11.339,21.727c-2.139,0-3.871-1.733-3.871-3.872s1.732-3.872,3.871-3.872V21.727z"/>
			<path fill="#FFFFFF" d="M11.339,14.983c1.583,0,2.871,1.288,2.871,2.872s-1.288,2.872-2.871,2.872s-2.871-1.288-2.871-2.872
				S9.756,14.983,11.339,14.983 M11.339,13.983c-2.139,0-3.871,1.733-3.871,3.872s1.732,3.872,3.871,3.872s3.871-1.733,3.871-3.872
				S13.478,13.983,11.339,13.983L11.339,13.983z"/>
			<path fill="#FFFFFF" d="M11.339,18.105c-0.138,0-0.25-0.112-0.25-0.25v-1.6c0-0.138,0.112-0.25,0.25-0.25s0.25,0.112,0.25,0.25
				v1.6C11.589,17.993,11.477,18.105,11.339,18.105z"/>
			<path fill="#FFFFFF" d="M11.339,18.105H9.728c-0.138,0-0.25-0.112-0.25-0.25s0.112-0.25,0.25-0.25h1.611
				c0.138,0,0.25,0.112,0.25,0.25S11.477,18.105,11.339,18.105z"/>
			<g>
				<rect x="13.759" y="17.605" fill="#FFFFFF" width="1.301" height="0.5"/>
				<rect x="7.62" y="17.605" fill="#FFFFFF" width="1.301" height="0.5"/>
				<rect x="11.089" y="20.272" fill="#FFFFFF" width="0.5" height="1.303"/>
			</g>
			<rect x="11.089" y="14.134" fill="#FFFFFF" width="0.5" height="1.302"/>
			<g>
				
					<rect x="13.235" y="13.825" transform="matrix(0.8637 0.5041 -0.5041 0.8637 9.1128 -4.8482)" fill="#FFFFFF" width="0.568" height="1.193"/>
				
					<rect x="13.106" y="13.571" transform="matrix(0.8634 0.5045 -0.5045 0.8634 8.9125 -5.0742)" fill="#FFFFFF" width="1.441" height="0.7"/>
			</g>
			<g>
				
					<rect x="8.565" y="14.138" transform="matrix(0.5042 0.8636 -0.8636 0.5042 16.9957 -0.7616)" fill="#FFFFFF" width="1.193" height="0.568"/>
				
					<rect x="8.503" y="13.2" transform="matrix(0.5048 0.8632 -0.8632 0.5048 16.4007 -0.7494)" fill="#FFFFFF" width="0.7" height="1.441"/>
			</g>
		</g>
	</g>
</g>
</svg>
