<?xml version="1.0" encoding="utf-8"?>
<!-- Generator: Adobe Illustrator 16.0.3, SVG Export Plug-In . SVG Version: 6.00 Build 0)  -->
<!DOCTYPE svg PUBLIC "-//W3C//DTD SVG 1.1//EN" "http://www.w3.org/Graphics/SVG/1.1/DTD/svg11.dtd">
<svg version="1.1" xmlns="http://www.w3.org/2000/svg" xmlns:xlink="http://www.w3.org/1999/xlink" x="0px" y="0px"
	 width="22.679px" height="22.68px" viewBox="0 0 22.679 22.68" enable-background="new 0 0 22.679 22.68" xml:space="preserve">
<g id="BCGRND">
</g>
<g id="IKONY">
	<g>
		<rect x="0" fill="#585857" width="22.677" height="22.677"/>
		<g>
			<g>
				<rect x="0" y="11.956" fill="#FFFFFF" width="22.678" height="0.889"/>
			</g>
			<g opacity="0.5">
				<path fill="#FFFFFF" d="M16.783,20.503c-0.096,0-0.193-0.027-0.278-0.084c-0.229-0.154-0.291-0.465-0.137-0.694l1.254-1.87
					l-1.254-1.871c-0.154-0.229-0.093-0.54,0.137-0.694c0.228-0.154,0.54-0.093,0.693,0.137l1.627,2.427l-1.627,2.427
					C17.101,20.426,16.944,20.503,16.783,20.503z"/>
				<path fill="#FFFFFF" d="M19.271,20.503c-0.096,0-0.193-0.027-0.278-0.084c-0.229-0.154-0.291-0.465-0.137-0.694l1.254-1.87
					l-1.254-1.871c-0.154-0.229-0.093-0.54,0.137-0.694c0.228-0.154,0.541-0.093,0.693,0.137l1.627,2.427l-1.627,2.427
					C19.589,20.426,19.432,20.503,19.271,20.503z"/>
			</g>
			<g opacity="0.5">
				<path fill="#FFFFFF" d="M2.143,20.503c-0.096,0-0.192-0.027-0.278-0.084c-0.229-0.154-0.291-0.465-0.137-0.694l1.254-1.87
					l-1.254-1.871c-0.153-0.229-0.092-0.54,0.137-0.694c0.229-0.154,0.539-0.093,0.694,0.137l1.626,2.427l-1.626,2.427
					C2.462,20.426,2.304,20.503,2.143,20.503z"/>
				<path fill="#FFFFFF" d="M4.631,20.503c-0.096,0-0.193-0.027-0.278-0.084c-0.229-0.154-0.291-0.465-0.137-0.694l1.254-1.87
					l-1.254-1.871c-0.154-0.229-0.093-0.54,0.137-0.694c0.228-0.154,0.541-0.093,0.693,0.137l1.627,2.427l-1.627,2.427
					C4.95,20.426,4.792,20.503,4.631,20.503z"/>
			</g>
			<g>
				<path opacity="0.3" fill="#FFFFFF" d="M11.338,21.727c-2.139,0-3.871-1.733-3.871-3.872s1.732-3.872,3.871-3.872V21.727z"/>
				<path fill="#FFFFFF" d="M11.338,14.983c1.583,0,2.871,1.288,2.871,2.872s-1.288,2.872-2.871,2.872s-2.871-1.288-2.871-2.872
					S9.755,14.983,11.338,14.983 M11.338,13.983c-2.139,0-3.871,1.733-3.871,3.872s1.732,3.872,3.871,3.872s3.871-1.733,3.871-3.872
					S13.477,13.983,11.338,13.983L11.338,13.983z"/>
				<path fill="#FFFFFF" d="M11.338,18.105c-0.138,0-0.25-0.112-0.25-0.25v-1.6c0-0.138,0.112-0.25,0.25-0.25s0.25,0.112,0.25,0.25
					v1.6C11.588,17.993,11.476,18.105,11.338,18.105z"/>
				<path fill="#FFFFFF" d="M11.338,18.105H9.727c-0.138,0-0.25-0.112-0.25-0.25s0.112-0.25,0.25-0.25h1.611
					c0.138,0,0.25,0.112,0.25,0.25S11.476,18.105,11.338,18.105z"/>
				<g>
					<rect x="13.758" y="17.605" fill="#FFFFFF" width="1.301" height="0.5"/>
					<rect x="7.62" y="17.605" fill="#FFFFFF" width="1.301" height="0.5"/>
					<rect x="11.088" y="20.272" fill="#FFFFFF" width="0.5" height="1.303"/>
				</g>
				<rect x="11.088" y="14.134" fill="#FFFFFF" width="0.5" height="1.302"/>
				<g>
					
						<rect x="13.234" y="13.825" transform="matrix(0.8637 0.5041 -0.5041 0.8637 9.1127 -4.848)" fill="#FFFFFF" width="0.568" height="1.193"/>
					
						<rect x="13.105" y="13.571" transform="matrix(0.8634 0.5045 -0.5045 0.8634 8.9124 -5.0739)" fill="#FFFFFF" width="1.441" height="0.7"/>
				</g>
				<g>
					
						<rect x="8.564" y="14.138" transform="matrix(0.5042 0.8636 -0.8636 0.5042 16.9955 -0.7611)" fill="#FFFFFF" width="1.193" height="0.568"/>
					
						<rect x="8.503" y="13.2" transform="matrix(0.5048 0.8632 -0.8632 0.5048 16.4004 -0.749)" fill="#FFFFFF" width="0.7" height="1.441"/>
				</g>
			</g>
		</g>
		<g>
			<g>
				<path fill="#FFFFFF" d="M6.944,5.287L5.879,1.996h0.654L6.983,3.49C7.11,3.905,7.217,4.291,7.305,4.691h0.01
					C7.403,4.3,7.52,3.9,7.652,3.5L8.13,1.996h0.64L7.632,5.287H6.944z"/>
				<path fill="#FFFFFF" d="M10.258,5.287l-0.039-0.264h-0.015C10.058,5.208,9.809,5.34,9.501,5.34
					c-0.479,0-0.747-0.347-0.747-0.708c0-0.601,0.532-0.903,1.411-0.898V3.695c0-0.156-0.063-0.415-0.483-0.415
					c-0.234,0-0.479,0.073-0.64,0.176L8.925,3.065c0.176-0.107,0.483-0.21,0.859-0.21c0.762,0,0.981,0.483,0.981,1.001v0.859
					c0,0.215,0.01,0.425,0.034,0.571H10.258z M10.18,4.125c-0.425-0.01-0.83,0.083-0.83,0.444c0,0.234,0.151,0.342,0.342,0.342
					c0.239,0,0.415-0.156,0.469-0.327c0.015-0.044,0.02-0.093,0.02-0.132V4.125z"/>
				<path fill="#FFFFFF" d="M11.404,3.675c0-0.322-0.005-0.552-0.02-0.767h0.522l0.02,0.454h0.02
					c0.117-0.337,0.396-0.508,0.649-0.508c0.059,0,0.093,0.005,0.142,0.015v0.566c-0.049-0.01-0.103-0.02-0.176-0.02
					c-0.288,0-0.483,0.186-0.537,0.454c-0.01,0.054-0.02,0.117-0.02,0.186v1.23h-0.601V3.675z"/>
				<path fill="#FFFFFF" d="M13.784,2.245c0,0.181-0.132,0.322-0.342,0.322c-0.2,0-0.332-0.142-0.332-0.322
					c0-0.186,0.137-0.327,0.337-0.327C13.652,1.917,13.779,2.059,13.784,2.245z M13.144,5.287V2.909h0.605v2.378H13.144z"/>
				<path fill="#FFFFFF" d="M16.656,4.076c0,0.874-0.615,1.265-1.221,1.265c-0.674,0-1.191-0.464-1.191-1.226
					c0-0.781,0.513-1.26,1.23-1.26C16.183,2.855,16.656,3.353,16.656,4.076z M14.864,4.1c0,0.459,0.225,0.806,0.591,0.806
					c0.342,0,0.581-0.337,0.581-0.815c0-0.371-0.166-0.796-0.576-0.796C15.035,3.294,14.864,3.705,14.864,4.1z"/>
				<path fill="#FFFFFF" d="M3.571,9.132c0.195,0.112,0.488,0.21,0.796,0.21c0.386,0,0.601-0.181,0.601-0.449
					c0-0.249-0.166-0.396-0.586-0.547C3.84,8.151,3.493,7.863,3.493,7.389c0-0.537,0.449-0.947,1.162-0.947
					c0.356,0,0.62,0.078,0.791,0.166L5.3,7.091C5.183,7.028,4.953,6.935,4.646,6.935c-0.381,0-0.547,0.205-0.547,0.396
					c0,0.254,0.19,0.371,0.63,0.542c0.571,0.215,0.85,0.503,0.85,0.977c0,0.527-0.4,0.986-1.25,0.986
					c-0.347,0-0.708-0.098-0.889-0.205L3.571,9.132z"/>
				<path fill="#FFFFFF" d="M6.099,8.2c0-0.313-0.01-0.566-0.02-0.791h0.527l0.029,0.366h0.01c0.176-0.269,0.454-0.42,0.815-0.42
					c0.547,0,1.001,0.469,1.001,1.211c0,0.859-0.542,1.274-1.084,1.274c-0.298,0-0.547-0.127-0.669-0.317H6.7v1.23H6.099V8.2z
					 M6.7,8.791c0,0.059,0.005,0.112,0.02,0.166c0.059,0.244,0.273,0.42,0.527,0.42c0.381,0,0.605-0.317,0.605-0.786
					c0-0.42-0.205-0.762-0.591-0.762c-0.249,0-0.479,0.181-0.537,0.444C6.709,8.322,6.7,8.375,6.7,8.424V8.791z"/>
				<path fill="#FFFFFF" d="M9.384,8.766c0.015,0.43,0.352,0.615,0.732,0.615c0.278,0,0.479-0.039,0.659-0.107l0.088,0.415
					c-0.205,0.083-0.488,0.146-0.83,0.146c-0.771,0-1.226-0.474-1.226-1.201c0-0.659,0.4-1.279,1.162-1.279
					c0.771,0,1.025,0.635,1.025,1.157c0,0.112-0.01,0.2-0.02,0.254H9.384z M10.429,8.346c0.005-0.22-0.093-0.581-0.493-0.581
					c-0.371,0-0.527,0.337-0.552,0.581H10.429z"/>
				<path fill="#FFFFFF" d="M11.906,8.766c0.015,0.43,0.352,0.615,0.732,0.615c0.278,0,0.479-0.039,0.659-0.107l0.088,0.415
					c-0.205,0.083-0.488,0.146-0.83,0.146c-0.771,0-1.226-0.474-1.226-1.201c0-0.659,0.4-1.279,1.162-1.279
					c0.771,0,1.025,0.635,1.025,1.157c0,0.112-0.01,0.2-0.02,0.254H11.906z M12.951,8.346c0.005-0.22-0.093-0.581-0.493-0.581
					c-0.371,0-0.527,0.337-0.552,0.581H12.951z"/>
				<path fill="#FFFFFF" d="M16.197,6.32v2.798c0,0.244,0.01,0.508,0.02,0.669h-0.537l-0.024-0.376h-0.01
					c-0.142,0.264-0.43,0.43-0.776,0.43c-0.566,0-1.016-0.483-1.016-1.216c-0.005-0.796,0.493-1.27,1.064-1.27
					c0.327,0,0.562,0.137,0.669,0.313h0.01V6.32H16.197z M15.596,8.4c0-0.049-0.005-0.107-0.015-0.156
					c-0.054-0.234-0.244-0.425-0.518-0.425c-0.386,0-0.601,0.342-0.601,0.786c0,0.435,0.215,0.752,0.596,0.752
					c0.244,0,0.459-0.166,0.518-0.425c0.015-0.054,0.02-0.112,0.02-0.176V8.4z"/>
				<path fill="#FFFFFF" d="M18.178,7.189v1.104h1.06v0.381h-1.06v1.113h-0.4V8.673h-1.06V8.292h1.06V7.189H18.178z"/>
			</g>
		</g>
	</g>
</g>
</svg>
