<?xml version="1.0" encoding="utf-8"?>
<!-- Generator: Adobe Illustrator 16.0.3, SVG Export Plug-In . SVG Version: 6.00 Build 0)  -->
<!DOCTYPE svg PUBLIC "-//W3C//DTD SVG 1.1//EN" "http://www.w3.org/Graphics/SVG/1.1/DTD/svg11.dtd">
<svg version="1.1" xmlns="http://www.w3.org/2000/svg" xmlns:xlink="http://www.w3.org/1999/xlink" x="0px" y="0px" width="22.68px"
	 height="22.68px" viewBox="0 0 22.68 22.68" enable-background="new 0 0 22.68 22.68" xml:space="preserve">
<g id="BCGRND">
</g>
<g id="IKONY">
	<rect fill="#585857" width="22.676" height="22.678"/>
	<g>
		<g>
			<rect x="0.001" y="7.77" fill="#FFFFFF" width="22.678" height="0.889"/>
		</g>
		<g>
			<path fill="#FFFFFF" d="M2.242,5.57L1.178,2.279h0.654l0.449,1.498C2.408,4.193,2.52,4.574,2.604,4.975h0.01
				c0.088-0.391,0.209-0.791,0.336-1.191l0.479-1.504h0.641L2.93,5.57H2.242z"/>
			<path fill="#FFFFFF" d="M4.594,4.549c0.015,0.43,0.347,0.615,0.732,0.615c0.278,0,0.474-0.043,0.659-0.107l0.088,0.41
				c-0.205,0.088-0.488,0.152-0.83,0.152c-0.771,0-1.226-0.475-1.226-1.201c0-0.66,0.4-1.279,1.162-1.279
				c0.771,0,1.025,0.635,1.025,1.156c0,0.113-0.01,0.201-0.02,0.254H4.594z M5.639,4.129c0.005-0.219-0.093-0.58-0.493-0.58
				c-0.371,0-0.527,0.336-0.552,0.58H5.639z"/>
			<path fill="#FFFFFF" d="M6.643,3.9c0-0.273-0.01-0.504-0.02-0.709h0.522l0.029,0.357h0.015c0.107-0.186,0.366-0.41,0.762-0.41
				c0.415,0,0.845,0.268,0.845,1.02V5.57H8.195V4.227c0-0.342-0.127-0.6-0.454-0.6c-0.239,0-0.405,0.17-0.469,0.352
				C7.253,4.027,7.243,4.1,7.243,4.168V5.57H6.643V3.9z"/>
			<path fill="#FFFFFF" d="M10.055,2.582v0.609h0.57v0.449h-0.57v1.051c0,0.293,0.078,0.439,0.307,0.439
				c0.107,0,0.166-0.006,0.234-0.025l0.01,0.455c-0.088,0.033-0.248,0.063-0.434,0.063c-0.225,0-0.406-0.072-0.518-0.195
				C9.521,5.291,9.463,5.072,9.463,4.76V3.641H9.127V3.191h0.336V2.748L10.055,2.582z"/>
			<path fill="#FFFFFF" d="M11.673,2.527c0,0.176-0.132,0.322-0.342,0.322c-0.2,0-0.332-0.146-0.332-0.322
				c0-0.186,0.137-0.326,0.337-0.326C11.541,2.201,11.668,2.342,11.673,2.527z M11.033,5.57V3.191h0.601V5.57H11.033z"/>
			<path fill="#FFFFFF" d="M12.236,2.104h0.6V5.57h-0.6V2.104z"/>
			<path fill="#FFFFFF" d="M15.289,4.998c0,0.215,0.01,0.426,0.039,0.572h-0.542l-0.044-0.264h-0.015
				c-0.142,0.186-0.391,0.316-0.703,0.316c-0.479,0-0.747-0.346-0.747-0.707c0-0.596,0.532-0.904,1.411-0.898V3.979
				c0-0.156-0.063-0.416-0.483-0.416c-0.234,0-0.479,0.074-0.64,0.176l-0.117-0.391c0.176-0.107,0.483-0.209,0.859-0.209
				c0.762,0,0.981,0.482,0.981,1.006V4.998z M14.703,4.408c-0.425-0.006-0.83,0.082-0.83,0.443c0,0.234,0.151,0.342,0.342,0.342
				c0.244,0,0.415-0.156,0.474-0.326c0.015-0.045,0.015-0.088,0.015-0.133V4.408z M15.069,2.162l-0.596,0.723h-0.415l0.425-0.723
				H15.069z"/>
			<path fill="#FFFFFF" d="M16.537,2.582v0.609h0.571v0.449h-0.571v1.051c0,0.293,0.078,0.439,0.308,0.439
				c0.107,0,0.166-0.006,0.234-0.025l0.01,0.455c-0.088,0.033-0.249,0.063-0.435,0.063c-0.225,0-0.405-0.072-0.518-0.195
				c-0.132-0.137-0.19-0.355-0.19-0.668V3.641h-0.337V3.191h0.337V2.748L16.537,2.582z"/>
			<path fill="#FFFFFF" d="M19.747,4.359c0,0.873-0.615,1.264-1.221,1.264c-0.669,0-1.191-0.459-1.191-1.225
				c0-0.781,0.513-1.26,1.23-1.26C19.273,3.139,19.747,3.637,19.747,4.359z M17.955,4.383c0,0.459,0.229,0.807,0.591,0.807
				c0.342,0,0.581-0.332,0.581-0.816c0-0.371-0.166-0.801-0.576-0.801C18.126,3.572,17.955,3.988,17.955,4.383z"/>
			<path fill="#FFFFFF" d="M20.195,3.959c0-0.322-0.006-0.557-0.02-0.768h0.518l0.023,0.449h0.016
				c0.117-0.332,0.395-0.502,0.654-0.502c0.059,0,0.092,0.004,0.141,0.014v0.563c-0.053-0.01-0.107-0.016-0.18-0.016
				c-0.283,0-0.484,0.182-0.537,0.455c-0.01,0.053-0.016,0.117-0.016,0.18V5.57h-0.6V3.959z"/>
		</g>
		<g>
			<path fill="#FFFFFF" d="M7.54,15.738c0.516,0.238,1.23,0.197,1.986,0.494c-0.072-0.204-0.119-0.42-0.119-0.648
				c0-0.721,0.395-1.346,0.975-1.688c0.002-0.001,0-0.002,0.002-0.003c0.188-0.33,0.77-1.375,0.615-1.82s-0.514-0.977-2.072-0.582
				c-1.559,0.393-2.227,1.953-2.346,2.672C6.462,14.883,6.872,15.43,7.54,15.738z M16.14,15.879c0.557-1.51-0.354-2.941-0.879-3.446
				c-0.523-0.505-1.209-0.477-1.842-0.101c-0.488,0.291-0.859,0.904-1.531,1.359c0.838,0.227,1.459,0.984,1.459,1.893
				c0,0.046-0.012,0.089-0.014,0.135c0,0,0.002,0.001,0.002,0.002c0.166,0.344,0.697,1.414,1.152,1.539
				C14.942,17.383,15.583,17.387,16.14,15.879z M13.06,19.035c0.012-0.566-0.313-1.204-0.344-2.014
				c-0.352,0.328-0.82,0.533-1.338,0.533c-0.434,0-0.83-0.145-1.154-0.381c-0.383-0.04-1.566-0.151-1.91,0.168
				c-0.348,0.321-0.688,0.865,0.301,2.132c0.986,1.269,2.684,1.253,3.389,1.073C12.71,20.369,13.046,19.771,13.06,19.035z
				 M9.907,15.584c0,0.341,0.121,0.651,0.316,0.9c0.096,0.122,0.205,0.232,0.334,0.319c0.234,0.158,0.516,0.251,0.82,0.251
				c0.559,0,1.039-0.318,1.287-0.779c0.104-0.191,0.168-0.406,0.176-0.638c0-0.019,0.006-0.035,0.006-0.054
				c0-0.81-0.66-1.468-1.469-1.468c-0.031,0-0.063,0.007-0.094,0.009c-0.252,0.017-0.488,0.094-0.691,0.223
				C10.183,14.608,9.907,15.063,9.907,15.584z M11.378,14.522c0.117,0,0.227,0.032,0.332,0.067c0.338,0.113,0.588,0.389,0.676,0.737
				c0.021,0.084,0.053,0.165,0.053,0.257c0,0.332-0.16,0.615-0.396,0.81c-0.184,0.151-0.408,0.253-0.664,0.253
				c-0.117,0-0.223-0.031-0.326-0.066c-0.338-0.109-0.588-0.377-0.682-0.722c-0.023-0.09-0.055-0.177-0.055-0.274
				c0-0.275,0.111-0.521,0.283-0.711C10.794,14.66,11.065,14.522,11.378,14.522z M17.374,14.46
				c-0.131-0.701-0.383-1.367-0.746-1.979l-0.43,0.254c0.334,0.563,0.564,1.175,0.684,1.817L17.374,14.46z M10.358,10.076
				l-0.09-0.492c-0.701,0.13-1.367,0.379-1.982,0.74l0.254,0.432C9.104,10.423,9.716,10.194,10.358,10.076z M7.745,11.321
				L7.421,10.94c-0.543,0.464-0.998,1.012-1.348,1.629l0.434,0.248C6.829,12.25,7.247,11.747,7.745,11.321z M13.245,10.302
				l0.166-0.471c-0.65-0.23-1.334-0.348-2.031-0.348h-0.053l0.053,0.5C12.021,9.983,12.647,10.091,13.245,10.302z M16.978,15.52
				v0.065c0,0.658-0.111,1.302-0.334,1.914l0.471,0.17c0.24-0.666,0.363-1.367,0.363-2.084V15.52H16.978z M16.011,11.617
				c-0.463-0.542-1.014-0.994-1.633-1.346l-0.246,0.436c0.568,0.322,1.074,0.737,1.5,1.234L16.011,11.617z M12.364,21.1l0.086,0.492
				c0.701-0.123,1.371-0.368,1.988-0.728l-0.252-0.432C13.62,20.762,13.007,20.986,12.364,21.1z M9.479,20.856l-0.17,0.471
				c0.662,0.238,1.357,0.359,2.07,0.359h0.014l-0.014-0.5C10.726,21.187,10.085,21.075,9.479,20.856z M14.985,19.871l0.322,0.383
				c0.545-0.46,1.002-1.006,1.357-1.622l-0.434-0.25C15.905,18.947,15.485,19.449,14.985,19.871z M6.72,19.529
				c0.461,0.544,1.008,0.999,1.625,1.353l0.248-0.434c-0.566-0.325-1.068-0.743-1.492-1.243L6.72,19.529z M6.099,13.703
				l-0.471-0.168c-0.234,0.655-0.354,1.345-0.354,2.05v0.034l0.5-0.034C5.774,14.938,5.884,14.305,6.099,13.703z M5.372,16.678
				c0.127,0.7,0.373,1.368,0.734,1.984l0.432-0.252c-0.332-0.566-0.559-1.179-0.674-1.82L5.372,16.678z"/>
		</g>
	</g>
</g>
</svg>
