<?xml version="1.0" encoding="utf-8"?>
<!-- Generator: Adobe Illustrator 16.0.3, SVG Export Plug-In . SVG Version: 6.00 Build 0)  -->
<!DOCTYPE svg PUBLIC "-//W3C//DTD SVG 1.1//EN" "http://www.w3.org/Graphics/SVG/1.1/DTD/svg11.dtd">
<svg version="1.1" xmlns="http://www.w3.org/2000/svg" xmlns:xlink="http://www.w3.org/1999/xlink" x="0px" y="0px" width="22.68px"
	 height="22.68px" viewBox="0 0 22.68 22.68" enable-background="new 0 0 22.68 22.68" xml:space="preserve">
<g id="BCGRND">
</g>
<g id="IKONY">
	<rect fill="#585857" width="22.676" height="22.678"/>
	<g>
		<g>
			<g>
				<path fill="#FFFFFF" d="M3.225,5.287L2.16,1.996h0.654l0.449,1.498c0.127,0.416,0.24,0.797,0.322,1.197h0.01
					C3.684,4.301,3.807,3.9,3.934,3.5l0.479-1.504h0.639L3.914,5.287H3.225z"/>
				<path fill="#FFFFFF" d="M5.621,2.908l0.425,1.275C6.095,4.33,6.148,4.51,6.183,4.643h0.015C6.231,4.51,6.275,4.33,6.324,4.178
					l0.371-1.27h0.64L6.739,4.529C6.412,5.418,6.192,5.814,5.914,6.059c-0.239,0.205-0.483,0.283-0.63,0.303L5.147,5.857
					C5.25,5.834,5.372,5.779,5.494,5.691c0.117-0.072,0.249-0.215,0.332-0.375C5.851,5.271,5.86,5.238,5.86,5.209
					c0-0.025-0.005-0.059-0.029-0.117L4.957,2.908H5.621z M6.93,1.879L6.334,2.602H5.919l0.425-0.723H6.93z"/>
				<path fill="#FFFFFF" d="M7.587,3.676c0-0.322-0.005-0.557-0.02-0.768h0.518l0.024,0.449h0.015
					C8.241,3.025,8.52,2.855,8.778,2.855c0.059,0,0.093,0.004,0.142,0.014v0.563c-0.054-0.01-0.107-0.016-0.181-0.016
					c-0.283,0-0.483,0.182-0.537,0.455c-0.01,0.053-0.015,0.117-0.015,0.18v1.236H7.587V3.676z"/>
				<path fill="#FFFFFF" d="M11.447,4.076c0,0.873-0.615,1.264-1.221,1.264c-0.67,0-1.191-0.459-1.191-1.225
					c0-0.781,0.512-1.26,1.23-1.26C10.973,2.855,11.447,3.354,11.447,4.076z M9.654,4.1c0,0.459,0.23,0.807,0.592,0.807
					c0.342,0,0.58-0.332,0.58-0.816c0-0.371-0.166-0.801-0.576-0.801C9.826,3.289,9.654,3.705,9.654,4.1z"/>
				<path fill="#FFFFFF" d="M11.846,1.82h0.6v1.416h0.01c0.146-0.23,0.406-0.381,0.762-0.381c0.582,0,0.996,0.482,0.992,1.205
					c0,0.855-0.543,1.279-1.08,1.279c-0.307,0-0.58-0.117-0.752-0.41h-0.01l-0.029,0.357h-0.512c0.01-0.162,0.02-0.426,0.02-0.67
					V1.82z M12.445,4.305c0,0.049,0.006,0.098,0.016,0.143c0.063,0.244,0.273,0.42,0.531,0.42c0.377,0,0.605-0.299,0.605-0.781
					c0-0.42-0.199-0.762-0.6-0.762c-0.244,0-0.469,0.176-0.533,0.439c-0.01,0.043-0.02,0.098-0.02,0.156V4.305z"/>
				<path fill="#FFFFFF" d="M14.607,3.617c0-0.273-0.01-0.504-0.02-0.709h0.522l0.029,0.357h0.015
					c0.107-0.186,0.366-0.41,0.762-0.41c0.415,0,0.845,0.268,0.845,1.02v1.412H16.16V3.943c0-0.342-0.127-0.6-0.454-0.6
					c-0.239,0-0.405,0.17-0.469,0.352c-0.02,0.049-0.029,0.121-0.029,0.189v1.402h-0.601V3.617z"/>
				<path fill="#FFFFFF" d="M17.307,5.287V2.908h0.6v2.379H17.307z M18.342,1.879l-0.596,0.723H17.33l0.42-0.723H18.342z"/>
				<path fill="#FFFFFF" d="M19.061,3.953h0.01c0.059-0.092,0.127-0.195,0.186-0.277l0.581-0.768h0.723l-0.884,0.973l1.006,1.406
					h-0.737l-0.684-1.051l-0.2,0.24v0.811H18.46V1.82h0.601V3.953z"/>
				<path fill="#FFFFFF" d="M6.925,6.32h0.601v3.467H6.925V6.32z"/>
				<path fill="#FFFFFF" d="M8.654,8.766c0.016,0.43,0.348,0.615,0.732,0.615c0.279,0,0.475-0.043,0.66-0.107l0.088,0.41
					C9.93,9.771,9.646,9.836,9.305,9.836c-0.771,0-1.227-0.475-1.227-1.201c0-0.66,0.4-1.279,1.162-1.279
					c0.771,0,1.025,0.635,1.025,1.156c0,0.113-0.01,0.201-0.02,0.254H8.654z M9.699,8.346c0.006-0.219-0.092-0.58-0.492-0.58
					c-0.371,0-0.527,0.336-0.553,0.58H9.699z"/>
				<path fill="#FFFFFF" d="M12.994,6.32v2.797c0,0.244,0.01,0.508,0.02,0.67h-0.532L12.452,9.41h-0.01
					c-0.142,0.264-0.43,0.43-0.771,0.43c-0.571,0-1.021-0.482-1.021-1.215c-0.005-0.797,0.493-1.27,1.064-1.27
					c0.327,0,0.562,0.131,0.669,0.307h0.01V6.32H12.994z M12.394,8.4c0-0.049-0.005-0.113-0.015-0.162
					c-0.054-0.229-0.244-0.42-0.518-0.42c-0.386,0-0.601,0.342-0.601,0.781s0.215,0.758,0.596,0.758
					c0.244,0,0.459-0.166,0.518-0.426c0.015-0.053,0.02-0.111,0.02-0.176V8.4z"/>
				<path fill="#FFFFFF" d="M15.82,9.074c0,0.283,0.01,0.518,0.02,0.713h-0.523L15.287,9.43h-0.014
					c-0.104,0.166-0.338,0.41-0.768,0.41s-0.824-0.258-0.824-1.035V7.408h0.6v1.295c0,0.395,0.127,0.648,0.445,0.648
					c0.244,0,0.4-0.166,0.459-0.322c0.023-0.049,0.033-0.117,0.033-0.186V7.408h0.602V9.074z"/>
			</g>
		</g>
		<g>
			<g opacity="0.75">
				<polygon fill="#FFFFFF" points="12.423,20.459 13.274,18.877 13.283,18.22 12.465,17.864 				"/>
			</g>
			<g opacity="0.75">
				<path fill="#FFFFFF" d="M8.516,16.688c-0.265,0.065-0.555,0.142-0.868,0.226v2.41l0.932-0.67l-0.068-1.961L8.516,16.688z"/>
			</g>
			<g opacity="0.5">
				<g>
					<path fill="#FFFFFF" d="M17.649,17.209v0.602l-2.478,1.229l-1.889-0.819l-0.009,0.657l-0.852,1.582l-3.786-0.18l-0.058-1.625
						l-0.932,0.67l-3.156-0.721l-0.015-0.792C3.715,18,1.481,18.627,3.5,19.074c2.397,0.531,5.106,0.201,4.823,0.971
						c-0.284,0.77,0.386,2.143,5.105,1.664s0.86-1.947,3.022-2.141C21.631,19.108,19.831,17.701,17.649,17.209z M17.799,19.867
						c-0.407,0-0.738,0.133-0.738,0.297c0,0.162,0.331,0.295,0.738,0.295c0.408,0,0.738-0.133,0.738-0.295
						C18.537,20,18.207,19.867,17.799,19.867z M6.776,20.498c-0.407,0-0.738,0.131-0.738,0.295s0.331,0.295,0.738,0.295
						s0.737-0.131,0.737-0.295S7.184,20.498,6.776,20.498z M4.115,19.867c-0.582,0-1.054,0.189-1.054,0.422s0.472,0.422,1.054,0.422
						c0.58,0,1.051-0.189,1.051-0.422S4.695,19.867,4.115,19.867z M8.517,16.688l1.143-1.236h0.018v-0.816l-2.029,1.164v1.115
						C7.961,16.83,8.251,16.754,8.517,16.688L8.517,16.688z M13.32,15.518l-0.016,1.091c0.487,0.098,1.083,0.203,1.867,0.299v-1.411
						l-2.858-0.793l0.016,0.795L13.32,15.518z"/>
				</g>
			</g>
			<g opacity="0.75">
				<path fill="#FFFFFF" d="M13.305,16.608L13.305,16.608l-0.021,1.61v0.001l1.889,0.819v-2.132
					C14.388,16.812,13.792,16.706,13.305,16.608z"/>
			</g>
			<g opacity="0.75">
				<path fill="#FFFFFF" d="M13.32,15.518l-0.625,0.964c0.186,0.039,0.387,0.082,0.609,0.127L13.32,15.518z"/>
			</g>
			<g opacity="0.9">
				<path fill="#FFFFFF" d="M13.305,16.609L13.305,16.609c-0.223-0.046-0.424-0.089-0.609-0.128l-0.001,0.001l-0.213,0.328
					l-0.017,1.053v0.001l0.818,0.355v-0.001L13.305,16.609z"/>
			</g>
			<path fill="#FFFFFF" d="M0.001,11.956v0.889h22.678v-0.889H0.001z M12.313,14.703l2.858,0.793v3.543l2.478-1.229v-3.248
				l-2.918-0.707L12.313,14.703z M6.643,14.229l-2.214,1.018l0.048,2.564v0.001l0.015,0.792l3.156,0.721v-3.525l2.029-1.164
				L6.643,14.229z M9.677,15.451H9.659l-1.143,1.236l-0.006,0.006l0.068,1.961l0.058,1.625l3.786,0.18l0.042-2.595v-0.001
				l0.017-1.053l0.213-0.328l0.001-0.001l0.625-0.964l-0.991-0.02L9.677,15.451z"/>
		</g>
	</g>
</g>
</svg>
