<?xml version="1.0" encoding="utf-8"?>
<!-- Generator: Adobe Illustrator 16.0.3, SVG Export Plug-In . SVG Version: 6.00 Build 0)  -->
<!DOCTYPE svg PUBLIC "-//W3C//DTD SVG 1.1//EN" "http://www.w3.org/Graphics/SVG/1.1/DTD/svg11.dtd">
<svg version="1.1" xmlns="http://www.w3.org/2000/svg" xmlns:xlink="http://www.w3.org/1999/xlink" x="0px" y="0px" width="22.68px"
	 height="22.68px" viewBox="0 0 22.68 22.68" enable-background="new 0 0 22.68 22.68" xml:space="preserve">
<g id="BCGRND">
</g>
<g id="IKONY">
	<rect x="0" fill="#585857" width="22.676" height="22.678"/>
	<g>
		<g>
			<rect y="7.77" fill="#FFFFFF" width="22.678" height="0.889"/>
			<g>
				<g>
					<path fill="#FFFFFF" d="M6.509,5.57L5.444,2.279h0.654l0.449,1.494C6.675,4.188,6.782,4.574,6.87,4.975h0.01
						c0.088-0.391,0.205-0.791,0.337-1.191l0.479-1.504h0.64L7.197,5.57H6.509z"/>
					<path fill="#FFFFFF" d="M8.9,3.192l0.43,1.274c0.049,0.146,0.098,0.327,0.131,0.464h0.016c0.039-0.137,0.082-0.313,0.127-0.469
						l0.371-1.27h0.645l-0.596,1.621c-0.328,0.889-0.547,1.284-0.83,1.528C8.959,6.552,8.715,6.63,8.563,6.649L8.426,6.142
						c0.104-0.024,0.23-0.078,0.352-0.166C8.891,5.902,9.021,5.761,9.105,5.6c0.023-0.044,0.039-0.078,0.039-0.107
						c0-0.024-0.006-0.059-0.035-0.117L8.24,3.192H8.9z M10.219,2.162L9.617,2.885H9.203l0.424-0.723H10.219z"/>
					<path fill="#FFFFFF" d="M10.783,5.019c0.137,0.083,0.395,0.171,0.609,0.171c0.264,0,0.381-0.107,0.381-0.264
						c0-0.161-0.098-0.244-0.391-0.347c-0.463-0.161-0.658-0.415-0.654-0.693c0-0.42,0.348-0.747,0.898-0.747
						c0.264,0,0.494,0.068,0.631,0.142l-0.117,0.425c-0.104-0.059-0.293-0.137-0.504-0.137c-0.215,0-0.332,0.103-0.332,0.249
						c0,0.151,0.113,0.225,0.416,0.332c0.43,0.156,0.629,0.376,0.635,0.728c0,0.43-0.338,0.742-0.967,0.742
						c-0.289,0-0.547-0.068-0.723-0.166L10.783,5.019z"/>
					<path fill="#FFFFFF" d="M13.178,4.55c0.015,0.43,0.352,0.615,0.732,0.615c0.278,0,0.479-0.039,0.659-0.107l0.088,0.415
						c-0.205,0.083-0.488,0.146-0.83,0.146c-0.771,0-1.226-0.474-1.226-1.201c0-0.659,0.4-1.279,1.162-1.279
						c0.771,0,1.025,0.635,1.025,1.157c0,0.112-0.01,0.2-0.02,0.254H13.178z M14.223,4.13c0.005-0.22-0.093-0.581-0.493-0.581
						c-0.371,0-0.527,0.337-0.552,0.581H14.223z"/>
					<path fill="#FFFFFF" d="M15.778,4.237h0.01c0.059-0.093,0.127-0.195,0.19-0.278l0.576-0.767h0.723l-0.879,0.972l1.006,1.406
						h-0.737l-0.684-1.05L15.778,4.76V5.57h-0.601V2.104h0.601V4.237z"/>
				</g>
			</g>
		</g>
		<g>
			<path opacity="0.5" fill="#FFFFFF" d="M0,8.214v14.464h22.678V8.214H0z M15.222,19.873H7.454c-2.438,0-4.414-1.978-4.414-4.416
				s1.977-4.416,4.414-4.416h7.768c2.439,0,4.416,1.978,4.416,4.416S17.661,19.873,15.222,19.873z"/>
		</g>
		<path fill="#FFFFFF" d="M15.222,20.373H7.454c-2.71,0-4.914-2.205-4.914-4.916s2.204-4.916,4.914-4.916h7.768
			c2.711,0,4.916,2.205,4.916,4.916S17.933,20.373,15.222,20.373z M7.454,11.541c-2.158,0-3.914,1.757-3.914,3.916
			s1.756,3.916,3.914,3.916h7.768c2.159,0,3.916-1.757,3.916-3.916s-1.757-3.916-3.916-3.916H7.454z"/>
		<path fill="#FFFFFF" d="M19.438,17.025c-0.106,0-0.205-0.068-0.238-0.176c-0.546-1.747-2.145-2.922-3.979-2.922H7.454
			c-1.832,0-3.431,1.175-3.977,2.922c-0.041,0.132-0.181,0.207-0.313,0.164c-0.132-0.041-0.206-0.181-0.164-0.313
			c0.611-1.958,2.4-3.273,4.453-3.273h7.768c2.054,0,3.844,1.315,4.455,3.273c0.042,0.132-0.032,0.271-0.164,0.313
			C19.488,17.021,19.463,17.025,19.438,17.025z"/>
		<g>
			<defs>
				<path id="SVGID_1_" d="M15.222,11.041H7.454c-2.438,0-4.414,1.978-4.414,4.416c0,0.451,0.088,0.877,0.213,1.287
					c0.57-1.778,2.234-3.066,4.201-3.066h7.768c1.969,0,3.633,1.288,4.203,3.066c0.127-0.41,0.213-0.836,0.213-1.287
					C19.638,13.019,17.661,11.041,15.222,11.041z"/>
			</defs>
			<clipPath id="SVGID_2_">
				<use xlink:href="#SVGID_1_"  overflow="visible"/>
			</clipPath>
			<g clip-path="url(#SVGID_2_)">
				<path fill="#FFFFFF" d="M4.327,17.424c-0.138,0-0.25-0.112-0.25-0.25v-6.563c0-0.138,0.112-0.25,0.25-0.25s0.25,0.112,0.25,0.25
					v6.563C4.577,17.312,4.465,17.424,4.327,17.424z"/>
				<path fill="#FFFFFF" d="M5.885,17.424c-0.138,0-0.25-0.112-0.25-0.25v-6.563c0-0.138,0.112-0.25,0.25-0.25s0.25,0.112,0.25,0.25
					v6.563C6.135,17.312,6.022,17.424,5.885,17.424z"/>
				<path fill="#FFFFFF" d="M7.444,17.424c-0.138,0-0.25-0.112-0.25-0.25v-6.563c0-0.138,0.112-0.25,0.25-0.25s0.25,0.112,0.25,0.25
					v6.563C7.694,17.312,7.582,17.424,7.444,17.424z"/>
				<path fill="#FFFFFF" d="M9.002,17.424c-0.138,0-0.25-0.112-0.25-0.25v-6.563c0-0.138,0.112-0.25,0.25-0.25s0.25,0.112,0.25,0.25
					v6.563C9.252,17.312,9.14,17.424,9.002,17.424z"/>
				<path fill="#FFFFFF" d="M10.56,17.424c-0.138,0-0.25-0.112-0.25-0.25v-6.563c0-0.138,0.112-0.25,0.25-0.25s0.25,0.112,0.25,0.25
					v6.563C10.81,17.312,10.697,17.424,10.56,17.424z"/>
				<path fill="#FFFFFF" d="M12.119,17.424c-0.138,0-0.25-0.112-0.25-0.25v-6.563c0-0.138,0.112-0.25,0.25-0.25
					s0.25,0.112,0.25,0.25v6.563C12.369,17.312,12.257,17.424,12.119,17.424z"/>
				<path fill="#FFFFFF" d="M13.677,17.424c-0.138,0-0.25-0.112-0.25-0.25v-6.563c0-0.138,0.112-0.25,0.25-0.25
					s0.25,0.112,0.25,0.25v6.563C13.927,17.312,13.814,17.424,13.677,17.424z"/>
				<path fill="#FFFFFF" d="M15.234,17.424c-0.138,0-0.25-0.112-0.25-0.25v-6.563c0-0.138,0.112-0.25,0.25-0.25
					s0.25,0.112,0.25,0.25v6.563C15.484,17.312,15.372,17.424,15.234,17.424z"/>
				<path fill="#FFFFFF" d="M16.794,17.424c-0.138,0-0.25-0.112-0.25-0.25v-6.563c0-0.138,0.112-0.25,0.25-0.25
					s0.25,0.112,0.25,0.25v6.563C17.044,17.312,16.932,17.424,16.794,17.424z"/>
				<path fill="#FFFFFF" d="M18.352,17.424c-0.138,0-0.25-0.112-0.25-0.25v-6.563c0-0.138,0.112-0.25,0.25-0.25
					s0.25,0.112,0.25,0.25v6.563C18.602,17.312,18.489,17.424,18.352,17.424z"/>
			</g>
		</g>
	</g>
</g>
</svg>
