<?xml version="1.0" encoding="utf-8"?>
<!-- Generator: Adobe Illustrator 16.0.3, SVG Export Plug-In . SVG Version: 6.00 Build 0)  -->
<!DOCTYPE svg PUBLIC "-//W3C//DTD SVG 1.1//EN" "http://www.w3.org/Graphics/SVG/1.1/DTD/svg11.dtd">
<svg version="1.1" xmlns="http://www.w3.org/2000/svg" xmlns:xlink="http://www.w3.org/1999/xlink" x="0px" y="0px" width="22.68px"
	 height="22.68px" viewBox="0 0 22.68 22.68" enable-background="new 0 0 22.68 22.68" xml:space="preserve">
<g id="BCGRND">
</g>
<g id="IKONY">
	<rect fill="#585857" width="22.676" height="22.678"/>
	<g>
		<g>
			<rect x="0.001" y="11.956" fill="#FFFFFF" width="22.678" height="0.889"/>
		</g>
		<g>
			<path fill="#FFFFFF" d="M6.012,5.287L4.948,1.996h0.654l0.449,1.499C6.178,3.91,6.291,4.291,6.374,4.691h0.01
				C6.471,4.301,6.593,3.9,6.72,3.5l0.479-1.504h0.64L6.701,5.287H6.012z"/>
			<path fill="#FFFFFF" d="M8.653,2.909l0.425,1.274C9.126,4.33,9.18,4.511,9.214,4.643h0.015C9.263,4.511,9.307,4.33,9.356,4.179
				l0.371-1.27h0.64L9.771,4.53C9.444,5.419,9.224,5.814,8.946,6.059c-0.239,0.205-0.483,0.283-0.63,0.303L8.179,5.858
				C8.282,5.834,8.404,5.78,8.526,5.692c0.117-0.073,0.249-0.215,0.332-0.376c0.024-0.044,0.034-0.078,0.034-0.107
				c0-0.024-0.005-0.059-0.029-0.117L7.989,2.909H8.653z M9.961,1.879L9.366,2.602H8.951l0.425-0.723H9.961z"/>
			<path fill="#FFFFFF" d="M10.78,4.73c0.132,0.083,0.391,0.176,0.605,0.176c0.264,0,0.381-0.112,0.381-0.269
				c0-0.161-0.098-0.239-0.391-0.347c-0.464-0.156-0.654-0.41-0.654-0.693c0-0.42,0.347-0.742,0.898-0.742
				c0.264,0,0.493,0.063,0.635,0.142l-0.122,0.42C12.035,3.358,11.84,3.28,11.63,3.28c-0.215,0-0.332,0.107-0.332,0.254
				c0,0.151,0.112,0.22,0.415,0.332c0.435,0.151,0.63,0.371,0.635,0.723c0,0.435-0.337,0.747-0.967,0.747
				c-0.288,0-0.547-0.068-0.723-0.166L10.78,4.73z M11.313,2.602l-0.479-0.723h0.415l0.269,0.444h0.01l0.264-0.444h0.41
				l-0.474,0.723H11.313z"/>
			<path fill="#FFFFFF" d="M13.59,3.954h0.01c0.059-0.093,0.127-0.195,0.186-0.278l0.581-0.767h0.723l-0.884,0.972l1.006,1.406
				h-0.737l-0.684-1.05l-0.2,0.239v0.811H12.99V1.82h0.601V3.954z"/>
			<path fill="#FFFFFF" d="M17.524,4.716c0,0.215,0.01,0.425,0.039,0.571h-0.542l-0.044-0.264h-0.015
				c-0.142,0.186-0.391,0.317-0.703,0.317c-0.479,0-0.747-0.347-0.747-0.708c0-0.596,0.532-0.903,1.411-0.898V3.695
				c0-0.156-0.063-0.415-0.483-0.415c-0.234,0-0.479,0.073-0.64,0.176l-0.117-0.391c0.176-0.107,0.483-0.21,0.859-0.21
				c0.762,0,0.981,0.483,0.981,1.006V4.716z M16.938,4.125c-0.425-0.005-0.83,0.083-0.83,0.444c0,0.234,0.151,0.342,0.342,0.342
				c0.244,0,0.415-0.156,0.474-0.327c0.015-0.044,0.015-0.088,0.015-0.132V4.125z"/>
			<path fill="#FFFFFF" d="M6.873,6.403C6.56,6.867,6.326,7.512,6.326,8.391c0,0.864,0.239,1.504,0.547,1.973H6.438
				c-0.283-0.391-0.596-1.03-0.596-1.973c0.005-0.957,0.313-1.592,0.596-1.987H6.873z"/>
			<path fill="#FFFFFF" d="M7.48,8.117c0-0.273-0.01-0.503-0.02-0.708h0.513l0.029,0.352h0.015C8.129,7.575,8.344,7.355,8.75,7.355
				c0.313,0,0.557,0.176,0.659,0.439h0.01c0.083-0.132,0.181-0.229,0.288-0.298c0.137-0.093,0.288-0.142,0.488-0.142
				c0.391,0,0.791,0.269,0.791,1.03v1.401H10.4V8.474c0-0.396-0.137-0.63-0.425-0.63c-0.205,0-0.356,0.146-0.42,0.317
				c-0.02,0.054-0.029,0.132-0.029,0.2v1.426H8.94V8.41c0-0.332-0.132-0.566-0.41-0.566c-0.225,0-0.376,0.176-0.435,0.337
				c-0.02,0.063-0.029,0.132-0.029,0.2v1.406H7.48V8.117z"/>
			<path fill="#FFFFFF" d="M11.772,8.117c0-0.273-0.01-0.503-0.02-0.708h0.513l0.029,0.352h0.015
				c0.112-0.186,0.327-0.405,0.732-0.405c0.313,0,0.557,0.176,0.659,0.439h0.01c0.083-0.132,0.181-0.229,0.288-0.298
				c0.137-0.093,0.288-0.142,0.488-0.142c0.391,0,0.791,0.269,0.791,1.03v1.401h-0.586V8.474c0-0.396-0.137-0.63-0.425-0.63
				c-0.205,0-0.356,0.146-0.42,0.317c-0.02,0.054-0.029,0.132-0.029,0.2v1.426h-0.586V8.41c0-0.332-0.132-0.566-0.41-0.566
				c-0.225,0-0.376,0.176-0.435,0.337c-0.02,0.063-0.029,0.132-0.029,0.2v1.406h-0.586V8.117z"/>
			<path fill="#FFFFFF" d="M15.879,10.363c0.308-0.464,0.547-1.113,0.547-1.982s-0.239-1.509-0.547-1.978h0.435
				c0.283,0.386,0.596,1.021,0.596,1.978c-0.005,0.952-0.313,1.587-0.596,1.982H15.879z"/>
		</g>
	</g>
	<g>
		<path fill="#FFFFFF" d="M5.154,19.834c0.161,0.018,0.323,0.009,0.578-0.017c0.408-0.034,0.816-0.179,1.122-0.425
			c0.357-0.289,0.604-0.706,0.706-1.225L7.542,18.16c-0.28,0.314-0.671,0.492-1.207,0.492c-0.96,0-1.674-0.696-1.674-1.717
			c0-1.054,0.816-1.972,1.998-1.972c1.283,0,1.972,1.012,1.972,2.354c0,1.182-0.391,2.022-0.96,2.566
			c-0.484,0.451-1.147,0.706-1.887,0.757c-0.238,0.025-0.476,0.025-0.629,0.017V19.834z M5.698,16.876
			c0.008,0.57,0.332,1.012,0.909,1.012c0.425,0,0.731-0.195,0.893-0.459c0.034-0.067,0.06-0.153,0.06-0.297
			c0.008-0.748-0.272-1.395-0.952-1.395C6.081,15.737,5.698,16.205,5.698,16.876z"/>
		<path fill="#FFFFFF" d="M12.766,15.797c-0.153,0-0.323,0-0.535,0.025c-1.156,0.136-1.717,0.851-1.853,1.615h0.025
			c0.272-0.314,0.688-0.535,1.241-0.535c0.952,0,1.691,0.68,1.691,1.802c0,1.054-0.773,1.972-1.946,1.972
			c-1.343,0-2.083-1.021-2.083-2.38c0-1.063,0.382-1.93,0.96-2.481c0.51-0.477,1.173-0.748,1.963-0.816
			c0.229-0.025,0.399-0.025,0.527-0.017L12.766,15.797z M12.273,18.764c0-0.638-0.349-1.097-0.96-1.097
			c-0.391,0-0.739,0.238-0.901,0.569c-0.042,0.085-0.068,0.187-0.068,0.331c0.017,0.731,0.365,1.326,1.037,1.326
			C11.925,19.894,12.273,19.426,12.273,18.764z"/>
		<path fill="#FFFFFF" d="M17.986,17.786c0,1.776-0.697,2.89-2.014,2.89c-1.275,0-1.955-1.156-1.963-2.839
			c0-1.717,0.731-2.873,2.022-2.873C17.366,14.964,17.986,16.154,17.986,17.786z M15.063,17.837c-0.008,1.343,0.366,2.04,0.943,2.04
			c0.612,0,0.935-0.748,0.935-2.074c0-1.283-0.306-2.04-0.935-2.04C15.445,15.763,15.054,16.451,15.063,17.837z"/>
	</g>
</g>
</svg>
