<?xml version="1.0" encoding="utf-8"?>
<!-- Generator: Adobe Illustrator 16.0.3, SVG Export Plug-In . SVG Version: 6.00 Build 0)  -->
<!DOCTYPE svg PUBLIC "-//W3C//DTD SVG 1.1//EN" "http://www.w3.org/Graphics/SVG/1.1/DTD/svg11.dtd">
<svg version="1.1" xmlns="http://www.w3.org/2000/svg" xmlns:xlink="http://www.w3.org/1999/xlink" x="0px" y="0px" width="22.68px"
	 height="22.68px" viewBox="0 0 22.68 22.68" enable-background="new 0 0 22.68 22.68" xml:space="preserve">
<g id="BCGRND" display="none">
</g>
<g id="IKONY">
	<rect fill="#585857" width="22.676" height="22.678"/>
	<g>
		<g>
			<rect x="0.001" y="11.956" fill="#FFFFFF" width="22.678" height="0.889"/>
		</g>
		<g>
			<g>
				<path fill="#FFFFFF" d="M6.013,5.287L4.948,1.996h0.654L6.052,3.49c0.127,0.415,0.234,0.801,0.322,1.201h0.01
					C6.472,4.301,6.589,3.9,6.721,3.5l0.479-1.504h0.64L6.701,5.287H6.013z"/>
				<path fill="#FFFFFF" d="M8.648,2.909l0.43,1.274C9.127,4.33,9.176,4.511,9.21,4.647h0.015c0.039-0.137,0.083-0.313,0.127-0.469
					l0.371-1.27h0.645L9.771,4.53c-0.327,0.889-0.547,1.284-0.83,1.528c-0.234,0.21-0.479,0.288-0.63,0.308L8.175,5.858
					C8.277,5.834,8.404,5.78,8.526,5.692c0.112-0.073,0.244-0.215,0.327-0.376c0.024-0.044,0.039-0.078,0.039-0.107
					c0-0.024-0.005-0.059-0.034-0.117L7.989,2.909H8.648z M9.967,1.879L9.366,2.602H8.951l0.425-0.723H9.967z"/>
				<path fill="#FFFFFF" d="M10.776,4.735c0.137,0.083,0.396,0.171,0.61,0.171c0.264,0,0.381-0.107,0.381-0.264
					c0-0.161-0.098-0.244-0.391-0.347c-0.464-0.161-0.659-0.415-0.654-0.693c0-0.42,0.347-0.747,0.898-0.747
					c0.264,0,0.493,0.068,0.63,0.142l-0.117,0.425c-0.103-0.059-0.293-0.137-0.503-0.137c-0.215,0-0.332,0.103-0.332,0.249
					c0,0.151,0.112,0.225,0.415,0.332c0.43,0.156,0.63,0.376,0.635,0.728c0,0.43-0.337,0.742-0.967,0.742
					c-0.288,0-0.547-0.068-0.723-0.166L10.776,4.735z M11.313,2.602l-0.479-0.723h0.415l0.264,0.444h0.01l0.269-0.444h0.41
					l-0.474,0.723H11.313z"/>
				<path fill="#FFFFFF" d="M13.591,3.954h0.01c0.059-0.093,0.127-0.195,0.19-0.278l0.576-0.767h0.723l-0.879,0.972l1.006,1.406
					h-0.737l-0.684-1.05l-0.205,0.239v0.811H12.99V1.82h0.601V3.954z"/>
				<path fill="#FFFFFF" d="M17.017,5.287l-0.039-0.264h-0.015c-0.146,0.186-0.396,0.317-0.703,0.317
					c-0.479,0-0.747-0.347-0.747-0.708c0-0.601,0.532-0.903,1.411-0.898V3.695c0-0.156-0.063-0.415-0.483-0.415
					c-0.234,0-0.479,0.073-0.64,0.176l-0.117-0.391c0.176-0.107,0.483-0.21,0.859-0.21c0.762,0,0.981,0.483,0.981,1.001v0.859
					c0,0.215,0.01,0.425,0.034,0.571H17.017z M16.939,4.125c-0.425-0.01-0.83,0.083-0.83,0.444c0,0.234,0.151,0.342,0.342,0.342
					c0.239,0,0.415-0.156,0.469-0.327c0.015-0.044,0.02-0.093,0.02-0.132V4.125z"/>
				<path fill="#FFFFFF" d="M6.873,6.403C6.561,6.867,6.321,7.512,6.321,8.391c0,0.864,0.244,1.504,0.552,1.973H6.434
					C6.155,9.973,5.843,9.338,5.843,8.391c0.005-0.952,0.313-1.592,0.591-1.987H6.873z"/>
				<path fill="#FFFFFF" d="M7.48,8.117c0-0.273-0.005-0.503-0.02-0.708h0.518l0.024,0.352h0.015C8.135,7.575,8.35,7.355,8.75,7.355
					c0.313,0,0.557,0.176,0.659,0.439h0.01C9.502,7.663,9.6,7.565,9.712,7.497c0.132-0.093,0.283-0.142,0.479-0.142
					c0.396,0,0.796,0.269,0.796,1.03v1.401H10.4V8.474c0-0.396-0.137-0.63-0.425-0.63c-0.205,0-0.356,0.146-0.42,0.317
					c-0.015,0.059-0.029,0.132-0.029,0.2v1.426H8.94V8.41c0-0.332-0.132-0.566-0.41-0.566c-0.225,0-0.376,0.176-0.43,0.342
					C8.076,8.244,8.066,8.313,8.066,8.381v1.406H7.48V8.117z"/>
				<path fill="#FFFFFF" d="M11.773,8.117c0-0.273-0.005-0.503-0.02-0.708h0.518l0.024,0.352h0.015
					c0.117-0.186,0.332-0.405,0.732-0.405c0.313,0,0.557,0.176,0.659,0.439h0.01c0.083-0.132,0.181-0.229,0.293-0.298
					c0.132-0.093,0.283-0.142,0.479-0.142c0.396,0,0.796,0.269,0.796,1.03v1.401h-0.586V8.474c0-0.396-0.137-0.63-0.425-0.63
					c-0.205,0-0.356,0.146-0.42,0.317c-0.015,0.059-0.029,0.132-0.029,0.2v1.426h-0.586V8.41c0-0.332-0.132-0.566-0.41-0.566
					c-0.225,0-0.376,0.176-0.43,0.342c-0.024,0.059-0.034,0.127-0.034,0.195v1.406h-0.586V8.117z"/>
				<path fill="#FFFFFF" d="M15.88,10.363c0.308-0.464,0.547-1.113,0.547-1.982s-0.239-1.509-0.547-1.978h0.435
					c0.283,0.391,0.596,1.025,0.596,1.982c-0.005,0.952-0.313,1.582-0.596,1.978H15.88z"/>
			</g>
		</g>
		<g>
			<path fill="#FFFFFF" d="M4.404,16.002H4.387l-1.011,0.51l-0.179-0.79l1.343-0.663h0.875v5.524H4.404V16.002z"/>
			<path fill="#FFFFFF" d="M7.366,19.835c0.162,0.018,0.323,0.009,0.578-0.017c0.408-0.034,0.816-0.179,1.122-0.425
				c0.357-0.289,0.604-0.706,0.706-1.225l-0.017-0.008c-0.28,0.314-0.671,0.492-1.207,0.492c-0.96,0-1.674-0.696-1.674-1.717
				c0-1.054,0.816-1.972,1.998-1.972c1.283,0,1.972,1.012,1.972,2.354c0,1.182-0.391,2.022-0.96,2.566
				c-0.484,0.451-1.147,0.706-1.887,0.757c-0.238,0.025-0.476,0.025-0.629,0.017V19.835z M7.91,16.877
				c0.008,0.57,0.332,1.012,0.909,1.012c0.425,0,0.731-0.195,0.893-0.459c0.034-0.067,0.06-0.153,0.06-0.297
				c0.008-0.748-0.272-1.395-0.952-1.395C8.292,15.738,7.91,16.206,7.91,16.877z"/>
			<path fill="#FFFFFF" d="M14.984,15.926H12.86l-0.162,1.104c0.127-0.017,0.238-0.025,0.399-0.025c0.484,0,0.969,0.11,1.343,0.357
				c0.417,0.263,0.723,0.73,0.723,1.402c0,1.054-0.875,1.912-2.235,1.912c-0.638,0-1.173-0.162-1.462-0.323l0.212-0.79
				c0.238,0.127,0.714,0.289,1.215,0.289c0.612,0,1.199-0.349,1.199-1.012c0-0.629-0.468-1.046-1.573-1.046
				c-0.306,0-0.535,0.018-0.756,0.052l0.366-2.788h2.855V15.926z"/>
			<path fill="#FFFFFF" d="M19.955,17.787c0,1.776-0.697,2.89-2.014,2.89c-1.275,0-1.955-1.156-1.963-2.839
				c0-1.717,0.731-2.873,2.023-2.873C19.334,14.965,19.955,16.155,19.955,17.787z M17.031,17.838
				c-0.008,1.343,0.366,2.04,0.943,2.04c0.612,0,0.935-0.748,0.935-2.074c0-1.283-0.306-2.04-0.935-2.04
				C17.414,15.764,17.023,16.452,17.031,17.838z"/>
		</g>
	</g>
</g>
</svg>
