<?xml version="1.0" encoding="utf-8"?>
<!-- Generator: Adobe Illustrator 16.0.3, SVG Export Plug-In . SVG Version: 6.00 Build 0)  -->
<!DOCTYPE svg PUBLIC "-//W3C//DTD SVG 1.1//EN" "http://www.w3.org/Graphics/SVG/1.1/DTD/svg11.dtd">
<svg version="1.1" xmlns="http://www.w3.org/2000/svg" xmlns:xlink="http://www.w3.org/1999/xlink" x="0px" y="0px" width="22.68px"
	 height="22.68px" viewBox="0 0 22.68 22.68" enable-background="new 0 0 22.68 22.68" xml:space="preserve">
<g id="BCGRND" display="none">
</g>
<g id="IKONY">
	<rect fill="#585857" width="22.676" height="22.678"/>
	<g>
		<g>
			<rect x="0.001" y="11.956" fill="#FFFFFF" width="22.678" height="0.889"/>
		</g>
		<g>
			<path fill="#FFFFFF" d="M6.013,5.287L4.948,1.996h0.654l0.449,1.499C6.179,3.91,6.291,4.291,6.374,4.691h0.01
				C6.472,4.301,6.594,3.9,6.721,3.5l0.479-1.504h0.64L6.701,5.287H6.013z"/>
			<path fill="#FFFFFF" d="M8.653,2.909l0.425,1.274C9.127,4.33,9.181,4.511,9.215,4.643h0.015C9.264,4.511,9.308,4.33,9.356,4.179
				l0.371-1.27h0.64L9.771,4.53C9.444,5.419,9.225,5.814,8.946,6.059c-0.239,0.205-0.483,0.283-0.63,0.303L8.18,5.858
				C8.282,5.834,8.404,5.78,8.526,5.692c0.117-0.073,0.249-0.215,0.332-0.376c0.024-0.044,0.034-0.078,0.034-0.107
				c0-0.024-0.005-0.059-0.029-0.117L7.989,2.909H8.653z M9.962,1.879L9.366,2.602H8.951l0.425-0.723H9.962z"/>
			<path fill="#FFFFFF" d="M10.781,4.73c0.132,0.083,0.391,0.176,0.605,0.176c0.264,0,0.381-0.112,0.381-0.269
				c0-0.161-0.098-0.239-0.391-0.347c-0.464-0.156-0.654-0.41-0.654-0.693c0-0.42,0.347-0.742,0.898-0.742
				c0.264,0,0.493,0.063,0.635,0.142l-0.122,0.42C12.036,3.358,11.84,3.28,11.63,3.28c-0.215,0-0.332,0.107-0.332,0.254
				c0,0.151,0.112,0.22,0.415,0.332c0.435,0.151,0.63,0.371,0.635,0.723c0,0.435-0.337,0.747-0.967,0.747
				c-0.288,0-0.547-0.068-0.723-0.166L10.781,4.73z M11.313,2.602l-0.479-0.723h0.415l0.269,0.444h0.01l0.264-0.444h0.41
				l-0.474,0.723H11.313z"/>
			<path fill="#FFFFFF" d="M13.591,3.954h0.01c0.059-0.093,0.127-0.195,0.186-0.278l0.581-0.767h0.723l-0.884,0.972l1.006,1.406
				h-0.737l-0.684-1.05l-0.2,0.239v0.811H12.99V1.82h0.601V3.954z"/>
			<path fill="#FFFFFF" d="M17.525,4.716c0,0.215,0.01,0.425,0.039,0.571h-0.542l-0.044-0.264h-0.015
				c-0.142,0.186-0.391,0.317-0.703,0.317c-0.479,0-0.747-0.347-0.747-0.708c0-0.596,0.532-0.903,1.411-0.898V3.695
				c0-0.156-0.063-0.415-0.483-0.415c-0.234,0-0.479,0.073-0.64,0.176l-0.117-0.391c0.176-0.107,0.483-0.21,0.859-0.21
				c0.762,0,0.981,0.483,0.981,1.006V4.716z M16.939,4.125c-0.425-0.005-0.83,0.083-0.83,0.444c0,0.234,0.151,0.342,0.342,0.342
				c0.244,0,0.415-0.156,0.474-0.327c0.015-0.044,0.015-0.088,0.015-0.132V4.125z"/>
			<path fill="#FFFFFF" d="M6.873,6.403C6.561,6.867,6.326,7.512,6.326,8.391c0,0.864,0.239,1.504,0.547,1.973H6.438
				c-0.283-0.391-0.596-1.03-0.596-1.973c0.005-0.957,0.313-1.592,0.596-1.987H6.873z"/>
			<path fill="#FFFFFF" d="M7.48,8.117c0-0.273-0.01-0.503-0.02-0.708h0.513l0.029,0.352h0.015C8.13,7.575,8.345,7.355,8.75,7.355
				c0.313,0,0.557,0.176,0.659,0.439h0.01C9.502,7.663,9.6,7.565,9.707,7.497c0.137-0.093,0.288-0.142,0.488-0.142
				c0.391,0,0.791,0.269,0.791,1.03v1.401H10.4V8.474c0-0.396-0.137-0.63-0.425-0.63c-0.205,0-0.356,0.146-0.42,0.317
				c-0.02,0.054-0.029,0.132-0.029,0.2v1.426H8.94V8.41c0-0.332-0.132-0.566-0.41-0.566c-0.225,0-0.376,0.176-0.435,0.337
				c-0.02,0.063-0.029,0.132-0.029,0.2v1.406H7.48V8.117z"/>
			<path fill="#FFFFFF" d="M11.773,8.117c0-0.273-0.01-0.503-0.02-0.708h0.513l0.029,0.352h0.015
				c0.112-0.186,0.327-0.405,0.732-0.405c0.313,0,0.557,0.176,0.659,0.439h0.01C13.794,7.663,13.892,7.565,14,7.497
				c0.137-0.093,0.288-0.142,0.488-0.142c0.391,0,0.791,0.269,0.791,1.03v1.401h-0.586V8.474c0-0.396-0.137-0.63-0.425-0.63
				c-0.205,0-0.356,0.146-0.42,0.317c-0.02,0.054-0.029,0.132-0.029,0.2v1.426h-0.586V8.41c0-0.332-0.132-0.566-0.41-0.566
				c-0.225,0-0.376,0.176-0.435,0.337c-0.02,0.063-0.029,0.132-0.029,0.2v1.406h-0.586V8.117z"/>
			<path fill="#FFFFFF" d="M15.88,10.363c0.308-0.464,0.547-1.113,0.547-1.982s-0.239-1.509-0.547-1.978h0.435
				c0.283,0.386,0.596,1.021,0.596,1.978c-0.005,0.952-0.313,1.587-0.596,1.982H15.88z"/>
		</g>
		<g>
			<path fill="#FFFFFF" d="M4.505,16.002H4.488l-1.011,0.51l-0.179-0.79l1.352-0.663h0.867v5.524H4.505V16.002z"/>
			<path fill="#FFFFFF" d="M7.459,19.835c0.17,0.018,0.332,0.009,0.578-0.017c0.417-0.034,0.816-0.179,1.122-0.425
				c0.365-0.289,0.612-0.706,0.714-1.232H9.856c-0.28,0.306-0.68,0.484-1.207,0.484c-0.96,0-1.674-0.688-1.674-1.709
				c0-1.063,0.816-1.972,1.989-1.972c1.292,0,1.972,1.003,1.972,2.354c0,1.182-0.383,2.022-0.96,2.575
				c-0.476,0.442-1.139,0.705-1.887,0.757c-0.238,0.025-0.467,0.025-0.629,0.017V19.835z M8.012,16.877
				c0,0.57,0.332,1.012,0.909,1.012c0.425,0,0.731-0.204,0.893-0.459c0.034-0.076,0.06-0.161,0.06-0.306
				c0-0.748-0.281-1.386-0.96-1.386C8.386,15.738,8.012,16.206,8.012,16.877z"/>
			<path fill="#FFFFFF" d="M11.715,19.504c0.212,0.127,0.731,0.34,1.258,0.34c0.799,0,1.113-0.45,1.113-0.884
				c0-0.654-0.621-0.936-1.258-0.936h-0.476V17.26h0.476c0.476,0,1.088-0.221,1.088-0.765c0-0.383-0.272-0.697-0.884-0.697
				c-0.451,0-0.901,0.195-1.13,0.349l-0.238-0.757c0.314-0.212,0.935-0.425,1.589-0.425c1.147,0,1.726,0.629,1.726,1.352
				c0,0.578-0.34,1.054-1.02,1.292v0.017c0.671,0.128,1.207,0.629,1.215,1.377c0,0.936-0.782,1.675-2.15,1.675
				c-0.671,0-1.25-0.188-1.547-0.383L11.715,19.504z"/>
			<path fill="#FFFFFF" d="M19.471,15.926h-2.125l-0.162,1.104c0.119-0.017,0.229-0.025,0.391-0.025c0.484,0,0.978,0.11,1.343,0.357
				c0.417,0.263,0.723,0.73,0.723,1.402c0,1.054-0.875,1.912-2.227,1.912c-0.646,0-1.181-0.162-1.47-0.323l0.212-0.79
				c0.238,0.127,0.714,0.289,1.215,0.289c0.612,0,1.199-0.349,1.199-1.003c0-0.638-0.468-1.055-1.564-1.055
				c-0.314,0-0.544,0.025-0.756,0.052l0.357-2.788h2.864V15.926z"/>
		</g>
	</g>
</g>
</svg>
