<?xml version="1.0" encoding="utf-8"?>
<!-- Generator: Adobe Illustrator 16.0.3, SVG Export Plug-In . SVG Version: 6.00 Build 0)  -->
<!DOCTYPE svg PUBLIC "-//W3C//DTD SVG 1.1//EN" "http://www.w3.org/Graphics/SVG/1.1/DTD/svg11.dtd">
<svg version="1.1" xmlns="http://www.w3.org/2000/svg" xmlns:xlink="http://www.w3.org/1999/xlink" x="0px" y="0px" width="22.68px"
	 height="22.68px" viewBox="0 0 22.68 22.68" enable-background="new 0 0 22.68 22.68" xml:space="preserve">
<g id="BCGRND">
</g>
<g id="IKONY">
	<g>
		<g>
			<polygon fill="#585857" points="22.678,16.335 22.678,0 0,0 0,22.678 14.117,22.678 22.678,22.678 			"/>
		</g>
		<g>
			<rect y="11.956" fill="#FFFFFF" width="22.678" height="0.889"/>
		</g>
		<g>
			<g>
				<path fill="#FFFFFF" d="M6.011,5.287L4.947,1.996h0.654L6.05,3.49c0.127,0.415,0.234,0.801,0.322,1.201h0.01
					C6.47,4.3,6.587,3.9,6.719,3.5l0.479-1.504h0.64L6.7,5.287H6.011z"/>
				<path fill="#FFFFFF" d="M8.647,2.909l0.43,1.274C9.125,4.33,9.174,4.51,9.208,4.647h0.015C9.262,4.51,9.306,4.334,9.35,4.178
					l0.371-1.27h0.645L9.77,4.53C9.443,5.418,9.223,5.814,8.94,6.058c-0.234,0.21-0.479,0.288-0.63,0.308L8.173,5.858
					C8.276,5.833,8.403,5.78,8.525,5.692c0.112-0.073,0.244-0.215,0.327-0.376c0.024-0.044,0.039-0.078,0.039-0.107
					c0-0.024-0.005-0.059-0.034-0.117L7.988,2.909H8.647z M9.965,1.878L9.365,2.601H8.95l0.425-0.723H9.965z"/>
				<path fill="#FFFFFF" d="M10.774,4.735c0.137,0.083,0.396,0.171,0.61,0.171c0.264,0,0.381-0.107,0.381-0.264
					c0-0.161-0.098-0.244-0.391-0.347c-0.464-0.161-0.659-0.415-0.654-0.693c0-0.42,0.347-0.747,0.898-0.747
					c0.264,0,0.493,0.068,0.63,0.142l-0.117,0.425c-0.103-0.059-0.293-0.137-0.503-0.137c-0.215,0-0.332,0.103-0.332,0.249
					c0,0.151,0.112,0.225,0.415,0.332c0.43,0.156,0.63,0.376,0.635,0.728c0,0.43-0.337,0.742-0.967,0.742
					c-0.288,0-0.547-0.068-0.723-0.166L10.774,4.735z M11.312,2.601l-0.479-0.723h0.415l0.264,0.444h0.01l0.269-0.444h0.41
					l-0.474,0.723H11.312z"/>
				<path fill="#FFFFFF" d="M13.589,3.954h0.01c0.059-0.093,0.127-0.195,0.19-0.278l0.576-0.767h0.723L14.209,3.88l1.006,1.406
					h-0.737l-0.684-1.05l-0.205,0.239v0.811h-0.601V1.82h0.601V3.954z"/>
				<path fill="#FFFFFF" d="M17.016,5.287l-0.039-0.264h-0.015c-0.146,0.186-0.396,0.317-0.703,0.317
					c-0.479,0-0.747-0.347-0.747-0.708c0-0.601,0.532-0.903,1.411-0.898V3.695c0-0.156-0.063-0.415-0.483-0.415
					c-0.234,0-0.479,0.073-0.64,0.176l-0.117-0.391c0.176-0.107,0.483-0.21,0.859-0.21c0.762,0,0.981,0.483,0.981,1.001v0.859
					c0,0.215,0.01,0.425,0.034,0.571H17.016z M16.938,4.125c-0.425-0.01-0.83,0.083-0.83,0.444c0,0.234,0.151,0.342,0.342,0.342
					c0.239,0,0.415-0.156,0.469-0.327c0.015-0.044,0.02-0.093,0.02-0.132V4.125z"/>
				<path fill="#FFFFFF" d="M6.872,6.403C6.559,6.867,6.32,7.511,6.32,8.39c0,0.864,0.244,1.504,0.552,1.973H6.432
					C6.154,9.972,5.841,9.337,5.841,8.39c0.005-0.952,0.313-1.592,0.591-1.987H6.872z"/>
				<path fill="#FFFFFF" d="M7.479,8.117c0-0.273-0.005-0.503-0.02-0.708h0.518L8.001,7.76h0.015
					c0.117-0.186,0.332-0.405,0.732-0.405c0.313,0,0.557,0.176,0.659,0.439h0.01C9.5,7.663,9.598,7.565,9.71,7.497
					c0.132-0.093,0.283-0.142,0.479-0.142c0.396,0,0.796,0.269,0.796,1.03v1.401h-0.586V8.473c0-0.396-0.137-0.63-0.425-0.63
					c-0.205,0-0.356,0.146-0.42,0.317c-0.015,0.059-0.029,0.132-0.029,0.2v1.426H8.939V8.41c0-0.332-0.132-0.566-0.41-0.566
					c-0.225,0-0.376,0.176-0.43,0.342C8.075,8.244,8.065,8.312,8.065,8.38v1.406H7.479V8.117z"/>
				<path fill="#FFFFFF" d="M11.771,8.117c0-0.273-0.005-0.503-0.02-0.708h0.518l0.024,0.352h0.015
					c0.117-0.186,0.332-0.405,0.732-0.405c0.313,0,0.557,0.176,0.659,0.439h0.01c0.083-0.132,0.181-0.229,0.293-0.298
					c0.132-0.093,0.283-0.142,0.479-0.142c0.396,0,0.796,0.269,0.796,1.03v1.401h-0.586V8.473c0-0.396-0.137-0.63-0.425-0.63
					c-0.205,0-0.356,0.146-0.42,0.317c-0.015,0.059-0.029,0.132-0.029,0.2v1.426h-0.586V8.41c0-0.332-0.132-0.566-0.41-0.566
					c-0.225,0-0.376,0.176-0.43,0.342c-0.024,0.059-0.034,0.127-0.034,0.195v1.406h-0.586V8.117z"/>
				<path fill="#FFFFFF" d="M15.878,10.363c0.308-0.464,0.547-1.113,0.547-1.982s-0.239-1.509-0.547-1.978h0.435
					c0.283,0.391,0.596,1.025,0.596,1.982c-0.005,0.952-0.313,1.582-0.596,1.978H15.878z"/>
			</g>
		</g>
		<g>
			<path fill="#FFFFFF" d="M4.766,19.164c0-0.689,0.399-1.156,1.037-1.438v-0.025c-0.578-0.281-0.841-0.74-0.841-1.225
				c0-0.9,0.799-1.512,1.844-1.512c1.19,0,1.734,0.713,1.734,1.395c0,0.467-0.247,0.951-0.85,1.248v0.025
				c0.603,0.23,1.054,0.705,1.054,1.395c0,0.986-0.833,1.648-2.014,1.648C5.438,20.676,4.766,19.938,4.766,19.164z M7.681,19.111
				c0-0.561-0.417-0.865-1.028-1.035c-0.519,0.152-0.816,0.51-0.816,0.969c-0.017,0.467,0.34,0.893,0.926,0.893
				C7.316,19.938,7.681,19.588,7.681,19.111z M5.956,16.436c0,0.449,0.374,0.723,0.901,0.867c0.374-0.111,0.688-0.418,0.688-0.834
				c0-0.383-0.229-0.781-0.791-0.781C6.228,15.688,5.956,16.035,5.956,16.436z"/>
			<path fill="#FFFFFF" d="M9.385,20.582v-0.637l0.655-0.604c1.3-1.207,1.912-1.869,1.921-2.602c0-0.492-0.264-0.926-0.986-0.926
				c-0.484,0-0.901,0.246-1.181,0.459l-0.306-0.74c0.399-0.322,1.003-0.568,1.7-0.568c1.224,0,1.819,0.773,1.819,1.674
				c0,0.969-0.697,1.752-1.658,2.643l-0.484,0.418v0.016h2.27v0.867H9.385z"/>
			<path fill="#FFFFFF" d="M17.874,17.787c0,1.775-0.697,2.889-2.014,2.889c-1.275,0-1.955-1.156-1.963-2.838
				c0-1.717,0.731-2.873,2.023-2.873C17.253,14.965,17.874,16.154,17.874,17.787z M14.95,17.838
				c-0.008,1.342,0.366,2.039,0.943,2.039c0.612,0,0.935-0.748,0.935-2.074c0-1.283-0.306-2.039-0.935-2.039
				C15.332,15.764,14.941,16.451,14.95,17.838z"/>
		</g>
	</g>
</g>
</svg>
