<?xml version="1.0" encoding="utf-8"?>
<!-- Generator: Adobe Illustrator 16.0.3, SVG Export Plug-In . SVG Version: 6.00 Build 0)  -->
<!DOCTYPE svg PUBLIC "-//W3C//DTD SVG 1.1//EN" "http://www.w3.org/Graphics/SVG/1.1/DTD/svg11.dtd">
<svg version="1.1" xmlns="http://www.w3.org/2000/svg" xmlns:xlink="http://www.w3.org/1999/xlink" x="0px" y="0px" width="22.68px"
	 height="22.68px" viewBox="0 0 22.68 22.68" enable-background="new 0 0 22.68 22.68" xml:space="preserve">
<g id="BCGRND">
</g>
<g id="IKONY">
	<rect fill="#585857" width="22.676" height="22.678"/>
	<g>
		<g>
			<rect x="0.001" y="11.956" fill="#FFFFFF" width="22.678" height="0.889"/>
		</g>
		<g>
			<g>
				<path fill="#FFFFFF" d="M6.013,5.286L4.948,1.995h0.654l0.449,1.494C6.179,3.904,6.286,4.29,6.374,4.69h0.01
					c0.088-0.391,0.205-0.791,0.337-1.191l0.479-1.504h0.64L6.701,5.286H6.013z"/>
				<path fill="#FFFFFF" d="M8.648,2.908l0.43,1.274C9.127,4.329,9.176,4.509,9.21,4.646h0.015c0.039-0.137,0.083-0.313,0.127-0.469
					l0.371-1.27h0.645L9.771,4.529c-0.327,0.889-0.547,1.284-0.83,1.528c-0.234,0.21-0.479,0.288-0.63,0.308L8.175,5.857
					c0.103-0.024,0.229-0.078,0.352-0.166c0.112-0.073,0.244-0.215,0.327-0.376c0.024-0.044,0.039-0.078,0.039-0.107
					c0-0.024-0.005-0.059-0.034-0.117L7.989,2.908H8.648z M9.967,1.877L9.366,2.6H8.951l0.425-0.723H9.967z"/>
				<path fill="#FFFFFF" d="M10.776,4.734c0.137,0.083,0.396,0.171,0.61,0.171c0.264,0,0.381-0.107,0.381-0.264
					c0-0.161-0.098-0.244-0.391-0.347c-0.464-0.161-0.659-0.415-0.654-0.693c0-0.42,0.347-0.747,0.898-0.747
					c0.264,0,0.493,0.068,0.63,0.142L12.133,3.42c-0.103-0.059-0.293-0.137-0.503-0.137c-0.215,0-0.332,0.103-0.332,0.249
					c0,0.151,0.112,0.225,0.415,0.332c0.43,0.156,0.63,0.376,0.635,0.728c0,0.43-0.337,0.742-0.967,0.742
					c-0.288,0-0.547-0.068-0.723-0.166L10.776,4.734z M11.313,2.6l-0.479-0.723h0.415l0.264,0.444h0.01l0.269-0.444h0.41L11.728,2.6
					H11.313z"/>
				<path fill="#FFFFFF" d="M13.591,3.953h0.01c0.059-0.093,0.127-0.195,0.19-0.278l0.576-0.767h0.723l-0.879,0.972l1.006,1.406
					h-0.737l-0.684-1.05l-0.205,0.239v0.811H12.99V1.819h0.601V3.953z"/>
				<path fill="#FFFFFF" d="M17.017,5.286l-0.039-0.264h-0.015c-0.146,0.186-0.396,0.317-0.703,0.317
					c-0.479,0-0.747-0.347-0.747-0.708c0-0.601,0.532-0.903,1.411-0.898V3.694c0-0.156-0.063-0.415-0.483-0.415
					c-0.234,0-0.479,0.073-0.64,0.176l-0.117-0.391c0.176-0.107,0.483-0.21,0.859-0.21c0.762,0,0.981,0.483,0.981,1.001v0.859
					c0,0.215,0.01,0.425,0.034,0.571H17.017z M16.939,4.124c-0.425-0.01-0.83,0.083-0.83,0.444c0,0.234,0.151,0.342,0.342,0.342
					c0.239,0,0.415-0.156,0.469-0.327c0.015-0.044,0.02-0.093,0.02-0.132V4.124z"/>
				<path fill="#FFFFFF" d="M6.873,6.402C6.561,6.866,6.321,7.51,6.321,8.389c0,0.864,0.244,1.504,0.552,1.973H6.434
					C6.155,9.971,5.843,9.336,5.843,8.389c0.005-0.952,0.313-1.592,0.591-1.987H6.873z"/>
				<path fill="#FFFFFF" d="M7.48,8.116c0-0.273-0.005-0.503-0.02-0.708h0.518l0.024,0.352h0.015C8.135,7.574,8.35,7.354,8.75,7.354
					c0.313,0,0.557,0.176,0.659,0.439h0.01C9.502,7.662,9.6,7.564,9.712,7.496c0.132-0.093,0.283-0.142,0.479-0.142
					c0.396,0,0.796,0.269,0.796,1.03v1.401H10.4V8.472c0-0.396-0.137-0.63-0.425-0.63c-0.205,0-0.356,0.146-0.42,0.317
					c-0.015,0.059-0.029,0.132-0.029,0.2v1.426H8.94V8.409c0-0.332-0.132-0.566-0.41-0.566c-0.225,0-0.376,0.176-0.43,0.342
					C8.076,8.243,8.066,8.311,8.066,8.379v1.406H7.48V8.116z"/>
				<path fill="#FFFFFF" d="M11.773,8.116c0-0.273-0.005-0.503-0.02-0.708h0.518l0.024,0.352h0.015
					c0.117-0.186,0.332-0.405,0.732-0.405c0.313,0,0.557,0.176,0.659,0.439h0.01c0.083-0.132,0.181-0.229,0.293-0.298
					c0.132-0.093,0.283-0.142,0.479-0.142c0.396,0,0.796,0.269,0.796,1.03v1.401h-0.586V8.472c0-0.396-0.137-0.63-0.425-0.63
					c-0.205,0-0.356,0.146-0.42,0.317c-0.015,0.059-0.029,0.132-0.029,0.2v1.426h-0.586V8.409c0-0.332-0.132-0.566-0.41-0.566
					c-0.225,0-0.376,0.176-0.43,0.342c-0.024,0.059-0.034,0.127-0.034,0.195v1.406h-0.586V8.116z"/>
				<path fill="#FFFFFF" d="M15.88,10.362c0.308-0.464,0.547-1.113,0.547-1.982s-0.239-1.509-0.547-1.978h0.435
					c0.283,0.391,0.596,1.025,0.596,1.982c-0.005,0.952-0.313,1.582-0.596,1.978H15.88z"/>
			</g>
		</g>
		<g>
			<path fill="#FFFFFF" d="M4.509,16H4.492l-1.011,0.51l-0.179-0.789l1.343-0.664h0.875v5.525H4.509V16z"/>
			<path fill="#FFFFFF" d="M9.316,20.582V19.18H6.817V18.5l2.252-3.443h1.232v3.332h0.714v0.791h-0.714v1.402H9.316z M9.316,18.389
				v-1.504c0-0.314,0.008-0.639,0.034-0.961H9.316c-0.17,0.35-0.314,0.629-0.485,0.936L7.82,18.371l-0.008,0.018H9.316z"/>
			<path fill="#FFFFFF" d="M14.1,20.582V19.18h-2.499V18.5l2.252-3.443h1.232v3.332h0.714v0.791h-0.714v1.402H14.1z M14.1,18.389
				v-1.504c0-0.314,0.008-0.639,0.034-0.961H14.1c-0.17,0.35-0.314,0.629-0.485,0.936l-1.011,1.512l-0.008,0.018H14.1z"/>
			<path fill="#FFFFFF" d="M17.589,16h-0.017l-1.011,0.51l-0.179-0.789l1.343-0.664H18.6v5.525h-1.011V16z"/>
		</g>
	</g>
</g>
</svg>
