<?xml version="1.0" encoding="utf-8"?>
<!-- Generator: Adobe Illustrator 16.0.3, SVG Export Plug-In . SVG Version: 6.00 Build 0)  -->
<!DOCTYPE svg PUBLIC "-//W3C//DTD SVG 1.1//EN" "http://www.w3.org/Graphics/SVG/1.1/DTD/svg11.dtd">
<svg version="1.1" xmlns="http://www.w3.org/2000/svg" xmlns:xlink="http://www.w3.org/1999/xlink" x="0px" y="0px" width="22.68px"
	 height="22.68px" viewBox="0 0 22.68 22.68" enable-background="new 0 0 22.68 22.68" xml:space="preserve">
<g id="BCGRND" display="none">
</g>
<g id="IKONY">
	<rect fill="#585857" width="22.676" height="22.678"/>
	<g>
		<g>
			<g>
				<rect y="7.769" fill="#FFFFFF" width="22.678" height="0.889"/>
			</g>
			<g>
				<g>
					<path fill="#FFFFFF" d="M3.531,5.57L2.727,2.279h0.639l0.313,1.494c0.084,0.4,0.162,0.82,0.215,1.147h0.01
						c0.055-0.347,0.146-0.737,0.24-1.152l0.355-1.489h0.631l0.326,1.514C5.539,4.184,5.607,4.55,5.656,4.906h0.01
						c0.059-0.361,0.137-0.737,0.225-1.138l0.342-1.489h0.609L5.959,5.57H5.314L4.973,4.022C4.889,3.646,4.83,3.334,4.791,2.978
						h-0.01C4.723,3.329,4.66,3.646,4.563,4.022L4.182,5.57H3.531z"/>
				</g>
				<g>
					<path fill="#FFFFFF" d="M7.707,2.528c0,0.181-0.132,0.322-0.342,0.322c-0.2,0-0.332-0.142-0.332-0.322
						c0-0.186,0.137-0.327,0.337-0.327C7.575,2.201,7.702,2.343,7.707,2.528z M7.067,5.57V3.192h0.605V5.57H7.067z"/>
				</g>
				<g>
					<path fill="#FFFFFF" d="M8.338,5.57V3.642H8.016V3.192h0.322V3.08c0-0.64,0.445-1.03,1.152-1.03
						c0.234,0,0.518,0.063,0.654,0.151l-0.131,0.454C9.9,2.592,9.715,2.528,9.49,2.528c-0.42,0-0.557,0.254-0.557,0.566v0.098h1.422
						V5.57H9.75V3.642H8.939V5.57H8.338z"/>
				</g>
				<g>
					<path fill="#FFFFFF" d="M12.957,2.973v1.104h1.059v0.381h-1.059V5.57h-0.4V4.457h-1.061V4.076h1.061V2.973H12.957z"/>
				</g>
				<g>
					<path fill="#FFFFFF" d="M15.183,2.323c0.19-0.039,0.537-0.068,0.874-0.068c0.444,0,0.718,0.054,0.942,0.21
						c0.205,0.122,0.342,0.337,0.342,0.615c0,0.303-0.19,0.581-0.547,0.713v0.01c0.347,0.088,0.664,0.361,0.664,0.815
						c0,0.293-0.127,0.522-0.317,0.679c-0.234,0.205-0.62,0.308-1.221,0.308c-0.332,0-0.586-0.024-0.737-0.044V2.323z M15.778,3.622
						h0.308c0.415,0,0.649-0.195,0.649-0.474c0-0.308-0.234-0.449-0.615-0.449c-0.176,0-0.278,0.01-0.342,0.024V3.622z
						 M15.778,5.136c0.078,0.01,0.181,0.015,0.317,0.015c0.386,0,0.728-0.146,0.728-0.552c0-0.381-0.332-0.537-0.747-0.537h-0.298
						V5.136z"/>
				</g>
				<g>
					<path fill="#FFFFFF" d="M18.512,2.782h-0.938V2.279h2.484v0.503h-0.947V5.57h-0.6V2.782z"/>
				</g>
			</g>
		</g>
		<g>
			<g>
				<g>
					<path fill="#FFFFFF" d="M17.296,15.723c-0.049,0-0.097-0.01-0.144-0.027c-0.14-0.059-0.231-0.195-0.231-0.348V10.75
						c0-0.151,0.092-0.288,0.231-0.347c0.14-0.057,0.301-0.026,0.409,0.081l2.299,2.298c0.146,0.146,0.146,0.385,0,0.531
						l-2.299,2.299C17.489,15.686,17.394,15.723,17.296,15.723z M17.671,11.656v2.788l1.394-1.395L17.671,11.656z"/>
				</g>
			</g>
			<g>
				<g>
					<path fill="#FFFFFF" d="M17.296,15.723c-0.096,0-0.191-0.035-0.265-0.109l-2.649-2.648c-0.146-0.146-0.147-0.383-0.001-0.529
						s0.384-0.148,0.53-0.002l2.649,2.648c0.146,0.146,0.147,0.385,0.001,0.531C17.488,15.686,17.392,15.723,17.296,15.723z"/>
				</g>
			</g>
			<g>
				<g>
					<path fill="#FFFFFF" d="M14.646,18.371c-0.096,0-0.192-0.037-0.266-0.109c-0.146-0.146-0.146-0.385,0.001-0.531l2.649-2.648
						c0.145-0.146,0.384-0.145,0.53,0.002s0.146,0.383-0.001,0.529l-2.649,2.648C14.839,18.336,14.742,18.371,14.646,18.371z"/>
				</g>
			</g>
			<g>
				<g>
					<path fill="#FFFFFF" d="M17.296,20.318c-0.049,0-0.097-0.01-0.144-0.027c-0.14-0.059-0.231-0.195-0.231-0.348v-4.596
						c0-0.15,0.092-0.287,0.231-0.346c0.14-0.057,0.301-0.027,0.409,0.08l2.299,2.299c0.07,0.072,0.109,0.166,0.109,0.266
						s-0.04,0.195-0.11,0.266l-2.299,2.297C17.489,20.281,17.394,20.318,17.296,20.318z M17.671,16.254v2.785l1.394-1.393
						L17.671,16.254z"/>
				</g>
			</g>
		</g>
		<g>
			<g>
				<path fill="#FFFFFF" d="M12.023,14.086v1.104h1.059v0.381h-1.059v1.113h-0.4V15.57h-1.061v-0.381h1.061v-1.104H12.023z"/>
			</g>
		</g>
		<g>
			<g>
				<path fill="#FFFFFF" d="M6.113,17.563c-0.168-0.148-0.382-0.246-0.623-0.246c-0.24,0-0.454,0.098-0.621,0.246
					c-0.194,0.174-0.323,0.42-0.323,0.701c0,0.523,0.423,0.945,0.944,0.945c0.523,0,0.947-0.422,0.947-0.945
					C6.438,17.982,6.309,17.736,6.113,17.563z"/>
			</g>
			<g>
				<path fill="#FFFFFF" d="M7.1,16.516c-0.069,0-0.14-0.02-0.203-0.059c-0.853-0.551-1.965-0.547-2.812-0.002
					c-0.176,0.111-0.407,0.061-0.519-0.113c-0.112-0.174-0.062-0.406,0.112-0.518c1.089-0.701,2.526-0.703,3.624,0.002
					c0.174,0.111,0.225,0.344,0.112,0.518C7.344,16.455,7.223,16.516,7.1,16.516z"/>
			</g>
			<g>
				<path fill="#FFFFFF" d="M9.305,13.41c-0.085,0-0.17-0.027-0.24-0.086c-2.002-1.667-5.145-1.667-7.148-0.002
					c-0.157,0.131-0.395,0.111-0.527-0.049s-0.111-0.396,0.049-0.527c1.136-0.945,2.575-1.464,4.053-1.464
					c1.479,0,2.918,0.521,4.055,1.466c0.159,0.131,0.181,0.369,0.048,0.527C9.519,13.365,9.412,13.41,9.305,13.41z"/>
			</g>
			<g>
				<path fill="#FFFFFF" d="M2.783,14.967c-0.112,0-0.225-0.051-0.298-0.146c-0.126-0.166-0.094-0.4,0.07-0.525
					c1.731-1.322,4.143-1.32,5.87,0c0.165,0.125,0.196,0.359,0.07,0.525c-0.125,0.164-0.361,0.193-0.525,0.07
					c-1.463-1.117-3.491-1.119-4.96,0C2.942,14.941,2.862,14.967,2.783,14.967z"/>
			</g>
		</g>
	</g>
</g>
</svg>
