<?xml version="1.0" encoding="utf-8"?>
<!-- Generator: Adobe Illustrator 16.0.3, SVG Export Plug-In . SVG Version: 6.00 Build 0)  -->
<!DOCTYPE svg PUBLIC "-//W3C//DTD SVG 1.1//EN" "http://www.w3.org/Graphics/SVG/1.1/DTD/svg11.dtd">
<svg version="1.1" xmlns="http://www.w3.org/2000/svg" xmlns:xlink="http://www.w3.org/1999/xlink" x="0px" y="0px" width="22.68px"
	 height="22.68px" viewBox="0 0 22.68 22.68" enable-background="new 0 0 22.68 22.68" xml:space="preserve">
<g id="BCGRND" display="none">
</g>
<g id="IKONY">
	<rect x="0" fill="#585857" width="22.678" height="22.677"/>
	<g>
		<g>
			<g>
				<g opacity="0.5">
					<g>
						<path fill="#FFFFFF" d="M15.321,7.892c-2.567-1.072-3.534,0.021-3.944,0.021c-0.409,0-1.376-1.093-3.943-0.021
							c-1.366,0.57-2.912,1.42-4.456,2.672c2.323,2.229,4.2,4.003,8.399,4.003s6.076-1.774,8.4-4.003
							C18.232,9.312,16.686,8.461,15.321,7.892z"/>
					</g>
				</g>
				<g>
					<path fill="#FFFFFF" d="M11.377,15.067c-4.429,0-6.429-1.919-8.745-4.142l-0.409-0.392l0.439-0.357
						C4.07,9.034,5.61,8.11,7.241,7.43c0.81-0.338,1.564-0.509,2.243-0.509c0.837,0,1.396,0.256,1.73,0.41
						c0.082,0.038,0.147,0.073,0.203,0.086c-0.026-0.014,0.04-0.049,0.122-0.086c0.335-0.153,0.894-0.41,1.73-0.41
						c0.679,0,1.434,0.171,2.243,0.509c1.63,0.68,3.171,1.604,4.578,2.746l0.44,0.357l-0.409,0.392
						C17.805,13.147,15.804,15.067,11.377,15.067z M3.739,10.601c2.064,1.967,3.862,3.466,7.638,3.466
						c3.774,0,5.573-1.499,7.639-3.466c-1.211-0.92-2.516-1.676-3.887-2.248c-0.688-0.287-1.313-0.432-1.858-0.432
						c-0.618,0-1.021,0.184-1.313,0.318c-0.406,0.187-0.753,0.187-1.159,0c-0.294-0.134-0.695-0.318-1.313-0.318
						c-0.546,0-1.171,0.146-1.858,0.432C6.254,8.925,4.949,9.68,3.739,10.601z"/>
				</g>
			</g>
			<g>
				<path fill="#FFFFFF" d="M6.515,10.528c0,0,2.188-0.485,4.889-0.485c2.699,0,4.888,0.485,4.888,0.485s-2.188,0.782-4.888,0.782
					C8.704,11.31,6.515,10.528,6.515,10.528z"/>
			</g>
		</g>
	</g>
</g>
</svg>
