<?xml version="1.0" encoding="utf-8"?>
<!-- Generator: Adobe Illustrator 16.0.3, SVG Export Plug-In . SVG Version: 6.00 Build 0)  -->
<!DOCTYPE svg PUBLIC "-//W3C//DTD SVG 1.1//EN" "http://www.w3.org/Graphics/SVG/1.1/DTD/svg11.dtd">
<svg version="1.1" xmlns="http://www.w3.org/2000/svg" xmlns:xlink="http://www.w3.org/1999/xlink" x="0px" y="0px" width="22.68px"
	 height="22.68px" viewBox="0 0 22.68 22.68" enable-background="new 0 0 22.68 22.68" xml:space="preserve">
<g id="BCGRND">
</g>
<g id="BAREVNE_BCGRND">
	<polygon fill="#585857" points="22.679,16.336 22.679,0.001 0.001,0.001 0.001,22.679 14.118,22.679 22.679,22.679 	"/>
</g>
<g id="IKONY">
	<g>
		<line fill="none" stroke="#FFFFFF" stroke-width="0.8889" stroke-miterlimit="10" x1="0" y1="12.4" x2="22.678" y2="12.4"/>
		<g>
			<g>
				<path fill="#FFFFFF" d="M3.98,4.955l1.685-2.446V2.494H4.132V1.996h2.314v0.352L4.786,4.77v0.02h1.685v0.498H3.98V4.955z"/>
				<path fill="#FFFFFF" d="M8.33,5.287L8.291,5.023H8.276C8.129,5.209,7.88,5.341,7.573,5.341c-0.479,0-0.747-0.347-0.747-0.708
					c0-0.601,0.532-0.903,1.411-0.898V3.695c0-0.156-0.063-0.415-0.483-0.415c-0.234,0-0.479,0.073-0.64,0.176L6.997,3.065
					c0.176-0.107,0.483-0.21,0.859-0.21c0.762,0,0.981,0.483,0.981,1.001v0.859c0,0.215,0.01,0.425,0.034,0.571H8.33z M8.251,4.125
					c-0.425-0.01-0.83,0.083-0.83,0.444c0,0.234,0.151,0.342,0.342,0.342c0.239,0,0.415-0.156,0.469-0.327
					c0.015-0.044,0.02-0.093,0.02-0.132V4.125z M8.623,1.879L8.022,2.602H7.607l0.425-0.723H8.623z"/>
				<path fill="#FFFFFF" d="M9.524,3.676c0-0.322-0.005-0.552-0.02-0.767h0.522l0.02,0.454h0.02
					c0.117-0.337,0.396-0.508,0.649-0.508c0.059,0,0.093,0.005,0.142,0.015v0.566c-0.049-0.01-0.103-0.02-0.176-0.02
					c-0.288,0-0.483,0.186-0.537,0.454c-0.01,0.054-0.02,0.117-0.02,0.186v1.23H9.524V3.676z"/>
				<path fill="#FFFFFF" d="M13.442,4.574c0,0.283,0.01,0.518,0.02,0.713h-0.527l-0.029-0.361h-0.01
					c-0.103,0.171-0.337,0.415-0.762,0.415c-0.435,0-0.83-0.259-0.83-1.035V2.909h0.601v1.294c0,0.396,0.127,0.649,0.444,0.649
					c0.239,0,0.396-0.171,0.459-0.322c0.02-0.054,0.034-0.117,0.034-0.186V2.909h0.601V4.574z"/>
				<path fill="#FFFFFF" d="M14.745,3.954h0.01c0.059-0.093,0.127-0.195,0.19-0.278l0.576-0.767h0.723l-0.879,0.972l1.006,1.406
					h-0.737l-0.684-1.05l-0.205,0.239v0.811h-0.601V1.82h0.601V3.954z"/>
				<path fill="#FFFFFF" d="M18.073,5.287l-0.039-0.264h-0.015c-0.146,0.186-0.396,0.317-0.703,0.317
					c-0.479,0-0.747-0.347-0.747-0.708c0-0.601,0.532-0.903,1.411-0.898V3.695c0-0.156-0.063-0.415-0.483-0.415
					c-0.234,0-0.479,0.073-0.64,0.176L16.74,3.065c0.176-0.107,0.483-0.21,0.859-0.21c0.762,0,0.981,0.483,0.981,1.001v0.859
					c0,0.215,0.01,0.425,0.034,0.571H18.073z M17.995,4.125c-0.425-0.01-0.83,0.083-0.83,0.444c0,0.234,0.151,0.342,0.342,0.342
					c0.239,0,0.415-0.156,0.469-0.327c0.015-0.044,0.02-0.093,0.02-0.132V4.125z"/>
				<path fill="#FFFFFF" d="M1.836,8.117c0-0.273-0.005-0.503-0.02-0.708h0.527l0.029,0.356h0.015
					c0.103-0.186,0.361-0.41,0.757-0.41c0.415,0,0.845,0.269,0.845,1.021v1.411H3.389V8.444c0-0.342-0.127-0.601-0.454-0.601
					c-0.239,0-0.405,0.171-0.469,0.352c-0.02,0.054-0.024,0.127-0.024,0.195v1.396H1.836V8.117z"/>
				<path fill="#FFFFFF" d="M6.02,9.787L5.98,9.523H5.966C5.819,9.709,5.57,9.841,5.263,9.841c-0.479,0-0.747-0.347-0.747-0.708
					c0-0.601,0.532-0.903,1.411-0.898V8.195c0-0.156-0.063-0.415-0.483-0.415c-0.234,0-0.479,0.073-0.64,0.176L4.687,7.565
					c0.176-0.107,0.483-0.21,0.859-0.21c0.762,0,0.981,0.483,0.981,1.001v0.859c0,0.215,0.01,0.425,0.034,0.571H6.02z M5.941,8.625
					c-0.425-0.01-0.83,0.083-0.83,0.444c0,0.234,0.151,0.342,0.342,0.342c0.239,0,0.415-0.156,0.469-0.327
					c0.015-0.044,0.02-0.093,0.02-0.132V8.625z"/>
				<path fill="#FFFFFF" d="M8.274,8.117c0-0.273-0.005-0.503-0.02-0.708h0.518l0.024,0.352h0.015
					c0.117-0.186,0.332-0.405,0.732-0.405c0.313,0,0.557,0.176,0.659,0.439h0.01c0.083-0.132,0.181-0.229,0.293-0.298
					c0.132-0.093,0.283-0.142,0.479-0.142c0.396,0,0.796,0.269,0.796,1.03v1.401h-0.586V8.474c0-0.396-0.137-0.63-0.425-0.63
					c-0.205,0-0.356,0.146-0.42,0.317c-0.015,0.059-0.029,0.132-0.029,0.2v1.426H9.734V8.41c0-0.332-0.132-0.566-0.41-0.566
					c-0.225,0-0.376,0.176-0.43,0.342C8.87,8.244,8.86,8.313,8.86,8.381v1.406H8.274V8.117z"/>
				<path fill="#FFFFFF" d="M14.73,8.576c0,0.874-0.615,1.265-1.221,1.265c-0.674,0-1.191-0.464-1.191-1.226
					c0-0.781,0.513-1.26,1.23-1.26C14.257,7.355,14.73,7.854,14.73,8.576z M12.938,8.601c0,0.459,0.225,0.806,0.591,0.806
					c0.342,0,0.581-0.337,0.581-0.815c0-0.371-0.166-0.796-0.576-0.796C13.109,7.795,12.938,8.205,12.938,8.601z"/>
				<path fill="#FFFFFF" d="M15.964,6.73v0.679h0.571v0.449h-0.571v1.05c0,0.288,0.078,0.439,0.308,0.439
					c0.103,0,0.181-0.015,0.234-0.029l0.01,0.459c-0.088,0.034-0.244,0.059-0.435,0.059c-0.22,0-0.405-0.073-0.518-0.195
					c-0.127-0.137-0.186-0.352-0.186-0.664V7.858h-0.342V7.409h0.342V6.872L15.964,6.73z"/>
				<path fill="#FFFFFF" d="M19.272,8.576c0,0.874-0.615,1.265-1.221,1.265c-0.674,0-1.191-0.464-1.191-1.226
					c0-0.781,0.513-1.26,1.23-1.26C18.798,7.355,19.272,7.854,19.272,8.576z M17.48,8.601c0,0.459,0.225,0.806,0.591,0.806
					c0.342,0,0.581-0.337,0.581-0.815c0-0.371-0.166-0.796-0.576-0.796C17.651,7.795,17.48,8.205,17.48,8.601z"/>
				<path fill="#FFFFFF" d="M19.817,8.176c0-0.322-0.005-0.552-0.02-0.767h0.522l0.02,0.454h0.02
					c0.117-0.337,0.396-0.508,0.649-0.508c0.059,0,0.093,0.005,0.142,0.015v0.566c-0.049-0.01-0.103-0.02-0.176-0.02
					c-0.288,0-0.483,0.186-0.537,0.454c-0.01,0.054-0.02,0.117-0.02,0.186v1.23h-0.601V8.176z"/>
			</g>
		</g>
		<g>
			<path fill="#FFFFFF" d="M3.629,16.002H3.612l-1.011,0.51l-0.179-0.79l1.343-0.663h0.875v5.524H3.629V16.002z"/>
			<path fill="#FFFFFF" d="M7.478,16.002H7.46l-1.011,0.51l-0.179-0.79l1.343-0.663h0.875v5.524H7.478V16.002z"/>
			<path fill="#FFFFFF" d="M11.838,14.549h1.054v6.034h-1.054V14.549z"/>
			<path fill="#FFFFFF" d="M14.842,18.807c0.025,0.748,0.612,1.071,1.275,1.071c0.484,0,0.833-0.068,1.147-0.188l0.153,0.723
				c-0.357,0.145-0.85,0.255-1.445,0.255c-1.343,0-2.133-0.824-2.133-2.091c0-1.147,0.697-2.227,2.023-2.227
				c1.343,0,1.785,1.104,1.785,2.014c0,0.196-0.017,0.349-0.034,0.442H14.842z M16.661,18.076c0.009-0.383-0.162-1.012-0.858-1.012
				c-0.646,0-0.918,0.586-0.96,1.012H16.661z"/>
			<path fill="#FFFFFF" d="M19.791,15.263v1.182h0.995v0.781h-0.995v1.827c0,0.502,0.136,0.766,0.536,0.766
				c0.178,0,0.314-0.025,0.408-0.051l0.017,0.799c-0.153,0.06-0.425,0.102-0.756,0.102c-0.382,0-0.706-0.128-0.901-0.34
				c-0.221-0.238-0.323-0.612-0.323-1.156v-1.946h-0.595v-0.781h0.595v-0.936L19.791,15.263z"/>
		</g>
	</g>
</g>
</svg>
