<?xml version="1.0" encoding="utf-8"?>
<!-- Generator: Adobe Illustrator 16.0.3, SVG Export Plug-In . SVG Version: 6.00 Build 0)  -->
<!DOCTYPE svg PUBLIC "-//W3C//DTD SVG 1.1//EN" "http://www.w3.org/Graphics/SVG/1.1/DTD/svg11.dtd">
<svg version="1.1" xmlns="http://www.w3.org/2000/svg" xmlns:xlink="http://www.w3.org/1999/xlink" x="0px" y="0px" width="22.68px"
	 height="22.68px" viewBox="0 0 22.68 22.68" enable-background="new 0 0 22.68 22.68" xml:space="preserve">
<g id="BCGRND">
</g>
<g id="BAREVNE_BCGRND">
	<polygon fill="#585857" points="22.679,16.336 22.679,0.001 0.001,0.001 0.001,22.679 14.118,22.679 22.679,22.679 	"/>
</g>
<g id="IKONY">
	<g>
		
			<line fill="none" stroke="#FFFFFF" stroke-width="0.8889" stroke-miterlimit="10" x1="0.001" y1="12.386" x2="22.679" y2="12.386"/>
		<g>
			<g>
				<path fill="#FFFFFF" d="M1.446,4.94L3.13,2.494V2.479H1.597V1.981h2.314v0.352l-1.66,2.422v0.02h1.685v0.498h-2.49V4.94z"/>
				<path fill="#FFFFFF" d="M5.624,5.272L5.585,5.009H5.57C5.424,5.194,5.175,5.326,4.867,5.326c-0.479,0-0.747-0.347-0.747-0.708
					c0-0.601,0.532-0.903,1.411-0.898V3.681c0-0.156-0.063-0.415-0.483-0.415c-0.234,0-0.479,0.073-0.64,0.176L4.291,3.051
					c0.176-0.107,0.483-0.21,0.859-0.21c0.762,0,0.981,0.483,0.981,1.001v0.859c0,0.215,0.01,0.425,0.034,0.571H5.624z M5.546,4.11
					c-0.425-0.01-0.83,0.083-0.83,0.444c0,0.234,0.151,0.342,0.342,0.342c0.239,0,0.415-0.156,0.469-0.327
					c0.015-0.044,0.02-0.093,0.02-0.132V4.11z M5.917,1.864L5.316,2.587H4.901l0.425-0.723H5.917z"/>
				<path fill="#FFFFFF" d="M6.647,3.661c0-0.322-0.005-0.552-0.02-0.767H7.15l0.02,0.454h0.02c0.117-0.337,0.396-0.508,0.649-0.508
					c0.059,0,0.093,0.005,0.142,0.015v0.566c-0.049-0.01-0.103-0.02-0.176-0.02c-0.288,0-0.483,0.186-0.537,0.454
					c-0.01,0.054-0.02,0.117-0.02,0.186v1.23H6.647V3.661z"/>
				<path fill="#FFFFFF" d="M10.394,4.56c0,0.283,0.01,0.518,0.02,0.713H9.886L9.857,4.911h-0.01
					C9.745,5.082,9.51,5.326,9.085,5.326c-0.435,0-0.83-0.259-0.83-1.035V2.895h0.601v1.294c0,0.396,0.127,0.649,0.444,0.649
					c0.239,0,0.396-0.171,0.459-0.322c0.02-0.054,0.034-0.117,0.034-0.186V2.895h0.601V4.56z"/>
				<path fill="#FFFFFF" d="M11.525,3.939h0.01c0.059-0.093,0.127-0.195,0.19-0.278l0.576-0.767h0.723l-0.879,0.972l1.006,1.406
					h-0.737l-0.684-1.05l-0.205,0.239v0.811h-0.601V1.806h0.601V3.939z"/>
				<path fill="#FFFFFF" d="M14.682,5.272l-0.039-0.264h-0.015c-0.146,0.186-0.396,0.317-0.703,0.317
					c-0.479,0-0.747-0.347-0.747-0.708c0-0.601,0.532-0.903,1.411-0.898V3.681c0-0.156-0.063-0.415-0.483-0.415
					c-0.234,0-0.479,0.073-0.64,0.176l-0.117-0.391c0.176-0.107,0.483-0.21,0.859-0.21c0.762,0,0.981,0.483,0.981,1.001v0.859
					c0,0.215,0.01,0.425,0.034,0.571H14.682z M14.604,4.11c-0.425-0.01-0.83,0.083-0.83,0.444c0,0.234,0.151,0.342,0.342,0.342
					c0.239,0,0.415-0.156,0.469-0.327c0.015-0.044,0.02-0.093,0.02-0.132V4.11z"/>
				<path fill="#FFFFFF" d="M16.595,3.603c0-0.273-0.005-0.503-0.02-0.708h0.527l0.029,0.356h0.015
					c0.103-0.186,0.361-0.41,0.757-0.41c0.415,0,0.845,0.269,0.845,1.021v1.411h-0.601V3.93c0-0.342-0.127-0.601-0.454-0.601
					c-0.239,0-0.405,0.171-0.469,0.352c-0.02,0.054-0.024,0.127-0.024,0.195v1.396h-0.605V3.603z"/>
				<path fill="#FFFFFF" d="M20.607,5.272l-0.039-0.264h-0.015c-0.146,0.186-0.396,0.317-0.703,0.317
					c-0.479,0-0.747-0.347-0.747-0.708c0-0.601,0.532-0.903,1.411-0.898V3.681c0-0.156-0.063-0.415-0.483-0.415
					c-0.234,0-0.479,0.073-0.64,0.176l-0.117-0.391c0.176-0.107,0.483-0.21,0.859-0.21c0.762,0,0.981,0.483,0.981,1.001v0.859
					c0,0.215,0.01,0.425,0.034,0.571H20.607z M20.529,4.11c-0.425-0.01-0.83,0.083-0.83,0.444c0,0.234,0.151,0.342,0.342,0.342
					c0.239,0,0.415-0.156,0.469-0.327c0.015-0.044,0.02-0.093,0.02-0.132V4.11z"/>
				<path fill="#FFFFFF" d="M1.301,8.439h0.01c0.059-0.093,0.127-0.195,0.19-0.278l0.576-0.767H2.8L1.921,8.366l1.006,1.406H2.189
					l-0.684-1.05L1.301,8.962v0.811H0.7V6.306h0.601V8.439z"/>
				<path fill="#FFFFFF" d="M5.293,8.562c0,0.874-0.615,1.265-1.221,1.265c-0.674,0-1.191-0.464-1.191-1.226
					c0-0.781,0.513-1.26,1.23-1.26C4.819,7.341,5.293,7.839,5.293,8.562z M3.501,8.586c0,0.459,0.225,0.806,0.591,0.806
					c0.342,0,0.581-0.337,0.581-0.815c0-0.371-0.166-0.796-0.576-0.796C3.672,7.78,3.501,8.19,3.501,8.586z"/>
				<path fill="#FFFFFF" d="M5.667,8.103c0-0.273-0.005-0.503-0.02-0.708h0.518l0.024,0.352h0.015
					c0.117-0.186,0.332-0.405,0.732-0.405c0.313,0,0.557,0.176,0.659,0.439h0.01c0.083-0.132,0.181-0.229,0.293-0.298
					C8.03,7.39,8.182,7.341,8.377,7.341c0.396,0,0.796,0.269,0.796,1.03v1.401H8.587V8.459c0-0.396-0.137-0.63-0.425-0.63
					c-0.205,0-0.356,0.146-0.42,0.317c-0.015,0.059-0.029,0.132-0.029,0.2v1.426H7.127V8.396c0-0.332-0.132-0.566-0.41-0.566
					c-0.225,0-0.376,0.176-0.43,0.342C6.263,8.229,6.253,8.298,6.253,8.366v1.406H5.667V8.103z"/>
				<path fill="#FFFFFF" d="M9.691,8.186c0-0.313-0.01-0.566-0.02-0.791h0.527l0.029,0.366h0.01c0.176-0.269,0.454-0.42,0.815-0.42
					c0.547,0,1.001,0.469,1.001,1.211c0,0.859-0.542,1.274-1.084,1.274c-0.298,0-0.547-0.127-0.669-0.317h-0.01v1.23H9.691V8.186z
					 M10.292,8.776c0,0.059,0.005,0.112,0.02,0.166c0.059,0.244,0.273,0.42,0.527,0.42c0.381,0,0.605-0.317,0.605-0.786
					c0-0.42-0.205-0.762-0.591-0.762c-0.249,0-0.479,0.181-0.537,0.444c-0.015,0.049-0.024,0.103-0.024,0.151V8.776z"/>
				<path fill="#FFFFFF" d="M12.429,8.161c0-0.322-0.005-0.552-0.02-0.767h0.522l0.02,0.454h0.02
					c0.117-0.337,0.396-0.508,0.649-0.508c0.059,0,0.093,0.005,0.142,0.015v0.566c-0.049-0.01-0.103-0.02-0.176-0.02
					c-0.288,0-0.483,0.186-0.537,0.454c-0.01,0.054-0.02,0.117-0.02,0.186v1.23h-0.601V8.161z"/>
				<path fill="#FFFFFF" d="M14.427,8.752c0.015,0.43,0.352,0.615,0.732,0.615c0.278,0,0.479-0.039,0.659-0.107l0.088,0.415
					c-0.205,0.083-0.488,0.146-0.83,0.146c-0.771,0-1.226-0.474-1.226-1.201c0-0.659,0.4-1.279,1.162-1.279
					c0.771,0,1.025,0.635,1.025,1.157c0,0.112-0.01,0.2-0.02,0.254H14.427z M15.472,8.332c0.005-0.22-0.093-0.581-0.493-0.581
					c-0.371,0-0.527,0.337-0.552,0.581H15.472z"/>
				<path fill="#FFFFFF" d="M16.374,9.221c0.137,0.083,0.396,0.171,0.61,0.171c0.264,0,0.381-0.107,0.381-0.264
					c0-0.161-0.098-0.244-0.391-0.347C16.51,8.62,16.315,8.366,16.32,8.088c0-0.42,0.347-0.747,0.898-0.747
					c0.264,0,0.493,0.068,0.63,0.142l-0.117,0.425c-0.103-0.059-0.293-0.137-0.503-0.137c-0.215,0-0.332,0.103-0.332,0.249
					c0,0.151,0.112,0.225,0.415,0.332c0.43,0.156,0.63,0.376,0.635,0.728c0,0.43-0.337,0.742-0.967,0.742
					c-0.288,0-0.547-0.068-0.723-0.166L16.374,9.221z"/>
				<path fill="#FFFFFF" d="M20.58,8.562c0,0.874-0.615,1.265-1.221,1.265c-0.674,0-1.191-0.464-1.191-1.226
					c0-0.781,0.513-1.26,1.23-1.26C20.106,7.341,20.58,7.839,20.58,8.562z M18.788,8.586c0,0.459,0.225,0.806,0.591,0.806
					c0.342,0,0.581-0.337,0.581-0.815c0-0.371-0.166-0.796-0.576-0.796C18.959,7.78,18.788,8.19,18.788,8.586z"/>
				<path fill="#FFFFFF" d="M20.954,8.161c0-0.322-0.005-0.552-0.02-0.767h0.522l0.02,0.454h0.02
					c0.117-0.337,0.396-0.508,0.649-0.508c0.059,0,0.093,0.005,0.142,0.015v0.566c-0.049-0.01-0.103-0.02-0.176-0.02
					c-0.288,0-0.483,0.186-0.537,0.454c-0.01,0.054-0.02,0.117-0.02,0.186v1.23h-0.601V8.161z"/>
			</g>
		</g>
		<g>
			<path fill="#FFFFFF" d="M3.63,15.987H3.613l-1.011,0.51l-0.179-0.79l1.343-0.663h0.875v5.524H3.63V15.987z"/>
			<path fill="#FFFFFF" d="M7.478,15.987H7.461l-1.011,0.51l-0.179-0.79l1.343-0.663h0.875v5.524H7.478V15.987z"/>
			<path fill="#FFFFFF" d="M11.838,14.534h1.054v6.034h-1.054V14.534z"/>
			<path fill="#FFFFFF" d="M14.842,18.792c0.025,0.748,0.612,1.071,1.275,1.071c0.484,0,0.833-0.068,1.147-0.188l0.153,0.723
				c-0.357,0.145-0.85,0.255-1.445,0.255c-1.343,0-2.133-0.824-2.133-2.091c0-1.147,0.697-2.227,2.023-2.227
				c1.343,0,1.785,1.104,1.785,2.014c0,0.196-0.017,0.349-0.034,0.442H14.842z M16.661,18.062c0.009-0.383-0.162-1.012-0.858-1.012
				c-0.646,0-0.918,0.586-0.96,1.012H16.661z"/>
			<path fill="#FFFFFF" d="M19.792,15.248v1.182h0.995v0.781h-0.995v1.827c0,0.502,0.136,0.766,0.536,0.766
				c0.178,0,0.314-0.025,0.408-0.051l0.017,0.799c-0.153,0.06-0.425,0.102-0.756,0.102c-0.382,0-0.706-0.128-0.901-0.34
				c-0.221-0.238-0.323-0.612-0.323-1.156v-1.946h-0.595V16.43h0.595v-0.936L19.792,15.248z"/>
		</g>
	</g>
</g>
</svg>
