<?xml version="1.0" encoding="utf-8"?>
<!-- Generator: Adobe Illustrator 16.0.3, SVG Export Plug-In . SVG Version: 6.00 Build 0)  -->
<!DOCTYPE svg PUBLIC "-//W3C//DTD SVG 1.1//EN" "http://www.w3.org/Graphics/SVG/1.1/DTD/svg11.dtd">
<svg version="1.1" xmlns="http://www.w3.org/2000/svg" xmlns:xlink="http://www.w3.org/1999/xlink" x="0px" y="0px" width="22.68px"
	 height="22.68px" viewBox="0 0 22.68 22.68" enable-background="new 0 0 22.68 22.68" xml:space="preserve">
<g id="BCGRND" display="none">
</g>
<g id="IKONY">
	<rect x="0" fill="#585857" width="22.676" height="22.678"/>
	<g>
		<g>
			<g>
				<rect x="0.002" y="11.957" fill="#FFFFFF" width="22.676" height="0.889"/>
			</g>
			<g>
				<path fill="#FFFFFF" d="M3.982,4.955l1.686-2.446V2.494H4.135V1.996h2.314v0.352L4.789,4.77v0.02h1.684v0.498h-2.49V4.955z"/>
				<path fill="#FFFFFF" d="M8.332,5.287L8.293,5.023H8.279C8.133,5.209,7.883,5.341,7.576,5.341c-0.479,0-0.748-0.347-0.748-0.708
					c0-0.601,0.533-0.903,1.412-0.898V3.695c0-0.156-0.064-0.415-0.484-0.415c-0.234,0-0.479,0.073-0.639,0.176L7,3.065
					c0.176-0.107,0.482-0.21,0.859-0.21c0.762,0,0.98,0.483,0.98,1.001v0.859c0,0.215,0.01,0.425,0.035,0.571H8.332z M8.254,4.125
					c-0.424-0.01-0.83,0.083-0.83,0.444c0,0.234,0.152,0.342,0.342,0.342c0.24,0,0.416-0.156,0.469-0.327
					c0.016-0.044,0.02-0.093,0.02-0.132V4.125z M8.625,1.879l-0.6,0.723H7.609l0.426-0.723H8.625z"/>
				<path fill="#FFFFFF" d="M9.527,3.676c0-0.322-0.006-0.552-0.02-0.767h0.521l0.02,0.454h0.02c0.117-0.337,0.396-0.508,0.65-0.508
					c0.059,0,0.092,0.005,0.141,0.015v0.566c-0.049-0.01-0.102-0.02-0.176-0.02c-0.287,0-0.482,0.186-0.537,0.454
					c-0.01,0.054-0.02,0.117-0.02,0.186v1.23h-0.6V3.676z"/>
				<path fill="#FFFFFF" d="M13.445,4.574c0,0.283,0.01,0.518,0.02,0.713h-0.527l-0.029-0.361h-0.01
					c-0.104,0.171-0.338,0.415-0.762,0.415c-0.436,0-0.83-0.259-0.83-1.035V2.909h0.6v1.294c0,0.396,0.127,0.649,0.445,0.649
					c0.238,0,0.395-0.171,0.459-0.322c0.02-0.054,0.033-0.117,0.033-0.186V2.909h0.602V4.574z"/>
				<path fill="#FFFFFF" d="M14.748,3.954h0.01c0.059-0.093,0.127-0.195,0.189-0.278l0.576-0.767h0.723l-0.879,0.972l1.006,1.406
					h-0.736l-0.684-1.05l-0.205,0.239v0.811h-0.602V1.82h0.602V3.954z"/>
				<path fill="#FFFFFF" d="M18.076,5.287l-0.039-0.264h-0.016c-0.146,0.186-0.395,0.317-0.703,0.317
					c-0.479,0-0.746-0.347-0.746-0.708c0-0.601,0.531-0.903,1.41-0.898V3.695c0-0.156-0.063-0.415-0.482-0.415
					c-0.234,0-0.479,0.073-0.641,0.176l-0.117-0.391c0.176-0.107,0.484-0.21,0.859-0.21c0.762,0,0.982,0.483,0.982,1.001v0.859
					c0,0.215,0.01,0.425,0.033,0.571H18.076z M17.998,4.125c-0.426-0.01-0.83,0.083-0.83,0.444c0,0.234,0.15,0.342,0.342,0.342
					c0.238,0,0.414-0.156,0.469-0.327c0.014-0.044,0.02-0.093,0.02-0.132V4.125z"/>
				<path fill="#FFFFFF" d="M5.232,9.133c0.195,0.112,0.488,0.21,0.795,0.21c0.387,0,0.602-0.181,0.602-0.449
					c0-0.249-0.166-0.396-0.586-0.547C5.5,8.151,5.154,7.863,5.154,7.39c0-0.537,0.449-0.947,1.162-0.947
					c0.355,0,0.619,0.078,0.791,0.166L6.961,7.092C6.844,7.028,6.613,6.936,6.307,6.936c-0.381,0-0.547,0.205-0.547,0.396
					c0,0.254,0.189,0.371,0.629,0.542c0.572,0.215,0.85,0.503,0.85,0.977c0,0.527-0.4,0.986-1.25,0.986
					c-0.346,0-0.707-0.098-0.889-0.205L5.232,9.133z"/>
				<path fill="#FFFFFF" d="M8.264,8.767c0.014,0.43,0.352,0.615,0.732,0.615c0.277,0,0.479-0.039,0.658-0.107l0.088,0.415
					c-0.205,0.083-0.488,0.146-0.83,0.146c-0.771,0-1.225-0.474-1.225-1.201c0-0.659,0.4-1.279,1.162-1.279
					c0.771,0,1.025,0.635,1.025,1.157c0,0.112-0.01,0.2-0.02,0.254H8.264z M9.309,8.347c0.004-0.22-0.094-0.581-0.494-0.581
					c-0.371,0-0.527,0.337-0.551,0.581H9.309z"/>
				<path fill="#FFFFFF" d="M10.41,8.176c0-0.322-0.006-0.552-0.02-0.767h0.521l0.02,0.454h0.02c0.117-0.337,0.396-0.508,0.65-0.508
					c0.059,0,0.092,0.005,0.141,0.015v0.566c-0.049-0.01-0.102-0.02-0.176-0.02c-0.287,0-0.482,0.186-0.537,0.454
					c-0.01,0.054-0.02,0.117-0.02,0.186v1.23h-0.6V8.176z"/>
				<path fill="#FFFFFF" d="M12.688,7.409l0.385,1.206c0.068,0.21,0.117,0.4,0.162,0.596h0.014c0.045-0.195,0.098-0.381,0.162-0.596
					l0.375-1.206h0.635l-0.908,2.378h-0.59l-0.885-2.378H12.688z"/>
				<path fill="#FFFFFF" d="M15.479,6.745c0,0.181-0.133,0.322-0.342,0.322c-0.201,0-0.332-0.142-0.332-0.322
					c0-0.186,0.137-0.327,0.336-0.327C15.346,6.418,15.473,6.56,15.479,6.745z M14.838,9.787V7.409h0.605v2.378H14.838z"/>
				<path fill="#FFFFFF" d="M16.109,9.235c0.137,0.083,0.396,0.171,0.611,0.171c0.264,0,0.381-0.107,0.381-0.264
					c0-0.161-0.098-0.244-0.391-0.347c-0.465-0.161-0.66-0.415-0.654-0.693c0-0.42,0.346-0.747,0.898-0.747
					c0.264,0,0.492,0.068,0.629,0.142l-0.117,0.425c-0.102-0.059-0.293-0.137-0.502-0.137c-0.215,0-0.332,0.103-0.332,0.249
					c0,0.151,0.111,0.225,0.414,0.332c0.43,0.156,0.631,0.376,0.635,0.728c0,0.43-0.336,0.742-0.967,0.742
					c-0.287,0-0.547-0.068-0.723-0.166L16.109,9.235z"/>
			</g>
		</g>
		<g>
			<path fill="#FFFFFF" d="M4.842,20.584v-0.638l0.654-0.604c1.301-1.207,1.912-1.869,1.922-2.601c0-0.493-0.264-0.926-0.986-0.926
				c-0.484,0-0.902,0.246-1.182,0.459l-0.307-0.74c0.4-0.322,1.004-0.569,1.701-0.569c1.223,0,1.818,0.773,1.818,1.675
				c0,0.969-0.697,1.751-1.658,2.643L6.32,19.7v0.017h2.27v0.867H4.842z"/>
			<path fill="#FFFFFF" d="M11.721,16.063v1.921h1.846v0.663h-1.846v1.938h-0.697v-1.938H9.18v-0.663h1.844v-1.921H11.721z"/>
			<path fill="#FFFFFF" d="M14.189,19.505c0.213,0.127,0.73,0.34,1.258,0.34c0.799,0,1.121-0.45,1.113-0.884
				c0-0.654-0.611-0.936-1.25-0.936h-0.484v-0.765h0.467c0.486,0,1.098-0.221,1.098-0.773c0-0.374-0.281-0.688-0.885-0.688
				c-0.449,0-0.9,0.195-1.129,0.349l-0.238-0.757c0.314-0.221,0.926-0.425,1.588-0.425c1.141,0,1.727,0.629,1.727,1.352
				c0,0.578-0.34,1.054-1.02,1.292v0.017c0.67,0.119,1.215,0.629,1.215,1.377c0,0.936-0.781,1.675-2.15,1.675
				c-0.672,0-1.25-0.188-1.547-0.383L14.189,19.505z"/>
		</g>
	</g>
</g>
</svg>
