<?xml version="1.0" encoding="utf-8"?>
<!-- Generator: Adobe Illustrator 16.0.3, SVG Export Plug-In . SVG Version: 6.00 Build 0)  -->
<!DOCTYPE svg PUBLIC "-//W3C//DTD SVG 1.1//EN" "http://www.w3.org/Graphics/SVG/1.1/DTD/svg11.dtd">
<svg version="1.1" xmlns="http://www.w3.org/2000/svg" xmlns:xlink="http://www.w3.org/1999/xlink" x="0px" y="0px" width="22.68px"
	 height="22.68px" viewBox="0 0 22.68 22.68" enable-background="new 0 0 22.68 22.68" xml:space="preserve">
<g id="BCGRND">
</g>
<g id="BAREVNE_BCGRND">
	<rect fill="#585857" width="22.676" height="22.678"/>
</g>
<g id="IKONY">
	<g>
		<rect y="16.079" fill="#FFFFFF" width="22.678" height="0.889"/>
	</g>
	<g>
		<path fill="#FFFFFF" d="M1.444,4.954l1.685-2.446V2.493H1.596V1.995H3.91v0.352L2.25,4.769v0.02h1.685v0.498h-2.49V4.954z"/>
		<path fill="#FFFFFF" d="M5.623,5.286L5.583,5.022H5.569C5.422,5.208,5.173,5.34,4.866,5.34c-0.479,0-0.747-0.347-0.747-0.708
			c0-0.601,0.532-0.903,1.411-0.898V3.694c0-0.156-0.063-0.415-0.483-0.415c-0.234,0-0.479,0.073-0.64,0.176L4.29,3.064
			c0.176-0.107,0.483-0.21,0.859-0.21c0.762,0,0.981,0.483,0.981,1.001v0.859c0,0.215,0.01,0.425,0.034,0.571H5.623z M5.544,4.124
			c-0.425-0.01-0.83,0.083-0.83,0.444c0,0.234,0.151,0.342,0.342,0.342c0.239,0,0.415-0.156,0.469-0.327
			c0.015-0.044,0.02-0.093,0.02-0.132V4.124z M5.916,1.878L5.315,2.601H4.9l0.425-0.723H5.916z"/>
		<path fill="#FFFFFF" d="M6.646,3.675c0-0.322-0.005-0.552-0.02-0.767h0.522l0.02,0.454h0.02c0.117-0.337,0.396-0.508,0.649-0.508
			c0.059,0,0.093,0.005,0.142,0.015v0.566c-0.049-0.01-0.103-0.02-0.176-0.02c-0.288,0-0.483,0.186-0.537,0.454
			c-0.01,0.054-0.02,0.117-0.02,0.186v1.23H6.646V3.675z"/>
		<path fill="#FFFFFF" d="M10.393,4.573c0,0.283,0.01,0.518,0.02,0.713H9.885L9.856,4.925h-0.01C9.744,5.096,9.509,5.34,9.084,5.34
			c-0.435,0-0.83-0.259-0.83-1.035V2.908h0.601v1.294c0,0.396,0.127,0.649,0.444,0.649c0.239,0,0.396-0.171,0.459-0.322
			c0.02-0.054,0.034-0.117,0.034-0.186V2.908h0.601V4.573z"/>
		<path fill="#FFFFFF" d="M11.524,3.953h0.01c0.059-0.093,0.127-0.195,0.19-0.278l0.576-0.767h0.723L12.145,3.88l1.006,1.406h-0.737
			l-0.684-1.05l-0.205,0.239v0.811h-0.601V1.819h0.601V3.953z"/>
		<path fill="#FFFFFF" d="M14.682,5.286l-0.039-0.264h-0.015c-0.146,0.186-0.396,0.317-0.703,0.317
			c-0.479,0-0.747-0.347-0.747-0.708c0-0.601,0.532-0.903,1.411-0.898V3.694c0-0.156-0.063-0.415-0.483-0.415
			c-0.234,0-0.479,0.073-0.64,0.176l-0.117-0.391c0.176-0.107,0.483-0.21,0.859-0.21c0.762,0,0.981,0.483,0.981,1.001v0.859
			c0,0.215,0.01,0.425,0.034,0.571H14.682z M14.604,4.124c-0.425-0.01-0.83,0.083-0.83,0.444c0,0.234,0.151,0.342,0.342,0.342
			c0.239,0,0.415-0.156,0.469-0.327c0.015-0.044,0.02-0.093,0.02-0.132V4.124z"/>
		<path fill="#FFFFFF" d="M16.595,3.616c0-0.273-0.005-0.503-0.02-0.708h0.527l0.029,0.356h0.015c0.103-0.186,0.361-0.41,0.757-0.41
			c0.415,0,0.845,0.269,0.845,1.021v1.411h-0.601V3.943c0-0.342-0.127-0.601-0.454-0.601c-0.239,0-0.405,0.171-0.469,0.352
			C17.205,3.748,17.2,3.821,17.2,3.89v1.396h-0.605V3.616z"/>
		<path fill="#FFFFFF" d="M20.607,5.286l-0.039-0.264h-0.015C20.407,5.208,20.158,5.34,19.85,5.34c-0.479,0-0.747-0.347-0.747-0.708
			c0-0.601,0.532-0.903,1.411-0.898V3.694c0-0.156-0.063-0.415-0.483-0.415c-0.234,0-0.479,0.073-0.64,0.176l-0.117-0.391
			c0.176-0.107,0.483-0.21,0.859-0.21c0.762,0,0.981,0.483,0.981,1.001v0.859c0,0.215,0.01,0.425,0.034,0.571H20.607z M20.529,4.124
			c-0.425-0.01-0.83,0.083-0.83,0.444c0,0.234,0.151,0.342,0.342,0.342c0.239,0,0.415-0.156,0.469-0.327
			c0.015-0.044,0.02-0.093,0.02-0.132V4.124z"/>
		<path fill="#FFFFFF" d="M5.072,6.539c0.264-0.044,0.601-0.068,0.957-0.068c0.615,0,1.04,0.127,1.343,0.381
			C7.689,7.11,7.884,7.501,7.884,8.063c0,0.586-0.2,1.025-0.513,1.309C7.044,9.669,6.522,9.82,5.882,9.82
			c-0.352,0-0.615-0.02-0.811-0.044V6.539z M5.672,9.327c0.083,0.015,0.21,0.015,0.332,0.015C6.786,9.347,7.25,8.917,7.25,8.082
			c0.005-0.728-0.415-1.143-1.167-1.143c-0.19,0-0.327,0.015-0.41,0.034V9.327z"/>
		<path fill="#FFFFFF" d="M9.139,6.744c0,0.181-0.132,0.322-0.342,0.322c-0.2,0-0.332-0.142-0.332-0.322
			c0-0.186,0.137-0.327,0.337-0.327C9.007,6.417,9.134,6.559,9.139,6.744z M8.499,9.786V7.408h0.605v2.378H8.499z"/>
		<path fill="#FFFFFF" d="M9.848,8.175c0-0.322-0.005-0.552-0.02-0.767h0.522l0.02,0.454h0.02c0.117-0.337,0.396-0.508,0.649-0.508
			c0.059,0,0.093,0.005,0.142,0.015v0.566c-0.049-0.01-0.103-0.02-0.176-0.02c-0.288,0-0.483,0.186-0.537,0.454
			c-0.01,0.054-0.02,0.117-0.02,0.186v1.23H9.848V8.175z"/>
		<path fill="#FFFFFF" d="M12.067,8.766c0.015,0.43,0.352,0.615,0.732,0.615c0.278,0,0.479-0.039,0.659-0.107l0.088,0.415
			c-0.205,0.083-0.488,0.146-0.83,0.146c-0.771,0-1.226-0.474-1.226-1.201c0-0.659,0.4-1.279,1.162-1.279
			c0.771,0,1.025,0.635,1.025,1.157c0,0.112-0.01,0.2-0.02,0.254H12.067z M13.112,8.346c0.005-0.22-0.093-0.581-0.493-0.581
			c-0.371,0-0.527,0.337-0.552,0.581H13.112z"/>
		<path fill="#FFFFFF" d="M16.011,9.713c-0.127,0.059-0.376,0.122-0.674,0.122c-0.742,0-1.226-0.474-1.226-1.211
			c0-0.713,0.488-1.27,1.323-1.27c0.22,0,0.444,0.049,0.581,0.112l-0.107,0.449c-0.098-0.044-0.239-0.093-0.454-0.093
			c-0.459,0-0.732,0.337-0.728,0.771c0,0.488,0.317,0.767,0.728,0.767c0.21,0,0.356-0.044,0.474-0.093L16.011,9.713z"/>
		<path fill="#FFFFFF" d="M17.318,6.729v0.679h0.571v0.449h-0.571v1.05c0,0.288,0.078,0.439,0.308,0.439
			c0.103,0,0.181-0.015,0.234-0.029l0.01,0.459c-0.088,0.034-0.244,0.059-0.435,0.059c-0.22,0-0.405-0.073-0.518-0.195
			c-0.127-0.137-0.186-0.352-0.186-0.664V7.857H16.39V7.408h0.342V6.871L17.318,6.729z"/>
		<path fill="#FFFFFF" d="M6.582,12.943c-0.02-0.425-0.044-0.938-0.039-1.382H6.528c-0.107,0.4-0.244,0.845-0.391,1.26l-0.479,1.426
			H5.195l-0.439-1.406c-0.127-0.42-0.244-0.869-0.332-1.279h-0.01c-0.015,0.43-0.034,0.952-0.059,1.401l-0.073,1.323H3.72
			l0.22-3.291h0.791l0.43,1.323c0.117,0.386,0.22,0.776,0.303,1.143h0.015c0.088-0.356,0.2-0.762,0.327-1.147l0.454-1.318h0.781
			l0.19,3.291H6.645L6.582,12.943z"/>
		<path fill="#FFFFFF" d="M10.205,13.075c0,0.874-0.615,1.265-1.221,1.265c-0.674,0-1.191-0.464-1.191-1.226
			c0-0.781,0.513-1.26,1.23-1.26C9.731,11.854,10.205,12.353,10.205,13.075z M8.413,13.1c0,0.459,0.225,0.806,0.591,0.806
			c0.342,0,0.581-0.337,0.581-0.815c0-0.371-0.166-0.796-0.576-0.796C8.584,12.294,8.413,12.704,8.413,13.1z"/>
		<path fill="#FFFFFF" d="M11.488,11.229v0.679h0.571v0.449h-0.571v1.05c0,0.288,0.078,0.439,0.308,0.439
			c0.103,0,0.181-0.015,0.234-0.029l0.01,0.459c-0.088,0.034-0.244,0.059-0.435,0.059c-0.22,0-0.405-0.073-0.518-0.195
			c-0.127-0.137-0.186-0.352-0.186-0.664v-1.118H10.56v-0.449h0.342v-0.537L11.488,11.229z"/>
		<path fill="#FFFFFF" d="M13.253,11.244c0,0.181-0.132,0.322-0.342,0.322c-0.2,0-0.332-0.142-0.332-0.322
			c0-0.186,0.137-0.327,0.337-0.327C13.121,10.917,13.248,11.059,13.253,11.244z M12.613,14.286v-2.378h0.605v2.378H12.613z"/>
		<path fill="#FFFFFF" d="M16.223,13.075c0,0.874-0.615,1.265-1.221,1.265c-0.674,0-1.191-0.464-1.191-1.226
			c0-0.781,0.513-1.26,1.23-1.26C15.75,11.854,16.223,12.353,16.223,13.075z M14.431,13.1c0,0.459,0.225,0.806,0.591,0.806
			c0.342,0,0.581-0.337,0.581-0.815c0-0.371-0.166-0.796-0.576-0.796C14.602,12.294,14.431,12.704,14.431,13.1z"/>
		<path fill="#FFFFFF" d="M16.817,12.616c0-0.273-0.005-0.503-0.02-0.708h0.527l0.029,0.356h0.015
			c0.103-0.186,0.361-0.41,0.757-0.41c0.415,0,0.845,0.269,0.845,1.021v1.411H18.37v-1.343c0-0.342-0.127-0.601-0.454-0.601
			c-0.239,0-0.405,0.171-0.469,0.352c-0.02,0.054-0.024,0.127-0.024,0.195v1.396h-0.605V12.616z"/>
	</g>
	<g>
		<path fill="#FFFFFF" d="M5.96,21.29v-0.366l0.376-0.347c0.747-0.693,1.099-1.074,1.104-1.494c0-0.283-0.151-0.532-0.566-0.532
			c-0.278,0-0.518,0.142-0.679,0.264L6.019,18.39c0.229-0.186,0.576-0.327,0.977-0.327c0.703,0,1.045,0.444,1.045,0.962
			c0,0.557-0.4,1.006-0.952,1.519L6.81,20.782v0.01h1.304v0.498H5.96z"/>
		<path fill="#FFFFFF" d="M10.475,18.614H9.254l-0.093,0.635c0.073-0.01,0.137-0.015,0.229-0.015c0.278,0,0.557,0.063,0.771,0.205
			c0.239,0.151,0.415,0.42,0.415,0.806c0,0.605-0.503,1.099-1.284,1.099c-0.366,0-0.674-0.093-0.84-0.186l0.122-0.454
			c0.137,0.073,0.41,0.166,0.698,0.166c0.352,0,0.688-0.2,0.688-0.581c0-0.361-0.269-0.601-0.903-0.601
			c-0.176,0-0.308,0.01-0.435,0.029l0.21-1.602h1.641V18.614z"/>
		<path fill="#FFFFFF" d="M11.958,17.823h0.605v3.467h-0.605V17.823z"/>
		<path fill="#FFFFFF" d="M13.518,20.27c0.015,0.43,0.352,0.615,0.732,0.615c0.278,0,0.479-0.039,0.659-0.107l0.088,0.415
			c-0.205,0.083-0.488,0.146-0.83,0.146c-0.771,0-1.226-0.474-1.226-1.201c0-0.659,0.4-1.279,1.162-1.279
			c0.771,0,1.025,0.635,1.025,1.157c0,0.112-0.01,0.2-0.02,0.254H13.518z M14.563,19.85c0.005-0.22-0.093-0.581-0.493-0.581
			c-0.371,0-0.527,0.337-0.552,0.581H14.563z"/>
		<path fill="#FFFFFF" d="M16.182,18.233v0.679h0.571v0.449h-0.571v1.05c0,0.288,0.078,0.439,0.308,0.439
			c0.103,0,0.181-0.015,0.234-0.029l0.01,0.459c-0.088,0.034-0.244,0.059-0.435,0.059c-0.22,0-0.405-0.073-0.518-0.195
			c-0.127-0.137-0.186-0.352-0.186-0.664v-1.118h-0.342v-0.449h0.342v-0.537L16.182,18.233z"/>
	</g>
	<g opacity="0.5">
		<rect y="16.524" fill="#FFFFFF" width="22.678" height="6.154"/>
	</g>
</g>
</svg>
