<?xml version="1.0" encoding="utf-8"?>
<!-- Generator: Adobe Illustrator 16.0.3, SVG Export Plug-In . SVG Version: 6.00 Build 0)  -->
<!DOCTYPE svg PUBLIC "-//W3C//DTD SVG 1.1//EN" "http://www.w3.org/Graphics/SVG/1.1/DTD/svg11.dtd">
<svg version="1.1" xmlns="http://www.w3.org/2000/svg" xmlns:xlink="http://www.w3.org/1999/xlink" x="0px" y="0px" width="22.68px"
	 height="22.68px" viewBox="0 0 22.68 22.68" enable-background="new 0 0 22.68 22.68" xml:space="preserve">
<g id="BCGRND" display="none">
</g>
<g id="IKONY">
	<rect x="0" fill="#585857" width="22.676" height="22.678"/>
	<g>
		<g>
			<rect x="0.001" y="7.77" fill="#FFFFFF" width="22.678" height="0.889"/>
		</g>
		<g>
			<path fill="#FFFFFF" d="M2.872,5.237l1.68-2.446V2.776H3.019V2.278h2.314V2.63l-1.66,2.427v0.015h1.686v0.498H2.872V5.237z"/>
		</g>
		<g>
			<path fill="#FFFFFF" d="M8.146,2.103V4.9c0,0.244,0.01,0.508,0.02,0.669H7.632L7.603,5.193h-0.01
				c-0.141,0.264-0.43,0.43-0.771,0.43c-0.57,0-1.02-0.482-1.02-1.216c-0.006-0.796,0.492-1.27,1.064-1.27
				c0.326,0,0.561,0.132,0.668,0.308h0.01V2.103H8.146z M7.544,4.184c0-0.05-0.004-0.113-0.014-0.162
				c-0.055-0.229-0.244-0.42-0.518-0.42c-0.387,0-0.602,0.342-0.602,0.781s0.215,0.758,0.596,0.758c0.244,0,0.459-0.166,0.518-0.426
				c0.016-0.054,0.02-0.112,0.02-0.176V4.184z"/>
		</g>
		<g>
			<path fill="#FFFFFF" d="M10.81,4.998c0,0.215,0.01,0.425,0.039,0.571h-0.542l-0.044-0.264h-0.015
				c-0.142,0.186-0.391,0.317-0.703,0.317c-0.479,0-0.747-0.347-0.747-0.708c0-0.596,0.532-0.903,1.411-0.898V3.978
				c0-0.156-0.063-0.415-0.483-0.415c-0.234,0-0.479,0.073-0.64,0.176L8.969,3.348c0.176-0.107,0.483-0.21,0.859-0.21
				c0.762,0,0.981,0.483,0.981,1.006V4.998z M10.224,4.407c-0.425-0.005-0.83,0.083-0.83,0.444c0,0.234,0.151,0.342,0.342,0.342
				c0.244,0,0.415-0.156,0.474-0.327c0.015-0.044,0.015-0.088,0.015-0.132V4.407z"/>
		</g>
		<g>
			<path fill="#FFFFFF" d="M11.618,3.958c0-0.322-0.004-0.557-0.02-0.767h0.518l0.025,0.449h0.014
				c0.117-0.332,0.396-0.503,0.654-0.503c0.059,0,0.094,0.005,0.143,0.015v0.562c-0.055-0.01-0.107-0.015-0.182-0.015
				c-0.283,0-0.482,0.181-0.537,0.454c-0.01,0.054-0.014,0.117-0.014,0.181v1.235h-0.602V3.958z"/>
		</g>
		<g>
			<path fill="#FFFFFF" d="M13.531,3.899c0-0.273-0.01-0.503-0.02-0.708h0.513l0.029,0.352h0.015
				c0.112-0.186,0.327-0.405,0.732-0.405c0.313,0,0.557,0.176,0.659,0.439h0.01c0.083-0.132,0.181-0.229,0.288-0.298
				c0.137-0.093,0.288-0.142,0.488-0.142c0.391,0,0.791,0.269,0.791,1.03v1.401H16.45V4.256c0-0.396-0.137-0.63-0.425-0.63
				c-0.205,0-0.356,0.146-0.42,0.317c-0.02,0.054-0.029,0.132-0.029,0.2v1.426H14.99V4.192c0-0.332-0.132-0.566-0.41-0.566
				c-0.225,0-0.376,0.176-0.435,0.337c-0.02,0.063-0.029,0.132-0.029,0.2v1.406h-0.586V3.899z"/>
		</g>
		<g>
			<path fill="#FFFFFF" d="M19.693,4.998c0,0.215,0.01,0.425,0.039,0.571h-0.541l-0.045-0.264h-0.014
				c-0.143,0.186-0.391,0.317-0.703,0.317c-0.479,0-0.748-0.347-0.748-0.708c0-0.596,0.533-0.903,1.412-0.898V3.978
				c0-0.156-0.064-0.415-0.484-0.415c-0.234,0-0.479,0.073-0.639,0.176l-0.117-0.391c0.176-0.107,0.482-0.21,0.859-0.21
				c0.762,0,0.98,0.483,0.98,1.006V4.998z M19.107,4.407c-0.424-0.005-0.83,0.083-0.83,0.444c0,0.234,0.152,0.342,0.342,0.342
				c0.244,0,0.416-0.156,0.475-0.327c0.014-0.044,0.014-0.088,0.014-0.132V4.407z"/>
		</g>
		<g>
			<path fill="#FFFFFF" d="M3.493,19.994h12.153V11.22H3.493V19.994z M4.792,12.638h9.551v5.939H4.792V12.638z"/>
		</g>
		<g>
			<path fill="#FFFFFF" d="M16.076,11.22v6.927h3.11V11.22H16.076z M17.632,16.769c-0.235,0-0.427-0.19-0.427-0.427
				c0-0.235,0.191-0.426,0.427-0.426s0.426,0.19,0.426,0.426C18.058,16.578,17.867,16.769,17.632,16.769z M17.632,15.129
				c-0.235,0-0.427-0.189-0.427-0.426c0-0.235,0.191-0.428,0.427-0.428s0.426,0.192,0.426,0.428
				C18.058,14.939,17.867,15.129,17.632,15.129z M17.632,13.49c-0.235,0-0.427-0.191-0.427-0.428c0-0.235,0.191-0.425,0.427-0.425
				s0.426,0.189,0.426,0.425C18.058,13.299,17.867,13.49,17.632,13.49z"/>
		</g>
		<g>
			<rect x="16.076" y="18.577" fill="#FFFFFF" width="3.11" height="1.417"/>
		</g>
		<g>
			<path fill="#FFFFFF" d="M7.793,17.962c-1.188,0-2.087-0.419-2.144-0.445c-0.186-0.09-0.266-0.313-0.176-0.499
				c0.088-0.188,0.311-0.266,0.498-0.179c0.019,0.011,1.789,0.824,3.494,0.001c2.038-0.981,4.058-0.039,4.143-0.001
				c0.187,0.089,0.266,0.313,0.178,0.499c-0.089,0.187-0.311,0.268-0.5,0.179c-0.018-0.008-1.787-0.824-3.494-0.001
				C9.099,17.851,8.407,17.962,7.793,17.962z"/>
		</g>
		<g>
			<path fill="#FFFFFF" d="M7.793,16.391c-1.189,0-2.087-0.418-2.143-0.444c-0.187-0.089-0.267-0.313-0.177-0.499
				c0.088-0.187,0.312-0.267,0.498-0.179c0.019,0.009,1.789,0.82,3.495,0.001c2.036-0.983,4.058-0.041,4.142-0.001
				c0.188,0.09,0.266,0.313,0.178,0.499c-0.089,0.188-0.312,0.268-0.5,0.179c-0.017-0.008-1.788-0.823-3.494-0.001
				C9.099,16.278,8.407,16.391,7.793,16.391z"/>
		</g>
		<g>
			<path fill="#FFFFFF" d="M7.793,14.818c-1.189,0-2.087-0.418-2.143-0.444c-0.187-0.089-0.267-0.313-0.177-0.499
				c0.088-0.187,0.31-0.268,0.498-0.179c0.018,0.009,1.788,0.823,3.495,0.001c2.036-0.983,4.058-0.041,4.142-0.001
				c0.188,0.09,0.266,0.313,0.178,0.499c-0.089,0.187-0.312,0.267-0.5,0.179c-0.017-0.008-1.788-0.822-3.494-0.001
				C9.099,14.707,8.407,14.818,7.793,14.818z"/>
		</g>
	</g>
</g>
</svg>
