<?xml version="1.0" encoding="utf-8"?>
<!-- Generator: Adobe Illustrator 16.0.3, SVG Export Plug-In . SVG Version: 6.00 Build 0)  -->
<!DOCTYPE svg PUBLIC "-//W3C//DTD SVG 1.1//EN" "http://www.w3.org/Graphics/SVG/1.1/DTD/svg11.dtd">
<svg version="1.1" xmlns="http://www.w3.org/2000/svg" xmlns:xlink="http://www.w3.org/1999/xlink" x="0px" y="0px" width="22.68px"
	 height="22.68px" viewBox="0 0 22.68 22.68" enable-background="new 0 0 22.68 22.68" xml:space="preserve">
<g id="BCGRND" display="none">
</g>
<g id="IKONY">
	<rect x="0" fill="#585857" width="22.676" height="22.678"/>
	<g>
		<g>
			<rect x="0" y="7.769" fill="#FFFFFF" width="22.678" height="0.889"/>
			<g>
				<g>
					<path fill="#FFFFFF" d="M1.394,5.237l1.68-2.446V2.776H1.541V2.278h2.314V2.63l-1.66,2.427v0.015h1.686v0.498H1.394V5.237z"/>
					<path fill="#FFFFFF" d="M4.211,3.899c0-0.273-0.01-0.503-0.02-0.708h0.522l0.029,0.356h0.015
						c0.107-0.186,0.366-0.41,0.762-0.41c0.415,0,0.845,0.269,0.845,1.021v1.411H5.763V4.227c0-0.342-0.127-0.601-0.454-0.601
						c-0.239,0-0.405,0.171-0.469,0.352C4.821,4.026,4.811,4.1,4.811,4.168v1.401H4.211V3.899z"/>
					<path fill="#FFFFFF" d="M8.706,4.998c0,0.215,0.01,0.425,0.039,0.571H8.203L8.159,5.306H8.144
						C8.003,5.491,7.754,5.623,7.441,5.623c-0.479,0-0.747-0.347-0.747-0.708c0-0.596,0.532-0.903,1.411-0.898V3.978
						c0-0.156-0.063-0.415-0.483-0.415c-0.234,0-0.479,0.073-0.64,0.176L6.865,3.348c0.176-0.107,0.483-0.21,0.859-0.21
						c0.762,0,0.981,0.483,0.981,1.006V4.998z M8.12,4.407C7.695,4.402,7.29,4.49,7.29,4.852c0,0.234,0.151,0.342,0.342,0.342
						c0.244,0,0.415-0.156,0.474-0.327C8.12,4.822,8.12,4.778,8.12,4.734V4.407z M8.486,2.161L7.89,2.884H7.475L7.9,2.161H8.486z"/>
					<path fill="#FFFFFF" d="M9.856,2.581v0.61h0.571v0.449H9.856v1.05c0,0.293,0.078,0.439,0.308,0.439
						c0.107,0,0.166-0.005,0.234-0.024l0.01,0.454c-0.088,0.034-0.249,0.063-0.435,0.063c-0.225,0-0.405-0.073-0.518-0.195
						c-0.132-0.137-0.19-0.356-0.19-0.669V3.641H8.928V3.191h0.337V2.747L9.856,2.581z"/>
					<path fill="#FFFFFF" d="M11.133,4.549c0.015,0.43,0.347,0.615,0.732,0.615c0.278,0,0.474-0.044,0.659-0.107l0.088,0.41
						c-0.205,0.088-0.488,0.151-0.83,0.151c-0.771,0-1.226-0.474-1.226-1.201c0-0.659,0.4-1.279,1.162-1.279
						c0.771,0,1.025,0.635,1.025,1.157c0,0.112-0.01,0.2-0.02,0.254H11.133z M12.177,4.129c0.005-0.22-0.093-0.581-0.493-0.581
						c-0.371,0-0.527,0.337-0.552,0.581H12.177z"/>
					<path fill="#FFFFFF" d="M13.724,5.223l0.895-1.143c0.121-0.146,0.225-0.264,0.346-0.4V3.67h-1.152V3.191h1.885v0.366
						l-0.869,1.118c-0.117,0.142-0.229,0.278-0.352,0.405v0.01h1.25v0.479h-2.002V5.223z"/>
					<path fill="#FFFFFF" d="M17.327,2.781h-0.938V2.278h2.485v0.503h-0.947v2.788h-0.601V2.781z"/>
					<path fill="#FFFFFF" d="M19.644,5.569L18.58,2.278h0.654l0.449,1.499c0.127,0.415,0.238,0.796,0.322,1.196h0.01
						c0.088-0.391,0.209-0.791,0.336-1.191l0.479-1.504h0.641l-1.139,3.291H19.644z"/>
				</g>
			</g>
		</g>
		<g>
			<path fill="#FFFFFF" d="M19.058,9.985H3.619v9.708h2.236v1.462h10.967v-1.462h2.236V9.985z M7.269,20.369
				c-0.158,0-0.287-0.129-0.287-0.288c0-0.16,0.129-0.289,0.287-0.289S7.56,19.92,7.56,20.081C7.56,20.24,7.427,20.369,7.269,20.369
				z M8.359,20.369c-0.158,0-0.287-0.129-0.287-0.288c0-0.16,0.129-0.289,0.287-0.289c0.162,0,0.291,0.129,0.291,0.289
				C8.65,20.24,8.521,20.369,8.359,20.369z M9.451,20.369c-0.158,0-0.287-0.129-0.287-0.288c0-0.16,0.129-0.289,0.287-0.289
				S9.74,19.92,9.74,20.081C9.74,20.24,9.609,20.369,9.451,20.369z M15.894,20.656c-0.234,0-0.424-0.189-0.424-0.423
				c0-0.233,0.189-0.423,0.424-0.423s0.422,0.189,0.422,0.423C16.316,20.467,16.129,20.656,15.894,20.656z M17.883,18.415H4.791
				v-7.149h13.092V18.415z"/>
			<rect x="4.791" y="11.265" opacity="0.3" fill="#FFFFFF" width="13.092" height="7.149"/>
		</g>
		<g>
			<path fill="#FFFFFF" d="M6.947,12.871h0.719v2.554c0,1.087-0.526,1.45-1.304,1.45c-0.204,0-0.449-0.035-0.607-0.094l0.088-0.579
				c0.116,0.041,0.274,0.07,0.444,0.07c0.408,0,0.66-0.187,0.66-0.871V12.871z"/>
			<path fill="#FFFFFF" d="M8.268,16.027c0.228,0.134,0.584,0.251,0.952,0.251c0.456,0,0.713-0.216,0.713-0.538
				c0-0.298-0.198-0.474-0.695-0.655c-0.654-0.234-1.069-0.579-1.069-1.146c0-0.648,0.538-1.134,1.396-1.134
				c0.427,0,0.736,0.094,0.941,0.199l-0.17,0.579c-0.146-0.076-0.42-0.187-0.789-0.187c-0.455,0-0.648,0.24-0.648,0.474
				c0,0.304,0.229,0.444,0.754,0.648c0.684,0.257,1.012,0.602,1.012,1.169c0,0.637-0.479,1.187-1.49,1.187
				c-0.421,0-0.854-0.117-1.07-0.251L8.268,16.027z"/>
			<path fill="#FFFFFF" d="M11.127,16.027c0.228,0.134,0.584,0.251,0.952,0.251c0.456,0,0.713-0.216,0.713-0.538
				c0-0.298-0.198-0.474-0.695-0.655c-0.654-0.234-1.069-0.579-1.069-1.146c0-0.648,0.538-1.134,1.396-1.134
				c0.427,0,0.736,0.094,0.941,0.199l-0.17,0.579c-0.146-0.076-0.42-0.187-0.788-0.187c-0.456,0-0.649,0.24-0.649,0.474
				c0,0.304,0.229,0.444,0.754,0.648c0.684,0.257,1.012,0.602,1.012,1.169c0,0.637-0.479,1.187-1.491,1.187
				c-0.42,0-0.853-0.117-1.069-0.251L11.127,16.027z"/>
			<path fill="#FFFFFF" d="M13.985,16.027c0.228,0.134,0.584,0.251,0.952,0.251c0.456,0,0.713-0.216,0.713-0.538
				c0-0.298-0.198-0.474-0.695-0.655c-0.654-0.234-1.069-0.579-1.069-1.146c0-0.648,0.538-1.134,1.396-1.134
				c0.427,0,0.736,0.094,0.941,0.199l-0.17,0.579c-0.146-0.076-0.42-0.187-0.789-0.187c-0.455,0-0.648,0.24-0.648,0.474
				c0,0.304,0.229,0.444,0.754,0.648c0.684,0.257,1.012,0.602,1.012,1.169c0,0.637-0.479,1.187-1.49,1.187
				c-0.421,0-0.854-0.117-1.07-0.251L13.985,16.027z"/>
		</g>
	</g>
</g>
</svg>
