<?xml version="1.0" encoding="utf-8"?>
<!-- Generator: Adobe Illustrator 16.0.3, SVG Export Plug-In . SVG Version: 6.00 Build 0)  -->
<!DOCTYPE svg PUBLIC "-//W3C//DTD SVG 1.1//EN" "http://www.w3.org/Graphics/SVG/1.1/DTD/svg11.dtd">
<svg version="1.1" xmlns="http://www.w3.org/2000/svg" xmlns:xlink="http://www.w3.org/1999/xlink" x="0px" y="0px" width="22.68px"
	 height="22.68px" viewBox="0 0 22.68 22.68" enable-background="new 0 0 22.68 22.68" xml:space="preserve">
<g id="BCGRND" display="none">
</g>
<g id="IKONY">
	<g>
		<defs>
			<rect id="SVGID_7_" x="0" width="22.676" height="22.678"/>
		</defs>
		<clipPath id="SVGID_2_">
			<use xlink:href="#SVGID_7_"  overflow="visible"/>
		</clipPath>
		<rect x="0" clip-path="url(#SVGID_2_)" fill="#585857" width="22.676" height="22.678"/>
		<g clip-path="url(#SVGID_2_)">
			<g>
				<rect x="0.001" y="11.956" fill="#FFFFFF" width="22.678" height="0.889"/>
			</g>
			<g>
				<path fill="#FFFFFF" d="M7.119,3.606c0,1.104-0.669,1.733-1.572,1.733c-0.933,0-1.519-0.713-1.519-1.675
					c0-1.016,0.64-1.729,1.567-1.729C6.552,1.937,7.119,2.664,7.119,3.606z M4.663,3.65c0,0.674,0.337,1.206,0.913,1.206
					c0.581,0,0.908-0.542,0.908-1.23c0-0.62-0.308-1.206-0.908-1.206C4.98,2.42,4.663,2.972,4.663,3.65z"/>
				<path fill="#FFFFFF" d="M8.056,2.908l0.386,1.206c0.068,0.21,0.117,0.4,0.161,0.596h0.015c0.044-0.195,0.098-0.381,0.161-0.596
					l0.381-1.206h0.63L8.881,5.286H8.29L7.406,2.908H8.056z"/>
				<path fill="#FFFFFF" d="M11.975,4.715c0,0.215,0.01,0.425,0.039,0.571h-0.542l-0.044-0.264h-0.015
					C11.272,5.208,11.023,5.34,10.71,5.34c-0.479,0-0.747-0.347-0.747-0.708c0-0.596,0.532-0.903,1.411-0.898V3.694
					c0-0.156-0.063-0.415-0.483-0.415c-0.234,0-0.479,0.073-0.64,0.176l-0.117-0.391c0.176-0.107,0.483-0.21,0.859-0.21
					c0.762,0,0.981,0.483,0.981,1.006V4.715z M11.389,4.124c-0.425-0.005-0.83,0.083-0.83,0.444c0,0.234,0.151,0.342,0.342,0.342
					c0.244,0,0.415-0.156,0.474-0.327c0.015-0.044,0.015-0.088,0.015-0.132V4.124z M11.755,1.878l-0.596,0.723h-0.415l0.425-0.723
					H11.755z"/>
				<path fill="#FFFFFF" d="M12.613,1.819h0.601v3.467h-0.601V1.819z"/>
				<path fill="#FFFFFF" d="M13.869,3.616c0-0.273-0.01-0.503-0.02-0.708h0.522l0.029,0.356h0.015
					c0.107-0.186,0.366-0.41,0.762-0.41c0.415,0,0.845,0.269,0.845,1.021v1.411h-0.601V3.943c0-0.342-0.127-0.601-0.454-0.601
					c-0.239,0-0.405,0.171-0.469,0.352c-0.02,0.049-0.029,0.122-0.029,0.19v1.401h-0.601V3.616z"/>
				<path fill="#FFFFFF" d="M18.511,4.715c0,0.215,0.01,0.425,0.039,0.571h-0.542l-0.044-0.264H17.95
					c-0.142,0.186-0.391,0.317-0.703,0.317c-0.479,0-0.747-0.347-0.747-0.708c0-0.596,0.532-0.903,1.411-0.898V3.694
					c0-0.156-0.063-0.415-0.483-0.415c-0.234,0-0.479,0.073-0.64,0.176l-0.117-0.391c0.176-0.107,0.483-0.21,0.859-0.21
					c0.762,0,0.981,0.483,0.981,1.006V4.715z M17.926,4.124c-0.425-0.005-0.83,0.083-0.83,0.444c0,0.234,0.151,0.342,0.342,0.342
					c0.244,0,0.415-0.156,0.474-0.327c0.015-0.044,0.015-0.088,0.015-0.132V4.124z M18.292,1.878l-0.596,0.723h-0.415l0.425-0.723
					H18.292z"/>
				<path fill="#FFFFFF" d="M6.336,9.439l0.894-1.143c0.122-0.146,0.225-0.264,0.347-0.4v-0.01H6.424V7.408h1.885v0.366L7.439,8.893
					C7.322,9.034,7.21,9.171,7.088,9.298v0.01h1.25v0.479H6.336V9.439z"/>
				<path fill="#FFFFFF" d="M10.987,8.575c0,0.874-0.615,1.265-1.221,1.265c-0.669,0-1.191-0.459-1.191-1.226
					c0-0.781,0.513-1.26,1.23-1.26C10.513,7.354,10.987,7.853,10.987,8.575z M9.195,8.6c0,0.459,0.229,0.806,0.591,0.806
					c0.342,0,0.581-0.332,0.581-0.815c0-0.371-0.166-0.801-0.576-0.801C9.366,7.789,9.195,8.204,9.195,8.6z M10.494,6.378
					L9.898,7.101H9.483l0.425-0.723H10.494z"/>
				<path fill="#FFFFFF" d="M11.484,8.116c0-0.273-0.01-0.503-0.02-0.708h0.522l0.029,0.356h0.015
					c0.107-0.186,0.366-0.41,0.762-0.41c0.415,0,0.845,0.269,0.845,1.021v1.411h-0.601V8.443c0-0.342-0.127-0.601-0.454-0.601
					c-0.239,0-0.405,0.171-0.469,0.352c-0.02,0.049-0.029,0.122-0.029,0.19v1.401h-0.601V8.116z"/>
				<path fill="#FFFFFF" d="M16.126,9.215c0,0.215,0.01,0.425,0.039,0.571h-0.542l-0.044-0.264h-0.015
					c-0.142,0.186-0.391,0.317-0.703,0.317c-0.479,0-0.747-0.347-0.747-0.708c0-0.596,0.532-0.903,1.411-0.898V8.194
					c0-0.156-0.063-0.415-0.483-0.415c-0.234,0-0.479,0.073-0.64,0.176l-0.117-0.391c0.176-0.107,0.483-0.21,0.859-0.21
					c0.762,0,0.981,0.483,0.981,1.006V9.215z M15.54,8.624c-0.425-0.005-0.83,0.083-0.83,0.444c0,0.234,0.151,0.342,0.342,0.342
					c0.244,0,0.415-0.156,0.474-0.327c0.015-0.044,0.015-0.088,0.015-0.132V8.624z"/>
			</g>
		</g>
		<g clip-path="url(#SVGID_2_)">
			<g>
				<path fill="none" d="M4.002,21.582c-0.132,0.132-0.344,0.131-0.475,0c-0.13-0.131-0.131-0.343,0-0.474s0.344-0.131,0.474,0
					C4.132,21.239,4.133,21.451,4.002,21.582z M4.001,19.688c-0.131,0.131-0.342,0.131-0.473-0.001
					c-0.131-0.131-0.131-0.342-0.001-0.473c0.132-0.132,0.344-0.132,0.475,0C4.133,19.346,4.132,19.558,4.001,19.688z
					 M17.733,18.268c0.132-0.132,0.343-0.132,0.474,0c0.131,0.13,0.132,0.343,0,0.474c-0.131,0.132-0.343,0.131-0.474,0
					S17.602,18.398,17.733,18.268z M17.733,20.16c0.131-0.13,0.343-0.13,0.474,0.001s0.131,0.343,0,0.474
					c-0.131,0.132-0.343,0.132-0.474,0.001C17.602,20.504,17.602,20.292,17.733,20.16z M15.839,18.267
					c0.131-0.131,0.343-0.13,0.473,0.001c0.132,0.131,0.132,0.343,0.001,0.474s-0.343,0.132-0.475,0
					C15.708,18.61,15.708,18.397,15.839,18.267z M14.892,17.32c0.131-0.131,0.343-0.131,0.475,0c0.13,0.131,0.131,0.344,0,0.474
					c-0.131,0.132-0.345,0.132-0.475,0.001C14.76,17.664,14.761,17.451,14.892,17.32z M13.945,16.373
					c0.131-0.131,0.343-0.131,0.474,0.001c0.131,0.131,0.131,0.343,0.001,0.474c-0.132,0.131-0.344,0.131-0.475,0
					S13.814,16.504,13.945,16.373z M10.156,16.374c0.131-0.132,0.344-0.133,0.475-0.001c0.131,0.131,0.131,0.344-0.001,0.475
					c-0.13,0.131-0.343,0.131-0.474,0S10.026,16.504,10.156,16.374z M4.949,22.529c-0.132,0.131-0.344,0.131-0.475,0
					c-0.132-0.131-0.132-0.343,0-0.475c0.131-0.131,0.343-0.131,0.475,0C5.08,22.186,5.08,22.398,4.949,22.529z M4.949,20.636
					c-0.131,0.131-0.344,0.131-0.475-0.001c-0.131-0.131-0.132-0.343-0.001-0.474s0.345-0.131,0.476-0.001
					C5.08,20.292,5.08,20.504,4.949,20.636z M4.949,18.741c-0.131,0.131-0.344,0.132-0.475,0c-0.132-0.131-0.131-0.344,0-0.474
					c0.131-0.131,0.343-0.131,0.475,0C5.08,18.398,5.08,18.61,4.949,18.741z M5.896,21.582c-0.131,0.131-0.342,0.131-0.474,0
					c-0.131-0.132-0.131-0.343-0.001-0.474c0.132-0.131,0.344-0.131,0.475,0S6.027,21.451,5.896,21.582z M5.896,19.688
					c-0.13,0.131-0.343,0.131-0.475,0c-0.13-0.131-0.13-0.344,0-0.474c0.132-0.132,0.344-0.132,0.475,0
					C6.027,19.346,6.027,19.558,5.896,19.688z M5.896,17.794c-0.131,0.132-0.343,0.132-0.475,0.001
					c-0.131-0.131-0.13-0.344,0.001-0.475s0.343-0.131,0.474,0S6.027,17.664,5.896,17.794z M6.843,22.529
					c-0.131,0.131-0.344,0.131-0.474,0c-0.132-0.131-0.132-0.344-0.001-0.475s0.344-0.131,0.476,0
					C6.974,22.186,6.974,22.398,6.843,22.529z M6.368,20.161c0.131-0.131,0.344-0.131,0.475,0s0.131,0.343,0,0.475
					c-0.131,0.131-0.344,0.131-0.475,0C6.238,20.504,6.238,20.292,6.368,20.161z M6.844,18.741c-0.132,0.132-0.345,0.132-0.476,0
					c-0.131-0.131-0.131-0.344,0-0.475c0.131-0.13,0.344-0.13,0.475,0C6.974,18.397,6.974,18.61,6.844,18.741z M7.789,21.582
					c-0.13,0.131-0.343,0.131-0.474,0s-0.131-0.344,0-0.474c0.131-0.131,0.343-0.131,0.474,0
					C7.921,21.239,7.921,21.451,7.789,21.582z M7.789,19.688c-0.131,0.132-0.343,0.132-0.474,0.001
					c-0.132-0.131-0.131-0.343,0.001-0.474c0.13-0.132,0.342-0.132,0.473,0C7.921,19.346,7.921,19.558,7.789,19.688z M7.789,17.795
					c-0.131,0.131-0.343,0.131-0.474-0.001c-0.131-0.13-0.132-0.343,0-0.474c0.131-0.131,0.343-0.131,0.474,0
					C7.921,17.451,7.921,17.664,7.789,17.795z M8.737,22.529c-0.13,0.131-0.343,0.131-0.474,0c-0.132-0.131-0.131-0.344,0-0.475
					s0.343-0.131,0.474,0S8.868,22.398,8.737,22.529z M8.263,20.16c0.131-0.13,0.344-0.13,0.475,0.001
					c0.13,0.131,0.13,0.343,0,0.475c-0.131,0.131-0.344,0.131-0.475,0C8.131,20.504,8.131,20.292,8.263,20.16z M8.737,18.741
					c-0.131,0.132-0.343,0.132-0.474,0c-0.132-0.131-0.132-0.343,0-0.474c0.131-0.131,0.343-0.132,0.474,0
					C8.868,18.398,8.867,18.61,8.737,18.741z M8.738,16.848c-0.131,0.131-0.344,0.131-0.475,0s-0.132-0.344,0-0.475
					c0.131-0.132,0.344-0.131,0.474,0C8.868,16.504,8.868,16.717,8.738,16.848z M9.684,21.582c-0.131,0.131-0.344,0.132-0.475,0
					c-0.131-0.131-0.131-0.343,0.001-0.474c0.13-0.131,0.343-0.131,0.474,0S9.815,21.451,9.684,21.582z M9.684,19.688
					c-0.131,0.131-0.344,0.131-0.474,0c-0.132-0.131-0.132-0.343-0.001-0.474c0.131-0.132,0.344-0.132,0.475,0
					C9.815,19.346,9.815,19.558,9.684,19.688z M9.684,17.794c-0.131,0.132-0.343,0.132-0.474,0c-0.132-0.131-0.132-0.343,0-0.474
					c0.131-0.131,0.343-0.131,0.474,0S9.815,17.663,9.684,17.794z M10.631,22.529c-0.131,0.131-0.344,0.131-0.475,0
					s-0.131-0.344,0-0.475c0.131-0.13,0.344-0.131,0.475,0S10.762,22.398,10.631,22.529z M10.631,20.636
					c-0.132,0.131-0.344,0.131-0.475,0c-0.131-0.132-0.131-0.344,0-0.475s0.343-0.131,0.475,0
					C10.762,20.292,10.762,20.504,10.631,20.636z M10.631,18.741c-0.131,0.132-0.344,0.131-0.475,0s-0.131-0.344,0-0.475
					s0.344-0.131,0.475,0.001C10.762,18.397,10.762,18.61,10.631,18.741z M11.577,21.582c-0.131,0.132-0.343,0.131-0.474,0
					s-0.131-0.343,0-0.474s0.343-0.131,0.474,0C11.709,21.239,11.709,21.451,11.577,21.582z M11.577,19.688
					c-0.131,0.131-0.343,0.131-0.474,0c-0.131-0.132-0.131-0.343,0-0.474c0.131-0.132,0.343-0.132,0.474,0
					C11.709,19.346,11.709,19.557,11.577,19.688z M11.577,17.795c-0.131,0.131-0.343,0.131-0.474,0s-0.131-0.344-0.001-0.475
					c0.132-0.131,0.344-0.131,0.476,0C11.709,17.451,11.709,17.664,11.577,17.795z M12.525,22.529c-0.132,0.131-0.343,0.131-0.474,0
					s-0.132-0.344,0-0.475c0.131-0.131,0.343-0.13,0.474,0C12.656,22.186,12.656,22.398,12.525,22.529z M12.525,20.636
					c-0.131,0.131-0.343,0.131-0.474,0c-0.131-0.132-0.131-0.344,0-0.475s0.343-0.131,0.474,0S12.656,20.504,12.525,20.636z
					 M12.525,18.741c-0.131,0.131-0.343,0.132-0.474,0c-0.132-0.131-0.131-0.344,0-0.474c0.131-0.132,0.343-0.132,0.474-0.001
					C12.656,18.397,12.656,18.61,12.525,18.741z M12.525,16.848c-0.131,0.131-0.343,0.131-0.474,0s-0.132-0.344,0-0.475
					c0.131-0.132,0.343-0.131,0.474,0S12.656,16.717,12.525,16.848z M13.472,21.582c-0.131,0.131-0.344,0.131-0.475,0
					c-0.13-0.131-0.131-0.343,0-0.474c0.132-0.131,0.344-0.131,0.475,0S13.603,21.451,13.472,21.582z M13.472,19.688
					c-0.131,0.131-0.344,0.131-0.475,0s-0.13-0.343,0-0.474c0.132-0.132,0.344-0.132,0.475,0
					C13.603,19.345,13.603,19.558,13.472,19.688z M13.472,17.794c-0.131,0.132-0.343,0.132-0.475,0
					c-0.131-0.131-0.131-0.343,0-0.474c0.132-0.131,0.344-0.131,0.475,0S13.603,17.663,13.472,17.794z M14.419,22.529
					c-0.132,0.131-0.344,0.131-0.475,0s-0.131-0.344,0-0.475c0.132-0.131,0.343-0.131,0.475,0
					C14.549,22.186,14.55,22.398,14.419,22.529z M13.945,20.161c0.131-0.131,0.344-0.131,0.475-0.001
					c0.131,0.132,0.13,0.344-0.001,0.476c-0.131,0.131-0.343,0.131-0.474,0C13.814,20.504,13.814,20.292,13.945,20.161z
					 M14.419,18.741c-0.132,0.132-0.344,0.131-0.475,0s-0.131-0.343,0-0.474c0.132-0.131,0.343-0.132,0.475,0
					C14.549,18.397,14.55,18.61,14.419,18.741z M14.891,19.215c0.132-0.132,0.345-0.132,0.475,0c0.132,0.131,0.132,0.342,0,0.474
					c-0.131,0.131-0.343,0.131-0.474,0S14.76,19.346,14.891,19.215z M15.366,21.582c-0.131,0.131-0.345,0.131-0.475,0
					c-0.132-0.131-0.131-0.343,0-0.474s0.344-0.132,0.475,0C15.497,21.238,15.497,21.451,15.366,21.582z M16.312,22.529
					c-0.13,0.131-0.342,0.131-0.474,0c-0.13-0.131-0.13-0.344,0-0.475c0.132-0.131,0.344-0.131,0.475,0S16.444,22.398,16.312,22.529
					z M16.313,20.636c-0.131,0.131-0.343,0.131-0.474,0c-0.131-0.132-0.131-0.344,0-0.475s0.343-0.131,0.474,0
					S16.444,20.504,16.313,20.636z M17.26,21.582c-0.132,0.131-0.344,0.131-0.475,0s-0.132-0.343,0-0.474
					c0.131-0.131,0.344-0.131,0.475,0S17.391,21.451,17.26,21.582z M16.786,19.215c0.13-0.132,0.342-0.132,0.474,0
					c0.13,0.131,0.131,0.343,0.001,0.474c-0.132,0.131-0.345,0.131-0.476,0C16.654,19.558,16.655,19.346,16.786,19.215z
					 M17.26,17.794c-0.132,0.132-0.344,0.132-0.475,0c-0.131-0.13-0.132-0.343,0-0.474c0.131-0.131,0.344-0.131,0.475,0
					S17.391,17.663,17.26,17.794z M18.206,22.529c-0.131,0.131-0.342,0.131-0.474,0c-0.131-0.131-0.131-0.344,0-0.475
					c0.132-0.131,0.343-0.131,0.474,0C18.338,22.187,18.338,22.398,18.206,22.529z M18.679,19.215c0.131-0.132,0.344-0.132,0.475,0
					c0.131,0.131,0.131,0.342,0,0.474c-0.131,0.131-0.344,0.131-0.475,0S18.548,19.346,18.679,19.215z M18.679,21.582
					c-0.131-0.131-0.131-0.343,0.001-0.474c0.13-0.131,0.343-0.131,0.474,0s0.131,0.343,0.001,0.474
					C19.023,21.713,18.81,21.714,18.679,21.582z"/>
			</g>
			<g>
				<circle fill="#FFFFFF" cx="3.764" cy="19.452" r="0.335"/>
			</g>
			<g>
				<circle fill="#FFFFFF" cx="4.712" cy="18.504" r="0.335"/>
			</g>
			<g>
				<circle fill="#FFFFFF" cx="5.659" cy="17.557" r="0.335"/>
			</g>
			<g>
				<path fill="#FFFFFF" d="M6.843,16.848c0.131-0.131,0.131-0.343,0-0.475c-0.041-0.041-0.096-0.046-0.148-0.061
					c-0.115,0.021-0.224,0.055-0.336,0.085c-0.112,0.132-0.114,0.326,0.01,0.45C6.499,16.979,6.712,16.979,6.843,16.848z"/>
			</g>
			<g>
				<circle fill="#FFFFFF" cx="3.765" cy="21.345" r="0.335"/>
			</g>
			<g>
				<circle fill="#FFFFFF" cx="4.712" cy="20.398" r="0.336"/>
			</g>
			<g>
				<circle fill="#FFFFFF" cx="5.658" cy="19.452" r="0.335"/>
			</g>
			<g>
				<circle fill="#FFFFFF" cx="6.606" cy="18.504" r="0.336"/>
			</g>
			<g>
				<circle fill="#FFFFFF" cx="7.552" cy="17.558" r="0.335"/>
			</g>
			<g>
				<circle fill="#FFFFFF" cx="8.5" cy="16.61" r="0.336"/>
			</g>
			<g>
				<circle fill="#FFFFFF" cx="6.606" cy="22.292" r="0.336"/>
			</g>
			<g>
				<circle fill="#FFFFFF" cx="7.552" cy="21.345" r="0.335"/>
			</g>
			<g>
				<circle fill="#FFFFFF" cx="8.5" cy="20.398" r="0.336"/>
			</g>
			<g>
				<circle fill="#FFFFFF" cx="9.447" cy="19.452" r="0.335"/>
			</g>
			<g>
				<circle fill="#FFFFFF" cx="10.394" cy="18.504" r="0.336"/>
			</g>
			<g>
				<circle fill="#FFFFFF" cx="11.34" cy="17.558" r="0.336"/>
			</g>
			<g>
				<circle fill="#FFFFFF" cx="12.288" cy="16.61" r="0.335"/>
			</g>
			<g>
				<circle fill="#FFFFFF" cx="4.712" cy="22.292" r="0.336"/>
			</g>
			<g>
				<circle fill="#FFFFFF" cx="5.658" cy="21.345" r="0.335"/>
			</g>
			<g>
				<circle fill="#FFFFFF" cx="6.606" cy="20.398" r="0.336"/>
			</g>
			<g>
				<circle fill="#FFFFFF" cx="7.553" cy="19.451" r="0.334"/>
			</g>
			<g>
				<circle fill="#FFFFFF" cx="8.5" cy="18.504" r="0.335"/>
			</g>
			<g>
				<circle fill="#FFFFFF" cx="9.447" cy="17.557" r="0.335"/>
			</g>
			<g>
				<circle fill="#FFFFFF" cx="10.393" cy="16.611" r="0.335"/>
			</g>
			<g>
				<circle fill="#FFFFFF" cx="8.5" cy="22.292" r="0.335"/>
			</g>
			<g>
				<circle fill="#FFFFFF" cx="9.447" cy="21.345" r="0.335"/>
			</g>
			<g>
				<circle fill="#FFFFFF" cx="10.394" cy="20.398" r="0.336"/>
			</g>
			<g>
				<circle fill="#FFFFFF" cx="11.341" cy="19.452" r="0.335"/>
			</g>
			<g>
				<circle fill="#FFFFFF" cx="12.288" cy="18.504" r="0.335"/>
			</g>
			<g>
				<circle fill="#FFFFFF" cx="13.235" cy="17.557" r="0.335"/>
			</g>
			<g>
				<circle fill="#FFFFFF" cx="14.182" cy="16.61" r="0.336"/>
			</g>
			<g>
				<circle fill="#FFFFFF" cx="10.394" cy="22.292" r="0.336"/>
			</g>
			<g>
				<circle fill="#FFFFFF" cx="11.341" cy="21.345" r="0.335"/>
			</g>
			<g>
				<circle fill="#FFFFFF" cx="12.288" cy="20.398" r="0.335"/>
			</g>
			<g>
				<circle fill="#FFFFFF" cx="13.235" cy="19.452" r="0.335"/>
			</g>
			<g>
				<circle fill="#FFFFFF" cx="14.182" cy="18.504" r="0.335"/>
			</g>
			<g>
				<circle fill="#FFFFFF" cx="15.129" cy="17.557" r="0.335"/>
			</g>
			<g>
				<path fill="#FFFFFF" d="M16.313,16.848c0.124-0.124,0.121-0.318,0.01-0.449c-0.111-0.031-0.22-0.065-0.335-0.086
					c-0.052,0.016-0.107,0.021-0.148,0.062c-0.131,0.131-0.131,0.343,0,0.474S16.182,16.979,16.313,16.848z"/>
			</g>
			<g>
				<circle fill="#FFFFFF" cx="14.182" cy="22.292" r="0.336"/>
			</g>
			<g>
				<circle fill="#FFFFFF" cx="15.129" cy="21.345" r="0.335"/>
			</g>
			<g>
				<circle fill="#FFFFFF" cx="16.076" cy="20.398" r="0.335"/>
			</g>
			<g>
				<circle fill="#FFFFFF" cx="17.024" cy="19.452" r="0.335"/>
			</g>
			<g>
				<circle fill="#FFFFFF" cx="17.969" cy="18.504" r="0.335"/>
			</g>
			<g>
				<circle fill="#FFFFFF" cx="12.288" cy="22.292" r="0.335"/>
			</g>
			<g>
				<circle fill="#FFFFFF" cx="13.235" cy="21.345" r="0.335"/>
			</g>
			<g>
				<circle fill="#FFFFFF" cx="14.181" cy="20.398" r="0.335"/>
			</g>
			<g>
				<circle fill="#FFFFFF" cx="15.128" cy="19.452" r="0.335"/>
			</g>
			<g>
				<circle fill="#FFFFFF" cx="16.076" cy="18.504" r="0.335"/>
			</g>
			<g>
				<circle fill="#FFFFFF" cx="17.023" cy="17.557" r="0.335"/>
			</g>
			<g>
				<circle fill="#FFFFFF" cx="16.075" cy="22.292" r="0.335"/>
			</g>
			<g>
				<circle fill="#FFFFFF" cx="17.023" cy="21.345" r="0.335"/>
			</g>
			<g>
				<circle fill="#FFFFFF" cx="17.969" cy="20.397" r="0.335"/>
			</g>
			<g>
				<circle fill="#FFFFFF" cx="18.916" cy="19.452" r="0.335"/>
			</g>
			<g>
				<circle fill="#FFFFFF" cx="17.969" cy="22.292" r="0.335"/>
			</g>
			<g>
				<circle fill="#FFFFFF" cx="18.916" cy="21.345" r="0.335"/>
			</g>
			<g>
				<path fill="#FFFFFF" d="M20.9,20.398c0-3.122-2.54-5.662-5.662-5.662H7.443c-3.122,0-5.662,2.54-5.662,5.662h1
					c0-2.57,2.092-4.662,4.662-4.662h7.795c2.57,0,4.662,2.092,4.662,4.662H20.9z"/>
			</g>
		</g>
		<g clip-path="url(#SVGID_2_)">
			<path fill="#FFFFFF" d="M20.9,20.398c0,3.122-2.54,5.662-5.662,5.662H7.443c-3.122,0-5.662-2.54-5.662-5.662h1
				c0,2.57,2.092,4.662,4.662,4.662h7.795c2.57,0,4.662-2.092,4.662-4.662H20.9z"/>
		</g>
	</g>
</g>
</svg>
