<?xml version="1.0" encoding="utf-8"?>
<!-- Generator: Adobe Illustrator 16.0.3, SVG Export Plug-In . SVG Version: 6.00 Build 0)  -->
<!DOCTYPE svg PUBLIC "-//W3C//DTD SVG 1.1//EN" "http://www.w3.org/Graphics/SVG/1.1/DTD/svg11.dtd">
<svg version="1.1" xmlns="http://www.w3.org/2000/svg" xmlns:xlink="http://www.w3.org/1999/xlink" x="0px" y="0px" width="22.68px"
	 height="22.68px" viewBox="0 0 22.68 22.68" enable-background="new 0 0 22.68 22.68" xml:space="preserve">
<g id="BCGRND" display="none">
</g>
<g id="IKONY">
	<rect x="0" fill="#585857" width="22.676" height="22.678"/>
	<g>
		<g>
			<g>
				<rect x="0.001" y="11.956" fill="#FFFFFF" width="22.678" height="0.889"/>
			</g>
			<g>
				<g>
					<path fill="#FFFFFF" d="M7.139,5.189c-0.142,0.072-0.454,0.146-0.85,0.146c-1.045,0-1.68-0.654-1.68-1.656
						c0-1.084,0.752-1.738,1.758-1.738c0.396,0,0.679,0.084,0.801,0.146L7.036,2.566C6.88,2.498,6.665,2.439,6.392,2.439
						c-0.669,0-1.152,0.42-1.152,1.211c0,0.723,0.425,1.188,1.147,1.188c0.244,0,0.498-0.049,0.654-0.123L7.139,5.189z"/>
					<path fill="#FFFFFF" d="M9.813,4.076c0,0.873-0.615,1.264-1.221,1.264c-0.674,0-1.191-0.463-1.191-1.225
						c0-0.781,0.513-1.26,1.23-1.26C9.34,2.855,9.813,3.354,9.813,4.076z M8.021,4.1c0,0.459,0.225,0.807,0.591,0.807
						c0.342,0,0.581-0.338,0.581-0.816c0-0.371-0.166-0.795-0.576-0.795C8.192,3.295,8.021,3.705,8.021,4.1z"/>
					<path fill="#FFFFFF" d="M10.31,3.617c0-0.273-0.005-0.504-0.02-0.709h0.518l0.024,0.352h0.015
						c0.117-0.186,0.332-0.404,0.732-0.404c0.313,0,0.557,0.176,0.659,0.439h0.01c0.083-0.133,0.181-0.23,0.293-0.299
						c0.132-0.092,0.283-0.141,0.479-0.141c0.396,0,0.796,0.268,0.796,1.029v1.402H13.23V3.973c0-0.395-0.137-0.629-0.425-0.629
						c-0.205,0-0.356,0.146-0.42,0.316c-0.015,0.059-0.029,0.133-0.029,0.201v1.426H11.77V3.91c0-0.332-0.132-0.566-0.41-0.566
						c-0.225,0-0.376,0.176-0.43,0.342c-0.024,0.059-0.034,0.127-0.034,0.195v1.406H10.31V3.617z"/>
					<path fill="#FFFFFF" d="M14.436,5.287c0.01-0.162,0.02-0.426,0.02-0.67V1.82h0.601v1.416h0.01
						c0.146-0.23,0.405-0.381,0.762-0.381c0.581,0,0.996,0.482,0.991,1.205c0,0.855-0.542,1.279-1.079,1.279
						c-0.308,0-0.581-0.117-0.752-0.41h-0.01l-0.029,0.357H14.436z M15.056,4.305c0,0.049,0.005,0.098,0.015,0.143
						c0.063,0.238,0.273,0.42,0.532,0.42c0.376,0,0.605-0.303,0.605-0.781c0-0.42-0.2-0.762-0.601-0.762
						c-0.244,0-0.464,0.176-0.532,0.439c-0.01,0.043-0.02,0.098-0.02,0.156V4.305z"/>
					<path fill="#FFFFFF" d="M17.955,2.244c0,0.182-0.132,0.322-0.342,0.322c-0.2,0-0.332-0.141-0.332-0.322
						c0-0.186,0.137-0.326,0.337-0.326C17.823,1.918,17.95,2.059,17.955,2.244z M17.316,5.287V2.908h0.605v2.379H17.316z"/>
					<path fill="#FFFFFF" d="M6.316,9.439L7.21,8.297c0.122-0.146,0.225-0.264,0.352-0.4v-0.01H6.404V7.408h1.89v0.367L7.42,8.893
						C7.302,9.035,7.19,9.172,7.068,9.299v0.01h1.255v0.479H6.316V9.439z"/>
					<path fill="#FFFFFF" d="M10.968,8.576c0,0.873-0.615,1.264-1.221,1.264c-0.674,0-1.191-0.463-1.191-1.225
						c0-0.781,0.513-1.26,1.23-1.26C10.494,7.355,10.968,7.854,10.968,8.576z M9.176,8.6c0,0.459,0.225,0.807,0.591,0.807
						c0.342,0,0.581-0.338,0.581-0.816c0-0.371-0.166-0.795-0.576-0.795C9.346,7.795,9.176,8.205,9.176,8.6z"/>
					<path fill="#FFFFFF" d="M11.464,8.117c0-0.273-0.005-0.504-0.02-0.709h0.527l0.029,0.357h0.015
						c0.103-0.186,0.361-0.41,0.757-0.41c0.415,0,0.845,0.268,0.845,1.02v1.412h-0.601V8.443c0-0.342-0.127-0.6-0.454-0.6
						c-0.239,0-0.405,0.17-0.469,0.352c-0.02,0.053-0.024,0.127-0.024,0.195v1.396h-0.605V8.117z"/>
					<path fill="#FFFFFF" d="M14.685,8.766c0.015,0.43,0.352,0.615,0.732,0.615c0.278,0,0.479-0.039,0.659-0.107l0.088,0.416
						c-0.205,0.082-0.488,0.146-0.83,0.146c-0.771,0-1.226-0.475-1.226-1.201c0-0.66,0.4-1.279,1.162-1.279
						c0.771,0,1.025,0.635,1.025,1.156c0,0.113-0.01,0.201-0.02,0.254H14.685z M15.73,8.346c0.005-0.219-0.093-0.58-0.493-0.58
						c-0.371,0-0.527,0.336-0.552,0.58H15.73z"/>
				</g>
			</g>
		</g>
		<path fill="#FFFFFF" d="M4.001,18.572c0.131-0.131,0.131-0.342,0-0.473s-0.342-0.131-0.474,0c-0.13,0.131-0.131,0.342,0,0.473
			C3.658,18.705,3.87,18.703,4.001,18.572z M4.949,17.627c0.13-0.131,0.131-0.344,0-0.475c-0.132-0.133-0.345-0.131-0.475,0
			c-0.132,0.131-0.132,0.344-0.001,0.475S4.818,17.758,4.949,17.627z M3.528,19.994c-0.13,0.131-0.13,0.342,0.001,0.473
			s0.342,0.131,0.473,0s0.132-0.342,0.001-0.473C3.871,19.861,3.659,19.861,3.528,19.994z M4.475,19.047
			c-0.131,0.129-0.132,0.342,0,0.473c0.131,0.133,0.344,0.131,0.475,0s0.131-0.342,0-0.473C4.818,18.916,4.606,18.916,4.475,19.047z
			 M5.422,18.1c-0.131,0.131-0.132,0.344-0.001,0.475c0.132,0.131,0.344,0.131,0.475-0.002c0.131-0.129,0.131-0.342,0-0.473
			S5.553,17.969,5.422,18.1z M6.843,17.627c0.131-0.131,0.131-0.344,0-0.475s-0.344-0.131-0.475,0s-0.131,0.344,0,0.475
			S6.712,17.758,6.843,17.627z M3.528,21.887c-0.131,0.131-0.13,0.344,0,0.475c0.131,0.131,0.343,0.131,0.475,0
			c0.131-0.131,0.13-0.344-0.001-0.475C3.871,21.756,3.658,21.756,3.528,21.887z M4.474,20.939c-0.131,0.131-0.13,0.344,0.001,0.475
			s0.344,0.131,0.475,0s0.131-0.344,0-0.475S4.605,20.809,4.474,20.939z M5.421,19.994c-0.13,0.129-0.13,0.342,0,0.473
			c0.132,0.131,0.345,0.131,0.475,0c0.131-0.131,0.131-0.342,0-0.473C5.765,19.861,5.553,19.861,5.421,19.994z M6.368,19.045
			c-0.131,0.131-0.131,0.344,0,0.475c0.131,0.133,0.344,0.133,0.476,0c0.13-0.131,0.13-0.344-0.001-0.475
			C6.712,18.916,6.499,18.916,6.368,19.045z M7.316,18.1c-0.132,0.131-0.131,0.344,0,0.473c0.131,0.133,0.343,0.133,0.474,0.002
			c0.132-0.131,0.132-0.344,0-0.475C7.658,17.969,7.447,17.969,7.316,18.1z M8.263,17.152c-0.132,0.131-0.131,0.344,0,0.475
			s0.344,0.131,0.475,0s0.131-0.344-0.001-0.475C8.607,17.021,8.394,17.02,8.263,17.152z M7.316,21.887
			c-0.131,0.131-0.131,0.344,0,0.475s0.344,0.131,0.474,0c0.132-0.131,0.132-0.344,0-0.475C7.658,21.756,7.447,21.756,7.316,21.887z
			 M8.263,20.939c-0.132,0.131-0.132,0.344,0,0.475c0.131,0.131,0.344,0.131,0.475,0c0.13-0.131,0.13-0.344,0-0.475
			C8.607,20.809,8.394,20.809,8.263,20.939z M9.209,19.994c-0.131,0.131-0.131,0.342,0.001,0.473c0.13,0.131,0.343,0.131,0.474,0
			s0.131-0.342,0-0.473C9.553,19.861,9.34,19.861,9.209,19.994z M10.156,19.52c0.051,0.051,0.118,0.064,0.184,0.076v-0.627
			c-0.065,0.012-0.133,0.025-0.184,0.076C10.026,19.176,10.026,19.389,10.156,19.52z M12.34,17.075v0.628
			c0.066-0.012,0.134-0.025,0.185-0.076c0.132-0.131,0.131-0.344,0-0.475C12.474,17.102,12.406,17.086,12.34,17.075z M5.421,21.887
			c-0.13,0.131-0.13,0.342,0.001,0.475c0.132,0.131,0.343,0.131,0.474,0s0.131-0.344,0-0.475S5.553,21.756,5.421,21.887z
			 M6.368,20.939c-0.131,0.131-0.131,0.344,0,0.475s0.344,0.131,0.475,0s0.131-0.344,0-0.475S6.499,20.809,6.368,20.939z
			 M7.317,19.994c-0.132,0.131-0.133,0.342-0.001,0.473c0.131,0.131,0.343,0.131,0.474,0c0.132-0.131,0.132-0.342,0-0.473
			C7.658,19.861,7.447,19.861,7.317,19.994z M8.263,19.047c-0.132,0.131-0.132,0.342,0,0.473c0.131,0.133,0.343,0.133,0.474,0
			c0.131-0.131,0.132-0.342,0-0.473C8.606,18.914,8.394,18.916,8.263,19.047z M9.21,18.1c-0.132,0.131-0.132,0.342,0,0.473
			c0.131,0.133,0.343,0.133,0.474,0c0.131-0.131,0.131-0.342,0-0.473S9.341,17.969,9.21,18.1z M10.156,17.627
			c0.051,0.051,0.118,0.064,0.184,0.076v-0.627c-0.065,0.012-0.133,0.025-0.184,0.076C10.026,17.283,10.026,17.496,10.156,17.627z
			 M9.21,21.887c-0.132,0.131-0.132,0.344-0.001,0.475s0.344,0.131,0.475,0s0.131-0.344,0-0.475S9.34,21.756,9.21,21.887z
			 M10.156,21.414c0.051,0.051,0.118,0.066,0.184,0.076v-0.627c-0.065,0.012-0.133,0.025-0.184,0.076
			C10.026,21.07,10.026,21.283,10.156,21.414z M12.34,18.969v0.628c0.066-0.011,0.134-0.026,0.185-0.077
			c0.131-0.131,0.132-0.344,0-0.475C12.474,18.994,12.406,18.98,12.34,18.969z M12.997,18.1c-0.131,0.131-0.131,0.342,0,0.473
			c0.132,0.133,0.344,0.133,0.475,0c0.131-0.131,0.131-0.342,0-0.473S13.129,17.969,12.997,18.1z M14.419,17.627
			c0.13-0.131,0.13-0.344-0.001-0.475s-0.343-0.131-0.474,0s-0.131,0.344,0,0.475S14.287,17.758,14.419,17.627z M12.34,20.863v0.627
			c0.066-0.01,0.134-0.025,0.185-0.076c0.132-0.131,0.131-0.344,0-0.475C12.474,20.889,12.406,20.875,12.34,20.863z M12.997,19.994
			c-0.13,0.131-0.131,0.342,0,0.473s0.344,0.131,0.475,0s0.131-0.344,0-0.473C13.341,19.861,13.129,19.861,12.997,19.994z
			 M13.945,19.047c-0.131,0.131-0.131,0.342,0,0.473s0.343,0.133,0.475,0c0.131-0.131,0.13-0.344,0-0.473
			C14.287,18.914,14.076,18.916,13.945,19.047z M15.366,18.572c0.131-0.129,0.13-0.342,0-0.473c-0.132-0.131-0.344-0.131-0.475,0
			s-0.132,0.344,0,0.475C15.022,18.705,15.236,18.705,15.366,18.572z M15.839,17.152c-0.131,0.131-0.131,0.344,0,0.475
			s0.343,0.131,0.474,0s0.131-0.344,0-0.475S15.97,17.021,15.839,17.152z M14.892,21.887c-0.131,0.131-0.132,0.344,0,0.475
			c0.13,0.131,0.344,0.131,0.475,0s0.131-0.344,0-0.475S15.023,21.756,14.892,21.887z M15.839,20.939
			c-0.131,0.131-0.131,0.344,0,0.475s0.343,0.131,0.474,0s0.131-0.344,0-0.475S15.97,20.809,15.839,20.939z M17.261,20.467
			c0.13-0.131,0.129-0.342-0.001-0.473c-0.132-0.133-0.344-0.133-0.474,0c-0.132,0.131-0.133,0.342-0.001,0.473
			C16.916,20.598,17.129,20.598,17.261,20.467z M17.733,19.047c-0.131,0.131-0.131,0.342,0,0.473s0.343,0.133,0.474,0
			c0.132-0.131,0.131-0.344,0-0.473C18.075,18.914,17.865,18.914,17.733,19.047z M18.68,18.1c-0.131,0.131-0.132,0.342,0,0.473
			c0.13,0.131,0.344,0.133,0.475,0c0.13-0.129,0.13-0.342,0-0.473C19.023,17.969,18.81,17.969,18.68,18.1z M12.997,21.887
			c-0.131,0.131-0.13,0.344,0,0.475c0.131,0.131,0.344,0.131,0.475,0s0.131-0.344,0-0.475S13.129,21.756,12.997,21.887z
			 M13.945,20.939c-0.131,0.131-0.131,0.344,0,0.475s0.343,0.131,0.474,0s0.132-0.344,0.001-0.475S14.075,20.809,13.945,20.939z
			 M14.892,20.467c0.131,0.131,0.343,0.131,0.474,0c0.132-0.131,0.132-0.342,0-0.473c-0.13-0.133-0.343-0.133-0.475,0
			C14.76,20.125,14.761,20.336,14.892,20.467z M16.313,19.52c0.131-0.131,0.131-0.342-0.001-0.473
			c-0.13-0.131-0.342-0.133-0.473-0.002s-0.131,0.344-0.001,0.475C15.97,19.652,16.182,19.65,16.313,19.52z M16.785,18.1
			c-0.132,0.131-0.131,0.344,0,0.473c0.131,0.133,0.343,0.133,0.475,0c0.131-0.131,0.131-0.342,0-0.473S16.916,17.969,16.785,18.1z
			 M17.733,17.152c-0.131,0.131-0.13,0.344,0,0.475c0.132,0.131,0.343,0.131,0.474,0s0.132-0.344,0-0.475
			C18.076,17.021,17.864,17.021,17.733,17.152z M16.785,21.887c-0.132,0.131-0.131,0.344,0,0.475s0.343,0.131,0.475,0
			c0.131-0.131,0.131-0.344,0-0.475S16.916,21.756,16.785,21.887z M17.733,20.939c-0.131,0.131-0.131,0.344,0,0.475
			s0.343,0.131,0.474,0s0.131-0.344,0-0.475S17.864,20.809,17.733,20.939z M19.154,20.467c0.131-0.131,0.131-0.342,0-0.473
			c-0.131-0.133-0.344-0.133-0.475,0c-0.131,0.131-0.131,0.342,0,0.473S19.023,20.598,19.154,20.467z M18.68,21.887
			c-0.132,0.131-0.132,0.344-0.001,0.475s0.344,0.131,0.476,0c0.13-0.131,0.13-0.344-0.001-0.475S18.81,21.756,18.68,21.887z
			 M20.9,22.68v-5.814c0-0.041-0.02-0.075-0.023-0.115c-0.02-0.217-0.092-0.412-0.202-0.587c-0.135-0.214-0.314-0.393-0.543-0.503
			c-0.178-0.087-0.371-0.145-0.582-0.145H3.131c-0.211,0-0.403,0.057-0.581,0.143c-0.229,0.111-0.409,0.291-0.544,0.504
			c-0.109,0.176-0.183,0.37-0.202,0.588c-0.004,0.039-0.023,0.074-0.023,0.115v5.814l1-0.002v-5.813c0-0.193,0.157-0.35,0.351-0.35
			h16.418c0.193,0,0.351,0.156,0.351,0.35v5.813L20.9,22.68z M10.84,22.547h1V21.51h-1V22.547z M10.84,20.475h1v-1.036h-1V20.475z
			 M10.84,18.402h1v-1.036h-1V18.402z"/>
	</g>
</g>
</svg>
