<?xml version="1.0" encoding="utf-8"?>
<!-- Generator: Adobe Illustrator 16.0.3, SVG Export Plug-In . SVG Version: 6.00 Build 0)  -->
<!DOCTYPE svg PUBLIC "-//W3C//DTD SVG 1.1//EN" "http://www.w3.org/Graphics/SVG/1.1/DTD/svg11.dtd">
<svg version="1.1" xmlns="http://www.w3.org/2000/svg" xmlns:xlink="http://www.w3.org/1999/xlink" x="0px" y="0px" width="22.68px"
	 height="22.68px" viewBox="0 0 22.68 22.68" enable-background="new 0 0 22.68 22.68" xml:space="preserve">
<g id="BCGRND" display="none">
</g>
<g id="IKONY">
	<g>
		<defs>
			<rect id="SVGID_9_" width="22.676" height="22.678"/>
		</defs>
		<clipPath id="SVGID_2_">
			<use xlink:href="#SVGID_9_"  overflow="visible"/>
		</clipPath>
		<rect clip-path="url(#SVGID_2_)" fill="#585857" width="22.676" height="22.678"/>
		<g clip-path="url(#SVGID_2_)">
			<g>
				<rect x="0.001" y="11.956" fill="#FFFFFF" width="22.678" height="0.889"/>
			</g>
			<g>
				<path fill="#FFFFFF" d="M5.543,2.498H4.605V1.995h2.485v0.503H6.144v2.788H5.543V2.498z"/>
				<path fill="#FFFFFF" d="M7.211,3.675c0-0.322-0.005-0.557-0.02-0.767h0.518l0.024,0.449h0.015
					c0.117-0.332,0.396-0.503,0.654-0.503c0.059,0,0.093,0.005,0.142,0.015v0.562C8.49,3.421,8.437,3.416,8.363,3.416
					c-0.283,0-0.483,0.181-0.537,0.454c-0.01,0.054-0.015,0.117-0.015,0.181v1.235H7.211V3.675z"/>
				<path fill="#FFFFFF" d="M11.168,4.075c0,0.874-0.615,1.265-1.221,1.265c-0.669,0-1.191-0.459-1.191-1.226
					c0-0.781,0.513-1.26,1.23-1.26C10.694,2.854,11.168,3.353,11.168,4.075z M9.376,4.1c0,0.459,0.229,0.806,0.591,0.806
					c0.342,0,0.581-0.332,0.581-0.815c0-0.371-0.166-0.801-0.576-0.801C9.547,3.289,9.376,3.704,9.376,4.1z"/>
				<path fill="#FFFFFF" d="M11.138,5.857c0.195-0.015,0.352-0.068,0.449-0.171c0.112-0.122,0.156-0.308,0.156-0.825V2.908h0.601
					v2.124c0,0.493-0.098,0.801-0.313,1.016c-0.205,0.195-0.537,0.278-0.835,0.278L11.138,5.857z M12.383,2.244
					c0,0.176-0.127,0.322-0.342,0.322c-0.205,0-0.332-0.146-0.332-0.322c0-0.186,0.137-0.327,0.342-0.327
					C12.251,1.917,12.378,2.059,12.383,2.244z"/>
				<path fill="#FFFFFF" d="M13.625,2.244c0,0.176-0.132,0.322-0.342,0.322c-0.2,0-0.332-0.146-0.332-0.322
					c0-0.186,0.137-0.327,0.337-0.327C13.493,1.917,13.62,2.059,13.625,2.244z M12.985,5.286V2.908h0.601v2.378H12.985z"/>
				<path fill="#FFFFFF" d="M14.925,2.298v0.61h0.571v0.449h-0.571v1.05c0,0.293,0.078,0.439,0.308,0.439
					c0.107,0,0.166-0.005,0.234-0.024l0.01,0.454c-0.088,0.034-0.249,0.063-0.435,0.063c-0.225,0-0.405-0.073-0.518-0.195
					c-0.132-0.137-0.19-0.356-0.19-0.669V3.357h-0.337V2.908h0.337V2.464L14.925,2.298z"/>
				<path fill="#FFFFFF" d="M17.798,4.715c0,0.215,0.01,0.425,0.039,0.571h-0.542l-0.044-0.264h-0.015
					c-0.142,0.186-0.391,0.317-0.703,0.317c-0.479,0-0.747-0.347-0.747-0.708c0-0.596,0.532-0.903,1.411-0.898V3.694
					c0-0.156-0.063-0.415-0.483-0.415c-0.234,0-0.479,0.073-0.64,0.176l-0.117-0.391c0.176-0.107,0.483-0.21,0.859-0.21
					c0.762,0,0.981,0.483,0.981,1.006V4.715z M17.212,4.124c-0.425-0.005-0.83,0.083-0.83,0.444c0,0.234,0.151,0.342,0.342,0.342
					c0.244,0,0.415-0.156,0.474-0.327c0.015-0.044,0.015-0.088,0.015-0.132V4.124z M17.578,1.878l-0.596,0.723h-0.415l0.425-0.723
					H17.578z"/>
				<path fill="#FFFFFF" d="M6.336,9.439l0.894-1.143c0.122-0.146,0.225-0.264,0.347-0.4v-0.01H6.424V7.408h1.885v0.366L7.439,8.893
					C7.322,9.034,7.21,9.171,7.088,9.298v0.01h1.25v0.479H6.336V9.439z"/>
				<path fill="#FFFFFF" d="M10.987,8.575c0,0.874-0.615,1.265-1.221,1.265c-0.669,0-1.191-0.459-1.191-1.226
					c0-0.781,0.513-1.26,1.23-1.26C10.514,7.354,10.987,7.853,10.987,8.575z M9.195,8.6c0,0.459,0.229,0.806,0.591,0.806
					c0.342,0,0.581-0.332,0.581-0.815c0-0.371-0.166-0.801-0.576-0.801C9.366,7.789,9.195,8.204,9.195,8.6z M10.494,6.378
					L9.898,7.101H9.483l0.425-0.723H10.494z"/>
				<path fill="#FFFFFF" d="M11.484,8.116c0-0.273-0.01-0.503-0.02-0.708h0.522l0.029,0.356h0.015
					c0.107-0.186,0.366-0.41,0.762-0.41c0.415,0,0.845,0.269,0.845,1.021v1.411h-0.601V8.443c0-0.342-0.127-0.601-0.454-0.601
					c-0.239,0-0.405,0.171-0.469,0.352c-0.02,0.049-0.029,0.122-0.029,0.19v1.401h-0.601V8.116z"/>
				<path fill="#FFFFFF" d="M16.126,9.215c0,0.215,0.01,0.425,0.039,0.571h-0.542l-0.044-0.264h-0.015
					c-0.142,0.186-0.391,0.317-0.703,0.317c-0.479,0-0.747-0.347-0.747-0.708c0-0.596,0.532-0.903,1.411-0.898V8.194
					c0-0.156-0.063-0.415-0.483-0.415c-0.234,0-0.479,0.073-0.64,0.176l-0.117-0.391c0.176-0.107,0.483-0.21,0.859-0.21
					c0.762,0,0.981,0.483,0.981,1.006V9.215z M15.54,8.624c-0.425-0.005-0.83,0.083-0.83,0.444c0,0.234,0.151,0.342,0.342,0.342
					c0.244,0,0.415-0.156,0.474-0.327c0.015-0.044,0.015-0.088,0.015-0.132V8.624z"/>
			</g>
			<g>
				<path fill="#FFFFFF" d="M3.413,19.954c-0.054,0.14-0.107,0.281-0.154,0.424c0.053-0.008,0.108-0.021,0.149-0.063
					C3.509,20.216,3.507,20.058,3.413,19.954 M4.146,19.577c0.103-0.104,0.103-0.268,0-0.37c-0.102-0.101-0.266-0.101-0.367,0
					c-0.104,0.103-0.104,0.268,0,0.37C3.879,19.679,4.043,19.679,4.146,19.577 M4.884,18.839c0.102-0.102,0.104-0.267,0-0.37
					c-0.101-0.101-0.267-0.101-0.369,0c-0.103,0.104-0.103,0.269,0,0.37C4.617,18.942,4.783,18.941,4.884,18.839 M5.622,18.102
					c0.102-0.103,0.102-0.268,0-0.37c-0.101-0.102-0.267-0.103-0.369,0c-0.101,0.103-0.101,0.269,0,0.37
					C5.354,18.203,5.521,18.203,5.622,18.102 M6.361,17.363c0.101-0.103,0.101-0.267,0-0.369c-0.102-0.102-0.268-0.102-0.369,0
					c-0.104,0.103-0.104,0.267,0,0.369C6.093,17.466,6.257,17.466,6.361,17.363 M7.097,16.625c0.104-0.101,0.104-0.268,0-0.369
					c-0.1-0.103-0.266-0.103-0.369,0c-0.102,0.102-0.102,0.269,0,0.369C6.831,16.728,6.996,16.727,7.097,16.625 M7.836,15.888
					c0.1-0.103,0.1-0.267,0-0.37c-0.103-0.101-0.269-0.101-0.371,0c-0.101,0.104-0.101,0.268,0,0.37
					C7.567,15.99,7.733,15.99,7.836,15.888 M8.574,15.149c0.043-0.041,0.054-0.097,0.062-0.15c-0.142,0.049-0.283,0.101-0.424,0.155
					C8.315,15.248,8.474,15.25,8.574,15.149 M3.04,22.895c-0.103,0.104-0.103,0.27-0.002,0.373c0.104,0.101,0.27,0.101,0.372-0.001
					c0.101-0.103,0.101-0.268,0-0.372C3.308,22.795,3.142,22.795,3.04,22.895 M4.146,22.528c0.103-0.103,0.103-0.267,0-0.369
					c-0.102-0.103-0.266-0.103-0.367,0c-0.104,0.103-0.104,0.267,0,0.368C3.879,22.631,4.043,22.631,4.146,22.528 M4.729,21.855
					c0.029-0.154,0.066-0.306,0.105-0.455c-0.101-0.064-0.232-0.066-0.32,0.021c-0.103,0.101-0.103,0.267,0,0.368
					C4.574,21.851,4.654,21.864,4.729,21.855 M9.681,16.256c-0.09,0.089-0.086,0.219-0.021,0.32c0.148-0.04,0.3-0.076,0.455-0.104
					c0.007-0.077-0.006-0.156-0.065-0.216C9.947,16.153,9.781,16.153,9.681,16.256 M10.787,15.888c0.103-0.103,0.103-0.267,0-0.37
					c-0.102-0.101-0.266-0.101-0.368,0c-0.103,0.104-0.103,0.268,0,0.37C10.521,15.99,10.685,15.99,10.787,15.888 M11.524,15.149
					c0.101-0.102,0.101-0.267,0-0.369c-0.102-0.103-0.268-0.102-0.369,0.001c-0.102,0.102-0.102,0.267,0,0.368
					C11.257,15.253,11.422,15.253,11.524,15.149 M3.04,21.422c-0.103,0.102-0.103,0.267,0,0.368c0.102,0.103,0.268,0.103,0.37,0
					c0.101-0.102,0.101-0.268,0-0.368C3.308,21.319,3.142,21.319,3.04,21.422 M4.146,21.054c0.103-0.103,0.103-0.269,0.002-0.37
					c-0.104-0.102-0.268-0.102-0.369,0c-0.104,0.102-0.104,0.268,0,0.369C3.879,21.155,4.043,21.155,4.146,21.054 M4.515,19.945
					c-0.102,0.103-0.103,0.268,0,0.369c0.102,0.103,0.268,0.103,0.369,0c0.104-0.102,0.102-0.267,0-0.368
					C4.783,19.843,4.617,19.843,4.515,19.945 M5.252,19.207c-0.101,0.103-0.101,0.268,0,0.371c0.096,0.097,0.248,0.095,0.352,0.006
					c0.016-0.023,0.029-0.05,0.045-0.076c0.053-0.099,0.055-0.219-0.028-0.301C5.521,19.106,5.354,19.106,5.252,19.207
					 M6.093,18.881c0.094-0.115,0.195-0.229,0.297-0.34c-0.012-0.023-0.01-0.051-0.029-0.07c-0.104-0.103-0.268-0.103-0.369,0
					c-0.104,0.102-0.104,0.267,0,0.368C6.019,18.867,6.058,18.869,6.093,18.881 M6.729,17.731c-0.104,0.103-0.104,0.268,0,0.37
					c0.019,0.02,0.047,0.018,0.07,0.03c0.112-0.103,0.225-0.203,0.34-0.298c-0.014-0.035-0.014-0.073-0.043-0.103
					C6.996,17.629,6.831,17.629,6.729,17.731 M7.767,17.392c0.025-0.016,0.053-0.031,0.076-0.046
					c0.088-0.104,0.09-0.254-0.006-0.352c-0.103-0.102-0.269-0.102-0.371,0.001c-0.101,0.102-0.101,0.266,0,0.368
					C7.55,17.445,7.667,17.444,7.767,17.392 M8.574,16.625c0.101-0.101,0.101-0.268,0-0.369c-0.102-0.103-0.266-0.103-0.369,0
					c-0.104,0.103-0.104,0.269,0,0.369C8.306,16.727,8.472,16.728,8.574,16.625 M9.312,15.888c0.103-0.103,0.101-0.267,0-0.37
					c-0.102-0.101-0.268-0.101-0.369,0c-0.102,0.104-0.104,0.268,0,0.37C9.043,15.99,9.209,15.99,9.312,15.888 M10.05,15.149
					c0.102-0.102,0.102-0.267,0-0.368c-0.103-0.103-0.267-0.103-0.369,0c-0.103,0.102-0.103,0.267,0,0.368
					C9.781,15.253,9.947,15.253,10.05,15.149 M3.04,24.372c-0.103,0.103-0.103,0.269,0,0.37c0.102,0.102,0.268,0.102,0.37,0
					c0.101-0.102,0.101-0.268,0-0.37C3.308,24.27,3.142,24.27,3.04,24.372 M3.779,23.636c-0.104,0.102-0.104,0.267,0,0.368
					c0.101,0.103,0.265,0.103,0.369,0c0.101-0.102,0.101-0.267,0-0.368C4.043,23.532,3.879,23.532,3.779,23.636 M4.624,23.312
					c-0.002-0.076-0.011-0.153-0.011-0.229c0-0.078,0.009-0.153,0.011-0.231c-0.037,0.013-0.078,0.016-0.109,0.046
					c-0.103,0.103-0.103,0.268,0,0.371C4.545,23.297,4.586,23.301,4.624,23.312 M6.774,20.665c-0.041,0.075-0.074,0.152-0.112,0.229
					c0.006,0.057,0.022,0.116,0.065,0.159c0.103,0.102,0.268,0.102,0.369-0.001c0.104-0.102,0.104-0.268,0-0.369
					C7.009,20.595,6.875,20.598,6.774,20.665 M7.836,20.314c0.1-0.102,0.1-0.267,0-0.369c-0.103-0.103-0.269-0.103-0.371,0.001
					c-0.101,0.102-0.101,0.267,0,0.368C7.567,20.417,7.733,20.417,7.836,20.314 M8.574,19.577c0.101-0.104,0.101-0.268,0-0.37
					c-0.102-0.101-0.266-0.101-0.369,0c-0.104,0.103-0.104,0.268,0,0.37C8.308,19.679,8.472,19.679,8.574,19.577 M9.312,18.839
					c0.103-0.102,0.103-0.267,0-0.37c-0.043-0.043-0.102-0.058-0.158-0.064c-0.078,0.036-0.155,0.07-0.231,0.111
					c-0.068,0.102-0.07,0.234,0.02,0.323C9.043,18.942,9.209,18.941,9.312,18.839 M11.156,16.256
					c-0.032,0.03-0.034,0.072-0.045,0.109c0.076-0.002,0.152-0.013,0.23-0.013c0.078,0,0.153,0.011,0.229,0.013
					c-0.012-0.037-0.014-0.079-0.045-0.109C11.422,16.153,11.257,16.153,11.156,16.256 M12.263,15.888
					c0.102-0.103,0.104-0.267,0-0.37c-0.101-0.101-0.267-0.101-0.369,0c-0.102,0.104-0.102,0.268,0,0.37S12.162,15.99,12.263,15.888
					 M13,15.149c0.102-0.102,0.102-0.267,0-0.368c-0.101-0.103-0.267-0.103-0.369,0c-0.103,0.102-0.103,0.267,0,0.368
					C12.733,15.253,12.899,15.253,13,15.149 M3.259,25.784c0.047,0.145,0.098,0.285,0.154,0.425
					c0.094-0.103,0.096-0.262-0.003-0.361C3.367,25.806,3.312,25.793,3.259,25.784 M3.779,25.11c-0.104,0.102-0.104,0.268,0,0.368
					c0.101,0.103,0.265,0.104,0.369,0.002c0.101-0.103,0.101-0.269-0.002-0.37C4.043,25.008,3.879,25.008,3.779,25.11 M4.834,24.764
					c-0.039-0.149-0.076-0.301-0.105-0.455c-0.076-0.01-0.156,0.003-0.215,0.063c-0.103,0.103-0.103,0.269,0,0.37
					C4.603,24.829,4.731,24.827,4.834,24.764 M6.185,22.824C6.181,22.91,6.17,22.995,6.17,23.082s0.01,0.171,0.014,0.258
					c0.064-0.002,0.127-0.023,0.176-0.072c0.101-0.104,0.101-0.269,0-0.373C6.312,22.848,6.249,22.826,6.185,22.824 M6.728,22.159
					c-0.102,0.103-0.102,0.268,0,0.369c0.103,0.103,0.269,0.103,0.369,0c0.104-0.102,0.104-0.267,0-0.369
					C6.996,22.057,6.831,22.057,6.728,22.159 M7.466,21.421c-0.101,0.102-0.101,0.268,0,0.369c0.102,0.103,0.268,0.103,0.371,0
					c0.1-0.102,0.1-0.268,0-0.369C7.733,21.319,7.567,21.319,7.466,21.421 M8.574,21.054c0.101-0.103,0.101-0.269,0-0.37
					c-0.102-0.102-0.268-0.102-0.369,0c-0.104,0.102-0.104,0.268,0,0.369C8.306,21.155,8.472,21.155,8.574,21.054 M9.312,20.314
					c0.103-0.102,0.103-0.267,0-0.369c-0.102-0.103-0.268-0.104-0.369,0c-0.104,0.103-0.102,0.268,0,0.369
					C9.043,20.417,9.209,20.417,9.312,20.314 M10.05,19.578c0.102-0.104,0.102-0.269,0-0.371c-0.103-0.101-0.269-0.101-0.371,0
					c-0.101,0.103-0.101,0.268,0,0.37C9.781,19.679,9.947,19.679,10.05,19.578 M10.787,18.839c0.103-0.102,0.103-0.267,0-0.37
					c-0.102-0.101-0.266-0.102-0.368,0c-0.103,0.104-0.103,0.269,0,0.37C10.521,18.941,10.685,18.942,10.787,18.839 M11.526,18.102
					c0.049-0.048,0.07-0.111,0.072-0.177c-0.088-0.003-0.172-0.013-0.258-0.013c-0.088,0-0.172,0.01-0.258,0.013
					c0.002,0.065,0.024,0.129,0.071,0.177C11.257,18.203,11.422,18.203,11.526,18.102 M12.632,16.256
					c-0.06,0.06-0.074,0.139-0.064,0.216c0.154,0.028,0.304,0.064,0.453,0.104c0.064-0.101,0.068-0.231-0.02-0.32
					C12.899,16.153,12.733,16.153,12.632,16.256 M13.74,15.888c0.101-0.103,0.099-0.267-0.002-0.37
					c-0.102-0.101-0.268-0.101-0.369,0c-0.102,0.104-0.102,0.268,0,0.37C13.47,15.99,13.636,15.99,13.74,15.888 M14.468,15.154
					c-0.139-0.056-0.281-0.106-0.424-0.155c0.008,0.055,0.02,0.109,0.063,0.15C14.206,15.25,14.365,15.248,14.468,15.154
					 M4.515,27.324c-0.103,0.101-0.103,0.267,0,0.369c0.102,0.103,0.268,0.103,0.369,0.001c0.104-0.104,0.104-0.27,0.002-0.37
					C4.783,27.221,4.617,27.221,4.515,27.324 M5.622,26.955c0.084-0.083,0.081-0.201,0.03-0.299
					c-0.016-0.025-0.031-0.053-0.047-0.077c-0.104-0.088-0.254-0.092-0.352,0.006c-0.101,0.102-0.101,0.268,0,0.37
					C5.354,27.057,5.521,27.057,5.622,26.955 M6.728,25.11c-0.043,0.043-0.059,0.101-0.065,0.157
					c0.038,0.078,0.071,0.156,0.112,0.231c0.101,0.067,0.234,0.07,0.322-0.019c0.104-0.103,0.104-0.269,0-0.37
					C6.996,25.008,6.831,25.008,6.728,25.11 M7.466,24.372c-0.101,0.103-0.101,0.269,0,0.37c0.102,0.102,0.268,0.102,0.371,0
					c0.1-0.102,0.1-0.268,0-0.37C7.733,24.27,7.567,24.27,7.466,24.372 M9.856,22.085c-0.082,0.123-0.145,0.259-0.194,0.402
					c0.008,0.013,0.006,0.03,0.018,0.041c0.1,0.103,0.266,0.103,0.369,0c0.102-0.102,0.102-0.267,0-0.369
					C9.997,22.106,9.927,22.083,9.856,22.085 M10.746,21.404c-0.143,0.05-0.28,0.112-0.403,0.194
					c-0.002,0.07,0.022,0.14,0.076,0.191c0.102,0.103,0.266,0.103,0.368,0c0.103-0.102,0.103-0.268,0-0.368
					C10.776,21.41,10.759,21.413,10.746,21.404 M13,19.577c0.102-0.103,0.102-0.268,0-0.369c-0.101-0.102-0.267-0.102-0.369-0.001
					c-0.103,0.103-0.103,0.268,0,0.371C12.733,19.679,12.899,19.679,13,19.577 M13.74,18.839c0.088-0.089,0.086-0.222,0.017-0.323
					c-0.074-0.041-0.152-0.075-0.23-0.111c-0.057,0.007-0.115,0.021-0.158,0.064c-0.102,0.104-0.102,0.269,0,0.37
					C13.47,18.941,13.636,18.941,13.74,18.839 M14.845,16.994c-0.099,0.098-0.096,0.248-0.008,0.352
					c0.026,0.016,0.051,0.03,0.078,0.047c0.098,0.052,0.215,0.055,0.299-0.029c0.102-0.103,0.102-0.267,0-0.368
					C15.113,16.893,14.949,16.893,14.845,16.994 M15.953,16.625c0.101-0.101,0.101-0.268,0-0.369c-0.102-0.103-0.268-0.103-0.37,0
					c-0.103,0.102-0.103,0.269,0,0.369C15.685,16.727,15.851,16.728,15.953,16.625 M3.779,26.586c-0.104,0.101-0.104,0.267,0,0.369
					c0.101,0.102,0.265,0.102,0.367,0c0.103-0.103,0.103-0.269,0.002-0.37C4.043,26.482,3.879,26.484,3.779,26.586 M4.884,26.217
					c0.104-0.102,0.104-0.267,0-0.369c-0.101-0.102-0.267-0.102-0.369,0c-0.103,0.103-0.103,0.268,0,0.369
					C4.617,26.32,4.783,26.32,4.884,26.217 M6.728,23.636c-0.102,0.102-0.102,0.265,0.002,0.368c0.101,0.103,0.266,0.103,0.367,0
					c0.104-0.102,0.104-0.267,0-0.368C6.996,23.532,6.831,23.532,6.728,23.636 M7.836,23.268c0.1-0.104,0.1-0.269,0-0.371
					c-0.103-0.102-0.269-0.102-0.371,0c-0.101,0.103-0.101,0.268,0,0.371C7.567,23.368,7.733,23.368,7.836,23.268 M11.524,19.577
					c0.101-0.104,0.101-0.268,0-0.37c-0.102-0.101-0.268-0.101-0.369,0c-0.102,0.103-0.102,0.267,0,0.37
					C11.257,19.679,11.422,19.679,11.524,19.577 M12.263,18.839c0.102-0.102,0.102-0.267,0-0.368
					c-0.101-0.103-0.267-0.103-0.369-0.002c-0.102,0.104-0.104,0.269,0,0.37C11.996,18.942,12.162,18.941,12.263,18.839
					 M14.476,16.625c0.103-0.101,0.103-0.267,0-0.369c-0.102-0.103-0.268-0.103-0.369,0c-0.102,0.103-0.102,0.269,0,0.369
					C14.208,16.728,14.374,16.728,14.476,16.625 M15.213,15.888c0.102-0.103,0.102-0.267,0-0.37c-0.101-0.101-0.265-0.101-0.369,0
					c-0.101,0.104-0.101,0.268,0,0.37C14.949,15.99,15.113,15.99,15.213,15.888 M5.252,28.061c-0.101,0.104-0.101,0.268,0,0.37
					c0.102,0.103,0.268,0.103,0.369,0c0.102-0.103,0.104-0.267,0-0.37C5.521,27.96,5.354,27.96,5.252,28.061 M6.361,27.693
					c0.019-0.021,0.017-0.05,0.029-0.072c-0.102-0.111-0.203-0.224-0.297-0.34c-0.035,0.013-0.074,0.014-0.101,0.043
					c-0.104,0.101-0.104,0.267,0,0.369C6.093,27.796,6.257,27.796,6.361,27.693 M7.466,25.848c-0.101,0.103-0.101,0.268,0,0.369
					c0.102,0.104,0.268,0.104,0.371,0c0.1-0.102,0.1-0.267,0-0.369C7.733,25.746,7.567,25.746,7.466,25.848 M8.205,25.11
					c-0.104,0.102-0.104,0.268,0,0.368c0.103,0.103,0.267,0.103,0.369,0.002c0.101-0.103,0.101-0.269,0-0.37
					C8.472,25.008,8.306,25.008,8.205,25.11 M9.681,23.636c-0.012,0.009-0.01,0.027-0.018,0.041
					c0.051,0.142,0.112,0.278,0.194,0.401c0.07,0.002,0.14-0.021,0.193-0.074c0.102-0.102,0.102-0.267,0-0.368
					C9.947,23.532,9.781,23.532,9.681,23.636 M10.418,22.896c-0.103,0.103-0.103,0.268,0,0.371c0.102,0.101,0.266,0.101,0.368,0
					c0.103-0.104,0.103-0.269,0-0.371C10.685,22.795,10.521,22.795,10.418,22.896 M11.156,22.159c-0.102,0.103-0.102,0.267,0,0.369
					c0.101,0.103,0.267,0.103,0.369,0c0.101-0.103,0.101-0.267,0-0.369C11.422,22.057,11.257,22.057,11.156,22.159 M12.263,21.79
					c0.053-0.052,0.076-0.121,0.074-0.191c-0.123-0.083-0.259-0.145-0.402-0.194c-0.014,0.009-0.029,0.006-0.041,0.018
					c-0.102,0.101-0.104,0.267,0,0.368C11.996,21.893,12.162,21.893,12.263,21.79 M13.74,20.314
					c0.099-0.102,0.099-0.267-0.002-0.368c-0.102-0.104-0.268-0.104-0.369-0.001c-0.102,0.103-0.102,0.268,0,0.369
					C13.47,20.417,13.636,20.417,13.74,20.314 M14.106,19.207c-0.102,0.103-0.102,0.267,0,0.37c0.101,0.102,0.267,0.102,0.369,0
					c0.103-0.103,0.103-0.268,0-0.37C14.374,19.106,14.208,19.106,14.106,19.207 M15.583,17.731
					c-0.029,0.029-0.031,0.067-0.043,0.103c0.116,0.095,0.229,0.195,0.34,0.298c0.024-0.013,0.051-0.011,0.073-0.03
					c0.101-0.103,0.101-0.268,0-0.37C15.849,17.629,15.685,17.629,15.583,17.731 M16.69,17.363c0.101-0.103,0.101-0.267,0-0.369
					c-0.104-0.102-0.268-0.102-0.371,0c-0.1,0.103-0.1,0.267,0,0.369C16.422,17.466,16.586,17.466,16.69,17.363 M5.992,28.8
					c-0.104,0.102-0.104,0.268,0,0.37c0.101,0.1,0.267,0.1,0.369,0c0.101-0.103,0.101-0.269,0-0.371
					C6.259,28.696,6.093,28.697,5.992,28.8 M7.097,28.431c0.029-0.028,0.029-0.066,0.043-0.103c-0.115-0.094-0.228-0.195-0.34-0.297
					c-0.023,0.014-0.051,0.011-0.07,0.029c-0.104,0.104-0.104,0.268,0,0.37C6.831,28.533,6.996,28.533,7.097,28.431 M8.205,26.586
					c-0.104,0.101-0.104,0.267,0,0.369c0.101,0.102,0.267,0.102,0.369,0c0.101-0.103,0.101-0.269,0-0.369
					C8.472,26.484,8.308,26.484,8.205,26.586 M8.942,25.849c-0.102,0.102-0.102,0.267,0,0.368c0.101,0.104,0.267,0.104,0.369,0.001
					c0.101-0.102,0.103-0.268,0-0.37C9.209,25.746,9.043,25.746,8.942,25.849 M10.418,24.372c-0.054,0.053-0.078,0.123-0.076,0.192
					c0.123,0.083,0.26,0.145,0.404,0.194c0.012-0.008,0.03-0.005,0.04-0.017c0.103-0.102,0.103-0.268,0-0.37
					C10.685,24.27,10.521,24.271,10.418,24.372 M11.156,23.636c-0.102,0.102-0.102,0.267,0,0.368c0.101,0.103,0.267,0.103,0.369,0
					c0.101-0.102,0.101-0.267,0-0.368C11.422,23.532,11.257,23.532,11.156,23.636 M11.894,22.896c-0.102,0.103-0.102,0.268,0,0.371
					c0.102,0.101,0.268,0.101,0.369,0c0.104-0.104,0.102-0.269,0-0.371C12.162,22.795,11.996,22.795,11.894,22.896 M12.632,22.159
					c-0.101,0.103-0.103,0.268,0,0.369c0.102,0.103,0.268,0.103,0.369,0c0.012-0.011,0.008-0.028,0.016-0.04
					c-0.049-0.144-0.111-0.28-0.193-0.403C12.752,22.083,12.685,22.106,12.632,22.159 M14.476,21.053
					c0.103-0.102,0.103-0.268,0-0.369c-0.102-0.102-0.268-0.102-0.369,0c-0.102,0.102-0.102,0.268,0,0.37
					C14.208,21.155,14.374,21.155,14.476,21.053 M14.845,19.946c-0.101,0.102-0.101,0.267,0,0.368c0.104,0.103,0.268,0.103,0.369,0
					c0.102-0.102,0.102-0.267,0-0.368C15.113,19.843,14.949,19.843,14.845,19.946 M16.32,18.471c-0.02,0.02-0.016,0.047-0.03,0.071
					c0.102,0.11,0.204,0.224,0.297,0.339c0.035-0.013,0.075-0.014,0.104-0.042c0.101-0.102,0.101-0.267,0-0.368
					C16.586,18.368,16.422,18.368,16.32,18.471 M17.429,18.102c0.1-0.102,0.1-0.268,0-0.37c-0.103-0.103-0.269-0.102-0.371,0
					c-0.102,0.103-0.103,0.268,0,0.37C17.16,18.202,17.326,18.203,17.429,18.102 M7.466,30.275c-0.101,0.102-0.101,0.268,0,0.368
					c0.102,0.103,0.268,0.103,0.371,0c0.1-0.101,0.1-0.267,0-0.368C7.733,30.172,7.567,30.172,7.466,30.275 M8.205,29.537
					c-0.104,0.103-0.104,0.268,0,0.37c0.101,0.103,0.267,0.103,0.369,0c0.101-0.103,0.101-0.269,0-0.37
					C8.472,29.436,8.308,29.436,8.205,29.537 M10.418,27.324c-0.103,0.101-0.103,0.267,0,0.369c0.102,0.102,0.266,0.103,0.368,0.001
					c0.103-0.104,0.103-0.27,0-0.37C10.685,27.221,10.521,27.222,10.418,27.324 M11.156,26.586c-0.102,0.101-0.102,0.267,0,0.369
					c0.101,0.102,0.267,0.102,0.369,0c0.101-0.103,0.101-0.269,0-0.369C11.422,26.484,11.257,26.484,11.156,26.586 M14.845,22.896
					c-0.101,0.103-0.101,0.268,0,0.371c0.104,0.101,0.268,0.101,0.369,0c0.102-0.104,0.102-0.269,0-0.371
					C15.113,22.795,14.949,22.795,14.845,22.896 M15.583,22.159c-0.103,0.103-0.103,0.268,0,0.369c0.102,0.103,0.268,0.103,0.37,0
					c0.101-0.102,0.101-0.267,0-0.369C15.849,22.057,15.685,22.057,15.583,22.159 M17.795,19.946c-0.101,0.102-0.101,0.267,0,0.368
					c0.102,0.103,0.268,0.103,0.369,0c0.104-0.102,0.104-0.267,0-0.368C18.063,19.843,17.897,19.843,17.795,19.946 M18.535,19.207
					c-0.104,0.103-0.104,0.267,0,0.37c0.101,0.102,0.267,0.102,0.369,0c0.101-0.103,0.101-0.268,0-0.37
					C18.802,19.106,18.636,19.106,18.535,19.207 M6.728,29.537c-0.102,0.102-0.102,0.268,0,0.37c0.103,0.103,0.268,0.103,0.369,0
					c0.104-0.103,0.104-0.269,0-0.37C6.997,29.436,6.831,29.436,6.728,29.537 M7.836,29.168c0.096-0.096,0.094-0.248,0.006-0.351
					c-0.025-0.016-0.051-0.031-0.078-0.048c-0.098-0.051-0.217-0.054-0.299,0.029c-0.101,0.103-0.101,0.269,0,0.369
					C7.567,29.27,7.733,29.27,7.836,29.168 M8.942,27.324c-0.09,0.089-0.086,0.222-0.02,0.322c0.076,0.04,0.153,0.075,0.231,0.113
					c0.056-0.007,0.115-0.023,0.158-0.066c0.103-0.103,0.101-0.269,0-0.369C9.209,27.222,9.043,27.221,8.942,27.324 M9.679,26.586
					c-0.101,0.101-0.101,0.267,0.002,0.369c0.102,0.102,0.266,0.102,0.369,0c0.102-0.103,0.102-0.269,0-0.37
					C9.947,26.484,9.781,26.484,9.679,26.586 M11.894,24.372c-0.104,0.103-0.102,0.269,0,0.37c0.012,0.012,0.027,0.009,0.041,0.017
					c0.143-0.05,0.279-0.111,0.402-0.194c0.002-0.069-0.021-0.14-0.074-0.192C12.162,24.271,11.996,24.27,11.894,24.372
					 M12.632,23.636c-0.103,0.102-0.101,0.267,0,0.368c0.053,0.053,0.121,0.076,0.192,0.074c0.082-0.123,0.144-0.26,0.193-0.402
					c-0.008-0.013-0.004-0.031-0.016-0.04C12.899,23.532,12.733,23.532,12.632,23.636 M15.213,21.79
					c0.102-0.102,0.102-0.267,0-0.368c-0.101-0.103-0.265-0.103-0.369-0.001c-0.101,0.102-0.101,0.268,0,0.369
					C14.949,21.893,15.113,21.893,15.213,21.79 M15.953,21.053c0.043-0.044,0.058-0.102,0.066-0.158
					c-0.039-0.077-0.072-0.154-0.113-0.229c-0.102-0.067-0.235-0.07-0.323,0.019c-0.103,0.102-0.103,0.268,0,0.369
					C15.685,21.155,15.849,21.155,15.953,21.053 M17.058,19.207c-0.082,0.082-0.08,0.201-0.029,0.299
					c0.015,0.027,0.031,0.054,0.047,0.078c0.103,0.089,0.255,0.091,0.351-0.007c0.102-0.103,0.102-0.268,0-0.37
					C17.326,19.106,17.16,19.106,17.058,19.207 M17.795,18.469c-0.101,0.104-0.101,0.269,0,0.37c0.102,0.103,0.268,0.103,0.369,0
					c0.104-0.102,0.104-0.267,0-0.37C18.063,18.368,17.897,18.368,17.795,18.469 M8.213,31.01c0.139,0.054,0.28,0.105,0.422,0.154
					c-0.008-0.055-0.019-0.109-0.062-0.152C8.474,30.914,8.317,30.915,8.213,31.01 M8.942,30.275c-0.104,0.102-0.102,0.268,0,0.367
					c0.101,0.104,0.267,0.104,0.369,0c0.103-0.101,0.103-0.266,0-0.367C9.209,30.172,9.043,30.172,8.942,30.275 M10.05,29.907
					c0.059-0.06,0.072-0.14,0.065-0.216c-0.155-0.028-0.307-0.065-0.455-0.104c-0.065,0.101-0.069,0.23,0.019,0.319
					C9.781,30.01,9.947,30.01,10.05,29.907 M11.154,28.061c-0.047,0.05-0.069,0.113-0.071,0.177c0.086,0.003,0.17,0.014,0.258,0.014
					c0.086,0,0.17-0.011,0.256-0.014c-0.002-0.063-0.023-0.128-0.072-0.177C11.422,27.96,11.257,27.96,11.154,28.061 M11.894,27.324
					c-0.102,0.101-0.102,0.267,0,0.369s0.268,0.102,0.369,0c0.102-0.103,0.102-0.269,0-0.369
					C12.162,27.222,11.996,27.221,11.894,27.324 M12.632,26.585c-0.103,0.102-0.103,0.268,0,0.37c0.102,0.102,0.268,0.102,0.369,0
					c0.102-0.103,0.102-0.269,0-0.37C12.899,26.484,12.733,26.484,12.632,26.585 M13.369,25.848c-0.102,0.103-0.102,0.269,0,0.369
					c0.101,0.104,0.267,0.104,0.369,0c0.101-0.102,0.101-0.267,0-0.369C13.636,25.746,13.47,25.746,13.369,25.848 M14.106,25.11
					c-0.102,0.102-0.102,0.268,0,0.368c0.101,0.103,0.267,0.103,0.369,0c0.103-0.101,0.103-0.267,0-0.368
					C14.374,25.008,14.208,25.008,14.106,25.11 M15.213,24.742c0.102-0.102,0.102-0.268,0-0.37c-0.101-0.103-0.265-0.103-0.369,0
					c-0.101,0.103-0.101,0.269,0,0.37C14.949,24.844,15.113,24.844,15.213,24.742 M15.583,23.636c-0.103,0.102-0.103,0.267,0,0.368
					c0.102,0.103,0.266,0.103,0.37,0c0.101-0.102,0.101-0.267,0-0.368C15.851,23.532,15.685,23.532,15.583,23.636 M16.32,22.895
					c-0.1,0.104-0.1,0.27,0,0.373c0.049,0.049,0.113,0.07,0.177,0.072c0.002-0.087,0.012-0.171,0.012-0.258s-0.01-0.172-0.012-0.258
					C16.433,22.826,16.369,22.848,16.32,22.895 M17.847,21.4c0.039,0.149,0.074,0.301,0.104,0.455
					c0.076,0.009,0.156-0.005,0.214-0.065c0.104-0.102,0.104-0.268,0-0.369C18.078,21.333,17.947,21.335,17.847,21.4 M18.904,21.053
					c0.101-0.102,0.101-0.268,0-0.369c-0.102-0.102-0.268-0.102-0.369,0c-0.104,0.102-0.104,0.268,0,0.369
					C18.636,21.155,18.8,21.155,18.904,21.053 M19.42,20.378c-0.047-0.143-0.097-0.283-0.152-0.423
					c-0.096,0.104-0.096,0.261,0.004,0.359C19.313,20.357,19.369,20.37,19.42,20.378 M9.681,31.014
					c-0.103,0.101-0.103,0.268,0,0.369c0.102,0.103,0.266,0.103,0.369,0c0.102-0.102,0.102-0.269,0-0.369
					C9.947,30.911,9.783,30.911,9.681,31.014 M10.418,30.275c-0.103,0.102-0.103,0.268,0,0.368c0.102,0.103,0.266,0.103,0.368-0.001
					c0.103-0.1,0.103-0.266,0-0.367C10.685,30.172,10.521,30.172,10.418,30.275 M11.524,29.907c0.031-0.03,0.033-0.072,0.045-0.109
					c-0.076,0.001-0.151,0.011-0.229,0.011c-0.078,0-0.154-0.01-0.23-0.011c0.011,0.037,0.013,0.079,0.045,0.109
					C11.257,30.01,11.422,30.01,11.524,29.907 M13.369,27.324c-0.102,0.101-0.102,0.267,0,0.37c0.043,0.043,0.101,0.059,0.156,0.065
					c0.08-0.038,0.158-0.073,0.232-0.113c0.069-0.101,0.071-0.233-0.017-0.322C13.636,27.221,13.47,27.222,13.369,27.324
					 M14.106,26.586c-0.102,0.101-0.102,0.267,0,0.369c0.101,0.102,0.267,0.102,0.369,0c0.103-0.103,0.103-0.269,0-0.369
					C14.374,26.484,14.208,26.484,14.106,26.586 M14.845,25.848c-0.101,0.103-0.101,0.268,0,0.369c0.104,0.104,0.268,0.104,0.369,0
					c0.102-0.102,0.102-0.267,0-0.369C15.113,25.746,14.949,25.746,14.845,25.848 M15.583,25.11c-0.103,0.102-0.103,0.268,0,0.37
					c0.088,0.089,0.221,0.086,0.323,0.019c0.041-0.075,0.074-0.153,0.113-0.231c-0.008-0.057-0.023-0.114-0.066-0.157
					C15.851,25.008,15.685,25.008,15.583,25.11 M18.056,22.851c0.002,0.078,0.012,0.153,0.012,0.231c0,0.076-0.01,0.153-0.012,0.229
					c0.037-0.011,0.08-0.015,0.109-0.044c0.104-0.104,0.104-0.269,0-0.371C18.136,22.866,18.093,22.863,18.056,22.851
					 M18.535,22.159c-0.104,0.103-0.104,0.267,0,0.369c0.101,0.103,0.267,0.103,0.369,0c0.101-0.102,0.101-0.267,0-0.369
					C18.802,22.057,18.636,22.057,18.535,22.159 M19.272,21.422c-0.104,0.102-0.104,0.267,0,0.368c0.101,0.103,0.265,0.103,0.369,0
					c0.102-0.102,0.102-0.267,0-0.368C19.538,21.319,19.374,21.319,19.272,21.422 M12.632,31.014c-0.103,0.101-0.103,0.268,0,0.369
					c0.102,0.103,0.268,0.103,0.369,0c0.102-0.102,0.102-0.269,0-0.369C12.899,30.911,12.733,30.911,12.632,31.014 M13.369,30.275
					c-0.102,0.102-0.102,0.267,0,0.367c0.103,0.104,0.267,0.104,0.369,0.001c0.101-0.101,0.103-0.267,0.002-0.368
					C13.636,30.172,13.47,30.172,13.369,30.275 M14.106,29.537c-0.102,0.102-0.102,0.268,0,0.37c0.101,0.103,0.267,0.103,0.369,0
					c0.103-0.103,0.103-0.268,0-0.37C14.374,29.436,14.208,29.436,14.106,29.537 M14.915,28.77
					c-0.025,0.017-0.052,0.032-0.078,0.048c-0.088,0.103-0.09,0.256,0.008,0.353c0.104,0.102,0.268,0.1,0.369-0.002
					c0.102-0.101,0.102-0.267,0-0.369C15.129,28.716,15.013,28.719,14.915,28.77 M15.953,28.431c0.101-0.103,0.101-0.266,0-0.37
					c-0.022-0.019-0.049-0.016-0.073-0.029c-0.111,0.102-0.224,0.203-0.34,0.297c0.014,0.036,0.014,0.074,0.043,0.103
					C15.685,28.533,15.849,28.533,15.953,28.431 M16.586,27.281c-0.093,0.116-0.195,0.229-0.297,0.34
					c0.014,0.022,0.01,0.052,0.03,0.072c0.103,0.103,0.267,0.103,0.371,0c0.101-0.103,0.101-0.269,0-0.369
					C16.662,27.295,16.622,27.294,16.586,27.281 M17.427,26.955c0.102-0.103,0.104-0.269,0.002-0.37
					c-0.098-0.097-0.25-0.094-0.353-0.006c-0.016,0.024-0.032,0.052-0.047,0.078c-0.051,0.099-0.053,0.216,0.029,0.298
					C17.16,27.057,17.326,27.057,17.427,26.955 M17.795,25.848c-0.101,0.103-0.101,0.268,0,0.369c0.102,0.104,0.268,0.104,0.369,0
					c0.104-0.102,0.104-0.267,0-0.369C18.063,25.746,17.897,25.746,17.795,25.848 M18.904,25.479c0.101-0.101,0.101-0.266,0-0.368
					c-0.104-0.103-0.268-0.103-0.369,0c-0.104,0.102-0.104,0.268,0,0.37C18.636,25.582,18.802,25.581,18.904,25.479 M19.272,24.372
					c-0.104,0.103-0.104,0.269,0,0.37c0.101,0.102,0.265,0.102,0.369,0c0.102-0.102,0.102-0.268,0-0.37
					C19.538,24.27,19.374,24.27,19.272,24.372 M11.156,31.012c-0.102,0.103-0.102,0.27-0.002,0.371c0.103,0.103,0.269,0.103,0.373,0
					c0.099-0.102,0.099-0.269-0.002-0.371C11.422,30.911,11.257,30.911,11.156,31.012 M11.894,30.275
					c-0.102,0.102-0.102,0.268,0,0.367c0.102,0.104,0.268,0.104,0.369,0.001c0.104-0.101,0.102-0.267,0-0.368
					C12.162,30.172,11.996,30.172,11.894,30.275 M13,29.907c0.088-0.089,0.084-0.219,0.02-0.319
					c-0.149,0.038-0.299,0.075-0.453,0.104c-0.01,0.076,0.004,0.156,0.064,0.216C12.733,30.01,12.899,30.01,13,29.907
					 M17.951,24.309c-0.03,0.154-0.065,0.305-0.104,0.453c0.1,0.065,0.231,0.068,0.318-0.02c0.104-0.102,0.104-0.268,0-0.37
					C18.106,24.312,18.026,24.299,17.951,24.309 M18.904,24.004c0.101-0.102,0.101-0.267,0-0.368c-0.102-0.104-0.268-0.104-0.369,0
					c-0.104,0.102-0.104,0.267,0,0.368C18.636,24.106,18.802,24.106,18.904,24.004 M19.272,22.895c-0.104,0.104-0.104,0.27,0,0.372
					c0.101,0.102,0.265,0.102,0.369,0.001c0.102-0.104,0.102-0.269,0-0.373C19.538,22.795,19.374,22.795,19.272,22.895
					 M14.106,31.014c-0.043,0.041-0.055,0.096-0.063,0.15c0.143-0.049,0.284-0.101,0.424-0.154
					C14.365,30.915,14.206,30.915,14.106,31.014 M14.845,30.275c-0.101,0.102-0.101,0.268,0,0.368c0.104,0.103,0.268,0.103,0.369,0
					c0.102-0.101,0.102-0.267,0-0.368C15.113,30.172,14.949,30.172,14.845,30.275 M15.583,29.537c-0.103,0.102-0.103,0.268,0,0.37
					c0.102,0.103,0.268,0.103,0.37,0c0.101-0.103,0.101-0.269,0-0.37C15.851,29.436,15.685,29.436,15.583,29.537 M16.32,28.799
					c-0.102,0.103-0.1,0.269,0,0.371c0.103,0.1,0.267,0.102,0.371,0c0.101-0.103,0.101-0.269,0-0.37
					C16.586,28.697,16.422,28.696,16.32,28.799 M17.058,28.061c-0.103,0.104-0.102,0.268,0,0.37s0.268,0.103,0.371,0
					c0.102-0.103,0.1-0.267,0-0.37C17.326,27.96,17.16,27.96,17.058,28.061 M17.795,27.324c-0.101,0.101-0.101,0.267,0,0.37
					c0.102,0.102,0.268,0.102,0.369,0c0.104-0.104,0.104-0.27,0-0.37C18.063,27.221,17.897,27.221,17.795,27.324 M18.535,26.585
					c-0.104,0.102-0.104,0.268,0,0.37c0.101,0.102,0.267,0.102,0.369,0c0.101-0.103,0.101-0.269,0-0.369
					C18.802,26.484,18.636,26.482,18.535,26.585 M19.269,26.208c0.055-0.139,0.105-0.279,0.152-0.424
					c-0.052,0.009-0.107,0.021-0.148,0.063C19.172,25.947,19.172,26.105,19.269,26.208 M21.026,22.86
					c-0.008-0.339-0.033-0.674-0.074-1.001c-0.02-0.166-0.047-0.33-0.077-0.491c-0.109-0.62-0.281-1.217-0.502-1.788
					c-0.058-0.151-0.119-0.301-0.185-0.447c-0.975-2.175-2.725-3.926-4.901-4.9c-0.146-0.066-0.294-0.127-0.447-0.185
					c-0.57-0.222-1.168-0.393-1.787-0.504c-0.162-0.028-0.324-0.055-0.49-0.074c-0.33-0.042-0.664-0.067-1.002-0.076
					c-0.074-0.001-0.147-0.01-0.221-0.01c-0.076,0-0.148,0.009-0.222,0.01c-0.338,0.009-0.672,0.034-1,0.076
					c-0.166,0.02-0.331,0.046-0.493,0.074c-0.619,0.111-1.216,0.282-1.789,0.505c-0.15,0.059-0.299,0.117-0.445,0.185
					c-2.176,0.975-3.926,2.725-4.9,4.899c-0.067,0.146-0.125,0.296-0.184,0.446c-0.223,0.572-0.393,1.169-0.504,1.789
					c-0.029,0.161-0.057,0.325-0.076,0.491c-0.041,0.327-0.066,0.662-0.074,1.001c-0.002,0.073-0.012,0.146-0.012,0.222
					s0.01,0.146,0.012,0.222c0.008,0.338,0.033,0.672,0.074,1c0.019,0.166,0.047,0.329,0.076,0.492
					c0.109,0.618,0.281,1.216,0.502,1.787c0.059,0.151,0.119,0.3,0.186,0.446c0.974,2.176,2.724,3.927,4.9,4.9
					c0.146,0.066,0.295,0.127,0.447,0.185c0.571,0.223,1.168,0.393,1.787,0.504c0.162,0.029,0.327,0.055,0.493,0.075
					c0.328,0.042,0.662,0.066,1,0.074c0.074,0.002,0.146,0.012,0.222,0.012c0.074,0,0.149-0.01,0.221-0.012
					c0.338-0.008,0.672-0.032,1-0.074c0.166-0.021,0.33-0.046,0.492-0.075c0.619-0.11,1.217-0.281,1.789-0.504
					c0.151-0.058,0.299-0.118,0.445-0.184c2.176-0.975,3.926-2.726,4.901-4.901c0.066-0.146,0.127-0.295,0.183-0.445
					c0.223-0.572,0.395-1.17,0.504-1.788c0.03-0.163,0.057-0.326,0.077-0.491c0.041-0.329,0.066-0.663,0.074-1.001
					c0.002-0.075,0.011-0.146,0.011-0.222S21.029,22.934,21.026,22.86 M20.233,23.575c-0.01,0.168-0.016,0.337-0.033,0.504
					c-0.039,0.35-0.104,0.69-0.182,1.028c-0.02,0.081-0.041,0.16-0.063,0.241c-0.252,0.956-0.652,1.854-1.185,2.657
					c-0.084,0.124-0.176,0.241-0.264,0.361c-0.109,0.148-0.219,0.299-0.338,0.439c-0.109,0.129-0.224,0.252-0.34,0.375
					c-0.126,0.134-0.255,0.262-0.388,0.388c-0.123,0.116-0.244,0.232-0.375,0.341c-0.143,0.119-0.291,0.229-0.44,0.339
					c-0.121,0.087-0.238,0.179-0.361,0.262c-0.805,0.533-1.701,0.934-2.658,1.187c-0.08,0.021-0.16,0.043-0.24,0.063
					c-0.338,0.078-0.68,0.141-1.03,0.182c-0.166,0.018-0.334,0.024-0.504,0.034C11.668,31.984,11.507,32,11.341,32
					c-0.168,0-0.33-0.016-0.494-0.024c-0.168-0.01-0.338-0.017-0.504-0.034C9.994,31.9,9.651,31.838,9.315,31.76
					c-0.082-0.02-0.162-0.041-0.242-0.063c-0.957-0.253-1.854-0.652-2.659-1.187c-0.123-0.083-0.24-0.175-0.361-0.262
					c-0.148-0.11-0.297-0.22-0.439-0.339c-0.129-0.108-0.252-0.225-0.373-0.341c-0.135-0.126-0.264-0.254-0.389-0.388
					c-0.117-0.123-0.232-0.246-0.342-0.375c-0.119-0.141-0.228-0.291-0.338-0.439c-0.088-0.12-0.179-0.237-0.261-0.361
					c-0.536-0.804-0.936-1.699-1.188-2.656c-0.02-0.08-0.043-0.161-0.062-0.243c-0.079-0.337-0.143-0.678-0.182-1.027
					c-0.018-0.167-0.024-0.336-0.033-0.504c-0.01-0.165-0.026-0.326-0.026-0.493s0.016-0.329,0.026-0.493
					c0.009-0.169,0.015-0.339,0.033-0.504c0.039-0.35,0.103-0.692,0.182-1.028c0.019-0.082,0.042-0.163,0.062-0.242
					c0.252-0.957,0.652-1.854,1.188-2.657c0.082-0.123,0.173-0.241,0.261-0.361c0.11-0.148,0.221-0.298,0.338-0.44
					c0.11-0.13,0.227-0.253,0.342-0.375c0.125-0.132,0.254-0.262,0.387-0.387c0.123-0.116,0.244-0.231,0.375-0.341
					c0.14-0.118,0.291-0.229,0.439-0.339c0.121-0.087,0.238-0.18,0.361-0.263c0.805-0.533,1.702-0.934,2.659-1.186
					c0.08-0.021,0.16-0.044,0.242-0.063c0.336-0.078,0.678-0.143,1.027-0.182c0.166-0.019,0.336-0.024,0.504-0.033
					c0.164-0.01,0.326-0.025,0.494-0.025c0.166,0,0.328,0.016,0.492,0.025c0.168,0.009,0.338,0.015,0.504,0.033
					c0.35,0.039,0.692,0.104,1.028,0.181c0.082,0.02,0.164,0.043,0.244,0.063c0.957,0.252,1.851,0.652,2.656,1.187
					c0.123,0.082,0.24,0.175,0.361,0.262c0.149,0.11,0.297,0.22,0.44,0.339c0.131,0.108,0.252,0.225,0.375,0.341
					c0.133,0.125,0.262,0.255,0.388,0.387c0.116,0.122,0.231,0.246,0.34,0.375c0.119,0.143,0.229,0.292,0.338,0.44
					c0.088,0.12,0.18,0.238,0.262,0.361c0.535,0.804,0.935,1.7,1.187,2.657c0.02,0.08,0.043,0.16,0.063,0.241
					c0.078,0.337,0.141,0.679,0.182,1.028c0.017,0.166,0.023,0.336,0.033,0.505c0.01,0.164,0.025,0.326,0.025,0.493
					S20.244,23.41,20.233,23.575 M17.183,20.631c-0.641-1.527-1.865-2.752-3.393-3.393c-0.148-0.063-0.298-0.116-0.453-0.167
					c-0.629-0.21-1.299-0.328-1.996-0.328c-0.699,0-1.369,0.118-1.998,0.328c-0.154,0.051-0.305,0.104-0.453,0.167
					c-1.527,0.642-2.752,1.867-3.393,3.393c-0.064,0.148-0.117,0.3-0.168,0.454C5.121,21.713,5,22.384,5,23.082
					c0,0.697,0.12,1.368,0.328,1.997c0.051,0.153,0.104,0.305,0.168,0.452c0.641,1.527,1.866,2.752,3.393,3.394
					c0.148,0.063,0.299,0.116,0.455,0.167c0.627,0.21,1.299,0.328,1.996,0.328c0.697,0,1.367-0.118,1.996-0.328
					c0.155-0.051,0.305-0.104,0.453-0.166c1.528-0.643,2.752-1.867,3.393-3.395c0.064-0.147,0.117-0.299,0.168-0.453
					c0.209-0.628,0.328-1.299,0.328-1.996c0-0.698-0.119-1.368-0.328-1.997C17.3,20.931,17.247,20.779,17.183,20.631 M16.722,24.449
					c-0.027,0.105-0.053,0.211-0.086,0.314c-0.207,0.654-0.535,1.256-0.955,1.782c-0.051,0.063-0.105,0.124-0.158,0.186
					c-0.164,0.188-0.344,0.366-0.531,0.531c-0.063,0.054-0.123,0.108-0.188,0.159c-0.525,0.42-1.127,0.748-1.781,0.956
					c-0.104,0.033-0.209,0.058-0.315,0.085c-0.439,0.112-0.894,0.178-1.367,0.178c-0.472,0-0.929-0.065-1.369-0.178
					c-0.103-0.027-0.211-0.052-0.312-0.085c-0.657-0.208-1.258-0.536-1.784-0.956c-0.062-0.051-0.125-0.105-0.187-0.159
					C7.5,27.098,7.324,26.92,7.158,26.731c-0.053-0.062-0.108-0.122-0.159-0.186C6.58,26.02,6.25,25.418,6.043,24.764
					c-0.033-0.104-0.058-0.209-0.086-0.314c-0.111-0.438-0.177-0.895-0.177-1.367s0.066-0.93,0.177-1.368
					c0.028-0.104,0.053-0.211,0.086-0.313c0.207-0.655,0.536-1.258,0.955-1.783c0.051-0.063,0.106-0.124,0.159-0.186
					c0.166-0.189,0.343-0.367,0.533-0.532c0.06-0.053,0.121-0.107,0.185-0.158c0.526-0.42,1.127-0.749,1.784-0.956
					c0.101-0.033,0.209-0.059,0.312-0.086c0.44-0.111,0.897-0.177,1.369-0.177c0.473,0,0.928,0.065,1.367,0.177
					c0.106,0.027,0.211,0.053,0.315,0.086c0.654,0.207,1.258,0.536,1.783,0.957c0.063,0.05,0.123,0.104,0.184,0.157
					c0.189,0.165,0.369,0.343,0.533,0.532c0.053,0.062,0.107,0.122,0.156,0.186c0.422,0.525,0.75,1.128,0.957,1.783
					c0.033,0.102,0.059,0.209,0.086,0.313c0.111,0.438,0.178,0.896,0.178,1.368S16.833,24.011,16.722,24.449 M12.272,20.291
					c-0.143-0.048-0.285-0.09-0.438-0.115c-0.162-0.026-0.324-0.05-0.494-0.05c-0.172,0-0.334,0.023-0.496,0.05
					c-0.152,0.025-0.295,0.067-0.437,0.115c-0.877,0.295-1.565,0.981-1.858,1.858c-0.047,0.143-0.09,0.285-0.115,0.437
					c-0.027,0.162-0.051,0.325-0.051,0.496c0,0.168,0.024,0.333,0.051,0.494c0.025,0.15,0.068,0.295,0.115,0.438
					c0.293,0.876,0.981,1.563,1.858,1.856c0.142,0.048,0.285,0.09,0.437,0.115c0.162,0.028,0.324,0.051,0.496,0.051
					c0.17,0,0.332-0.023,0.494-0.051c0.153-0.025,0.295-0.067,0.438-0.115c0.877-0.293,1.564-0.98,1.857-1.856
					c0.049-0.144,0.09-0.288,0.116-0.438c0.027-0.161,0.05-0.326,0.05-0.494c0-0.171-0.023-0.334-0.05-0.496
					c-0.026-0.15-0.067-0.294-0.116-0.437C13.836,21.272,13.149,20.586,12.272,20.291 M13.517,23.082
					c0,0.08-0.016,0.157-0.025,0.236c-0.11,1.009-0.907,1.805-1.914,1.915c-0.081,0.01-0.157,0.024-0.237,0.024
					c-0.08,0-0.158-0.015-0.236-0.024c-1.01-0.11-1.807-0.906-1.916-1.915c-0.01-0.079-0.026-0.156-0.026-0.236
					c0-0.082,0.016-0.157,0.026-0.236c0.109-1.009,0.906-1.806,1.916-1.918c0.078-0.008,0.156-0.023,0.236-0.023
					c0.08,0,0.156,0.016,0.237,0.023c1.007,0.112,1.804,0.909,1.914,1.918C13.5,22.925,13.517,23.002,13.517,23.082"/>
			</g>
		</g>
	</g>
</g>
</svg>
