<?xml version="1.0" encoding="utf-8"?>
<!-- Generator: Adobe Illustrator 16.0.3, SVG Export Plug-In . SVG Version: 6.00 Build 0)  -->
<!DOCTYPE svg PUBLIC "-//W3C//DTD SVG 1.1//EN" "http://www.w3.org/Graphics/SVG/1.1/DTD/svg11.dtd">
<svg version="1.1" xmlns="http://www.w3.org/2000/svg" xmlns:xlink="http://www.w3.org/1999/xlink" x="0px" y="0px" width="22.68px"
	 height="22.68px" viewBox="0 0 22.68 22.68" enable-background="new 0 0 22.68 22.68" xml:space="preserve">
<g id="BCGRND" display="none">
</g>
<g id="IKONY">
	<g>
		<defs>
			<rect id="SVGID_3_" x="-0.002" width="22.681" height="22.68"/>
		</defs>
		<clipPath id="SVGID_2_">
			<use xlink:href="#SVGID_3_"  overflow="visible"/>
		</clipPath>
		<g clip-path="url(#SVGID_2_)">
			<rect x="-0.002" fill="#585857" width="22.681" height="22.68"/>
			<g>
				<g>
					<rect x="-0.002" y="7.77" fill="#FFFFFF" width="22.678" height="0.889"/>
				</g>
				<g>
					<path fill="#FFFFFF" d="M2.484,2.323c0.264-0.044,0.601-0.068,0.957-0.068c0.615,0,1.04,0.127,1.343,0.381
						c0.317,0.259,0.513,0.649,0.513,1.211c0,0.586-0.2,1.025-0.513,1.309c-0.327,0.298-0.85,0.449-1.489,0.449
						c-0.352,0-0.615-0.02-0.811-0.044V2.323z M3.085,5.111c0.083,0.015,0.21,0.015,0.332,0.015c0.781,0.005,1.245-0.425,1.245-1.26
						c0.005-0.728-0.415-1.143-1.167-1.143c-0.19,0-0.327,0.015-0.41,0.034V5.111z"/>
					<path fill="#FFFFFF" d="M7.849,4.857c0,0.283,0.01,0.518,0.02,0.713H7.342L7.312,5.209h-0.01C7.2,5.38,6.966,5.624,6.541,5.624
						c-0.435,0-0.83-0.259-0.83-1.035V3.192h0.601v1.294c0,0.396,0.127,0.649,0.444,0.649c0.239,0,0.396-0.171,0.459-0.322
						c0.02-0.054,0.034-0.117,0.034-0.186V3.192h0.601V4.857z"/>
					<path fill="#FFFFFF" d="M10.665,4.359c0,0.874-0.615,1.265-1.221,1.265c-0.674,0-1.191-0.464-1.191-1.226
						c0-0.781,0.513-1.26,1.23-1.26C10.192,3.139,10.665,3.637,10.665,4.359z M8.873,4.384c0,0.459,0.225,0.806,0.591,0.806
						c0.342,0,0.581-0.337,0.581-0.815c0-0.371-0.166-0.796-0.576-0.796C9.044,3.578,8.873,3.988,8.873,4.384z"/>
					<path fill="#FFFFFF" d="M10.801,5.224l0.894-1.143c0.122-0.146,0.225-0.264,0.352-0.4v-0.01h-1.157V3.192h1.89v0.366
						l-0.874,1.118c-0.117,0.142-0.229,0.278-0.352,0.405v0.01h1.255V5.57h-2.007V5.224z"/>
					<path fill="#FFFFFF" d="M15.354,4.359c0,0.874-0.615,1.265-1.221,1.265c-0.674,0-1.191-0.464-1.191-1.226
						c0-0.781,0.513-1.26,1.23-1.26C14.88,3.139,15.354,3.637,15.354,4.359z M13.562,4.384c0,0.459,0.225,0.806,0.591,0.806
						c0.342,0,0.581-0.337,0.581-0.815c0-0.371-0.166-0.796-0.576-0.796C13.733,3.578,13.562,3.988,13.562,4.384z M14.865,2.162
						l-0.601,0.723H13.85l0.425-0.723H14.865z"/>
					<path fill="#FFFFFF" d="M15.753,3.9c0-0.273-0.005-0.503-0.02-0.708h0.527l0.029,0.356h0.015
						c0.103-0.186,0.361-0.41,0.757-0.41c0.415,0,0.845,0.269,0.845,1.021V5.57h-0.601V4.228c0-0.342-0.127-0.601-0.454-0.601
						c-0.239,0-0.405,0.171-0.469,0.352c-0.02,0.054-0.024,0.127-0.024,0.195V5.57h-0.605V3.9z"/>
					<path fill="#FFFFFF" d="M19.789,5.57L19.75,5.307h-0.015c-0.146,0.186-0.396,0.317-0.703,0.317
						c-0.479,0-0.747-0.347-0.747-0.708c0-0.601,0.532-0.903,1.411-0.898V3.979c0-0.156-0.063-0.415-0.483-0.415
						c-0.234,0-0.479,0.073-0.64,0.176l-0.117-0.391c0.176-0.107,0.483-0.21,0.859-0.21c0.762,0,0.981,0.483,0.981,1.001v0.859
						c0,0.215,0.01,0.425,0.034,0.571H19.789z M19.711,4.408c-0.425-0.01-0.83,0.083-0.83,0.444c0,0.234,0.151,0.342,0.342,0.342
						c0.239,0,0.415-0.156,0.469-0.327c0.015-0.044,0.02-0.093,0.02-0.132V4.408z"/>
				</g>
				<g>
					<circle fill="#FFFFFF" cx="13.232" cy="21.431" r="0.335"/>
					<path fill="#FFFFFF" d="M13.384,16.021c-0.144-0.066-0.294-0.117-0.445-0.17c0.016,0.047,0.019,0.098,0.056,0.136
						C13.102,16.094,13.257,16.091,13.384,16.021z"/>
					<circle fill="#FFFFFF" cx="12.285" cy="18.59" r="0.335"/>
					<circle fill="#FFFFFF" cx="12.285" cy="16.696" r="0.335"/>
					<circle fill="#FFFFFF" cx="12.285" cy="20.484" r="0.335"/>
					<circle fill="#FFFFFF" cx="10.391" cy="18.59" r="0.336"/>
					<circle fill="#FFFFFF" cx="11.338" cy="21.431" r="0.335"/>
					<circle fill="#FFFFFF" cx="11.337" cy="17.644" r="0.336"/>
					<circle fill="#FFFFFF" cx="11.338" cy="19.538" r="0.335"/>
					<path fill="#FFFFFF" d="M14.416,16.934c0.053-0.053,0.069-0.124,0.079-0.193c-0.136-0.115-0.265-0.239-0.413-0.34
						c-0.049,0.016-0.102,0.02-0.141,0.059c-0.131,0.131-0.131,0.344,0,0.475S14.284,17.064,14.416,16.934z"/>
					<circle fill="#FFFFFF" cx="15.126" cy="21.431" r="0.335"/>
					<circle fill="#FFFFFF" cx="10.391" cy="20.484" r="0.336"/>
					<circle fill="#FFFFFF" cx="13.232" cy="19.538" r="0.335"/>
					<path fill="#FFFFFF" d="M15.8,22.529c0.065-0.144,0.116-0.293,0.169-0.443c-0.047,0.016-0.097,0.018-0.134,0.055
						C15.729,22.248,15.733,22.402,15.8,22.529z"/>
					<circle fill="#FFFFFF" cx="15.125" cy="19.538" r="0.335"/>
					<circle fill="#FFFFFF" cx="13.232" cy="17.643" r="0.335"/>
					<path fill="#FFFFFF" d="M15.969,18.883c-0.053-0.15-0.103-0.301-0.168-0.444c-0.068,0.127-0.072,0.281,0.034,0.389
						C15.872,18.864,15.923,18.866,15.969,18.883z"/>
					<circle fill="#FFFFFF" cx="14.178" cy="20.484" r="0.335"/>
					<path fill="#FFFFFF" d="M15.364,17.88c0.039-0.038,0.042-0.091,0.058-0.14c-0.101-0.148-0.225-0.277-0.34-0.414
						c-0.069,0.01-0.14,0.027-0.192,0.08c-0.131,0.131-0.132,0.344,0,0.475C15.019,18.012,15.233,18.012,15.364,17.88z"/>
					<circle fill="#FFFFFF" cx="9.444" cy="19.538" r="0.335"/>
					<path fill="#FFFFFF" d="M9.681,15.987c0.037-0.038,0.04-0.089,0.056-0.136c-0.151,0.053-0.302,0.104-0.446,0.17
						C9.418,16.091,9.573,16.094,9.681,15.987z"/>
					<path fill="#FFFFFF" d="M14.416,22.141c-0.132-0.131-0.343-0.131-0.475,0c-0.131,0.131-0.131,0.344,0,0.475
						c0.042,0.042,0.098,0.047,0.15,0.063c0.059,0,0.115,0,0.173,0c0.053-0.016,0.109-0.021,0.151-0.063
						C14.547,22.484,14.546,22.271,14.416,22.141z"/>
					<path fill="#FFFFFF" d="M12.522,22.141c-0.131-0.13-0.343-0.131-0.474,0c-0.132,0.131-0.131,0.344,0,0.475
						c0.042,0.042,0.098,0.047,0.15,0.063c0.058,0,0.114,0,0.172,0c0.054-0.016,0.109-0.021,0.151-0.063
						C12.653,22.484,12.653,22.271,12.522,22.141z"/>
					<path fill="#FFFFFF" d="M6.875,18.437c-0.067,0.145-0.117,0.296-0.17,0.447c0.047-0.017,0.098-0.019,0.136-0.057
						C6.948,18.72,6.945,18.564,6.875,18.437z"/>
					<path fill="#FFFFFF" d="M6.705,22.085c0.053,0.151,0.104,0.302,0.17,0.446c0.069-0.128,0.072-0.283-0.034-0.391
						C6.803,22.104,6.752,22.101,6.705,22.085z"/>
					<path fill="#FFFFFF" d="M10.628,22.141c-0.131-0.131-0.344-0.13-0.475,0c-0.131,0.131-0.131,0.344,0,0.475
						c0.042,0.042,0.099,0.047,0.151,0.063h0.172c0.053-0.016,0.109-0.021,0.151-0.063C10.759,22.484,10.759,22.271,10.628,22.141z"
						/>
					<path fill="#FFFFFF" d="M6.443,20.215c-0.005,0.091-0.027,0.177-0.027,0.269c0,0.093,0.022,0.179,0.027,0.271
						c0.128,0.074,0.288,0.077,0.397-0.032c0.131-0.132,0.131-0.344,0-0.475C6.731,20.138,6.571,20.141,6.443,20.215z"/>
					<path fill="#FFFFFF" d="M3.052,22.141c-0.116-0.116-0.29-0.111-0.421-0.022c0.035,0.187,0.08,0.368,0.127,0.55
						c0.033,0.001,0.064,0.01,0.098,0.01H2.94c0.04-0.013,0.08-0.029,0.113-0.063C3.184,22.484,3.184,22.271,3.052,22.141z"/>
					<path fill="#FFFFFF" d="M4.472,22.141c-0.132,0.132-0.132,0.344,0,0.475c0.035,0.035,0.077,0.051,0.12,0.063h0.186
						c-0.064-0.194-0.119-0.393-0.168-0.594C4.562,22.1,4.51,22.103,4.472,22.141z"/>
					<circle fill="#FFFFFF" cx="10.39" cy="16.697" r="0.335"/>
					<path fill="#FFFFFF" d="M8.734,22.141c-0.131-0.131-0.343-0.131-0.474,0s-0.132,0.344,0,0.475
						c0.042,0.042,0.098,0.047,0.151,0.063h0.172c0.053-0.016,0.109-0.021,0.15-0.063C8.865,22.484,8.865,22.271,8.734,22.141z"/>
					<path fill="#FFFFFF" d="M16.232,20.215c-0.128-0.073-0.286-0.077-0.396,0.032c-0.131,0.131-0.131,0.343,0,0.475
						c0.109,0.109,0.268,0.105,0.396,0.032c0.005-0.092,0.027-0.178,0.027-0.271C16.259,20.392,16.237,20.306,16.232,20.215z"/>
					<circle fill="#FFFFFF" cx="9.444" cy="21.431" r="0.335"/>
					<path fill="#FFFFFF" d="M8.593,16.4c-0.148,0.1-0.277,0.225-0.413,0.34c0.01,0.069,0.026,0.14,0.08,0.193
						c0.131,0.131,0.344,0.131,0.475,0s0.131-0.344-0.001-0.475C8.695,16.42,8.642,16.416,8.593,16.4z"/>
					<path fill="#FFFFFF" d="M11.574,15.986c0.11-0.11,0.106-0.27,0.032-0.397c-0.091-0.005-0.177-0.027-0.27-0.027
						c-0.092,0-0.178,0.022-0.269,0.027c-0.074,0.128-0.077,0.287,0.032,0.397C11.232,16.117,11.444,16.117,11.574,15.986z"/>
					<circle fill="#FFFFFF" cx="9.444" cy="17.643" r="0.335"/>
					<circle fill="#FFFFFF" cx="7.55" cy="19.537" r="0.334"/>
					<circle fill="#FFFFFF" cx="7.55" cy="21.431" r="0.335"/>
					<circle fill="#FFFFFF" cx="8.497" cy="18.59" r="0.335"/>
					<path fill="#FFFFFF" d="M7.593,17.326c-0.115,0.137-0.239,0.265-0.339,0.413c0.016,0.049,0.02,0.103,0.059,0.141
						c0.131,0.132,0.343,0.132,0.474,0.001c0.132-0.131,0.132-0.344,0-0.475C7.733,17.354,7.662,17.336,7.593,17.326z"/>
					<circle fill="#FFFFFF" cx="8.497" cy="20.484" r="0.336"/>
					<circle fill="#FFFFFF" cx="14.179" cy="18.59" r="0.335"/>
					<circle fill="#FFFFFF" cx="16.073" cy="14.802" r="0.335"/>
					<circle fill="#FFFFFF" cx="15.126" cy="13.854" r="0.336"/>
					<path fill="#FFFFFF" d="M17.257,14.093c0.037-0.038,0.04-0.089,0.056-0.136c-0.141-0.13-0.283-0.259-0.433-0.379
						c-0.032,0.016-0.071,0.013-0.098,0.04c-0.132,0.131-0.132,0.343,0,0.475C16.913,14.224,17.125,14.224,17.257,14.093z"/>
					<circle fill="#FFFFFF" cx="14.179" cy="12.908" r="0.335"/>
					<circle fill="#FFFFFF" cx="10.391" cy="12.908" r="0.335"/>
					<path fill="#FFFFFF" d="M12.994,12.198c0.132,0.131,0.344,0.132,0.475,0c0.08-0.079,0.094-0.185,0.077-0.288
						c-0.189-0.049-0.38-0.096-0.574-0.133C12.883,11.908,12.879,12.082,12.994,12.198z"/>
					<circle fill="#FFFFFF" cx="12.285" cy="12.908" r="0.335"/>
					<circle fill="#FFFFFF" cx="11.338" cy="11.961" r="0.335"/>
					<path fill="#FFFFFF" d="M12.994,13.618c-0.038,0.038-0.041,0.09-0.057,0.138c0.203,0.049,0.403,0.104,0.6,0.17
						c0.025-0.108,0.017-0.223-0.068-0.308C13.338,13.486,13.126,13.486,12.994,13.618z"/>
					<path fill="#FFFFFF" d="M18.203,15.039c0.027-0.027,0.024-0.064,0.04-0.098c-0.12-0.148-0.249-0.291-0.378-0.432
						c-0.047,0.016-0.098,0.018-0.136,0.056c-0.131,0.132-0.131,0.343,0,0.474S18.073,15.17,18.203,15.039z"/>
					<circle fill="#FFFFFF" cx="17.02" cy="15.749" r="0.335"/>
					<circle fill="#FFFFFF" cx="18.914" cy="17.643" r="0.335"/>
					<circle fill="#FFFFFF" cx="19.861" cy="20.484" r="0.335"/>
					<path fill="#FFFFFF" d="M20.043,18.85c-0.037-0.194-0.084-0.385-0.133-0.574c-0.103-0.018-0.207-0.002-0.286,0.077
						c-0.132,0.131-0.131,0.344,0,0.475C19.74,18.943,19.912,18.938,20.043,18.85z"/>
					<circle fill="#FFFFFF" cx="18.913" cy="19.538" r="0.335"/>
					<circle fill="#FFFFFF" cx="17.967" cy="16.696" r="0.335"/>
					<path fill="#FFFFFF" d="M18.999,16.049c-0.104-0.18-0.209-0.36-0.325-0.532c-0.127,0.132-0.127,0.341,0.002,0.47
						C18.765,16.075,18.886,16.081,18.999,16.049z"/>
					<circle fill="#FFFFFF" cx="18.914" cy="21.431" r="0.335"/>
					<path fill="#FFFFFF" d="M17.895,18.285c0.066,0.195,0.122,0.396,0.17,0.6c0.049-0.016,0.101-0.02,0.139-0.058
						c0.132-0.131,0.131-0.344,0-0.474C18.118,18.268,18.004,18.259,17.895,18.285z"/>
					<path fill="#FFFFFF" d="M3.052,18.827c0.131-0.131,0.132-0.344,0-0.475c-0.079-0.079-0.186-0.094-0.289-0.076
						c-0.049,0.189-0.095,0.379-0.132,0.573C2.762,18.939,2.936,18.943,3.052,18.827z"/>
					<path fill="#FFFFFF" d="M3.999,15.986c0.129-0.13,0.128-0.34,0.002-0.471c-0.117,0.172-0.222,0.353-0.326,0.533
						C3.788,16.082,3.909,16.076,3.999,15.986z"/>
					<path fill="#FFFFFF" d="M16.305,13.147c-0.172-0.116-0.352-0.221-0.532-0.325c-0.032,0.113-0.025,0.233,0.063,0.323
						C15.966,13.273,16.174,13.274,16.305,13.147z"/>
					<path fill="#FFFFFF" d="M6.84,13.146c0.09-0.09,0.095-0.211,0.063-0.324c-0.18,0.104-0.361,0.209-0.533,0.326
						C6.501,13.273,6.71,13.274,6.84,13.146z"/>
					<circle fill="#FFFFFF" cx="3.761" cy="17.643" r="0.335"/>
					<circle fill="#FFFFFF" cx="3.762" cy="21.431" r="0.335"/>
					<circle fill="#FFFFFF" cx="3.761" cy="19.538" r="0.335"/>
					<path fill="#FFFFFF" d="M18.203,22.141c-0.038-0.038-0.09-0.041-0.139-0.058c-0.047,0.202-0.104,0.4-0.168,0.595h0.187
						c0.043-0.012,0.085-0.027,0.12-0.063C18.335,22.484,18.335,22.272,18.203,22.141z"/>
					<path fill="#FFFFFF" d="M9.129,11.91c-0.017,0.103-0.002,0.209,0.077,0.288c0.131,0.132,0.344,0.131,0.475,0
						c0.116-0.116,0.112-0.29,0.022-0.421C9.509,11.814,9.319,11.861,9.129,11.91z"/>
					<circle fill="#FFFFFF" cx="2.815" cy="20.484" r="0.336"/>
					<path fill="#FFFFFF" d="M17.759,20.483c0-0.083-0.009-0.163-0.013-0.244c-0.031-0.83-0.217-1.62-0.535-2.341
						c-0.084-0.189-0.177-0.375-0.277-0.555c-0.578-1.026-1.43-1.877-2.455-2.455c-0.181-0.102-0.365-0.195-0.556-0.279
						c-0.721-0.318-1.511-0.504-2.34-0.535c-0.082-0.004-0.163-0.013-0.246-0.013s-0.163,0.009-0.245,0.013
						c-0.829,0.031-1.619,0.217-2.339,0.535c-0.19,0.084-0.376,0.177-0.556,0.278c-1.027,0.578-1.878,1.429-2.456,2.456
						c-0.102,0.18-0.194,0.365-0.278,0.556c-0.318,0.72-0.504,1.51-0.535,2.339C4.924,20.32,4.915,20.4,4.915,20.483
						s0.009,0.164,0.013,0.246c0.025,0.683,0.161,1.336,0.384,1.948h1.071c-0.299-0.672-0.468-1.413-0.468-2.194
						c0-2.989,2.433-5.422,5.422-5.422s5.422,2.433,5.422,5.422c0,0.781-0.169,1.522-0.468,2.194c0.241,0,0.471,0,0.682,0h0.389
						c0.224-0.613,0.359-1.266,0.385-1.949C17.75,20.646,17.759,20.566,17.759,20.483z"/>
					<path fill="#FFFFFF" d="M19.624,22.141c-0.132,0.131-0.132,0.344-0.001,0.475c0.033,0.033,0.072,0.049,0.113,0.063h0.082
						c0.033,0,0.064-0.009,0.098-0.01c0.047-0.182,0.092-0.364,0.127-0.55C19.912,22.029,19.74,22.025,19.624,22.141z"/>
					<circle fill="#FFFFFF" cx="7.55" cy="13.855" r="0.335"/>
					<circle fill="#FFFFFF" cx="8.497" cy="12.908" r="0.335"/>
					<path fill="#FFFFFF" d="M4.472,18.354c-0.131,0.13-0.132,0.343,0,0.474c0.038,0.038,0.09,0.041,0.138,0.058
						c0.048-0.204,0.104-0.404,0.17-0.601C4.67,18.26,4.557,18.269,4.472,18.354z"/>
					<path fill="#FFFFFF" d="M9.207,13.618c-0.086,0.085-0.095,0.198-0.069,0.308c0.196-0.066,0.396-0.122,0.6-0.17
						c-0.016-0.048-0.019-0.1-0.057-0.138C9.55,13.486,9.338,13.486,9.207,13.618z"/>
					<circle fill="#FFFFFF" cx="6.603" cy="14.802" r="0.336"/>
					<path fill="#FFFFFF" d="M5.795,13.577c-0.149,0.12-0.291,0.249-0.433,0.378c0.016,0.048,0.019,0.1,0.057,0.138
						c0.131,0.13,0.343,0.131,0.474,0c0.131-0.132,0.131-0.345,0-0.475C5.865,13.591,5.827,13.594,5.795,13.577z"/>
					<circle fill="#FFFFFF" cx="4.709" cy="16.696" r="0.336"/>
					<path fill="#FFFFFF" d="M4.809,14.509c-0.129,0.142-0.258,0.283-0.378,0.433c0.017,0.032,0.014,0.07,0.041,0.098
						c0.13,0.131,0.343,0.132,0.475,0c0.131-0.131,0.13-0.343,0-0.474C4.908,14.527,4.857,14.524,4.809,14.509z"/>
					<circle fill="#FFFFFF" cx="5.656" cy="15.749" r="0.336"/>
				</g>
			</g>
		</g>
		<path clip-path="url(#SVGID_2_)" fill="#FFFFFF" d="M11.337,10.12c-5.714,0-10.363,4.649-10.363,10.363
			s4.649,10.363,10.363,10.363s10.363-4.649,10.363-10.363S17.051,10.12,11.337,10.12z M20.7,20.483
			c0,0.226-0.019,0.447-0.034,0.669c-0.013,0.179-0.029,0.356-0.052,0.532c-0.104,0.808-0.308,1.583-0.604,2.313
			c-0.078,0.192-0.167,0.378-0.257,0.563c-0.919,1.888-2.449,3.419-4.337,4.338c-0.186,0.09-0.371,0.18-0.563,0.258
			c-0.729,0.297-1.505,0.5-2.313,0.604c-0.176,0.022-0.354,0.039-0.532,0.052c-0.223,0.016-0.444,0.034-0.671,0.034
			c-0.226,0-0.447-0.019-0.669-0.034c-0.18-0.013-0.357-0.029-0.533-0.052c-0.807-0.104-1.583-0.308-2.313-0.604
			c-0.192-0.078-0.378-0.167-0.563-0.258c-1.888-0.918-3.419-2.449-4.338-4.337c-0.09-0.186-0.179-0.372-0.257-0.564
			c-0.297-0.729-0.5-1.505-0.604-2.313c-0.022-0.176-0.039-0.354-0.052-0.532c-0.016-0.222-0.034-0.443-0.034-0.669
			s0.019-0.447,0.034-0.669c0.013-0.179,0.029-0.356,0.052-0.532c0.104-0.808,0.308-1.583,0.604-2.313
			c0.078-0.192,0.167-0.379,0.257-0.564c0.919-1.888,2.45-3.419,4.338-4.337c0.186-0.091,0.371-0.18,0.563-0.258
			c0.729-0.297,1.506-0.5,2.313-0.604c0.176-0.022,0.354-0.039,0.533-0.052c0.222-0.016,0.443-0.034,0.669-0.034
			c0.227,0,0.448,0.019,0.671,0.034c0.179,0.013,0.356,0.029,0.532,0.052c0.808,0.104,1.583,0.308,2.313,0.604
			c0.192,0.078,0.378,0.168,0.563,0.258c1.888,0.919,3.418,2.45,4.337,4.338c0.09,0.186,0.179,0.371,0.257,0.563
			c0.297,0.729,0.5,1.505,0.604,2.313c0.023,0.176,0.039,0.354,0.052,0.532C20.682,20.036,20.701,20.258,20.7,20.483L20.7,20.483z"
			/>
	</g>
</g>
</svg>
